<svg width="100" height="100" viewBox="0 0 100 100" fill="none" xmlns="http://www.w3.org/2000/svg">
<path d="M19.3653 73.6231C19.3653 73.6231 17.1353 58.6331 18.3753 58.5101C19.6253 58.3861 29.6052 57.3251 29.9552 58.8571C30.3052 60.3901 30.8552 73.4191 29.4452 73.8781C28.0352 74.3371 19.3653 73.6231 19.3653 73.6231Z" stroke="black" stroke-width="2" stroke-miterlimit="10" stroke-linejoin="round"/>
<path d="M29.4053 73.8514C29.4053 73.8514 31.9153 73.3744 31.8453 69.7944C31.7853 66.2144 32.2254 60.2484 29.9954 58.7734" stroke="black" stroke-width="2" stroke-miterlimit="10" stroke-linejoin="round"/>
<path d="M42.6453 73.6556C42.6453 73.6556 42.4052 51.5606 43.4452 50.8396C44.4952 50.1186 54.7052 49.5826 55.0452 50.9486C55.3752 52.3156 56.2752 74.0106 54.9752 74.0306C53.6652 74.0506 42.6453 73.6556 42.6453 73.6556Z" stroke="black" stroke-width="2" stroke-miterlimit="10" stroke-linejoin="round"/>
<path d="M55.0054 74.0064C55.0054 74.0064 56.7554 73.6944 57.2354 71.1804C57.7054 68.6664 56.9653 56.8264 56.9553 55.0834C56.9453 53.3404 55.0353 50.8994 55.0353 50.8994" stroke="black" stroke-width="2" stroke-miterlimit="10" stroke-linejoin="round"/>
<path d="M66.9852 73.6953C66.9852 73.6953 65.7151 42.1933 67.1851 41.1873C68.6551 40.1813 80.5251 39.5403 80.4051 42.6063C80.2851 45.6723 80.9851 74.1313 79.6551 74.0323C78.3151 73.9323 66.9852 73.6953 66.9852 73.6953Z" stroke="black" stroke-width="2" stroke-miterlimit="10" stroke-linejoin="round"/>
<path d="M79.7451 74.0232C79.7451 74.0232 81.7551 74.1812 81.7351 67.7842C81.7151 61.7562 82.2451 52.0132 82.2051 50.2042C82.1651 48.3962 80.3651 42.2432 80.3651 42.2432" stroke="black" stroke-width="2" stroke-miterlimit="10" stroke-linejoin="round"/>
<path d="M24.2153 48.8795C24.2153 48.8795 27.7553 45.7425 29.4053 44.5025C32.3753 42.2725 35.4053 39.6595 38.0453 37.0505C39.7853 35.3295 42.4554 31.6365 44.7654 30.7765C45.6054 30.4645 51.8953 38.7675 53.2153 38.6485C53.9953 38.5775 55.1454 37.4545 55.7754 36.9935C58.2154 35.2135 60.9654 33.4235 63.4954 31.8585C64.9954 30.9325 68.5953 28.2725 68.5953 28.2725" stroke="black" stroke-width="2" stroke-miterlimit="10" stroke-linecap="round" stroke-linejoin="round"/>
<path d="M67.1053 25.9679C68.6253 25.7649 70.8552 25.6758 72.3152 25.1388C72.3552 25.1218 73.0252 24.9379 73.0752 25.0219C73.4252 25.6729 71.2053 29.0829 70.7653 29.7369C70.7253 29.7899 70.4952 30.3049 70.4252 30.2859C69.8152 30.1029 68.9352 28.3239 68.5352 27.8189C68.3652 27.6099 66.7353 26.0169 67.1053 25.9679Z" fill="black" stroke="black" stroke-width="2" stroke-miterlimit="10" stroke-linecap="round" stroke-linejoin="round"/>
</svg>
