<svg width="100" height="100" viewBox="0 0 100 100" fill="none" xmlns="http://www.w3.org/2000/svg">
<path d="M27.1995 35.66C24.7035 35.862 17.8505 35.732 18.0025 32.525C18.1545 29.318 22.7325 29 22.7325 29C22.7325 29 69.7645 29.277 74.0225 29.178C78.2815 29.08 81.3365 30.305 81.0295 33.149C80.7215 35.992 78.9165 36.614 77.5315 36.708C75.5785 36.84 73.3685 36.886 73.3685 36.886" stroke="black" stroke-width="2" stroke-miterlimit="10" stroke-linecap="round" stroke-linejoin="round"/>
<path d="M25.0312 29.0879C25.0312 29.0879 27.9843 30.2269 27.2873 39.2199C26.9713 43.2959 25.6343 47.2749 26.2953 55.3109C26.9553 63.3469 29.9303 71.3649 29.9303 71.3649C29.9303 71.3649 35.0143 67.9979 36.1423 67.2729C36.9333 66.7639 41.6473 71.7729 41.6473 71.7729C41.6473 71.7729 45.8722 67.8779 46.6432 67.5139C47.0312 67.3299 52.1993 71.1229 52.1993 71.1229C52.1993 71.1229 56.4463 67.2509 57.2923 66.9659C58.1673 66.6709 62.6983 70.5319 62.6983 70.5319L67.0193 66.5559C67.0193 66.5559 68.1403 67.5479 69.7793 68.4379C71.4183 69.3289 73.5763 70.1169 73.5763 70.1169C73.5763 70.1169 71.5983 66.9509 71.0163 60.7279C70.4343 54.5059 70.9613 50.6389 71.6103 45.9929C72.3663 40.5859 74.4133 35.0529 70.5793 29.3369" stroke="black" stroke-width="2" stroke-miterlimit="10" stroke-linecap="round" stroke-linejoin="round"/>
<path d="M37.9023 56.1682C37.9023 56.1682 41.9393 56.1242 43.0723 55.9632C48.7973 55.1542 54.4643 56.0152 60.1443 55.5312" stroke="black" stroke-width="2" stroke-miterlimit="10" stroke-linecap="round" stroke-linejoin="round"/>
<path d="M37.6377 47.8323C43.1087 47.3663 48.8937 48.4503 54.3307 47.5633C55.5877 47.3583 60.4247 47.6223 60.4247 47.6223" stroke="black" stroke-width="2" stroke-miterlimit="10" stroke-linecap="round" stroke-linejoin="round"/>
<path d="M36.6357 39.4549C44.5407 38.7809 52.4657 39.8089 60.4507 39.1289" stroke="black" stroke-width="2" stroke-miterlimit="10" stroke-linecap="round" stroke-linejoin="round"/>
<path d="M70.6245 29.272C70.6245 29.272 74.4845 29.22 75.8045 29.26C77.1235 29.3 81.5165 30.033 81.0085 33.169C80.4995 36.306 78.6715 36.807 75.8655 36.784C73.0605 36.761 72.8495 36.93 72.8495 36.93C72.8495 36.93 72.8285 33.999 72.1595 32.369C71.5125 30.791 70.6245 29.272 70.6245 29.272Z" fill="black" stroke="black" stroke-width="2" stroke-miterlimit="10" stroke-linecap="round" stroke-linejoin="round"/>
<path d="M25.0435 29.1305C25.0435 29.1305 21.0525 28.4355 19.0585 30.4355C17.4975 32.0015 17.7805 33.6755 19.5845 34.6965C21.9725 36.0475 27.3005 35.6305 27.3005 35.6305C27.3005 35.6305 27.2566 33.3785 26.7246 31.5545C26.1926 29.7305 25.0435 29.1305 25.0435 29.1305Z" fill="black" stroke="black" stroke-width="2" stroke-miterlimit="10" stroke-linecap="round" stroke-linejoin="round"/>
</svg>
