<svg width="23" height="24" viewBox="0 0 23 24" fill="none" xmlns="http://www.w3.org/2000/svg">
<path d="M11.1595 13.9103L16.4086 8.29927C16.5871 8.10871 16.8114 8.01114 17.0816 8.00654C17.3516 8.00218 17.58 8.09976 17.7669 8.29927C17.9535 8.49901 18.0469 8.74099 18.0469 9.02522C18.0469 9.30945 17.9535 9.55143 17.7669 9.75118L11.975 15.9421C11.8543 16.0709 11.727 16.1618 11.5932 16.2149C11.4594 16.2679 11.3148 16.2944 11.1595 16.2944C11.0042 16.2944 10.8597 16.2679 10.7259 16.2149C10.5921 16.1618 10.4648 16.0709 10.3441 15.9421L4.55217 9.75117C4.37389 9.56039 4.28261 9.32058 4.27831 9.03176C4.27423 8.74317 4.36552 8.49901 4.55217 8.29927C4.73904 8.09976 4.96542 8 5.23133 8C5.49724 8 5.72363 8.09976 5.9105 8.29927L11.1595 13.9103Z" fill="#7F7F7F"/>
</svg>
