<svg width="9" height="16" viewBox="0 0 9 16" fill="none" xmlns="http://www.w3.org/2000/svg">
<path d="M2.46307 9.03581C2.2611 8.90901 2.03866 8.96217 1.82599 8.95392C1.51096 8.94139 1.1941 8.95392 0.878766 8.93192C0.254822 8.88548 0.182711 8.8097 0.172322 8.16803C0.163767 7.65531 0.156739 7.14076 0.187906 6.62956C0.218461 6.13364 0.358406 6.0212 0.854322 5.99248C1.38171 5.96192 1.91429 6.04106 2.46521 5.93137C2.61799 5.40123 2.53824 4.86926 2.55688 4.34492C2.58743 3.4692 2.70966 2.61517 3.13591 1.83387C3.73938 0.729284 4.66368 0.103201 5.93143 0.0549233C6.70021 0.0243677 7.47082 0.0372006 8.24021 0.050645C8.73827 0.0595061 8.82627 0.148117 8.83177 0.650451C8.83788 1.22215 8.83177 1.79598 8.79021 2.36614C8.74102 3.0347 8.53996 3.21498 7.8873 3.14409C6.66507 3.01117 6.11202 3.45637 6.15571 4.80815C6.16641 5.13906 6.0998 5.4767 6.22843 5.82564C6.68157 5.98514 7.15671 5.8892 7.62146 5.90448C8.30804 5.92678 8.45257 6.0267 8.54913 6.70106C8.63285 7.28834 8.62552 7.88326 8.60321 8.47328C8.58763 8.88731 8.4321 9.03001 8.0141 9.0517C7.6398 9.07095 7.26427 9.07523 6.88966 9.07095C6.56974 9.06728 6.41849 9.20203 6.42521 9.52928C6.43438 9.98303 6.42521 10.4371 6.42521 10.8908C6.42521 12.2527 6.42827 13.6146 6.42521 14.9761C6.42521 15.8338 6.31643 15.9478 5.48471 15.9557C4.75474 15.9631 4.02416 15.9673 3.29449 15.9496C2.66291 15.934 2.52571 15.7947 2.52571 15.1683C2.52571 13.3527 2.54099 11.5371 2.54741 9.72148C2.54924 9.49201 2.61066 9.25031 2.46307 9.03581ZM5.33193 15.3226C5.47799 15.0333 5.43552 14.8123 5.43613 14.5991C5.4398 12.9209 5.4403 11.2428 5.43766 9.56473C5.43766 8.4797 5.46821 8.44976 6.56577 8.43051C7.74949 8.40973 7.85368 8.28353 7.67493 7.08331C7.67218 7.06376 7.66668 7.04451 7.66577 7.02495C7.64805 6.68273 7.47327 6.54981 7.12799 6.55623C6.6553 6.56478 6.18077 6.53942 5.70868 6.5107C5.35943 6.48931 5.17243 6.28795 5.16938 5.9332C5.16541 5.47914 5.17121 5.02509 5.1651 4.57134C5.1483 3.32681 6.19452 2.38173 7.36296 2.43245C7.53407 2.43978 7.72077 2.48501 7.95299 2.24056C7.95299 1.88367 7.95299 1.4339 7.95299 0.983812C7.95299 0.731117 7.80724 0.637617 7.57379 0.640062C6.94221 0.646784 6.30238 0.589339 5.68118 0.673062C4.72968 0.801089 4.00063 1.29792 3.60127 2.21642C3.34643 2.80339 3.1961 3.40656 3.19488 4.04976C3.19488 4.62176 3.18938 5.19528 3.14996 5.76545C3.09863 6.50795 2.98374 6.58678 2.24674 6.60573C1.76274 6.61826 1.26896 6.52598 0.760517 6.68487C0.751961 7.23487 0.66885 7.75951 0.815517 8.29117C1.32549 8.40392 1.81988 8.35228 2.30785 8.37612C3.13071 8.41523 3.19671 8.45953 3.18999 9.25826C3.18204 10.2055 3.15271 11.1527 3.14202 12.0999C3.13163 13.008 3.13468 13.9161 3.12857 14.8243C3.12643 15.1029 3.15913 15.3529 3.51663 15.3642C4.12407 15.3825 4.73396 15.425 5.33193 15.3226Z" fill="black"/>
</svg>
