<svg width="33" height="34" viewBox="0 0 33 34" fill="currentColor" xmlns="http://www.w3.org/2000/svg">
<path d="M23.8719 17.1446C23.8697 18.3806 23.8893 19.6159 23.8135 20.8516C23.7646 21.6479 23.4468 22.2932 22.9965 22.933C22.3655 23.8317 21.4824 24.1452 20.4603 24.2048C18.294 24.3309 16.1245 24.3462 13.956 24.2964C13.0219 24.2744 12.0921 24.1669 11.2365 23.7431C10.4042 23.3309 9.86552 22.6611 9.56088 21.7918C9.30085 21.0496 9.21835 20.2802 9.19085 19.5001C9.12791 17.7111 9.15418 15.9214 9.12668 14.1324C9.1056 12.7009 9.55507 11.5303 10.6945 10.6078C11.2588 10.1495 11.8684 9.90506 12.5654 9.80453C13.615 9.65389 14.6707 9.70522 15.7233 9.7205C17.0372 9.73945 18.3511 9.65084 19.665 9.68445C20.2339 9.69881 20.8142 9.70859 21.3486 9.93439C22.2093 10.2986 22.8299 10.9384 23.2678 11.7491C23.66 12.4652 23.8679 13.2677 23.8728 14.0841C23.8765 15.1053 23.8719 16.1246 23.8719 17.1446ZM9.67302 16.4989H9.66293C9.66293 17.1125 9.65682 17.7264 9.66446 18.3399C9.67577 19.2459 9.66904 20.1531 9.86216 21.0468C10.1793 22.5156 11.0538 23.3901 12.551 23.6486C13.3733 23.7907 14.201 23.8219 15.0291 23.832C16.6715 23.8515 18.3117 23.7571 19.9528 23.7128C21.1176 23.6823 22.0065 23.1323 22.6255 22.1432C23.0035 21.5394 23.0515 20.8565 23.1025 20.1763C23.2709 17.8912 23.2446 15.596 23.024 13.3154C22.925 12.2734 22.4764 11.3968 21.5652 10.8083C20.8881 10.371 20.1261 10.2247 19.3414 10.2186C17.362 10.2027 15.3826 10.1981 13.4032 10.2201C12.8108 10.2265 12.2174 10.3169 11.6558 10.5473C11.2396 10.7175 10.9683 11.0637 10.6456 11.3448C10.0531 11.8609 9.70357 12.5246 9.68004 13.3099C9.64888 14.372 9.67302 15.4359 9.67302 16.4989Z" fill="#7F7F7F"/>
<path d="M16.1943 24.4419C15.4708 24.4419 14.7252 24.4328 13.9534 24.4148C13.1589 24.3964 12.1255 24.3155 11.1841 23.8492C10.3591 23.441 9.77551 22.7617 9.44918 21.8325C9.1589 21.0032 9.09565 20.1523 9.07273 19.506C9.03362 18.3892 9.02904 17.2541 9.02446 16.1562C9.02171 15.4941 9.01896 14.8093 9.00857 14.1362C8.98504 12.5974 9.51151 11.414 10.6185 10.5178C11.1756 10.0668 11.8062 9.79606 12.5472 9.68942C13.4471 9.56017 14.3613 9.5782 15.2453 9.59562C15.4048 9.59867 15.5642 9.60152 15.7235 9.60417C16.3373 9.61303 16.9619 9.59806 17.566 9.5837C18.2535 9.5672 18.9645 9.55039 19.6654 9.56812H19.7052C20.2677 9.58248 20.8495 9.59714 21.3921 9.82662C22.2251 10.1789 22.8893 10.8071 23.3694 11.6942C23.7705 12.4275 23.9833 13.249 23.9887 14.0848C23.993 14.7974 23.9921 15.5209 23.9909 16.2237C23.9909 16.5317 23.9909 16.8395 23.9909 17.1471C23.9909 17.3757 23.9909 17.6042 23.9909 17.8328C23.9924 18.8246 23.9939 19.8494 23.9319 20.8611C23.8751 21.7824 23.454 22.4901 23.0935 23.0034C22.5095 23.8348 21.6754 24.2562 20.4681 24.3252C19.1142 24.4025 17.7022 24.4419 16.1943 24.4419ZM14.3179 9.81989C13.7373 9.81989 13.155 9.84098 12.5808 9.92348C11.8738 10.0249 11.2975 10.2721 10.7677 10.7014C9.70646 11.5603 9.22276 12.6506 9.24568 14.1319C9.25607 14.8063 9.25882 15.4919 9.26157 16.1547C9.26584 17.2507 9.27043 18.3852 9.30954 19.4971C9.33185 20.1281 9.39326 20.9546 9.67315 21.7537C9.97871 22.6239 10.522 23.2579 11.2895 23.6377C12.1842 24.0805 13.1409 24.1599 13.9592 24.1789C16.3327 24.2342 18.4573 24.2045 20.4541 24.0872C21.5846 24.0215 22.3601 23.6331 22.8985 22.865C23.4143 22.1316 23.652 21.5263 23.693 20.8446C23.7541 19.8412 23.7541 18.8191 23.7516 17.8309C23.7516 17.602 23.7516 17.3732 23.7516 17.1447C23.7516 16.8367 23.7516 16.5288 23.7516 16.221C23.7516 15.5209 23.7535 14.7968 23.7492 14.0851C23.7447 13.2885 23.5426 12.5053 23.161 11.806C22.7082 10.9676 22.0821 10.3748 21.2998 10.0442C20.7984 9.83212 20.2396 9.81806 19.699 9.80431H19.6593C18.9642 9.78659 18.2562 9.80431 17.5715 9.81989C16.9652 9.83456 16.3382 9.85045 15.7201 9.84037C15.5602 9.83813 15.4004 9.83527 15.2407 9.83181C14.936 9.82509 14.6274 9.81989 14.3179 9.81989ZM15.4821 23.9546C15.3305 23.9546 15.1794 23.9537 15.0286 23.9518C14.2323 23.9424 13.3786 23.9133 12.5316 23.767C11.0124 23.5048 10.0753 22.5985 9.74587 21.0732C9.56621 20.2409 9.55704 19.389 9.54818 18.5652L9.54573 18.3431C9.54054 17.918 9.54176 17.4875 9.54329 17.0692C9.54329 16.8793 9.54329 16.6898 9.54329 16.5006V16.382H9.55307C9.55307 16.1027 9.55093 15.8231 9.54909 15.5439C9.5439 14.8105 9.53871 14.0534 9.56132 13.3081C9.58515 12.5189 9.93318 11.8109 10.5675 11.2569C10.6512 11.1842 10.734 11.1041 10.8138 11.0271C11.0451 10.8038 11.2843 10.5728 11.6107 10.4393C12.1442 10.2205 12.7299 10.1105 13.4018 10.1031C15.1508 10.0839 17.038 10.0833 19.3422 10.1016C20.2588 10.1089 21.0062 10.3082 21.6295 10.7106C22.5242 11.2884 23.0333 12.1614 23.1417 13.3057C23.3626 15.5927 23.3895 17.8943 23.2221 20.1859L23.2203 20.2069C23.1695 20.8844 23.117 21.5847 22.7274 22.2068C22.072 23.2533 21.14 23.8003 19.9572 23.8321C19.4555 23.8455 18.9535 23.8626 18.4518 23.8819C17.4777 23.9173 16.4763 23.9537 15.4821 23.9537V23.9546ZM9.78132 16.617C9.78132 16.7675 9.78132 16.9182 9.78132 17.0689C9.78132 17.4854 9.77887 17.9162 9.78407 18.3391L9.78651 18.5615C9.79507 19.3737 9.80423 20.2134 9.97901 21.0225C10.2901 22.4638 11.1386 23.2836 12.5732 23.5326C13.404 23.6762 14.2461 23.7046 15.0326 23.7141C16.1693 23.7279 17.3243 23.6857 18.4438 23.6451C18.9465 23.6267 19.4488 23.6087 19.9517 23.5949C21.0499 23.5644 21.9165 23.0563 22.527 22.0809C22.8857 21.5083 22.9337 20.8676 22.9853 20.1892V20.1681C23.1522 17.8898 23.1261 15.6013 22.9071 13.3274C22.8056 12.2579 22.3329 11.4451 21.5015 10.9086C20.917 10.5312 20.2102 10.3445 19.3409 10.3375C17.0389 10.3192 15.1527 10.3198 13.4052 10.3393C12.7635 10.3464 12.2065 10.4506 11.7011 10.6574C11.417 10.7738 11.2043 10.9792 10.9791 11.1967C10.8969 11.2759 10.8123 11.3581 10.724 11.4348C10.1321 11.9502 9.82104 12.5824 9.79873 13.3142C9.77643 14.0552 9.78162 14.8114 9.78651 15.5411C9.78865 15.8607 9.79079 16.18 9.79079 16.4996V16.617H9.78132Z" fill="#7F7F7F"/>
<path d="M16.5288 13.1562C17.2316 13.1611 18.0731 13.6179 18.8159 14.2914C19.3912 14.813 19.8092 15.436 19.9834 16.206C20.1667 17.024 20.0304 17.8093 19.6888 18.5536C19.1388 19.7504 18.2182 20.5492 16.9278 20.8064C15.4126 21.1086 14.1589 20.5819 13.1976 19.3792C12.5865 18.6138 12.2608 17.7371 12.3937 16.7545C12.5398 15.678 13.0775 14.7937 13.897 14.0848C14.6246 13.456 15.3695 13.1602 16.5288 13.1562ZM18.5778 16.8571C18.5699 16.7004 18.5711 16.5442 18.5265 16.393C18.2656 15.5069 17.6737 14.9242 16.7989 14.699C15.9045 14.4689 15.1199 14.7222 14.4813 15.4259C13.6563 16.3343 13.4955 18.3654 14.9472 19.1739C16.1019 19.8155 17.2872 19.6606 17.9927 18.6773C18.3832 18.1328 18.5363 17.5129 18.5778 16.8571Z" fill="#7F7F7F"/>
<path d="M21.2448 13.1802C21.2387 13.7696 20.8763 14.1143 20.2728 14.1042C19.7918 14.0963 19.3867 13.6813 19.3977 13.1952C19.4075 12.7754 19.823 12.2244 20.3467 12.2541C20.8705 12.2837 21.2503 12.6492 21.2448 13.1802Z" fill="#7F7F7F"/>
</svg>
