<svg width="33" height="34" viewBox="0 0 33 34" fill="none" xmlns="http://www.w3.org/2000/svg">
<path d="M23.8719 17.1451C23.8697 18.381 23.8893 19.6164 23.8135 20.8521C23.7646 21.6484 23.4468 22.2937 22.9965 22.9335C22.3655 23.8322 21.4824 24.1457 20.4603 24.2052C18.294 24.3314 16.1245 24.3467 13.956 24.2969C13.0219 24.2749 12.0921 24.1674 11.2365 23.7435C10.4042 23.3314 9.86552 22.6616 9.56088 21.7923C9.30085 21.0501 9.21835 20.2807 9.19085 19.5006C9.12791 17.7116 9.15418 15.9219 9.12668 14.1329C9.1056 12.7014 9.55507 11.5308 10.6945 10.6083C11.2588 10.15 11.8684 9.90555 12.5654 9.80502C13.615 9.65438 14.6707 9.70571 15.7233 9.72099C17.0372 9.73994 18.3511 9.65132 19.665 9.68494C20.2339 9.6993 20.8142 9.70907 21.3486 9.93488C22.2093 10.2991 22.8299 10.9389 23.2678 11.7496C23.66 12.4657 23.8679 13.2682 23.8728 14.0846C23.8765 15.1058 23.8719 16.1251 23.8719 17.1451ZM9.67302 16.4994H9.66293C9.66293 17.113 9.65682 17.7269 9.66446 18.3404C9.67577 19.2464 9.66904 20.1536 9.86216 21.0473C10.1793 22.5161 11.0538 23.3906 12.551 23.6491C13.3733 23.7912 14.201 23.8224 15.0291 23.8325C16.6715 23.852 18.3117 23.7576 19.9528 23.7133C21.1176 23.6827 22.0065 23.1327 22.6255 22.1437C23.0035 21.5399 23.0515 20.857 23.1025 20.1768C23.2709 17.8917 23.2446 15.5965 23.024 13.3159C22.925 12.2739 22.4764 11.3973 21.5652 10.8088C20.8881 10.3715 20.1261 10.2252 19.3414 10.219C17.362 10.2032 15.3826 10.1986 13.4032 10.2206C12.8108 10.227 12.2174 10.3174 11.6558 10.5478C11.2396 10.718 10.9683 11.0642 10.6456 11.3453C10.0531 11.8614 9.70357 12.5251 9.68004 13.3104C9.64888 14.3725 9.67302 15.4364 9.67302 16.4994Z" fill="#7F7F7F"/>
<path d="M16.1943 24.4415C15.4708 24.4415 14.7252 24.4323 13.9534 24.4143C13.1589 24.3959 12.1255 24.315 11.1841 23.8487C10.3591 23.4405 9.77551 22.7612 9.44918 21.832C9.1589 21.0027 9.09565 20.1518 9.07273 19.5055C9.03362 18.3887 9.02904 17.2536 9.02446 16.1557C9.02171 15.4936 9.01896 14.8088 9.00857 14.1357C8.98504 12.5969 9.51151 11.4135 10.6185 10.5173C11.1756 10.0663 11.8062 9.79557 12.5472 9.68893C13.4471 9.55968 14.3613 9.57771 15.2453 9.59513C15.4048 9.59818 15.5642 9.60103 15.7235 9.60368C16.3373 9.61254 16.9619 9.59757 17.566 9.58321C18.2535 9.56671 18.9645 9.54991 19.6654 9.56763H19.7052C20.2677 9.58199 20.8495 9.59665 21.3921 9.82613C22.2251 10.1784 22.8893 10.8067 23.3694 11.6937C23.7705 12.427 23.9833 13.2485 23.9887 14.0843C23.993 14.7969 23.9921 15.5205 23.9909 16.2232C23.9909 16.5312 23.9909 16.839 23.9909 17.1466C23.9909 17.3752 23.9909 17.6037 23.9909 17.8323C23.9924 18.8241 23.9939 19.849 23.9319 20.8607C23.8751 21.7819 23.454 22.4896 23.0935 23.0029C22.5095 23.8343 21.6754 24.2557 20.4681 24.3247C19.1142 24.402 17.7022 24.4415 16.1943 24.4415ZM14.3179 9.8194C13.7373 9.8194 13.155 9.84049 12.5808 9.92299C11.8738 10.0244 11.2975 10.2716 10.7677 10.7009C9.70646 11.5598 9.22276 12.6501 9.24568 14.1314C9.25607 14.8058 9.25882 15.4914 9.26157 16.1542C9.26584 17.2502 9.27043 18.3847 9.30954 19.4967C9.33185 20.1276 9.39326 20.9542 9.67315 21.7532C9.97871 22.6234 10.522 23.2574 11.2895 23.6372C12.1842 24.08 13.1409 24.1594 13.9592 24.1784C16.3327 24.2337 18.4573 24.204 20.4541 24.0867C21.5846 24.021 22.3601 23.6327 22.8985 22.8645C23.4143 22.1312 23.652 21.5259 23.693 20.8442C23.7541 19.8407 23.7541 18.8186 23.7516 17.8305C23.7516 17.6015 23.7516 17.3727 23.7516 17.1442C23.7516 16.8362 23.7516 16.5283 23.7516 16.2205C23.7516 15.5205 23.7535 14.7963 23.7492 14.0847C23.7447 13.288 23.5426 12.5049 23.161 11.8055C22.7082 10.9671 22.0821 10.3743 21.2998 10.0437C20.7984 9.83163 20.2396 9.81757 19.699 9.80382H19.6593C18.9642 9.7861 18.2562 9.80382 17.5715 9.8194C16.9652 9.83407 16.3382 9.84996 15.7201 9.83988C15.5602 9.83764 15.4004 9.83478 15.2407 9.83132C14.936 9.8246 14.6274 9.8194 14.3179 9.8194ZM15.4821 23.9541C15.3305 23.9541 15.1794 23.9532 15.0286 23.9514C14.2323 23.9419 13.3786 23.9129 12.5316 23.7665C11.0124 23.5043 10.0753 22.598 9.74587 21.0727C9.56621 20.2404 9.55704 19.3885 9.54818 18.5647L9.54573 18.3426C9.54054 17.9175 9.54176 17.487 9.54329 17.0687C9.54329 16.8789 9.54329 16.6893 9.54329 16.5001V16.3815H9.55307C9.55307 16.1022 9.55093 15.8227 9.54909 15.5434C9.5439 14.81 9.53871 14.0529 9.56132 13.3076C9.58515 12.5184 9.93318 11.8104 10.5675 11.2564C10.6512 11.1837 10.734 11.1037 10.8138 11.0267C11.0451 10.8033 11.2843 10.5723 11.6107 10.4388C12.1442 10.22 12.7299 10.11 13.4018 10.1027C15.1508 10.0834 17.038 10.0828 19.3422 10.1011C20.2588 10.1085 21.0062 10.3077 21.6295 10.7101C22.5242 11.2879 23.0333 12.1609 23.1417 13.3052C23.3626 15.5922 23.3895 17.8938 23.2221 20.1854L23.2203 20.2065C23.1695 20.8839 23.117 21.5842 22.7274 22.2063C22.072 23.2529 21.14 23.7998 19.9572 23.8316C19.4555 23.845 18.9535 23.8621 18.4518 23.8814C17.4777 23.9168 16.4763 23.9532 15.4821 23.9532V23.9541ZM9.78132 16.6165C9.78132 16.767 9.78132 16.9177 9.78132 17.0684C9.78132 17.4849 9.77887 17.9157 9.78407 18.3386L9.78651 18.561C9.79507 19.3732 9.80423 20.2129 9.97901 21.022C10.2901 22.4633 11.1386 23.2831 12.5732 23.5321C13.404 23.6757 14.2461 23.7042 15.0326 23.7136C16.1693 23.7274 17.3243 23.6852 18.4438 23.6446C18.9465 23.6262 19.4488 23.6082 19.9517 23.5945C21.0499 23.5639 21.9165 23.0558 22.527 22.0804C22.8857 21.5078 22.9337 20.8671 22.9853 20.1887V20.1677C23.1522 17.8893 23.1261 15.6008 22.9071 13.3269C22.8056 12.2574 22.3329 11.4447 21.5015 10.9081C20.917 10.5307 20.2102 10.344 19.3409 10.337C17.0389 10.3187 15.1527 10.3193 13.4052 10.3388C12.7635 10.3459 12.2065 10.4501 11.7011 10.6569C11.417 10.7733 11.2043 10.9787 10.9791 11.1962C10.8969 11.2754 10.8123 11.3576 10.724 11.4343C10.1321 11.9497 9.82104 12.5819 9.79873 13.3137C9.77643 14.0547 9.78162 14.811 9.78651 15.5406C9.78865 15.8602 9.79079 16.1795 9.79079 16.4992V16.6165H9.78132Z" fill="#7F7F7F"/>
<path d="M16.5288 13.1558C17.2316 13.1607 18.0731 13.6175 18.8159 14.2909C19.3912 14.8125 19.8092 15.4355 19.9834 16.2055C20.1667 17.0235 20.0304 17.8088 19.6888 18.5531C19.1388 19.75 18.2182 20.5487 16.9278 20.806C15.4126 21.1082 14.1589 20.5814 13.1976 19.3787C12.5865 18.6133 12.2608 17.7367 12.3937 16.754C12.5398 15.6775 13.0775 14.7932 13.897 14.0843C14.6246 13.4555 15.3695 13.1597 16.5288 13.1558ZM18.5778 16.8567C18.5699 16.6999 18.5711 16.5438 18.5265 16.3925C18.2656 15.5064 17.6737 14.9237 16.7989 14.6985C15.9045 14.4684 15.1199 14.7217 14.4813 15.4254C13.6563 16.3338 13.4955 18.3649 14.9472 19.1734C16.1019 19.815 17.2872 19.6601 17.9927 18.6768C18.3832 18.1323 18.5363 17.5124 18.5778 16.8567Z" fill="#7F7F7F"/>
<path d="M21.2448 13.1807C21.2387 13.7701 20.8763 14.1148 20.2728 14.1047C19.7918 14.0968 19.3867 13.6818 19.3977 13.1957C19.4075 12.7758 19.823 12.2249 20.3467 12.2546C20.8705 12.2842 21.2503 12.6496 21.2448 13.1807Z" fill="#7F7F7F"/>
</svg>
