<svg width="18" height="16" viewBox="0 0 18 16" fill="none" xmlns="http://www.w3.org/2000/svg">
<path d="M10.2838 4.76895C11.6843 4.76895 13.1608 4.74157 14.636 4.77537C16.7814 4.82471 17.2329 5.29245 17.2995 7.42532C17.3563 9.23206 17.2529 11.0317 17.1032 12.8327C17.0288 13.7165 16.6374 14.2082 15.7452 14.2781C15.3221 14.3119 14.9003 14.3795 14.4765 14.3772C13.221 14.3707 11.9611 14.2325 11.0597 15.4563C10.7894 15.8257 10.2409 15.9899 9.71162 15.9081C9.41252 15.4394 9.75961 14.9142 9.50039 14.3461C6.6649 14.5279 7.80687 12.2352 7.44424 10.7299C5.70036 10.7299 3.97609 10.7461 2.25215 10.7248C0.705982 10.7059 0.347744 10.3686 0.311244 8.87078C0.265056 6.92412 0.243427 4.97736 0.246356 3.03048C0.248384 1.57083 0.672862 1.04868 2.0852 0.994268C4.13459 0.915523 6.18939 0.914847 8.24047 0.954726C9.40238 0.97737 9.85052 1.47552 10.0046 2.66143C10.0503 3.01155 10.0492 3.36743 10.0793 3.71992C10.1053 4.02915 10.0083 4.35664 10.2838 4.76895ZM10.3946 15.3049C11.6113 13.0155 13.6921 14.095 15.3775 13.73C15.9642 13.6029 16.2025 13.4123 16.2599 12.8006C16.435 10.932 16.4272 9.0624 16.4086 7.19044C16.3944 5.75681 16.1291 5.45906 14.6648 5.42223C12.9709 5.37964 11.272 5.47393 9.5815 5.38843C8.56187 5.33605 8.24419 5.82339 8.23135 6.67674C8.20093 8.72444 8.19924 10.7721 8.19282 12.8198C8.19282 13.2271 8.26582 13.7158 8.77614 13.6397C9.93704 13.467 10.3828 13.9797 10.394 15.3049H10.3946ZM8.07487 4.07174C6.24684 4.30223 6.64631 6.23468 5.51043 6.98124C6.14343 7.61322 6.71593 8.03196 7.58551 8.23372C7.58551 7.69501 7.57131 7.24012 7.58922 6.78691C7.61018 6.25057 7.62741 5.60743 8.10495 5.34044C9.25638 4.69629 8.97926 3.66382 9.01339 2.6817C9.03941 1.92028 8.72443 1.57117 7.95895 1.57928C6.01433 1.60023 4.06937 1.61578 2.1244 1.608C1.22408 1.60462 0.820889 2.05682 0.832041 2.90814C0.856375 4.99403 0.899633 7.07992 0.933429 9.16582C0.940189 9.58353 1.02299 10.0053 1.51202 10.0381C3.50599 10.1733 5.49995 10.152 7.52231 10.0479C7.53008 9.54095 7.63046 9.15939 7.45472 8.77142C6.88018 8.79676 6.35871 8.57675 6.00656 8.20195C5.24716 7.39389 4.60909 7.60444 3.84564 8.18911C3.4367 8.5024 2.98688 9.01306 2.11257 8.61325L4.44788 7.06438C4.3715 6.37798 3.49078 6.22353 3.59656 5.46751C4.41713 5.38235 4.48506 6.38203 5.1674 6.43543C5.69496 5.89672 6.06266 5.29482 6.16067 4.47729C4.80342 4.24815 3.46205 4.58949 2.06898 4.19374C2.62492 3.50802 3.25184 3.69119 3.74019 3.77129C4.53507 3.90174 4.75813 3.42589 4.92305 2.87705C5.49961 2.94836 5.22722 3.52187 5.53645 3.68477C6.35533 3.89971 7.23031 3.4972 8.07487 4.07174Z" fill="black"/>
<path d="M14.175 12.2507C13.3886 11.7748 13.5072 10.5883 12.0851 10.6775C10.8525 10.7545 10.5565 11.5109 10.0698 12.349C9.71933 11.5366 11.2466 7.62063 12.2172 6.78857C13.0293 8.58821 13.7539 10.3497 14.175 12.2507ZM12.7894 10.0053C12.6981 9.29557 12.3575 8.68352 12.0776 7.96975C11.5818 8.61187 11.3581 9.28239 11.2638 10.0786C11.8002 10.1621 12.2753 10.2283 12.7897 10.0063L12.7894 10.0053Z" fill="black"/>
</svg>
