<svg width="21" height="21" viewBox="0 0 21 21" fill="none" xmlns="http://www.w3.org/2000/svg">
<path d="M5.75646 16.7503C5.33549 16.7503 4.97917 16.6045 4.6875 16.3128C4.39583 16.0211 4.25 15.6648 4.25 15.2438V13.6092C4.25 13.4319 4.30986 13.2834 4.42958 13.1638C4.54917 13.0441 4.69764 12.9842 4.875 12.9842C5.05236 12.9842 5.20083 13.0441 5.32042 13.1638C5.44014 13.2834 5.5 13.4319 5.5 13.6092V15.2438C5.5 15.308 5.52674 15.3667 5.58021 15.4201C5.63354 15.4735 5.69229 15.5003 5.75646 15.5003H15.2435C15.3077 15.5003 15.3665 15.4735 15.4198 15.4201C15.4733 15.3667 15.5 15.308 15.5 15.2438V13.6092C15.5 13.4319 15.5599 13.2834 15.6796 13.1638C15.7992 13.0441 15.9476 12.9842 16.125 12.9842C16.3024 12.9842 16.4508 13.0441 16.5704 13.1638C16.6901 13.2834 16.75 13.4319 16.75 13.6092V15.2438C16.75 15.6648 16.6042 16.0211 16.3125 16.3128C16.0208 16.6045 15.6645 16.7503 15.2435 16.7503H5.75646ZM9.875 6.65737L8.2725 8.25987C8.14847 8.38376 8.00132 8.44494 7.83104 8.44341C7.66063 8.44175 7.51076 8.37626 7.38146 8.24695C7.26076 8.11779 7.19826 7.97147 7.19396 7.80799C7.18965 7.64452 7.25215 7.49813 7.38146 7.36883L9.97271 4.77758C10.0508 4.69952 10.1331 4.64452 10.2196 4.61258C10.3061 4.58049 10.3996 4.56445 10.5 4.56445C10.6004 4.56445 10.6939 4.58049 10.7804 4.61258C10.8669 4.64452 10.9492 4.69952 11.0273 4.77758L13.6185 7.36883C13.7424 7.49272 13.8036 7.63779 13.8021 7.80404C13.8004 7.97015 13.7392 8.11779 13.6185 8.24695C13.4892 8.37626 13.3408 8.44306 13.1731 8.44737C13.0053 8.45168 12.8568 8.38918 12.7275 8.25987L11.125 6.65737V13.0324C11.125 13.2097 11.0651 13.3582 10.9454 13.4778C10.8258 13.5975 10.6774 13.6574 10.5 13.6574C10.3226 13.6574 10.1742 13.5975 10.0546 13.4778C9.93486 13.3582 9.875 13.2097 9.875 13.0324V6.65737Z" fill="#7F7F7F"/>
</svg>
