<svg width="23" height="21" viewBox="0 0 23 21" fill="none" xmlns="http://www.w3.org/2000/svg">
<path d="M13.7131 13.6086L18.6586 13.6807C18.6586 13.6807 23.0487 13.3363 22.2545 9.17343C21.635 5.92683 17.9793 6.94708 18.0874 6.46373C18.2061 5.93243 18.4714 2.13493 14.7453 1.24593C10.2558 0.174934 9.50505 3.82683 9.3822 4.33363C9.3605 4.42288 7.6091 3.43168 6.4205 4.20413C4.70235 5.32028 5.10765 6.93274 5.38275 7.38179C5.5784 7.70099 0.41346 6.23694 0.52301 11.2472C0.58006 13.875 4.97326 13.6016 4.97326 13.6016L9.95621 13.5061" stroke="#212121" stroke-width="0.7" stroke-miterlimit="10"/>
<path d="M9.14373 19.9653C8.87878 19.6755 10.2462 11.4393 9.86823 11.2335C9.51928 11.0431 7.88442 11.0456 7.46862 10.9584C6.89497 10.8377 11.9231 6.68561 12.0981 6.68946C12.5825 6.69961 16.835 11.0372 16.4556 11.2031C16.1122 11.3536 13.9688 11.2174 13.7217 11.3266C13.2849 11.5198 14.2037 20.0941 13.924 20.1809C13.6489 20.2667 9.33028 20.1694 9.14373 19.9653Z" stroke="#212121" stroke-width="0.7" stroke-miterlimit="10"/>
<path d="M10.0107 14.0432C10.0107 14.0432 4.7506 14.1188 3.31805 13.9865C2.6499 13.9249 0.795593 13.5875 0.562493 11.6313" stroke="#212121" stroke-width="0.7" stroke-miterlimit="10"/>
<path d="M22.1387 11.3618C22.1387 11.3618 20.9231 14.6368 18.1186 14.3571C15.3137 14.0775 14.0061 13.998 14.0061 13.998" stroke="#212121" stroke-width="0.7" stroke-miterlimit="10"/>
</svg>
