<svg width="100" height="100" viewBox="0 0 100 100" fill="none" xmlns="http://www.w3.org/2000/svg">
<path d="M51.9514 42.251C50.3014 42.285 48.5213 42.387 46.5513 42.626C46.1613 42.672 45.9213 42.761 45.5513 42.813L46.5213 47.188L46.7713 48.282V48.313L47.2413 50.751L47.8314 52.97C47.7614 52.967 47.7113 52.973 47.6413 52.97L44.9913 52.657L43.8013 48.407L43.6113 47.688L42.3913 43.345C36.2213 44.579 33.0813 46.478 31.1413 48.72C31.1213 48.744 31.0713 48.904 31.0513 48.938H31.0213C31.0213 48.938 30.9714 49.097 30.9514 49.126C28.8814 52.529 19.0113 85.934 52.5513 84.22C82.5313 82.686 69.5113 49.816 68.5213 47.407C68.4813 47.317 68.2413 46.595 68.2413 46.595C68.2413 46.595 64.8613 42.907 55.3013 42.345C54.8313 44.847 54.7713 45.467 54.4913 47.157C54.4413 47.443 54.3714 47.715 54.3314 47.97C54.3314 47.979 54.3314 47.992 54.3314 48.001C54.0914 49.481 53.4913 52.782 53.4913 52.782L51.8013 52.938H51.6413C51.1913 52.953 50.7014 52.929 50.2014 52.938C50.2314 52.767 50.7813 49.538 50.9913 48.126C51.0313 47.804 51.1213 47.41 51.1713 47.032C51.4213 45.385 51.5314 44.664 51.9514 42.251Z" stroke="black" stroke-width="2" stroke-miterlimit="10" stroke-linecap="round" stroke-linejoin="round"/>
<path d="M61.2614 78.8531C61.6914 78.5851 61.9214 78.153 62.1914 77.748" stroke="black" stroke-width="2" stroke-miterlimit="10" stroke-linecap="round" stroke-linejoin="round"/>
<path d="M50.3114 84.3071C50.3114 84.3071 71.2413 85.163 72.7313 81.645C74.2113 78.127 67.7513 78.484 67.7513 78.484C67.7513 78.484 65.7614 80.337 63.6514 81.583C61.5514 82.828 58.0013 84.2791 58.0013 84.2791" fill="black"/>
<path d="M50.3114 84.3071C50.3114 84.3071 71.2413 85.163 72.7313 81.645C74.2113 78.127 67.7513 78.484 67.7513 78.484C67.7513 78.484 65.7614 80.337 63.6514 81.583C61.5514 82.828 58.0013 84.2791 58.0013 84.2791" stroke="black" stroke-width="2" stroke-miterlimit="10" stroke-linecap="round" stroke-linejoin="round"/>
<path d="M38.2915 75.3604C38.8915 76.9234 39.4615 77.0924 40.3315 77.8014" stroke="black" stroke-width="2" stroke-miterlimit="10" stroke-linecap="round" stroke-linejoin="round"/>
<path d="M53.8811 73.9678C53.7811 75.2418 54.0511 76.1548 53.3711 77.2868" stroke="black" stroke-width="2" stroke-miterlimit="10" stroke-linecap="round" stroke-linejoin="round"/>
<path d="M62.8013 70.7802C63.1413 69.2742 63.4312 69.4272 63.4812 66.4072" stroke="black" stroke-width="2" stroke-miterlimit="10" stroke-linecap="round" stroke-linejoin="round"/>
<path d="M40.6413 66.1169C40.5313 67.5179 41.3514 69.1519 42.5914 70.2379" stroke="black" stroke-width="2" stroke-miterlimit="10" stroke-linecap="round" stroke-linejoin="round"/>
<path d="M51.6514 61.6631C51.7714 62.1121 52.9613 63.9871 53.2413 64.7281" stroke="black" stroke-width="2" stroke-miterlimit="10" stroke-linecap="round" stroke-linejoin="round"/>
<path d="M32.7813 59.9355C32.4013 61.6425 32.1714 62.6015 32.5914 64.2985" stroke="black" stroke-width="2" stroke-miterlimit="10" stroke-linecap="round" stroke-linejoin="round"/>
<path d="M68.2513 63.2674C68.3813 61.5484 67.1113 61.8764 67.2013 59.1084" stroke="black" stroke-width="2" stroke-miterlimit="10" stroke-linecap="round" stroke-linejoin="round"/>
<path d="M31.0112 48.9433C31.0112 48.9433 28.3612 54.8403 36.2312 55.7543C44.1012 56.6693 42.9012 59.8993 46.2812 58.6363C49.6512 57.3733 49.8912 56.4983 53.8612 56.8523C57.8312 57.2053 59.3512 56.6193 61.7312 55.7283C64.1012 54.8383 69.0712 51.8453 68.5012 47.4043" stroke="black" stroke-width="2" stroke-miterlimit="10" stroke-linecap="round" stroke-linejoin="round"/>
<path d="M43.6112 47.6875C42.2112 47.9325 41.5613 48.1315 40.3013 48.5625C40.2913 48.5665 40.2812 48.5585 40.2712 48.5625C38.4712 49.1785 37.1713 49.9215 38.5513 50.8755C40.0813 51.9325 42.4812 52.3765 44.9912 52.6565L43.8013 48.4065L43.6112 47.6875Z" fill="black" stroke="black" stroke-width="2" stroke-miterlimit="10" stroke-linecap="round" stroke-linejoin="round"/>
<path d="M54.4912 47.1572C54.4412 47.4432 54.3713 47.7152 54.3313 47.9702C54.3313 47.9792 54.3313 47.9923 54.3313 48.0013C54.0913 49.4813 53.4912 52.7822 53.4912 52.7822L51.8013 52.9382C52.4713 52.8992 53.4812 52.9732 53.9912 52.9072C57.5312 52.4452 65.9113 49.6902 61.4513 48.1572C60.9313 47.9782 60.1913 47.9112 59.5513 47.7822C59.5213 47.7762 59.4813 47.7882 59.4513 47.7822C57.9013 47.4712 56.2512 47.2552 54.4912 47.1572Z" fill="black" stroke="black" stroke-width="2" stroke-miterlimit="10" stroke-linecap="round" stroke-linejoin="round"/>
<path d="M47.3914 47.0319C47.3914 47.0319 46.6514 47.1719 46.5214 47.1879L46.7714 48.2819V48.3129L47.2413 50.7509L47.8314 52.9699C48.7314 53.0079 49.3814 52.9509 50.2014 52.9379C50.2314 52.7669 50.7813 49.5379 50.9913 48.1259C51.0313 47.8039 51.1214 47.4099 51.1714 47.0319C49.4414 47.0299 47.3914 47.0319 47.3914 47.0319Z" fill="black" stroke="black" stroke-width="2" stroke-miterlimit="10" stroke-linecap="round" stroke-linejoin="round"/>
<path d="M42.5413 28.2646C42.5413 28.2646 41.5513 28.6367 40.5713 28.8837C39.5913 29.1307 38.4912 29.3437 38.4912 29.3437L42.3912 43.3447L43.6112 47.6877L43.8013 48.4066L44.9912 52.6566L47.6412 52.9697C47.7112 52.9727 47.7613 52.9667 47.8313 52.9697L47.2412 50.7507L46.7712 48.3127V48.2816L46.5212 47.1877L45.5513 42.8127L42.5413 28.2646Z" stroke="black" stroke-width="2" stroke-miterlimit="10" stroke-linecap="round" stroke-linejoin="round"/>
<path d="M70.3911 25.8175C70.3911 25.8175 57.2311 25.5785 55.2911 29.3485C53.9111 32.0495 53.3012 34.6135 51.9512 42.2505C51.5312 44.6645 51.4211 45.3845 51.1711 47.0315C51.1211 47.4085 51.0311 47.8045 50.9911 48.1255C50.7811 49.5385 50.2312 52.7665 50.2012 52.9375C50.7012 52.9285 51.1911 52.9525 51.6411 52.9375H51.8011L53.4911 52.7815C53.4911 52.7815 54.0912 49.4805 54.3312 48.0005C54.3312 47.9905 54.3312 47.9785 54.3312 47.9695C54.3712 47.7155 54.4411 47.4435 54.4911 47.1565C54.7711 45.4665 54.8311 44.8465 55.3011 42.3445C56.5811 35.5485 57.1911 34.2045 58.0411 32.4415C59.7211 28.9945 67.6111 30.0935 69.6711 29.6605C71.7211 29.2275 70.3911 25.8175 70.3911 25.8175Z" stroke="black" stroke-width="2" stroke-miterlimit="10" stroke-linecap="round" stroke-linejoin="round"/>
<path d="M29.6513 27.154C29.0713 24.857 36.8013 16 36.8013 16C36.8013 16 48.4113 20.013 48.9813 22.31C49.5613 24.607 45.7013 27.553 40.3613 28.891C35.0213 30.229 30.2213 29.451 29.6513 27.154Z" stroke="black" stroke-width="2" stroke-miterlimit="10" stroke-linejoin="round"/>
<path d="M37.1613 20.9717L34.5312 26.0297" stroke="black" stroke-width="2" stroke-miterlimit="10" stroke-linecap="round" stroke-linejoin="round"/>
</svg>
