<svg width="100" height="100" viewBox="0 0 100 100" fill="none" xmlns="http://www.w3.org/2000/svg">
<path d="M32.1798 70.5765C42.6598 78.0145 54.6899 77.5515 64.5399 69.8025C74.3799 62.0525 71.4498 38.4805 71.4498 38.4805C71.4498 38.4805 68.7198 43.8775 47.7298 43.9675C24.3898 44.0685 22.7899 39.5065 22.7899 40.1335C22.8199 50.4975 21.6998 63.1395 32.1798 70.5765Z" stroke="black" stroke-width="2" stroke-miterlimit="10" stroke-linecap="round" stroke-linejoin="round"/>
<path d="M65.3099 69.2772C69.6299 70.0052 75.08 72.3802 75.08 74.8342C75.08 78.9212 62.53 82.2342 47.04 82.2342C31.56 82.2342 19 78.9212 19 74.8342C19 72.6412 24.1999 70.1782 29.9399 68.8232" stroke="black" stroke-width="2" stroke-miterlimit="10" stroke-linejoin="round"/>
<path d="M38.16 74.0453C38.16 74.0453 22.1901 76.1593 42.0401 77.8653C61.8801 79.5723 68.47 74.5363 63.7 74.0363C57.47 73.3833 58.37 73.7313 58.37 73.7313C58.37 73.7313 53.3301 75.9393 47.8001 76.0343C42.2101 76.1303 38.16 74.0453 38.16 74.0453Z" fill="black" stroke="black" stroke-width="2" stroke-miterlimit="10" stroke-linecap="round" stroke-linejoin="round"/>
<path d="M71.9399 44.1089C71.9399 44.1089 82.32 41.8009 81.05 52.2529C80.24 58.9009 71.63 58.2639 71.63 58.2639" stroke="black" stroke-width="2" stroke-miterlimit="10" stroke-linecap="round" stroke-linejoin="round"/>
<path d="M72.03 48.0491C72.03 48.0491 77.01 47.2971 77.11 50.4021C77.29 56.2361 71.88 54.5531 71.88 54.5531" stroke="black" stroke-width="2" stroke-miterlimit="10" stroke-linecap="round" stroke-linejoin="round"/>
<path d="M71.42 38.0461C71.15 40.8281 59.9199 43.9071 47.6899 44.1271C35.4499 44.3471 22.58 41.4861 22.77 40.0451C23.25 36.5561 34.67 33.8981 46.91 33.6781C59.15 33.4571 71.75 34.5411 71.42 38.0461Z" stroke="black" stroke-width="2" stroke-miterlimit="10" stroke-linecap="round" stroke-linejoin="round"/>
<path d="M66.5302 40.9596C66.5302 40.9596 55.5201 38.4836 46.2501 38.7256C36.9801 38.9666 27.8901 42.0206 27.8901 42.0206C27.8901 42.0206 38.7101 44.1386 47.9801 43.8966C57.2501 43.6546 66.5302 40.9596 66.5302 40.9596Z" fill="black" stroke="black" stroke-width="2" stroke-miterlimit="10" stroke-linecap="round" stroke-linejoin="round"/>
<path d="M55.01 29.8841C47.48 27.3751 59.9 23.8061 53.86 20.7871" stroke="black" stroke-width="2" stroke-miterlimit="10" stroke-linecap="round" stroke-linejoin="round"/>
<path d="M36.9 30.786C36.58 30.156 36.11 29.738 36.24 28.983C36.69 26.301 41.36 24.844 38.29 21.77C38.03 21.512 36.91 20.541 36.73 20.541" stroke="black" stroke-width="2" stroke-miterlimit="10" stroke-linecap="round" stroke-linejoin="round"/>
<path d="M44.1899 28.491C50.0199 25.578 40.3899 20.966 46.3199 18" stroke="black" stroke-width="2" stroke-miterlimit="10" stroke-linecap="round" stroke-linejoin="round"/>
<path d="M42.21 55.2411C43.56 53.1221 46.88 52.432 50.75 54.902C54.63 57.372 55.4099 60.2151 54.0599 62.3341C52.7099 64.4531 49.74 65.0461 45.86 62.5761C41.99 60.1061 40.86 57.3611 42.21 55.2411Z" stroke="black" stroke-width="2" stroke-miterlimit="10" stroke-linejoin="round"/>
<path d="M43.7002 54.7812C43.9102 61.7092 51.6703 55.7253 52.2603 63.0623" stroke="black" stroke-width="2" stroke-miterlimit="10" stroke-linecap="round" stroke-linejoin="round"/>
</svg>
