<svg width="100" height="100" viewBox="0 0 100 100" fill="none" xmlns="http://www.w3.org/2000/svg">
<path d="M40.0189 77.641C39.6639 77.3464 33.1357 33.2002 33.1357 33.2002H66.3602C66.3602 33.2002 59.9762 77.1892 59.3924 77.641C58.8085 78.0927 40.3738 77.9356 40.0189 77.641Z" stroke="black" stroke-width="2"/>
<path d="M64.8594 47.5645H34.6282C34.0209 47.5645 33.5538 48.1014 33.6378 48.7029L36.2186 67.171C36.2877 67.665 36.7102 68.0326 37.209 68.0326H62.1492C62.6454 68.0326 63.0666 67.6687 63.1386 67.1778L65.8488 48.7096C65.9373 48.106 65.4694 47.5645 64.8594 47.5645Z" fill="black" stroke="black" stroke-width="2"/>
<path d="M69.1844 32.9462H30.7369C30.3022 32.9462 30.0117 32.4983 30.1891 32.1014L32.7931 26.2752C32.8736 26.0952 33.0524 25.9793 33.2496 25.9793H35.3005C35.3005 25.9793 36.2346 22.9916 36.8394 22.3997C37.4443 21.8079 62.7969 22.1675 63.1241 22.3997C63.4514 22.632 64.7521 25.9793 64.7521 25.9793H66.1423C66.3263 25.9793 66.4954 26.0803 66.5826 26.2424L69.7129 32.062C69.9279 32.4617 69.6383 32.9462 69.1844 32.9462Z" stroke="black" stroke-width="2"/>
<path d="M34.0969 37.8252H65.6263" stroke="black" stroke-width="2"/>
<path d="M48.8655 24.9785C48.3132 24.9785 47.8655 25.4262 47.8655 25.9785C47.8655 26.5308 48.3132 26.9785 48.8655 26.9785V24.9785ZM48.8655 26.9785H65.0161V24.9785H48.8655V26.9785Z" fill="black"/>
<path d="M40.3148 26.9785C40.8671 26.9785 41.3148 26.5308 41.3148 25.9785C41.3148 25.4262 40.8671 24.9785 40.3148 24.9785V26.9785ZM35.3005 26.9785H40.3148V24.9785H35.3005V26.9785Z" fill="black"/>
</svg>
