<svg width="100" height="100" viewBox="0 0 100 100" fill="none" xmlns="http://www.w3.org/2000/svg">
<path fill-rule="evenodd" clip-rule="evenodd" d="M28.7206 74.679C37.145 76.8869 52.6583 79.0692 64.3333 73.3363C65.5797 72.7406 66.478 71.6424 66.9179 70.3451C68.0337 70.5284 69.1117 70.7313 70.1858 70.9454C78.7888 72.6603 78.3204 76.2339 72.9325 78.4362C67.5446 80.6386 49.5048 79.7939 42.4926 78.6431C41.3517 78.4559 40.3017 78.2974 39.3285 78.1505C34.4692 77.4171 31.523 76.9724 28.7206 74.679Z" fill="black"/>
<path d="M24.3846 21.5947C24.1664 21.5947 26.8709 58.0829 27.6175 69.2383C27.7532 71.439 28.673 73.9854 30.5734 74.6684C37.089 77.0209 46.3489 78.5882 59.3425 76.8824C62.7154 76.4396 66.8819 73.7828 67.3895 69.6936L70.1044 22.492C70.1044 22.492 70.1043 22.492 70.0365 22.492C68.9505 25.3757 56.666 25.6792 46.9605 25.9827C37.5266 26.2863 25.6741 24.0231 24.3846 21.5947Z" stroke="black" stroke-width="2" stroke-miterlimit="10" stroke-linecap="round"/>
<path d="M69.4411 34.9667C71.0841 34.6738 74.9906 34.3489 77.5537 36.4577C79.854 38.2149 79.5911 41.0852 79.0653 46.7671C78.6053 51.6875 78.3424 54.1477 76.2393 55.4363C73.019 57.4865 69.2157 55.7292 68.3613 55.4363" stroke="black" stroke-width="2" stroke-miterlimit="10" stroke-linecap="round"/>
<path d="M24.4277 20.5265C24.4277 20.5265 25.0386 15.5635 47.7752 15.5635C65.8287 15.5635 70.0366 21.457 70.0366 21.457" stroke="black" stroke-width="2" stroke-miterlimit="10" stroke-linecap="round"/>
<path d="M67.1183 23.8345C67.1183 25.0753 56.5983 28.1771 47.6394 27.4534C32.165 26.316 28.3643 25.3855 28.3643 22.904C28.3643 21.6632 38.8163 20.6293 47.6394 20.8361C56.6662 21.1462 67.1861 22.5938 67.1183 23.8345Z" fill="black"/>
<path d="M36.2389 42.6028C34.1185 45.5638 40.4916 52.2564 44.7405 55.9389C45.1314 56.2777 45.713 56.2528 46.0943 55.9035C49.4583 52.8215 57.7759 46.2211 54.2885 41.5836C50.5424 36.6021 47.0233 41.5841 45.434 43.6221C43.05 40.2254 39.6444 37.8476 36.2389 42.6028Z" stroke="black" stroke-width="2" stroke-miterlimit="10" stroke-linecap="round"/>
</svg>
