<svg width="21" height="26" viewBox="0 0 21 26" fill="none" xmlns="http://www.w3.org/2000/svg">
<path d="M18.0182 18.1851C17.7648 18.2055 17.6965 18.4351 17.5702 18.5888C16.6311 19.7497 15.9102 21.0743 14.8857 22.1722C13.719 23.4222 12.3856 24.4197 10.7152 24.9088C9.44648 25.2801 8.34898 25.0251 7.37357 24.1251C5.96815 22.8284 4.84148 21.3101 3.77982 19.7351C3.64607 19.5368 3.56148 19.2847 3.2494 19.1897C3.15898 19.5909 3.34023 19.9418 3.39357 20.303C3.43815 20.6051 3.54398 20.8997 3.57607 21.2026C3.6394 21.8001 3.27398 22.0018 2.16482 22.008C1.56773 22.0109 1.30023 21.773 1.38148 21.2272C1.46482 20.6605 1.62023 20.1047 1.74107 19.5434C1.90523 18.778 2.12773 18.013 1.66398 17.263C1.57273 17.1159 1.78898 15.0172 1.87773 14.8613C2.01398 14.6255 2.18107 14.418 2.4419 14.3084C2.73023 14.1876 2.99648 14.0755 2.96982 13.6668C2.94232 13.2376 2.84148 12.9313 2.40732 12.7084C0.737317 11.8463 -0.0751832 9.77009 0.512733 8.00468C0.684836 7.49309 0.993621 7.03834 1.40565 6.68968C2.20565 5.99634 2.93148 5.23843 3.53065 4.36509C4.63273 2.76134 6.24565 2.13343 8.09565 1.95884C8.72482 1.90009 9.35607 1.86551 9.98648 1.81884C10.7727 1.76093 11.5727 1.70634 12.2502 1.26259C13.6669 0.333426 17.0565 1.42926 17.689 3.35884C18.0394 4.42759 18.5769 5.33634 19.3423 6.19593C20.5806 7.58801 21.1248 9.23009 20.2498 11.0759C20.1194 11.3522 20.0415 11.653 19.9206 11.9338C19.5327 12.8238 19.0902 13.6859 19.4848 14.7197C19.6227 15.0809 19.5369 15.5243 19.4352 15.9134C19.3273 16.3301 19.2236 16.7218 19.4527 17.1318C19.4774 17.1841 19.4906 17.2411 19.4915 17.2989C19.4925 17.3567 19.4811 17.4141 19.4582 17.4672C18.8977 18.4968 19.4027 19.4788 19.5832 20.473C19.634 20.7551 19.7269 21.0288 19.794 21.3063C19.9211 21.8343 19.7769 22.0613 19.2548 22.1626C19.1792 22.1748 19.103 22.1821 19.0265 22.1847C17.2994 22.303 17.0157 21.9043 17.6386 20.2859C17.8302 19.7859 17.9719 19.268 18.1123 18.7518C18.1632 18.5668 18.2682 18.3418 18.0182 18.1851ZM15.2144 8.08384C15.0444 8.06426 14.9819 8.03801 14.9344 8.05468C14.7895 8.10412 14.6487 8.16472 14.5132 8.23593C12.9369 9.08926 11.2423 9.51051 9.46482 9.64593C8.8507 9.6893 8.25565 9.8778 7.72857 10.1959C6.97398 10.6543 6.87773 11.2743 7.44315 11.9484C7.52898 12.0509 7.62982 12.1438 7.70065 12.2559C7.92065 12.6034 7.80023 12.8368 7.43148 12.9588C7.2044 13.0338 6.97982 12.9568 6.75232 12.9222C5.91648 12.7951 5.07773 12.8901 4.24107 12.9222C3.7594 12.9409 3.52232 13.1626 3.60565 13.7009C3.68898 14.2501 3.49857 14.6593 2.8894 14.8259C2.41232 14.9543 2.22065 15.3809 2.44815 15.773C2.76857 16.3238 2.8694 16.9513 3.17148 17.4943C3.53398 18.1459 3.91898 18.7888 4.33815 19.4047C5.42732 21.003 6.52982 22.5934 8.04648 23.8384C8.57482 24.2726 9.15648 24.4951 9.84815 24.4188C10.9061 24.3018 11.8281 23.8534 12.6815 23.2559C13.9732 22.3551 14.969 21.1826 15.8361 19.8784C16.6452 18.6609 17.5744 17.5334 18.539 16.433C18.8552 16.0722 18.914 15.5901 18.7981 15.0951C18.5569 15.1643 18.4994 15.3359 18.4111 15.4793C18.3065 15.6488 18.1852 15.8126 17.9573 15.7459C17.7398 15.6805 17.6919 15.4822 17.6957 15.2822C17.7182 14.1334 17.2069 13.4534 16.1077 12.9905C14.5752 12.3476 14.3282 11.6409 14.7211 10.0051C14.8723 9.37884 15.0415 8.75718 15.2144 8.08384ZM18.1848 13.948C18.4348 13.9122 18.4606 13.7651 18.5094 13.6468C18.9006 12.6884 19.2594 11.7197 19.6848 10.7788C20.4107 9.17051 19.9007 7.77509 18.8361 6.60218C18.059 5.75923 17.4712 4.75978 17.1123 3.67093C16.6094 2.16593 14.1069 1.10801 12.6861 1.80093C11.8561 2.20551 10.9982 2.39801 10.0915 2.45676C9.38482 2.50259 8.67871 2.55815 7.97315 2.62343C6.28273 2.78343 4.88982 3.47593 3.92148 4.91718C3.40523 5.68551 2.74357 6.32384 2.0744 6.95468C0.874817 8.08551 0.633567 9.24634 1.3394 10.7384C1.75898 11.6255 2.41357 12.2384 3.45815 12.3338C3.55732 12.0601 3.37482 11.9293 3.28773 11.7747C3.11148 11.4672 3.00482 11.1451 3.0344 10.7901C3.05107 10.5888 3.12523 10.3913 3.36482 10.3951C3.57065 10.3988 3.63982 10.5701 3.65648 10.7584C3.66065 10.854 3.67094 10.9492 3.68732 11.0434C3.84357 11.7668 4.75732 12.3497 5.44107 12.1184C5.3369 11.9126 5.22065 11.7176 5.13773 11.5097C5.03732 11.2576 4.79732 10.938 5.17273 10.763C5.52898 10.5963 5.59398 10.9747 5.70898 11.2009C6.00357 11.7809 6.12565 11.9038 6.52815 12.0101C6.25315 10.5884 6.67565 9.83259 8.06357 9.31718C8.60232 9.11718 9.16565 9.01468 9.74273 8.96509C11.7562 8.80136 13.6942 8.12504 15.3723 7.00051C15.569 6.86968 15.7698 6.60926 16.0307 6.78926C16.3415 7.00384 16.1532 7.31009 16.0723 7.57509C15.7711 8.56426 15.4619 9.55093 15.2627 10.5672C15.0902 11.4484 15.2352 11.7555 16.0152 12.2201C16.8307 12.7088 17.8869 12.8755 18.1848 13.9468V13.948Z" fill="#F2F2F2" fill-opacity="0.5"/>
</svg>
