<svg width="32" height="32" viewBox="0 0 32 32" fill="none" xmlns="http://www.w3.org/2000/svg">
<path d="M21.644 25.802C21.3895 27.3019 21.0823 28.7079 21.2214 30.1455C21.2628 30.5752 21.092 31.2926 21.7423 31.2534C22.3927 31.2142 22.0458 30.5408 22.0393 30.1509C22.0271 29.0655 22.109 27.9811 22.2842 26.9099C22.3793 26.2982 22.6752 26.0834 23.2589 26.0469C25.1192 25.9314 26.9532 26.1618 28.7877 26.4083C29.3742 26.4867 29.9568 26.5904 30.5422 26.6768C31.0352 26.7499 31.3574 26.5775 31.2361 26.0361C30.2221 21.5148 30.5073 16.9011 30.2361 12.3272C30.1325 10.577 29.9268 8.83644 29.3103 7.17485C28.9654 6.24933 28.4742 5.38516 27.8554 4.61533C27.748 4.48161 27.5971 4.34681 27.5697 4.19322C27.3436 2.93441 26.4521 2.28352 25.3679 1.91457C21.7472 0.681536 18.0953 0.0118503 14.4284 1.75829C10.6498 3.55791 8.01458 6.29304 7.24286 10.5593C7.06725 11.5291 6.81323 12.4851 6.58445 13.4458C6.00768 15.8808 5.2526 18.2469 3.91968 20.394C3.14796 21.6294 2.23908 22.7736 1.21033 23.8047C0.543328 24.4782 0.581455 24.7945 1.36553 25.3165C3.56094 26.7794 5.9921 27.5721 8.5919 27.9614C10.3389 28.2213 12.0767 28.2944 13.8264 28.1C14.2904 28.0489 14.4708 28.2143 14.423 28.6735C14.357 29.3389 14.2555 29.9952 14.0439 30.631C13.9612 30.8802 13.9155 31.1471 14.2136 31.2658C14.5476 31.3984 14.7173 31.1552 14.8205 30.8899C15.118 30.1214 15.2173 29.3099 15.27 28.4974C15.2984 28.05 15.5036 27.8497 15.9144 27.7278C16.953 27.4179 17.1899 27.0898 17.236 25.9706C17.3606 22.9788 16.6593 20.0901 16.1265 17.1809C15.6969 14.8276 15.1894 12.4835 15.2426 10.0695C15.2479 9.82298 15.2463 9.57541 15.2689 9.33052C15.541 6.33457 17.1823 4.91894 20.193 5.08363C21.3557 5.14807 22.4915 5.38383 23.615 5.67437C24.5365 5.91443 25.464 5.99068 26.3984 5.78822C26.8345 5.69424 27.1127 5.81668 27.2609 6.24792C28.4891 9.81654 29.4155 13.4346 29.046 17.2609C28.7018 20.8204 26.849 23.2398 23.5355 24.57C22.1687 25.1189 20.882 24.9282 19.6216 24.265C19.469 24.185 19.3283 24.0835 19.178 23.9965C18.9632 23.874 18.7483 23.8536 18.5958 24.0899C18.4626 24.2972 18.5776 24.4739 18.7242 24.6146C19.1624 25.0329 19.6973 25.28 20.273 25.4422C20.694 25.5646 21.1231 25.6672 21.644 25.802Z" fill="#F2F2F2" fill-opacity="0.5"/>
</svg>
