<svg width="25" height="24" viewBox="0 0 25 24" fill="none" xmlns="http://www.w3.org/2000/svg">
<path d="M17.0818 9.0437C18.6572 10.2225 19.0026 11.897 18.0326 13.2341C17.9051 13.4095 17.7639 13.5895 17.5743 13.655C17.0301 13.8425 16.9818 14.2358 16.9789 14.7362C16.9622 17.8416 15.7772 20.3487 13.0931 22.0279C10.6843 23.5345 7.37014 23.2808 5.13806 21.4633C3.03514 19.7512 2.09931 17.49 2.04597 14.8279C2.03597 14.3279 1.96722 13.9945 1.47306 13.6708C0.19889 12.8333 0.274723 10.377 1.53347 9.43162C1.65306 9.34204 1.77514 9.25579 1.95972 9.12204C1.38597 8.87204 1.36014 8.4137 1.35556 7.9187C1.34514 6.7562 1.56056 5.63412 1.89722 4.53037C2.47764 2.63245 4.01389 1.86995 5.72639 1.32204C7.07181 0.893703 8.44972 0.947037 9.82639 1.08995C11.255 1.23968 12.6669 1.52002 14.0443 1.92745C15.606 2.38579 16.3897 3.48579 16.7506 4.97995C16.8401 5.35079 16.9543 5.72995 16.9589 6.10495C16.966 6.65079 17.2156 6.74537 17.6851 6.66537C18.7247 6.4887 19.7747 6.4087 20.8276 6.35954C21.5357 6.3288 22.2451 6.35528 22.9489 6.4387C23.2356 6.46983 23.5132 6.55734 23.766 6.6962C24.2214 6.94954 24.4531 7.36662 24.446 7.87662C24.4389 8.40662 24.0381 8.62662 23.5985 8.76204C22.9735 8.95579 22.3239 9.01912 21.6689 9.0162C20.4051 9.0112 19.141 9.00495 17.8772 9.00412C17.6397 9.00329 17.4022 9.02662 17.0818 9.0437ZM6.63347 7.24662C6.42514 7.68829 6.42306 8.03829 6.38764 8.37495C6.33972 8.83329 6.10889 8.99537 5.66556 8.98579C4.86181 8.96787 4.05681 8.99412 3.25306 8.97745C2.84806 8.9687 2.66514 9.09495 2.66972 9.53329C2.68639 11.3141 2.68014 13.095 2.67472 14.8758C2.67472 15.1804 2.74972 15.442 2.97472 15.6516C3.68931 16.3183 4.42681 16.9579 5.26889 17.4608C5.67931 17.7054 6.14806 17.7812 6.48889 17.4116C6.93264 16.9304 7.45889 16.87 8.04889 16.8737C8.52639 16.877 9.00389 16.8245 9.48181 16.8C10.796 16.7325 12.1351 16.5237 13.2656 17.4862C13.4472 17.6408 13.6506 17.6191 13.8489 17.4862C14.5743 16.9904 15.3247 16.5316 15.9597 15.9087C16.2443 15.6291 16.3543 15.3345 16.3501 14.9445C16.3356 13.5662 16.3447 12.1875 16.3443 10.8087C16.3443 9.90329 16.3443 9.90495 15.4739 9.79412C15.2272 9.76245 14.981 9.72495 14.736 9.67995C12.3264 9.23662 9.91806 8.7912 7.44847 8.97829C7.10431 9.00454 6.90889 8.83745 6.85222 8.4987C6.79014 8.12454 6.72181 7.74954 6.63347 7.24662ZM11.8876 8.33787C13.2081 8.33787 14.5289 8.32787 15.8489 8.3437C16.2656 8.3487 16.4464 8.19412 16.4322 7.77537C16.3964 6.60537 16.3147 5.44204 15.8701 4.34204C15.5568 3.56579 15.0614 2.9837 14.2314 2.6912C12.9056 2.2237 11.5435 1.93495 10.1539 1.77245C8.31181 1.55704 6.48264 1.51579 4.75597 2.36829C3.90264 2.7912 3.09056 3.2912 2.71056 4.20787C2.23764 5.34537 2.01556 6.54787 2.00222 7.78745C1.99681 8.21954 2.17847 8.35329 2.58847 8.3437C3.44931 8.3237 4.31097 8.3212 5.17181 8.3437C5.61681 8.35495 5.79306 8.16037 5.81639 7.73954C5.84264 7.26245 5.89681 6.78829 6.03056 6.32287C6.11389 6.0262 6.21347 5.76162 6.57639 5.76495C6.90972 5.76829 7.02847 6.03995 7.09639 6.2962C7.20889 6.72037 7.32972 7.1537 7.34889 7.58787C7.37556 8.18829 7.63681 8.36579 8.21597 8.34829C9.43764 8.31245 10.6651 8.33829 11.8876 8.33787ZM19.9851 8.35704C21.0718 8.33037 22.1685 8.47787 23.2422 8.18704C23.4672 8.12579 23.7243 8.09995 23.7697 7.82537C23.8172 7.54037 23.6276 7.35579 23.3872 7.25245C23.1954 7.16829 22.9927 7.11122 22.7851 7.08287C21.0193 6.8662 19.2735 7.09829 17.5272 7.32954C17.1522 7.37912 17.0689 7.6162 17.0826 7.94079C17.0972 8.30662 17.3297 8.36412 17.6314 8.3612C18.4151 8.35245 19.2006 8.35704 19.9851 8.35704ZM17.0243 13.1245C17.6718 12.84 17.9868 12.2183 17.9151 11.4354C17.8601 10.8316 17.7306 10.2562 17.0243 9.8937V13.1245ZM1.99222 13.2458C2.04472 12.0791 2.08222 11.0912 1.96556 9.97287C1.32389 10.4691 1.19597 11.0491 1.21889 11.6616C1.23972 12.2175 1.30389 12.7879 1.99222 13.2445V13.2458ZM9.39472 19.0525C9.72389 19.0941 10.1447 18.9812 10.5522 18.8025C10.6976 18.7387 10.8022 18.6212 10.7731 18.442C10.7645 18.3844 10.7353 18.3319 10.6909 18.2942C10.6466 18.2565 10.59 18.2362 10.5318 18.237C9.82593 18.1976 9.11804 18.2594 8.42972 18.4208C8.37269 18.4307 8.32119 18.461 8.28473 18.5059C8.24827 18.5509 8.22932 18.6075 8.23139 18.6654C8.22681 18.8075 8.33556 18.8529 8.43556 18.9104C8.69806 19.0608 8.98764 19.0412 9.39472 19.0525Z" fill="#F2F2F2"/>
</svg>
