<svg width="19" height="26" viewBox="0 0 19 26" fill="none" xmlns="http://www.w3.org/2000/svg">
<path d="M9.54485 1.862C9.48652 1.35533 9.08152 1.28367 8.72485 1.1695C8.5211 1.10408 8.26944 1.0895 8.34735 0.783248C8.4136 0.523248 8.67277 0.440332 8.85485 0.542415C9.68027 1.00533 10.4744 1.04491 11.3028 0.546165C11.4828 0.437415 11.7499 0.541582 11.8082 0.791582C11.8799 1.0945 11.6165 1.10908 11.4161 1.172C10.7911 1.36742 10.7682 1.39117 10.5765 1.90658C11.2274 1.99867 11.8682 2.07325 12.5074 2.18492C12.9611 2.26367 13.4115 2.3745 13.8557 2.49783C15.6736 3.00242 16.5936 4.33116 17.0469 6.05325C17.1249 6.35075 17.2482 6.50867 17.5053 6.64617C19.274 7.59492 19.3999 9.9545 17.7499 11.0832C17.1249 11.5116 17.1699 12.7991 17.8369 13.1512C18.2478 13.3682 18.4899 13.6816 18.5244 14.1457C18.5919 15.057 18.5324 15.9578 18.2561 16.8332C18.139 17.2041 17.9815 17.5832 17.5999 17.7453C17.1607 17.9303 17.0499 18.277 16.9569 18.6891C16.5403 20.5332 15.7144 22.1512 14.3699 23.512C11.5832 26.3332 7.22194 25.9716 4.5861 23.5603C3.11485 22.2145 2.28194 20.5424 2.05277 18.5691C2.01319 18.2299 1.8711 17.9753 1.67777 17.6941C0.844436 16.4949 0.679854 15.1337 0.860687 13.7199C0.90777 13.3491 1.17902 13.0837 1.54069 13.0078C1.90235 12.932 2.0336 12.7357 1.99902 12.4032C1.95735 11.9941 2.17277 11.5324 1.60027 11.2566C0.243187 10.6049 -0.26348 9.20825 0.333187 7.8595C0.616103 7.2195 1.07944 6.7395 1.76152 6.51366C1.95777 6.44866 2.1336 6.37783 2.15069 6.14742C2.28777 4.31408 3.5786 3.58325 5.08902 3.06408C6.4736 2.58783 7.87777 2.18575 9.32819 1.9595C9.39985 1.94741 9.46527 1.89867 9.54485 1.862ZM2.64694 15.0978C2.64694 16.0037 2.6311 16.9099 2.65069 17.8157C2.6811 19.2349 3.06735 20.5499 3.85652 21.7403C5.64485 24.4345 9.14819 25.5932 11.9224 24.382C14.089 23.4366 15.3528 21.6882 16.0565 19.5137C16.8603 17.0299 16.7232 14.4507 16.7003 11.8887C16.6978 11.6107 16.5244 11.4916 16.2928 11.3949C15.6541 11.1255 15.0002 10.8937 14.3344 10.7007C11.9582 10.0174 9.54985 9.74658 7.07944 10.1045C5.70701 10.2992 4.37775 10.7262 3.1486 11.367C2.80902 11.5437 2.63652 11.7066 2.64194 12.0907C2.6561 13.0928 2.64652 14.0953 2.64694 15.0978ZM17.3724 13.7357V16.9462C17.9919 16.287 18.0919 14.2116 17.3724 13.7357ZM1.92319 13.6216C1.28985 13.9549 1.31735 15.8228 1.9386 16.5282C2.01944 15.5303 2.0636 14.5945 1.92319 13.6216Z" fill="#F2F2F2" fill-opacity="0.5"/>
</svg>
