<svg width="21" height="24" viewBox="0 0 21 24" fill="none" xmlns="http://www.w3.org/2000/svg">
<path d="M0.755906 12.1247C0.920072 8.45807 2.39466 5.36099 4.87674 2.70807C5.80966 1.71099 7.09341 1.43891 8.34007 1.10599C8.89924 0.956823 9.46216 0.821823 10.0513 0.88224C10.1617 0.89349 10.2959 0.88599 10.3876 0.832657C11.6913 0.0739067 12.8492 0.618074 13.9751 1.25516C15.0186 1.84939 15.9176 2.6673 16.6076 3.65016C17.8192 5.36057 19.0659 7.05224 19.7626 9.07058C20.6001 11.5014 20.3876 13.8064 18.8326 15.8689C17.4067 17.7585 15.9376 19.6072 14.8384 21.7189C13.8201 23.6739 11.3801 23.8439 9.88799 23.1927C7.87174 22.3122 6.07632 21.1664 4.92007 19.2152C4.75632 18.9389 4.48674 18.7881 4.24049 18.6031C2.78549 17.5077 1.51049 16.2656 1.03716 14.4222C0.847942 13.6711 0.753458 12.8993 0.755906 12.1247ZM16.0972 8.96599C16.0555 8.70683 16.0322 8.53599 15.9955 8.36849C15.7742 7.34682 15.4634 7.07266 14.4151 6.93474C14.1876 6.9028 13.9641 6.84694 13.7484 6.76807C12.6509 6.37474 11.6567 5.79141 10.7013 5.13682C10.4972 4.99724 10.3367 4.89224 10.0813 5.04641C9.11549 5.62974 8.02424 5.90349 6.96132 6.23182C6.36674 6.41557 5.91966 6.72057 5.64507 7.26766C4.89924 8.74641 4.35341 10.2839 4.44382 11.9706C4.54174 13.8385 4.67632 15.7047 4.79257 17.5714C4.80851 17.7629 4.86809 17.9482 4.96674 18.1131C6.21966 20.3789 8.10424 21.8839 10.5313 22.7297C11.2184 22.9724 11.9681 22.9715 12.6546 22.7271C13.3411 22.4826 13.9226 22.0096 14.3017 21.3872C14.9267 20.3693 15.4717 19.3039 16.0305 18.2497C16.3467 17.6539 16.5261 16.9949 16.5555 16.321C16.6459 14.6052 16.6538 12.8897 16.6388 11.1731C16.6347 10.6831 16.5255 10.2222 16.3309 9.73266C16.0072 9.87682 15.7172 9.90433 15.5017 9.53808C15.4097 9.38183 15.1859 9.43474 15.0138 9.44641C14.3578 9.49143 13.7199 9.68111 13.1459 10.0018C12.9447 10.1131 12.7709 10.1085 12.6459 9.90557C12.5209 9.70266 12.6809 9.57516 12.8155 9.47558C12.968 9.35856 13.1364 9.26373 13.3155 9.19391C14.1938 8.87474 15.0809 8.62849 16.0972 8.96599Z" fill="#F2F2F2" fill-opacity="0.5"/>
</svg>
