<svg width="21" height="24" viewBox="0 0 21 24" fill="none" xmlns="http://www.w3.org/2000/svg">
<path d="M14.471 18.5835C13.9735 19.1098 13.6085 19.7193 13.1243 20.2343C11.4405 22.026 9.98137 22.3223 7.79096 21.261C7.62054 21.1777 7.46137 21.056 7.22221 21.0989C7.10471 21.5068 7.28304 21.8852 7.36471 22.2656C7.67346 23.706 7.54887 23.8556 6.07012 23.7035C5.00971 23.5948 3.96929 23.3639 2.99762 22.931C1.79346 22.3952 1.00637 21.5539 0.997624 20.1081C0.966791 15.9831 0.734706 11.8293 1.31304 7.74642C1.92429 3.43183 4.22304 0.813082 8.38887 0.294749C10.1714 0.0726652 11.8601 0.648498 13.2976 1.89725C14.9076 3.29558 15.7705 5.10558 16.4947 7.02892C17.8393 10.5989 18.8697 14.2672 19.9047 17.9343C20.2797 19.2677 20.0776 19.8739 18.8947 20.6243C17.9593 21.2177 17.1501 22.041 16.0043 22.2706C15.9289 22.2856 15.8572 22.3173 15.7822 22.3348C14.6376 22.5998 14.3889 22.4048 14.3835 21.2464C14.3742 20.5522 14.416 19.8583 14.5085 19.1702C14.5355 18.9923 14.6201 18.8014 14.471 18.5835ZM14.6676 8.23433C14.7993 8.09725 14.783 7.99975 14.7601 7.90683C14.4244 6.53952 13.8577 5.23958 13.0843 4.06308C12.5818 3.29808 11.921 2.74642 11.0505 2.43017C8.94971 1.66725 7.10471 2.26892 6.03387 4.1385C5.70054 4.72183 5.50221 5.37683 5.20346 5.98016C4.16346 8.0785 4.01429 10.2243 4.62596 12.4922C5.21137 14.6698 5.91762 16.8114 6.49012 18.9898C6.68054 19.7118 7.07929 20.1298 7.69221 20.4981C9.58471 21.6348 11.1018 21.4606 12.616 19.8489C13.1365 19.3049 13.5827 18.6943 13.943 18.0331C15.4135 15.2831 15.498 12.3618 15.013 9.36975C14.9826 9.18225 14.8972 9.081 14.7214 8.986C12.8422 7.96433 10.8347 9.56933 10.9005 11.361C10.9289 12.1352 11.241 12.8172 11.4722 13.5277C11.7222 14.2981 11.4972 14.766 10.7222 14.986C10.2701 15.1139 9.80554 15.0889 9.34471 15.0068C9.14096 14.9702 8.96971 14.8743 8.98846 14.6318C9.01096 14.3631 9.21637 14.3643 9.41846 14.3723C9.72596 14.3839 10.0364 14.426 10.3405 14.3977C10.8822 14.3468 10.996 14.1364 10.8189 13.6231C10.6676 13.186 10.5076 12.7502 10.376 12.3081C9.82929 10.4439 10.9285 8.59142 12.8035 8.1035C13.4726 7.92975 14.0843 8.05308 14.6676 8.23433Z" fill="#F2F2F2" fill-opacity="0.5"/>
</svg>
