<svg width="19" height="24" viewBox="0 0 19 24" fill="none" xmlns="http://www.w3.org/2000/svg">
<path d="M18.8961 9.0074C18.8791 9.6074 18.8745 10.2766 18.6832 10.9299C18.5474 11.3953 18.5857 11.8507 18.6991 12.3353C18.9578 13.4428 18.7049 14.502 18.1749 15.4903C17.9528 15.9036 17.5916 16.1761 17.0945 16.0857C16.6466 16.0045 16.5591 16.242 16.5457 16.5932C16.5082 17.5757 16.3495 18.5378 15.9803 19.4507C15.2811 21.1782 14.0078 22.2695 12.2303 22.8061C10.4445 23.3453 8.64489 23.4786 6.86614 22.8736C4.69656 22.1361 3.44489 20.5207 2.83031 18.3636C2.78864 18.2161 2.73197 18.0682 2.72156 17.9178C2.65989 17.0482 2.32489 16.4741 1.46155 16.0428C0.444471 15.5336 -0.0726124 13.6574 0.358638 12.4957C0.577804 11.9066 0.525305 11.3811 0.393639 10.8203C0.213281 10.0163 0.117758 9.19553 0.108638 8.37157C0.083221 7.07365 0.453638 5.92448 1.47239 5.03406C2.75489 3.91365 4.06405 2.81531 5.47447 1.8724C8.29781 -0.0155192 12.6074 0.502398 15.0161 2.91823C15.232 3.13448 15.4407 3.35365 15.7161 3.50573C18.0299 4.78323 18.8032 5.90406 18.8961 9.0074ZM2.95072 11.982C2.95989 14.0853 2.86531 16.197 3.46697 18.252C4.07364 20.3249 5.31364 21.7916 7.45281 22.3749C9.09697 22.8228 10.7149 22.6432 12.3066 22.1011C14.1024 21.4886 15.1874 20.2261 15.6399 18.4049C15.9516 17.1516 16.0149 15.8661 16.0149 14.5857C16.0149 12.3103 16.1666 10.0316 15.8653 7.76031C15.6203 5.91031 14.332 5.24323 12.7057 6.15698C12.3341 6.36531 12.0261 6.65073 11.7224 6.94365C10.892 7.74365 9.90781 7.9874 8.80781 7.6824C7.86239 7.42031 7.09447 6.8549 6.4328 6.14073C6.3178 6.01573 6.24322 5.84906 6.05031 5.8174C4.25114 5.53573 2.94072 6.52198 2.94822 8.13573C2.95614 9.41656 2.95114 10.6991 2.95072 11.982ZM16.6782 13.337H16.6549C16.6549 13.8128 16.6549 14.2885 16.6549 14.7641C16.6549 15.0891 16.8132 15.3203 17.1132 15.4124C17.4132 15.5045 17.5836 15.2603 17.6832 15.0445C18.0724 14.2016 18.2799 13.3266 18.0582 12.3907C17.9407 11.8907 17.5907 11.6824 17.1332 11.5824C16.8161 11.5141 16.6678 11.6336 16.6749 11.9666C16.6861 12.4232 16.6782 12.8803 16.6782 13.337ZM2.37947 15.6445C2.2678 14.3986 2.34239 13.1445 2.29031 11.8924C2.27447 11.512 1.97572 11.5503 1.73864 11.667C1.57366 11.7455 1.42622 11.8564 1.30515 11.9933C1.18408 12.1301 1.09187 12.2899 1.03406 12.4632C0.700722 13.4607 0.874889 14.3857 1.50031 15.2157C1.68531 15.4616 1.89447 15.7499 2.37947 15.6445Z" fill="#F2F2F2" fill-opacity="0.5"/>
</svg>
