<svg width="23" height="24" viewBox="0 0 23 24" fill="none" xmlns="http://www.w3.org/2000/svg">
<path d="M16.7765 17.537C16.4927 17.6912 16.4765 17.9412 16.3981 18.1491C15.8902 19.497 15.2731 20.792 14.184 21.7662C12.8115 22.9966 11.2215 23.6154 9.39231 22.9329C8.11106 22.4541 7.28147 21.4216 6.58106 20.2845C6.36356 19.9312 6.24439 19.5158 5.91939 19.182C5.65731 19.432 5.73689 19.7404 5.71397 20.0041C5.55481 21.8191 5.10731 22.097 3.51481 21.2562C2.57939 20.762 1.67856 20.1962 0.792725 19.6158C0.0427247 19.1237 -0.150609 18.2408 0.194808 17.1066C0.672724 15.5345 1.29314 14.0274 2.15314 12.6137C3.27397 10.7674 4.07439 8.77286 4.91397 6.78036C6.14147 3.86994 8.55939 2.15161 11.6848 2.31452C12.2469 2.34369 12.6848 2.39119 12.8619 1.63785C12.9994 1.05452 14.4036 0.614521 15.1765 0.851604C15.9098 1.0766 16.7248 1.25827 17.299 1.7166C17.954 2.23952 18.4852 2.97035 18.984 3.6616C19.3527 4.17285 18.8886 5.18952 18.2465 5.53369C17.8748 5.73285 17.8815 5.93369 17.9336 6.31327C18.2086 8.32869 19.3369 9.95619 20.2636 11.682C21.1477 13.3291 22.0352 14.9779 22.7023 16.7312C23.4023 18.5716 22.7152 20.2008 20.8927 20.9749C20.2536 21.2462 19.5836 21.4333 18.9098 21.6041C18.3652 21.7437 18.024 21.5545 17.8077 21.0458C17.4573 20.2224 17.3165 19.3437 17.094 18.4862C17.0119 18.1754 17.0123 17.8337 16.7765 17.537ZM6.75564 11.4662C6.92689 11.5158 7.01564 11.552 7.10772 11.567C9.59856 11.9687 10.2811 12.7849 10.2219 15.2679C10.2131 15.6316 10.0352 16.0458 10.2302 16.3483C10.4619 16.7074 10.9065 16.4466 11.2552 16.4849C11.4169 16.5024 11.5752 16.5337 11.6136 16.7149C11.6598 16.9308 11.5044 17.0545 11.3327 17.0858C11.03 17.1388 10.7234 17.1667 10.4161 17.1691C9.69481 17.1774 9.52231 17.0049 9.52481 16.2887C9.52731 15.6141 9.56647 14.9391 9.55189 14.2654C9.53064 13.3799 9.07189 12.7749 8.24772 12.4695C7.81076 12.3133 7.35232 12.2253 6.88856 12.2087C6.32314 12.1808 6.18022 12.4545 6.24189 12.9287C6.27897 12.9595 6.29314 12.9812 6.30897 12.9824C6.78731 13.0195 7.26731 13.0466 7.74439 13.0916C8.17731 13.1333 8.58481 13.2387 8.82314 13.6574C8.91439 13.8179 8.96731 13.9883 8.79939 14.1274C8.65939 14.2433 8.49981 14.2108 8.38022 14.0912C8.10856 13.817 7.96356 13.9274 7.75272 14.1999C7.37772 14.6854 6.87397 14.6304 6.52231 14.1137C6.43897 13.9887 6.40064 13.8199 6.19981 13.8383C6.00564 14.127 5.99814 14.1266 5.97981 14.3383C5.77397 16.7133 6.24314 18.8999 7.73522 20.817C9.43314 22.9983 11.9331 23.1383 13.8727 21.1616C14.8015 20.2149 15.3727 19.0595 15.8094 17.8391C16.1698 16.8341 16.6619 15.8337 16.3173 14.7054C16.2461 14.472 16.2673 14.1912 15.9356 14.1304C15.6419 14.0762 15.5419 14.2879 15.4002 14.4762C15.1086 14.8654 14.6744 14.8929 14.2923 14.5891C14.1477 14.4741 14.1052 14.237 13.8452 14.2291C13.7844 14.2635 13.7266 14.303 13.6723 14.347C13.5211 14.487 13.3594 14.6116 13.1723 14.4304C12.9769 14.2379 13.0769 14.0358 13.219 13.8629C13.311 13.7504 13.4259 13.6588 13.5561 13.5941C13.6863 13.5295 13.8287 13.4932 13.974 13.4879C14.4361 13.4595 14.899 13.4487 15.3602 13.4129C15.5819 13.3958 15.9261 13.5599 15.9506 13.1629C15.9706 12.8437 15.7744 12.6629 15.4431 12.5633C14.6852 12.3379 13.9548 12.4662 13.2169 12.6354C13.029 12.677 12.7944 12.6974 12.7265 12.4604C12.6506 12.1954 12.8598 12.0687 13.0761 12.0204C13.6594 11.8899 14.2381 11.7312 14.8469 11.7979C15.0286 11.8179 15.2331 11.8979 15.3886 11.6779C15.3706 11.6145 15.3644 11.5337 15.3277 11.4695C14.6256 10.2887 13.7536 9.23161 12.9065 8.15619C12.7523 7.96036 12.5248 7.91577 12.2873 7.89119C11.3427 7.79411 10.3994 7.82119 9.45397 7.89536C9.23189 7.91286 9.03731 7.97077 8.90231 8.16077C8.15356 9.20452 7.45522 10.2879 6.75564 11.4662ZM13.8894 8.30286C14.1906 8.71494 14.4311 9.05286 14.6786 9.38119C15.8419 10.9266 16.8231 12.542 17.2177 14.4908C17.6186 16.4712 18.2319 18.4074 18.6019 20.3966C18.6798 20.8133 18.8577 20.9799 19.2686 20.8366C19.6686 20.6995 20.0765 20.5812 20.4677 20.4199C22.2252 19.7029 22.7319 18.5333 22.034 16.7849C21.0411 14.292 19.7006 11.972 18.3886 9.63786C18.154 9.22119 17.8844 8.95536 17.3806 8.89661C16.8869 8.83911 16.4094 8.65577 15.9169 8.57327C15.2911 8.46786 14.6798 8.19494 13.8894 8.30286ZM7.79106 8.39911C6.68522 8.79869 5.66314 9.15994 4.64981 9.54452C4.52481 9.59202 4.41314 9.74952 4.35272 9.88202C3.58689 11.5691 2.50397 13.0883 1.74772 14.777C1.30064 15.777 0.833975 16.777 0.713558 17.8887C0.666058 18.3279 0.713558 18.7683 1.11189 19.0308C2.09397 19.6741 3.06106 20.3479 4.12689 20.8491C4.76106 21.1479 4.91647 21.0462 5.01814 20.3208C5.14981 19.3833 5.13481 18.4374 5.14314 17.4929C5.15772 15.9491 5.29981 14.4154 5.51564 12.8866C5.69689 11.6058 6.52981 10.6612 7.14981 9.60494C7.35814 9.25036 7.68481 8.95869 7.79106 8.39911ZM17.5311 7.71911C17.4844 6.30536 17.1094 5.67077 16.069 5.03202C15.7741 4.85017 15.5001 4.63653 15.2519 4.39494C13.5019 2.69286 11.4211 2.6666 9.27689 3.30702C7.59689 3.8091 6.56856 5.14036 5.68439 6.56577C5.45022 6.94077 5.21481 7.34911 5.27106 7.82536C5.54481 7.94161 5.75689 7.84994 5.97272 7.76452C6.91772 7.38952 7.83189 6.94077 8.82981 6.69744C10.0936 6.38952 11.3619 6.16536 12.6531 6.44161C13.5731 6.63827 14.4777 6.90786 15.3886 7.14994C16.0827 7.33036 16.7756 7.51744 17.5315 7.71911H17.5311ZM15.5102 1.73869C14.9436 1.23244 14.3727 1.48327 13.8181 1.66327C13.5852 1.7391 13.2873 1.88035 13.454 2.19202C13.6165 2.49536 13.9419 2.83452 14.2831 2.61536C14.6906 2.35369 15.1661 2.15285 15.5106 1.73869H15.5102ZM18.4177 4.08744C18.4294 3.7916 18.2848 3.60036 18.0506 3.60077C17.8761 3.60077 17.3044 4.35077 17.3352 4.57285C17.3673 4.80285 17.5194 4.95994 17.7519 4.98744C18.0456 5.02161 18.4015 4.52702 18.4181 4.08744H18.4177Z" fill="#F2F2F2" fill-opacity="0.5"/>
</svg>
