<svg width="256" height="50" viewBox="0 0 256 50" fill="none" xmlns="http://www.w3.org/2000/svg">
<mask id="mask0_1735_11341" style="mask-type:luminance" maskUnits="userSpaceOnUse" x="0" y="0" width="238" height="50">
<path d="M0.842773 0H237.094V50H0.842773V0Z" fill="white"/>
</mask>
<g mask="url(#mask0_1735_11341)">
<path d="M177.835 49.9704C170.225 49.9704 163.746 47.5124 159.102 42.8578C154.652 38.4093 152.192 32.1016 152.192 25.1145C152.192 18.1856 154.674 11.869 159.175 7.32486C163.856 2.60754 170.23 0.115234 177.62 0.115234C183.816 0.115234 189.06 1.8161 193.213 5.19244C193.274 5.24172 193.309 5.30593 193.318 5.38358C193.325 5.46272 193.306 5.53142 193.255 5.59264L188.403 11.6569C188.348 11.7286 188.273 11.7644 188.184 11.7644C188.119 11.7644 188.061 11.7435 188.01 11.7047C187.279 11.1328 186.507 10.6236 185.691 10.18C184.876 9.73504 184.029 9.36172 183.151 9.05858C182.275 8.75395 181.379 8.52547 180.463 8.37017C179.548 8.21487 178.626 8.13722 177.699 8.13572C168.227 8.13572 161.61 15.09 161.61 25.0428C161.61 34.7985 168.436 41.8797 177.842 41.8797C181.586 41.8797 185.085 40.6268 188.242 38.1569C188.303 38.1091 188.37 38.0897 188.448 38.0972C188.524 38.1047 188.587 38.1375 188.636 38.1972L193.412 43.824C193.461 43.8822 193.485 43.9509 193.479 44.0286C193.474 44.1047 193.443 44.1704 193.386 44.2212C190.452 46.8434 185.382 49.9704 177.835 49.9704ZM16.3247 49.9704C11.013 49.9704 6.99011 48.5756 4.36938 45.8235C1.39175 42.6906 0.80787 38.4093 0.842215 35.3421C0.842215 35.2644 0.869094 35.1972 0.924347 35.142C0.979599 35.0867 1.0468 35.0583 1.12445 35.0583H8.98366C9.0628 35.0583 9.12851 35.0867 9.18376 35.142C9.23901 35.1972 9.26739 35.2644 9.26739 35.3421C9.36893 37.6104 10.0678 39.4845 11.2893 40.7284C12.5123 41.9738 14.1982 42.5935 16.3217 42.5935C20.3954 42.5935 23.0266 40.1415 23.0266 36.3426C23.0266 32.3913 20.1505 30.6725 17.3357 29.4943C16.2889 29.018 15.1883 28.5894 14.1266 28.1757C12.2719 27.5008 10.474 26.6944 8.73577 25.7596C4.05579 23.3479 1.59185 19.0786 1.59185 13.3936C1.59185 5.45078 7.51276 0.115234 16.3247 0.115234C21.2481 0.115234 24.9783 1.41141 27.4184 3.96495C29.5538 6.20489 30.6708 9.46475 30.6484 13.3936C30.6484 13.4728 30.62 13.54 30.5648 13.5952C30.511 13.6505 30.4438 13.6773 30.3662 13.6773H22.7757C22.7011 13.6773 22.6369 13.652 22.5816 13.6012C22.5278 13.5504 22.498 13.4892 22.492 13.4145C22.1874 9.72907 19.825 7.42641 16.3277 7.42641C12.8319 7.42641 10.4127 9.62454 10.4127 12.8949C10.4127 15.653 12.0165 17.6047 15.4571 19.0323C16.4218 19.4355 17.3581 19.8043 18.3481 20.1956C19.825 20.7615 21.3272 21.3663 22.9534 22.0831C29.2701 24.8532 32.2134 29.0433 32.2134 35.2689C32.2134 39.6577 30.6887 43.3685 27.7992 45.9982C24.9111 48.6294 20.9793 49.9704 16.3247 49.9704ZM228.216 49.049C228.138 49.049 228.071 49.0221 228.016 48.9654C227.96 48.9101 227.934 48.8444 227.934 48.7653V29.0911C227.934 29.0165 227.919 28.9433 227.89 28.8746C227.862 28.8044 227.82 28.7432 227.768 28.6909C227.714 28.6372 227.653 28.5969 227.584 28.567C227.514 28.5386 227.442 28.5237 227.368 28.5237H207.449C207.374 28.5237 207.301 28.5386 207.232 28.567C207.162 28.5969 207.101 28.6372 207.048 28.6909C206.995 28.7432 206.954 28.8044 206.926 28.8746C206.898 28.9433 206.883 29.0165 206.883 29.0911V48.7623C206.883 48.8415 206.854 48.9087 206.8 48.9639C206.745 49.0192 206.678 49.046 206.6 49.046H198.268C198.19 49.046 198.123 49.0192 198.068 48.9639C198.012 48.9087 197.986 48.8415 197.986 48.7623V1.32331C197.986 1.24417 198.012 1.17846 198.068 1.12321C198.123 1.06796 198.19 1.03958 198.268 1.03958H206.594C206.672 1.03958 206.739 1.06796 206.794 1.12321C206.85 1.17846 206.877 1.24417 206.877 1.32331V19.7162C206.877 19.7909 206.892 19.8641 206.92 19.9328C206.948 20.0029 206.99 20.0642 207.042 20.1164C207.096 20.1702 207.157 20.2105 207.226 20.2404C207.296 20.2687 207.368 20.2837 207.443 20.2837H227.368C227.442 20.2837 227.514 20.2687 227.584 20.2404C227.653 20.2105 227.714 20.1702 227.768 20.1164C227.82 20.0642 227.862 20.0029 227.89 19.9328C227.919 19.8641 227.934 19.7909 227.934 19.7162V1.32331C227.934 1.24417 227.96 1.17846 228.016 1.12321C228.071 1.06796 228.138 1.03958 228.216 1.03958H236.553C236.631 1.03958 236.698 1.06796 236.753 1.12321C236.808 1.17846 236.835 1.24417 236.835 1.32331V48.7623C236.835 48.8415 236.808 48.9087 236.753 48.9639C236.698 49.0192 236.631 49.046 236.553 49.046L228.216 49.049ZM132.095 49.049C132.018 49.049 131.951 49.0221 131.895 48.9654C131.84 48.9101 131.813 48.8444 131.813 48.7653V9.7007C131.813 9.62454 131.798 9.55286 131.77 9.48267C131.741 9.41398 131.7 9.35276 131.647 9.299C131.594 9.24673 131.532 9.20492 131.464 9.17655C131.394 9.14818 131.322 9.13324 131.247 9.13324H122.449C122.414 9.13324 122.382 9.12727 122.35 9.11682C122.286 9.09442 122.22 9.08247 122.152 9.08247H119.178C119.101 9.08247 119.034 9.0541 118.978 8.99885C118.923 8.94359 118.896 8.8764 118.896 8.79875V1.35467C118.896 1.27552 118.923 1.20982 118.978 1.15457C119.034 1.09782 119.101 1.07094 119.178 1.07094H122.158C122.208 1.07094 122.258 1.06497 122.307 1.05153C122.332 1.04854 122.356 1.04854 122.382 1.05153H150.158C150.184 1.04854 150.208 1.04854 150.233 1.05153C150.281 1.06497 150.332 1.07094 150.382 1.07094H153.324C153.402 1.07094 153.469 1.09782 153.524 1.15457C153.579 1.20982 153.608 1.27552 153.608 1.35467V8.79277C153.608 8.87192 153.579 8.93762 153.524 8.99437C153.469 9.04962 153.402 9.0765 153.324 9.0765H150.382C150.314 9.0765 150.248 9.08844 150.184 9.11084C150.152 9.12279 150.119 9.12727 150.085 9.12727H141.287C141.212 9.12727 141.14 9.1422 141.07 9.17058C141.001 9.19895 140.94 9.24076 140.886 9.29303C140.834 9.34678 140.792 9.40801 140.764 9.47819C140.736 9.54689 140.721 9.62006 140.721 9.69472V48.7623C140.721 48.8415 140.694 48.9087 140.639 48.9639C140.583 49.0192 140.516 49.046 140.438 49.046L132.095 49.049ZM116.762 49.049C116.703 49.049 116.647 49.0326 116.598 48.9982C116.549 48.9639 116.514 48.9191 116.493 48.8624L111.739 35.9259C111.698 35.8139 111.628 35.7229 111.531 35.6557C111.434 35.587 111.325 35.5526 111.207 35.5526H94.088C93.9686 35.5511 93.8596 35.5855 93.761 35.6557C93.6624 35.7243 93.5938 35.8154 93.5534 35.9289L88.8525 48.8624C88.8301 48.9206 88.7943 48.9684 88.742 49.0027C88.6898 49.0371 88.6315 49.0535 88.5688 49.049H80.5155C80.4169 49.049 80.3393 49.0087 80.2825 48.9266C80.2243 48.8459 80.2138 48.7578 80.2482 48.6638L97.6675 1.22326C97.7123 1.10081 97.8019 1.03958 97.9333 1.03958H107.292C107.422 1.03809 107.51 1.09932 107.558 1.22177L125.81 48.6608C125.827 48.7041 125.833 48.7504 125.828 48.7967C125.822 48.8444 125.807 48.8877 125.78 48.9266C125.753 48.9654 125.719 48.9953 125.677 49.0177C125.635 49.0386 125.591 49.049 125.544 49.049H116.762ZM102.606 12.3991C102.486 12.3991 102.377 12.4334 102.28 12.5006C102.182 12.5693 102.113 12.6604 102.071 12.7739L96.6595 27.5456C96.5923 27.7322 96.6147 27.9055 96.7282 28.0682C96.8402 28.231 96.997 28.3116 97.1941 28.3116H108.095C108.14 28.3116 108.186 28.3072 108.231 28.2952C108.274 28.2848 108.318 28.2683 108.358 28.2474C108.4 28.2265 108.437 28.2011 108.471 28.1698C108.506 28.1399 108.536 28.1056 108.563 28.0682C108.588 28.0294 108.61 27.9891 108.627 27.9473C108.643 27.904 108.654 27.8592 108.66 27.8129C108.664 27.7681 108.664 27.7218 108.66 27.677C108.654 27.6307 108.643 27.5859 108.627 27.5441L103.14 12.7709C103.1 12.6589 103.03 12.5678 102.933 12.5006C102.834 12.4319 102.725 12.3991 102.606 12.3991ZM67.9539 49.049C67.8538 49.049 67.7747 49.0057 67.7194 48.9221L46.1055 16.9103C45.9935 16.7431 45.8367 16.6595 45.6366 16.6595C45.5798 16.6609 45.5231 16.6684 45.4693 16.6863C45.3499 16.7207 45.2513 16.7894 45.1767 16.8909C45.102 16.991 45.0647 17.1045 45.0647 17.2299V48.7623C45.0647 48.8415 45.0378 48.9087 44.9825 48.9639C44.9273 49.0192 44.8601 49.046 44.7824 49.046H36.7395C36.6604 49.046 36.5947 49.0192 36.5394 48.9639C36.4842 48.9087 36.4558 48.8415 36.4558 48.7623V1.32331C36.4558 1.24417 36.4842 1.17846 36.5394 1.12321C36.5947 1.06796 36.6604 1.03958 36.7395 1.03958H45.8232C45.9248 1.03958 46.0039 1.0814 46.0607 1.16651L67.2476 33.7383C67.3596 33.9115 67.5193 33.9966 67.7254 33.9951C67.7792 33.9951 67.8329 33.9876 67.8867 33.9727C68.0076 33.9369 68.1062 33.8697 68.1809 33.7681C68.257 33.6666 68.2944 33.5531 68.2944 33.4262V1.32331C68.2944 1.24417 68.3212 1.17846 68.3765 1.12321C68.4317 1.06796 68.4989 1.03958 68.5766 1.03958H76.6135C76.6912 1.03958 76.7583 1.06796 76.8136 1.12321C76.8689 1.17846 76.8972 1.24417 76.8972 1.32331V48.7623C76.8972 48.8415 76.8689 48.9087 76.8136 48.9639C76.7583 49.0192 76.6912 49.046 76.6135 49.046L67.9539 49.049Z" fill="#F2F2F2"/>
</g>
<mask id="mask1_1735_11341" style="mask-type:luminance" maskUnits="userSpaceOnUse" x="242" y="0" width="14" height="13">
<path d="M242.828 0H255.157V12.4078H242.828V0Z" fill="white"/>
</mask>
<g mask="url(#mask1_1735_11341)">
<path d="M249.06 12.248C248.812 12.2465 248.566 12.2316 248.32 12.2002C248.073 12.1704 247.83 12.1241 247.589 12.0629C247.349 12.0016 247.113 11.927 246.882 11.8374C246.65 11.7478 246.425 11.6432 246.207 11.5253C245.987 11.4088 245.777 11.2774 245.574 11.134C245.37 10.9907 245.178 10.8354 244.994 10.6681C244.81 10.5009 244.637 10.3232 244.476 10.135C244.313 9.94686 244.164 9.74974 244.026 9.54218C243.889 9.3361 243.764 9.12107 243.652 8.89857C243.541 8.67606 243.443 8.44908 243.36 8.21464C243.277 7.98019 243.207 7.74126 243.153 7.49935C243.099 7.25594 243.059 7.01104 243.035 6.76315C243.011 6.51676 243.001 6.26887 243.007 6.01949C243.013 5.77161 243.035 5.52372 243.071 5.27733C243.107 5.03242 243.157 4.78902 243.225 4.5486C243.29 4.30967 243.371 4.07522 243.465 3.84526C243.561 3.61529 243.668 3.39129 243.791 3.17477C243.913 2.95824 244.047 2.75067 244.195 2.55057C244.343 2.35047 244.501 2.16082 244.673 1.98013C244.843 1.79944 245.024 1.6307 245.217 1.47241C245.408 1.31412 245.608 1.16927 245.817 1.03487C246.027 0.901971 246.244 0.782507 246.468 0.67499C246.692 0.568966 246.922 0.474888 247.158 0.397237C247.392 0.318093 247.633 0.255374 247.875 0.206095C248.118 0.156817 248.364 0.122471 248.611 0.103058C248.859 0.0851385 249.107 0.0806586 249.355 0.0926049C249.602 0.104551 249.849 0.129937 250.094 0.17175C250.337 0.213561 250.579 0.270307 250.816 0.341985C251.054 0.413663 251.287 0.498781 251.514 0.598832C251.741 0.698883 251.962 0.812373 252.175 0.939303C252.387 1.06773 252.593 1.2066 252.789 1.35892C252.985 1.51124 253.171 1.6755 253.348 1.85021C253.524 2.02493 253.688 2.2101 253.842 2.40572C253.996 2.60134 254.136 2.80592 254.264 3.01797C254.393 3.23151 254.508 3.45103 254.609 3.67801C254.711 3.90499 254.799 4.13645 254.872 4.37388C254.945 4.61281 255.004 4.85323 255.047 5.09813C255.09 5.34303 255.12 5.58942 255.134 5.83731C255.147 6.08669 255.144 6.33458 255.128 6.58247C255.111 6.83035 255.078 7.07675 255.032 7.32015C254.984 7.56505 254.923 7.80547 254.845 8.04141C254.769 8.27885 254.678 8.50882 254.574 8.7343C254.469 8.95979 254.351 9.17781 254.22 9.38986C254.088 9.60041 253.945 9.80201 253.788 9.99614C253.631 10.1888 253.464 10.371 253.286 10.5442C253.107 10.7174 252.919 10.8772 252.72 11.0265C252.522 11.1773 252.316 11.3132 252.101 11.4372C251.886 11.5611 251.663 11.6716 251.435 11.7687C250.676 12.0897 249.885 12.2495 249.06 12.248ZM249.06 0.831786C248.844 0.831786 248.627 0.845225 248.411 0.872105C248.196 0.898984 247.982 0.939303 247.77 0.993062C247.56 1.04682 247.354 1.11253 247.15 1.19167C246.947 1.27082 246.75 1.36191 246.559 1.46494C246.366 1.56798 246.183 1.68296 246.005 1.8084C245.827 1.93384 245.659 2.07122 245.497 2.21756C245.336 2.36391 245.185 2.5207 245.043 2.68646C244.902 2.85221 244.772 3.02544 244.651 3.20762C244.531 3.38831 244.422 3.57646 244.325 3.77208C244.228 3.96771 244.143 4.16781 244.07 4.37239C243.998 4.57846 243.938 4.78752 243.891 5.00107C243.844 5.21311 243.811 5.42815 243.791 5.64617C243.77 5.8627 243.764 6.08072 243.77 6.29725C243.776 6.51527 243.795 6.73329 243.828 6.94832C243.861 7.16336 243.907 7.3769 243.967 7.58596C244.025 7.79651 244.097 8.0011 244.18 8.20269C244.451 8.84033 244.83 9.40479 245.32 9.89609C245.809 10.3859 246.372 10.7667 247.01 11.037C247.669 11.3147 248.356 11.4536 249.071 11.4536C249.786 11.4536 250.473 11.3147 251.132 11.037C251.765 10.7667 252.326 10.3889 252.814 9.90355C253 9.71689 253.17 9.51828 253.327 9.30773C253.482 9.09717 253.621 8.87467 253.743 8.64321C253.867 8.41175 253.972 8.17282 254.06 7.92494C254.147 7.67705 254.215 7.42468 254.266 7.16784C254.315 6.9095 254.347 6.64966 254.359 6.38834C254.371 6.12552 254.362 5.86419 254.335 5.60286C254.308 5.34154 254.261 5.08469 254.197 4.82934C254.132 4.57548 254.048 4.32759 253.946 4.08568C253.681 3.44953 253.303 2.88656 252.814 2.39975C252.32 1.89949 251.747 1.51422 251.097 1.24543C250.449 0.975142 249.773 0.840746 249.069 0.842239L249.06 0.831786Z" fill="#F2F2F2"/>
</g>
<path d="M247.054 5.00381V8.3684H246.206V5.00381H245.074V4.35352H248.147V5.00381H247.054Z" fill="#F2F2F2"/>
<path d="M251.609 4.35421L250.868 6.70987L250.69 7.35421L250.552 6.81701L250.489 6.59975L249.771 4.34082H248.639V8.36909H249.385V5.18159L249.669 6.131L250.393 8.36909H250.992L251.716 6.131C251.776 5.94201 251.867 5.62207 252 5.1682V8.36909H252.747V4.35421H251.609Z" fill="#F2F2F2"/>
</svg>
