<svg width="16" height="16" viewBox="0 0 16 16" fill="none" xmlns="http://www.w3.org/2000/svg">
<path d="M7.79167 15.7917C6.71806 15.7917 5.7091 15.5888 4.76479 15.1831C3.82062 14.7773 2.99333 14.2192 2.28292 13.5087C1.5725 12.7983 1.01438 11.971 0.608542 11.0269C0.202847 10.0826 0 9.07361 0 8C0 6.85903 0.217986 5.80958 0.653958 4.85167C1.08979 3.89389 1.66271 3.06514 2.37271 2.36542C3.08257 1.66556 3.89507 1.11722 4.81021 0.720417C5.72521 0.323473 6.65757 0.125 7.60729 0.125C7.88715 0.125 8.15903 0.143194 8.42292 0.179583C8.68694 0.215833 8.95465 0.267639 9.22604 0.335C9.15757 0.96 9.21313 1.51743 9.39271 2.00729C9.57215 2.49715 9.84931 2.90576 10.2242 3.23313C10.599 3.56049 11.0499 3.79632 11.5767 3.94063C12.1035 4.08493 12.6831 4.13306 13.3156 4.085C13.0785 4.87667 13.1943 5.60604 13.6629 6.27312C14.1315 6.94035 14.7638 7.3059 15.5596 7.36979C15.5675 7.45674 15.5734 7.53771 15.5773 7.61271C15.5813 7.68785 15.5833 7.76889 15.5833 7.85583C15.5833 8.93 15.3783 9.94903 14.9681 10.9129C14.558 11.8769 14.0013 12.7213 13.2981 13.4458C12.5951 14.1704 11.7705 14.7425 10.8244 15.1621C9.87826 15.5818 8.86736 15.7917 7.79167 15.7917ZM6.54563 6.41979C6.86882 6.41979 7.14396 6.305 7.37104 6.07542C7.59799 5.84569 7.71146 5.56924 7.71146 5.24604C7.71146 4.92285 7.59778 4.64771 7.37042 4.42063C7.14292 4.19368 6.86667 4.08021 6.54167 4.08021C6.22111 4.08021 5.94597 4.19389 5.71625 4.42125C5.48667 4.64875 5.37188 4.925 5.37188 5.25C5.37188 5.57056 5.48667 5.84569 5.71625 6.07542C5.94597 6.305 6.22243 6.41979 6.54563 6.41979ZM4.54563 10.4198C4.86882 10.4198 5.14396 10.305 5.37104 10.0754C5.59799 9.84569 5.71146 9.56924 5.71146 9.24604C5.71146 8.92285 5.59778 8.64771 5.37042 8.42063C5.14292 8.19368 4.86667 8.08021 4.54167 8.08021C4.22111 8.08021 3.94597 8.19389 3.71625 8.42125C3.48667 8.64875 3.37188 8.925 3.37188 9.25C3.37188 9.57056 3.48667 9.84569 3.71625 10.0754C3.94597 10.305 4.22243 10.4198 4.54563 10.4198ZM10.2913 11.1698C10.4785 11.1698 10.637 11.1051 10.7669 10.9756C10.8966 10.846 10.9615 10.6876 10.9615 10.5004C10.9615 10.3132 10.8977 10.1547 10.7702 10.0248C10.6427 9.89507 10.4847 9.83021 10.296 9.83021C10.1115 9.83021 9.95292 9.89396 9.82042 10.0215C9.68806 10.149 9.62187 10.307 9.62187 10.4956C9.62187 10.6802 9.6866 10.8387 9.81604 10.9713C9.94563 11.1036 10.104 11.1698 10.2913 11.1698ZM7.79313 14.7083C9.5791 14.7083 11.113 14.0881 12.3948 12.8477C13.6765 11.6073 14.3756 10.071 14.4921 8.23875C13.8457 7.99417 13.3101 7.60875 12.8854 7.0825C12.4607 6.55639 12.2088 5.93326 12.1298 5.21312C11.0369 5.08701 10.121 4.67354 9.38229 3.97271C8.6434 3.27188 8.23125 2.38083 8.14583 1.29958C7.2975 1.22278 6.45403 1.33153 5.61542 1.62583C4.77667 1.92014 4.01889 2.3632 3.34208 2.955C2.66528 3.54695 2.11965 4.27319 1.70521 5.13375C1.29063 5.99431 1.08333 6.94972 1.08333 8C1.08333 9.85444 1.73778 11.4361 3.04667 12.745C4.35556 14.0539 5.93771 14.7083 7.79313 14.7083Z" fill="#212121"/>
</svg>
