<svg width="17" height="18" viewBox="0 0 17 18" fill="none" xmlns="http://www.w3.org/2000/svg">
<path d="M16.9274 14.792C16.9249 13.8461 16.5472 13.0297 15.9036 12.3883C15.3775 11.864 15.2182 11.3048 15.2342 10.595C15.2622 9.36852 15.2062 8.14061 15.2044 6.91343C15.2044 5.96749 15.1003 5.07176 15.9382 4.25061C16.7088 3.49567 16.3482 2.02837 15.4409 1.13846C14.5677 0.281656 13.6581 0.171417 12.6347 0.915438C12.1748 1.25016 11.7251 1.35421 11.1892 1.34293C9.739 1.31346 8.28844 1.304 6.83788 1.29199C5.95306 1.28508 5.10644 1.34002 4.35987 0.612371C3.80213 0.066637 3.01591 0.246002 2.3894 0.665491C1.71888 1.11481 1.23899 1.69693 1.29611 2.59703C1.48275 5.57056 1.11675 8.53463 1.13203 11.5053C1.13494 12.051 0.758381 12.3784 0.487333 12.7663C0.0318254 13.4182 -0.218122 14.088 0.25303 14.8313C0.724182 15.5746 1.38561 15.7311 2.26425 15.6758C5.42151 15.4778 8.57877 15.7849 11.7375 15.7958C12.2072 15.7976 12.424 16.2015 12.7591 16.4176C13.7291 17.043 14.7485 17.2457 15.8218 16.7141C16.6047 16.3263 16.9067 15.6314 16.9274 14.792ZM11.1481 8.24976C11.3038 8.73037 11.6731 8.94866 11.9616 9.22772C13.2714 10.4956 14.659 11.6933 15.7647 13.1519C16.5974 14.2507 16.5865 15.3054 15.8411 15.9734C15.0527 16.6803 13.8982 16.6112 12.8941 15.7722C12.6394 15.5601 12.4338 15.2894 12.2148 15.0373C11.1408 13.8028 10.0519 12.5807 9.00554 11.323C8.4478 10.6521 7.98683 10.5437 7.28829 11.1884C6.14115 12.2467 4.90961 13.2141 3.70062 14.2048C3.24039 14.5821 2.74413 14.9234 2.16274 15.0893C1.6603 15.2326 1.2168 15.1406 0.862799 14.7029C0.508798 14.2652 0.498976 13.8068 0.79622 13.3637C1.0618 12.9603 1.36304 12.5816 1.69632 12.2322C2.70629 11.1895 3.75192 10.1817 4.76081 9.13785C5.99089 7.86447 5.98398 7.85355 4.91871 6.48885C4.02588 5.34535 3.12469 4.20804 2.22641 3.06891C1.65484 2.34308 1.90297 1.75514 2.55094 1.25634C3.32079 0.663671 4.00878 0.859772 4.61819 1.52593C5.5725 2.56938 6.57629 3.57426 7.45165 4.68065C8.15455 5.56911 8.76614 5.48397 9.47487 4.78506C10.4816 3.79255 11.4945 2.80586 12.4822 1.79516C12.9749 1.28981 13.4973 0.887423 14.2431 1.07843C15.0599 1.28726 15.4292 1.93196 15.6439 2.67707C15.9007 3.56844 15.4085 4.1622 14.8009 4.70975C13.5337 5.85107 12.2472 6.97237 11.1481 8.24976ZM4.02697 15.0314C5.04386 14.1281 10.8108 14.3765 11.2398 15.0314H4.02697ZM2.32901 10.9744L1.97501 10.9431V4.13055L2.40468 4.14437C2.74049 6.43028 2.33119 8.69835 2.32901 10.9744ZM14.568 5.73865V10.8093C13.8702 10.0649 13.8284 6.8061 14.568 5.7401V5.73865ZM11.5432 1.97598C10.3892 2.6516 6.69962 2.55519 6.04947 1.97598H11.5432Z" fill="#0037EB"/>
</svg>
