<svg width="12" height="14" viewBox="0 0 12 14" fill="none" xmlns="http://www.w3.org/2000/svg">
<path d="M2.75581 13.5831C2.38609 13.5831 2.07032 13.4523 1.80852 13.1906C1.54685 12.9288 1.41602 12.613 1.41602 12.2433V2.49978H0.416016V1.41645H3.99935V0.512695H7.99935V1.41645H11.5827V2.49978H10.5827V12.2344C10.5827 12.6196 10.4532 12.9408 10.1941 13.1977C9.93511 13.4546 9.61803 13.5831 9.24289 13.5831H2.75581ZM9.49935 2.49978H2.49935V12.2433C2.49935 12.3182 2.52338 12.3796 2.57143 12.4277C2.61949 12.4758 2.68095 12.4998 2.75581 12.4998H9.24289C9.30706 12.4998 9.36581 12.473 9.41914 12.4196C9.47261 12.3662 9.49935 12.3075 9.49935 12.2433V2.49978ZM4.33602 10.9998H5.41914V3.99978H4.33602V10.9998ZM6.57956 10.9998H7.66268V3.99978H6.57956V10.9998Z" fill="#5F6368"/>
</svg>
