<svg width="15" height="16" viewBox="0 0 15 16" fill="none" xmlns="http://www.w3.org/2000/svg">
<path d="M7.19432 15.4419C6.47076 15.4419 5.72521 15.4328 4.95337 15.4148C4.15893 15.3964 3.12554 15.3155 2.18412 14.8492C1.35912 14.441 0.775512 13.7617 0.449179 12.8325C0.158901 12.0032 0.0956506 11.1523 0.0727339 10.506C0.0336228 9.3892 0.0290399 8.25406 0.0244565 7.1562C0.0217065 6.49406 0.0189559 5.80931 0.00856705 5.13617C-0.0149607 3.59739 0.511512 2.41398 1.61854 1.51778C2.17557 1.06678 2.80623 0.79606 3.54721 0.689421C4.44707 0.560171 5.36129 0.578199 6.24526 0.595615C6.40476 0.598671 6.56416 0.601523 6.72346 0.604171C7.33732 0.613032 7.96187 0.598059 8.56596 0.583698C9.25346 0.567198 9.96448 0.550393 10.6654 0.568116H10.7052C11.2677 0.582477 11.8495 0.597143 12.3921 0.826615C13.2251 1.17892 13.8893 1.80714 14.3694 2.69417C14.7705 3.42753 14.9833 4.24897 14.9887 5.08484C14.993 5.79739 14.9921 6.52095 14.9909 7.22373C14.9909 7.53173 14.9909 7.83952 14.9909 8.14712C14.9909 8.37567 14.9909 8.60423 14.9909 8.83278C14.9924 9.82462 14.9939 10.8494 14.9319 11.8611C14.8751 12.7824 14.454 13.4901 14.0935 14.0034C13.5095 14.8348 12.6754 15.2562 11.4681 15.3252C10.1142 15.4025 8.70223 15.4419 7.19432 15.4419ZM5.3179 0.819893C4.73735 0.819893 4.15496 0.840977 3.58082 0.923477C2.87376 1.02492 2.29748 1.27212 1.76765 1.70142C0.706456 2.56034 0.222762 3.65056 0.245678 5.13189C0.256067 5.80625 0.258817 6.49192 0.261567 7.15467C0.265845 8.2507 0.270428 9.38523 0.309539 10.4971C0.331845 11.1281 0.393262 11.9546 0.67315 12.7537C0.978706 13.6239 1.52198 14.2579 2.28954 14.6377C3.18421 15.0805 4.1409 15.1599 4.95918 15.1789C7.33273 15.2342 9.45726 15.2045 11.4541 15.0872C12.5846 15.0215 13.3601 14.6331 13.8985 13.865C14.4143 13.1316 14.652 12.5263 14.693 11.8446C14.7541 10.8412 14.7541 9.81912 14.7516 8.83095C14.7516 8.60199 14.7516 8.37323 14.7516 8.14467C14.7516 7.83667 14.7516 7.52877 14.7516 7.22098C14.7516 6.52095 14.7535 5.79678 14.7492 5.08514C14.7447 4.28846 14.5426 3.50535 14.161 2.806C13.7082 1.96756 13.0821 1.37478 12.2998 1.04417C11.7984 0.832115 11.2396 0.818059 10.699 0.804309H10.6593C9.96418 0.786587 9.25621 0.80431 8.57146 0.819893C7.96523 0.83456 7.33823 0.850449 6.72009 0.840366C6.56019 0.838125 6.40038 0.835273 6.24068 0.83181C5.93604 0.825088 5.62743 0.819893 5.3179 0.819893ZM6.48207 14.9546C6.33051 14.9546 6.17936 14.9537 6.02862 14.9518C5.23235 14.9424 4.37862 14.9133 3.53162 14.767C2.0124 14.5048 1.07526 13.5985 0.745873 12.0732C0.566206 11.2409 0.557039 10.389 0.548178 9.5652L0.545734 9.34306C0.54054 8.91803 0.541762 8.4875 0.543289 8.0692C0.543289 7.87935 0.543289 7.6898 0.543289 7.50056V7.38201H0.553067C0.553067 7.10273 0.550928 6.82314 0.549095 6.54387C0.5439 5.81053 0.538707 5.05337 0.561318 4.30812C0.585151 3.51887 0.933179 2.81089 1.56751 2.25692C1.65123 2.1842 1.73404 2.10414 1.81379 2.02714C2.0451 1.80378 2.28435 1.57278 2.61068 1.43925C3.14418 1.22048 3.72993 1.11048 4.40184 1.10314C6.15085 1.08389 8.03796 1.08328 10.3422 1.10162C11.2588 1.10895 12.0062 1.30817 12.6295 1.71059C13.5242 2.28839 14.0333 3.16137 14.1417 4.30567C14.3626 6.59269 14.3895 8.89431 14.2221 11.1859L14.2203 11.2069C14.1695 11.8844 14.117 12.5847 13.7274 13.2068C13.072 14.2533 12.14 14.8003 10.9572 14.8321C10.4555 14.8455 9.95348 14.8626 9.45176 14.8819C8.47765 14.9173 7.47635 14.9537 6.48207 14.9537V14.9546ZM0.781317 7.61698C0.781317 7.76751 0.781317 7.91815 0.781317 8.06889C0.781317 8.48537 0.778873 8.9162 0.784067 9.33909L0.786512 9.56153C0.795068 10.3737 0.804234 11.2134 0.979012 12.0225C1.29007 13.4638 2.1386 14.2836 3.57318 14.5326C4.40398 14.6762 5.2461 14.7046 6.0326 14.7141C7.16926 14.7279 8.32426 14.6857 9.44382 14.6451C9.94646 14.6267 10.4488 14.6087 10.9517 14.5949C12.0499 14.5644 12.9165 14.0563 13.527 13.0809C13.8857 12.5083 13.9337 11.8676 13.9853 11.1892V11.1681C14.1522 8.88976 14.1261 6.60134 13.9071 4.32737C13.8056 3.25792 13.3329 2.44514 12.5015 1.90859C11.917 1.53123 11.2102 1.34453 10.3409 1.3375C8.03887 1.31917 6.15268 1.31978 4.40521 1.33934C3.76354 1.34637 3.20651 1.45056 2.70112 1.65742C2.41696 1.77384 2.20429 1.97917 1.9791 2.19673C1.8969 2.27587 1.81226 2.35806 1.72396 2.43475C1.1321 2.95023 0.82104 3.58242 0.798734 4.31423C0.776429 5.0552 0.781623 5.81145 0.786512 6.54112C0.788651 6.86073 0.790789 7.18003 0.790789 7.49964V7.61698H0.781317Z" fill="#212121"/>
</svg>
