<svg width="15" height="16" viewBox="0 0 15 16" fill="none" xmlns="http://www.w3.org/2000/svg">
<path d="M2.42247 15.0837C2.0015 15.0837 1.64518 14.9378 1.35352 14.6462C1.06185 14.3545 0.916016 13.9982 0.916016 13.5772V2.42345C0.916016 2.00248 1.06185 1.64616 1.35352 1.35449C1.64518 1.06283 2.0015 0.916992 2.42247 0.916992H7.38247C7.5597 0.916992 7.70817 0.976853 7.82789 1.09658C7.94747 1.21616 8.00727 1.36463 8.00727 1.54199C8.00727 1.71935 7.94747 1.86783 7.82789 1.98741C7.70817 2.10713 7.5597 2.16699 7.38247 2.16699H2.42247C2.35831 2.16699 2.29956 2.19373 2.24622 2.2472C2.19275 2.30053 2.16602 2.35928 2.16602 2.42345V13.5772C2.16602 13.6414 2.19275 13.7001 2.24622 13.7535C2.29956 13.8069 2.35831 13.8337 2.42247 13.8337H7.38247C7.5597 13.8337 7.70817 13.8935 7.82789 14.0132C7.94747 14.1328 8.00727 14.2813 8.00727 14.4587C8.00727 14.636 7.94747 14.7845 7.82789 14.9041C7.70817 15.0238 7.5597 15.0837 7.38247 15.0837H2.42247ZM12.6804 8.62533H6.20456C6.0272 8.62533 5.87865 8.56546 5.75893 8.44574C5.63935 8.32616 5.57956 8.17769 5.57956 8.00033C5.57956 7.82296 5.63935 7.67449 5.75893 7.55491C5.87865 7.43519 6.0272 7.37533 6.20456 7.37533H12.6804L11.0779 5.77283C10.9625 5.65741 10.9034 5.51664 10.9008 5.35053C10.8982 5.18442 10.9572 5.03671 11.0779 4.90741C11.1986 4.7781 11.345 4.7113 11.5171 4.70699C11.689 4.70283 11.8396 4.76533 11.9689 4.89449L14.5475 7.47303C14.698 7.62373 14.7733 7.79949 14.7733 8.00033C14.7733 8.20116 14.698 8.37692 14.5475 8.52762L11.9689 11.1062C11.845 11.23 11.6979 11.2912 11.5275 11.2895C11.3571 11.288 11.2072 11.2225 11.0779 11.0932C10.9572 10.9639 10.899 10.8155 10.9033 10.6478C10.9075 10.48 10.97 10.3358 11.0908 10.2151L12.6804 8.62533Z" fill="#212121"/>
</svg>
