<svg width="15" height="16" viewBox="0 0 15 16" fill="none" xmlns="http://www.w3.org/2000/svg">
<g clip-path="url(#clip0_3010_16508)">
<path fill-rule="evenodd" clip-rule="evenodd" d="M11.1089 7.91801C12.437 8.75925 13.6314 9.1578 14.6681 9.06447C14.8472 12.7031 13.504 14.8523 11.1228 15.749C8.82232 14.909 7.46524 12.8482 7.56235 9.00898C8.83966 9.10412 10.1059 8.7146 11.1089 7.91801ZM7.93315 1.78085L10.5464 4.22764H7.93315V1.78085ZM2.68264 7.31388H7.96342C8.309 7.31388 8.3544 7.78684 8.1299 7.9445C8.02522 7.96341 7.9218 7.97981 7.81712 7.99368H2.68643C2.28031 7.99368 2.28031 7.32145 2.68643 7.31514L2.68264 7.31388ZM2.68264 9.42518H6.36418C6.37427 9.65725 6.39067 9.88301 6.41084 10.1037H2.68643C2.27779 10.1037 2.28283 9.42518 2.68643 9.42518H2.68264ZM2.68264 11.5365H6.61895C6.66687 11.7698 6.72111 11.9968 6.78165 12.215H2.68643C2.27779 12.215 2.28283 11.5365 2.68643 11.5365H2.68264ZM2.68264 5.20258H5.72095C6.12959 5.20258 6.12455 5.87986 5.72095 5.87986H2.68643C2.27779 5.87986 2.28157 5.20258 2.68643 5.20258H2.68264ZM2.68264 3.23884H4.35377C4.75611 3.23884 4.76115 3.91612 4.35377 3.91612H2.68643C2.27779 3.91612 2.28283 3.23884 2.68643 3.23884H2.68264ZM12.0006 4.57953C12.0009 4.48473 11.97 4.39247 11.9129 4.31686C11.8557 4.24124 11.7753 4.18643 11.6841 4.1608L7.83478 0.411154C7.79414 0.361032 7.74281 0.320633 7.68455 0.292918C7.62628 0.265203 7.56255 0.250873 7.49803 0.250977H0.781964C0.574574 0.250977 0.375679 0.333362 0.229032 0.480009C0.0823853 0.626656 0 0.825551 0 1.03294L0 14.4209C0.000333528 14.6282 0.0828259 14.8269 0.2294 14.9735C0.375975 15.1201 0.574677 15.2026 0.781964 15.2029H8.32413C8.08679 14.9297 7.87249 14.6374 7.68343 14.3289H0.872773V1.11997H7.0629V4.66529C7.06274 4.72287 7.07393 4.77991 7.09585 4.83316C7.11777 4.8864 7.14998 4.9348 7.19064 4.97557C7.2313 5.01634 7.2796 5.04869 7.33278 5.07077C7.38596 5.09284 7.44297 5.1042 7.50055 5.1042H11.1266V6.59876C11.4226 6.78542 11.7139 6.95569 12.0006 7.10956V4.57953ZM11.1367 9.16285C12.0435 9.73671 12.862 10.0091 13.5646 9.94481C13.6907 12.4269 12.77 13.8925 11.1468 14.5029C11.1365 14.4997 11.1264 14.4959 11.1165 14.4916V9.17924L11.1367 9.16285ZM11.1102 8.36701C12.2857 9.1124 13.3489 9.46554 14.2633 9.3823C14.4222 12.6035 13.2329 14.5054 11.1241 15.2987C9.08087 14.5559 7.88144 12.7372 7.97099 9.33185C9.10165 9.41608 10.2225 9.07112 11.1102 8.36575V8.36701Z" fill="black"/>
</g>
<defs>
<clipPath id="clip0_3010_16508">
<rect width="14.6833" height="15.498" fill="white" transform="translate(0 0.250977)"/>
</clipPath>
</defs>
</svg>
