<svg width="13" height="16" viewBox="0 0 13 16" fill="none" xmlns="http://www.w3.org/2000/svg">
<path d="M6.25 15.9004C4.44764 15.4089 2.95542 14.348 1.77333 12.7177C0.591111 11.0875 0 9.26482 0 7.24982V2.45503L6.25 0.115234L12.5 2.45503V7.24982C12.5 8.30746 12.3267 9.33336 11.98 10.3275C11.6333 11.3217 11.1197 12.2327 10.4392 13.0607L7.82042 10.4421C7.59181 10.6002 7.34319 10.7188 7.07458 10.7979C6.80583 10.877 6.53097 10.9165 6.25 10.9165C5.44792 10.9165 4.76132 10.6309 4.19021 10.0596C3.61896 9.4885 3.33333 8.8019 3.33333 7.99982C3.33333 7.19774 3.61896 6.51114 4.19021 5.94003C4.76132 5.36878 5.44792 5.08315 6.25 5.08315C7.05208 5.08315 7.73868 5.36878 8.30979 5.94003C8.88104 6.51114 9.16667 7.19774 9.16667 7.99982C9.16667 8.28107 9.12847 8.5528 9.05208 8.81503C8.97569 9.07711 8.86646 9.32676 8.72438 9.56399L10.2788 11.1184C10.5779 10.5329 10.8146 9.91836 10.9888 9.27461C11.1629 8.631 11.25 7.95607 11.25 7.24982V3.31232L6.25 1.44524L1.25 3.31232V7.24982C1.25 8.93038 1.72222 10.4582 2.66667 11.8332C3.61111 13.2082 4.80556 14.1248 6.25 14.5832C6.61111 14.472 6.95486 14.3297 7.28125 14.1561C7.60764 13.9825 7.93056 13.7776 8.25 13.5415L9.09604 14.4357C8.6591 14.7733 8.20937 15.0636 7.74687 15.3067C7.28424 15.5498 6.78528 15.7477 6.25 15.9004ZM6.25 9.66649C6.70833 9.66649 7.10069 9.50329 7.42708 9.1769C7.75347 8.85051 7.91667 8.45815 7.91667 7.99982C7.91667 7.54149 7.75347 7.14912 7.42708 6.82274C7.10069 6.49635 6.70833 6.33315 6.25 6.33315C5.79167 6.33315 5.39931 6.49635 5.07292 6.82274C4.74653 7.14912 4.58333 7.54149 4.58333 7.99982C4.58333 8.45815 4.74653 8.85051 5.07292 9.1769C5.39931 9.50329 5.79167 9.66649 6.25 9.66649Z" fill="#212121"/>
</svg>
