<svg width="100" height="100" viewBox="0 0 100 100" fill="none" xmlns="http://www.w3.org/2000/svg">
<path d="M19.1937 58.8676C17.1267 50.3206 32.0007 39.1416 44.9737 33.4836C56.2277 28.5756 80.0157 31.1716 81.3447 39.2446C82.6737 47.3166 70.4416 59.8076 58.8976 63.7386C47.3546 67.6696 21.3877 67.9416 19.1937 58.8676Z" stroke="black" stroke-width="2" stroke-miterlimit="10" stroke-linejoin="round"/>
<path d="M25.6458 46.4817C25.6458 46.4817 31.1137 51.9717 32.0007 56.8657C33.2657 63.8427 31.9307 65.8447 31.9307 65.8447" stroke="black" stroke-width="2" stroke-miterlimit="10" stroke-linejoin="round"/>
<path d="M36.9316 53.5273L64.9266 44.2383" stroke="black" stroke-width="2" stroke-miterlimit="10" stroke-linecap="round" stroke-linejoin="round"/>
<path d="M38.5674 49.2539C38.5674 49.2539 38.9864 51.5899 39.2294 52.5229C39.4864 53.5079 40.0243 53.9309 40.4933 54.7909" stroke="black" stroke-width="2" stroke-miterlimit="10" stroke-linecap="round" stroke-linejoin="round"/>
<path d="M44.0577 48.2686C43.7897 50.1126 45.7276 53.2675 45.7276 53.2675" stroke="black" stroke-width="2" stroke-miterlimit="10" stroke-linecap="round" stroke-linejoin="round"/>
<path d="M48.8383 46.7295C48.5073 47.8555 48.7493 48.8725 48.9473 49.9735C49.0013 50.2755 50.0073 52.1895 49.9363 52.1405" stroke="black" stroke-width="2" stroke-miterlimit="10" stroke-linecap="round" stroke-linejoin="round"/>
<path d="M53.5256 45.0637C53.5256 45.0637 53.2696 47.3897 53.5136 47.9337C53.6386 48.2117 54.6606 50.5847 54.6196 50.5557" stroke="black" stroke-width="2" stroke-miterlimit="10" stroke-linecap="round" stroke-linejoin="round"/>
<path d="M58.083 43.6729C58.182 45.5789 58.13 46.8379 59.282 48.1569C59.359 48.2449 59.334 48.2599 59.319 48.3649" stroke="black" stroke-width="2" stroke-miterlimit="10" stroke-linecap="round" stroke-linejoin="round"/>
<path d="M62.3576 42.5117C62.5386 43.5177 62.1486 44.5437 62.3256 45.5297C62.4656 46.3117 63.1656 46.8177 63.2966 47.5437" stroke="black" stroke-width="2" stroke-miterlimit="10" stroke-linecap="round" stroke-linejoin="round"/>
<path d="M69.1398 32.5303C69.1398 32.5303 68.8338 39.0403 69.7518 42.4043C70.6688 45.7683 75.6938 52.4093 75.6938 52.4093" stroke="black" stroke-width="2" stroke-miterlimit="10" stroke-linejoin="round"/>
<path d="M32.4306 66.3412C32.4306 66.3412 24.0806 68.0552 30.7646 69.1412C37.4486 70.2272 64.3367 69.6203 67.6587 66.6703C69.6047 64.9413 62.6236 62.6982 62.6236 62.6982C62.6236 62.6982 60.8837 64.4272 52.8017 65.9052C44.7197 67.3832 32.4306 66.3412 32.4306 66.3412Z" fill="black" stroke="black" stroke-width="2" stroke-miterlimit="10" stroke-linecap="round" stroke-linejoin="round"/>
</svg>
