<svg width="100" height="100" viewBox="0 0 100 100" fill="none" xmlns="http://www.w3.org/2000/svg">
<path d="M41.3552 44.6331C36.1992 44.4331 22.8575 45.5632 22.8575 45.5632C22.8575 45.5632 20.9616 45.6431 20.6122 45.6531C18.1846 45.7031 16.7126 49.2331 17.0472 51.8031C17.2981 53.7331 17.8727 55.7532 20.5234 56.5032C21.4069 56.7532 22.5212 56.8531 23.931 56.7731C29.5703 56.4231 39.8092 54.7632 41.4282 54.5732C46.1442 54.0132 45.7202 44.8031 41.3552 44.6331Z" stroke="black" stroke-width="2" stroke-miterlimit="10" stroke-linejoin="round"/>
<path d="M19.4951 45.9129C23.3853 44.9629 25.0643 48.3729 24.9912 50.8329C24.9614 51.8429 25.2019 56.9929 20.6125 56.5129" stroke="black" stroke-width="2" stroke-miterlimit="10" stroke-linejoin="round"/>
<path d="M34.3516 45.2627C34.3516 45.2627 35.0076 34.3028 41.7016 34.4328C48.3956 34.5628 50.0086 44.7829 50.3006 47.8729C50.5916 50.9629 50.5206 62.8628 44.0746 62.8228C37.1526 62.7828 35.6576 55.4428 35.6576 55.4428" stroke="black" stroke-width="2" stroke-miterlimit="10" stroke-linejoin="round"/>
<path d="M27.8154 45.3925C27.8154 45.3925 27.9606 35.6826 29.876 30.2126C31.2096 26.4026 32.5587 23.6925 35.0051 21.7925C42.5651 15.9125 50.0181 21.4026 53.6741 30.9826C57.3191 40.5326 58.8311 50.7726 57.4551 59.6126C55.9761 69.1226 51.9741 83.2426 40.2971 77.2126C31.5261 72.6826 28.8954 56.5225 28.8954 56.5225" stroke="black" stroke-width="2" stroke-miterlimit="10" stroke-linejoin="round"/>
<path d="M40.6982 19.3928C40.6982 19.3928 45.3592 19.0329 49.3202 19.0029C53.2822 18.9729 55.7132 19.1628 57.2872 20.1728C58.5712 21.0028 67.8572 26.7529 68.9922 45.8729C69.8112 59.6629 64.9102 69.8629 63.3852 72.7029C59.6422 79.6829 52.1212 77.9828 46.1932 78.6328" stroke="black" stroke-width="2" stroke-miterlimit="10" stroke-linejoin="round"/>
<path d="M42.8574 78.2526C42.8574 78.2526 60.4584 82.3225 68.5004 78.5725C72.5054 76.7025 61.8294 75.6025 61.8294 75.6025C61.8294 75.6025 60.5644 76.7425 58.2004 77.5325C56.4084 78.1325 53.7934 78.3725 51.7264 78.6625C46.9324 79.3125 42.8574 78.2526 42.8574 78.2526Z" fill="black" stroke="black" stroke-width="2" stroke-miterlimit="10" stroke-linejoin="round"/>
<path d="M68.5195 40.6932C68.5195 40.6932 78.2115 39.8033 79.9215 40.0933C82.5275 40.5333 83.4325 49.7232 79.1205 50.1332C74.8095 50.5332 69.1095 50.8032 69.1095 50.8032" stroke="black" stroke-width="2" stroke-miterlimit="10" stroke-linejoin="round"/>
<path d="M34.4215 44.2432C34.7285 44.0532 34.9275 42.4432 35.0855 41.9832C36.0805 39.0932 38.1775 34.6731 41.7515 34.7631C45.6625 34.8531 47.7865 39.0631 48.7395 42.1731C50.6585 48.4331 51.7925 60.1531 44.1075 63.1731C41.8825 64.0431 35.1235 58.4431 35.9745 56.2131C36.3235 55.2931 41.6905 54.3431 42.9175 53.7031C44.8415 52.7131 44.4285 49.0232 44.3765 47.3532C44.2885 44.5132 39.2985 44.3031 37.3005 44.9231C36.8635 45.0531 34.4495 45.4031 34.3885 44.6431C34.3775 44.5031 34.3585 44.2732 34.4215 44.2432Z" fill="black"/>
</svg>
