<svg width="100" height="100" viewBox="0 0 100 100" fill="none" xmlns="http://www.w3.org/2000/svg">
<path d="M30.9308 68.1648C21.4578 57.5548 20.8148 42.9448 27.1738 35.0748C33.5328 27.2048 49.1498 15.7349 65.5158 29.2349C81.8818 42.7349 76.7588 59.1248 69.6298 67.1548C59.4488 78.6248 40.4038 78.7748 30.9308 68.1648Z" stroke="black" stroke-width="2" stroke-miterlimit="10" stroke-linejoin="round"/>
<path d="M24.6865 40.3145C24.6865 40.3145 36.1105 43.6445 43.6595 51.3545C46.3035 54.0545 49.9855 58.4844 52.8275 63.8744C55.6695 69.2744 56.7285 74.9545 56.7285 74.9545" stroke="black" stroke-width="2" stroke-miterlimit="10" stroke-linejoin="round"/>
<path d="M48.6846 23.2549C48.6846 23.2549 50.5636 31.4649 61.1906 41.1849C66.7216 46.2449 76.1386 50.9249 76.1386 50.9249" stroke="black" stroke-width="2" stroke-miterlimit="10" stroke-linejoin="round"/>
<path d="M23.0879 50.2549C23.0879 50.2549 23.1809 67.3349 38.1849 74.6949C52.3629 81.6549 64.6349 73.015 66.1999 71.845C69.8679 69.105 78.1039 62.0249 77.1149 49.5149C76.0069 35.5149 63.2519 27.5049 63.2519 27.5049" stroke="black" stroke-width="2" stroke-miterlimit="10" stroke-linejoin="round"/>
<path d="M51.3135 68.775C52.0495 67.125 53.6395 67.9251 54.8685 67.7151C55.6395 67.5851 55.6545 66.155 57.8205 66.255" stroke="black" stroke-width="2" stroke-miterlimit="10" stroke-linecap="round" stroke-linejoin="round"/>
<path d="M47.0645 62.1844C48.6205 60.2644 50.1905 61.1744 51.1855 60.6444C51.9035 60.2644 52.0935 59.3145 53.5685 59.0645" stroke="black" stroke-width="2" stroke-miterlimit="10" stroke-linecap="round" stroke-linejoin="round"/>
<path d="M43.9834 57.2944C45.4374 54.4544 47.5764 54.5045 49.3324 53.5645" stroke="black" stroke-width="2" stroke-miterlimit="10" stroke-linecap="round" stroke-linejoin="round"/>
<path d="M39.9561 53.2249C39.9031 50.9749 41.9561 50.8348 42.1501 50.5548C42.6971 49.7848 43.1851 48.3348 44.0411 47.7148" stroke="black" stroke-width="2" stroke-miterlimit="10" stroke-linecap="round" stroke-linejoin="round"/>
<path d="M70.457 51.6646C70.731 50.7546 72.262 49.1646 72.262 49.1646C72.262 49.1646 71.174 47.6546 71.838 46.7246" stroke="black" stroke-width="2" stroke-miterlimit="10" stroke-linecap="round" stroke-linejoin="round"/>
<path d="M66.0518 48.4448C66.9538 47.4048 67.5687 46.7048 67.7737 46.4148C68.3247 45.6348 67.7877 44.6448 68.7697 43.9248" stroke="black" stroke-width="2" stroke-miterlimit="10" stroke-linecap="round" stroke-linejoin="round"/>
<path d="M34.0126 48.4343C33.8496 47.4743 35.2006 46.1243 35.8626 45.6443C35.9266 45.5943 35.1846 43.7543 36.6776 42.1543" stroke="black" stroke-width="2" stroke-miterlimit="10" stroke-linecap="round" stroke-linejoin="round"/>
<path d="M60.4473 44.9152C60.8313 43.1352 61.9603 42.9952 63.5323 42.7252C63.7553 42.6852 63.5652 42.2652 63.6472 42.0552C63.8262 41.5952 64.1303 41.1451 64.4153 40.7451" stroke="black" stroke-width="2" stroke-miterlimit="10" stroke-linecap="round" stroke-linejoin="round"/>
<path d="M27.7256 45.3147C27.7686 42.7947 28.9916 43.1947 29.1776 41.9847C29.3656 40.7647 28.9666 40.2647 29.8206 38.5947" stroke="black" stroke-width="2" stroke-miterlimit="10" stroke-linecap="round" stroke-linejoin="round"/>
<path d="M54.6465 38.9644C55.0595 38.3844 55.6825 38.0143 56.4055 37.8043C56.6035 37.7443 57.6955 37.6543 57.7325 37.5343C58.0085 36.6243 58.5685 36.0344 59.1325 35.2344" stroke="black" stroke-width="2" stroke-miterlimit="10" stroke-linecap="round" stroke-linejoin="round"/>
<path d="M50.9314 34.0846C50.6674 32.5346 53.8674 31.0146 54.8904 30.4746" stroke="black" stroke-width="2" stroke-miterlimit="10" stroke-linecap="round" stroke-linejoin="round"/>
<path d="M47.4502 28.3748C48.3842 26.3748 49.0362 27.1248 50.3452 26.8948C50.5812 26.8548 52.0392 26.6148 52.3772 26.4648" stroke="black" stroke-width="2" stroke-miterlimit="10" stroke-linecap="round" stroke-linejoin="round"/>
</svg>
