<svg width="100" height="100" viewBox="0 0 100 100" fill="none" xmlns="http://www.w3.org/2000/svg">
<path d="M23.7238 73.5724C24.7536 72.6898 35.326 61.7668 40.2912 56.4338C43.0908 53.4318 50.3615 43.4934 53.7319 39.2669C57.1024 35.0405 68.4618 23.2462 69.9063 21.8552C71.3507 20.4643 74.6124 18.9985 77.5562 21.0417C80.9601 23.4042 81.6893 25.9161 80.5123 28.484C79.3353 31.052 67.0761 42.7786 61.2446 47.4865C55.4132 52.1945 46.6723 58.136 43.8903 60.4899C41.1083 62.8439 27.2721 76.0871 26.5231 76.9431C25.7741 77.799 25.8875 80.4601 25.1519 80.8278C23.1405 81.8332 17.6896 75.9487 19.4962 74.5436C20.3237 73.9 22.4366 74.6758 23.7238 73.5724Z" stroke="black" stroke-width="2"/>
<path d="M71.3293 20.8231C74.6319 19.2794 77.2808 20.7215 78.5985 22.4386C80.2456 24.5849 80.2473 27.3322 78.8498 29.5283C77.4522 31.7244 62.8106 45.6481 61.6627 46.6276C58.0841 49.6814 50.5452 55.0254 44.2285 60.2113" stroke="black" stroke-width="2"/>
<path d="M38.6292 19.3191C34.0436 20.4856 31.77 25.4984 34.0435 29.8182C36.3171 34.1379 44.3012 34.8854 46.7751 28.1884C47.9347 25.0492 45.508 17.5693 38.6292 19.3191Z" stroke="black" stroke-width="2"/>
<path d="M39.7947 19.3992C39.6635 20.8096 39.9817 23.847 42.3039 24.7129C44.6262 25.5788 46.2564 25.5984 46.7812 25.5" stroke="black" stroke-width="2"/>
<path d="M40.6979 32.6311C40.8291 31.2206 39.554 28.0093 37.4031 26.7778C35.313 25.5811 33.9844 25.4827 33.4596 25.5811" stroke="black" stroke-width="2"/>
<path d="M33.5488 28.6119C35.3319 31.9023 40.3585 34.0314 44.325 30.6806C46.6725 28.6975 47.2586 24.9066 45.9309 22.282" stroke="black" stroke-width="2"/>
<path d="M23.7439 73.8969L39.9866 57.1892C39.9866 57.1892 40.4923 58.6277 41.3421 59.3776C42.1919 60.1274 43.3505 60.4644 43.3505 60.4644L26.3996 77.0836L25.3374 80.713H23.7439L18.9639 76.1099V74.428L23.7439 73.8969Z" fill="black"/>
<path d="M42.165 54.2986C42.4068 55.4113 44.4948 58.0652 46.1464 58.3484" stroke="black" stroke-width="2"/>
</svg>
