<svg width="100" height="100" viewBox="0 0 100 100" fill="none" xmlns="http://www.w3.org/2000/svg">
<path d="M60.3215 54.518C60.3215 54.047 59.7395 57.608 58.8625 59.634C56.8585 64.258 53.9965 68.347 52.2135 73.102C51.6375 74.638 52.4715 76.197 52.4715 77.83C52.4715 78.286 53.2065 81.287 53.2065 80.247" stroke="black" stroke-width="2" stroke-miterlimit="10" stroke-linecap="round" stroke-linejoin="round"/>
<path d="M76.1501 50.4122L75.7381 61.6032C75.7381 61.6032 71.7981 62.6462 71.5061 61.5702C71.2131 60.4942 70.3621 55.7902 67.8261 54.6812C65.2901 53.5722 62.0361 53.9632 62.0361 53.9632C62.0361 53.9632 62.6621 52.8312 62.6591 51.9702C62.6561 51.1102 62.1411 50.2842 62.1411 50.2842L76.1501 50.4122Z" stroke="black" stroke-width="2" stroke-miterlimit="10" stroke-linejoin="round"/>
<path d="M56.3505 50.043C56.3505 50.043 59.7056 50.146 61.7336 50.09C63.0656 50.053 63.3055 54.465 59.8115 54.251C56.3165 54.038 27.6616 53.866 24.8976 53.686C22.1336 53.506 22.1386 50.002 26.5876 49.946C31.0356 49.889 56.3505 50.043 56.3505 50.043Z" fill="black" stroke="black" stroke-width="2" stroke-miterlimit="10" stroke-linejoin="round"/>
<path d="M27.0547 53.7881C27.0547 54.4861 33.1897 58.6981 35.3647 68.5171C35.8707 70.8041 35.9377 73.1751 35.9377 75.5091C35.9377 76.2921 35.7657 79.2561 35.7657 78.8901" stroke="black" stroke-width="2" stroke-miterlimit="10" stroke-linecap="round" stroke-linejoin="round"/>
<path d="M32.3447 53.7285C33.3927 54.1545 35.2137 56.5495 36.0137 57.5245C38.5327 60.5965 40.9437 61.9935 43.9097 66.3785C44.9907 67.9775 48.1727 73.3355 48.1727 73.3355" stroke="black" stroke-width="2" stroke-miterlimit="10" stroke-linecap="round" stroke-linejoin="round"/>
<path d="M41.6406 53.9365C45.4836 56.8705 46.6616 59.6525 49.5516 63.7565C52.4416 67.8595 53.2006 70.5125 53.2006 70.3505" stroke="black" stroke-width="2" stroke-miterlimit="10" stroke-linecap="round" stroke-linejoin="round"/>
<path d="M50.6797 54.543C51.6497 57.043 55.9187 61.352 55.9187 64.422" stroke="black" stroke-width="2" stroke-miterlimit="10" stroke-linecap="round" stroke-linejoin="round"/>
<path d="M35.1104 66.9445C37.6404 63.8135 40.4654 57.1155 40.4654 54.1895" stroke="black" stroke-width="2" stroke-miterlimit="10" stroke-linecap="round" stroke-linejoin="round"/>
<path d="M36.127 75.0769C36.831 74.0209 39.468 69.7589 40.768 67.9869C42.955 65.0099 48.689 55.7439 48.689 54.0029" stroke="black" stroke-width="2" stroke-miterlimit="10" stroke-linecap="round" stroke-linejoin="round"/>
<path d="M40.2998 76.6283C41.0358 76.6283 42.6398 73.7933 43.3308 73.1023C48.7008 67.7323 51.6618 60.9673 54.9648 54.3613" stroke="black" stroke-width="2" stroke-miterlimit="10" stroke-linecap="round" stroke-linejoin="round"/>
<path d="M43.5068 81.9858C44.4518 79.1528 50.8629 75.7228 52.1779 73.0928" stroke="black" stroke-width="2" stroke-miterlimit="10" stroke-linecap="round" stroke-linejoin="round"/>
<path d="M35.3008 66.1504C39.3048 66.1504 42.3838 74.9914 44.5408 77.3114C46.3578 79.2664 48.0548 80.5364 48.0018 80.4414" stroke="black" stroke-width="2" stroke-miterlimit="10" stroke-linecap="round" stroke-linejoin="round"/>
<path d="M28.3353 40.181C22.0043 34.883 24.7653 19.1516 37.0723 18.0847C49.3803 17.0177 53.1563 26.263 52.8933 32.51C52.6303 38.757 42.7483 52.242 28.3353 40.181Z" stroke="black" stroke-width="2" stroke-miterlimit="10" stroke-linejoin="round"/>
<path d="M27.6406 23.8018C28.6746 24.4888 33.0476 33.4338 33.2466 36.1328C33.4186 38.4628 32.3676 40.3488 32.0906 42.5778" stroke="black" stroke-width="2" stroke-miterlimit="10" stroke-linecap="round" stroke-linejoin="round"/>
<path d="M47.2129 20.4551C44.9339 23.8791 44.1399 26.8701 42.2439 30.4901C41.5519 31.8131 40.0229 34.9341 40.2159 36.5111C40.4759 38.6421 46.5979 42.5751 46.6009 42.5531" stroke="black" stroke-width="2" stroke-miterlimit="10" stroke-linecap="round" stroke-linejoin="round"/>
<path d="M36.1372 18.5471C35.3672 24.7441 36.1012 31.2971 37.3012 37.2741C37.6872 39.1971 40.0462 44.7431 40.0262 44.6851" stroke="black" stroke-width="2" stroke-miterlimit="10" stroke-linecap="round" stroke-linejoin="round"/>
<path d="M26.0771 36.8105C26.5151 37.6545 31.9762 37.5015 33.1302 37.4845C38.0822 37.4105 41.6242 35.9455 46.1452 34.3635C47.7562 33.7995 52.9391 30.7485 52.7191 30.8625" stroke="black" stroke-width="2" stroke-miterlimit="10" stroke-linecap="round" stroke-linejoin="round"/>
<path d="M38.1782 18.0098C31.5382 18.7803 26.9463 22.447 26.0513 29.205C25.1553 35.964 27.4903 38.594 29.8923 40.549C32.2943 42.503 36.1472 44.71 39.7482 45.035" stroke="black" stroke-width="2" stroke-miterlimit="10" stroke-linejoin="round"/>
</svg>
