<svg width="100" height="100" viewBox="0 0 100 100" fill="none" xmlns="http://www.w3.org/2000/svg">
<path d="M62.5 32.0195C62.5 32.0195 66.632 45.4855 68 49.0195C69.369 52.5535 71.1393 57.9924 71.1393 57.9924" stroke="black" stroke-width="2" stroke-miterlimit="10" stroke-linecap="round" stroke-linejoin="round"/>
<path d="M64.0001 38.5195C64.0001 38.5195 60.5034 40.0809 54.3414 42.0899C50.2054 43.4389 44.5204 45.3829 44.5204 45.3829" stroke="black" stroke-width="2" stroke-miterlimit="10" stroke-linecap="round" stroke-linejoin="round"/>
<path d="M50.3164 57.0275L63.9754 38.6455" stroke="black" stroke-width="2" stroke-miterlimit="10" stroke-linecap="round" stroke-linejoin="round"/>
<path d="M50.8875 58.1455C49.4445 54.2715 42.3765 56.4224 45.3215 61.3314C47.1645 64.4024 52.0425 61.2475 50.8875 58.1455Z" stroke="black" stroke-width="2" stroke-miterlimit="10" stroke-linecap="round" stroke-linejoin="round"/>
<path d="M47.5384 59.501C47.5384 59.501 50.5 62.0195 51.5 63.0195" stroke="black" stroke-width="2" stroke-miterlimit="10" stroke-linecap="round" stroke-linejoin="round"/>
<path d="M44.6724 59.4827L30.4514 58.3867" stroke="black" stroke-width="2" stroke-miterlimit="10" stroke-linecap="round" stroke-linejoin="round"/>
<path d="M58.9045 61.5085C57.1875 54.8525 61.5 46.3927 71.4515 46.3936C79.5001 46.3936 86 57.0186 80.3475 65.2935C74.7175 72.5815 61.3579 71.0194 58.9045 61.5085Z" stroke="black" stroke-width="2" stroke-miterlimit="10" stroke-linecap="round" stroke-linejoin="round"/>
<path d="M70.0734 56.9223C68.3454 58.5553 71.1904 60.8643 72.2474 58.7153C73.1292 56.9219 70.8704 56.1683 70.0734 56.9223Z" fill="black" stroke="black" stroke-width="2" stroke-miterlimit="10" stroke-linecap="round" stroke-linejoin="round"/>
<path d="M46.8763 56.2545L42.7073 37.6475" stroke="black" stroke-width="2" stroke-miterlimit="10" stroke-linecap="round" stroke-linejoin="round"/>
<path d="M44.3093 45.5273L30.4033 57.6854" stroke="black" stroke-width="2" stroke-miterlimit="10" stroke-linecap="round" stroke-linejoin="round"/>
<path d="M19.5 61.5195C17.783 54.8635 21.5961 46.0094 30.5462 46.0088C39.4962 46.0088 45.9802 56.9538 39.4962 65.3458C33.8662 72.6338 21.693 70.0185 19.5 61.5195Z" stroke="black" stroke-width="2" stroke-miterlimit="10" stroke-linecap="round" stroke-linejoin="round"/>
<path d="M29.0223 56.9428C27.2943 58.5758 30.7343 61.5758 31.6763 58.7558C32.6193 55.9358 29.8203 56.1888 29.0223 56.9428Z" fill="black" stroke="black" stroke-width="2" stroke-miterlimit="10" stroke-linecap="round" stroke-linejoin="round"/>
<path d="M40.5 38.0195C40.5 38.0195 40.9523 37.5871 43.6403 37.2101C45.6823 36.9251 48.6191 37.0923 47 35.8973C45.381 34.7024 40.738 33.9042 38.5 35.8971C36.262 37.89 37.118 39.2615 40.5 38.0195Z" fill="black" stroke="black" stroke-width="2" stroke-miterlimit="10" stroke-linecap="round" stroke-linejoin="round"/>
<path d="M56.998 29.9494C58.408 29.3394 59.5 30.0194 59.5 30.0194L62.5 32.0195L68 35.0195C68 35.0195 70.5 36.5195 67 37.0195" stroke="black" stroke-width="2" stroke-miterlimit="10" stroke-linecap="round" stroke-linejoin="round"/>
</svg>
