<svg width="45" height="44" viewBox="0 0 45 44" fill="none" xmlns="http://www.w3.org/2000/svg">
<path d="M24.6904 27.5396C24.379 28.2703 24.0619 28.9358 23.529 29.4563C23.2975 29.6822 23.0539 29.9506 22.7653 30.0539C21.0745 30.6568 20.0831 31.9601 19.2897 33.4548C19.0397 33.9258 18.7982 33.9721 18.4055 33.6726C16.3667 32.1165 14.3741 30.5061 12.7186 28.5283C12.2581 27.9785 11.6158 27.3226 12.156 26.5811C12.6961 25.8396 13.5405 26.1945 14.2696 26.4163C15.0332 26.649 15.6577 27.1542 16.3486 27.5698C16.9724 26.8504 17.3232 26.0229 17.6106 25.1757C18.4903 22.5806 19.8106 20.2017 21.1425 17.8245C21.5098 17.1686 21.9491 16.573 22.5576 16.1574C23.0857 15.7957 23.1906 15.3572 23.1705 14.7753C23.1419 13.9313 23.1556 13.0845 23.2014 12.2413C23.2557 11.2442 23.7609 10.7635 24.7688 10.7398C27.085 10.6856 29.4011 10.6397 31.7177 10.6164C32.9041 10.6048 33.3655 11.0653 33.3462 12.2489C33.276 16.8547 33.1945 21.4604 33.1018 26.0659C33.0789 27.1984 32.5629 27.6891 31.4259 27.7281C29.8987 27.7804 28.3747 27.827 26.8495 27.8768C26.1208 27.9026 25.3849 27.9938 24.6904 27.5396ZM31.1345 18.3486C30.8021 17.9563 30.3914 17.9358 29.9807 17.9407C29.0161 17.9523 28.0917 18.1726 27.183 18.4756C25.7294 18.9611 24.3758 19.6528 23.0812 20.4714C22.8871 20.594 22.6391 20.8002 22.4462 20.4915C22.2497 20.1764 22.5539 20.0418 22.7521 19.9437C23.293 19.6761 23.6009 19.2139 23.9112 18.7276C24.6712 17.5376 25.5762 16.5095 26.9881 16.0505C27.3169 15.9432 27.6191 15.729 27.9048 15.5236C28.1609 15.3392 28.529 15.1314 28.3783 14.7568C28.2352 14.4011 27.8208 14.4188 27.5102 14.4879C25.3029 14.977 23.246 15.8468 21.964 17.7763C20.7928 19.5366 19.7133 21.3934 19.0024 23.4029C18.1395 25.8396 17.0564 28.1312 15.2876 30.0523C15.2619 30.0801 15.2804 30.1488 15.2759 30.2452C16.3611 31.2146 17.4663 32.1989 18.7234 33.0642C19.2162 32.2809 19.6832 31.5828 20.2426 30.961C20.116 30.7323 19.7201 30.8139 19.7656 30.3698C20.0131 30.0849 20.4399 30.0949 20.8214 30.0366C22.531 29.7746 23.6612 28.8482 24.0944 27.1602C24.2528 26.5441 24.633 26.2933 25.2033 26.1254C26.6537 25.6981 28.1408 25.5687 29.6362 25.461C30.0168 25.4341 30.4746 25.3477 30.4766 24.865C30.479 24.3904 30.0421 24.3047 29.6503 24.2453C28.8348 24.1223 28.0194 24.1705 27.2031 24.2264C26.5508 24.271 25.8986 24.3188 25.2455 24.3582C25.0582 24.3695 24.8335 24.3928 24.774 24.152C24.7013 23.8562 24.9428 23.7903 25.153 23.728C25.2832 23.6878 25.4195 23.6714 25.5517 23.6404C27.3525 23.2144 29.1533 22.788 30.9541 22.3612C31.4436 22.245 31.8808 22.0264 31.7784 21.4428C31.6739 20.8464 31.1843 20.9203 30.7362 20.9979C28.7484 21.3359 26.763 21.6771 24.7777 22.0047C24.5321 22.0449 24.1748 22.2056 24.0711 21.8379C23.9674 21.4701 24.3332 21.4263 24.5767 21.3299C26.4254 20.5984 28.2698 19.8637 30.1209 19.1427C30.5272 18.9844 30.95 18.869 31.1345 18.3486ZM23.8388 15.086C24.1861 15.1611 24.3729 14.9152 24.6109 14.8095C25.653 14.3461 26.6734 13.7979 27.859 13.836C28.3698 13.8525 28.8397 14.037 29.029 14.5663C29.2114 15.0739 28.9341 15.4674 28.5828 15.7941C28.0785 16.2643 27.4704 16.5666 26.8314 16.8141C25.9367 17.1622 25.3154 17.8141 24.7041 18.7585C25.1554 18.5749 25.4464 18.4575 25.737 18.3385C27.0773 17.7895 28.4458 17.345 29.9091 17.3028C30.9669 17.2719 31.7325 17.6625 31.7434 18.2835C31.7599 19.1962 31.0469 19.4803 30.3327 19.7367C29.5804 20.0076 28.8352 20.2994 28.0873 20.5807C28.8385 20.629 29.5317 20.5004 30.2294 20.4091C31.0827 20.2958 31.9829 20.0631 32.5797 21.1836C32.7289 18.089 32.7268 15.0988 32.7301 12.1103C32.7301 11.4781 32.3812 11.2358 31.7985 11.2466C29.4307 11.29 27.0631 11.335 24.6957 11.3816C24.1732 11.3913 23.8601 11.6602 23.8465 12.173C23.8199 13.144 23.8388 14.1158 23.8388 15.086ZM29.4397 23.4567C29.6439 23.7111 29.9168 23.6038 30.1366 23.6766C30.7033 23.8643 31.0939 24.2296 31.1381 24.8336C31.1823 25.4377 30.7632 25.7484 30.254 25.9686C29.8392 26.1479 29.4015 26.1221 28.9679 26.1499C27.6818 26.2335 26.4025 26.3568 25.1566 26.8813C25.3492 27.2326 25.612 27.2663 25.8869 27.2579C27.7892 27.2016 29.6916 27.1431 31.5939 27.0823C32.0601 27.0666 32.4234 26.8267 32.4379 26.3617C32.4757 24.9679 32.4515 23.5725 32.4515 21.9918C31.6928 23.2043 30.424 22.9877 29.4397 23.4567Z" fill="#212121"/>
<path d="M18.8265 33.8815C18.7035 33.8815 18.5632 33.8188 18.3928 33.689C16.5441 32.2767 14.4241 30.598 12.7027 28.5447C12.6714 28.5073 12.6392 28.4695 12.6063 28.431C12.1698 27.9169 11.6264 27.2771 12.1405 26.573C12.6432 25.8841 13.4036 26.1249 14.0744 26.3375C14.1423 26.3592 14.2098 26.3805 14.2754 26.4006C14.838 26.5718 15.3336 26.8957 15.8134 27.2092C15.9858 27.3221 16.1639 27.4383 16.3443 27.5472C16.9874 26.8013 17.335 25.9287 17.5902 25.1728C18.4901 22.5202 19.8891 20.0216 21.1237 17.818C21.559 17.0407 22.0107 16.5086 22.5453 16.1441C23.073 15.7824 23.1686 15.3379 23.1481 14.7776C23.1208 13.9762 23.1312 13.123 23.1791 12.242C23.2333 11.2425 23.7522 10.7449 24.765 10.7212C27.4778 10.6573 29.6858 10.6183 31.7142 10.5978C32.3275 10.5922 32.735 10.7108 32.9955 10.9728C33.2559 11.2349 33.372 11.64 33.3628 12.2509C33.2985 16.6818 33.2181 21.2012 33.1217 26.0686C33.0988 27.2072 32.592 27.7104 31.4265 27.7505C30.445 27.7843 29.4467 27.8161 28.4817 27.847L26.8496 27.8993L26.6085 27.9089C25.9731 27.9358 25.3164 27.964 24.6986 27.5697C24.3996 28.2698 24.0845 28.941 23.542 29.4707L23.454 29.5579C23.2442 29.7661 23.0275 29.9815 22.7707 30.0731C20.9622 30.7162 20.0048 32.1481 19.3059 33.4648C19.1749 33.7115 19.0455 33.8417 18.8992 33.8739C18.8753 33.879 18.8509 33.8816 18.8265 33.8815ZM13.0391 26.1534C12.7148 26.1534 12.4162 26.2635 12.1738 26.5955C11.6783 27.2739 12.1883 27.8743 12.638 28.404L12.7345 28.5182C14.453 30.5679 16.5694 32.2466 18.4181 33.6573C18.6135 33.8064 18.7642 33.863 18.8924 33.8349C19.0206 33.8068 19.1468 33.6822 19.2722 33.4463C19.9747 32.1228 20.9381 30.6828 22.7587 30.0354C23.0078 29.9469 23.2217 29.7347 23.4282 29.5298L23.5163 29.4425C24.0592 28.9124 24.3735 28.2368 24.6733 27.5323L24.6826 27.5102L24.7027 27.5235C25.3156 27.9254 25.9731 27.896 26.6089 27.8691L26.85 27.8595L28.4821 27.8072C29.4467 27.7763 30.445 27.7445 31.4265 27.7108C32.5654 27.6706 33.061 27.1803 33.0831 26.0682C33.1779 21.2004 33.2583 16.681 33.3258 12.2513C33.3347 11.652 33.2217 11.255 32.9702 11.0018C32.7186 10.7486 32.3199 10.6332 31.7178 10.64C29.6894 10.6605 27.4818 10.6995 24.769 10.7634C23.7674 10.7867 23.2759 11.2582 23.2225 12.246C23.1746 13.1258 23.1642 13.9778 23.1915 14.778C23.2112 15.3495 23.1111 15.8065 22.5698 16.177C22.0409 16.5387 21.5932 17.066 21.1607 17.8377C19.9273 20.0393 18.5291 22.5347 17.6304 25.1852C17.3716 25.9488 17.0183 26.833 16.3648 27.5858L16.3536 27.5986L16.3391 27.5898C16.1534 27.4785 15.9702 27.3583 15.7925 27.2425C15.2934 26.9162 14.8215 26.6079 14.2653 26.4387C14.1986 26.4186 14.1307 26.3986 14.0644 26.3752C13.7163 26.2651 13.3643 26.1534 13.0383 26.1534H13.0391ZM18.728 33.0914L18.7107 33.0797C17.4246 32.1956 16.2756 31.1663 15.2608 30.2588L15.254 30.2524V30.2431C15.254 30.209 15.254 30.1788 15.254 30.1519C15.2516 30.0993 15.25 30.0615 15.2721 30.0374C16.7993 28.3791 17.9431 26.3306 18.9828 23.3952C19.5985 21.6561 20.5128 19.9195 21.9464 17.7641C23.0452 16.1119 24.812 15.0646 27.5063 14.4685C27.9733 14.3649 28.2816 14.4621 28.3973 14.7499C28.54 15.104 28.2366 15.317 27.991 15.4878L27.9171 15.54C27.6442 15.7365 27.3347 15.9592 26.9927 16.0697C25.4691 16.5669 24.5544 17.7577 23.9274 18.7395C23.6461 19.1816 23.3245 19.6832 22.7619 19.9629L22.7406 19.9734C22.6104 20.0373 22.4488 20.1173 22.4114 20.2471C22.3917 20.3166 22.409 20.3934 22.4641 20.4822C22.5191 20.571 22.5754 20.6144 22.6429 20.6293C22.7635 20.6562 22.8989 20.5682 23.0171 20.4906L23.0717 20.4553C24.4832 19.5622 25.8264 18.9087 27.178 18.4574C28.2422 18.1021 29.1332 17.9317 29.9812 17.9217C30.4084 17.9164 30.8184 17.9446 31.1512 18.3368L31.1584 18.3457L31.1544 18.3565C30.9836 18.8388 30.605 18.9815 30.2388 19.1201L30.1271 19.1627C28.6244 19.7479 27.1 20.352 25.6258 20.9363L24.5833 21.3495C24.5431 21.3648 24.5029 21.3788 24.4627 21.3933C24.2401 21.4688 24.0094 21.5472 24.091 21.8354C24.1726 22.1235 24.4125 22.0681 24.6436 22.0154C24.6898 22.005 24.7332 21.9949 24.7746 21.9881C26.473 21.7088 28.1976 21.4138 29.8655 21.1284L30.7332 20.9801C31.1592 20.907 31.6893 20.8166 31.799 21.4415C31.9107 22.0801 31.3734 22.2855 30.9594 22.3828L29.0179 22.8421L25.5547 23.6588C25.5028 23.6713 25.4494 23.6817 25.3979 23.6914C25.3167 23.7056 25.2362 23.724 25.1568 23.7464L25.1427 23.7504C24.937 23.8123 24.7248 23.8758 24.7915 24.1463C24.8445 24.3617 25.0358 24.3501 25.2207 24.3384H25.242C25.7275 24.3091 26.221 24.2745 26.6985 24.2416L27.1997 24.2066C28.0746 24.1467 28.8627 24.1069 29.6513 24.2259C29.9881 24.2765 30.4952 24.3537 30.4952 24.8653C30.4952 25.3568 30.0351 25.4529 29.6364 25.4814C28.1196 25.5903 26.6398 25.7226 25.2074 26.145C24.6669 26.3057 24.2734 26.5388 24.1127 27.1654C23.6891 28.8132 22.5822 29.7874 20.8227 30.0567C20.7504 30.0679 20.6748 30.0767 20.6021 30.0852C20.2958 30.121 19.9795 30.1575 19.7838 30.3786C19.7593 30.6378 19.8919 30.7037 20.0326 30.7736C20.119 30.8162 20.2082 30.8609 20.2588 30.9517L20.2657 30.9641L20.256 30.9746C19.7151 31.5774 19.2585 32.2494 18.7393 33.0753L18.728 33.0914ZM15.2934 30.2355C16.3005 31.1366 17.4415 32.1566 18.7147 33.0351C19.2276 32.2205 19.6793 31.5541 20.2146 30.9577C20.1692 30.8858 20.0941 30.848 20.0137 30.8082C19.8726 30.7383 19.7131 30.6591 19.7432 30.3661V30.3597L19.7476 30.3549C19.953 30.1181 20.2797 30.08 20.596 30.043C20.6684 30.0345 20.7431 30.0261 20.8151 30.0149C22.5573 29.748 23.6529 28.7854 24.0705 27.1537C24.2361 26.5083 24.6392 26.2695 25.193 26.1044C26.629 25.6816 28.1116 25.5485 29.6304 25.4396C30.0355 25.4103 30.4498 25.3191 30.4518 24.8629C30.4543 24.4228 30.0704 24.328 29.6424 24.2637C28.8583 24.1431 28.0722 24.1833 27.1997 24.2448L26.6989 24.2793C26.2214 24.3127 25.7279 24.3473 25.242 24.3766H25.2211C25.0387 24.3878 24.8112 24.4019 24.7497 24.1539C24.6741 23.8465 24.9261 23.7709 25.1287 23.7119L25.1427 23.7074C25.2232 23.6847 25.3048 23.6661 25.3871 23.6516C25.4381 23.6419 25.4912 23.6315 25.5422 23.6194L29.0034 22.7999L30.945 22.3402C31.3766 22.2381 31.8589 22.044 31.754 21.4451C31.6515 20.8596 31.1644 20.9428 30.7348 21.0163L29.8671 21.1646C28.1992 21.45 26.4742 21.7454 24.7762 22.0247C24.736 22.0311 24.693 22.0408 24.6472 22.0512C24.4209 22.1026 24.1392 22.1669 24.0472 21.843C23.9551 21.5191 24.2152 21.4319 24.4446 21.3539C24.4868 21.3394 24.527 21.3258 24.5652 21.3109L25.6077 20.8977C27.0819 20.3134 28.6067 19.7093 30.109 19.1238L30.2208 19.0812C30.5921 18.9409 30.9442 18.8079 31.109 18.3529C30.7874 17.982 30.3912 17.9554 29.9784 17.9607C29.1344 17.9707 28.2474 18.1403 27.1868 18.4944C25.8384 18.9449 24.4985 19.5968 23.0874 20.4882L23.0336 20.5232C22.9086 20.6036 22.7663 20.6976 22.6285 20.6675C22.5481 20.6502 22.483 20.5959 22.4247 20.5019C22.3664 20.4078 22.3443 20.3146 22.3672 20.2346C22.4094 20.0875 22.5798 20.0035 22.7173 19.9364L22.7386 19.9255C23.2936 19.6511 23.6103 19.1547 23.8896 18.7166C24.5198 17.7292 25.4405 16.5311 26.9762 16.0303C27.3102 15.9214 27.6168 15.7012 27.8877 15.5079C27.9114 15.4906 27.9368 15.4733 27.9621 15.4552C28.2068 15.284 28.4845 15.0899 28.3539 14.7652C28.2185 14.428 27.8198 14.4392 27.5099 14.5079C24.8264 15.1027 23.0673 16.1453 21.9746 17.7878C20.543 19.9404 19.6303 21.6742 19.0154 23.41C17.9736 26.3511 16.827 28.404 15.2966 30.0659C15.2857 30.078 15.2873 30.1121 15.289 30.1519C15.2934 30.1756 15.2958 30.2037 15.2934 30.2355ZM25.8232 27.2795C25.5852 27.2795 25.3272 27.2313 25.1399 26.8913L25.1295 26.8716L25.15 26.8632C26.4075 26.3334 27.7254 26.2109 28.968 26.1305C29.0581 26.1245 29.1497 26.1208 29.2381 26.1176C29.5737 26.1044 29.9213 26.0911 30.2457 25.9504C30.7018 25.7527 31.1624 25.4657 31.1166 24.8356C31.0764 24.283 30.744 23.8995 30.1287 23.6962C30.0545 23.6754 29.9779 23.6645 29.9008 23.664C29.7353 23.6552 29.5644 23.6463 29.4226 23.4699L29.4069 23.4498L29.4298 23.439C29.7541 23.2846 30.113 23.2026 30.4639 23.1239C31.1841 22.9603 31.9288 22.7915 32.4356 21.9817L32.4726 21.9222V21.9921C32.4726 22.4476 32.4739 22.8886 32.4766 23.3152C32.4814 24.3718 32.4859 25.3697 32.4589 26.3628C32.4473 26.8021 32.1169 27.0862 31.5973 27.1027C29.6211 27.1674 27.686 27.2233 25.8903 27.2783C25.8674 27.2791 25.8457 27.2795 25.8232 27.2795ZM25.1869 26.8913C25.3787 27.2245 25.6379 27.2454 25.8883 27.2381C27.6848 27.1851 29.6199 27.1272 31.5952 27.0625C32.0916 27.046 32.4071 26.7775 32.4179 26.3616C32.4449 25.3693 32.4404 24.3718 32.4356 23.3156C32.4337 22.9102 32.4324 22.4918 32.4316 22.0604C31.9184 22.8349 31.1837 23.0037 30.4727 23.1645C30.1343 23.2412 29.7847 23.3204 29.4704 23.4659C29.5978 23.6094 29.7517 23.6178 29.9033 23.6266C29.9838 23.6272 30.064 23.6385 30.1416 23.6604C30.7645 23.8666 31.1158 24.2729 31.1568 24.8352C31.2046 25.4943 30.7034 25.7997 30.2613 25.9898C29.9294 26.1333 29.5781 26.147 29.2397 26.1602C29.1513 26.1634 29.0601 26.1671 28.9708 26.1727C27.739 26.2503 26.4328 26.3716 25.1869 26.8913ZM32.5968 21.2583L32.5626 21.1939C32.0197 20.1747 31.2147 20.2901 30.4358 20.4018C30.3678 20.4114 30.2999 20.4211 30.2324 20.4299C30.1203 20.4448 30.0085 20.4609 29.8964 20.4766C29.3177 20.5569 28.7193 20.6425 28.0879 20.6019L27.995 20.5959L28.0822 20.563C28.3103 20.477 28.538 20.3905 28.7655 20.3037C29.2747 20.11 29.802 19.9091 30.3265 19.719C30.9892 19.481 31.7403 19.211 31.7239 18.285C31.7218 18.1854 31.6994 18.0873 31.6579 17.9967C31.6164 17.9062 31.5568 17.8251 31.4827 17.7585C31.1725 17.4623 30.5985 17.304 29.9117 17.324C28.3551 17.3691 26.9324 17.8722 25.7452 18.3581L25.1267 18.6097L24.6532 18.8022L24.6878 18.7484C25.3674 17.6986 26.0064 17.1151 26.8247 16.7964C27.3472 16.593 28.0183 16.2936 28.5697 15.7799C28.8748 15.4962 29.2007 15.1027 29.0118 14.5742C28.8483 14.1177 28.4604 13.8765 27.8604 13.8573C26.8275 13.8243 25.9043 14.2451 25.0113 14.6522C24.8811 14.7113 24.7513 14.7708 24.6207 14.8287C24.5525 14.8616 24.487 14.8999 24.4249 14.9432C24.261 15.0505 24.0914 15.1618 23.8362 15.1068L23.8205 15.1031V15.0863C23.8205 14.8013 23.8205 14.5164 23.8173 14.231C23.8133 13.5566 23.8092 12.8589 23.8281 12.1733C23.8418 11.6605 24.1496 11.3723 24.697 11.3623L27.657 11.3056C29.038 11.2788 30.4189 11.2527 31.7998 11.2272C32.1302 11.2212 32.3689 11.2939 32.5281 11.4507C32.6768 11.597 32.7523 11.8192 32.7519 12.111V12.3811C32.7491 15.2346 32.7463 18.1821 32.602 21.1851L32.5968 21.2583ZM31.1793 20.2897C31.6973 20.2897 32.1872 20.4504 32.5638 21.1124C32.7049 18.1347 32.7077 15.2105 32.7101 12.3815V12.1122C32.7101 11.8309 32.639 11.6187 32.4983 11.4804C32.3472 11.3321 32.1197 11.2626 31.799 11.2686C30.4181 11.2938 29.0372 11.3199 27.6562 11.347L24.6978 11.4029C24.1754 11.4125 23.8816 11.6866 23.8683 12.1749C23.8494 12.8581 23.8534 13.557 23.8575 14.2314C23.8575 14.5128 23.8607 14.7905 23.8607 15.0702C24.0906 15.114 24.2493 15.0099 24.4028 14.9094C24.4667 14.8652 24.5339 14.826 24.6038 14.7921C24.7344 14.7342 24.8642 14.6747 24.9944 14.6156C25.8915 14.2065 26.8195 13.7837 27.8612 13.8171C28.4709 13.8368 28.8816 14.0936 29.0496 14.5606C29.2469 15.1116 28.9122 15.5179 28.5983 15.8101C28.0412 16.3281 27.3661 16.6296 26.84 16.8341C26.0442 17.144 25.4188 17.7087 24.7573 18.717L25.1126 18.5728L25.7307 18.3216C26.9212 17.8341 28.3487 17.3293 29.9105 17.2843C30.609 17.2642 31.1921 17.4265 31.51 17.73C31.5883 17.8 31.6513 17.8854 31.6952 17.9808C31.7391 18.0762 31.7629 18.1796 31.7653 18.2846C31.7821 19.2391 30.9832 19.5265 30.3413 19.7576C29.8189 19.9452 29.2899 20.147 28.7791 20.3415C28.5811 20.4171 28.3831 20.4924 28.1851 20.5674C28.7791 20.5943 29.3442 20.5143 29.892 20.4372C30.0041 20.4215 30.1163 20.4054 30.2284 20.3905C30.2959 20.3817 30.3634 20.3721 30.4293 20.3624C30.6773 20.3204 30.9279 20.2961 31.1793 20.2897Z" fill="#212121"/>
<path d="M32.0159 13.0686C31.9632 13.7088 31.6722 14.0999 31.0489 14.0689C30.483 14.0408 30.1615 13.6718 30.1732 13.1044C30.1856 12.4931 30.5517 12.1679 31.1566 12.1631C31.7767 12.1591 31.9857 12.5614 32.0159 13.0686Z" fill="#212121"/>
<path d="M31.1176 14.0907C31.0947 14.0907 31.071 14.0907 31.0473 14.0907C30.475 14.0622 30.1406 13.6944 30.1527 13.1065C30.1651 12.5008 30.5308 12.1507 31.1574 12.1455H31.1683C31.708 12.1455 31.9998 12.4562 32.0364 13.0699V13.0727C31.9797 13.7479 31.671 14.0907 31.1176 14.0907ZM31.1683 12.1841H31.157C30.5477 12.1889 30.2053 12.5165 30.1924 13.1056C30.1808 13.6683 30.5011 14.0216 31.0489 14.0489C31.6204 14.077 31.9387 13.7475 31.995 13.0683C31.9596 12.4735 31.6907 12.1841 31.1683 12.1841Z" fill="#212121"/>
</svg>
