<svg width="106" height="106" viewBox="0 0 106 106" fill="none" xmlns="http://www.w3.org/2000/svg">
<path d="M59.7359 43.4004C56.3979 51.6695 51.7247 69.209 59.7359 73.2147C67.7472 77.2204 73.2372 73.2995 74.2993 71.6304" stroke="#F2F2F2" stroke-width="2.12" stroke-linecap="round"/>
<path d="M37.7192 43.2793C41.0572 51.5484 45.7304 69.0879 37.7192 73.0936C29.7079 77.0993 19.768 65.2824 18.7059 63.6133" stroke="#F2F2F2" stroke-width="2.12" stroke-linecap="round"/>
<path d="M68.4381 31.5573L68.7453 32.5718L72.1634 31.5367L68.7341 30.5394L68.4381 31.5573ZM68.4204 31.5521L67.9712 30.592L65.4152 31.7877L68.1263 32.5705L68.4204 31.5521ZM90.3393 70.5061L91.0258 71.3138L91.0258 71.3138L90.3393 70.5061ZM77.8844 72.8646L77.7496 73.916L77.7496 73.916L77.8844 72.8646ZM75.0962 47.8324L76.05 47.3701L75.9958 47.2581L75.9171 47.1618L75.0962 47.8324ZM68.6721 39.9686L69.493 39.298L69.0279 38.7285L68.3316 38.9648L68.6721 39.9686ZM60.3222 42.8012L59.9817 41.7974L59.6623 41.9057L59.4643 42.1787L60.3222 42.8012ZM55.2993 61.1087L54.251 60.9514L54.2317 61.0799L54.244 61.2092L55.2993 61.1087ZM51.4243 55.3803L50.4593 55.8189L50.4593 55.8189L51.4243 55.3803ZM62.9109 34.752L63.5476 35.5995L63.6043 35.5569L63.6548 35.5071L62.9109 34.752ZM64.2554 33.643L63.6554 32.7692L63.6554 32.7692L64.2554 33.643ZM72.9035 73.01L72.3522 72.1047L73.2975 73.9941L72.9035 73.01ZM68.7341 30.5394C68.7278 30.5376 68.7212 30.5357 68.7144 30.5337L68.1263 32.5705C68.1314 32.572 68.1366 32.5735 68.1421 32.5751L68.7341 30.5394ZM68.8695 32.5123C69.8559 32.0508 71.0711 32.0125 72.5132 32.4391C73.9607 32.8672 75.5685 33.7465 77.2451 35.0128C80.5969 37.5444 84.0611 41.4995 86.8585 45.9501C89.6576 50.4035 91.7347 55.2668 92.392 59.5861C93.0509 63.9164 92.2631 67.4797 89.6528 69.6985L91.0258 71.3138C94.4323 68.4183 95.2008 63.9528 94.4878 59.2672C93.7732 54.5707 91.5504 49.431 88.6534 44.822C85.7548 40.2102 82.127 36.0434 78.5228 33.3211C76.7215 31.9606 74.8854 30.9299 73.1145 30.4061C71.3382 29.8807 69.5606 29.8485 67.9712 30.592L68.8695 32.5123ZM89.6528 69.6985C86.0093 72.7954 81.74 72.2902 78.0191 71.8132L77.7496 73.916C81.3712 74.3802 86.5829 75.0903 91.0258 71.3138L89.6528 69.6985ZM78.0191 71.8132C77.0079 71.6836 76.004 71.5537 75.1156 71.5336C74.2394 71.5138 73.3238 71.5934 72.547 71.9952L73.521 73.8782C73.8193 73.7239 74.3012 73.6358 75.0677 73.6531C75.8219 73.6701 76.7056 73.7822 77.7496 73.916L78.0191 71.8132ZM73.632 73.8119C73.9488 73.5954 74.3063 73.2304 74.6598 72.8007C75.0289 72.3521 75.4421 71.773 75.8623 71.0761C76.7028 69.6821 77.5867 67.7901 78.1978 65.4837C79.4246 60.8539 79.544 54.5783 76.05 47.3701L74.1423 48.2948C77.398 55.0114 77.2557 60.7623 76.1486 64.9407C75.5927 67.0383 74.7918 68.7458 74.0467 69.9815C73.6741 70.5996 73.3194 71.093 73.0226 71.4539C72.7102 71.8337 72.5038 72.0151 72.436 72.0615L73.632 73.8119ZM75.9171 47.1618L69.493 39.298L67.8512 40.6392L74.2753 48.503L75.9171 47.1618ZM68.3316 38.9648L59.9817 41.7974L60.6627 43.805L69.0126 40.9724L68.3316 38.9648ZM56.3475 61.2659C56.726 58.7429 57.4073 54.9828 58.2737 51.4735C58.7069 49.7185 59.1827 48.0416 59.6849 46.6205C60.1946 45.1782 60.7044 44.0793 61.1801 43.4237L59.4643 42.1787C58.803 43.09 58.212 44.426 57.6861 45.9141C57.1527 47.4233 56.6582 49.1721 56.2155 50.9654C55.3299 54.5525 54.6368 58.3792 54.251 60.9514L56.3475 61.2659ZM50.4593 55.8189C52.133 59.5012 53.187 61.371 53.8639 62.1579C54.0308 62.3519 54.2604 62.5847 54.5528 62.7249C54.7107 62.8006 54.9455 62.8775 55.2277 62.8511C55.5331 62.8226 55.7904 62.6823 55.9747 62.4928C56.2813 62.1778 56.3385 61.7827 56.3565 61.6246C56.3805 61.4123 56.3723 61.1955 56.3545 61.0082L54.244 61.2092C54.2543 61.3166 54.2513 61.3736 54.25 61.3857C54.2424 61.452 54.2435 61.232 54.4553 61.0144C54.5923 60.8736 54.7925 60.7626 55.0302 60.7404C55.2448 60.7203 55.4013 60.7807 55.4692 60.8132C55.5818 60.8672 55.5849 60.9078 55.4711 60.7754C55.0247 60.2565 54.0851 58.6725 52.3893 54.9417L50.4593 55.8189ZM62.2743 33.9045C59.2802 36.1536 55.5456 39.6968 52.9378 43.5781C50.3729 47.3956 48.6729 51.8887 50.4593 55.8189L52.3893 54.9417C51.0914 52.0864 52.2102 48.4624 54.6975 44.7605C57.1418 41.1224 60.6927 37.7442 63.5476 35.5995L62.2743 33.9045ZM63.6548 35.5071C64.0117 35.1555 64.4098 34.8228 64.8554 34.5169L63.6554 32.7692C63.1037 33.148 62.6097 33.5608 62.167 33.9969L63.6548 35.5071ZM64.8554 34.5169C66.3402 33.4974 67.6533 32.9025 68.7453 32.5718L68.1309 30.5428C66.8135 30.9417 65.3047 31.6368 63.6554 32.7692L64.8554 34.5169ZM72.547 71.9952C72.4812 72.0293 72.4162 72.0657 72.3522 72.1047L73.4549 73.9153C73.4756 73.9027 73.4976 73.8903 73.521 73.8782L72.547 71.9952ZM73.2975 73.9941C73.4318 73.9403 73.546 73.8707 73.632 73.8119L72.436 72.0615C72.4321 72.0642 72.4353 72.0617 72.4452 72.0562C72.4544 72.051 72.4764 72.0392 72.5095 72.0259L73.2975 73.9941Z" fill="#F2F2F2"/>
<ellipse cx="63.5999" cy="66.7802" rx="3.18" ry="2.12" fill="#F2F2F2"/>
<ellipse cx="3.18" cy="2.12" rx="3.18" ry="2.12" transform="matrix(-1 0 0 1 37.0996 63.5996)" fill="#F2F2F2"/>
<path d="M35.2083 46.8087C41.2786 43.8819 42.835 36.9389 41.0001 36.1955C39.1652 35.452 37.9004 40.1164 28.6808 36.1955C19.4612 32.2745 15.9642 43.2163 15.3018 48.3824C5.65837 54.4228 20.22 70.9941 21.9081 66.9144C18.2065 58.0105 19.4083 55.9329 19.4083 52.6213C19.6409 48.1546 31.688 48.506 35.2083 46.8087Z" fill="#F2F2F2"/>
<path d="M67.8926 54.6416C68.4364 55.3118 70.0025 56.3888 71.9169 55.3348" stroke="#F2F2F2" stroke-width="2.12" stroke-linecap="round"/>
<circle cx="27.56" cy="54.06" r="1.06" fill="#F2F2F2"/>
<path d="M60.209 53.2471C60.7365 53.9111 62.2558 54.9709 64.1124 53.8979" stroke="#F2F2F2" stroke-width="2.12" stroke-linecap="round"/>
<circle cx="33.9194" cy="51.9399" r="1.06" fill="#F2F2F2"/>
</svg>
