<svg width="116" height="116" viewBox="0 0 116 116" fill="none" xmlns="http://www.w3.org/2000/svg">
<path d="M63.4603 72.1642C62.6279 74.1169 61.7804 75.8955 60.3562 77.2865C59.7375 77.8901 59.0867 78.6076 58.3155 78.8836C53.7968 80.4947 51.1471 83.978 49.0269 87.9724C48.3588 89.2312 47.7133 89.3548 46.6639 88.5546C41.2151 84.3958 35.8899 80.0919 31.4658 74.8064C30.2349 73.3371 28.5185 71.5842 29.9621 69.6025C31.4056 67.6209 33.6623 68.5693 35.6106 69.1622C37.6514 69.7841 39.3205 71.1342 41.1668 72.2448C42.8338 70.3222 43.7714 68.1107 44.5394 65.8465C46.8906 58.9112 50.4189 52.5538 53.9784 46.2006C54.9601 44.4477 56.134 42.856 57.7602 41.7454C59.1715 40.7787 59.4518 39.6069 59.3981 38.0516C59.3219 35.7961 59.3584 33.533 59.4808 31.2796C59.6258 28.6148 60.976 27.3302 63.6697 27.2668C69.8596 27.1218 76.0495 26.9994 82.2405 26.9371C85.4111 26.906 86.6442 28.1368 86.5926 31.3C86.405 43.6089 86.1873 55.9174 85.9396 68.2256C85.8784 71.2523 84.4992 72.5638 81.4607 72.668C77.3792 72.8076 73.3063 72.9322 69.2302 73.0654C67.2829 73.1341 65.3163 73.3779 63.4603 72.1642ZM80.682 47.6012C79.7937 46.5529 78.696 46.4981 77.5983 46.511C75.0205 46.5422 72.5502 47.1308 70.1217 47.9406C66.2368 49.2381 62.6193 51.0866 59.1597 53.2745C58.6409 53.6021 57.9782 54.1531 57.4627 53.3282C56.9374 52.4861 57.7505 52.1263 58.28 51.8642C59.7257 51.1489 60.5485 49.9137 61.3777 48.6141C63.4087 45.4337 65.8275 42.6862 69.6008 41.4597C70.4794 41.1729 71.2871 40.6004 72.0507 40.0515C72.7349 39.5585 73.7188 39.0032 73.316 38.0022C72.9336 37.0517 71.8262 37.0989 70.996 37.2837C65.0972 38.5908 59.6001 40.9151 56.1738 46.0717C53.0439 50.7762 50.159 55.7384 48.2589 61.1088C45.9529 67.6209 43.0583 73.7452 38.3313 78.8793C38.2625 78.9534 38.3119 79.1371 38.3001 79.3949C41.2001 81.9855 44.1538 84.616 47.5135 86.9284C48.8303 84.8351 50.0784 82.9694 51.5735 81.3078C51.2352 80.6967 50.1772 80.9147 50.2986 79.7278C50.9602 78.9663 52.1009 78.9932 53.1202 78.8374C57.6893 78.1371 60.7096 75.6614 61.8674 71.1503C62.2906 69.5037 63.3067 68.8335 64.8308 68.3845C68.7071 67.2428 72.6812 66.897 76.6778 66.6091C77.695 66.5371 78.9184 66.3062 78.9237 65.0162C78.9302 63.7478 77.7627 63.519 76.7154 63.36C74.5361 63.0314 72.3568 63.1602 70.1754 63.3095C68.4322 63.4288 66.689 63.5566 64.9436 63.6618C64.4431 63.6919 63.8427 63.7542 63.6837 63.1108C63.4893 62.3203 64.1348 62.1442 64.6966 61.9777C65.0446 61.8703 65.4087 61.8262 65.762 61.7435C70.5746 60.605 75.3872 59.4654 80.1997 58.3248C81.508 58.0144 82.6765 57.4301 82.4027 55.8705C82.1234 54.2766 80.8152 54.4742 79.6176 54.6815C74.3052 55.5848 68.9993 56.4967 63.6934 57.3721C63.0371 57.4795 62.0822 57.9091 61.8051 56.9263C61.528 55.9435 62.5054 55.8265 63.1563 55.5687C68.0971 53.6139 73.026 51.6505 77.9732 49.7236C79.0591 49.3004 80.189 48.9921 80.682 47.6012ZM61.1843 38.8819C62.1123 39.0827 62.6118 38.4254 63.2476 38.1429C66.0327 36.9045 68.7598 35.4395 71.9283 35.5415C73.2934 35.5855 74.549 36.0785 75.0549 37.4931C75.5426 38.8497 74.8014 39.9012 73.8627 40.7744C72.5147 42.0311 70.8897 42.8388 69.1819 43.5004C66.791 44.4305 65.1305 46.1727 63.4968 48.6968C64.703 48.2059 65.4806 47.8923 66.2572 47.5744C69.8392 46.1072 73.4964 44.9192 77.4071 44.8065C80.2341 44.7238 82.2802 45.7678 82.3092 47.4272C82.3533 49.8664 80.4478 50.6258 78.5392 51.3111C76.5285 52.035 74.5372 52.8148 72.5384 53.5666C74.5458 53.6955 76.3986 53.3518 78.2632 53.108C80.5434 52.8051 82.9494 52.1832 84.5444 55.1777C84.9428 46.9074 84.9375 38.9162 84.9461 30.9294C84.9461 29.2399 84.0138 28.5922 82.4564 28.6212C76.1286 28.7372 69.8013 28.8575 63.4743 28.9821C62.078 29.0079 61.2413 29.7265 61.2047 31.097C61.1338 33.6919 61.1843 36.2891 61.1843 38.8819ZM76.1526 61.2527C76.6983 61.9326 77.4275 61.6458 78.0151 61.8402C79.5295 62.3418 80.5735 63.3181 80.6917 64.9325C80.8098 66.5468 79.6895 67.3771 78.3287 67.9657C77.2203 68.4447 76.0506 68.3759 74.8917 68.4501C71.4546 68.6735 68.0358 69.0032 64.7062 70.4049C65.2207 71.3436 65.9231 71.4338 66.6578 71.4113C71.7418 71.2609 76.8257 71.1045 81.9097 70.9419C83.1556 70.9 84.1265 70.2588 84.1652 69.0161C84.2662 65.2912 84.2017 61.562 84.2017 57.3377C82.1739 60.5782 78.783 59.9993 76.1526 61.2527Z" fill="#E4EA00"/>
<path d="M47.7857 89.1117C47.4571 89.1117 47.0822 88.9441 46.6268 88.5972C41.6861 84.8229 36.0203 80.3365 31.4201 74.849C31.3363 74.7491 31.2504 74.6482 31.1623 74.5451C29.9959 73.1713 28.5437 71.4614 29.9175 69.5796C31.2611 67.7387 33.2933 68.382 35.0859 68.9502C35.2674 69.0082 35.4479 69.0651 35.6229 69.1188C37.1266 69.5764 38.451 70.4421 39.7334 71.2799C40.1942 71.5817 40.67 71.8921 41.1523 72.1832C42.8708 70.1897 43.7999 67.8579 44.4819 65.8375C46.8867 58.7487 50.6256 52.0711 53.9252 46.182C55.0884 44.1047 56.2956 42.6827 57.7242 41.7085C59.1344 40.7418 59.39 39.5539 59.3353 38.0566C59.2622 35.9149 59.2902 33.6347 59.418 31.2803C59.563 28.6091 60.9496 27.2794 63.6563 27.216C70.9063 27.0452 76.8072 26.941 82.2281 26.8863C83.8671 26.8712 84.9562 27.1881 85.6522 27.8884C86.3482 28.5887 86.6586 29.6713 86.6339 31.3039C86.4621 43.1456 86.2473 55.2235 85.9895 68.2317C85.9283 71.2745 84.5739 72.6193 81.459 72.7267C78.8362 72.8169 76.1682 72.9017 73.5893 72.9844L69.2275 73.1241L68.583 73.1498C66.8849 73.2218 65.1299 73.297 63.479 72.2433C62.6799 74.1144 61.8379 75.9081 60.3879 77.3237L60.1526 77.5568C59.592 78.1131 59.013 78.6888 58.3267 78.9337C53.4934 80.6523 50.9349 84.4792 49.0671 87.9978C48.717 88.6573 48.3711 89.0053 47.9802 89.0912C47.9163 89.105 47.8511 89.1118 47.7857 89.1117ZM32.3191 68.4583C31.4523 68.4583 30.6543 68.7526 30.0066 69.6398C28.6823 71.4528 30.0453 73.0575 31.2472 74.4731L31.5049 74.7781C36.0977 80.2559 41.7537 84.7423 46.6945 88.5123C47.2165 88.9108 47.6193 89.0623 47.9619 88.9871C48.3045 88.9119 48.6418 88.5789 48.9769 87.9484C50.8544 84.4115 53.4289 80.5631 58.2945 78.8328C58.9604 78.5965 59.5318 78.0294 60.0839 77.4816L60.3191 77.2485C61.7702 75.8318 62.6101 74.0263 63.4114 72.1434L63.4361 72.0844L63.4898 72.1198C65.1277 73.1939 66.8849 73.1155 68.5841 73.0435L69.2286 73.0177L73.5904 72.8781C76.1682 72.7954 78.8362 72.7105 81.459 72.6203C84.503 72.5129 85.8273 71.2025 85.8864 68.2306C86.1399 55.2214 86.3547 43.1434 86.5351 31.305C86.5587 29.7035 86.2569 28.6424 85.5846 27.9657C84.9122 27.289 83.8467 26.9808 82.2377 26.999C76.8169 27.0538 70.917 27.158 63.667 27.3288C60.9904 27.3911 59.6768 28.651 59.534 31.291C59.4062 33.6422 59.3782 35.9192 59.4513 38.0577C59.5039 39.585 59.2365 40.8063 57.7897 41.7965C56.3762 42.7632 55.1797 44.1724 54.024 46.2346C50.7276 52.1184 46.9909 58.7873 44.5893 65.8708C43.8976 67.9116 42.9535 70.2745 41.207 72.2863L41.177 72.3207L41.1383 72.297C40.6421 71.9995 40.1523 71.6784 39.6776 71.369C38.3436 70.4969 37.0826 69.6731 35.5961 69.2209C35.4178 69.1672 35.2363 69.1135 35.059 69.0512C34.1289 68.7569 33.188 68.4583 32.3169 68.4583H32.3191ZM47.5226 87L47.4764 86.9689C44.0394 84.6059 40.9686 81.8552 38.2566 79.43L38.2383 79.4128V79.3881C38.2383 79.2968 38.2383 79.2162 38.2383 79.1443C38.2319 79.0035 38.2276 78.9026 38.2866 78.8381C42.3681 74.4065 45.4249 68.932 48.2036 61.0869C49.849 56.4394 52.2926 51.7983 56.1238 46.0381C59.0603 41.6225 63.7819 38.8235 70.9825 37.2307C72.2306 36.9535 73.0544 37.2135 73.3637 37.9825C73.745 38.9288 72.9341 39.498 72.2779 39.9545L72.0802 40.0941C71.3509 40.6194 70.5239 41.2144 69.6099 41.5098C65.538 42.8384 63.0935 46.0209 61.4179 48.6448C60.666 49.8263 59.8068 51.1668 58.3031 51.9143L58.2462 51.9423C57.8982 52.113 57.4664 52.3268 57.3665 52.6737C57.3139 52.8595 57.36 53.0647 57.5072 53.302C57.6543 53.5394 57.8047 53.6554 57.9852 53.6951C58.3074 53.7671 58.6693 53.5319 58.9851 53.3246L59.1312 53.2301C62.9033 50.8435 66.4929 49.097 70.105 47.8908C72.9492 46.9414 75.3304 46.486 77.5967 46.4591C78.7384 46.4451 79.834 46.5203 80.7233 47.5686L80.7426 47.5923L80.7319 47.6213C80.2754 48.9101 79.2636 49.2914 78.2852 49.662L77.9866 49.7758C73.9706 51.3397 69.8966 52.954 65.9569 54.5157L63.1708 55.6199C63.0634 55.6607 62.956 55.6983 62.8486 55.737C62.2535 55.9389 61.637 56.1483 61.855 56.9184C62.0731 57.6885 62.7143 57.5403 63.3319 57.3996C63.4554 57.3717 63.5714 57.3448 63.682 57.3266C68.2211 56.5801 72.8299 55.7917 77.2873 55.0291L79.6063 54.6328C80.7448 54.4373 82.1615 54.1957 82.4547 55.8658C82.7533 57.5725 81.3173 58.1214 80.211 58.3813L75.0221 59.609L65.7668 61.7915C65.6283 61.8248 65.4854 61.8527 65.3479 61.8785C65.1308 61.9167 64.9157 61.9658 64.7035 62.0257L64.6659 62.0364C64.116 62.2018 63.5489 62.3715 63.7272 63.0944C63.8689 63.6701 64.3802 63.6389 64.8743 63.6078H64.9312C66.2287 63.5294 67.5476 63.437 68.8236 63.3489L70.163 63.2555C72.5013 63.0954 74.6075 62.9891 76.7149 63.307C77.6149 63.4424 78.9704 63.6486 78.9704 65.0159C78.9704 66.3295 77.7406 66.5862 76.6751 66.6624C72.6216 66.9535 68.6668 67.3069 64.8388 68.4357C63.3942 68.8654 62.3427 69.4883 61.913 71.1628C60.781 75.5665 57.823 78.1701 53.1207 78.8897C52.9273 78.9198 52.7254 78.9434 52.531 78.966C51.7126 79.0615 50.8673 79.1593 50.3442 79.75C50.2787 80.4428 50.6331 80.619 51.009 80.8058C51.24 80.9197 51.4784 81.0389 51.6137 81.2817L51.632 81.315L51.6062 81.3429C50.1605 82.954 48.9404 84.7498 47.5527 86.9571L47.5226 87ZM38.3436 79.3677C41.0352 81.7757 44.0845 84.5017 47.4872 86.8497C48.8577 84.6725 50.0649 82.8917 51.4956 81.2978C51.3742 81.1055 51.1734 81.0045 50.9586 80.8982C50.5816 80.7113 50.1552 80.4997 50.2357 79.7167V79.6996L50.2475 79.6867C50.7964 79.054 51.6696 78.952 52.5149 78.8532C52.7082 78.8306 52.908 78.8081 53.1003 78.778C57.7564 78.0648 60.6843 75.4924 61.8003 71.1317C62.2428 69.4067 63.3201 68.7687 64.8002 68.3273C68.6378 67.1973 72.6001 66.8418 76.659 66.5507C77.7417 66.4723 78.849 66.2285 78.8544 65.0094C78.8609 63.8333 77.8351 63.5798 76.6912 63.408C74.5957 63.0858 72.4948 63.1932 70.163 63.3575L68.8247 63.4499C67.5487 63.539 66.2297 63.6314 64.9312 63.7098H64.8753C64.3877 63.7399 63.7798 63.7775 63.6155 63.1148C63.4135 62.2931 64.087 62.0912 64.6283 61.9333L64.6659 61.9215C64.8809 61.8608 65.0989 61.811 65.3189 61.7722C65.4553 61.7464 65.5971 61.7185 65.7335 61.6863L74.9835 59.4962L80.1723 58.2675C81.3259 57.9947 82.6147 57.4759 82.3344 55.8755C82.0605 54.3106 80.7588 54.5329 79.6106 54.7295L77.2916 55.1258C72.8342 55.8884 68.2243 56.6778 63.6863 57.4243C63.5789 57.4415 63.464 57.4673 63.3416 57.4952C62.7369 57.6327 61.9839 57.8045 61.738 56.9388C61.492 56.0731 62.1869 55.8401 62.8002 55.6317C62.913 55.593 63.0204 55.5565 63.1225 55.5168L65.9086 54.4126C69.8483 52.8509 73.9233 51.2366 77.9382 49.6717L78.2368 49.5578C79.2293 49.183 80.1702 48.8274 80.6105 47.6116C79.7513 46.6202 78.6922 46.5493 77.5892 46.5633C75.3336 46.5901 72.9631 47.0434 70.1286 47.9897C66.5251 49.1937 62.9442 50.9358 59.1731 53.3181L59.0292 53.4116C58.6951 53.6264 58.3149 53.8777 57.9465 53.7972C57.7317 53.751 57.5577 53.606 57.4019 53.3547C57.2462 53.1033 57.1871 52.8541 57.2483 52.6404C57.3611 52.2473 57.8165 52.0228 58.1839 51.8434L58.2408 51.8144C59.7241 51.0808 60.5705 49.7544 61.3169 48.5836C63.0011 45.9446 65.4618 42.7428 69.5658 41.4045C70.4584 41.1134 71.2779 40.5248 72.0018 40.0082C72.0652 39.962 72.1329 39.9158 72.2005 39.8675C72.8546 39.41 73.5968 38.8912 73.2477 38.0233C72.8858 37.1222 71.8203 37.1523 70.9922 37.3359C63.8206 38.9255 59.1194 41.7117 56.199 46.1014C52.3731 51.8542 49.9339 56.4877 48.2906 61.1267C45.5066 68.9867 42.4422 74.4731 38.3522 78.9144C38.3232 78.9466 38.3275 79.0379 38.3317 79.1443C38.3436 79.2076 38.35 79.2828 38.3436 79.3677ZM66.4843 71.4678C65.8485 71.4678 65.1589 71.339 64.6584 70.4303L64.6305 70.3777L64.6852 70.3551C68.046 68.9395 71.5679 68.6119 74.8889 68.3971C75.1295 68.381 75.3744 68.3713 75.6107 68.3627C76.5076 68.3273 77.4366 68.2918 78.3034 67.9159C79.5225 67.3874 80.7534 66.6206 80.6309 64.9364C80.5235 63.4596 79.6353 62.4349 77.9909 61.8914C77.7926 61.8357 77.5878 61.8068 77.3819 61.8055C76.9393 61.7818 76.4829 61.7582 76.1037 61.2867L76.0618 61.233L76.123 61.204C76.9898 60.7916 77.949 60.5724 78.8866 60.3619C80.8114 59.9248 82.8016 59.4737 84.156 57.3094L84.2549 57.1504V57.3373C84.2549 58.5546 84.2584 59.7332 84.2656 60.8732C84.2785 63.6969 84.2903 66.3638 84.2183 69.0179C84.1872 70.1918 83.3043 70.9512 81.9155 70.9953C76.6343 71.1682 71.4626 71.3175 66.6637 71.4646C66.6025 71.4668 66.5445 71.4678 66.4843 71.4678ZM64.784 70.4303C65.2964 71.3207 65.9892 71.3765 66.6583 71.3572C71.4594 71.2154 76.6311 71.0608 81.9102 70.8878C83.2366 70.8438 84.0798 70.1263 84.1088 69.0147C84.1808 66.3628 84.1689 63.6969 84.156 60.8743C84.151 59.7909 84.1475 58.6728 84.1453 57.5199C82.7737 59.5897 80.8103 60.0408 78.9103 60.4704C78.0059 60.6755 77.0715 60.8871 76.2315 61.276C76.572 61.6594 76.9834 61.682 77.3883 61.7056C77.6037 61.7069 77.8179 61.7373 78.0252 61.7958C79.69 62.3468 80.6288 63.4327 80.7383 64.9353C80.8662 66.6968 79.5268 67.5131 78.3453 68.0211C77.4581 68.4046 76.5194 68.4411 75.615 68.4765C75.3787 68.4851 75.1349 68.4948 74.8965 68.5098C71.6044 68.7171 68.1137 69.0415 64.784 70.4303ZM84.5867 55.3761L84.4954 55.2042C83.0444 52.4804 80.893 52.7886 78.8115 53.0872C78.6299 53.113 78.4484 53.1388 78.268 53.1624C77.9683 53.2021 77.6697 53.2451 77.37 53.287C75.8234 53.5018 74.2241 53.7306 72.5367 53.6221L72.2886 53.606L72.5217 53.5179C73.131 53.2881 73.7397 53.0571 74.3476 52.8251C75.7085 52.3074 77.1176 51.7704 78.5193 51.2624C80.2905 50.6265 82.2979 49.9047 82.2539 47.4301C82.2484 47.1639 82.1884 46.9017 82.0776 46.6597C81.9667 46.4177 81.8074 46.201 81.6094 46.023C80.7802 45.2314 79.2465 44.8083 77.4109 44.862C73.251 44.9823 69.4487 46.327 66.2759 47.6255L64.6229 48.2979L63.3577 48.8124L63.45 48.6685C65.2663 45.863 66.9741 44.3034 69.1609 43.4517C70.5572 42.9082 72.3509 42.108 73.8245 40.7354C74.6398 39.9771 75.5108 38.9255 75.006 37.5131C74.5689 36.293 73.5324 35.6485 71.9288 35.597C69.1684 35.5089 66.7013 36.6335 64.3147 37.7215C63.9667 37.8794 63.6198 38.0384 63.2707 38.193C63.0885 38.281 62.9135 38.3834 62.7476 38.4991C62.3094 38.7859 61.8561 39.0834 61.1741 38.9363L61.1322 38.9266V38.8815C61.1322 38.12 61.1322 37.3585 61.1236 36.5959C61.1129 34.7936 61.1021 32.929 61.1526 31.0966C61.1891 29.7261 62.0119 28.956 63.4747 28.9291L71.3853 28.7777C75.0758 28.7061 78.7663 28.6363 82.4569 28.5683C83.3398 28.5521 83.9777 28.7465 84.4031 29.1654C84.8005 29.5564 85.0024 30.1504 85.0013 30.9301V31.6519C84.9938 39.2778 84.9863 47.1551 84.6007 55.1806L84.5867 55.3761ZM80.7985 52.7875C82.183 52.7875 83.4923 53.2172 84.4987 54.9862C84.8757 47.0284 84.8832 39.2134 84.8896 31.653V30.9334C84.8896 30.1815 84.6995 29.6144 84.3236 29.2449C83.9198 28.8486 83.3118 28.6628 82.4547 28.6789C78.7642 28.7462 75.0737 28.816 71.3832 28.8883L63.4769 29.0376C62.0806 29.0634 61.2955 29.7959 61.26 31.1009C61.2095 32.9268 61.2203 34.7947 61.231 36.597C61.231 37.3488 61.2396 38.091 61.2396 38.8385C61.854 38.9556 62.2782 38.6774 62.6885 38.4089C62.8592 38.2907 63.0387 38.1859 63.2256 38.0953C63.5746 37.9406 63.9216 37.7817 64.2696 37.6238C66.6669 36.5304 69.1469 35.4004 71.9309 35.4896C73.5603 35.5422 74.658 36.2285 75.107 37.4766C75.6343 38.9492 74.7396 40.0351 73.9008 40.8159C72.4121 42.2004 70.6077 43.006 69.2017 43.5527C67.075 44.3808 65.4038 45.8898 63.6359 48.5847L64.5853 48.1991L66.2373 47.5278C69.4187 46.225 73.2338 44.8759 77.4076 44.7556C79.2744 44.7019 80.8329 45.1358 81.6825 45.9468C81.8915 46.134 82.0599 46.3622 82.1773 46.6171C82.2946 46.8721 82.3583 47.1484 82.3645 47.429C82.4096 49.9799 80.2743 50.7479 78.559 51.3655C77.1627 51.8671 75.7493 52.4063 74.3841 52.9261C73.855 53.128 73.3258 53.3292 72.7966 53.5297C74.3841 53.6017 75.8943 53.388 77.3582 53.1817C77.6579 53.1398 77.9576 53.0969 78.2572 53.0571C78.4377 53.0335 78.6181 53.0077 78.7943 52.982C79.4569 52.8697 80.1267 52.8047 80.7985 52.7875Z" fill="#E4EA00"/>
<path d="M83.0348 33.4903C82.8941 35.2013 82.1165 36.2464 80.4506 36.1637C78.9383 36.0885 78.079 35.1025 78.1102 33.5859C78.1435 31.9522 79.122 31.0833 80.7385 31.0704C82.3958 31.0597 82.9543 32.1348 83.0348 33.4903Z" fill="#E4EA00"/>
<path d="M80.6344 36.222C80.5732 36.222 80.5098 36.222 80.4464 36.222C78.9169 36.1457 78.0233 35.1629 78.0555 33.5915C78.0888 31.9729 79.0662 31.0374 80.7407 31.0234H80.7697C82.2122 31.0234 82.992 31.8537 83.0897 33.4938V33.5013C82.9383 35.3058 82.1134 36.222 80.6344 36.222ZM80.7697 31.1265H80.7396C79.1113 31.1394 78.1962 32.0148 78.1619 33.5894C78.1307 35.0931 78.9868 36.0372 80.4507 36.1103C81.9781 36.1854 82.8287 35.3047 82.9791 33.4895C82.8846 31.8999 82.166 31.1265 80.7697 31.1265Z" fill="#E4EA00"/>
</svg>
