<svg width="23" height="23" viewBox="0 0 23 23" fill="none" xmlns="http://www.w3.org/2000/svg">
<path d="M22.9164 19.7904C22.913 18.5145 22.4036 17.4132 21.5355 16.5481C20.8259 15.8409 20.6109 15.0866 20.6325 14.1292C20.6703 12.4749 20.5947 10.8187 20.5923 9.16339C20.5923 7.88746 20.4519 6.67926 21.5821 5.57166C22.6215 4.55337 22.1352 2.57422 20.9113 1.37386C19.7335 0.218171 18.5066 0.069476 17.1262 1.07304C16.5059 1.52452 15.8993 1.66487 15.1765 1.64966C13.2204 1.60991 11.2638 1.59715 9.3072 1.58096C8.11372 1.57163 6.97176 1.64573 5.96476 0.664253C5.21246 -0.0718581 4.15197 0.170078 3.30691 0.735902C2.40248 1.34197 1.75519 2.12715 1.83224 3.34124C2.08399 7.35207 1.5903 11.3501 1.61091 15.357C1.61484 16.0931 1.10692 16.5348 0.741319 17.0579C0.126912 17.9373 -0.210227 18.8408 0.425282 19.8434C1.06079 20.846 1.95296 21.057 3.1381 20.9824C7.39674 20.7154 11.6554 21.1296 15.916 21.1443C16.5495 21.1468 16.842 21.6915 17.294 21.983C18.6023 22.8266 19.9774 23.0999 21.4251 22.383C22.4811 21.8598 22.8884 20.9225 22.9164 19.7904ZM15.121 10.9659C15.331 11.6141 15.8291 11.9086 16.2183 12.285C17.985 13.9952 19.8566 15.6107 21.348 17.5781C22.4713 19.0602 22.4566 20.4828 21.4511 21.3838C20.3876 22.3373 18.8305 22.2441 17.4761 21.1124C17.1325 20.8263 16.8553 20.4612 16.5599 20.1211C15.1112 18.4561 13.6424 16.8077 12.231 15.1112C11.4787 14.2062 10.857 14.06 9.91473 14.9296C8.36743 16.3572 6.70627 17.662 5.07554 18.9983C4.45475 19.5072 3.78538 19.9675 3.00118 20.1913C2.32347 20.3847 1.72525 20.2605 1.24776 19.6701C0.770273 19.0798 0.757024 18.4615 1.15796 17.8637C1.51618 17.3197 1.92251 16.8089 2.37205 16.3375C3.73435 14.9311 5.14474 13.5717 6.50556 12.1638C8.16475 10.4462 8.15543 10.4315 6.71854 8.5907C5.51426 7.0483 4.2987 5.51424 3.08706 3.97773C2.31611 2.99871 2.65079 2.20567 3.5248 1.53286C4.56321 0.733448 5.4912 0.997956 6.31319 1.8965C7.6004 3.30395 8.95435 4.65937 10.1351 6.15172C11.0832 7.3501 11.9081 7.23527 12.8641 6.29256C14.222 4.95382 15.5882 3.62293 16.9205 2.25965C17.585 1.57801 18.2897 1.03525 19.2957 1.29289C20.3974 1.57458 20.8955 2.44417 21.1851 3.44921C21.5315 4.65152 20.8676 5.45241 20.048 6.19097C18.3388 7.73043 16.6035 9.24289 15.121 10.9659ZM5.51573 20.1133C6.88735 18.8948 14.6661 19.23 15.2447 20.1133H5.51573ZM3.22545 14.641L2.74796 14.5988V5.40972L3.32752 5.42836C3.78048 8.51169 3.22839 11.571 3.22545 14.641ZM19.734 7.57879V14.4182C18.7927 13.4142 18.7363 9.01862 19.734 7.58075V7.57879ZM15.6539 2.50355C14.0973 3.41485 9.12072 3.28481 8.24376 2.50355H15.6539Z" fill="#212121"/>
</svg>
