<svg width="22" height="22" viewBox="0 0 22 22" fill="none" xmlns="http://www.w3.org/2000/svg">
<mask id="mask0_1604_15095" style="mask-type:alpha" maskUnits="userSpaceOnUse" x="0" y="0" width="22" height="22">
<rect x="0.709717" width="21.0795" height="21.0795" fill="#D9D9D9"/>
</mask>
<g mask="url(#mask0_1604_15095)">
<path d="M8.10387 17.0386C7.75913 17.0386 7.4657 16.9176 7.22358 16.6756C6.98161 16.4335 6.86062 16.1401 6.86062 15.7953V5.79615H5.80664V5.09349H9.14424V4.24219H13.3601V5.09349H16.6977V5.79615H15.6438V15.7859C15.6438 16.1526 15.5256 16.453 15.2891 16.6872C15.0527 16.9215 14.7565 17.0386 14.4005 17.0386H8.10387ZM14.9411 5.79615H7.56327V15.7953C7.56327 15.953 7.61392 16.0825 7.71522 16.184C7.81666 16.2853 7.94621 16.3359 8.10387 16.3359H14.4005C14.5358 16.3359 14.6597 16.2796 14.7723 16.1671C14.8848 16.0545 14.9411 15.9306 14.9411 15.7953V5.79615ZM9.85369 14.755H10.5563V7.37711H9.85369V14.755ZM11.948 14.755H12.6507V7.37711H11.948V14.755Z" fill="#EC221F"/>
</g>
</svg>
