<svg width="14" height="13" viewBox="0 0 14 13" fill="none" xmlns="http://www.w3.org/2000/svg">
<path d="M12.9471 6.76406C12.9454 7.76072 12.9612 8.75689 12.9001 9.7533C12.8606 10.3954 12.6044 10.9158 12.2412 11.4317C11.7324 12.1564 11.0203 12.4092 10.1962 12.4572C8.44924 12.559 6.69985 12.5713 4.9512 12.5311C4.19798 12.5134 3.44821 12.4267 2.75831 12.0849C2.08713 11.7525 1.65274 11.2124 1.40709 10.5114C1.19741 9.91296 1.13088 9.29254 1.10871 8.6635C1.05795 7.22088 1.07914 5.77775 1.05697 4.33512C1.03996 3.18078 1.40241 2.23685 2.32121 1.49299C2.77629 1.1234 3.26785 0.926283 3.82987 0.84522C4.67623 0.723748 5.52751 0.765142 6.37634 0.777462C7.43582 0.792738 8.49531 0.721285 9.5548 0.748388C10.0136 0.759968 10.4815 0.767853 10.9124 0.949937C11.6065 1.24364 12.1069 1.75958 12.46 2.41326C12.7762 2.99075 12.9439 3.63781 12.9479 4.29619C12.9508 5.11964 12.9471 5.9416 12.9471 6.76406ZM1.49752 6.24343H1.48938C1.48938 6.73819 1.48446 7.23319 1.49062 7.72795C1.49973 8.4585 1.49431 9.19004 1.65003 9.91074C1.90579 11.0952 2.61096 11.8003 3.81829 12.0088C4.48133 12.1233 5.14881 12.1485 5.81653 12.1566C7.14089 12.1724 8.46353 12.0962 9.7869 12.0605C10.7262 12.0359 11.4429 11.5924 11.9421 10.7948C12.2469 10.3079 12.2856 9.75724 12.3267 9.20877C12.4625 7.36614 12.4413 5.51531 12.2634 3.67627C12.1836 2.83607 11.8219 2.12917 11.0871 1.65462C10.5411 1.30203 9.92661 1.18401 9.29387 1.17908C7.69774 1.16627 6.10161 1.16257 4.50548 1.18031C4.02772 1.18549 3.54923 1.25842 3.09636 1.4442C2.76077 1.58144 2.54197 1.8606 2.28178 2.08729C1.80403 2.50344 1.52215 3.03861 1.50318 3.67184C1.47805 4.5283 1.49752 5.38624 1.49752 6.24343Z" fill="#0037EB"/>
<path d="M6.75352 12.6484C6.17006 12.6484 5.56886 12.641 4.94648 12.6265C4.30586 12.6117 3.47256 12.5464 2.71342 12.1704C2.04816 11.8413 1.57755 11.2935 1.3144 10.5442C1.08033 9.87554 1.02933 9.18933 1.01085 8.66821C0.979309 7.76765 0.975613 6.8523 0.971917 5.96701C0.9697 5.43308 0.967482 4.88091 0.959105 4.33811C0.940132 3.09728 1.36467 2.143 2.25735 1.42033C2.70652 1.05665 3.21508 0.83835 3.81258 0.752359C4.5382 0.648135 5.27541 0.662672 5.98822 0.676716C6.11684 0.67918 6.24538 0.681479 6.37383 0.683615C6.86883 0.69076 7.37246 0.678687 7.85958 0.667106C8.41396 0.653801 8.98731 0.64025 9.55254 0.654541H9.58457C10.0382 0.666121 10.5073 0.677948 10.9449 0.862989C11.6166 1.14708 12.1522 1.65366 12.5393 2.36894C12.8628 2.9603 13.0344 3.62269 13.0387 4.29672C13.0422 4.8713 13.0415 5.45476 13.0405 6.02146C13.0405 6.26983 13.0405 6.51803 13.0405 6.76606C13.0405 6.95036 13.0405 7.13467 13.0405 7.31897C13.0417 8.11876 13.0429 8.94516 12.9929 9.76096C12.9471 10.5038 12.6076 11.0745 12.3168 11.4884C11.846 12.1589 11.1733 12.4986 10.1998 12.5543C9.10805 12.6167 7.96947 12.6484 6.75352 12.6484ZM5.24042 0.857568C4.77228 0.857568 4.30265 0.874569 3.83968 0.941095C3.26953 1.0229 2.80483 1.22223 2.37759 1.56841C1.52187 2.26102 1.13183 3.14015 1.15031 4.33466C1.15868 4.87845 1.1609 5.43135 1.16312 5.96578C1.16657 6.84959 1.17026 7.76444 1.2018 8.66107C1.21979 9.16987 1.26931 9.83636 1.49501 10.4807C1.7414 11.1824 2.17949 11.6937 2.79843 11.9999C3.51986 12.357 4.29132 12.421 4.95116 12.4363C6.86513 12.4809 8.5783 12.457 10.1885 12.3624C11.1001 12.3094 11.7255 11.9962 12.1596 11.3768C12.5755 10.7855 12.7672 10.2974 12.8002 9.74766C12.8495 8.93851 12.8495 8.11432 12.8475 7.31749C12.8475 7.13286 12.8475 6.94839 12.8475 6.76409C12.8475 6.51573 12.8475 6.26745 12.8475 6.01925C12.8475 5.45476 12.849 4.87081 12.8456 4.29696C12.842 3.65454 12.679 3.02305 12.3713 2.45912C12.0061 1.78302 11.5013 1.30502 10.8705 1.03842C10.4662 0.867424 10.0155 0.856089 9.57964 0.845002H9.54761C8.98707 0.830711 8.41618 0.845002 7.86401 0.857568C7.37517 0.869395 6.86957 0.882208 6.37112 0.874077C6.24217 0.87227 6.11331 0.86997 5.98453 0.867178C5.73887 0.861757 5.49002 0.857568 5.24042 0.857568ZM6.17918 12.2554C6.05697 12.2554 5.93508 12.2547 5.81353 12.2532C5.17143 12.2456 4.48301 12.2222 3.80001 12.1042C2.57495 11.8928 1.81926 11.162 1.55365 9.93196C1.40877 9.26079 1.40138 8.57384 1.39423 7.90957L1.39226 7.73044C1.38807 7.38771 1.38906 7.04054 1.39029 6.70323C1.39029 6.55014 1.39029 6.39729 1.39029 6.2447V6.1491H1.39818C1.39818 5.92389 1.39645 5.69844 1.39497 5.47324C1.39078 4.8819 1.3866 4.27134 1.40483 3.67039C1.42405 3.03395 1.70469 2.46306 2.2162 2.01635C2.28371 1.95771 2.35048 1.89316 2.41479 1.83107C2.60131 1.65095 2.79424 1.46468 3.05738 1.35701C3.48759 1.18059 3.95992 1.09189 4.50174 1.08597C5.91209 1.07045 7.43381 1.06996 9.29185 1.08474C10.031 1.09066 10.6337 1.2513 11.1363 1.5758C11.8578 2.04173 12.2683 2.74567 12.3557 3.66841C12.5339 5.51261 12.5555 7.36858 12.4205 9.21644L12.4191 9.23344C12.3782 9.77969 12.3358 10.3444 12.0216 10.8461C11.4931 11.69 10.7416 12.131 9.78784 12.1566C9.38327 12.1675 8.97844 12.1813 8.57387 12.1968C7.78837 12.2254 6.98094 12.2547 6.17918 12.2547V12.2554ZM1.58223 6.33857C1.58223 6.45996 1.58223 6.58143 1.58223 6.70299C1.58223 7.03882 1.58026 7.38623 1.58445 7.72724L1.58642 7.90661C1.59332 8.56152 1.60071 9.23861 1.74165 9.89106C1.99248 11.0533 2.67671 11.7144 3.83352 11.9152C4.50346 12.031 5.18252 12.0539 5.81673 12.0615C6.73331 12.0726 7.66468 12.0386 8.56746 12.0058C8.97278 11.9911 9.37784 11.9765 9.78341 11.9654C10.6689 11.9408 11.3677 11.531 11.86 10.7446C12.1493 10.2828 12.188 9.76614 12.2296 9.21915V9.20214C12.3642 7.36491 12.3431 5.51958 12.1665 3.68591C12.0847 2.82353 11.7035 2.16813 11.0331 1.73546C10.5618 1.43117 9.99186 1.28062 9.29087 1.27496C7.43455 1.26017 5.91357 1.26067 4.50445 1.27644C3.98702 1.2821 3.53785 1.36612 3.13032 1.53293C2.90117 1.62681 2.72968 1.79238 2.54809 1.96781C2.48181 2.03163 2.41356 2.09791 2.34235 2.15975C1.86509 2.57542 1.61426 3.0852 1.59628 3.67531C1.57829 4.27281 1.58248 4.88264 1.58642 5.47102C1.58815 5.72875 1.58987 5.98623 1.58987 6.24396V6.33857H1.58223Z" fill="#0037EB"/>
<path d="M7.02272 3.54883C7.58942 3.55277 8.26799 3.92113 8.86697 4.46418C9.33093 4.88477 9.66799 5.38716 9.80844 6.00807C9.95627 6.66767 9.84638 7.30089 9.57091 7.90111C9.12741 8.86623 8.38503 9.5103 7.34451 9.71776C6.12265 9.96144 5.1117 9.53666 4.33655 8.56686C3.84376 7.94965 3.58111 7.24275 3.68829 6.45035C3.80607 5.58231 4.23972 4.86925 4.90054 4.29761C5.4872 3.79054 6.08791 3.55203 7.02272 3.54883ZM8.67503 6.53313C8.66862 6.40674 8.66961 6.28083 8.63364 6.15886C8.42322 5.44433 7.94596 4.97446 7.24053 4.79286C6.51934 4.60733 5.88661 4.81159 5.37164 5.37903C4.70638 6.11156 4.57678 7.74933 5.74739 8.40128C6.67851 8.91871 7.63427 8.79379 8.20319 8.0009C8.51808 7.56182 8.64152 7.06189 8.67503 6.53313Z" fill="#0037EB"/>
<path d="M10.826 3.56903C10.8211 4.04432 10.5289 4.32225 10.0423 4.31412C9.65445 4.30771 9.32773 3.97311 9.3366 3.5811C9.34449 3.24256 9.67958 2.79831 10.1019 2.82221C10.5242 2.84611 10.8305 3.1408 10.826 3.56903Z" fill="#0037EB"/>
</svg>
