<svg width="37" height="37" viewBox="0 0 37 37" fill="none" xmlns="http://www.w3.org/2000/svg">
<rect width="37" height="37" rx="4.76751" fill="#EBEBEB"/>
<path d="M26.7637 18.665C26.7613 20.0508 26.7833 21.4359 26.6983 22.8213C26.6435 23.7141 26.2872 24.4377 25.7822 25.1551C25.0748 26.1626 24.0847 26.5141 22.9387 26.581C20.5097 26.7224 18.0773 26.7396 15.6459 26.6837C14.5986 26.6591 13.5561 26.5385 12.5969 26.0633C11.6636 25.6011 11.0596 24.8502 10.7181 23.8755C10.4265 23.0433 10.334 22.1807 10.3032 21.3061C10.2326 19.3002 10.2621 17.2936 10.2313 15.2877C10.2076 13.6827 10.7116 12.3702 11.9891 11.3359C12.6219 10.822 13.3053 10.548 14.0868 10.4353C15.2636 10.2664 16.4473 10.3239 17.6275 10.341C19.1006 10.3623 20.5738 10.2629 22.0469 10.3006C22.6848 10.3167 23.3354 10.3277 23.9346 10.5809C24.8997 10.9892 25.5955 11.7066 26.0864 12.6155C26.5261 13.4185 26.7592 14.3182 26.7648 15.2336C26.7689 16.3785 26.7637 17.5214 26.7637 18.665ZM10.8438 17.9411H10.8325C10.8325 18.629 10.8257 19.3173 10.8342 20.0052C10.8469 21.021 10.8394 22.0382 11.0559 23.0403C11.4115 24.6871 12.392 25.6676 14.0707 25.9574C14.9926 26.1167 15.9207 26.1517 16.8491 26.163C18.6906 26.1849 20.5296 26.0791 22.3697 26.0294C23.6756 25.9951 24.6722 25.3785 25.3663 24.2695C25.7901 23.5925 25.8439 22.8268 25.9011 22.0642C26.0899 19.5022 26.0604 16.9287 25.8131 14.3716C25.7021 13.2034 25.1991 12.2205 24.1775 11.5607C23.4183 11.0704 22.5639 10.9063 21.6841 10.8995C19.4648 10.8817 17.2455 10.8765 15.0262 10.9012C14.3619 10.9084 13.6966 11.0098 13.0669 11.2681C12.6003 11.4589 12.2961 11.8471 11.9343 12.1623C11.27 12.7409 10.8781 13.485 10.8517 14.3655C10.8168 15.5563 10.8438 16.7492 10.8438 17.9411Z" fill="#212121"/>
<path d="M18.1533 26.8424C17.342 26.8424 16.5061 26.8322 15.6407 26.8119C14.75 26.7914 13.5913 26.7006 12.5358 26.1778C11.6108 25.7201 10.9565 24.9585 10.5906 23.9167C10.2651 22.9869 10.1942 22.0328 10.1685 21.3082C10.1246 20.056 10.1195 18.7833 10.1144 17.5524C10.1113 16.81 10.1082 16.0422 10.0965 15.2875C10.0702 13.5622 10.6605 12.2353 11.9017 11.2305C12.5262 10.7248 13.2333 10.4213 14.0641 10.3017C15.0731 10.1568 16.0981 10.177 17.0892 10.1965C17.268 10.2 17.4468 10.2032 17.6254 10.2061C18.3136 10.2161 19.0139 10.1993 19.6912 10.1832C20.462 10.1647 21.2592 10.1458 22.0452 10.1657H22.0897C22.7204 10.1818 23.3727 10.1983 23.9811 10.4555C24.915 10.8506 25.6598 11.5549 26.1981 12.5495C26.6478 13.3717 26.8864 14.2927 26.8925 15.2299C26.8973 16.0288 26.8963 16.8401 26.8949 17.6281C26.8949 17.9734 26.8949 18.3185 26.8949 18.6634C26.8949 18.9196 26.8949 19.1759 26.8949 19.4322C26.8966 20.5442 26.8983 21.6933 26.8288 22.8276C26.765 23.8605 26.293 24.654 25.8887 25.2295C25.234 26.1617 24.2987 26.6341 22.9451 26.7116C21.4271 26.7982 19.844 26.8424 18.1533 26.8424ZM16.0494 10.448C15.3985 10.448 14.7455 10.4716 14.1018 10.5641C13.309 10.6779 12.6629 10.955 12.0689 11.4364C10.879 12.3994 10.3367 13.6218 10.3624 15.2827C10.374 16.0388 10.3771 16.8076 10.3802 17.5506C10.385 18.7795 10.3902 20.0516 10.434 21.2983C10.459 22.0057 10.5279 22.9324 10.8417 23.8283C11.1843 24.804 11.7934 25.5149 12.654 25.9407C13.6571 26.4371 14.7298 26.5262 15.6472 26.5475C18.3085 26.6095 20.6905 26.5762 22.9294 26.4447C24.197 26.371 25.0665 25.9356 25.6701 25.0743C26.2484 24.2521 26.515 23.5734 26.5609 22.8091C26.6294 21.684 26.6294 20.538 26.6266 19.4301C26.6266 19.1734 26.6266 18.9169 26.6266 18.6606C26.6266 18.3153 26.6266 17.9701 26.6266 17.625C26.6266 16.8401 26.6287 16.0282 26.6239 15.2303C26.6189 14.337 26.3923 13.459 25.9644 12.6749C25.4567 11.7348 24.7547 11.0702 23.8777 10.6995C23.3155 10.4617 22.6889 10.446 22.0828 10.4305H22.0383C21.2589 10.4107 20.4651 10.4305 19.6974 10.448C19.0177 10.4645 18.3147 10.4823 17.6216 10.471C17.4423 10.4685 17.2631 10.4653 17.0841 10.4614C16.7425 10.4538 16.3965 10.448 16.0494 10.448ZM17.3547 26.296C17.1848 26.296 17.0153 26.295 16.8463 26.2929C15.9535 26.2823 14.9963 26.2497 14.0466 26.0856C12.3433 25.7917 11.2925 24.7756 10.9232 23.0653C10.7218 22.1321 10.7115 21.177 10.7016 20.2534L10.6988 20.0043C10.693 19.5277 10.6944 19.045 10.6961 18.576C10.6961 18.3632 10.6961 18.1506 10.6961 17.9385V17.8055H10.707C10.707 17.4924 10.7047 17.1789 10.7026 16.8658C10.6968 16.0436 10.6909 15.1946 10.7163 14.359C10.743 13.4741 11.1332 12.6803 11.8445 12.0592C11.9383 11.9777 12.0312 11.8879 12.1206 11.8016C12.3799 11.5512 12.6482 11.2922 13.0141 11.1424C13.6122 10.8971 14.269 10.7738 15.0223 10.7656C16.9833 10.744 19.0992 10.7433 21.6827 10.7639C22.7105 10.7721 23.5484 10.9955 24.2473 11.4467C25.2504 12.0945 25.8212 13.0733 25.9428 14.3563C26.1905 16.9205 26.2206 19.5011 26.0329 22.0705L26.0309 22.0941C25.974 22.8536 25.9151 23.6388 25.4783 24.3364C24.7434 25.5097 23.6985 26.123 22.3723 26.1586C21.8098 26.1737 21.2469 26.1929 20.6844 26.2145C19.5922 26.2542 18.4695 26.295 17.3547 26.295V26.296ZM10.963 18.069C10.963 18.2378 10.963 18.4067 10.963 18.5757C10.963 19.0426 10.9602 19.5257 10.966 19.9998L10.9688 20.2492C10.9784 21.1599 10.9887 22.1013 11.1846 23.0085C11.5334 24.6245 12.4848 25.5437 14.0932 25.8229C15.0247 25.9839 15.9689 26.0158 16.8508 26.0264C18.1252 26.0418 19.4202 25.9945 20.6755 25.949C21.239 25.9284 21.8023 25.9082 22.3662 25.8928C23.5974 25.8585 24.569 25.2888 25.2535 24.1952C25.6557 23.5532 25.7095 22.8348 25.7674 22.0742V22.0506C25.9546 19.496 25.9253 16.9302 25.6797 14.3806C25.566 13.1816 25.036 12.2703 24.1038 11.6687C23.4484 11.2456 22.656 11.0362 21.6813 11.0284C19.1002 11.0078 16.9854 11.0085 15.0261 11.0304C14.3067 11.0383 13.6821 11.1551 13.1155 11.3871C12.7969 11.5176 12.5584 11.7478 12.3059 11.9917C12.2138 12.0805 12.1189 12.1726 12.0199 12.2586C11.3563 12.8366 11.0075 13.5454 10.9825 14.3659C10.9575 15.1967 10.9633 16.0446 10.9688 16.8627C10.9712 17.2211 10.9736 17.5791 10.9736 17.9374V18.069H10.963Z" fill="#212121"/>
<path d="M18.5336 14.1914C19.3215 14.1969 20.265 14.7091 21.0979 15.4641C21.743 16.0489 22.2116 16.7475 22.4069 17.6108C22.6125 18.5279 22.4597 19.4084 22.0767 20.243C21.46 21.5849 20.4278 22.4804 18.981 22.7689C17.2821 23.1077 15.8764 22.5171 14.7986 21.1686C14.1134 20.3105 13.7482 19.3276 13.8973 18.2258C14.061 17.0188 14.664 16.0274 15.5828 15.2325C16.3985 14.5275 17.2338 14.1959 18.5336 14.1914ZM20.831 18.3409C20.8221 18.1651 20.8235 17.9901 20.7734 17.8205C20.4809 16.827 19.8173 16.1736 18.8364 15.9212C17.8337 15.6632 16.9539 15.9472 16.2379 16.7362C15.3129 17.7547 15.1327 20.0319 16.7603 20.9384C18.055 21.6579 19.3839 21.4842 20.1749 20.3817C20.6128 19.7712 20.7844 19.0761 20.831 18.3409Z" fill="#212121"/>
<path d="M23.8202 14.2194C23.8134 14.8802 23.4071 15.2667 22.7305 15.2554C22.1912 15.2465 21.7369 14.7812 21.7493 14.2362C21.7602 13.7654 22.2262 13.1477 22.8134 13.181C23.4006 13.2142 23.8264 13.6239 23.8202 14.2194Z" fill="#212121"/>
</svg>
