<svg width="113" height="113" viewBox="0 0 113 113" fill="none" xmlns="http://www.w3.org/2000/svg">
<path d="M37.9671 61.5794C35.0751 61.5794 32.3171 61.6411 29.557 61.5585C27.7437 61.503 26.0592 61.0207 24.9438 59.3613C23.5 57.2132 24.1874 54.294 27.2844 54.1298C33.2295 53.8253 39.1379 52.8951 45.1133 52.9527C45.8143 52.96 46.5363 53.0155 47.4036 52.4578C45.7599 50.6854 44.1434 48.959 42.5488 47.2127C41.6009 46.1737 41.0495 44.9621 41.2608 43.5256C41.7463 40.2339 44.9846 38.7932 47.8713 40.6294C50.2307 42.1298 52.1214 44.2015 53.8802 46.316C56.1685 49.0667 58.6723 50.2763 62.2244 48.9464C64.1371 48.2339 66.1826 47.8258 68.1956 47.4188C69.7086 47.1133 70.3573 46.5033 70.0863 44.8387C69.7912 43.0233 69.8394 41.1578 70.4002 39.3592C71.0803 37.2091 72.2929 36.7246 74.2861 37.8096C75.5553 38.5033 76.5336 39.5496 77.4564 40.6169C83.1891 47.2315 87.0039 54.8036 88.7773 63.5098C87.1535 64.395 85.3465 64.3678 83.6505 64.5844C75.4611 65.6307 67.6882 67.6396 60.8486 72.6325C57.8467 74.8234 54.2569 75.9482 50.4149 75.717C48.4405 75.5987 46.6001 75.1101 45.6323 73.1106C45.3623 72.553 44.9773 72.2077 44.3558 72.1344C44.2166 72.1177 44.0869 72.0298 43.9488 72.0141C41.1792 71.6008 42.5603 68.0539 40.2533 67.1928C38.0843 66.384 37.5611 64.9809 37.9671 61.5794ZM86.8155 62.3662C85.5704 56.914 83.413 52.1837 80.6968 47.6574C79.8535 46.2522 79.0562 45.9048 77.469 46.4112C72.2647 48.0717 66.9537 49.3639 61.6825 50.791C58.2966 51.7076 55.7594 50.9019 53.5161 48.35C51.9718 46.5933 50.3186 44.9245 48.6247 43.31C46.4986 41.2833 44.8496 40.9799 43.6286 42.225C42.3563 43.5224 42.6566 44.9883 44.6948 47.2002C46.0393 48.6597 47.5198 50.0095 48.7555 51.5527C49.8164 52.8732 49.3529 54.0168 47.6977 54.3547C46.598 54.5797 45.4418 54.5807 44.3108 54.5922C38.6943 54.6466 33.1259 55.3372 27.5449 55.8415C25.7736 56.0016 25.331 57.2017 26.4348 58.6142C26.7004 58.9514 27.0325 59.2303 27.4105 59.4335C27.7885 59.6367 28.2043 59.7599 28.632 59.7955C29.6889 59.9169 30.7521 59.9763 31.8159 59.9733C36.0733 59.9315 40.3296 59.8164 44.587 59.8122C45.3749 59.8122 46.825 59.2556 46.7727 60.6315C46.7256 61.887 45.3079 61.3189 44.4709 61.4047C43.5517 61.484 42.6285 61.5064 41.7066 61.4716C40.3401 61.4434 39.5093 62.0398 39.4664 63.4366C39.4215 64.87 40.1936 65.7206 41.6176 65.8347C42.53 65.9079 43.457 65.7981 44.3778 65.7949C44.8329 65.7949 45.2274 65.9519 45.2776 66.4834C45.3002 66.6627 45.2521 66.8438 45.1435 66.9883C45.0349 67.1329 44.8744 67.2294 44.6958 67.2577C43.6903 67.4774 42.9171 67.8206 43.3252 69.0908C43.6841 70.2187 44.5462 70.6016 45.6113 70.6477C46.3201 70.6686 47.0294 70.6518 47.7364 70.5974C48.247 70.566 48.8224 70.4928 49.0139 71.0683C49.2608 71.808 48.6446 72.0246 48.0984 72.2265C47.841 72.3217 47.5397 72.3678 47.4957 72.938C48.3171 73.9205 49.5632 74.0565 50.8303 74.0764C54.6032 74.1339 57.9283 72.7423 60.9605 70.6717C66.2025 67.0913 71.8326 64.6032 78.1888 63.8216C80.9898 63.4784 83.7604 62.8904 86.8155 62.3662Z" fill="#0037EB"/>
<path d="M24.1685 57.1042C24.163 56.6195 24.2704 56.1402 24.4824 55.7042C24.9711 54.727 25.964 54.1526 27.2792 54.0846C29.581 53.9674 31.9195 53.7518 34.1785 53.5436C37.7537 53.213 41.4502 52.873 45.1123 52.9075L45.2682 52.9075C45.8959 52.9169 46.553 52.9263 47.3199 52.4523C46.8463 51.9411 46.3744 51.4329 45.9043 50.9279C44.7848 49.7247 43.6286 48.4806 42.508 47.2533C41.4324 46.0804 41.0139 44.8604 41.2096 43.5264C41.4408 41.9569 42.3092 40.7255 43.5951 40.1374C44.9208 39.5306 46.4902 39.6969 47.8996 40.5936C50.2925 42.116 52.2082 44.2316 53.921 46.2907C56.4321 49.3061 58.983 50.1128 62.2056 48.9065C64.1078 48.1939 66.1543 47.7806 68.1339 47.3809L68.1852 47.3705C69.8007 47.044 70.2841 46.3849 70.035 44.85C69.7159 42.8892 69.8258 41.0373 70.3552 39.3464C70.6994 38.2489 71.1807 37.5887 71.8253 37.3281C72.4698 37.0676 73.2901 37.2099 74.3081 37.7665C75.6097 38.4749 76.5974 39.5452 77.4962 40.5853C80.3209 43.8268 82.7242 47.4126 84.6487 51.2575C86.5666 55.1396 87.9717 59.2547 88.8286 63.4991L88.8359 63.5368L88.8025 63.5556C87.5176 64.2567 86.1156 64.3927 84.7585 64.5193C84.3944 64.5538 84.0177 64.5894 83.6547 64.6354C73.7986 65.891 66.7737 68.3697 60.8758 72.6741C57.8605 74.9039 54.1559 75.9997 50.4128 75.7691C48.6048 75.6644 46.6168 75.2627 45.5862 73.1334C45.3048 72.5538 44.9124 72.2525 44.3506 72.1855C44.2738 72.174 44.1989 72.1525 44.1277 72.1217C44.0677 72.0965 44.0053 72.0775 43.9415 72.0652C42.4369 71.8413 42.1261 70.6966 41.8248 69.5896C41.5632 68.6291 41.2922 67.6362 40.2365 67.2417C38.077 66.4351 37.5088 65.0686 37.9127 61.6305C37.0621 61.6305 36.2135 61.6367 35.3922 61.642C33.3843 61.6545 31.4874 61.6671 29.5601 61.6095C27.3629 61.5426 25.8782 60.8374 24.9051 59.3903C24.4391 58.7178 24.1828 57.9223 24.1685 57.1042ZM47.4842 52.4743L47.4319 52.5088C46.6158 53.032 45.9305 53.0236 45.2692 53.0142L45.1133 53.0142C41.4565 52.9797 37.762 53.3197 34.19 53.6493C31.93 53.8586 29.5915 54.0678 27.2844 54.1913C26.009 54.2572 25.0474 54.8117 24.5766 55.7534C24.0535 56.7997 24.2073 58.1777 24.9857 59.3359C25.9389 60.7526 27.3922 61.4432 29.557 61.5091C31.4822 61.5666 33.378 61.5541 35.3848 61.5415C36.2219 61.5415 37.0945 61.53 37.965 61.53L38.0246 61.53L38.0173 61.5886C37.6072 65.0079 38.1533 66.3587 40.2669 67.1476C41.3738 67.5661 41.6511 68.58 41.919 69.5666C42.2255 70.6903 42.5143 71.7523 43.9509 71.9658C44.0226 71.9796 44.0927 72.0007 44.1601 72.0286C44.2232 72.0554 44.2892 72.0748 44.3568 72.0861C44.9585 72.1573 45.377 72.4764 45.6752 73.0916C46.6827 75.1727 48.6351 75.5619 50.4138 75.6686C54.1341 75.8994 57.8165 74.8105 60.813 72.5936C66.7256 68.2786 73.7661 65.7926 83.64 64.5371C84.0052 64.49 84.3829 64.4544 84.7481 64.4199C86.0821 64.2933 87.4601 64.1615 88.7177 63.4876C86.9788 54.9833 83.1723 47.3014 77.4177 40.6554C76.5242 39.6248 75.5448 38.5628 74.2579 37.8597C73.265 37.3187 72.4792 37.1775 71.865 37.4265C71.2508 37.6755 70.7894 38.3127 70.4546 39.3789C69.9315 41.0529 69.8216 42.8892 70.1407 44.8343C70.4358 46.6485 69.6176 47.1895 68.2093 47.4741L68.1569 47.4845C66.1826 47.8832 64.1402 48.2965 62.2454 49.0058C58.9746 50.23 56.3861 49.4149 53.8436 46.3598C52.136 44.3069 50.2276 42.1986 47.8462 40.6836C46.4683 39.8068 44.9354 39.6425 43.6412 40.2347C42.3856 40.8071 41.5413 42.0134 41.3163 43.5431C41.1185 44.8426 41.5371 46.0375 42.5834 47.1884C43.7029 48.4157 44.8601 49.6598 45.9786 50.862L47.4371 52.4314L47.4842 52.4743ZM25.7809 57.1889C25.7797 57.0218 25.8128 56.8562 25.8782 56.7024C26.1 56.1908 26.6901 55.8654 27.5408 55.79C28.8078 55.676 30.0958 55.5494 31.3409 55.428C35.5815 55.0095 39.9676 54.5826 44.315 54.5408L44.451 54.5408C45.5287 54.5303 46.6419 54.5198 47.6945 54.3053C48.4939 54.1421 49.0327 53.7822 49.2116 53.2821C49.3906 52.7819 49.2116 52.2107 48.7147 51.5829C47.9237 50.5973 47.0186 49.6744 46.1429 48.7809C45.6501 48.2787 45.1405 47.7597 44.6561 47.2334C42.6137 45.0174 42.2956 43.5076 43.5909 42.1861C44.8465 40.9002 46.5572 41.2653 48.6613 43.27C50.576 45.0958 52.1769 46.7448 53.5548 48.3132C55.8242 50.8944 58.3259 51.6425 61.6689 50.7385C63.0814 50.3556 64.52 49.9768 65.9116 49.6106C69.7138 48.6093 73.6448 47.5735 77.4522 46.3587C79.0395 45.8534 79.8692 46.1735 80.7418 47.6279C83.7855 52.7003 85.7316 57.3794 86.8668 62.3524L86.8794 62.4068L86.825 62.4162C85.8519 62.5826 84.9019 62.7573 83.9832 62.9258C81.989 63.292 80.1067 63.6373 78.1961 63.8674C72.3003 64.5904 66.6722 66.8274 60.9919 70.7081C57.5527 73.0571 54.2286 74.1745 50.8303 74.1222C49.6511 74.1044 48.3192 73.9987 47.456 72.9713L47.4424 72.9545L47.4424 72.9336C47.4853 72.3822 47.7625 72.287 48.0063 72.2012C48.0314 72.1928 48.0555 72.1834 48.0796 72.175L48.1015 72.1667C48.6362 71.9689 49.1907 71.7649 48.9637 71.0827C48.7952 70.5784 48.3045 70.6108 47.8295 70.6422L47.7385 70.6422C47.0298 70.6964 46.3187 70.7132 45.6082 70.6924C44.3621 70.638 43.5983 70.117 43.275 69.1C43.118 68.6072 43.1243 68.2253 43.2948 67.9302C43.5439 67.4991 44.1099 67.3244 44.6843 67.1978C44.8507 67.1729 45.0006 67.0836 45.1016 66.9491C45.2026 66.8146 45.2467 66.6457 45.2242 66.479C45.1845 66.0532 44.8988 65.8376 44.3767 65.8387C44.0377 65.8387 43.6914 65.8554 43.3566 65.8711C42.7759 65.9096 42.1934 65.9121 41.6124 65.8784C40.1476 65.7602 39.367 64.8897 39.4152 63.4259C39.4581 62.0584 40.2292 61.3804 41.7087 61.4107C42.6285 61.445 43.5496 61.423 44.4667 61.3448C44.7165 61.3294 44.9673 61.3364 45.2158 61.3657C45.7076 61.4076 46.2151 61.4505 46.4934 61.2046C46.6346 61.0791 46.7089 60.8907 46.7183 60.6208C46.7309 60.3006 46.6618 60.0757 46.5091 59.9344C46.2192 59.6687 45.6595 59.7408 45.1656 59.8036C44.974 59.8328 44.7808 59.8503 44.587 59.8559C42.0205 59.8559 39.411 59.902 36.8873 59.9438C35.2248 59.971 33.5067 60.0003 31.8159 60.0171C30.7503 60.0199 29.6855 59.9605 28.6268 59.8392C28.1926 59.8024 27.7705 59.6768 27.3868 59.4701C27.0031 59.2635 26.6659 58.9803 26.3961 58.6381C25.9891 58.1306 25.7809 57.6284 25.7809 57.1889ZM49.377 52.8855C49.3778 53.0325 49.3527 53.1784 49.3027 53.3166C49.1112 53.8481 48.5452 54.2352 47.7081 54.4068C46.6472 54.6234 45.5287 54.6339 44.4468 54.6443L44.3108 54.6443C39.9729 54.6862 35.5899 55.1152 31.3514 55.5306C30.1052 55.653 28.8172 55.7785 27.5502 55.8936C26.7393 55.9669 26.1806 56.2682 25.9745 56.7422C25.7589 57.2392 25.9378 57.8931 26.4756 58.5816C26.7369 58.9127 27.0634 59.1868 27.4349 59.3867C27.8063 59.5867 28.2149 59.7083 28.6352 59.744C29.69 59.8652 30.751 59.9246 31.8128 59.9219C33.5036 59.9051 35.2216 59.8758 36.8831 59.8486C39.4068 59.8068 42.0173 59.7639 44.5849 59.7607C44.7741 59.7548 44.9628 59.7377 45.1499 59.7095C45.6668 59.6435 46.2517 59.5682 46.5771 59.8664C46.756 60.0296 46.8366 60.2849 46.823 60.6344C46.8114 60.9315 46.7267 61.1471 46.5624 61.2925C46.2485 61.5677 45.7254 61.5227 45.2075 61.4798C44.9645 61.4505 44.7194 61.4432 44.4751 61.4578C43.5534 61.5368 42.6278 61.5592 41.7034 61.5248C40.293 61.4965 39.5575 62.14 39.5167 63.4395C39.4727 64.8374 40.2198 65.6713 41.6197 65.7832C42.1962 65.8169 42.7742 65.8144 43.3503 65.7759C43.6862 65.7602 44.0335 65.7445 44.3757 65.7435C44.9532 65.7435 45.2818 65.9956 45.3278 66.4759C45.3516 66.6688 45.2993 66.8633 45.1822 67.0184C45.065 67.1734 44.8921 67.2768 44.7 67.3066C44.1486 67.4269 43.6077 67.5923 43.3796 67.9878C43.2247 68.2556 43.2206 68.6103 43.3681 69.0728C43.682 70.0573 44.3924 70.5376 45.6061 70.593C46.3131 70.6143 47.0207 70.5975 47.7259 70.5428L47.8159 70.5428C48.3066 70.5104 48.8622 70.4738 49.0568 71.0545C49.3152 71.8329 48.6592 72.0756 48.1308 72.2702L48.1099 72.2786C48.0848 72.288 48.0597 72.2964 48.0346 72.3048C47.8033 72.3853 47.5847 72.4607 47.5418 72.9242C48.3788 73.9077 49.6741 74.0092 50.824 74.027C54.1993 74.0783 57.5035 72.9681 60.9239 70.6317C66.6199 66.7406 72.2626 64.4973 78.1752 63.7733C80.0816 63.5389 81.9639 63.1936 83.956 62.8316C84.8579 62.6652 85.7902 62.4947 86.7444 62.3304C85.6175 57.3835 83.6787 52.7338 80.6518 47.6854C79.8148 46.2834 79.0123 45.9747 77.4847 46.4623C73.6741 47.6781 69.7421 48.7129 65.9388 49.7142C64.5472 50.0814 63.1086 50.4602 61.6961 50.8421C58.3102 51.7587 55.7751 51.0011 53.4764 48.3854C52.1005 46.8159 50.5017 45.1722 48.5891 43.3485C46.5352 41.3909 44.8789 41.0257 43.6715 42.2625C43.1724 42.771 42.9192 43.3004 42.9192 43.8895C42.9192 44.7935 43.5146 45.8377 44.7387 47.1654C45.2221 47.6886 45.7306 48.2117 46.2224 48.7108C47.1002 49.6054 48.0074 50.5303 48.8015 51.5201C49.1813 52.0014 49.377 52.4639 49.377 52.8855Z" fill="#0037EB"/>
</svg>
