<svg width="180" height="182" viewBox="0 0 180 182" fill="none" xmlns="http://www.w3.org/2000/svg">
<path d="M66.7727 80.1706C65.2301 66.7626 63.5144 54.1386 62.3842 41.4484C60.7818 23.5039 61.1848 23.1891 78.6381 20.0787C81.3927 19.5876 84.1694 19.2256 87.3742 18.7345C85.6175 12.4004 81.8807 4.56781 90.3271 1.41966C100.603 -2.40849 105.4 6.5417 110.51 13.6974C115.925 9.29003 118.091 0.176144 127.299 2.65688C131.055 3.67059 132.925 8.34873 133.504 16.5748C139.016 16.5748 144.595 16.4961 150.167 16.5937C158.485 16.7385 159.763 17.7869 160.556 26.2302C161.925 40.9887 160.263 55.5678 157.537 70.0682C157.153 72.1239 155.988 74.1167 156.791 76.61C160.657 77.0886 164.321 75.5239 168.124 75.2186C172.453 74.866 176.624 75.5145 178.444 80.0604C180.333 84.7826 177.185 87.8206 173.747 90.336C171.973 91.581 170.074 92.6362 168.08 93.4841C145.099 103.873 121.991 114.082 99.101 124.711C90.8424 128.573 81.7621 130.35 72.6566 129.886C63.8733 129.464 58.5277 133.903 53.7677 140.074C51.0005 143.656 48.2364 147.27 46.8859 152.433C52.647 154.045 58.4018 155.481 64.0401 157.284C69.9996 159.173 75.9433 161.239 81.1598 164.84C84.0655 166.855 86.8768 169.137 86.1716 173.195C85.4381 177.398 82.079 179.063 78.4177 180.105C72.0648 181.912 65.5386 181.635 59.0881 181.072C41.1972 179.498 23.6368 175.94 6.1992 171.738C3.41624 171.067 0.715124 170.576 1.05198 166.527C3.29975 139.349 9.71253 113.733 27.2886 91.8785C33.9186 83.6367 41.8488 79.3867 52.4927 80.1234C56.9757 80.4319 61.5027 80.1706 66.7727 80.1706ZM40.917 173.041C38.4362 156.091 42.8846 142.104 55.326 130.856C53.4372 130.141 53.2388 130.072 53.0373 129.987C49.8892 128.655 43.3883 131.504 43.7944 127.251C44.3264 121.701 50.459 125.047 54.0857 125.126C69.4392 125.441 84.5031 125.614 99.2018 119.249C121.796 109.48 143.43 97.69 166.39 88.765C169.462 87.5687 172.834 86.0923 173.687 82.3806C172.982 80.7593 171.782 80.1611 170.448 80.3091C156.281 81.8832 142.375 84.94 128.631 88.6989C128.061 88.8532 127.532 89.401 127.129 89.8858C122.895 94.9858 116.935 96.9156 110.938 98.8265C100.864 102.028 90.1194 102.655 80.4168 107.191C78.8585 107.918 76.8185 108.384 75.9779 106.212C75.1153 103.983 77.1112 103.215 78.6601 102.538C84.407 100.047 90.4157 98.2094 96.5731 97.0604C103.773 95.6721 111.007 94.3152 117.578 90.8271C120.143 89.4639 123.742 88.4911 122.492 84.4206C121.387 80.8254 117.999 80.8443 114.958 80.6995C113.879 80.6926 112.8 80.7769 111.735 80.9513C90.9568 83.5328 70.179 86.4008 49.1242 85.3587C42.5761 85.0439 37.6177 87.8773 33.3362 92.7317C15.6216 112.814 9.04197 137.095 6.4416 162.935C6.25901 164.764 6.38179 166.496 8.66105 166.93C18.9775 168.898 29.3003 170.847 40.917 173.054V173.041ZM113.485 31.5789C111.949 44.2408 111.196 56.4493 112.147 68.7428C112.484 73.0967 113.85 76.2417 119.032 76.1252C121.236 76.0748 123.713 76.7171 124.699 78.6878C127.362 83.9326 131.259 82.9315 135.598 81.6282C139.095 80.5415 142.675 79.7372 146.301 79.223C149.172 78.8421 150.463 77.3121 151.096 74.8156C155.132 58.7978 156.763 42.5691 155.484 26.0634C155.233 22.8491 153.791 21.5993 150.545 21.6371C139.785 21.7598 129.024 21.6843 118.226 21.6843C117.93 26.948 118.925 30.0489 124.585 30.3417C127.988 30.518 129.345 33.7889 129.566 37.0221C129.707 39.0778 127.245 40.9887 126.644 39.5406C124.151 33.4584 116.724 36.2571 113.485 31.5789ZM108.08 75.9678C105.293 59.6919 107.352 43.6363 107.765 27.4863C97.1209 29.2461 97.1209 29.2461 98.2259 39.1722C98.2479 39.3863 98.2983 39.6004 98.3109 39.8019C98.3959 41.3539 98.4399 43.0224 96.5794 43.5104C94.7188 43.9984 93.9696 42.6163 93.4564 41.0611C91.281 34.45 88.6744 27.7854 98.2101 23.4819C89.1999 23.5142 80.2226 24.5703 71.4509 26.63C68.9103 27.2313 66.9522 28.1254 66.9962 31.1822C67.2449 47.5998 69.7005 63.7341 72.3701 80.136C84.8242 79.6039 96.252 77.6143 108.08 75.9647V75.9678ZM106.109 16.8519C103.398 13.518 101.261 10.691 98.9059 8.06225C97.3003 6.27095 95.2729 4.88892 92.6599 5.72318C91.0575 6.23318 90.4247 7.66559 90.3083 9.26484C90.0973 12.0982 91.026 14.3837 93.6925 15.6398C97.2405 17.3052 100.899 18.448 106.109 16.8487V16.8519ZM116.469 16.4615C119.448 16.4615 122.023 16.7071 124.525 16.386C126.594 16.1215 127.913 14.5223 128.051 12.3752C128.133 11.5115 127.973 10.6422 127.589 9.86409C127.206 9.08595 126.614 8.42951 125.879 7.96781C123.754 6.63299 122.164 8.0654 120.867 9.48207C119.167 11.3521 117.294 13.1402 116.469 16.4584V16.4615Z" fill="url(#paint0_linear_3284_15952)"/>
<path d="M67.2356 181.648C64.4023 181.648 61.6445 181.446 59.0693 181.223C39.3903 179.501 20.4541 175.33 6.1584 171.885L5.86248 171.813C3.13303 171.161 0.557855 170.554 0.891559 166.512C2.15082 151.448 4.54971 138.575 8.27082 127.16C12.6467 113.72 18.8266 102.148 27.1597 91.784C34.2116 83.0133 42.2708 79.2607 52.4928 79.969C55.5277 80.1799 58.6097 80.1296 61.8712 80.076C63.3886 80.0509 64.9564 80.0225 66.5934 80.0225C66.118 75.889 65.6206 71.7933 65.139 67.8266C64.0403 58.7599 63.0014 50.197 62.2238 41.4798C60.6214 23.4975 60.9267 23.0946 78.5941 19.9433C80.4547 19.6285 82.3341 19.3357 84.3238 19.046C85.2399 18.9138 86.1812 18.7753 87.1571 18.6242C86.9525 17.8938 86.7258 17.1572 86.4866 16.3796C84.7205 10.6185 82.7088 4.10179 90.2643 1.28734C99.6427 -2.20395 104.462 4.75031 109.125 11.4622C109.594 12.139 110.069 12.8127 110.532 13.4738C112.106 12.1705 113.403 10.4516 114.669 8.78937C117.682 4.8353 120.798 0.749004 127.334 2.49308C131.017 3.48474 133.022 7.90789 133.63 16.4047C135.28 16.4047 136.937 16.4047 138.601 16.4047C142.379 16.389 146.295 16.3733 150.152 16.4394C158.617 16.5873 159.911 17.7742 160.679 26.2175C161.875 39.0966 160.943 52.6305 157.66 70.0964C157.543 70.6701 157.397 71.2374 157.222 71.7964C156.797 73.2477 156.357 74.7431 156.879 76.4683C159.215 76.739 161.523 76.251 163.758 75.782C165.18 75.4505 166.621 75.2097 168.074 75.061C171.612 74.7746 176.552 74.9729 178.551 80.0005C180.44 84.7416 177.38 87.8268 173.8 90.4586C172.024 91.6994 170.126 92.7543 168.134 93.6068C160.622 97.0131 152.963 100.445 145.577 103.766C130.334 110.61 114.568 117.684 99.1579 124.858C90.8748 128.722 81.7722 130.5 72.6441 130.037C63.3697 129.59 58.1469 134.643 53.8812 140.165C51.2053 143.628 48.438 147.217 47.0654 152.323C48.7812 152.801 50.5284 153.267 52.2032 153.727C56.1164 154.788 60.1649 155.883 64.078 157.133C70.1508 159.073 76.041 161.113 81.2417 164.717C84.201 166.767 87.0312 169.125 86.3166 173.217C85.5421 177.662 81.9091 179.268 78.4462 180.25C74.7188 181.311 70.9095 181.648 67.2356 181.648ZM50.116 80.1894C41.0997 80.1894 33.8338 83.9672 27.4021 91.9729C11.9573 111.177 3.876 134.158 1.19693 166.537C0.882114 170.315 3.22434 170.869 5.91915 171.514L6.23397 171.586C20.5203 175.027 39.4406 179.199 59.0977 180.918C64.9784 181.431 71.8036 181.821 78.3706 179.954C81.736 179.01 85.2714 177.436 86.0175 173.167C86.7006 169.228 84.0656 167.04 81.0686 164.982C75.8962 161.399 70.0501 159.368 63.9899 157.426C60.0799 156.167 56.0377 155.084 52.1277 154.023C50.3962 153.557 48.6049 153.078 46.8419 152.578L46.694 152.537L46.7349 152.389C48.1075 147.147 50.9219 143.502 53.6419 139.979C57.958 134.388 63.2469 129.275 72.663 129.729C81.7421 130.187 90.7952 128.415 99.0319 124.569C114.458 117.413 130.199 110.336 145.455 103.476C152.853 100.158 160.5 96.7234 168.011 93.3266C169.987 92.4801 171.872 91.4325 173.634 90.2005C176.876 87.8173 180.179 84.877 178.28 80.1044C176.797 76.3707 173.662 74.9068 168.115 75.357C166.677 75.5046 165.25 75.7433 163.843 76.0716C161.554 76.5533 159.187 77.0507 156.766 76.7485H156.668L156.637 76.6572C156.042 74.8029 156.501 73.232 156.952 71.7114C157.124 71.1621 157.268 70.6041 157.383 70.0397C160.663 52.6022 161.592 39.0966 160.399 26.2459C159.631 17.9568 158.482 16.8896 150.17 16.7479C146.317 16.6786 142.407 16.6975 138.626 16.7133C136.917 16.7133 135.21 16.729 133.51 16.729H133.369V16.5842C132.774 8.14401 130.85 3.76494 127.28 2.80475C120.94 1.09845 118.025 4.92661 114.94 8.97512C113.627 10.6972 112.27 12.479 110.627 13.817L110.497 13.9209L110.403 13.7855C109.899 13.0835 109.399 12.3625 108.898 11.6353C104.302 5.02419 99.5514 -1.83247 90.3997 1.57697C83.1369 4.28123 85.0101 10.3918 86.8203 16.2883C87.0784 17.1288 87.3208 17.9222 87.5412 18.7092L87.5853 18.876L87.4153 18.9044L84.4025 19.3514C82.416 19.641 80.5365 19.9149 78.6823 20.2455C69.8517 21.8196 65.5167 22.6916 63.5051 25.3109C61.4556 27.9805 61.7516 32.432 62.5606 41.4514C63.3382 50.1655 64.3771 58.7253 65.4758 67.792C65.9638 71.809 66.4675 75.9771 66.9491 80.1579L66.968 80.3279H66.798C65.098 80.3279 63.4736 80.3562 61.9027 80.3814C58.6349 80.4349 55.5466 80.4884 52.5023 80.2775C51.6859 80.2188 50.8904 80.1894 50.116 80.1894ZM41.1028 173.245L31.6584 171.454C23.6716 169.94 16.1286 168.511 8.61711 167.072C6.23711 166.615 6.09859 164.802 6.27488 162.91C7.72303 148.517 10.273 136.318 14.0634 125.614C18.5621 112.921 24.8238 102.129 33.2073 92.6214C37.9453 87.2507 43.0012 84.8927 49.1212 85.1981C68.7153 86.174 88.4006 83.7122 107.437 81.329L111.722 80.797L112.144 80.7435C113.081 80.5947 114.029 80.5294 114.977 80.5483L115.405 80.5671C118.292 80.6962 121.566 80.8442 122.646 84.3733C123.757 87.9999 121.11 89.2781 118.774 90.4051C118.384 90.594 118.012 90.7735 117.656 90.9623C111.168 94.4064 103.94 95.7979 96.9447 97.1453L96.6078 97.2114C90.4607 98.3546 84.4623 100.188 78.7264 102.677L78.5469 102.755C77.0484 103.41 75.3515 104.153 76.126 106.158C76.22 106.452 76.3745 106.722 76.5795 106.952C76.7845 107.182 77.0354 107.366 77.316 107.493C78.0653 107.808 79.0884 107.644 80.3571 107.053C86.2221 104.31 92.5656 102.96 98.7014 101.679C102.737 100.829 106.909 99.9503 110.897 98.6785C116.737 96.821 122.778 94.9007 127.016 89.7881C127.387 89.341 127.96 88.724 128.59 88.5508C144.375 84.2316 157.685 81.5557 170.432 80.1547C171.94 79.9879 173.149 80.756 173.829 82.3175L173.848 82.3647V82.4151C173.004 86.0827 169.868 87.5781 166.453 88.9066C152.963 94.1483 139.741 100.47 126.937 106.59C117.918 110.9 108.596 115.357 99.2649 119.4C84.2136 125.916 68.8979 125.598 54.0827 125.287C52.9862 125.214 51.8987 125.041 50.8338 124.77C48.6647 124.298 46.4264 123.826 45.1104 124.77C44.443 125.258 44.0621 126.08 43.9456 127.289C43.8764 128.016 44.0117 128.548 44.358 128.91C45.123 129.707 46.8356 129.618 48.6458 129.54C50.2419 129.458 51.8947 129.373 53.0973 129.883C53.2106 129.93 53.324 129.974 53.7269 130.128L55.3671 130.758L55.6032 130.846L55.4175 131.013C43.2247 142.032 38.5308 155.792 41.0588 173.066L41.1028 173.245ZM48.1012 85.4783C42.5321 85.4783 37.854 87.8331 33.4497 92.826C17.9923 110.352 9.70952 131.976 6.596 162.942C6.39137 164.96 6.67156 166.386 8.68952 166.77C16.201 168.208 23.744 169.641 31.7277 171.152L40.7345 172.852C38.2727 155.657 42.954 141.934 55.0366 130.912L53.6325 130.38C53.2075 130.22 53.091 130.176 52.9777 130.128C51.8412 129.644 50.223 129.729 48.6616 129.814C46.7727 129.911 44.9971 130.003 44.1377 129.102C43.7253 128.671 43.5616 128.063 43.6403 127.242C43.7662 125.948 44.1849 125.054 44.9278 124.512C46.354 123.473 48.6647 123.977 50.9093 124.462C51.9554 124.731 53.024 124.902 54.1016 124.975C68.879 125.29 84.1632 125.605 99.1516 119.11C108.476 115.071 117.798 110.61 126.814 106.306C139.621 100.183 152.865 93.8555 166.342 88.6138C169.661 87.3231 172.708 85.8749 173.536 82.3899C172.906 80.9701 171.845 80.3027 170.473 80.4538C157.729 81.861 144.447 84.5275 128.681 88.8405C128.124 88.9916 127.601 89.5614 127.258 89.977C122.961 95.1557 116.869 97.0918 110.995 98.9649C106.99 100.224 102.81 101.121 98.7675 101.975C92.6475 103.262 86.3229 104.597 80.4893 107.326C79.1388 107.956 78.0338 108.107 77.2058 107.773C76.8837 107.634 76.5948 107.428 76.3582 107.168C76.1216 106.909 75.9427 106.602 75.8332 106.269C74.9517 103.989 76.8721 103.149 78.4178 102.491L78.5973 102.412C84.3524 99.9115 90.3723 98.0707 96.5417 96.9249L96.8786 96.8588C103.849 95.5177 111.045 94.1294 117.502 90.7073C117.864 90.5122 118.255 90.3264 118.632 90.1438C120.965 89.0168 123.377 87.8551 122.341 84.4772C121.321 81.1527 118.299 81.0142 115.374 80.8851L114.949 80.8662C114.02 80.8513 113.091 80.9166 112.172 81.0614L111.75 81.1149L107.488 81.647C88.4353 84.0301 68.7373 86.4951 49.1149 85.5192C48.7749 85.4877 48.4443 85.4783 48.1012 85.4783ZM130.45 82.837C128.225 82.837 126.172 81.8925 124.576 78.7444C123.757 77.1325 121.686 76.2038 119.035 76.2636C113.369 76.3927 112.289 72.5331 111.996 68.7427C111.149 57.8344 111.574 46.0162 113.334 31.5505L113.381 31.1475L113.611 31.5001C115.062 33.5936 117.329 34.1446 119.731 34.7301C122.527 35.4101 125.417 36.1153 126.811 39.4775C126.836 39.5542 126.876 39.6251 126.929 39.6862C126.981 39.7472 127.045 39.7972 127.117 39.8333C127.189 39.8693 127.268 39.8907 127.348 39.8961C127.429 39.9015 127.509 39.8908 127.586 39.8647C128.395 39.6727 129.531 38.3977 129.44 37.0314C129.311 35.1425 128.58 30.7036 124.601 30.4959C122.237 30.3731 120.584 29.7529 119.545 28.607C118.333 27.2564 117.902 25.1881 118.097 21.681V21.5362H118.242C121.235 21.5362 124.228 21.5362 127.22 21.5362C134.874 21.552 142.785 21.5677 150.558 21.4764C153.92 21.4355 155.396 22.7609 155.655 26.0444C156.895 41.9362 155.418 58.3538 151.247 74.8407C150.548 77.6173 149.043 79.012 146.327 79.3709C142.7 79.8828 139.121 80.685 135.623 81.7697C133.907 82.3018 132.128 82.837 130.45 82.837ZM119.278 75.9677C121.928 75.9677 124 76.9499 124.85 78.6185C127.532 83.8979 131.618 82.6701 135.554 81.4801C139.063 80.3904 142.654 79.584 146.292 79.0686C148.886 78.7255 150.281 77.441 150.954 74.7714C155.104 58.3097 156.58 41.9236 155.34 26.0664C155.097 22.9466 153.766 21.744 150.555 21.7818C142.779 21.8699 134.867 21.8542 127.214 21.8385C124.276 21.8385 121.331 21.8385 118.38 21.8385C118.21 25.1629 118.623 27.1273 119.759 28.3929C120.738 29.4822 122.322 30.0709 124.601 30.1905C127.532 30.3416 129.449 32.8916 129.73 37.0094C129.827 38.4638 128.669 39.9246 127.639 40.1575C127.414 40.2271 127.172 40.2069 126.961 40.1012C126.751 39.9956 126.59 39.8127 126.512 39.5909C125.177 36.3703 122.489 35.7155 119.64 35.0229C117.408 34.4783 115.1 33.9147 113.576 31.9818C111.861 46.2555 111.448 57.9414 112.286 68.7301C112.582 72.5646 113.602 76.0936 119.013 75.9709L119.278 75.9677ZM72.2538 80.2964L72.2317 80.1642C69.5401 63.627 67.1003 47.4235 66.8547 31.1885C66.8075 27.8546 69.0867 27.036 71.4258 26.4851C80.2053 24.4215 89.1915 23.3653 98.2103 23.337H98.9406L98.2764 23.6518C89.1971 27.7444 91.2277 33.8738 93.3778 40.359L93.6045 41.0422C94.1901 42.8146 94.8858 43.8251 96.5449 43.3907C98.2039 42.9562 98.2543 41.5836 98.1599 39.8396C98.1514 39.7172 98.1367 39.5953 98.1158 39.4744C98.1158 39.3862 98.0843 39.2949 98.0749 39.2068C96.9636 29.2272 97.0549 29.117 107.746 27.3509L107.929 27.3194V27.5051C107.825 31.5977 107.614 35.7407 107.403 39.7514C106.792 51.579 106.144 63.8064 108.237 75.9551L108.262 76.1125L108.105 76.1346C105.728 76.4494 103.326 76.8177 101.006 77.1546C91.829 78.4957 82.3404 79.884 72.3986 80.3216L72.2538 80.2964ZM97.5082 23.6518C88.7488 23.7269 80.025 24.7775 71.4982 26.7842C68.7908 27.4138 67.1223 28.3803 67.1632 31.1916C67.4056 47.3762 69.8297 63.5105 72.5151 79.9879C82.394 79.5471 91.829 78.1683 100.955 76.8397C103.225 76.506 105.571 76.1629 107.9 75.8386C105.851 63.7151 106.48 51.5223 107.088 39.7294C107.293 35.7816 107.504 31.7016 107.611 27.6783C102.454 28.5314 99.8536 28.9753 98.7108 30.3731C97.568 31.7709 97.8325 34.2516 98.396 39.1659C98.396 39.2509 98.4212 39.3359 98.4338 39.4209C98.4464 39.5059 98.4747 39.679 98.4841 39.8144C98.5597 41.2216 98.6636 43.1483 96.6362 43.6803C94.6088 44.2123 93.869 42.7673 93.3306 41.1303L93.104 40.4472C91.0388 34.2642 88.9201 27.8797 97.5082 23.6644V23.6518ZM101.333 17.771C98.588 17.771 96.1702 16.9683 93.636 15.7751C91.1017 14.582 89.9275 12.3877 90.173 9.24901C90.3178 7.30975 91.1678 6.04105 92.6317 5.57198C94.8669 4.86049 96.9604 5.63808 99.0382 7.95512C100.666 9.7716 102.218 11.7329 103.864 13.7855C104.617 14.7299 105.404 15.7185 106.244 16.751L106.389 16.9305L106.172 16.9966C104.607 17.4967 102.976 17.7578 101.333 17.771ZM94.2153 5.6192C93.705 5.62228 93.1983 5.70513 92.7136 5.86475C91.0262 6.40309 90.5602 8.01494 90.4658 9.27105C90.2454 12.2681 91.3536 14.3648 93.7651 15.4981C97.5429 17.2799 101.072 18.1772 105.851 16.7573C105.061 15.7846 104.321 14.8685 103.609 13.9618C101.969 11.9029 100.417 9.95734 98.7958 8.1503C97.2595 6.4503 95.7736 5.6192 94.209 5.6192H94.2153ZM121.481 16.7038C120.713 16.7038 119.932 16.6849 119.133 16.6629C118.273 16.6409 117.382 16.6157 116.457 16.6157H116.259L116.306 16.4268C117.074 13.3447 118.72 11.5629 120.317 9.84086L120.742 9.38123C121.721 8.31086 123.54 6.32438 125.949 7.83864C126.707 8.31411 127.319 8.99092 127.715 9.79361C128.111 10.5963 128.277 11.4933 128.193 12.3846C128.048 14.6418 126.619 16.2725 124.532 16.5401C123.52 16.6585 122.501 16.7132 121.481 16.7038ZM116.655 16.3103C117.515 16.3103 118.34 16.3355 119.142 16.3544C120.927 16.4501 122.716 16.4101 124.494 16.2348C126.449 15.986 127.749 14.5033 127.888 12.3657C127.967 11.5296 127.813 10.6879 127.441 9.93464C127.07 9.18137 126.496 8.54616 125.785 8.09994C123.764 6.84068 122.237 8.20068 120.968 9.58587C120.827 9.74327 120.685 9.90067 120.54 10.0518C119.02 11.7046 117.436 13.4172 116.668 16.3072L116.655 16.3103Z" fill="url(#paint1_linear_3284_15952)"/>
<defs>
<linearGradient id="paint0_linear_3284_15952" x1="179" y1="110.5" x2="12.5" y2="109" gradientUnits="userSpaceOnUse">
<stop stop-color="#0037EB"/>
<stop offset="1" stop-color="#0037EB" stop-opacity="0.3"/>
</linearGradient>
<linearGradient id="paint1_linear_3284_15952" x1="195.5" y1="122.5" x2="0.999988" y2="118.5" gradientUnits="userSpaceOnUse">
<stop stop-color="#0037EB"/>
<stop offset="1" stop-color="#0037EB" stop-opacity="0"/>
</linearGradient>
</defs>
</svg>
