<svg width="52" height="31" viewBox="0 0 52 31" fill="none" xmlns="http://www.w3.org/2000/svg">
<path d="M40.3008 19.6245C42.558 19.6245 44.7106 19.6727 46.8648 19.6082C48.28 19.5649 49.5947 19.1885 50.4652 17.8933C51.5921 16.2168 51.0556 13.9385 48.6385 13.8103C43.9985 13.5726 39.3871 12.8467 34.7234 12.8916C34.1763 12.8973 33.6128 12.9406 32.9358 12.5053C34.2187 11.122 35.4804 9.77456 36.7249 8.41164C37.4648 7.60074 37.8951 6.65511 37.7302 5.5339C37.3512 2.96483 34.8238 1.84036 32.5708 3.27351C30.7293 4.44454 29.2537 6.06143 27.881 7.7118C26.0951 9.85868 24.1409 10.8027 21.3685 9.76476C19.8757 9.20865 18.2793 8.89017 16.7081 8.57251C15.5273 8.33406 15.021 7.85797 15.2325 6.55874C15.4628 5.14192 15.4252 3.6859 14.9875 2.28215C14.4567 0.604009 13.5103 0.225917 11.9546 1.07274C10.9641 1.61416 10.2005 2.43077 9.48028 3.26372C5.00606 8.42634 2.02869 14.3362 0.644531 21.1312C1.91191 21.822 3.3222 21.8008 4.64593 21.9699C11.0376 22.7865 17.1042 24.3544 22.4424 28.2512C24.7852 29.9612 27.587 30.8391 30.5856 30.6586C32.1266 30.5663 33.563 30.185 34.3183 28.6244C34.529 28.1892 34.8295 27.9197 35.3146 27.8625C35.4232 27.8495 35.5245 27.7809 35.6323 27.7686C37.7938 27.4461 36.7159 24.6777 38.5166 24.0057C40.2094 23.3744 40.6177 22.2793 40.3008 19.6245ZM2.17568 20.2386C3.14745 15.9833 4.8313 12.2914 6.95123 8.7587C7.60942 7.66199 8.23167 7.39087 9.47047 7.78611C13.5323 9.08207 17.6774 10.0906 21.7915 11.2044C24.4341 11.9198 26.4144 11.291 28.1652 9.29929C29.3705 7.9282 30.6607 6.62571 31.9828 5.36567C33.6422 3.7839 34.9292 3.54708 35.8822 4.51885C36.8752 5.53145 36.6408 6.67552 35.05 8.40184C34.0007 9.54101 32.8452 10.5944 31.8808 11.7989C31.0527 12.8295 31.4145 13.7221 32.7064 13.9858C33.5646 14.1614 34.467 14.1622 35.3497 14.1712C39.7333 14.2137 44.0793 14.7526 48.4351 15.1462C49.8176 15.2712 50.1631 16.2078 49.3015 17.3103C49.0943 17.5734 48.8351 17.7911 48.54 17.9497C48.245 18.1083 47.9205 18.2045 47.5867 18.2322C46.7618 18.327 45.932 18.3734 45.1017 18.371C41.7789 18.3384 38.4569 18.2485 35.1341 18.2453C34.5192 18.2453 33.3874 17.8108 33.4282 18.8847C33.465 19.8646 34.5715 19.4212 35.2248 19.4882C35.9422 19.5501 36.6627 19.5676 37.3823 19.5404C38.4488 19.5184 39.0972 19.9838 39.1306 21.074C39.1658 22.1928 38.5631 22.8567 37.4517 22.9457C36.7396 23.0029 36.0161 22.9171 35.2975 22.9147C34.9422 22.9147 34.6344 23.0372 34.5952 23.452C34.5775 23.592 34.6151 23.7333 34.6998 23.8461C34.7846 23.9589 34.9099 24.0343 35.0492 24.0563C35.834 24.2278 36.4375 24.4956 36.119 25.487C35.8389 26.3673 35.166 26.6662 34.3347 26.7021C33.7815 26.7184 33.2279 26.7053 32.6761 26.6629C32.2776 26.6384 31.8285 26.5813 31.6791 27.0304C31.4863 27.6077 31.9673 27.7768 32.3936 27.9344C32.5945 28.0087 32.8297 28.0446 32.864 28.4897C32.2229 29.2565 31.2503 29.3626 30.2614 29.3782C27.3167 29.4231 24.7215 28.337 22.355 26.7209C18.2638 23.9265 13.8696 21.9845 8.90865 21.3745C6.72258 21.1067 4.56019 20.6478 2.17568 20.2386Z" fill="#0037EB"/>
<path d="M51.0692 16.1317C51.0735 15.7535 50.9897 15.3793 50.8242 15.0391C50.4428 14.2764 49.6679 13.8281 48.6414 13.775C46.8448 13.6835 45.0197 13.5153 43.2567 13.3528C40.4663 13.0948 37.5812 12.8294 34.7231 12.8563L34.6014 12.8563C34.1114 12.8637 33.5986 12.871 33 12.5011C33.3697 12.102 33.738 11.7054 34.1049 11.3113C34.9787 10.3722 35.881 9.40123 36.7556 8.44334C37.5951 7.52792 37.9217 6.57575 37.769 5.53457C37.5886 4.30965 36.9108 3.3485 35.9071 2.88956C34.8725 2.41593 33.6476 2.54577 32.5476 3.24561C30.68 4.43378 29.1848 6.08497 27.848 7.69206C25.8881 10.0455 23.8972 10.6751 21.3821 9.73359C19.8975 9.17748 18.3002 8.85492 16.7551 8.54297L16.7151 8.5348C15.4543 8.28002 15.077 7.76556 15.2714 6.56759C15.5204 5.03725 15.4347 3.59185 15.0215 2.27221C14.7528 1.41558 14.3772 0.900299 13.8741 0.696963C13.3711 0.493626 12.7309 0.604686 11.9363 1.03912C10.9205 1.59197 10.1496 2.42736 9.4481 3.23908C7.24346 5.76901 5.36778 8.56771 3.86574 11.5685C2.36881 14.5985 1.27217 17.8102 0.603372 21.1229L0.597656 21.1523L0.623787 21.167C1.62659 21.7141 2.72085 21.8203 3.77999 21.9191C4.06417 21.946 4.35815 21.9738 4.64152 22.0097C12.334 22.9897 17.8167 24.9242 22.42 28.2838C24.7733 30.024 27.6647 30.8793 30.5861 30.6993C31.9972 30.6176 33.5488 30.304 34.3531 28.6422C34.5728 28.1898 34.879 27.9547 35.3176 27.9024C35.3774 27.8934 35.4359 27.8767 35.4915 27.8526C35.5383 27.8329 35.587 27.8181 35.6368 27.8085C36.8111 27.6337 37.0537 26.7404 37.2889 25.8764C37.493 25.1267 37.7045 24.3518 38.5285 24.0439C40.214 23.4143 40.6574 22.3478 40.3422 19.6644C41.0061 19.6644 41.6683 19.6693 42.3094 19.6734C43.8765 19.6832 45.357 19.693 46.8612 19.6481C48.5761 19.5958 49.7348 19.0454 50.4943 17.916C50.858 17.3912 51.0581 16.7703 51.0692 16.1317ZM32.8718 12.5182L32.9126 12.5452C33.5496 12.9535 34.0845 12.947 34.6006 12.9396L34.7222 12.9396C37.5763 12.9127 40.4598 13.1781 43.2477 13.4353C45.0116 13.5986 46.8367 13.7619 48.6373 13.8583C49.6328 13.9097 50.3832 14.3425 50.7507 15.0775C51.159 15.8941 51.039 16.9696 50.4314 17.8736C49.6875 18.9793 48.5532 19.5182 46.8636 19.5697C45.3611 19.6146 43.8814 19.6048 42.3151 19.595C41.6618 19.595 40.9808 19.586 40.3013 19.586L40.2548 19.586L40.2605 19.6317C40.5806 22.3004 40.1543 23.3547 38.5048 23.9704C37.6408 24.2971 37.4244 25.0884 37.2154 25.8584C36.9761 26.7355 36.7507 27.5643 35.6295 27.7309C35.5736 27.7417 35.5188 27.7581 35.4662 27.7799C35.417 27.8009 35.3654 27.816 35.3127 27.8248C34.8431 27.8803 34.5165 28.1294 34.2837 28.6096C33.4973 30.2338 31.9735 30.5376 30.5853 30.6209C27.6817 30.801 24.8076 29.9512 22.469 28.2209C17.8543 24.8532 12.3593 22.9129 4.65295 21.933C4.36795 21.8962 4.07316 21.8684 3.78816 21.8415C2.74698 21.7427 1.6715 21.6398 0.689934 21.1139C2.04714 14.4765 5.01798 8.48091 9.50934 3.29379C10.2067 2.48943 10.9711 1.66056 11.9755 1.1118C12.7505 0.689612 13.3638 0.579371 13.8431 0.773724C14.3225 0.968078 14.6826 1.46539 14.9439 2.29752C15.3522 3.6041 15.4379 5.03725 15.1889 6.55534C14.9586 7.97134 15.5972 8.39353 16.6963 8.61565L16.7372 8.62381C18.2781 8.93494 19.8722 9.25751 21.351 9.81117C23.9038 10.7666 25.9241 10.1305 27.9084 7.74596C29.2411 6.14376 30.7306 4.49829 32.5893 3.31584C33.6647 2.63151 34.8611 2.50331 35.8712 2.96551C36.8512 3.4122 37.5102 4.35375 37.6857 5.54764C37.8401 6.56187 37.5134 7.49444 36.6968 8.39271C35.823 9.3506 34.9199 10.3216 34.0469 11.2598L32.9085 12.4848L32.8718 12.5182ZM49.8108 16.1979C49.8117 16.0675 49.7859 15.9382 49.7348 15.8182C49.5617 15.4188 49.1012 15.1649 48.4372 15.1061C47.4483 15.0171 46.4431 14.9183 45.4713 14.8235C42.1616 14.4969 38.7383 14.1637 35.3453 14.131L35.2392 14.131C34.398 14.1229 33.5292 14.1147 32.7077 13.9473C32.0838 13.8199 31.6632 13.539 31.5236 13.1487C31.3839 12.7583 31.5236 12.3125 31.9115 11.8225C32.5288 11.0532 33.2352 10.333 33.9187 9.6356C34.3033 9.24362 34.701 8.83858 35.0791 8.42783C36.6731 6.69824 36.9214 5.51987 35.9104 4.48849C34.9305 3.48488 33.5953 3.76987 31.9531 5.3345C30.4587 6.75949 29.2093 8.04647 28.1338 9.27057C26.3626 11.2852 24.4101 11.869 21.801 11.1635C20.6986 10.8646 19.5757 10.569 18.4896 10.2832C15.5221 9.50167 12.454 8.69323 9.4824 7.74514C8.24359 7.35072 7.59602 7.6006 6.91497 8.73569C4.53944 12.6946 3.02054 16.3465 2.13452 20.2279L2.12472 20.2703L2.16718 20.2777C2.92663 20.4075 3.66812 20.5439 4.3851 20.6754C5.94157 20.9612 7.41065 21.2307 8.90178 21.4103C13.5034 21.9746 17.896 23.7205 22.3293 26.7493C25.0135 28.5826 27.6079 29.4548 30.2603 29.4139C31.1806 29.4001 32.2201 29.3176 32.8938 28.5157L32.9045 28.5026L32.9045 28.4863C32.871 28.0559 32.6546 27.9816 32.4643 27.9146C32.4447 27.9081 32.4259 27.9008 32.4071 27.8942L32.39 27.8877C31.9727 27.7334 31.5399 27.5741 31.7171 27.0417C31.8486 26.6481 32.2316 26.6734 32.6023 26.6979L32.6734 26.6979C33.2265 26.7402 33.7815 26.7533 34.336 26.7371C35.3086 26.6946 35.9047 26.288 36.157 25.4942C36.2795 25.1096 36.2746 24.8115 36.1415 24.5812C35.9472 24.2448 35.5054 24.1084 35.0571 24.0096C34.9272 23.9902 34.8102 23.9205 34.7314 23.8155C34.6525 23.7105 34.6181 23.5787 34.6357 23.4486C34.6667 23.1162 34.8896 22.948 35.2971 22.9488C35.5617 22.9488 35.832 22.9619 36.0933 22.9741C36.5465 23.0042 37.0012 23.0061 37.4546 22.9799C38.5979 22.8876 39.2071 22.2082 39.1695 21.0657C39.136 19.9984 38.5342 19.4692 37.3795 19.4929C36.6616 19.5197 35.9427 19.5025 35.2269 19.4415C35.0319 19.4294 34.8362 19.4349 34.6422 19.4578C34.2584 19.4905 33.8624 19.524 33.6451 19.3321C33.5349 19.2341 33.4769 19.0871 33.4696 18.8764C33.4598 18.6265 33.5137 18.4509 33.6329 18.3407C33.8591 18.1333 34.296 18.1896 34.6814 18.2386C34.831 18.2614 34.9818 18.275 35.133 18.2794C37.1361 18.2794 39.1728 18.3154 41.1424 18.348C42.44 18.3693 43.7809 18.3921 45.1006 18.4052C45.9322 18.4074 46.7633 18.361 47.5896 18.2664C47.9285 18.2376 48.2579 18.1396 48.5574 17.9783C48.8569 17.8171 49.1201 17.596 49.3306 17.3289C49.6483 16.9328 49.8108 16.5409 49.8108 16.1979ZM31.3945 12.8392C31.3939 12.9539 31.4135 13.0678 31.4525 13.1756C31.602 13.5905 32.0438 13.8926 32.697 14.0265C33.5251 14.1956 34.398 14.2037 35.2424 14.2119L35.3486 14.2119C38.7343 14.2446 42.155 14.5794 45.4631 14.9036C46.4357 14.9991 47.441 15.0971 48.4299 15.1869C49.0628 15.2441 49.4988 15.4793 49.6597 15.8492C49.8279 16.2371 49.6883 16.7475 49.2686 17.2848C49.0646 17.5433 48.8098 17.7572 48.5199 17.9132C48.23 18.0693 47.9111 18.1642 47.5831 18.1921C46.7598 18.2867 45.9317 18.333 45.103 18.3309C43.7834 18.3178 42.4425 18.295 41.1457 18.2737C39.176 18.2411 37.1386 18.2076 35.1346 18.2051C34.987 18.2005 34.8397 18.1871 34.6937 18.1651C34.2903 18.1137 33.8338 18.0549 33.5798 18.2876C33.4402 18.415 33.3773 18.6142 33.3879 18.887C33.3969 19.1189 33.463 19.2871 33.5912 19.4006C33.8362 19.6154 34.2445 19.5803 34.6487 19.5468C34.8384 19.524 35.0297 19.5182 35.2204 19.5297C35.9397 19.5913 36.6621 19.6088 37.3836 19.5819C38.4844 19.5599 39.0585 20.0621 39.0903 21.0763C39.1246 22.1673 38.5415 22.8182 37.4489 22.9055C36.999 22.9318 36.5479 22.9299 36.0982 22.8998C35.8361 22.8876 35.565 22.8753 35.298 22.8745C34.8472 22.8745 34.5908 23.0713 34.5548 23.4461C34.5363 23.5967 34.577 23.7486 34.6685 23.8696C34.7599 23.9906 34.8949 24.0713 35.0448 24.0945C35.4752 24.1884 35.8973 24.3175 36.0754 24.6261C36.1962 24.8352 36.1995 25.112 36.0844 25.473C35.8394 26.2414 35.2849 26.6162 34.3376 26.6595C33.7858 26.6761 33.2335 26.663 32.6832 26.6203L32.6129 26.6203C32.2299 26.595 31.7963 26.5664 31.6444 27.0196C31.4427 27.6272 31.9547 27.8166 32.3671 27.9685L32.3835 27.9751C32.4031 27.9824 32.4227 27.989 32.4423 27.9955C32.6227 28.0584 32.7934 28.1172 32.8269 28.4789C32.1736 29.2465 31.1626 29.3258 30.2652 29.3396C27.6308 29.3796 25.0519 28.5132 22.3824 26.6897C17.9368 23.6527 13.5328 21.9019 8.91812 21.3368C7.43025 21.1539 5.96116 20.8844 4.40633 20.6019C3.70241 20.472 2.97481 20.3389 2.23006 20.2107C3.10955 16.3498 4.62274 12.7208 6.9852 8.7806C7.63849 7.68634 8.26483 7.44544 9.45708 7.82599C12.4312 8.77489 15.5 9.58252 18.4684 10.364C19.5545 10.6506 20.6773 10.9463 21.7798 11.2443C24.4223 11.9597 26.401 11.3684 28.1951 9.32692C29.2689 8.102 30.5167 6.8191 32.0095 5.39575C33.6125 3.86787 34.9052 3.58287 35.8475 4.54811C36.2371 4.94498 36.4347 5.35818 36.4347 5.81794C36.4347 6.52349 35.97 7.33847 35.0146 8.37475C34.6373 8.78305 34.2404 9.19136 33.8566 9.58088C33.1715 10.2791 32.4635 11.001 31.8437 11.7735C31.5473 12.1491 31.3945 12.5101 31.3945 12.8392Z" fill="#0037EB"/>
</svg>
