<svg width="16" height="12" viewBox="0 0 16 12" fill="none" xmlns="http://www.w3.org/2000/svg">
<path d="M13.8131 8.69226C15.2291 8.64762 14.7659 10.3605 13.6307 10.3634C12.5291 10.3663 11.9554 10.2302 11.9554 10.2302" stroke="#F2F2F2" stroke-width="0.365487" stroke-miterlimit="10" stroke-linecap="round" stroke-linejoin="round"/>
<path d="M12.4475 10.312C13.4315 10.3679 14.0675 11.0735 13.3451 11.506C12.6107 11.9469 11.1899 11.5806 9.50266 11.506C7.73146 11.4277 6.32272 10.5232 5.48512 10.1233C3.72832 9.28383 1.55151 9.41007 1.55151 9.41007" stroke="#F2F2F2" stroke-width="0.365487" stroke-miterlimit="10" stroke-linecap="round" stroke-linejoin="round"/>
<path d="M2.80396 5.09785C3.58406 5.2013 6.58571 5.632 7.02011 4.72353C7.87982 2.92294 9.35595 3.73602 9.73577 1.28662C9.90862 0.169637 11.321 -0.200617 11.5007 1.23962C11.7668 3.37798 10.6728 4.72353 10.6728 4.72353" stroke="#F2F2F2" stroke-width="0.365487" stroke-miterlimit="10" stroke-linecap="round" stroke-linejoin="round"/>
<path d="M9.9873 4.85977C9.9873 4.85977 12.9705 4.33896 13.9209 4.61472C15.0513 4.94256 15.3513 6.69912 13.4337 6.65112C11.5161 6.60312 12.7401 6.6264 12.7401 6.6264" stroke="#F2F2F2" stroke-width="0.365487" stroke-miterlimit="10" stroke-linecap="round" stroke-linejoin="round"/>
<path d="M13.6976 6.64659C15.5072 6.46587 15.5792 8.25244 14.348 8.57236C13.2776 8.85076 12.3392 8.49436 12.3392 8.49436" stroke="#F2F2F2" stroke-width="0.365487" stroke-miterlimit="10" stroke-linecap="round" stroke-linejoin="round"/>
<path d="M1.54423 9.39516C1.54423 9.39516 0.308233 3.55404 1.57543 2.65788C2.32183 2.13084 3.31306 5.181 3.31306 5.181L1.04985 4.8462C1.04985 4.8462 1.04263 5.96316 1.18663 7.19988C1.34983 8.60724 1.54423 9.39516 1.54423 9.39516Z" fill="#F2F2F2" stroke="#F2F2F2" stroke-width="0.365487" stroke-miterlimit="10" stroke-linecap="round" stroke-linejoin="round"/>
</svg>
