<svg width="14" height="11" viewBox="0 0 14 11" fill="none" xmlns="http://www.w3.org/2000/svg">
<path d="M11.6998 7.73412C12.8863 7.69671 12.4981 9.13192 11.547 9.13434C10.6239 9.13675 10.1433 9.02273 10.1433 9.02273" stroke="#0037EB" stroke-width="0.402187" stroke-miterlimit="10" stroke-linecap="round" stroke-linejoin="round"/>
<path d="M10.5557 9.09242C11.3802 9.13927 11.9131 9.73049 11.3078 10.0929C10.6924 10.4623 9.5019 10.1554 8.08821 10.0929C6.60414 10.0273 5.42377 9.26938 4.72195 8.93436C3.24995 8.23093 1.42603 8.33671 1.42603 8.33671" stroke="#0037EB" stroke-width="0.402187" stroke-miterlimit="10" stroke-linecap="round" stroke-linejoin="round"/>
<path d="M2.47534 4.72305C3.12899 4.80973 5.64404 5.17061 6.00802 4.40941C6.72836 2.90071 7.9652 3.58199 8.28344 1.52966C8.42827 0.593742 9.61169 0.28351 9.76224 1.49027C9.98521 3.28198 9.06858 4.40941 9.06858 4.40941" stroke="#0037EB" stroke-width="0.402187" stroke-miterlimit="10" stroke-linecap="round" stroke-linejoin="round"/>
<path d="M8.49414 4.52378C8.49414 4.52378 10.9937 4.08741 11.7901 4.31846C12.7372 4.59316 12.9886 6.06496 11.3818 6.02474C9.7751 5.98453 10.8007 6.00403 10.8007 6.00403" stroke="#0037EB" stroke-width="0.402187" stroke-miterlimit="10" stroke-linecap="round" stroke-linejoin="round"/>
<path d="M11.603 6.0205C13.1193 5.86907 13.1796 7.36601 12.148 7.63407C11.2511 7.86734 10.4648 7.56872 10.4648 7.56872" stroke="#0037EB" stroke-width="0.402187" stroke-miterlimit="10" stroke-linecap="round" stroke-linejoin="round"/>
<path d="M1.41992 8.32431C1.41992 8.32431 0.384285 3.43009 1.44606 2.67921C2.07146 2.23761 2.902 4.79331 2.902 4.79331L1.00568 4.51278C1.00568 4.51278 0.999633 5.44867 1.12029 6.48491C1.25703 7.66412 1.41992 8.32431 1.41992 8.32431Z" fill="#0037EB" stroke="#0037EB" stroke-width="0.402187" stroke-miterlimit="10" stroke-linecap="round" stroke-linejoin="round"/>
</svg>
