<svg width="65" height="39" viewBox="0 0 65 39" fill="none" xmlns="http://www.w3.org/2000/svg">
<path d="M0.168545 20.1042C0.162969 19.6195 0.270442 19.1402 0.482434 18.7042C0.971055 17.727 1.96399 17.1526 3.27918 17.0846C5.58103 16.9674 7.91951 16.7518 10.1785 16.5436C13.7537 16.213 17.4502 15.873 21.1123 15.9075L21.2682 15.9075C21.8959 15.9169 22.553 15.9263 23.3199 15.4523C22.8463 14.9411 22.3744 14.4329 21.9043 13.9279C20.7848 12.7247 19.6286 11.4806 18.508 10.2533C17.4324 9.0804 17.0139 7.86042 17.2096 6.52639C17.4408 4.95695 18.3092 3.72546 19.5951 3.13744C20.9208 2.53059 22.4902 2.69695 23.8996 3.59363C26.2925 5.11599 28.2082 7.2316 29.921 9.29071C32.4321 12.3061 34.983 13.1128 38.2056 11.9065C40.1078 11.1939 42.1543 10.7806 44.1339 10.3809L44.1852 10.3705C45.8007 10.044 46.2841 9.38487 46.035 7.84996C45.7159 5.8892 45.8258 4.03725 46.3552 2.34644C46.6994 1.24887 47.1807 0.588663 47.8253 0.328135C48.4698 0.0676072 49.2901 0.209904 50.3081 0.766533C51.6097 1.47488 52.5974 2.54524 53.4962 3.58526C56.3209 6.82677 58.7242 10.4126 60.6487 14.2575C62.5666 18.1396 63.9717 22.2547 64.8286 26.4991L64.8359 26.5368L64.8025 26.5556C63.5176 27.2567 62.1156 27.3927 60.7585 27.5193C60.3944 27.5538 60.0177 27.5894 59.6547 27.6354C49.7986 28.891 42.7737 31.3697 36.8758 35.6741C33.8605 37.9039 30.1559 38.9997 26.4128 38.7691C24.6048 38.6644 22.6168 38.2627 21.5862 36.1334C21.3048 35.5538 20.9124 35.2525 20.3506 35.1855C20.2738 35.174 20.1989 35.1525 20.1277 35.1217C20.0677 35.0965 20.0053 35.0775 19.9415 35.0652C18.4369 34.8413 18.1261 33.6966 17.8248 32.5896C17.5632 31.6291 17.2922 30.6362 16.2365 30.2417C14.077 29.4351 13.5088 28.0686 13.9127 24.6305C13.0621 24.6305 12.2135 24.6367 11.3922 24.642C9.38433 24.6545 7.48739 24.6671 5.56011 24.6095C3.36289 24.5426 1.87819 23.8374 0.905136 22.3903C0.439094 21.7178 0.182777 20.9223 0.168545 20.1042ZM23.4842 15.4743L23.4319 15.5088C22.6158 16.032 21.9305 16.0236 21.2692 16.0142L21.1133 16.0142C17.4565 15.9797 13.762 16.3197 10.19 16.6493C7.92997 16.8586 5.5915 17.0678 3.28442 17.1913C2.00898 17.2572 1.04744 17.8117 0.576603 18.7534C0.0534552 19.7997 0.207258 21.1777 0.985703 22.3359C1.93888 23.7526 3.39218 24.4432 5.55697 24.5091C7.48216 24.5666 9.37805 24.5541 11.3848 24.5415C12.2219 24.5415 13.0945 24.53 13.965 24.53L14.0246 24.53L14.0173 24.5886C13.6072 28.0079 14.1533 29.3587 16.2669 30.1476C17.3738 30.5661 17.6511 31.58 17.919 32.5666C18.2255 33.6903 18.5143 34.7523 19.9509 34.9658C20.0226 34.9796 20.0927 35.0007 20.1601 35.0286C20.2232 35.0554 20.2892 35.0748 20.3568 35.0861C20.9585 35.1573 21.377 35.4764 21.6752 36.0916C22.6827 38.1727 24.6351 38.5619 26.4138 38.6686C30.1341 38.8994 33.8165 37.8105 36.813 35.5936C42.7256 31.2786 49.7661 28.7926 59.64 27.5371C60.0052 27.49 60.3829 27.4544 60.7481 27.4199C62.0821 27.2933 63.4601 27.1615 64.7177 26.4876C62.9788 17.9833 59.1723 10.3014 53.4177 3.65536C52.5242 2.62475 51.5448 1.56276 50.2579 0.859652C49.265 0.318717 48.4792 0.177469 47.865 0.426487C47.2508 0.675506 46.7894 1.3127 46.4546 2.37887C45.9315 4.05295 45.8216 5.8892 46.1407 7.83426C46.4358 9.64854 45.6176 10.1895 44.2093 10.4741L44.1569 10.4845C42.1826 10.8832 40.1402 11.2965 38.2454 12.0058C34.9746 13.23 32.3861 12.4149 29.8436 9.35976C28.136 7.30693 26.2276 5.19864 23.8462 3.68361C22.4683 2.80681 20.9354 2.64254 19.6412 3.23475C18.3856 3.80707 17.5413 5.01345 17.3163 6.54314C17.1185 7.84264 17.5371 9.03751 18.5834 10.1884C19.7029 11.4157 20.8601 12.6598 21.9786 13.862L23.4371 15.4314L23.4842 15.4743ZM1.78089 20.1889C1.77968 20.0218 1.81281 19.8562 1.8782 19.7024C2.10001 19.1908 2.69012 18.8654 3.54076 18.79C4.80782 18.676 6.09581 18.5494 7.34091 18.428C11.5815 18.0095 15.9676 17.5826 20.315 17.5408L20.451 17.5408C21.5287 17.5303 22.6419 17.5198 23.6945 17.3053C24.4939 17.1421 25.0327 16.7822 25.2116 16.2821C25.3906 15.7819 25.2116 15.2107 24.7147 14.5829C23.9237 13.5973 23.0186 12.6744 22.1429 11.7809C21.6501 11.2787 21.1405 10.7597 20.6561 10.2334C18.6137 8.01737 18.2956 6.50756 19.5909 5.18609C20.8465 3.90019 22.5572 4.26535 24.6613 6.27005C26.576 8.09584 28.1769 9.7448 29.5548 11.3132C31.8242 13.8944 34.3259 14.6425 37.6689 13.7385C39.0814 13.3556 40.52 12.9768 41.9116 12.6106C45.7138 11.6093 49.6448 10.5735 53.4522 9.35872C55.0395 8.85336 55.8692 9.17352 56.7418 10.6279C59.7855 15.7003 61.7316 20.3794 62.8668 25.3524L62.8794 25.4068L62.825 25.4162C61.8519 25.5826 60.9019 25.7573 59.9832 25.9258C57.989 26.292 56.1067 26.6373 54.1961 26.8674C48.3003 27.5904 42.6722 29.8274 36.9919 33.7081C33.5527 36.0571 30.2286 37.1745 26.8303 37.1222C25.6511 37.1044 24.3192 36.9987 23.456 35.9713L23.4424 35.9545L23.4424 35.9336C23.4853 35.3822 23.7625 35.287 24.0063 35.2012C24.0314 35.1928 24.0555 35.1834 24.0796 35.175L24.1015 35.1667C24.6362 34.9689 25.1907 34.7649 24.9637 34.0827C24.7952 33.5784 24.3045 33.6108 23.8295 33.6422L23.7385 33.6422C23.0298 33.6964 22.3187 33.7132 21.6082 33.6924C20.3621 33.638 19.5983 33.117 19.275 32.1C19.118 31.6072 19.1243 31.2253 19.2948 30.9302C19.5439 30.4991 20.1099 30.3244 20.6843 30.1978C20.8507 30.1729 21.0006 30.0836 21.1016 29.9491C21.2026 29.8146 21.2467 29.6457 21.2242 29.479C21.1845 29.0532 20.8988 28.8376 20.3767 28.8387C20.0377 28.8387 19.6914 28.8554 19.3566 28.8711C18.7759 28.9096 18.1934 28.9121 17.6124 28.8784C16.1476 28.7602 15.367 27.8897 15.4152 26.4259C15.4581 25.0584 16.2292 24.3804 17.7087 24.4107C18.6285 24.445 19.5496 24.423 20.4667 24.3448C20.7165 24.3294 20.9673 24.3364 21.2158 24.3657C21.7076 24.4076 22.2151 24.4505 22.4934 24.2046C22.6346 24.0791 22.7089 23.8907 22.7183 23.6208C22.7309 23.3006 22.6618 23.0757 22.5091 22.9344C22.2192 22.6687 21.6595 22.7408 21.1656 22.8036C20.974 22.8328 20.7808 22.8503 20.587 22.8559C18.0205 22.8559 15.411 22.902 12.8873 22.9438C11.2248 22.971 9.50674 23.0003 7.81593 23.0171C6.75034 23.0199 5.68548 22.9605 4.62681 22.8392C4.19257 22.8024 3.77051 22.6768 3.3868 22.4701C3.00309 22.2635 2.66589 21.9803 2.39611 21.6381C1.9891 21.1306 1.78089 20.6284 1.78089 20.1889ZM25.377 15.8855C25.3778 16.0325 25.3527 16.1784 25.3027 16.3166C25.1112 16.8481 24.5452 17.2352 23.7081 17.4068C22.6472 17.6234 21.5287 17.6339 20.4468 17.6443L20.3108 17.6443C15.9729 17.6862 11.5899 18.1152 7.35137 18.5306C6.10523 18.653 4.81724 18.7785 3.55018 18.8936C2.7393 18.9669 2.18057 19.2682 1.97445 19.7422C1.75892 20.2392 1.93783 20.8931 2.47563 21.5816C2.73693 21.9127 3.06341 22.1868 3.43486 22.3867C3.80632 22.5867 4.21485 22.7083 4.63518 22.744C5.69001 22.8652 6.75102 22.9246 7.81279 22.9219C9.5036 22.9051 11.2216 22.8758 12.8831 22.8486C15.4068 22.8068 18.0173 22.7639 20.5849 22.7607C20.7741 22.7548 20.9628 22.7377 21.1499 22.7095C21.6668 22.6435 22.2517 22.5682 22.5771 22.8664C22.756 23.0296 22.8366 23.2849 22.823 23.6344C22.8114 23.9315 22.7267 24.1471 22.5624 24.2925C22.2485 24.5677 21.7254 24.5227 21.2075 24.4798C20.9645 24.4505 20.7194 24.4432 20.4751 24.4578C19.5534 24.5368 18.6278 24.5592 17.7034 24.5248C16.293 24.4965 15.5575 25.14 15.5167 26.4395C15.4727 27.8374 16.2198 28.6713 17.6197 28.7832C18.1962 28.8169 18.7742 28.8144 19.3503 28.7759C19.6862 28.7602 20.0335 28.7445 20.3757 28.7435C20.9532 28.7435 21.2818 28.9956 21.3278 29.4759C21.3516 29.6688 21.2993 29.8633 21.1822 30.0184C21.065 30.1734 20.8921 30.2768 20.7 30.3066C20.1486 30.4269 19.6077 30.5923 19.3796 30.9878C19.2247 31.2556 19.2206 31.6103 19.3681 32.0728C19.682 33.0573 20.3924 33.5376 21.6061 33.593C22.3131 33.6143 23.0207 33.5975 23.7259 33.5428L23.8159 33.5428C24.3066 33.5104 24.8622 33.4738 25.0568 34.0545C25.3152 34.8329 24.6592 35.0756 24.1308 35.2702L24.1099 35.2786C24.0848 35.288 24.0597 35.2964 24.0346 35.3048C23.8033 35.3853 23.5847 35.4607 23.5418 35.9242C24.3788 36.9077 25.6741 37.0092 26.824 37.027C30.1993 37.0783 33.5035 35.9681 36.9239 33.6317C42.6199 29.7406 48.2626 27.4973 54.1752 26.7733C56.0816 26.5389 57.9639 26.1936 59.956 25.8316C60.8579 25.6652 61.7902 25.4947 62.7444 25.3304C61.6175 20.3835 59.6787 15.7338 56.6518 10.6854C55.8148 9.28338 55.0123 8.97473 53.4847 9.4623C49.6741 10.6781 45.7421 11.7129 41.9388 12.7142C40.5472 13.0814 39.1086 13.4602 37.6961 13.8421C34.3102 14.7587 31.7751 14.0011 29.4764 11.3854C28.1005 9.81595 26.5017 8.17222 24.5891 6.34852C22.5352 4.3909 20.8789 4.02575 19.6715 5.26247C19.1724 5.77097 18.9192 6.30039 18.9192 6.88946C18.9192 7.79346 19.5146 8.83766 20.7387 10.1654C21.2221 10.6886 21.7306 11.2117 22.2224 11.7108C23.1002 12.6054 24.0074 13.5303 24.8015 14.5201C25.1813 15.0014 25.377 15.4639 25.377 15.8855Z" fill="#0037EB"/>
</svg>
