<svg width="83" height="83" viewBox="0 0 83 83" fill="none" xmlns="http://www.w3.org/2000/svg">
<circle cx="41.5" cy="41.5" r="41.5" fill="#CBCBCB"/>
<path d="M45.8134 35.5659C43.9239 40.2465 41.2787 50.1746 45.8134 52.442C50.3481 54.7093 53.4556 52.4899 54.0568 51.5452" stroke="#7F7F7F" stroke-width="1.2" stroke-linecap="round"/>
<path d="M33.3507 35.4976C35.2401 40.1782 37.8853 50.1062 33.3507 52.3736C28.816 54.641 23.1897 47.9521 22.5885 47.0074" stroke="#7F7F7F" stroke-width="1.2" stroke-linecap="round"/>
<path d="M50.7392 28.863L50.9131 29.4372L52.8487 28.8511L50.9066 28.2868L50.7392 28.863ZM50.7292 28.8601L50.4749 28.3166L49.0287 28.9931L50.5626 29.4365L50.7292 28.8601ZM63.1361 50.9095L63.5247 51.3667L63.1361 50.9095ZM56.0861 52.2445L56.1624 51.6494L56.0861 52.2445ZM54.5079 38.0754L55.0478 37.8136L55.0171 37.7503L54.9726 37.6958L54.5079 38.0754ZM50.8717 33.6241L51.3363 33.2445L51.073 32.9222L50.6789 33.0559L50.8717 33.6241ZM46.1449 35.2276L45.9521 34.6594L45.7714 34.7208L45.6593 34.8753L46.1449 35.2276ZM43.3018 45.5902L42.7085 45.5012L42.6976 45.5739L42.7045 45.6471L43.3018 45.5902ZM41.1084 42.3477L40.5622 42.596L41.1084 42.3477ZM47.6115 30.6704L47.9719 31.1501L48.0039 31.1261L48.0325 31.0979L47.6115 30.6704ZM48.3716 30.0436L48.032 29.549L48.3716 30.0436ZM53.2668 52.3268L52.9547 51.8144L53.4898 52.8838L53.2668 52.3268ZM50.9066 28.2868C50.903 28.2858 50.8994 28.2847 50.8958 28.2837L50.5626 29.4365C50.5656 29.4374 50.5687 29.4383 50.5718 29.4392L50.9066 28.2868ZM50.9834 29.4036C51.5417 29.1424 52.2296 29.1207 53.0458 29.3621C53.8652 29.6045 54.7753 30.1022 55.7243 30.819C57.6215 32.2519 59.5824 34.4907 61.1658 37.0099C62.7502 39.5307 63.926 42.2835 64.298 44.7284C64.6709 47.1795 64.225 49.1965 62.7475 50.4523L63.5247 51.3667C65.4529 49.7277 65.8879 47.2001 65.4843 44.5479C65.0798 41.8894 63.8216 38.9802 62.1818 36.3713C60.5411 33.7609 58.4876 31.4023 56.4475 29.8614C55.4279 29.0913 54.3886 28.5079 53.3862 28.2114C52.3808 27.914 51.3746 27.8957 50.4749 28.3166L50.9834 29.4036ZM62.7475 50.4523C60.6852 52.2054 58.2686 51.9193 56.1624 51.6494L56.0098 52.8396C58.0598 53.1024 61.0099 53.5043 63.5247 51.3667L62.7475 50.4523ZM56.1624 51.6494C55.59 51.576 55.0218 51.5025 54.5189 51.4911C54.023 51.4799 53.5047 51.525 53.065 51.7524L53.6163 52.8182C53.7851 52.7309 54.0579 52.681 54.4918 52.6908C54.9187 52.7004 55.4189 52.7639 56.0098 52.8396L56.1624 51.6494ZM53.6792 52.7807C53.8585 52.6582 54.0609 52.4516 54.2609 52.2083C54.4698 51.9544 54.7038 51.6266 54.9416 51.2321C55.4173 50.443 55.9177 49.3721 56.2636 48.0666C56.9579 45.446 57.0256 41.8938 55.0478 37.8136L53.968 38.3371C55.8108 42.1389 55.7303 45.3941 55.1036 47.7592C54.789 48.9466 54.3356 49.9131 53.9139 50.6126C53.703 50.9624 53.5022 51.2417 53.3342 51.446C53.1574 51.661 53.0406 51.7637 53.0021 51.7899L53.6792 52.7807ZM54.9726 37.6958L51.3363 33.2445L50.407 34.0037L54.0433 38.4549L54.9726 37.6958ZM50.6789 33.0559L45.9521 34.6594L46.3377 35.7958L51.0644 34.1923L50.6789 33.0559ZM43.8952 45.6792C44.1094 44.2511 44.4951 42.1228 44.9854 40.1365C45.2307 39.1431 45.4999 38.1939 45.7842 37.3895C46.0727 36.5732 46.3613 35.9511 46.6305 35.58L45.6593 34.8753C45.285 35.3911 44.9504 36.1474 44.6528 36.9897C44.3509 37.844 44.071 38.8338 43.8204 39.8489C43.3192 41.8793 42.9268 44.0453 42.7085 45.5012L43.8952 45.6792ZM40.5622 42.596C41.5096 44.6803 42.1062 45.7387 42.4893 46.1841C42.5838 46.2939 42.7138 46.4257 42.8793 46.5051C42.9687 46.5479 43.1016 46.5915 43.2613 46.5765C43.4342 46.5603 43.5798 46.4809 43.6842 46.3737C43.8577 46.1954 43.8901 45.9717 43.9002 45.8822C43.9139 45.7621 43.9092 45.6394 43.8991 45.5333L42.7045 45.6471C42.7103 45.7079 42.7087 45.7402 42.7079 45.747C42.7036 45.7846 42.7042 45.66 42.8241 45.5368C42.9016 45.4571 43.015 45.3943 43.1495 45.3817C43.271 45.3704 43.3596 45.4045 43.398 45.4229C43.4617 45.4535 43.4635 45.4765 43.3991 45.4016C43.1464 45.1079 42.6145 44.2112 41.6547 42.0995L40.5622 42.596ZM47.2512 30.1906C45.5565 31.4636 43.4422 33.4692 41.9657 35.6664C40.5136 37.8274 39.5509 40.3711 40.5622 42.596L41.6547 42.0995C40.9199 40.4831 41.5535 38.4314 42.9617 36.3357C44.3456 34.2763 46.3559 32.3639 47.9719 31.1501L47.2512 30.1906ZM48.0325 31.0979C48.2343 30.8992 48.4594 30.7112 48.7113 30.5382L48.032 29.549C47.7201 29.7631 47.4408 29.9964 47.1906 30.2429L48.0325 31.0979ZM48.7113 30.5382C49.5517 29.9612 50.295 29.6244 50.9131 29.4372L50.5653 28.2887C49.8196 28.5146 48.9656 28.908 48.032 29.549L48.7113 30.5382ZM53.065 51.7524C53.0277 51.7717 52.9909 51.7923 52.9547 51.8144L53.5789 52.8393C53.5906 52.8321 53.6031 52.8251 53.6163 52.8182L53.065 51.7524ZM53.4898 52.8838C53.5658 52.8534 53.6305 52.814 53.6792 52.7807L53.0021 51.7899C52.9999 51.7914 53.0018 51.79 53.0074 51.7869C53.0126 51.784 53.025 51.7773 53.0438 51.7698L53.4898 52.8838Z" fill="#7F7F7F"/>
<ellipse cx="48.0002" cy="48.8001" rx="1.8" ry="1.2" fill="#7F7F7F"/>
<ellipse cx="1.8" cy="1.2" rx="1.8" ry="1.2" transform="matrix(-1 0 0 1 33 47)" fill="#7F7F7F"/>
<path d="M31.9289 37.4956C35.3649 35.8389 36.2459 31.9089 35.2073 31.4881C34.1687 31.0673 33.4527 33.7075 28.2341 31.4881C23.0155 29.2687 21.036 35.4621 20.6611 38.3863C15.2025 41.8054 23.445 51.1854 24.4005 48.8762C22.3052 43.8362 22.9855 42.6602 22.9855 40.7857C23.1172 38.2574 29.9363 38.4563 31.9289 37.4956Z" fill="#7F7F7F"/>
<path d="M50.4287 41.9292C50.7365 42.3086 51.623 42.9182 52.7066 42.3216" stroke="#7F7F7F" stroke-width="1.2" stroke-linecap="round"/>
<circle cx="27.6" cy="41.6" r="0.6" fill="#7F7F7F"/>
<path d="M46.0801 41.1401C46.3787 41.516 47.2386 42.1159 48.2895 41.5085" stroke="#7F7F7F" stroke-width="1.2" stroke-linecap="round"/>
<circle cx="31.1996" cy="40.3998" r="0.6" fill="#7F7F7F"/>
</svg>
