<svg width="17" height="14" viewBox="0 0 17 14" fill="none" xmlns="http://www.w3.org/2000/svg">
<path d="M3.90425 5.87466C4.80909 4.33031 6.25453 1.38143 6.82875 1.15737C7.40296 0.933304 8.89268 1.59824 8.91714 2.33884C8.93526 2.88732 7.83171 4.87172 7.06628 6.23226M5.78821 8.56733C5.27968 9.43545 4.79737 10.2132 4.47996 10.8019C4.31697 11.1042 4.10136 11.378 3.82596 11.5832L1.9582 12.9751C1.82634 13.0733 1.63884 12.9793 1.63869 12.8149L1.63647 10.3305C1.63616 9.9794 1.72814 9.63444 1.90322 9.33008C2.0892 9.00678 2.32084 8.60466 2.6215 8.08672" stroke="#EC221F" stroke-width="0.4"/>
<path d="M2.80595 12.294C2.4828 11.7508 1.9191 11.6962 1.65577 11.8565L1.80374 13.0145L2.80595 12.294Z" fill="#EC221F"/>
<path d="M1.67503 10.3601C1.67503 10.3601 2.86174 10.1667 3.22272 10.4458C3.5837 10.725 3.8602 11.3822 3.8602 11.3822" stroke="#EC221F" stroke-width="0.4"/>
<path d="M8.56156 3.38677C8.15531 2.71712 6.78967 2.32149 6.15763 2.20739C6.21718 2.09878 6.36678 1.82898 6.4888 1.61868C6.64133 1.35581 7.39684 0.657979 8.41867 1.37209C9.23612 1.94339 8.85454 2.95325 8.56156 3.38677Z" fill="#EC221F"/>
<path d="M3.28715 10.3639L4.02681 9.26007M7.846 2.50074L5.56694 6.49001" stroke="#EC221F" stroke-width="0.4"/>
<path d="M11.7175 12.1224C10.7448 12.0008 11.1306 10.0668 11.3441 9.18164C12.3688 9.18164 13.5077 10.7007 13.9867 11.1017C13.4975 11.6629 12.5902 12.2315 11.7175 12.1224Z" fill="#EC221F" stroke="#EC221F" stroke-width="0.2"/>
<path d="M8.68311 3.34082C8.88965 3.48939 9.27594 3.7187 10.5599 4.53592C11.9182 5.40037 14.7231 6.42343 15.795 6.90637C15.5422 8.11297 14.637 10.573 13.3261 11.3536" stroke="#EC221F" stroke-width="0.4"/>
<path d="M6.7387 1.99219C6.04306 2.25718 4.41726 2.39596 3.42304 2.58856C2.06505 2.95022 1.69895 3.0079 1.69897 4.43328C1.80242 5.15738 2.14724 7.55381 2.40585 7.62277C2.66446 7.69173 3.90578 7.17986 3.90578 6.3987C3.90578 5.49543 3.84669 4.61203 3.79497 4.24998" stroke="#EC221F" stroke-width="0.4" stroke-linecap="round"/>
<path d="M7.17419 6.17969C6.3622 6.33298 4.75476 6.65096 4.44384 6.7546C4.05519 6.88415 2.91807 7.33037 2.65898 7.94931C2.39989 8.56825 2.82002 9.52978 3.89957 9.31387C4.97912 9.09796 6.04269 8.24777 7.26846 8.19401C9.71976 8.08648 10.0098 8.40019 11.1963 8.86494C12.7562 9.47598 13.4228 10.6739 13.8115 10.9858" stroke="#EC221F" stroke-width="0.4"/>
<path d="M1.75121 4.7998C1.52538 4.88838 1.06309 5.28074 1.02057 6.14157C0.978046 7.00241 1.36198 8.54429 1.75123 9.27322" stroke="#EC221F" stroke-width="0.4" stroke-linecap="round"/>
</svg>
