<svg width="113" height="113" viewBox="0 0 113 113" fill="none" xmlns="http://www.w3.org/2000/svg">
<path d="M75.0329 61.5794C77.9249 61.5794 80.6829 61.6411 83.443 61.5585C85.2563 61.503 86.9408 61.0207 88.0562 59.3613C89.5 57.2132 88.8126 54.294 85.7156 54.1298C79.7705 53.8253 73.8621 52.8951 67.8867 52.9527C67.1857 52.96 66.4637 53.0155 65.5964 52.4578C67.2401 50.6854 68.8566 48.959 70.4512 47.2127C71.3991 46.1737 71.9505 44.9621 71.7392 43.5256C71.2537 40.2339 68.0154 38.7932 65.1287 40.6294C62.7693 42.1298 60.8786 44.2015 59.1198 46.316C56.8315 49.0667 54.3277 50.2763 50.7756 48.9464C48.8629 48.2339 46.8174 47.8258 44.8044 47.4188C43.2914 47.1133 42.6427 46.5033 42.9137 44.8387C43.2088 43.0233 43.1606 41.1578 42.5998 39.3592C41.9197 37.2091 40.7071 36.7246 38.7139 37.8096C37.4447 38.5033 36.4664 39.5496 35.5436 40.6169C29.8109 47.2315 25.9961 54.8036 24.2227 63.5098C25.8465 64.395 27.6535 64.3678 29.3495 64.5844C37.5389 65.6307 45.3118 67.6396 52.1514 72.6325C55.1533 74.8234 58.7431 75.9482 62.5851 75.717C64.5595 75.5987 66.3999 75.1101 67.3677 73.1106C67.6377 72.553 68.0227 72.2077 68.6442 72.1344C68.7834 72.1177 68.9131 72.0298 69.0512 72.0141C71.8208 71.6008 70.4397 68.0539 72.7467 67.1928C74.9157 66.384 75.4389 64.9809 75.0329 61.5794ZM26.1845 62.3662C27.4296 56.914 29.587 52.1837 32.3032 47.6574C33.1465 46.2522 33.9438 45.9048 35.531 46.4112C40.7353 48.0717 46.0463 49.3639 51.3175 50.791C54.7034 51.7076 57.2406 50.9019 59.4839 48.35C61.0282 46.5933 62.6814 44.9245 64.3753 43.31C66.5014 41.2833 68.1504 40.9799 69.3714 42.225C70.6437 43.5224 70.3434 44.9883 68.3052 47.2002C66.9607 48.6597 65.4802 50.0095 64.2445 51.5527C63.1836 52.8732 63.6471 54.0168 65.3023 54.3547C66.402 54.5797 67.5582 54.5807 68.6892 54.5922C74.3057 54.6466 79.8741 55.3372 85.4551 55.8415C87.2264 56.0016 87.669 57.2017 86.5652 58.6142C86.2996 58.9514 85.9675 59.2303 85.5895 59.4335C85.2115 59.6367 84.7957 59.7599 84.368 59.7955C83.3111 59.9169 82.2479 59.9763 81.1841 59.9733C76.9267 59.9315 72.6704 59.8164 68.413 59.8122C67.6251 59.8122 66.175 59.2556 66.2273 60.6315C66.2744 61.887 67.6921 61.3189 68.5291 61.4047C69.4483 61.484 70.3715 61.5064 71.2934 61.4716C72.6599 61.4434 73.4907 62.0398 73.5336 63.4366C73.5785 64.87 72.8064 65.7206 71.3824 65.8347C70.47 65.9079 69.543 65.7981 68.6222 65.7949C68.1671 65.7949 67.7726 65.9519 67.7224 66.4834C67.6998 66.6627 67.7479 66.8438 67.8565 66.9883C67.9651 67.1329 68.1256 67.2294 68.3042 67.2577C69.3097 67.4774 70.0829 67.8206 69.6748 69.0908C69.3159 70.2187 68.4538 70.6016 67.3887 70.6477C66.6799 70.6686 65.9706 70.6518 65.2636 70.5974C64.753 70.566 64.1776 70.4928 63.9861 71.0683C63.7392 71.808 64.3554 72.0246 64.9016 72.2265C65.159 72.3217 65.4603 72.3678 65.5043 72.938C64.6829 73.9205 63.4368 74.0565 62.1697 74.0764C58.3968 74.1339 55.0717 72.7423 52.0395 70.6717C46.7975 67.0913 41.1674 64.6032 34.8112 63.8216C32.0102 63.4784 29.2396 62.8904 26.1845 62.3662Z" fill="#0037EB"/>
<path d="M88.8315 57.1042C88.837 56.6195 88.7296 56.1402 88.5176 55.7042C88.0289 54.727 87.036 54.1526 85.7208 54.0846C83.419 53.9674 81.0805 53.7518 78.8215 53.5436C75.2463 53.213 71.5498 52.873 67.8877 52.9075L67.7318 52.9075C67.1041 52.9169 66.447 52.9263 65.6801 52.4523C66.1537 51.9411 66.6256 51.4329 67.0957 50.9279C68.2152 49.7247 69.3714 48.4806 70.492 47.2533C71.5676 46.0804 71.9861 44.8604 71.7904 43.5264C71.5592 41.9569 70.6908 40.7255 69.4049 40.1374C68.0792 39.5306 66.5098 39.6969 65.1004 40.5936C62.7075 42.116 60.7918 44.2316 59.079 46.2907C56.5679 49.3061 54.017 50.1128 50.7944 48.9065C48.8922 48.1939 46.8457 47.7806 44.8661 47.3809L44.8148 47.3705C43.1993 47.044 42.7159 46.3849 42.965 44.85C43.2841 42.8892 43.1742 41.0373 42.6448 39.3464C42.3006 38.2489 41.8193 37.5887 41.1747 37.3281C40.5302 37.0676 39.7099 37.2099 38.6919 37.7665C37.3903 38.4749 36.4026 39.5452 35.5038 40.5853C32.6791 43.8268 30.2758 47.4126 28.3513 51.2575C26.4334 55.1396 25.0283 59.2547 24.1714 63.4991L24.1641 63.5368L24.1975 63.5556C25.4824 64.2567 26.8844 64.3927 28.2415 64.5193C28.6056 64.5538 28.9823 64.5894 29.3453 64.6354C39.2014 65.891 46.2263 68.3697 52.1242 72.6741C55.1395 74.9039 58.8441 75.9997 62.5872 75.7691C64.3952 75.6644 66.3832 75.2627 67.4138 73.1334C67.6952 72.5538 68.0876 72.2525 68.6494 72.1855C68.7262 72.174 68.8011 72.1525 68.8723 72.1217C68.9323 72.0965 68.9947 72.0775 69.0585 72.0652C70.5631 71.8413 70.8739 70.6966 71.1752 69.5896C71.4368 68.6291 71.7078 67.6362 72.7635 67.2417C74.923 66.4351 75.4912 65.0686 75.0873 61.6305C75.9379 61.6305 76.7865 61.6367 77.6078 61.642C79.6157 61.6545 81.5126 61.6671 83.4399 61.6095C85.6371 61.5426 87.1218 60.8374 88.0949 59.3903C88.5609 58.7178 88.8172 57.9223 88.8315 57.1042ZM65.5158 52.4743L65.5681 52.5088C66.3842 53.032 67.0695 53.0236 67.7308 53.0142L67.8867 53.0142C71.5435 52.9797 75.238 53.3197 78.81 53.6493C81.07 53.8586 83.4085 54.0678 85.7156 54.1913C86.991 54.2572 87.9526 54.8117 88.4234 55.7534C88.9465 56.7997 88.7927 58.1777 88.0143 59.3359C87.0611 60.7526 85.6078 61.4432 83.443 61.5091C81.5178 61.5666 79.622 61.5541 77.6152 61.5415C76.7781 61.5415 75.9055 61.53 75.035 61.53L74.9754 61.53L74.9827 61.5886C75.3928 65.0079 74.8467 66.3587 72.7331 67.1476C71.6262 67.5661 71.3489 68.58 71.081 69.5666C70.7745 70.6903 70.4857 71.7523 69.0491 71.9658C68.9774 71.9796 68.9073 72.0007 68.8399 72.0286C68.7768 72.0554 68.7108 72.0748 68.6432 72.0861C68.0415 72.1573 67.623 72.4764 67.3248 73.0916C66.3173 75.1727 64.3649 75.5619 62.5862 75.6686C58.8659 75.8994 55.1835 74.8105 52.187 72.5936C46.2744 68.2786 39.2339 65.7926 29.36 64.5371C28.9948 64.49 28.6171 64.4544 28.2519 64.4199C26.9179 64.2933 25.5399 64.1615 24.2823 63.4876C26.0212 54.9833 29.8277 47.3014 35.5823 40.6554C36.4758 39.6248 37.4552 38.5628 38.7421 37.8597C39.735 37.3187 40.5208 37.1775 41.135 37.4265C41.7492 37.6755 42.2106 38.3127 42.5454 39.3789C43.0685 41.0529 43.1784 42.8892 42.8593 44.8343C42.5642 46.6485 43.3824 47.1895 44.7907 47.4741L44.8431 47.4845C46.8174 47.8832 48.8598 48.2965 50.7546 49.0058C54.0254 50.23 56.6139 49.4149 59.1564 46.3598C60.864 44.3069 62.7724 42.1986 65.1538 40.6836C66.5317 39.8068 68.0646 39.6425 69.3588 40.2347C70.6144 40.8071 71.4587 42.0134 71.6837 43.5431C71.8815 44.8426 71.4629 46.0375 70.4166 47.1884C69.2971 48.4157 68.1399 49.6598 67.0214 50.862L65.5629 52.4314L65.5158 52.4743ZM87.2191 57.1889C87.2203 57.0218 87.1872 56.8562 87.1218 56.7024C86.9 56.1908 86.3099 55.8654 85.4592 55.79C84.1922 55.676 82.9042 55.5494 81.6591 55.428C77.4185 55.0095 73.0324 54.5826 68.685 54.5408L68.549 54.5408C67.4713 54.5303 66.3581 54.5198 65.3055 54.3053C64.5061 54.1421 63.9673 53.7822 63.7884 53.2821C63.6094 52.7819 63.7884 52.2107 64.2853 51.5829C65.0763 50.5973 65.9814 49.6744 66.8571 48.7809C67.3499 48.2787 67.8595 47.7597 68.3439 47.2334C70.3863 45.0174 70.7044 43.5076 69.4091 42.1861C68.1535 40.9002 66.4428 41.2653 64.3387 43.27C62.424 45.0958 60.8231 46.7448 59.4452 48.3132C57.1758 50.8944 54.6741 51.6425 51.3311 50.7385C49.9186 50.3556 48.48 49.9768 47.0884 49.6106C43.2862 48.6093 39.3552 47.5735 35.5478 46.3587C33.9605 45.8534 33.1308 46.1735 32.2582 47.6279C29.2145 52.7003 27.2684 57.3794 26.1332 62.3524L26.1206 62.4068L26.175 62.4162C27.1481 62.5826 28.0981 62.7573 29.0168 62.9258C31.011 63.292 32.8933 63.6373 34.8039 63.8674C40.6997 64.5904 46.3278 66.8274 52.0081 70.7081C55.4473 73.0571 58.7714 74.1745 62.1697 74.1222C63.3489 74.1044 64.6808 73.9987 65.544 72.9713L65.5576 72.9545L65.5576 72.9336C65.5147 72.3822 65.2375 72.287 64.9937 72.2012C64.9686 72.1928 64.9445 72.1834 64.9204 72.175L64.8985 72.1667C64.3638 71.9689 63.8093 71.7649 64.0363 71.0827C64.2048 70.5784 64.6955 70.6108 65.1705 70.6422L65.2615 70.6422C65.9702 70.6964 66.6813 70.7132 67.3918 70.6924C68.6379 70.638 69.4017 70.117 69.725 69.1C69.882 68.6072 69.8757 68.2253 69.7052 67.9302C69.4561 67.4991 68.8901 67.3244 68.3157 67.1978C68.1493 67.1729 67.9994 67.0836 67.8984 66.9491C67.7974 66.8146 67.7533 66.6457 67.7758 66.479C67.8155 66.0532 68.1012 65.8376 68.6233 65.8387C68.9623 65.8387 69.3086 65.8554 69.6434 65.8711C70.2241 65.9096 70.8066 65.9121 71.3876 65.8784C72.8524 65.7602 73.633 64.8897 73.5848 63.4259C73.5419 62.0584 72.7708 61.3804 71.2913 61.4107C70.3715 61.445 69.4504 61.423 68.5333 61.3448C68.2835 61.3294 68.0327 61.3364 67.7842 61.3657C67.2924 61.4076 66.7849 61.4505 66.5066 61.2046C66.3654 61.0791 66.2911 60.8907 66.2817 60.6208C66.2691 60.3006 66.3382 60.0757 66.4909 59.9344C66.7808 59.6687 67.3405 59.7408 67.8344 59.8036C68.026 59.8328 68.2192 59.8503 68.413 59.8559C70.9795 59.8559 73.589 59.902 76.1127 59.9438C77.7752 59.971 79.4933 60.0003 81.1841 60.0171C82.2497 60.0199 83.3145 59.9605 84.3732 59.8392C84.8074 59.8024 85.2295 59.6768 85.6132 59.4701C85.9969 59.2635 86.3341 58.9803 86.6039 58.6381C87.0109 58.1306 87.2191 57.6284 87.2191 57.1889ZM63.623 52.8855C63.6222 53.0325 63.6473 53.1784 63.6973 53.3166C63.8888 53.8481 64.4548 54.2352 65.2919 54.4068C66.3528 54.6234 67.4713 54.6339 68.5532 54.6443L68.6892 54.6443C73.0271 54.6862 77.4101 55.1152 81.6486 55.5306C82.8948 55.653 84.1828 55.7785 85.4498 55.8936C86.2607 55.9669 86.8194 56.2682 87.0255 56.7422C87.2411 57.2392 87.0622 57.8931 86.5244 58.5816C86.2631 58.9127 85.9366 59.1868 85.5651 59.3867C85.1937 59.5867 84.7851 59.7083 84.3648 59.744C83.31 59.8652 82.249 59.9246 81.1872 59.9219C79.4964 59.9051 77.7784 59.8758 76.1169 59.8486C73.5932 59.8068 70.9827 59.7639 68.4151 59.7607C68.2259 59.7548 68.0372 59.7377 67.8501 59.7095C67.3332 59.6435 66.7483 59.5682 66.4229 59.8664C66.244 60.0296 66.1634 60.2849 66.177 60.6344C66.1886 60.9315 66.2733 61.1471 66.4376 61.2925C66.7515 61.5677 67.2746 61.5227 67.7925 61.4798C68.0355 61.4505 68.2806 61.4432 68.5249 61.4578C69.4466 61.5368 70.3722 61.5592 71.2966 61.5248C72.707 61.4965 73.4425 62.14 73.4833 63.4395C73.5273 64.8374 72.7802 65.6713 71.3803 65.7832C70.8038 65.8169 70.2258 65.8144 69.6497 65.7759C69.3138 65.7602 68.9665 65.7445 68.6243 65.7435C68.0468 65.7435 67.7182 65.9956 67.6722 66.4759C67.6484 66.6688 67.7007 66.8633 67.8178 67.0184C67.935 67.1734 68.1079 67.2768 68.3 67.3066C68.8514 67.4269 69.3923 67.5923 69.6204 67.9878C69.7753 68.2556 69.7794 68.6103 69.6319 69.0728C69.318 70.0573 68.6076 70.5376 67.3939 70.593C66.6869 70.6143 65.9793 70.5975 65.2741 70.5428L65.1841 70.5428C64.6934 70.5104 64.1378 70.4738 63.9432 71.0545C63.6848 71.8329 64.3408 72.0756 64.8692 72.2702L64.8901 72.2786C64.9152 72.288 64.9403 72.2964 64.9654 72.3048C65.1967 72.3853 65.4153 72.4607 65.4582 72.9242C64.6212 73.9077 63.3259 74.0092 62.176 74.027C58.8007 74.0783 55.4965 72.9681 52.0761 70.6317C46.3801 66.7406 40.7374 64.4973 34.8248 63.7733C32.9184 63.5389 31.0361 63.1936 29.044 62.8316C28.1421 62.6652 27.2098 62.4947 26.2556 62.3304C27.3825 57.3835 29.3213 52.7338 32.3482 47.6854C33.1852 46.2834 33.9877 45.9747 35.5153 46.4623C39.3259 47.6781 43.2579 48.7129 47.0612 49.7142C48.4528 50.0814 49.8914 50.4602 51.3039 50.8421C54.6898 51.7587 57.2249 51.0011 59.5236 48.3854C60.8995 46.8159 62.4983 45.1722 64.4109 43.3485C66.4648 41.3909 68.1211 41.0257 69.3285 42.2625C69.8276 42.771 70.0808 43.3004 70.0808 43.8895C70.0808 44.7935 69.4854 45.8377 68.2613 47.1654C67.7779 47.6886 67.2694 48.2117 66.7776 48.7108C65.8998 49.6054 64.9926 50.5303 64.1985 51.5201C63.8187 52.0014 63.623 52.4639 63.623 52.8855Z" fill="#0037EB"/>
</svg>
