<svg width="25" height="24" viewBox="0 0 25 24" fill="none" xmlns="http://www.w3.org/2000/svg">
<path d="M6.86634 22.5003C6.36118 22.5003 5.93359 22.3253 5.58359 21.9753C5.23359 21.6253 5.05859 21.1977 5.05859 20.6925V10.308C5.05859 9.80284 5.23359 9.37526 5.58359 9.02526C5.93359 8.67526 6.36118 8.50026 6.86634 8.50026H8.67409C8.88676 8.50026 9.06493 8.57209 9.20859 8.71576C9.35209 8.85926 9.42384 9.03742 9.42384 9.25026C9.42384 9.46309 9.35209 9.64126 9.20859 9.78476C9.06493 9.92842 8.88676 10.0003 8.67409 10.0003H6.86634C6.78934 10.0003 6.71884 10.0323 6.65484 10.0965C6.59068 10.1605 6.55859 10.231 6.55859 10.308V20.6925C6.55859 20.7695 6.59068 20.84 6.65484 20.904C6.71884 20.9682 6.78934 21.0003 6.86634 21.0003H18.2508C18.3278 21.0003 18.3983 20.9682 18.4623 20.904C18.5265 20.84 18.5586 20.7695 18.5586 20.6925V10.308C18.5586 10.231 18.5265 10.1605 18.4623 10.0965C18.3983 10.0323 18.3278 10.0003 18.2508 10.0003H16.4431C16.2304 10.0003 16.0523 9.92842 15.9086 9.78476C15.7651 9.64126 15.6933 9.46309 15.6933 9.25026C15.6933 9.03742 15.7651 8.85926 15.9086 8.71576C16.0523 8.57209 16.2304 8.50026 16.4431 8.50026H18.2508C18.756 8.50026 19.1836 8.67526 19.5336 9.02526C19.8836 9.37526 20.0586 9.80284 20.0586 10.308V20.6925C20.0586 21.1977 19.8836 21.6253 19.5336 21.9753C19.1836 22.3253 18.756 22.5003 18.2508 22.5003H6.86634ZM11.8086 4.71951L10.4856 6.04251C10.3368 6.19134 10.1627 6.26476 9.96334 6.26276C9.76401 6.26092 9.58676 6.18243 9.43159 6.02726C9.28676 5.87209 9.21176 5.69642 9.20659 5.50026C9.20159 5.30409 9.27659 5.12851 9.43159 4.97351L11.9258 2.47926C12.1067 2.29842 12.3176 2.20801 12.5586 2.20801C12.7996 2.20801 13.0105 2.29842 13.1913 2.47926L15.6856 4.97351C15.8239 5.11184 15.8948 5.28326 15.8981 5.48776C15.9013 5.69226 15.8304 5.87209 15.6856 6.02726C15.5304 6.18243 15.3522 6.26001 15.1508 6.26001C14.9497 6.26001 14.7715 6.18243 14.6163 6.02726L13.3086 4.71951V15.0003C13.3086 15.2131 13.2368 15.3913 13.0931 15.5348C12.9496 15.6784 12.7714 15.7503 12.5586 15.7503C12.3458 15.7503 12.1676 15.6784 12.0241 15.5348C11.8804 15.3913 11.8086 15.2131 11.8086 15.0003V4.71951Z" fill="#F2F2F2"/>
</svg>
