<svg width="304" height="257" viewBox="0 0 304 257" fill="none" xmlns="http://www.w3.org/2000/svg">
<g filter="url(#filter0_b_1735_11342)">
<rect width="304" height="257" rx="15" fill="white" fill-opacity="0.8"/>
<rect x="0.5" y="0.5" width="303" height="256" rx="14.5" stroke="white"/>
<circle cx="151.692" cy="85.4374" r="32.0466" stroke="#0037EB" stroke-width="0.781625"/>
<path d="M147.844 98.9105C148.194 100.972 148.616 102.905 148.425 104.881C148.368 105.472 148.603 106.458 147.709 106.404C146.815 106.35 147.292 105.424 147.301 104.888C147.318 103.396 147.205 101.906 146.964 100.433C146.834 99.5926 146.427 99.2973 145.625 99.2471C143.067 99.0884 140.546 99.4051 138.025 99.7439C137.219 99.8517 136.418 99.9942 135.613 100.113C134.935 100.213 134.492 99.9764 134.659 99.2323C136.053 93.0174 135.661 86.6755 136.034 80.3883C136.176 77.9825 136.459 75.5899 137.306 73.306C137.781 72.0337 138.456 70.8459 139.306 69.7877C139.454 69.6039 139.661 69.4186 139.699 69.2075C140.01 67.4771 141.235 66.5824 142.726 66.0753C147.703 64.3804 152.722 63.4598 157.763 65.8604C162.957 68.3342 166.579 72.0938 167.64 77.9581C167.881 79.2913 168.23 80.6053 168.545 81.9259C169.338 85.2729 170.376 88.5255 172.208 91.4768C173.269 93.1749 174.518 94.7477 175.932 96.1651C176.849 97.0908 176.797 97.5256 175.719 98.2431C172.701 100.254 169.359 101.344 165.786 101.879C163.384 102.236 160.995 102.336 158.59 102.069C157.952 101.999 157.704 102.226 157.77 102.858C157.861 103.772 158 104.674 158.291 105.548C158.405 105.891 158.468 106.258 158.058 106.421C157.599 106.603 157.366 106.269 157.224 105.904C156.815 104.848 156.678 103.732 156.606 102.616C156.567 102.001 156.285 101.725 155.72 101.558C154.292 101.132 153.967 100.681 153.903 99.1423C153.732 95.0298 154.696 91.059 155.429 87.0601C156.019 83.8253 156.717 80.6031 156.644 77.2849C156.636 76.946 156.638 76.6057 156.607 76.2691C156.233 72.1509 153.977 70.205 149.839 70.4314C148.241 70.52 146.679 70.844 145.135 71.2434C143.868 71.5734 142.593 71.6782 141.309 71.3999C140.71 71.2707 140.327 71.439 140.123 72.0318C138.435 76.9372 137.162 81.9104 137.67 87.1701C138.143 92.0629 140.69 95.3885 145.244 97.217C147.123 97.9715 148.892 97.7094 150.624 96.7977C150.834 96.6878 151.027 96.5482 151.234 96.4286C151.529 96.2603 151.825 96.2323 152.034 96.5571C152.217 96.842 152.059 97.0849 151.858 97.2783C151.256 97.8534 150.52 98.1929 149.729 98.4159C149.15 98.5842 148.56 98.7252 147.844 98.9105Z" fill="#0037EB"/>
<path d="M143.399 86.1213C143.655 84.8391 143.973 83.3841 144.23 81.918C144.505 80.3501 144.723 78.7725 144.968 77.1987C145.042 76.7358 145.035 76.115 145.69 76.1933C146.308 76.2671 146.139 76.8613 146.084 77.2747C145.736 79.8931 145.396 82.5159 144.765 85.0856C144.693 85.3467 144.636 85.612 144.595 85.8799C144.485 86.7901 144.735 87.0123 145.609 86.7658C145.932 86.675 146.235 86.5133 146.551 86.3967C146.826 86.2948 147.094 86.2918 147.263 86.5812C147.424 86.8573 147.323 87.098 147.128 87.3194C146.661 87.8465 144.804 88.2156 144.16 87.924C143.439 87.5977 143.363 86.9784 143.399 86.1213Z" fill="#0037EB"/>
<path d="M150.756 81.1058C150.756 81.7429 150.599 82.2131 150.268 82.6221C149.805 83.1935 149.234 83.5493 148.505 83.2289C147.739 82.8908 147.864 82.1954 148.036 81.5628C148.169 81.1104 148.344 80.6715 148.558 80.2517C148.801 79.7498 149.124 79.2921 149.784 79.405C150.389 79.5076 150.536 80.0199 150.661 80.5197C150.703 80.7133 150.735 80.9089 150.756 81.1058Z" fill="#0037EB"/>
<path d="M142.815 81.1218C142.793 81.3189 142.782 81.5219 142.745 81.7198C142.563 82.6868 141.854 83.3305 141.132 83.1903C140.349 83.0382 140.038 82.2956 140.32 81.2296C140.362 81.0318 140.422 80.8384 140.501 80.6523C140.792 80.0507 141.027 79.2881 141.907 79.4874C142.732 79.6727 142.718 80.4515 142.815 81.1218Z" fill="#0037EB"/>
<path d="M144.977 92.7738C144.821 92.7738 144.787 92.7738 144.755 92.7738C143.733 92.7362 142.609 92.0976 142.614 91.5595C142.619 91.0213 144.117 90.3968 145.044 90.5636C145.276 90.6045 145.502 90.6791 145.713 90.7851C146.183 91.0294 147.022 90.977 146.934 91.7352C146.849 92.4778 146.079 92.5885 145.458 92.734C145.299 92.7624 145.138 92.7758 144.977 92.7738Z" fill="#0037EB"/>
<path d="M150.434 75.8779C152.038 76.0293 153.313 76.6523 154.051 78.1287C154.235 78.4978 154.42 78.9518 153.942 79.1947C153.429 79.4553 153.251 78.9511 153.056 78.6174C152.436 77.5655 151.514 77.0605 150.306 77.034C149.859 77.0244 149.179 77.2 149.199 76.5305C149.217 75.8078 149.95 75.9422 150.434 75.8779Z" fill="#0037EB"/>
<path d="M143.505 76.7045C143.505 77.092 143.242 77.2168 142.93 77.3061C141.904 77.5977 140.95 77.9948 140.325 78.9427C140.153 79.2048 139.865 79.3768 139.544 79.1324C139.254 78.9109 139.277 78.6201 139.415 78.3108C139.819 77.4006 141.871 76.1338 142.849 76.1966C143.186 76.218 143.437 76.342 143.505 76.7045Z" fill="#0037EB"/>
<path d="M46.9654 150.901L47.2274 150.941C47.3685 150.941 47.4491 151.062 47.4491 151.183L47.2073 156.181C47.1871 156.322 47.0662 156.464 46.9251 156.464H46.8848L46.7034 156.443C46.5825 156.443 46.4616 156.322 46.4213 156.222C46.3608 155.98 46.1593 155.98 45.8973 155.98H36.9088C36.8081 155.98 36.7274 155.899 36.7274 155.798V155.436C36.7274 155.335 36.8081 155.254 36.9088 155.254H37.1305C37.5336 155.254 37.8157 155.154 37.8157 154.166V144.17C37.8157 143.182 37.5336 143.082 37.1104 143.082H36.9088C36.8081 143.082 36.7274 143.001 36.7274 142.9V142.537C36.7274 142.437 36.8081 142.356 36.9088 142.356H45.4741C45.7361 142.356 45.9376 142.356 46.0182 142.114C46.0384 142.013 46.1794 141.893 46.3004 141.893L46.4616 141.872H46.5019C46.6631 141.872 46.784 142.013 46.8042 142.155L46.9856 146.588V146.629C46.9856 146.729 46.8848 146.83 46.784 146.83L46.5019 146.85H46.4616C46.3608 146.85 46.2601 146.75 46.2601 146.649C46.0988 144.936 46.3608 143.102 42.1487 143.102H39.7505C39.4885 143.162 39.3071 143.404 39.3071 144.17V148.805H42.6929C43.7006 148.805 44.0029 148.281 44.023 147.636C44.023 147.495 44.1439 147.394 44.2649 147.374H44.5268C44.6679 147.374 44.7687 147.495 44.7687 147.616L45.0307 151.586V151.627C45.0307 151.727 44.9299 151.828 44.809 151.828L44.547 151.848C44.4261 151.848 44.3052 151.768 44.285 151.627C44.1842 150.438 43.8416 149.531 42.6123 149.531H39.3071V154.166C39.3071 154.912 39.4683 155.154 39.7303 155.234H42.572C46.7639 155.234 46.5422 152.836 46.7034 151.123C46.7236 151.002 46.8243 150.901 46.9654 150.901ZM57.9222 146.286V146.669C57.9222 146.75 57.8415 146.83 57.7609 146.83C57.2571 146.85 56.8742 147.012 56.592 147.717L53.3272 155.859C53.2869 155.94 53.2062 156 53.1256 156H52.6823C52.6016 156 52.521 155.94 52.4807 155.859L49.1957 147.677C48.8934 147.012 48.5709 146.85 48.0872 146.83C48.0066 146.83 47.926 146.75 47.926 146.669V146.286C47.926 146.185 48.0268 146.105 48.1276 146.105C48.6112 146.165 49.1554 146.205 49.7398 146.205C50.3444 146.205 50.9087 146.165 51.4126 146.105C51.5133 146.105 51.594 146.185 51.594 146.326V146.669C51.594 146.75 51.5335 146.83 51.4327 146.83C51.07 146.87 50.7677 146.991 50.7677 147.415C50.7677 147.556 50.7878 147.717 50.8684 147.918L53.3272 153.964L55.7254 147.918C55.806 147.717 55.8464 147.536 55.8464 147.394C55.8464 146.991 55.5239 146.87 55.141 146.83C55.0604 146.83 54.9798 146.77 54.9798 146.629V146.286C54.9798 146.205 55.0604 146.125 55.141 146.125H55.1813C55.5642 146.185 56.0076 146.205 56.4913 146.205C56.9548 146.205 57.3579 146.165 57.7206 146.125H57.7609C57.8415 146.125 57.9222 146.205 57.9222 146.286ZM66.0793 153.521L66.2405 153.682C66.2808 153.723 66.301 153.763 66.301 153.823C66.301 153.864 66.2808 153.904 66.2607 153.924C65.253 155.496 63.4795 156.363 61.7866 156.363C59.1062 156.363 57.373 154.287 57.373 151.546C57.373 148.805 59.1263 145.742 62.3106 145.742C63.1167 145.742 65.4142 145.984 66.039 149.087V149.168C66.039 149.43 65.8979 149.631 65.6561 149.692L64.0841 150.095L58.8643 151.465C59.1465 153.541 60.3759 155.375 62.492 155.375C62.7741 155.375 63.0563 155.335 63.3586 155.274C64.6685 154.992 65.4142 154.146 65.7568 153.561C65.7971 153.501 65.8576 153.461 65.9181 153.461C65.9785 153.461 66.039 153.481 66.0793 153.521ZM61.2828 146.548C59.4891 146.87 58.8039 148.503 58.8039 150.337V150.72L64.0438 149.349C63.943 147.394 63.0361 146.508 61.7866 146.508C61.6254 146.508 61.4641 146.508 61.2828 146.548ZM74.1961 146.709C74.2969 147.052 74.3372 147.354 74.3372 147.596C74.3372 148.12 74.1357 148.402 73.8535 148.422C73.4504 148.422 73.1481 146.951 71.8382 146.951C71.2134 146.951 70.5886 147.415 69.3794 148.785V154.186C69.3794 155.174 69.6817 155.274 70.105 155.274H70.3065C70.4073 155.274 70.4677 155.355 70.4677 155.436V155.819C70.4677 155.899 70.4073 155.98 70.3266 155.98H70.2863C69.8027 155.919 69.2585 155.859 68.6338 155.859C68.0291 155.859 67.485 155.919 67.0013 155.98H66.961C66.8804 155.98 66.8199 155.899 66.8199 155.819V155.436C66.8199 155.355 66.9005 155.274 66.9812 155.274H67.1827C67.6059 155.274 67.9082 155.174 67.9082 154.186V148.301C67.9082 147.294 67.6059 147.193 67.1827 147.193H66.9812C66.9005 147.193 66.8199 147.132 66.8199 147.032V146.649C66.8199 146.568 66.8804 146.488 66.9812 146.488H67.1021C67.5455 146.488 68.2307 146.467 69.1174 146.105C69.1376 146.105 69.1577 146.084 69.1779 146.084C69.2787 146.084 69.3794 146.165 69.3794 146.286V148.019C70.6894 146.608 71.6165 145.722 72.604 145.722H72.7048C73.4303 145.742 73.914 146.044 74.1155 146.508C74.1357 146.568 74.176 146.649 74.1961 146.709ZM84.92 146.105C85.0208 146.105 85.1014 146.165 85.1014 146.286V146.649C85.1014 146.75 85.0409 146.83 84.9603 146.83C84.4565 146.85 84.0735 146.991 83.7914 147.717L80.5467 155.859C79.5995 158.257 78.4104 160.212 77.3826 160.212C76.8989 160.212 76.4958 159.406 76.4958 158.963C76.4958 158.882 76.4958 158.801 76.5361 158.761C76.9997 158.096 78.753 158.701 79.8615 155.98C79.7808 155.96 79.7204 155.919 79.7002 155.859L76.3951 147.677C76.0928 146.991 75.7501 146.85 75.2866 146.83C75.206 146.81 75.1254 146.75 75.1254 146.649V146.266C75.1254 146.185 75.206 146.105 75.2866 146.105H75.3068C75.8106 146.145 76.3547 146.185 76.9392 146.185C77.5438 146.185 78.1081 146.145 78.6119 146.105H78.6321C78.7329 146.105 78.7933 146.185 78.7933 146.306V146.669C78.7933 146.75 78.7329 146.81 78.6321 146.83C78.2693 146.87 77.967 146.991 77.967 147.394C77.967 147.536 77.9872 147.697 78.0678 147.898L80.5064 153.944L82.9248 147.898C83.0054 147.697 83.0457 147.515 83.0457 147.394C83.0457 146.971 82.7233 146.85 82.3403 146.83C82.2597 146.81 82.1791 146.75 82.1791 146.608V146.286C82.1791 146.165 82.2799 146.105 82.3806 146.105C82.7636 146.165 83.2069 146.205 83.6906 146.205C84.1542 146.205 84.5572 146.165 84.92 146.105ZM94.3021 155.436V155.819C94.3021 155.899 94.2416 155.98 94.161 155.98H94.1207C93.637 155.919 93.0727 155.859 92.4681 155.859C91.8635 155.859 91.2992 155.919 90.8357 155.98H90.7954C90.7148 155.98 90.6341 155.899 90.6341 155.819V155.436C90.6341 155.355 90.7148 155.274 90.8155 155.274H91.0171C91.4403 155.274 91.7426 155.174 91.7426 154.186V148.301C91.7426 147.294 91.4403 147.193 91.0171 147.193H90.8155C90.7148 147.193 90.6341 147.132 90.6341 147.032V146.649C90.6341 146.568 90.7148 146.488 90.8155 146.488H90.9364C91.3798 146.488 92.0449 146.467 92.9518 146.105C92.9719 146.105 92.9921 146.084 93.0123 146.084C93.113 146.084 93.2138 146.165 93.2138 146.286V154.186C93.2138 155.174 93.5161 155.274 93.9192 155.274H94.1207C94.2215 155.274 94.3021 155.355 94.3021 155.436ZM92.2867 144.613C91.6821 144.613 91.1783 144.109 91.1783 143.505C91.1783 142.88 91.6821 142.396 92.2867 142.396C92.9115 142.396 93.3952 142.88 93.3952 143.505C93.3952 144.109 92.9115 144.613 92.2867 144.613ZM105.801 155.436V155.819C105.801 155.899 105.721 155.98 105.64 155.98H105.6C105.116 155.919 104.572 155.859 103.947 155.859C103.343 155.859 102.799 155.919 102.335 155.98H102.295C102.214 155.98 102.133 155.899 102.133 155.819V155.436C102.133 155.355 102.214 155.274 102.315 155.274H102.516C102.899 155.274 103.242 155.194 103.242 154.509C103.242 154.428 103.242 154.307 103.222 154.186L102.678 149.49C102.496 148.019 102.093 146.911 100.763 146.911C100.602 146.911 100.441 146.911 100.259 146.951C99.5941 147.072 99.0298 147.435 97.7601 148.281V154.186C97.7601 155.174 98.0624 155.274 98.4655 155.274H98.667C98.7678 155.274 98.8484 155.355 98.8484 155.436V155.819C98.8484 155.899 98.788 155.98 98.7074 155.98H98.667C98.1834 155.919 97.6191 155.859 97.0145 155.859C96.4099 155.859 95.8456 155.919 95.382 155.98H95.3417C95.2611 155.98 95.1805 155.899 95.1805 155.819V155.436C95.1805 155.355 95.2611 155.274 95.3619 155.274H95.5634C95.9866 155.274 96.2889 155.174 96.2889 154.186V148.301C96.2889 147.294 95.9866 147.193 95.5634 147.193H95.3619C95.2611 147.193 95.1805 147.132 95.1805 147.032V146.649C95.1805 146.548 95.2611 146.488 95.3619 146.488H95.4828C95.9262 146.488 96.5912 146.467 97.4981 146.105C97.5183 146.105 97.5384 146.084 97.5586 146.084C97.6594 146.084 97.7601 146.165 97.7601 146.286V147.536C99.1306 146.447 100.32 145.722 101.227 145.722C103.363 145.722 103.846 146.931 104.209 149.611L104.713 154.186C104.854 155.154 105.056 155.274 105.499 155.274H105.62C105.721 155.274 105.801 155.355 105.801 155.436ZM114.517 155.436V155.819C114.517 155.899 114.457 155.98 114.376 155.98H114.336C113.912 155.919 113.449 155.879 112.925 155.879H112.683C112.078 155.879 111.534 155.919 111.051 155.98H111.01C110.93 155.98 110.869 155.899 110.869 155.819V155.436C110.869 155.355 110.95 155.274 111.03 155.274H111.232C111.655 155.274 111.957 155.174 111.957 154.186V143.968C111.534 143.223 110.889 142.336 110.184 142.336C110.063 142.336 109.942 142.376 109.801 142.437C109.277 142.679 109.277 143.747 109.277 143.747V146.105H111.353C111.494 146.105 111.615 146.205 111.615 146.367V146.568C111.615 146.709 111.494 146.83 111.353 146.83H109.277V154.186C109.277 155.174 109.579 155.274 110.003 155.274H110.204C110.305 155.274 110.386 155.355 110.386 155.436V155.819C110.386 155.899 110.305 155.98 110.224 155.98H110.184C109.761 155.919 109.297 155.879 108.773 155.879H108.531C107.927 155.879 107.383 155.919 106.899 155.98H106.879C106.778 155.98 106.718 155.899 106.718 155.778V155.436C106.718 155.355 106.798 155.274 106.879 155.274H107.08C107.504 155.274 107.806 155.174 107.806 154.186V146.83H105.972C105.831 146.83 105.71 146.709 105.71 146.568V146.367C105.71 146.205 105.831 146.105 105.972 146.105H107.806V145.198C107.806 143.989 108.733 141.893 110.768 141.893C111.292 141.893 111.696 142.034 111.998 142.215C112.32 142.175 112.723 142.074 113.167 141.893C113.187 141.893 113.207 141.872 113.227 141.872C113.328 141.872 113.429 141.953 113.429 142.074V154.186C113.429 155.174 113.731 155.274 114.154 155.274H114.356C114.457 155.274 114.517 155.355 114.517 155.436ZM124.632 154.912H124.834C124.935 154.912 125.015 154.972 125.015 155.073V155.456C125.015 155.557 124.935 155.617 124.854 155.617H124.733C124.27 155.617 123.605 155.637 122.718 156C122.698 156 122.678 156.02 122.637 156.02C122.537 156.02 122.436 155.94 122.436 155.819V154.569C121.609 155.456 119.977 156.383 118.969 156.383C116.833 156.383 116.349 155.174 115.987 152.493L115.442 148.261C115.342 147.314 114.999 147.213 114.576 147.213H114.354C114.253 147.213 114.173 147.132 114.173 147.052V146.669C114.173 146.568 114.253 146.508 114.334 146.508H114.455C114.918 146.508 115.584 146.488 116.47 146.125C116.49 146.125 116.511 146.105 116.551 146.105C116.652 146.105 116.752 146.185 116.752 146.306L117.518 152.614C117.72 154.146 118.224 155.174 119.574 155.174C119.675 155.174 119.755 155.154 119.856 155.154C121.025 155.053 122.093 154.126 122.436 153.823V148.301C122.436 147.314 122.154 147.213 121.73 147.213H121.529C121.428 147.213 121.347 147.132 121.347 147.052V146.669C121.347 146.568 121.428 146.508 121.509 146.508H121.63C122.093 146.508 122.758 146.488 123.645 146.125C123.665 146.125 123.685 146.105 123.726 146.105C123.826 146.105 123.927 146.185 123.927 146.306V153.803C123.927 154.811 124.209 154.912 124.632 154.912ZM134.412 153.521L134.574 153.682C134.614 153.723 134.634 153.763 134.634 153.823C134.634 153.864 134.614 153.904 134.594 153.924C133.586 155.496 131.812 156.363 130.12 156.363C127.439 156.363 125.706 154.287 125.706 151.546C125.706 148.805 127.459 145.742 130.644 145.742C131.45 145.742 133.747 145.984 134.372 149.087V149.168C134.372 149.43 134.231 149.631 133.989 149.692L132.417 150.095L127.197 151.465C127.479 153.541 128.709 155.375 130.825 155.375C131.107 155.375 131.389 155.335 131.692 155.274C133.002 154.992 133.747 154.146 134.09 153.561C134.13 153.501 134.191 153.461 134.251 153.461C134.312 153.461 134.372 153.481 134.412 153.521ZM129.616 146.548C127.822 146.87 127.137 148.503 127.137 150.337V150.72L132.377 149.349C132.276 147.394 131.369 146.508 130.12 146.508C129.958 146.508 129.797 146.508 129.616 146.548ZM145.754 155.436V155.819C145.754 155.899 145.674 155.98 145.593 155.98H145.553C145.069 155.919 144.525 155.859 143.9 155.859C143.295 155.859 142.751 155.919 142.288 155.98H142.247C142.167 155.98 142.086 155.899 142.086 155.819V155.436C142.086 155.355 142.167 155.274 142.268 155.274H142.469C142.852 155.274 143.195 155.194 143.195 154.509C143.195 154.428 143.195 154.307 143.174 154.186L142.63 149.49C142.449 148.019 142.046 146.911 140.716 146.911C140.555 146.911 140.393 146.911 140.212 146.951C139.547 147.072 138.983 147.435 137.713 148.281V154.186C137.713 155.174 138.015 155.274 138.418 155.274H138.62C138.721 155.274 138.801 155.355 138.801 155.436V155.819C138.801 155.899 138.741 155.98 138.66 155.98H138.62C138.136 155.919 137.572 155.859 136.967 155.859C136.363 155.859 135.798 155.919 135.335 155.98H135.294C135.214 155.98 135.133 155.899 135.133 155.819V155.436C135.133 155.355 135.214 155.274 135.315 155.274H135.516C135.939 155.274 136.242 155.174 136.242 154.186V148.301C136.242 147.294 135.939 147.193 135.516 147.193H135.315C135.214 147.193 135.133 147.132 135.133 147.032V146.649C135.133 146.548 135.214 146.488 135.315 146.488H135.436C135.879 146.488 136.544 146.467 137.451 146.105C137.471 146.105 137.491 146.084 137.511 146.084C137.612 146.084 137.713 146.165 137.713 146.286V147.536C139.083 146.447 140.272 145.722 141.179 145.722C143.316 145.722 143.799 146.931 144.162 149.611L144.666 154.186C144.807 155.154 145.008 155.274 145.452 155.274H145.573C145.674 155.274 145.754 155.355 145.754 155.436ZM154.86 153.481L155.082 153.702C155.122 153.743 155.122 153.783 155.122 153.823C155.122 153.844 155.122 153.884 155.102 153.904C154.114 155.476 152.301 156.363 150.608 156.363C147.927 156.363 146.194 154.267 146.194 151.546C146.194 148.846 147.968 145.742 151.232 145.742C152.825 145.742 154.034 146.145 154.336 146.79C154.356 146.87 154.397 146.931 154.417 147.012C154.538 147.415 154.578 147.757 154.578 148.039C154.578 148.624 154.356 148.926 154.034 148.946H154.014C153.59 148.946 152.845 146.508 150.628 146.508C150.507 146.508 150.386 146.508 150.265 146.528C150.205 146.548 150.164 146.548 150.104 146.548C148.31 146.87 147.605 148.483 147.605 150.337C147.605 150.74 147.645 151.143 147.706 151.546C148.008 153.582 149.217 155.375 151.313 155.375C151.595 155.375 151.877 155.335 152.18 155.274C153.51 154.992 154.296 154.106 154.618 153.521C154.638 153.461 154.699 153.441 154.739 153.441C154.779 153.441 154.82 153.441 154.86 153.481ZM164.426 153.521L164.587 153.682C164.628 153.723 164.648 153.763 164.648 153.823C164.648 153.864 164.628 153.904 164.607 153.924C163.6 155.496 161.826 156.363 160.133 156.363C157.453 156.363 155.72 154.287 155.72 151.546C155.72 148.805 157.473 145.742 160.657 145.742C161.463 145.742 163.761 145.984 164.386 149.087V149.168C164.386 149.43 164.245 149.631 164.003 149.692L162.431 150.095L157.211 151.465C157.493 153.541 158.723 155.375 160.839 155.375C161.121 155.375 161.403 155.335 161.705 155.274C163.015 154.992 163.761 154.146 164.104 153.561C164.144 153.501 164.204 153.461 164.265 153.461C164.325 153.461 164.386 153.481 164.426 153.521ZM159.63 146.548C157.836 146.87 157.151 148.503 157.151 150.337V150.72L162.391 149.349C162.29 147.394 161.383 146.508 160.133 146.508C159.972 146.508 159.811 146.508 159.63 146.548ZM172.543 146.709C172.644 147.052 172.684 147.354 172.684 147.596C172.684 148.12 172.482 148.402 172.2 148.422C171.797 148.422 171.495 146.951 170.185 146.951C169.56 146.951 168.935 147.415 167.726 148.785V154.186C167.726 155.174 168.028 155.274 168.452 155.274H168.653C168.754 155.274 168.814 155.355 168.814 155.436V155.819C168.814 155.899 168.754 155.98 168.673 155.98H168.633C168.149 155.919 167.605 155.859 166.981 155.859C166.376 155.859 165.832 155.919 165.348 155.98H165.308C165.227 155.98 165.167 155.899 165.167 155.819V155.436C165.167 155.355 165.247 155.274 165.328 155.274H165.529C165.953 155.274 166.255 155.174 166.255 154.186V148.301C166.255 147.294 165.953 147.193 165.529 147.193H165.328C165.247 147.193 165.167 147.132 165.167 147.032V146.649C165.167 146.568 165.227 146.488 165.328 146.488H165.449C165.892 146.488 166.577 146.467 167.464 146.105C167.484 146.105 167.504 146.084 167.525 146.084C167.625 146.084 167.726 146.165 167.726 146.286V148.019C169.036 146.608 169.963 145.722 170.951 145.722H171.052C171.777 145.742 172.261 146.044 172.462 146.508C172.482 146.568 172.523 146.649 172.543 146.709ZM187.744 154.529L187.945 154.71C188.006 154.75 188.046 154.831 188.046 154.892C188.046 154.932 188.026 154.992 188.006 155.033C187.703 155.597 187.24 156.081 186.454 156.081C185.668 156.081 185.083 155.577 184.942 154.347L184.862 153.622C184.277 155.053 183.129 156.081 181.597 156.081C179.42 156.081 178.392 154.287 178.392 153.098C178.392 151.163 182.786 149.43 184.277 148.866C184.096 147.656 183.834 146.709 182.363 146.709H182.322C180.67 146.75 180.791 149.511 179.843 149.511C179.682 149.511 179.622 149.148 179.622 148.704C179.622 148.221 179.682 147.636 179.763 147.394C179.924 146.85 181.879 146.044 182.967 146.044C184.801 146.044 185.486 146.87 185.849 149.249L186.414 154.146V154.206C186.494 154.871 186.696 154.912 186.897 154.912C187.099 154.912 187.24 154.73 187.381 154.569C187.421 154.509 187.502 154.468 187.582 154.468C187.623 154.468 187.683 154.488 187.744 154.529ZM181.98 154.972C184.539 154.972 184.559 151.183 184.559 151.062L184.398 149.712C184.378 149.631 184.378 149.551 184.358 149.47C182.625 150.236 180.085 151.627 180.085 152.836C180.085 154.025 180.811 154.972 181.98 154.972ZM199.09 155.436V155.819C199.09 155.899 199.009 155.98 198.929 155.98H198.889C198.405 155.919 197.861 155.859 197.236 155.859C196.631 155.859 196.087 155.919 195.624 155.98H195.583C195.503 155.98 195.422 155.899 195.422 155.819V155.436C195.422 155.355 195.503 155.274 195.604 155.274H195.805C196.188 155.274 196.531 155.194 196.531 154.509C196.531 154.428 196.531 154.307 196.51 154.186L195.966 149.49C195.785 148.019 195.382 146.911 194.052 146.911C193.891 146.911 193.729 146.911 193.548 146.951C192.883 147.072 192.319 147.435 191.049 148.281V154.186C191.049 155.174 191.351 155.274 191.754 155.274H191.956C192.057 155.274 192.137 155.355 192.137 155.436V155.819C192.137 155.899 192.077 155.98 191.996 155.98H191.956C191.472 155.919 190.908 155.859 190.303 155.859C189.699 155.859 189.134 155.919 188.671 155.98H188.63C188.55 155.98 188.469 155.899 188.469 155.819V155.436C188.469 155.355 188.55 155.274 188.651 155.274H188.852C189.275 155.274 189.578 155.174 189.578 154.186V148.301C189.578 147.294 189.275 147.193 188.852 147.193H188.651C188.55 147.193 188.469 147.132 188.469 147.032V146.649C188.469 146.548 188.55 146.488 188.651 146.488H188.772C189.215 146.488 189.88 146.467 190.787 146.105C190.807 146.105 190.827 146.084 190.847 146.084C190.948 146.084 191.049 146.165 191.049 146.286V147.536C192.419 146.447 193.608 145.722 194.515 145.722C196.652 145.722 197.135 146.931 197.498 149.611L198.002 154.186C198.143 155.154 198.344 155.274 198.788 155.274H198.909C199.009 155.274 199.09 155.355 199.09 155.436ZM209.587 155.053V155.436C209.587 155.516 209.526 155.597 209.425 155.597H209.304C208.861 155.597 208.156 155.617 207.289 155.96C207.269 155.98 207.249 155.98 207.208 155.98C207.108 155.98 207.027 155.899 207.027 155.778V154.549C206.1 155.416 204.689 156.343 203.702 156.343C201.324 156.343 199.53 154.267 199.53 151.526C199.53 148.543 201.626 145.722 204.649 145.722C205.556 145.722 206.564 146.185 207.027 146.528V144.835C207.027 143.142 206.705 142.981 206.261 142.981H206.1C205.999 142.981 205.939 142.9 205.939 142.82V142.437C205.939 142.336 205.999 142.275 206.1 142.275H206.221C206.664 142.275 207.35 142.255 208.236 141.893H208.277C208.398 141.893 208.498 142.054 208.498 142.84V153.783C208.498 154.771 208.801 154.871 209.224 154.871H209.425C209.506 154.871 209.587 154.952 209.587 155.053ZM201.042 151.526C201.364 153.521 202.634 154.972 204.306 154.972C204.568 154.972 204.83 154.952 205.113 154.871C205.959 154.63 206.543 154.267 207.027 153.803V148.503C206.463 147.294 205.294 146.568 204.105 146.568C203.843 146.568 203.601 146.608 203.359 146.669C201.646 147.112 200.941 148.563 200.941 150.337C200.941 150.72 200.981 151.123 201.042 151.526ZM221.042 145.722C223.42 145.722 225.194 147.818 225.194 150.538C225.194 153.541 223.098 156.363 220.075 156.363C219.45 156.363 218.684 156.101 218.08 155.778C217.797 155.637 217.596 155.577 217.435 155.577C217.193 155.577 217.032 155.718 216.87 155.919C216.83 155.96 216.77 155.98 216.709 155.98H216.346C216.286 155.98 216.225 155.919 216.225 155.859V144.089C216.225 143.082 215.923 142.981 215.5 142.981H215.298C215.198 142.981 215.137 142.92 215.137 142.82V142.437C215.137 142.336 215.198 142.275 215.298 142.275H215.419C215.863 142.275 216.528 142.255 217.435 141.893C217.455 141.893 217.475 141.872 217.495 141.872C217.596 141.872 217.697 141.953 217.697 142.074V147.536C218.624 146.669 220.034 145.722 221.042 145.722ZM221.385 155.395C223.098 154.972 223.783 153.521 223.783 151.727C223.783 151.345 223.743 150.941 223.682 150.538C223.38 148.543 222.13 147.112 220.438 147.112C220.176 147.112 219.914 147.132 219.631 147.213C218.785 147.435 218.18 147.818 217.697 148.281V153.541C218.261 154.75 219.41 155.496 220.619 155.496C220.881 155.496 221.123 155.456 221.385 155.395ZM233.2 146.709C233.301 147.052 233.341 147.354 233.341 147.596C233.341 148.12 233.14 148.402 232.858 148.422C232.455 148.422 232.152 146.951 230.842 146.951C230.218 146.951 229.593 147.415 228.384 148.785V154.186C228.384 155.174 228.686 155.274 229.109 155.274H229.311C229.411 155.274 229.472 155.355 229.472 155.436V155.819C229.472 155.899 229.411 155.98 229.331 155.98H229.29C228.807 155.919 228.263 155.859 227.638 155.859C227.033 155.859 226.489 155.919 226.005 155.98H225.965C225.884 155.98 225.824 155.899 225.824 155.819V155.436C225.824 155.355 225.905 155.274 225.985 155.274H226.187C226.61 155.274 226.912 155.174 226.912 154.186V148.301C226.912 147.294 226.61 147.193 226.187 147.193H225.985C225.905 147.193 225.824 147.132 225.824 147.032V146.649C225.824 146.568 225.884 146.488 225.985 146.488H226.106C226.55 146.488 227.235 146.467 228.122 146.105C228.142 146.105 228.162 146.084 228.182 146.084C228.283 146.084 228.384 146.165 228.384 146.286V148.019C229.694 146.608 230.621 145.722 231.608 145.722H231.709C232.434 145.742 232.918 146.044 233.12 146.508C233.14 146.568 233.18 146.649 233.2 146.709ZM242.615 154.529L242.816 154.71C242.877 154.75 242.917 154.831 242.917 154.892C242.917 154.932 242.897 154.992 242.877 155.033C242.574 155.597 242.111 156.081 241.325 156.081C240.539 156.081 239.954 155.577 239.813 154.347L239.733 153.622C239.148 155.053 238 156.081 236.468 156.081C234.291 156.081 233.264 154.287 233.264 153.098C233.264 151.163 237.657 149.43 239.148 148.866C238.967 147.656 238.705 146.709 237.234 146.709H237.193C235.541 146.75 235.662 149.511 234.715 149.511C234.553 149.511 234.493 149.148 234.493 148.704C234.493 148.221 234.553 147.636 234.634 147.394C234.795 146.85 236.75 146.044 237.838 146.044C239.672 146.044 240.358 146.87 240.72 149.249L241.285 154.146V154.206C241.365 154.871 241.567 154.912 241.768 154.912C241.97 154.912 242.111 154.73 242.252 154.569C242.292 154.509 242.373 154.468 242.454 154.468C242.494 154.468 242.554 154.488 242.615 154.529ZM236.851 154.972C239.41 154.972 239.43 151.183 239.43 151.062L239.269 149.712C239.249 149.631 239.249 149.551 239.229 149.47C237.496 150.236 234.956 151.627 234.956 152.836C234.956 154.025 235.682 154.972 236.851 154.972ZM253.961 155.436V155.819C253.961 155.899 253.881 155.98 253.8 155.98H253.76C253.276 155.919 252.732 155.859 252.107 155.859C251.502 155.859 250.958 155.919 250.495 155.98H250.454C250.374 155.98 250.293 155.899 250.293 155.819V155.436C250.293 155.355 250.374 155.274 250.475 155.274H250.676C251.059 155.274 251.402 155.194 251.402 154.509C251.402 154.428 251.402 154.307 251.382 154.186L250.837 149.49C250.656 148.019 250.253 146.911 248.923 146.911C248.762 146.911 248.6 146.911 248.419 146.951C247.754 147.072 247.19 147.435 245.92 148.281V154.186C245.92 155.174 246.222 155.274 246.625 155.274H246.827C246.928 155.274 247.008 155.355 247.008 155.436V155.819C247.008 155.899 246.948 155.98 246.867 155.98H246.827C246.343 155.919 245.779 155.859 245.174 155.859C244.57 155.859 244.005 155.919 243.542 155.98H243.501C243.421 155.98 243.34 155.899 243.34 155.819V155.436C243.34 155.355 243.421 155.274 243.522 155.274H243.723C244.146 155.274 244.449 155.174 244.449 154.186V148.301C244.449 147.294 244.146 147.193 243.723 147.193H243.522C243.421 147.193 243.34 147.132 243.34 147.032V146.649C243.34 146.548 243.421 146.488 243.522 146.488H243.643C244.086 146.488 244.751 146.467 245.658 146.105C245.678 146.105 245.698 146.084 245.718 146.084C245.819 146.084 245.92 146.165 245.92 146.286V147.536C247.29 146.447 248.479 145.722 249.386 145.722C251.523 145.722 252.006 146.931 252.369 149.611L252.873 154.186C253.014 155.154 253.215 155.274 253.659 155.274H253.78C253.881 155.274 253.961 155.355 253.961 155.436ZM264.458 155.053V155.436C264.458 155.516 264.397 155.597 264.296 155.597H264.176C263.732 155.597 263.027 155.617 262.16 155.96C262.14 155.98 262.12 155.98 262.08 155.98C261.979 155.98 261.898 155.899 261.898 155.778V154.549C260.971 155.416 259.56 156.343 258.573 156.343C256.195 156.343 254.401 154.267 254.401 151.526C254.401 148.543 256.497 145.722 259.52 145.722C260.427 145.722 261.435 146.185 261.898 146.528V144.835C261.898 143.142 261.576 142.981 261.132 142.981H260.971C260.87 142.981 260.81 142.9 260.81 142.82V142.437C260.81 142.336 260.87 142.275 260.971 142.275H261.092C261.535 142.275 262.221 142.255 263.107 141.893H263.148C263.269 141.893 263.369 142.054 263.369 142.84V153.783C263.369 154.771 263.672 154.871 264.095 154.871H264.296C264.377 154.871 264.458 154.952 264.458 155.053ZM255.913 151.526C256.235 153.521 257.505 154.972 259.177 154.972C259.439 154.972 259.701 154.952 259.984 154.871C260.83 154.63 261.415 154.267 261.898 153.803V148.503C261.334 147.294 260.165 146.568 258.976 146.568C258.714 146.568 258.472 146.608 258.23 146.669C256.517 147.112 255.812 148.563 255.812 150.337C255.812 150.72 255.852 151.123 255.913 151.526ZM266.703 155.113V155.234C266.703 155.738 266.663 157.229 265.736 157.733H265.695C265.635 157.733 265.595 157.713 265.574 157.693L265.413 157.491C265.393 157.471 265.393 157.451 265.393 157.431C265.393 157.37 265.413 157.33 265.454 157.31C265.675 157.149 266.119 156.786 266.119 156.081V155.94C266.038 155.96 265.937 155.98 265.836 155.98C265.312 155.98 264.97 155.597 264.97 155.113C264.97 154.63 265.292 154.247 265.836 154.247C266.381 154.247 266.703 154.63 266.703 155.113ZM38.337 170.709C38.4378 171.052 38.4781 171.354 38.4781 171.596C38.4781 172.12 38.2766 172.402 37.9944 172.422C37.5914 172.422 37.2891 170.951 35.9791 170.951C35.3543 170.951 34.7296 171.415 33.5204 172.785V178.186C33.5204 179.174 33.8227 179.274 34.2459 179.274H34.4474C34.5482 179.274 34.6086 179.355 34.6086 179.436V179.819C34.6086 179.899 34.5482 179.98 34.4676 179.98H34.4273C33.9436 179.919 33.3994 179.859 32.7747 179.859C32.1701 179.859 31.6259 179.919 31.1422 179.98H31.1019C31.0213 179.98 30.9609 179.899 30.9609 179.819V179.436C30.9609 179.355 31.0415 179.274 31.1221 179.274H31.3236C31.7468 179.274 32.0492 179.174 32.0492 178.186V172.301C32.0492 171.294 31.7468 171.193 31.3236 171.193H31.1221C31.0415 171.193 30.9609 171.132 30.9609 171.032V170.649C30.9609 170.568 31.0213 170.488 31.1221 170.488H31.243C31.6864 170.488 32.3716 170.467 33.2584 170.105C33.2785 170.105 33.2987 170.084 33.3188 170.084C33.4196 170.084 33.5204 170.165 33.5204 170.286V172.019C34.8303 170.608 35.7574 169.722 36.7449 169.722H36.8457C37.5712 169.742 38.0549 170.044 38.2564 170.508C38.2766 170.568 38.3169 170.649 38.337 170.709ZM47.3035 177.521L47.4647 177.682C47.505 177.723 47.5252 177.763 47.5252 177.823C47.5252 177.864 47.505 177.904 47.4848 177.924C46.4772 179.496 44.7037 180.363 43.0108 180.363C40.3304 180.363 38.5972 178.287 38.5972 175.546C38.5972 172.805 40.3505 169.742 43.5348 169.742C44.3409 169.742 46.6384 169.984 47.2632 173.087V173.168C47.2632 173.43 47.1221 173.631 46.8802 173.692L45.3083 174.095L40.0885 175.465C40.3707 177.541 41.6 179.375 43.7161 179.375C43.9983 179.375 44.2804 179.335 44.5827 179.274C45.8927 178.992 46.6384 178.146 46.981 177.561C47.0213 177.501 47.0818 177.461 47.1422 177.461C47.2027 177.461 47.2632 177.481 47.3035 177.521ZM42.5069 170.548C40.7133 170.87 40.0281 172.503 40.0281 174.337V174.72L45.268 173.349C45.1672 171.394 44.2603 170.508 43.0108 170.508C42.8495 170.508 42.6883 170.508 42.5069 170.548ZM56.3521 169.399H56.4327C56.5738 169.399 56.7148 169.5 56.735 169.641L56.8962 170.407V170.467C56.8962 170.649 56.7551 170.79 56.5738 170.79H56.5335L54.2158 170.467C55.5661 170.931 56.4327 172.322 56.4327 173.732C56.4327 175.143 55.3646 176.715 53.8732 177.441L53.8329 177.461C53.591 177.582 53.3291 177.662 53.0671 177.743L52.14 178.085C54.7196 178.609 56.997 179.637 56.997 181.33C56.997 183.043 54.8003 184.192 52.0795 184.192C50.0642 184.192 47.8473 183.567 47.8473 181.814C47.8473 180.363 50.0843 179.617 51.4951 179.295C50.7494 179.133 50.1045 179.033 49.782 178.952L49.5402 178.509L51.4951 177.844C49.3588 177.622 48.2705 176.191 48.2705 174.236C48.2705 172.16 50.3866 170.105 52.6035 170.105L56.3521 169.399ZM52.8051 179.637C50.7494 179.778 49.6007 180.705 49.6007 181.673V181.693C49.6208 182.741 50.3665 183.688 52.5229 183.688C52.6841 183.688 52.8655 183.688 53.0469 183.668C54.3972 183.587 55.3847 182.801 55.3847 181.814V181.673C55.2839 180.665 54.0949 180.04 52.8051 179.637ZM52.7043 177.118C53.974 176.997 54.901 175.707 54.901 174.155C54.901 174.014 54.901 173.873 54.8809 173.732C54.6995 172.08 53.5306 170.83 52.2206 170.83C52.1601 170.83 52.0795 170.85 52.0191 170.85C50.7494 170.971 49.8223 172.241 49.8223 173.793C49.8223 173.934 49.8223 174.075 49.8425 174.236C50.0239 175.889 51.1928 177.138 52.5028 177.138C52.5632 177.138 52.6438 177.118 52.7043 177.118ZM66.5668 178.529L66.7683 178.71C66.8288 178.75 66.8691 178.831 66.8691 178.892C66.8691 178.932 66.8489 178.992 66.8288 179.033C66.5265 179.597 66.0629 180.081 65.2769 180.081C64.4909 180.081 63.9065 179.577 63.7654 178.347L63.6848 177.622C63.1004 179.053 61.9516 180.081 60.4199 180.081C58.2434 180.081 57.2155 178.287 57.2155 177.098C57.2155 175.163 61.609 173.43 63.1004 172.866C62.919 171.656 62.657 170.709 61.1858 170.709H61.1455C59.4929 170.75 59.6138 173.511 58.6666 173.511C58.5054 173.511 58.4449 173.148 58.4449 172.704C58.4449 172.221 58.5054 171.636 58.586 171.394C58.7472 170.85 60.7021 170.044 61.7904 170.044C63.6243 170.044 64.3096 170.87 64.6723 173.249L65.2366 178.146V178.206C65.3172 178.871 65.5188 178.912 65.7203 178.912C65.9218 178.912 66.0629 178.73 66.204 178.569C66.2443 178.509 66.3249 178.468 66.4055 178.468C66.4458 178.468 66.5063 178.488 66.5668 178.529ZM60.8029 178.972C63.3624 178.972 63.3825 175.183 63.3825 175.062L63.2213 173.712C63.2011 173.631 63.2011 173.551 63.181 173.47C61.4478 174.236 58.9084 175.627 58.9084 176.836C58.9084 178.025 59.634 178.972 60.8029 178.972ZM74.9243 170.709C75.0251 171.052 75.0654 171.354 75.0654 171.596C75.0654 172.12 74.8639 172.402 74.5817 172.422C74.1786 172.422 73.8763 170.951 72.5664 170.951C71.9416 170.951 71.3168 171.415 70.1076 172.785V178.186C70.1076 179.174 70.4099 179.274 70.8332 179.274H71.0347C71.1355 179.274 71.1959 179.355 71.1959 179.436V179.819C71.1959 179.899 71.1355 179.98 71.0549 179.98H71.0145C70.5309 179.919 69.9867 179.859 69.362 179.859C68.7574 179.859 68.2132 179.919 67.7295 179.98H67.6892C67.6086 179.98 67.5481 179.899 67.5481 179.819V179.436C67.5481 179.355 67.6288 179.274 67.7094 179.274H67.9109C68.3341 179.274 68.6364 179.174 68.6364 178.186V172.301C68.6364 171.294 68.3341 171.193 67.9109 171.193H67.7094C67.6288 171.193 67.5481 171.132 67.5481 171.032V170.649C67.5481 170.568 67.6086 170.488 67.7094 170.488H67.8303C68.2737 170.488 68.9589 170.467 69.8456 170.105C69.8658 170.105 69.8859 170.084 69.9061 170.084C70.0069 170.084 70.1076 170.165 70.1076 170.286V172.019C71.4176 170.608 72.3447 169.722 73.3322 169.722H73.433C74.1585 169.742 74.6422 170.044 74.8437 170.508C74.8639 170.568 74.9042 170.649 74.9243 170.709ZM85.2214 179.053V179.436C85.2214 179.516 85.1609 179.597 85.0601 179.597H84.9392C84.4958 179.597 83.7905 179.617 82.9239 179.96C82.9037 179.98 82.8835 179.98 82.8432 179.98C82.7425 179.98 82.6619 179.899 82.6619 179.778V178.549C81.7348 179.416 80.324 180.343 79.3365 180.343C76.9584 180.343 75.1647 178.267 75.1647 175.526C75.1647 172.543 77.2607 169.722 80.2837 169.722C81.1906 169.722 82.1983 170.185 82.6619 170.528V168.835C82.6619 167.142 82.3394 166.981 81.896 166.981H81.7348C81.634 166.981 81.5736 166.9 81.5736 166.82V166.437C81.5736 166.336 81.634 166.275 81.7348 166.275H81.8557C82.2991 166.275 82.9843 166.255 83.8711 165.893H83.9114C84.0323 165.893 84.1331 166.054 84.1331 166.84V177.783C84.1331 178.771 84.4354 178.871 84.8586 178.871H85.0601C85.1407 178.871 85.2214 178.952 85.2214 179.053ZM76.6763 175.526C76.9987 177.521 78.2684 178.972 79.9411 178.972C80.2031 178.972 80.4651 178.952 80.7473 178.871C81.5937 178.63 82.1782 178.267 82.6619 177.803V172.503C82.0976 171.294 80.9287 170.568 79.7396 170.568C79.4776 170.568 79.2358 170.608 78.9939 170.669C77.2809 171.112 76.5755 172.563 76.5755 174.337C76.5755 174.72 76.6158 175.123 76.6763 175.526ZM89.7164 179.819C89.7164 179.899 89.6559 179.98 89.5753 179.98H89.535C89.0513 179.919 88.487 179.859 87.8824 179.859C87.2778 179.859 86.7135 179.919 86.25 179.98H86.2097C86.129 179.98 86.0484 179.899 86.0484 179.819V179.436C86.0484 179.355 86.129 179.274 86.2298 179.274H86.4313C86.8546 179.274 87.1569 179.174 87.1569 178.186V168.089C87.1569 167.082 86.8546 166.981 86.4313 166.981H86.2298C86.129 166.981 86.0484 166.92 86.0484 166.82V166.437C86.0484 166.356 86.129 166.275 86.2298 166.275H86.3507C86.7941 166.275 87.4592 166.255 88.3661 165.893C88.3862 165.893 88.4064 165.872 88.4265 165.872C88.5273 165.872 88.6281 165.953 88.6281 166.074V178.186C88.6281 179.174 88.9304 179.274 89.3335 179.274H89.535C89.6358 179.274 89.7164 179.355 89.7164 179.436V179.819ZM99.2224 177.521L99.3836 177.682C99.4239 177.723 99.4441 177.763 99.4441 177.823C99.4441 177.864 99.4239 177.904 99.4038 177.924C98.3961 179.496 96.6226 180.363 94.9297 180.363C92.2493 180.363 90.5161 178.287 90.5161 175.546C90.5161 172.805 92.2694 169.742 95.4537 169.742C96.2598 169.742 98.5573 169.984 99.1821 173.087V173.168C99.1821 173.43 99.041 173.631 98.7991 173.692L97.2272 174.095L92.0074 175.465C92.2896 177.541 93.5189 179.375 95.635 179.375C95.9172 179.375 96.1993 179.335 96.5016 179.274C97.8116 178.992 98.5573 178.146 98.8999 177.561C98.9402 177.501 99.0007 177.461 99.0611 177.461C99.1216 177.461 99.1821 177.481 99.2224 177.521ZM94.4258 170.548C92.6322 170.87 91.947 172.503 91.947 174.337V174.72L97.1869 173.349C97.0861 171.394 96.1792 170.508 94.9297 170.508C94.7684 170.508 94.6072 170.508 94.4258 170.548ZM102.495 171.838C102.495 174.579 107.937 173.672 107.937 177.441C107.937 179.698 105.639 180.343 104.047 180.343C102.697 180.343 100.964 180.02 100.661 179.456C100.621 179.395 100.581 179.335 100.561 179.254C100.46 178.912 100.419 178.589 100.419 178.347C100.419 177.844 100.581 177.541 100.863 177.521H100.883C101.488 177.521 100.883 179.778 104.108 179.778C105.317 179.778 106.204 179.234 106.204 177.985C106.204 174.76 100.742 175.848 100.742 172.18C100.742 170.427 102.596 169.782 104.128 169.782C105.982 169.782 106.828 170.185 107.07 170.629C107.09 170.689 107.131 170.75 107.151 170.83C107.251 171.153 107.292 171.435 107.292 171.677C107.292 172.18 107.09 172.442 106.808 172.442C106.163 172.442 106.445 170.266 104.007 170.266C102.777 170.266 102.495 171.233 102.495 171.838ZM111.037 171.838C111.037 174.579 116.478 173.672 116.478 177.441C116.478 179.698 114.181 180.343 112.589 180.343C111.238 180.343 109.505 180.02 109.203 179.456C109.163 179.395 109.122 179.335 109.102 179.254C109.001 178.912 108.961 178.589 108.961 178.347C108.961 177.844 109.122 177.541 109.404 177.521H109.425C110.029 177.521 109.425 179.778 112.649 179.778C113.858 179.778 114.745 179.234 114.745 177.985C114.745 174.76 109.284 175.848 109.284 172.18C109.284 170.427 111.138 169.782 112.669 169.782C114.523 169.782 115.37 170.185 115.612 170.629C115.632 170.689 115.672 170.75 115.692 170.83C115.793 171.153 115.833 171.435 115.833 171.677C115.833 172.18 115.632 172.442 115.35 172.442C114.705 172.442 114.987 170.266 112.548 170.266C111.319 170.266 111.037 171.233 111.037 171.838ZM126.963 169.742C129.744 169.742 131.558 171.838 131.558 174.559C131.558 177.561 129.442 180.363 126.439 180.363C123.759 180.363 122.026 178.287 122.026 175.546C122.026 172.805 123.779 169.742 126.963 169.742ZM127.729 179.416C129.442 179.033 130.147 177.541 130.147 175.768C130.147 175.365 130.107 174.962 130.047 174.559C129.724 172.463 128.596 170.508 126.56 170.508C126.359 170.508 126.157 170.528 125.935 170.568C124.142 170.87 123.436 172.483 123.436 174.317C123.436 174.72 123.477 175.123 123.537 175.546C123.839 177.602 125.028 179.496 126.983 179.496C127.225 179.496 127.467 179.476 127.729 179.416ZM137.958 166.296C138.099 166.497 138.261 166.981 138.261 167.384C138.261 167.686 138.18 167.928 137.938 167.968H137.878C137.233 167.968 136.689 166.376 135.963 166.376C135.882 166.376 135.802 166.396 135.721 166.437C135.197 166.679 135.197 167.747 135.197 167.747V170.084H137.273C137.414 170.084 137.535 170.205 137.535 170.367V170.568C137.535 170.709 137.414 170.83 137.273 170.83H135.197V178.186C135.197 179.174 135.499 179.274 135.923 179.274H136.124C136.225 179.274 136.285 179.355 136.285 179.436V179.819C136.285 179.899 136.225 179.98 136.144 179.98H136.104C135.62 179.919 135.076 179.859 134.451 179.859C133.847 179.859 133.303 179.919 132.819 179.98H132.799C132.698 179.98 132.638 179.899 132.638 179.778V179.436C132.638 179.355 132.718 179.274 132.799 179.274H133C133.424 179.274 133.726 179.174 133.726 178.186V170.83H131.892C131.751 170.83 131.63 170.709 131.63 170.568V170.367C131.63 170.205 131.751 170.084 131.892 170.084H133.726V169.198C133.726 167.989 134.633 165.893 136.689 165.893C137.253 165.893 137.777 165.993 137.958 166.296ZM146.266 171.838C146.266 174.579 151.708 173.672 151.708 177.441C151.708 179.698 149.41 180.343 147.818 180.343C146.468 180.343 144.735 180.02 144.432 179.456C144.392 179.395 144.352 179.335 144.331 179.254C144.231 178.912 144.19 178.589 144.19 178.347C144.19 177.844 144.352 177.541 144.634 177.521H144.654C145.259 177.521 144.654 179.778 147.878 179.778C149.088 179.778 149.974 179.234 149.974 177.985C149.974 174.76 144.513 175.848 144.513 172.18C144.513 170.427 146.367 169.782 147.899 169.782C149.753 169.782 150.599 170.185 150.841 170.629C150.861 170.689 150.901 170.75 150.922 170.83C151.022 171.153 151.063 171.435 151.063 171.677C151.063 172.18 150.861 172.442 150.579 172.442C149.934 172.442 150.216 170.266 147.778 170.266C146.548 170.266 146.266 171.233 146.266 171.838ZM156.121 179.436V179.819C156.121 179.899 156.06 179.98 155.98 179.98H155.939C155.456 179.919 154.891 179.859 154.287 179.859C153.682 179.859 153.118 179.919 152.654 179.98H152.614C152.533 179.98 152.453 179.899 152.453 179.819V179.436C152.453 179.355 152.533 179.274 152.634 179.274H152.836C153.259 179.274 153.561 179.174 153.561 178.186V172.301C153.561 171.294 153.259 171.193 152.836 171.193H152.634C152.533 171.193 152.453 171.132 152.453 171.032V170.649C152.453 170.568 152.533 170.488 152.634 170.488H152.755C153.198 170.488 153.863 170.467 154.77 170.105C154.79 170.105 154.811 170.084 154.831 170.084C154.932 170.084 155.032 170.165 155.032 170.286V178.186C155.032 179.174 155.335 179.274 155.738 179.274H155.939C156.04 179.274 156.121 179.355 156.121 179.436ZM154.105 168.613C153.501 168.613 152.997 168.109 152.997 167.505C152.997 166.88 153.501 166.396 154.105 166.396C154.73 166.396 155.214 166.88 155.214 167.505C155.214 168.109 154.73 168.613 154.105 168.613ZM164.954 176.433L165.156 176.453C165.297 176.453 165.397 176.554 165.397 176.695V176.735L165.216 179.637C165.196 179.839 165.035 179.98 164.853 179.98H157.235L157.719 179.254L163.322 170.83H161.246C158.706 170.83 158.303 172.725 158.223 173.41C158.223 173.531 158.102 173.652 157.981 173.652H157.941L157.739 173.631C157.618 173.631 157.497 173.531 157.497 173.39V173.349L157.679 170.447C157.699 170.246 157.86 170.105 158.061 170.105H165.579L165.095 170.83L159.492 179.254H161.669C164.188 179.254 164.611 177.38 164.672 176.675C164.692 176.534 164.813 176.433 164.954 176.433ZM175.349 177.521L175.51 177.682C175.551 177.723 175.571 177.763 175.571 177.823C175.571 177.864 175.551 177.904 175.53 177.924C174.523 179.496 172.749 180.363 171.056 180.363C168.376 180.363 166.643 178.287 166.643 175.546C166.643 172.805 168.396 169.742 171.58 169.742C172.387 169.742 174.684 169.984 175.309 173.087V173.168C175.309 173.43 175.168 173.631 174.926 173.692L173.354 174.095L168.134 175.465C168.416 177.541 169.646 179.375 171.762 179.375C172.044 179.375 172.326 179.335 172.628 179.274C173.938 178.992 174.684 178.146 175.027 177.561C175.067 177.501 175.127 177.461 175.188 177.461C175.248 177.461 175.309 177.481 175.349 177.521ZM170.553 170.548C168.759 170.87 168.074 172.503 168.074 174.337V174.72L173.314 173.349C173.213 171.394 172.306 170.508 171.056 170.508C170.895 170.508 170.734 170.508 170.553 170.548ZM177.823 179.113V179.234C177.823 179.738 177.783 181.229 176.856 181.733H176.815C176.755 181.733 176.715 181.713 176.694 181.693L176.533 181.491C176.513 181.471 176.513 181.451 176.513 181.431C176.513 181.37 176.533 181.33 176.573 181.31C176.795 181.149 177.239 180.786 177.239 180.081V179.94C177.158 179.96 177.057 179.98 176.956 179.98C176.432 179.98 176.09 179.597 176.09 179.113C176.09 178.63 176.412 178.247 176.956 178.247C177.5 178.247 177.823 178.63 177.823 179.113ZM193.487 179.053V179.436C193.487 179.516 193.427 179.597 193.326 179.597H193.205C192.762 179.597 192.057 179.617 191.19 179.96C191.17 179.98 191.15 179.98 191.109 179.98C191.009 179.98 190.928 179.899 190.928 179.778V178.549C190.001 179.416 188.59 180.343 187.603 180.343C185.224 180.343 183.431 178.267 183.431 175.526C183.431 172.543 185.527 169.722 188.55 169.722C189.457 169.722 190.464 170.185 190.928 170.528V168.835C190.928 167.142 190.605 166.981 190.162 166.981H190.001C189.9 166.981 189.84 166.9 189.84 166.82V166.437C189.84 166.336 189.9 166.275 190.001 166.275H190.122C190.565 166.275 191.25 166.255 192.137 165.893H192.177C192.298 165.893 192.399 166.054 192.399 166.84V177.783C192.399 178.771 192.701 178.871 193.125 178.871H193.326C193.407 178.871 193.487 178.952 193.487 179.053ZM184.942 175.526C185.265 177.521 186.534 178.972 188.207 178.972C188.469 178.972 188.731 178.952 189.013 178.871C189.86 178.63 190.444 178.267 190.928 177.803V172.503C190.364 171.294 189.195 170.568 188.006 170.568C187.744 170.568 187.502 170.608 187.26 170.669C185.547 171.112 184.842 172.563 184.842 174.337C184.842 174.72 184.882 175.123 184.942 175.526ZM202.844 177.521L203.005 177.682C203.045 177.723 203.065 177.763 203.065 177.823C203.065 177.864 203.045 177.904 203.025 177.924C202.017 179.496 200.244 180.363 198.551 180.363C195.871 180.363 194.137 178.287 194.137 175.546C194.137 172.805 195.891 169.742 199.075 169.742C199.881 169.742 202.179 169.984 202.803 173.087V173.168C202.803 173.43 202.662 173.631 202.42 173.692L200.848 174.095L195.629 175.465C195.911 177.541 197.14 179.375 199.256 179.375C199.539 179.375 199.821 179.335 200.123 179.274C201.433 178.992 202.179 178.146 202.521 177.561C202.562 177.501 202.622 177.461 202.682 177.461C202.743 177.461 202.803 177.481 202.844 177.521ZM198.047 170.548C196.253 170.87 195.568 172.503 195.568 174.337V174.72L200.808 173.349C200.707 171.394 199.801 170.508 198.551 170.508C198.39 170.508 198.229 170.508 198.047 170.548ZM206.117 171.838C206.117 174.579 211.558 173.672 211.558 177.441C211.558 179.698 209.261 180.343 207.668 180.343C206.318 180.343 204.585 180.02 204.283 179.456C204.242 179.395 204.202 179.335 204.182 179.254C204.081 178.912 204.041 178.589 204.041 178.347C204.041 177.844 204.202 177.541 204.484 177.521H204.504C205.109 177.521 204.504 179.778 207.729 179.778C208.938 179.778 209.825 179.234 209.825 177.985C209.825 174.76 204.363 175.848 204.363 172.18C204.363 170.427 206.217 169.782 207.749 169.782C209.603 169.782 210.45 170.185 210.691 170.629C210.712 170.689 210.752 170.75 210.772 170.83C210.873 171.153 210.913 171.435 210.913 171.677C210.913 172.18 210.712 172.442 210.429 172.442C209.785 172.442 210.067 170.266 207.628 170.266C206.399 170.266 206.117 171.233 206.117 171.838ZM221.403 177.521L221.564 177.682C221.605 177.723 221.625 177.763 221.625 177.823C221.625 177.864 221.605 177.904 221.584 177.924C220.577 179.496 218.803 180.363 217.11 180.363C214.43 180.363 212.697 178.287 212.697 175.546C212.697 172.805 214.45 169.742 217.634 169.742C218.44 169.742 220.738 169.984 221.363 173.087V173.168C221.363 173.43 221.222 173.631 220.98 173.692L219.408 174.095L214.188 175.465C214.47 177.541 215.7 179.375 217.816 179.375C218.098 179.375 218.38 179.335 218.682 179.274C219.992 178.992 220.738 178.146 221.081 177.561C221.121 177.501 221.181 177.461 221.242 177.461C221.302 177.461 221.363 177.481 221.403 177.521ZM216.606 170.548C214.813 170.87 214.128 172.503 214.128 174.337V174.72L219.368 173.349C219.267 171.394 218.36 170.508 217.11 170.508C216.949 170.508 216.788 170.508 216.606 170.548ZM229.52 170.709C229.621 171.052 229.661 171.354 229.661 171.596C229.661 172.12 229.459 172.402 229.177 172.422C228.774 172.422 228.472 170.951 227.162 170.951C226.537 170.951 225.912 171.415 224.703 172.785V178.186C224.703 179.174 225.005 179.274 225.429 179.274H225.63C225.731 179.274 225.791 179.355 225.791 179.436V179.819C225.791 179.899 225.731 179.98 225.65 179.98H225.61C225.126 179.919 224.582 179.859 223.957 179.859C223.353 179.859 222.809 179.919 222.325 179.98H222.285C222.204 179.98 222.144 179.899 222.144 179.819V179.436C222.144 179.355 222.224 179.274 222.305 179.274H222.506C222.93 179.274 223.232 179.174 223.232 178.186V172.301C223.232 171.294 222.93 171.193 222.506 171.193H222.305C222.224 171.193 222.144 171.132 222.144 171.032V170.649C222.144 170.568 222.204 170.488 222.305 170.488H222.426C222.869 170.488 223.554 170.467 224.441 170.105C224.461 170.105 224.481 170.084 224.502 170.084C224.602 170.084 224.703 170.165 224.703 170.286V172.019C226.013 170.608 226.94 169.722 227.928 169.722H228.028C228.754 169.742 229.238 170.044 229.439 170.508C229.459 170.568 229.5 170.649 229.52 170.709ZM240.445 170.286V170.669C240.445 170.75 240.365 170.83 240.284 170.83C239.78 170.85 239.397 171.012 239.115 171.717L235.85 179.859C235.81 179.94 235.729 180 235.649 180H235.205C235.125 180 235.044 179.94 235.004 179.859L231.719 171.677C231.416 171.012 231.094 170.85 230.61 170.83C230.53 170.83 230.449 170.75 230.449 170.669V170.286C230.449 170.185 230.55 170.105 230.651 170.105C231.134 170.165 231.678 170.205 232.263 170.205C232.868 170.205 233.432 170.165 233.936 170.105C234.036 170.105 234.117 170.185 234.117 170.326V170.669C234.117 170.75 234.057 170.83 233.956 170.83C233.593 170.87 233.291 170.991 233.291 171.415C233.291 171.556 233.311 171.717 233.392 171.918L235.85 177.964L238.249 171.918C238.329 171.717 238.369 171.536 238.369 171.394C238.369 170.991 238.047 170.87 237.664 170.83C237.583 170.83 237.503 170.77 237.503 170.629V170.286C237.503 170.205 237.583 170.125 237.664 170.125H237.704C238.087 170.185 238.531 170.205 239.014 170.205C239.478 170.205 239.881 170.165 240.244 170.125H240.284C240.365 170.125 240.445 170.205 240.445 170.286ZM248.602 177.521L248.764 177.682C248.804 177.723 248.824 177.763 248.824 177.823C248.824 177.864 248.804 177.904 248.784 177.924C247.776 179.496 246.003 180.363 244.31 180.363C241.629 180.363 239.896 178.287 239.896 175.546C239.896 172.805 241.649 169.742 244.834 169.742C245.64 169.742 247.937 169.984 248.562 173.087V173.168C248.562 173.43 248.421 173.631 248.179 173.692L246.607 174.095L241.387 175.465C241.67 177.541 242.899 179.375 245.015 179.375C245.297 179.375 245.579 179.335 245.882 179.274C247.192 178.992 247.937 178.146 248.28 177.561C248.32 177.501 248.381 177.461 248.441 177.461C248.502 177.461 248.562 177.481 248.602 177.521ZM243.806 170.548C242.012 170.87 241.327 172.503 241.327 174.337V174.72L246.567 173.349C246.466 171.394 245.559 170.508 244.31 170.508C244.148 170.508 243.987 170.508 243.806 170.548ZM251.875 171.838C251.875 174.579 257.317 173.672 257.317 177.441C257.317 179.698 255.019 180.343 253.427 180.343C252.077 180.343 250.344 180.02 250.041 179.456C250.001 179.395 249.961 179.335 249.941 179.254C249.84 178.912 249.799 178.589 249.799 178.347C249.799 177.844 249.961 177.541 250.243 177.521H250.263C250.868 177.521 250.263 179.778 253.488 179.778C254.697 179.778 255.584 179.234 255.584 177.985C255.584 174.76 250.122 175.848 250.122 172.18C250.122 170.427 251.976 169.782 253.508 169.782C255.362 169.782 256.208 170.185 256.45 170.629C256.47 170.689 256.511 170.75 256.531 170.83C256.632 171.153 256.672 171.435 256.672 171.677C256.672 172.18 256.47 172.442 256.188 172.442C255.543 172.442 255.825 170.266 253.387 170.266C252.157 170.266 251.875 171.233 251.875 171.838ZM272.215 178.529L272.417 178.71C272.477 178.75 272.518 178.831 272.518 178.892C272.518 178.932 272.497 178.992 272.477 179.033C272.175 179.597 271.711 180.081 270.925 180.081C270.139 180.081 269.555 179.577 269.414 178.347L269.333 177.622C268.749 179.053 267.6 180.081 266.068 180.081C263.892 180.081 262.864 178.287 262.864 177.098C262.864 175.163 267.257 173.43 268.749 172.866C268.567 171.656 268.305 170.709 266.834 170.709H266.794C265.141 170.75 265.262 173.511 264.315 173.511C264.154 173.511 264.093 173.148 264.093 172.704C264.093 172.221 264.154 171.636 264.234 171.394C264.396 170.85 266.351 170.044 267.439 170.044C269.273 170.044 269.958 170.87 270.321 173.249L270.885 178.146V178.206C270.966 178.871 271.167 178.912 271.369 178.912C271.57 178.912 271.711 178.73 271.852 178.569C271.893 178.509 271.973 178.468 272.054 178.468C272.094 178.468 272.155 178.488 272.215 178.529ZM266.451 178.972C269.011 178.972 269.031 175.183 269.031 175.062L268.87 173.712C268.85 173.631 268.85 173.551 268.829 173.47C267.096 174.236 264.557 175.627 264.557 176.836C264.557 178.025 265.282 178.972 266.451 178.972ZM65.2953 190.296C65.4364 190.497 65.5977 190.981 65.5977 191.384C65.5977 191.686 65.517 191.928 65.2752 191.968H65.2147C64.5698 191.968 64.0257 190.376 63.3002 190.376C63.2195 190.376 63.1389 190.396 63.0583 190.437C62.5343 190.679 62.5343 191.747 62.5343 191.747V194.084H64.6101C64.7512 194.084 64.8721 194.205 64.8721 194.367V194.568C64.8721 194.709 64.7512 194.83 64.6101 194.83H62.5343V202.186C62.5343 203.174 62.8366 203.274 63.2598 203.274H63.4614C63.5621 203.274 63.6226 203.355 63.6226 203.436V203.819C63.6226 203.899 63.5621 203.98 63.4815 203.98H63.4412C62.9575 203.919 62.4134 203.859 61.7886 203.859C61.184 203.859 60.6399 203.919 60.1562 203.98H60.1361C60.0353 203.98 59.9748 203.899 59.9748 203.778V203.436C59.9748 203.355 60.0554 203.274 60.1361 203.274H60.3376C60.7608 203.274 61.0631 203.174 61.0631 202.186V194.83H59.2291C59.0881 194.83 58.9671 194.709 58.9671 194.568V194.367C58.9671 194.205 59.0881 194.084 59.2291 194.084H61.0631V193.198C61.0631 191.989 61.97 189.893 64.0257 189.893C64.59 189.893 65.114 189.993 65.2953 190.296ZM73.6717 202.529L73.8732 202.71C73.9336 202.75 73.974 202.831 73.974 202.892C73.974 202.932 73.9538 202.992 73.9336 203.033C73.6313 203.597 73.1678 204.081 72.3818 204.081C71.5958 204.081 71.0114 203.577 70.8703 202.347L70.7897 201.622C70.2052 203.053 69.0565 204.081 67.5248 204.081C65.3483 204.081 64.3204 202.287 64.3204 201.098C64.3204 199.163 68.7139 197.43 70.2052 196.866C70.0239 195.656 69.7619 194.709 68.2907 194.709H68.2504C66.5978 194.75 66.7187 197.511 65.7715 197.511C65.6102 197.511 65.5498 197.148 65.5498 196.704C65.5498 196.221 65.6102 195.636 65.6909 195.394C65.8521 194.85 67.807 194.044 68.8953 194.044C70.7292 194.044 71.4145 194.87 71.7772 197.249L72.3415 202.146V202.206C72.4221 202.871 72.6237 202.912 72.8252 202.912C73.0267 202.912 73.1678 202.73 73.3089 202.569C73.3492 202.509 73.4298 202.468 73.5104 202.468C73.5507 202.468 73.6112 202.488 73.6717 202.529ZM67.9077 202.972C70.4672 202.972 70.4874 199.183 70.4874 199.062L70.3262 197.712C70.306 197.631 70.306 197.551 70.2859 197.47C68.5527 198.236 66.0133 199.627 66.0133 200.836C66.0133 202.025 66.7388 202.972 67.9077 202.972ZM78.3013 203.436V203.819C78.3013 203.899 78.2408 203.98 78.1602 203.98H78.1199C77.6362 203.919 77.0719 203.859 76.4673 203.859C75.8627 203.859 75.2984 203.919 74.8349 203.98H74.7946C74.714 203.98 74.6334 203.899 74.6334 203.819V203.436C74.6334 203.355 74.714 203.274 74.8147 203.274H75.0163C75.4395 203.274 75.7418 203.174 75.7418 202.186V196.301C75.7418 195.294 75.4395 195.193 75.0163 195.193H74.8147C74.714 195.193 74.6334 195.132 74.6334 195.032V194.649C74.6334 194.568 74.714 194.488 74.8147 194.488H74.9357C75.379 194.488 76.0441 194.467 76.951 194.105C76.9712 194.105 76.9913 194.084 77.0115 194.084C77.1122 194.084 77.213 194.165 77.213 194.286V202.186C77.213 203.174 77.5153 203.274 77.9184 203.274H78.1199C78.2207 203.274 78.3013 203.355 78.3013 203.436ZM76.2859 192.613C75.6813 192.613 75.1775 192.109 75.1775 191.505C75.1775 190.88 75.6813 190.396 76.2859 190.396C76.9107 190.396 77.3944 190.88 77.3944 191.505C77.3944 192.109 76.9107 192.613 76.2859 192.613ZM86.5559 194.709C86.6567 195.052 86.697 195.354 86.697 195.596C86.697 196.12 86.4954 196.402 86.2133 196.422C85.8102 196.422 85.5079 194.951 84.1979 194.951C83.5732 194.951 82.9484 195.415 81.7392 196.785V202.186C81.7392 203.174 82.0415 203.274 82.4647 203.274H82.6663C82.767 203.274 82.8275 203.355 82.8275 203.436V203.819C82.8275 203.899 82.767 203.98 82.6864 203.98H82.6461C82.1624 203.919 81.6183 203.859 80.9935 203.859C80.3889 203.859 79.8448 203.919 79.3611 203.98H79.3208C79.2402 203.98 79.1797 203.899 79.1797 203.819V203.436C79.1797 203.355 79.2603 203.274 79.3409 203.274H79.5425C79.9657 203.274 80.268 203.174 80.268 202.186V196.301C80.268 195.294 79.9657 195.193 79.5425 195.193H79.3409C79.2603 195.193 79.1797 195.132 79.1797 195.032V194.649C79.1797 194.568 79.2402 194.488 79.3409 194.488H79.4618C79.9052 194.488 80.5904 194.467 81.4772 194.105C81.4974 194.105 81.5175 194.084 81.5377 194.084C81.6384 194.084 81.7392 194.165 81.7392 194.286V196.019C83.0492 194.608 83.9762 193.722 84.9638 193.722H85.0645C85.7901 193.742 86.2737 194.044 86.4753 194.508C86.4954 194.568 86.5357 194.649 86.5559 194.709ZM101.071 201.481L101.293 201.702C101.333 201.743 101.333 201.783 101.333 201.823C101.333 201.844 101.333 201.884 101.313 201.904C100.326 203.476 98.512 204.363 96.8191 204.363C94.1386 204.363 92.4054 202.267 92.4054 199.546C92.4054 196.846 94.179 193.742 97.4438 193.742C99.0359 193.742 100.245 194.145 100.547 194.79C100.568 194.87 100.608 194.931 100.628 195.012C100.749 195.415 100.789 195.757 100.789 196.039C100.789 196.624 100.568 196.926 100.245 196.946H100.225C99.8018 196.946 99.0561 194.508 96.8392 194.508C96.7183 194.508 96.5974 194.508 96.4765 194.528C96.416 194.548 96.3757 194.548 96.3152 194.548C94.5216 194.87 93.8162 196.483 93.8162 198.337C93.8162 198.74 93.8565 199.143 93.917 199.546C94.2193 201.582 95.4285 203.375 97.5244 203.375C97.8066 203.375 98.0887 203.335 98.391 203.274C99.7212 202.992 100.507 202.106 100.83 201.521C100.85 201.461 100.91 201.441 100.951 201.441C100.991 201.441 101.031 201.441 101.071 201.481ZM112.217 203.436V203.819C112.217 203.899 112.157 203.98 112.076 203.98H112.036C111.552 203.919 110.988 203.859 110.383 203.859C109.778 203.859 109.234 203.919 108.751 203.98H108.71C108.63 203.98 108.549 203.899 108.549 203.819L108.569 203.436C108.569 203.355 108.63 203.274 108.73 203.274H108.932C109.335 203.274 109.678 203.194 109.678 202.509C109.678 202.428 109.678 202.307 109.657 202.186L109.093 197.49C108.912 195.939 108.751 194.951 107.058 194.951H106.755C106.07 194.991 105.224 195.515 104.176 196.281V202.186C104.176 203.174 104.478 203.274 104.901 203.274H105.103C105.204 203.274 105.264 203.355 105.264 203.436V203.819C105.264 203.899 105.204 203.98 105.123 203.98H105.083C104.599 203.919 104.055 203.859 103.43 203.859C102.825 203.859 102.281 203.919 101.798 203.98H101.757C101.677 203.98 101.616 203.899 101.616 203.819V203.436C101.616 203.355 101.697 203.274 101.777 203.274H101.979C102.402 203.274 102.705 203.174 102.705 202.186V192.089C102.705 191.082 102.402 190.981 101.979 190.981H101.777C101.697 190.981 101.616 190.92 101.616 190.82V190.437C101.616 190.356 101.677 190.275 101.777 190.275H101.898C102.342 190.275 103.027 190.255 103.914 189.893C103.934 189.893 103.954 189.872 103.974 189.872C104.075 189.872 104.176 189.953 104.176 190.074V195.536C105.728 194.407 106.735 193.722 107.723 193.722C109.799 193.722 110.282 194.931 110.645 197.611L111.129 202.186C111.29 203.154 111.491 203.274 111.935 203.274H112.056C112.136 203.274 112.217 203.355 112.217 203.436ZM121.871 202.529L122.072 202.71C122.133 202.75 122.173 202.831 122.173 202.892C122.173 202.932 122.153 202.992 122.133 203.033C121.831 203.597 121.367 204.081 120.581 204.081C119.795 204.081 119.211 203.577 119.069 202.347L118.989 201.622C118.404 203.053 117.256 204.081 115.724 204.081C113.547 204.081 112.52 202.287 112.52 201.098C112.52 199.163 116.913 197.43 118.404 196.866C118.223 195.656 117.961 194.709 116.49 194.709H116.45C114.797 194.75 114.918 197.511 113.971 197.511C113.809 197.511 113.749 197.148 113.749 196.704C113.749 196.221 113.809 195.636 113.89 195.394C114.051 194.85 116.006 194.044 117.094 194.044C118.928 194.044 119.614 194.87 119.976 197.249L120.541 202.146V202.206C120.621 202.871 120.823 202.912 121.024 202.912C121.226 202.912 121.367 202.73 121.508 202.569C121.548 202.509 121.629 202.468 121.71 202.468C121.75 202.468 121.81 202.488 121.871 202.529ZM116.107 202.972C118.666 202.972 118.687 199.183 118.687 199.062L118.525 197.712C118.505 197.631 118.505 197.551 118.485 197.47C116.752 198.236 114.212 199.627 114.212 200.836C114.212 202.025 114.938 202.972 116.107 202.972ZM133.217 203.436V203.819C133.217 203.899 133.137 203.98 133.056 203.98H133.016C132.532 203.919 131.988 203.859 131.363 203.859C130.759 203.859 130.214 203.919 129.751 203.98H129.711C129.63 203.98 129.549 203.899 129.549 203.819V203.436C129.549 203.355 129.63 203.274 129.731 203.274H129.932C130.315 203.274 130.658 203.194 130.658 202.509C130.658 202.428 130.658 202.307 130.638 202.186L130.093 197.49C129.912 196.019 129.509 194.911 128.179 194.911C128.018 194.911 127.856 194.911 127.675 194.951C127.01 195.072 126.446 195.435 125.176 196.281V202.186C125.176 203.174 125.478 203.274 125.881 203.274H126.083C126.184 203.274 126.264 203.355 126.264 203.436V203.819C126.264 203.899 126.204 203.98 126.123 203.98H126.083C125.599 203.919 125.035 203.859 124.43 203.859C123.826 203.859 123.261 203.919 122.798 203.98H122.758C122.677 203.98 122.596 203.899 122.596 203.819V203.436C122.596 203.355 122.677 203.274 122.778 203.274H122.979C123.402 203.274 123.705 203.174 123.705 202.186V196.301C123.705 195.294 123.402 195.193 122.979 195.193H122.778C122.677 195.193 122.596 195.132 122.596 195.032V194.649C122.596 194.548 122.677 194.488 122.778 194.488H122.899C123.342 194.488 124.007 194.467 124.914 194.105C124.934 194.105 124.954 194.084 124.974 194.084C125.075 194.084 125.176 194.165 125.176 194.286V195.536C126.546 194.447 127.735 193.722 128.642 193.722C130.779 193.722 131.262 194.931 131.625 197.611L132.129 202.186C132.27 203.154 132.472 203.274 132.915 203.274H133.036C133.137 203.274 133.217 203.355 133.217 203.436ZM142.323 201.481L142.545 201.702C142.585 201.743 142.585 201.783 142.585 201.823C142.585 201.844 142.585 201.884 142.565 201.904C141.577 203.476 139.764 204.363 138.071 204.363C135.39 204.363 133.657 202.267 133.657 199.546C133.657 196.846 135.431 193.742 138.696 193.742C140.288 193.742 141.497 194.145 141.799 194.79C141.819 194.87 141.86 194.931 141.88 195.012C142.001 195.415 142.041 195.757 142.041 196.039C142.041 196.624 141.819 196.926 141.497 196.946H141.477C141.053 196.946 140.308 194.508 138.091 194.508C137.97 194.508 137.849 194.508 137.728 194.528C137.668 194.548 137.627 194.548 137.567 194.548C135.773 194.87 135.068 196.483 135.068 198.337C135.068 198.74 135.108 199.143 135.169 199.546C135.471 201.582 136.68 203.375 138.776 203.375C139.058 203.375 139.34 203.335 139.643 203.274C140.973 202.992 141.759 202.106 142.081 201.521C142.101 201.461 142.162 201.441 142.202 201.441C142.243 201.441 142.283 201.441 142.323 201.481ZM151.889 201.521L152.05 201.682C152.091 201.723 152.111 201.763 152.111 201.823C152.111 201.864 152.091 201.904 152.071 201.924C151.063 203.496 149.289 204.363 147.596 204.363C144.916 204.363 143.183 202.287 143.183 199.546C143.183 196.805 144.936 193.742 148.12 193.742C148.927 193.742 151.224 193.984 151.849 197.087V197.168C151.849 197.43 151.708 197.631 151.466 197.692L149.894 198.095L144.674 199.465C144.956 201.541 146.186 203.375 148.302 203.375C148.584 203.375 148.866 203.335 149.168 203.274C150.478 202.992 151.224 202.146 151.567 201.561C151.607 201.501 151.667 201.461 151.728 201.461C151.788 201.461 151.849 201.481 151.889 201.521ZM147.093 194.548C145.299 194.87 144.614 196.503 144.614 198.337V198.72L149.854 197.349C149.753 195.394 148.846 194.508 147.596 194.508C147.435 194.508 147.274 194.508 147.093 194.548ZM167.019 202.529L167.221 202.71C167.281 202.75 167.322 202.831 167.322 202.892C167.322 202.932 167.302 202.992 167.281 203.033C166.979 203.597 166.516 204.081 165.73 204.081C164.944 204.081 164.359 203.577 164.218 202.347L164.137 201.622C163.553 203.053 162.404 204.081 160.873 204.081C158.696 204.081 157.668 202.287 157.668 201.098C157.668 199.163 162.062 197.43 163.553 196.866C163.372 195.656 163.11 194.709 161.638 194.709H161.598C159.946 194.75 160.066 197.511 159.119 197.511C158.958 197.511 158.898 197.148 158.898 196.704C158.898 196.221 158.958 195.636 159.039 195.394C159.2 194.85 161.155 194.044 162.243 194.044C164.077 194.044 164.762 194.87 165.125 197.249L165.689 202.146V202.206C165.77 202.871 165.971 202.912 166.173 202.912C166.374 202.912 166.516 202.73 166.657 202.569C166.697 202.509 166.778 202.468 166.858 202.468C166.898 202.468 166.959 202.488 167.019 202.529ZM161.255 202.972C163.815 202.972 163.835 199.183 163.835 199.062L163.674 197.712C163.654 197.631 163.654 197.551 163.634 197.47C161.9 198.236 159.361 199.627 159.361 200.836C159.361 202.025 160.087 202.972 161.255 202.972ZM171.923 202.569C171.943 202.589 171.963 202.63 171.963 202.67V202.71C171.701 203.214 171.076 203.98 170.048 203.98C168.416 203.98 168.275 202.529 168.275 201.964V194.83H166.844C166.743 194.83 166.662 194.75 166.662 194.669V194.266C166.662 194.165 166.743 194.105 166.844 194.084C167.469 194.044 167.932 193.722 168.275 193.339C168.758 192.795 168.98 192.109 169.041 191.847C169.061 191.787 169.121 191.747 169.182 191.747H169.605C169.685 191.747 169.766 191.807 169.766 191.888V194.084H171.721C171.822 194.084 171.902 194.165 171.902 194.266V194.649C171.902 194.75 171.822 194.83 171.721 194.83H169.766V202.045C169.766 202.932 170.089 203.133 170.512 203.133C171.016 203.133 171.378 202.65 171.519 202.388C171.54 202.347 171.58 202.327 171.62 202.327C171.64 202.327 171.681 202.347 171.701 202.368C171.761 202.408 171.842 202.488 171.923 202.569ZM179.763 195.838C179.763 198.579 185.205 197.672 185.205 201.441C185.205 203.698 182.907 204.343 181.315 204.343C179.965 204.343 178.232 204.02 177.93 203.456C177.889 203.395 177.849 203.335 177.829 203.254C177.728 202.912 177.688 202.589 177.688 202.347C177.688 201.844 177.849 201.541 178.131 201.521H178.151C178.756 201.521 178.151 203.778 181.376 203.778C182.585 203.778 183.472 203.234 183.472 201.985C183.472 198.76 178.01 199.848 178.01 196.18C178.01 194.427 179.864 193.782 181.396 193.782C183.25 193.782 184.097 194.185 184.338 194.629C184.358 194.689 184.399 194.75 184.419 194.83C184.52 195.153 184.56 195.435 184.56 195.677C184.56 196.18 184.358 196.442 184.076 196.442C183.431 196.442 183.714 194.266 181.275 194.266C180.046 194.266 179.763 195.233 179.763 195.838ZM196.213 202.912H196.414C196.515 202.912 196.596 202.972 196.596 203.073V203.456C196.596 203.557 196.515 203.617 196.435 203.617H196.314C195.85 203.617 195.185 203.637 194.298 204C194.278 204 194.258 204.02 194.218 204.02C194.117 204.02 194.016 203.94 194.016 203.819V202.569C193.19 203.456 191.557 204.383 190.55 204.383C188.413 204.383 187.93 203.174 187.567 200.493L187.023 196.261C186.922 195.314 186.579 195.213 186.156 195.213H185.935C185.834 195.213 185.753 195.132 185.753 195.052V194.669C185.753 194.568 185.834 194.508 185.914 194.508H186.035C186.499 194.508 187.164 194.488 188.051 194.125C188.071 194.125 188.091 194.105 188.131 194.105C188.232 194.105 188.333 194.185 188.333 194.306L189.099 200.614C189.3 202.146 189.804 203.174 191.154 203.174C191.255 203.174 191.336 203.154 191.436 203.154C192.605 203.053 193.674 202.126 194.016 201.823V196.301C194.016 195.314 193.734 195.213 193.311 195.213H193.109C193.008 195.213 192.928 195.132 192.928 195.052V194.669C192.928 194.568 193.008 194.508 193.089 194.508H193.21C193.674 194.508 194.339 194.488 195.225 194.125C195.245 194.125 195.266 194.105 195.306 194.105C195.407 194.105 195.507 194.185 195.507 194.306V201.803C195.507 202.811 195.79 202.912 196.213 202.912ZM205.952 201.481L206.174 201.702C206.214 201.743 206.214 201.783 206.214 201.823C206.214 201.844 206.214 201.884 206.194 201.904C205.207 203.476 203.393 204.363 201.7 204.363C199.02 204.363 197.286 202.267 197.286 199.546C197.286 196.846 199.06 193.742 202.325 193.742C203.917 193.742 205.126 194.145 205.428 194.79C205.449 194.87 205.489 194.931 205.509 195.012C205.63 195.415 205.67 195.757 205.67 196.039C205.67 196.624 205.449 196.926 205.126 196.946H205.106C204.683 196.946 203.937 194.508 201.72 194.508C201.599 194.508 201.478 194.508 201.357 194.528C201.297 194.548 201.257 194.548 201.196 194.548C199.402 194.87 198.697 196.483 198.697 198.337C198.697 198.74 198.737 199.143 198.798 199.546C199.1 201.582 200.309 203.375 202.405 203.375C202.687 203.375 202.97 203.335 203.272 203.274C204.602 202.992 205.388 202.106 205.711 201.521C205.731 201.461 205.791 201.441 205.831 201.441C205.872 201.441 205.912 201.441 205.952 201.481ZM215.458 201.481L215.68 201.702C215.72 201.743 215.72 201.783 215.72 201.823C215.72 201.844 215.72 201.884 215.7 201.904C214.713 203.476 212.899 204.363 211.206 204.363C208.526 204.363 206.792 202.267 206.792 199.546C206.792 196.846 208.566 193.742 211.831 193.742C213.423 193.742 214.632 194.145 214.934 194.79C214.955 194.87 214.995 194.931 215.015 195.012C215.136 195.415 215.176 195.757 215.176 196.039C215.176 196.624 214.955 196.926 214.632 196.946H214.612C214.189 196.946 213.443 194.508 211.226 194.508C211.105 194.508 210.984 194.508 210.863 194.528C210.803 194.548 210.763 194.548 210.702 194.548C208.908 194.87 208.203 196.483 208.203 198.337C208.203 198.74 208.243 199.143 208.304 199.546C208.606 201.582 209.815 203.375 211.911 203.375C212.193 203.375 212.476 203.335 212.778 203.274C214.108 202.992 214.894 202.106 215.217 201.521C215.237 201.461 215.297 201.441 215.337 201.441C215.378 201.441 215.418 201.441 215.458 201.481ZM225.024 201.521L225.186 201.682C225.226 201.723 225.246 201.763 225.246 201.823C225.246 201.864 225.226 201.904 225.206 201.924C224.198 203.496 222.425 204.363 220.732 204.363C218.051 204.363 216.318 202.287 216.318 199.546C216.318 196.805 218.071 193.742 221.256 193.742C222.062 193.742 224.359 193.984 224.984 197.087V197.168C224.984 197.43 224.843 197.631 224.601 197.692L223.029 198.095L217.809 199.465C218.092 201.541 219.321 203.375 221.437 203.375C221.719 203.375 222.001 203.335 222.304 203.274C223.614 202.992 224.359 202.146 224.702 201.561C224.742 201.501 224.803 201.461 224.863 201.461C224.924 201.461 224.984 201.481 225.024 201.521ZM220.228 194.548C218.434 194.87 217.749 196.503 217.749 198.337V198.72L222.989 197.349C222.888 195.394 221.981 194.508 220.732 194.508C220.57 194.508 220.409 194.508 220.228 194.548ZM228.297 195.838C228.297 198.579 233.739 197.672 233.739 201.441C233.739 203.698 231.441 204.343 229.849 204.343C228.499 204.343 226.766 204.02 226.463 203.456C226.423 203.395 226.383 203.335 226.363 203.254C226.262 202.912 226.221 202.589 226.221 202.347C226.221 201.844 226.383 201.541 226.665 201.521H226.685C227.29 201.521 226.685 203.778 229.91 203.778C231.119 203.778 232.005 203.234 232.005 201.985C232.005 198.76 226.544 199.848 226.544 196.18C226.544 194.427 228.398 193.782 229.93 193.782C231.784 193.782 232.63 194.185 232.872 194.629C232.892 194.689 232.933 194.75 232.953 194.83C233.053 195.153 233.094 195.435 233.094 195.677C233.094 196.18 232.892 196.442 232.61 196.442C231.965 196.442 232.247 194.266 229.809 194.266C228.579 194.266 228.297 195.233 228.297 195.838ZM236.839 195.838C236.839 198.579 242.28 197.672 242.28 201.441C242.28 203.698 239.983 204.343 238.391 204.343C237.04 204.343 235.307 204.02 235.005 203.456C234.965 203.395 234.924 203.335 234.904 203.254C234.803 202.912 234.763 202.589 234.763 202.347C234.763 201.844 234.924 201.541 235.206 201.521H235.227C235.831 201.521 235.227 203.778 238.451 203.778C239.66 203.778 240.547 203.234 240.547 201.985C240.547 198.76 235.086 199.848 235.086 196.18C235.086 194.427 236.94 193.782 238.471 193.782C240.325 193.782 241.172 194.185 241.414 194.629C241.434 194.689 241.474 194.75 241.494 194.83C241.595 195.153 241.635 195.435 241.635 195.677C241.635 196.18 241.434 196.442 241.152 196.442C240.507 196.442 240.789 194.266 238.35 194.266C237.121 194.266 236.839 195.233 236.839 195.838ZM243.656 202.247C244.2 202.247 244.522 202.63 244.522 203.113C244.522 203.597 244.2 203.98 243.656 203.98C243.132 203.98 242.789 203.597 242.789 203.113C242.789 202.63 243.112 202.247 243.656 202.247Z" fill="#212121"/>
</g>
<defs>
<filter id="filter0_b_1735_11342" x="-40" y="-40" width="384" height="337" filterUnits="userSpaceOnUse" color-interpolation-filters="sRGB">
<feFlood flood-opacity="0" result="BackgroundImageFix"/>
<feGaussianBlur in="BackgroundImageFix" stdDeviation="20"/>
<feComposite in2="SourceAlpha" operator="in" result="effect1_backgroundBlur_1735_11342"/>
<feBlend mode="normal" in="SourceGraphic" in2="effect1_backgroundBlur_1735_11342" result="shape"/>
</filter>
</defs>
</svg>
