<svg width="12" height="10" viewBox="0 0 12 10" fill="none" xmlns="http://www.w3.org/2000/svg">
<path d="M8.47654 3.72408C9.13785 3.69037 9.71033 3.5895 10.2893 3.62778C10.7987 3.66148 11.2263 3.83578 11.4752 4.30932C11.6704 4.68054 11.6083 5.04285 11.3844 5.37821C12.0585 6.1676 12.0508 6.5251 11.3584 7.1686C11.6233 7.98519 11.4376 8.36724 10.615 8.70211C10.7039 9.32298 10.5457 9.56276 9.93976 9.72045C9.86007 9.74115 9.77726 9.76715 9.69685 9.76426C7.86578 9.69758 6.01352 9.72093 4.3553 8.75893C3.323 8.15973 2.20476 7.94041 1.03307 7.91923C0.796666 7.91537 0.569888 7.93704 0.514036 7.61156C0.26511 6.16109 0.00222164 4.71208 0.170259 3.23008C0.19438 3.03337 0.240407 2.83998 0.307481 2.6535C0.403778 2.38171 0.543888 2.12002 0.866722 2.08776C1.16259 2.05839 1.35133 2.26061 1.50806 2.4845C1.79042 2.89312 2.01264 3.34016 2.16793 3.81195C2.2558 4.07243 2.40241 4.18943 2.66626 4.19184C3.14533 4.19641 3.62489 4.22241 4.10324 4.20772C4.55198 4.19376 4.92176 4.04956 5.13843 3.58782C5.3262 3.19108 5.69743 2.93926 6.08261 2.73752C6.68663 2.42143 7.02319 1.93056 7.1178 1.25913C7.14022 1.09555 7.18985 0.93688 7.26465 0.789687C7.46519 0.406428 7.77454 0.175317 8.22761 0.247539C8.64963 0.314706 8.8273 0.631521 8.89832 1.01045C9.04276 1.77672 8.94839 2.52422 8.67419 3.25054C8.62411 3.38704 8.562 3.52113 8.47654 3.72408ZM0.562907 4.31558C0.526555 5.29226 0.675092 6.18541 0.803648 7.08193C0.851796 7.41632 0.972166 7.55113 1.33544 7.55571C2.40505 7.56895 3.4477 7.77695 4.37118 8.33282C5.99474 9.31047 7.80054 9.30324 9.59526 9.37739C9.85646 9.38823 10.1191 9.33526 10.2814 9.06178C10.0471 8.65445 9.63137 8.6985 9.27748 8.61232C9.12196 8.57476 8.8923 8.58824 8.94044 8.35545C8.98715 8.13565 9.19418 8.22665 9.35644 8.23869C9.73441 8.2671 10.1145 8.30008 10.492 8.28684C10.825 8.27456 11.0604 8.07282 11.0833 7.73145C11.11 7.33158 10.7686 7.37828 10.5207 7.34434C10.2111 7.30197 9.89474 7.29474 9.58804 7.24347C9.44046 7.21939 9.20285 7.2023 9.24835 6.97359C9.2965 6.73069 9.49631 6.84143 9.65256 6.87297C10.044 6.95145 10.4383 6.98274 10.8322 6.90185C11.1996 6.82626 11.5185 6.67074 11.473 6.22971C11.4307 5.82045 11.1047 5.71669 10.7508 5.70513C10.4046 5.69382 10.0572 5.7085 9.71082 5.69743C9.54398 5.69213 9.28976 5.76652 9.28061 5.50026C9.2705 5.20367 9.53507 5.32043 9.6918 5.31297C9.97178 5.29972 10.2544 5.33006 10.5344 5.30791C10.8387 5.28384 11.1478 5.20897 11.188 4.83221C11.2263 4.47278 11.0159 4.24913 10.7029 4.10637C10.4516 3.99178 10.1848 4.01754 9.92243 4.01706C9.17613 4.01561 8.4438 4.14321 7.70761 4.23637C7.56317 4.25467 7.37972 4.29367 7.35444 4.08495C7.3335 3.91065 7.50683 3.89789 7.63154 3.86467C7.78585 3.8235 7.95461 3.83771 8.05356 3.65787C8.5165 2.81721 8.705 1.93321 8.49074 0.98565C8.44957 0.803891 8.35087 0.647168 8.12963 0.632483C7.92933 0.619242 7.7808 0.704706 7.66668 0.86528C7.55787 1.01767 7.51719 1.191 7.48709 1.37276C7.36335 2.11906 6.99141 2.68817 6.31011 3.04759C5.87822 3.27534 5.52722 3.58806 5.31104 4.0433C5.17261 4.33508 4.8948 4.45256 4.59483 4.52021C3.94074 4.66874 3.28111 4.63648 2.62341 4.56835C1.95391 4.49661 1.28633 4.40465 0.562907 4.31558Z" fill="#0037EB"/>
</svg>
