<svg width="12" height="10" viewBox="0 0 12 10" fill="none" xmlns="http://www.w3.org/2000/svg">
<path d="M3.44939 6.27576C2.78808 6.30946 2.2156 6.41033 1.63662 6.37205C1.12721 6.33835 0.699654 6.16405 0.450728 5.69052C0.255487 5.3193 0.317598 4.95698 0.541487 4.62163C-0.132587 3.83224 -0.124883 3.47474 0.567487 2.83124C0.302672 2.01465 0.488283 1.63259 1.31089 1.29772C1.22206 0.67685 1.38023 0.437073 1.98617 0.279388C2.06586 0.258684 2.14867 0.232684 2.22908 0.235573C4.06015 0.302258 5.91241 0.278906 7.57064 1.24091C8.60293 1.84011 9.72117 2.05942 10.8929 2.08061C11.1293 2.08446 11.356 2.06279 11.4119 2.38828C11.6608 3.83874 11.9237 5.28776 11.7557 6.76976C11.7316 6.96687 11.6856 7.16067 11.6185 7.34754C11.5222 7.61933 11.382 7.88102 11.0592 7.91328C10.7633 7.94265 10.5746 7.74042 10.4179 7.51654C10.1355 7.10792 9.91329 6.66088 9.75801 6.18909C9.67014 5.92861 9.52352 5.81161 9.25967 5.8092C8.7806 5.80463 8.30104 5.77863 7.82269 5.79331C7.37395 5.80728 7.00417 5.95148 6.78751 6.41322C6.59973 6.80996 6.22851 7.06178 5.84332 7.26352C5.2393 7.57961 4.90275 8.07048 4.80814 8.74191C4.78572 8.90548 4.73608 9.06416 4.66128 9.21135C4.46075 9.59461 4.15139 9.82572 3.69832 9.7535C3.2763 9.68633 3.09863 9.36831 3.02762 8.99059C2.88317 8.22431 2.97754 7.47681 3.25175 6.7505C3.30182 6.61279 3.36393 6.4787 3.44939 6.27576ZM11.363 5.68498C11.3994 4.7083 11.2508 3.81515 11.1223 2.91863C11.0741 2.58424 10.9538 2.44942 10.5905 2.44485C9.52088 2.43161 8.47823 2.22361 7.55475 1.66774C5.93119 0.690091 4.12539 0.697314 2.33067 0.623165C2.06947 0.612332 1.80682 0.665295 1.64456 0.938776C1.8788 1.34611 2.29456 1.30205 2.64845 1.38824C2.80397 1.4258 3.03363 1.41231 2.98549 1.64511C2.93878 1.86491 2.73175 1.77391 2.56949 1.76187C2.19152 1.73346 1.81139 1.70048 1.43391 1.71372C1.10097 1.726 0.865524 1.92774 0.842654 2.26911C0.815931 2.66898 1.1573 2.62228 1.40526 2.65622C1.71486 2.69859 2.03119 2.70581 2.33789 2.75709C2.48547 2.78117 2.72308 2.79826 2.67758 3.02696C2.62943 3.26987 2.42962 3.15913 2.27338 3.12759C1.88193 3.04911 1.4876 3.01781 1.09375 3.0987C0.726376 3.17429 0.407394 3.32981 0.452894 3.77085C0.495265 4.18011 0.821228 4.28387 1.17512 4.29542C1.5213 4.30674 1.86869 4.29205 2.21512 4.30313C2.38195 4.30842 2.63617 4.23404 2.64532 4.5003C2.65543 4.79689 2.39086 4.68013 2.23413 4.68759C1.95415 4.70083 1.67152 4.6705 1.39275 4.69265C1.08845 4.71672 0.779338 4.79159 0.739135 5.16835C0.700857 5.52778 0.911265 5.75143 1.22423 5.89418C1.47556 6.00878 1.7423 5.98302 2.00471 5.9835C2.75101 5.98494 3.48334 5.85735 4.21952 5.76418C4.36397 5.74589 4.54741 5.70689 4.57269 5.91561C4.59364 6.08991 4.42054 6.10267 4.2956 6.13589C4.14128 6.17705 3.97252 6.16285 3.87358 6.34268C3.41064 7.18335 3.22213 8.06735 3.43639 9.01491C3.47756 9.19667 3.57626 9.35339 3.79751 9.36807C3.9978 9.38107 4.14634 9.29585 4.26045 9.13528C4.36926 8.98289 4.40995 8.80955 4.44004 8.6278C4.56378 7.8815 4.93573 7.31239 5.61702 6.95296C6.04891 6.72522 6.39991 6.4125 6.6161 5.95726C6.75452 5.66548 7.03234 5.548 7.3323 5.48035C7.98639 5.33181 8.64602 5.36407 9.30373 5.4322C9.97202 5.50322 10.6396 5.59518 11.363 5.68426V5.68498Z" fill="#0037EB"/>
</svg>
