<svg width="13" height="13" viewBox="0 0 13 13" fill="none" xmlns="http://www.w3.org/2000/svg">
<path d="M1.75646 12.7415C1.33549 12.7415 0.979167 12.5957 0.6875 12.304C0.395833 12.0123 0.25 11.656 0.25 11.235V9.60046C0.25 9.4231 0.309861 9.27462 0.429583 9.15504C0.549167 9.03532 0.697639 8.97546 0.875 8.97546C1.05236 8.97546 1.20083 9.03532 1.32042 9.15504C1.44014 9.27462 1.5 9.4231 1.5 9.60046V11.235C1.5 11.2992 1.52674 11.358 1.58021 11.4113C1.63354 11.4648 1.69229 11.4915 1.75646 11.4915H11.2435C11.3077 11.4915 11.3665 11.4648 11.4198 11.4113C11.4733 11.358 11.5 11.2992 11.5 11.235V9.60046C11.5 9.4231 11.5599 9.27462 11.6796 9.15504C11.7992 9.03532 11.9476 8.97546 12.125 8.97546C12.3024 8.97546 12.4508 9.03532 12.5704 9.15504C12.6901 9.27462 12.75 9.4231 12.75 9.60046V11.235C12.75 11.656 12.6042 12.0123 12.3125 12.304C12.0208 12.5957 11.6645 12.7415 11.2435 12.7415H1.75646ZM5.875 2.64858L4.2725 4.25108C4.14847 4.37497 4.00132 4.43615 3.83104 4.43462C3.66063 4.43296 3.51076 4.36747 3.38146 4.23816C3.26076 4.109 3.19826 3.96268 3.19396 3.79921C3.18965 3.63573 3.25215 3.48934 3.38146 3.36004L5.97271 0.768789C6.05076 0.690733 6.13306 0.635733 6.21958 0.603789C6.30611 0.571706 6.39958 0.555664 6.5 0.555664C6.60042 0.555664 6.69389 0.571706 6.78042 0.603789C6.86694 0.635733 6.94924 0.690733 7.02729 0.768789L9.61854 3.36004C9.74243 3.48393 9.80361 3.629 9.80208 3.79525C9.80042 3.96136 9.73924 4.109 9.61854 4.23816C9.48924 4.36747 9.34076 4.43428 9.17313 4.43858C9.00535 4.44289 8.85681 4.38039 8.7275 4.25108L7.125 2.64858V9.02358C7.125 9.20094 7.06514 9.34941 6.94542 9.469C6.82583 9.58872 6.67736 9.64858 6.5 9.64858C6.32264 9.64858 6.17417 9.58872 6.05458 9.469C5.93486 9.34941 5.875 9.20094 5.875 9.02358V2.64858Z" fill="#7F7F7F"/>
</svg>
