<svg width="78" height="78" viewBox="0 0 68 68" fill="none" xmlns="http://www.w3.org/2000/svg">
<path d="M45.3805 31.5202C47.8754 32.0551 47.8928 32.1577 47.6129 34.8716C47.2397 38.4657 46.4933 41.9863 45.7611 45.5144C45.6318 46.1365 45.5397 46.7716 45.442 47.3339C46.2407 47.9802 47.3622 47.74 47.8281 48.772C47.4549 49.7672 46.5063 49.8587 45.6716 49.8711C37.8714 49.9899 30.0687 50.2375 22.2704 49.8773C20.0964 49.7772 19.5957 49.0936 19.6617 46.975C19.8563 40.8263 19.6896 34.6794 19.6268 28.532C19.6057 26.4351 19.8134 26.2305 21.9619 26.2093C23.2059 26.1969 24.45 26.2746 25.6853 26.19C27.1123 26.0918 28.2624 26.3866 28.8713 27.8197C29.229 28.662 29.9736 28.5662 30.6833 28.5662C34.2309 28.5662 37.7781 28.5662 41.3249 28.5662C44.4785 28.5693 44.4785 28.5693 45.3805 31.5202ZM20.7527 47.8564C21.1669 47.9721 21.3871 48.0871 21.608 48.0878C28.7575 48.1027 35.907 48.0878 43.0566 48.135C44.1563 48.1431 44.3131 47.4632 44.4692 46.7181C44.9426 44.4651 45.4408 42.214 45.8109 39.9424C46.1841 37.6409 46.4192 35.3189 46.7439 32.7835H28.0621C23.2936 32.7835 23.2936 32.7835 22.4943 37.5687C22.4552 37.8013 22.3998 38.0315 22.3606 38.2648C21.8257 41.4508 21.292 44.6361 20.7527 47.8564ZM43.561 29.6696C39.1696 29.6696 34.6897 29.6603 30.2112 29.6777C29.3497 29.6808 28.5535 29.6777 28.1585 28.708C27.6646 27.4876 26.7222 27.156 25.4626 27.2587C24.2895 27.3538 23.099 27.3209 21.9227 27.2686C20.9275 27.2238 20.5679 27.6201 20.5785 28.6116C20.6152 32.136 20.5928 35.6603 20.5928 39.186L21.0824 39.2158C21.3656 37.611 21.6488 36.0062 21.932 34.4014C22.4029 31.7267 22.4023 31.7267 25.0521 31.7267C30.7187 31.7267 36.3854 31.7329 42.0514 31.7167C42.6796 31.7167 43.3477 31.8965 43.9946 31.4567C44.0319 30.89 44.0151 30.3221 43.561 29.6696Z" fill="black"/>
<path d="M37.2301 23.3988C36.3418 23.3925 35.4642 23.2036 34.6518 22.844C33.3972 22.3065 32.2645 21.5601 32.55 19.9746C32.8411 18.3573 33.9185 17.3378 35.5762 17.214C37.0329 17.1045 38.3753 17.6046 39.4408 18.6447C40.3309 19.5155 40.5331 20.5729 40.0628 21.7312C39.5459 23.0001 38.5339 23.4554 37.2301 23.3988Z" fill="black"/>
<path d="M45.1808 34.6796C43.548 35.1019 41.9463 35.1548 40.1331 34.794C41.3255 33.7223 43.8559 33.6601 45.1808 34.6796Z" fill="black"/>
</svg>
