<svg width="19" height="14" viewBox="0 0 19 14" fill="none" xmlns="http://www.w3.org/2000/svg">
<path d="M9.50198 11.0594C10.5554 11.0594 11.4501 10.6907 12.1861 9.95334C12.9221 9.21597 13.29 8.32057 13.29 7.26713C13.29 6.21369 12.9214 5.31899 12.184 4.58302C11.4466 3.84705 10.5512 3.47907 9.49779 3.47907C8.44435 3.47907 7.54965 3.84775 6.81368 4.58511C6.07771 5.32247 5.70973 6.21787 5.70973 7.27132C5.70973 8.32476 6.07841 9.21946 6.81577 9.95543C7.55314 10.6914 8.44854 11.0594 9.50198 11.0594ZM9.49989 9.77926C8.80265 9.77926 8.21001 9.53523 7.72194 9.04717C7.23388 8.5591 6.98985 7.96646 6.98985 7.26922C6.98985 6.57199 7.23388 5.97934 7.72194 5.49128C8.21001 5.00322 8.80265 4.75919 9.49989 4.75919C10.1971 4.75919 10.7898 5.00322 11.2778 5.49128C11.7659 5.97934 12.0099 6.57199 12.0099 7.26922C12.0099 7.96646 11.7659 8.5591 11.2778 9.04717C10.7898 9.53523 10.1971 9.77926 9.49989 9.77926ZM9.49989 13.7767C7.54283 13.7767 5.75296 13.2547 4.13026 12.2105C2.50757 11.1665 1.21235 9.79297 0.244587 8.08987C0.167117 7.95631 0.110486 7.82174 0.0746946 7.68617C0.0390583 7.5506 0.0212402 7.41146 0.0212402 7.26876C0.0212402 7.12606 0.0390583 6.98708 0.0746946 6.85181C0.110486 6.71655 0.167117 6.58214 0.244587 6.44858C1.21235 4.74547 2.50757 3.37193 4.13026 2.32794C5.75296 1.28379 7.54283 0.761719 9.49989 0.761719C11.4569 0.761719 13.2468 1.28379 14.8695 2.32794C16.4922 3.37193 17.7874 4.74547 18.7552 6.44858C18.8327 6.58214 18.8893 6.71671 18.9251 6.85228C18.9607 6.98785 18.9785 7.12699 18.9785 7.26969C18.9785 7.41239 18.9607 7.55137 18.9251 7.68663C18.8893 7.8219 18.8327 7.95631 18.7552 8.08987C17.7874 9.79297 16.4922 11.1665 14.8695 12.2105C13.2468 13.2547 11.4569 13.7767 9.49989 13.7767ZM9.49989 12.3823C11.2507 12.3823 12.8582 11.9213 14.3224 10.9994C15.7866 10.0775 16.906 8.83412 17.6807 7.26922C16.906 5.70432 15.7866 4.46093 14.3224 3.53903C12.8582 2.61713 11.2507 2.15618 9.49989 2.15618C7.74906 2.15618 6.14155 2.61713 4.67736 3.53903C3.21317 4.46093 2.09373 5.70432 1.31902 7.26922C2.09373 8.83412 3.21317 10.0775 4.67736 10.9994C6.14155 11.9213 7.74906 12.3823 9.49989 12.3823Z" fill="#CBCBCB"/>
</svg>
