<svg width="24" height="40" viewBox="0 0 24 20" fill="none" xmlns="http://www.w3.org/2000/svg">
<path d="M5.90827 8.11174C7.25415 5.81463 9.40414 1.42838 10.2582 1.0951C11.1123 0.761825 13.3282 1.75087 13.3646 2.85246C13.3915 3.66828 11.7501 6.61994 10.6116 8.64365M8.71052 12.1169C7.95412 13.4082 7.23671 14.565 6.76459 15.4406C6.52214 15.8903 6.20144 16.2976 5.7918 16.6029L3.01365 18.6731C2.81752 18.8193 2.53862 18.6794 2.5384 18.4348L2.5351 14.7395C2.53464 14.2173 2.67144 13.7042 2.93187 13.2514C3.20849 12.7706 3.55305 12.1724 4.00025 11.402" stroke="#F2F2F2" stroke-width="0.594972"/>
<path d="M4.27484 17.6605C3.79418 16.8526 2.95571 16.7713 2.56403 17.0098L2.78412 18.7323L4.27484 17.6605Z" fill="#F2F2F2"/>
<path d="M2.59261 14.7828C2.59261 14.7828 4.35777 14.4951 4.8947 14.9103C5.43164 15.3256 5.84291 16.303 5.84291 16.303" stroke="#F2F2F2" stroke-width="0.594972"/>
<path d="M12.8355 4.41109C12.2312 3.41503 10.1999 2.82657 9.2598 2.65685C9.34837 2.4953 9.57089 2.09399 9.75239 1.78119C9.97927 1.39018 11.103 0.352211 12.6229 1.41441C13.8388 2.26416 13.2713 3.76626 12.8355 4.41109Z" fill="#F2F2F2"/>
<path d="M4.99039 14.7892L6.09057 13.1474M11.7714 3.0934L8.38141 9.02716" stroke="#F2F2F2" stroke-width="0.594972"/>
<path d="M17.5297 17.4045C16.0829 17.2236 16.6567 14.3469 16.9743 13.0303C18.4985 13.0303 20.1926 15.2898 20.9051 15.8862C20.1773 16.721 18.8278 17.5667 17.5297 17.4045Z" fill="#F2F2F2" stroke="#F2F2F2" stroke-width="0.297486"/>
<path d="M13.0161 4.34277C13.3233 4.56376 13.8979 4.90484 15.8078 6.12039C17.8281 7.40621 22.0002 8.92794 23.5946 9.64627C23.2185 11.441 21.8722 15.1002 19.9222 16.2612" stroke="#F2F2F2" stroke-width="0.594972"/>
<path d="M10.1242 2.33594C9.08946 2.7301 6.67119 2.93653 5.19236 3.22301C3.17243 3.76095 2.62789 3.84674 2.62793 5.96689C2.78179 7.04394 3.2947 10.6085 3.67936 10.711C4.06402 10.8136 5.91039 10.0522 5.91039 8.89031C5.91039 7.54676 5.82251 6.23277 5.74557 5.69424" stroke="#F2F2F2" stroke-width="0.594972" stroke-linecap="round"/>
<path d="M10.7718 8.56543C9.56405 8.79344 7.17309 9.26642 6.71063 9.42058C6.13254 9.61327 4.44115 10.277 4.05577 11.1976C3.67039 12.1182 4.29532 13.5485 5.90107 13.2273C7.50682 12.9062 9.0888 11.6416 10.9121 11.5616C14.5582 11.4017 14.9896 11.8683 16.7544 12.5596C19.0748 13.4684 20.0662 15.2502 20.6443 15.7141" stroke="#F2F2F2" stroke-width="0.594972"/>
<path d="M2.70536 6.5127C2.36946 6.64444 1.68183 7.22805 1.61858 8.50848C1.55533 9.78892 2.12641 12.0824 2.70539 13.1666" stroke="#F2F2F2" stroke-width="0.594972" stroke-linecap="round"/>
</svg>
