<svg width="37" height="37" viewBox="0 0 37 37" fill="none" xmlns="http://www.w3.org/2000/svg">
<rect width="37" height="37" rx="4.76751" fill="#EBEBEB"/>
<path d="M19.3028 16.3828C19.6297 16.2691 19.7578 16.0769 19.902 15.9169C20.9983 14.7017 22.0847 13.4776 23.1759 12.2583C23.8099 11.5503 24.4463 10.844 25.0851 10.1394C25.1586 10.0569 25.2402 9.98207 25.3287 9.91603C25.4226 9.84752 25.5377 9.82764 25.6391 9.89548C25.7611 9.97701 25.7974 10.1051 25.7669 10.2456C25.7275 10.4272 25.5956 10.5539 25.4794 10.6852C23.972 12.3625 22.4641 14.0389 20.9555 15.7144C20.6472 16.0594 20.3502 16.4174 20.038 16.7607C19.7862 17.0372 19.8911 17.2674 20.0785 17.5264C21.0487 18.8714 22.0042 20.2274 22.9734 21.5731C24.0073 23.0092 25.1009 24.4026 26.0804 25.8774C26.2804 26.1789 26.6127 26.491 26.3726 26.8925C26.152 27.2605 25.7319 27.119 25.3938 27.1275C24.6401 27.1464 23.8864 27.1121 23.1358 27.1351C22.6493 27.1498 22.2903 26.9679 21.9823 26.6075C21.492 26.034 21.0686 25.4122 20.6338 24.7993C19.6358 23.3923 18.655 21.9729 17.6594 20.5642C17.5638 20.4271 17.5077 20.2315 17.2223 20.2037C16.485 21.0513 15.719 21.9287 14.9564 22.8074C13.8704 24.0613 12.7855 25.316 11.7017 26.5715C11.5684 26.719 11.4268 26.8587 11.2776 26.9902C11.1687 27.0899 11.0378 27.1108 10.9152 27.0183C10.775 26.9117 10.737 26.7603 10.8192 26.6071C10.8854 26.4927 10.9642 26.386 11.0542 26.2892C12.8835 24.188 14.7134 22.0874 16.5439 19.9876C16.9068 19.5706 16.9037 19.4942 16.5628 19.017C14.6998 16.4071 12.8384 13.7961 10.9785 11.184C10.8619 11.023 10.7573 10.8537 10.6657 10.6773C10.4355 10.2233 10.5212 10.0051 11.0364 9.96023C12.1845 9.86019 13.3349 9.8619 14.4795 10.0452C14.83 10.1014 15.004 10.3679 15.1825 10.6108C15.8629 11.5382 16.5258 12.4779 17.1932 13.4146C17.8957 14.4013 18.5989 15.3907 19.3028 16.3828Z" fill="#212121"/>
</svg>
