<svg width="31" height="31" viewBox="0 0 31 31" fill="none" xmlns="http://www.w3.org/2000/svg">
<path d="M9.73856 12.5625L7.71796 14.0452C7.64837 14.0962 7.60456 14.1699 7.59734 14.2559C7.51011 15.2941 6.95687 22.1925 7.60847 22.7532C8.31327 23.3598 23.2966 23.0777 23.7824 22.7532C24.2309 22.4538 23.8515 15.4595 23.7904 14.3839C23.7853 14.2933 23.7394 14.215 23.6655 14.1624L21.7203 12.7774" stroke="#212121" stroke-width="0.6" stroke-linecap="round"/>
<path d="M9.89825 15.37C9.89825 15.37 9.60563 8.5766 9.9154 7.77266C10.2252 6.96871 21.6959 7.22326 21.6959 7.77266C21.6959 8.32205 21.6959 15.2728 21.6959 15.2728" stroke="#212121" stroke-width="0.6" stroke-linecap="round"/>
<path d="M16.7933 18.0609L23.6303 14.2881" stroke="#212121" stroke-width="0.6" stroke-linecap="round"/>
<path d="M7.65662 14.1738L14.4748 17.9708" stroke="#212121" stroke-width="0.6" stroke-linecap="round"/>
<path d="M7.70465 22.7297L15.4948 17.3739C15.5453 17.3392 15.6119 17.3387 15.6629 17.3726L23.7104 22.7297" stroke="#212121" stroke-width="0.6" stroke-linecap="round"/>
<path d="M12.5741 11.3604H19.305" stroke="#212121" stroke-width="0.6" stroke-linecap="round"/>
<path d="M12.5741 10.0293H19.305" stroke="#212121" stroke-width="0.6" stroke-linecap="round"/>
<path d="M9.39733 24.0056C7.33692 23.9016 7.29906 23.0184 7.13972 22.4209C7.13972 22.4209 7.27677 22.8595 10.5841 23.072C14.0014 23.2916 20.5236 23.1266 23.3479 22.7499C23.9684 22.6984 24.3084 20.2684 24.2889 21.1268C24.2693 21.9852 24.4793 23.8883 23.5068 24.0056C22.5343 24.1229 20.0858 24.3034 17.2747 24.3176C14.49 24.3317 10.9478 24.0838 9.39733 24.0056Z" fill="#212121"/>
<path d="M21.8383 15.0612V12.9424L23.4778 14.1793L21.8383 15.0612Z" fill="#212121"/>
<path d="M9.66168 15.0612V12.9424L8.02218 14.1793L9.66168 15.0612Z" fill="#212121"/>
</svg>
