<svg width="100" height="100" viewBox="0 0 100 100" fill="none" xmlns="http://www.w3.org/2000/svg">
<path d="M37.0515 50.6422C37.0515 50.6422 79.1625 40.0782 81.0325 39.9092C82.9025 39.7402 82.2835 39.7732 82.6235 42.9492C82.9465 45.9732 83.2195 49.3612 82.4555 53.3322C82.0555 55.4062 79.2785 57.0722 74.5325 57.8322C69.7865 58.5922 68.0205 59.1662 66.3735 57.9482C64.7265 56.7302 63.5845 52.7022 61.2735 53.6242C58.9625 54.5462 58.8885 60.7342 56.3465 62.1952C53.8035 63.6562 41.4255 66.4672 38.4155 66.1372C35.4055 65.8062 31.0155 60.4432 28.2135 54.0752C26.4185 49.9962 20.2475 45.9362 20.2475 45.9362C20.2475 45.9362 18.8195 52.6882 17.4955 50.0572C16.1705 47.4252 17.6515 38.6262 20.1755 40.1602C23.2245 42.0132 29.9555 48.5062 32.4915 50.0772C35.0285 51.6482 37.0515 50.6422 37.0515 50.6422Z" stroke="black" stroke-width="2" stroke-miterlimit="10" stroke-linejoin="round"/>
<path d="M42.3213 52.8815C42.3213 52.8815 53.7893 49.8355 54.4943 50.4255C55.2003 51.0155 54.2173 58.4585 54.2173 58.4585C53.3783 60.1495 42.5413 62.0885 42.5013 60.4505C42.4613 58.8115 42.3213 52.8815 42.3213 52.8815Z" fill="black" stroke="black" stroke-width="2" stroke-miterlimit="10" stroke-linejoin="round"/>
<path d="M67.595 46.712C67.595 46.712 76.828 44.563 78.01 44.485C79.191 44.408 78.835 51.632 78.436 52.433C78.036 53.233 70.449 54.603 68.962 54.433C67.476 54.263 67.595 46.712 67.595 46.712Z" fill="black" stroke="black" stroke-width="2" stroke-miterlimit="10" stroke-linejoin="round"/>
<path d="M82.0124 39.8182C82.0124 39.8182 57.5964 34.4722 53.9084 34.0682C50.2214 33.6652 46.3524 35.0512 45.4214 38.1672C44.4904 41.2842 46.6584 44.8542 48.0724 42.4902C49.4874 40.1262 49.1234 38.2052 52.1874 38.6202C55.2514 39.0362 62.6704 40.5782 64.1934 41.0052C65.7164 41.4332 67.1144 43.1752 67.1144 43.1752L82.0124 39.8182Z" stroke="black" stroke-width="2" stroke-miterlimit="10" stroke-linejoin="round"/>
<path d="M58.9268 49.5621C59.8328 49.3861 60.6948 49.0061 61.6028 48.8301" stroke="black" stroke-width="2" stroke-miterlimit="10" stroke-linecap="round" stroke-linejoin="round"/>
</svg>
