<svg width="100" height="100" viewBox="0 0 100 100" fill="none" xmlns="http://www.w3.org/2000/svg">
<g clip-path="url(#clip0_65_20457)">
<path d="M49.0476 56.85C52.1135 56.7568 53.9992 56.8234 57.1227 56.9698" stroke="black" stroke-width="2" stroke-linecap="round" stroke-linejoin="round"/>
<path d="M48.227 55.0665C48.7452 55.5323 49.0475 56.1845 49.0475 56.85C49.0475 57.5156 48.7308 58.1678 48.1982 58.6203" stroke="black" stroke-width="2" stroke-linecap="round" stroke-linejoin="round"/>
<path d="M51.0913 53.03C51.9981 54.4409 53.0057 55.7986 54.114 57.0897C53.0921 58.1412 52.0701 59.206 51.0481 60.2575" stroke="black" stroke-width="2" stroke-linecap="round" stroke-linejoin="round"/>
<path d="M40.0712 62.7049C40.0712 64.2449 39.0212 65.8949 37.4812 65.8949C32.8712 65.6549 24.9301 65.74 18.2001 65.93C16.6601 65.93 15.4101 64.68 15.4101 63.14C15.1701 55.46 15.2601 45.95 15.4101 36.12C15.4101 34.58 16.6601 33.33 18.2001 33.33C22.8201 32.89 30.7793 33.062 37.1893 33.302C38.7293 33.302 39.8893 34.142 39.8893 35.682C39.8893 34.142 41.2193 33.302 42.7593 33.302C53.3993 34.012 65.0501 33.94 79.3601 33.33C80.9001 33.33 82.1501 34.58 82.5901 36.38C82.8401 46.58 82.8701 55.75 82.5901 63.4C82.1501 64.68 80.9001 65.92 79.3601 65.92C69.9501 66.56 58.2712 66.3649 43.0512 65.8849C41.5112 65.8849 40.0612 64.2349 40.0612 62.6949L40.0712 62.7049Z" stroke="black" stroke-width="2" stroke-linecap="round" stroke-linejoin="round"/>
<path d="M18.8701 62.28H24.6601H18.8701Z" stroke="black" stroke-width="2" stroke-linecap="round" stroke-linejoin="round"/>
<path d="M24.6701 56.66H18.8801V58.66H24.6701V56.66Z" stroke="black" stroke-width="2" stroke-linecap="round" stroke-linejoin="round"/>
<path d="M40.1582 55.33L40.1582 59.3262" stroke="black" stroke-width="2" stroke-linecap="round" stroke-linejoin="round"/>
<path d="M18.8999 53.03H24.6899H18.8999Z" stroke="black" stroke-width="2" stroke-linecap="round" stroke-linejoin="round"/>
<path d="M77.3899 60.02C74.7599 60.2 72.0299 60.2 69.1799 60.02C69.3199 56.9 69.3199 53.78 69.1799 50.67C72.0499 50.77 74.7999 50.78 77.3899 50.67C77.7099 54.04 77.7499 57.19 77.3899 60.02Z" fill="black" stroke="black" stroke-width="2" stroke-linecap="round" stroke-linejoin="round"/>
<path d="M18.8999 49.4H24.6899H18.8999Z" stroke="black" stroke-width="2" stroke-linecap="round" stroke-linejoin="round"/>
<path d="M30.5086 58.9249C31.9929 60.0688 33.7639 60.8265 35.6188 61.101C33.9928 58.9266 32.3533 56.7236 31.3312 54.206C31.752 54.5289 32.1838 54.8606 32.7003 54.9708C33.2168 55.081 33.8295 54.898 34.0549 54.4183C34.2312 54.035 34.1066 53.5764 33.8921 53.209C33.6775 52.8416 33.3795 52.5344 33.1649 52.167C32.5827 51.1583 32.7266 49.9028 32.8921 48.7454" stroke="black" stroke-width="2" stroke-linecap="round" stroke-linejoin="round"/>
<path d="M45.4189 48.11C50.8767 47.63 56.3621 47.52 61.8383 47.8" stroke="black" stroke-width="2" stroke-linecap="round" stroke-linejoin="round"/>
<path d="M39.8467 47.1646L39.8467 51.1607" stroke="black" stroke-width="2" stroke-linecap="round" stroke-linejoin="round"/>
<path d="M24.7299 44.76H18.9399V45.77H24.7299V44.76Z" stroke="black" stroke-width="2" stroke-linecap="round" stroke-linejoin="round"/>
<path d="M45.4189 43.61C55.4126 43.41 65.7565 43.47 75.7501 43.78" stroke="black" stroke-width="2" stroke-linecap="round" stroke-linejoin="round"/>
<path d="M18.9099 41.13H24.6999H18.9099Z" stroke="black" stroke-width="2" stroke-linecap="round" stroke-linejoin="round"/>
<path d="M39.8467 39.4979L39.8467 43.494" stroke="black" stroke-width="2" stroke-linecap="round" stroke-linejoin="round"/>
<path d="M45.4189 38.87C55.643 39.3 65.5352 39.28 75.7501 38.82" stroke="black" stroke-width="2" stroke-linecap="round" stroke-linejoin="round"/>
<path d="M36.0461 42.4728C33.6932 42.5787 31.2509 42.5787 28.7012 42.4728C28.8264 40.6366 28.8264 38.8004 28.7012 36.97C31.2688 37.0289 33.729 37.0348 36.0461 36.97C36.3324 38.9534 36.3682 40.8073 36.0461 42.4728Z" stroke="black" stroke-width="2" stroke-linecap="round" stroke-linejoin="round"/>
<path d="M24.7099 36.97H18.9199V37.5H24.7099V36.97Z" stroke="black" stroke-width="2" stroke-linecap="round" stroke-linejoin="round"/>
<path d="M40.3525 66.6511C40.3525 66.6511 40.7925 67.1911 41.6725 67.3811C42.4125 67.5411 47.5425 67.6211 49.2825 67.6711C52.7425 67.7611 54.24 67.78 57.69 67.84C63.57 67.93 69.45 67.99 75.33 67.84C77.1 67.8 78.87 67.74 80.63 67.59C81.52 67.52 82.57 67.5 83.41 67.14C86.42 65.83 85.92 37.07 85.06 36.5C84.2 35.93 82.59 36.38 82.59 36.38C82.59 36.38 82.5 61.83 82.59 63.4C82.68 64.97 81.34 66.23 79.91 66.23C78.48 66.23 43.3325 66.2011 42.3325 66.1111C41.3325 66.0211 39.9025 64.6011 39.9025 63.3411C39.9025 63.3411 39.5625 66.6111 37.7225 66.5311C35.8825 66.4511 17.54 66.4 17.54 66.4C20.47 66.4 23.44 66.74 26.36 66.87C28.16 66.95 31.9325 67.0811 33.7325 67.1511C35.4325 67.2211 38.1825 67.1811 38.7425 67.2111C39.9125 67.2711 40.3525 66.6411 40.3525 66.6411V66.6511Z" fill="black"/>
</g>
<defs>
<clipPath id="clip0_65_20457">
<rect width="71.46" height="35.86" fill="white" transform="translate(14.27 32.07)"/>
</clipPath>
</defs>
</svg>
