<svg width="100" height="100" viewBox="0 0 100 100" fill="none" xmlns="http://www.w3.org/2000/svg">
<path d="M39.9296 52.2044C41.3785 45.0198 51.1884 40.4312 57.8002 43.933C55.989 40.7332 52.2096 39.3203 46.7517 40.4312C41.2938 41.5421 39.8692 49.085 39.9296 52.2044Z" fill="black"/>
<path d="M39.9443 47.3802C38.6828 45.628 35.5345 45.2192 34.1182 45.2338" stroke="black" stroke-width="2" stroke-linecap="round" stroke-linejoin="round"/>
<path d="M80.627 37.9121C89.9931 53.4056 62.5526 89.0008 43.8164 72.1951C60.5378 81.0863 84.0781 60.9211 80.627 37.9121Z" fill="black"/>
<path d="M79.2956 50.9795C79.5837 47.7494 78.1153 44.0451 76.7383 42.668" stroke="black" stroke-width="2" stroke-linecap="round" stroke-linejoin="round"/>
<path d="M46.0018 40.1276C46.1368 38.7773 44.7828 35.6641 44.0889 34.2763" stroke="black" stroke-width="2" stroke-linecap="round" stroke-linejoin="round"/>
<path d="M51.6274 39.6213C51.6275 38.4511 51.8901 35.2703 52.0214 33.8262" stroke="black" stroke-width="2" stroke-linecap="round" stroke-linejoin="round"/>
<path d="M79.9897 36.5142C77.0816 26.128 57.8069 16.4393 38.7936 22.9438C20.3765 29.2444 8.50229 56.7489 20.3765 64.0188C32.2507 71.2887 35.9322 63.1297 37.8243 58.6875C40.6111 52.1446 38.3846 45.7063 43.6402 41.9667C49.9408 37.4835 57.5741 40.755 58.7858 44.6323C59.9975 48.5096 43.3868 56.6594 40.4899 60.3838C38.7935 62.5648 37.8243 72.9849 51.3948 74.4389C69.9871 76.4309 84.0997 51.1923 79.9897 36.5142Z" stroke="black" stroke-width="2"/>
<path d="M57.1377 73.8511C55.3359 72.8216 54.367 71.2236 53.7593 69.9366" stroke="black" stroke-width="2" stroke-linecap="round" stroke-linejoin="round"/>
<path fill-rule="evenodd" clip-rule="evenodd" d="M41.1446 69.0848C41.7672 70.4239 42.9188 71.6446 44.5849 72.5209C45.1362 73.7267 41.4722 78.0463 39.3694 77.8823C37.1574 77.7102 33.8328 74.3866 36.0345 74.0512C38.328 73.7018 39.1043 72.4278 40.5906 69.9886C40.7644 69.7034 40.9479 69.4023 41.1446 69.0848ZM38.0206 76.7849C38.9191 77.3762 40.0189 77.2912 40.4771 76.595C40.9353 75.8988 40.5783 74.855 39.6798 74.2637C38.7814 73.6724 37.6815 73.7575 37.2234 74.4537C36.7652 75.1499 37.1221 76.1936 38.0206 76.7849Z" fill="black"/>
<path d="M44.5849 72.5209L45.0397 72.313C44.9937 72.2124 44.9156 72.1299 44.8177 72.0784L44.5849 72.5209ZM41.1446 69.0848L41.598 68.8741C41.5206 68.7074 41.3579 68.5967 41.1745 68.5857C40.9911 68.5748 40.8164 68.6653 40.7196 68.8214L41.1446 69.0848ZM39.3694 77.8823L39.4083 77.3839L39.4082 77.3838L39.3694 77.8823ZM36.0345 74.0512L36.1098 74.5455H36.1098L36.0345 74.0512ZM40.5906 69.9886L40.1636 69.7285L40.5906 69.9886ZM40.4771 76.595L40.0594 76.3201L40.4771 76.595ZM38.0206 76.7849L37.7457 77.2026H37.7457L38.0206 76.7849ZM37.2234 74.4537L37.641 74.7285H37.641L37.2234 74.4537ZM44.8177 72.0784C43.2373 71.2472 42.1693 70.1029 41.598 68.8741L40.6912 69.2956C41.365 70.7449 42.6003 72.042 44.3522 72.9634L44.8177 72.0784ZM39.3306 78.3808C40.0194 78.4345 40.7568 78.125 41.4172 77.7053C42.0933 77.2756 42.7641 76.6821 43.3409 76.0532C43.9172 75.425 44.4175 74.7418 44.7414 74.1219C44.903 73.8127 45.0293 73.5028 45.0936 73.2121C45.1558 72.9306 45.1734 72.6054 45.0397 72.313L44.1302 72.7288C44.1343 72.7378 44.158 72.8114 44.1171 72.9963C44.0783 73.1719 43.9924 73.396 43.8551 73.6588C43.5813 74.1828 43.1376 74.7954 42.6039 75.3773C42.0708 75.9585 41.4658 76.4895 40.8808 76.8614C40.2799 77.2432 39.7708 77.4121 39.4083 77.3839L39.3306 78.3808ZM35.9592 73.5569C35.623 73.6081 35.3107 73.7276 35.09 73.9633C34.8561 74.2131 34.7885 74.5245 34.8182 74.8175C34.8722 75.3504 35.2497 75.9055 35.6808 76.3687C36.1324 76.8538 36.7259 77.3263 37.3548 77.6909C37.9781 78.0521 38.6748 78.3298 39.3307 78.3808L39.4082 77.3838C38.958 77.3488 38.4097 77.1465 37.8563 76.8257C37.3085 76.5082 36.7937 76.0965 36.4128 75.6873C36.0115 75.2561 35.8324 74.9067 35.8131 74.7167C35.8093 74.6788 35.8135 74.6602 35.815 74.6549C35.816 74.6517 35.8163 74.6506 35.8199 74.6468C35.8301 74.6359 35.8956 74.5781 36.1098 74.5455L35.9592 73.5569ZM40.1636 69.7285C39.4096 70.9658 38.8767 71.8346 38.2616 72.4501C37.6752 73.037 37.0074 73.3972 35.9592 73.5569L36.1098 74.5455C37.3551 74.3557 38.2222 73.9043 38.9689 73.157C39.687 72.4384 40.2853 71.4506 41.0176 70.2488L40.1636 69.7285ZM40.7196 68.8214C40.5217 69.1407 40.3373 69.4434 40.1636 69.7285L41.0176 70.2488C41.1915 69.9634 41.374 69.6639 41.5696 69.3483L40.7196 68.8214ZM40.0594 76.3201C39.8142 76.6928 39.0687 76.8761 38.2955 76.3672L37.7457 77.2026C38.7695 77.8764 40.2237 77.8896 40.8948 76.8699L40.0594 76.3201ZM39.405 74.6814C40.1782 75.1902 40.3047 75.9474 40.0594 76.3201L40.8948 76.8699C41.5659 75.8501 40.9785 74.5198 39.9547 73.8461L39.405 74.6814ZM37.641 74.7285C37.8863 74.3558 38.6318 74.1726 39.405 74.6814L39.9547 73.8461C38.9309 73.1723 37.4768 73.1591 36.8057 74.1788L37.641 74.7285ZM38.2955 76.3672C37.5223 75.8584 37.3958 75.1012 37.641 74.7285L36.8057 74.1788C36.1346 75.1985 36.722 76.5288 37.7457 77.2026L38.2955 76.3672Z" fill="black"/>
<path d="M39.8528 52.4873C40.4796 57.7876 38.0289 73.232 24.4077 66.7349C36.7182 68.5018 38.941 57.8446 39.8528 52.4873Z" fill="black"/>
<path fill-rule="evenodd" clip-rule="evenodd" d="M26.457 67.0047C27.8854 67.278 29.5237 67.0604 31.183 66.2335C31.183 66.2335 32.26 71.1634 32.4651 73.4873C32.0785 75.8158 27.0312 75.7172 26.5813 73.9883L26.457 67.0047ZM29.5165 74.0565C30.5179 74.0222 31.304 73.2442 31.2722 72.3189C31.2405 71.3936 30.403 70.6713 29.4016 70.7056C28.4002 70.74 27.6141 71.518 27.6458 72.4433C27.6776 73.3686 28.5151 74.0909 29.5165 74.0565Z" fill="black"/>
<path d="M31.183 66.2335L31.6715 66.1268C31.6386 65.9762 31.5381 65.8492 31.399 65.7826C31.26 65.716 31.098 65.7172 30.96 65.786L31.183 66.2335ZM26.457 67.0047L26.551 66.5136C26.4031 66.4853 26.2502 66.5252 26.135 66.6222C26.0198 66.7192 25.9544 66.863 25.9571 67.0136L26.457 67.0047ZM32.4651 73.4873L32.9583 73.5692C32.9652 73.5276 32.9668 73.4854 32.9631 73.4434L32.4651 73.4873ZM26.5813 73.9883L26.0814 73.9972C26.0821 74.0367 26.0875 74.076 26.0974 74.1142L26.5813 73.9883ZM31.2722 72.3189L30.7725 72.336L31.2722 72.3189ZM29.5165 74.0565L29.4994 73.5568H29.4994L29.5165 74.0565ZM29.4016 70.7056L29.3844 70.2059H29.3844L29.4016 70.7056ZM27.6458 72.4433L27.1461 72.4604L27.6458 72.4433ZM30.96 65.786C29.3874 66.5697 27.86 66.7641 26.551 66.5136L26.363 67.4958C27.9108 67.7919 29.66 67.5511 31.4061 66.681L30.96 65.786ZM32.9631 73.4434C32.858 72.2522 32.5326 70.4149 32.2381 68.8939C32.09 68.1294 31.9485 67.438 31.844 66.9378C31.7917 66.6877 31.7486 66.4852 31.7186 66.3451C31.7036 66.2751 31.6919 66.2207 31.6839 66.1837C31.6799 66.1652 31.6768 66.151 31.6747 66.1415C31.6737 66.1367 31.6729 66.133 31.6724 66.1306C31.6721 66.1294 31.6719 66.1284 31.6717 66.1278C31.6717 66.1275 31.6716 66.1272 31.6716 66.1271C31.6716 66.127 31.6716 66.1269 31.6715 66.1269C31.6715 66.1268 31.6715 66.1268 31.183 66.2335C30.6946 66.3402 30.6946 66.3402 30.6946 66.3402C30.6946 66.3403 30.6946 66.3403 30.6946 66.3404C30.6946 66.3405 30.6947 66.3407 30.6947 66.341C30.6949 66.3416 30.695 66.3424 30.6953 66.3436C30.6958 66.3459 30.6966 66.3493 30.6976 66.354C30.6996 66.3632 30.7026 66.377 30.7065 66.3952C30.7144 66.4316 30.726 66.4853 30.7408 66.5546C30.7705 66.6932 30.8132 66.8941 30.8651 67.1424C30.9689 67.6392 31.1094 68.3255 31.2563 69.084C31.5515 70.6089 31.8671 72.3985 31.967 73.5313L32.9631 73.4434ZM26.0974 74.1142C26.2691 74.7739 26.8494 75.1918 27.4511 75.4314C28.0705 75.678 28.8272 75.7862 29.5653 75.759C30.3025 75.7319 31.0647 75.5681 31.6851 75.2302C32.3109 74.8893 32.8293 74.3465 32.9583 73.5692L31.9718 73.4054C31.9076 73.7924 31.6501 74.1105 31.2067 74.352C30.7579 74.5964 30.1577 74.7365 29.5285 74.7597C28.9003 74.7828 28.2866 74.6877 27.821 74.5023C27.3378 74.3099 27.1185 74.0672 27.0652 73.8624L26.0974 74.1142ZM25.9571 67.0136L26.0814 73.9972L27.0812 73.9794L26.9569 66.9958L25.9571 67.0136ZM30.7725 72.336C30.7935 72.949 30.2627 73.5307 29.4994 73.5568L29.5336 74.5563C30.7731 74.5137 31.8144 73.5395 31.7719 72.3018L30.7725 72.336ZM29.4187 71.2053C30.182 71.1792 30.7515 71.7231 30.7725 72.336L31.7719 72.3018C31.7295 71.064 30.6239 70.1634 29.3844 70.2059L29.4187 71.2053ZM28.1456 72.4261C28.1245 71.8132 28.6554 71.2315 29.4187 71.2053L29.3844 70.2059C28.145 70.2484 27.1037 71.2227 27.1461 72.4604L28.1456 72.4261ZM29.4994 73.5568C28.736 73.583 28.1666 73.0391 28.1456 72.4261L27.1461 72.4604C27.1886 73.6982 28.2942 74.5988 29.5336 74.5563L29.4994 73.5568Z" fill="black"/>
<path d="M58.8467 44.8498C59.017 41.9756 60.935 39.8898 61.8504 39.7283" stroke="black" stroke-width="2" stroke-linecap="round" stroke-linejoin="round"/>
</svg>
