<svg width="100" height="100" viewBox="0 0 100 100" fill="none" xmlns="http://www.w3.org/2000/svg">
<path d="M37.948 38.6988C37.948 38.6988 24.438 45.5998 24.278 56.5898C24.118 67.5798 29.3379 69.3048 33.5979 73.4708C37.858 77.6358 49.458 76.0668 53.388 74.8088C61.448 72.2228 65.688 58.1608 65.688 58.1608C65.688 58.1608 55.278 43.2508 52.418 41.2138C45.518 36.2998 37.948 38.6988 37.948 38.6988Z" stroke="black" stroke-width="2" stroke-miterlimit="10" stroke-linecap="round" stroke-linejoin="round"/>
<path d="M23.5278 69.9863C24.7578 71.8763 25.7478 73.0243 27.4078 74.3513" stroke="black" stroke-width="2" stroke-miterlimit="10" stroke-linecap="round" stroke-linejoin="round"/>
<path d="M50.3378 64.83C50.3378 64.83 46.4977 63.123 42.6277 65.939C40.4777 67.506 40.7077 70.38 43.8577 70.248C47.0077 70.116 53.0778 68.075 50.3378 64.83Z" fill="black" stroke="black" stroke-width="2" stroke-miterlimit="10" stroke-linecap="round" stroke-linejoin="round"/>
<path d="M63.288 62.5031C63.288 62.5031 61.578 58.3881 58.168 62.4951C56.798 64.1421 60.148 69.0921 60.148 69.0921C60.148 69.0921 61.598 66.9711 62.388 65.3241C63.168 63.6771 63.288 62.5031 63.288 62.5031Z" fill="black" stroke="black" stroke-width="2" stroke-miterlimit="10" stroke-linecap="round" stroke-linejoin="round"/>
<path d="M30.6777 63.5258C30.6777 63.5258 28.1977 58.6368 28.9177 56.9008C29.6377 55.1648 31.7677 54.3998 32.9177 56.3598C34.0677 58.3208 33.3377 66.2508 30.6777 63.5258Z" fill="black" stroke="black" stroke-width="2" stroke-miterlimit="10" stroke-linecap="round" stroke-linejoin="round"/>
<path d="M36.918 39.1776C36.918 39.1776 46.6579 30.6386 55.9979 24.1826C59.6479 21.6606 55.318 33.6456 55.318 33.6456C55.318 33.6456 58.9879 30.5356 63.1479 26.8236C67.2979 23.1126 74.658 19 74.658 19C74.658 19 70.9179 25.6726 69.7279 30.6016C68.5379 35.5306 67.198 38.5146 67.198 38.5146L76.3879 34.0016C76.3879 34.0016 76.4579 40.9836 71.4979 46.9596C67.3579 51.9466 65.698 58.1406 65.698 58.1406C65.698 58.1406 55.7779 42.5966 50.4879 39.9236C42.8479 36.0626 36.918 39.1776 36.918 39.1776Z" fill="black" stroke="black" stroke-width="2" stroke-miterlimit="10" stroke-linecap="round" stroke-linejoin="round"/>
<path d="M40.798 48.3978C40.798 48.3978 38.148 50.6248 39.388 52.3788C40.638 54.1318 44.898 55.6638 46.748 54.2808C48.588 52.8988 47.988 50.0928 46.678 48.9148C45.358 47.7358 41.808 46.6968 40.798 48.3978Z" fill="black" stroke="black" stroke-width="2" stroke-miterlimit="10" stroke-linecap="round" stroke-linejoin="round"/>
<path d="M20.6979 62.9966C16.3679 46.2866 33.1779 35.8166 43.7879 26.5596" stroke="black" stroke-width="2" stroke-miterlimit="10" stroke-linecap="round" stroke-linejoin="round"/>
<path d="M43.5078 80.4355C55.0478 82.8965 61.6678 73.7945 67.5178 65.5125C69.3478 62.9185 71.5578 60.6245 73.2678 57.8965" stroke="black" stroke-width="2" stroke-miterlimit="10" stroke-linecap="round" stroke-linejoin="round"/>
<path d="M76.8579 51.1957C77.8679 49.9307 79.098 48.8257 79.918 47.4277" stroke="black" stroke-width="2" stroke-miterlimit="10" stroke-linecap="round" stroke-linejoin="round"/>
<path d="M50.4775 22.3854C51.6675 21.2254 52.9275 20.2084 54.2175 19.1533" stroke="black" stroke-width="2" stroke-miterlimit="10" stroke-linecap="round" stroke-linejoin="round"/>
</svg>
