<svg width="100" height="100" viewBox="0 0 100 100" fill="none" xmlns="http://www.w3.org/2000/svg">
<path d="M49.7265 48.8245C49.7265 48.8245 50.3364 43.5025 42.1864 41.8175C36.9864 40.7445 31.6764 38.8535 31.6764 38.8535C31.6764 38.8535 31.0564 71.1995 31.6764 71.1935C44.4064 71.0585 49.7964 76.5155 49.7964 76.5155L49.7265 48.8245Z" stroke="black" stroke-width="2" stroke-miterlimit="10" stroke-linecap="round" stroke-linejoin="round"/>
<path d="M45.6365 66.5073C45.6365 66.5073 44.1464 64.6383 43.6964 64.2433C43.2864 63.8803 42.4164 63.3543 41.4264 62.9363C39.6964 62.2133 37.5664 61.6393 36.6064 61.5283" stroke="black" stroke-width="2" stroke-miterlimit="10" stroke-linecap="round" stroke-linejoin="round"/>
<path d="M45.8763 58.8497C44.6563 56.7577 41.9463 56.1247 39.8363 55.4697C39.2363 55.2817 37.6363 54.6718 37.0063 54.5988" stroke="black" stroke-width="2" stroke-miterlimit="10" stroke-linecap="round" stroke-linejoin="round"/>
<path d="M46.3865 51.3233C45.7565 50.9083 44.8564 50.2633 44.1864 49.7233C43.0264 48.7853 41.5264 48.4173 40.1964 47.8363C39.8064 47.6643 36.2964 46.6562 36.2964 46.6562" stroke="black" stroke-width="2" stroke-miterlimit="10" stroke-linecap="round" stroke-linejoin="round"/>
<path d="M49.9263 47.7344C49.9263 47.7344 50.3163 44.2364 53.4463 42.9144C56.5863 41.5924 68.1462 38.6934 68.1462 38.6934C68.1462 38.6934 67.4763 44.6834 67.6263 52.8434C67.7663 60.8744 68.3962 71.2543 68.3962 71.2543C68.3962 71.2543 62.9863 71.0174 58.5463 72.3214C54.1063 73.6254 50.0164 76.5524 50.0164 76.5524L49.9263 47.7344Z" stroke="black" stroke-width="2" stroke-miterlimit="10" stroke-linecap="round" stroke-linejoin="round"/>
<path d="M54.7666 65.8367C54.7666 65.8367 56.4665 63.5767 56.6665 63.4007C58.5865 61.7407 63.6965 61.1677 63.6965 61.1677" stroke="black" stroke-width="2" stroke-miterlimit="10" stroke-linecap="round" stroke-linejoin="round"/>
<path d="M54.416 58.4132C55.996 56.0072 60.5361 54.2052 63.3361 53.6182" stroke="black" stroke-width="2" stroke-miterlimit="10" stroke-linecap="round" stroke-linejoin="round"/>
<path d="M54.0561 51.3833C53.9861 51.3333 55.4462 49.9153 55.5862 49.7503C57.0262 48.1133 59.0762 47.7433 60.9562 46.8343C61.2062 46.7103 63.6561 45.9873 63.6561 45.9873" stroke="black" stroke-width="2" stroke-miterlimit="10" stroke-linecap="round" stroke-linejoin="round"/>
<path d="M71.1764 41.5225C71.2764 39.1685 75.2364 36.7875 76.2864 41.4825C77.3364 46.1775 76.6264 53.1255 76.4664 58.9355C76.3764 62.2745 71.3064 61.9735 71.2264 59.3795C71.0764 54.7115 70.9664 46.2675 71.1764 41.5225Z" stroke="black" stroke-width="2" stroke-miterlimit="10" stroke-linecap="round" stroke-linejoin="round"/>
<path d="M76.7263 42.7607C76.7263 42.7607 81.8862 43.7458 82.1462 48.7948C82.5762 57.3908 76.6763 57.6378 76.6763 57.6378C76.6763 57.6378 76.9364 52.4537 77.0164 49.7247C77.1064 46.9947 76.7263 42.7607 76.7263 42.7607Z" fill="black" stroke="black" stroke-width="2" stroke-miterlimit="10" stroke-linecap="round" stroke-linejoin="round"/>
<path d="M28.1361 40.9058C28.0261 38.5528 24.4261 36.4158 23.3761 41.1108C22.3261 45.8058 23.036 54.0928 23.476 58.8158C23.786 62.1418 27.976 61.7918 28.216 59.0918C28.636 54.4398 28.3361 45.6508 28.1361 40.9058Z" stroke="black" stroke-width="2" stroke-miterlimit="10" stroke-linecap="round" stroke-linejoin="round"/>
<path d="M22.9964 42.3203C22.9964 42.3203 18.1064 44.2983 18.0064 48.9843C17.7864 58.7483 23.3063 58.3823 23.3063 58.3823C23.3063 58.3823 22.9264 54.3113 22.7464 50.9093C22.5764 47.5073 22.9964 42.3203 22.9964 42.3203Z" fill="black" stroke="black" stroke-width="2" stroke-miterlimit="10" stroke-linecap="round" stroke-linejoin="round"/>
<path d="M26.2563 38.3728C26.2563 38.3728 26.1963 20.5218 47.5963 20.0118C70.9663 19.4548 73.1063 38.8288 73.1063 38.8288" stroke="black" stroke-width="2" stroke-miterlimit="10" stroke-linecap="round" stroke-linejoin="round"/>
<path d="M40.8662 21.1322C40.8662 21.1322 41.9462 25.4422 45.3262 24.5552C46.9462 24.1292 48.9362 23.6512 50.4762 23.7462C52.3062 23.8592 54.6862 25.2562 56.1062 25.0042C58.8262 24.5192 58.6461 21.6462 58.6461 21.6462C58.6461 21.6462 54.3662 20.4732 51.2362 20.2852C45.8362 19.9612 40.8662 21.1322 40.8662 21.1322Z" fill="black" stroke="black" stroke-width="2" stroke-miterlimit="10" stroke-linecap="round" stroke-linejoin="round"/>
<path d="M31.7764 71.4068L33.8665 74.1718C33.8665 74.1718 38.4964 74.0328 42.5864 75.5328C46.6664 77.0318 47.8464 79.5918 49.9364 79.7608C52.3564 79.9588 54.2064 77.1718 58.2764 75.5828C62.3364 73.9948 66.4664 73.8158 66.4664 73.8158L68.2964 71.4368C68.2964 71.4368 64.3664 70.8788 59.4164 72.1768C54.5564 73.4488 49.9064 76.7458 49.9064 76.7458C49.9064 76.7458 45.7064 73.3288 41.5664 72.3848C37.4264 71.4418 31.7764 71.4068 31.7764 71.4068Z" fill="black" stroke="black" stroke-width="2" stroke-miterlimit="10" stroke-linecap="round" stroke-linejoin="round"/>
</svg>
