<svg width="100" height="100" viewBox="0 0 100 100" fill="none" xmlns="http://www.w3.org/2000/svg">
<path d="M28.6788 56.5971C30.2722 58.1904 33.1685 58.812 35.0309 58.3277C36.6282 57.9124 36.1626 54.8931 33.3645 54.8931C32.2071 54.8931 30.8209 54.6012 30.0594 53.7127C29.429 52.9773 22.2468 43.192 19.0125 40.3119C18.1125 39.5105 17.0577 39.632 16.5339 39.7853C14.7419 40.3099 13.5843 43.1799 15.8675 48.3203C16.405 49.5304 18.3237 51.1262 19.9097 50.2512C20.6678 49.8329 16.8724 43.4273 17.6691 43.2281C18.4658 43.0289 27.0854 55.0038 28.6788 56.5971Z" stroke="black" stroke-width="2" stroke-linecap="round" stroke-linejoin="round"/>
<path d="M84.7497 48.2768C85.5603 48.7477 86.2082 48.8646 86.8043 48.3347C87.4235 47.7843 87.4793 46.8362 86.9289 46.217C85.7526 44.8937 83.5821 44.0732 82.0662 43.245C79.5554 41.8733 76.2726 40.1528 72.9187 38.4682C69.567 36.7848 66.0665 35.4502 63.2465 34.2119C61.3498 33.379 58.87 32.4943 56.7363 32.4943C54.4749 32.4943 52.412 33.8927 50.6086 35.4922C48.9949 36.9235 47.4139 38.2773 45.9326 39.8513C45.3648 40.4545 45.3936 41.4038 45.9969 41.9716C46.6002 42.5394 48.6703 42.5749 49.238 41.9716C50.6602 40.4605 51.0521 39.1089 52.5993 37.7366C55.3304 35.3142 56.7353 35.4943 56.7353 35.4943C58.4371 35.5544 60.7511 36.058 62.258 36.7197C65.0113 37.9288 68.2428 39.4768 71.5722 41.1491" stroke="black" stroke-width="2" stroke-linecap="round" stroke-linejoin="round"/>
<path d="M59.0726 50.9445C57.2311 46.8255 50.8544 45.8165 46.9842 46.3135C44.0615 46.6889 39.9202 47.8805 37.8097 48.8015C34.6971 50.1598 33.5537 51.4315 33.2334 54.6312M33.4015 58.6217C34.1734 64.9574 36.1924 69.6674 42.9412 68.4723C48.3251 67.519 50.7454 65.7971 54.4483 62.0191C56.7402 59.6807 59.1286 56.8695 59.3797 54.338" stroke="black" stroke-width="2" stroke-linecap="round" stroke-linejoin="round"/>
<path d="M63.834 50.2139C64.0767 47.8321 65.2335 46.0259 67.0777 44.6713C68.8765 43.3502 71.6297 41.908 73.2959 41.3308C80.603 38.5014 83.3572 41.554 84.2213 44.6713C85.0555 47.6807 83.715 52.3418 83.1171 54.1157C82.1072 57.1123 79.4249 60.5605 75.911 62.0192C73.1245 63.1759 69.8411 62.345 66.5547 57.9512C65.2798 56.2467 64.688 54.9642 64.2732 53.5726" stroke="black" stroke-width="2" stroke-linecap="round" stroke-linejoin="round"/>
<path fill-rule="evenodd" clip-rule="evenodd" d="M66.3193 50.7789C66.6487 51.3185 66.4371 52.1987 65.9454 52.5584C65.3968 52.9596 64.1976 53.3908 62.9559 53.6696C61.6767 53.9568 60.1444 54.1691 58.2022 54.1065C57.6106 54.0875 56.9966 53.3488 57.0126 52.7007C57.0287 52.0525 57.6105 51.3034 58.2021 51.3224C59.9827 51.3798 61.4675 51.2024 62.5809 50.9524C63.7317 50.694 64.3954 50.3786 64.5994 50.2294C65.0911 49.8698 65.9899 50.2393 66.3193 50.7789Z" stroke="black" stroke-width="2" stroke-linecap="round" stroke-linejoin="round"/>
<path fill-rule="evenodd" clip-rule="evenodd" d="M33.4819 58.4024C36.6161 58.6115 36.6161 56.7308 33.4819 54.7111C34.5963 48.2337 40.6557 47.4678 46.0186 46.841C51.3814 46.2141 58.8338 47.9553 58.8338 50.8802C57.4408 51.0195 55.1424 53.736 59.3213 53.736C59.8553 55.2915 58.6945 59.7954 49.7795 65.3672C38.6359 72.3319 35.4321 69.1978 33.4819 58.4024ZM42.9471 52.2615C43.4188 52.5487 43.5685 53.1639 43.2813 53.6357C42.5275 54.874 40.998 56.733 40.3471 57.4888C39.9867 57.9073 39.3553 57.9544 38.9368 57.5941C38.5183 57.2337 38.4712 56.6023 38.8316 56.1838C39.484 55.4261 40.914 53.6782 41.5729 52.5958C41.8601 52.124 42.4753 51.9744 42.9471 52.2615ZM50.8496 51.9598C51.1863 51.5221 51.1044 50.8942 50.6667 50.5575C50.2289 50.2207 49.6011 50.3026 49.2643 50.7404C48.5645 51.6502 46.9124 53.3034 45.0659 55.0505C43.2422 56.7759 41.2963 58.5304 40.0629 59.6174C39.6486 59.9826 39.6087 60.6145 39.9739 61.0289C40.3391 61.4432 40.971 61.483 41.3853 61.1179C42.6323 60.0188 44.5961 58.2482 46.4404 56.5033C48.2619 54.78 50.036 53.0175 50.8496 51.9598Z" fill="black"/>
<path fill-rule="evenodd" clip-rule="evenodd" d="M73.1528 41.7955C70.1753 42.5763 64.4644 46.5792 64.0251 50.0936C66.9049 49.2639 67.8812 51.6067 64.0251 52.8757C62.8537 54.6818 73.1527 71.9123 82.1828 55.1211C89.7516 37.4289 76.4659 40.9239 73.268 41.7652L73.1528 41.7955ZM72.9311 45.924C73.4183 46.1841 73.6025 46.7899 73.3424 47.2771C72.8338 48.2299 71.786 49.6596 71.3443 50.2354C71.0081 50.6736 70.3804 50.7563 69.9422 50.4201C69.504 50.0839 69.4213 49.4562 69.7575 49.018C70.2007 48.4403 71.1554 47.1271 71.578 46.3353C71.8381 45.8481 72.4439 45.6639 72.9311 45.924ZM78.6867 46.148C78.9259 45.6502 78.7163 45.0528 78.2185 44.8136C77.7207 44.5744 77.1232 44.784 76.884 45.2818C76.5331 46.012 75.6179 47.4196 74.5624 48.945C73.5247 50.4446 72.4041 51.9837 71.6904 52.9411C71.3603 53.3839 71.4516 54.0105 71.8944 54.3405C72.3372 54.6706 72.9638 54.5793 73.2938 54.1365C74.0184 53.1645 75.1532 51.606 76.207 50.0831C77.2429 48.586 78.2551 47.0464 78.6867 46.148Z" fill="black"/>
</svg>
