<svg width="100" height="100" viewBox="0 0 100 100" fill="none" xmlns="http://www.w3.org/2000/svg">
<path d="M25.8588 58.922C32.0988 62.373 41.5488 58.601 45.6088 53.468C50.2188 47.644 51.0288 43.218 50.2688 39.587C49.3388 35.222 36.1088 26.941 26.2288 35.088C15.5388 43.91 22.4788 57.051 25.8588 58.922Z" stroke="black" stroke-width="2" stroke-miterlimit="10" stroke-linecap="round" stroke-linejoin="round"/>
<path d="M26.9387 51.0529C25.5787 48.3459 26.0887 45.2549 26.9987 42.5129" stroke="black" stroke-width="2" stroke-miterlimit="10" stroke-linecap="round" stroke-linejoin="round"/>
<path d="M39.3589 36.7725C40.1489 36.8445 41.2889 37.5025 41.9489 37.9095" stroke="black" stroke-width="2" stroke-miterlimit="10" stroke-linecap="round" stroke-linejoin="round"/>
<path d="M20.3387 48.3809C20.3387 48.3809 6.40875 69.1899 28.4687 70.8759C50.5187 72.5619 56.9988 58.5039 59.6288 53.9449C63.4188 47.3609 61.0288 42.1379 73.3888 34.6539C81.2388 29.8959 84.9188 17.5579 71.3688 19.1389C63.2988 20.0809 59.7688 30.1439 41.5988 32.5419" stroke="black" stroke-width="2" stroke-miterlimit="10" stroke-linecap="round" stroke-linejoin="round"/>
<path d="M16.3887 63.8026C16.3887 63.8026 22.6787 87.5696 48.1287 79.5986C64.1487 74.5836 64.8886 52.0386 72.0586 44.7806C78.7286 38.0296 88.1986 30.0336 79.5886 21.1416" stroke="black" stroke-width="2" stroke-miterlimit="10" stroke-linecap="round" stroke-linejoin="round"/>
<path d="M43.9087 80.7252C43.9087 80.7252 72.5188 76.0871 71.6188 72.0421C70.7188 67.9971 60.7688 69.2832 60.7688 69.2832C60.7688 69.2832 57.4388 74.3142 53.4688 77.0202C49.4987 79.7262 43.9087 80.7252 43.9087 80.7252Z" fill="black" stroke="black" stroke-width="2" stroke-miterlimit="10" stroke-linecap="round" stroke-linejoin="round"/>
<path d="M24.9487 58.2413C35.4087 67.5693 47.7787 54.3543 49.6687 46.5723" stroke="black" stroke-width="2" stroke-miterlimit="10" stroke-linecap="round" stroke-linejoin="round"/>
</svg>
