<svg width="100" height="100" viewBox="0 0 100 100" fill="none" xmlns="http://www.w3.org/2000/svg">
<path fill-rule="evenodd" clip-rule="evenodd" d="M42.4134 78.2722C46.4851 78.6569 55.3597 79.1955 58.2838 78.2722C61.4715 77.2656 67.3659 74.2105 68.6936 71.8506C75.4434 72.0039 81.3017 72.6899 78.2183 75.7608C77.8127 76.0382 77.4341 76.3401 77.0401 76.6543C74.1681 78.9442 70.483 81.8825 49.6644 80.6924C46.4963 80.6924 27.5772 78.6706 25.1304 78.2484C23.3252 77.9369 27.4046 77.8102 32.5514 77.6503C33.5723 77.6186 34.6353 77.5856 35.7027 77.5495L42.4134 78.2722Z" fill="black"/>
<path d="M47.6709 62.8457C48.0948 63.9684 48.5893 66.2139 47.1764 66.8083C46.046 67.2706 44.5624 66.7423 43.9265 66.0158C43.2201 65.2233 43.2907 64.2987 43.1494 63.6382M47.6709 62.8457C47.7416 62.8457 47.6003 62.9778 47.6709 62.8457Z" stroke="black" stroke-width="2" stroke-miterlimit="10"/>
<path d="M28.838 62.6025C29.0372 63.4233 29.5115 65.2852 29.1797 66.0513C28.8478 66.8174 27.7857 67.4741 26.8565 67.1457C26.2591 66.9269 25.9272 66.4891 25.6617 65.9966C25.1307 65.0663 24.7988 64.3003 24.666 63.3153" stroke="black" stroke-width="2" stroke-miterlimit="10"/>
<path d="M71.4087 48.9492C71.4087 49.4188 71.4589 49.8413 71.1576 50.17C71.1073 50.217 70.806 50.5456 70.3539 50.5456C70.0023 50.5456 69.0222 49.4103 68.6964 50.7713C68.3707 52.1323 69.1898 70.844 68.6964 71.5172C68.0737 73.1865 66.7288 74.4969 65.0713 75.436C63.012 76.6098 60.3869 77.4297 57.6701 78.2861" stroke="black" stroke-width="2" stroke-miterlimit="10"/>
<path d="M36.8525 24.627C39.8662 24.8148 45.0898 24.8148 48.0532 25.2373" stroke="black" stroke-width="2" stroke-miterlimit="10"/>
<path d="M57.6431 28.0377C57.6011 27.2395 57.5371 26.5084 57.7882 25.7958C58.0828 25.1385 58.104 25.0643 58.6512 24.6418C60.1242 23.5149 61.9361 23.1076 63.5775 23.9997C64.5876 24.5162 66.2374 27.2056 66.4058 28.6143" stroke="black" stroke-width="2" stroke-miterlimit="10"/>
<path d="M26.3052 28.0547C26.6065 21.669 27.2093 22.702 30.0722 21.0117C32.9352 19.3214 36.3507 19.0866 39.7159 19.0397C45.1405 18.9457 50.6153 19.1805 56.0398 19.744C60.8617 20.2604 64.5239 20.4552 67.5097 23.9228C68.9463 25.2222 69.9227 30.932 69.9227 30.932C69.9227 30.932 72.2228 46.3196 72.1726 48.949C72.1726 49.5125 71.309 50.3576 70.7565 50.4985C70.0533 50.6863 68.958 51.1326 68.958 51.1326C68.0539 44.7469 67.7428 37.3177 66.8388 30.932C66.6378 29.6643 66.4872 28.3496 65.784 27.2227C64.7794 25.5794 62.7201 23.5941 60.8115 23.9228C58.9028 24.2515 57.5651 25.0973 57.1633 26.412" stroke="black" stroke-width="2" stroke-miterlimit="10"/>
<path d="M59.1035 67.0259C58.0487 53.9259 58.9026 40.7789 57.5967 26.9746" stroke="black" stroke-width="2" stroke-miterlimit="10"/>
<path d="M23.7933 63.2227C23.7933 70.7352 23.0399 74.5385 23.291 75.8062C23.3915 76.3227 23.7804 77.3186 26.0497 77.4824C28.6879 77.6728 27.259 77.5435 30.6744 77.8252C30.6744 77.8252 44.0215 78.725 51.3372 78.725C53.7648 78.725 58.7503 78.7486 58.9953 77.2618C59.2404 75.7749 59.0974 68.8563 58.9953 66.5689" stroke="black" stroke-width="2" stroke-miterlimit="10"/>
<path d="M48.0475 63.4111C48.5485 63.1294 50.8259 61.1104 51.3269 60.3122C52.3744 58.5749 51.9645 56.0864 51.8734 55.3821C51.3269 50.5459 50.8714 42.4699 51.3269 36.6946C51.8279 30.6845 54.3329 27.7174 57.0657 27.5296C57.339 27.5296 57.0449 26.666 57.2271 26.9568L58.2499 25.041L52.1923 28.4308C52.1923 28.4308 48.1842 29.1351 48.1386 38.8545C48.0931 45.5218 48.6396 52.2362 48.9585 55.7577C49.1406 57.495 48.8674 59.1853 48.1842 60.7817L47.501 62.3312L48.0475 63.4111Z" fill="black"/>
<path d="M46.6968 63.0817C47.2493 62.8 49.3588 61.1096 49.9616 60.2645C51.1168 58.5272 50.6647 56.0387 50.5643 55.3344C49.9113 50.5451 49.4091 42.4691 49.9616 36.6938C50.5141 30.6838 53.2766 27.8666 56.2902 27.6788C56.5916 27.6788 57.4957 27.7257 57.6966 27.7727L57.4957 25.8945C56.3907 25.8945 54.8336 26.0823 53.4272 26.9745C51.5688 28.1013 50.2629 30.1203 49.4593 35.8017C48.7561 40.7788 48.0027 45.8028 49.3086 52.2824C49.7606 54.677 50.6145 57.729 48.9068 60.6871C48.2036 61.8139 47.3497 62.6121 46.6968 63.0817Z" fill="black"/>
<path d="M40.77 24.8145C39.5646 25.5188 37.7564 26.7395 36.4505 28.8055C35.4459 30.4489 32.523 32.4414 31.9246 41.8456C31.1901 53.3867 33.0864 60.8943 30.6743 62.2364C30.2223 62.659 28.3639 63.1754 27.3091 63.598C30.8752 61.579 29.1173 58.0575 29.1173 55.2403C29.1173 52.564 29.3182 50.3571 30.9255 40.403C32.0807 33.5478 32.5327 31.1062 33.6377 29.3689C34.0395 28.7585 34.4414 28.336 34.5418 28.2421C36.5509 26.0352 39.1627 25.1431 40.77 24.8145Z" fill="black"/>
<path d="M38.1081 24.7676L40.3181 24.8615C40.1172 24.8615 38.6606 25.1432 36.1994 27.0213C33.8387 28.8056 31.3776 35.5669 30.8251 41.5769C30.2726 47.3522 29.8206 52.564 30.8251 56.5551C30.9758 57.2124 31.5785 59.3723 30.4233 61.1096C29.8708 61.9547 29.0671 62.4243 28.5146 62.706C28.5146 62.706 30.1219 59.9827 29.6197 56.1325C29.1174 52.2823 28.4644 44.488 30.1722 36.5529C31.8799 28.8056 33.889 27.0213 38.1081 24.7676Z" fill="black"/>
<path d="M54.3818 26.2702C50.6148 28.1013 49.2587 32.8436 48.9071 36.7877C48.455 42.2343 48.5555 47.7279 49.2084 53.1276C49.4093 54.9118 49.7107 56.743 49.4596 58.5272C49.2084 60.3114 48.3043 62.0957 46.6468 63.0817C44.9893 64.0677 42.5784 63.8799 41.4232 62.4243C40.9209 61.8139 40.72 61.0157 40.5191 60.2175C38.5602 52.2354 38.3593 43.8777 39.9666 35.8487C40.6698 32.4211 41.7748 28.8526 44.4871 26.5049C47.1993 24.1573 50.7232 25.7015 55.3943 26.3589" stroke="black" stroke-width="2" stroke-miterlimit="10"/>
<path d="M54.4326 26.224C55.3869 26.5996 57.5969 26.0361 58.2499 24.8623" stroke="black" stroke-width="2" stroke-miterlimit="10"/>
<path d="M37.4554 24.6742C34.1404 26.2237 31.8299 29.8391 30.7752 33.2667C29.7204 36.6943 28.6937 40.2304 28.5149 44.6573C28.5149 49.3057 28.6656 53.3158 29.4693 58.0112C29.7706 59.7015 29.7706 61.4388 28.5149 62.6126C26.757 64.3499 22.789 63.8334 21.9352 61.5797C21.1817 59.5137 21.2191 56.9043 21.2191 54.4627C21.2191 47.4666 21.3827 40.6384 23.5927 33.971C24.2456 31.999 25.7022 28.0079 28.314 25.895C29.6199 24.7681 33.0354 24.2986 37.4554 24.6742Z" stroke="black" stroke-width="2" stroke-miterlimit="10"/>
</svg>
