<svg width="100" height="100" viewBox="0 0 100 100" fill="none" xmlns="http://www.w3.org/2000/svg">
<path d="M29.0952 59.5139C30.9092 52.0079 36.1512 49.6259 41.2132 44.2699C46.2752 38.9129 55.3842 28.2149 61.8972 31.3979C68.4092 34.5809 75.0042 43.1769 67.5522 49.3489C60.1002 55.5199 57.7592 55.1159 53.3142 61.0049C48.8692 66.8939 48.1032 73.2169 38.5132 71.2489C33.7122 70.2629 27.2812 67.0209 29.0952 59.5139Z" stroke="black" stroke-width="2" stroke-miterlimit="10" stroke-linejoin="round"/>
<path d="M47.4449 76.0226C52.0509 73.0006 53.2709 70.3626 57.8449 64.0656C62.4189 57.7686 71.3829 55.3306 75.1189 49.5536C78.8549 43.7776 75.501 36.0566 71.227 31.6766C67.254 27.6066 56.8859 21.3385 48.5149 29.3516C45.8249 31.9266 40.8919 38.3466 37.6159 41.7876C30.6979 49.0556 24.3069 54.4106 23.5639 59.6316C23.0139 63.4976 23.6889 67.7806 29.0599 72.0886C34.4299 76.3976 43.7179 78.4686 47.4449 76.0226Z" stroke="black" stroke-width="2" stroke-miterlimit="10" stroke-linejoin="round"/>
<path d="M47.1479 61.065C47.4529 59.541 48.863 58.208 49.104 57.001" stroke="black" stroke-width="2" stroke-miterlimit="10" stroke-linecap="round" stroke-linejoin="round"/>
<path d="M34.9289 61.1717C33.4419 57.0627 39.9769 52.4677 42.4769 56.9037C43.8259 59.2967 43.0449 62.8917 41.1239 63.8947C37.5179 65.7777 35.7269 63.3797 34.9289 61.1717Z" fill="black" stroke="black" stroke-width="2" stroke-miterlimit="10" stroke-linejoin="round"/>
<path d="M41.9131 50.1685C42.2961 48.2565 45.0301 50.9645 45.7791 50.9125C46.5161 50.8615 46.5871 50.1515 47.0031 49.7795" stroke="black" stroke-width="2" stroke-miterlimit="10" stroke-linecap="round" stroke-linejoin="round"/>
<path d="M60.2599 48.5641C60.0489 49.6221 57.0869 49.3331 57.3629 47.9551" stroke="black" stroke-width="2" stroke-miterlimit="10" stroke-linecap="round" stroke-linejoin="round"/>
<path d="M52.2119 40.2998C52.4059 41.0108 52.5469 43.1688 52.3979 43.9128" stroke="black" stroke-width="2" stroke-miterlimit="10" stroke-linecap="round" stroke-linejoin="round"/>
<path d="M56.8788 42.682C55.3918 38.572 60.6548 34.243 63.1548 38.679C63.9108 40.02 64.1208 41.332 63.5418 42.409C62.2068 44.892 58.0878 46.025 56.8788 42.682Z" fill="black" stroke="black" stroke-width="2" stroke-miterlimit="10" stroke-linejoin="round"/>
<path d="M37.8359 78.9357C38.2289 78.3617 38.3759 77.6187 38.4719 76.9307" stroke="black" stroke-width="2" stroke-miterlimit="10" stroke-linecap="round" stroke-linejoin="round"/>
<path d="M50.1042 77.5819C49.9222 77.0439 49.7922 76.4939 49.6112 75.9579C49.5642 75.8199 49.2302 75.1619 49.3242 75.4399" stroke="black" stroke-width="2" stroke-miterlimit="10" stroke-linecap="round" stroke-linejoin="round"/>
<path d="M26.7871 74.0597C27.2831 73.8917 28.3331 73.2107 28.6411 72.7607" stroke="black" stroke-width="2" stroke-miterlimit="10" stroke-linecap="round" stroke-linejoin="round"/>
<path d="M58.2749 68.6624C57.9399 67.6734 57.4999 66.7864 57.1719 65.8184" stroke="black" stroke-width="2" stroke-miterlimit="10" stroke-linecap="round" stroke-linejoin="round"/>
<path d="M20 64.749C21.158 64.909 22.275 64.824 23.377 64.976" stroke="black" stroke-width="2" stroke-miterlimit="10" stroke-linecap="round" stroke-linejoin="round"/>
<path d="M66.9021 60.7634C66.6331 59.9694 65.1311 58.8694 65.2471 58.0234" stroke="black" stroke-width="2" stroke-miterlimit="10" stroke-linecap="round" stroke-linejoin="round"/>
<path d="M22.8161 52.1587C22.6851 52.0687 23.4071 52.5927 23.5651 52.8007C24.0001 53.3767 24.6791 54.1757 25.2911 54.5947" stroke="black" stroke-width="2" stroke-miterlimit="10" stroke-linecap="round" stroke-linejoin="round"/>
<path d="M76.764 53.4544C75.958 53.3434 74.647 52.1634 73.958 51.6914" stroke="black" stroke-width="2" stroke-miterlimit="10" stroke-linecap="round" stroke-linejoin="round"/>
<path d="M28.6221 44.7676C29.2221 45.5596 31.1221 48.3116 30.9831 48.0246" stroke="black" stroke-width="2" stroke-miterlimit="10" stroke-linecap="round" stroke-linejoin="round"/>
<path d="M80.4061 43.5517C79.3761 43.4087 78.3411 43.4457 77.3291 43.3057" stroke="black" stroke-width="2" stroke-miterlimit="10" stroke-linecap="round" stroke-linejoin="round"/>
<path d="M35.459 37.2799C35.861 37.1439 36.747 39.5789 37.089 40.1969C37.251 40.4879 37.814 41.6399 37.69 41.4759" stroke="black" stroke-width="2" stroke-miterlimit="10" stroke-linecap="round" stroke-linejoin="round"/>
<path d="M76.7802 33.0029C76.6272 33.0769 74.2372 34.6629 74.1812 34.4979" stroke="black" stroke-width="2" stroke-miterlimit="10" stroke-linecap="round" stroke-linejoin="round"/>
<path d="M40.5498 31.165C40.9508 31.994 42.0498 32.868 42.8808 33.341C43.0918 33.462 43.7808 34.156 43.5968 34.218" stroke="black" stroke-width="2" stroke-miterlimit="10" stroke-linecap="round" stroke-linejoin="round"/>
<path d="M69.8242 25.3428C69.2472 25.9938 68.7342 26.6728 68.4512 27.4858C68.3542 27.7658 67.7702 28.6668 68.0442 28.2668" stroke="black" stroke-width="2" stroke-miterlimit="10" stroke-linecap="round" stroke-linejoin="round"/>
<path d="M48.4971 24.7275C49.0881 25.5075 49.2881 26.9815 49.6101 27.9315" stroke="black" stroke-width="2" stroke-miterlimit="10" stroke-linecap="round" stroke-linejoin="round"/>
<path d="M58.6232 22C58.7512 22.6831 58.5062 23.7166 58.4082 24.4226C58.3802 24.6286 58.3672 25.5846 58.4202 25.2016" stroke="black" stroke-width="2" stroke-miterlimit="10" stroke-linecap="round" stroke-linejoin="round"/>
</svg>
