<svg width="100" height="100" viewBox="0 0 100 100" fill="none" xmlns="http://www.w3.org/2000/svg">
<path d="M15.9379 47.0377C16.6069 46.1179 29.9707 37.3155 37.0088 32.8208C38.153 32.0891 40.4755 32.152 43.6989 32.8208C45.9645 33.2909 78.6542 41.6023 81.7901 42.4385C84.9259 43.2747 84.6123 44.8426 83.6715 45.6788C82.7308 46.515 66.8427 61.567 64.2295 61.8806C61.6163 62.1941 24.1955 51.0097 20.2235 49.8599C16.2515 48.7101 15.1017 48.1875 15.9379 47.0377Z" stroke="black" stroke-width="2"/>
<path d="M17.0645 49.0333C17.4991 50.9543 18.5396 54.7468 19.5824 55.0761C20.8858 55.4877 59.7016 68.2313 62.4927 67.5627C65.2837 66.8941 82.0456 51.7145 82.4573 50.6854C82.7866 49.8621 83.0519 47.4151 83.1434 46.2946" stroke="black" stroke-width="2"/>
<path d="M21.9248 50.2926C26.9524 46.8361 36.379 40.1331 38.9668 39.4863C40.538 39.0936 78.5647 49.7427 79.2717 49.7427" stroke="black" stroke-width="2"/>
<path d="M19.129 54.9381L17.437 49.2469L24.8201 51.0927L63.889 62.0904L65.504 61.2444L82.7312 46.5552V51.0927L69.7339 62.6288L62.197 67.7047L56.2751 66.3203L19.129 54.9381Z" fill="black"/>
<path d="M38.5215 32.7058L38.8397 39.3247" stroke="black" stroke-width="2"/>
</svg>
