<svg width="100" height="100" viewBox="0 0 100 100" fill="none" xmlns="http://www.w3.org/2000/svg">
<path d="M23.3747 35.7481C30.0916 21.0591 49.7696 16.2432 64.1036 23.0072C74.4206 27.8772 85.9286 45.6931 77.7276 61.8861C68.9326 79.2511 52.1096 84.2441 37.8356 78.4221C24.1647 72.8451 14.606 54.9241 23.3747 35.7481Z" stroke="black" stroke-width="2" stroke-miterlimit="10" stroke-linejoin="round"/>
<path d="M26.1074 31.1572C26.1074 31.1572 25.1667 32.4852 24.7857 33.7822C23.4882 38.2012 20.371 56.1593 37.4855 54.9373C48.3485 54.1613 53.2285 45.0542 64.2515 45.0342C73.6035 45.0172 81.0085 56.3763 76.1175 64.8463C73.0925 70.0853 62.1385 83.5722 43.8265 80.1902C26.8441 77.0532 20.7792 62.2122 20.1076 53.0032C19.1615 40.0302 26.1074 31.1572 26.1074 31.1572Z" stroke="black" stroke-width="2" stroke-miterlimit="10" stroke-linejoin="round"/>
<path d="M33.4095 37.7011C35.3355 32.5531 44.9955 35.0901 42.5705 41.4281C40.1455 47.7661 30.6235 45.1461 33.4095 37.7011Z" fill="black"/>
<path fill-rule="evenodd" clip-rule="evenodd" d="M24.7857 33.7822C25.1667 32.4852 26.1074 31.1572 26.1074 31.1572C26.1074 31.1572 19.1615 40.0302 20.1076 53.0032C20.7792 62.2122 26.8441 77.0532 43.8265 80.1902C62.1385 83.5722 73.0925 70.0853 76.1175 64.8463C81.0085 56.3763 73.6035 45.0172 64.2515 45.0342C58.5499 45.0446 54.4919 47.4861 50.3993 49.9483C46.5795 52.2464 42.7297 54.5626 37.4855 54.9373C20.371 56.1593 23.4882 38.2012 24.7857 33.7822ZM60.1046 56.7577C62.0306 51.6097 71.6906 54.1467 69.2656 60.4847C66.8406 66.8227 57.3186 64.2027 60.1046 56.7577Z" fill="black"/>
</svg>
