<svg width="100" height="100" viewBox="0 0 100 100" fill="none" xmlns="http://www.w3.org/2000/svg">
<path d="M49.8883 20.7411C44.2883 20.7551 35.2283 20.962 37.2583 19.327C38.6983 18.157 46.7582 18.4001 50.0682 18.0581C53.5582 17.6971 63.9183 19.11 60.9383 19.794C57.9683 20.478 55.4883 20.7271 49.8883 20.7411Z" fill="black" stroke="black" stroke-width="2" stroke-miterlimit="10" stroke-linecap="round" stroke-linejoin="round"/>
<path d="M36.9482 19.8578C36.9482 19.8578 39.2682 24.9458 39.5182 30.4648C39.7582 35.9848 38.0982 49.8458 38.0982 49.8458C38.0982 49.8458 39.1783 55.2298 39.8383 61.8188C40.5783 69.1778 37.8782 78.6038 37.6282 79.6918C37.3982 80.7198 41.8182 82.8438 49.5782 82.8878C58.4582 82.9388 61.2082 81.4108 61.3182 79.8498C61.3982 78.7388 58.2982 73.3208 59.4882 64.4438C60.6782 55.5668 61.5383 52.6408 61.9283 49.7758C62.3683 46.4708 59.2682 36.8088 59.7282 30.0268C60.0982 24.7028 61.4882 19.6758 61.4882 19.6758" stroke="black" stroke-width="2" stroke-miterlimit="10" stroke-linecap="round" stroke-linejoin="round"/>
<path d="M55.3779 75.0527C55.5479 75.6577 55.6479 76.5507 55.6079 77.1957" stroke="black" stroke-width="2" stroke-miterlimit="10" stroke-linecap="round" stroke-linejoin="round"/>
<path d="M55.7585 55.9814C54.9085 60.3384 53.7585 66.0034 54.9685 70.3354" stroke="black" stroke-width="2" stroke-miterlimit="10" stroke-linecap="round" stroke-linejoin="round"/>
<path d="M39.8782 64.8076C37.5382 60.6306 33.9582 56.6865 30.2682 55.9685C26.3382 55.2065 23.1683 56.5596 23.0023 56.8996C22.9353 57.0356 24.3332 60.4075 30.8782 61.3305C35.2582 61.9475 36.6782 60.3965 36.4482 60.2395" fill="black"/>
<path d="M39.8782 64.8076C37.5382 60.6306 33.9582 56.6865 30.2682 55.9685C26.3382 55.2065 23.1683 56.5596 23.0023 56.8996C22.9353 57.0356 24.3332 60.4075 30.8782 61.3305C35.2582 61.9475 36.6782 60.3965 36.4482 60.2395" stroke="black" stroke-width="2" stroke-miterlimit="10" stroke-linecap="round" stroke-linejoin="round"/>
<path d="M38.2983 50.0477C38.2983 50.0477 42.0484 50.9347 44.4484 50.9587C48.9284 51.0037 51.7084 51.3216 55.5584 51.0096C57.3584 50.8626 60.1283 50.2236 61.8483 49.5566" stroke="black" stroke-width="2" stroke-miterlimit="10" stroke-linecap="round" stroke-linejoin="round"/>
<path d="M35.3684 58.8631C32.8684 55.8611 30.5484 53.979 29.0984 49.961C27.3284 45.084 29.6684 42.844 29.9384 42.638C30.3084 42.359 32.9984 44.204 34.2584 47.471C34.8984 49.111 35.4084 51.517 35.1584 53.372C35.0684 54.084 34.2084 57.4171 34.2484 57.0971" stroke="black" stroke-width="2" stroke-miterlimit="10" stroke-linecap="round" stroke-linejoin="round"/>
<path d="M60.8779 40.0908C63.4379 36.3318 68.8579 34.1428 71.1079 30.0278C72.2279 27.9798 73.158 25.1168 72.778 24.0048C72.708 23.7958 68.8879 23.1588 66.3879 26.2828C64.3179 28.8678 61.428 33.8268 62.668 37.4568" stroke="black" stroke-width="2" stroke-miterlimit="10" stroke-linecap="round" stroke-linejoin="round"/>
<path d="M63.1183 37.916C65.6783 37.402 68.1983 36.2479 70.9783 37.0339C73.3383 37.7029 78.9383 40.6309 74.4983 42.1479C72.4583 42.8469 70.6383 42.9419 66.8483 41.7189C63.9583 40.7849 62.8183 37.975 63.1183 37.916Z" fill="black" stroke="black" stroke-width="2" stroke-miterlimit="10" stroke-linecap="round" stroke-linejoin="round"/>
<path d="M55.8583 46.0159C55.6283 46.0159 55.0382 42.232 54.9682 41.79C54.1482 36.859 54.2383 32.4619 54.2383 27.5029" stroke="black" stroke-width="2" stroke-miterlimit="10" stroke-linecap="round" stroke-linejoin="round"/>
</svg>
