<svg width="100" height="100" viewBox="0 0 100 100" fill="none" xmlns="http://www.w3.org/2000/svg">
<path d="M35.7366 49.4941C35.7366 49.4941 23.3307 60.8041 20.3257 64.1041C17.3197 67.4041 16.6956 69.1942 21.6786 74.2542C26.6606 79.3042 29.7767 84.0441 36.2397 77.9941C42.7027 71.9541 49.4626 65.1442 49.4626 65.1442" stroke="black" stroke-width="2" stroke-miterlimit="10" stroke-linejoin="round"/>
<path d="M51.2076 33.9634C51.2076 33.9634 66.0016 18.7575 70.6996 19.1025C75.3966 19.4485 81.8706 28.0735 82.8456 31.8735C83.8196 35.6735 79.6816 38.5235 75.2416 42.1235C70.8016 45.7335 65.7147 50.1734 65.7147 50.1734" stroke="black" stroke-width="2" stroke-miterlimit="10" stroke-linejoin="round"/>
<path d="M27.8377 41.1436C27.8377 41.1436 22.0157 35.5136 20.8397 32.2036C19.6637 28.8936 25.3618 22.4007 28.2058 20.3747C31.0498 18.3497 36.3507 15.4026 42.4237 22.4326C48.4977 29.4636 64.4468 49.1236 69.3258 54.4536C74.2048 59.7836 85.4177 67.1337 79.7237 72.7437C75.8927 76.5137 68.4997 85.2137 62.0957 78.2237C55.6927 71.2237 42.6207 57.5836 42.6207 57.5836L27.8377 41.1436Z" stroke="black" stroke-width="2" stroke-miterlimit="10" stroke-linejoin="round"/>
<path d="M41.2637 46.6736C43.6297 49.7236 45.4797 51.5836 47.9567 54.2736C52.0667 58.7436 54.8127 62.5435 57.7247 59.9435C60.6377 57.3435 65.1477 55.9936 58.3887 48.8436C54.9057 45.1536 49.7156 36.9036 46.1366 38.1336C43.3896 39.0736 38.5007 43.1036 41.2637 46.6736Z" stroke="black" stroke-width="2" stroke-miterlimit="10" stroke-linejoin="round"/>
<path d="M66.8686 73.0137C66.8136 73.1237 66.8306 73.0636 66.8306 73.2036" stroke="black" stroke-width="2" stroke-miterlimit="10" stroke-linecap="round" stroke-linejoin="round"/>
<path d="M30.4776 72.6836C30.4226 72.7936 30.4396 72.7337 30.4396 72.8737" stroke="black" stroke-width="2" stroke-miterlimit="10" stroke-linecap="round" stroke-linejoin="round"/>
<path d="M35.9966 68.8037C35.9416 68.9237 35.9587 68.8538 35.9587 69.0038" stroke="black" stroke-width="2" stroke-miterlimit="10" stroke-linecap="round" stroke-linejoin="round"/>
<path d="M72.5517 68.5332C72.4967 68.6432 72.5137 68.5831 72.5137 68.7231" stroke="black" stroke-width="2" stroke-miterlimit="10" stroke-linecap="round" stroke-linejoin="round"/>
<path d="M26.0517 67.334C25.9967 67.444 26.0137 67.384 26.0137 67.524" stroke="black" stroke-width="2" stroke-miterlimit="10" stroke-linecap="round" stroke-linejoin="round"/>
<path d="M62.0056 67.1133C61.9506 67.2233 61.9676 67.1632 61.9676 67.3032" stroke="black" stroke-width="2" stroke-miterlimit="10" stroke-linecap="round" stroke-linejoin="round"/>
<path d="M31.3517 63.2939C31.2967 63.4039 31.3136 63.3339 31.3136 63.4839" stroke="black" stroke-width="2" stroke-miterlimit="10" stroke-linecap="round" stroke-linejoin="round"/>
<path d="M67.8526 62.6338C67.7976 62.7438 67.8146 62.6837 67.8146 62.8237" stroke="black" stroke-width="2" stroke-miterlimit="10" stroke-linecap="round" stroke-linejoin="round"/>
<path d="M66.5956 38.6436C66.5406 38.7536 66.5577 38.6936 66.5577 38.8336" stroke="black" stroke-width="2" stroke-miterlimit="10" stroke-linecap="round" stroke-linejoin="round"/>
<path d="M34.4116 37.1738C34.3566 37.2838 34.3736 37.2138 34.3736 37.3638" stroke="black" stroke-width="2" stroke-miterlimit="10" stroke-linecap="round" stroke-linejoin="round"/>
<path d="M72.6067 34.1133C72.5507 34.2233 72.5687 34.1533 72.5687 34.3033" stroke="black" stroke-width="2" stroke-miterlimit="10" stroke-linecap="round" stroke-linejoin="round"/>
<path d="M62.1696 32.9141C62.1146 33.0241 62.1316 32.9541 62.1316 33.1041" stroke="black" stroke-width="2" stroke-miterlimit="10" stroke-linecap="round" stroke-linejoin="round"/>
<path d="M39.6017 32.7832C39.5467 32.8932 39.5636 32.8332 39.5636 32.9732" stroke="black" stroke-width="2" stroke-miterlimit="10" stroke-linecap="round" stroke-linejoin="round"/>
<path d="M29.7567 32.7441C29.7007 32.8541 29.7187 32.7941 29.7187 32.9341" stroke="black" stroke-width="2" stroke-miterlimit="10" stroke-linecap="round" stroke-linejoin="round"/>
<path d="M20.7346 31.7939C20.7346 31.7939 21.1166 34.044 21.7306 35.134C23.1566 37.684 24.0646 39.594 31.4646 47.124C38.9496 54.734 42.6836 58.8939 47.2226 64.1039C51.7606 69.3039 60.9146 78.764 62.1236 79.504C63.8766 80.594 64.7806 80.8539 66.6366 81.0639C67.7136 81.1839 69.5176 80.5739 69.5176 80.5739" stroke="black" stroke-width="2" stroke-miterlimit="10" stroke-linejoin="round"/>
<path d="M67.9076 28.7539C67.8516 28.8639 67.8686 28.8039 67.8686 28.9439" stroke="black" stroke-width="2" stroke-miterlimit="10" stroke-linecap="round" stroke-linejoin="round"/>
<path d="M35.3657 28.3936C35.3107 28.5036 35.3277 28.4436 35.3277 28.5836" stroke="black" stroke-width="2" stroke-miterlimit="10" stroke-linecap="round" stroke-linejoin="round"/>
</svg>
