<svg width="100" height="100" viewBox="0 0 100 100" fill="none" xmlns="http://www.w3.org/2000/svg">
<path d="M22.5811 80.2513C15.4436 74.026 16.4376 62.9819 23.511 56.1524C30.5844 49.3229 41.0725 51.2742 42.7799 50.9083C44.1458 50.6157 58.7135 34.8089 65.8682 26.5159C66.4233 25.4817 66.7876 22.8274 67.3949 21.9838C69.6219 18.8906 71.3959 17.4322 72.4412 16.387C73.3401 15.488 78.5354 18.5544 79.6392 19.5793C80.743 20.6043 76.722 22.8119 74.7509 25.1772C72.7798 27.5425 71.1391 27.3259 69.5623 28.1932C67.9854 29.0605 64.5563 33.932 59.5561 40.1517C54.556 46.3714 49.6093 52.8596 49.6093 54.6889C49.6093 56.5183 52.0597 58.3604 53.3262 65.1152C54.0579 69.0178 51.4387 77.8604 46.0727 81.2751C41.83 83.975 33.3943 85.0739 26.7932 82.5223" stroke="black" stroke-width="2" stroke-linecap="round"/>
<path d="M49.9488 53.5962C49.0403 56.8173 54.4738 62.5887 54.8991 68.5427C55.3244 74.4967 53.5201 85.804 39.0417 86.5137C33.9283 86.7644 28.1088 84.5446 25.5864 82.7737" stroke="black" stroke-width="2" stroke-linecap="round"/>
<path d="M24.5423 74.964C23.9916 74.7804 22.9179 78.63 22.6884 80.3586C22.4861 81.6663 24.1091 82.9942 25.2105 82.3976C26.4955 81.235 29.1774 77.9652 28.9938 77.4879C28.7644 76.8913 25.2306 75.1934 24.5423 74.964Z" stroke="black" stroke-width="2" stroke-linecap="round"/>
<path d="M26.9602 68.171L33.9095 71.8325" stroke="black" stroke-width="2" stroke-linecap="round"/>
<path d="M24.4684 75.1052C21.3538 72.4354 20.8029 66.2419 25.3414 60.3685C28.9723 55.6697 36.0285 54.6145 41.2801 55.713C44.8871 56.4676 49.4876 60.745 48.9338 67.8643C47.9748 80.1952 35.1759 79.801 29.1443 77.8234" stroke="black" stroke-width="2" stroke-linecap="round"/>
<path d="M26.0017 74.6649L28.545 69.0002" stroke="black" stroke-width="2"/>
<path d="M28.3369 76.0726L31.4139 71.106" stroke="black" stroke-width="2"/>
<path d="M28.5854 68.9048L70.6591 22.3308" stroke="black" stroke-width="2"/>
<path d="M31.9346 70.6841L71.3916 24.0054" stroke="black" stroke-width="2"/>
<path d="M42.4464 83.155L32.7078 84.4928L33.9385 85.8305C35.5438 86.098 38.8078 86.6331 39.0218 86.6331C39.2894 86.6331 43.7841 85.4559 44.4262 85.3489C44.9399 85.2633 48.1004 83.6009 49.6165 82.7805L53.6831 77.4831L54.9451 71.8806L54.0771 68.7804L51.6498 74.9683L48.0648 79.677L42.4464 83.155Z" fill="black"/>
<path d="M42.0366 50.9882C45.2768 50.9882 48.9437 54.0884 50.6179 57.3286" stroke="black" stroke-width="2"/>
<path d="M67.8283 20.708L66.3967 25.9717L43.7659 50.711L49.1799 54.6964L57.677 42.1387L70.1594 27.7012L74.3703 25.9717L79.4084 21.3096V19.2793L72.4904 16.1211L67.8283 20.708Z" fill="black"/>
<path d="M65.4714 19.8911L67.7354 21.4112" stroke="black" stroke-width="2"/>
<ellipse cx="64.9094" cy="19.4161" rx="1.13686" ry="2.09302" transform="rotate(34.6992 64.9094 19.4161)" fill="black"/>
<path d="M68.7878 16.2098L71.0518 17.7299" stroke="black" stroke-width="2"/>
<ellipse cx="68.2258" cy="15.7349" rx="1.13686" ry="2.09302" transform="rotate(34.6992 68.2258 15.7349)" fill="black"/>
<ellipse cx="76.3651" cy="27.634" rx="1.13686" ry="2.09302" transform="rotate(-145.215 76.3651 27.634)" fill="black"/>
<path d="M75.804 27.1582L73.5422 25.6347" stroke="black" stroke-width="2"/>
<ellipse cx="80.1776" cy="24.0327" rx="1.13686" ry="2.09302" transform="rotate(-145.215 80.1776 24.0327)" fill="black"/>
<path d="M79.6165 23.5569L77.3547 22.0334" stroke="black" stroke-width="2"/>
</svg>
