<svg width="100" height="100" viewBox="0 0 100 100" fill="none" xmlns="http://www.w3.org/2000/svg">
<path d="M44.849 17.0844C45.0747 16.5438 44.849 13.9888 44.849 13.9888C44.7765 12.9108 50.951 12.9497 52.8732 13.1737C54.5341 13.3672 55.2387 13.8453 55.1508 13.9888C55.1508 13.9888 54.9251 16.5438 55.1508 17.0844C55.3765 17.625 56.0774 17.8919 56.0774 19.0387C56.0774 20.1855 55.6813 20.2679 55.2778 20.9819C54.8743 21.6959 55.0537 23.3639 55.0537 27.5256C55.0537 31.6873 60.9757 39.5873 60.9757 47.0959C60.9757 54.5269 60.4132 60.1227 59.5739 65.2496C59.0355 68.5379 59.3166 73.5344 60.4132 77.6717C61.5099 81.8089 61.5597 86.5942 59.1172 87.7407C57.2198 88.4284 52.5267 88.0011 49.9999 88.0011C47.4731 88.0011 42.78 88.4284 40.8826 87.7407C38.4401 86.5942 38.49 81.8089 39.5866 77.6717C40.6832 73.5344 40.9643 68.5379 40.426 65.2496C39.5866 60.1227 39.0241 54.5269 39.0241 47.0959C39.0241 39.5873 44.9461 31.6873 44.9461 27.5256C44.9461 23.3639 45.1256 21.6959 44.7221 20.9819C44.3186 20.2679 44.0598 20.0711 44.0598 19.0387C44.0598 18.0063 44.6234 17.625 44.849 17.0844Z" stroke="black" stroke-width="2"/>
<path fill-rule="evenodd" clip-rule="evenodd" d="M61.0253 58L45.9869 58C46.0308 60.3392 46.4764 61.7808 46.9518 63.3186C47.5285 65.1846 48.1491 67.1922 48.1491 71.1166C48.1491 73.2296 47.401 76.2185 46.7147 78.9606C46.5962 79.4342 46.4795 79.9004 46.3688 80.3535C45.6173 83.4299 45.5832 86.9881 47.2569 87.8406C48.2237 88.2209 50.2496 88.1427 51.937 88.0776C52.5189 88.0552 53.0606 88.0343 53.5047 88.0343C53.9487 88.0343 54.4904 88.0552 55.0724 88.0776C56.7597 88.1427 58.7856 88.2209 59.7524 87.8406C61.4261 86.9881 61.392 83.4299 60.6405 80.3535C59.889 77.2771 59.6964 73.5618 60.0653 71.1166C60.6272 67.3928 61.008 63.3362 61.0253 58Z" fill="black"/>
<path d="M39.4615 57.4424C43.773 58.0976 54.032 59.0148 60.5755 57.4424" stroke="black" stroke-width="2"/>
<path d="M40.5005 39.9824C42.2889 40.1383 46.7406 40.45 50.2405 40.45C53.7405 40.45 57.7858 39.7737 59.3709 39.4355" stroke="black" stroke-width="2"/>
<path d="M54.1523 23.4023C54.1523 30.8386 46.9375 40.0016 46.9375 40.0016C50.1506 41.1395 57.0002 40.4757 59.3709 40.0016L56.048 32.5967C56.048 32.5967 54.1523 15.966 54.1523 23.4023Z" fill="black"/>
</svg>
