<svg width="100" height="100" viewBox="0 0 100 100" fill="none" xmlns="http://www.w3.org/2000/svg">
<path d="M48.6689 55.4097C48.6689 62.1208 48.6689 75.9516 48.6689 77.5856C48.6689 79.6282 54.8347 79.774 54.8347 77.5856C54.8347 75.8349 54.8347 61.1969 54.8347 54.0967" stroke="black" stroke-width="2"/>
<path d="M30.916 55.9857V23.2134C30.916 22.1532 71.2552 25.1603 72.2624 26.1675C73.2696 27.1746 72.3684 50.685 72.2624 51.5331C72.1564 52.3812 30.916 57.046 30.916 55.9857Z" stroke="black" stroke-width="2"/>
<path d="M31.2515 23.1299C29.5449 23.6439 26.4064 24.9846 26.4557 25.5275C26.5172 26.2061 26.4619 52.1439 26.4619 52.699C26.4619 53.2542 30.163 55.9684 30.8414 55.9067" stroke="black" stroke-width="2"/>
<path d="M34.1675 23.1694C33.96 22.3722 33.6696 20.6534 34.1675 20.1555C34.6655 19.6575 38.2627 18.5064 39.999 17.9932" stroke="black" stroke-width="2"/>
<path d="M44.9146 23.1687C44.7071 22.3716 44.4166 20.6527 44.9146 20.1548C45.4126 19.6568 48.1505 19.2779 49.8869 18.7646" stroke="black" stroke-width="2"/>
<path d="M55.6011 23.8306C55.3937 23.0334 55.4219 21.3147 55.9198 20.8168C56.4178 20.3188 59.0322 20.0211 60.7685 19.5078" stroke="black" stroke-width="2"/>
<path d="M65.1568 25.2292C64.9493 24.432 64.9775 22.7133 65.4755 22.2153C65.9734 21.7174 68.3756 21.2662 70.1119 20.7529" stroke="black" stroke-width="2"/>
<ellipse cx="40.3644" cy="17.9924" rx="2.61895" ry="1.7059" transform="rotate(-15.5635 40.3644 17.9924)" fill="black"/>
<ellipse cx="50.6623" cy="18.7649" rx="2.61895" ry="1.7059" transform="rotate(-15.5635 50.6623 18.7649)" fill="black"/>
<ellipse cx="61.1047" cy="19.6399" rx="2.61895" ry="1.7059" transform="rotate(-15.5635 61.1047 19.6399)" fill="black"/>
<ellipse cx="70.6691" cy="20.967" rx="2.61895" ry="1.7059" transform="rotate(-15.5635 70.6691 20.967)" fill="black"/>
<path d="M48.2897 74.034C43.479 74.7061 34.4789 75.9312 34.9034 76.7802C35.434 77.8414 44.0128 83.6686 44.9679 83.8808C45.923 84.0931 68.7379 80.1163 69.4807 79.3735C70.075 78.7792 61.929 74.5575 58.9223 72.7535C58.2984 72.5524 55.5787 73.2446 54.8985 73.2171" stroke="black" stroke-width="2"/>
<path d="M31.126 23.5654C29.7199 24.1062 26.8321 25.2311 26.5293 25.4041L26.5293 52.4978L30.8015 55.6885L31.126 23.5654Z" fill="black"/>
<path d="M48.4121 77.5798V55.1616L54.8531 54.3252V78.4163L53.0965 79.3364H50.2524L48.4121 77.5798Z" fill="black"/>
<path d="M39.0122 43.0949C41.004 42.9262 45.1474 41.9529 45.7862 39.4088C46.5847 36.2287 47.7889 33.5234 45.5 34.921C43.211 36.3187 42.5965 36.2538 43.2533 38.9443C43.9102 41.6349 46.6506 45.1109 48.7354 42.4747C50.8202 39.8385 51.5391 35.412 52.1039 38.3799C52.6687 41.3477 50.7563 44.7239 53.8462 42.1487C56.9362 39.5736 57.3449 36.1684 57.8778 38.6376C58.4108 41.1067 59.5781 43.4298 60.915 40.8413C62.2519 38.2529 63.0714 39.0636 65.6733 38.6473" stroke="black" stroke-width="2" stroke-linecap="round"/>
</svg>
