<svg width="100" height="100" viewBox="0 0 100 100" fill="none" xmlns="http://www.w3.org/2000/svg">
<path d="M26.2446 33.1997C26.0414 41.7626 25.7915 55.0532 25.7773 65.3748M64.9826 35.9616C64.9826 51.0432 64.7708 80.0483 63.9234 81.0168C63.4312 81.5793 54.8362 81.1579 46.3681 81.0168C36.6125 80.8542 26.8117 80.8593 26.2446 79.8062C26.0307 79.4089 25.9023 77.1901 25.8355 73.8554" stroke="black" stroke-width="2" stroke-linecap="round"/>
<path d="M19.2313 66.1235C21.0995 65.3375 34.8419 65.796 41.588 66.1235C46.7346 66.3387 45.7849 70.771 44.5395 71.8937C43.294 73.0165 23.6584 73.4179 19.9221 72.5759C16.1858 71.7338 16.896 67.1059 19.2313 66.1235Z" stroke="black" stroke-width="2" stroke-linecap="round"/>
<path d="M18.5303 66.5823C20.0149 65.4136 21.1535 66.147 21.6733 67.8143C22.2451 69.6483 21.1521 72.9475 19.0993 72.2684" stroke="black" stroke-width="2" stroke-linecap="round"/>
<path d="M34.2445 49.8456C35.0202 42.6315 38.8016 39.7612 44.9104 39.5674C51.0193 39.3735 54.8978 44.0278 55.1887 49.8456C55.4796 55.6634 50.2435 59.9298 46.8498 60.6085C42.393 61.4999 33.2748 58.8632 34.2445 49.8456Z" stroke="black" stroke-width="2" stroke-linecap="round"/>
<path d="M50.2994 40.9371C44.3209 38.634 39.4345 44.7893 39.4346 49.7538C39.4346 57.9796 47.3655 61.0353 51.6088 57.9155" stroke="black" stroke-width="2" stroke-linecap="round"/>
<path d="M42.8814 42.4811L47.4047 40.168L51.7737 41.8129L55.0119 46.4389V52.5042L53.7783 55.4855L50.6429 58.2611L46.9934 59.0321L41.1337 56.1537L40.0029 51.6818V45.6679L42.8814 42.4811Z" fill="black"/>
<path d="M20.7217 37.8711H26.0039" stroke="black" stroke-width="2" stroke-linecap="round"/>
<path d="M20.5586 37.7325C28.2062 31.2477 42.0809 18.3854 43.3689 18.8147M43.3689 18.8147C44.9789 19.3514 65.2383 36.7933 66.58 36.7933C67.9217 36.7933 81.7298 36.7933 82.669 36.7933C83.6082 36.7933 62.9558 18.8147 61.0774 18.8147C59.1991 18.8147 44.1835 18.5537 43.3689 18.8147Z" stroke="black" stroke-width="2" stroke-linecap="round"/>
<path d="M63.7607 81.0677C67.6069 81.0677 76.7824 79.3605 77.5337 79.3605C78.2851 79.3605 78.234 37.209 78.234 37.209" stroke="black" stroke-width="2" stroke-linecap="round"/>
<path d="M78.5834 36.8306H65.1038L63.9277 80.9785L77.4978 79.0787L78.5834 36.8306Z" fill="black"/>
<path d="M21.4951 37.2678L25.3904 33.9517L25.9167 37.5836L21.4951 37.2678Z" fill="black"/>
</svg>
