<svg width="100" height="100" viewBox="0 0 100 100" fill="none" xmlns="http://www.w3.org/2000/svg">
<path d="M27.9965 76.5662C27.9965 76.5662 26.8145 67.2421 25.8045 58.4711C24.7845 49.6171 24.9805 42.3361 25.0945 41.0311C25.5455 35.8721 33.4135 23.6191 47.9885 22.7811C62.5625 21.9421 71.6215 35.2152 71.8495 41.5472C72.1075 48.7062 67.1415 77.0172 67.1415 77.0172C67.1415 77.0172 58.2725 79.5782 48.4865 79.4652C38.7005 79.3522 27.9965 76.5662 27.9965 76.5662Z" stroke="black" stroke-width="2" stroke-miterlimit="10" stroke-linejoin="round"/>
<path d="M25.3545 44.9735C25.3545 44.9735 42.5524 46.0346 52.9844 46.5896C64.4404 47.1986 71.2355 45.8405 71.2355 45.8405" stroke="black" stroke-width="2" stroke-miterlimit="10" stroke-linejoin="round"/>
<path d="M42.5645 23.7002C42.5645 23.7002 34.1056 31.4042 35.1126 44.8472C36.1196 58.2912 38.0335 78.2302 38.0335 78.2302" stroke="black" stroke-width="2" stroke-miterlimit="10" stroke-linejoin="round"/>
<path d="M55.1016 23.4482C58.1736 27.7782 62.6046 32.3102 61.0436 45.5022C59.4826 58.6942 56.2596 78.7842 56.2596 78.7842" stroke="black" stroke-width="2" stroke-miterlimit="10" stroke-linejoin="round"/>
<path d="M48.0525 22.8945L48.0024 78.9855" stroke="black" stroke-width="2" stroke-miterlimit="10" stroke-linejoin="round"/>
<path d="M27.9521 76.2041L28.1682 80.3891C28.1682 80.3891 40.2381 83.1801 48.7151 83.0721C57.1931 82.9641 66.5892 80.7761 66.5892 80.7761L67.2361 76.3801" stroke="black" stroke-width="2" stroke-miterlimit="10" stroke-linejoin="round"/>
<path d="M28.3066 80.6835C28.3066 80.6835 58.9207 88.4825 71.7147 82.9545C82.2277 78.4115 67.3607 75.7285 67.3607 75.7285L66.6577 80.8936C66.6577 80.8936 58.6736 83.2755 49.0856 83.2225C39.4976 83.1705 28.3066 80.6835 28.3066 80.6835Z" fill="black" stroke="black" stroke-width="2" stroke-miterlimit="10" stroke-linejoin="round"/>
<path d="M36.2915 57.7021L59.1785 57.9821" stroke="black" stroke-width="2" stroke-miterlimit="10" stroke-linejoin="round"/>
<path d="M44.6604 23.1315C44.6604 23.1315 43.1254 21.7025 43.7074 19.5675C44.2894 17.4325 46.5104 16.0885 49.0064 16.0025C51.5014 15.9175 53.7714 17.9745 54.0094 20.1875C54.2474 22.4005 53.3234 23.0305 53.3234 23.0305" stroke="black" stroke-width="2" stroke-miterlimit="10" stroke-linejoin="round"/>
</svg>
