<svg width="100" height="100" viewBox="0 0 100 100" fill="none" xmlns="http://www.w3.org/2000/svg">
<path d="M37.8528 62.8739L33.2988 78.9399" stroke="black" stroke-width="2" stroke-miterlimit="10" stroke-linecap="round" stroke-linejoin="round"/>
<path d="M62.4678 62.4229C62.4678 62.4229 64.0398 67.2898 65.2108 71.3148C66.3818 75.3408 67.1498 78.5229 67.1498 78.5229" stroke="black" stroke-width="2" stroke-miterlimit="10" stroke-linecap="round" stroke-linejoin="round"/>
<path d="M36.4717 69.5045C36.4717 69.5045 40.4877 69.5685 47.3467 69.5405C54.2067 69.5135 63.9087 69.3945 63.9087 69.3945" stroke="black" stroke-width="2" stroke-miterlimit="10" stroke-linecap="round" stroke-linejoin="round"/>
<path d="M22.7861 57.5716C22.7861 57.5716 20.7471 22.7896 23.0911 22.0256C25.4351 21.2616 76.7411 20.6466 76.6051 24.3546C76.4701 28.0626 77.34 57.6116 77.34 57.6116" stroke="black" stroke-width="2" stroke-miterlimit="10" stroke-linejoin="round"/>
<path d="M19.7391 58.1811C19.7391 58.1811 35.7891 58.2441 50.7221 58.0511C65.6551 57.8581 72.7381 57.6541 78.4871 57.4741C81.6191 57.3761 82.7341 61.5741 79.1201 61.8041C75.5051 62.0341 22.1961 62.2181 19.9011 62.2031C17.6051 62.1881 17.1981 58.5271 19.7391 58.1811Z" stroke="black" stroke-width="2" stroke-miterlimit="10" stroke-linejoin="round"/>
<path d="M45.035 57.9346C45.035 57.9346 44.774 55.6446 45.106 55.6406C46.559 55.6236 48.946 55.5776 50.374 55.6406C51.249 55.6796 50.374 57.8626 50.374 57.8626L45.035 57.9346Z" fill="black" stroke="black" stroke-width="2" stroke-miterlimit="10" stroke-linejoin="round"/>
<path d="M30.7839 57.7651C29.9909 57.5871 29.8239 54.0561 30.6859 53.4151C32.1919 52.2951 36.2519 52.5822 38.1129 53.1162C39.1909 53.4252 38.9219 57.8072 38.6649 57.8962C37.9289 58.1492 31.8869 58.0121 30.7839 57.7651Z" stroke="black" stroke-width="2" stroke-miterlimit="10" stroke-linecap="round" stroke-linejoin="round"/>
<path d="M28.5591 44.3848C29.6951 40.4358 31.3931 35.5478 32.1911 32.8288C32.7591 30.8958 34.1981 27.0258 35.1901 29.4038C36.1771 31.7688 37.5631 37.9278 38.3111 40.5078C38.5121 41.2018 39.1271 44.1878 39.1271 44.1878" stroke="black" stroke-width="2" stroke-miterlimit="10" stroke-linecap="round" stroke-linejoin="round"/>
<path d="M31.021 37.6791C33.002 36.9221 35.354 37.9591 37.248 37.2351" stroke="black" stroke-width="2" stroke-miterlimit="10" stroke-linecap="round" stroke-linejoin="round"/>
<path d="M44.1143 29.8341C45.0343 32.2411 44.5052 38.2311 44.6252 40.9911C44.6432 41.3871 44.3793 44.1641 44.6673 44.3451C44.9043 44.4951 45.8272 44.2571 46.1042 44.2391C49.1342 44.0361 55.6553 42.9891 51.9943 37.3751C50.6973 35.3871 44.9943 36.9101 44.8873 36.6301" stroke="black" stroke-width="2" stroke-miterlimit="10" stroke-linecap="round" stroke-linejoin="round"/>
<path d="M65.4635 30.2251C62.7455 28.8401 60.3745 30.6231 59.3575 31.7321C53.2275 38.4211 62.8265 48.1951 67.5285 40.7291" stroke="black" stroke-width="2" stroke-miterlimit="10" stroke-linecap="round" stroke-linejoin="round"/>
<path d="M44.1934 29.6556C46.1134 28.9216 49.7683 28.3996 51.4743 30.0646C52.9853 31.5386 53.9304 35.3936 51.3474 36.3806" stroke="black" stroke-width="2" stroke-miterlimit="10" stroke-linecap="round" stroke-linejoin="round"/>
<path d="M23.144 22.0201C23.144 22.0201 32.55 20.8501 46.058 21.0161C59.566 21.1821 76.428 21.3981 77.174 22.6841C78.446 24.8761 78.683 56.6791 78.683 56.6791" stroke="black" stroke-width="2" stroke-miterlimit="10" stroke-linecap="round" stroke-linejoin="round"/>
</svg>
