<svg width="100" height="100" viewBox="0 0 100 100" fill="none" xmlns="http://www.w3.org/2000/svg">
<path d="M27.6926 27.8248C31.1184 21.514 35.506 20.1618 37.2715 20.2745C53.2739 20.2745 72.8822 23.768 76.7137 28.3884C80.5453 33.0088 77.728 48.673 74.6853 51.1522C71.6426 53.6315 48.5407 52.0538 38.2857 52.0538C28.0307 52.0538 26.2277 51.0396 22.7342 47.208C19.2469 43.3831 23.3959 35.74 27.6703 27.866L27.6926 27.8248Z" stroke="black" stroke-width="2" stroke-linecap="round"/>
<path d="M34.1385 67.4102C33.5467 66.9992 34.1385 52.473 34.1385 52.473H36.7273V67.4102C36.7273 68.0269 34.7303 67.8213 34.1385 67.4102Z" stroke="black" stroke-width="2" stroke-linecap="round"/>
<path d="M33.5018 67.32C31.92 67.2262 28.4158 67.602 27.053 69.8562C25.3496 72.674 27.5692 82.9127 32.8621 83.2508C38.155 83.589 38.4122 83.1036 39.6289 82.7091C40.8457 82.3146 45.0545 73.5541 43.3551 69.6201C42.5695 67.8017 38.4049 66.9245 36.5797 67.6571" stroke="black" stroke-width="2" stroke-linecap="round"/>
<path d="M36.5053 67.5481C37.3849 67.8391 39.2194 68.7878 39.5209 70.2544C39.8979 72.0876 38.857 82.6313 36.6424 83.2424" stroke="black" stroke-width="2" stroke-linecap="round"/>
<path d="M34.1422 67.5481C33.2626 67.8391 31.4281 68.7878 31.1265 70.2544C30.7496 72.0876 31.7905 82.6313 34.005 83.2424" stroke="black" stroke-width="2" stroke-linecap="round"/>
<path d="M36.55 56.1745H34.0796V52.606H36.55V56.1745Z" fill="black" stroke="black" stroke-width="2" stroke-linecap="round"/>
<path d="M33.8464 43.4209C33.5119 41.4132 30.8016 40.6546 29.7036 42.631C29.1459 43.635 29.3034 45.2379 30.6664 45.8869C31.5327 46.2995 34.181 45.4285 33.8464 43.4209Z" stroke="black" stroke-width="2" stroke-linecap="round"/>
<path d="M24.0938 35.314H31.2902" stroke="black" stroke-width="2" stroke-linecap="round"/>
<path d="M26.4893 31.6901H30.2706" stroke="black" stroke-width="2" stroke-linecap="round"/>
<path d="M44.5408 33.4083C43.2261 30.925 45.3346 26.8704 48.1927 26.9261C51.0508 26.9818 68.0958 26.9261 69.6479 31.1259C71.1999 35.3257 67.8219 36.6951 59.8789 36.4212C51.936 36.1473 46.1842 36.5125 44.5408 33.4083Z" stroke="black" stroke-width="2" stroke-linecap="round"/>
<path d="M48.8634 26.9633C46.4526 27.2934 46.4999 31.753 48.6657 32.5174C50.8316 33.2818 64.4933 33.6571 66.0858 33.1475C67.6783 32.6379 68.2284 29.8298 66.6359 28.938" stroke="black" stroke-width="2" stroke-linecap="round"/>
<path d="M44.6271 29.9666C44.7107 29.2557 47.4284 27.1653 47.6375 27.1653V29.0468V31.639L49.6026 32.8097C51.944 33.1024 56.7605 33.6877 57.2957 33.6877C57.9646 33.6877 63.7407 33.1653 64.0752 33.1653C64.3428 33.1653 65.8269 32.4429 66.9697 32.0527L67.9587 30.013L70.1314 32.8097L68.7931 35.4523L63.8792 36.5649C59.1686 36.4812 49.8103 36.3542 48.1794 35.9158C42.4311 34.3706 44.5435 30.6774 44.6271 29.9666Z" fill="black"/>
<path d="M46.8095 17.1959C46.562 17.2508 46.7064 19.418 46.8095 20.4947H49.4554C49.4898 19.6127 49.5379 17.7526 49.4554 17.3677C49.3523 16.8866 47.1188 17.1272 46.8095 17.1959Z" fill="black" stroke="black" stroke-width="2" stroke-linecap="round"/>
<path d="M38.0403 16.8189C37.3997 17.0191 37.3229 18.7874 37.5898 19.7717L42.4445 20.0221C42.4445 19.0711 42.7951 17.3193 42.0443 16.8189C41.686 16.5802 38.841 16.5686 38.0403 16.8189Z" fill="black" stroke="black" stroke-width="2" stroke-linecap="round"/>
<path d="M31.3363 54.7238C30.4348 54.6638 30.0426 52.684 30.4182 51.8827L40.7334 52.3635C40.8836 53.0146 40.4933 54.3031 39.7722 54.7238C38.8707 55.2497 32.4632 54.7989 31.3363 54.7238Z" fill="black" stroke="black" stroke-width="2"/>
</svg>
