<svg width="100" height="100" viewBox="0 0 100 100" fill="none" xmlns="http://www.w3.org/2000/svg">
<path d="M27.9699 26.5141C27.9699 26.5141 18.9849 28.6311 21.4179 37.4711C24.1679 47.4811 28.0949 64.4511 29.8849 67.7311C31.6749 71.0111 38.0789 70.6811 38.0789 70.6811C38.0789 70.6811 39.4709 72.6411 40.1459 73.8011C41.0729 75.3811 44.7229 74.5711 44.6439 72.7411C44.6179 72.1411 44.9129 68.8811 44.9129 68.8811C44.9129 68.8811 53.5199 67.6711 58.4559 64.6411C63.3929 61.6111 62.5629 57.4711 60.8909 51.5211C59.2189 45.5711 54.5609 28.3011 52.9309 24.4861C51.3009 20.6671 42.7129 22.5301 42.7129 22.5301C42.7129 22.5301 40.8599 17.9751 38.7919 18.0001C35.4489 18.0401 29.3479 20.5511 29.3479 20.5511C27.7849 21.9791 27.9699 26.5141 27.9699 26.5141Z" stroke="black" stroke-width="2" stroke-miterlimit="10" stroke-linejoin="round"/>
<path d="M27.2459 44.0812C27.2459 44.0812 31.049 41.6512 34.114 42.9112C37.179 44.1712 38.6519 46.1212 42.6169 44.2612C47.2389 42.1012 50.1529 43.9812 51.6239 43.3812C54.3109 42.2812 54.6929 45.5012 55.7879 49.1512C57.3289 54.2912 59.2569 57.4012 57.8449 59.6112C56.4329 61.8212 45.1709 64.5212 43.8389 65.0012C42.5069 65.4812 41.12 66.3713 41.882 69.6713C42.175 70.9313 39.6389 67.3713 38.1409 67.0513C36.2009 66.6513 33.9159 66.6912 32.6429 62.6112C31.3699 58.5412 29.3779 52.0913 28.6489 49.6813C27.9209 47.2713 27.2459 44.0812 27.2459 44.0812Z" fill="black" stroke="black" stroke-width="2" stroke-miterlimit="10" stroke-linejoin="round"/>
<path d="M42.698 74.4508C44.434 80.6208 52.69 86.0007 58.89 77.6307C67.531 65.9707 74.407 73.3807 77.876 64.7307C81.798 54.9507 69.06 55.5008 72.878 43.8008" stroke="black" stroke-width="2" stroke-miterlimit="10" stroke-linejoin="round"/>
<path d="M32.0239 23.6692C31.8599 24.5142 32.2679 26.9352 32.8059 27.3632C33.3439 27.7912 38.7159 25.9662 39.1499 25.6502C39.5839 25.3332 38.78 22.5382 37.869 21.9392C37.126 21.4502 32.1559 22.9852 32.0239 23.6692Z" stroke="black" stroke-width="2" stroke-miterlimit="10" stroke-linejoin="round"/>
<path d="M74.365 44.0409C73.459 45.3909 71.435 44.7009 71.672 43.1509C71.768 42.5309 72.773 38.2409 73.38 37.8409C74.785 36.9309 76.2939 37.4709 76.4859 38.8009C76.6029 39.6109 74.587 43.7209 74.365 44.0409Z" stroke="black" stroke-width="2" stroke-miterlimit="10" stroke-linejoin="round"/>
<path d="M75.4099 37.1514L76.2479 34.9014" stroke="black" stroke-width="2" stroke-miterlimit="10" stroke-linecap="round" stroke-linejoin="round"/>
</svg>
