<svg width="100" height="100" viewBox="0 0 100 100" fill="none" xmlns="http://www.w3.org/2000/svg">
<path d="M58.2991 77.4589L54.4751 72.3515" stroke="black" stroke-width="2" stroke-linecap="round" stroke-linejoin="round"/>
<circle cx="55.1099" cy="79.9406" r="4.02689" stroke="black" stroke-width="2" stroke-linecap="round" stroke-linejoin="round"/>
<path d="M34.3547 74.302C34.9303 76.4502 33.9358 78.5831 32.1335 79.0661C30.3312 79.549 28.4035 78.199 27.8279 76.0508C27.2523 73.9026 28.2467 71.7696 30.049 71.2867C31.8514 70.8038 33.7791 72.1538 34.3547 74.302Z" stroke="black" stroke-width="2" stroke-linecap="round" stroke-linejoin="round"/>
<path d="M30.1387 71.2627C39.195 69.2772 46.2701 67.6689 54.0348 65.6327C60.044 64.057 66.4664 62.225 74.5399 59.7636C76.3422 59.2806 77.8951 59.9054 78.4271 61.8905C78.8581 63.4993 77.9946 65.0853 76.1922 65.5683C76.1922 65.5683 71.3529 66.8863 68.5589 67.8006C58.8362 70.9821 53.5011 71.6519 43.7908 74.8711C39.2326 76.3822 32.2231 79.0421 32.2231 79.0421" stroke="black" stroke-width="2" stroke-linecap="round" stroke-linejoin="round"/>
<path d="M73.106 74.7527C72.7018 76.9396 73.8616 78.9874 75.6964 79.3265C77.5312 79.6657 79.3463 78.1677 79.7505 75.9808C80.1547 73.7938 78.995 71.746 77.1602 71.4069C75.3254 71.0678 73.5103 72.5657 73.106 74.7527Z" stroke="black" stroke-width="2" stroke-linecap="round" stroke-linejoin="round"/>
<path d="M75.6063 79.3096C75.6063 79.3096 69.4581 77.4082 65.5398 76.5949C62.1476 75.8907 56.9194 75.3286 56.9194 75.3286" stroke="black" stroke-width="2" stroke-linecap="round" stroke-linejoin="round"/>
<path d="M51.6513 82.0592L46.2793 74.3107" stroke="black" stroke-width="2" stroke-linecap="round" stroke-linejoin="round"/>
<path d="M77.07 71.3896C77.07 71.3896 73.8899 70.2339 71.6025 69.8092C69.1109 69.3465 64.8349 69.1613 64.8349 69.1613" stroke="black" stroke-width="2" stroke-linecap="round" stroke-linejoin="round"/>
<path d="M55.6201 73.3996C57.2517 71.4219 64.032 69.5633 66.8956 69.0688" stroke="black" stroke-width="2" stroke-linecap="round" stroke-linejoin="round"/>
<path d="M70.7571 75.0538C67.5315 74.2201 62.7384 73.2565 60.7451 72.879" stroke="black" stroke-width="2" stroke-linecap="round" stroke-linejoin="round"/>
<path d="M49.4613 66.7116C49.4613 66.7116 42.7878 65.8864 39.0234 65.1389C35.5613 64.4514 30.9571 63.0915 30.9571 63.0915C29.1223 62.7524 27.2359 63.1179 26.8624 65.1389C26.5597 66.7766 27.4844 68.8943 29.3192 69.2335L34.1797 70.1958" stroke="black" stroke-width="2" stroke-linecap="round" stroke-linejoin="round"/>
<path d="M47.7603 76.4052C46.6546 73.5909 53.5099 71.6704 54.855 72.7165" stroke="black" stroke-width="2" stroke-linecap="round" stroke-linejoin="round"/>
<path d="M36.604 72.4274C40.3214 71.6619 52.8675 68.3728 58.676 66.8239" stroke="black" stroke-width="2" stroke-linecap="round" stroke-linejoin="round"/>
<path d="M29.8877 65.2115C30.7724 65.6362 35.4217 66.6572 37.9435 67.3208" stroke="black" stroke-width="2" stroke-linecap="round" stroke-linejoin="round"/>
<path d="M67.1938 64.5019C70.9112 63.7364 71.1654 63.4848 75.5657 62.1158" stroke="black" stroke-width="2" stroke-linecap="round" stroke-linejoin="round"/>
<path d="M26.51 47.9122C26.0256 47.4638 25.5322 47.0341 25.0234 46.6081" stroke="black" stroke-width="2" stroke-linecap="round"/>
<path d="M39.1455 64.9752C34.9428 60.9637 31.4446 51.699 34.5655 45.24C35.6044 47.7498 38.7045 49.77 40.89 50.0432C38.6364 43.5989 43.4655 44.4122 40.2411 37.0472C43.1657 37.0472 44.9864 39.1403 45.5311 40.1869C47.1658 37.6922 46.7297 25.8589 45.5311 21.891C51.0347 24.8739 57.375 33.1788 57.375 38.7695C59.6734 36.3453 61.3596 35.7255 62.4027 35.4348C60.0816 42.8858 64.9007 45.5233 61.1093 52.6867C63.8881 52.566 65.3777 50.1243 65.7829 49.1649C66.8603 52.975 66.5777 60.2234 62.4222 63.3016" stroke="black" stroke-width="2" stroke-linecap="round"/>
<path d="M42.1265 54.6474C43.6028 57.7136 41.9034 60.6071 44.5154 65.2634L48.8153 66.2662L57.1918 64.2803C62.3382 58.0289 56.544 52.7871 56.544 48.1153C56.3292 49.8829 55.5944 50.5827 54.4747 52.2622C51.9509 48.7063 54.543 47.2951 49.5411 42.5322C51.5944 50.4113 43.0473 46.7 47.5816 59.0173C47.0138 57.9574 43.8527 55.1925 42.1265 54.6474Z" fill="black"/>
<path d="M68.7432 35.8406C69.3202 35.5076 69.7777 34.9789 70.257 34.5592" stroke="black" stroke-width="2" stroke-linecap="round"/>
<path d="M64.3342 26.9007C64.1205 28.0057 63.5434 29.0072 63.2815 29.3697" stroke="black" stroke-width="2" stroke-linecap="round" stroke-linejoin="round"/>
<path d="M38.7094 27.9371C38.4614 27.1574 37.783 26.532 37.2808 25.8639" stroke="black" stroke-width="2" stroke-linecap="round"/>
<path d="M65.0151 20.9157C65.2843 20.6228 65.4914 20.2906 65.7216 19.976" stroke="black" stroke-width="2" stroke-linecap="round"/>
<path d="M43.9968 16.2544L43.8271 14.2343" stroke="black" stroke-width="2" stroke-linecap="round"/>
</svg>
