<svg width="100" height="100" viewBox="0 0 100 100" fill="none" xmlns="http://www.w3.org/2000/svg">
<path d="M34.6653 43.215C35.3443 30.013 54.7913 26.5049 60.5483 36.1739C66.0053 45.3389 61.6173 52.9399 55.2733 56.8589C48.9293 60.7779 33.9083 57.947 34.6653 43.215Z" stroke="black" stroke-width="2" stroke-miterlimit="10" stroke-linecap="round" stroke-linejoin="round"/>
<path d="M56.6387 56.0463L59.5126 59.6233L61.3447 58.1513C61.3447 58.1513 60.6747 57.2993 59.9617 56.3933C59.2487 55.4883 58.4937 54.5283 58.4937 54.5283L56.6387 56.0463Z" fill="black" stroke="black" stroke-width="2" stroke-miterlimit="10" stroke-linecap="round" stroke-linejoin="round"/>
<path d="M58.6621 60.503L62.2521 57.504C62.2521 57.504 72.5861 68.615 74.3061 70.986C76.5541 74.085 71.8231 78.327 68.9161 74.619C66.0101 70.912 58.6621 60.503 58.6621 60.503Z" stroke="black" stroke-width="2" stroke-miterlimit="10" stroke-linecap="round" stroke-linejoin="round"/>
<path d="M39.1146 43.623C39.5796 34.579 52.9026 32.176 56.8466 38.8C60.5846 45.078 57.5787 50.286 53.2327 52.971C48.8867 55.655 38.5956 53.716 39.1146 43.623Z" stroke="black" stroke-width="2" stroke-miterlimit="10" stroke-linecap="round" stroke-linejoin="round"/>
<path d="M53.2508 30.673C53.2508 30.673 52.7187 28.059 56.4547 26.204C59.1707 24.856 73.0687 24.37 73.0687 24.37C73.0687 24.37 72.8982 28.8879 74.0002 36.9999C75.2232 45.9969 75.5002 54.9999 75.5002 54.9999C75.5002 54.9999 70.3092 53.0359 66.5002 52.9999C62.6912 52.9649 59.1258 53.727 59.1258 53.727" stroke="black" stroke-width="2" stroke-miterlimit="10" stroke-linecap="round" stroke-linejoin="round"/>
<path d="M74 32.6152L78.7065 32.6152C78.7065 32.6152 79.3885 38.9822 80.1505 45.8242C80.9135 52.6662 81.956 60.2921 81.5 61.0001C81.013 61.7551 70.5 57.5001 64 59.0001" stroke="black" stroke-width="2" stroke-miterlimit="10" stroke-linecap="round" stroke-linejoin="round"/>
<path d="M48.8676 30.59C48.8676 30.59 47.5446 26.831 44.7936 25.846C39.3346 23.891 26.5886 23 26.5886 23C26.5886 23 26.5436 26.018 26.5886 27.5C26.6426 29.242 25.561 34.456 25.5 38C24.9114 45 24 55.5 24 55.5C24 55.5 28.844 53.841 32 53.616C35.155 53.392 37.6596 53.616 37.6596 53.616" stroke="black" stroke-width="2" stroke-miterlimit="10" stroke-linecap="round" stroke-linejoin="round"/>
<path d="M25.3049 32.5405C25.3049 32.5405 22.2236 32.3594 20.9976 32.5404C20.3276 32.6394 19.4106 42.3134 19.2716 47.5204C19.0376 56.2214 18.026 59.9524 18 60.9164C17.978 61.7004 25.5002 59.0004 32.5002 59.0004C39.5002 59.0004 46.5696 60.9084 48.3906 60.9164C50.7556 60.9284 51.5 60.9164 51.5 60.9164C51.5 60.9164 55 60.5004 58.5 60.0004" stroke="black" stroke-width="2" stroke-miterlimit="10" stroke-linecap="round" stroke-linejoin="round"/>
<path d="M49.3564 60.786C49.4054 60.27 49.4385 58.749 49.4385 58.749" stroke="black" stroke-width="2" stroke-miterlimit="10" stroke-linecap="round" stroke-linejoin="round"/>
</svg>
