<svg width="100" height="100" viewBox="0 0 100 100" fill="none" xmlns="http://www.w3.org/2000/svg">
<path d="M17 72.8624L82.8099 72.5674" stroke="black" stroke-width="2" stroke-miterlimit="10" stroke-linecap="round" stroke-linejoin="round"/>
<path d="M24.86 72.8244C24.83 70.4954 23.84 29.3404 24.75 27.9754C25.65 26.6094 33.03 26.6734 33.72 28.1974C34.4 29.7224 33.8199 72.7104 33.8199 72.7104L24.86 72.8244Z" stroke="black" stroke-width="2" stroke-miterlimit="10" stroke-linecap="round" stroke-linejoin="round"/>
<path d="M24.79 62.9004C27.73 62.9684 30.75 62.8894 33.65 62.9564" stroke="black" stroke-width="2" stroke-miterlimit="10" stroke-linecap="round" stroke-linejoin="round"/>
<path d="M24.7998 58.3884C25.8098 57.9094 30.3198 58.2444 31.5798 58.3714C32.0498 58.4194 33.0798 58.2464 33.4498 58.5404" stroke="black" stroke-width="2" stroke-miterlimit="10" stroke-linecap="round" stroke-linejoin="round"/>
<path d="M24.8799 40.1936C25.0799 39.9406 26.6299 39.9196 27.0199 39.9296C29.2699 39.9836 31.4899 39.9536 33.6699 40.0066" stroke="black" stroke-width="2" stroke-miterlimit="10" stroke-linecap="round" stroke-linejoin="round"/>
<path d="M34.2899 36.9313C34.5699 34.6403 43.4699 35.1394 43.5099 36.8374C43.6699 43.8474 43.7599 72.6864 43.7599 72.6864L33.8999 72.7023C33.8999 72.7023 34.1199 38.3163 34.2899 36.9313Z" stroke="black" stroke-width="2" stroke-miterlimit="10" stroke-linecap="round" stroke-linejoin="round"/>
<path d="M36.8999 55.3918C37.9299 55.2048 40.8099 55.3278 40.8099 55.3278" stroke="black" stroke-width="2" stroke-miterlimit="10" stroke-linecap="round" stroke-linejoin="round"/>
<path d="M34.5298 51.4644C34.9098 51.2704 35.8098 51.4154 36.2798 51.3824C38.7598 51.2074 41.1298 51.4504 43.5498 51.4224" stroke="black" stroke-width="2" stroke-miterlimit="10" stroke-linecap="round" stroke-linejoin="round"/>
<path d="M34.48 48.3344C37.49 47.8684 40.49 48.3424 43.47 48.3074" stroke="black" stroke-width="2" stroke-miterlimit="10" stroke-linecap="round" stroke-linejoin="round"/>
<path d="M43.7997 72.6934C43.7997 72.6934 43.6597 38.5864 43.8497 31.4084C43.9597 27.3394 52.8797 29.1694 52.8497 31.3854C52.7097 41.7884 52.8397 72.6764 52.8397 72.6764L43.7997 72.6934Z" stroke="black" stroke-width="2" stroke-miterlimit="10" stroke-linecap="round" stroke-linejoin="round"/>
<path d="M47.9397 47.6504C47.9397 47.6504 47.9296 53.8924 48.0496 56.5744C48.2496 61.3264 48.2497 66.6734 48.2497 66.6734" stroke="black" stroke-width="2" stroke-miterlimit="10" stroke-linecap="round" stroke-linejoin="round"/>
<path d="M26.7798 43.3394C26.7798 43.3394 27.5899 43.2964 27.9899 43.2814C28.8099 43.2514 29.6498 43.3474 30.4698 43.3174" stroke="black" stroke-width="2" stroke-miterlimit="10" stroke-linecap="round" stroke-linejoin="round"/>
<path d="M43.7197 43.262C43.7197 43.262 43.9697 42.885 45.6697 42.823C47.3697 42.761 48.8296 42.969 50.5096 43.014C50.8196 43.023 52.8297 43.201 52.6497 43.309" stroke="black" stroke-width="2" stroke-miterlimit="10" stroke-linecap="round" stroke-linejoin="round"/>
<path d="M53.01 39.6028C53.06 38.1088 65.9101 38.5078 65.8701 40.4448C65.6901 49.2608 65.7101 72.5998 65.7101 72.5998L52.8301 72.7038C52.8301 72.7038 52.93 42.4528 53.01 39.6028Z" stroke="black" stroke-width="2" stroke-miterlimit="10" stroke-linecap="round" stroke-linejoin="round"/>
<path d="M43.9199 33.8648C45.5999 33.6678 51.2499 33.5528 52.6399 34.6448" stroke="black" stroke-width="2" stroke-miterlimit="10" stroke-linecap="round" stroke-linejoin="round"/>
<path d="M24.4697 33.6984C27.3097 33.7674 30.8097 32.9734 33.5297 33.9534" stroke="black" stroke-width="2" stroke-miterlimit="10" stroke-linecap="round" stroke-linejoin="round"/>
<path d="M64.4197 33.9013C67.2697 43.5393 72.7197 72.2453 73.6397 71.7853C74.5597 71.3243 81.3197 69.3083 81.7797 69.0153C82.2397 68.7223 72.3798 31.8403 71.7098 31.0863C71.0398 30.3323 63.9397 32.2893 64.4197 33.9013Z" stroke="black" stroke-width="2" stroke-miterlimit="10" stroke-linecap="round" stroke-linejoin="round"/>
<path d="M53.0601 66.9429C53.4501 66.6189 55.7101 66.7069 56.2501 66.6689C58.7801 66.4929 65.3601 67.3269 65.3601 67.3269" stroke="black" stroke-width="2" stroke-miterlimit="10" stroke-linecap="round" stroke-linejoin="round"/>
<path d="M53.1201 64.13C53.7101 63.488 60.0001 64.057 61.0601 64.117C62.0101 64.172 62.9801 64.215 63.9301 64.234C64.1301 64.238 65.4001 64.318 65.3101 64.409" stroke="black" stroke-width="2" stroke-miterlimit="10" stroke-linecap="round" stroke-linejoin="round"/>
<path d="M65.57 64.436C62.56 63.786 59.46 64.466 56.41 63.983C55.81 63.889 53.66 63.398 53.29 63.966C53.06 64.33 52.9801 66.104 53.2401 66.445C53.5801 66.894 60.61 66.734 61.82 66.923C62.52 67.032 64.6101 67.912 65.2201 67.617C66.1601 67.16 66.38 64.612 65.57 64.436Z" fill="black"/>
<path d="M33.84 58.8554C32.39 58.7804 30.95 58.6934 29.5 58.5994C28.84 58.5574 25.6099 58.0404 25.1699 58.3904C24.5399 58.8894 24.6499 60.4694 24.6599 61.1524C24.6699 61.5764 24.42 62.0494 24.72 62.4554C25.12 63.0054 27.69 62.6694 28.32 62.7024C29.09 62.7424 33.23 62.9714 33.62 62.5614C34.21 61.9444 33.6099 60.0354 33.3799 59.3154" fill="black"/>
<path d="M57.52 56.2139C58.47 56.3279 59.57 56.3669 60.53 56.3619" stroke="black" stroke-width="2" stroke-miterlimit="10" stroke-linecap="round" stroke-linejoin="round"/>
<path d="M56.8896 53.1067C58.5296 53.0977 60.1597 53.3667 61.7797 53.3577" stroke="black" stroke-width="2" stroke-miterlimit="10" stroke-linecap="round" stroke-linejoin="round"/>
<path d="M70.98 49.7684C71.73 49.2234 72.7899 49.2784 73.5499 48.7324" stroke="black" stroke-width="2" stroke-miterlimit="10" stroke-linecap="round" stroke-linejoin="round"/>
<path d="M53.16 48.6503C53.01 48.7063 54.0201 48.6913 54.6001 48.6513C55.5201 48.5873 56.46 48.6144 57.39 48.6454C60.16 48.7394 62.94 49.0513 65.65 49.3313" stroke="black" stroke-width="2" stroke-miterlimit="10" stroke-linecap="round" stroke-linejoin="round"/>
<path d="M43.57 48.6229C42.23 48.5319 40.9 48.7129 39.57 48.6109C38.67 48.5429 37.78 48.4059 36.88 48.3159C36.31 48.2579 35.1001 48.0559 34.6101 48.4589C34.1801 48.8189 33.7 50.6069 34.2 50.9859C35.04 51.6329 40.1 51.4539 41.4 51.4689C41.83 51.4739 43.21 51.8169 43.54 51.4299C43.9 51.0029 43.68 49.9739 43.63 49.4949" fill="black"/>
<path d="M53.2402 45.8703L56.5702 45.6884L60.5002 45.7354C60.5002 45.7354 64.0702 45.9703 65.5002 46.1183" stroke="black" stroke-width="2" stroke-miterlimit="10" stroke-linecap="round" stroke-linejoin="round"/>
<path d="M65.9299 46.5369C64.2699 46.2299 62.4499 46.2559 60.7499 46.1069C59.5499 46.0019 58.3398 45.8279 57.1298 45.7219C55.2298 45.5569 53.2499 45.1639 52.7999 47.3799C52.7399 47.6759 52.7099 48.4209 52.9299 48.6789C53.3399 49.1709 55.6899 48.6419 56.3299 48.6539C58.5099 48.6929 60.7099 48.6419 62.8699 49.0169C63.4699 49.1219 65.0099 49.6569 65.5599 49.2749C65.9399 49.0119 65.7199 48.1759 65.6999 47.8149" fill="black"/>
<path d="M67.8501 46.7511C68.5701 45.7401 74.2 44.1101 75.51 44.3191" stroke="black" stroke-width="2" stroke-miterlimit="10" stroke-linecap="round" stroke-linejoin="round"/>
<path d="M66.5898 41.822C67.3098 40.807 71.1198 39.752 72.3798 39.545C72.7198 39.487 73.7398 39.132 74.0098 39.324" stroke="black" stroke-width="2" stroke-miterlimit="10" stroke-linecap="round" stroke-linejoin="round"/>
<path d="M74.18 39.7361C73.57 38.8911 67.2999 40.8411 66.7599 42.0781C66.4899 42.6991 66.82 45.3171 67.19 45.8751C67.29 46.0371 67.56 46.3441 67.75 46.3951C68.14 46.4971 75.31 44.7291 75.44 44.5371C76.3 43.3091 74.87 40.6901 74.18 39.7361Z" fill="black"/>
<path d="M44.3202 33.7917C45.9502 33.5267 51.3402 33.3847 52.4002 34.7777C53.2702 35.9137 52.7402 37.8707 52.6602 39.1417C52.6102 39.9897 52.9803 42.3287 52.2403 42.9287C51.6103 43.4507 49.8402 42.9827 49.0602 43.0717C48.2102 43.1677 44.5002 43.4357 43.9202 43.0497C43.3202 42.6477 43.5302 41.4727 43.6102 40.9167C43.8302 39.3947 43.9102 38.0137 43.8402 36.4757C43.8002 35.6157 43.4802 34.8867 43.7102 34.0347" fill="black"/>
<path d="M30.47 40.187C31.38 40.16 32.94 40.725 33.71 39.989C34.21 39.512 33.83 34.315 33.45 34.032C32.5 33.322 29.95 33.587 28.81 33.617C27.61 33.648 25.7 33.6 24.89 34.631C24.54 35.076 24.54 39.554 24.76 39.764C25.22 40.207 26.27 39.997 26.86 39.979" fill="black"/>
</svg>
