<svg width="100" height="100" viewBox="0 0 100 100" fill="none" xmlns="http://www.w3.org/2000/svg">
<path d="M72.229 70.5361L70.817 81.022C70.817 81.022 56.3537 83.4874 66.258 82.6663C71.4088 82.2393 77.2949 80.9931 79.3223 80.4018C87.4519 78.0306 89.5784 73.7955 80.4945 71.7201C75.0552 70.4773 72.229 70.5361 72.229 70.5361Z" fill="black"/>
<path d="M79.6875 19.9698L71.0145 81.0376L63.1981 82.3067C64.0402 73.9793 65.2886 64.9715 66.6359 56.0553C68.4884 43.2698 70.7619 31.2413 73.288 19.8857C75.3931 19.9699 77.4982 19.9698 79.6875 19.9698Z" stroke="black" stroke-width="2" stroke-linejoin="round"/>
<path d="M71.9249 25.0941L65.626 24.3447C63.4367 34.6068 61.4158 45.3735 59.5633 56.645C58.0476 66.0659 56.7845 74.8671 55.7741 83.6992C58.216 83.2786 60.6579 82.8066 63.184 82.386C64.0261 73.8062 65.2049 65.3089 66.6364 56.0562C68.2363 45.2053 69.8198 34.8514 71.9249 25.0941Z" fill="black" stroke="black" stroke-width="2" stroke-linejoin="round"/>
<path d="M73.2041 19.9705L53.5846 15.0918L53.0044 18.6195" stroke="black" stroke-width="2" stroke-linejoin="round"/>
<path d="M79.6875 19.9705L60.1522 15.0918H53.5843" stroke="black" stroke-width="2" stroke-linejoin="round"/>
<path d="M56.1942 81.5431C57.1204 73.5522 58.2151 65.2247 59.5623 56.645C61.3306 45.2894 63.4357 34.5227 65.625 24.3447L44.6582 17.4473L43.9718 21.6571" stroke="black" stroke-width="2" stroke-linejoin="round"/>
<path d="M58.0469 27.793L64.7832 28.6341C62.9307 37.5503 61.1624 46.8872 59.5626 56.5604C58.0469 65.9813 56.7838 74.9918 55.7734 83.7397C53.3315 84.0762 49.6265 84.5708 47.2688 84.9073" stroke="black" stroke-width="2" stroke-linejoin="round"/>
<path d="M72.3623 25.1857L49.7115 17.8677L44.6593 17.5312" stroke="black" stroke-width="2" stroke-linejoin="round"/>
<path d="M47.3357 84.8523C39.5889 81.6559 33.1228 77.2527 25.376 74.0564C26.9759 65.3084 28.4916 56.7286 30.1756 47.8124C31.9439 38.7279 33.7122 29.8117 35.4805 20.8955C42.9746 23.1666 50.4688 25.4377 57.9629 27.793C56.1104 36.1204 54.4263 44.7842 52.9107 53.8687C51.1424 64.299 48.5145 75.1791 47.3357 84.8523Z" stroke="black" stroke-width="2" stroke-linejoin="round"/>
<path d="M51.1421 37.466C51.1421 37.466 51.8999 36.0361 50.721 34.7743C49.7106 33.7649 40.1114 31.0732 40.1114 31.0732C40.1114 31.0732 37.9221 31.0733 37.5852 33.3444C37.4168 34.522 35.0591 45.0364 35.0591 45.0364C35.0591 45.0364 35.0591 46.5505 35.9854 46.7187C36.9116 46.8869 46.4266 50.2516 46.4266 50.2516C46.4266 50.2516 47.9423 50.4198 48.3633 48.4851C48.6159 47.2234 51.1421 37.466 51.1421 37.466Z" stroke="black" stroke-width="2" stroke-linejoin="round"/>
<path d="M64.7832 28.6341L42.1324 21.3161L35.5645 20.8955" stroke="black" stroke-width="2" stroke-linejoin="round"/>
</svg>
