<svg width="100" height="100" viewBox="0 0 100 100" fill="none" xmlns="http://www.w3.org/2000/svg">
<path d="M17.9696 58.7378C17.9696 58.7378 14.5838 58.2128 14.3851 61.1514C14.1865 64.5918 13.1271 66.3836 17.0336 67.3154C21.6022 68.3905 55.5024 72.2609 55.5024 72.2609" stroke="black" stroke-width="2" stroke-miterlimit="10"/>
<path d="M54.5762 63.0857C54.7086 66.0961 54.7748 67.7446 54.9072 70.7549C54.9072 71.3282 55.0397 71.9733 55.4369 72.1883C55.768 72.4034 56.1652 72.26 56.5625 72.1167C64.7727 68.8197 72.6519 62.369 80.2662 57.6385C82.1201 56.4918 81.9215 55.7448 81.9877 54.4132C82.0539 53.0816 81.9877 49.8569 81.9877 47.9934" stroke="black" stroke-width="2" stroke-miterlimit="10"/>
<path d="M57.0908 52.8841C57.157 53.8876 57.7271 62.543 57.7271 62.543L58.2166 63.1584C58.5476 63.3734 58.9449 63.23 59.3422 63.0867C67.5524 59.7897 71.5173 55.3578 79.6313 49.6877C81.4852 48.541 84.1715 45.885 84.3701 44.8815C84.6349 43.8781 84.5025 41.2262 84.4363 39.3626C84.4363 36.5674 84.2377 38.5026 84.1052 35.7073" stroke="black" stroke-width="2" stroke-miterlimit="10"/>
<path d="M58.2835 63.23C48.9477 62.3699 25.9061 59.5747 16.5703 58.5712C16.5703 58.5712 14.7826 58.5712 14.7826 55.7043C14.7826 52.6223 14.5839 47.8201 16.9013 47.5334" stroke="black" stroke-width="2" stroke-miterlimit="10"/>
<path d="M19.3504 45.0962C27.8254 39.9357 42.8554 27.1778 47.7551 28.1812C51.4629 28.9696 59.3087 29.8436 63.8444 30.5464C71.1595 31.6799 81.1918 33.1267 85.2307 33.6284C85.628 33.7001 85.7604 34.2735 85.4294 34.4885C77.484 39.7207 70.7966 44.8812 62.9175 50.2568C61.196 51.4035 60.0042 52.1203 58.0178 52.5503C56.6274 52.837 55.1707 52.837 53.7141 52.622C47.5564 51.6186 32.8575 50.6151 25.8391 49.6117L16.9005 48.0349C16.7019 47.9632 16.6357 47.6765 16.7681 47.5331L19.3504 45.0962Z" stroke="black" stroke-width="2" stroke-miterlimit="10"/>
<path d="M40.7287 41.9741C43.5076 40.282 48.4359 36.0988 50.0425 36.4278C51.2582 36.6863 53.8308 36.9729 55.3181 37.2033C57.7167 37.575 61.0062 38.0494 62.3306 38.2139C62.4608 38.2374 62.5043 38.4254 62.3957 38.4959C59.7904 40.2115 57.5977 41.9036 55.0141 43.6663C54.4497 44.0423 54.0589 44.2773 53.4076 44.4183C52.9517 44.5123 52.474 44.5123 51.9964 44.4418C49.9773 44.1128 45.1576 43.7838 42.8563 43.4547L39.9254 42.9377C39.8603 42.9142 39.8385 42.8202 39.882 42.7732L40.7287 41.9741Z" fill="black" stroke="black" stroke-width="2" stroke-miterlimit="10"/>
</svg>
