<svg width="100" height="100" viewBox="0 0 100 100" fill="none" xmlns="http://www.w3.org/2000/svg">
<path d="M40.4618 27.6846C39.8626 27.5848 27.3005 22.8121 20.9789 21.3915C19.7148 20.8744 19.7381 71.1292 20.4872 72.1279C21.2362 73.1267 40.4618 80.4923 41.2108 80.742C41.9597 80.9916 60.4363 72.2528 61.8095 72.1279C63.1828 72.0031 80.6605 80.9916 80.6605 79.6184C80.6605 78.2451 80.9102 28.5584 80.6605 27.6846C80.4108 26.8109 61.435 19.9443 60.4363 19.9443C59.4375 19.9443 41.2108 27.8094 40.4618 27.6846Z" stroke="black" stroke-width="2"/>
<path d="M40.835 28.1064V80.5763" stroke="black" stroke-width="2"/>
<path d="M61.625 20.4346V72.0381" stroke="black" stroke-width="2"/>
<path d="M20.7107 65.7119L40.6502 74.0415L61.8165 65.7119L80.5373 73.3443" stroke="black" stroke-width="2"/>
<path d="M26.363 41.5205V32.7484C26.363 32.1331 34.4399 34.7168 34.4399 35.2623V44.1262C34.4399 44.725 26.363 42.0969 26.363 41.5205Z" fill="black" stroke="black" stroke-width="2"/>
<path d="M56.0459 48.6904C56.1296 49.1927 56.632 53.63 56.0459 53.7974C55.4598 53.9648 46.5855 57.1462 46.5855 56.2253C46.5855 55.3829 46.2582 51.9012 46.5017 51.2021C46.5245 51.1369 46.5522 51.0959 46.5855 51.0835C49.9135 49.8449 55.9797 48.2929 56.0459 48.6904Z" fill="black"/>
<path d="M46.0833 51.8716C46.1199 51.858 46.5481 51.0974 46.5855 51.0835M46.5855 51.0835C49.9135 49.8449 55.9797 48.2929 56.0459 48.6904C56.1296 49.1927 56.632 53.63 56.0459 53.7974C55.4598 53.9648 46.5855 57.1462 46.5855 56.2253C46.5855 55.3043 46.1943 51.2286 46.5855 51.0835Z" stroke="black" stroke-width="2"/>
<path d="M66.731 36.9947C66.0907 36.7385 66.2487 33.4284 66.2487 30.6518C66.4134 29.1311 74.9725 32.5247 75.6128 32.8449C76.2531 33.165 75.6929 39.1355 75.6128 39.8558C75.5328 40.5761 67.5313 37.3149 66.731 36.9947Z" fill="black" stroke="black" stroke-width="2"/>
<path d="M29.6875 49.5186L35.5937 51.432" stroke="black" stroke-width="2" stroke-linecap="round"/>
<path d="M25.7314 48.416L26.2732 48.5623" stroke="black" stroke-width="2" stroke-linecap="round"/>
<path d="M29.418 54.4785L35.3241 56.392" stroke="black" stroke-width="2" stroke-linecap="round"/>
<path d="M25.4609 53.376L26.0027 53.5223" stroke="black" stroke-width="2" stroke-linecap="round"/>
<path d="M29.418 59.4385L35.3241 61.3519" stroke="black" stroke-width="2" stroke-linecap="round"/>
<path d="M25.4609 58.3359L26.0027 58.4822" stroke="black" stroke-width="2" stroke-linecap="round"/>
<path d="M47.0146 34.12C47.2218 34.037 51.0278 32.3284 52.9498 32.087C54.8717 31.8456 55.1717 31.3324 56.0112 31.0479" stroke="black" stroke-width="2" stroke-linecap="round"/>
<path d="M46.9004 38.7154C47.8661 38.452 49.9423 37.8988 50.5217 37.7935C51.2461 37.6619 53.4188 36.2792 54.7357 36.3451" stroke="black" stroke-width="2" stroke-linecap="round"/>
<path d="M47.2295 43.0075C47.6492 42.7743 48.8803 42.252 50.4468 42.0283" stroke="black" stroke-width="2" stroke-linecap="round"/>
<path d="M47.6173 61.0018C48.9124 60.7427 51.7146 59.8215 52.4606 59.5107" stroke="black" stroke-width="2" stroke-linecap="round"/>
<path d="M47.6172 64.6216C48.9123 64.3625 55.0335 62.471 55.7794 62.1602" stroke="black" stroke-width="2" stroke-linecap="round"/>
<path d="M56.0107 58.7485C57.3059 58.4895 56.5708 58.5579 57.3168 58.2471" stroke="black" stroke-width="2" stroke-linecap="round"/>
<path d="M66.8877 43.8965C68.2705 44.2175 69.3997 44.4994 71.2083 45.4539C73.0169 46.4084 75.5288 46.6093 75.8268 46.7286" stroke="black" stroke-width="2" stroke-linecap="round"/>
<path d="M66.8652 48.5156C68.248 48.8366 68.188 49.2745 70.5523 49.6395C72.9166 50.0046 74.8728 50.795 75.1707 50.9142" stroke="black" stroke-width="2" stroke-linecap="round"/>
<path d="M66.2314 52.7021C67.6142 53.0231 66.6296 53.4117 68.994 53.7768C71.3583 54.1418 71.8034 54.6107 72.1014 54.7299" stroke="black" stroke-width="2" stroke-linecap="round"/>
<path d="M20.6055 72.1521V65.8369L40.9768 74.2744L62.0272 65.8369L80.4294 73.2384V79.7573L62.0272 72.1521L40.9768 80.9117L20.6055 72.1521Z" fill="black"/>
</svg>
