<svg width="100" height="100" viewBox="0 0 100 100" fill="none" xmlns="http://www.w3.org/2000/svg">
<path d="M74.389 56.7283C74.389 56.7283 73.709 64.1783 72.599 64.6463C72.279 64.7823 66.0689 66.8423 60.1689 68.8393" stroke="black" stroke-width="2" stroke-miterlimit="10" stroke-linecap="round"/>
<path d="M51.9192 71.5773C51.9192 71.5773 42.8593 73.9833 41.8193 73.4033C38.9393 71.8103 41.5792 65.5893 41.9192 64.7263C42.4392 63.4233 42.9593 62.6473 44.9593 62.2313C48.8893 61.4143 71.9993 57.0783 73.8793 56.5363C75.7593 55.9953 79.0293 54.2673 76.9793 51.2533C74.9293 48.2393 68.0492 34.8833 67.4192 33.5933C64.8092 28.3173 61.6293 21.3413 59.4693 21.0203C57.1493 20.6743 33.5992 24.8453 29.6792 26.3683C25.7492 27.8913 20.6493 35.4003 22.3293 39.2633C22.8593 40.4813 24.4793 44.0213 24.4793 44.0213" stroke="black" stroke-width="2" stroke-miterlimit="10" stroke-linecap="round"/>
<path d="M33.1592 64.2227C33.1592 64.2227 35.9992 71.2007 36.4792 72.3347C36.8392 73.1907 38.4692 76.9787 42.2792 76.5177C45.9092 76.0767 49.1193 75.5706 51.6193 74.8466" stroke="black" stroke-width="2" stroke-miterlimit="10" stroke-linecap="round"/>
<path d="M60.2393 72.0019C64.1293 70.9059 70.5892 68.6119 71.5792 68.1039C72.5792 67.5949 76.4192 66.9749 75.7892 65.3099C75.1592 63.6459 74.6392 63.2699 73.7792 62.0459" stroke="black" stroke-width="2" stroke-miterlimit="10" stroke-linecap="round"/>
<path d="M46.959 66.5853L62.0389 63.4543" stroke="black" stroke-width="2" stroke-miterlimit="10" stroke-linecap="round"/>
<path d="M50.209 66.2593C50.209 66.2593 52.459 68.8253 52.209 71.5783C52.119 72.6063 51.689 75.0273 51.689 75.0273C51.689 75.0273 51.579 78.7273 52.049 78.0023C53.119 76.3253 55.769 73.3503 55.769 73.3503C55.769 73.3503 59.069 76.8333 59.179 75.2233C59.229 74.6373 60.499 70.7423 59.809 68.4593C59.129 66.1753 57.769 64.3673 57.769 64.3673L50.209 66.2593Z" stroke="black" stroke-width="2" stroke-miterlimit="10" stroke-linecap="round" stroke-linejoin="round"/>
<path d="M27.2793 49.6553L30.6094 57.6933" stroke="black" stroke-width="2" stroke-miterlimit="10" stroke-linecap="round"/>
<path d="M31.3693 25.8428C31.3693 25.8428 28.0693 26.5748 29.6293 31.0498C29.7993 31.5568 31.0093 34.6278 31.0093 34.6278C31.0093 34.6278 31.9392 35.9508 32.5792 37.5488C33.2192 39.1458 33.5592 41.0178 33.5592 41.0178C33.5592 41.0178 35.1193 44.8228 37.0193 49.4648C37.0193 49.4648 38.0393 50.6488 38.6293 52.0888C39.2193 53.5288 39.3793 55.2248 39.3793 55.2248C40.4193 57.7558 41.1692 59.5868 41.1692 59.5868C41.1692 59.5868 42.3592 63.4248 45.1892 62.1638" stroke="black" stroke-width="2" stroke-miterlimit="10" stroke-linecap="round"/>
<path d="M30.6592 58.4936C31.1992 55.7616 31.7492 55.4796 33.2992 52.9226C34.8392 50.3656 37.0292 49.5586 37.0292 49.5586C37.0292 49.5586 38.0193 50.6346 38.6093 52.0616C39.1993 53.4876 39.3793 55.2636 39.3793 55.2636C39.3793 55.2636 37.6492 56.1126 35.7792 58.7636C35.0892 59.7356 34.0692 61.4426 33.1892 63.3736C32.6292 64.5856 30.1292 61.1636 30.6592 58.4936Z" stroke="black" stroke-width="2" stroke-miterlimit="10" stroke-linecap="round"/>
<path d="M24.7294 43.5103C25.0994 41.5493 29.6693 34.3853 30.7993 34.9933C31.4793 35.3633 32.1794 36.2513 32.7294 37.7893C33.2794 39.3283 33.5393 41.0243 33.1693 41.4173C32.8993 41.6993 31.7593 42.4793 30.2193 44.5073C28.6693 46.5363 27.6794 49.5103 26.9894 49.3463C25.8694 49.0783 24.3594 45.4853 24.7294 43.5103Z" stroke="black" stroke-width="2" stroke-miterlimit="10" stroke-linecap="round"/>
<path d="M59.8193 68.7184C61.9493 67.9694 64.1394 67.3974 66.2694 66.6484C67.7194 66.1404 69.1694 65.5734 70.6294 65.1154C71.2394 64.9244 72.6393 64.6274 73.0493 64.1164C73.2893 63.8174 73.1993 63.2014 73.5293 62.9564C74.6493 62.1354 76.5593 66.0084 75.6693 67.0554C73.9693 69.0504 66.6393 70.6264 63.9293 71.6774C63.2293 71.9494 60.9093 72.8224 60.2793 72.0474C59.8893 71.5804 60.1893 70.3514 60.3093 69.8324" fill="black"/>
<path d="M28.6892 27.3809C24.5192 29.3919 21.6893 33.4949 22.6393 38.2859C22.7593 38.9029 24.1792 42.7608 24.6692 42.8168C25.1192 42.8688 27.1292 38.9829 27.5292 38.3499C28.5292 36.7249 29.4092 36.2139 30.4292 34.7489C30.4292 34.7489 30.7893 32.1919 29.6093 30.9079" fill="black"/>
<path d="M33.3491 41.4413C33.3491 41.4413 27.989 46.9763 27.559 49.2153C27.319 50.4573 28.2291 52.3713 28.7691 53.4673C29.0291 53.9873 30.1891 57.4953 30.3791 57.5003C31.0691 57.5193 32.899 53.5143 33.409 52.8233C34.499 51.3673 36.1591 50.6883 36.0991 48.9673C35.9891 45.8023 36.1591 47.3263 34.8691 43.7613" fill="black"/>
<path d="M39.349 56.2188C35.829 58.4058 33.259 60.8158 33.469 64.2538C33.629 66.9008 35.709 69.3268 36.849 71.5968C37.739 73.3698 38.6091 75.8848 40.8691 76.3618C43.3791 76.8938 45.839 75.5807 48.319 75.4297C49.109 75.3807 50.629 75.6848 51.299 75.1978C51.789 74.8478 52.579 72.5197 52.349 71.9557C52.069 71.2817 49.729 72.1718 49.229 72.3408C47.149 73.0408 41.229 74.5978 40.779 71.1438C40.229 66.9208 44.569 63.4697 41.719 60.1217" fill="black"/>
<path d="M47.2793 40.9562C47.6393 40.6372 53.6594 39.2192 54.0994 39.2472" stroke="black" stroke-width="2" stroke-miterlimit="10" stroke-linecap="round"/>
<path d="M42.5093 37.154C46.4193 35.231 51.4592 34.949 55.6592 33.832" stroke="black" stroke-width="2" stroke-miterlimit="10" stroke-linecap="round"/>
</svg>
