<svg width="100" height="100" viewBox="0 0 100 100" fill="none" xmlns="http://www.w3.org/2000/svg">
<path d="M77.5711 38.3715C77.8191 35.2051 75.3169 34.1061 72.8569 33.9986C69.172 34.1395 25.8308 34.6434 21.7488 34.7388C17.6668 34.8342 16.5241 35.9706 16.5533 38.4585C16.5826 40.9464 16.2349 62.8753 16.0775 67.3738C15.92 71.8722 16.8757 73.3493 20.3701 73.3978C23.8645 73.4463 65.5416 73.6172 70.5564 73.7897C75.5712 73.9622 76.0651 73.0934 76.1652 70.5399C76.2652 67.9863 77.2611 42.3294 77.5711 38.3715Z" stroke="black" stroke-width="2"/>
<path d="M75.2318 34.4815C77.9929 35.8461 83.5494 37.8864 84.0016 39.1691C84.5668 40.7725 84.0792 42.2052 84.2232 45.972C84.3673 49.7388 83.5674 67.7509 83.6294 69.3735C83.6915 70.9961 76.7565 72.7095 74.7679 73.4239" stroke="black" stroke-width="2"/>
<path d="M62.7625 51.0913C57.1007 51.3078 54.2068 57.1324 54.9202 62.2749C55.5107 66.1297 59.1344 70.1405 64.2166 69.8101C69.2987 69.4798 72.1295 64.3378 71.9528 59.719C71.8438 56.8662 68.9557 50.8545 62.7625 51.0913Z" stroke="black" stroke-width="2"/>
<path d="M63.0193 54.9296C59.678 55.0573 57.9702 58.4947 58.3912 61.5295C58.7397 63.8043 60.8782 66.1713 63.8774 65.9763C66.8766 65.7814 68.5471 62.7469 68.4429 60.0211C68.3785 58.3376 66.6741 54.7898 63.0193 54.9296Z" fill="black" stroke="black" stroke-width="2"/>
<path d="M28.556 50.7136C22.8942 50.9301 20.0002 56.7547 20.7137 61.8972C21.3041 65.752 24.9278 69.7628 30.01 69.4325C35.0922 69.1021 37.9229 63.9601 37.7463 59.3413C37.6372 56.4885 34.7492 50.4768 28.556 50.7136Z" stroke="black" stroke-width="2"/>
<path d="M28.8118 54.5519C25.4705 54.6797 23.7627 58.117 24.1837 61.1518C24.5322 63.4266 26.6707 65.7936 29.6699 65.5987C32.6691 65.4037 34.3396 62.3692 34.2354 59.6434C34.171 57.9599 32.4666 54.4122 28.8118 54.5519Z" fill="black" stroke="black" stroke-width="2"/>
<path fill-rule="evenodd" clip-rule="evenodd" d="M35.397 37.9966C35.1494 39.578 34.8632 43.3716 35.6095 43.5526C36.3558 43.7337 55.6416 43.8156 55.9301 43.3329C56.2055 42.8721 56.03 38.4733 55.9998 37.7147L55.9965 37.632C55.9865 37.3704 35.5081 37.1965 35.397 37.9966ZM40.121 40.7334C40.1296 40.1812 39.6889 39.7266 39.1367 39.718C38.5845 39.7094 38.1298 40.1501 38.1212 40.7023L38.087 42.8978L40.0867 42.9289L40.121 40.7334ZM42.1498 40.5511C42.7018 40.5706 43.1334 41.0338 43.1139 41.5857L43.0636 43.0119L41.0649 42.9414L41.1152 41.5152C41.1347 40.9633 41.5979 40.5316 42.1498 40.5511ZM45.9636 40.3908C45.9657 39.8386 45.5196 39.3892 44.9673 39.3871C44.4151 39.385 43.9657 39.831 43.9636 40.3833L43.9537 43.008L45.9537 43.0155L45.9636 40.3908ZM47.7209 40.4408C48.2728 40.4197 48.7373 40.85 48.7584 41.4019L48.8173 42.9407L46.8187 43.0172L46.7599 41.4783C46.7388 40.9264 47.1691 40.4619 47.7209 40.4408ZM51.4805 41.8459C51.4601 41.294 50.9962 40.8632 50.4443 40.8836C49.8924 40.904 49.4615 41.3679 49.4819 41.9198L49.5223 43.0122L51.5209 42.9383L51.4805 41.8459Z" fill="black"/>
<path d="M50.886 62.7482C51.2484 62.6489 51.2771 58.879 51.1827 56.9421C51.1622 56.489 41.9092 56.8428 41.5981 56.8547L41.5978 56.8547C41.2931 56.8663 41.233 62.4765 41.3955 62.7373C41.5581 62.9981 50.433 62.8724 50.886 62.7482Z" stroke="black" stroke-width="2"/>
<path d="M47.329 59.9467C47.3806 61.2958 48.6096 62.3441 50.074 62.2881C51.5384 62.2321 51.3404 61.1444 51.2888 59.7953C51.2372 58.4462 51.3516 57.3465 49.8872 57.4025C48.4227 57.4585 47.2774 58.5976 47.329 59.9467Z" fill="black"/>
<path d="M44.915 59.7365C44.9666 61.0856 43.8212 62.2247 42.3568 62.2807C40.8923 62.3367 41.0068 61.2371 40.9552 59.8879C40.9036 58.5388 40.7055 57.4511 42.1699 57.3951C43.6344 57.3391 44.8634 58.3874 44.915 59.7365Z" fill="black"/>
<path d="M41.9995 52.7546C45.0215 52.7972 51.0953 52.7317 51.3832 52.7207" stroke="black" stroke-width="2" stroke-linecap="round"/>
<path d="M16.9761 47.218L76.88 46.9382" stroke="black" stroke-width="2" stroke-linecap="round"/>
<ellipse cx="23.5868" cy="41.0114" rx="1.14641" ry="1.0559" transform="rotate(-2.1898 23.5868 41.0114)" fill="black"/>
<ellipse cx="63.0809" cy="40.8685" rx="1.14641" ry="1.0559" transform="rotate(-2.1898 63.0809 40.8685)" fill="black"/>
<ellipse cx="28.1688" cy="40.8582" rx="1.14641" ry="1.0559" transform="rotate(-2.1898 28.1688 40.8582)" fill="black"/>
<ellipse cx="67.663" cy="40.7155" rx="1.14641" ry="1.0559" transform="rotate(-2.1898 67.663 40.7155)" fill="black"/>
<ellipse cx="72.1703" cy="40.6992" rx="1.14641" ry="1.0559" transform="rotate(-2.1898 72.1703 40.6992)" fill="black"/>
<path d="M35.609 43.5527C34.8627 43.3717 35.1489 39.5782 35.3965 37.9967C35.5076 37.1967 55.986 37.3705 55.996 37.6322C56.0119 38.0468 56.2181 42.8504 55.9296 43.333C55.6411 43.8157 36.3553 43.7338 35.609 43.5527Z" stroke="black" stroke-width="2" stroke-linecap="round"/>
<path d="M83.5338 39.5746L77.4772 35.9646L77.1423 43.6192L75.8702 72.5L79.382 71.7048L83.5792 68.9007L83.7058 65.1782L84.2976 40.7846L83.5338 39.5746Z" fill="black"/>
<path d="M31.0461 34.2863C31.9809 32.0306 34.1514 27.3692 35.355 26.7691C36.8595 26.019 59.9648 25.8761 61.344 26.2333C62.4473 26.5191 65.8371 31.7086 66.7025 33.8931" stroke="black" stroke-width="2"/>
<path d="M36.5151 26.4956C37.2335 27.0588 38.3881 28.0462 39.4301 27.9837C40.7325 27.9056 57.1264 27.9868 57.7954 27.7518C58.3305 27.5639 59.8869 26.8603 60.2924 26.2731" stroke="black" stroke-width="2"/>
<path d="M34.5587 34.2119C35.5121 32.207 37.8395 28.0982 38.6964 28.0054" stroke="black" stroke-width="2" stroke-linecap="round"/>
<path d="M58.2051 27.6572C61.1836 28.3243 63.1818 33.6081 63.1818 33.6081" stroke="black" stroke-width="2" stroke-linecap="round"/>
</svg>
