<svg width="100" height="100" viewBox="0 0 100 100" fill="none" xmlns="http://www.w3.org/2000/svg">
<path d="M56.9065 39.4934C38.7754 38.96 30.1681 40.3941 22.416 43.8247C12.7607 48.0974 18.968 54.6321 27.7305 56.9278C36.493 59.2235 57.9414 61.8636 71.9352 56.1243C85.929 50.385 78.3423 45.0873 76.2498 43.8246C74.5758 42.8145 69.7367 40.4955 63.4566 39.9621" stroke="black" stroke-width="2"/>
<path d="M17.615 49.5189C17.3102 59.8827 22.3545 75.2348 34.4625 80.2328C47.0588 85.4325 59.8761 81.7447 61.9425 81.0873C64.0089 80.4298 79.7512 73.9361 80.1408 49.4509" stroke="black" stroke-width="2"/>
<path d="M53.8637 59.6232C55.5958 58.7571 57.2462 56.3528 57.6231 53.2839C58.1827 48.7277 56.5856 47.6735 59.4464 43.9651C62.3072 40.2566 81.2786 27.1534 82.3382 22.4914C83.3977 17.8294 77.6254 15.2612 74.2349 18.4398C70.8443 21.6185 57.7177 40.534 53.2676 42.547C48.8175 44.56 44.1636 42.2984 38.8235 47.3842C33.4833 52.4701 34.607 56.6175 35.1165 58.7571" stroke="black" stroke-width="2"/>
<path d="M27.0776 67.2427C28.7118 70.8614 30.5212 72.4956 32.2167 73.8337" stroke="black" stroke-width="2" stroke-linecap="round"/>
<path d="M25.0264 62.3345C25.0736 62.8231 25.2913 63.4315 25.5939 63.8476" stroke="black" stroke-width="2" stroke-linecap="round"/>
<path d="M39.5021 39.7869C43.3052 39.4988 52.4193 39.3787 56.5009 39.3547L54.7002 41.6597L51.1707 43.3884L43.8958 44.5408L39.9342 46.5576L36.1167 50.5912L34.8202 54.5528L35.1803 58.5144L27.1131 56.7857L21.7109 54.5528L18.3256 51.3115L17.5332 48.2863L19.8381 45.117L26.3208 42.3799C29.1299 41.6357 35.6989 40.075 39.5021 39.7869Z" fill="black"/>
<path d="M72.946 42.2571C70.9889 41.3194 66.3548 40.3714 64.2823 40.0146L61.3264 42.2571L58.3705 45.7736L57.8609 50.8189L57.0964 55.7624L55.1089 59.2788H59.0331L68.1555 57.4441L77.3289 53.418L79.6732 50.8189L80.2847 48.7804L78.8068 45.7736C77.6686 44.9921 74.903 43.1948 72.946 42.2571Z" fill="black"/>
<path d="M79.1941 52.0845C79.7245 56.3861 77.1763 67.9364 72.5027 73.0707C66.9318 79.1909 62.716 81.6679 53.0576 82.7744" stroke="black" stroke-width="2" stroke-linecap="round"/>
</svg>
