<svg width="100" height="100" viewBox="0 0 100 100" fill="none" xmlns="http://www.w3.org/2000/svg">
<path d="M55.9851 43.3249C51.4951 39.0549 44.6651 36.5649 38.1851 36.8249C32.3251 37.0649 26.8351 39.6149 23.1151 43.8249C18.9651 48.5249 17.1251 55.1149 17.7751 62.8849C18.2451 68.4449 20.4251 72.8749 24.2551 76.0749C29.4051 80.3749 36.5251 81.5149 41.1751 81.5149C42.0251 81.5149 42.7951 81.4749 43.4451 81.4149C54.8151 80.3149 62.3651 70.9849 62.2251 58.1949C62.1651 52.2849 60.0051 47.1449 55.9851 43.3249ZM23.7451 66.4949C23.5551 66.6749 23.3051 66.7649 23.0651 66.7649C22.7951 66.7649 22.5251 66.6549 22.3351 66.4449C20.6951 64.6749 20.7451 61.2349 20.7551 60.8549C20.7751 60.3049 21.2451 59.8449 21.7851 59.8849C22.3351 59.9049 22.7751 60.3649 22.7551 60.9149C22.7351 61.7349 22.8751 64.0949 23.8051 65.0849C24.1851 65.4849 24.1551 66.1249 23.7551 66.4949H23.7451ZM32.8851 42.0849C28.9151 43.7249 24.4051 47.7249 23.2851 52.9549C23.1851 53.4249 22.7651 53.7449 22.3051 53.7449C22.2351 53.7449 22.1651 53.7449 22.0951 53.7249C21.5551 53.6049 21.2151 53.0749 21.3251 52.5349C22.6851 46.1949 27.9851 41.9449 32.1151 40.2449C32.6251 40.0349 33.2151 40.2749 33.4251 40.7849C33.6351 41.2949 33.3951 41.8849 32.8851 42.0949V42.0849ZM35.3851 47.9149C35.4051 47.1149 35.8151 46.5049 36.6151 46.1149C37.2051 45.8249 37.9251 45.6849 38.6651 45.6849C39.7151 45.6849 40.7951 45.9749 41.5551 46.5249C42.3051 47.0649 42.6251 47.7849 42.5051 48.6549C42.2151 50.6749 40.1951 51.6149 38.4651 51.4649C37.7251 51.4049 35.3151 50.9649 35.3851 47.9249V47.9149ZM42.8551 58.4449C42.5251 60.4049 40.9151 60.4149 40.2351 60.3249C38.7751 60.1349 37.2951 59.0149 37.4251 57.6449C37.4951 56.8349 37.8951 56.2649 38.5951 55.9549C38.9651 55.7949 39.3851 55.7149 39.8251 55.7149C40.6251 55.7149 41.4651 55.9749 42.0651 56.4449C42.7251 56.9649 42.9951 57.6349 42.8551 58.4349V58.4449ZM52.3751 53.3149C51.5451 54.6049 49.6851 54.6249 48.3651 53.9049C47.8051 53.5949 46.5751 52.7249 47.2451 51.2449C47.5051 50.6749 48.0351 50.3649 48.8251 50.3249C50.1951 50.2649 51.8351 51.0449 52.4051 52.0349C52.6651 52.4849 52.6551 52.8749 52.3751 53.3149Z" fill="black"/>
<path d="M59.6651 50.8348C59.6651 50.8348 63.2151 44.7948 63.5851 42.4948C63.9551 40.1948 65.0051 33.8748 63.1551 29.5048C61.1351 24.7148 62.7851 19.1148 68.3851 19.0248C73.9951 18.9348 77.3851 22.1248 74.4551 30.0548C72.3251 35.8348 73.7851 39.5448 75.2551 43.4948C76.7251 47.4448 81.3551 56.2648 81.3551 61.9648C81.2651 68.5848 79.0051 76.2248 77.9951 77.7348C74.4251 83.1048 63.1151 80.6548 60.8451 78.3848C58.9951 76.5348 58.7451 69.4848 58.7451 69.4848" stroke="black" stroke-width="2" stroke-linejoin="round"/>
<path d="M64.5649 36.8249L73.2749 36.4949L73.9649 40.9549L64.0249 41.3149L64.5649 36.8249Z" fill="black" stroke="black" stroke-width="2" stroke-linejoin="round"/>
</svg>
