<svg width="100" height="100" viewBox="0 0 100 100" fill="none" xmlns="http://www.w3.org/2000/svg">
<path d="M49.0384 35.9258V55.0308C49.0384 55.0308 26.6706 63.882 26.036 63.5419C25.4013 63.2017 26.036 39.6633 26.036 38.9157C26.036 38.1682 35.5905 36.3395 35.5905 36.3395" stroke="black" stroke-width="2" stroke-linecap="round"/>
<path d="M52.7953 33.124L70.1123 36.8984V50.869M49.5615 55.0492L55.4786 56.6562" stroke="black" stroke-width="2" stroke-linecap="round"/>
<path d="M78.6676 78.5598C79.1942 79.282 78.6676 51.3535 78.6676 50.541C78.6676 49.7285 70.8291 36.8652 70.8291 36.8652" stroke="black" stroke-width="2" stroke-linecap="round"/>
<path d="M49.3271 55.917C49.3271 55.917 33.461 69.3576 33.4531 70.0993C33.4453 70.841 55.2226 79.4378 55.7304 78.9453" stroke="black" stroke-width="2" stroke-linecap="round"/>
<path d="M44.002 17.5471C44.2783 16.7681 65.3429 20.2761 65.8016 20.6613C66.2604 21.0465 70.7126 36.9512 70.7126 36.9512" stroke="black" stroke-width="2" stroke-linecap="round"/>
<path d="M33.6631 70.5176C33.6631 70.5176 33.9392 76.1353 34.4994 76.5123C35.0596 76.8893 47.883 82.0888 49.2771 82.6465C50.6713 83.2041 55.6247 79.3177 55.6247 79.3177" stroke="black" stroke-width="2" stroke-linecap="round"/>
<path d="M43.7845 17.6172C37.9693 20.9318 26.6289 30.7386 27.3064 30.9059C29.4779 31.4421 49.475 34.6615 50.5899 34.5554C51.7047 34.4492 65.8933 21.322 65.8933 21.322" stroke="black" stroke-width="2" stroke-linecap="round"/>
<path d="M78.6343 50.0342C78.6343 50.0342 56.411 52.3969 55.9001 53.7742C55.3891 55.1514 55.4098 81.37 56.5409 81.37C57.672 81.37 78.1504 79.371 78.6343 78.454" stroke="black" stroke-width="2" stroke-linecap="round"/>
<path d="M25.7745 39.0693C24.6632 39.8694 21.2198 42.0767 21.2197 42.9302C21.2197 43.9971 21.2197 61.0307 21.2197 61.9641C21.2197 62.7109 24.4846 63.1346 25.7745 63.5151" stroke="black" stroke-width="2" stroke-linecap="round"/>
<path d="M78.3533 56.1798C78.0463 56.6404 63.4521 58.2903 56.1934 59.0578C56.2097 57.3643 56.3749 53.9207 56.9047 53.6937C57.5669 53.4099 77.7444 50.7609 78.0488 51.0447C78.2924 51.2717 78.3533 54.5627 78.3533 56.1798Z" fill="black" stroke="black" stroke-width="2" stroke-linecap="round"/>
<path d="M60.8418 67.4414C62.9556 67.1975 69.5808 66.4051 70.9465 66.21" stroke="black" stroke-width="2" stroke-linecap="round"/>
<path d="M61.0332 71.7482C63.147 71.5043 65.822 71.7482 68.6199 70.8341" stroke="black" stroke-width="2" stroke-linecap="round"/>
<path fill-rule="evenodd" clip-rule="evenodd" d="M47.7374 29.4334C52.4071 29.4334 56.1926 27.4244 56.1926 24.9462C56.1926 22.468 52.4071 20.459 47.7374 20.459C43.0677 20.459 39.2822 22.468 39.2822 24.9462C39.2822 27.4244 43.0677 29.4334 47.7374 29.4334ZM44.6368 25.7964C44.9859 25.6986 45.2875 25.5516 45.5232 25.4279C45.6216 25.3762 45.7016 25.3328 45.7715 25.2947L45.7716 25.2947L45.7716 25.2947C45.8944 25.228 45.9864 25.178 46.0925 25.13C46.1972 25.0826 46.2511 25.0695 46.2719 25.0658C46.2794 25.0699 46.291 25.077 46.3076 25.089C46.3745 25.1377 46.4053 25.1726 46.4177 25.1885C46.4288 25.2027 46.4313 25.2097 46.4322 25.2119L46.4322 25.2121C46.4385 25.2291 46.4442 25.2491 46.4511 25.4202L46.4515 25.4301C46.4541 25.497 46.4597 25.6391 46.4893 25.7834C46.5237 25.9507 46.6048 26.2022 46.8204 26.4256C47.2465 26.8672 47.8342 26.843 48.128 26.8174C48.6052 26.7759 49.0352 26.5893 49.3701 26.4109C49.671 26.2506 49.9671 26.0563 50.2082 25.8979L50.2942 25.8415C50.5712 25.6603 50.7531 25.5488 50.8884 25.4896C51.3312 25.5969 51.8051 25.3893 52.0175 24.9645C52.2645 24.4706 52.0642 23.8699 51.5702 23.6229C50.9941 23.3348 50.4285 23.5126 50.1219 23.6422C49.7919 23.7817 49.4589 23.9981 49.1993 24.1678L49.114 24.2237L49.114 24.2237C48.8612 24.3894 48.6447 24.5313 48.4299 24.6457C48.4059 24.6585 48.3828 24.6704 48.3606 24.6816C48.3456 24.6274 48.3279 24.5719 48.3071 24.5157C48.1626 24.1268 47.8972 23.7721 47.4839 23.4715C47.1117 23.2008 46.703 23.0623 46.2725 23.0645C45.8695 23.0665 45.5238 23.192 45.2675 23.3081C45.0945 23.3864 44.8982 23.4927 44.7423 23.5772L44.7422 23.5773C44.6864 23.6074 44.6359 23.6348 44.5933 23.6572C44.3964 23.7606 44.2423 23.8299 44.0975 23.8705C43.5657 24.0194 43.2553 24.5712 43.4042 25.1031C43.5532 25.6349 44.105 25.9453 44.6368 25.7964ZM46.2616 25.0611C46.2616 25.061 46.2627 25.0613 46.2652 25.0624C46.2629 25.0618 46.2617 25.0613 46.2616 25.0611ZM50.967 25.461C50.9669 25.4613 50.9623 25.4627 50.954 25.4643C50.963 25.4614 50.9672 25.4607 50.967 25.461Z" fill="black"/>
<path d="M27.4482 30.9961C27.602 31.9189 28.7099 34.3871 29.1318 34.8089C29.8572 35.5342 44.4112 37.582 45.3244 37.582C46.053 37.582 49.1665 35.5823 50.5727 34.6376" stroke="black" stroke-width="2" stroke-linecap="round"/>
</svg>
