<svg width="100" height="100" viewBox="0 0 100 100" fill="none" xmlns="http://www.w3.org/2000/svg">
<path d="M24.1777 41.8018C24.0543 49.4376 23.8898 57.0735 23.7664 64.7094C23.7344 66.6139 23.7521 71.4815 23.7615 73.55C23.764 74.0842 24.1697 74.5197 24.7035 74.5411C29.8837 74.7487 55.069 75.7352 63.1358 75.6237C66.2645 75.6237 74.9062 73.4059 78.351 72.4874C79.2111 72.2581 79.8029 71.4846 79.8118 70.5945C79.8233 69.4378 79.8369 67.9034 79.8369 67.0916C79.8369 60.5762 79.7958 56.285 79.7958 49.7696" stroke="black" stroke-width="2" stroke-miterlimit="10"/>
<path fill-rule="evenodd" clip-rule="evenodd" d="M56.0079 75.5637C58.9215 75.6215 61.4171 75.6476 63.1358 75.6238C66.2645 75.6238 74.9062 73.406 78.351 72.4875C79.2111 72.2582 79.8028 71.4847 79.8117 70.5946C79.8148 70.2865 79.818 69.9516 79.8211 69.6107C85.41 70.6386 89.6601 71.9819 88.8265 73.6735C86.0811 76.6982 78.7197 76.6841 69.1242 76.6657C68.3646 76.6642 67.591 76.6627 66.8045 76.6627C63.425 76.6627 59.7345 76.2235 56.0079 75.5637Z" fill="black"/>
<path d="M62.7236 31.1367L62.8882 75.624" stroke="black" stroke-width="2" stroke-miterlimit="10"/>
<path d="M49.745 68.6102L57.3685 68.61" stroke="black" stroke-width="2" stroke-linecap="round"/>
<path d="M49.745 64.8797L57.3685 64.8796" stroke="black" stroke-width="2" stroke-linecap="round"/>
<path d="M10.7459 41.6057C9.89642 40.7527 25.7089 31.136 25.7089 31.136C25.7089 31.136 30.7177 30.8454 34.2555 31.2189C43.7172 32.2979 53.2611 32.2564 62.7228 31.1359C60.09 34.6634 52.6852 39.1038 52.6852 39.1038C52.6852 39.1038 47.188 43.0433 45.2957 43.0018C33.4069 43.0018 11.5954 42.4587 10.7459 41.6057Z" stroke="black" stroke-width="2" stroke-miterlimit="10"/>
<path d="M70.6702 51.701C69.1696 50.5609 63.4648 32.7207 63.4648 32.7207L65.5856 33.4298L73.779 52.0635C73.779 52.0635 72.1708 52.8411 70.6702 51.701Z" fill="black"/>
<path d="M63.7117 30.9287C64.5756 32.8791 65.9992 34.8113 67.5375 37.9836C68.9535 41.7046 68.9125 42.5252 70.5405 46.8644C70.6639 47.2794 72.3506 50.6409 72.6385 50.8899C72.9676 51.1388 73.379 51.0974 73.7904 51.0144C78.1921 50.1014 82.635 49.2299 87.0367 48.3169C87.2424 48.2754 87.4481 48.2339 87.5715 48.0679C87.8595 47.6944 87.5715 47.1549 87.3247 46.7399C84.5684 42.839 83.2109 37.5271 82.0179 32.7131C81.8534 32.0077 81.6065 31.2607 81.0718 30.8872C80.6192 30.5967 80.0844 30.5967 79.5497 30.5967C73.8727 30.8042 69.1007 30.2647 63.4648 31.0117" stroke="black" stroke-width="2" stroke-miterlimit="10"/>
<path d="M52.3853 28.6211L35.2254 30.3707L42.8634 31.3434H52.3853V28.6211Z" fill="black"/>
<path d="M25.5519 31.0745L52.3534 28.0684L81.0367 30.6882" stroke="black" stroke-width="2" stroke-miterlimit="10"/>
</svg>
