<svg width="100" height="100" viewBox="0 0 100 100" fill="none" xmlns="http://www.w3.org/2000/svg">
<path d="M19.306 31.0248C18.336 32.0858 19.986 60.4928 19.946 63.4518C19.926 64.5208 46.226 74.6358 48.476 74.4758C50.566 74.3268 75.9659 65.9458 77.2559 64.5218C78.5959 63.0408 79.7159 33.9338 78.3759 33.2638C73.8359 30.9958 51.0859 24.8798 49.2759 25.0018C46.2259 25.2068 20.416 29.8218 19.306 31.0248Z" stroke="black" stroke-width="1.95451" stroke-miterlimit="10" stroke-linecap="round"/>
<path d="M48.7058 74.0758C48.7058 74.0758 48.0157 64.5068 48.0157 56.0628C48.0057 47.6188 48.6858 40.2998 48.6858 40.2998" stroke="black" stroke-width="1.95451" stroke-miterlimit="10" stroke-linecap="round"/>
<path d="M40.5859 38.4882L48.6559 40.2312C48.6559 40.2312 52.4059 39.3772 59.5959 37.8072C66.7959 36.2372 77.4359 33.9512 77.4359 33.9512" stroke="black" stroke-width="1.95451" stroke-miterlimit="10" stroke-linecap="round"/>
<path d="M20.0664 31.9404L26.8964 34.4554" stroke="black" stroke-width="1.95451" stroke-miterlimit="10" stroke-linecap="round"/>
<path d="M65.3057 64.4693C67.6957 63.4723 70.4257 63.1673 72.9457 62.6133" stroke="black" stroke-width="1.95451" stroke-miterlimit="10" stroke-linecap="round"/>
<path d="M59.3057 62.1511C59.7257 62.2591 60.1557 62.0791 60.5557 61.9521" stroke="black" stroke-width="1.95451" stroke-miterlimit="10" stroke-linecap="round"/>
<path d="M64.7959 61.3003C67.2759 60.4183 70.0859 60.0083 72.6559 59.4443" stroke="black" stroke-width="1.95451" stroke-miterlimit="10" stroke-linecap="round"/>
<path d="M56.5655 26.7695C56.5655 26.7695 49.6154 27.8175 42.2554 29.7065C34.8854 31.5945 27.1055 34.3235 27.1055 34.3235C27.1055 34.3235 27.0454 44.7975 26.7554 47.9545C26.6854 48.8155 33.1655 45.4595 33.1655 45.4595C33.1655 45.4595 39.6155 53.4675 39.5955 52.4125C39.5455 49.9965 39.7055 38.3475 39.7055 38.3475C39.7055 38.3475 47.9255 34.8305 54.5255 32.5285C61.1255 30.2255 66.0955 29.1365 66.0955 29.1365L56.5655 26.7695Z" fill="black" stroke="black" stroke-width="1.95451" stroke-miterlimit="10" stroke-linecap="round" stroke-linejoin="round"/>
<path d="M48.7461 74.4261C48.7461 74.4261 74.8862 70.7691 79.5962 68.3361C84.2962 65.9041 77.5562 64.6631 77.5562 64.6631C77.5562 64.6631 71.3162 67.3941 64.1962 69.8221C57.0662 72.2501 48.7461 74.4261 48.7461 74.4261Z" fill="black" stroke="black" stroke-width="1.95451" stroke-miterlimit="10" stroke-linecap="round"/>
</svg>
