<svg width="100" height="100" viewBox="0 0 100 100" fill="none" xmlns="http://www.w3.org/2000/svg">
<path d="M31.924 41.6865C31.924 41.6865 25.021 52.2065 25.622 52.7665C26.222 53.3255 31.1531 56.6855 37.2891 55.7285" stroke="black" stroke-width="2" stroke-miterlimit="10" stroke-linecap="round" stroke-linejoin="round"/>
<path d="M26.4861 53.7422C26.4861 53.7422 24.7222 58.3212 23.9422 59.8132C23.1622 61.3052 22.0771 64.9002 22.0771 64.9002L24.7222 65.4772C24.7222 65.4772 26.8252 62.1532 27.6732 60.7962C28.5202 59.4402 30.7932 55.5062 30.7932 55.5062" stroke="black" stroke-width="2" stroke-miterlimit="10" stroke-linecap="round" stroke-linejoin="round"/>
<path d="M22.178 64.6975C22.178 64.6975 19.419 69.1985 19.148 69.9105C18.876 70.6225 16.683 72.7175 17.039 74.0395C17.395 75.3625 21.041 76.4485 21.394 74.9355C21.851 72.9795 22.178 71.7855 22.518 70.8355C22.857 69.8865 24.79 65.3075 24.79 65.3075" stroke="black" stroke-width="2" stroke-miterlimit="10" stroke-linecap="round" stroke-linejoin="round"/>
<path d="M19.96 69.7815L21.161 70.3165L22.058 70.9635" stroke="black" stroke-width="2" stroke-miterlimit="10" stroke-linecap="round" stroke-linejoin="round"/>
<path d="M37.61 25.7815C37.61 25.7815 32.985 26.8165 30.767 29.1435C28.549 31.4695 24.712 36.9285 26.427 37.2895C28.141 37.6515 30.411 36.1055 30.411 36.1055" stroke="black" stroke-width="2" stroke-miterlimit="10" stroke-linecap="round" stroke-linejoin="round"/>
<path d="M30.6771 36.1505C29.9931 35.4815 30.7881 32.9655 30.7881 32.9655C30.7881 32.9655 32.3041 32.2495 33.1041 31.6405C33.9051 31.0315 37.7241 30.0885 38.2341 31.7855C38.7431 33.4815 38.2161 35.6974 36.7241 36.5734C35.7851 37.1244 33.7411 35.1595 33.7411 35.1595C33.7411 35.1595 31.3621 36.8195 30.6771 36.1505Z" fill="black" stroke="black" stroke-width="2" stroke-miterlimit="10" stroke-linecap="round" stroke-linejoin="round"/>
<path d="M38.075 25.0155C37.628 21.9035 38.853 19.4615 41.044 19.0515C43.235 18.6405 45.487 20.7585 45.663 22.9965C45.838 25.2335 44.207 28.4645 42.28 28.6025C40.353 28.7405 38.521 28.1265 38.075 25.0155Z" stroke="black" stroke-width="2" stroke-miterlimit="10" stroke-linecap="round" stroke-linejoin="round"/>
<path d="M45.27 26.123C45.27 26.123 47.645 27.891 48.937 28.403C50.23 28.914 50.865 29.067 51.797 28.786C52.73 28.504 52.493 32.277 52.493 32.277C52.493 32.277 47.74 32.292 46.994 32.574C45.739 33.049 45.315 33.252 44.662 35.054C44.009 36.855 43.188 40.512 43.188 40.512C43.188 40.512 40.631 41.597 38.333 41.169C36.036 40.741 33.999 38.801 33.999 38.801L34.525 36.118" stroke="black" stroke-width="2" stroke-miterlimit="10" stroke-linecap="round" stroke-linejoin="round"/>
<path d="M34.1131 38.9629C34.1131 38.9629 31.3451 41.1089 31.9941 41.8549C32.6441 42.6009 35.4881 43.9209 37.5151 44.3329C39.5421 44.7449 43.9271 44.1499 43.9271 44.1499L43.1171 40.7439" stroke="black" stroke-width="2" stroke-miterlimit="10" stroke-linecap="round" stroke-linejoin="round"/>
<path d="M34.7324 49.3682C34.7324 49.3682 37.2194 55.0602 38.0464 56.2672C38.8724 57.4732 38.6864 58.8192 42.0714 58.3012C45.4554 57.7822 46.9274 56.4142 46.9274 56.4142C46.9274 56.4142 45.0844 48.5082 44.8394 47.7062C44.5954 46.9042 43.5474 44.2432 43.5474 44.2432" stroke="black" stroke-width="2" stroke-miterlimit="10" stroke-linecap="round" stroke-linejoin="round"/>
<path d="M54.6897 32.9287C54.6897 32.9287 53.3177 36.1467 52.5087 37.9367C51.6987 39.7267 50.9316 41.7297 50.9316 41.7297" stroke="black" stroke-width="2" stroke-miterlimit="10" stroke-linecap="round" stroke-linejoin="round"/>
<path d="M53.3188 43.5899L50.4919 41.5879L49.1079 44.7829C49.1079 44.7829 47.2088 46.3589 47.2628 48.1729C47.3168 49.9859 48.1748 52.1889 50.3308 52.2779C51.6178 52.3299 53.3378 49.9439 52.4288 49.6099C51.5208 49.2749 49.7678 48.0569 50.2408 47.1199" stroke="black" stroke-width="2" stroke-miterlimit="10" stroke-linecap="round" stroke-linejoin="round"/>
<path d="M51.96 49.0895C52.794 47.3315 52.258 45.6035 52.258 45.6035L53.42 43.4875" stroke="black" stroke-width="2" stroke-miterlimit="10" stroke-linecap="round" stroke-linejoin="round"/>
<path d="M53.4893 43.3914C53.4893 43.3914 56.0403 38.9954 57.2813 37.8364C58.0823 37.0874 59.0813 39.3534 59.0813 39.3534" stroke="black" stroke-width="2" stroke-miterlimit="10" stroke-linecap="round" stroke-linejoin="round"/>
<path d="M64.9093 40.7064C64.9093 40.7064 63.3753 38.4054 61.9263 38.6184C60.4773 38.8314 58.8153 39.2574 58.7733 41.4734C58.7303 43.6894 60.3073 44.4984 62.0113 44.4564C63.7163 44.4134 65.0373 44.4984 65.0373 44.4984L67.7213 44.7114L67.7643 41.0474L64.9093 40.7064Z" fill="black" stroke="black" stroke-width="2" stroke-miterlimit="10" stroke-linecap="round" stroke-linejoin="round"/>
<path d="M61.1699 44.5725L61.5599 47.6515C61.5599 47.6515 64.4249 48.2795 66.4319 47.9455C68.4389 47.6105 70.9859 47.9155 70.9859 47.9155L70.9259 44.8515" stroke="black" stroke-width="2" stroke-miterlimit="10" stroke-linecap="round" stroke-linejoin="round"/>
<path d="M61.6559 47.9502C61.6559 47.9502 56.9639 57.1882 56.5969 58.1662C56.2299 59.1442 57.5749 60.6922 59.3279 61.4672C61.0799 62.2412 64.2858 62.1232 64.2858 62.1232" stroke="black" stroke-width="2" stroke-miterlimit="10" stroke-linecap="round" stroke-linejoin="round"/>
<path d="M56.6618 59.3857C56.6618 59.3857 53.7698 63.1777 52.4898 65.4057C51.2098 67.6337 49.9298 70.0517 49.9298 70.0517C49.9298 70.0517 48.3188 73.4647 47.5128 74.3177C46.7068 75.1707 42.2508 77.5887 42.8668 78.4897C43.4838 79.3897 50.5468 78.4897 50.8308 77.2097C51.1148 75.9297 52.0158 74.1287 52.5848 72.9427C53.1538 71.7577 57.7508 65.9067 58.3678 64.8167C58.9838 63.7267 60.0898 61.8297 60.0898 61.8297" stroke="black" stroke-width="2" stroke-miterlimit="10" stroke-linecap="round" stroke-linejoin="round"/>
<path d="M48.0322 73.6504L51.2172 74.7544" stroke="black" stroke-width="2" stroke-miterlimit="10" stroke-linecap="round" stroke-linejoin="round"/>
<path d="M50.3242 69.416L53.0392 71.435" stroke="black" stroke-width="2" stroke-miterlimit="10" stroke-linecap="round" stroke-linejoin="round"/>
<path d="M64.3813 56.1694C64.3813 56.1694 64.2183 62.8524 65.4403 63.5864C66.6633 64.3194 69.9643 64.6454 71.2683 63.3014C72.5723 61.9564 74.2433 60.3664 74.2433 60.3664C74.2433 60.3664 73.5093 54.3764 72.9803 52.8274C72.4503 51.2794 70.6573 47.8154 70.6573 47.8154" stroke="black" stroke-width="2" stroke-miterlimit="10" stroke-linecap="round" stroke-linejoin="round"/>
<path d="M70.0518 64.3562C70.0518 64.3562 72.5888 67.7752 74.0588 69.6722C75.5278 71.5682 78.3248 73.7482 78.3248 73.7482C78.3248 73.7482 79.3677 77.0662 79.3197 78.0622C79.2727 79.0572 78.5617 81.9492 80.2207 81.7122C81.8797 81.4752 83.6338 78.4412 83.0648 76.8292C82.4958 75.2182 80.2678 71.7572 80.2678 71.7572L73.6298 61.2852" stroke="black" stroke-width="2" stroke-miterlimit="10" stroke-linecap="round" stroke-linejoin="round"/>
<path d="M79.3213 77.2411L81.9773 75.2471" stroke="black" stroke-width="2" stroke-miterlimit="10" stroke-linecap="round" stroke-linejoin="round"/>
<path d="M77.7581 73.1266L79.7661 71.1536" stroke="black" stroke-width="2" stroke-miterlimit="10" stroke-linecap="round" stroke-linejoin="round"/>
<path d="M54.7948 69.9268C54.7948 69.9268 58.7688 73.8348 58.8988 74.9098C59.0288 75.9848 57.4008 76.9618 55.7718 76.9618C54.1438 76.9618 52.8408 72.6298 52.8408 72.6298" stroke="black" stroke-width="2" stroke-miterlimit="10" stroke-linecap="round" stroke-linejoin="round"/>
<path d="M41.7188 58.5479C41.7188 58.5479 44.5598 61.7379 45.7408 63.4319C46.9228 65.1249 50.1638 69.1859 50.1638 69.1859" stroke="black" stroke-width="2" stroke-miterlimit="10" stroke-linecap="round" stroke-linejoin="round"/>
<path d="M46.2 56.8936C46.2 56.8936 48.0999 59.0996 49.7039 61.2006C51.3069 63.3016 52.4799 65.4946 52.4799 65.4946" stroke="black" stroke-width="2" stroke-miterlimit="10" stroke-linecap="round" stroke-linejoin="round"/>
<path d="M48.5469 67.2375L51.6589 64.1035" stroke="black" stroke-width="2" stroke-miterlimit="10" stroke-linecap="round" stroke-linejoin="round"/>
<path d="M65.3574 30.9917C65.3574 30.9917 66.9404 30.0817 67.8504 31.1597C68.7604 32.2377 72.0614 36.5507 72.6684 38.0667C73.2744 39.5827 74.9254 43.1197 73.2074 44.0637C71.4884 45.0067 67.9514 44.3327 67.9514 44.3327" stroke="black" stroke-width="2" stroke-miterlimit="10" stroke-linecap="round" stroke-linejoin="round"/>
<path d="M65.9971 35.2021C65.9971 35.2021 67.1761 36.5831 68.2541 38.0661C69.3321 39.5481 70.9161 40.6261 70.2761 41.0311C69.6351 41.4351 67.9511 41.9401 67.9511 41.9401" stroke="black" stroke-width="2" stroke-miterlimit="10" stroke-linecap="round" stroke-linejoin="round"/>
<path d="M30.7385 33.1064L28.1445 32.7334" stroke="black" stroke-width="2" stroke-miterlimit="10" stroke-linejoin="round"/>
<path d="M52.5047 28.6305C52.5047 28.6305 53.7627 27.3075 54.5377 26.8105C55.3127 26.3145 57.4017 26.8105 57.4257 28.0865C57.4517 29.4365 58.0637 31.3086 56.5997 31.8116C55.3367 32.2446 54.2407 33.2766 53.2167 32.4816C52.1927 31.6866 52.5047 28.6305 52.5047 28.6305Z" fill="black" stroke="black" stroke-width="2" stroke-miterlimit="10" stroke-linecap="round" stroke-linejoin="round"/>
<path d="M57.2482 27.6394C57.2482 27.6394 58.2752 25.3684 60.9662 25.1544C63.9172 24.9204 65.4902 27.7134 65.2622 30.0434C65.0332 32.3744 64.0542 34.5064 61.2412 34.7504C58.3072 35.0044 56.9912 31.9634 56.9912 31.9634" stroke="black" stroke-width="2" stroke-miterlimit="10" stroke-linecap="round" stroke-linejoin="round"/>
<path d="M52.06 42.628C51.913 42.678 51.811 42.438 51.669 42.374C51.288 42.2 50.7671 42.064 50.3801 42.296C50.2061 42.4 47.994 45.869 47.723 46.32C46.936 47.633 47.1551 51.462 49.0911 51.946C53.7071 53.101 51.525 47.915 52.06 45.773C52.141 45.45 53.781 42.046 52.06 42.628Z" fill="black"/>
<path d="M69.6952 40.9323L69.6152 40.6123L69.6952 40.9323Z" fill="black"/>
</svg>
