<svg width="100" height="100" viewBox="0 0 100 100" fill="none" xmlns="http://www.w3.org/2000/svg">
<path d="M30.8457 41.8511C31.0221 39.4599 31.974 33.8999 33.8555 33.1943C36.2074 32.3124 44.4393 32.6652 45.6741 33.6647C46.6619 34.4644 47.0265 38.7018 47.0853 40.7205" stroke="black" stroke-width="2"/>
<path d="M45.5766 67.5326C43.5645 68.3652 37.0966 68.8509 33.4193 67.5326C31.708 66.9191 28.0739 64.4142 27.3749 59.2768C26.7315 54.5465 27.4263 43.979 30.2055 42.3745C35.5896 39.2661 48.3078 41.3568 49.4937 41.7501C50.6797 42.1434 52.0682 43.6887 52.3976 44.912C52.7269 46.1352 53.7208 48.6618 53.7208 52.0599" stroke="black" stroke-width="2"/>
<path d="M53.4692 56.1064C53.371 53.5509 53.779 48.2336 56.1967 47.4081C59.2189 46.3762 66.6661 47.5287 67.4746 48.2927C68.2832 49.0568 69.0963 55.0745 69.0963 56.1064" stroke="black" stroke-width="2"/>
<path d="M49.3412 71.955C48.26 71.9305 46.0387 71.1147 45.8029 68.0483C45.5081 64.2153 46.6875 61.4142 47.6458 59.7188C48.604 58.0235 51.4051 55.1487 56.8599 55.0013C62.3146 54.8538 68.359 54.7063 70.7916 58.3182C73.2241 61.9302 73.3715 74.4612 71.8973 77.1886C70.423 79.916 67.0949 83.2705 59.1547 82.8486C53.2308 82.5338 51.5854 81.7246 50.4052 78.7741C48.8612 74.914 51.2892 67.0325 52.5423 64.8211" stroke="black" stroke-width="2" stroke-linecap="round"/>
<path d="M40.4883 32.7155C40.4883 32.7155 45.2953 19.1629 47.5393 17.2026C49.7833 15.2423 61.3604 46.9122 61.3604 46.9122" stroke="black" stroke-width="2" stroke-linecap="round"/>
<path d="M38.5157 36.0957C38.1966 35.7368 34.1296 36.0275 32.1213 36.8689L31.6729 38.3498C33.4233 37.4445 37.0929 37.4445 38.0434 37.4445H38.0437C38.4032 37.4444 38.9146 36.5443 38.5157 36.0957Z" stroke="black" stroke-width="2" stroke-linecap="round"/>
<path d="M60.8671 50.4902C61.1862 50.1314 65.2532 50.422 67.2615 51.2634L67.71 52.7443C65.9596 51.8391 62.2899 51.839 61.3394 51.839H61.3391C60.9796 51.839 60.4682 50.9389 60.8671 50.4902Z" stroke="black" stroke-width="2" stroke-linecap="round"/>
<path d="M48.2715 51.9224C49.0108 53.1272 49.502 55.9418 49.5677 57.4531" stroke="black" stroke-width="2" stroke-linecap="round"/>
<path d="M33.2168 56.0531C35.0552 54.8787 40.2405 55.2021 41.8691 55.8256" stroke="black" stroke-width="2" stroke-linecap="round"/>
<path d="M34.127 59.6413C35.9719 59.2416 38.2765 58.6941 40.4605 59.6409" stroke="black" stroke-width="2" stroke-linecap="round"/>
<path d="M58.1631 71.998C60.0015 70.8235 65.1868 71.1469 66.8154 71.7704" stroke="black" stroke-width="2" stroke-linecap="round"/>
<path d="M59.0732 75.5866C60.9182 75.1869 63.2228 74.6394 65.4067 75.5862" stroke="black" stroke-width="2" stroke-linecap="round"/>
<path d="M28.0925 46.4077C26.8786 51.0138 26.2486 62.0548 33.156 66.5314C35.3733 67.9683 40.7131 68.529 44.8769 67.7589" stroke="black" stroke-width="2" stroke-linecap="round"/>
<path d="M72.5532 64.8438C73.2681 72.1192 71.941 76.9975 69.3277 79.5786C65.8735 82.9901 55.5537 83.715 51.9033 81.0752" stroke="black" stroke-width="2" stroke-linecap="round"/>
<path d="M44.9889 67.4477C44.7163 65.5877 45.6837 60.5915 48.1851 57.8591C50.6865 55.1268 51.4721 55.0642 52.5625 54.8077C52.3691 53.251 52.8734 48.6899 54.5964 48.6899" stroke="black" stroke-width="2" stroke-linecap="round"/>
<circle cx="47.814" cy="19.8032" r="1.68408" fill="black"/>
</svg>
