<svg width="100" height="100" viewBox="0 0 100 100" fill="none" xmlns="http://www.w3.org/2000/svg">
<path d="M43.8945 78.4313C43.3945 77.8343 45.7845 71.4783 43.8545 70.8743C41.9245 70.2693 34.0845 73.6523 32.5045 71.3313C30.9345 69.0113 31.4145 65.1043 31.4145 65.1043C31.4145 65.1043 29.9445 64.6313 29.7345 63.8053C29.5345 62.9793 31.0045 61.8403 31.0045 61.8403C31.0045 61.8403 29.3845 61.5883 29.1345 60.3893C28.8845 59.1903 30.8845 57.3223 29.6045 57.0043C28.3245 56.6853 23.7744 57.5753 25.3144 53.8713C26.6844 50.5683 31.0745 44.4173 30.7245 42.8363C29.9445 39.3173 28.9945 33.8813 32.3745 28.6523C35.7445 23.4223 47.0845 15.9293 56.7745 18.5343C65.5245 20.8853 71.6545 25.5443 74.3845 34.2413C77.1145 42.9383 75.7945 50.1163 71.4245 55.8023C67.0545 61.4883 63.3245 65.3283 63.3345 70.7273C63.3345 76.1263 64.0544 76.8613 63.9344 78.0623C63.8544 78.8303 59.7945 80.4453 54.5445 80.5343C49.2845 80.6233 44.9745 79.7173 43.8945 78.4313Z" stroke="black" stroke-width="2" stroke-miterlimit="10" stroke-linecap="round" stroke-linejoin="round"/>
<path d="M61.9746 35.7723C61.9746 35.7723 65.5846 33.4683 67.9446 34.6513C70.3146 35.8333 71.2147 39.5323 70.6647 41.2653C70.1247 42.9973 69.4346 43.7873 69.4346 43.7873" stroke="black" stroke-width="2" stroke-miterlimit="10" stroke-linecap="round" stroke-linejoin="round"/>
<path d="M62.0947 30.1014C62.0947 30.1014 66.4347 29.6044 66.4347 34.2504" stroke="black" stroke-width="2" stroke-miterlimit="10" stroke-linecap="round" stroke-linejoin="round"/>
<path d="M42.9348 45.6713C42.9348 45.6713 40.1349 46.2683 38.6149 45.7873C36.0849 44.9843 36.4849 42.6333 36.1249 42.0543C35.7549 41.4523 33.3349 38.9813 33.4949 36.6613C33.6549 34.3423 36.7649 32.7763 36.7649 32.7763C36.7649 32.7763 37.2449 30.0733 38.8749 28.7763C40.5149 27.4793 43.3148 27.5873 43.3148 27.5873" stroke="black" stroke-width="2" stroke-miterlimit="10" stroke-linecap="round" stroke-linejoin="round"/>
<path d="M65.0849 43.6583C65.0849 43.6583 69.545 42.4193 69.775 44.5593C70.005 46.6993 68.6349 49.7373 66.4349 50.3263C65.2149 50.6513 63.5649 51.2463 63.5649 51.2463C63.5649 51.2463 63.925 54.7853 64.345 55.5143C64.765 56.2433 61.5049 59.4133 60.3349 57.0493C59.1649 54.6853 57.335 48.0063 55.245 47.0823C53.155 46.1583 51.3749 50.3743 47.5649 49.6633C42.0349 48.6303 43.255 43.3393 43.255 43.3393" stroke="black" stroke-width="2" stroke-miterlimit="10" stroke-linecap="round" stroke-linejoin="round"/>
<path d="M64.2045 54.985C64.2045 54.985 62.7445 49.108 62.5645 48.168" stroke="black" stroke-width="2" stroke-miterlimit="10" stroke-linecap="round" stroke-linejoin="round"/>
<path d="M52.6045 47.9063C52.6045 47.9063 54.4844 46.5773 55.1844 45.0093C55.8844 43.4423 55.6646 42.2463 55.6646 42.2463" stroke="black" stroke-width="2" stroke-miterlimit="10" stroke-linecap="round" stroke-linejoin="round"/>
<path d="M34.1143 39.085C35.5843 41.569 38.4143 41.823 40.0443 40.263" stroke="black" stroke-width="2" stroke-miterlimit="10" stroke-linecap="round" stroke-linejoin="round"/>
<path d="M43.4443 30.8742C43.4443 30.8742 43.1943 28.7302 43.9443 27.3492C44.7043 25.9682 45.1143 25.6813 46.7243 25.1043C49.0843 24.2633 53.2744 25.6163 54.2644 29.2783" stroke="black" stroke-width="2" stroke-miterlimit="10" stroke-linecap="round" stroke-linejoin="round"/>
<path d="M53.3945 26.9633C53.3945 26.9633 56.3545 24.8303 59.8845 26.9813C62.7145 28.7093 61.8245 31.7143 61.8245 31.7143" stroke="black" stroke-width="2" stroke-miterlimit="10" stroke-linecap="round" stroke-linejoin="round"/>
<path d="M63.5348 78.5583C63.5348 78.5583 57.3147 83.4864 45.4647 82.8474C39.1547 82.5074 32.5947 80.6433 36.3947 78.7323C39.2847 77.2773 43.6247 77.2303 43.6247 77.2303C43.6247 77.2303 42.0847 79.8033 48.9647 80.4473C50.8447 80.6243 52.8847 80.9283 57.7747 80.3223C61.6547 79.8403 63.5348 78.5583 63.5348 78.5583Z" fill="black" stroke="black" stroke-width="2" stroke-miterlimit="10" stroke-linecap="round" stroke-linejoin="round"/>
</svg>
