<svg width="100" height="100" viewBox="0 0 100 100" fill="none" xmlns="http://www.w3.org/2000/svg">
<path d="M27.0929 74.4532C27.4741 72.7006 27.2518 48.7041 27.0929 36.9249C25.006 35.9703 21.4729 33.5827 21.4729 30.7337C21.473 25.1431 31.5693 19.78 50.7145 19.8753C69.8596 19.9705 78.5273 25.3046 78.5273 29.6861C78.5273 33.1912 74.6539 35.9725 72.7171 36.9249C72.7171 36.9249 74.0608 75.2901 71.956 78.4472C69.8513 81.6043 36.9413 79.3682 32.5218 79.2158C26.9973 79.0253 26.6165 76.644 27.0929 74.4532Z" stroke="black" stroke-width="2" stroke-miterlimit="10" stroke-linecap="round"/>
<circle cx="53.5" cy="69.5" r="2.5" fill="black"/>
<circle cx="38.5" cy="68.5" r="1.5" fill="black"/>
<circle cx="61.5" cy="62.5" r="1.5" fill="black"/>
<circle cx="45.5" cy="54.5" r="1.5" fill="black"/>
<circle cx="57" cy="49" r="1" fill="black"/>
<circle cx="38.5" cy="39.5" r="1.5" fill="black"/>
<path d="M49.751 20.0137C67.8784 20.2816 76.2725 24.7464 77.4333 28.1397C78.594 31.533 74.0342 35.0337 72.04 36.5816C72.135 49.6515 72.6464 75.9062 71.6452 77.9857" stroke="black" stroke-width="2" stroke-miterlimit="10" stroke-linecap="round"/>
</svg>
