<svg width="100" height="100" viewBox="0 0 100 100" fill="none" xmlns="http://www.w3.org/2000/svg">
<path d="M42.3807 81.7326C15.4188 80.3429 16.818 78.4722 17.1531 76.365C20.2331 79.5915 55.5786 81.3137 81.4695 78.0872C87.1368 74.2679 85.8882 64.1275 86.488 66.7835C87.4121 70.876 87.315 76.7891 86.488 79.5915C85.1242 84.2126 57.7477 82.5246 42.3807 81.7326Z" fill="black"/>
<path d="M14.1309 51L14.131 69.5123C13.827 72.623 15.2257 78.8443 23.2531 78.8443C31.2806 78.8443 63.2892 78.8443 78.2901 78.8443C81.0267 78.6557 86.5 76.5254 86.5 69.5123V51" stroke="black" stroke-width="2"/>
<path d="M46.2524 59.5422C25.9723 58.8112 14.0974 52.8041 14.0974 52.8041V41.1286C13.9977 38.453 15.6532 33.1017 23.073 33.1017C30.4928 33.1017 62.6651 33.1017 77.8238 33.1017C80.7159 33.0206 86.5001 34.5125 86.5001 41.1286C86.5001 47.7447 86.5001 51.1825 86.5001 52.0744C86.5001 52.0744 74.5472 58.7688 54.1452 59.5422" stroke="black" stroke-width="2"/>
<path d="M34.0484 25.7128L34.0483 33.0982H39.5984L39.5984 29.1404C39.5984 27.192 41.0374 26.7049 41.7569 26.7049H58.0995C60.3196 26.7049 60.6691 28.7345 60.5663 29.7493L60.5663 33.0982H65.4999L65.5 26.0172C65.5 22.3639 63.4443 21.6535 62.4165 21.755H38.057C34.6035 21.755 33.9457 24.3935 34.0484 25.7128Z" stroke="black" stroke-width="2"/>
<path d="M53.2894 54.6641C54.0254 55.3644 54.2441 59.7012 54.3082 62.5072C54.3404 63.9179 53.3454 65.1415 51.9362 65.2144C50.2352 65.3024 48.0761 65.1436 47.0332 63.9703" stroke="black" stroke-width="2"/>
<rect x="46" y="53" width="7" height="12" rx="3" stroke="black" stroke-width="2"/>
</svg>
