<svg width="100" height="100" viewBox="0 0 100 100" fill="none" xmlns="http://www.w3.org/2000/svg">
<path d="M50.716 74.8306C58.064 73.1356 72.866 65.1306 77.605 52.9286C80.009 46.7416 82.963 33.9566 73.284 27.7046C68.47 24.5956 62.6299 23.7236 58.0329 27.4706C57.4369 27.9556 54.2439 31.6006 54.2439 31.6006C54.2439 31.6006 55.7909 39.1426 56.5199 40.5316C56.9699 41.3896 50.2959 47.0966 50.7699 48.0546C51.4339 49.3966 54.1 54.3096 54.264 55.1896C54.467 56.2746 48.3069 61.7106 48.8559 62.6876C49.5959 64.0076 51.604 66.6986 52.11 68.3646C52.451 69.4916 50.099 74.9736 50.716 74.8306Z" stroke="black" stroke-width="2" stroke-miterlimit="10" stroke-linejoin="round"/>
<path fill-rule="evenodd" clip-rule="evenodd" d="M50.716 74.8306C58.064 73.1356 72.8659 65.1306 77.6049 52.9286C80.0089 46.7416 82.963 33.9566 73.284 27.7046C68.47 24.5956 62.6299 23.7236 58.0329 27.4706C57.4369 27.9556 54.2439 31.6006 54.2439 31.6006C54.2439 31.6006 55.7909 39.1426 56.5199 40.5316C56.7399 40.951 55.2578 42.5288 53.7404 44.1443C52.1534 45.834 50.5276 47.5649 50.7699 48.0546C50.9419 48.4022 51.2483 48.9895 51.6106 49.6842L51.6106 49.6842C52.6472 51.6713 54.1424 54.5375 54.2639 55.1896C54.3606 55.706 53.0157 57.208 51.6389 58.7459C50.123 60.4391 48.5682 62.1756 48.8559 62.6876C49.0861 63.0982 49.4389 63.6413 49.831 64.245C50.6997 65.5824 51.7613 67.2168 52.1099 68.3646C52.2887 68.9555 51.7273 70.7435 51.2415 72.2902C50.8008 73.6937 50.4225 74.8986 50.716 74.8306ZM71.6904 53.7136C72.2304 53.8294 72.5744 54.361 72.4586 54.901C72.3255 55.5218 71.9628 56.1114 71.6351 56.5648C71.293 57.0383 70.905 57.4749 70.6267 57.7856C70.2582 58.197 69.626 58.2318 69.2146 57.8633C68.8032 57.4948 68.7684 56.8626 69.1369 56.4512C69.4166 56.139 69.7402 55.7725 70.014 55.3935C70.3024 54.9944 70.4601 54.682 70.503 54.4818C70.6188 53.9418 71.1504 53.5979 71.6904 53.7136ZM71.4981 30.7451C71.1027 30.3595 70.4696 30.3673 70.084 30.7626C69.6983 31.158 69.7062 31.7911 70.1015 32.1768C70.8422 32.8993 71.5728 33.9796 72.1363 34.9281C72.4127 35.3934 72.6392 35.8102 72.7961 36.11C72.8745 36.2596 72.9352 36.3795 72.9759 36.461C72.9962 36.5017 73.0115 36.5328 73.0214 36.5532L73.0323 36.5755L73.0346 36.5804L73.0349 36.5809L73.035 36.581L73.035 36.5811C73.0396 36.5908 73.0444 36.6004 73.0494 36.6099C74.6311 39.6552 74.9504 43.5514 73.3959 47.1471C73.1767 47.6541 73.41 48.2427 73.9169 48.4618C74.4239 48.681 75.0125 48.4477 75.2317 47.9408C77.0349 43.7696 76.6694 39.2498 74.831 35.7011L74.8185 35.6754C74.8062 35.6502 74.7884 35.614 74.7655 35.568C74.7196 35.4761 74.6529 35.3445 74.568 35.1823C74.3983 34.8582 74.1544 34.4092 73.8558 33.9066C73.2692 32.9193 72.4313 31.6555 71.4981 30.7451Z" fill="black"/>
<path fill-rule="evenodd" clip-rule="evenodd" d="M22.2098 50.8575C26.9868 63.3605 38.9708 71.8905 46.5178 74.6825C47.4548 75.0295 48.8268 68.4705 48.8268 68.4705C48.8268 68.4705 45.2098 63.3245 45.1438 62.0005C45.0963 61.0485 46.4527 59.3372 47.6443 57.8339C48.4865 56.7713 49.2464 55.8126 49.3698 55.2995C49.4431 54.9961 47.9705 53.0843 46.5892 51.2911C45.4073 49.7569 44.2924 48.3094 44.2698 48.0305C44.2078 47.2595 48.5968 40.5305 48.5968 40.5305C48.5968 40.5305 47.5218 35.1205 45.5628 30.8175C43.6048 26.5135 34.2148 23.7735 27.8628 26.4195C21.5118 29.0665 17.4318 38.3555 22.2098 50.8575ZM26.8925 34.3343C27.2001 33.8756 27.0777 33.2544 26.619 32.9468C26.1603 32.6392 25.5391 32.7617 25.2315 33.2203C24.3281 34.5673 23.3972 37.1892 23.3975 40.9067C23.3976 43.0318 23.9062 44.7914 24.1214 45.5358C24.1692 45.7015 24.2026 45.8169 24.2126 45.8749C24.3064 46.4191 24.8236 46.7843 25.3679 46.6905C25.9122 46.5967 26.2773 46.0794 26.1835 45.5352C26.1416 45.2917 26.0634 45.0154 25.9721 44.6926L25.9721 44.6926C25.7308 43.8396 25.3976 42.6618 25.3975 40.9066C25.3972 37.4882 26.2589 35.279 26.8925 34.3343Z" fill="black"/>
</svg>
