<svg width="100" height="100" viewBox="0 0 100 100" fill="none" xmlns="http://www.w3.org/2000/svg">
<path d="M59.1894 39.3131L53.332 38.811L54.0433 47.095H57.9343L59.1894 39.3131Z" fill="black"/>
<path d="M33.9169 41.114C31.7843 42.1669 29.4303 44.6613 37.0756 46.2163C46.6322 48.1601 62.4167 47.3819 67.1223 46.2163C73.6508 44.5992 69.2886 41.1006 64.1863 39.9668" stroke="black" stroke-width="2" stroke-linecap="round"/>
<path d="M31.7671 43.6836C32.5698 55.2662 34.3451 79.2706 35.0332 80.3028C35.8933 81.5929 43.8922 83.3131 54.5574 83.0551C65.2226 82.7971 67.7168 80.1308 67.9749 79.1847C68.1813 78.4278 69.7053 55.3599 70.4507 44.0353" stroke="black" stroke-width="2" stroke-linecap="round"/>
<path d="M54.8657 83.054C59.4483 83.054 66.4874 80.9707 67.4749 76.527C68.4624 72.0834 68.6423 69.0676 69.0341 65.2544" stroke="black" stroke-width="2"/>
<path d="M38.3716 60.8867L39.1019 69.1108" stroke="black" stroke-width="2" stroke-linecap="round"/>
<path d="M37.889 57.1661L37.7236 56.0054" stroke="black" stroke-width="2" stroke-linecap="round"/>
<path d="M36.0859 45.4486C33.7334 38.5078 29.1384 24.5661 29.5789 24.3258C30.1294 24.0256 36.9769 21.2627 37.1771 21.7131C37.3373 22.0735 42.8265 38.7248 45.2959 47.0004" stroke="black" stroke-width="2" stroke-linecap="round"/>
<path d="M36.0234 44.4157L38.8215 43.4019" stroke="black" stroke-width="2" stroke-linecap="round"/>
<path d="M31.9941 42.9531L34.086 41.0703L35.6759 44.5429L34.8392 45.4634L32.5381 44.5429L31.9941 42.9531Z" fill="black"/>
<path d="M43.1968 39.0721C45.1662 38.7329 47.4023 38.8325 48.7232 38.8325" stroke="black" stroke-width="2" stroke-linecap="round"/>
<path d="M33.8379 37.485L36.636 36.4712" stroke="black" stroke-width="2" stroke-linecap="round"/>
<path d="M48.77 33.3745C48.9018 37.3466 49.2556 45.6295 49.6171 46.9849" stroke="black" stroke-width="2" stroke-linecap="round"/>
<path d="M51.5303 33.1421C52.4454 37.6259 53.7722 43.0248 53.7722 47.2798" stroke="black" stroke-width="2" stroke-linecap="round"/>
<path d="M64.8358 30.4355C65.1597 32.7576 63.367 44.5187 62.6758 46.8514" stroke="black" stroke-width="2" stroke-linecap="round"/>
<path d="M69.3977 42.4289C68.6602 41.6347 65.7575 40.5852 64.3984 40.1597L62.9092 46.1163L66.0648 46.329L70.2841 44.6271C70.2959 44.2253 70.1352 43.2231 69.3977 42.4289Z" fill="black"/>
<path d="M48.1894 33.0238C47.8103 32.8859 47.012 31.0856 46.854 30.2242C47.1641 29.9485 52.3244 29.3195 52.5398 29.6641C52.7552 30.0087 52.3158 32.3261 52.1091 32.6362C51.8506 33.0239 48.6632 33.1962 48.1894 33.0238Z" stroke="black" stroke-width="2" stroke-linecap="round"/>
<path d="M31.5381 30.446L34.3362 29.4321" stroke="black" stroke-width="2" stroke-linecap="round"/>
<path d="M62.378 30.0145C61.8501 29.8705 61.3263 26.3336 61.6046 26.2679C61.8828 26.2022 66.0591 26.9251 66.3877 26.9909C66.7163 27.0566 66.4994 27.4436 65.9235 29.0273C65.2037 31.0069 63.0379 30.1945 62.378 30.0145Z" stroke="black" stroke-width="2" stroke-linecap="round"/>
<path d="M61.9194 30.2192C59.9755 34.4852 58.9778 42.558 58.1138 46.8239" stroke="black" stroke-width="2" stroke-linecap="round"/>
<path d="M53.0459 38.7544C54.8189 38.7544 58.4992 38.806 59.0363 39.0126" stroke="black" stroke-width="2" stroke-linecap="round"/>
<path d="M48.6701 38.7202L43.0913 39.0658L45.313 46.7673H49.3612L48.6701 38.7202Z" fill="black"/>
<path d="M42.5082 25.5289C42.1923 26.1211 44.9099 28.7696 46.3082 30.0198C47.3446 29.7237 49.6048 29.1315 50.3549 29.1315C51.105 29.1315 52.2436 29.3621 52.8358 29.5266C52.8358 29.5266 56.3963 25.0759 56.2275 24.5913C56.0587 24.1066 54.974 23.5845 54.3029 23.1108C53.4639 22.5186 50.3055 21.5809 48.2328 21.9264C46.1601 22.2718 42.9031 24.7887 42.5082 25.5289Z" stroke="black" stroke-width="2" stroke-linecap="round"/>
<path d="M42.6904 25.1977L46.9217 30.0637L49.8132 29.2528L52.7751 29.6054L56.0544 24.6688L53.1277 22.6589L47.9091 22.0947L42.6904 25.1977Z" fill="black"/>
<path d="M63.4954 26.2483C63.0989 25.4856 61.7194 22.9235 62.1953 21.1663C62.7902 18.9697 65.6017 17.7521 66.2881 17.0199C66.9745 16.2877 66.6025 19.7516 66.9229 20.5752C67.6256 22.3823 68.3805 25.0271 65.0319 26.4847" stroke="black" stroke-width="2" stroke-linecap="round"/>
<path d="M61.9673 21.3441L62.6764 25.4216L66.7894 26.2371L67.7822 24.1452L66.7894 19.3941L66.0802 17.0894L61.9673 21.3441Z" fill="black"/>
</svg>
