<svg width="100" height="100" viewBox="0 0 100 100" fill="none" xmlns="http://www.w3.org/2000/svg">
<path d="M36.8829 48.4953C35.2223 46.192 37.4097 40.2024 38.8953 37.5873C39.671 37.3269 66.2697 50.7463 66.0495 51.5599C65.8294 52.3735 62.3368 59.6816 57.2715 59.1003C52.2062 58.519 47.5185 62.1984 46.3404 64.5665C45.1622 66.9346 42.6607 73.546 40.3788 78.5038C38.0969 83.4616 31.8123 78.7283 31.3281 76.918C30.844 75.1077 35.2615 69.5684 38.5739 62.3537C41.8863 55.1389 38.9586 51.3744 36.8829 48.4953Z" stroke="black" stroke-width="2" stroke-linecap="round"/>
<path d="M62.1067 56.851L37.0107 44.3657L36.1868 46.0218L37.05 48.1199L39.3174 52.3469L40.2837 58.2309L38.1311 63.6758L33.5657 71.7344L31.1573 76.5753L33.772 79.4653L37.975 81.0795L40.7043 77.6697L45.9605 65.0282L48.6582 61.6821L54.2209 59.1257L59.1523 59.1159L62.1067 56.851Z" fill="black"/>
<path d="M36.7515 44.0967L62.1133 56.7142" stroke="black" stroke-width="2" stroke-linecap="round"/>
<path d="M38.9109 37.8852C40.0911 34.6882 43.5326 29.9461 45.4646 24.7801C47.8453 18.4143 47.9657 13.7744 48.399 13.7604C49.3021 13.7313 54.7217 15.0175 60.6963 17.7103C66.671 20.4031 71.2155 24.2731 71.2155 24.2731C76.2646 28.0586 79.5198 28.6962 79.5209 29.2436C79.5214 29.5018 78.5572 33.0408 75.0023 38.6629C72.5276 42.5766 70.0374 43.9644 65.7711 51.2482" stroke="black" stroke-width="2" stroke-linecap="round"/>
<path d="M53.9411 27.1632C53.2875 24.2667 50.0587 24.6173 46.2898 23.3596L48.881 14.186C48.881 14.186 55.8574 16.132 60.9013 18.3158C65.9451 20.4996 68.389 22.7356 70.5209 24.2435C72.6529 25.7515 78.4612 28.4284 78.6219 28.9821C78.7045 29.2669 78.116 32.8769 76.3952 32.5526C73.7616 31.2424 71.51 29.6407 69.9076 30.189C67.9744 30.8505 68.4448 32.1029 64.9322 31.4652C60.7946 30.7139 59.7884 35.2183 56.8219 35.2679C53.8554 35.3174 54.6806 30.4403 53.9411 27.1632Z" fill="black" stroke="black" stroke-width="2" stroke-linecap="round"/>
<path d="M57.3501 40.8118C56.2269 41.7009 55.161 44.813 55.161 44.813" stroke="black" stroke-width="2" stroke-linecap="round"/>
<path d="M68.3685 38.3524C65.1393 42.1975 61.857 48.6288 61.857 48.6288" stroke="black" stroke-width="2" stroke-linecap="round"/>
<path d="M50.54 36.3926C50.5643 37.3488 48.2277 41.7315 48.2277 41.7315" stroke="black" stroke-width="2" stroke-linecap="round"/>
<path d="M47.8555 29.1245C45.9949 35.3918 43.2446 38.885 43.2446 38.885" stroke="black" stroke-width="2" stroke-linecap="round"/>
</svg>
