<svg width="100" height="100" viewBox="0 0 100 100" fill="none" xmlns="http://www.w3.org/2000/svg">
<path d="M42.4669 75.8357C26.4566 74.1772 27.1902 64.4254 24.7637 63.0281C61.3182 73.445 77.8998 54.3328 77.7224 55.5449C77.2505 58.7693 77.8463 67.2888 66.2815 72.7612C58.3097 76.5333 48.2547 76.4352 42.4669 75.8357Z" stroke="black" stroke-width="2"/>
<path d="M53.8523 62.2058C44.5542 64.3893 27.4725 63.4926 23.4288 57.9483C21.996 55.9837 22.3328 54.0716 23.7062 52.3269" stroke="black" stroke-width="2"/>
<path d="M23.2048 56.9215C22.0698 58.5636 22.0977 60.0003 23.4286 61.825C23.9859 62.5892 24.8514 63.2533 25.9539 63.8247" stroke="black" stroke-width="2"/>
<path d="M53.3647 52.6616C40.1321 55.2712 27.7656 53.749 23.2365 52.6616C18.5106 41.7881 31.8023 33.0893 51.8878 31.7301C71.9732 30.3709 78.1761 40.9726 78.4715 43.691C78.7668 46.4094 69.9055 49.3996 53.3647 52.6616Z" stroke="black" stroke-width="2"/>
<path d="M53.7236 62.2052C57.1637 61.7464 58.4914 57.7445 62.9929 60.8199C66.8502 63.4551 68.063 60.1726 68.8492 58.0106C69.9973 54.8533 70.382 53.8523 74.3028 54.8533C81.048 56.5755 83.5513 52.7363 81.1915 50.6914C78.136 48.0437 77.6928 46.8374 76.8295 45.8662" stroke="black" stroke-width="2"/>
<path d="M38.0848 63.3634C30.3106 63.106 25.0839 59.7017 23.4423 58.0318C21.9222 60.2021 24.0756 62.7908 25.3424 63.8139C27.8523 64.3288 33.1423 64.9099 38.0848 66.1455C44.263 67.6901 62.9907 64.5219 64.9214 63.3634C66.4659 62.4367 73.6309 58.5153 77.0203 56.6704C76.1194 55.9196 73.8411 54.418 71.9362 54.418C69.555 54.418 69.0402 58.0318 68.2679 59.6952C67.6501 61.0259 66.1656 61.9229 65.5006 62.2051C64.4065 61.5615 61.8967 60.1585 60.6095 59.6952C59.0006 59.116 55.268 61.4328 53.6591 62.2051C52.0502 62.9773 47.8026 63.6852 38.0848 63.3634Z" fill="black"/>
<circle cx="51.2285" cy="47.7006" r="1" transform="rotate(-15.3039 51.2285 47.7006)" fill="black"/>
<circle cx="62.2285" cy="45.7006" r="1" transform="rotate(-15.3039 62.2285 45.7006)" fill="black"/>
<circle cx="67.2285" cy="44.7006" r="1" transform="rotate(-15.3039 67.2285 44.7006)" fill="black"/>
<circle cx="57.2285" cy="42.7006" r="1" transform="rotate(-15.3039 57.2285 42.7006)" fill="black"/>
<circle cx="65.2285" cy="39.7006" r="1" transform="rotate(-15.3039 65.2285 39.7006)" fill="black"/>
</svg>
