<svg width="100" height="100" viewBox="0 0 100 100" fill="none" xmlns="http://www.w3.org/2000/svg">
<path d="M27.5772 65.426C25.5532 54.622 44.1052 54.329 44.2062 63.533C44.3072 72.736 29.6222 76.344 27.5772 65.426Z" stroke="black" stroke-width="2" stroke-miterlimit="10" stroke-linejoin="round"/>
<path d="M69.1362 71.763C55.5892 69.584 62.8322 53.984 71.7752 56.162C80.7182 58.34 80.1042 73.528 69.1362 71.763Z" stroke="black" stroke-width="2" stroke-miterlimit="10" stroke-linejoin="round"/>
<path d="M27.8673 63.3259C27.8673 63.3259 19.3683 63.6189 19.2633 62.9979C18.8653 60.6339 19.1032 54.0119 19.0742 52.5649C18.9532 46.4559 23.3892 46.3859 23.3892 46.3859C23.3892 46.3859 23.7462 35.4371 23.7362 33.3051C23.7272 31.1721 25.1212 27.8681 30.5612 28.0042C34.6702 28.1072 64.7352 28.5071 77.8092 28.7731C80.7212 28.8321 82.0273 29.9191 82.1823 36.4541C82.3093 41.7971 82.5352 51.9089 82.1462 61.1219C82.0262 63.9909 79.2103 63.3338 77.5233 63.3218" stroke="black" stroke-width="2" stroke-miterlimit="10" stroke-linejoin="round"/>
<path d="M43.9912 63.0576L61.9792 63.2786" stroke="black" stroke-width="2" stroke-miterlimit="10" stroke-linejoin="round"/>
<path d="M32.4602 64.7347C31.7102 60.9287 38.1952 60.0797 38.4832 64.0687C38.7282 67.4737 33.4122 69.5627 32.4602 64.7347Z" fill="black" stroke="black" stroke-width="2" stroke-miterlimit="10" stroke-linejoin="round"/>
<path d="M68.7573 60.9552C72.2933 59.3582 74.7752 65.9532 70.8972 66.9342C67.0202 67.9162 64.2723 62.9802 68.7573 60.9552Z" fill="black" stroke="black" stroke-width="2" stroke-miterlimit="10" stroke-linejoin="round"/>
<path d="M18.8802 54.3867C18.8802 54.3867 17.0232 55.0037 17.0002 56.7167C16.9772 58.4297 18.6182 59.8157 18.7562 58.3557C18.8932 56.8957 18.8802 54.3867 18.8802 54.3867Z" stroke="black" stroke-width="2" stroke-miterlimit="10" stroke-linejoin="round"/>
<path d="M33.5892 43.6689L33.5893 56.9541" stroke="black" stroke-width="2" stroke-miterlimit="10" stroke-linejoin="round"/>
<path d="M27.2413 38.2805C27.0293 41.8225 27.1543 46.4215 27.1543 46.4215H33.5983L33.7723 34.2305C33.7723 34.2305 29.6943 34.3555 28.3133 34.3315C27.1863 34.3115 27.3563 36.3705 27.2413 38.2805Z" fill="black" stroke="black" stroke-width="2" stroke-miterlimit="10" stroke-linejoin="round"/>
<path d="M68.2332 34.8736C67.7472 35.5276 67.7382 36.6686 67.7382 36.6686L67.6982 44.2886C67.6982 44.2886 67.8962 45.6136 68.5822 46.1486C69.2682 46.6826 71.4982 46.5286 71.4982 46.5286L74.8632 46.4676C74.8632 46.4676 75.8512 46.3076 76.3352 45.5716C76.8192 44.8356 76.7982 43.5236 76.7982 43.5236L77.1782 36.4516C77.1782 36.4516 77.0012 35.2916 76.3482 34.6626C75.6952 34.0336 74.5652 33.9336 74.5652 33.9336L69.6832 34.0506C69.6832 34.0506 68.7192 34.2196 68.2332 34.8736Z" fill="black" stroke="black" stroke-width="2" stroke-miterlimit="10" stroke-linejoin="round"/>
<path d="M53.5892 34.8736C53.1032 35.5276 53.0942 36.6686 53.0942 36.6686L53.0552 44.2886C53.0552 44.2886 53.2531 45.6136 53.9391 46.1486C54.6251 46.6826 56.8542 46.5286 56.8542 46.5286L60.2192 46.4676C60.2192 46.4676 61.2082 46.3076 61.6912 45.5716C62.1752 44.8356 62.1542 43.5236 62.1542 43.5236L62.5342 36.4516C62.5342 36.4516 62.3582 35.2916 61.7052 34.6626C61.0512 34.0336 59.9211 33.9336 59.9211 33.9336L55.0402 34.0506C55.0402 34.0506 54.0762 34.2196 53.5892 34.8736Z" fill="black" stroke="black" stroke-width="2" stroke-miterlimit="10" stroke-linejoin="round"/>
<path d="M38.9242 34.8736C38.4372 35.5276 38.4292 36.6686 38.4292 36.6686L38.3892 44.2886C38.3892 44.2886 38.5872 45.6136 39.2732 46.1486C39.9592 46.6826 42.1882 46.5286 42.1882 46.5286L45.5542 46.4676C45.5542 46.4676 46.5422 46.3076 47.0262 45.5716C47.5092 44.8356 47.4882 43.5236 47.4882 43.5236L47.8692 36.4516C47.8692 36.4516 47.6922 35.2916 47.0392 34.6626C46.3862 34.0336 45.2562 33.9336 45.2562 33.9336L40.3741 34.0506C40.3741 34.0506 39.4102 34.2196 38.9242 34.8736Z" fill="black" stroke="black" stroke-width="2" stroke-miterlimit="10" stroke-linejoin="round"/>
</svg>
