<svg width="100" height="100" viewBox="0 0 100 100" fill="none" xmlns="http://www.w3.org/2000/svg">
<path fill-rule="evenodd" clip-rule="evenodd" d="M61 83C71.4934 83 80 80.7614 80 78C80 76.242 76.5522 74.6958 71.3389 73.8044C67.3985 77.4515 61.9306 80.2456 54.5532 80.5644C49.9436 80.7636 45.8579 80.0875 42.2918 78.8777C43.8682 81.2206 51.6444 83 61 83Z" fill="black"/>
<path d="M25.3582 46.7733C20.186 47.3275 20.8171 53.3156 21.7791 56.2404C22.5873 59.2038 24.5549 65.5119 31.0553 72.8658C37.4023 80.0461 51.797 80.9476 54.4525 80.7167C57.1079 80.4858 56.2997 77.7149 55.607 72.8658C54.9143 68.0167 52.2588 60.0505 47.0634 54.5087C41.868 48.9669 31.8235 46.0806 25.3582 46.7733Z" stroke="black" stroke-width="2" stroke-miterlimit="10" stroke-linecap="round"/>
<path d="M50.9673 59.3448C52.9727 56.9946 57.8671 51.8054 61.4019 49.8501C67.8337 46.2923 78.0409 45.3379 79.921 48.7221C81.8011 52.1063 79.921 66.2544 71.9261 72.6503C64.8757 78.2906 59.8037 79.65 56.5135 79.932" stroke="black" stroke-width="2" stroke-miterlimit="10" stroke-linecap="round"/>
<path d="M66.6163 74.513C63.2549 76.6261 59.961 77.1289 57.435 77.753C57.0621 77.8452 56.7881 78.1577 56.7338 78.5378C56.6381 79.2077 57.2475 79.7637 57.9018 79.5914C68.398 76.8273 74.213 71.032 77.1383 65.8407C77.6408 64.9488 77.1304 64.8015 76.639 65.6996C74.9684 68.7526 68.6322 73.2457 66.6163 74.513Z" fill="black"/>
<path d="M31.6777 58.8652C32.9246 62.0622 37.701 68.7438 46.8315 69.8948" stroke="black" stroke-width="2" stroke-miterlimit="10" stroke-linecap="round"/>
<path d="M45.7129 52.8456C47.4155 49.4988 52.4941 42.0302 59.188 38.9298C67.5554 35.0544 75.913 35.2903 77.2435 37.8728C78.7408 40.7792 77.6839 44.6545 76.1866 46.5924" stroke="black" stroke-width="2" stroke-miterlimit="10" stroke-linecap="round"/>
<path d="M55.4634 69.6068C58.1168 69.0953 64.6129 66.346 69.3701 59.4404" stroke="black" stroke-width="2" stroke-miterlimit="10" stroke-linecap="round"/>
<path d="M24.6672 46.5907C24.1243 43.9213 23.5815 38.2025 25.7531 36.6822C28.4676 34.7819 41.7017 35.8 50.728 45.0298" stroke="black" stroke-width="2" stroke-miterlimit="10" stroke-linecap="round"/>
<path d="M33.0083 35.8023C33.1172 33.7593 34.0912 29.4516 37.1162 28.565C40.8975 27.4567 43.2445 27.9132 45.7873 25.5008C48.33 23.0885 51.6552 22.1757 54.7847 24.588C57.9142 27.0004 59.2834 27.522 62.6086 28.0435C65.9337 28.565 68.8677 30.065 68.4765 35.8023" stroke="black" stroke-width="2" stroke-miterlimit="10" stroke-linecap="round"/>
</svg>
