<svg width="100" height="100" viewBox="0 0 100 100" fill="none" xmlns="http://www.w3.org/2000/svg">
<path d="M51.49 42.746C36.99 42.3914 26.1301 39.3917 26.1401 50.7837C26.1401 59.7261 24.35 77.7709 29.96 79.82C35.58 81.8691 65.55 81.5112 70.03 80.3071C74.51 79.1029 75.62 76.4559 75.62 70.0224C75.61 63.589 74.99 52.9173 74.7 48.0694C74.32 41.5349 61.87 43.0001 51.49 42.746Z" stroke="black" stroke-width="2" stroke-miterlimit="10" stroke-linecap="round" stroke-linejoin="round"/>
<path d="M26.3 51.9937C26.3 51.9937 34.4001 51.8737 35.7701 52.2201C36.2901 52.3532 38.73 52.6258 38.91 54.6908C39.15 57.4041 38.86 64.9532 38.94 66.6718C39.04 69.1072 35.36 68.7307 35.36 68.7307L26.12 68.6478C26.12 68.6478 25.92 64.7464 25.96 60.5828C26.01 56.4193 26.3 51.9937 26.3 51.9937Z" fill="black" stroke="black" stroke-width="2" stroke-miterlimit="10" stroke-linecap="round" stroke-linejoin="round"/>
<path d="M44.1899 80.8105C44.1899 80.8105 44.0399 54.7119 44.2099 52.7605C44.2799 51.8563 45.2199 52.1444 50.7999 51.9959C55.5699 51.8691 57.7799 51.6973 57.8099 52.6818C57.9199 56.3811 57.9199 80.8516 57.9199 80.8516" stroke="black" stroke-width="2" stroke-miterlimit="10" stroke-linecap="round" stroke-linejoin="round"/>
<path d="M50.8199 52.0547L51.0299 81.1203" stroke="black" stroke-width="2" stroke-miterlimit="10" stroke-linecap="round" stroke-linejoin="round"/>
<path d="M74.85 51.7907C74.85 51.7907 67.82 51.7603 66.45 52.1067C65.93 52.2398 63.49 52.5124 63.31 54.5775C63.07 57.2907 63.31 63.7718 63.23 65.4904C63.13 67.9258 64.58 68.5804 66.86 68.6173C68.93 68.5804 75.0299 68.4449 75.0299 68.4449C75.0299 68.4449 75.23 64.5434 75.18 60.3799C75.14 56.2163 74.85 51.7907 74.85 51.7907Z" fill="black" stroke="black" stroke-width="2" stroke-miterlimit="10" stroke-linecap="round" stroke-linejoin="round"/>
<path d="M49.4 42.6097L49.36 31.7246C49.36 31.7246 52.08 32.0613 52.97 31.7569C53.85 31.4524 53.58 42.7154 53.58 42.7154L49.4 42.6097Z" stroke="black" stroke-width="2" stroke-miterlimit="10" stroke-linecap="round" stroke-linejoin="round"/>
<path d="M19 38.5779C27.59 35.8608 47.1699 29.3984 47.1699 29.3984" stroke="black" stroke-width="2" stroke-miterlimit="10" stroke-linecap="round" stroke-linejoin="round"/>
<path d="M47.6899 27.5922C46.2499 30.9539 50.17 31.7082 51.99 31.7082C53.81 31.7082 55.5799 29.7702 54.9599 27.5922C54.1899 24.8482 49.2499 23.9792 47.6899 27.5922Z" stroke="black" stroke-width="2" stroke-miterlimit="10" stroke-linecap="round" stroke-linejoin="round"/>
<path d="M51.51 28.2989L80.47 19" stroke="black" stroke-width="2" stroke-miterlimit="10" stroke-linecap="round" stroke-linejoin="round"/>
</svg>
