<svg width="100" height="100" viewBox="0 0 100 100" fill="none" xmlns="http://www.w3.org/2000/svg">
<path d="M23.0003 77.7939L23.1804 26.1099C23.2304 21.5079 24.9504 17.7679 29.5504 17.5899L64.2503 17.0269C68.8503 16.8479 72.5504 20.4339 72.5204 25.0359L71.8203 75.3389C71.8003 79.9409 68.0403 83.642 63.4403 83.604L30.9803 83.341C26.3803 83.303 22.9603 82.3959 23.0003 77.7939Z" stroke="black" stroke-width="2" stroke-miterlimit="10" stroke-linecap="round" stroke-linejoin="round"/>
<path d="M60.6704 71.2197H63.8403C64.7303 71.2197 65.4004 72.5067 65.4004 73.3927L65.4503 75.6687C65.4503 76.5557 64.7303 77.2737 63.8403 77.2737H62.6903H60.6704C59.7904 77.2737 59.0703 76.5557 59.0703 75.6687V72.8247C59.0703 71.9387 59.7904 71.2197 60.6704 71.2197Z" stroke="black" stroke-width="2" stroke-miterlimit="10" stroke-linejoin="round"/>
<path d="M33.8403 70.751L52.4004 71.1C53.2804 71.1 53.2704 71.75 53.2704 72.636V75.481C53.2704 76.367 52.5504 77.085 51.6704 77.085L33.2103 76.915C32.3303 76.915 32.2404 76.086 32.2404 75.2V72.356C32.2404 71.469 32.9603 70.751 33.8403 70.751Z" stroke="black" stroke-width="2" stroke-miterlimit="10" stroke-linejoin="round"/>
<path d="M47.3199 58.9109H50.49C51.37 58.9109 52.09 59.6299 52.09 60.5159L52.14 63.9199C52.14 64.8059 51.37 64.9649 50.49 64.9649H47.3199C46.4299 64.9649 45.71 64.2469 45.71 63.3599V60.5159C45.71 59.6299 46.4299 58.9109 47.3199 58.9109Z" stroke="black" stroke-width="2" stroke-miterlimit="10" stroke-linejoin="round"/>
<path d="M60.3102 58.7207L63.0902 58.8767C63.9702 58.8767 65.0802 59.4387 65.0802 60.3247V63.1697C65.0802 64.0557 64.3702 64.7737 63.4802 64.7737H62.3302H60.3102C59.4202 64.7737 58.7002 64.0557 58.7002 63.1697V60.3247C58.7002 59.4387 59.4202 58.7207 60.3102 58.7207Z" stroke="black" stroke-width="2" stroke-miterlimit="10" stroke-linejoin="round"/>
<path d="M33.3707 58.533H36.5408C37.4208 58.533 38.1407 59.251 38.1407 60.137V62.982C38.1407 63.868 37.4208 64.586 36.5408 64.586H33.3707C32.4807 64.586 31.8008 64.347 31.8008 63.461L31.7607 60.137C31.7607 59.251 32.4807 58.533 33.3707 58.533Z" stroke="black" stroke-width="2" stroke-miterlimit="10" stroke-linejoin="round"/>
<path d="M59.8304 47.1494H63.0105C63.8905 47.1494 64.6105 47.8684 64.6105 48.7544V51.5984C64.6105 52.4844 63.8905 53.2034 63.0105 53.2034H59.8304C58.9504 53.2034 58.2305 52.4844 58.2305 51.5984V48.7544C58.2305 47.8684 58.9504 47.1494 59.8304 47.1494Z" stroke="black" stroke-width="2" stroke-miterlimit="10" stroke-linejoin="round"/>
<path d="M46.7006 46.9395H49.8706C50.7606 46.9395 51.4806 47.6575 51.4806 48.5435V51.3875C51.4806 52.2745 50.7606 52.9925 49.8706 52.9925L47.4006 53.0244C46.5106 53.0244 45.1006 52.2745 45.1006 51.3875V48.5435C45.1006 47.6575 45.8206 46.9395 46.7006 46.9395Z" stroke="black" stroke-width="2" stroke-miterlimit="10" stroke-linejoin="round"/>
<path d="M32.8102 46.7666L35.3903 46.7736C36.2703 46.7736 37.5802 47.4846 37.5802 48.3706V51.2156C37.5802 52.1016 36.8602 52.8196 35.9802 52.8196H32.8102C31.9202 52.8196 31.2002 52.1016 31.2002 51.2156V48.3706C31.2002 47.4846 31.9202 46.7666 32.8102 46.7666Z" stroke="black" stroke-width="2" stroke-miterlimit="10" stroke-linejoin="round"/>
<path d="M30.0301 26.4471L30.2901 37.1341C30.3601 39.0901 30.4 40.8381 32.35 40.7601L61.19 40.3431C63.15 40.2661 64.79 40.1271 64.84 38.1701L64.8801 26.7201C64.9201 24.7631 63.3501 24.0621 61.3901 24.1311L33.4001 23.8301C31.4401 23.8991 29.9701 24.4911 30.0301 26.4471Z" fill="black" stroke="black" stroke-width="2" stroke-miterlimit="10" stroke-linecap="round" stroke-linejoin="round"/>
<path d="M64.38 17L70.04 17.064C70.04 17.064 73.51 17.021 75.63 19.294C76.97 20.732 77.17 23.66 77.17 23.66L75.72 76.653C75.72 76.653 75.75 79.556 74.4 81.632C73.17 83.528 69.92 83.653 69.92 83.653L53.29 83.532L64.15 83.623C64.15 83.623 67.16 83.201 69.12 81.543C72.18 78.947 71.84 74.305 71.84 74.305L72.53 25.872C72.53 25.872 72.77 22.807 71.23 20.567C70.06 18.85 67.9301 17.692 67.9301 17.692" fill="black"/>
<path d="M64.38 17L70.04 17.064C70.04 17.064 73.51 17.021 75.63 19.294C76.97 20.732 77.17 23.66 77.17 23.66L75.72 76.653C75.72 76.653 75.75 79.556 74.4 81.632C73.17 83.528 69.92 83.653 69.92 83.653L53.29 83.532L64.15 83.623C64.15 83.623 67.16 83.201 69.12 81.543C72.18 78.947 71.84 74.305 71.84 74.305L72.53 25.872C72.53 25.872 72.77 22.807 71.23 20.567C70.06 18.85 67.9301 17.692 67.9301 17.692" stroke="black" stroke-width="2" stroke-miterlimit="10" stroke-linecap="round" stroke-linejoin="round"/>
</svg>
