<svg width="100" height="100" viewBox="0 0 100 100" fill="none" xmlns="http://www.w3.org/2000/svg">
<path d="M72.036 70.4934H71.3083H36.5965C32.4478 70.4934 29.5938 68.0316 29.5938 64.9905V59.2704C29.5938 56.2294 31.7433 54.3929 34.5192 54.3929C42.2926 55.2486 51.0596 55.0511 60.4528 54.6759C64.6617 54.5114 68.6959 54.1954 72.5375 53.7676C72.8747 53.7676 74.657 53.8071 76.096 55.3803C77.0053 56.3742 77.5713 57.7499 77.5713 59.2704V64.9905C77.5713 65.6109 77.4696 66.2071 77.284 66.7633" stroke="black" stroke-width="2" stroke-miterlimit="10"/>
<path d="M41.895 63.0819C41.895 63.0819 46.5073 58.5005 50.1984 61.173C53.8894 63.8454 61.6508 61.1927 65.6128 61.173" stroke="black" stroke-width="2" stroke-miterlimit="10"/>
<path d="M27.4375 49.6316C27.5651 49.6898 27.7114 49.602 27.7201 49.462L28.418 38.2163C28.4692 37.3914 27.5545 36.864 26.8663 37.3216L17.1733 43.766C17.0549 43.8447 17.0541 44.0182 17.1718 44.098L19.1834 45.4625C19.6307 45.7659 19.756 46.3698 19.4663 46.8261L17.0356 50.655C16.9752 50.7501 17.0053 50.8763 17.1021 50.934L20.6604 53.0533C20.7532 53.1086 20.8731 53.0802 20.9312 52.9892L23.5946 48.823C23.8628 48.4033 24.3991 48.2451 24.8523 48.4519L27.4375 49.6316Z" stroke="black" stroke-width="2" stroke-miterlimit="10"/>
<path fill-rule="evenodd" clip-rule="evenodd" d="M15.095 30.8508C16.4605 29.4691 18.1445 29.4434 18.4652 29.4434H18.5159L18.5664 29.4485C21.4202 29.7388 24.4126 29.9536 27.5378 30.0698L19.6892 30.5624L19.6893 30.5624L27.5384 30.0698C34.5683 30.3272 41.0605 30.464 46.7962 29.8812L46.8466 29.8761H46.8973C48.1352 29.8761 49.3043 30.2546 50.179 31.0195C51.0677 31.7968 51.5848 32.9164 51.5848 34.2387V38.1802C51.5848 41.0802 48.7059 42.9697 45.3468 42.9697H28.123L28.418 38.2163C28.4692 37.3914 27.5545 36.864 26.8663 37.3216L18.3725 42.9687C15.7813 42.9159 13.7021 40.7874 13.7021 38.1744V34.2328C13.7021 32.9115 14.238 31.7143 15.095 30.8508ZM15.095 30.8508L17.0446 30.7284L17.0447 30.7284L15.095 30.8508Z" fill="black"/>
<path d="M71.9871 80.6142C71.8586 80.6783 71.7064 80.59 71.6983 80.4466L70.7756 64.2116C70.7278 63.3698 71.6792 62.8503 72.3615 63.3456L85.0772 72.5773C85.1865 72.6567 85.1873 72.8195 85.0787 72.8999L82.1591 75.0625C81.7497 75.3657 81.6337 75.9282 81.8897 76.3687L85.2022 82.0665C85.2558 82.1586 85.2277 82.2766 85.1383 82.3347L80.5563 85.3149C80.4606 85.3771 80.3323 85.3468 80.2747 85.2483L76.7752 79.2704C76.5094 78.8163 75.9371 78.6459 75.4662 78.8805L71.9871 80.6142Z" stroke="black" stroke-width="2" stroke-miterlimit="10"/>
<path d="M64.7239 23.9563H50.8184C48.9392 23.9563 47.6475 22.5762 47.6475 20.8686V17.658C47.6475 15.9504 48.6195 14.9212 49.881 14.9212C53.4062 15.4007 57.3764 15.2896 61.6317 15.0791C63.5412 14.9855 65.3643 14.8101 67.1054 14.5703C67.2566 14.5703 68.0644 14.5937 68.7168 15.4767C69.1315 16.0381 69.3864 16.8101 69.3864 17.658V20.8686C69.3864 21.786 69.0888 22.6116 68.6176 23.1778" stroke="black" stroke-width="2" stroke-miterlimit="10"/>
<path d="M65.492 31.8535C65.3643 31.9121 65.2175 31.8243 65.2089 31.6841L64.6475 22.5846C64.5966 21.7586 65.5137 21.2317 66.2015 21.6918L74.0019 26.9086C74.1197 26.9874 74.1205 27.1602 74.0035 27.24L72.4827 28.2777C72.038 28.5811 71.9133 29.1822 72.2007 29.6374L74.1388 32.7084C74.1987 32.8034 74.1687 32.929 74.0724 32.9867L71.1492 34.7382C71.0562 34.7939 70.9357 34.7654 70.8776 34.6739L68.7418 31.3131C68.4736 30.8911 67.935 30.732 67.4806 30.9406L65.492 31.8535Z" stroke="black" stroke-width="2" stroke-miterlimit="10"/>
</svg>
