<svg width="100" height="100" viewBox="0 0 100 100" fill="none" xmlns="http://www.w3.org/2000/svg">
<path d="M40.0024 72.2007L59.2401 72.2008" stroke="black" stroke-width="2" stroke-linecap="round" stroke-linejoin="round"/>
<path d="M15.3516 71.1125C15.7101 72.0864 19.9943 72.3875 21.7423 72.0984" stroke="black" stroke-width="2" stroke-linecap="round" stroke-linejoin="round"/>
<path d="M83.5874 69.5372C83.2275 72.1714 79.262 72.2165 77.517 72.0031" stroke="black" stroke-width="2" stroke-linecap="round" stroke-linejoin="round"/>
<path d="M38.7148 67.7136L60.0344 67.7136" stroke="black" stroke-width="2" stroke-linecap="round" stroke-linejoin="round"/>
<path d="M21.4335 72.2382C21.4335 72.2382 15.8952 72.5537 15.5008 72.2382C15.1064 71.9227 14.9714 68.418 15.7331 68.0111C16.4009 67.6543 20.3539 67.4037 22.7486 67.6136" stroke="black" stroke-width="2" stroke-linecap="round" stroke-linejoin="round"/>
<path d="M77.3024 72.2007H80.862C84.6766 72.2007 84.4952 67.2934 80.862 67.2934H75.7202" stroke="black" stroke-width="2" stroke-linecap="round" stroke-linejoin="round"/>
<path d="M32.8162 55.0041C32.8162 55.0041 24.0583 55.1581 23.9224 55.0041C23.7866 54.8501 24.9758 47.1726 24.9758 47.1726C24.9758 47.1726 32.6591 46.9891 32.8162 47.1726C32.9733 47.3561 32.8162 55.0041 32.8162 55.0041Z" fill="black" stroke="black" stroke-width="2" stroke-linecap="round" stroke-linejoin="round"/>
<path d="M53.5829 55.0498C53.3772 55.2779 41.1164 55.1343 40.9219 55.0498C40.7275 54.9653 40.7685 47.7796 40.9219 47.2661C41.0753 46.7526 49.8005 47.081 50.1445 47.2661C50.4885 47.4512 53.7885 54.8218 53.5829 55.0498Z" fill="black" stroke="black" stroke-width="2" stroke-linecap="round" stroke-linejoin="round"/>
<path d="M80.8625 66.8669C80.8625 66.8669 80.8625 63.1165 80.8625 62.4711C80.8625 61.8256 78.0648 55.3648 77.3944 55.0227C76.724 54.6805 58.1878 54.5832 57.7923 54.345C57.3968 54.1068 53.3717 44.2446 52.7271 43.8544C52.0825 43.4641 22.0036 43.1473 21.4337 43.8544C20.8638 44.5614 18.6109 65.7678 18.3784 67.1109" stroke="black" stroke-width="2" stroke-linecap="round" stroke-linejoin="round"/>
<path d="M71.8709 80.2534C60.2359 84.3926 54.514 68.0951 65.0244 64.1548C66.8328 63.4766 68.5028 63.3243 69.9856 63.5669C77.4461 64.7845 80.1597 75.9702 71.8709 80.2534Z" stroke="black" stroke-width="2" stroke-miterlimit="10" stroke-linecap="round" stroke-linejoin="round"/>
<path d="M68.0677 69.0015C73.0892 68.7959 73.0132 75.5187 68.2901 75.5036C63.5669 75.4869 64.1275 69.1635 68.0677 69.0015Z" fill="black" stroke="black" stroke-width="2" stroke-miterlimit="10" stroke-linecap="round" stroke-linejoin="round"/>
<path d="M34.4637 80.2534C22.8287 84.3926 17.1067 68.0951 27.6171 64.1548C29.4256 63.4766 31.0956 63.3243 32.5784 63.5669C40.0389 64.7845 42.7525 75.9702 34.4637 80.2534Z" stroke="black" stroke-width="2" stroke-miterlimit="10" stroke-linecap="round" stroke-linejoin="round"/>
<path d="M30.5716 69.0015C35.5931 68.7959 35.5171 75.5187 30.794 75.5036C26.0708 75.4869 26.6314 69.1635 30.5716 69.0015Z" fill="black" stroke="black" stroke-width="2" stroke-miterlimit="10" stroke-linecap="round" stroke-linejoin="round"/>
<path d="M41.3797 59.0365C41.3527 60.7738 43.4676 60.07 44.7106 60.2449" stroke="black" stroke-width="2" stroke-miterlimit="10" stroke-linecap="round" stroke-linejoin="round"/>
<path d="M76.9932 60.808L79.5471 60.808L77.6192 57.265L76.9932 57.265C76.0148 57.265 75.2217 58.0581 75.2217 59.0365C75.2217 60.0149 76.0148 60.808 76.9932 60.808Z" fill="black" stroke="black" stroke-width="2" stroke-linecap="round"/>
<path d="M57.8682 54.6407L57.1719 67.3292" stroke="black" stroke-width="2" stroke-linecap="round" stroke-linejoin="round"/>
<path d="M39.3402 67.4421C35.5004 61.4032 37.3365 53.8476 37.1156 43.4845" stroke="black" stroke-width="2" stroke-linecap="round" stroke-linejoin="round"/>
<path d="M22.8235 31.5688C25.2838 30.6684 28.1759 31.2935 29.1463 33.0507M22.8235 31.5688C22.0333 30.881 20.5105 30.6231 19.6709 31.0726M22.8235 31.5688C21.941 33.3084 22.4735 37.3142 23.4889 38.493" stroke="black" stroke-width="2" stroke-linecap="round" stroke-linejoin="round"/>
<path d="M29.146 32.4898H40.4036V39.832" stroke="black" stroke-width="2" stroke-linecap="round" stroke-linejoin="round"/>
<path d="M16.3501 42.3353H21.2588C21.2588 42.3353 43.6131 43.4629 49.7821 42.7996C55.9511 42.1363 68.2891 40.279 68.2891 40.279C68.0237 39.7483 67.1808 38.1814 65.1216 38.1815C63.8457 38.1815 54.8897 39.7483 49.7821 40.279C45.6959 40.7035 29.6389 40.1021 22.1211 39.7483C20.905 39.7262 18.0482 40.2126 16.3501 42.3353Z" stroke="black" stroke-width="2" stroke-linecap="round" stroke-linejoin="round"/>
<circle cx="24.0319" cy="33.9378" r="5.2218" stroke="black" stroke-width="2" stroke-linecap="round" stroke-linejoin="round"/>
<path d="M39.3398 31.5084L40.0122 26.235L47.8821 26.235" stroke="black" stroke-width="2" stroke-linecap="round" stroke-linejoin="round"/>
<circle cx="51.5906" cy="32.6451" r="7.32593" stroke="black" stroke-width="2" stroke-linecap="round" stroke-linejoin="round"/>
<path d="M40.6245 37.9732C41.4069 38.9822 45.8796 39.1585 47.9901 39.0464" stroke="black" stroke-width="2" stroke-linecap="round" stroke-linejoin="round"/>
<circle cx="51.5906" cy="32.6451" r="3.12231" stroke="black" stroke-width="2" stroke-linecap="round" stroke-linejoin="round"/>
<path d="M49.2856 35.3063L52.3646 36.0469C51.9285 37.1722 51.753 37.9003 51.5645 39.3735L48.4855 38.633C48.9815 37.474 49.1398 36.7369 49.2856 35.3063Z" fill="black"/>
<path d="M58.4707 32.5195L57.7302 35.5985C56.2659 35.1293 55.4724 34.8918 54.4035 34.7984L55.1441 31.7194C56.7617 31.8389 57.556 31.9752 58.4707 32.5195Z" fill="black"/>
<path d="M48.7774 30.1882L48.0369 33.2671C48.0369 33.2671 47.179 32.9592 46.6146 32.8135C45.8826 32.6245 44.7102 32.467 44.7102 32.467L45.4507 29.388C47.141 29.68 47.9817 29.8495 48.7774 30.1882Z" fill="black"/>
<path d="M38.2078 32.4898V30.716C38.2078 29.6114 37.3124 28.716 36.2078 28.716H28.7317C28.0525 28.716 27.4523 29.0546 27.0908 29.5723" stroke="black" stroke-width="2"/>
<path d="M51.6172 25.613L54.6961 26.3535C54.3157 27.2246 54.148 27.972 53.896 29.6802L50.8171 28.9396L51.2642 27.4498L51.6172 25.613Z" fill="black"/>
</svg>
