<svg width="100" height="100" viewBox="0 0 100 100" fill="none" xmlns="http://www.w3.org/2000/svg">
<path d="M43.6626 52.26C43.6626 53.5082 42.6508 54.5201 41.4026 54.5201C39.9709 54.5201 39.1426 53.5082 39.1426 52.26C39.1426 51.0118 40.1544 50 41.4026 50C43.2004 50 43.6626 51.0118 43.6626 52.26Z" fill="black" stroke="black" stroke-width="2" stroke-linecap="round" stroke-linejoin="round"/>
<path d="M81.5879 35.2874C81.5879 36.5356 80.5761 37.5474 79.3279 37.5474C77.8962 37.5474 77.0679 36.5356 77.0679 35.2874C77.0679 34.0392 78.0797 33.0273 79.3279 33.0273C81.1257 33.0273 81.5879 34.0392 81.5879 35.2874Z" fill="black" stroke="black" stroke-width="2" stroke-linecap="round" stroke-linejoin="round"/>
<path d="M78.8885 64.3779C80.5571 64.3779 81.9098 63.0253 81.9098 61.3567C81.9098 59.6881 80.5571 58.3354 78.8885 58.3354M78.8885 64.3779C77.22 64.3779 75.8673 63.0253 75.8673 61.3567C75.8673 59.6881 76.6187 58.3354 78.8885 58.3354M78.8885 64.3779C80.5571 64.3779 81.3578 63.0253 81.3578 61.3567C81.3578 59.6881 80.5571 58.3354 78.8885 58.3354" stroke="black" stroke-width="2" stroke-linecap="round" stroke-linejoin="round"/>
<path d="M55.6697 39.2969L46.2767 68.1505C45.5093 70.5075 48.1362 71.5005 48.8228 68.9794L58.2159 40.1258" stroke="black" stroke-width="2"/>
<path d="M72.9911 31.4476C70.7282 38.3987 64.889 42.8839 57.9379 40.621C48.646 38.2919 45.5561 30.2041 47.819 23.253C50.0818 16.302 56.1819 12.0556 64.5023 14.7643C71.4534 17.0271 75.8118 22.783 72.9911 31.4476Z" stroke="black" stroke-width="2" stroke-linecap="round" stroke-linejoin="round"/>
<path d="M67.7832 29.7523C66.4567 33.8271 62.0782 36.0549 58.0034 34.7285C53.9287 33.402 51.2974 30.2625 53.0273 24.9487C54.3538 20.874 58.2761 18.1367 62.8071 19.9726C66.8818 21.299 69.6942 24.5836 67.7832 29.7523Z" stroke="black" stroke-width="2" stroke-linecap="round" stroke-linejoin="round"/>
<path d="M66.5018 15.8052C63.2552 16.87 60.6555 21.5842 60.3599 27.1679C62.7943 22.9997 67.4563 20.4392 72.2664 20.9787C71.8913 19.461 68.9138 16.975 66.5018 15.8052Z" fill="black" stroke="black" stroke-width="2" stroke-linecap="round" stroke-linejoin="round"/>
<path d="M53.8138 38.4768C57.0604 37.412 59.9635 32.8831 60.259 27.2994C57.8247 31.4676 53.4931 33.7982 48.683 33.2587C49.0581 34.7764 51.4018 37.307 53.8138 38.4768Z" fill="black" stroke="black" stroke-width="2" stroke-linecap="round" stroke-linejoin="round"/>
<path d="M71.7605 33.7034C70.6956 30.4569 65.959 27.5797 60.3753 27.2842C64.5434 29.7185 66.5525 34.956 66.013 39.7662C67.5307 39.3911 70.5907 36.1154 71.7605 33.7034Z" fill="black" stroke="black" stroke-width="2" stroke-linecap="round" stroke-linejoin="round"/>
<path d="M49.0652 20.9723C50.1301 24.2189 54.6599 26.8872 60.2436 27.1827C56.0754 24.7483 53.7751 20.2974 54.3147 15.4873C52.797 15.8624 50.235 18.5603 49.0652 20.9723Z" fill="black" stroke="black" stroke-width="2" stroke-linecap="round" stroke-linejoin="round"/>
<path d="M39.1426 67.7405C39.1426 72.9345 35.5074 77.145 29.738 77.145C23.0711 77.145 20.3335 72.9345 20.3335 67.7405C20.3335 62.5465 24.5441 58.3359 29.738 58.3359C35.5916 58.3359 39.1426 62.5465 39.1426 67.7405Z" stroke="black" stroke-width="2" stroke-linecap="round" stroke-linejoin="round"/>
<path d="M29.6509 58.4795C26.7507 60.984 27.4039 65.6022 29.6509 67.3814C32.8183 70.0229 31.4306 75.5312 29.6509 76.9154" stroke="black" stroke-width="2" stroke-linecap="round" stroke-linejoin="round"/>
<path d="M38.8452 67.7197C36.3408 64.8194 31.7225 65.4726 29.9433 67.7197C27.3018 70.887 21.7935 69.4994 20.4093 67.7197" stroke="black" stroke-width="2" stroke-linecap="round" stroke-linejoin="round"/>
<path d="M36.5128 61.034C32.6911 60.7542 29.5366 64.6439 29.8674 67.4909C30.2392 71.5984 25.0762 74.5657 22.839 74.286" stroke="black" stroke-width="2" stroke-linecap="round" stroke-linejoin="round"/>
<path d="M36.206 74.6671C36.4858 70.8454 32.6809 67.6062 29.834 67.937C25.7265 68.3088 22.8127 63.4326 23.0924 61.1954" stroke="black" stroke-width="2" stroke-linecap="round" stroke-linejoin="round"/>
<path d="M70.7273 78.3773C71.0336 76.1684 68.3692 74.5706 66.3911 74.4081C63.9912 75.6043 61.8682 77.6754 63.3192 79.7086C65.1458 79.5778 66.0693 78.1717 66.6792 76.971C67.6055 77.6401 68.9385 79.0892 70.7273 78.3773Z" fill="black" stroke="black" stroke-width="2" stroke-linejoin="round"/>
<path d="M69.9276 65.9281C70.9031 71.3548 69.0904 73.694 66.4217 74.1738C63.7531 74.6535 61.003 73.1987 60.2636 67.6654C59.553 62.3476 61.1008 59.8995 63.7694 59.4197C66.4381 58.94 69.0312 60.9418 69.9276 65.9281Z" stroke="black" stroke-width="2" stroke-linejoin="round"/>
<path d="M59.2425 55.4889C59.1081 57.7148 61.8882 59.1015 63.8729 59.1104C66.173 57.732 68.1293 55.5027 66.5253 53.588C64.7142 53.8598 63.9024 55.3332 63.3873 56.5775C62.4119 55.9822 60.9708 54.6406 59.2425 55.4889Z" fill="black" stroke="black" stroke-width="2" stroke-linejoin="round"/>
<path d="M74.0616 45.7195C74.0616 47.3881 72.709 48.7407 71.0404 48.7407C69.3718 48.7407 68.0192 47.3881 68.0192 45.7195C68.0192 44.0509 69.005 42.6982 71.0404 42.6982C72.709 42.6982 74.0616 44.0509 74.0616 45.7195Z" stroke="black" stroke-width="2" stroke-linecap="round" stroke-linejoin="round"/>
<path d="M68.0192 45.7195C68.0192 47.3881 68.9859 48.4295 70.6545 48.4295C72.323 48.4295 73.6757 47.0768 73.6757 45.4082C73.6757 43.7396 72.709 42.6982 71.0404 42.6982" stroke="black" stroke-width="2" stroke-linecap="round" stroke-linejoin="round"/>
<path d="M27.0326 28.3496C26.9835 28.2876 26.937 28.2246 26.8937 28.1585C26.2436 27.1644 25.96 26.2171 27.5669 25.1334L31.1005 22.7503C32.103 22.0743 33.1807 21.9082 34.1442 23.2428C34.1987 23.3183 34.2537 23.3935 34.3125 23.4658C34.6266 23.8521 35.7097 25.1933 36.3851 26.1461C37.4766 27.6857 38.8745 30.1448 39.1814 30.6898C39.223 30.7636 39.2674 30.8336 39.3109 30.9063C39.9292 31.9402 39.795 33.4955 38.7996 34.1667L35.266 36.5498C33.7516 37.5711 32.8998 36.6149 32.2096 35.5987C32.192 35.5728 32.1759 35.5481 32.1592 35.5216C31.9707 35.224 30.7096 33.2423 29.4227 31.4664C28.6163 30.3535 27.3488 28.7483 27.0326 28.3496Z" stroke="black" stroke-width="2" stroke-linecap="round" stroke-linejoin="round"/>
<path d="M43.7411 37.7863C43.0585 35.3914 39.6161 34.9598 37.5218 35.6854C35.609 37.9892 34.3734 41.0621 36.7722 42.4855C38.5796 41.5285 38.8893 39.6757 38.9713 38.1741C40.2193 38.4401 42.2344 39.3199 43.7411 37.7863Z" fill="black" stroke="black" stroke-width="2" stroke-linejoin="round"/>
<path d="M34.6153 28.6844C35.0577 29.3403 34.8845 30.2307 34.2286 30.6731C33.4762 31.1805 32.6823 30.9423 32.2399 30.2863C31.7976 29.6304 31.9707 28.74 32.6267 28.2977C33.5714 27.6605 34.173 28.0284 34.6153 28.6844Z" fill="black" stroke="black" stroke-width="2" stroke-linecap="round" stroke-linejoin="round"/>
<path d="M22.8163 22.0479C23.6823 24.3827 27.1478 24.5465 29.1796 23.661C30.9083 21.216 31.9023 18.0566 29.4005 16.8232C27.6726 17.9172 27.5073 19.7885 27.5418 21.292C26.2769 21.1233 24.1998 20.4022 22.8163 22.0479Z" fill="black" stroke="black" stroke-width="2" stroke-linejoin="round"/>
<path d="M22.7181 44.4728C23.3207 42.9168 25.0705 42.1439 26.6265 42.7464C28.1825 43.349 28.9554 45.0988 28.3529 46.6548C27.7503 48.2108 26.3425 49.1162 24.4445 48.3812C22.8885 47.7786 22.1156 46.0288 22.7181 44.4728Z" stroke="black" stroke-width="2" stroke-linecap="round" stroke-linejoin="round"/>
<path d="M28.3529 46.6548C28.9554 45.0988 28.43 43.7786 26.874 43.176C25.318 42.5735 23.5682 43.3464 22.9656 44.9024C22.3631 46.4584 22.8885 47.7786 24.4445 48.3812" stroke="black" stroke-width="2" stroke-linecap="round" stroke-linejoin="round"/>
</svg>
