<svg width="100" height="100" viewBox="0 0 100 100" fill="none" xmlns="http://www.w3.org/2000/svg">
<path d="M28.0559 46.5941C29.6347 35.7511 39.9023 30.8419 52.1697 32.23C64.437 33.6181 74.2721 40.4616 72.4595 51.6215C70.5416 63.5252 60.6131 67.3738 48.3457 65.9845C36.0901 64.5964 26.2316 59.1234 28.0559 46.5941Z" stroke="black" stroke-width="2" stroke-miterlimit="10" stroke-linejoin="round"/>
<path d="M69.7109 59.7996C69.7109 59.7996 70.6232 62.5794 73.9093 64.7803C74.5759 65.2212 75.3243 65.6386 76.1896 66.0058C79.8383 67.5693 82.0017 67.2876 83.5103 65.2913C84.9838 63.3325 83.8144 60.9258 83.8144 60.9258C83.8144 60.9258 87.0304 60.9106 87.9308 58.0841C88.8196 55.2564 85.6037 53.2917 85.6037 53.2917C85.6037 53.2917 89.9071 51.0464 87.8606 47.8995C85.8024 44.7525 81.0077 45.2963 77.5929 45.8202C74.1899 46.3441 72.7633 46.964 72.7633 46.964" stroke="black" stroke-width="2" stroke-miterlimit="10" stroke-linecap="round" stroke-linejoin="round"/>
<path d="M71.7693 55.9099C71.7693 55.9099 74.2836 58.9528 76.5056 59.603" stroke="black" stroke-width="2" stroke-miterlimit="10" stroke-linecap="round" stroke-linejoin="round"/>
<path d="M73.0908 52.3735L76.8681 51.9993" stroke="black" stroke-width="2" stroke-miterlimit="10" stroke-linecap="round" stroke-linejoin="round"/>
<path d="M30.4766 39.1719C30.4766 39.1719 29.0733 35.1981 23.8693 33.106C20.1856 31.6208 18.0338 31.9483 16.572 33.9772C15.1336 35.9664 16.3498 38.3474 16.3498 38.3474C16.3498 38.3474 13.1339 38.4316 12.3036 41.2768C11.4733 44.1232 14.7244 46.0189 14.7244 46.0189C14.7244 46.0189 10.4676 48.3554 12.5959 51.4579C14.7126 54.5604 19.4957 53.9138 22.8987 53.3174C26.2901 52.7198 27.7051 52.0708 27.7051 52.0708" stroke="black" stroke-width="2" stroke-miterlimit="10" stroke-linecap="round" stroke-linejoin="round"/>
<path d="M22.0217 47.1367C24.4775 47.87 27.7403 47.8431 27.7403 47.8431" stroke="black" stroke-width="2" stroke-miterlimit="10" stroke-linecap="round" stroke-linejoin="round"/>
<path d="M34.4644 45.3418C34.4644 45.3418 31.611 52.2532 36.6162 55.9357C41.633 59.6194 49.667 61.9127 55.8884 61.4379" stroke="black" stroke-width="2" stroke-miterlimit="10" stroke-linecap="round" stroke-linejoin="round"/>
<path d="M24.2085 39.9297C26.6175 40.6898 28.5471 43.6426 28.5471 43.6426" stroke="black" stroke-width="2" stroke-miterlimit="10" stroke-linecap="round" stroke-linejoin="round"/>
<path d="M45.9951 37.3967C45.9951 37.3967 60.8235 38.848 65.396 43.6029C69.9802 48.3567 65.7701 54.8681 65.7701 54.8681" stroke="black" stroke-width="2" stroke-miterlimit="10" stroke-linecap="round" stroke-linejoin="round"/>
<path d="M43.3172 49.3135C43.3172 49.3135 42.9546 52.7762 46.4746 53.2907" stroke="black" stroke-width="2" stroke-miterlimit="10" stroke-linecap="round" stroke-linejoin="round"/>
<path d="M69.407 59.3827C69.407 59.3827 69.8865 60.4282 70.4713 61.3123C71.0443 62.1963 71.7109 62.9179 71.7109 62.9179C71.7109 62.9179 63.5483 69.71 45.387 66.5245C26.8397 63.2688 25.5767 52.8666 25.5767 52.8666L27.9741 52.0293C27.9741 52.0293 28.5002 57.1678 33.4469 60.8691C39.1889 65.1504 48.3457 66.0543 48.3457 66.0543C48.3457 66.0543 57.4555 67.4272 64.4137 63.6792C67.5945 61.966 69.407 59.3827 69.407 59.3827Z" fill="black" stroke="black" stroke-width="2" stroke-miterlimit="10" stroke-linecap="round" stroke-linejoin="round"/>
<path d="M57.1047 46.3643C57.1047 46.3643 59.7477 46.9618 59.888 49.9252" stroke="black" stroke-width="2" stroke-miterlimit="10" stroke-linecap="round" stroke-linejoin="round"/>
</svg>
