<svg width="100" height="100" viewBox="0 0 100 100" fill="none" xmlns="http://www.w3.org/2000/svg">
<path d="M43.852 28.5548C41.5461 29.2222 41.3741 32.2211 41.5764 33.6371C42.2589 36.0644 48.3275 31.6649 48.7068 31.2097C49.0861 30.7546 46.7345 27.7205 43.852 28.5548Z" stroke="black" stroke-width="2" stroke-linecap="round"/>
<path d="M41.9853 38.3872C40.9957 38.3699 38.517 38.6587 37.6005 39.8252C36.4549 41.2833 35.799 41.728 35.22 43.002C34.6408 44.276 38.1245 46.6882 38.6906 46.4726C39.2567 46.2569 40.0766 44.8951 40.144 43.8281" stroke="black" stroke-width="2" stroke-linecap="round"/>
<path d="M41.8796 33.9873C41.7152 35.0905 43.2365 35.9255 43.4283 36.4985C43.6932 37.2902 43.0678 37.9403 42.6237 38.2734" stroke="black" stroke-width="2" stroke-linecap="round"/>
<path d="M48.3267 32.0127C48.5234 32.5534 49.3311 33.5195 48.7867 35.7513C48.6028 36.5048 47.2911 37.3807 47.6049 38.8247" stroke="black" stroke-width="2" stroke-linecap="round"/>
<path d="M47.7031 38.7689C49.6706 38.5464 53.6773 38.235 53.9648 38.7689C54.3243 39.4362 54.7863 43.0292 54.3756 43.4398C54.047 43.7683 51.4328 43.953 50.1668 44.0044" stroke="black" stroke-width="2" stroke-linecap="round"/>
<path d="M34.85 44.013C33.8615 44.8777 32.0868 47.2744 32.0869 47.7866C32.087 48.427 33.1652 49.8085 34.1087 49.6063C34.8635 49.4446 37.2761 47.4049 38.388 46.4053" stroke="black" stroke-width="2" stroke-linecap="round"/>
<path d="M39.1885 46.413C39.304 48.7791 39.826 53.7718 40.0447 54.1C41.1988 55.8311 46.9695 56.5236 50.9513 54.5038C52.8466 53.5424 52.2531 51.6708 51.8839 49.2972C51.6327 47.6816 51.9505 45.558 51.413 44.405" stroke="black" stroke-width="2" stroke-linecap="round"/>
<path d="M55.0333 42.9029C56.4823 42.7036 59.7037 41.7262 59.921 41.0742C60.1927 40.2592 59.6205 36.6629 59.6749 36.0109C59.7292 35.3588 58.3786 31.689 57.6428 31.5115C57.0171 31.3606 56.0173 31.4116 55.5025 32.196C55.4436 32.3891 55.479 32.9877 55.7178 33.3924C55.9419 33.7722 56.6702 34.3729 56.738 34.9782C56.8683 36.1406 56.7621 37.9695 56.5093 38.2611C56.2566 38.5527 54.4004 39.1402 54.4004 39.1402" stroke="black" stroke-width="2" stroke-linecap="round"/>
<path d="M38.8892 50.6839C34.605 54.968 25.4046 64.4844 22.8762 68.277C19.7157 73.0178 18.0301 79.0227 20.0317 79.0227C22.0333 79.0227 43.5244 71.6483 59.116 59.2171C74.7075 46.786 82.9247 33.7228 83.6622 32.2479C84.3996 30.773 84.1889 28.034 81.6606 28.8767C79.6379 29.551 66.5606 35.4083 60.2748 38.2526" stroke="black" stroke-width="2" stroke-linecap="round"/>
<path d="M38.1647 51.8948C37.5137 53.703 37.6434 57.0681 41.4623 58.1675C46.236 59.5418 52.6523 57.4743 58.3664 53.4239C64.0805 49.3734 63.5322 46.391 62.7743 45.3804C60.7553 42.6884 56.6611 43.4173 54.3056 43.4174" stroke="black" stroke-width="2" stroke-linecap="round"/>
<path d="M19.335 78.3244C19.5166 79.3007 22.2026 80.6729 26.3226 80.176C33.7436 79.2808 46.3518 72.3777 49.4166 70.4026C52.4815 68.4275 69.6134 55.8964 75.5699 48.6764C77.8175 45.9521 84.3459 35.7827 84.0194 29.9875" stroke="black" stroke-width="2" stroke-linecap="round"/>
<path d="M27.7783 63.215C29.7079 63.1528 34.0899 63.2898 36.1812 64.3354C38.2726 65.3811 39.7913 69.2112 40.2892 70.9955" stroke="black" stroke-width="2" stroke-linecap="round"/>
<path d="M64.7734 36.3808C65.1407 36.3073 68.6013 37.373 70.7463 38.6104C72.8913 39.8478 74.2726 42.6728 74.6888 44.2397" stroke="black" stroke-width="2" stroke-linecap="round"/>
<path d="M31.7869 48.2375C31.3937 48.406 28.2528 50.4142 26.7314 51.3972" stroke="black" stroke-width="2" stroke-linecap="round"/>
<path d="M48.5713 38.1468L55.8316 33.7483" stroke="black" stroke-width="2" stroke-linecap="round"/>
<path d="M59.0723 31.8671L68.8574 25.4539" stroke="black" stroke-width="2" stroke-linecap="round"/>
<path d="M15.9884 56.6527C15.6421 55.9217 19.3743 52.8436 21.1442 51.8047C22.7364 50.87 26.3219 50.7452 27.2216 50.7294C26.7605 51.8446 25.723 54.1748 25.2613 54.575C24.6841 55.0752 20.6056 58.4611 19.1435 58.9228C17.6814 59.3845 16.3346 57.3838 15.9884 56.6527Z" fill="black"/>
<path d="M27.4159 50.7273C27.3889 50.7273 27.3219 50.7277 27.2216 50.7294M27.2216 50.7294C26.3219 50.7452 22.7364 50.87 21.1442 51.8047C19.3743 52.8436 15.6421 55.9217 15.9884 56.6527C16.3346 57.3838 17.6814 59.3845 19.1435 58.9228C20.6056 58.4611 24.6841 55.0752 25.2613 54.575C25.723 54.1748 26.7605 51.8446 27.2216 50.7294Z" stroke="black" stroke-width="2" stroke-linecap="round"/>
<path d="M79.8043 19.9853C80.1393 20.7216 76.36 23.7417 74.5743 24.7532C72.9677 25.6631 69.3808 25.7326 68.481 25.7344C68.9592 24.6266 70.0326 22.3126 70.5004 21.9196C71.0852 21.4284 75.2155 18.1059 76.6846 17.6668C78.1536 17.2277 79.4694 19.249 79.8043 19.9853Z" fill="black"/>
<path d="M68.2866 25.7336C68.3137 25.734 68.3806 25.7346 68.481 25.7344M68.481 25.7344C69.3808 25.7326 72.9677 25.6631 74.5743 24.7532C76.36 23.7417 80.1393 20.7216 79.8043 19.9853C79.4694 19.249 78.1536 17.2277 76.6846 17.6668C75.2155 18.1059 71.0852 21.4284 70.5004 21.9196C70.0326 22.3126 68.9592 24.6266 68.481 25.7344Z" stroke="black" stroke-width="2" stroke-linecap="round"/>
<path d="M42.7197 38.637C43.4265 39.1285 45.3751 39.8908 47.3295 39.0058" stroke="black" stroke-width="2" stroke-linecap="round"/>
<path d="M43.6845 55.8388L38.6768 53.8792V56.1111L41.3983 57.853L47.4948 58.1796L54.5711 55.8388L62.0828 50.1235L63.4981 46.9663L61.3208 44.2991L55.1698 43.3735L51.5228 44.2991L52.0127 53.2805L49.9443 55.1312L43.6845 55.8388Z" fill="black"/>
<path d="M39.4463 82.5291C40.0401 80.8326 42.8515 77.8287 44.8874 77.7268C47.4323 77.5995 49.8802 76.8032 50.7709 76.0397C51.4835 75.429 51.7144 74.6416 54.5371 73.0005" stroke="black" stroke-width="2" stroke-linecap="round"/>
<path d="M57.1973 77.765C57.4605 77.0128 58.303 75.3956 59.5666 74.9443C61.146 74.3803 64.0794 74.1546 64.6435 72.8008" stroke="black" stroke-width="2" stroke-linecap="round"/>
<path d="M82.8874 47.7473C81.2402 50.4655 78.4022 50.1622 77.3591 53.0006C76.8184 54.4718 75.8468 55.9633 73.4775 57.6556" stroke="black" stroke-width="2" stroke-linecap="round"/>
<path d="M32.2261 74.733L21.0557 78.8747L26.1389 80.3181L31.7868 78.8747L40.0703 75.8625L48.6049 70.8421L59.1477 63.3744L67.6195 56.3459L76.0914 48.0623L81.4883 39.0884V36.8293L74.2088 45.05L66.3017 53.2082L55.0687 62.1822L43.8984 69.4617L32.2261 74.733Z" fill="black"/>
<path d="M76.3083 60.7815C76.1667 61.3242 75.4478 61.9021 74.655 62.3551C73.8621 62.8082 72.9088 63.5822 72.5312 63.9125" stroke="black" stroke-width="2" stroke-linecap="round"/>
</svg>
