<svg width="100" height="100" viewBox="0 0 100 100" fill="none" xmlns="http://www.w3.org/2000/svg">
<path d="M37.3101 73.2309C37.8831 72.2384 39.172 71.9319 40.1368 72.5505C42.4877 74.0578 43.9256 74.9137 45.6018 75.7628C46.6164 76.2768 47.0179 77.5312 46.4492 78.5162C45.9438 79.3916 44.849 79.7328 43.9365 79.2981C41.5844 78.1776 39.8269 77.2974 37.7827 75.8287C36.979 75.2514 36.777 74.1542 37.2718 73.2972L37.3101 73.2309Z" stroke="black" stroke-width="2" stroke-linecap="round" stroke-linejoin="round"/>
<path d="M37.2716 73.2973L37.3099 73.2309C37.8829 72.2384 38.906 72.5939 39.8708 73.2125C42.2216 74.7198 43.6595 75.5757 45.3357 76.4248C46.3503 76.9388 47.0177 77.5313 46.449 78.5163" stroke="black" stroke-width="2" stroke-linecap="round" stroke-linejoin="round"/>
<path d="M65.2292 45.6862L68.7128 39.6524L67.8388 36.8787L70.7003 36.21L72.3304 33.3865L71.3447 30.8062L74.1169 30.2923L75.7471 27.4687L74.9624 24.5403L77.6675 24.1425L79.4763 21.0095L77.4225 13.2225L69.652 15.3374L67.8431 18.4704L68.8512 21.012L65.9227 21.7966L64.2925 24.6202L65.2335 27.2779L62.5061 27.7144L60.8759 30.5379L61.7276 33.3504L58.8885 33.9803L55.4048 40.0141" stroke="black" stroke-width="2" stroke-linecap="round" stroke-linejoin="round"/>
<path d="M60.3171 42.8505L73.7642 19.5596" stroke="black" stroke-width="2" stroke-linecap="round" stroke-linejoin="round"/>
<path d="M57.241 41.3278C49.8515 38.2324 33.9567 38.8513 27.8611 53.403C22.9643 65.0928 28.4711 78.5388 40.1609 83.4356C51.8506 88.3323 66.3593 82.8404 70.9926 69.144C75.6804 55.2861 66.5763 45.2383 57.241 41.3278Z" stroke="black" stroke-width="2"/>
<path d="M27.861 53.403C23.5225 64.3154 28.264 76.1445 40.5589 81.8003C52.8538 87.4561 66.3229 82.2156 70.9925 69.1439" stroke="black" stroke-width="2"/>
<mask id="path-7-inside-1_65_20900" fill="white">
<path fill-rule="evenodd" clip-rule="evenodd" d="M49.2703 67.1221C50.764 63.9305 54.872 60.7479 59.1958 63.2442C62.3797 65.0825 65.7563 68.5231 62.2415 74.611C60.4033 77.7949 54.8908 78.0537 51.7069 76.2155C48.5229 74.3772 48.0186 69.7965 49.2703 67.1221ZM55.6001 67.1722C55.3716 67.0403 55.0794 67.1186 54.9474 67.3471L52.8838 70.9214C52.7518 71.15 52.8586 71.4574 53.0871 71.5894L56.7313 73.6933C56.9598 73.8252 57.2236 73.7317 57.3555 73.5032C57.3555 73.5032 57.9027 72.5828 58.2439 71.9645C58.637 71.2522 59.0005 70.6459 59.2176 70.2838C59.3679 70.0332 59.448 69.8996 59.4192 69.9289C59.5511 69.7003 59.4728 69.4081 59.2443 69.2762C58.5208 68.8299 58.0058 68.5389 57.2496 68.1116C56.8105 67.8635 56.29 67.5694 55.6001 67.1722Z"/>
</mask>
<path fill-rule="evenodd" clip-rule="evenodd" d="M49.2703 67.1221C50.764 63.9305 54.872 60.7479 59.1958 63.2442C62.3797 65.0825 65.7563 68.5231 62.2415 74.611C60.4033 77.7949 54.8908 78.0537 51.7069 76.2155C48.5229 74.3772 48.0186 69.7965 49.2703 67.1221ZM55.6001 67.1722C55.3716 67.0403 55.0794 67.1186 54.9474 67.3471L52.8838 70.9214C52.7518 71.15 52.8586 71.4574 53.0871 71.5894L56.7313 73.6933C56.9598 73.8252 57.2236 73.7317 57.3555 73.5032C57.3555 73.5032 57.9027 72.5828 58.2439 71.9645C58.637 71.2522 59.0005 70.6459 59.2176 70.2838C59.3679 70.0332 59.448 69.8996 59.4192 69.9289C59.5511 69.7003 59.4728 69.4081 59.2443 69.2762C58.5208 68.8299 58.0058 68.5389 57.2496 68.1116C56.8105 67.8635 56.29 67.5694 55.6001 67.1722Z" fill="black"/>
<path d="M59.1958 63.2442L58.0181 65.284V65.284L59.1958 63.2442ZM49.2703 67.1221L51.4036 68.1205L49.2703 67.1221ZM62.2415 74.611L60.2017 73.4333L62.2415 74.611ZM51.7069 76.2155L52.8845 74.1756L51.7069 76.2155ZM54.9474 67.3471L52.9076 66.1694L52.9076 66.1694L54.9474 67.3471ZM55.6001 67.1722L54.4224 69.212L54.425 69.2135L55.6001 67.1722ZM52.8838 70.9214L54.9236 72.0991L54.9236 72.0991L52.8838 70.9214ZM53.0871 71.5894L54.2648 69.5495L54.2648 69.5495L53.0871 71.5894ZM56.7313 73.6933L57.909 71.6535L57.909 71.6535L56.7313 73.6933ZM57.3555 73.5032L55.3309 72.2996L55.3232 72.3125L55.3157 72.3255L57.3555 73.5032ZM58.2439 71.9645L56.1817 70.8265L56.1817 70.8265L58.2439 71.9645ZM59.2176 70.2838L61.2377 71.4951L61.2377 71.495L59.2176 70.2838ZM59.4192 69.9289L57.3794 68.7512L61.0974 71.5815L59.4192 69.9289ZM59.2443 69.2762L58.0078 71.2809L58.0369 71.2988L58.0666 71.316L59.2443 69.2762ZM57.2496 68.1116L58.4084 66.061L58.4084 66.061L57.2496 68.1116ZM60.3735 61.2044C57.4462 59.5144 54.4913 59.7497 52.1132 60.9461C49.8322 62.0937 48.0805 64.1077 47.137 66.1236L51.4036 68.1205C51.9538 66.9449 53.003 65.7718 54.2304 65.1543C55.3607 64.5856 56.6216 64.4778 58.0181 65.284L60.3735 61.2044ZM64.2813 75.7887C66.3225 72.2532 66.5556 69.0807 65.3916 66.3968C64.2942 63.8667 62.1423 62.2256 60.3735 61.2044L58.0181 65.284C59.4332 66.1011 60.5616 67.0994 61.0698 68.2712C61.5113 69.2892 61.6753 70.881 60.2017 73.4333L64.2813 75.7887ZM50.5292 78.2553C52.616 79.4601 55.3107 79.9195 57.7505 79.6362C60.1611 79.3563 62.8483 78.2708 64.2813 75.7887L60.2017 73.4333C59.7965 74.1351 58.8083 74.771 57.2071 74.9569C55.6351 75.1394 53.9816 74.8091 52.8845 74.1756L50.5292 78.2553ZM47.137 66.1236C46.2677 67.981 46.06 70.327 46.5225 72.4776C46.9903 74.6525 48.2151 76.9192 50.5292 78.2553L52.8845 74.1756C52.0147 73.6734 51.3954 72.7307 51.1279 71.4871C50.8552 70.2191 51.0212 68.9375 51.4036 68.1205L47.137 66.1236ZM56.9872 68.5248C56.4688 69.4228 55.3205 69.7305 54.4224 69.212L56.7778 65.1324C55.4227 64.35 53.69 64.8143 52.9076 66.1694L56.9872 68.5248ZM54.9236 72.0991L56.9872 68.5248L52.9076 66.1694L50.844 69.7437L54.9236 72.0991ZM54.2648 69.5495C54.6903 69.7952 54.967 70.1756 55.0949 70.5779C55.2256 70.9888 55.2371 71.5561 54.9236 72.0991L50.844 69.7437C49.9617 71.2719 50.7356 72.9514 51.9095 73.6292L54.2648 69.5495ZM57.909 71.6535L54.2648 69.5495L51.9095 73.6292L55.5536 75.7331L57.909 71.6535ZM55.3157 72.3255C55.5188 71.9738 55.8715 71.6467 56.3631 71.4897C56.8771 71.3255 57.4425 71.3842 57.909 71.6535L55.5536 75.7331C57.0864 76.6181 58.7205 75.8497 59.3953 74.6809L55.3157 72.3255ZM56.1817 70.8265C56.0254 71.1098 55.815 71.4744 55.6376 71.7783C55.5502 71.9281 55.4731 72.0591 55.4179 72.1526C55.3903 72.1993 55.3683 72.2365 55.3533 72.2618C55.3458 72.2744 55.3401 72.2841 55.3363 72.2905C55.3344 72.2937 55.333 72.2961 55.3321 72.2977C55.3316 72.2984 55.3313 72.299 55.3311 72.2993C55.331 72.2995 55.3309 72.2996 55.3309 72.2996C55.3309 72.2997 55.3309 72.2997 55.3309 72.2997L55.3309 72.2997C55.3309 72.2996 55.3309 72.2996 57.3555 73.5032C59.3802 74.7068 59.3802 74.7068 59.3802 74.7067C59.3802 74.7067 59.3802 74.7067 59.3802 74.7066C59.3803 74.7066 59.3803 74.7065 59.3804 74.7064C59.3805 74.7063 59.3806 74.706 59.3808 74.7058C59.3811 74.7052 59.3816 74.7044 59.3822 74.7034C59.3833 74.7014 59.385 74.6986 59.3872 74.6949C59.3916 74.6875 59.3979 74.6768 59.4061 74.6631C59.4223 74.6357 59.4457 74.5961 59.4748 74.5469C59.5329 74.4485 59.6139 74.3108 59.7059 74.1532C59.8874 73.8423 60.1212 73.4376 60.306 73.1026L56.1817 70.8265ZM57.1975 69.0726C56.9793 69.4366 56.5969 70.0742 56.1817 70.8265L60.306 73.1026C60.6771 72.4303 61.0217 71.8552 61.2377 71.4951L57.1975 69.0726ZM61.0974 71.5815C61.0919 71.5872 60.9085 71.7833 60.6227 71.9524C60.5582 71.9905 59.9911 72.3486 59.1902 72.2686C58.6832 72.2179 58.1353 71.9935 57.7062 71.5358C57.3157 71.1191 57.1725 70.6679 57.1171 70.3961C57.018 69.9105 57.103 69.523 57.119 69.4462C57.1486 69.3046 57.1851 69.1963 57.2033 69.1448C57.2411 69.0376 57.2784 68.9581 57.2901 68.9331C57.3325 68.8432 57.3696 68.7822 57.345 68.825C57.3225 68.8639 57.2783 68.9378 57.1975 69.0726L61.2377 71.495C61.3071 71.3792 61.3781 71.261 61.4261 71.1778C61.4367 71.1595 61.4978 71.055 61.5518 70.9404C61.5665 70.9093 61.6058 70.8248 61.645 70.7138C61.6639 70.6604 61.7008 70.5505 61.7306 70.4076C61.7469 70.3296 61.832 69.9411 61.7328 69.4548C61.6773 69.1827 61.534 68.7312 61.1433 68.3143C60.7141 67.8564 60.1659 67.6319 59.6586 67.5812C58.8572 67.5011 58.2893 67.8595 58.2239 67.8982C57.9361 68.0684 57.7501 68.2669 57.7409 68.2762L61.0974 71.5815ZM58.0666 71.316C57.1686 70.7975 56.8609 69.6492 57.3794 68.7512L61.459 71.1066C62.2413 69.7515 61.777 68.0187 60.422 67.2363L58.0666 71.316ZM56.0909 70.1622C56.8471 70.5896 57.3268 70.8608 58.0078 71.2809L60.4808 67.2715C59.7149 66.7991 59.1646 66.4883 58.4084 66.061L56.0909 70.1622ZM54.425 69.2135C55.1235 69.6156 55.651 69.9137 56.0909 70.1622L58.4084 66.061C57.97 65.8133 57.4565 65.5231 56.7753 65.1309L54.425 69.2135Z" fill="black" mask="url(#path-7-inside-1_65_20900)"/>
<mask id="path-9-inside-2_65_20900" fill="white">
<path fill-rule="evenodd" clip-rule="evenodd" d="M31.8631 57.165C33.3568 53.9735 37.4648 50.7909 41.7886 53.2872C44.9725 55.1254 48.3491 58.5661 44.8343 64.654C42.996 67.8379 37.4835 68.0967 34.2996 66.2584C31.1157 64.4202 30.6113 59.8394 31.8631 57.165ZM41.9535 59.2311L41.6076 59.8301C41.5097 59.9997 41.2928 60.0578 41.1232 59.9599C40.6422 59.6974 40.2818 59.4898 39.4564 58.9976C39.2868 58.8996 39.0699 58.9577 38.972 59.1274L38.579 59.8079C38.4811 59.9775 38.5392 60.1944 38.7088 60.2923C39.2199 60.5282 39.6172 60.719 40.3757 61.2547C40.5453 61.3526 40.6034 61.5695 40.5055 61.7391C40.3068 62.1742 40.131 62.4745 39.7263 63.0888C39.6283 63.2584 39.4115 63.3165 39.2418 63.2186C38.11 62.6493 37.3702 62.2362 35.6855 61.1653C35.5159 61.0674 35.4578 60.8505 35.5557 60.6809C36.2091 59.357 36.5773 58.613 37.8384 56.7272C37.9382 56.5544 38.161 56.4979 38.3311 56.6023C39.5046 57.2016 40.2344 57.6262 41.8319 58.7516C41.9956 58.8522 42.0495 59.0648 41.9535 59.2311Z"/>
</mask>
<path fill-rule="evenodd" clip-rule="evenodd" d="M31.8631 57.165C33.3568 53.9735 37.4648 50.7909 41.7886 53.2872C44.9725 55.1254 48.3491 58.5661 44.8343 64.654C42.996 67.8379 37.4835 68.0967 34.2996 66.2584C31.1157 64.4202 30.6113 59.8394 31.8631 57.165ZM41.9535 59.2311L41.6076 59.8301C41.5097 59.9997 41.2928 60.0578 41.1232 59.9599C40.6422 59.6974 40.2818 59.4898 39.4564 58.9976C39.2868 58.8996 39.0699 58.9577 38.972 59.1274L38.579 59.8079C38.4811 59.9775 38.5392 60.1944 38.7088 60.2923C39.2199 60.5282 39.6172 60.719 40.3757 61.2547C40.5453 61.3526 40.6034 61.5695 40.5055 61.7391C40.3068 62.1742 40.131 62.4745 39.7263 63.0888C39.6283 63.2584 39.4115 63.3165 39.2418 63.2186C38.11 62.6493 37.3702 62.2362 35.6855 61.1653C35.5159 61.0674 35.4578 60.8505 35.5557 60.6809C36.2091 59.357 36.5773 58.613 37.8384 56.7272C37.9382 56.5544 38.161 56.4979 38.3311 56.6023C39.5046 57.2016 40.2344 57.6262 41.8319 58.7516C41.9956 58.8522 42.0495 59.0648 41.9535 59.2311Z" fill="black"/>
<path d="M41.7886 53.2872L40.6109 55.327V55.327L41.7886 53.2872ZM31.8631 57.165L33.9963 58.1635L31.8631 57.165ZM44.8343 64.654L42.7945 63.4763L44.8343 64.654ZM34.2996 66.2584L35.4773 64.2186L34.2996 66.2584ZM41.6076 59.8301L43.6474 61.0078V61.0078L41.6076 59.8301ZM41.9535 59.2311L43.9933 60.4088L43.9933 60.4088L41.9535 59.2311ZM41.1232 59.9599L42.3009 57.9201L42.2763 57.9059L42.2514 57.8923L41.1232 59.9599ZM39.4564 58.9976L40.6627 56.9746L40.6484 56.9661L40.6341 56.9578L39.4564 58.9976ZM38.972 59.1274L41.0118 60.305L41.0118 60.305L38.972 59.1274ZM38.579 59.8079L36.5392 58.6303L36.5392 58.6303L38.579 59.8079ZM38.7088 60.2923L37.5311 62.3322L37.6243 62.3859L37.722 62.431L38.7088 60.2923ZM40.3757 61.2547L39.0169 63.1786L39.1048 63.2407L39.198 63.2945L40.3757 61.2547ZM40.5055 61.7391L38.4657 60.5614L38.4095 60.6586L38.3629 60.7607L40.5055 61.7391ZM39.7263 63.0888L37.7595 61.7927L37.7212 61.8508L37.6864 61.9111L39.7263 63.0888ZM39.2418 63.2186L40.4195 61.1788L40.3608 61.1448L40.3002 61.1144L39.2418 63.2186ZM35.6855 61.1653L36.9491 59.1776L36.9067 59.1506L36.8632 59.1255L35.6855 61.1653ZM35.5557 60.6809L37.5956 61.8586L37.6339 61.7921L37.6679 61.7233L35.5557 60.6809ZM37.8384 56.7272L39.7963 58.0366L39.8394 57.9721L39.8782 57.9049L37.8384 56.7272ZM38.3311 56.6023L37.0987 58.6096L37.1775 58.6579L37.2598 58.7L38.3311 56.6023ZM41.8319 58.7516L40.4753 60.6771L40.5362 60.72L40.5995 60.7589L41.8319 58.7516ZM42.9662 51.2474C40.039 49.5574 37.0841 49.7926 34.706 50.9891C32.425 52.1367 30.6733 54.1507 29.7298 56.1666L33.9963 58.1635C34.5466 56.9878 35.5958 55.8148 36.8231 55.1973C37.9534 54.6286 39.2144 54.5207 40.6109 55.327L42.9662 51.2474ZM46.8741 65.8316C48.9153 62.2961 49.1484 59.1236 47.9843 56.4397C46.887 53.9097 44.735 52.2686 42.9662 51.2474L40.6109 55.327C42.026 56.144 43.1543 57.1424 43.6626 58.3142C44.1041 59.3322 44.2681 60.9239 42.7945 63.4763L46.8741 65.8316ZM33.1219 68.2982C35.2088 69.5031 37.9035 69.9624 40.3432 69.6791C42.7538 69.3993 45.441 68.3138 46.8741 65.8316L42.7945 63.4763C42.3893 64.1781 41.4011 64.8139 39.7999 64.9998C38.2279 65.1824 36.5744 64.852 35.4773 64.2186L33.1219 68.2982ZM29.7298 56.1666C28.8605 58.0239 28.6527 60.37 29.1153 62.5205C29.583 64.6955 30.8079 66.9622 33.1219 68.2982L35.4773 64.2186C34.6075 63.7164 33.9882 62.7736 33.7207 61.53C33.448 60.2621 33.6139 58.9805 33.9963 58.1635L29.7298 56.1666ZM43.6474 61.0078L43.9933 60.4088L39.9136 58.0535L39.5678 58.6524L43.6474 61.0078ZM39.9455 61.9997C41.2417 62.7481 42.8991 62.304 43.6474 61.0078L39.5678 58.6524C40.1203 57.6955 41.344 57.3676 42.3009 57.9201L39.9455 61.9997ZM38.25 61.0205C39.0865 61.5194 39.476 61.7443 39.995 62.0275L42.2514 57.8923C41.8084 57.6506 41.4771 57.4602 40.6627 56.9746L38.25 61.0205ZM41.0118 60.305C40.4593 61.262 39.2356 61.5899 38.2787 61.0374L40.6341 56.9578C39.3379 56.2094 37.6805 56.6535 36.9322 57.9497L41.0118 60.305ZM40.6188 60.9856L41.0118 60.305L36.9322 57.9497L36.5392 58.6303L40.6188 60.9856ZM39.8865 58.2525C40.8435 58.805 41.1713 60.0287 40.6188 60.9856L36.5392 58.6303C35.7909 59.9264 36.235 61.5838 37.5311 62.3322L39.8865 58.2525ZM41.7345 59.3308C40.8252 58.6886 40.2933 58.4295 39.6957 58.1537L37.722 62.431C38.1464 62.6269 38.4092 62.7494 39.0169 63.1786L41.7345 59.3308ZM42.5453 62.9168C43.2936 61.6206 42.8495 59.9632 41.5534 59.2149L39.198 63.2945C38.241 62.742 37.9132 61.5184 38.4657 60.5614L42.5453 62.9168ZM41.693 64.3849C42.1271 63.726 42.377 63.311 42.648 62.7175L38.3629 60.7607C38.2365 61.0375 38.1349 61.2231 37.7595 61.7927L41.693 64.3849ZM38.0642 65.2584C39.3603 66.0067 41.0177 65.5626 41.7661 64.2665L37.6864 61.9111C38.2389 60.9541 39.4626 60.6263 40.4195 61.1788L38.0642 65.2584ZM34.422 63.1531C36.1591 64.2573 36.9679 64.7114 38.1835 65.3228L40.3002 61.1144C39.2521 60.5872 38.5814 60.2151 36.9491 59.1776L34.422 63.1531ZM33.5159 59.5032C32.7676 60.7994 33.2117 62.4568 34.5079 63.2051L36.8632 59.1255C37.8202 59.678 38.1481 60.9017 37.5956 61.8586L33.5159 59.5032ZM35.8805 55.4179C34.5457 57.4138 34.1272 58.2534 33.4436 59.6386L37.6679 61.7233C38.2911 60.4606 38.6088 59.8122 39.7963 58.0366L35.8805 55.4179ZM39.5634 54.5951C38.2635 53.797 36.5613 54.2285 35.7986 55.5495L39.8782 57.9049C39.3152 58.8802 38.0584 59.1988 37.0987 58.6096L39.5634 54.5951ZM43.1884 56.8261C41.5095 55.6433 40.6847 55.1596 39.4023 54.5047L37.2598 58.7C38.3244 59.2437 38.9592 59.609 40.4753 60.6771L43.1884 56.8261ZM43.9933 60.4088C44.7274 59.1374 44.3154 57.5125 43.0642 56.7444L40.5995 60.7589C39.6758 60.1918 39.3717 58.9922 39.9136 58.0535L43.9933 60.4088Z" fill="black" mask="url(#path-9-inside-2_65_20900)"/>
<mask id="path-11-inside-3_65_20900" fill="white">
<path fill-rule="evenodd" clip-rule="evenodd" d="M48.9373 49.2241C50.431 46.0326 54.539 42.85 58.8628 45.3463C62.0467 47.1845 65.4233 50.6252 61.9085 56.713C60.0703 59.897 54.5578 60.1557 51.3738 58.3175C48.1899 56.4793 47.6856 51.8985 48.9373 49.2241ZM53.0286 50.8346C53.601 49.6115 55.1754 48.3917 56.8325 49.3484C58.0527 50.0529 59.3468 51.3715 57.9997 53.7047C57.2952 54.9249 55.1826 55.0241 53.9624 54.3196C52.7422 53.6151 52.5489 51.8595 53.0286 50.8346Z"/>
</mask>
<path fill-rule="evenodd" clip-rule="evenodd" d="M48.9373 49.2241C50.431 46.0326 54.539 42.85 58.8628 45.3463C62.0467 47.1845 65.4233 50.6252 61.9085 56.713C60.0703 59.897 54.5578 60.1557 51.3738 58.3175C48.1899 56.4793 47.6856 51.8985 48.9373 49.2241ZM53.0286 50.8346C53.601 49.6115 55.1754 48.3917 56.8325 49.3484C58.0527 50.0529 59.3468 51.3715 57.9997 53.7047C57.2952 54.9249 55.1826 55.0241 53.9624 54.3196C52.7422 53.6151 52.5489 51.8595 53.0286 50.8346Z" fill="black"/>
<path d="M58.8628 45.3463L57.6851 47.3861V47.3861L58.8628 45.3463ZM48.9373 49.2241L51.0706 50.2225L48.9373 49.2241ZM61.9085 56.713L59.8687 55.5354L61.9085 56.713ZM51.3738 58.3175L52.5515 56.2777L51.3738 58.3175ZM56.8325 49.3484L58.0102 47.3086L58.0101 47.3086L56.8325 49.3484ZM53.0286 50.8346L55.1619 51.833L55.1619 51.833L53.0286 50.8346ZM57.9997 53.7047L60.0395 54.8824V54.8824L57.9997 53.7047ZM53.9624 54.3196L55.1401 52.2798H55.1401L53.9624 54.3196ZM60.0405 43.3065C57.1132 41.6164 54.1583 41.8517 51.7802 43.0482C49.4992 44.1958 47.7475 46.2098 46.804 48.2257L51.0706 50.2225C51.6208 49.0469 52.67 47.8739 53.8974 47.2563C55.0277 46.6877 56.2886 46.5798 57.6851 47.3861L60.0405 43.3065ZM63.9483 57.8907C65.9895 54.3552 66.2226 51.1827 65.0585 48.4988C63.9612 45.9688 61.8093 44.3277 60.0405 43.3065L57.6851 47.3861C59.1002 48.2031 60.2286 49.2015 60.7368 50.3733C61.1783 51.3912 61.3423 52.983 59.8687 55.5354L63.9483 57.8907ZM50.1962 60.3573C52.283 61.5621 54.9777 62.0215 57.4175 61.7382C59.8281 61.4583 62.5152 60.3729 63.9483 57.8907L59.8687 55.5354C59.4635 56.2371 58.4753 56.873 56.8741 57.0589C55.3021 57.2415 53.6486 56.9111 52.5515 56.2777L50.1962 60.3573ZM46.804 48.2257C45.9347 50.083 45.727 52.4291 46.1895 54.5796C46.6573 56.7545 47.8821 59.0213 50.1962 60.3573L52.5515 56.2777C51.6817 55.7755 51.0624 54.8327 50.7949 53.5891C50.5222 52.3211 50.6882 51.0396 51.0706 50.2225L46.804 48.2257ZM58.0101 47.3086C56.4163 46.3884 54.7614 46.5179 53.4652 47.17C52.2661 47.7733 51.3782 48.8044 50.8953 49.8361L55.1619 51.833C55.1968 51.7584 55.2609 51.6577 55.3512 51.5613C55.441 51.4653 55.5252 51.4069 55.5824 51.3782C55.6346 51.3519 55.642 51.3605 55.613 51.3604C55.5738 51.3603 55.5811 51.3457 55.6548 51.3882L58.0101 47.3086ZM60.0395 54.8824C60.9969 53.2242 61.2086 51.5209 60.5397 49.9786C59.9375 48.5901 58.7971 47.763 58.0102 47.3086L55.6548 51.3882C55.8474 51.4994 55.9933 51.6072 56.0939 51.7031C56.1926 51.7972 56.2166 51.8499 56.2179 51.853C56.2182 51.8536 56.2169 51.8502 56.2164 51.847C56.2159 51.8436 56.2186 51.856 56.215 51.8905C56.2076 51.9599 56.1686 52.1655 55.9599 52.527L60.0395 54.8824ZM52.7847 56.3594C53.8897 56.9973 55.2435 57.2132 56.4461 57.0735C57.6196 56.9373 59.1733 56.3826 60.0395 54.8824L55.9599 52.527C55.9972 52.4624 56.039 52.4142 56.0738 52.382C56.1073 52.351 56.1292 52.3394 56.1285 52.3397C56.1208 52.3439 56.0496 52.3772 55.9028 52.3942C55.7598 52.4108 55.5959 52.4057 55.4391 52.3765C55.2787 52.3467 55.1786 52.302 55.1401 52.2798L52.7847 56.3594ZM50.8953 49.8361C50.412 50.8688 50.3195 52.0961 50.5553 53.1925C50.7963 54.3132 51.4525 55.5902 52.7847 56.3594L55.1401 52.2798C55.1871 52.3069 55.2083 52.3371 55.2077 52.3362C55.2031 52.3291 55.1791 52.2873 55.1607 52.202C55.1424 52.1168 55.1372 52.0214 55.1454 51.9345C55.154 51.8432 55.1726 51.8101 55.1619 51.833L50.8953 49.8361Z" fill="black" mask="url(#path-11-inside-3_65_20900)"/>
<path d="M55.6624 39.4416C58.4793 39.6118 64.7721 43.6556 65.2341 44.9678" stroke="black" stroke-width="2"/>
</svg>
