<svg width="100" height="100" viewBox="0 0 100 100" fill="none" xmlns="http://www.w3.org/2000/svg">
<path d="M56.614 45.9494L60.0976 39.9156L59.2235 37.1419L62.085 36.4732L63.7152 33.6497L62.7295 31.0694L65.5017 30.5554L67.1318 27.7319L66.3471 24.8034L69.0523 24.4056L70.8611 21.2727L68.8073 13.4857L61.0367 15.6006L59.2279 18.7336L60.236 21.2752L57.3075 22.0598L55.6773 24.8833L56.6183 27.5411L53.8908 27.9776L52.2607 30.8011L53.1124 33.6136L50.2732 34.2435L46.7896 40.2773" stroke="black" stroke-width="2" stroke-linecap="round" stroke-linejoin="round"/>
<path d="M51.7019 43.1132L65.1489 19.8223" stroke="black" stroke-width="2" stroke-linecap="round" stroke-linejoin="round"/>
<path d="M34.7396 43.4126C37.4053 38.0405 40.5571 36.679 44.3906 38.8923L58.3851 46.972C62.7507 49.4925 62.985 52.9839 59.779 57.8692C56.2804 63.2004 46.9821 76.8857 45.1936 79.3738C43.4051 81.8618 41.5594 83.0259 38.5669 81.2982C35.5744 79.5705 28.4823 75.5932 26.5087 74.3364C24.5352 73.0796 20.3948 71.5107 23.0136 66.5682C25.6325 61.6257 32.0738 48.7848 34.7396 43.4126Z" stroke="black" stroke-width="2" stroke-linecap="round" stroke-linejoin="round"/>
<path d="M23.0134 66.5679C20.3946 71.5104 23.8312 73.9305 25.8047 75.1872C27.7783 76.444 34.8703 80.4213 37.8629 82.149C40.8554 83.8768 43.4049 81.8615 45.1934 79.3735" stroke="black" stroke-width="2" stroke-linecap="round" stroke-linejoin="round"/>
<path d="M50.8736 62.8364L34.8835 53.6045C33.6149 56.0881 32.2151 58.816 31.0068 61.148L46.1683 69.9016C47.5771 67.8001 49.3021 65.2106 50.8736 62.8364Z" stroke="black" stroke-width="2" stroke-linecap="round" stroke-linejoin="round"/>
<path d="M30.2915 69.4648C30.8646 68.4722 32.1535 68.1658 33.1183 68.7844C35.4691 70.2917 36.907 71.1476 38.5832 71.9967C39.5978 72.5107 39.9993 73.7651 39.4307 74.7501C38.9253 75.6255 37.8305 75.9667 36.9179 75.5319C34.5659 74.4115 32.8084 73.5313 30.7641 72.0626C29.9604 71.4853 29.7584 70.3881 30.2532 69.5311L30.2915 69.4648Z" stroke="black" stroke-width="2" stroke-linecap="round" stroke-linejoin="round"/>
<path d="M30.2533 69.5307L30.2916 69.4643C30.8646 68.4718 31.8877 68.8273 32.8525 69.4459C35.2033 70.9532 36.6412 71.8091 38.3174 72.6582C39.332 73.1722 39.9994 73.7647 39.4307 74.7497" stroke="black" stroke-width="2" stroke-linecap="round" stroke-linejoin="round"/>
<path d="M37.7653 48.0562C40.2727 43.0975 40.5949 42.1332 44.5171 44.3976L53.7381 49.7214C57.8819 52.1138 57.2276 52.9975 54.2639 57.5817C53.8648 58.1991 53.3641 58.9658 52.798 59.8281L36.5518 50.4484C37.0172 49.5332 37.4304 48.7185 37.7653 48.0562Z" stroke="black" stroke-width="2" stroke-linecap="round" stroke-linejoin="round"/>
<path d="M48.031 39.0596L57.0065 44.2416" stroke="black" stroke-width="2" stroke-linecap="round" stroke-linejoin="round"/>
<path fill-rule="evenodd" clip-rule="evenodd" d="M34.8835 53.876L50.8736 63.1079C49.3021 65.4821 47.5771 68.0716 46.1683 70.173L31.0067 61.4195C32.215 59.0875 33.6148 56.3595 34.8835 53.876ZM38.2773 59.572C37.799 59.2958 37.1874 59.4597 36.9113 59.938C36.6351 60.4163 36.799 61.0279 37.2773 61.304L43.2437 64.7487C43.722 65.0249 44.3336 64.861 44.6097 64.3827C44.8859 63.9044 44.722 63.2928 44.2437 63.0167L38.2773 59.572Z" fill="black"/>
<path fill-rule="evenodd" clip-rule="evenodd" d="M37.9956 47.8719C37.9209 48.02 37.8442 48.1719 37.7654 48.3278C37.4304 48.9902 37.0173 49.8048 36.5519 50.7201L52.798 60.0998C53.3642 59.2375 53.8648 58.4707 54.264 57.8533C54.3065 57.7876 54.3485 57.7226 54.3901 57.6584C57.2454 53.2435 57.8225 52.3512 53.7382 49.9931L44.5171 44.6693C40.7182 42.476 40.2966 43.3117 37.9956 47.8719ZM46.6553 50.0741C46.177 49.7979 45.5654 49.9618 45.2893 50.4401C45.0132 50.9184 45.177 51.53 45.6553 51.8061L47.2806 52.7445C47.7589 53.0206 48.3705 52.8567 48.6466 52.3784C48.9228 51.9001 48.7589 51.2886 48.2806 51.0124L46.6553 50.0741Z" fill="black"/>
</svg>
