<svg width="100" height="100" viewBox="0 0 100 100" fill="none" xmlns="http://www.w3.org/2000/svg">
<path d="M31.8641 61.54C31.8641 61.54 43.7351 62.1308 46.4851 62.0695C49.9641 61.9919 67.3901 62.0734 67.3901 62.0734" stroke="black" stroke-width="2" stroke-miterlimit="10" stroke-linejoin="round"/>
<path d="M76.4972 65.7958C78.4332 64.0036 79.8162 61.5841 78.8252 58.7773C77.3992 54.7395 71.8142 53.3905 68.9352 56.609C64.2862 61.8062 71.7242 70.2126 76.4972 65.7958Z" stroke="black" stroke-width="2" stroke-miterlimit="10" stroke-linecap="round" stroke-linejoin="round"/>
<path d="M76.05 61.2131C76.262 58.5871 71.172 57.8815 71.318 60.5011C71.479 63.4087 75.801 64.2867 76.05 61.2131Z" fill="black" stroke="black" stroke-width="2" stroke-miterlimit="10" stroke-linecap="round" stroke-linejoin="round"/>
<path d="M29.1851 64.82C34.8201 60.2866 28.0801 52.4596 22.8061 55.6041C18.9341 57.9124 18.9891 63.6592 23.4551 65.4022C25.6101 66.2431 27.5461 66.1385 29.1851 64.82Z" stroke="black" stroke-width="2" stroke-miterlimit="10" stroke-linecap="round" stroke-linejoin="round"/>
<path d="M27.6711 59.8131C26.9601 57.0582 23.4781 59.0852 24.0501 60.7738C24.9191 63.34 28.3281 62.3555 27.6711 59.8131Z" fill="black" stroke="black" stroke-width="2" stroke-miterlimit="10" stroke-linecap="round" stroke-linejoin="round"/>
<path d="M79.0081 62.2876C79.0081 62.2876 82.0842 62.5429 82.6472 61.7437C83.6812 60.2733 83.3052 57.7253 83.1782 56.4289C82.7442 51.9982 80.2081 50.8466 77.0331 48.3916C75.8271 47.4589 70.4641 47.1687 70.4641 47.1687C70.4641 47.1687 61.3851 35.3014 58.1491 33.5746C54.9131 31.8477 47.4012 31.8899 41.8842 32.1052C36.3672 32.3205 25.3112 31.3006 23.6002 33.5062C21.8882 35.7118 21.3302 40.4099 21.0092 43.7199C20.6892 47.0299 20.0402 51.0521 20.0402 51.0521" stroke="black" stroke-width="2" stroke-miterlimit="10" stroke-linejoin="round"/>
<path d="M80.6332 51.5625C80.6332 51.5625 72.4112 50.3647 69.0082 51.8389C65.6062 53.313 64.6262 58.6548 64.7402 60.4749C64.8542 62.2949 67.4712 61.9344 67.4712 61.9344" stroke="black" stroke-width="2" stroke-miterlimit="10" stroke-linejoin="round"/>
<path d="M44.1322 49.9033C44.1052 51.6406 46.2201 50.9368 47.4631 51.1117" stroke="black" stroke-width="2" stroke-miterlimit="10" stroke-linecap="round" stroke-linejoin="round"/>
<path d="M19.8021 60.2192C19.8021 60.2192 16.9342 60.9344 17.0012 59.3956C17.0682 57.8567 17.6021 51.9698 21.2731 50.4149C24.9451 48.86 30.4271 49.7668 33.1271 53.0872C35.8291 56.4115 34.6312 61.6071 34.6312 61.6071L31.2151 61.5065" stroke="black" stroke-width="2" stroke-miterlimit="10" stroke-linejoin="round"/>
<path d="M74.4612 47.5968C71.8692 47.1658 63.3352 46.4824 63.3352 46.4824" stroke="black" stroke-width="2" stroke-miterlimit="10" stroke-linejoin="round"/>
<path d="M64.9362 46.5898C64.7512 48.8411 64.8041 58.886 64.8041 58.886" stroke="black" stroke-width="2" stroke-miterlimit="10" stroke-linejoin="round"/>
<path d="M20.7802 43.6191C20.7802 43.6191 17.8221 43.9343 17.7581 46.9195C17.6931 49.9046 17.8511 54.6307 17.8511 54.6307" stroke="black" stroke-width="2" stroke-miterlimit="10" stroke-linejoin="round"/>
<path d="M25.5411 38.0295C25.5041 37.1792 26.7861 35.847 28.6051 35.8565C30.4251 35.866 36.6251 35.7605 36.6471 36.8592C36.6821 38.5753 36.1941 44.5531 35.6101 44.6177C33.6011 44.8403 25.0621 44.6003 25.0281 43.9531C24.9461 42.3995 25.5771 38.8797 25.5411 38.0295Z" stroke="black" stroke-width="2" stroke-miterlimit="10" stroke-linejoin="round"/>
<path d="M40.7362 35.9462C40.7362 35.9462 52.4322 35.1843 55.2082 36.3584C55.9412 36.6685 56.9952 37.4702 58.0632 38.4161C61.0402 41.0519 64.5202 45.2219 64.4902 46.1838C64.4702 46.8347 58.2862 46.2323 52.1712 46.012C46.0572 45.7918 39.9862 45.777 40.0322 45.3028C40.1752 43.8568 40.7362 35.9462 40.7362 35.9462Z" stroke="black" stroke-width="2" stroke-miterlimit="10" stroke-linejoin="round"/>
<path d="M40.3621 41.2041C40.3621 41.2041 39.7451 48.7675 39.7401 52.6391C39.7361 56.0786 38.9631 61.4485 38.9631 61.4485" stroke="black" stroke-width="2" stroke-miterlimit="10" stroke-linejoin="round"/>
<path d="M55.2861 36.8486L55.0092 46.0745" stroke="black" stroke-width="2" stroke-miterlimit="10" stroke-linejoin="round"/>
<path d="M40.7512 45.0292L41.6562 36.8271L54.8632 37.516L63.1732 45.6322L40.7512 45.0292Z" fill="black" stroke="black" stroke-width="2" stroke-miterlimit="10" stroke-linejoin="round"/>
<path d="M35.0251 37.2367L35.1431 43.7167L26.2411 43.5659C26.2411 43.5659 26.2411 38.453 26.8441 37.5596C27.4471 36.6662 28.3192 36.5801 29.7512 36.6447C31.1822 36.7093 35.0251 37.2367 35.0251 37.2367Z" fill="black" stroke="black" stroke-width="2" stroke-miterlimit="10" stroke-linejoin="round"/>
</svg>
