<svg width="100" height="100" viewBox="0 0 100 100" fill="none" xmlns="http://www.w3.org/2000/svg">
<path d="M48.5983 71.2813L27.9863 66.5053C27.9863 66.5053 22.6382 65.3523 24.3312 58.6943C27.1612 47.5613 32.5962 22.6943 33.0962 20.8423C33.5962 18.9913 35.9843 17.357 39.9863 18.2523C43.1503 18.9603 53.6582 21.1803 60.1252 22.4713C66.6252 23.7703 64.3632 29.0013 64.0602 31.1323C63.6022 34.3573 58.9393 55.3523 58.9393 55.3523" stroke="black" stroke-width="2" stroke-miterlimit="10" stroke-linejoin="round"/>
<path d="M48.6798 71.4752C45.7988 62.1142 57.4978 50.8172 68.0708 57.1182C78.6428 63.4192 75.4848 75.3892 71.0288 79.2502C66.5718 83.1112 52.8508 85.0322 48.6798 71.4752Z" stroke="black" stroke-width="2" stroke-miterlimit="10" stroke-linejoin="round"/>
<path d="M41.8929 55.058L37.9199 44.04L46.8209 35.749L50.1049 46.693L41.8929 55.058Z" fill="black" stroke="black" stroke-width="2" stroke-miterlimit="10" stroke-linejoin="round"/>
<path d="M57.4815 28.0469L55.1875 30.3909L56.5055 33.2529L58.3935 30.9789L57.4815 28.0469Z" fill="black" stroke="black" stroke-width="2" stroke-miterlimit="10" stroke-linejoin="round"/>
<path d="M68.5589 67.2033L74.6349 66.1133L74.7039 70.5363L68.5469 69.8663L68.5589 67.2033Z" fill="black" stroke="black" stroke-width="2" stroke-miterlimit="10" stroke-linejoin="round"/>
<path d="M55.5912 70.0894C54.3342 64.9344 57.8292 63.0444 61.1512 62.9354C64.4732 62.8264 69.2122 65.1004 68.1512 70.6384C67.1892 75.6574 57.2382 76.8504 55.5912 70.0894Z" stroke="black" stroke-width="2" stroke-miterlimit="10" stroke-linejoin="round"/>
<path d="M60.0178 74.7836L57.7428 81.1765L53.2168 78.4686L57.5038 73.6436L60.0178 74.7836Z" fill="black" stroke="black" stroke-width="2" stroke-miterlimit="10" stroke-linejoin="round"/>
<path d="M67.0726 73.0752L71.9066 77.6862L67.6887 80.7362L64.6396 74.6112L67.0726 73.0752Z" fill="black" stroke="black" stroke-width="2" stroke-miterlimit="10" stroke-linejoin="round"/>
<path d="M54.994 70.1884L55.188 67.4164L48.665 66.2344L48.98 71.7064L54.994 70.1884Z" fill="black" stroke="black" stroke-width="2" stroke-miterlimit="10" stroke-linejoin="round"/>
<path d="M56.3543 64.6162L51.9863 60.1113L56.6433 56.7812L58.7413 63.0293L56.3543 64.6162Z" fill="black" stroke="black" stroke-width="2" stroke-miterlimit="10" stroke-linejoin="round"/>
<path d="M64.5098 63.4709L66.0547 56.2109L70.8728 59.3659L66.6238 64.5599L64.5098 63.4709Z" fill="black" stroke="black" stroke-width="2" stroke-miterlimit="10" stroke-linejoin="round"/>
</svg>
