<svg width="100" height="100" viewBox="0 0 100 100" fill="none" xmlns="http://www.w3.org/2000/svg">
<path d="M48.8333 21.5963C47.5409 18.7344 48.6023 16.8075 50.3335 15.8265C53.3914 14.7301 55.1226 16.288 55.6419 19.173C56.1612 22.058 55.2957 23.789 54.4879 24.7699C53.6801 25.7508 50.4487 25.1738 48.8333 21.5963Z" stroke="black" stroke-width="2"/>
<path d="M44.9823 25.8774C43.7973 26.3881 39.8362 28.7034 39.2479 31.204C38.5124 34.3298 38.9414 39.478 39.2479 40.2135C39.5543 40.949 38.4511 45.2392 39.2479 49.0391C40.0446 52.839 40.9027 53.8809 40.5962 55.2292C40.2898 56.5776 39.8608 58.0793 40.5962 58.7535C41.3317 59.4276 43.3543 59.4276 43.9058 58.7535C44.4573 58.0793 44.2734 55.4131 43.9058 54.0035C43.5382 52.5938 43.1706 50.2648 43.5382 48.0584C43.9058 45.8521 44.2734 42.4199 43.9058 41.5006C43.5382 40.5812 48.6408 35.3054 47.0765 27.6141" stroke="black" stroke-width="2"/>
<path d="M54.0693 24.9536C54.1778 25.4744 54.7398 26.8424 57.6428 28.2486C60.3386 29.5544 60.4422 31.0929 60.8328 32.7204C61.1453 34.0224 60.746 39.122 60.5073 41.5091C60.9196 44.0697 61.6921 49.5555 61.4838 51.0138C61.2234 52.8366 62.0046 55.5709 62.265 55.7662C62.5254 55.9615 62.5255 59.378 60.5073 59.0525C58.4892 58.727 57.3824 58.0447 58.1636 55.4407C58.9449 52.8366 58.0986 50.2326 57.6428 48.4098C57.1871 46.5869 56.6663 43.6574 56.6663 41.8997C56.6663 40.1419 56.9806 38.7582 57.1871 37.9936C57.6428 36.3065 58.3221 33.7444 57.1871 28.2486" stroke="black" stroke-width="2"/>
<path d="M45.1123 25.8116C48.1713 27.4996 49.0097 32.3765 49.9928 33.5781C52.3662 36.4788 56.7485 35.3036 57.6451 33.0883" stroke="black" stroke-width="2" stroke-linecap="round"/>
<path d="M45.709 25.7077C46.6348 25.3991 48.6213 24.4367 49.1601 23.0562" stroke="black" stroke-width="2" stroke-linecap="round"/>
<path d="M44.1787 45.2886C45.2336 45.9722 47.9286 46.7973 50.929 46.8912C53.9293 46.9851 56.2782 46.6463 56.7079 46.4901" stroke="black" stroke-width="2" stroke-linecap="round"/>
<path d="M39.9612 52.1313C39.1552 54.2635 37.4652 59.3546 37.1531 62.6621C36.763 66.7964 35.954 68.6911 35.6419 72.9034C35.3299 77.1157 35.9964 78.5438 34.6707 80.0079C33.6636 81.1202 30.2796 84.5262 32.933 84.5262C36.0903 84.5262 38.3232 83.3335 38.6352 80.4473C38.9473 77.5611 41.1314 69.5266 41.2094 68.8245C41.2874 68.1225 46.5918 59.2299 46.8258 57.9038C47.013 56.8429 48.2567 53.7523 49.0367 54.4543C49.8168 55.1563 51.3869 59.6976 52.9882 61.7261C54.1583 63.2082 54.0803 66.0944 54.7043 69.2926C54.9382 70.4909 57.5905 78.1072 57.1225 79.2773C56.6545 80.4473 56.6545 82.3975 57.6685 82.6315C58.6826 82.8655 65.2351 83.9576 65.1571 82.6315C65.0791 81.3054 60.1683 80.045 59.8562 78.3289C59.5442 76.6128 60.5547 69.9946 60.5547 66.7964C60.5547 64.2378 60.1864 60.2442 60.1864 59.1521" stroke="black" stroke-width="2" stroke-linecap="round"/>
<path d="M36.2598 69.3384C37.3318 69.9126 40.711 69.3384 40.711 69.3384" stroke="black" stroke-width="2" stroke-linecap="round"/>
<path d="M55.2451 69.2759C56.9514 69.4444 59.9633 69.6804 60.2667 69.2759" stroke="black" stroke-width="2" stroke-linecap="round"/>
<path d="M43.7734 52.2827C44.8486 52.5046 47.2552 53.4909 48.0743 54.8426" stroke="black" stroke-width="2" stroke-linecap="round"/>
<path d="M49.9141 54.9078C52.089 53.5385 55.3513 51.8873 58.2513 51.8872" stroke="black" stroke-width="2" stroke-linecap="round"/>
<path d="M33.4462 58.0128C35.399 57.8258 34.0439 57.8337 39.8864 57.6324M70.5814 57.6324C66.1641 57.6324 67.0824 57.4878 62.6232 57.4878M44.2064 57.6324C45.504 57.6181 48.2848 57.4878 49.8324 57.4878C53.0807 57.4878 55.5776 57.4878 57.8648 57.4878" stroke="black" stroke-width="2" stroke-linecap="round"/>
<path d="M25.4214 66.539C22.3621 69.1789 21.1386 62.3214 21.0736 56.4633C20.9485 51.0712 23.2243 50.1316 25.0732 51.5391C26.6584 52.746 29.2455 63.2393 25.4214 66.539Z" stroke="black" stroke-width="2" stroke-linecap="round"/>
<path d="M71.6577 65.5053C68.5985 68.1452 67.375 61.2877 67.3099 55.4296C67.1849 50.0375 69.4606 49.0979 71.3095 50.5055C72.8947 51.7123 75.4818 62.2056 71.6577 65.5053Z" stroke="black" stroke-width="2" stroke-linecap="round"/>
<path d="M23.2695 51.0048C25.6327 50.8218 30.4138 50.5656 30.8531 51.0049C32.7528 52.9046 33.3253 56.4047 33.3253 59.6161C33.3253 63.4495 32.0882 66.4608 31.6586 66.6995C31.3149 66.8905 26.4735 67.2513 24.3252 67.1717" stroke="black" stroke-width="2" stroke-linecap="round"/>
<path d="M69.5059 49.9711C71.869 49.7881 76.6501 49.5319 77.0894 49.9712C78.9891 51.8709 79.5616 55.371 79.5616 58.5824C79.5616 62.4158 78.3245 65.4271 77.8949 65.6658C77.5512 65.8568 72.7099 66.2176 70.5615 66.1381" stroke="black" stroke-width="2" stroke-linecap="round"/>
<path d="M23.7768 58.9995L18.5498 59.3565" stroke="black" stroke-width="2" stroke-linecap="round"/>
<path d="M81.451 57.7505H79.8193" stroke="black" stroke-width="2" stroke-linecap="round"/>
<path d="M30.7767 51.0366H24.9473L26.0923 53.0145L27.1853 57.0745V63.4246L25.4677 66.6517L30.7767 67.0161L32.4424 66.0792L33.4834 59.5208L33.0149 54.0556L30.7767 51.0366Z" fill="black"/>
<path d="M73.7577 61.2142L71.3623 66.1891L77.4428 65.8822L79.2854 64.2853L79.7768 58.6347L79.2854 53.9055L77.4428 50.2817H71.8537L73.7577 55.0109V61.2142Z" fill="black"/>
<path d="M40.7721 69.6641H35.9652L35.3827 78.4037L33.0522 81.6082L31.7412 83.9873L33.5376 84.5214L37.3248 83.1619L38.5386 81.6082L39.7039 75.2963L40.7721 69.6641Z" fill="black"/>
<path d="M60.5332 69.7126L55.1924 69.2271C55.9368 72.2697 57.4257 78.4134 57.4257 78.6465C57.4257 78.8795 57.0697 79.8765 56.8917 80.3458L57.4257 82.5307L62.7181 83.3561L64.5631 83.0163L64.8544 82.0937L61.6013 79.9088L60.5332 77.7725V69.7126Z" fill="black"/>
<path d="M44.5186 42.2568C45.8422 42.7725 47.6763 43.6512 50.589 43.8593C54.054 44.1069 55.3791 43.4738 56.5137 43.4223" stroke="black" stroke-width="2"/>
<path d="M49.1888 43.6567L44.413 42.2568L43.9189 45.9622L49.5594 47.115H57.2995L56.5584 43.2861L49.1888 43.6567Z" fill="black"/>
</svg>
