<svg width="100" height="100" viewBox="0 0 100 100" fill="none" xmlns="http://www.w3.org/2000/svg">
<path d="M23.7971 23.4392C28.1011 23.1092 72.8001 23.0691 74.6121 23.0091C76.4231 22.9491 78.7041 24.9392 78.4801 29.0392C78.2551 33.1492 78.6821 61.5392 78.2211 63.2092C77.7591 64.8792 76.4771 65.4392 73.7361 65.5892C70.9961 65.7292 26.0331 66.0692 24.4372 66.1792C22.8401 66.2892 20.4431 64.8791 20.3851 61.1191C20.3261 57.3491 20.0691 29.2192 20.0011 27.0492C19.9341 24.8792 22.8251 23.5192 23.7971 23.4392Z" stroke="black" stroke-width="2" stroke-miterlimit="10" stroke-linejoin="round"/>
<path d="M53.58 36.7147C53.57 36.6547 53.56 36.6147 53.56 36.5947C53.56 36.6347 53.56 36.6747 53.58 36.7147Z" fill="black"/>
<path d="M72.82 28.6645C72.43 28.2945 71.84 27.7245 27.1 28.7045C26.59 28.7145 26.17 29.1145 26.12 29.6245C25.96 31.6345 25.86 55.7845 26.45 58.4445C26.61 59.1645 27.34 59.3645 27.62 59.4345C30.07 60.1045 40.84 60.4045 50.61 60.4045C50.79 60.4045 50.98 60.4045 51.16 60.4045C71.4 60.3845 72.28 59.4445 72.61 59.0945C73.31 58.3545 73.72 53.2745 73.85 43.9845C74.05 29.8545 73.15 28.9945 72.81 28.6745L72.82 28.6645ZM66.84 46.6945C66.84 46.6945 66.81 46.6945 66.8 46.6945C65.34 46.6445 64.51 45.2545 63.78 44.0245C63.51 43.5845 63.09 42.8745 62.82 42.6445C62.48 43.1945 61.9 44.7245 61.47 45.8745C60.04 49.6645 59.22 51.6445 57.8 51.6545C57.75 51.6545 57.7 51.6545 57.65 51.6545C56.81 51.6545 56.65 51.2545 55.04 43.7745C54.82 42.7445 54.54 41.4445 54.29 40.2345C52.97 43.6645 50.99 48.0745 50.43 48.4845C50.19 48.6545 49.88 48.7145 49.58 48.6345C49.2 48.5278 48.4233 47.0312 47.25 44.1445C47.21 44.0445 47.17 43.9345 47.12 43.8345C43.82 50.8445 43.8 50.8345 42.86 50.4745C42.08 50.2045 39.57 45.5445 39.36 45.0745L39.3 44.9345C38.99 44.2345 38.75 43.7245 38.56 43.3545C36.62 46.3045 35.13 48.1745 33.75 48.3845C33.21 48.4645 32.69 48.0945 32.61 47.5445C32.53 47.0045 32.9 46.4945 33.44 46.4045C33.84 46.3145 34.81 45.4545 37.11 41.9045C37.78 40.8845 38.11 40.3745 38.89 40.6445C39.46 40.8545 39.93 41.4245 41.13 44.1145L41.19 44.2445C41.68 45.3245 42.49 46.6445 43.11 47.6045C43.84 46.1045 44.95 43.7345 45.53 42.5045C46.5 40.4445 46.53 40.3745 47.11 40.3745C47.85 40.2745 47.88 40.3745 49.11 43.3845C49.35 43.9745 49.66 44.7345 49.94 45.4245C51.21 42.6945 53.35 37.3645 53.55 36.4345C53.55 35.9545 53.91 35.5445 54.39 35.4645C54.91 35.3745 55.4 35.7045 55.52 36.2145C55.52 36.2245 55.52 36.2445 55.52 36.2545C56 38.6645 57.41 45.5045 58.19 48.6045C58.67 47.6045 59.22 46.1445 59.6 45.1345C60.72 42.1545 61.19 41.0745 61.95 40.7345C63.69 39.9445 64.78 41.7645 65.5 42.9645C65.88 43.5945 66.5 44.6445 66.87 44.6645C67.42 44.6845 67.85 45.1445 67.83 45.7045C67.81 46.2445 67.37 46.6645 66.83 46.6645L66.84 46.6945Z" fill="black"/>
<path d="M46.1091 65.8994L45.8441 73.1594C45.8441 73.1594 47.4111 73.0594 50.0301 73.1194C52.6491 73.1894 54.3241 73.2095 54.3241 73.2095L54.2061 65.7295" stroke="black" stroke-width="2" stroke-miterlimit="10" stroke-linejoin="round"/>
<path d="M42.1351 73.79C43.3741 72.87 56.2901 73.26 58.0681 73.43C59.1351 73.53 60.1381 77.05 60.1381 77.05L40.5471 77.3C40.5471 77.3 40.8051 74.78 42.1351 73.79Z" stroke="black" stroke-width="2" stroke-miterlimit="10" stroke-linejoin="round"/>
<path d="M73.7021 23.0197C73.7021 23.0197 78.8151 22.5698 79.0161 25.9698C79.0361 26.2998 79.2112 29.2497 79.2112 29.2497C79.2112 29.2497 79.7851 56.9098 79.6791 58.9598C79.5621 61.2298 80.2092 65.9897 74.6182 65.5397" stroke="black" stroke-width="2" stroke-miterlimit="10" stroke-linejoin="round"/>
</svg>
