<svg width="100" height="100" viewBox="0 0 100 100" fill="none" xmlns="http://www.w3.org/2000/svg">
<rect width="12.8069" height="7.90349" rx="1" transform="matrix(-1 0 0 1 68.9824 43.0054)" stroke="black" stroke-width="2"/>
<path d="M56.1755 58.7922V51.8887C56.1755 51.3364 56.6232 50.8887 57.1755 50.8887H67.9824C68.5347 50.8887 68.9824 51.3364 68.9824 51.8887V58.7922" stroke="black" stroke-width="2"/>
<path d="M43.3689 58.7922V51.8887C43.3689 51.3364 43.8166 50.8887 44.3689 50.8887H55.1758C55.7281 50.8887 56.1758 51.3364 56.1758 51.8887V58.7922" stroke="black" stroke-width="2"/>
<rect width="12.8069" height="7.90349" rx="1" transform="matrix(-1 0 0 1 81.7891 43.0054)" stroke="black" stroke-width="2"/>
<path d="M68.9821 58.7922V51.8887C68.9821 51.3364 69.4299 50.8887 69.9821 50.8887H80.7891C81.3413 50.8887 81.7891 51.3364 81.7891 51.8887V56.0564" stroke="black" stroke-width="2"/>
<path d="M65.921 69.873L66.0467 70.8651L65.9861 70.8727L65.925 70.873L65.921 69.873ZM70.3464 68.5456L70.7005 69.4808V69.4808L70.3464 68.5456ZM74.0684 67.3466L73.8734 66.3658L73.8745 66.3656L74.0684 67.3466ZM80.3917 67.9886L81.0852 68.7091L80.686 69.0933L80.1486 68.9586L80.3917 67.9886ZM91.1275 56.8966L91.6228 56.0279L91.1275 56.8966ZM70.8365 56.8966L71.0816 57.8661L71.0816 57.8661L70.8365 56.8966ZM69.0938 57.8384L68.5914 56.9738L68.5914 56.9738L69.0938 57.8384ZM67.0065 58.971L66.6552 58.0347L66.6552 58.0347L67.0065 58.971ZM53.4208 59.0112L53.4162 60.0112L53.4208 59.0112ZM42.5852 58.971L42.5833 59.971L42.5852 58.971ZM28.3953 58.9855L28.3926 57.9855L28.3953 58.9855ZM20.9176 58.971L21.6252 58.2644L21.6252 58.2644L20.9176 58.971ZM20.474 58.3582L19.6551 58.9321V58.9321L20.474 58.3582ZM19.3578 56.8966L18.8902 57.7806V57.7806L19.3578 56.8966ZM9.05373 56.8966L8.66741 55.9743L9.05373 56.8966ZM13.968 69.7446L13.4133 70.5767L13.4133 70.5767L13.968 69.7446ZM17.1585 69.8267L17.2684 70.8206L17.2079 70.8273L17.1471 70.8266L17.1585 69.8267ZM22.7884 68.3084L22.4358 67.3727L22.7884 68.3084ZM26.4284 67.3466L26.4345 68.3466L26.4284 67.3466ZM33.676 68.6464L33.405 69.609L33.676 68.6464ZM39.9866 69.9102L39.986 70.9102L39.9623 70.9102L39.9386 70.9091L39.9866 69.9102ZM41.3649 69.9109L41.4149 70.9096L41.3898 70.9109L41.3646 70.9109L41.3649 69.9109ZM46.944 68.6192L46.6229 67.6722V67.6722L46.944 68.6192ZM52.0684 67.3633L52.1506 68.3599L52.1504 68.3599L52.0684 67.3633ZM59.046 68.5867L58.7198 69.532L59.046 68.5867ZM64.2594 69.8791L64.2629 70.8791L64.2168 70.8793L64.171 70.8752L64.2594 69.8791ZM65.7954 68.8809C67.035 68.724 68.4442 68.1965 69.9924 67.6104L70.7005 69.4808C69.2164 70.0427 67.5691 70.6723 66.0467 70.8651L65.7954 68.8809ZM69.9924 67.6104C71.2527 67.1333 72.6078 66.6174 73.8734 66.3658L74.2633 68.3274C73.1929 68.5402 72.0027 68.9879 70.7005 69.4808L69.9924 67.6104ZM73.8745 66.3656C75.8248 65.9801 78.3242 66.4397 80.6347 67.0186L80.1486 68.9586C77.82 68.3752 75.7231 68.0389 74.2623 68.3276L73.8745 66.3656ZM79.6982 67.2682C81.5001 65.5336 84.2337 62.8014 86.4883 60.4861C87.616 59.3281 88.618 58.2804 89.3212 57.517C89.6749 57.1332 89.9428 56.8322 90.1117 56.6289C90.2 56.5226 90.2415 56.4664 90.2536 56.4484C90.2659 56.43 90.2321 56.4757 90.1991 56.558C90.1863 56.5899 90.1347 56.7188 90.1329 56.8977C90.1307 57.1037 90.208 57.5235 90.6322 57.7654L91.6228 56.0279C92.0543 56.2739 92.135 56.7013 92.1327 56.9185C92.1308 57.1086 92.0755 57.2523 92.0555 57.3022C92.0079 57.4207 91.9455 57.5162 91.9158 57.5607C91.8438 57.6682 91.7477 57.7894 91.6502 57.9068C91.4474 58.1509 91.1512 58.4825 90.7922 58.8722C90.0703 59.6558 89.0533 60.7189 87.9212 61.8814C85.6563 64.2073 82.9069 66.9555 81.0852 68.7091L79.6982 67.2682ZM90.6322 57.7654C90.7371 57.8252 90.8272 57.85 90.8484 57.856C90.8831 57.8656 90.9093 57.8706 90.9197 57.8725C90.9409 57.8764 90.9503 57.877 90.9385 57.8758C90.9177 57.8735 90.8738 57.87 90.7999 57.8659C90.6553 57.8578 90.4416 57.8501 90.1626 57.843C89.607 57.8287 88.8237 57.8176 87.8845 57.8093C86.0075 57.7926 83.5256 57.7875 81.037 57.7911C78.5487 57.7948 76.0569 57.8072 74.1608 57.8257C73.2122 57.8349 72.4154 57.8456 71.8434 57.8575C71.5567 57.8634 71.331 57.8695 71.1726 57.8757C71.0926 57.8788 71.0361 57.8816 71.0001 57.8841C70.9222 57.8893 70.9895 57.8894 71.0816 57.8661L70.5914 55.9272C70.711 55.8969 70.8432 55.8901 70.8652 55.8886C70.9291 55.8843 71.0074 55.8806 71.0949 55.8772C71.2715 55.8703 71.5113 55.8639 71.8021 55.8579C72.3849 55.8458 73.1902 55.835 74.1413 55.8258C76.0444 55.8072 78.542 55.7948 81.0341 55.7911C83.5259 55.7875 86.0155 55.7926 87.9022 55.8093C88.8447 55.8177 89.6413 55.829 90.2138 55.8436C90.4987 55.8509 90.7361 55.8592 90.9109 55.869C90.9966 55.8737 91.0795 55.8795 91.1502 55.887C91.1841 55.8906 91.2304 55.8962 91.2795 55.9052C91.3038 55.9096 91.3416 55.9172 91.3856 55.9295C91.4162 55.938 91.5132 55.9655 91.6228 56.0279L90.6322 57.7654ZM71.0816 57.8661C71.1423 57.8508 71.1424 57.8422 71.0255 57.8997C70.9343 57.9446 70.8129 58.0089 70.6634 58.0916C70.3647 58.2566 69.9933 58.4723 69.5963 58.7031L68.5914 56.9738C68.9823 56.7467 69.3744 56.5188 69.6961 56.341C69.8567 56.2523 70.0098 56.1705 70.1425 56.1052C70.2495 56.0525 70.4228 55.9698 70.5914 55.9272L71.0816 57.8661ZM69.5963 58.7031C69.1877 58.9405 68.754 59.1925 68.3729 59.4036C68.0117 59.6037 67.6327 59.8041 67.3578 59.9072L66.6552 58.0347C66.7707 57.9914 67.0244 57.8642 67.4038 57.6541C67.7634 57.4549 68.1781 57.214 68.5914 56.9738L69.5963 58.7031ZM67.3578 59.9072C67.2448 59.9496 67.1424 59.9646 67.1153 59.9687C67.0681 59.9759 67.0214 59.9809 66.9811 59.9845C66.8993 59.9919 66.8015 59.9976 66.6951 60.0023C66.48 60.0119 66.1886 60.0192 65.8337 60.0249C65.1218 60.0362 64.1247 60.0413 62.9084 60.0422C60.4745 60.0438 57.1427 60.0284 53.4162 60.0112L53.4254 58.0112C57.1542 58.0284 60.4797 58.0438 62.907 58.0422C64.1214 58.0413 65.1059 58.0362 65.8018 58.0251C66.1508 58.0196 66.4199 58.0126 66.6062 58.0043C66.7005 58.0001 66.7637 57.996 66.8013 57.9926C66.8206 57.9909 66.823 57.9902 66.8144 57.9915C66.8099 57.9922 66.7956 57.9944 66.7751 57.9989C66.759 58.0025 66.7134 58.0129 66.6552 58.0347L67.3578 59.9072ZM53.4162 60.0112C50.0103 59.9955 46.273 59.9782 42.5833 59.971L42.5872 57.971C46.28 57.9782 50.02 57.9955 53.4254 58.0112L53.4162 60.0112ZM42.5833 59.971C37.414 59.9608 32.3374 59.9747 28.3981 59.9855L28.3926 57.9855C32.3315 57.9747 37.4126 57.9608 42.5872 57.971L42.5833 59.971ZM28.3981 59.9855C26.1748 59.9915 24.312 59.9966 23.0009 59.9958C22.3458 59.9954 21.8248 59.9936 21.464 59.9896C21.2848 59.9876 21.1387 59.985 21.0336 59.9815C20.9829 59.9799 20.9303 59.9777 20.8844 59.9743C20.864 59.9727 20.8262 59.9697 20.7835 59.9634C20.7646 59.9606 20.7202 59.9537 20.6661 59.9394C20.6395 59.9324 20.5896 59.9182 20.5299 59.893C20.4891 59.8758 20.3471 59.8149 20.2099 59.6775L21.6252 58.2644C21.4886 58.1276 21.3475 58.0672 21.3079 58.0505C21.2495 58.0259 21.2012 58.0122 21.1767 58.0057C21.1265 57.9925 21.0875 57.9866 21.0754 57.9848C21.0585 57.9823 21.0462 57.981 21.0413 57.9805C21.0383 57.9802 21.0361 57.98 21.0347 57.9799C21.0334 57.9798 21.0326 57.9798 21.0325 57.9797C21.0323 57.9797 21.0338 57.9798 21.0372 57.98C21.0406 57.9802 21.0452 57.9805 21.0512 57.9808C21.0633 57.9813 21.0791 57.982 21.0993 57.9826C21.182 57.9853 21.3103 57.9877 21.4862 57.9897C21.8358 57.9936 22.348 57.9954 23.0021 57.9958C24.3091 57.9966 26.1678 57.9916 28.3926 57.9855L28.3981 59.9855ZM20.2099 59.6775C20.1419 59.6094 20.0821 59.5296 20.0619 59.5029C20.0275 59.4575 19.9883 59.4036 19.9477 59.3471C19.8663 59.2335 19.7637 59.0871 19.6551 58.9321L21.293 57.7843C21.4039 57.9426 21.4994 58.0788 21.573 58.1815C21.61 58.2331 21.6375 58.2707 21.6564 58.2956C21.6659 58.3082 21.67 58.3132 21.6699 58.3131C21.6697 58.3128 21.6665 58.3089 21.6609 58.3025C21.6562 58.2971 21.6436 58.2828 21.6252 58.2644L20.2099 59.6775ZM19.6551 58.9321C19.448 58.6366 19.2136 58.3023 19.0136 58.0326C18.9129 57.8967 18.83 57.7897 18.7694 57.7172C18.7549 57.7 18.7433 57.6865 18.7342 57.6764C18.7298 57.6714 18.7264 57.6677 18.7239 57.665C18.7214 57.6624 18.7203 57.6612 18.7204 57.6614C18.7205 57.6615 18.7227 57.6636 18.7267 57.6674C18.7306 57.671 18.7377 57.6776 18.7479 57.6861C18.7613 57.6973 18.8114 57.7389 18.8902 57.7806L19.8254 56.0127C19.9898 56.0997 20.1063 56.2186 20.1413 56.2539C20.199 56.3121 20.2544 56.3755 20.303 56.4334C20.4012 56.5508 20.5114 56.6946 20.6202 56.8413C20.8392 57.1368 21.0899 57.4945 21.293 57.7843L19.6551 58.9321ZM18.8902 57.7806C19.0153 57.8468 19.124 57.8676 19.1276 57.8683C19.1561 57.8745 19.1749 57.877 19.1762 57.8771C19.1801 57.8777 19.1689 57.8761 19.1345 57.8736C19.0688 57.8689 18.9658 57.8638 18.8237 57.859C18.5423 57.8494 18.1451 57.8418 17.6659 57.8362C16.7095 57.825 15.4501 57.8219 14.1892 57.8247C12.9287 57.8276 11.671 57.8364 10.719 57.8491C10.2423 57.8554 9.84585 57.8626 9.56509 57.8704C9.42371 57.8744 9.31795 57.8783 9.24815 57.8819C9.21201 57.8838 9.19479 57.8852 9.19077 57.8856C9.18786 57.8858 9.19965 57.8849 9.21946 57.8819C9.22929 57.8804 9.25022 57.877 9.27739 57.8709C9.29553 57.8669 9.36057 57.8523 9.44006 57.819L8.66741 55.9743C8.79819 55.9195 8.91798 55.9047 8.91845 55.9046C8.95306 55.8994 8.98425 55.8962 9.0052 55.8942C9.0489 55.8901 9.09721 55.8871 9.14326 55.8847C9.23782 55.8797 9.36295 55.8753 9.50953 55.8712C9.8047 55.863 10.2124 55.8556 10.6924 55.8492C11.6537 55.8365 12.919 55.8276 14.1847 55.8248C15.45 55.8219 16.7198 55.825 17.6893 55.8364C18.173 55.842 18.5878 55.8498 18.8918 55.8601C19.0423 55.8653 19.1753 55.8713 19.2794 55.8789C19.33 55.8826 19.3872 55.8875 19.4417 55.8948C19.4683 55.8984 19.508 55.9043 19.5528 55.9141C19.5728 55.9184 19.6932 55.9428 19.8254 56.0127L18.8902 57.7806ZM9.44006 57.819C9.80105 57.6678 9.94238 57.3722 9.9886 57.2471C10.0377 57.1141 10.0456 57.0033 10.0478 56.9605C10.0526 56.8673 10.0417 56.7994 10.0406 56.7924C10.0362 56.7629 10.0333 56.7577 10.0435 56.7969C10.0613 56.8646 10.0962 56.9813 10.1514 57.1521C10.2599 57.4878 10.4276 57.9731 10.6386 58.5648C11.0597 59.7453 11.6426 61.3195 12.2435 62.9017C12.8444 64.4842 13.4607 66.068 13.9482 67.2685C14.1925 67.8701 14.4011 68.3672 14.5577 68.7174C14.6368 68.8943 14.697 69.0208 14.7382 69.1002C14.7597 69.1415 14.7679 69.1543 14.7648 69.1495C14.7635 69.1475 14.7507 69.1271 14.7274 69.0981C14.7155 69.0834 14.6458 68.9946 14.5226 68.9125L13.4133 70.5767C13.2788 70.487 13.1954 70.3846 13.168 70.3505C13.1291 70.302 13.0986 70.2564 13.0777 70.2235C13.0354 70.157 12.9964 70.0857 12.9632 70.0218C12.8953 69.8909 12.8166 69.7232 12.732 69.534C12.5611 69.1519 12.3422 68.6295 12.0951 68.021C11.5997 66.801 10.9775 65.2017 10.3738 63.6118C9.76989 62.0215 9.18186 60.4339 8.75485 59.2366C8.54187 58.6395 8.36623 58.1318 8.24838 57.7673C8.19038 57.5879 8.14133 57.4277 8.10884 57.3037C8.09399 57.2471 8.07436 57.1673 8.06229 57.086C8.05742 57.0532 8.04491 56.9651 8.05044 56.8577C8.05301 56.8078 8.06183 56.6913 8.11248 56.5542C8.16024 56.4248 8.3037 56.1266 8.66741 55.9743L9.44006 57.819ZM14.5226 68.9125C14.381 68.8181 14.2495 68.7857 14.2379 68.7826C14.1982 68.7718 14.1681 68.7665 14.1575 68.7647C14.1344 68.7608 14.123 68.76 14.1337 68.7611C14.1513 68.7628 14.1906 68.7657 14.2592 68.7692C14.3928 68.7759 14.5943 68.7828 14.8639 68.7896C15.4009 68.8031 16.1809 68.8155 17.1699 68.8267L17.1471 70.8266C16.1559 70.8153 15.3648 70.8028 14.8137 70.789C14.5394 70.7821 14.3175 70.7747 14.1577 70.7666C14.0796 70.7626 14.0048 70.7579 13.9418 70.7519C13.9122 70.749 13.8689 70.7443 13.8226 70.7365C13.8003 70.7327 13.7607 70.7254 13.7136 70.7126C13.6947 70.7075 13.558 70.6731 13.4133 70.5767L14.5226 68.9125ZM17.0486 68.8327C19.175 68.5977 20.88 67.9588 22.4358 67.3727L23.141 69.2442C21.5878 69.8294 19.6714 70.555 17.2684 70.8206L17.0486 68.8327ZM22.4358 67.3727C23.7502 66.8775 25.1013 66.3547 26.4223 66.3466L26.4345 68.3466C25.5457 68.352 24.5596 68.7097 23.141 69.2442L22.4358 67.3727ZM26.4223 66.3466C29.1601 66.3299 31.6345 67.0328 33.947 67.6838L33.405 69.609C31.0567 68.9478 28.8469 68.3319 26.4345 68.3466L26.4223 66.3466ZM33.947 67.6838C36.0251 68.2689 37.9698 68.8122 40.0346 68.9114L39.9386 70.9091C37.6104 70.7972 35.4501 70.1848 33.405 69.609L33.947 67.6838ZM39.9872 68.9102C40.4449 68.9105 40.9045 68.9107 41.3653 68.9109L41.3646 70.9109C40.9036 70.9107 40.4439 70.9105 39.986 70.9102L39.9872 68.9102ZM41.315 68.9121C43.2321 68.8162 44.8613 68.2694 46.6229 67.6722L47.265 69.5663C45.5265 70.1557 43.6482 70.7979 41.4149 70.9096L41.315 68.9121ZM46.6229 67.6722C48.2372 67.1249 49.9714 66.5325 51.9863 66.3667L52.1504 68.3599C50.4155 68.5027 48.9034 69.0108 47.265 69.5663L46.6229 67.6722ZM51.9861 66.3667C54.9876 66.1189 57.2461 66.9076 59.3723 67.6414L58.7198 69.532C56.5889 68.7966 54.6898 68.1503 52.1506 68.3599L51.9861 66.3667ZM59.3723 67.6414C60.9834 68.1975 62.508 68.7197 64.3479 68.8831L64.171 70.8752C62.056 70.6874 60.3164 70.083 58.7198 69.532L59.3723 67.6414ZM64.2559 68.8791C64.821 68.8772 65.3751 68.8751 65.9171 68.873L65.925 70.873C65.3826 70.8751 64.8282 70.8772 64.2629 70.8791L64.2559 68.8791Z" fill="black"/>
<path d="M88.4062 71.8471C85.0062 71.1441 78.3662 67.0754 74.6062 68.1441C71.7062 68.9731 68.1609 72.0151 65.4409 71.8471C60.4409 71.5371 57.6862 67.5651 52.6062 68.1681C48.6262 68.6391 45.7808 71.6761 41.6308 71.8471C36.4675 72.0593 32.1976 68.0982 26.9662 68.1441C24.2308 68.1681 21.1713 71.4878 15.6176 71.3221C10.0639 71.1563 9.47629 68.1681 4.08839 68.1441" stroke="black" stroke-width="2" stroke-miterlimit="10" stroke-linecap="round" stroke-linejoin="round"/>
<path d="M51.5742 51.6943L56.0844 56.4264" stroke="black" stroke-width="2" stroke-linecap="round"/>
<path d="M46.1035 51.207L53.4425 58.7927" stroke="black" stroke-width="2" stroke-linecap="round"/>
<path d="M24.5234 48.019H20.79" stroke="black" stroke-width="2" stroke-linecap="round"/>
<path d="M24.5234 43.7822H20.79" stroke="black" stroke-width="2" stroke-linecap="round"/>
<rect width="12.8069" height="7.90349" rx="1" transform="matrix(-1 0 0 1 56.1758 43.0054)" stroke="black" stroke-width="2"/>
<path d="M24.5234 39.5454H20.79" stroke="black" stroke-width="2" stroke-linecap="round"/>
<path d="M56.1758 37.4551L61.1356 42.6879" stroke="black" stroke-width="2" stroke-linecap="round"/>
<rect width="12.8069" height="7.90349" rx="1" transform="matrix(-1 0 0 1 68.9824 35.1016)" stroke="black" stroke-width="2"/>
<path d="M64.3828 35.5894L68.8929 40.3214" stroke="black" stroke-width="2" stroke-linecap="round"/>
<path d="M58.9102 35.1016L66.2491 42.6872" stroke="black" stroke-width="2" stroke-linecap="round"/>
<path d="M28.7253 59.8246C28.7253 59.8246 28.5068 39.7094 28.7253 39.1323C28.9437 38.5551 33.0816 31.7174 32.7595 31.1736C32.5992 30.9029 28.7486 30.9502 24.8034 30.8975C20.8223 30.8444 16.4285 30.6946 16.3108 31.1736C16.0766 32.1273 16.9748 38.7078 16.6288 56.077" stroke="black" stroke-width="2"/>
<path d="M43.3691 53.5596L48.329 58.7924" stroke="black" stroke-width="2" stroke-linecap="round"/>
<path d="M27.6875 25.0195H20.9819" stroke="black" stroke-width="2" stroke-linecap="round"/>
<path d="M27.6875 22.0498H20.9819" stroke="black" stroke-width="2" stroke-linecap="round"/>
<path d="M24.2754 30.3407V19.0186" stroke="black" stroke-width="2" stroke-linecap="round"/>
</svg>
