<svg width="100" height="100" viewBox="0 0 100 100" fill="none" xmlns="http://www.w3.org/2000/svg">
<path d="M50.1884 63.1744C50.1884 63.1744 49.3504 61.4544 50.9924 59.2434C51.4774 58.5884 52.4354 56.9694 52.4354 56.9694C52.4354 56.9694 51.8964 53.7644 52.4364 53.6634C53.3174 53.4984 55.3484 55.6294 55.3484 55.6294C55.3484 55.6294 57.5354 56.8234 59.1184 58.2004C60.7024 59.5774 61.8274 61.4364 61.8274 61.4364L68.2674 61.3694C68.2674 61.3694 70.9614 59.1004 73.1514 59.0454C75.3404 58.9904 77.9534 62.4674 77.9534 62.4674C77.9534 62.4674 77.0104 65.2464 75.3434 65.5054C73.6754 65.7644 73.0434 60.2304 71.2834 63.5054C70.2964 65.3414 73.8174 71.9874 71.8344 72.2624C69.8514 72.5384 68.1994 69.0134 67.6484 68.2964C67.0974 67.5804 62.7484 67.9174 62.3074 68.4134C61.8674 68.9094 62.5814 73.1444 60.3784 73.0884C58.1744 73.0334 57.8994 69.2884 57.9544 67.1404C58.0094 64.9924 55.8614 61.1914 55.8614 61.1914C55.8614 61.1914 51.8954 66.0384 50.1884 63.1744Z" stroke="black" stroke-width="2" stroke-miterlimit="10" stroke-linejoin="round"/>
<path d="M49.3758 50.7226C49.3758 50.7226 50.3118 49.0156 48.7698 47.5836C48.1728 47.0286 46.9798 44.4686 46.9798 44.4686C46.9798 44.4686 46.8858 41.0206 46.3458 40.9186C45.4648 40.7536 44.3628 43.6726 44.3628 43.6726C44.3628 43.6726 42.0288 44.3716 40.4448 45.7486C38.8608 47.1256 38.0288 49.1806 38.0288 49.1806L30.7588 49.0156C30.7588 49.0156 28.6018 46.6496 26.4128 46.5946C24.2228 46.5396 22.0008 48.7956 22.0008 48.7956C22.0008 48.7956 21.9178 52.1966 23.4878 52.7606C25.0578 53.3256 27.8388 49.0156 28.2798 51.0536C28.7208 53.0916 25.7458 59.5356 27.7288 59.8116C29.7118 60.0866 31.3648 56.5616 31.9148 55.8456C32.4658 55.1296 35.9358 55.5146 36.3768 56.0106C36.8178 56.5066 36.9828 60.6926 39.1858 60.6376C41.3888 60.5826 41.6648 56.8366 41.6088 54.6886C41.5538 52.5406 43.7018 48.7406 43.7018 48.7406C43.7018 48.7406 47.6678 53.5876 49.3758 50.7226Z" stroke="black" stroke-width="2" stroke-miterlimit="10" stroke-linejoin="round"/>
<path d="M55.4863 37.5791L55.5683 55.5541" stroke="black" stroke-width="2" stroke-miterlimit="10" stroke-linejoin="round"/>
<path d="M47.6797 51.6143C47.6797 51.6143 47.7077 63.4883 47.9257 69.2753C48.0267 71.9733 56.5087 71.9863 56.3227 68.9623C56.1547 66.2403 56.1347 62.5293 56.1347 62.5293" stroke="black" stroke-width="2" stroke-miterlimit="10" stroke-linejoin="round"/>
<path d="M47.7105 63.4531C47.7105 63.4531 32.3915 65.4051 31.3245 68.5811C30.2575 71.7571 37.8185 75.0021 46.2135 76.0791C55.2535 77.2381 63.7545 76.1041 66.9205 75.1221C70.0865 74.1401 70.7895 72.0441 70.7895 72.0441" stroke="black" stroke-width="2" stroke-miterlimit="10" stroke-linejoin="round"/>
<path d="M31.1815 69.4707C31.1815 69.4707 30.7906 75.8937 32.4856 76.8747C38.5406 80.3767 49.2375 82.9697 57.1795 82.2787C65.1215 81.5877 66.7025 80.5077 70.8775 78.3457C72.6525 77.4257 72.4256 72.0757 72.4256 72.0757" stroke="black" stroke-width="2" stroke-miterlimit="10" stroke-linejoin="round"/>
<path d="M69.9865 73.4262C69.4615 73.7002 71.0385 72.5012 71.3055 72.5422C72.0535 72.6572 72.5685 73.3722 72.6365 74.0532C72.9915 77.5902 70.1005 79.1022 67.4445 80.3962C64.7325 81.7162 60.9795 81.5992 58.0785 81.5692C55.5135 81.5422 52.9895 81.8152 50.4435 81.7882C47.0205 81.7522 43.8025 80.5542 40.4715 80.1492C35.6555 79.5622 31.1105 77.3442 31.1655 72.1562C31.1875 70.0932 37.4125 74.3342 38.5845 74.6662C43.5045 76.0642 48.6565 76.7552 53.7135 76.8092C57.8015 76.8522 61.5695 76.2302 65.5855 75.6992C67.0785 75.5022 67.6215 74.9382 68.8185 74.2372C69.1665 74.0332 70.4705 73.1752 69.9865 73.4262Z" fill="black"/>
<path d="M64.5762 37.3398L65.2522 61.4668" stroke="black" stroke-width="2" stroke-miterlimit="10" stroke-linejoin="round"/>
<path d="M49.7316 17C49.7316 17 22.8476 33.1857 25.9436 35.3267C29.3196 37.6617 68.8916 38.3517 75.7846 35.2217C78.6726 33.9107 49.7316 17 49.7316 17Z" stroke="black" stroke-width="2" stroke-miterlimit="10" stroke-linejoin="round"/>
<path d="M47.5859 37.2197L47.7109 45.7587" stroke="black" stroke-width="2" stroke-miterlimit="10" stroke-linejoin="round"/>
<path d="M33.9492 36.9756V49.0386" stroke="black" stroke-width="2" stroke-miterlimit="10" stroke-linejoin="round"/>
<path d="M32.1182 36.6087C32.1182 36.6087 35.1932 32.4047 39.4512 26.5667C43.7082 20.7297 49.5362 17.5176 49.5362 17.5176" stroke="black" stroke-width="2" stroke-miterlimit="10" stroke-linejoin="round"/>
<path d="M43.3711 37.2412C43.3711 37.2412 44.2011 33.8122 45.6481 27.8362C47.0941 21.8602 49.4221 18.2695 49.4221 18.2695" stroke="black" stroke-width="2" stroke-miterlimit="10" stroke-linejoin="round"/>
<path d="M54.323 37.1161C54.323 37.1161 53.929 33.5021 52.782 27.4531C51.635 21.4041 50 17.8506 50 17.8506" stroke="black" stroke-width="2" stroke-miterlimit="10" stroke-linejoin="round"/>
<path d="M47.6713 45.263C47.6713 40.492 45.4152 35.879 52.5452 37.067C53.1072 37.161 54.9672 36.944 55.3492 37.326C56.0312 38.008 55.5942 39.918 55.7382 40.777C56.2572 43.891 56.4442 48.462 55.8242 51.561C55.6762 52.301 56.2442 55.106 55.6082 55.53C54.8292 56.049 53.4152 53.064 52.4592 54.02C51.8522 54.628 52.5602 56.291 52.3732 57.04C51.9022 58.923 49.3792 60.336 49.9572 62.648C51.0102 66.858 54.3132 60.62 55.9102 62.216C56.5422 62.848 56.3182 65.33 56.1262 66.099C55.8852 67.061 56.6262 68.667 55.9962 69.507C54.5222 71.472 50.1112 72.249 48.2322 70.369C46.9872 69.125 47.5853 65.947 47.5853 64.373C47.5853 61.518 47.8433 58.672 47.8433 55.832C47.8433 54.781 47.4333 53.204 47.6713 52.251C47.9083 51.304 48.6602 51.551 49.1382 50.914C49.7212 50.136 49.5062 49.478 49.6552 48.585C49.9282 46.948 47.6192 45.869 47.3262 44.4C47.0082 42.814 47.2393 41.073 47.2393 39.483" fill="black"/>
<path d="M67.6335 36.5282C67.6335 36.5282 65.0465 33.6852 60.6395 27.8402C56.2335 21.9952 50.2695 18.0811 50.2695 18.0811" stroke="black" stroke-width="2" stroke-miterlimit="10" stroke-linejoin="round"/>
</svg>
