<svg width="100" height="100" viewBox="0 0 100 100" fill="none" xmlns="http://www.w3.org/2000/svg">
<path d="M64.3804 44.4038C64.9568 39.2841 67.319 29.1796 72.157 29.7198C77.6662 30.3349 74.2441 37.4168 73.5911 38.6727C73.5517 38.7486 73.6175 38.8366 73.7015 38.8203C77.4124 38.099 84.5406 37.7833 84.9719 42.0496C85.4655 46.9323 78.8262 48.2521 77.4696 48.4702C77.381 48.4844 77.3523 48.5989 77.4233 48.6538C80.7037 51.1942 85.8613 56.3399 81.6272 57.7456C76.2294 59.5376 66.205 50.8529 66.205 50.8529" stroke="black" stroke-width="2" stroke-miterlimit="10" stroke-linecap="round"/>
<path d="M26.3222 53.175C21.6317 56.0626 14.9857 60.6966 15.3707 64.0212C15.7556 67.3458 19.8595 66.096 25.3893 66.0369C30.9191 65.9777 59.0615 60.1352 61.8877 58.4996C64.7139 56.864 66.8328 53.8118 65.0784 47.1172C63.324 40.4225 57.4457 39.9392 53.3664 40.3964C49.287 40.8535 32.1853 49.5654 26.3222 53.175Z" stroke="black" stroke-width="2" stroke-miterlimit="10" stroke-linecap="round"/>
<path d="M62.9075 58.7451L48.8171 62.6835L49.9717 63.2946L62.5678 60.918L62.9075 58.7451Z" fill="black"/>
<path d="M27.4944 53.7656L28.5062 56.7123" stroke="black" stroke-width="2" stroke-miterlimit="10" stroke-linecap="round"/>
<path d="M51.0915 51.8974C50.647 48.5198 48.4545 43.8276 47.4192 42.5957" stroke="black" stroke-width="2" stroke-miterlimit="10" stroke-linecap="round"/>
<path d="M65.5897 49.7931C66.9351 56.5865 64.2217 59.7467 61.3845 61.2303C58.5472 62.7138 23.577 68.0716 17.5963 66.1792" stroke="black" stroke-width="2" stroke-miterlimit="10" stroke-linecap="round"/>
<path d="M38.8552 58.5029L39.8129 63.0839" stroke="black" stroke-width="2" stroke-miterlimit="10" stroke-linecap="round"/>
<path d="M71.8208 61.5008C68.9097 61.5008 62.1604 62.2842 59.9333 62.7217L66.0881 52.249C66.7642 52.5473 69.0019 53.8263 70.8631 54.6853C73.1896 55.759 74.1471 56.7286 74.4454 56.9076C74.684 57.0507 79.4762 57.8024 81.8424 58.1603C82.5384 57.7229 84.3543 55.8582 84.1603 56.9076C83.5215 60.3629 76.3959 61.5008 71.8208 61.5008Z" fill="black"/>
</svg>
