<svg width="100" height="100" viewBox="0 0 100 100" fill="none" xmlns="http://www.w3.org/2000/svg">
<path d="M61.9813 28.5976C62.3238 30.767 62.9096 33.3386 63.3781 34.0768C65.5387 38.0453 69.3312 38.4452 70.9011 40.5146C72.471 42.584 71.0438 46.3661 67.4045 46.6515C63.7652 46.9369 61.4104 48.2214 59.7691 50.2194C56.5051 54.193 57.0599 61.945 50.8492 67.3456C47.5667 70.2 32.0104 76.5509 22.3769 66.4179C12.7435 56.285 19.0008 43.623 26.3731 38.4452C33.1048 33.7173 43.4279 36.5899 49.2794 35.2341C55.1308 33.8782 53.1328 30.3102 55.4876 27.7413C57.8425 25.1724 61.5531 25.886 61.9813 28.5976Z" stroke="black" stroke-width="2"/>
<path d="M30.9858 71.5783C32.9048 77.0909 40.7182 83.7102 53.1469 82.3578C68.6827 80.6673 69.7054 66.2258 69.6249 63.9719C69.4355 58.667 66.9363 54.2201 69.2576 51.4567C71.5788 48.6934 75.6686 49.3565 77.1055 47.3669C78.5425 45.3772 78.2661 41.6191 75.558 40.4585C73.3916 39.53 71.9672 39.7667 70.1316 39.498" stroke="black" stroke-width="2"/>
<path d="M43.7871 71.0013C46.5274 72.668 54.0759 75.2553 58.9576 70.1024C65.0636 63.6571 63.3863 55.735 58.9576 52.1018" stroke="black" stroke-width="2" stroke-linecap="round"/>
<path d="M34.8359 77.402C36.3841 79.8497 42.38 84.4816 53.9784 83.4272C68.4765 82.1092 69.8376 70.911 70.0887 69.5302C70.2895 68.4256 70.6292 64.6652 69.2478 60.7312" stroke="black" stroke-width="2" stroke-linecap="round"/>
<path d="M23.7905 40.6342C17.8177 46.0533 13.6951 54.9356 18.27 64.0286C20.8178 69.0926 25.6185 71.2153 31.6722 71.8304" stroke="black" stroke-width="2" stroke-linecap="round"/>
<path d="M23.3899 54.1832C23.2305 54.6245 23.4118 55.9559 23.7944 56.5738" stroke="black" stroke-width="2" stroke-linecap="round"/>
<path d="M51.1871 73.2021L44.4761 71.1141L46.5639 69.772C48.105 68.8772 51.2567 67.0577 51.5351 66.9384C51.8135 66.8191 53.275 64.5688 53.971 63.4586L56.208 58.7857L57.9976 53.9139L59.1907 52.1244L62.5711 57.4931L62.8694 60.7742L62.2728 65.2482L60.1849 68.9269L57.9976 71.1141L53.971 73.2021H51.1871Z" fill="black"/>
<path d="M30.4142 42.5432C28.7571 43.0342 25.1849 45.2314 24.1538 50.0925" stroke="black" stroke-width="2" stroke-linecap="round"/>
<path d="M50.7521 38.1857C49.8488 38.5611 48.3622 39.1524 48.6156 39.3214C48.8689 39.4903 49.9544 39.8845 50.7521 40.1543" stroke="black" stroke-width="2"/>
<path d="M59.8962 34.9738C59.8035 35.7527 60.6744 38.5345 63.5129 39.8698" stroke="black" stroke-width="2" stroke-linecap="round"/>
<path d="M51.6534 34.4301C50.8047 36.4535 50.344 41.8344 53.2196 44.8406C56.0952 47.8469 60.1466 47.9079 61.9983 48.2347" stroke="black" stroke-width="2"/>
<path d="M55.1102 46.3179C55.0585 47.2947 54.9495 48.8909 55.2113 48.7354C55.4731 48.5798 56.2976 47.7712 56.8856 47.1684" stroke="black" stroke-width="2"/>
<path d="M51.6974 42.9727C51.1597 43.7898 50.26 45.1128 50.5645 45.1107C50.869 45.1085 51.9889 44.8266 52.8008 44.603" stroke="black" stroke-width="2"/>
<path d="M40.4956 30.4318L42.4351 32.0943" stroke="black" stroke-width="2" stroke-linecap="round"/>
<path d="M49.334 27.4375L49.334 28.9647" stroke="black" stroke-width="2" stroke-linecap="round"/>
<path d="M43.9995 26.665L45.727 29.7369" stroke="black" stroke-width="2" stroke-linecap="round"/>
<path d="M64.1841 35.4391C66.3877 34.4076 71.6528 31.2053 75.0848 26.6481C79.3749 20.9515 78.5309 17.9274 76.9837 16.8022C75.4365 15.6769 72.6937 17.0131 73.397 21.0922C74.1003 25.1712 75.0848 29.0391 75.0848 32.6962C75.0848 35.6218 73.9596 38.6037 73.397 39.729" stroke="black" stroke-width="2"/>
<path d="M75.3604 26.0985C75.7788 26.4687 77.1608 26.6561 79.8025 26.0985C81.2639 25.7901 82.2253 25.2265 82.9411 24.2637" stroke="black" stroke-width="2" stroke-linecap="round"/>
<path d="M75.4292 26.2543C76.3796 27.3593 77.9488 29.8678 83.684 32.1221" stroke="black" stroke-width="2" stroke-linecap="round"/>
</svg>
