<svg width="100" height="100" viewBox="0 0 100 100" fill="none" xmlns="http://www.w3.org/2000/svg">
<g opacity="0.943388">
<path d="M78.4178 66.9089C75.9238 63.0379 82.7018 60.2079 84.1908 63.7889C85.6798 67.3709 80.8138 70.6289 78.4178 66.9089Z" fill="black" stroke="black" stroke-width="2" stroke-miterlimit="10" stroke-linecap="round" stroke-linejoin="round"/>
<path d="M82.2594 62.003C82.2594 62.003 83.8244 55.706 78.7444 50.047C73.1444 43.809 65.3784 44.04 63.6764 36.276C61.9754 28.512 69.8414 24 69.8414 24" stroke="black" stroke-width="2" stroke-miterlimit="10" stroke-linecap="round" stroke-linejoin="round"/>
<path d="M59.6896 58.186C59.6896 58.186 61.6066 59.533 63.1586 59.582C64.7116 59.631 65.4046 58.957 66.0976 57.485C66.3636 56.922 66.2226 55.23 66.5486 53.224C66.8756 51.218 70.3246 49.094 70.3246 49.094C70.3246 49.094 69.2996 48.26 68.0396 47.876C66.7796 47.491 65.2846 47.555 65.2846 47.555C65.2846 47.555 62.5326 43.075 56.7936 45.221C51.0556 47.367 50.1686 50.073 50.1686 50.073C50.1686 50.073 45.2206 45.133 36.2696 44.666C27.8786 44.228 26.7076 49.163 26.7076 49.163C26.7076 49.163 21.5276 48.997 22.0876 43.818C22.6476 38.639 16.4896 32.805 16.0026 36.714C15.9036 37.512 18.6746 39.22 19.1526 42.497C19.6306 45.775 18.4856 47.377 19.9666 50.129C21.4476 52.882 24.0886 53.153 24.0886 53.153C24.0886 53.153 22.8456 55.778 25.2296 59.873C27.8676 64.404 22.4316 64.524 26.6186 68.378C31.6186 72.982 36.2806 71.689 36.3736 70.616C36.4676 69.543 36.5856 69.198 35.9076 68.503C35.2286 67.807 34.0526 67.779 33.2656 67.796" stroke="black" stroke-width="2" stroke-miterlimit="10" stroke-linecap="round" stroke-linejoin="round"/>
<path d="M33.1061 67.7792C30.7491 67.3512 30.6091 65.9362 30.8481 65.3962C32.1071 62.5422 35.7321 61.6432 35.7321 61.6432C35.7321 61.6432 38.4411 64.3432 44.6931 64.0632C50.9451 63.7842 53.3361 63.7752 53.3361 63.7752C53.3361 63.7752 54.2431 64.9262 58.8621 66.2792C63.4811 67.6322 63.2631 66.3222 66.3541 67.5852C69.4091 68.8342 73.5461 69.9423 74.3851 68.4023C75.2251 66.8633 75.0291 64.5652 72.0331 65.2712C67.8051 66.2682 61.3201 59.4512 57.8681 56.6982" stroke="black" stroke-width="2" stroke-miterlimit="10" stroke-linecap="round" stroke-linejoin="round"/>
<path d="M51.9775 63.9004C51.9775 63.9004 58.5975 70.1364 59.6015 70.9924C60.6055 71.8474 61.5565 72.5464 63.5645 72.5834C65.5715 72.6204 66.7175 70.8124 65.8165 70.0774C64.9905 69.4054 63.4475 69.3144 63.4475 69.3144L61.7525 67.4434" stroke="black" stroke-width="2" stroke-miterlimit="10" stroke-linecap="round" stroke-linejoin="round"/>
<path d="M36.959 62.7559C36.959 62.7559 39.664 68.6579 42.719 70.7169C44.831 72.1399 48.18 72.7009 48.595 71.7339C49.009 70.7669 48.644 68.5278 46.513 69.2108C44.988 69.6998 43.513 64.3298 43.513 64.3298" stroke="black" stroke-width="2" stroke-miterlimit="10" stroke-linecap="round" stroke-linejoin="round"/>
<path d="M53.9336 64.2636C53.9336 64.2636 50.8056 61.9136 50.9006 60.3076" stroke="black" stroke-width="2" stroke-miterlimit="10" stroke-linecap="round" stroke-linejoin="round"/>
<path d="M62.2452 54.134C62.2292 54.131 62.2132 54.127 62.1982 54.124" stroke="black" stroke-width="2" stroke-miterlimit="10" stroke-linecap="round" stroke-linejoin="round"/>
<path d="M57.8183 53.0603C57.8183 53.0603 57.2623 52.0863 57.3173 50.9433C57.3723 49.8013 58.0393 48.4883 58.0393 48.4883L61.1803 49.7683" stroke="black" stroke-width="2" stroke-miterlimit="10" stroke-linecap="round" stroke-linejoin="round"/>
</g>
<path d="M34.5967 62.0673C34.5967 62.0673 38.9077 60.4773 39.6877 58.6523" stroke="black" stroke-width="2" stroke-miterlimit="10" stroke-linecap="round" stroke-linejoin="round"/>
<path opacity="0.943388" d="M30.1615 70.9265C30.1615 70.9265 23.6975 71.3185 27.8535 73.2015C32.0095 75.0855 58.3205 75.6535 62.4575 75.6075C66.5945 75.5625 76.9195 74.3775 72.4305 72.8315C67.9415 71.2845 66.4365 71.2855 66.4365 71.2855C66.4365 71.2855 63.9585 73.6855 61.6355 72.5255C59.3115 71.3655 49.4465 71.2425 49.4465 71.2425C49.4465 71.2425 48.3725 73.7795 44.0785 71.8315C41.4585 70.6435 36.7835 70.7965 36.7835 70.7965C36.7835 70.7965 34.5265 72.4865 32.9925 72.0505C31.4595 71.6135 30.1615 70.9265 30.1615 70.9265Z" fill="black" stroke="black" stroke-width="2" stroke-miterlimit="10" stroke-linecap="round" stroke-linejoin="round"/>
</svg>
