<svg width="100" height="100" viewBox="0 0 100 100" fill="none" xmlns="http://www.w3.org/2000/svg">
<path d="M32.8776 29.9645C32.8776 29.9645 28.5746 33.1915 25.7466 37.6595C22.9176 42.1275 24.2626 47.5615 24.2626 47.5615C24.2626 47.5615 21.6116 51.4245 22.0486 53.3245C23.0816 57.8125 22.6086 60.9915 22.6086 60.9915C22.6086 60.9915 22.5636 67.2145 27.0326 67.7755C30.8826 68.2595 29.2626 70.8625 32.3836 73.6265C35.5036 76.3905 40.6406 77.4185 40.6406 77.4185C40.6406 77.4185 44.2166 78.9125 49.8456 78.6755C55.4746 78.4375 58.9726 76.5495 58.9726 76.5495C58.9726 76.5495 65.1386 76.2716 67.4506 73.5266C69.7626 70.7806 69.0396 66.8855 69.0396 66.8855C69.0396 66.8855 72.0636 65.3615 73.7796 62.4465C75.4946 59.5315 75.0766 55.8245 75.0766 55.8245C75.0766 55.8245 77.2396 53.2735 77.4336 49.7405C77.6286 46.2075 71.2086 35.9395 71.2086 35.9395L65.1656 29.5195" stroke="black" stroke-width="2" stroke-miterlimit="10" stroke-linecap="round" stroke-linejoin="round"/>
<path d="M45.4326 61.7646C45.4326 61.7646 48.3136 63.3317 53.2376 62.0777" stroke="black" stroke-width="2" stroke-miterlimit="10" stroke-linecap="round" stroke-linejoin="round"/>
<path d="M49.2285 49.4813L49.1555 53.3053C49.1555 53.3053 42.3715 61.6883 37.3975 55.1203" stroke="black" stroke-width="2" stroke-miterlimit="10" stroke-linecap="round" stroke-linejoin="round"/>
<path d="M49.1914 52.7598C49.1914 52.7598 52.2064 61.0268 59.7564 55.7388" stroke="black" stroke-width="2" stroke-miterlimit="10" stroke-linecap="round" stroke-linejoin="round"/>
<path d="M34.0542 43.1736C31.5822 49.0966 36.0242 48.8026 39.6562 48.7366C43.2892 48.6706 45.7932 46.0486 43.6662 43.0106C41.5392 39.9726 34.8902 41.1696 34.0542 43.1736Z" stroke="black" stroke-width="2" stroke-miterlimit="10" stroke-linecap="round" stroke-linejoin="round"/>
<path d="M44.2658 46.1768C44.2658 46.1768 43.2378 49.6047 40.6748 51.0977" stroke="black" stroke-width="2" stroke-miterlimit="10" stroke-linecap="round" stroke-linejoin="round"/>
<path d="M54.8923 42.8616C52.4233 48.6526 56.3423 48.3436 59.9703 48.2786C63.5983 48.2136 66.5753 45.8536 64.4523 42.8826C62.3283 39.9126 55.7283 40.9016 54.8923 42.8616Z" stroke="black" stroke-width="2" stroke-miterlimit="10" stroke-linecap="round" stroke-linejoin="round"/>
<path d="M54.3398 46.8133C54.3398 46.8133 55.4578 50.7543 58.0168 50.8623" stroke="black" stroke-width="2" stroke-miterlimit="10" stroke-linecap="round" stroke-linejoin="round"/>
<path d="M46.2713 47.1932C46.9193 46.0722 51.5663 46.2852 52.1113 47.4142C52.6553 48.5422 50.1783 51.3042 48.9863 51.2962C47.7943 51.2882 45.6243 48.3132 46.2713 47.1932Z" fill="black" stroke="black" stroke-width="2" stroke-miterlimit="10" stroke-linecap="round" stroke-linejoin="round"/>
<path d="M59.5224 43.8533L59.3574 45.7533" stroke="black" stroke-width="2" stroke-miterlimit="10" stroke-linecap="round" stroke-linejoin="round"/>
<path d="M38.4873 43.7354L38.3223 45.6343" stroke="black" stroke-width="2" stroke-miterlimit="10" stroke-linecap="round" stroke-linejoin="round"/>
<path d="M53.4131 39.0081C56.0571 35.3211 60.5681 34.7541 65.0921 37.7331" stroke="black" stroke-width="2" stroke-miterlimit="10" stroke-linecap="round" stroke-linejoin="round"/>
<path d="M45.2892 39.2381C43.6522 35.9821 39.1772 34.6371 33.0342 36.6451" stroke="black" stroke-width="2" stroke-miterlimit="10" stroke-linecap="round" stroke-linejoin="round"/>
<path d="M37.7139 25.797C37.7139 25.797 43.7709 23.534 49.8109 23.633C55.8509 23.732 61.2659 26.233 61.2659 26.233" stroke="black" stroke-width="2" stroke-miterlimit="10" stroke-linecap="round" stroke-linejoin="round"/>
<path d="M27.238 35.1001C27.238 35.1001 23.275 21.0851 25.364 21.1251C28.396 21.1831 32.959 29.7861 32.959 29.7861" stroke="black" stroke-width="2" stroke-miterlimit="10" stroke-linecap="round" stroke-linejoin="round"/>
<path d="M61.2852 26.2589C61.2852 26.2589 67.6122 20.5149 73.2512 21.0869" stroke="black" stroke-width="2" stroke-miterlimit="10" stroke-linecap="round" stroke-linejoin="round"/>
<path d="M65.1914 29.5323C65.1914 29.5323 69.2744 22.6313 72.9174 21.2093C76.5604 19.7873 71.0624 35.6413 71.0624 35.6413" stroke="black" stroke-width="2" stroke-miterlimit="10" stroke-linecap="round" stroke-linejoin="round"/>
<path d="M25.1592 21.1163C25.1592 21.1163 32.3082 19.8203 37.5282 25.8813" stroke="black" stroke-width="2" stroke-miterlimit="10" stroke-linecap="round" stroke-linejoin="round"/>
</svg>
