<svg width="100" height="100" viewBox="0 0 100 100" fill="none" xmlns="http://www.w3.org/2000/svg">
<path d="M48.3529 23.1064C47.9659 24.6774 46.7279 27.6305 46.7999 29.3315C46.8759 31.1075 47.3009 35.2285 53.1579 36.7675" stroke="black" stroke-width="2" stroke-miterlimit="10" stroke-linecap="round" stroke-linejoin="round"/>
<path d="M52.3251 53.7066C52.2331 57.0826 55.5601 61.0986 55.8201 64.1396C56.0801 67.1806 57.0421 79.2066 55.6701 80.9146C53.6631 83.4136 48.0521 82.3336 48.4211 79.6636C48.7901 76.9926 50.6771 76.4016 50.6771 76.4016C50.6771 76.4016 50.3981 71.4696 48.1651 65.8156C46.8531 62.4926 42.4301 55.9386 43.2481 52.4796C44.0671 49.0206 46.7481 45.1196 48.1131 43.0406C49.4781 40.9606 50.4891 37.2845 49.8591 35.3105" stroke="black" stroke-width="2" stroke-miterlimit="10" stroke-linecap="round" stroke-linejoin="round"/>
<path d="M64.0342 36.3933C66.4252 35.0373 67.3912 33.1833 67.7862 32.1863C68.3182 30.8413 68.3882 29.7433 68.4272 28.2913C68.4992 25.5863 67.9572 22.8043 67.1582 21.7783" stroke="black" stroke-width="2" stroke-miterlimit="10" stroke-linecap="round" stroke-linejoin="round"/>
<path d="M66.654 34.1836C66.654 34.1836 69.5489 38.1006 70.5799 42.9486C71.6109 47.7976 71.3159 50.0656 69.7239 54.6086C68.1329 59.1516 63.6909 63.2956 63.0439 65.9276C62.3959 68.5596 62.0539 76.4856 62.0539 76.4856C62.0539 76.4856 64.9409 78.4486 64.2269 80.3346C63.5119 82.2196 56.864 82.4286 56.598 79.8396C56.332 77.2516 56.498 66.6146 56.581 63.9616C56.665 61.3086 59.1089 59.2086 59.7949 56.2976C60.4809 53.3876 59.9489 51.2226 59.9489 51.2226" stroke="black" stroke-width="2" stroke-miterlimit="10" stroke-linecap="round" stroke-linejoin="round"/>
<path d="M68.1932 58.257C68.1932 58.257 72.2182 64.866 70.8422 67.634C69.4652 70.402 61.6262 74.031 62.8542 74.263C63.7952 74.441 67.7912 74.422 67.7912 74.422C67.7912 74.422 70.5832 72.653 71.8192 73.422C73.9152 74.725 72.8812 77.757 71.7742 78.501C70.6672 79.245 64.5422 78.89 64.5422 78.89" stroke="black" stroke-width="2" stroke-miterlimit="10" stroke-linecap="round" stroke-linejoin="round"/>
<path d="M43.507 56.419C43.507 56.419 39.258 60.84 37.727 64.617C36.197 68.394 39.2039 74.968 39.2039 74.968" stroke="black" stroke-width="2" stroke-miterlimit="10" stroke-linecap="round" stroke-linejoin="round"/>
<path d="M45.424 78.0896C46.603 77.0686 46.041 74.9816 44.043 74.2796C42.046 73.5766 41.155 73.5445 39.792 74.9245C38.429 76.3045 38.906 77.9556 39.524 78.2276C41.003 78.8766 44.245 79.1106 45.424 78.0896Z" stroke="black" stroke-width="2" stroke-miterlimit="10" stroke-linecap="round" stroke-linejoin="round"/>
<path d="M46.0029 77.6836L48.7179 77.7826" stroke="black" stroke-width="2" stroke-miterlimit="10" stroke-linecap="round" stroke-linejoin="round"/>
<path d="M37.4351 69.582C37.4351 69.582 36.4281 71.824 32.9111 68.581C29.9931 65.89 33.6281 61.475 34.6591 59.694C37.0961 55.49 40.0452 52.548 38.5722 48.848C37.0982 45.149 28.7371 42.25 26.4801 46.17C23.8611 50.72 32.8511 49.35 31.9651 53.49C31.0801 57.631 25.0482 64.508 27.4332 68.041C29.9932 71.834 32.7412 74.387 35.2662 74.067C37.7912 73.747 38.3941 73.791 38.3941 73.791" stroke="black" stroke-width="2" stroke-miterlimit="10" stroke-linecap="round" stroke-linejoin="round"/>
<path d="M53.3154 19.3667C53.3154 19.3667 52.1814 18.3027 50.9734 17.5027C49.7644 16.7027 48.2664 16.0117 48.2664 16.0117C48.2664 16.0117 46.4974 18.1867 46.3054 20.5467C46.1134 22.9067 47.4964 25.4517 47.4964 25.4517" stroke="black" stroke-width="2" stroke-miterlimit="10" stroke-linecap="round" stroke-linejoin="round"/>
<path d="M61.9683 18.994C61.9683 18.994 62.7133 18.175 63.8043 17.427C64.8953 16.678 66.3313 16 66.3313 16C66.3313 16 67.2753 17.592 67.5883 19.046C67.9013 20.5 67.3142 21.984 67.3142 21.984" stroke="black" stroke-width="2" stroke-miterlimit="10" stroke-linecap="round" stroke-linejoin="round"/>
<path d="M53.0073 30.975C53.2013 31.853 54.1803 33.021 56.1153 32.029C58.0503 31.038 57.6123 30.006 57.6123 30.006" stroke="black" stroke-width="2" stroke-miterlimit="10" stroke-linecap="round" stroke-linejoin="round"/>
<path d="M57.723 29.839C57.723 29.839 57.18 32.203 59.917 32.424C61.342 32.539 61.447 31.928 61.623 31.59" stroke="black" stroke-width="2" stroke-miterlimit="10" stroke-linecap="round" stroke-linejoin="round"/>
<path d="M57.5481 29.704C57.5351 29.535 56.9461 29.072 57.1311 28.985C57.1751 28.963 57.5031 28.958 57.7261 28.987C58.0171 29.025 58.2161 29.108 58.2431 29.175C58.3391 29.414 57.5791 30.114 57.5481 29.704Z" stroke="black" stroke-width="2" stroke-miterlimit="10" stroke-linecap="round" stroke-linejoin="round"/>
<path d="M61.8923 26.4805L61.7783 26.5675" stroke="black" stroke-width="2" stroke-miterlimit="10" stroke-linecap="round" stroke-linejoin="round"/>
<path d="M53.3691 26.1175C53.3901 26.0995 53.4121 26.0815 53.4331 26.0625" stroke="black" stroke-width="2" stroke-miterlimit="10" stroke-linecap="round" stroke-linejoin="round"/>
<path d="M62.5551 19.7453C62.5551 19.7453 61.21 18.0873 57.97 17.9873C56.204 17.9323 55.302 18.1383 53.228 19.5423" stroke="black" stroke-width="2" stroke-miterlimit="10" stroke-linecap="round" stroke-linejoin="round"/>
<path d="M39.0762 77.707C39.0762 77.707 40.1182 80.445 46.0362 81.988C49.2992 82.839 58.5912 83.784 63.5102 82.223C68.4282 80.662 71.6572 78.632 71.6572 78.632L65.1542 79.851C65.1542 79.851 64.3892 81.991 61.2812 82.027C58.1732 82.063 56.6532 80.916 56.6532 80.916C56.6532 80.916 55.4681 82.061 52.5641 82.385C49.6611 82.71 48.3622 80.917 48.3622 80.917L47.8762 78.465L45.3701 78.942C45.3701 78.942 42.6472 79.504 42.2002 79.503C39.7312 79.494 39.0762 77.707 39.0762 77.707Z" fill="black" stroke="black" stroke-width="2" stroke-miterlimit="10" stroke-linecap="round" stroke-linejoin="round"/>
</svg>
