<svg width="100" height="100" viewBox="0 0 100 100" fill="none" xmlns="http://www.w3.org/2000/svg">
<path d="M85.5946 83.01C86.4695 83.7555 81.7188 85.9524 78.5018 86.8144C75.3218 87.6665 69.9434 88.3713 70.4708 86.7374C70.9548 85.2378 73.6234 85.1999 74.68 82.7884C75.7367 80.377 71.7364 67.188 69.9472 63.6975C68.3886 60.657 63.9795 59.535 62.3461 55.8222C60.7127 52.1093 57.5244 37.6503 57.3234 30.1481C58.9342 27.8167 65.3839 25.5941 68.5692 27.1348C70.6455 33.9571 76.2038 48.9164 76.3148 53.1435C76.4536 58.4275 73.2594 58.483 73.459 62.7565C73.6619 67.099 78.0496 80.6682 79.4416 81.8915C80.8337 83.1149 84.1539 81.7824 85.5946 83.01Z" stroke="black" stroke-width="2" stroke-linecap="round" stroke-linejoin="round"/>
<path d="M74.1991 83.6046C75.563 81.8764 77.8182 81.2592 79.9816 82.2104" stroke="black" stroke-width="2" stroke-linecap="round" stroke-linejoin="round"/>
<path d="M65.7727 59.688C69.2053 61.515 73.3521 60.592 74.9669 58.1975" stroke="black" stroke-width="2" stroke-linecap="round" stroke-linejoin="round"/>
<path d="M68.9062 61.3096C71.3315 62.9016 73.1504 61.3098 73.7567 60.0215" stroke="black" stroke-width="2" stroke-linecap="round" stroke-linejoin="round"/>
<path d="M35.7264 82.5945C35.981 83.7153 30.8604 82.6312 27.7675 81.3959C24.7102 80.1748 19.98 77.5197 21.3806 76.5266C22.666 75.6151 24.8263 77.1823 27.1163 75.8832C29.4062 74.5841 34.0973 61.6247 34.7536 57.7576C35.3252 54.3891 32.4651 50.851 33.3794 46.8991C34.2936 42.9472 40.3953 29.4565 44.7254 23.3267C47.4113 22.4236 53.9082 24.5041 55.5374 27.6451C53.1165 34.3529 48.6137 49.663 46.1721 53.1155C43.1201 57.4312 40.5282 55.5635 38.1299 59.1062C35.6929 62.7061 31.0846 76.2019 31.4673 78.0152C31.85 79.8284 35.3073 80.7486 35.7264 82.5945Z" stroke="black" stroke-width="2" stroke-linecap="round" stroke-linejoin="round"/>
<path d="M26.1941 76.2812C28.3895 75.3558 30.7663 76.0272 31.4558 78.0225" stroke="black" stroke-width="2" stroke-linecap="round" stroke-linejoin="round"/>
<path d="M33.8096 52.0464C35.4654 55.5648 39.3397 57.3078 42.0666 56.3564" stroke="black" stroke-width="2" stroke-linecap="round" stroke-linejoin="round"/>
<path d="M35.0287 55.0957C36.2413 57.8238 37.8329 57.8232 39.8792 57.293" stroke="black" stroke-width="2" stroke-linecap="round" stroke-linejoin="round"/>
<path d="M68.3637 57.0288C67.3265 56.6988 66.4946 56.0305 65.8214 55.1538M62.4545 44.7021C62.7589 46.7114 63.1852 49.191 64.041 51.2894" stroke="black" stroke-width="2" stroke-linecap="round" stroke-linejoin="round"/>
<path d="M37.3519 51.6039C35.694 49.8276 37.1634 43.99 38.5828 41.3638" stroke="black" stroke-width="2" stroke-linecap="round" stroke-linejoin="round"/>
<path d="M58.4333 39.168C61.4407 37.5778 70.1221 37.4013 72.2355 38.6988C69.4374 41.8025 61.0978 41.7897 58.4333 39.168Z" stroke="black" stroke-width="2" stroke-linecap="round" stroke-linejoin="round"/>
<path d="M38.4224 34.6633C41.3222 33.2261 50.1924 32.3179 52.783 34.3005C50.2899 36.6978 41.479 37.2751 38.4224 34.6633Z" stroke="black" stroke-width="2" stroke-linecap="round" stroke-linejoin="round"/>
<path d="M68.2286 27.3139C66.3461 29.52 59.9568 30.8839 57.4665 30.1976" stroke="black" stroke-width="2" stroke-linecap="round" stroke-linejoin="round"/>
<path d="M55.157 27.5835C52.3284 28.2237 46.3939 25.4914 44.81 23.4509" stroke="black" stroke-width="2" stroke-linecap="round" stroke-linejoin="round"/>
<circle cx="57.0795" cy="19.5072" r="0.93107" fill="black"/>
<circle cx="64.5042" cy="17.5522" r="0.93107" fill="black"/>
<circle cx="51.929" cy="17.1324" r="1.3512" fill="black"/>
<circle cx="58.687" cy="16.2016" r="0.93107" fill="black"/>
<circle cx="55.8667" cy="12.6869" r="0.93107" fill="black"/>
<circle cx="61.8778" cy="11.7555" r="1.3512" fill="black"/>
<circle cx="52.6534" cy="8.47717" r="1.3512" fill="black"/>
<circle cx="62.4394" cy="7.12638" r="0.93107" fill="black"/>
<circle cx="55.7527" cy="5.26408" r="0.93107" fill="black"/>
</svg>
