<svg width="100" height="100" viewBox="0 0 100 100" fill="none" xmlns="http://www.w3.org/2000/svg">
<path d="M28.7502 56.7728C20.9502 49.0798 20.4602 44.9698 24.4802 41.1808C28.5002 37.3918 31.8201 39.7778 37.3001 44.4758C41.4301 48.0208 47.5902 52.3938 47.5902 52.3938C47.5902 52.3938 62.9202 35.6768 66.5902 30.6128C74.6002 19.5678 83.5401 30.5068 76.3101 40.9398C65.3201 56.8118 55.6102 63.7248 51.4702 66.2698C48.1802 68.2888 36.5602 64.4658 28.7502 56.7728Z" stroke="black" stroke-width="2" stroke-miterlimit="10" stroke-linecap="round" stroke-linejoin="round"/>
<path d="M73.0899 46.041C73.0899 46.041 72.3498 71.322 72.1898 73.347C72.1198 74.142 61.4199 74.395 50.2499 74.395C39.0799 74.395 27.5298 74.471 27.5198 73.347C27.5098 72.248 27.7998 55.932 27.7998 55.932" stroke="black" stroke-width="2" stroke-miterlimit="10" stroke-linecap="round" stroke-linejoin="round"/>
<path d="M27.3601 39.1618C27.3601 39.1618 27.2101 29.3548 27.5601 28.6778C28.1801 27.4408 69.66 27.3398 69.66 27.3398" stroke="black" stroke-width="2" stroke-miterlimit="10" stroke-linecap="round" stroke-linejoin="round"/>
<path d="M31.6904 39.6742L31.4404 32.2012L65.7904 31.2002L47.5404 52.2152C47.5404 52.2152 43.2904 49.1372 39.5504 46.0702C35.5604 42.7942 31.6904 39.6742 31.6904 39.6742Z" fill="black" stroke="black" stroke-width="2" stroke-miterlimit="10" stroke-linejoin="round"/>
<path d="M31.8 59.4797L31.54 70.2307C31.54 70.2307 39.7201 70.5917 48.6201 70.5657C57.5201 70.5397 68.1801 70.1667 68.1801 70.1667L68.8701 50.8807C68.8701 50.8807 54.27 66.5297 49.91 66.7757C42.33 67.2017 31.8 59.4797 31.8 59.4797Z" fill="black" stroke="black" stroke-width="2" stroke-miterlimit="10" stroke-linejoin="round"/>
</svg>
