<svg width="100" height="100" viewBox="0 0 100 100" fill="none" xmlns="http://www.w3.org/2000/svg">
<path d="M80.441 38.6501C80.441 38.6501 68.836 45.1231 51.337 47.8041C26.987 51.5351 16 50.0531 16 50.0531C16 50.0531 17.034 54.6501 17.992 58.7191C18.275 58.6691 18.534 58.5451 18.83 58.5451C21.799 58.5451 24.177 61.1451 24.177 64.3801C24.177 66.7521 22.856 68.7701 20.997 69.6921C21.87 72.2101 22.76 74.0981 23.513 74.5501C25.045 75.4691 30.499 75.6821 36.897 75.4581C36.897 75.4581 36.835 74.6611 36.835 74.3771C36.835 70.4911 39.788 67.6311 43.572 67.6301C47.185 67.6301 50.092 70.5221 50.351 74.1651C57.882 73.0811 65.494 71.5141 71.144 68.9581C81.061 64.4711 80.441 38.6501 80.441 38.6501Z" stroke="black" stroke-width="2" stroke-miterlimit="10" stroke-linecap="round" stroke-linejoin="round"/>
<path d="M64.0527 71.4876C64.0527 71.4876 79.6408 68.2077 82.7208 66.2667C85.8008 64.3247 76.3807 63.7227 76.3807 63.7227L74.0707 66.9997L71.3008 69.4517" fill="black"/>
<path d="M64.0527 71.4876C64.0527 71.4876 79.6408 68.2077 82.7208 66.2667C85.8008 64.3247 76.3807 63.7227 76.3807 63.7227L74.0707 66.9997L71.3008 69.4517" stroke="black" stroke-width="2" stroke-miterlimit="10" stroke-linecap="round" stroke-linejoin="round"/>
<path d="M54.64 62.0742C54.64 59.3542 56.564 57.1492 58.937 57.1492C61.309 57.1492 63.233 59.3542 63.233 62.0742C63.233 64.7942 61.309 66.9992 58.937 66.9992C56.564 66.9992 54.64 64.7942 54.64 62.0742Z" stroke="black" stroke-width="2" stroke-miterlimit="10" stroke-linejoin="round"/>
<path d="M32.3579 58.7197C32.3579 56.7647 33.7389 55.1797 35.4429 55.1797C37.1469 55.1797 38.5289 56.7647 38.5289 58.7197C38.5289 60.6737 37.1469 62.2587 35.4429 62.2587C33.7389 62.2587 32.3579 60.6737 32.3579 58.7197Z" stroke="black" stroke-width="2" stroke-miterlimit="10" stroke-linejoin="round"/>
<path d="M71.411 49.9161C71.411 48.5321 72.391 47.4111 73.591 47.4111C74.801 47.4111 75.771 48.5321 75.771 49.9161C75.771 51.2991 74.801 52.4201 73.591 52.4201C72.391 52.4201 71.411 51.2991 71.411 49.9161Z" stroke="black" stroke-width="2" stroke-miterlimit="10" stroke-linejoin="round"/>
<path d="M38.13 44.2916C37.806 43.1956 39.211 41.8136 41.268 41.2046C42.133 40.9486 42.975 40.8696 43.685 40.9456C44.665 41.0506 45.3929 41.4496 45.5809 42.0846C45.8359 42.9456 45.024 43.9826 43.666 44.6836C43.296 44.8746 42.8839 45.0406 42.4429 45.1716C40.3859 45.7806 38.455 45.3866 38.13 44.2916Z" stroke="black" stroke-width="2" stroke-miterlimit="10" stroke-linejoin="round"/>
<path d="M52.394 34.6713C51.987 33.2983 53.925 31.5123 56.723 30.6843C57.898 30.3363 59.0389 30.2123 59.9959 30.2883C61.3169 30.3923 62.289 30.8753 62.525 31.6713C62.844 32.7513 61.717 34.0843 59.862 35.0073C59.356 35.2593 58.796 35.4813 58.196 35.6593C55.398 36.4873 52.8 36.0453 52.394 34.6713Z" stroke="black" stroke-width="2" stroke-miterlimit="10" stroke-linejoin="round"/>
<path d="M80.011 39.4152C83.411 34.7742 64.005 23.7952 51.956 25.1082C46.289 25.7262 20.062 43.8212 16.036 49.7772" stroke="black" stroke-width="2" stroke-miterlimit="10" stroke-linecap="round" stroke-linejoin="round"/>
</svg>
