<svg width="100" height="100" viewBox="0 0 100 100" fill="none" xmlns="http://www.w3.org/2000/svg">
<path d="M29.808 61.7683C29.808 61.7683 8.10321 57.4292 15.6966 38.9692C20.6922 26.837 29.808 32.4606 38.4956 29.1968C47.1833 25.933 45.0042 21.5939 55.8614 25.9425C62.6174 28.6449 61.2852 31.3663 66.7185 31.3663C72.1519 31.3663 75.4061 32.4511 77.5757 37.8749C79.7452 43.2987 80.83 44.3835 84.0843 46.5625C87.3385 48.7416 86.2538 57.4197 80.83 59.5892C75.4061 61.7588 71.6475 62.2155 71.6475 62.2155" stroke="black" stroke-width="2" stroke-miterlimit="10"/>
<path d="M71.0576 71.5408C71.0385 71.9214 71.0576 71.5408 71.0576 58.5141C71.0576 55.8593 61.1329 48.7417 50.4375 48.7417C41.7499 48.7417 29.8175 48.7417 29.8175 53.0808C29.8175 57.4198 27.648 71.5313 29.8175 72.616" stroke="black" stroke-width="2" stroke-miterlimit="10"/>
<path d="M29.8081 69.8281C29.8081 69.8281 34.1471 68.2866 43.9195 68.2866C53.6919 68.2866 69.9729 69.2858 71.0577 71.5029C72.1424 73.72 61.2853 75.8895 51.5224 75.8895C41.75 75.8895 25.469 74.6334 29.8176 69.8376L29.8081 69.8281Z" fill="black" stroke="black" stroke-width="2" stroke-miterlimit="10"/>
<path d="M69.9729 56.3445C69.9729 56.3445 72.1424 56.3445 73.2272 55.2598" stroke="black" stroke-width="2" stroke-miterlimit="10" stroke-linecap="round"/>
<path d="M71.0576 60.6835C71.0576 60.6835 81.9148 61.7683 84.8836 55.5737" stroke="black" stroke-width="2" stroke-miterlimit="10"/>
<path d="M60.3811 50.6257C60.3811 50.6257 64.5489 49.8264 65.6336 47.6569" stroke="black" stroke-width="2" stroke-miterlimit="10" stroke-linecap="round"/>
<path d="M26.5537 46.5721C26.5537 46.5721 27.6385 49.8264 30.8928 50.9112" stroke="black" stroke-width="2" stroke-miterlimit="10" stroke-linecap="round"/>
<path d="M14.2693 48.5322C14.2693 48.5322 14.6214 53.0901 21.1299 57.4292C25.1645 60.1221 29.2847 60.4075 29.2847 60.4075" stroke="black" stroke-width="2" stroke-miterlimit="10" stroke-linecap="round"/>
<path d="M42.8347 42.233C42.8347 42.233 42.8347 47.6569 46.089 48.7416" stroke="black" stroke-width="2" stroke-miterlimit="10" stroke-linecap="round"/>
</svg>
