<svg width="100" height="100" viewBox="0 0 100 100" fill="none" xmlns="http://www.w3.org/2000/svg">
<path d="M31.4883 60.2266L27.6163 67.8016L21.2583 67.9326" stroke="black" stroke-width="2" stroke-miterlimit="10" stroke-linejoin="round"/>
<path d="M23.175 47.8926C23.566 49.7346 30.701 59.9816 31.561 59.9346C32.661 59.8746 45.108 59.8266 45.108 59.8266L52.622 48.0576C52.622 48.0576 46.944 36.6736 46.183 35.7436C45.451 34.8506 32.093 35.5796 31.346 36.1736C30.588 36.7766 22.866 46.4406 23.175 47.8926Z" stroke="black" stroke-width="2" stroke-miterlimit="10" stroke-linejoin="round"/>
<path d="M45.9072 60.1602L47.6732 62.7372L51.5052 68.8652C51.5052 68.8652 64.7702 70.6452 65.4892 69.5322C66.3562 68.1922 71.2362 61.4802 70.9412 60.4752C70.8102 60.0272 67.0632 50.0592 66.0722 49.8002C64.7782 49.4632 53.2322 48.2832 53.2322 48.2832L45.9072 60.1602Z" stroke="black" stroke-width="2" stroke-miterlimit="10" stroke-linejoin="round"/>
<path d="M51.2922 69.0596L48.6172 73.7606" stroke="black" stroke-width="2" stroke-miterlimit="10" stroke-linejoin="round"/>
<path d="M44.6662 74.1197C43.4912 76.6167 45.8672 78.0977 47.9832 77.4997C50.0982 76.9017 50.7392 74.0067 49.9802 72.9947C49.2202 71.9827 45.9132 71.4687 44.6662 74.1197Z" fill="black" stroke="black" stroke-width="2" stroke-miterlimit="10" stroke-linejoin="round"/>
<path d="M18.2583 66.7505C17.0833 69.2485 20.1783 70.7845 22.2943 70.1865C24.4093 69.5885 23.9983 66.9145 23.2393 65.9025C22.4803 64.8905 19.5043 64.1005 18.2583 66.7505Z" fill="black" stroke="black" stroke-width="2" stroke-miterlimit="10" stroke-linejoin="round"/>
<path d="M71.2534 60.6973L77.0904 61.5783" stroke="black" stroke-width="2" stroke-miterlimit="10" stroke-linejoin="round"/>
<path d="M76.6924 60.5437C75.5174 63.0417 78.2254 65.0757 80.3414 64.4777C82.4564 63.8797 82.5434 61.0407 81.7844 60.0277C81.0254 59.0157 77.9394 57.8937 76.6924 60.5437Z" fill="black" stroke="black" stroke-width="2" stroke-miterlimit="10" stroke-linejoin="round"/>
<path d="M52.8525 55.9795C53.8125 53.0995 55.8495 51.4745 58.8305 52.9645" stroke="black" stroke-width="2" stroke-miterlimit="10" stroke-linecap="round" stroke-linejoin="round"/>
<path d="M30.4962 43.3701C26.5632 47.3041 27.1042 47.3741 30.1952 52.0111" stroke="black" stroke-width="2" stroke-miterlimit="10" stroke-linecap="round" stroke-linejoin="round"/>
<path d="M46.5913 35.6661L51.8223 28.3691" stroke="black" stroke-width="2" stroke-miterlimit="10" stroke-linejoin="round"/>
<path d="M31.1913 35.8279L26.0713 26.4219" stroke="black" stroke-width="2" stroke-miterlimit="10" stroke-linejoin="round"/>
<path d="M49.8753 27.154C48.7003 29.651 51.3523 31.353 53.4683 30.755C55.5843 30.158 55.5053 27.207 54.7453 26.195C53.9863 25.1827 51.1223 24.5032 49.8753 27.154Z" fill="black" stroke="black" stroke-width="2" stroke-miterlimit="10" stroke-linejoin="round"/>
<path d="M22.5522 24.9457C21.3772 27.443 24.4722 28.979 26.5882 28.381C28.7032 27.783 28.6242 24.8332 27.8652 23.8209C27.1062 22.8086 23.7992 22.2952 22.5522 24.9457Z" fill="black" stroke="black" stroke-width="2" stroke-miterlimit="10" stroke-linejoin="round"/>
</svg>
