<svg width="100" height="100" viewBox="0 0 100 100" fill="none" xmlns="http://www.w3.org/2000/svg">
<path d="M67.4522 44.1005C63.6291 43.8939 64.3892 47.8895 63.953 48.3136C63.5168 48.7378 60.0955 45.2543 57.3465 48.3136C53.2146 52.9119 59.3933 54.5991 59.3417 55.0088C59.2901 55.4186 54.3314 55.2305 56.6028 60.0517C59.2371 65.6434 62.969 60.5512 63.328 60.5512C63.6869 60.5512 63.7616 66.9604 68.5501 65.8638C74.9045 64.4086 70.8698 58.8366 70.8698 58.4229C70.8698 58.0093 75.8799 61.6596 76.8808 56.1769C78.1848 49.0343 71.0916 51.3557 71.0916 50.9739C71.0916 50.5922 71.1591 50.3001 71.5207 49.2669C71.9728 47.9753 72.2311 44.3588 67.4522 44.1005Z" stroke="black" stroke-width="2"/>
<circle cx="66.0581" cy="54.7607" r="3.37743" fill="black"/>
<path d="M40.0485 47.8664C37.3173 49.7103 39.9143 52.0578 39.8352 52.5754C39.7561 53.0931 35.5987 52.4793 35.301 56.0068C34.8536 61.3087 39.9704 59.2575 40.1478 59.5655C40.3253 59.8735 36.8243 62.32 40.8873 64.4491C45.5996 66.9185 45.516 61.4853 45.7624 61.2989C46.0087 61.1125 49.3889 65.4725 52.1057 62.2328C55.711 57.9336 50.0479 56.205 49.8331 55.9211C49.6182 55.6372 54.9527 55.5403 52.792 51.2575C49.9771 45.6782 46.3146 50.9555 46.1163 50.6935C45.918 50.4315 45.8127 50.196 45.5242 49.299C45.1636 48.1778 43.4625 45.5616 40.0485 47.8664Z" stroke="black" stroke-width="2"/>
<circle cx="44.3126" cy="56.3924" r="2.6453" transform="rotate(-37.1177 44.3126 56.3924)" fill="black"/>
<path d="M35.7353 68.6763C34.492 69.5157 35.6742 70.5843 35.6382 70.8199C35.6022 71.0555 33.7097 70.7761 33.5742 72.3818C33.3705 74.7953 35.6997 73.8616 35.7805 74.0018C35.8612 74.142 34.2676 75.2556 36.117 76.2248C38.2621 77.3489 38.2241 74.8757 38.3362 74.7908C38.4483 74.706 39.987 76.6906 41.2237 75.2159C42.8648 73.2589 40.287 72.4721 40.1892 72.3428C40.0914 72.2136 42.5196 72.1695 41.5361 70.22C40.2547 67.6803 38.5876 70.0825 38.4973 69.9632C38.407 69.844 38.3591 69.7368 38.2278 69.3285C38.0636 68.8181 37.2893 67.6272 35.7353 68.6763Z" stroke="black" stroke-width="2"/>
<path d="M22.7773 64.8766C22.1117 66.4764 23.9312 66.7556 24.0463 67.0057C24.1613 67.2559 22.1585 68.1894 23.0485 69.8243C24.3863 72.2815 26.0392 69.9003 26.2063 69.9842C26.3733 70.0681 25.5441 72.1552 27.9441 71.9143C30.7275 71.6348 29.1186 69.2737 29.1728 69.1205C29.227 68.9674 31.9727 69.9035 32.228 67.6949C32.5668 64.7642 29.5803 65.644 29.4038 65.5815C29.2273 65.519 31.5413 63.9329 29.3534 62.6778C26.503 61.0428 26.4222 64.4196 26.2593 64.362C26.0964 64.3043 25.982 64.2314 25.5958 63.9211C25.1131 63.5331 23.6092 62.8768 22.7773 64.8766Z" stroke="black" stroke-width="2"/>
<path d="M49.1541 33.5669C47.2815 35.2896 49.5349 36.7824 49.5342 37.1868C49.5335 37.5911 46.2886 37.6018 46.468 40.3294C46.7377 44.4289 50.4079 42.2729 50.5788 42.4876C50.7498 42.7023 48.3589 44.9738 51.7064 46.1309C55.589 47.4729 54.8987 43.3344 55.0653 43.1637C55.2319 42.9929 58.3153 45.932 60.0161 43.1453C62.273 39.4472 57.7499 38.7804 57.5532 38.5884C57.3564 38.3964 61.4181 37.7074 59.2746 34.6867C56.4822 30.7515 54.2943 35.203 54.1127 35.0258C53.9311 34.8486 53.8236 34.6809 53.4999 34.0294C53.0953 33.2149 51.4949 31.4136 49.1541 33.5669Z" stroke="black" stroke-width="2"/>
<circle cx="53.3133" cy="39.1355" r="1.86307" transform="rotate(-45.7054 53.3133 39.1355)" fill="black"/>
<path d="M47.6156 82.8464C49.5869 81.0382 48.9603 78.9348 48.4006 78.1092C44.5844 78.2993 45.0079 82.9346 45.0739 83.6001C45.1399 84.2656 45.1515 85.1067 47.6156 82.8464Z" stroke="black" stroke-width="2"/>
<path d="M60.5705 77.5076C58.3835 75.9673 56.4621 77.028 55.7748 77.7509C56.7743 81.4387 61.2126 80.0366 61.8488 79.8302C62.485 79.6237 63.3042 79.4331 60.5705 77.5076Z" stroke="black" stroke-width="2"/>
<path d="M39.0627 63.604C38.5425 64.6443 36.8585 67.271 34.2839 69.4556C31.0656 72.1863 25.019 72.9665 23.2636 73.1615C21.8592 73.3175 19.7527 73.2265 18.875 73.1615" stroke="black" stroke-width="2" stroke-linecap="round"/>
<path d="M25.4898 73.1016C24.8176 73.8699 23.1851 76.167 22.9545 76.9045" stroke="black" stroke-width="2" stroke-linecap="round"/>
<path d="M49.1544 63.3706C48.5959 65.9022 48.7868 70.3323 50.1271 72.3875C51.4674 74.4426 53.9572 76.9224 55.5208 77.332" stroke="black" stroke-width="2" stroke-linecap="round"/>
<path d="M49.3032 70.4458C50.0082 73.3332 49.8321 76.2465 48.4067 77.7907" stroke="black" stroke-width="2" stroke-linecap="round"/>
<path d="M40.816 64.0098C40.0799 65.0546 38.3829 67.2555 36.5308 68.1674" stroke="black" stroke-width="2"/>
<path d="M53.1187 46.3984L50.9458 48.9219" stroke="black" stroke-width="2"/>
<path d="M52.9287 51.383C54.8147 49.6095 57.2247 48.2445 57.5286 48.0708" stroke="black" stroke-width="2"/>
<path d="M60.207 43.0946C61.4646 42.305 64.1404 41.1814 64.9125 40.2689C65.8776 39.1283 65.9654 32.0215 68.5976 30.2666C70.7033 28.8628 77.1155 24.3892 78.3366 24.8269C79.5577 25.2645 81.2941 28.8846 80.8516 30.2666C80.2985 31.9943 74.4153 33.1005 72.0519 34.7096C69.6886 36.3187 69.8897 40.2911 68.884 41.7493C68.0795 42.9159 67.0403 43.945 66.6213 44.3138" stroke="black" stroke-width="2"/>
<path d="M67.5297 30.9244C66.1221 29.6009 62.6514 26.8531 60.0296 26.4497C56.7523 25.9455 54.9876 26.4497 52.7817 26.4497" stroke="black" stroke-width="2"/>
<path d="M47.8297 27.4265C50.5312 28.8712 52.5667 27.3965 53.2468 26.4786C51.5944 22.4266 46.7457 24.6418 46.0515 24.9655C45.3573 25.2892 44.4527 25.6206 47.8297 27.4265Z" stroke="black" stroke-width="2"/>
<path d="M59.4598 26.3989C58.9917 25.4919 58.0203 23.3444 57.8799 22.0103" stroke="black" stroke-width="2"/>
<path d="M72.0078 27.9571L78.14 24.8096L81.1248 29.9108L79.8224 31.4303L72.9846 33.7095L70.9767 35.7717L69.2944 41.2528L67.7749 43.8034C67.0694 43.93 65.5933 44.1833 65.3328 44.1833C65.0724 44.1833 64.5369 47.2584 64.3017 48.796L60.3944 47.1137L57.8981 47.9277C57.0479 48.7237 55.239 50.3372 54.8049 50.4241C54.3708 50.5109 53.213 50.7497 52.6884 50.8582L51.9287 48.796L52.6884 46.7338L54.4792 45.4857L55.3475 43.8034L59.2005 44.1833L60.3944 42.8266L64.7358 40.8186L65.984 35.7717L67.2322 30.7248L72.0078 27.9571Z" fill="black"/>
<path d="M55.7996 17.7576C54.9418 20.6986 56.8038 22.3871 57.842 22.8637C61.4672 20.4128 58.3017 16.1237 57.842 15.511C57.3824 14.8982 56.8719 14.0813 55.7996 17.7576Z" stroke="black" stroke-width="2"/>
</svg>
