<svg width="100" height="100" viewBox="0 0 100 100" fill="none" xmlns="http://www.w3.org/2000/svg">
<path d="M28.9234 56.7266C27.6364 57.2703 25.0023 59.0835 24.2466 59.5543C23.185 60.2158 29.7729 60.2829 30.5342 61.7512" stroke="black" stroke-width="2" stroke-linecap="round"/>
<path d="M37.9271 48.4917C37.057 49.1624 35.5452 50.6561 35.1537 50.8301C34.6642 51.0476 39.6128 51.102 39.8303 51.5914" stroke="black" stroke-width="2" stroke-linecap="round"/>
<path d="M29.8003 44.6636C28.7127 44.9173 26.3526 45.4248 25.6131 45.4248C24.6886 45.4248 28.604 47.165 28.7128 48.0351" stroke="black" stroke-width="2" stroke-linecap="round"/>
<path d="M79.2092 42.3384C80.1392 42.4689 81.6173 42.9942 83.0268 42.681C84.7886 42.2895 80.8733 44.5898 80.5796 45.7644" stroke="black" stroke-width="2" stroke-linecap="round"/>
<path d="M73.26 33.5967C74.092 33.6293 75.9909 33.5868 76.9306 33.1561C78.1052 32.6178 74.7772 35.897 75.0219 36.4353" stroke="black" stroke-width="2" stroke-linecap="round"/>
<path d="M81.8068 42.1528C81.2247 40.1871 80.3611 38.3443 79.1225 36.7915C74.0693 30.4561 67.8386 25.6515 60.4304 23.9402M82.3434 44.6932C84.0833 52.8745 81.6317 60.9737 81.1515 61.0423C80.4752 61.139 80.3624 55.3717 77.5767 50.6077C74.791 45.8437 67.7217 39.69 61.0552 36.7915C54.3886 33.893 43.181 33.9896 42.4081 34.2794C41.6352 34.5693 47.2389 37.1779 50.7172 39.69C54.1954 42.202 59.1228 49.7382 61.0552 55.7284C62.9875 61.7187 61.0552 78.1436 59.8958 78.4334C59.0703 78.6398 54.8164 79.4339 48.4244 77.8866M57.5291 23.4386C56.3488 23.3017 55.141 23.242 53.9055 23.2651C45.6351 23.4197 39.7028 26.9365 37.7704 28.6756C34.6465 31.4453 28.1088 38.9171 26.9494 46.6464C26.4352 50.0738 26.453 53.7586 27.2371 57.5184M28.1503 60.9175C30.0148 66.5393 33.6811 71.6807 39.7028 74.6653C41.5342 75.5731 43.2791 76.2919 44.9213 76.858" stroke="black" stroke-width="2" stroke-linecap="round"/>
<path d="M44.6873 74.5566C45.2059 76.0256 45.2058 78.9373 45.2059 80.0606C45.206 81.3139 48.6356 75.7174 50.6891 75.8941" stroke="black" stroke-width="2" stroke-linecap="round"/>
<path d="M54.5035 69.3409C54.6945 69.9881 55.0092 71.5155 54.74 72.4472C54.4035 73.6119 56.9836 70.2363 57.5792 70.1568" stroke="black" stroke-width="2" stroke-linecap="round"/>
<path d="M33.8595 67.4263C33.5185 68.6534 32.7276 71.2577 32.2914 71.8576C31.7461 72.6075 36.1091 69.8805 36.9272 70.2896" stroke="black" stroke-width="2" stroke-linecap="round"/>
<path d="M43.0149 61.0373C43.1798 62.0082 43.3058 64.1825 42.4912 65.1125C41.4729 66.2749 46.3585 62.9461 46.8838 63.0096" stroke="black" stroke-width="2" stroke-linecap="round"/>
<path d="M53.9025 59.1458C53.8525 60.1188 53.9184 62.9525 53.6454 63.2997C53.3042 63.7338 56.2679 61.0622 57.3 61.1618" stroke="black" stroke-width="2" stroke-linecap="round"/>
<path d="M61.0491 75.5644C64.5459 74.4374 69.5474 73.4917 74.8575 67.6582C80.4424 61.5226 79.694 58.7207 80.158 57.627" stroke="black" stroke-width="2" stroke-linecap="round"/>
<path d="M48.6332 51.0015C48.437 51.955 47.8761 53.9798 47.203 54.4509C46.3617 55.0398 51.1572 52.5159 52.0827 53.1889" stroke="black" stroke-width="2" stroke-linecap="round"/>
<path d="M36.8923 36.7814C36.3189 37.7677 34.9993 39.0966 34.4077 39.875C33.8771 40.5731 38.697 39.1557 40.0286 40.1615" stroke="black" stroke-width="2" stroke-linecap="round"/>
<path d="M49.6999 34.3301H43.7141V35.5771L49.2011 38.2582L53.1916 41.8746L56.9327 46.6133L60.8608 54.3449L61.7961 59.8942V68.6234L60.8608 75.0456L65.9736 74.235L70.7124 71.4916L75.0146 67.8752L77.8828 63.8847L80.3768 58.9589L79.2545 53.659L75.8252 47.798L70.4006 42.4358L64.1654 38.2582L57.3068 35.5771L49.6999 34.3301Z" fill="black"/>
<path d="M62.8135 31.7183C63.7434 31.2451 65.6913 30.3184 66.0437 30.3968C66.4841 30.4947 64.4775 32.8439 64.6243 33.578" stroke="black" stroke-width="2" stroke-linecap="round"/>
<path d="M46.2229 29.5618C47.1422 29.4928 48.1855 26.4679 48.6194 26.5309C49.0533 26.5939 49.4789 28.0877 49.5194 29.2505" stroke="black" stroke-width="2" stroke-linecap="round"/>
<path d="M56.8132 25.1519C57.5527 23.7487 59.1454 21.0334 59.6005 21.3975C60.0556 21.7616 59.6005 24.9638 60.9089 25.9483" stroke="black" stroke-width="2" stroke-linecap="round"/>
<path d="M38.6766 27.5762C35.7411 25.0085 27.7662 20.5804 22.9901 19.8728C17.0199 18.9884 15.988 23.4107 16.8725 24.074C17.757 24.7374 25.1803 23.6283 31.3715 26.945C36.3246 29.5985 35.9622 30.339 35.7411 30.1916" stroke="black" stroke-width="2" stroke-linecap="round"/>
<path d="M16.5785 23.25C16.39 24.2455 16.5363 24.9739 18.7264 25.365C22.1337 25.9735 25.5574 26.29 27.6339 27.0687C29.7104 27.8473 35.7038 30.0567 33.7929 32.9007" stroke="black" stroke-width="2"/>
<path d="M25.6759 24.8771L17.6855 24.0605V25.3728L23.1972 26.1019L27.309 26.9184L30.9834 28.639L33.7247 30.8844L34.5412 31.9343L36.0868 30.2429L30.6918 26.5101L25.6759 24.8771Z" fill="black"/>
</svg>
