<svg width="100" height="100" viewBox="0 0 100 100" fill="none" xmlns="http://www.w3.org/2000/svg">
<path d="M60.51 42.3547C60 45.1247 62.05 49.8447 63.66 51.9547C61.71 53.0147 60.07 55.2847 59.02 57.2347M40.48 21.3347C42.44 18.0447 46.03 15.8447 50.13 15.8447C52.19 15.8447 54.12 16.3947 55.77 17.3647M40.48 21.3347C38.78 20.4447 36.84 19.9447 34.79 19.9447C28.43 19.9447 23.19 24.7547 22.52 30.9447M40.48 21.3347C40.05 21.9247 39.71 22.5847 39.59 23.3247M63.82 21.4847C69.72 21.4847 76.08 26.9147 75.1 33.1447C80.19 34.2147 83.79 38.6847 83.79 45.1347C83.79 49.3747 83.17 52.1647 79.7 54.0747C81.19 55.9947 81.71 59.2747 81.28 63.1747C80.66 68.7447 76.28 72.1547 70.93 73.0547C70.39 77.8047 67.04 81.6847 62.47 82.7447M52.8 80.5647C50.49 83.4747 46.6 84.2747 42.04 83.8747C36.15 83.3547 32.27 81.4647 30.76 76.1747M52.8 80.5647C53.14 80.8347 53.5 81.0847 53.87 81.3247M52.8 80.5647C51.97 79.9047 51.82 79.0347 51.68 78.6647M30.76 76.1747C30.26 76.2347 29.76 76.2747 29.24 76.2747C26.75 76.2747 25.14 75.9547 23.23 74.6047M30.76 76.1747C31.59 76.0147 32.68 75.4647 32.91 75.2547M19.07 70.4347C17.93 68.5447 17.27 66.3147 17.27 63.9247C17.27 60.9247 16.93 58.1847 18.66 56.0447C16.31 53.8947 16.21 50.7947 16.21 47.3647C16.21 43.9347 17.56 41.1047 19.73 38.9747M39.32 57.2347C38.72 56.2747 38 55.4047 37.17 54.6547C38.76 52.6547 39.71 50.1147 39.71 47.3547C39.71 46.1247 39.52 44.9347 39.17 43.8147C42.18 42.6747 44.62 40.3847 45.97 37.4947C47.26 38.0047 48.66 38.2847 50.13 38.2847C51.6 38.2847 53.04 37.9947 54.34 37.4647C54.61 37.9847 54.93 38.4847 55.28 38.9547" stroke="black" stroke-width="2" stroke-linecap="round" stroke-linejoin="round"/>
<path d="M58.07 78.1748C55 78.1748 53.24 79.9348 53.24 83.0048C53.24 85.6848 55.88 87.8348 58.07 87.8348C60.74 87.8348 62.9 85.6648 62.9 83.0048C62.9 80.0248 61.05 78.1748 58.07 78.1748ZM59.97 82.8248C59.97 82.8248 59.91 82.8248 59.88 82.8248C59.37 82.8248 58.93 82.4348 58.88 81.9148C58.86 81.8948 58.71 81.7348 58.62 81.6648C58.13 81.5548 57.79 81.1048 57.84 80.5948C57.89 80.0448 58.39 79.6448 58.93 79.6948C59.79 79.7748 60.79 80.8248 60.87 81.7348C60.92 82.2848 60.51 82.7748 59.96 82.8148L59.97 82.8248Z" fill="black"/>
<path d="M33.2799 81.3446C31.3499 82.9646 29.0699 83.8646 27.0099 84.0346C25.9699 82.6346 25.0499 78.5146 26.3799 76.4346" stroke="black" stroke-width="2" stroke-linecap="round" stroke-linejoin="round"/>
<path d="M30.77 76.1248L33.35 81.1148L27.31 84.0348C26.1 80.9148 25.89 79.1248 26.61 75.6748L30.77 76.1248Z" fill="black"/>
<path d="M20.04 69.6147C17.65 69.6147 16.22 71.0447 16.22 73.4347C16.22 75.5547 18.31 77.2547 20.04 77.2547C22.15 77.2547 23.86 75.5447 23.86 73.4347C23.86 71.1147 22.36 69.6147 20.04 69.6147ZM21.7 74.0747C21.7 74.0747 21.64 74.0747 21.61 74.0747C21.1 74.0747 20.66 73.6847 20.61 73.1647C20.59 73.1447 20.44 72.9847 20.35 72.9147C19.86 72.8047 19.52 72.3447 19.57 71.8347C19.63 71.2847 20.11 70.8947 20.66 70.9347C21.52 71.0247 22.52 72.0747 22.6 72.9747C22.65 73.5247 22.24 74.0147 21.69 74.0547L21.7 74.0747Z" fill="black"/>
<path d="M60.19 71.2946C61.37 73.1946 61.98 75.2846 62.3 76.1746L58.26 75.0046L55.26 77.5046L50.51 68.7446" stroke="black" stroke-width="2" stroke-linecap="round" stroke-linejoin="round"/>
<path d="M40.3399 70.7449C38.8599 73.1049 38.0199 75.2749 37.6899 76.1649L41.7299 74.9949L43.8599 77.7549L49.4699 68.7349" stroke="black" stroke-width="2" stroke-linecap="round" stroke-linejoin="round"/>
<path d="M26.89 62.6547C28.0056 62.6547 28.91 61.7504 28.91 60.6347C28.91 59.5191 28.0056 58.6147 26.89 58.6147C25.7744 58.6147 24.87 59.5191 24.87 60.6347C24.87 61.7504 25.7744 62.6547 26.89 62.6547Z" stroke="black" stroke-width="2" stroke-linecap="round" stroke-linejoin="round"/>
<path d="M23.8099 65.6748C24.9255 65.6748 25.8299 64.7704 25.8299 63.6548C25.8299 62.5392 24.9255 61.6348 23.8099 61.6348C22.6943 61.6348 21.7899 62.5392 21.7899 63.6548C21.7899 64.7704 22.6943 65.6748 23.8099 65.6748Z" stroke="black" stroke-width="2" stroke-linecap="round" stroke-linejoin="round"/>
<path d="M28.28 66.4648C29.3956 66.4648 30.3 65.5604 30.3 64.4448C30.3 63.3292 29.3956 62.4248 28.28 62.4248C27.1644 62.4248 26.26 63.3292 26.26 64.4448C26.26 65.5604 27.1644 66.4648 28.28 66.4648Z" stroke="black" stroke-width="2" stroke-linecap="round" stroke-linejoin="round"/>
<path d="M66.3199 68.395C69.3999 67.605 75.9699 64.255 78.9099 60.375" stroke="black" stroke-width="2" stroke-linecap="round" stroke-linejoin="round"/>
<path d="M80.56 64.0148C78.26 64.5848 76.27 64.0948 75.57 63.7748C75.18 61.9548 75.93 59.9548 76.36 59.1748" stroke="black" stroke-width="2" stroke-linecap="round" stroke-linejoin="round"/>
<path d="M77.07 66.5547C74.73 66.9047 72.8 66.2247 72.13 65.8447C71.91 63.9947 72.85 62.0747 73.35 61.3447" stroke="black" stroke-width="2" stroke-linecap="round" stroke-linejoin="round"/>
<path d="M73.0899 69.1846C70.7199 69.2046 68.8999 68.2746 68.2899 67.8046C68.3299 65.9446 69.5199 64.1646 70.1099 63.5146" stroke="black" stroke-width="2" stroke-linecap="round" stroke-linejoin="round"/>
<path d="M46.5399 61.0448C46.5399 60.4248 47.1199 59.7448 47.8699 59.6548C47.9799 59.6448 48.0899 59.6548 48.1999 59.6748C49.5599 59.9048 50.3999 60.0148 51.7799 59.7048C51.9399 59.6648 52.1099 59.6448 52.2699 59.6648C52.9399 59.7648 53.3399 60.2548 53.3399 60.8548L53.4699 67.0448C53.4699 67.6748 53.0599 68.6048 52.3299 68.7248C52.2299 68.7448 52.1299 68.7248 52.0199 68.7148C50.5899 68.4948 49.4799 68.4048 48.0499 68.6148C47.9499 68.6248 47.8499 68.6448 47.7399 68.6348C47.0099 68.5648 46.6299 68.0148 46.6299 67.3848L46.5499 61.0548L46.5399 61.0448Z" stroke="black" stroke-width="2" stroke-linecap="round" stroke-linejoin="round"/>
<path d="M53.51 61.1647C53.77 60.7547 55.01 59.9047 57.22 58.4547C59.98 56.6447 64.78 57.8047 64.1 60.2247C63.22 63.3647 64.1 66.0147 63.54 67.9647C63.23 69.0447 60.71 72.1647 57.95 70.4747C55.74 69.1247 54.07 67.6947 53.51 67.1447" stroke="black" stroke-width="2" stroke-linecap="round" stroke-linejoin="round"/>
<path d="M53.73 65.5448C55.18 64.4948 58.63 64.1648 59.74 62.9048" stroke="black" stroke-width="2" stroke-linecap="round" stroke-linejoin="round"/>
<path d="M53.64 64.3548C55.09 63.3048 58.63 64.1648 59.74 62.9048" stroke="black" stroke-width="2" stroke-linecap="round" stroke-linejoin="round"/>
<path d="M46.31 61.1646C45.45 60.6546 43.89 59.1146 42.51 58.2046C40.3 56.7546 36.73 57.9046 36.52 60.1446C36.17 63.7546 37.19 64.5646 36.52 67.9746C36.15 69.8446 39.86 71.4746 42.06 70.1246C44.27 68.7746 45.38 68.1545 46.31 67.0745" stroke="black" stroke-width="2" stroke-linecap="round" stroke-linejoin="round"/>
<path d="M46.31 64.7246C44.11 64.3946 41.84 63.1846 40.11 62.9946" stroke="black" stroke-width="2" stroke-linecap="round" stroke-linejoin="round"/>
<path d="M46.42 64.0046C44.22 63.6746 41.83 63.1946 40.1 62.9946" stroke="black" stroke-width="2" stroke-linecap="round" stroke-linejoin="round"/>
<path d="M24.88 61.9646C23.8 60.7246 23.23 57.6946 23.73 56.6646" stroke="black" stroke-width="2" stroke-linecap="round" stroke-linejoin="round"/>
<path d="M69.5699 54.625C70.6855 54.625 71.5899 53.7206 71.5899 52.605C71.5899 51.4893 70.6855 50.585 69.5699 50.585C68.4543 50.585 67.5499 51.4893 67.5499 52.605C67.5499 53.7206 68.4543 54.625 69.5699 54.625Z" stroke="black" stroke-width="2" stroke-linecap="round" stroke-linejoin="round"/>
<path d="M73.86 54.185C74.9756 54.185 75.88 53.2806 75.88 52.165C75.88 51.0494 74.9756 50.145 73.86 50.145C72.7444 50.145 71.84 51.0494 71.84 52.165C71.84 53.2806 72.7444 54.185 73.86 54.185Z" stroke="black" stroke-width="2" stroke-linecap="round" stroke-linejoin="round"/>
<path d="M71.62 58.125C72.7356 58.125 73.64 57.2206 73.64 56.105C73.64 54.9893 72.7356 54.085 71.62 54.085C70.5044 54.085 69.6 54.9893 69.6 56.105C69.6 57.2206 70.5044 58.125 71.62 58.125Z" stroke="black" stroke-width="2" stroke-linecap="round" stroke-linejoin="round"/>
<path d="M39.35 44.2446C39.07 43.7546 38.93 43.0946 38.52 42.4346" stroke="black" stroke-width="2" stroke-linecap="round" stroke-linejoin="round"/>
<path d="M29.51 54.5148C29.16 51.3548 29.98 44.0248 32.57 39.9048" stroke="black" stroke-width="2" stroke-linecap="round" stroke-linejoin="round"/>
<path d="M37.4399 54.355C37.0599 54.765 35.5899 56.335 34.5399 56.175" stroke="black" stroke-width="2" stroke-linecap="round" stroke-linejoin="round"/>
<path d="M62.6599 52.6046C63.6399 51.8746 64.6299 51.4146 65.2199 51.4146" stroke="black" stroke-width="2" stroke-linecap="round" stroke-linejoin="round"/>
<path d="M28.5699 39.645C28.8499 41.995 30.0099 43.685 30.5599 44.225C32.3999 43.945 34.0099 42.535 34.5799 41.865" stroke="black" stroke-width="2" stroke-linecap="round" stroke-linejoin="round"/>
<path d="M27.4199 43.8047C27.9199 46.1247 29.2399 47.6847 29.8299 48.1847C31.6299 47.7347 33.0999 46.1747 33.6099 45.4547" stroke="black" stroke-width="2" stroke-linecap="round" stroke-linejoin="round"/>
<path d="M26.38 48.4546C27.2 50.6846 28.71 52.0546 29.37 52.4646C31.09 51.7746 32.34 50.0246 32.74 49.2446" stroke="black" stroke-width="2" stroke-linecap="round" stroke-linejoin="round"/>
<path d="M72.66 37.1147C69.59 37.1147 67.83 38.8747 67.83 41.9447C67.83 44.6247 70.47 46.7747 72.66 46.7747C75.33 46.7747 77.49 44.6047 77.49 41.9447C77.49 38.9647 75.64 37.1147 72.66 37.1147ZM74.89 41.9047C74.81 41.9247 74.74 41.9347 74.66 41.9347C74.24 41.9347 73.86 41.6747 73.72 41.2747C73.64 41.1547 73.42 40.9147 73.3 40.8147C72.89 40.6347 72.64 40.2047 72.72 39.7447C72.81 39.1947 73.32 38.8247 73.87 38.9147C74.56 39.0247 75.51 40.1447 75.64 40.7147C75.77 41.2547 75.43 41.7947 74.9 41.9147L74.89 41.9047Z" fill="black"/>
<path d="M58.04 37.1147C55.65 37.1147 54.22 38.5447 54.22 40.9347C54.22 43.0547 56.31 44.7547 58.04 44.7547C60.15 44.7547 61.86 43.0447 61.86 40.9347C61.86 38.6147 60.36 37.1147 58.04 37.1147ZM59.35 41.6847C59.35 41.6847 59.29 41.6847 59.26 41.6847C58.75 41.6847 58.31 41.2947 58.26 40.7747C58.24 40.7547 58.09 40.5947 58 40.5247C57.51 40.4147 57.17 39.9647 57.22 39.4547C57.27 38.9047 57.76 38.4947 58.31 38.5547C59.17 38.6347 60.17 39.6847 60.25 40.5947C60.3 41.1447 59.89 41.6347 59.34 41.6747L59.35 41.6847Z" fill="black"/>
<path d="M44.4199 36.2549C45.1199 37.3149 45.8799 37.4149 46.5299 37.7249" stroke="black" stroke-width="2" stroke-linecap="round" stroke-linejoin="round"/>
<path d="M40.0699 33.3149C41.1855 33.3149 42.0899 32.4105 42.0899 31.2949C42.0899 30.1793 41.1855 29.2749 40.0699 29.2749C38.9543 29.2749 38.0499 30.1793 38.0499 31.2949C38.0499 32.4105 38.9543 33.3149 40.0699 33.3149Z" stroke="black" stroke-width="2" stroke-linecap="round" stroke-linejoin="round"/>
<path d="M36.02 31.8247C37.1356 31.8247 38.04 30.9203 38.04 29.8047C38.04 28.6891 37.1356 27.7847 36.02 27.7847C34.9044 27.7847 34 28.6891 34 29.8047C34 30.9203 34.9044 31.8247 36.02 31.8247Z" stroke="black" stroke-width="2" stroke-linecap="round" stroke-linejoin="round"/>
<path d="M36.3299 35.875C37.4456 35.875 38.3499 34.9706 38.3499 33.855C38.3499 32.7393 37.4456 31.835 36.3299 31.835C35.2143 31.835 34.3099 32.7393 34.3099 33.855C34.3099 34.9706 35.2143 35.875 36.3299 35.875Z" stroke="black" stroke-width="2" stroke-linecap="round" stroke-linejoin="round"/>
<path d="M21.6399 30.5146C18.5699 30.5146 16.8099 32.2746 16.8099 35.3446C16.8099 38.0246 19.4499 40.1746 21.6399 40.1746C24.3099 40.1746 26.4699 38.0046 26.4699 35.3446C26.4699 32.3646 24.6199 30.5146 21.6399 30.5146ZM23.9899 35.4146C23.9899 35.4146 23.9299 35.4146 23.8999 35.4146C23.3899 35.4146 22.9499 35.0246 22.8999 34.5046C22.8799 34.4846 22.7399 34.3246 22.6399 34.2546C22.1499 34.1446 21.8099 33.6946 21.8599 33.1846C21.9099 32.6346 22.3999 32.2246 22.9499 32.2846C23.8099 32.3646 24.8099 33.4146 24.8899 34.3246C24.9399 34.8746 24.5299 35.3646 23.9799 35.4046L23.9899 35.4146Z" fill="black"/>
<path d="M75.21 29.6048C77.67 29.0148 79.35 28.8048 81.27 29.6048C81.56 31.3848 80.73 34.2148 79.66 35.1548" stroke="black" stroke-width="2" stroke-linecap="round" stroke-linejoin="round"/>
<path d="M75.74 33.0847V30.1147L81.04 29.5947L79.64 34.6047L75.74 33.0947V33.0847Z" fill="black"/>
<path d="M56.2999 31.0346C57.8899 27.0246 64.5099 25.9546 67.5099 29.5846C65.6299 34.1946 58.5699 34.3546 56.2999 31.0346Z" fill="black"/>
<path d="M38.4099 30.1948C38.8899 28.6248 38.1499 25.6148 37.2799 24.8848" stroke="black" stroke-width="2" stroke-linecap="round" stroke-linejoin="round"/>
<path d="M48.54 20.5146C46.15 20.5146 44.72 21.9446 44.72 24.3346C44.72 26.4546 46.81 28.1546 48.54 28.1546C50.65 28.1546 52.36 26.4446 52.36 24.3346C52.36 22.0146 50.86 20.5146 48.54 20.5146ZM50.09 25.1046C50.09 25.1046 50.03 25.1046 50 25.1046C49.49 25.1046 49.05 24.7146 49 24.1946C48.98 24.1746 48.83 24.0146 48.74 23.9446C48.25 23.8346 47.91 23.3846 47.96 22.8746C48.01 22.3246 48.5 21.9246 49.05 21.9746C49.91 22.0546 50.91 23.1046 50.99 24.0146C51.04 24.5646 50.63 25.0546 50.08 25.0946L50.09 25.1046Z" fill="black"/>
<path d="M60.07 14.875C57 14.875 55.24 16.635 55.24 19.705C55.24 22.385 57.88 24.535 60.07 24.535C62.74 24.535 64.9 22.365 64.9 19.705C64.9 16.725 63.05 14.875 60.07 14.875ZM61.99 19.595C61.99 19.595 61.93 19.595 61.9 19.595C61.39 19.595 60.95 19.205 60.9 18.685C60.88 18.665 60.73 18.505 60.64 18.435C60.15 18.325 59.81 17.875 59.86 17.365C59.91 16.815 60.4 16.405 60.95 16.465C61.81 16.545 62.81 17.595 62.89 18.505C62.94 19.055 62.53 19.545 61.98 19.585L61.99 19.595Z" fill="black"/>
<path d="M35.99 19.7848C36.4 17.2948 36.8 14.6148 38.29 13.1548C40.04 13.5848 42.97 16.4248 42.68 18.2748" stroke="black" stroke-width="2" stroke-linecap="round" stroke-linejoin="round"/>
<path d="M40.2099 20.2746L36.7999 19.3846L37.7099 13.4946L42.6899 16.9046L40.2199 20.2846L40.2099 20.2746Z" fill="black"/>
</svg>
