<svg width="100" height="100" viewBox="0 0 100 100" fill="none" xmlns="http://www.w3.org/2000/svg">
<path d="M57.2024 48.3691C59.2072 50.2071 60.6134 57.1409 61.0659 60.3779L57.2024 58.2893L54.6963 62.8837C54.6963 59.4379 52.6079 50.249 51.6681 49.7269" stroke="black" stroke-width="2" stroke-linecap="round" stroke-linejoin="round"/>
<path d="M62.11 43.0439C64.094 44.297 65.347 49.5175 64.5117 51.1885C62.5904 52.4417 60.857 53.3119 60.2305 53.5904" stroke="black" stroke-width="2" stroke-linecap="round" stroke-linejoin="round"/>
<path d="M53.343 55.1624C49.3999 56.1456 38.5741 53.3022 36.4964 50.0218C35.731 45.8665 37.3712 43.6795 38.7928 42.8047" stroke="black" stroke-width="2" stroke-linecap="round" stroke-linejoin="round"/>
<path d="M68.6725 55.8659C71.2569 53.1883 76.6188 47.7832 77.391 47.5837M77.391 47.5837C77.2665 45.6945 77.0548 41.7107 77.2042 40.8887M77.391 47.5837C79.334 47.8078 80.6709 46.992 81.0964 46.5561" stroke="black" stroke-width="2" stroke-linecap="round" stroke-linejoin="round"/>
<path d="M33.0452 55.8662C30.3883 53.494 28.1031 51.8734 27.2926 51.3594C27.2926 48.8446 25.9088 44.3808 25.2169 42.4633M25.2169 42.4633C26.8182 41.574 27.4112 36.711 27.7077 36.2959M25.2169 42.4633C23.1412 41.5144 19.4372 41.5498 18.9035 41.1347" stroke="black" stroke-width="2" stroke-linecap="round" stroke-linejoin="round"/>
<path d="M64.4905 50.8964C69.63 54.6144 79.7997 81.9515 48.6345 81.0771C21.0811 80.304 33.872 51.5525 36.4964 50.3496" stroke="black" stroke-width="2" stroke-linecap="round" stroke-linejoin="round"/>
<path d="M74.3624 77.9552C75.9318 79.6429 61.4029 83.3888 46.1531 81.7459C57.3315 80.8531 65.3436 79.8103 67.5629 75.5195C69.1904 75.8154 72.4464 75.8948 74.3624 77.9552Z" fill="black"/>
<path d="M51.3937 69.6874C51.9666 70.04 52.2412 70.6344 51.7927 71.363C51.4401 71.9358 50.6899 72.1142 50.117 71.7616C49.6806 71.493 49.3654 70.6587 49.7179 70.0859C50.1955 69.3101 50.8208 69.3347 51.3937 69.6874Z" fill="black"/>
<path d="M50.9948 64.6864C51.5677 65.039 51.8422 65.6334 51.3938 66.362C51.0412 66.9348 50.291 67.1132 49.718 66.7606C49.2817 66.492 48.9665 65.6577 49.319 65.085C49.7966 64.3091 50.4218 64.3337 50.9948 64.6864Z" fill="black"/>
<path d="M51.4052 59.4852C51.9781 59.8379 52.2526 60.4322 51.8042 61.1608C51.4516 61.7336 50.7014 61.9121 50.1284 61.5594C49.6921 61.2908 49.3769 60.4566 49.7294 59.8838C50.207 59.1079 50.8322 59.1326 51.4052 59.4852Z" fill="black"/>
<path d="M59.4918 54.8633C59.0892 55.6112 55.0624 56.2121 53.8547 56.0969L54.8924 60.9206C55.6496 59.8829 58.0054 58.4814 60.6135 59.2386L59.4918 54.8633Z" fill="black"/>
<path d="M41.4847 32.6621C36.1714 39.2842 37.5251 49.5565 49.4348 49.715C61.3445 49.8734 65.4737 40.9099 60.3983 32.6621" stroke="black" stroke-width="2" stroke-linecap="round" stroke-linejoin="round"/>
<path d="M49.0113 49.7168C48.7501 51.2793 49.0113 53.7009 49.3473 55.0277H52.7639C52.3407 54.2285 51.4566 51.5843 52.1337 49.9193C51.64 49.8083 49.7899 50.5694 49.0113 49.7168Z" fill="black"/>
<path d="M57.3622 47.8467C56.9596 48.5946 53.1881 49.6533 51.9805 49.5382L52.3662 52.9659C54.1738 53.1987 57.1629 52.4301 58.5578 51.5761L57.3622 47.8467Z" fill="black"/>
<path d="M40.5567 47.1191C40.0461 48.1625 39.2114 50.6225 39.9573 52.1143L44.6193 53.5795C43.9533 52.7803 44.0199 50.2495 45.0854 48.5845C44.3085 48.4735 41.7821 47.9718 40.5567 47.1191Z" fill="black"/>
<path d="M62.7748 43.6875C63.7994 44.7662 64.9711 49.1549 64.6352 50.4817L62.2086 52.0456C62.7748 50.4817 61.8765 47.1207 60.3942 46.0735C60.8879 45.9625 61.9961 44.5401 62.7748 43.6875Z" fill="black"/>
<path d="M41.4986 40.7998L47.7318 39.0684C48.0078 38.9727 48.3134 38.91 48.651 38.9991C50.2186 39.4096 50.494 41.3747 49.2194 42.3543C48.9202 42.5842 48.5911 42.5264 48.3095 42.5475L41.6005 42.1574C40.8279 42.0204 40.649 41.0128 41.4986 40.7998Z" fill="black"/>
<path d="M53.482 36.3178C54.153 36.2693 54.7231 36.5913 54.7848 37.4447C54.8333 38.1155 54.3286 38.6986 53.6576 38.7471C53.1465 38.7841 52.4033 38.2911 52.3548 37.6203C52.2892 36.7116 52.811 36.3663 53.482 36.3178Z" fill="black"/>
<path d="M45.7238 36.1219C46.2967 36.4746 46.5713 37.0689 46.1228 37.7976C45.7702 38.3703 45.02 38.5488 44.447 38.1961C44.0107 37.9275 43.6955 37.0933 44.048 36.5205C44.5256 35.7447 45.1508 35.7693 45.7238 36.1219Z" fill="black"/>
<path d="M41.6267 32.6455C43.0849 33.4197 56.8043 34.5202 60.0183 33.3301" stroke="black" stroke-width="2" stroke-linecap="round" stroke-linejoin="round"/>
<path d="M35.4661 30.7207C41.6341 32.7124 58.6252 33.8548 65.5438 31.0745" stroke="black" stroke-width="2" stroke-linecap="round" stroke-linejoin="round"/>
<path d="M40.6096 31.8102L41.6202 22.1197C49.1875 23.2717 53.4302 23.3559 60.9972 22.0232L61.605 31.6632" stroke="black" stroke-width="2" stroke-linecap="round" stroke-linejoin="round"/>
</svg>
