<svg width="100" height="100" viewBox="0 0 100 100" fill="none" xmlns="http://www.w3.org/2000/svg">
<ellipse cx="50.466" cy="81.099" rx="22.2172" ry="2.60485" fill="black"/>
<path d="M46.6938 49.8922C47.7373 46.834 48.7114 44.9535 49.6854 45.1184C49.6854 47.0357 49.9985 52.2592 49.5514 53.3511C48.2499 53.8264 46.712 53.9293 46.4337 52.2762" stroke="black" stroke-width="2" stroke-linecap="round" stroke-linejoin="round"/>
<path d="M53.9112 49.4153C52.8677 46.3571 51.9941 44.9525 51.0201 45.1175C51.0201 47.0348 50.707 52.2582 51.1541 53.3501C52.4556 53.8255 53.9147 53.8859 54.193 52.2328" stroke="black" stroke-width="2" stroke-linecap="round" stroke-linejoin="round"/>
<path d="M48.6982 36.3828C49.1206 37.3248 51.0388 37.4128 51.6691 36.5001" stroke="black" stroke-width="2" stroke-linecap="round" stroke-linejoin="round"/>
<path d="M39.8809 34.9923C36.1115 33.1739 27.9514 34.5368 26.8427 48.1508C26.8427 51.3983 29.8773 51.6399 30.7635 48.3906C30.7635 49.8985 33.7953 50.0987 34.4359 48.1508C35.0764 49.6289 37.413 48.8828 38.0712 47.1166" stroke="black" stroke-width="2" stroke-linecap="round" stroke-linejoin="round"/>
<path d="M60.9182 34.7146C64.6875 32.8962 72.0488 34.5367 73.1574 48.1508C73.1574 51.3982 70.1228 51.6398 69.2366 48.3905C69.2366 49.8984 66.2048 50.0986 65.5643 48.1508C64.9238 49.6289 62.5871 48.8827 61.929 47.1165" stroke="black" stroke-width="2" stroke-linecap="round" stroke-linejoin="round"/>
<path d="M59.1227 46.4515C58.9017 45.9211 57.9954 45.8634 56.985 45.9751M56.985 45.9751C56.1059 46.0722 55.1479 46.2976 54.4942 46.4515C53.0891 46.7821 54.5768 53.1463 54.4942 55.13C54.4115 57.1137 54.8248 57.9402 57.7176 56.6179C66.8094 50.8323 61.2005 42.768 54.1256 40.3125C54.1256 42.2301 56.4853 45.2247 56.985 45.9751Z" stroke="black" stroke-width="2" stroke-linecap="round" stroke-linejoin="round"/>
<path d="M52.1259 31.9326C52.5483 32.8746 54.4664 32.9626 55.0967 32.0499" stroke="black" stroke-width="2" stroke-linecap="round" stroke-linejoin="round"/>
<path d="M45.0604 31.9326C45.4828 32.8746 47.4009 32.9626 48.0312 32.0499" stroke="black" stroke-width="2" stroke-linecap="round" stroke-linejoin="round"/>
<path d="M61.5114 38.6313C60.5804 37.0144 60.2487 33.6608 60.5701 30.7148C59.7612 34.7386 56.1527 39.1592 54.5168 39.6606C58.6951 40.732 62.5873 40.5 61.5114 38.6313Z" fill="black" stroke="black" stroke-linecap="round" stroke-linejoin="round"/>
<path d="M39.3142 38.6871C40.056 36.9752 40.9946 33.4225 40.6732 30.4766C41.1712 35.0413 41.5029 37.8636 46.3418 39.6601C42.1634 40.7315 38.578 40.3859 39.3142 38.6871Z" fill="black" stroke="black" stroke-linecap="round" stroke-linejoin="round"/>
<path d="M41.5031 46.4516C41.7241 45.9213 42.6304 45.8636 43.6408 45.9753M43.6408 45.9753C44.52 46.0724 45.4779 46.2978 46.1317 46.4516C47.5368 46.7823 46.049 53.1465 46.1317 55.1302C46.2143 57.1139 45.8011 57.9404 42.9082 56.6181C33.8164 50.8324 37.8118 43.5176 46.1317 40.2295C46.1317 42.1471 44.1405 45.2249 43.6408 45.9753Z" stroke="black" stroke-width="2" stroke-linecap="round" stroke-linejoin="round"/>
<path d="M40.3671 54.876C38.2801 60.3888 35.4032 65.6648 34.5671 67.1087C33.731 68.5526 35.0992 70.6048 37.3794 70.3007C38.8755 70.1013 49.0841 68.7871 56.5009 68.8536C60.3877 68.8884 63.4784 70.3007 64.2102 70.3007C66.3384 70.3007 67.3261 67.7925 66.034 66.2724C64.7419 64.7522 61.4735 57.4355 60.5678 54.876" stroke="black" stroke-width="2" stroke-linecap="round" stroke-linejoin="round"/>
<path d="M37.3794 70.3004C38.2547 70.2062 39.7787 70.5868 40.5167 70.4436M64.2102 70.3004C63.7401 70.3004 61.6771 70.6475 60.0964 70.3001M52.5795 70.0986C50.9986 70.4117 49.2144 70.3002 48.1098 70.3001" stroke="black" stroke-width="2" stroke-linecap="round" stroke-linejoin="round"/>
<path d="M59.4974 69.291C60.8655 71.8754 60.7135 74.0795 58.9653 74.3076C57.2172 74.5357 52.6568 72.8632 52.5047 69.291" stroke="black" stroke-width="2" stroke-linecap="round" stroke-linejoin="round"/>
<path d="M41.0541 70.0368C39.686 72.6212 39.9602 74.0795 41.7084 74.3076C43.4565 74.5357 48.0169 72.8632 48.1689 69.291" stroke="black" stroke-width="2" stroke-linecap="round" stroke-linejoin="round"/>
<path d="M60.5112 56.3457C59.3354 56.886 56.0684 57.2923 55.3147 57.2576" stroke="black" stroke-width="2" stroke-linecap="round" stroke-linejoin="round"/>
<path d="M40.0575 56.3071C41.2333 56.8947 44.4272 57.2925 45.1809 57.2548" stroke="black" stroke-width="2" stroke-linecap="round" stroke-linejoin="round"/>
<path d="M55.1162 57.2005C53.914 56.4493 53.2186 54.8175 53.2401 54.1089" stroke="black" stroke-width="2" stroke-linecap="round" stroke-linejoin="round"/>
<path d="M45.514 57.201C46.7162 56.4498 47.5018 54.3807 47.4803 53.6722" stroke="black" stroke-width="2" stroke-linecap="round" stroke-linejoin="round"/>
<path d="M69.2577 48.3989C69.2577 46.8538 68.7669 44.8468 67.7421 43.3096" stroke="black" stroke-width="2" stroke-linecap="round" stroke-linejoin="round"/>
<path d="M65.5 48.3989C65.5 46.8538 65.0092 44.8468 63.9844 43.3096" stroke="black" stroke-width="2" stroke-linecap="round" stroke-linejoin="round"/>
<path d="M34.5 48.3989C34.5 46.8538 34.9908 44.8468 36.0156 43.3096" stroke="black" stroke-width="2" stroke-linecap="round" stroke-linejoin="round"/>
<path d="M30.7422 48.3989C30.7422 46.8538 31.233 44.8468 32.2578 43.3096" stroke="black" stroke-width="2" stroke-linecap="round" stroke-linejoin="round"/>
<path d="M59.9981 20.39C57.4555 16.1187 49.63 14.993 47.1833 17.9489C45.9293 19.4641 44.6407 23.5424 49.2174 27.3055C53.7941 31.0685 59.9981 28.9328 61.3202 31.1703C61.8288 28.9328 62.5407 24.6614 59.9981 20.39Z" fill="black" stroke="black" stroke-linecap="round" stroke-linejoin="round"/>
<path d="M59.2862 30.3564C58.9811 36.255 54.0996 40.7451 50.5396 40.8318C46.9796 40.9185 41.4879 37.4761 41.0811 30.3564" stroke="black" stroke-width="2" stroke-linecap="round" stroke-linejoin="round"/>
<path d="M39.6616 30.1743C36.5194 21.8642 42.0666 16.796 47.3161 17.3452C48.8538 19.6036 48.2538 24.0751 47.7615 26.0286C47.7615 27.3507 44.34 30.1743 39.6616 30.1743Z" fill="black" stroke="black" stroke-linecap="round" stroke-linejoin="round"/>
</svg>
