<svg width="100" height="100" viewBox="0 0 100 100" fill="none" xmlns="http://www.w3.org/2000/svg">
<path d="M24.3529 52.2635C26.1927 52.5389 33.5866 55.925 37.0846 58.4792M45.9333 66.9561C45.1056 65.3032 42.7318 62.8127 41.2258 61.8805" stroke="black" stroke-width="2" stroke-linecap="round" stroke-linejoin="round"/>
<path d="M39.1474 73.6444C43.2103 75.8095 46.3236 76.9898 46.872 76.2102C48.1609 74.378 46.7776 70.6675 45.9546 69.4045C45.1317 68.1415 47.1214 67.2592 46.1486 64.7494C45.9348 64.1977 46.9108 62.7411 47.6814 61.0613C48.6428 58.9655 49.5638 56.4059 50.6873 53.4772M33.1474 70.1587C24.0945 64.5197 14.2162 56.7823 15.8834 54.4121C16.9031 52.9624 19.5873 53.7853 21.7294 53.0108C23.8715 52.2364 24.3114 51.3198 26.307 51.2403C27.3193 51.1999 30.0165 46.6988 34.4873 42.731" stroke="black" stroke-width="2" stroke-linecap="round" stroke-linejoin="round"/>
<path d="M15.9606 54.4641C20.2002 52.6541 46.4585 69.9853 46.7969 76.1542" stroke="black" stroke-width="2" stroke-linecap="round" stroke-linejoin="round"/>
<path d="M39.06 67.0177C40.8414 68.0876 41.7095 69.9142 40.3488 72.1796C39.2792 73.9606 36.9679 74.537 35.1865 73.4671C33.8296 72.6521 32.8281 70.086 33.8977 68.3051C35.3466 65.8927 37.2786 65.9477 39.06 67.0177Z" stroke="black" stroke-width="2"/>
<path d="M76.0421 51.0327C75.3191 51.0303 74.2966 51.2909 73.0813 51.7415M53.3943 64.0198C54.5419 62.3579 61.0376 57.8827 66.955 54.6499" stroke="black" stroke-width="2" stroke-linecap="round" stroke-linejoin="round"/>
<path d="M59.6442 71.21C55.4267 73.0558 52.2316 73.9928 51.7449 73.1733C50.601 71.2472 52.2659 68.0833 53.1837 66.8874C54.1015 65.6916 52.0205 64.2826 53.1837 61.8551C53.8007 60.5677 51.3753 55.3298 49.8762 49.4503C48.8678 45.4956 47.9608 41.0226 49.8762 38.1244M65.8948 68.1967C75.3551 63.2716 85.8 56.3179 84.3202 53.8264C83.4152 52.3025 80.5161 52.7947 78.4401 51.8576C76.364 50.9205 76.2635 49.608 74.28 49.375C73.0738 49.2334 70.0831 42.5944 64.6867 38.1243" stroke="black" stroke-width="2" stroke-linecap="round" stroke-linejoin="round"/>
<path d="M84.2398 53.8737C80.1522 51.7426 52.6371 67.0001 51.8246 73.1247" stroke="black" stroke-width="2" stroke-linecap="round" stroke-linejoin="round"/>
<path d="M60.2421 64.6074C58.3836 65.537 57.3775 67.2912 58.5597 69.6548C59.489 71.5128 61.749 72.2655 63.6075 71.336C65.0231 70.6279 66.2193 68.1466 65.29 66.2886C64.0312 63.7717 62.1007 63.6778 60.2421 64.6074Z" stroke="black" stroke-width="2"/>
<path d="M46.1767 76.1461C46.2421 75.7158 45.4949 73.927 41.9831 70.2132C41.6198 70.8685 40.6781 72.5352 39.818 73.96C38.9578 75.3847 43.6987 76.011 46.1767 76.1461Z" fill="black"/>
<path d="M16.8872 54.8674C19.072 54.3882 30.5772 61.0911 36.0946 65.6371C35.1886 66.4668 33.3425 68.5527 33.2066 70.2591C27.7457 68.5174 14.7025 55.3466 16.8872 54.8674Z" fill="black"/>
<path d="M52.5772 72.9521C52.5462 72.5179 53.4331 70.7942 57.2288 67.3709C57.5389 68.053 58.3452 69.7893 59.0895 71.2779C59.8338 72.7664 55.0581 73.0142 52.5772 72.9521Z" fill="black"/>
<path d="M83.4641 54.0668C81.3244 53.4155 69.3231 59.1836 63.4621 63.277C64.2993 64.176 65.9739 66.4019 65.9739 68.1137C71.5559 66.8113 85.6039 54.718 83.4641 54.0668Z" fill="black"/>
<path d="M36.1657 42.618C34.6538 46.324 33.9949 49.615 33.7508 50.9554L39.187 48.3016L42.894 51.6866L48.6284 37.5103" stroke="black" stroke-width="2" stroke-linecap="round" stroke-linejoin="round"/>
<path d="M62.2746 38.3105C63.0751 40.9559 65.4815 44.2332 66.1643 45.4122L60.2609 44.7679L57.703 49.0943L50.1004 37.2578" stroke="black" stroke-width="2" stroke-linecap="round" stroke-linejoin="round"/>
<path d="M42.2609 27.5678C40.9178 27.0508 38.1987 26.2032 36.0046 25.2516C32.5158 23.7383 27.7406 26.2546 27.9882 29.4756C28.3879 34.676 30.1548 34.6371 30.0516 39.6282C29.9948 42.3749 35.6459 43.7726 38.442 41.307C41.2381 38.8413 42.6631 37.701 43.7164 35.9275" stroke="black" stroke-width="2" stroke-linecap="round" stroke-linejoin="round"/>
<path d="M52.4818 25.7859C52.75 25.1357 54.1125 24.6581 56.8847 22.0552C60.3499 18.8016 67.4431 19.2624 67.0827 22.8706C66.6166 27.5374 68.6988 30.0588 68.3858 32.955C68.2127 34.5567 65.4044 39.6137 61.0734 37.8943C57.6085 36.5187 54.8872 34.9077 53.9597 34.2741" stroke="black" stroke-width="2" stroke-linecap="round" stroke-linejoin="round"/>
<path d="M42.5665 27.3249C42.4093 26.422 43.0984 25.2915 44.1745 25.0099C44.2828 24.9815 44.3956 24.9739 44.5076 24.9733C46.5688 24.9628 47.8021 24.9258 49.7597 24.09C49.9112 24.0254 50.0694 23.9722 50.2337 23.9598C51.2727 23.8815 51.9997 24.5023 52.153 25.3824L53.8597 34.1226C54.0175 35.0289 53.6426 36.5037 52.5877 36.8098C52.4892 36.8383 52.3856 36.8454 52.2831 36.8475C50.1465 36.8924 48.5266 37.0357 46.4984 37.703C46.401 37.735 46.3011 37.7624 46.1992 37.7734C45.1155 37.8908 44.4039 37.1881 44.2462 36.282L42.5665 27.3249Z" stroke="black" stroke-width="2" stroke-linecap="round" stroke-linejoin="round"/>
<path d="M36.2375 43.0138C39.4486 43.0138 42.4197 38.1482 44.0562 38.235C45.6927 38.3218 47.8782 38.1873 48.9796 37.832C50.4907 37.3446 53.004 37.6632 54.7316 36.2237C55.9015 35.2489 60.1822 40.2153 62.0771 39.8277" stroke="black" stroke-width="2" stroke-linecap="round" stroke-linejoin="round"/>
<path d="M43.1427 32.608C39.3319 33.2193 36.3157 32.0705 33.7304 33.2187" stroke="black" stroke-width="2" stroke-linecap="round" stroke-linejoin="round"/>
<path d="M53.452 30.2714C55.2506 28.4234 61.2031 29.6932 62.463 27.6315" stroke="black" stroke-width="2" stroke-linecap="round" stroke-linejoin="round"/>
</svg>
