<svg width="100" height="100" viewBox="0 0 100 100" fill="none" xmlns="http://www.w3.org/2000/svg">
<path d="M39.3126 52.0693C37.976 55.745 32.3385 57.9331 27.2401 57.1139C31.4223 59.9273 36.51 59.6901 41.5007 58.5368C41.3822 59.7764 40.412 61.0483 38.1377 62.6112C41.684 63.064 47.1597 61.695 49.3586 59.7009C53.7457 64.1958 67.3273 62.4064 68.2974 62.1154C66.5728 61.8567 61.9593 60.4447 60.5796 59.0649C64.8158 58.9033 68.1681 57.9978 71.4126 55.2815C69.6448 55.2168 67.8231 54.5377 66.3895 53.4706" stroke="black" stroke-width="2" stroke-linecap="round" stroke-linejoin="round"/>
<path d="M28.07 63.8618C27.2939 64.3145 25.8172 64.7349 24.7285 64.875C26.5933 67.4512 32.2092 68.6908 36.1651 68.486C35.7535 69.3754 34.9249 70.0935 33.9075 70.3742M65.0745 62.4497C65.4733 63.5168 71.6713 65.9529 72.5767 65.899C71.585 68.6908 63.5223 69.6609 63.5223 69.6609C64.3954 70.9867 67.5105 71.8922 67.5105 71.8922C66.0661 73.6168 57.0549 72.9916 55.244 71.8922C56.0093 74.1989 59.9436 75.8265 59.9436 75.8265C59.9436 75.8265 49.9623 75.5462 47.6987 73.4767C46.0926 76.387 37.5771 75.9235 37.5771 75.9235C40.4875 75.0181 41.9965 72.9054 41.9965 72.9054C41.9965 72.9054 36.8543 73.4767 33.4515 72.9054" stroke="black" stroke-width="2" stroke-linecap="round" stroke-linejoin="round"/>
<path d="M52.4954 75.298C52.4954 75.298 52.5277 79.7389 52.5708 81.7762C52.6247 84.3523 45.6291 85.0638 45.4998 82.1965C45.3812 79.4802 45.4243 75.1255 45.4243 75.1255" stroke="black" stroke-width="2" stroke-linecap="round" stroke-linejoin="round"/>
<path d="M45.6938 75.967C47.3861 75.3526 49.7683 76.7107 52.5493 76.4412" stroke="black" stroke-width="2" stroke-linecap="round" stroke-linejoin="round"/>
<path d="M69.1381 74.6755C70.6502 74.6755 71.876 73.4497 71.876 71.9376C71.876 70.4255 70.6502 69.1997 69.1381 69.1997C67.6261 69.1997 66.4003 70.4255 66.4003 71.9376C66.4003 73.4497 67.6261 74.6755 69.1381 74.6755Z" stroke="black" stroke-width="2" stroke-linecap="round" stroke-linejoin="round"/>
<path d="M31.1707 73.7985C32.6828 73.7985 33.9086 72.5727 33.9086 71.0606C33.9086 69.5485 32.6828 68.3228 31.1707 68.3228C29.6587 68.3228 28.4329 69.5485 28.4329 71.0606C28.4329 72.5727 29.6587 73.7985 31.1707 73.7985Z" stroke="black" stroke-width="2" stroke-linecap="round" stroke-linejoin="round"/>
<path d="M53.8858 67.8717C55.3979 67.8717 56.6237 66.646 56.6237 65.1339C56.6237 63.6218 55.3979 62.396 53.8858 62.396C52.3737 62.396 51.1479 63.6218 51.1479 65.1339C51.1479 66.646 52.3737 67.8717 53.8858 67.8717Z" stroke="black" stroke-width="2" stroke-linecap="round" stroke-linejoin="round"/>
<path d="M51.9672 62.1047C51.1157 61.5442 49.8761 61.3394 48.906 61.4041C46.6424 61.5442 43.5488 63.3335 38.6551 62.579" stroke="black" stroke-width="2" stroke-linecap="round" stroke-linejoin="round"/>
<path d="M32.3385 61.9331C33.9661 60.9199 34.7961 59.3677 34.7961 59.3677" stroke="black" stroke-width="2" stroke-linecap="round" stroke-linejoin="round"/>
<path d="M34.4728 60.2614C36.3807 60.4124 38.3209 60.1429 40.121 59.4854" stroke="black" stroke-width="2" stroke-linecap="round" stroke-linejoin="round"/>
<path d="M32.123 61.4044C32.123 61.5553 32.1122 61.6954 32.0906 61.8355C31.8858 63.1398 30.7433 64.1423 29.3851 64.1423C28.8246 64.1423 28.3072 63.9806 27.876 63.6895C27.1323 63.1937 26.6472 62.3529 26.6472 61.4044C26.6472 59.8845 27.876 58.6665 29.3851 58.6665C30.8942 58.6665 32.123 59.8845 32.123 61.4044Z" stroke="black" stroke-width="2" stroke-linecap="round" stroke-linejoin="round"/>
<path d="M38.9246 52.9968C40.0132 53.1477 41.145 53.0184 42.1798 52.6411" stroke="black" stroke-width="2" stroke-linecap="round" stroke-linejoin="round"/>
<path d="M47.0951 23.4945L43.1607 20.9938L47.925 20.2177L49.1107 15.9492L50.9001 20.498L55.6644 20.2177L52.4954 23.1927L53.7457 27.9355L49.6712 25.5533L45.6075 28.0002L47.0951 23.4945Z" stroke="black" stroke-width="2" stroke-linecap="round" stroke-linejoin="round"/>
<path d="M62.3474 37.227C60.2671 39.469 55.2764 39.8679 53.0343 39.1564C51.4175 40.7733 47.7095 41.8943 44.12 41.9159C43.5703 41.9267 43.0314 41.9051 42.5032 41.8512C42.5032 41.7111 42.4816 41.5817 42.4601 41.4524C43.6997 40.8919 45.4674 39.1996 45.4674 38.542C43.0314 39.2427 39.5821 39.3397 37.8035 38.4881C44.3033 37.4534 47.9897 29.8218 49.3479 25.9629C51.8594 31.5464 57.1519 36.0521 62.3474 37.227Z" stroke="black" stroke-width="2" stroke-linecap="round" stroke-linejoin="round"/>
<path d="M44.2602 41.6787C44.217 41.7542 44.1739 41.8404 44.12 41.9158C42.2876 45.2574 37.5664 46.2275 33.0607 48.103C36.1543 49.6983 38.8814 49.86 41.4037 48.8791C40.0994 50.9163 35.6693 51.8218 33.2763 52.1559C38.1161 53.0614 46.4483 52.1236 48.8736 48.8683C51.1156 51.6062 56.9363 51.4769 60.6874 51.0888C58.9304 50.7654 57.3567 50.3451 56.5483 48.2863C57.6477 49.0839 59.976 49.8277 62.6169 49.9894" stroke="black" stroke-width="2" stroke-linecap="round" stroke-linejoin="round"/>
<path d="M45.1872 56.8019C46.6992 56.8019 47.925 55.5761 47.925 54.064C47.925 52.552 46.6992 51.3262 45.1872 51.3262C43.6751 51.3262 42.4493 52.552 42.4493 54.064C42.4493 55.5761 43.6751 56.8019 45.1872 56.8019Z" stroke="black" stroke-width="2" stroke-linecap="round" stroke-linejoin="round"/>
<path d="M47.095 51.7354C47.4831 51.0994 48.3023 50.8515 49.046 50.9162C49.7898 50.9809 50.4797 51.3043 51.1803 51.5629C54.0691 52.6409 57.3136 52.781 60.2886 51.9294" stroke="black" stroke-width="2" stroke-linecap="round" stroke-linejoin="round"/>
<path d="M54.8668 39.7388C55.3949 43.4575 63.2636 50.2483 67.3705 49.6016C66.4974 49.8172 65.6135 49.9465 64.7296 50.0004" stroke="black" stroke-width="2" stroke-linecap="round" stroke-linejoin="round"/>
<path d="M66.4003 52.5221C66.4003 53.0933 66.2278 53.6323 65.926 54.0742C65.4194 54.7857 64.6002 55.2599 63.6624 55.2599C62.1534 55.2599 60.9246 54.0311 60.9246 52.5221C60.9246 51.3795 61.6252 50.3986 62.6169 49.989C62.9402 49.8596 63.2959 49.7842 63.6624 49.7842C64.0289 49.7842 64.3954 49.8596 64.7296 49.9998C65.7105 50.4201 66.4003 51.3903 66.4003 52.5221Z" stroke="black" stroke-width="2" stroke-linecap="round" stroke-linejoin="round"/>
<path d="M44.1308 43.0803C46.8256 42.9725 49.4018 42.0132 51.9348 41.0647C52.7433 40.7628 53.5517 40.461 54.3601 40.1484" stroke="black" stroke-width="2" stroke-linecap="round" stroke-linejoin="round"/>
<path d="M42.514 41.9913C42.514 43.5004 41.2852 44.7292 39.7761 44.7292C38.267 44.7292 37.0382 43.5004 37.0382 41.9913C37.0382 40.4822 38.267 39.2534 39.7761 39.2534C41.1019 39.2534 42.2121 40.202 42.4601 41.4523C42.4816 41.5817 42.5032 41.711 42.5032 41.8512C42.514 41.8943 42.514 41.9482 42.514 41.9913Z" stroke="black" stroke-width="2" stroke-linecap="round" stroke-linejoin="round"/>
<path d="M61.8408 44.0387C63.3529 44.0387 64.5787 42.813 64.5787 41.3009C64.5787 39.7888 63.3529 38.563 61.8408 38.563C60.3287 38.563 59.1029 39.7888 59.1029 41.3009C59.1029 42.813 60.3287 44.0387 61.8408 44.0387Z" stroke="black" stroke-width="2" stroke-linecap="round" stroke-linejoin="round"/>
</svg>
