<svg width="100" height="100" viewBox="0 0 100 100" fill="none" xmlns="http://www.w3.org/2000/svg">
<path d="M33.1538 40.584C38.0488 28.7735 46.2568 15.9125 50.8379 12.5586C54.9345 15.7541 63.8267 29.423 68.9108 41.2897M30.6641 47.4789C29.7174 50.6373 29.161 53.5329 29.161 55.9131C29.0974 57.3796 29.2695 59.4508 31.7184 58.7137C38.2777 56.7392 59.3788 57.2277 69.4703 58.7137C71.1614 58.9627 72.6366 58.7137 72.6366 55.9131C72.8369 53.7105 72.2911 50.7824 71.2447 47.4789" stroke="black" stroke-width="2" stroke-linecap="round" stroke-linejoin="round"/>
<path d="M69.7788 62.5761C60.5968 65.5489 44.8561 62.5765 41.9704 58.9032L69.044 58.7002C69.6561 58.7002 70.4784 61.0024 69.7788 62.5761Z" fill="black" stroke="black" stroke-width="2" stroke-linecap="round" stroke-linejoin="round"/>
<path d="M31.7877 63.6904C31.3534 74.4753 31.3534 75.3437 37.0717 79.4697C42.79 83.5957 46.3368 85.9844 51.5485 85.1158C56.7601 84.2472 66.9662 80.3384 68.4139 75.1992C69.8616 70.0599 68.4139 64.0521 68.4139 63.2559" stroke="black" stroke-width="2" stroke-linecap="round" stroke-linejoin="round"/>
<path d="M51.5485 85.1156C56.7601 84.247 66.1095 79.986 67.5572 74.8467C69.0049 69.7075 67.8756 63.909 67.8756 63.1128" stroke="black" stroke-width="2" stroke-linecap="round" stroke-linejoin="round"/>
<path d="M44.4737 76.4194C46.6497 78.576 54.0767 78.8954 57.3509 76.4194" stroke="black" stroke-width="2" stroke-linecap="round" stroke-linejoin="round"/>
<path d="M57.3507 67.5839C58.1532 67.5839 58.8039 68.0203 58.8039 69.0508C58.8039 69.8609 58.1532 70.5176 57.3507 70.5176C56.7394 70.5176 55.8975 69.8609 55.8975 69.0508C55.8975 67.9534 56.5481 67.5839 57.3507 67.5839Z" fill="black"/>
<path d="M43.7442 67.5835C44.5468 67.5835 45.1974 68.0198 45.1974 69.0503C45.1974 69.8604 44.5468 70.5171 43.7442 70.5171C43.1329 70.5171 42.291 69.8604 42.291 69.0503C42.291 67.953 42.9416 67.5835 43.7442 67.5835Z" fill="black"/>
<path d="M30.4848 63.0391C32.3667 63.9804 41.7322 61.2295 44.6276 58.6957C39.6156 58.3264 36.731 58.3197 31.1462 59.3773C30.5189 60.1494 29.4425 61.4174 30.4848 63.0391Z" fill="black" stroke="black" stroke-width="2" stroke-linecap="round" stroke-linejoin="round"/>
<path d="M69.4272 69.5539C72.8293 69.5539 83.0979 63.4749 77.6066 49.9375C75.0732 51.4576 73.2048 53.804 72.7386 54.9337" stroke="black" stroke-width="2" stroke-linecap="round" stroke-linejoin="round"/>
<path d="M75.9355 57.7788C72.333 61.2839 76.2079 61.137 71.952 64.3012" stroke="black" stroke-width="2" stroke-linecap="round" stroke-linejoin="round"/>
<path d="M31.5705 69.5537C23.9702 68.6123 19.2653 62.7491 23.8255 49.5029C27.0827 50.7335 29.0371 54.787 29.1095 55.1489" stroke="black" stroke-width="2" stroke-linecap="round" stroke-linejoin="round"/>
<path d="M26.0273 56.3945C28.3944 60.7697 24.8795 60.3393 28.3944 64.1411" stroke="black" stroke-width="2" stroke-linecap="round" stroke-linejoin="round"/>
<path d="M50.894 12.9463C56.5145 18.0616 63.6493 30.7744 67.7823 41.6288M70.3936 58.6041C71.631 56.9169 71.3014 53.0624 69.9745 48.2329" stroke="black" stroke-width="2" stroke-linecap="round" stroke-linejoin="round"/>
<path d="M70.8819 47.2761C67.7815 49.8602 37.1435 48.3091 30.9427 47.2761C28.0659 46.9213 31.3582 40.7891 33.1971 40.7891C39.398 41.8221 65.8875 43.968 68.9879 41.384C70.8819 40.7891 72.7759 46.0481 70.8819 47.2761Z" stroke="black" stroke-width="2" stroke-linecap="round" stroke-linejoin="round"/>
<path d="M69.982 47.7089C71.876 46.4809 69.982 41.2219 68.088 41.8167" stroke="black" stroke-width="2" stroke-linecap="round" stroke-linejoin="round"/>
</svg>
