<svg width="100" height="100" viewBox="0 0 100 100" fill="none" xmlns="http://www.w3.org/2000/svg">
<path d="M50.0009 27.7777C51.5745 27.9292 57.3839 40.709 58.4203 41.2595C59.4567 41.81 73.576 40.9814 74.3056 41.81C75.0353 42.6387 66.7747 54.9573 66.8397 55.8424C66.9048 56.7274 74.3056 68.9954 74.3056 69.8747C74.3056 70.7541 58.9353 70.4252 58.4203 70.4252C57.9053 70.4252 51.3264 83.8498 50.0009 83.9071C48.6753 83.9643 42.4511 70.9403 41.5815 70.4252C40.7118 69.9102 26.128 70.4252 25.6961 69.8747C25.2643 69.3242 33.3276 56.5412 33.1621 55.8424C32.9966 55.1435 25.135 42.3284 25.6961 41.81C26.2573 41.2917 40.8375 41.81 41.5815 41.2595C42.3255 40.709 48.4273 27.6261 50.0009 27.7777Z" stroke="black" stroke-width="2" stroke-linecap="round" stroke-linejoin="round"/>
<path d="M50.0006 36.1139C50.5545 36.2782 55.3569 45.2048 55.9196 45.5918C56.4823 45.9788 66.3965 45.5043 67.0871 45.9788C67.7777 46.4533 61.7804 54.8255 61.8385 55.8437C61.8966 56.8619 67.4701 64.8001 67.0871 65.7086C66.7042 66.617 56.7571 65.5274 55.9196 66.0956C55.082 66.6637 50.7412 75.8588 50.0006 75.5735C49.2601 75.2882 44.9068 66.7104 44.0817 66.0956C43.2566 65.4808 33.2846 66.0956 32.9141 65.7086C32.5437 65.3216 38.1855 56.6285 38.1628 55.8437C38.14 55.0589 32.2578 46.64 32.9141 45.9788C33.5705 45.3176 43.5999 46.3132 44.0817 45.5918C44.5636 44.8703 49.4468 35.9496 50.0006 36.1139Z" stroke="black" stroke-width="2" stroke-linecap="round" stroke-linejoin="round"/>
<path d="M49.8752 63.4183C50.9003 63.3442 51.7712 63.8361 51.8654 65.1398C51.9395 66.1646 51.1685 67.0554 50.1434 67.1295C49.3627 67.1859 48.2273 66.4329 48.1532 65.4081C48.0529 64.0199 48.8501 63.4924 49.8752 63.4183Z" stroke="black" stroke-width="2"/>
<path d="M57.8273 58.5926C58.8524 58.5185 59.7233 59.0104 59.8176 60.3141C59.8916 61.3389 59.1207 62.2297 58.0956 62.3038C57.3148 62.3603 56.1795 61.6072 56.1054 60.5824C56.005 59.1942 56.8023 58.6667 57.8273 58.5926Z" stroke="black" stroke-width="2"/>
<path d="M41.7741 58.5926C42.7992 58.5185 43.6701 59.0104 43.7643 60.3141C43.8384 61.3389 43.0675 62.2297 42.0424 62.3038C41.2616 62.3603 40.1262 61.6072 40.0522 60.5824C39.9518 59.1942 40.749 58.6667 41.7741 58.5926Z" stroke="black" stroke-width="2"/>
<path d="M49.5957 51.1489C52.1877 50.9615 54.3898 52.2053 54.6281 55.5016C54.8154 58.0929 52.866 60.3455 50.274 60.5328C48.2998 60.6755 45.429 58.7714 45.2417 56.1801C44.988 52.67 47.0037 51.3362 49.5957 51.1489Z" stroke="black" stroke-width="2"/>
<path d="M49.6023 53.7031C50.9591 53.5586 52.1634 54.6599 52.1634 56.1715" stroke="black" stroke-width="2" stroke-linecap="round" stroke-linejoin="round"/>
<path d="M58.0954 49.3324C59.1205 49.2583 59.9914 49.7502 60.0856 51.0538C60.1597 52.0786 59.3887 52.9695 58.3637 53.0436C57.5829 53.1 56.4475 52.347 56.3734 51.3221C56.2731 49.934 57.0703 49.4065 58.0954 49.3324Z" stroke="black" stroke-width="2"/>
<path d="M41.5058 49.3324C42.5309 49.2583 43.4018 49.7502 43.496 51.0538C43.5701 52.0786 42.7991 52.9695 41.7741 53.0436C40.9933 53.1 39.8579 52.347 39.7838 51.3221C39.6835 49.934 40.4807 49.4065 41.5058 49.3324Z" stroke="black" stroke-width="2"/>
<path d="M50.1435 44.5848C51.1686 44.5107 52.0395 45.0026 52.1337 46.3063C52.2078 47.3311 51.4368 48.2219 50.4118 48.296C49.631 48.3525 48.4956 47.5994 48.4215 46.5746C48.3212 45.1864 49.1184 44.6589 50.1435 44.5848Z" stroke="black" stroke-width="2"/>
<path d="M50.0593 27.832C50.0593 22.7865 48.5006 15.5593 49.2964 13.2251" stroke="black" stroke-width="2" stroke-linecap="round" stroke-linejoin="round"/>
<ellipse cx="49.6408" cy="13.2246" rx="8.72867" ry="2.68164" fill="black"/>
</svg>
