<svg width="100" height="100" viewBox="0 0 100 100" fill="none" xmlns="http://www.w3.org/2000/svg">
<path d="M47.8105 18.9163C44.1019 19.6347 45.2178 22.4691 45.2178 24.6162C45.2178 26.7633 42.7457 30.7243 47.1676 31.8521C49.0101 32.322 51.6558 31.8311 55.3909 32.4859C58.4621 33.0243 67.6012 31.8725 69.8315 31.1206C72.0619 30.3687 73.0431 27.7573 72.3643 26.3475C71.6855 24.9378 71.7518 23.0565 72.3643 21.1649C73.824 16.6566 61.7004 17.6883 57.3787 19.4608C53.493 21.0546 51.68 18.1668 47.8105 18.9163Z" stroke="black" stroke-width="2" stroke-linecap="round" stroke-linejoin="round"/>
<path d="M69.8999 31.5264C70.8808 41.4192 68.2903 48.1167 69.8999 54.4607C71.7744 61.849 70.2266 67.8503 62.6719 69.7656C56.7183 71.275 53.9922 75.1668 50.1617 78.359C47.0638 80.9406 44.2369 83.7414 40.0533 85.7008C31.6474 89.6378 22.2047 76.6399 30.8568 69.7656C38.6243 63.5942 45.5085 60.025 47.4558 55.0818C49.7967 49.1396 48.3035 39.802 48.0198 32.2473" stroke="black" stroke-width="2" stroke-linecap="round" stroke-linejoin="round"/>
<path d="M41.2336 62.0412C47.5812 65.5217 45.9962 71.4696 52.391 75.87" stroke="black" stroke-width="2" stroke-linecap="round" stroke-linejoin="round"/>
<path d="M38.574 64.3026C44.9217 67.7831 43.2973 74.1243 49.6922 78.5247" stroke="black" stroke-width="2" stroke-linecap="round" stroke-linejoin="round"/>
<path d="M30.71 70.1104C35.0389 72.5347 42.658 80.3271 42.8311 83.9634" stroke="black" stroke-width="2" stroke-linecap="round" stroke-linejoin="round"/>
<path d="M30.4823 69.8628C33.7051 71.2441 42.3536 78.5536 42.9061 84.263C35.2734 90.8017 21.6986 81.0864 30.4823 69.8628Z" fill="black"/>
<path d="M59.9223 70.5134C57.7692 64.3615 60.3837 54.8258 69.3038 52.8267" stroke="black" stroke-width="2" stroke-linecap="round" stroke-linejoin="round"/>
<path d="M69.5168 53.0479C65.7415 54.2452 58.0067 59.3093 59.8483 70.2671C70.0097 68.9648 72.4255 60.5511 69.5168 53.0479Z" fill="black"/>
<path d="M48.8766 44.6532L50.9244 42.8984L52.7537 44.6532L55.0134 42.8984L57.4883 44.6532L59.4252 42.8984L61.1469 45.0578L64.6979 42.8984L66.4196 45.0578L69.6232 42.8984" stroke="black" stroke-width="2" stroke-linecap="round" stroke-linejoin="round"/>
<path d="M48.5573 39.1229L50.9246 37.3682L52.7539 39.1229L55.0136 37.3682L57.4885 39.1229L59.4254 37.3682L61.1471 39.5275L64.6981 37.3682L66.4198 39.5275L69.8632 37.3682" stroke="black" stroke-width="2" stroke-linecap="round" stroke-linejoin="round"/>
<path d="M48.2904 32.7775C51.1122 33.2474 65.0645 34.45 69.663 32.2026" stroke="black" stroke-width="2" stroke-linecap="round" stroke-linejoin="round"/>
</svg>
