<svg width="100" height="100" viewBox="0 0 100 100" fill="none" xmlns="http://www.w3.org/2000/svg">
<path d="M48.5724 41.8309C59.4837 41.0423 68.7536 46.2781 69.7566 60.1543C70.5451 71.0627 62.339 80.545 51.4277 81.3337C43.1169 81.9344 31.032 73.9187 30.2435 63.0103C29.1755 48.2344 37.6612 42.6196 48.5724 41.8309Z" stroke="black" stroke-width="2"/>
<path d="M57.9202 63.3379L55.0068 64.578L56.3294 67.8321" stroke="black" stroke-width="2" stroke-linecap="round" stroke-linejoin="round"/>
<path d="M44.63 67.2688L45.0128 64.1256L41.5333 63.644" stroke="black" stroke-width="2" stroke-linecap="round" stroke-linejoin="round"/>
<path d="M41.8924 59.5668L44.9509 58.7472L44.0974 55.3398" stroke="black" stroke-width="2" stroke-linecap="round" stroke-linejoin="round"/>
<path d="M55.9086 55.2738L55.0892 58.3324L58.4668 59.2969" stroke="black" stroke-width="2" stroke-linecap="round" stroke-linejoin="round"/>
<path d="M49.8213 52.0117V71.152" stroke="black" stroke-width="2" stroke-linecap="round" stroke-linejoin="round"/>
<path d="M52.2029 69.6359L49.9638 67.397L47.4397 69.8398" stroke="black" stroke-width="2" stroke-linecap="round" stroke-linejoin="round"/>
<path d="M58.1094 56.8008L41.5334 66.3709" stroke="black" stroke-width="2" stroke-linecap="round" stroke-linejoin="round"/>
<path d="M58.1094 66.3711L41.5334 56.8009" stroke="black" stroke-width="2" stroke-linecap="round" stroke-linejoin="round"/>
<path d="M47.4397 53.532L49.6788 55.771L52.2028 53.3281" stroke="black" stroke-width="2" stroke-linecap="round" stroke-linejoin="round"/>
<path d="M44.6058 45.7539C37.4916 46.6894 33.1951 53.8701 33.9612 61.4477" stroke="black" stroke-width="2" stroke-linecap="round" stroke-linejoin="round"/>
<path d="M67.6439 53.7812C71.2836 77.32 46.1758 83.063 35.8505 73.6313C43.5736 89.1726 77.5561 80.4886 67.6439 53.7812Z" fill="black"/>
<path d="M45.145 41.5245C45.145 41.0371 45.145 40.5013 45.145 39.2477C45.145 37.6806 45.7651 35.9883 47.8998 35.9883C48.9442 35.9883 51.8255 35.9883 53.0789 35.9883C54.6186 35.9883 55.5898 37.113 55.5898 38.9677C55.5898 40.233 55.5202 40.7931 55.5898 41.5245" stroke="black" stroke-width="2" stroke-linecap="round" stroke-linejoin="round"/>
<path d="M45.5488 41.4723C47.3001 40.6834 53.6924 40.2462 54.8308 40.8592" stroke="black" stroke-width="2" stroke-linecap="round" stroke-linejoin="round"/>
<path d="M49.1554 35.7776C47.128 32.1733 43.5503 17.2383 49.8445 17.2383C58.0563 17.2383 51.8707 33.7502 50.4065 35.7776" stroke="black" stroke-width="2" stroke-linecap="round" stroke-linejoin="round"/>
</svg>
