<svg width="100" height="100" viewBox="0 0 100 100" fill="none" xmlns="http://www.w3.org/2000/svg">
<path d="M48.5724 41.8309C59.4837 41.0423 68.7536 46.2781 69.7566 60.1543C70.5451 71.0627 62.339 80.545 51.4277 81.3337C43.1169 81.9344 31.032 73.9187 30.2435 63.0103C29.1755 48.2344 37.6612 42.6196 48.5724 41.8309Z" stroke="black" stroke-width="2"/>
<path d="M67.6439 53.7812C71.2836 77.32 46.1758 83.063 35.8505 73.6313C43.5736 89.1726 77.5561 80.4886 67.6439 53.7812Z" fill="black"/>
<path d="M31.3018 66.4181L34.1021 64.6296C34.732 64.2273 35.5336 64.2098 36.1804 64.5841L38.3327 65.8297C38.9604 66.1929 39.7357 66.1879 40.3587 65.8164L42.4422 64.5742C43.0631 64.2039 43.8355 64.1976 44.4624 64.5576L46.6028 65.7868C47.274 66.1722 48.1072 66.1359 48.7422 65.6934L50.1337 64.7238C50.7866 64.2689 51.6469 64.2442 52.3247 64.661L54.1348 65.774C54.7773 66.1691 55.5875 66.1691 56.23 65.774L58.0031 64.6838C58.6995 64.2555 59.5865 64.2943 60.2429 64.7817L61.2316 65.5158C61.9505 66.0495 62.9365 66.0405 63.6454 65.4937L64.41 64.904C65.1218 64.3549 66.1126 64.3483 66.8317 64.8878L68.8715 66.4181" stroke="black" stroke-width="2" stroke-linecap="round" stroke-linejoin="round"/>
<path d="M31.3018 56.0441L34.1021 54.2556C34.732 53.8533 35.5336 53.8358 36.1804 54.2101L38.3327 55.4556C38.9604 55.8189 39.7357 55.8139 40.3587 55.4424L42.4422 54.2001C43.0631 53.8299 43.8355 53.8236 44.4624 54.1836L46.6028 55.4128C47.274 55.7982 48.1072 55.7618 48.7422 55.3194L50.1337 54.3498C50.7866 53.8949 51.6469 53.8702 52.3247 54.287L54.1348 55.4C54.7773 55.795 55.5875 55.795 56.23 55.4L58.0031 54.3097C58.6995 53.8815 59.5865 53.9203 60.2429 54.4077L61.2316 55.1418C61.9505 55.6755 62.9365 55.6665 63.6454 55.1197L64.41 54.53C65.1218 53.9809 66.1126 53.9743 66.8317 54.5138L68.8715 56.0441" stroke="black" stroke-width="2" stroke-linecap="round" stroke-linejoin="round"/>
<path d="M45.145 41.5245C45.145 41.0371 45.145 40.5013 45.145 39.2477C45.145 37.6806 45.7651 35.9883 47.8998 35.9883C48.9442 35.9883 51.8255 35.9883 53.0789 35.9883C54.6186 35.9883 55.5898 37.113 55.5898 38.9677C55.5898 40.233 55.5202 40.7931 55.5898 41.5245" stroke="black" stroke-width="2" stroke-linecap="round" stroke-linejoin="round"/>
<path d="M45.5488 41.4723C47.3001 40.6834 53.6924 40.2462 54.8308 40.8592" stroke="black" stroke-width="2" stroke-linecap="round" stroke-linejoin="round"/>
<path d="M49.1554 35.7776C47.128 32.1733 43.5503 17.2383 49.8445 17.2383C58.0563 17.2383 51.8707 33.7502 50.4065 35.7776" stroke="black" stroke-width="2" stroke-linecap="round" stroke-linejoin="round"/>
</svg>
