<svg width="100" height="100" viewBox="0 0 100 100" fill="none" xmlns="http://www.w3.org/2000/svg">
<path d="M55.5219 51.4432C55.5077 56.4846 62.2158 58.8275 61.9655 61.8442C61.7652 64.2575 59.3109 66.6522 58.1088 67.5479" stroke="black" stroke-width="2" stroke-linecap="round" stroke-linejoin="round"/>
<path d="M54.6789 52.2816C51.0364 58.8962 59.4108 60.8441 50.9008 68.523" stroke="black" stroke-width="2" stroke-linecap="round" stroke-linejoin="round"/>
<path d="M29.3884 44.8452C22.1393 53.7584 16.6376 63.7176 29.8287 72.6308C36.4939 77.1344 43.8531 74.2564 45.7012 76.6589" stroke="black" stroke-width="2" stroke-linecap="round" stroke-linejoin="round"/>
<path d="M64.5294 44.5845C71.7785 52.7841 74.7495 61.6981 69.6394 68.4713" stroke="black" stroke-width="2" stroke-linecap="round" stroke-linejoin="round"/>
<path d="M22.4762 64.5156C19.9806 70.338 22.5794 84.6336 50.0311 83.8016C71.9925 83.136 73.8384 70.2939 72.0162 63.9561" stroke="black" stroke-width="2" stroke-linecap="round" stroke-linejoin="round"/>
<path d="M78.158 80.4123C79.9292 82.0721 58.4994 86.1456 41.2889 84.53C53.9045 83.652 66.1267 82.0649 68.6314 77.8452C70.4681 78.1362 75.9957 78.3861 78.158 80.4123Z" fill="black"/>
<path d="M32.8438 20.8135C32.6472 21.0497 31.4512 23.6317 30.8777 24.8932L37.0254 41.9203" stroke="black" stroke-width="2" stroke-linecap="round" stroke-linejoin="round"/>
<path d="M59.7188 39.7029L50.9023 15.0996L32.6141 20.8778L41.371 43.9316" stroke="black" stroke-width="2" stroke-linecap="round" stroke-linejoin="round"/>
<path d="M33.8696 33.9953C28.1279 35.6882 26.9392 40.0296 30.0309 45.1833C33.1226 50.337 43.1337 53.5023 51.3782 52.0301C59.6227 50.5579 68.088 43.5648 65.5116 37.3078C63.4505 32.3022 59.2368 32.0616 57.4701 32.5769" stroke="black" stroke-width="2" stroke-linecap="round" stroke-linejoin="round"/>
<path d="M33.1994 34.423C32.8961 39.2144 38.2946 45.8873 47.8178 45.2198C57.341 44.5523 64.1063 38.7017 58.0406 32.7563" stroke="black" stroke-width="2" stroke-linecap="round" stroke-linejoin="round"/>
<path d="M40.3877 42.6295C39.0404 42.0077 37.1792 40.9255 36.661 40.4937" stroke="black" stroke-width="2" stroke-linecap="round" stroke-linejoin="round"/>
<path d="M52.4207 44.1249L41.853 18.0234C41.4153 16.7412 39.7061 17.3988 38.7857 18.9105" stroke="black" stroke-width="2" stroke-linecap="round" stroke-linejoin="round"/>
<path d="M57.6184 30.7578C56.0869 31.3844 36.7337 39.0411 35.2718 38.5543" stroke="black" stroke-width="2" stroke-linecap="round" stroke-linejoin="round"/>
<path d="M48.535 34.0503C46.2253 25.7266 57.9025 24.3092 48.8069 34.0503" stroke="black" stroke-width="2" stroke-linecap="round" stroke-linejoin="round"/>
<path d="M48.953 33.5702C41.8089 27.3417 34.4547 36.6113 48.8122 33.8028" stroke="black" stroke-width="2" stroke-linecap="round" stroke-linejoin="round"/>
<path d="M54.5947 38.311C52.09 37.0343 53.0231 34.8239 48.9468 33.9893C46.4422 36.199 48.4066 39.4895 46.1966 40.2262" stroke="black" stroke-width="2" stroke-linecap="round" stroke-linejoin="round"/>
</svg>
