<svg width="100" height="100" viewBox="0 0 100 100" fill="none" xmlns="http://www.w3.org/2000/svg">
<path d="M37.2537 44.2679L31.1137 55.2249C29.5277 57.9689 27.4177 63.9309 27.4677 67.0999L27.5757 73.9559C27.5757 73.9559 40.2797 77.493 51.8257 77.463C63.3857 77.433 73.7757 73.8359 73.7757 73.8359L73.7957 67.0999C73.8057 63.9309 72.4857 59.1599 70.8557 56.4439L63.4857 44.1689L37.2537 44.2679Z" stroke="black" stroke-width="2" stroke-miterlimit="10" stroke-linecap="round" stroke-linejoin="round"/>
<path d="M39.1855 72.0098C39.1855 72.0098 45.7555 73.1797 50.9855 73.1707C56.2055 73.1617 61.2355 72.1688 61.2355 72.1688" stroke="black" stroke-width="2" stroke-miterlimit="10" stroke-linecap="round" stroke-linejoin="round"/>
<path d="M40.345 58.8241C40.345 53.3711 44.906 49.3821 50.486 48.9491C55.316 48.5761 60.636 53.3711 60.636 58.8241C60.636 64.2781 56.096 68.8071 50.486 68.6991C45.886 68.6101 40.345 64.2781 40.345 58.8241Z" stroke="black" stroke-width="2" stroke-miterlimit="10" stroke-linejoin="round"/>
<path fill-rule="evenodd" clip-rule="evenodd" d="M50.6245 48.9491C45.0445 49.3821 40.4835 53.3711 40.4835 58.8241C40.4835 64.2781 46.0245 68.6101 50.6245 68.6991C56.2345 68.8071 60.7745 64.2781 60.7745 58.8241C60.7745 53.3711 55.4545 48.5761 50.6245 48.9491ZM50.8345 50.2961C49.784 50.2961 48.8845 51.1226 48.8845 52.2112C48.8845 52.7766 49.1532 53.2804 49.4673 53.6231C49.7801 53.9643 50.286 54.3042 50.9145 54.3042C51.5208 54.3042 52.0083 54.011 52.3115 53.5892C52.5919 53.199 52.6945 52.736 52.6945 52.3282C52.6945 51.8654 52.5428 51.3906 52.252 51.0128C51.9525 50.6237 51.4648 50.2961 50.8345 50.2961ZM54.7851 56.8847C54.7851 55.8013 55.6783 54.9697 56.7251 54.9697C57.1091 54.9697 57.5686 55.0473 57.9672 55.2986C58.4093 55.5773 58.7451 56.0606 58.7451 56.6987C58.7451 57.7954 57.8272 58.6127 56.7951 58.6127C56.4131 58.6127 55.9562 58.5341 55.5597 58.2827C55.1208 58.0045 54.7851 57.5224 54.7851 56.8847ZM55.804 61.5098C55.5382 61.5098 55.0852 61.5222 54.6848 61.7408C54.4561 61.8657 54.2441 62.0568 54.099 62.3267C53.959 62.5874 53.914 62.8607 53.914 63.1068C53.914 63.5682 54.0713 64.062 54.3227 64.4532C54.56 64.8225 55.0477 65.3398 55.804 65.3398C56.2915 65.3398 56.7716 65.1727 57.1353 64.8199C57.5014 64.4647 57.684 63.9842 57.684 63.4857C57.684 62.5771 57.0149 61.5098 55.804 61.5098Z" fill="black"/>
<path d="M51.4463 77.457C51.4463 77.457 51.9063 77.536 53.3063 77.692C60.3863 78.479 81.7263 75.882 82.2763 71.561C82.6563 68.55 73.8362 67.416 73.8362 67.416L73.8663 73.866C73.8663 73.866 62.2263 77.286 55.0663 77.411" fill="black"/>
<path d="M51.4463 77.457C51.4463 77.457 51.9063 77.536 53.3063 77.692C60.3863 78.479 81.7263 75.882 82.2763 71.561C82.6563 68.55 73.8362 67.416 73.8362 67.416L73.8663 73.866C73.8663 73.866 62.2263 77.286 55.0663 77.411" stroke="black" stroke-width="2" stroke-miterlimit="10" stroke-linecap="round" stroke-linejoin="round"/>
<path d="M38.4608 34.1301C38.4608 34.1301 38.7408 38.5371 38.3218 39.3511C37.6978 40.5621 35.5778 41.4691 30.4998 42.5831C25.4228 43.6981 17.8918 43.6561 19.5038 38.5471C21.1158 33.4391 23.4858 29.6471 35.0848 24.8041C46.6858 19.9601 60.1358 21.8721 69.3358 26.8821C80.1458 32.7701 81.1658 34.8831 81.5558 39.1821C81.9458 43.4821 74.1659 42.7261 70.6459 42.3661C66.0759 41.8991 64.1258 40.7041 63.5658 39.6031C63.0258 38.5211 63.3859 34.0281 63.3859 34.0281C63.3859 34.0281 57.0858 31.1281 50.8558 31.1531C44.6258 31.1791 38.4608 34.1301 38.4608 34.1301Z" stroke="black" stroke-width="2" stroke-miterlimit="10" stroke-linecap="round" stroke-linejoin="round"/>
<path d="M19.9289 42.3174C18.4359 45.3024 17.0259 52.6444 22.9169 51.6624C24.2169 51.4454 25.7858 49.0474 23.7318 48.6744C20.0138 47.9984 17.5108 54.8414 18.0808 57.6934C18.4358 59.4684 20.8459 63.6214 23.1879 61.2784C23.8459 60.6214 23.9618 59.0544 22.8618 58.7794C20.6998 58.2394 19.9018 62.3904 19.7108 63.7234C19.0068 68.6564 19.3349 69.9044 22.2889 73.9634" stroke="black" stroke-width="2" stroke-miterlimit="10" stroke-linecap="round" stroke-linejoin="round"/>
<path d="M42.376 43.6667C42.376 43.6667 42.496 41.7957 42.626 40.5897C42.766 39.3537 43.756 39.7047 44.806 39.7067C45.856 39.7077 46.5859 39.7277 46.5859 39.7277L46.726 40.0217L46.666 41.9107L46.606 43.8087" stroke="black" stroke-width="2" stroke-miterlimit="10" stroke-linecap="round" stroke-linejoin="round"/>
<path d="M54.8164 43.8355C54.8164 43.8355 54.9364 41.9645 55.0664 40.7585C55.2064 39.5225 56.0164 39.3955 57.0664 39.3975C58.1164 39.3985 59.1664 40.1905 59.1664 40.1905L59.1064 42.0795L59.0464 43.9775" stroke="black" stroke-width="2" stroke-miterlimit="10" stroke-linecap="round" stroke-linejoin="round"/>
</svg>
