<svg width="100" height="100" viewBox="0 0 100 100" fill="none" xmlns="http://www.w3.org/2000/svg">
<path d="M36.3594 23.9241C28.3554 27.4841 9.73743 47.8681 27.3034 67.9961C42.7974 85.7491 72.1784 73.4241 74.9594 60.2701C74.9594 60.2701 52.2584 67.8211 39.0584 49.3351C31.3794 38.5801 36.3594 23.9241 36.3594 23.9241Z" stroke="black" stroke-width="2" stroke-miterlimit="10" stroke-linecap="round" stroke-linejoin="round"/>
<path d="M61.2451 41.6471C61.2451 41.6471 65.9341 40.6671 68.2451 37.2261C70.5631 33.7751 71.4271 28.4961 71.4271 28.4961C71.4271 28.4961 71.8651 33.4361 73.4351 36.1441C75.0061 38.8531 80.7601 41.0421 80.7601 41.0421C80.7601 41.0421 77.1881 41.8011 74.9251 44.8261C72.6631 47.8511 71.7081 53.1411 71.7081 53.1411C71.7081 53.1411 71.1671 49.1071 68.5511 46.2341C65.9351 43.3601 61.2451 41.6471 61.2451 41.6471Z" stroke="black" stroke-width="2" stroke-miterlimit="10" stroke-linejoin="round"/>
<path d="M46 27.8024C46 27.8024 47.866 26.9621 48.6919 25.9044C49.5174 24.8462 49.6521 23 49.6521 23C49.6521 23 49.9899 24.7873 50.5533 25.7766C51.1167 26.7654 53 27.5816 53 27.5816C53 27.5816 51.6534 28.1598 50.8414 29.2646C50.0298 30.3688 49.7534 32 49.7534 32C49.7534 32 49.4277 30.0419 48.4895 28.9925C47.5513 27.9431 46 27.8024 46 27.8024Z" fill="black" stroke="black" stroke-width="2" stroke-miterlimit="10" stroke-linejoin="round"/>
<path d="M35.126 25.166C35.126 25.166 20.73 36.019 21.027 48.24C21.324 60.462 25.443 70.949 40.73 76.081" stroke="black" stroke-width="2" stroke-miterlimit="10" stroke-linecap="round" stroke-linejoin="round"/>
</svg>
