<svg width="100" height="100" viewBox="0 0 100 100" fill="none" xmlns="http://www.w3.org/2000/svg">
<path d="M52.246 38.1472C40.296 38.1372 27.7061 38.2782 23.3161 38.4602C19.1461 38.6322 18.3261 41.5982 18.0661 44.2102C17.7961 46.8212 18.426 64.7172 18.656 68.7102C18.876 72.3582 20.456 75.3822 24.346 75.7102C28.236 76.0372 67.396 75.7422 71.376 75.7722C75.356 75.8022 79.766 75.5672 80.376 73.2102C81.336 69.4692 81.116 50.1822 81.096 44.6162C81.076 40.5372 80.366 39.5092 77.346 38.7722C75.536 38.3302 64.206 38.1572 52.246 38.1472Z" stroke="black" stroke-width="2" stroke-miterlimit="10" stroke-linecap="round" stroke-linejoin="round"/>
<path d="M18.666 68.8691C19.076 71.2741 17.826 77.7811 26.356 77.5901C34.886 77.3991 60.756 78.0371 74.416 77.3171C79.936 77.0261 80.466 77.3061 80.696 71.0851" stroke="black" stroke-width="2" stroke-miterlimit="10" stroke-linecap="round" stroke-linejoin="round"/>
<path d="M29.4561 38.0741C29.4561 38.0741 47.306 25.2771 48.656 24.8981C49.996 24.5191 70.296 38.1501 70.296 38.1501" stroke="black" stroke-width="2" stroke-miterlimit="10" stroke-linecap="round" stroke-linejoin="round"/>
<path d="M47.4859 25.3492C46.0659 23.0092 49.5359 22.2042 50.2359 23.9172C50.9359 25.6302 48.3559 26.7822 47.4859 25.3492Z" fill="black" stroke="black" stroke-width="2" stroke-miterlimit="10" stroke-linecap="round" stroke-linejoin="round"/>
<path d="M60.9661 50.1909C61.0261 53.5519 60.6962 57.2869 61.0862 60.6109C61.1262 60.9279 60.9062 63.5529 61.0562 63.6279C61.5062 63.8569 64.0862 63.8149 64.6462 63.6319" stroke="black" stroke-width="2" stroke-miterlimit="10" stroke-linecap="round" stroke-linejoin="round"/>
<path d="M61.4863 56.7227L64.3964 56.6707" stroke="black" stroke-width="2" stroke-miterlimit="10" stroke-linecap="round" stroke-linejoin="round"/>
<path d="M60.9762 50.235C60.9062 50.008 64.1062 50.036 64.1062 50.036" stroke="black" stroke-width="2" stroke-miterlimit="10" stroke-linecap="round" stroke-linejoin="round"/>
<path d="M31.2261 51.8887C30.5261 49.3657 26.6062 49.6377 25.8262 51.7507C24.9462 54.1207 24.3261 59.5217 25.5061 61.8337C26.8561 64.4827 30.8861 64.4697 31.3761 61.1497" stroke="black" stroke-width="2" stroke-miterlimit="10" stroke-linecap="round" stroke-linejoin="round"/>
<path d="M56.846 51.3014C56.796 49.8394 54.746 49.9534 54.226 50.2854C53.146 50.9784 52.5261 51.8594 52.5561 53.0944C52.6361 55.7284 56.7561 55.9544 57.0061 59.1144C57.1061 60.2994 57.526 62.8014 55.346 63.6594C54.876 63.8454 51.6361 63.9264 51.6961 61.6924" stroke="black" stroke-width="2" stroke-miterlimit="10" stroke-linecap="round" stroke-linejoin="round"/>
<path d="M35.9264 50.0291C35.9364 53.6041 35.7464 54.998 35.6764 58.507C35.6664 59.014 35.1764 63.235 35.4264 63.579C35.5764 63.779 39.4764 63.838 39.9664 63.752" stroke="black" stroke-width="2" stroke-miterlimit="10" stroke-linecap="round" stroke-linejoin="round"/>
<path d="M43.156 54.2437C42.676 56.5787 41.6961 64.0237 45.7061 63.9597C46.8761 63.9407 47.8361 61.9567 48.0761 61.0447C48.8561 58.1217 48.806 55.5917 48.416 52.5857C48.326 51.9157 47.226 49.2647 45.396 49.9807C44.106 50.4827 43.326 53.4087 43.156 54.2437Z" stroke="black" stroke-width="2" stroke-miterlimit="10" stroke-linecap="round" stroke-linejoin="round"/>
<path d="M69.0761 49.7441C68.4961 49.7711 68.7661 52.5421 68.7861 53.3201C68.8561 57.0891 68.7561 57.8331 68.9261 60.6601C68.9561 61.1511 68.8561 63.2961 69.0761 63.7221C69.4361 64.3971 71.1261 64.0761 72.1961 63.7081C74.3061 62.9851 75.2561 60.0241 75.1961 57.2791C75.1361 54.1381 74.2161 50.6661 71.4561 49.8081C70.9061 49.6371 69.5461 49.7231 69.0761 49.7441Z" stroke="black" stroke-width="2" stroke-miterlimit="10" stroke-linecap="round" stroke-linejoin="round"/>
</svg>
