<svg width="100" height="100" viewBox="0 0 100 100" fill="none" xmlns="http://www.w3.org/2000/svg">
<path d="M25.9482 46.1425C25.9482 46.1425 12.1402 46.7804 18.8292 61.4024C21.0122 66.1754 29.7003 70.2445 36.4173 70.0435C44.7993 69.7935 53.3913 66.3365 53.3913 66.3365C53.3913 66.3365 74.8812 75.3885 81.7852 62.9015C89.0142 49.8285 72.8172 48.1215 72.8172 48.1215C72.8172 48.1215 73.0692 41.5195 66.1072 38.5625C59.3392 35.6875 54.6803 41.8105 54.6803 41.8105C54.6803 41.8105 52.4572 27.5114 37.3982 30.3804C25.6632 32.6164 25.9482 46.1425 25.9482 46.1425Z" stroke="black" stroke-width="2" stroke-miterlimit="10" stroke-linecap="round" stroke-linejoin="round"/>
<path d="M52.7686 66.5838C52.7686 66.5838 57.4855 64.5558 58.1205 63.8838" stroke="black" stroke-width="2" stroke-miterlimit="10" stroke-linecap="round" stroke-linejoin="round"/>
<path d="M56.0449 65.515C56.0449 65.515 65.5569 69.074 70.8969 68.257C76.2369 67.439 79.9629 66.705 82.2689 61.958" stroke="black" stroke-width="2" stroke-miterlimit="10" stroke-linecap="round" stroke-linejoin="round"/>
<path d="M73.8161 48.2914C71.1711 47.9244 68.6841 48.1574 66.8501 50.4814" stroke="black" stroke-width="2" stroke-miterlimit="10" stroke-linecap="round" stroke-linejoin="round"/>
<path d="M25.4692 46.1551C25.4692 46.1551 31.2252 45.5091 34.4692 49.3551" stroke="black" stroke-width="2" stroke-miterlimit="10" stroke-linecap="round" stroke-linejoin="round"/>
<path d="M19.5592 48.5479C18.3322 49.7569 16.8622 55.8609 20.1082 60.1949C23.3532 64.5279 30.3032 71.4008 40.4202 69.7198" stroke="black" stroke-width="2" stroke-miterlimit="10" stroke-linecap="round" stroke-linejoin="round"/>
</svg>
