<svg width="100" height="100" viewBox="0 0 100 100" fill="none" xmlns="http://www.w3.org/2000/svg">
<path d="M36.9985 51.1401C35.3485 52.4201 23.2535 69.1902 23.0125 70.7802C22.7565 72.4702 26.5175 77.6001 26.5175 77.6001L35.3595 79.5302C35.3595 79.5302 43.5525 70.2302 46.9315 67.2802C50.3105 64.3302 52.6795 60.9602 53.5345 62.5302C54.3895 64.0902 60.1275 76.4101 68.9805 69.2001C76.9995 62.6701 75.2295 47.7801 69.0175 45.0901C62.8055 42.3901 57.4425 47.0301 56.1745 51.3601C54.9065 55.6901 48.0335 53.6001 45.1765 53.0901C41.7095 52.4801 37.7055 50.5901 36.9985 51.1401Z" stroke="black" stroke-width="2" stroke-miterlimit="10" stroke-linecap="round" stroke-linejoin="round"/>
<path d="M32.1641 73.5508L35.3421 79.0808" stroke="black" stroke-width="2" stroke-miterlimit="10" stroke-linecap="round" stroke-linejoin="round"/>
<path d="M47.6025 66.6602C47.6025 66.6602 50.9915 68.2702 53.5275 69.2002C56.0345 70.1202 61.7476 71.1702 61.7476 71.1702" stroke="black" stroke-width="2" stroke-miterlimit="10" stroke-linecap="round" stroke-linejoin="round"/>
<path d="M23.5625 71.5605L32.4285 73.5505L46.7635 58.1006" stroke="black" stroke-width="2" stroke-miterlimit="10" stroke-linecap="round" stroke-linejoin="round"/>
<path d="M26.831 77.6807L23.957 72.2607L31.975 73.9507L33.909 78.6807L26.831 77.6807Z" fill="black" stroke="black" stroke-width="2" stroke-miterlimit="10" stroke-linejoin="round"/>
<path d="M64.4141 65.4108C64.6451 65.5808 65.431 64.8508 65.631 64.8008" stroke="black" stroke-width="2" stroke-miterlimit="10" stroke-linecap="round" stroke-linejoin="round"/>
<path d="M40.0215 51.2505C40.0215 51.2505 42.2005 44.4804 47.7825 42.0604C60.5845 36.4904 67.1625 44.1205 67.1625 44.1205" stroke="black" stroke-width="2" stroke-miterlimit="10" stroke-linecap="round" stroke-linejoin="round"/>
<path d="M64.2139 50.9004C68.3769 51.0804 69.5489 53.6704 69.9129 56.3804C70.2719 59.0504 68.6609 61.8404 68.6949 61.6504" stroke="black" stroke-width="2" stroke-miterlimit="10" stroke-linecap="round" stroke-linejoin="round"/>
<path d="M57.4922 39.5206C57.4922 39.5206 61.2371 34.8405 65.3871 37.0605C69.5361 39.2705 68.4702 44.1305 68.4702 44.1305" stroke="black" stroke-width="2" stroke-miterlimit="10" stroke-linecap="round" stroke-linejoin="round"/>
<path d="M39.9219 51.5502C39.9219 51.5502 40.5389 49.6802 41.7759 47.6302C43.3889 44.9502 45.6979 43.2803 45.6979 43.2803C45.6979 43.2803 49.8099 44.2103 52.3509 44.6503C54.8909 45.0803 59.3939 46.5303 59.3939 46.5303C59.3939 46.5303 58.1539 47.5802 57.1609 49.1702C56.1669 50.7502 56.0409 51.8002 56.0409 51.8002C56.0409 51.8002 55.6119 53.2502 53.3379 53.8102C52.5889 54.0002 50.3589 53.9802 50.3589 53.9802C50.3589 53.9802 47.9239 53.7103 45.4469 53.1503C42.6019 52.5103 39.9219 51.5502 39.9219 51.5502Z" fill="black" stroke="black" stroke-width="2" stroke-miterlimit="10" stroke-linejoin="round"/>
<path d="M47.4258 20C47.4258 20 49.9998 28.46 52.6208 31.73C56.3488 36.38 62.0338 38.7899 63.7448 38.2899C65.4558 37.7899 75.4037 33.2799 76.3987 21.9299" stroke="black" stroke-width="2" stroke-miterlimit="10" stroke-linecap="round" stroke-linejoin="round"/>
</svg>
