<svg width="100" height="100" viewBox="0 0 100 100" fill="none" xmlns="http://www.w3.org/2000/svg">
<path d="M79.3643 78.1546L20.1431 78.4758C17.8012 78.5007 15.9326 76.3965 15.9435 73.7967L16.3675 26.5384C16.3783 23.9385 18.3004 21.834 20.6424 21.8091L79.8283 21.5222C82.1702 21.4973 84.0388 23.6014 84.0279 26.2013L83.6368 73.4618C83.5931 76.0595 81.7038 78.1662 79.3643 78.1546Z" stroke="black" stroke-width="2" stroke-miterlimit="10"/>
<path d="M16.1591 33.4939L83.8368 33.3889" stroke="black" stroke-width="2" stroke-miterlimit="10"/>
<path fill-rule="evenodd" clip-rule="evenodd" d="M51.3332 33.1395C40.7427 33.1074 30.2038 33.0754 18.557 33.1325C17.4039 33.1244 16.471 33.7595 16.4498 34.5609C16.4453 34.8655 16.4399 35.2153 16.434 35.6064C16.3176 43.2722 15.9612 66.7567 16.1431 75.2047C16.1571 75.9735 18.2428 78.2785 19.3631 78.2844C30.3528 78.5731 80.558 78.5094 80.9752 78.1885C84.6737 77.2895 84.2302 65.555 83.7578 53.0596C83.4983 46.1942 83.2301 39.0992 83.6355 33.4453C83.6729 32.892 82.9721 32.9748 82.1329 33.074C81.76 33.1181 81.3597 33.1654 80.9848 33.1615C70.4906 33.1976 60.8908 33.1685 51.3332 33.1395ZM54.7167 49.3307C54.3724 48.9009 54.4434 48.2713 54.8752 47.9244L58.8723 44.7135L54.0764 42.0871C53.5933 41.8225 53.4184 41.215 53.6858 40.7302C53.9532 40.2453 54.5617 40.0668 55.0449 40.3314L60.8877 43.5312C61.6357 43.9408 61.7231 44.9816 61.0546 45.5185L56.1219 49.481C55.6901 49.8278 55.0609 49.7606 54.7167 49.3307ZM31.0258 40.2784C31.36 40.7182 31.2746 41.3456 30.835 41.6797L26.4304 45.0273L30.8431 47.5761C31.3214 47.8524 31.4854 48.464 31.2093 48.9423C30.9332 49.4205 30.3217 49.5842 29.8434 49.308L24.3887 46.1572C23.646 45.7283 23.5796 44.6814 24.2622 44.1626L29.6245 40.0871C30.0641 39.753 30.6915 39.8386 31.0258 40.2784ZM36.4197 46.0397C37.2478 46.0616 37.937 45.4081 37.9589 44.58C37.9809 43.7518 37.3274 43.0627 36.4992 43.0407C35.6711 43.0188 34.982 43.6723 34.96 44.5005C34.938 45.3286 35.5916 46.0177 36.4197 46.0397ZM44.9589 44.58C44.937 45.4081 44.2478 46.0616 43.4197 46.0397C42.5916 46.0177 41.938 45.3286 41.96 44.5004C41.982 43.6723 42.6711 43.0188 43.4992 43.0407C44.3274 43.0627 44.9809 43.7518 44.9589 44.58ZM49.4197 46.0397C50.2478 46.0616 50.937 45.4081 50.9589 44.58C50.9809 43.7518 50.3274 43.0627 49.4992 43.0407C48.6711 43.0188 47.982 43.6723 47.96 44.5005C47.938 45.3286 48.5916 46.0177 49.4197 46.0397ZM69.3444 57.3984C69.3625 57.9504 68.9297 58.4126 68.3777 58.4307C54.5375 58.885 25.8517 58.0574 24.5025 57.9662C23.9515 57.929 23.535 57.4521 23.5722 56.9011C23.6094 56.3501 24.0863 55.9336 24.6373 55.9708C25.9211 56.0575 54.54 56.8839 68.3121 56.4318C68.8641 56.4136 69.3262 56.8464 69.3444 57.3984Z" fill="black"/>
</svg>
