<svg width="100" height="100" viewBox="0 0 100 100" fill="none" xmlns="http://www.w3.org/2000/svg">
<path d="M22.2211 30.9163C18.7196 37.6572 15.3075 46.2274 18.7197 58.6405C21.1863 66.0492 26.0211 75.5163 40.5211 78.6163C55.0211 81.7163 70.6211 77.6163 78.0211 64.0163C85.4211 50.4163 83.1211 35.6163 75.8211 27.0163C68.5211 18.4163 51.7211 9.81633 38.0211 17.2163C26.696 21.9989 22.2211 30.9163 22.2211 30.9163Z" stroke="black" stroke-width="2" stroke-miterlimit="10" stroke-linecap="round"/>
<path fill-rule="evenodd" clip-rule="evenodd" d="M24.4834 69.6434C27.8008 73.9858 32.9091 77.8259 41.1731 79.5902C55.5984 82.6698 71.1179 78.5968 78.4798 65.0863C82.802 57.1542 83.7979 48.8113 82.4137 41.5451L82.7823 41.4814C86.4511 58.131 82.7119 65.2111 76.0039 73.2072C67.7368 83.0612 55.8337 83.4764 49.9311 83.6757C40.2293 84.0183 33.1715 79.8419 26.5647 72.4372C25.7893 71.5683 25.0986 70.6274 24.4834 69.6434Z" fill="black"/>
<path d="M24.4834 69.6434L25.278 69.0364L23.6355 70.1736L24.4834 69.6434ZM41.1731 79.5902L40.9643 80.5682L41.1731 79.5902ZM78.4798 65.0863L77.6017 64.6078L78.4798 65.0863ZM82.4137 41.5451L82.2436 40.5597L81.241 40.7327L81.4314 41.7322L82.4137 41.5451ZM82.7823 41.4814L83.7589 41.2663L83.5534 40.3335L82.6122 40.496L82.7823 41.4814ZM76.0039 73.2072L76.77 73.8499L76.77 73.8499L76.0039 73.2072ZM49.9311 83.6757L49.8973 82.6762L49.8958 82.6763L49.9311 83.6757ZM26.5647 72.4372L27.3109 71.7715H27.3109L26.5647 72.4372ZM81.8394 41.8144C82.0232 42.3351 82.5945 42.6083 83.1152 42.4244C83.636 42.2405 83.9091 41.6693 83.7253 41.1485L81.8394 41.8144ZM81.3764 34.4956C81.1925 33.9748 80.6213 33.7017 80.1005 33.8856C79.5798 34.0694 79.3066 34.6406 79.4905 35.1614L81.3764 34.4956ZM23.6888 70.2505C27.1514 74.7829 32.4676 78.7542 40.9643 80.5682L41.3819 78.6122C33.3506 76.8977 28.4503 73.1887 25.278 69.0364L23.6888 70.2505ZM40.9643 80.5682C55.6627 83.7061 71.7152 79.5907 79.3579 65.5648L77.6017 64.6078C70.5207 77.6029 55.5341 81.6335 41.3819 78.6122L40.9643 80.5682ZM79.3579 65.5648C83.7921 57.4272 84.823 48.8487 83.3961 41.358L81.4314 41.7322C82.7728 48.7739 81.8119 56.8813 77.6017 64.6078L79.3579 65.5648ZM82.6122 40.496L82.2436 40.5597L82.5839 42.5305L82.9524 42.4669L82.6122 40.496ZM76.77 73.8499C80.1555 69.8144 82.878 65.9116 84.2496 60.851C85.6206 55.7923 85.6141 49.6855 83.7589 41.2663L81.8057 41.6966C83.6193 49.9269 83.5776 55.685 82.3192 60.3278C81.0614 64.9686 78.5604 68.6039 75.2378 72.5645L76.77 73.8499ZM49.9648 84.6751C55.8489 84.4765 68.1897 84.0772 76.77 73.8499L75.2378 72.5645C67.2839 82.0451 55.8186 82.4764 49.8973 82.6762L49.9648 84.6751ZM25.8185 73.103C32.5546 80.6525 39.8779 85.0313 49.9664 84.675L49.8958 82.6763C40.5807 83.0052 33.7883 79.0312 27.3109 71.7715L25.8185 73.103ZM23.6355 70.1736C24.277 71.1995 25.001 72.1868 25.8185 73.103L27.3109 71.7715C26.5776 70.9497 25.9203 70.0552 25.3313 69.1133L23.6355 70.1736ZM83.7253 41.1485L81.3764 34.4956L79.4905 35.1614L81.8394 41.8144L83.7253 41.1485Z" fill="black"/>
<path d="M50.021 31.0164V63.9164" stroke="black" stroke-width="2" stroke-miterlimit="10" stroke-linecap="round"/>
<path d="M59.5209 37.8164C59.5209 37.8164 48.6209 31.3164 43.8209 36.1164C39.0209 40.9164 41.7209 43.3164 44.3209 44.7164C46.9209 46.1164 59.8209 48.9164 58.9209 53.7164C58.0209 58.5164 48.6209 63.2164 40.9209 56.9164" stroke="black" stroke-width="2" stroke-miterlimit="10" stroke-linecap="round"/>
<path d="M28.4975 34.8653C26.3496 38.31 23.7769 46.351 26.9081 56.4511C29.9577 64.1408 34.5645 69.1657 43.8761 71.1973C53.1877 73.229 65.5205 70.2163 71.1205 59.9163C76.7205 49.6163 74.9205 38.4163 69.4205 31.9163C64.0205 25.4163 51.2205 18.8163 40.8205 24.4163C32.9709 28.0741 28.4975 34.8653 28.4975 34.8653Z" stroke="black" stroke-width="2" stroke-miterlimit="10" stroke-linecap="round"/>
</svg>
