<svg width="100" height="100" viewBox="0 0 100 100" fill="none" xmlns="http://www.w3.org/2000/svg">
<path d="M59.7128 21.5369C59.1264 21.7882 59.1064 25.606 59.1064 29.9333C59.1064 34.2606 58.4405 58.3505 58.4404 69.8866C58.4403 83.0992 77.348 79.6921 77.4408 71.5831C77.5336 63.4741 77.4291 24.1747 77.5338 22.4995C77.6385 20.8242 60.4457 21.2228 59.7128 21.5369Z" stroke="black" stroke-width="2"/>
<path d="M67.5515 67.0005C64.4079 66.9053 64.6915 71.3441 65.9838 72.3271C67.2762 73.3101 69.564 72.7152 70.1799 71.7529C70.6537 71.0125 71.4809 67.1196 67.5515 67.0005Z" stroke="black" stroke-width="2"/>
<path d="M58.9941 58.8911H77.0805" stroke="black" stroke-width="2"/>
<path d="M58.9941 46.0972H77.0805" stroke="black" stroke-width="2"/>
<path d="M58.9941 33.4829H77.0805" stroke="black" stroke-width="2"/>
<path d="M59.0245 35.0538C57.0418 31.1186 53.2858 22.8076 51.3475 23.6691C49.7743 24.3683 36.2079 31.9596 36.6584 33.1313C37.0189 34.0687 51.4387 58.7888 58.3478 70.6242" stroke="black" stroke-width="2"/>
<path d="M42.7342 44.2898C38.9723 42.0552 31.3635 37.7218 31.024 38.2649C30.5997 38.9438 21.3805 52.5714 22.5685 54.014C23.7565 55.4565 58.8571 74.9232 59.536 75.0929" stroke="black" stroke-width="2"/>
<path d="M45.7881 67.4086L50.7492 58.1162" stroke="black" stroke-width="2"/>
<path d="M50.2002 55.482L58.4377 50.2925" stroke="black" stroke-width="2"/>
<path d="M58.2928 50.895L50.333 55.5468L57.9826 68.4686L58.2928 50.895Z" fill="black"/>
<path d="M34.6299 60.1107L43.281 44.5586" stroke="black" stroke-width="2"/>
<path d="M43.2812 43.2087L57.7792 34.2295" stroke="black" stroke-width="2"/>
<path d="M43.5576 44.5647L34.4878 60.9767L24.4103 55.5061L22.4668 53.0587L31.2486 38.3022L43.5576 44.5647Z" fill="black"/>
<path d="M77.5366 33.4819H60.2971L59.0926 35.1381L58.4902 45.9035H77.5366V33.4819Z" fill="black"/>
<path d="M65.6074 68.1874C67.0065 67.6159 69.4417 67.3979 70.5684 70.3055" stroke="black" stroke-width="2"/>
</svg>
