<svg width="100" height="100" viewBox="0 0 100 100" fill="none" xmlns="http://www.w3.org/2000/svg">
<path d="M51.5119 38.9861C37.789 37.5848 21.7142 44.9725 11.8048 57.0859C-3.00164 75.1857 29.1181 77.3714 37.5712 73.4803C41.1971 71.5299 42.1952 71.7624 48.9659 65.9639C55.7365 60.1653 62.4698 56.599 65.5275 53.4085C68.5852 50.218 68.6655 40.7377 51.5119 38.9861Z" stroke="black" stroke-width="2"/>
<path d="M44.9512 44.385C48.1573 42.0226 55.8498 40.69 62.1271 41.905" stroke="black" stroke-width="2" stroke-linecap="round"/>
<path d="M83.9759 22.458C74.8289 22.458 60.5458 24.0907 70.6704 28.1405C80.7949 32.1904 88.9572 37.3617 80.8575 37.8679C74.3778 38.2729 65.6706 40.7366 62.127 41.9178" stroke="black" stroke-width="2" stroke-linecap="round"/>
<path d="M29.6875 43.1565C33.51 42.0644 42.6292 41.3545 48.5267 47.252C54.4242 53.1494 57.2421 57.0811 57.9139 58.3098" stroke="black" stroke-width="2" stroke-linecap="round"/>
<path fill-rule="evenodd" clip-rule="evenodd" d="M9.85344 68.0136C14.0452 75.7554 33.8527 76.3072 38.5183 73.1858C38.9946 72.9585 39.4295 72.7611 39.8454 72.5723C42.3196 71.4492 44.1164 70.6336 49.9129 65.6694C53.328 62.7446 56.7336 60.3877 59.6628 58.3605C62.5409 56.3687 64.9591 54.6952 66.4745 53.114C68.4348 51.0686 69.1714 46.4379 64.9276 42.916C66.6916 43.2989 68.3883 45.1246 69.3034 47.2907C71.7187 53.0079 67.6979 58.3021 62.5453 60.589C59.198 62.0746 56.4825 64.8904 54.1077 67.3529C52.8268 68.681 51.645 69.9065 50.5166 70.765C49.6968 71.3887 48.9501 72.1077 48.1436 72.8842C45.7819 75.1582 42.9076 77.9257 36.1859 80.2393C27.1688 83.3429 18.2189 78.8438 14.2393 76.1073C11.7151 74.3716 9.29853 70.0988 8.97656 68.3564L9.85344 68.0136Z" fill="black"/>
</svg>
