<svg width="100" height="100" viewBox="0 0 100 100" fill="none" xmlns="http://www.w3.org/2000/svg">
<path d="M49.4512 69.6777V72.7211" stroke="black" stroke-width="2" stroke-linecap="round" stroke-linejoin="round"/>
<path d="M66.3525 56.3199L63.3091 56.3199" stroke="black" stroke-width="2" stroke-linecap="round" stroke-linejoin="round"/>
<path d="M35.5312 56.3199L32.4878 56.3199" stroke="black" stroke-width="2" stroke-linecap="round" stroke-linejoin="round"/>
<path d="M49.4512 39.4649V42.5084" stroke="black" stroke-width="2" stroke-linecap="round" stroke-linejoin="round"/>
<path d="M73.6875 56.3653C73.6875 69.7475 64.6477 79.8576 49.457 80.5958C34.2663 81.3341 24.6246 70.37 24.5684 55.5926C24.7869 41.538 35.8357 31.8556 49.457 32.1349C63.0784 32.4142 73.6875 42.9832 73.6875 56.3653Z" stroke="black" stroke-width="2" stroke-linecap="round" stroke-linejoin="round"/>
<path d="M70.1738 56.3675C70.1738 67.8348 62.4275 76.4982 49.4104 77.1309C36.3933 77.7635 28.1312 68.3683 28.083 55.7053C28.2703 43.6617 37.7381 35.3648 49.4104 35.6041C61.0827 35.8434 70.1738 44.9002 70.1738 56.3675Z" stroke="black" stroke-width="2" stroke-linecap="round" stroke-linejoin="round"/>
<path d="M49.457 80.5958C62.8391 80.5958 74.3054 71.5278 74.8209 59.1499C75.3363 46.7719 66.9038 32.1349 49.457 32.1349" stroke="black" stroke-width="2" stroke-linecap="round" stroke-linejoin="round"/>
<path d="M57.5692 44.247L46.309 53.1501C45.8157 53.5402 45.4574 54.0754 45.2848 54.6801L41.3455 68.4838L52.6057 59.5806C53.099 59.1906 53.4573 58.6554 53.6298 58.0506L57.5692 44.247Z" stroke="black" stroke-width="2" stroke-linecap="round" stroke-linejoin="round"/>
<path d="M50.9173 57.3431C50.3816 58.1434 49.2986 58.3579 48.4984 57.8222C47.6981 57.2865 47.4837 56.2035 48.0193 55.4033C48.555 54.603 49.638 54.3886 50.4382 54.9242C51.2385 55.4599 51.453 56.5429 50.9173 57.3431Z" stroke="black" stroke-width="2" stroke-linecap="round" stroke-linejoin="round"/>
<path d="M48.4986 57.8222C49.2989 58.3578 50.6363 58.2484 51.172 57.4482C51.7076 56.6479 51.2387 55.4599 50.4385 54.9242" stroke="black" stroke-width="2" stroke-linecap="round" stroke-linejoin="round"/>
<path d="M58.4688 45.6151C56.8756 51.109 56.2554 54.599 54.1845 59.4035C49.7275 63.7549 46.8795 65.9918 42.3721 69.1287" stroke="black" stroke-width="2" stroke-linecap="round" stroke-linejoin="round"/>
<path d="M48.1455 31.7768C48.0657 29.0399 47.5876 26.7429 49.275 26.5372C50.9624 26.3315 50.7094 27.6228 50.0063 31.7768H48.1455Z" fill="black" stroke="black" stroke-width="2" stroke-linecap="round" stroke-linejoin="round"/>
<path d="M54.4551 24.6032C54.4551 27.1858 52.0385 28.9343 49.456 28.9343C46.8735 28.9343 44.4482 27.1858 44.4482 24.6032C44.4482 22.0207 46.8735 19.369 49.456 19.369C52.0385 19.369 54.4551 22.0207 54.4551 24.6032Z" stroke="black" stroke-width="2" stroke-linecap="round" stroke-linejoin="round"/>
</svg>
