<svg width="100" height="100" viewBox="0 0 100 100" fill="none" xmlns="http://www.w3.org/2000/svg">
<path d="M30.2486 21.7061C23.6597 21.715 20.1999 23.6215 18.9811 25.0766C17.5279 26.3281 19.0616 28.6828 24.6231 29.3025C33.5715 30.2995 41.6995 28.4536 42.7513 25.8626C43.8031 23.2716 38.4846 21.6949 30.2486 21.7061Z" stroke="black" stroke-width="2"/>
<path d="M19.9787 24.155C18.2837 25.266 15.6537 28.5436 19.6147 30.6812C21.8604 31.8931 23.8518 32.6339 28.0963 32.5767C28.6096 32.5697 27.5351 36.157 31.0716 35.9546C34.6081 35.7522 32.7203 32.4249 33.3948 32.3556C33.9922 32.2942 33.8389 32.2515 34.4786 32.1624C37.4079 31.7543 43.0794 29.8927 43.846 28.151C45.0888 25.3271 42.056 23.6303 40.6225 23.032" stroke="black" stroke-width="2"/>
<path d="M18.3098 30.2877C16.688 35.0762 15.0397 48.629 18.7111 59.0279C22.6741 70.2527 24.6844 73.0469 26.4615 74.1977C28.2386 75.3484 38.1782 76.0199 41.0907 72.8643C44.0032 69.7088 48.0901 55.8775 47.4525 45.651C46.9425 37.4699 44.6289 31.3447 43.5359 29.3047" stroke="black" stroke-width="2"/>
<path d="M25.0109 73.5994C24.3435 74.5355 22.9003 75.9513 24.3638 76.9566C26.6077 78.4978 32.3247 79.1069 37.7293 78.0338C43.1338 76.9607 43.2671 75.8047 43.5466 75.2481C43.8262 74.6915 42.7256 72.9816 41.7384 72.5384" stroke="black" stroke-width="2"/>
<path d="M23.9149 75.8306L25.3804 73.4758L27.8336 74.7983L33.6822 75.0408L39.3789 74.1429L41.8247 72.7898L43.4466 75.0158L42.6127 76.6839C41.3098 77.109 38.6696 77.9675 38.532 78.001C38.3944 78.0346 33.4915 78.5241 31.0573 78.7646L24.9542 77.4206L23.9149 75.8306Z" fill="black"/>
<path d="M20.6132 64.3833C25.7223 67.9077 38.101 68.888 44.9184 63.7936" stroke="black" stroke-width="2"/>
<path d="M16.8452 42.1869C19.9093 43.4487 24.4328 44.4582 29.7386 44.4682M47.0859 40.9253C45.7854 42.881 39.2644 43.936 33.1528 44.343" stroke="black" stroke-width="2"/>
<path d="M33.1537 41.7126C33.1147 41.4391 30.7789 41.4999 29.6507 41.6616C28.429 42.0564 30.6774 46.25 31.3852 46.2205C32.5525 46.1718 33.2024 42.0545 33.1537 41.7126Z" stroke="black" stroke-width="2" stroke-linecap="round"/>
<path fill-rule="evenodd" clip-rule="evenodd" d="M26.4607 44.4347L16.8716 42.4581L16.5245 44.3617L16.829 51.6617L18.3755 58.0568L21.1134 65.2553L28.3781 67.0242L34.9126 67.361L41.6093 65.7409L45.2644 64.2478L47.8188 52.4408L47.5041 44.8975L46.8271 41.8178L40.6957 43.8409L33.1067 44.5231L32.4173 45.5269L31.297 46.4267L29.6848 44.3002L26.4607 44.4347ZM19.4462 45.9478C19.96 45.7452 20.5408 45.9975 20.7434 46.5113C20.9128 46.9411 21.3893 47.7291 21.9009 48.4141C22.0561 48.6218 22.2023 48.8036 22.3309 48.9506C22.403 48.8933 22.4813 48.8307 22.564 48.7645L22.5641 48.7645C22.7906 48.5834 23.051 48.3752 23.3126 48.1727C23.6777 47.8901 24.076 47.5944 24.4396 47.3636C24.621 47.2485 24.8125 47.1375 24.9999 47.0508C25.1652 46.9744 25.4235 46.8705 25.7118 46.8585C26.1691 46.8394 26.5221 47.0836 26.6727 47.1956C26.8694 47.3417 27.0579 47.527 27.225 47.7071C27.5622 48.0705 27.9286 48.5411 28.2584 48.9719C28.3222 49.0553 28.3847 49.1371 28.4456 49.2171L28.4467 49.2184L28.4474 49.2193L28.4474 49.2194C28.6743 49.5169 28.881 49.7879 29.0644 50.013C29.2313 49.8354 29.4129 49.6293 29.6155 49.3994L29.6155 49.3994C29.7162 49.2851 29.8221 49.165 29.9339 49.0396C30.2901 48.6401 30.6971 48.1982 31.0991 47.8499C31.3009 47.675 31.5253 47.5026 31.7628 47.3677C31.9912 47.2379 32.3011 47.1026 32.6595 47.0877C32.9275 47.0765 33.1417 47.1623 33.2537 47.2149C33.3806 47.2745 33.4924 47.3478 33.5816 47.4125C33.7605 47.5423 33.9435 47.7078 34.1122 47.8714C34.4396 48.1887 34.8138 48.5983 35.154 48.9706L35.154 48.9706L35.1541 48.9706L35.1942 49.0145C35.3977 49.2372 35.5864 49.4431 35.7554 49.6209C36.0599 49.2058 36.446 48.694 36.8408 48.2075C37.2292 47.7289 37.6548 47.2387 38.0339 46.8896C38.2151 46.7228 38.4416 46.5352 38.6866 46.4107C38.8454 46.3301 39.5201 46.0237 40.0939 46.5516C40.2014 46.6505 40.3601 46.8164 40.5171 46.9806L40.6085 47.0761C40.8118 47.288 41.0416 47.5246 41.2753 47.7461C41.4619 47.923 41.6357 48.0757 41.7871 48.1923C41.9617 47.9419 42.1592 47.6078 42.3742 47.2326C42.4144 47.1625 42.4554 47.0905 42.497 47.0176C42.6832 46.6908 42.8792 46.3469 43.0542 46.0748C43.1604 45.9096 43.2845 45.7296 43.4178 45.5803C43.4839 45.5062 43.5773 45.411 43.6958 45.3266C43.8013 45.2514 44.0224 45.1153 44.3287 45.1025C44.8805 45.0795 45.3465 45.5081 45.3695 46.0599C45.3857 46.4482 45.1782 46.794 44.8616 46.9729C44.8309 47.0143 44.7894 47.074 44.7365 47.1563C44.5934 47.379 44.432 47.6618 44.2474 47.9856L44.2473 47.9858L44.2473 47.9858C44.2027 48.0639 44.1568 48.1444 44.1095 48.227C43.8799 48.6277 43.6166 49.0777 43.3589 49.4329C43.2313 49.6089 43.0783 49.7994 42.9054 49.9568C42.7653 50.0843 42.4486 50.3449 41.9995 50.3637C41.7038 50.376 41.4484 50.2902 41.2747 50.2142C41.0907 50.1338 40.9187 50.0286 40.7683 49.9244C40.4679 49.7163 40.1648 49.4493 39.8993 49.1975C39.654 48.965 39.4194 48.7249 39.2234 48.5212C38.9828 48.7649 38.6958 49.0955 38.3938 49.4677C37.654 50.3794 36.9356 51.4008 36.8099 51.5839C36.545 51.9696 36.1288 52.074 35.8158 52.0441C35.5694 52.0205 35.3802 51.92 35.2903 51.868C35.0918 51.7532 34.9025 51.5875 34.7562 51.4505C34.4453 51.1596 34.067 50.7457 33.7179 50.3638L33.7023 50.3468L33.7023 50.3467C33.342 49.9526 33.0031 49.5817 32.7202 49.3075C32.6795 49.268 32.642 49.2326 32.6078 49.2011C32.55 49.2436 32.4837 49.2965 32.4088 49.3615C32.1132 49.6175 31.7807 49.9735 31.4268 50.3705C31.3367 50.4716 31.2438 50.5769 31.1501 50.6832L31.1498 50.6836C30.8972 50.9702 30.6389 51.2633 30.4138 51.496C30.2577 51.6574 30.0857 51.8239 29.9125 51.9571C29.7897 52.0517 29.4717 52.2903 29.0543 52.3078C28.7418 52.3208 28.505 52.1982 28.4007 52.1376C28.2766 52.0655 28.1721 51.9801 28.0939 51.91C27.9358 51.7685 27.7762 51.5904 27.6308 51.4176C27.3904 51.1318 27.113 50.7679 26.844 50.4152L26.8438 50.4149L26.8417 50.4121C26.784 50.3364 26.7267 50.2613 26.6703 50.1876C26.3348 49.7493 26.0225 49.3515 25.7589 49.0674C25.7223 49.028 25.6888 48.9931 25.6584 48.9625C25.6141 48.9883 25.5651 49.0181 25.5113 49.0522C25.2282 49.2319 24.8888 49.4818 24.5367 49.7543C24.2884 49.9464 24.0492 50.1378 23.827 50.3154L23.8269 50.3155L23.8267 50.3156L23.8267 50.3157C23.7338 50.39 23.6439 50.4619 23.5575 50.5305C23.4155 50.6433 23.2803 50.7493 23.1654 50.8347C23.0761 50.9011 22.9231 51.0137 22.7747 51.0847C22.4808 51.2255 22.2022 51.2016 22.0303 51.1616C21.8601 51.122 21.7233 51.0516 21.6321 50.9973C21.4492 50.8884 21.2841 50.7432 21.1519 50.6145C20.8774 50.3472 20.5782 49.9853 20.2985 49.6109C19.7486 48.8746 19.1489 47.9198 18.8828 47.2449C18.6802 46.7312 18.9325 46.1504 19.4462 45.9478ZM25.8984 48.8419L25.8952 48.8429C25.8974 48.8421 25.8984 48.8418 25.8984 48.8419ZM25.4692 48.7931C25.455 48.7857 25.4475 48.7804 25.4473 48.7796C25.4471 48.7788 25.4542 48.7826 25.4692 48.7931ZM41.5592 48.4776C41.5401 48.4951 41.541 48.4906 41.5609 48.4762L41.5592 48.4776ZM42.0793 48.3832C42.0835 48.3846 42.0856 48.3855 42.0857 48.3856C42.0857 48.3857 42.0836 48.385 42.0793 48.3832ZM28.6535 50.399C28.6537 50.3982 28.6616 50.3925 28.6765 50.3843C28.6608 50.3957 28.6533 50.3998 28.6535 50.399ZM32.7102 54.0148C33.2383 53.9928 33.646 53.4853 33.6208 52.8814C33.5956 52.2775 33.1471 51.8058 32.619 51.8278C32.0909 51.8498 31.6833 52.3573 31.7085 52.9612C31.7337 53.5651 32.1822 54.0368 32.7102 54.0148ZM26.0676 52.4527C26.0904 52.9999 25.721 53.4597 25.2425 53.4797C24.764 53.4997 24.3576 53.0722 24.3348 52.525C24.312 51.9778 24.6814 51.518 25.1598 51.498C25.6383 51.4781 26.0447 51.9055 26.0676 52.4527ZM39.6532 52.8786C40.1317 52.8587 40.501 52.3989 40.4782 51.8516C40.4554 51.3044 40.049 50.877 39.5705 50.897C39.092 50.9169 38.7226 51.3767 38.7454 51.9239C38.7683 52.4712 39.1747 52.8986 39.6532 52.8786ZM19.6667 50.7187C19.6963 51.2656 19.4251 51.7249 19.0611 51.7446C18.697 51.7643 18.3779 51.3369 18.3483 50.79C18.3187 50.2432 18.5898 49.7838 18.9539 49.7641C19.3179 49.7444 19.6371 50.1718 19.6667 50.7187ZM45.5393 50.6401C45.9034 50.6204 46.1745 50.1611 46.1449 49.6142C46.1153 49.0673 45.7962 48.6399 45.4321 48.6596C45.0681 48.6793 44.7969 49.1387 44.8265 49.6856C44.8561 50.2324 45.1753 50.6598 45.5393 50.6401Z" fill="black"/>
<path d="M30.9224 34.1151L31.2227 41.3142" stroke="black" stroke-width="2" stroke-linecap="round"/>
<path d="M69.7514 21.7061C76.3403 21.715 79.8001 23.6215 81.0189 25.0766C82.4721 26.3281 80.9384 28.6828 75.3769 29.3025C66.4285 30.2995 58.3005 28.4536 57.2487 25.8626C56.1969 23.2716 61.5154 21.6949 69.7514 21.7061Z" stroke="black" stroke-width="2"/>
<path d="M80.0213 24.155C81.7163 25.266 84.3463 28.5436 80.3853 30.6812C78.1396 31.8931 76.1482 32.6339 71.9037 32.5767C71.3904 32.5697 72.4649 36.157 68.9284 35.9546C65.3919 35.7522 67.2797 32.4249 66.6052 32.3556C66.0078 32.2942 66.1611 32.2515 65.5214 32.1624C62.5921 31.7543 56.9206 29.8927 56.154 28.151C54.9112 25.3271 57.944 23.6303 59.3775 23.032" stroke="black" stroke-width="2"/>
<path d="M81.6902 30.2877C83.312 35.0762 84.9603 48.629 81.2889 59.0279C77.3259 70.2527 75.3156 73.0469 73.5385 74.1977C71.7614 75.3484 61.8218 76.0199 58.9093 72.8643C55.9968 69.7088 51.9099 55.8775 52.5475 45.651C53.0575 37.4699 55.3711 31.3447 56.4641 29.3047" stroke="black" stroke-width="2"/>
<path d="M74.9891 73.5994C75.6565 74.5355 77.0997 75.9513 75.6362 76.9566C73.3923 78.4978 67.6753 79.1069 62.2707 78.0338C56.8662 76.9607 56.7329 75.8047 56.4534 75.2481C56.1738 74.6915 57.2744 72.9816 58.2616 72.5384" stroke="black" stroke-width="2"/>
<path d="M76.0851 75.8306L74.6196 73.4758L72.1664 74.7983L66.3178 75.0408L60.6211 74.1429L58.1753 72.7898L56.5534 75.0158L57.3873 76.6839C58.6902 77.109 61.3304 77.9675 61.468 78.001C61.6056 78.0346 66.5085 78.5241 68.9427 78.7646L75.0458 77.4206L76.0851 75.8306Z" fill="black"/>
<path d="M79.3868 64.3833C74.2777 67.9077 61.899 68.888 55.0816 63.7936" stroke="black" stroke-width="2"/>
<path d="M83.1548 42.1869C80.0907 43.4487 75.5672 44.4582 70.2614 44.4682M52.9141 40.9253C54.2146 42.881 60.7356 43.936 66.8472 44.343" stroke="black" stroke-width="2"/>
<path fill-rule="evenodd" clip-rule="evenodd" d="M73.5393 44.4347L83.1284 42.4581L83.4755 44.3617L83.171 51.6617L81.6245 58.0568L78.8866 65.2553L71.6219 67.0242L65.0874 67.361L58.3907 65.7409L54.7356 64.2478L52.1812 52.4408L52.4959 44.8975L53.1729 41.8178L59.3043 43.8409L66.8933 44.5231L67.5827 45.5269L68.703 46.4267L70.3152 44.3002L73.5393 44.4347ZM66.3792 52.8814C66.354 53.4853 66.7617 53.9928 67.2898 54.0148C67.8178 54.0368 68.2663 53.5651 68.2915 52.9612C68.3167 52.3573 67.9091 51.8498 67.381 51.8278C66.8529 51.8058 66.4044 52.2775 66.3792 52.8814ZM74.7575 53.4797C74.279 53.4597 73.9096 52.9999 73.9324 52.4527C73.9553 51.9055 74.3617 51.4781 74.8402 51.498C75.3186 51.518 75.688 51.9778 75.6652 52.525C75.6424 53.0722 75.236 53.4997 74.7575 53.4797ZM59.5218 51.8516C59.499 52.3989 59.8683 52.8587 60.3468 52.8786C60.8253 52.8986 61.2317 52.4712 61.2546 51.9239C61.2774 51.3767 60.908 50.9169 60.4295 50.897C59.951 50.877 59.5446 51.3044 59.5218 51.8516ZM79.2566 46.5113C79.4592 45.9975 80.04 45.7452 80.5538 45.9478C81.0675 46.1504 81.3198 46.7312 81.1172 47.2449C80.8511 47.9198 80.2514 48.8746 79.7015 49.6109C79.4218 49.9853 79.1226 50.3472 78.8481 50.6145C78.7159 50.7432 78.5508 50.8884 78.3679 50.9973C78.2767 51.0516 78.1399 51.122 77.9697 51.1616C77.7978 51.2016 77.5192 51.2255 77.2253 51.0847C77.0769 51.0137 76.9239 50.9011 76.8346 50.8347C76.7197 50.7493 76.5845 50.6433 76.4425 50.5305C76.3561 50.4619 76.2662 50.39 76.1733 50.3157L76.1733 50.3156L76.1731 50.3155L76.173 50.3154C75.9508 50.1378 75.7116 49.9464 75.4633 49.7543C75.1112 49.4818 74.7718 49.2319 74.4887 49.0522C74.4349 49.0181 74.3859 48.9883 74.3416 48.9625C74.3112 48.9931 74.2777 49.028 74.2411 49.0674C73.9775 49.3515 73.6652 49.7493 73.3297 50.1876C73.2733 50.2613 73.216 50.3364 73.1583 50.4121L73.1562 50.4149L73.156 50.4152C72.887 50.7679 72.6096 51.1318 72.3692 51.4176C72.2238 51.5904 72.0642 51.7685 71.9061 51.91C71.8279 51.9801 71.7234 52.0655 71.5993 52.1376C71.495 52.1982 71.2582 52.3208 70.9457 52.3078C70.5283 52.2903 70.2103 52.0517 70.0875 51.9571C69.9143 51.8239 69.7423 51.6574 69.5862 51.496C69.3611 51.2633 69.1028 50.9702 68.8502 50.6836L68.8499 50.6832C68.7562 50.5769 68.6633 50.4716 68.5732 50.3705C68.2193 49.9735 67.8868 49.6175 67.5912 49.3615C67.5163 49.2965 67.45 49.2436 67.3922 49.2011C67.358 49.2326 67.3205 49.268 67.2798 49.3075C66.9969 49.5817 66.658 49.9526 66.2977 50.3467L66.2977 50.3468L66.2821 50.3638C65.933 50.7457 65.5547 51.1596 65.2438 51.4505C65.0975 51.5875 64.9082 51.7532 64.7097 51.868C64.6198 51.92 64.4306 52.0205 64.1842 52.0441C63.8712 52.074 63.455 51.9696 63.1901 51.5839C63.0644 51.4008 62.346 50.3794 61.6062 49.4677C61.3042 49.0955 61.0172 48.7649 60.7766 48.5212C60.5806 48.7249 60.346 48.965 60.1007 49.1975C59.8352 49.4493 59.5321 49.7163 59.2317 49.9244C59.0813 50.0286 58.9093 50.1338 58.7253 50.2142C58.5516 50.2902 58.2962 50.376 58.0005 50.3637C57.5514 50.3449 57.2347 50.0843 57.0946 49.9568C56.9217 49.7994 56.7687 49.6089 56.6411 49.4329C56.3834 49.0777 56.1201 48.6277 55.8905 48.227C55.8432 48.1444 55.7973 48.0639 55.7527 47.9858L55.7527 47.9858L55.7526 47.9856C55.568 47.6618 55.4066 47.379 55.2635 47.1563C55.2106 47.074 55.1691 47.0143 55.1384 46.9729C54.8218 46.794 54.6143 46.4482 54.6305 46.0599C54.6535 45.5081 55.1195 45.0795 55.6713 45.1025C55.9776 45.1153 56.1987 45.2514 56.3042 45.3266C56.4227 45.411 56.5161 45.5062 56.5822 45.5803C56.7155 45.7296 56.8396 45.9096 56.9458 46.0748C57.1208 46.3469 57.3168 46.6908 57.503 47.0176C57.5446 47.0905 57.5856 47.1625 57.6258 47.2326C57.8408 47.6078 58.0383 47.9419 58.2129 48.1923C58.3643 48.0757 58.5381 47.923 58.7247 47.7461C58.9584 47.5246 59.1882 47.288 59.3915 47.0761L59.4829 46.9806C59.6399 46.8164 59.7986 46.6505 59.9061 46.5516C60.4799 46.0237 61.1546 46.3301 61.3134 46.4107C61.5584 46.5352 61.7849 46.7228 61.9661 46.8896C62.3452 47.2387 62.7708 47.7289 63.1592 48.2075C63.554 48.694 63.9401 49.2058 64.2446 49.6209C64.4136 49.4431 64.6023 49.2372 64.8058 49.0145L64.8459 48.9706L64.846 48.9706L64.846 48.9706C65.1862 48.5983 65.5604 48.1887 65.8878 47.8714C66.0565 47.7078 66.2395 47.5423 66.4184 47.4125C66.5076 47.3478 66.6194 47.2745 66.7463 47.2149C66.8583 47.1623 67.0725 47.0765 67.3405 47.0877C67.6989 47.1026 68.0088 47.2379 68.2372 47.3677C68.4747 47.5026 68.6991 47.675 68.9009 47.8499C69.3029 48.1982 69.7099 48.6401 70.0661 49.0396C70.1779 49.165 70.2838 49.2851 70.3845 49.3994L70.3845 49.3994C70.5871 49.6293 70.7687 49.8354 70.9356 50.013C71.119 49.7879 71.3257 49.5169 71.5526 49.2194L71.5526 49.2193L71.5533 49.2184L71.5544 49.2171C71.6153 49.1371 71.6778 49.0553 71.7416 48.9719C72.0714 48.5411 72.4378 48.0705 72.775 47.7071C72.9421 47.527 73.1306 47.3417 73.3273 47.1956C73.4779 47.0836 73.8309 46.8394 74.2882 46.8585C74.5765 46.8705 74.8348 46.9744 75.0001 47.0508C75.1875 47.1375 75.379 47.2485 75.5604 47.3636C75.924 47.5944 76.3223 47.8901 76.6874 48.1727C76.949 48.3752 77.2094 48.5834 77.4359 48.7645L77.436 48.7645C77.5187 48.8307 77.597 48.8933 77.6691 48.9506C77.7977 48.8036 77.9439 48.6218 78.0991 48.4141C78.6107 47.7291 79.0872 46.9411 79.2566 46.5113ZM74.1016 48.8419L74.1048 48.8429C74.1026 48.8421 74.1016 48.8418 74.1016 48.8419ZM74.5308 48.7931C74.545 48.7857 74.5525 48.7804 74.5527 48.7796C74.5529 48.7788 74.5458 48.7826 74.5308 48.7931ZM58.4408 48.4776C58.4599 48.4951 58.459 48.4906 58.4391 48.4762L58.4408 48.4776ZM57.9207 48.3832C57.9165 48.3846 57.9144 48.3855 57.9143 48.3856C57.9143 48.3857 57.9164 48.385 57.9207 48.3832ZM71.3465 50.399C71.3463 50.3982 71.3384 50.3925 71.3235 50.3843C71.3392 50.3957 71.3467 50.3998 71.3465 50.399ZM80.3333 50.7187C80.3037 51.2656 80.5749 51.7249 80.9389 51.7446C81.303 51.7643 81.6221 51.3369 81.6517 50.79C81.6813 50.2432 81.4102 49.7838 81.0461 49.7641C80.6821 49.7444 80.3629 50.1718 80.3333 50.7187ZM54.4607 50.6401C54.0966 50.6204 53.8255 50.1611 53.8551 49.6142C53.8847 49.0673 54.2038 48.6399 54.5679 48.6596C54.9319 48.6793 55.2031 49.1387 55.1735 49.6856C55.1439 50.2324 54.8247 50.6598 54.4607 50.6401Z" fill="black"/>
<path d="M66.8464 41.7126C66.8854 41.4391 69.2212 41.4999 70.3494 41.6616C71.5711 42.0565 69.1922 46.2421 68.4844 46.2126C67.3171 46.1639 66.7977 42.0546 66.8464 41.7126Z" stroke="black" stroke-width="2" stroke-linecap="round"/>
<path d="M69.0776 34.1151L68.7773 41.3142" stroke="black" stroke-width="2" stroke-linecap="round"/>
</svg>
