<svg width="100" height="100" viewBox="0 0 100 100" fill="none" xmlns="http://www.w3.org/2000/svg">
<path d="M19.0129 68.6802C19.0129 69.5634 19.8375 70.1816 20.8121 70.1816C31.0072 70.0933 81.2832 70.3367 82.6326 69.8951C82.8822 69.8216 82.9413 69.5182 82.9541 69.4186C82.9568 69.3973 82.9575 69.3822 82.9583 69.3607C82.9834 68.6942 83.4783 55.4223 83.3322 51.634C83.2704 48.4322 83.3613 37.436 83.0598 32.7242C82.981 31.4915 82.0074 30.6782 80.7727 30.6436C74.3394 30.4637 54.4333 29.9363 47.1245 30.0835C40.4363 30.2182 26.7735 30.4042 20.6623 30.485C18.9735 30.5073 17.6445 31.9181 17.7122 33.6057L18.4882 52.9589L19.0129 68.6802Z" stroke="black" stroke-width="2" stroke-miterlimit="10"/>
<path d="M79.0115 75.1475H22.0547C18.1416 75.1475 18.3394 75.1475 18.202 73.6582L18.0071 68.2177C18.0071 67.6487 22.2042 69.1103 26.1173 69.1103L76.4028 69.3813C83.1295 69.3813 83.9462 68.2766 83.9462 68.8457V74.1055C83.9462 75.2523 82.9246 75.1475 79.0115 75.1475Z" fill="black"/>
<path d="M19.2375 69.3805C19.2375 69.3805 23.2856 65.4943 26.3591 62.7564C29.4327 60.0184 34.3803 56.4855 37.8287 52.9526C41.277 49.4198 44.0507 48.2716 45.1002 49.773C46.1497 51.2745 47.2741 58.9585 49.1482 58.0753C51.0973 57.1921 52.8215 56.3972 56.2698 52.6877C59.7182 48.8898 63.5414 42.8839 65.4904 41.8241C67.4395 40.7642 69.8384 39.4394 72.3871 41.6474C74.9359 43.9438 83.1359 61.3607 83.1359 61.3607" stroke="black" stroke-width="2" stroke-miterlimit="10"/>
<path d="M27.1763 36.6155C26.7744 36.8128 24.7647 37.7006 24.5637 40.8571C24.4633 44.0136 24.8652 45.3946 27.4778 46.6769C30.0904 47.9593 34.6122 47.4661 35.3156 45.7892C35.9185 44.1123 37.5262 42.4354 36.6219 39.9693C35.818 37.6019 32.703 34.2481 27.1763 36.6155Z" stroke="black" stroke-width="2" stroke-miterlimit="10"/>
<path d="M21.7426 24.3908L79.8187 24.3908C83.8087 24.3908 83.7471 24.7641 83.7471 25.445L84.0859 33.2802C84.0859 33.8492 81.6053 30.1569 75.3854 30.1569L24.4026 30.1568C19.5613 30.1568 16.711 33.904 16.711 33.335L16.4822 25.8191C16.4822 24.56 17.7527 24.3908 21.7426 24.3908Z" fill="black"/>
</svg>
