<svg width="100" height="100" viewBox="0 0 100 100" fill="none" xmlns="http://www.w3.org/2000/svg">
<path d="M60.8572 68.2409C42.8492 68.6569 19.7083 69.0689 19.7533 68.7399C20.1123 66.1229 18.4852 24.6909 20.1112 23.9019C21.7372 23.1129 81.2072 22.5319 81.3772 23.5259C81.6882 25.3369 81.7012 67.5649 80.5422 67.6999C80.0472 67.7579 72.6312 68.0059 68.5592 68.1189" stroke="black" stroke-width="2" stroke-miterlimit="10"/>
<path d="M60.0403 73.8508L60.8052 63.4648L70.5113 66.7338L67.5663 68.9998C67.5663 68.9998 70.1053 73.3218 70.8243 75.1918C71.1723 76.0968 67.7153 77.0138 67.7153 77.0138L63.6573 71.7288L60.0403 73.8508Z" stroke="black" stroke-width="2" stroke-miterlimit="10" stroke-linecap="round" stroke-linejoin="round"/>
<path d="M46.0342 41.9868C44.8912 42.3818 46.0743 55.2288 46.4003 56.0398C46.8983 57.2778 59.6163 49.9328 59.6433 49.2008C59.6733 48.4018 47.4822 41.4868 46.0342 41.9868Z" fill="black" stroke="black" stroke-width="2" stroke-miterlimit="10"/>
<path d="M19.8083 33.917L81.1183 31.683L81.1733 23.544C81.1733 23.544 79.0483 23.326 54.0703 23.121C30.9303 22.931 20.3223 24.028 20.3223 24.028C20.3223 24.028 19.5753 24.587 19.5873 29.038C19.5963 32.612 19.8083 33.917 19.8083 33.917Z" stroke="black" stroke-width="2" stroke-miterlimit="10" stroke-linecap="round" stroke-linejoin="round"/>
<path fill-rule="evenodd" clip-rule="evenodd" d="M48.1037 33.258C32.5287 33.085 19.279 34.2799 19.279 34.2799C19.279 34.2799 18.912 24.995 19.279 24.048C19.5958 23.2283 34.5301 23.0189 47.3233 22.9399C49.3093 22.9277 51.6668 22.9543 53.4797 22.94C66.9707 22.834 80.944 22.9399 80.944 22.9399L81.7475 31.5918C81.7475 31.5918 63.6787 33.432 48.1037 33.258ZM57.6538 29.2048C58.2078 29.2048 58.7347 28.9531 58.6903 28.1387C58.6903 27.5846 58.2313 27.0905 57.566 27.0905C57.012 27.0905 56.5628 27.5396 56.5628 28.0937C56.5628 28.6477 57.0997 29.2048 57.6538 29.2048ZM65.8892 29.3043C65.1233 29.3768 64.8664 28.8818 64.8457 28.3517C64.825 27.8216 65.3301 27.2874 65.8522 27.267C66.3744 27.2467 66.8145 27.6599 66.8351 28.19C66.86 28.8266 66.4114 29.284 65.8892 29.3043ZM72.879 28.0951C72.7634 28.6129 72.8852 29.157 73.6442 29.2828C74.1542 29.3967 74.7048 29.0692 74.8436 28.4475C74.9591 27.9297 74.6394 27.4177 74.1294 27.3038C73.6194 27.19 72.9945 27.5773 72.879 28.0951Z" fill="black"/>
<path d="M55 68.6216C55 68.6216 18.9727 70.9739 19 69.5326C19.0672 66.0898 19.1597 48.9067 19.1597 48.9067C19.1597 48.9067 18.6816 28.4702 21.1639 24" stroke="black" stroke-width="2" stroke-miterlimit="10" stroke-linejoin="round"/>
</svg>
