<svg width="100" height="100" viewBox="0 0 100 100" fill="none" xmlns="http://www.w3.org/2000/svg">
<path d="M57.9746 62.3428C59.5355 69.3795 62.9202 83.5332 63.9722 83.854C65.2872 84.255 66.7306 83.4846 66.0976 81.4533C65.5912 79.8283 62.787 67.7257 61.4482 61.8775" stroke="black" stroke-width="2"/>
<path d="M40.1981 61.4992C37.6 68.4011 33.1226 82.3662 32.9114 83.1371C32.6473 84.1006 35.3789 85.0377 36.4711 81.9445C37.345 79.4699 42.1033 67.1702 44.3733 61.3296" stroke="black" stroke-width="2"/>
<path d="M39.7451 72.2988L60.9952 72.2988" stroke="black" stroke-width="2"/>
<path d="M63.0349 81.4944L57.9746 62.417L61.472 61.9515L66.2514 81.8095L65.7304 83.631L64.0381 83.8562L63.0349 81.4944Z" fill="black"/>
<path d="M33.2972 82.5661L40.1465 61.1428L44.2763 61.6063L35.8945 83.1971L33.7635 83.9674L33.2972 82.5661Z" fill="black"/>
<path d="M68.9291 61.5978H31.4785C30.3437 61.5978 30.8609 58.0266 31.0027 57.1046C31.1446 56.1826 67.2268 56.8741 68.9291 57.1046C70.6314 57.3351 70.4895 61.5978 68.9291 61.5978Z" stroke="black" stroke-width="2"/>
<path d="M42.7673 24.8048C42.171 24.7372 42.4512 22.0073 42.6721 20.9075C42.8397 19.8984 55.2698 20.5997 57.127 20.5543C58.9843 20.5089 58.2267 23.7088 57.9966 24.4325C57.7665 25.1563 43.5127 24.8892 42.7673 24.8048Z" stroke="black" stroke-width="2"/>
<path d="M31.6614 59.4406C28.6841 59.4406 24.3584 59.4406 23.4653 59.4406C22.3488 59.4406 22.6837 22.9896 23.4653 22.9896C23.7803 22.9896 32.2938 22.8537 42.4114 22.7461M69.6776 59.4406C73.362 59.4406 75.694 59.4406 76.4978 59.4406C77.5027 59.4406 77.5027 23.8265 76.4978 22.9896C76.1072 22.6643 68.1246 22.5919 58.4655 22.625" stroke="black" stroke-width="2"/>
<path d="M48.3637 15.6526C47.8218 15.6526 48.1378 18.6524 48.3636 20.0071H51.9442V15.9428C51.9442 15.4105 49.041 15.6526 48.3637 15.6526Z" fill="black" stroke="black" stroke-width="2"/>
<path d="M46.2265 32.6587C45.7327 32.6587 46.4322 33.4383 46.8437 33.8282C49.3451 35.9072 48.468 33.8282 48.468 33.2434C48.468 32.6587 46.8438 32.6587 46.2265 32.6587H46.2265Z" fill="black" stroke="black" stroke-width="2"/>
<path d="M65.2937 39.468C63.7048 38.6735 62.7671 37.2831 61.1118 36.6871C59.345 36.0358 53.5043 30.8779 52.5111 31.5731C51.5179 32.2683 51.8864 35.3961 53.1774 36.6871C54.4685 37.9781 54.1706 39.468 54.1706 42.0501C54.1706 44.6322 54.9651 42.1494 56.3555 41.3549C57.7459 40.5604 60.1294 42.8446 60.8246 43.6391C61.5198 44.4336 61.6481 50.0515 61.9461 50.0515C62.244 50.0515 63.3074 48.8034 63.9033 47.413C64.4992 46.0226 66.2868 46.8171 67.0813 47.413C67.8758 48.0089 68.2731 50.1938 69.2662 51.2862C70.2594 52.3787 70.1774 49.2007 70.376 47.413C70.5746 45.6254 73.8787 47.1521 73.5807 45.9604C73.2828 44.7686 70.6566 43.3412 69.2662 42.8446C67.8758 42.348 67.28 40.4611 65.2937 39.468Z" fill="black" stroke="black" stroke-width="2"/>
<path d="M52.9575 49.5747C52.5121 49.4171 50.8341 47.647 52.7003 47.1529C54.5665 46.6588 54.9214 48.6765 54.775 49.1684C54.6285 49.6603 53.5143 49.7716 52.9575 49.5747Z" fill="black"/>
<path d="M30.7541 40.0909C30.055 42.5378 31.5721 43.8289 32.9704 44.4989C33.8971 45.0332 33.4329 50.2781 34.3942 51.4142C35.3554 52.5503 35.6479 49.0047 35.8227 47.519C35.9975 46.0334 39.2136 45.6586 41.4858 45.6586C43.7579 45.6586 42.3793 44.1523 41.4858 41.328C40.6686 38.7451 43.7404 38.2701 42.8665 36.8719C41.9926 35.4736 39.8426 35.0223 38.0074 34.8475C36.1722 34.6727 35.4731 32.2259 34.0749 31.5268C32.6766 30.8276 30.2297 32.8376 31.4532 34.2359C32.6767 35.6341 31.6279 37.0323 30.7541 40.0909Z" fill="black" stroke="black" stroke-width="2"/>
<path d="M42.2857 47.7516C39.7703 47.8923 40.8206 51.7261 39.5224 51.4778C37.9699 51.2884 39.2871 48.5588 38.2664 47.291C35.6706 44.067 38.9416 43.43 41.6173 42.6853C42.8055 42.3546 44.2974 44.36 46.3071 44.6112C48.3168 44.8624 48.6244 45.8535 48.6099 47.291C48.5996 48.3194 47.1523 49.2962 45.2604 49.0912C44.3363 48.991 43.3119 47.6942 42.2857 47.7516Z" fill="black" stroke="black"/>
<path d="M44.7377 27.6179C45.0854 27.7311 46.3758 29.0246 44.9002 29.4007C43.4245 29.7768 43.1786 28.2924 43.3018 27.929C43.4251 27.5656 44.3031 27.4763 44.7377 27.6179Z" fill="black"/>
</svg>
