<svg width="100" height="100" viewBox="0 0 100 100" fill="none" xmlns="http://www.w3.org/2000/svg">
<path d="M49.7178 62.3689C54.0861 55.8318 60.4039 45.4867 65.4252 38.2034C70.4465 30.9202 70.3513 30.3962 70.3513 29.8385C70.3513 29.2808 68.27 24.3918 72.2917 20.9445C76.8459 17.0408 82.6199 21.8453 83.0846 22.31C83.5493 22.7747 63.3805 51.1226 61.6145 53.818C60.2018 55.9743 55.3873 62.5857 53.1566 65.6219" stroke="black" stroke-width="2"/>
<path d="M53.7876 66.2961C53.5316 64.8025 51.1377 63.732 49.0936 62.1567C47.7206 61.6638 45.7799 65.8469 45.2173 66.6907C44.6547 67.5346 42.0453 66.5125 41.8536 67.1018C41.68 67.6356 43.1476 70.815 42.6975 71.4338C42.2474 72.0527 39.1949 70.6191 38.8019 71.1102C38.5431 71.4338 39.8283 74.7531 39.6033 75.3719C39.3783 75.9907 36.2279 74.8881 35.8903 75.3719C35.6376 75.7339 36.2279 77.791 36.2279 78.241C36.2279 78.6911 35.527 80.0327 34.9883 80.829C33.9673 82.3381 33.2418 82.6711 36.2279 83.4775C39.6034 84.3891 42.585 82.5729 44.329 80.8289C46.073 79.0849 53.9079 66.9974 53.7876 66.2961Z" fill="black" stroke="black" stroke-width="2"/>
<path d="M76.8633 19.7911C76.8633 19.4031 74.4289 15.9882 73.4201 16.2986C72.849 16.4743 65.2025 23.3541 58.1172 29.6248C52.6871 34.4306 50.5087 36.3889 45.9655 40.1119C41.4222 43.8348 37.2881 47.8041 34.3394 50.2872" stroke="black" stroke-width="2"/>
<path d="M38.3677 53.5086L70.1442 30.1825" stroke="black" stroke-width="2"/>
<path d="M34.2142 48.9586C35.5359 48.684 38.2308 52.9135 38.6728 53.7573C39.2562 54.8715 35.327 57.2133 34.5659 57.8836C33.8048 58.5539 35.2288 60.6097 35.017 61.2288C34.8051 61.848 31.1642 60.4426 30.6111 60.9713C30.0579 61.5 31.3725 64.5639 31.1297 64.8183C30.7226 65.2448 27.7049 64.2582 27.1217 64.5639C26.5385 64.8696 27.9161 67.5966 27.5753 68.4372C27.3775 68.9252 24.9918 67.8425 24.5458 67.9026C24.0998 67.9627 23.047 69.2245 22.3299 69.8647C20.9707 71.0783 20.7379 71.8436 19.5397 68.9919C18.1853 65.7685 19.5869 62.571 21.0822 60.6097C22.5776 58.6483 32.8924 49.2332 34.2142 48.9586Z" fill="black" stroke="black" stroke-width="2"/>
<path d="M74.5872 24.9292C74.2073 24.8293 74.1825 24.4981 74.3408 24.1899C74.6694 23.7381 75.0986 23.9377 75.1986 24.2875C75.2985 24.6373 75.062 25.0542 74.5872 24.9292Z" fill="black" stroke="black" stroke-width="2"/>
<path d="M76.5651 19.0566C74.8523 19.0566 72.749 19.6182 70.7991 21.8759C68.3617 24.698 69.5096 29.1268 69.9907 30.153" stroke="black" stroke-width="2"/>
</svg>
