<svg width="100" height="100" viewBox="0 0 100 100" fill="none" xmlns="http://www.w3.org/2000/svg">
<path d="M43.499 76.7207L81.0078 69.5814" stroke="black" stroke-width="2" stroke-miterlimit="10" stroke-linecap="round"/>
<path d="M81.9094 65.1102L81.6702 74.4575" stroke="black" stroke-width="2" stroke-miterlimit="10" stroke-linecap="round"/>
<path d="M38.1355 80.2995C38.1355 80.2995 18.5117 34.7959 17.6193 32.1187C16.7269 29.4415 16.7085 24.179 20.3885 22.339C22.5137 21.281 55.4316 15.8989 58.1181 15.8989C60.8045 15.8989 61.8533 18.7418 63.6381 21.419C65.4229 24.0962 83.6943 63.3254 82.8019 64.2178C81.9095 65.1102 49.7552 70.6302 46.1855 71.3662C42.6159 72.1023 40.8219 72.2587 39.1843 74.1079C37.5467 75.9571 36.3598 82.0844 41.7143 82.0844C42.5331 82.0844 46.6455 81.4679 52 80.5663" stroke="black" stroke-width="2" stroke-miterlimit="10" stroke-linecap="round"/>
<path d="M57.2533 74.1079C57.2533 74.1079 58.6885 76.0215 59.5809 77.7143C60.5561 79.5544 60.2157 83.6116 59.5809 82.9768C58.6885 82.0844 56.9037 80.2996 56.0113 80.2996C55.1189 80.2996 54.438 84.8996 53.518 83.9796C52.8832 83.3448 52.5704 81.1644 51.678 79.3796C50.7856 77.5947 48.8628 75.8283 48.8628 75.8283" stroke="black" stroke-width="2" stroke-miterlimit="10" stroke-linecap="round"/>
<path d="M49.4517 75.5891L57.4097 74.3195C57.4097 74.3195 59.949 77.5395 59.949 78.4595V82.1395L58.7989 82.2131L56.2689 80.2995L55.5329 80.6951L54.1805 83.7771H53.0857L52.2853 80.7963L49.8381 76.6195L49.4517 75.5891Z" fill="black"/>
<path d="M81.9093 69.5814C81.9093 69.5814 84.5865 73.1511 83.6941 74.0435C82.9305 74.8071 71.366 77.1255 60.5559 79.0667" stroke="black" stroke-width="2" stroke-miterlimit="10" stroke-linecap="round"/>
<path d="M81.9094 71.1545V74.5493L83.6942 74.0433V72.6633L82.6362 70.6393L81.9094 71.1545Z" fill="black"/>
<path d="M49.8379 60.0593L59.038 58.2193C63.638 57.2993 64.558 57.2993 64.558 57.2993" stroke="black" stroke-width="2" stroke-miterlimit="10" stroke-linecap="round"/>
<path d="M44.7781 56.3425C44.7781 56.3425 53.5918 54.3369 57.1982 53.6193L66.3983 51.7793" stroke="black" stroke-width="2" stroke-miterlimit="10" stroke-linecap="round"/>
<path d="M44.8514 48.7155C44.8514 48.7155 43.085 47.9887 45.8726 47.1515C48.6603 46.3143 60.234 42.3306 59.0472 44.4651" stroke="black" stroke-width="2" stroke-miterlimit="10" stroke-linecap="round"/>
<path d="M57.9892 38.0252C57.9892 38.0252 60.9424 35.6424 59.222 31.9072C57.5016 28.1719 53.84 27.1415 50.1047 28.8711" stroke="black" stroke-width="2" stroke-miterlimit="10" stroke-linecap="round"/>
<path d="M56.3241 36.4244C56.3241 36.4244 60.3353 43.3705 58.8357 44.7873C57.8881 45.6797 44.8515 50.8134 44.0143 48.0257C43.0575 44.8517 41.4475 41.5029 41.4475 41.5029" stroke="black" stroke-width="2" stroke-miterlimit="10" stroke-linecap="round"/>
<path d="M57.9064 44.7503L55.4868 44.3087L45.8727 47.1515L45.5967 48.7432L48.8259 48.4488L56.14 46.0935L57.9064 44.7503Z" fill="black"/>
<path d="M44.2761 39.5076C44.2761 39.5076 46.8587 36.6235 52.8565 36.6235" stroke="black" stroke-width="2" stroke-miterlimit="10" stroke-linecap="round"/>
<path d="M50.9697 30.7386C50.9697 30.7386 50.1141 26.111 44.64 26.8654C39.166 27.6198 38.8992 34.0598 38.8992 34.0598" stroke="black" stroke-width="2" stroke-miterlimit="10" stroke-linecap="round"/>
<path d="M38.9634 32.2198C38.9634 32.2198 34.7589 32.9375 34.2253 36.6819C33.0569 44.9344 41.3922 43.3428 41.3922 43.3428" stroke="black" stroke-width="2" stroke-miterlimit="10" stroke-linecap="round"/>
<path d="M17.5368 32.9335C17.5368 32.9335 15.1849 32.7274 16.5496 36.1391C18.3896 40.7391 23.7163 55.164 26.4763 60.6841C28.77 65.2715 34.223 81.3207 35.8698 82.1395C37.6492 82.9029 43.3413 81.9053 43.3413 81.9053" stroke="black" stroke-width="2" stroke-miterlimit="10" stroke-linecap="round"/>
<path d="M17.6378 32.459L16.7178 33.379L16.7454 36.2126L22.0446 49.2399L26.8287 60.0592L28.6687 64.6593L32.0451 73.4086L34.8695 80.419C34.8695 80.419 35.4215 82.9583 37.556 82.5535C39.6904 82.1487 41.5396 82.1487 41.5396 82.1487L38.7796 81.2287L36.2588 75.9662L30.6191 62.8561L26.0283 52.138L21.9066 42.4595L18.337 33.9586L17.6194 32.459H17.6378Z" fill="black"/>
</svg>
