<svg width="100" height="100" viewBox="0 0 100 100" fill="none" xmlns="http://www.w3.org/2000/svg">
<path d="M53.4632 31.3123C55.188 30.2686 56.4431 32.5873 55.4654 33.7132C54.2184 35.1491 52.4681 35.8375 50.4699 35.8246C49.6843 35.8195 48.3187 35.6128 47.586 35.3916C46.3267 35.0112 45.4737 34.318 44.8687 33.4821C44.0546 32.3571 45.0859 30.5415 47.0646 31.568C47.7417 31.9192 49.1131 32.368 50.352 32.3324C51.4973 32.2995 52.5961 31.8369 53.4632 31.3123Z" stroke="black" stroke-width="2" stroke-linecap="round" stroke-linejoin="round"/>
<path d="M44.8689 33.4824C45.4738 34.3183 46.3219 35.4573 47.5812 35.8376C48.3139 36.0589 49.6795 36.2656 50.4651 36.2707C52.4633 36.2836 54.2185 35.1494 55.4655 33.7135" stroke="black" stroke-width="2" stroke-linecap="round" stroke-linejoin="round"/>
<path d="M31.431 40.7297C30.9214 40.8234 30.4031 40.924 29.8773 41.0325C22.4186 42.5716 24.6554 52.3913 31.0578 52.3913C31.4471 52.3913 31.8129 52.3845 32.1627 52.3732M34.87 40.1726C38.5561 39.6486 41.4902 39.4404 43.0189 39.1069C38.9935 37.331 37.8922 32.6935 37.8922 28.651C37.8922 23.5309 42.8554 18.7754 50.0773 18.7754C57.1809 18.7754 62.3996 24.0333 62.2812 29.7164C62.1628 35.3995 60.0911 38.0924 57.9006 38.7145C60.5116 38.9099 63.0044 39.105 65.241 39.516M35.9528 52.1818C36.2481 52.1732 36.5538 52.1681 36.8747 52.1681C39.0058 52.1681 39.1946 54.3423 38.721 57.0654C38.4359 58.7047 36.7843 62.6545 35.24 66.2212M33.9212 69.2495C33.4337 70.3691 33.0178 71.3332 32.7435 72.0142C30.0844 78.6144 39.7153 82.8693 43.4138 77.261C43.8359 76.6208 44.3477 75.7877 44.8929 74.8889M46.6391 72.0142C47.2026 71.1008 47.7401 70.2564 48.1924 69.615C49.4935 67.7701 51.9972 67.5339 52.964 69.615C53.2844 70.3046 53.6549 71.1361 54.0502 72.0142M55.2335 74.5863C55.7075 75.5814 56.1817 76.519 56.619 77.261C60.4112 83.6946 70.5951 78.809 67.6431 71.5426C67.4325 71.0242 67.1357 70.2226 66.7878 69.2495M65.727 66.2212C64.3676 62.2847 62.8012 57.5972 62.2812 56.1561C61.595 54.2546 62.3842 52.3587 64.2804 52.0929M67.9018 52.3803C70.3019 52.5477 73.1989 52.0861 74.5405 47.726C75.7242 43.8787 72.873 41.5247 68.1037 40.1726" stroke="black" stroke-width="2" stroke-linecap="round" stroke-linejoin="round"/>
<path d="M44.2875 75.8055C43.6064 82.7781 31.5086 82.397 32.3071 73.8359" stroke="black" stroke-width="2" stroke-linecap="round" stroke-linejoin="round"/>
<path d="M67.6429 71.542C71.5171 81.0632 59.0382 84.683 56.6189 77.2604" stroke="black" stroke-width="2" stroke-linecap="round" stroke-linejoin="round"/>
<path d="M63.9539 69.521C65.1577 68.9709 67.388 69.662 67.1198 67.6932C66.8501 65.3873 63.8183 66.6653 62.4223 67.4713C61.4087 68.0565 61.702 68.3575 60.1963 69.2268C59.1014 69.859 58.0123 69.3049 56.8662 69.9666C55.6173 70.6876 55.5545 71.1311 54.6642 71.6452C52.3101 73.0043 54.7353 75.2585 56.3424 74.552C57.684 73.9622 57.11 73.0598 57.9788 72.5581C58.8476 72.0565 59.833 72.2471 60.8996 71.9209C61.9662 71.5947 62.8168 70.0407 63.9539 69.521Z" stroke="black" stroke-width="2" stroke-linecap="round" stroke-linejoin="round"/>
<path d="M36.8509 69.8315C35.6704 69.2327 33.7006 70.0138 34.0489 68.0575C34.4125 65.7646 36.8836 65.8796 38.2457 66.7419C39.2345 67.368 39.1884 68.1338 40.6574 69.0638C41.7256 69.7401 42.9004 68.6601 44.0185 69.368C45.237 70.1394 45.2176 71.156 46.0863 71.7059C48.383 73.16 45.8678 75.3133 44.2908 74.5418C42.9745 73.8978 42.6836 72.8719 41.836 72.3352C40.9884 71.7986 40.2252 72.2578 39.1728 71.8884C38.1204 71.5189 37.9658 70.3971 36.8509 69.8315Z" stroke="black" stroke-width="2" stroke-linecap="round" stroke-linejoin="round"/>
<path d="M46.6387 72.0141C49.1467 68.0791 51.8819 67.5425 54.0497 72.0141" stroke="black" stroke-width="2" stroke-linecap="round" stroke-linejoin="round"/>
<path d="M53.0094 55.1504C53.0094 56.4416 52.3139 57.4884 50.6714 57.4884C49.3802 57.4884 48.3335 56.4416 48.3335 55.1504C48.3335 54.167 49.3802 52.8125 50.6714 52.8125C52.4204 52.8125 53.0094 53.8592 53.0094 55.1504Z" stroke="black" stroke-width="2"/>
<path d="M53.0094 55.1494C53.0094 56.4406 52.7075 57.9919 50.8174 57.9919C48.9274 57.9919 48.3335 56.4406 48.3335 55.1494" stroke="black" stroke-width="2"/>
<path d="M38.721 57.0654C39.1945 54.3424 39.0581 51.582 36.927 51.582C36.6061 51.582 36.3004 51.5871 36.0051 51.5957" stroke="black" stroke-width="2" stroke-linecap="round" stroke-linejoin="round"/>
<path d="M62.2811 56.155C61.595 54.2534 61.9542 51.7267 63.8504 51.4609" stroke="black" stroke-width="2" stroke-linecap="round" stroke-linejoin="round"/>
<path d="M74.5404 47.7256C73.1988 52.0857 70.4011 51.8387 68.001 51.6712" stroke="black" stroke-width="2" stroke-linecap="round" stroke-linejoin="round"/>
<path d="M50.3306 43.661C51.6218 43.661 52.6685 44.3565 52.6685 45.999C52.6685 47.2902 51.6218 48.3369 50.3306 48.3369C49.3471 48.3369 47.9927 47.2902 47.9927 45.999C47.9927 44.25 49.0394 43.661 50.3306 43.661Z" stroke="black" stroke-width="2"/>
<path d="M52.6685 45.9988C52.6685 47.29 52.0991 48.9512 50.3751 48.9512C48.6512 48.9512 47.9927 47.29 47.9927 45.9988" stroke="black" stroke-width="2"/>
<path d="M29.8773 41.0322C22.4361 42.8054 24.5014 52.3129 31.9545 51.9207" stroke="black" stroke-width="2" stroke-linecap="round" stroke-linejoin="round"/>
<path d="M32.2623 43.1161C32.1368 41.7984 30.4231 40.5519 32.2623 39.7997C34.3941 38.8804 35.6188 41.0298 35.6188 42.6419C35.6188 43.8123 34.9471 44.183 34.9471 45.9216C34.9471 47.1859 36.488 47.6008 36.488 48.9242C36.488 50.3663 35.6188 50.8937 35.6188 51.9218C35.6188 54.6401 32.454 53.6669 32.2623 51.9218C32.1023 50.4651 32.8135 49.6705 32.8135 48.6673C32.8135 47.6641 32.0172 47.265 31.7664 46.1782C31.5156 45.0914 32.3808 44.3607 32.2623 43.1161Z" stroke="black" stroke-width="2" stroke-linecap="round" stroke-linejoin="round"/>
<path d="M32.2739 52.7686C32.4656 54.5137 35.6304 55.4868 35.6304 52.7686" stroke="black" stroke-width="2" stroke-linecap="round" stroke-linejoin="round"/>
<path d="M67.3312 42.8141C67.4567 41.4964 69.1704 39.9105 67.3312 39.1584C65.1994 38.239 64.7903 41.5036 64.7903 43.1156C64.7903 44.286 65.1977 44.1824 65.1977 45.921C65.1977 47.1854 64.1733 47.8515 64.1733 49.1749C64.1733 50.617 64.526 50.8931 64.526 51.9212C64.526 54.6395 67.6907 53.6663 67.8824 51.9212C68.0424 50.4645 66.9739 50.5104 66.9739 49.5072C66.9739 48.504 67.6316 47.7458 67.8824 46.659C68.1332 45.5722 67.2127 44.0587 67.3312 42.8141Z" stroke="black" stroke-width="2" stroke-linecap="round" stroke-linejoin="round"/>
<path d="M67.8826 52.3779C67.6909 54.123 64.5261 55.0962 64.5261 52.3779" stroke="black" stroke-width="2" stroke-linecap="round" stroke-linejoin="round"/>
<path d="M47.9186 26.6607C47.9186 27.7209 47.5257 28.5803 46.5976 28.5803C45.868 28.5803 45.2766 27.7209 45.2766 26.6607C45.2766 25.8533 45.868 24.7412 46.5976 24.7412C47.5859 24.7412 47.9186 25.6006 47.9186 26.6607Z" fill="black"/>
<path d="M53.3998 24.4371C54.1257 24.3648 54.7737 24.9029 54.914 26.3123C55.0242 27.4202 54.5251 28.377 53.7991 28.4492C53.2462 28.5043 52.3952 27.6819 52.2849 26.574C52.1355 25.0733 52.6738 24.5093 53.3998 24.4371Z" fill="black"/>
</svg>
