<svg width="100" height="100" viewBox="0 0 100 100" fill="none" xmlns="http://www.w3.org/2000/svg">
<path d="M16.0522 73.8463C16.0522 72.5281 15.9347 27.9309 16.0522 27.4706C16.1697 27.0104 29.2348 26.8831 50.5193 26.8831C81.8457 26.8831 83.6132 26.6779 83.6132 27.6391V50.3647C83.6132 60.5263 83.3386 74.6702 82.5147 74.6702H51.3432C26.3511 74.6702 16.0522 75.4941 16.0522 73.8463Z" stroke="black" stroke-width="2"/>
<path d="M40.834 46.3089C40.5247 45.4845 39.4827 39.5475 39.2681 36.112C39.1713 34.6192 52.9863 33.5633 53.8108 33.4883C54.6354 33.4133 55.684 41.8089 55.9089 42.7085C56.1338 43.608 55.0102 44.2075 53.8108 44.4324C52.6115 44.6573 41.2206 47.3395 40.834 46.3089Z" stroke="black" stroke-width="2"/>
<path d="M63.9568 45.247C63.2055 45.08 63.2162 39.6805 63.5293 37.0016C63.6072 36.3004 73.0371 37.0016 73.7677 37.0016C74.3522 37.0016 73.7677 44.6378 73.7677 45.247C73.7677 45.8561 64.7082 45.4139 63.9568 45.247Z" stroke="black" stroke-width="2"/>
<path d="M69.9825 61.4622C69.3312 61.3886 68.8529 56.8157 68.8762 54.5192C68.8789 53.9184 76.9268 53.6609 77.5454 53.595C78.0403 53.5422 78.2347 60.0608 78.2897 60.5766C78.3447 61.0924 70.6338 61.5358 69.9825 61.4622Z" stroke="black" stroke-width="2"/>
<path d="M47.2081 60.7723C45.5742 60.8785 47.759 54.8923 48.7103 52.2202C48.9552 51.5198 58.4558 54.4576 59.2046 54.6296C59.8037 54.7671 57.2641 62.3827 57.1208 63.0071C56.9774 63.6315 48.8421 60.6661 47.2081 60.7723Z" stroke="black" stroke-width="2"/>
<path d="M41.9586 36.6373C41.819 36.1225 41.1578 33.4339 41.1578 33.4339C41.0286 32.9171 42.0349 32.6348 42.6036 32.8502C43.1723 33.0655 43.3508 35.6387 43.5604 36.1225C43.7701 36.6063 42.0982 37.1521 41.9586 36.6373Z" stroke="black" stroke-width="2"/>
<path d="M50.1676 34.9874C50.028 34.4726 49.3668 31.784 49.3668 31.784C49.2376 31.2672 50.2439 30.9849 50.8126 31.2002C51.3812 31.4156 51.5597 33.9888 51.7694 34.4726C51.9791 34.9564 50.3072 35.5022 50.1676 34.9874Z" stroke="black" stroke-width="2"/>
<path d="M73.49 54.4546C73.5322 53.9229 73.8166 51.1688 73.8166 51.1688C73.8692 50.6387 74.9118 50.7123 75.3745 51.1069C75.8372 51.5014 75.1374 53.984 75.1716 54.5102C75.2059 55.0364 73.4478 54.9863 73.49 54.4546Z" stroke="black" stroke-width="2"/>
<circle cx="49.8328" cy="52.0813" r="2.29468" fill="black"/>
<circle cx="68.6775" cy="36.5344" r="2.29468" fill="black"/>
<path d="M42.9277 46.2668C43.1682 47.7779 45.1943 47.0567 53.4964 45.3911C57.3719 44.6136 56.7298 43.7596 56.6298 43.1074C55.8399 37.9563 56.1147 35.4836 54.741 36.0332" stroke="black" stroke-width="2"/>
<path d="M46.7144 58.8037C46.3826 59.999 46.2702 61.1152 46.7143 61.3224C47.2694 61.5813 55.0667 63.5807 55.3628 63.5807C55.5997 63.5807 56.6204 63.0706 56.8918 62.8485" stroke="black" stroke-width="2"/>
<path d="M22.1013 57.9026C21.1893 57.9241 21.5129 49.1036 21.7887 44.6907C21.8642 43.3871 30.797 44.1497 31.8411 44.4528C32.8852 44.7558 32.0216 56.4661 32.1537 57.6647C32.2857 58.8633 23.2413 57.8756 22.1013 57.9026Z" stroke="black" stroke-width="2"/>
<circle cx="23.5642" cy="43.7844" r="2.29468" fill="black"/>
<path d="M24.7749 57.7571C24.4842 59.3561 24.0771 61.0734 24.7749 61.1432C25.6472 61.2305 36.4629 62.5387 36.6374 61.1432C36.8118 59.7477 37.4224 48.6254 36.6374 48.3638C36.0094 48.1544 33.7903 47.8624 32.1331 47.7461" stroke="black" stroke-width="2"/>
<path d="M24.876 58.4363C25.088 58.4362 32.2067 58.7755 32.5036 58.4363C33.1683 57.6768 33.0615 50.04 33.2452 48.3018" stroke="black" stroke-width="2"/>
<path d="M65.873 45.5419C65.873 45.5419 65.5083 46.3932 65.873 46.3932C66.2378 46.3932 74.2952 46.7824 74.4249 46.3932C74.5546 46.004 74.8687 39.7462 74.9092 39.2195C74.9497 38.6927 75.0733 38.1359 74.154 38.103" stroke="black" stroke-width="2"/>
<path d="M17.9521 26.9162C17.7394 26.5172 18.0505 25.6188 19.3271 25.4273C20.9229 25.1878 82.6123 25.5815 83.8091 25.9006C85.006 26.2198 84.85 29.8451 84.85 36.0356C84.85 38.4293 84.498 70.6418 84.498 71.5993C84.498 72.3653 83.8065 72.5036 83.4607 72.477" stroke="black" stroke-width="2"/>
</svg>
