<svg width="100" height="100" viewBox="0 0 100 100" fill="none" xmlns="http://www.w3.org/2000/svg">
<path d="M33.1085 65.3237L71.2284 65.2102M30.4004 59.0945C30.7791 56.2743 31.2319 53.1437 31.6999 51.3461C32.6642 47.4951 34.1334 41.3027 36.0367 38.1466C37.9401 34.9906 41.2424 32.5739 43.6956 32.0386C46.1488 31.5034 55.1635 31.4423 57.7373 31.7074C60.3111 31.9724 64.9039 32.5341 66.8404 34.2061C68.7769 35.8781 70.0784 38.788 70.6201 41.1224C71.1619 43.4568 72.4177 48.9382 72.4177 48.9382" stroke="black" stroke-width="2" stroke-miterlimit="10"/>
<path d="M45.5219 58.5692L30.521 58.155L30.5212 58.705L38.3824 62.5993L45.5219 58.5692Z" fill="black" stroke="black" stroke-width="2" stroke-miterlimit="10"/>
<path d="M35.5771 39.0657C35.5771 39.0657 42.0197 40.1564 42.2016 46.2649C42.3834 52.3734 40.3225 54.0887 38.6716 54.5534C37.0207 55.0182 31.0413 55.203 31.0413 55.203C31.4579 52.6865 32.052 49.9015 32.8794 46.9104C33.7155 44.0198 34.6414 41.3913 35.5771 39.0657Z" stroke="black" stroke-width="2" stroke-miterlimit="10"/>
<path d="M29.6929 65.4399C32.7325 65.287 37.5264 63.9794 41.7487 61.2294C45.9711 58.4795 56.4788 50.5616 66.027 49.4042C75.5751 48.2468 83.1244 49.1468 88.362 52.6902C93.5981 56.2168 93.2138 60.8301 91.2191 62.9378C89.2244 65.0454 87.9824 65.0572 87.9824 65.0572L35.9682 65.287C35.9682 65.287 26.6533 65.5927 29.6929 65.4399Z" stroke="black" stroke-width="2" stroke-miterlimit="10"/>
<path d="M85.0182 67.5407C79.9585 68.6584 70.7635 69.5925 28.1213 67.5407C22.9591 67.2923 13.2329 66.2166 10.6566 65.0723C8.08026 63.928 43.6761 66.6283 43.7147 65.8261C56.7202 65.9919 66.7439 65.6934 75.4516 64.4935C89.292 65.1595 94.1459 64.1851 85.0182 67.5407Z" fill="black"/>
<path d="M37.7836 63.6546L32.0686 59.7694C32.0686 59.7694 31.3093 59.0577 25.9699 56.5688C20.4177 54.1522 16.5081 54.6267 14.5619 54.8717C12.6 55.118 8.3235 56.4707 9.17714 60.836C10.0308 65.2012 15.2982 65.3463 15.4558 65.3488L41.2415 65.3488" stroke="black" stroke-width="2" stroke-miterlimit="10"/>
<path d="M36.6106 45.4558C36.6892 43.9618 35.3328 43.0639 34.6448 42.8018L32.0889 50.2722C32.9408 50.4033 34.3932 50.4611 34.6448 50.2722C35.7651 49.4311 36.5123 47.3233 36.6106 45.4558Z" fill="black" stroke="black" stroke-width="2"/>
<path d="M67.147 42.8018L67.736 44.7155" stroke="black" stroke-width="2" stroke-linecap="round"/>
<path d="M63.6992 36.7021C64.199 37.1019 65.2784 38.1811 65.5981 39.3004" stroke="black" stroke-width="2" stroke-linecap="round"/>
</svg>
