<svg width="100" height="100" viewBox="0 0 100 100" fill="none" xmlns="http://www.w3.org/2000/svg">
<path d="M59.4351 68.5307L44.4961 68.3428" stroke="black" stroke-width="2" stroke-miterlimit="10" stroke-linecap="round" stroke-linejoin="round"/>
<path d="M59.8321 70.0723C58.3141 61.7184 74.3292 58.7628 74.9272 68.4834C75.0302 70.156 74.7322 71.5801 74.1542 72.7486C71.2482 78.6283 61.2791 78.037 59.8321 70.0723Z" stroke="black" stroke-width="2" stroke-miterlimit="10" stroke-linecap="round" stroke-linejoin="round"/>
<path d="M36.1402 62.4675C36.1402 62.4675 35.8922 42.5507 35.7662 40.4514C35.6792 38.9891 26.5652 39.4219 25.3222 40.2288C24.0792 41.0358 18.5292 55.9516 18.3972 57.2759C18.2662 58.6002 17.0012 69.5805 19.8062 70.0333C22.6102 70.486 29.2712 70.1587 29.2712 70.1587" stroke="black" stroke-width="2" stroke-miterlimit="10" stroke-linecap="round" stroke-linejoin="round"/>
<path d="M29.3501 70.1285C27.8331 61.7745 42.9391 59.1445 44.2961 68.326C44.5411 69.9838 44.3371 71.776 43.7111 72.9189C40.9261 77.9953 30.7971 78.0931 29.3501 70.1285Z" stroke="black" stroke-width="2" stroke-miterlimit="10" stroke-linecap="round" stroke-linejoin="round"/>
<path d="M35.2591 69.9658C35.2421 67.0451 39.1461 67.2277 39.0401 69.9705C38.9331 72.7134 35.2721 72.2576 35.2591 69.9658Z" fill="black" stroke="black" stroke-width="2" stroke-miterlimit="10" stroke-linecap="round" stroke-linejoin="round"/>
<path d="M65.7251 69.5752C65.7091 66.6545 69.6122 66.8371 69.5062 69.5799C69.3992 72.3228 65.7381 71.867 65.7251 69.5752Z" fill="black" stroke="black" stroke-width="2" stroke-miterlimit="10" stroke-linecap="round" stroke-linejoin="round"/>
<path d="M41.0201 63.4346L63.4312 63.3047" stroke="black" stroke-width="2" stroke-miterlimit="10" stroke-linecap="round" stroke-linejoin="round"/>
<path d="M72.4741 63.5004L81.4981 63.2148L81.6221 68.4053L74.9101 68.4115" stroke="black" stroke-width="2" stroke-miterlimit="10" stroke-linecap="round" stroke-linejoin="round"/>
<path d="M18.2352 62.3546C18.2352 62.3546 20.7042 62.1797 20.7982 63.719C20.8922 65.2582 20.8352 65.1443 20.7092 66.1307C20.5452 67.4148 18.2972 66.9549 18.2972 66.9549C18.2972 66.9549 18.0651 65.6215 18.0491 64.4715C18.0341 63.3214 18.2352 62.3546 18.2352 62.3546Z" stroke="black" stroke-width="2" stroke-miterlimit="10" stroke-linecap="round" stroke-linejoin="round"/>
<path d="M52.5292 63.048C52.5292 63.048 53.6682 57.9354 55.6882 57.882C57.7082 57.8285 75.2922 57.6482 76.3202 58.1624C77.3492 58.6766 78.9241 63.1232 78.9241 63.1232" stroke="black" stroke-width="2" stroke-miterlimit="10" stroke-linecap="round" stroke-linejoin="round"/>
<path d="M63.0042 57.8091C63.0042 57.8091 62.8382 52.9242 65.1642 52.7445C67.4912 52.5647 70.5912 52.5649 70.9742 54.2578C71.2682 55.5603 71.1692 57.7122 71.1692 57.7122L63.0042 57.8091Z" stroke="black" stroke-width="2" stroke-miterlimit="10" stroke-linecap="round" stroke-linejoin="round"/>
<path d="M27.3321 43.5263C25.3921 46.3094 22.9681 53.5755 23.5641 53.6733C24.7961 53.8756 32.5501 53.5931 32.5501 53.5931L32.4621 43.4277C32.4621 43.4277 28.0321 42.5216 27.3321 43.5263Z" fill="black" stroke="black" stroke-width="2" stroke-miterlimit="10" stroke-linecap="round" stroke-linejoin="round"/>
<path d="M69.2721 52.7808C69.2721 52.7808 47.8851 22.9975 46.5651 23C45.2441 23.0024 44.0811 23.5882 46.9451 27.3789C49.8091 31.1696 65.5251 52.5623 65.5251 52.5623C65.5251 52.5623 66.2521 52.5356 67.1881 52.5902C68.1251 52.6448 69.2721 52.7808 69.2721 52.7808Z" stroke="black" stroke-width="2" stroke-miterlimit="10" stroke-linecap="round" stroke-linejoin="round"/>
<path d="M46.4551 47.2718C42.7031 47.4635 41.5781 51.242 41.5521 53.0676C41.5301 54.5695 44.2981 53.5618 44.2981 53.5618C44.2981 53.5618 44.8131 50.8957 46.6591 50.658C48.5051 50.4204 49.0311 53.2769 49.0311 53.2769C49.0311 53.2769 51.7291 53.601 51.6391 52.6383C51.5501 51.6756 50.9201 47.0437 46.4551 47.2718Z" stroke="black" stroke-width="2" stroke-miterlimit="10" stroke-linecap="round" stroke-linejoin="round"/>
<path d="M45.1572 24.0557C45.1572 24.0557 46.3112 34.2991 46.2932 38.424C46.2752 42.5488 46.4892 46.8821 46.4892 46.8821" stroke="black" stroke-width="2" stroke-miterlimit="10" stroke-linecap="round" stroke-linejoin="round"/>
</svg>
