<svg width="100" height="100" viewBox="0 0 100 100" fill="none" xmlns="http://www.w3.org/2000/svg">
<path d="M26.2422 22.4046L22.0848 20.3059C21.9591 20.2425 21.8092 20.3237 21.7985 20.4641C21.5024 24.3724 22.4101 31.6618 28.3666 31.7107C34.3262 31.7596 35.0396 24.1705 34.639 20.0943C34.625 19.9522 34.47 19.8747 34.3455 19.9444L29.9686 22.3955C29.6528 22.5724 29.4572 22.9061 29.4572 23.268V24.3641C29.4572 24.5749 29.3906 24.7802 29.2669 24.9509L29.0389 25.2656C28.6833 25.7562 27.9765 25.8204 27.5384 25.4018L27.1008 24.9838C26.9033 24.7951 26.7915 24.5338 26.7915 24.2607V23.2973C26.7915 22.9199 26.5791 22.5747 26.2422 22.4046Z" fill="black"/>
<path d="M28.9424 31.2773C29.691 35.4241 33.1061 44.2157 40.432 44.2157" stroke="black" stroke-width="2"/>
<path d="M76.8256 21.6131L81.3585 20.5445C81.4955 20.5122 81.6223 20.6262 81.5998 20.7652C80.974 24.6344 78.3873 31.5096 72.5845 30.1647C66.7786 28.819 67.8592 21.2734 69.2016 17.4038C69.2484 17.269 69.4172 17.2298 69.522 17.3267L73.2046 20.7331C73.4703 20.9789 73.5825 21.3491 73.4978 21.701L73.2416 22.7667C73.1923 22.9716 73.2091 23.1869 73.2894 23.3817L73.4376 23.741C73.6687 24.3012 74.3408 24.5288 74.8647 24.2243L75.3879 23.9201C75.624 23.7828 75.7937 23.5549 75.8576 23.2894L76.0828 22.3527C76.171 21.9857 76.4583 21.6997 76.8256 21.6131Z" fill="black"/>
<path d="M72.4498 29.1561C72.4498 33.7183 68.0238 44.2148 60.6978 44.2148" stroke="black" stroke-width="2"/>
<path d="M40.3346 22.3566C42.8356 22.5233 48.4531 23.7682 48.4531 32.127" stroke="black" stroke-width="2" stroke-linecap="round"/>
<path d="M41.769 28.5132C42.3919 26.5061 46.3101 26.7604 47.5715 28.5131C49.0184 30.5234 49.1774 34.405 45.1429 34.6124C41.4296 34.8033 40.9905 31.0221 41.769 28.5132Z" stroke="black" stroke-width="2"/>
<path d="M60.1797 21.1787C57.6787 21.3455 52.6767 23.7686 52.6768 32.1274" stroke="black" stroke-width="2" stroke-linecap="round"/>
<path d="M59.3608 28.5132C58.738 26.5061 54.8198 26.7604 53.5583 28.5131C52.1115 30.5234 51.9525 34.405 55.987 34.6124C59.7003 34.8033 60.1394 31.0221 59.3608 28.5132Z" stroke="black" stroke-width="2"/>
<path d="M40.3754 43.8692C40.7812 37.8676 46.093 32.8252 50.043 32.8252C53.993 32.8252 59.4907 37.8676 59.8965 43.8691C60.2234 48.7046 60.2236 51.1223 58.0673 57.0686C55.9109 63.015 55.1918 64.1911 55.5839 68.4385C55.976 72.6859 58.0016 75.365 58.067 77.26C58.1323 79.155 58.0016 81.1806 56.4987 79.6777L56.4557 79.6347C54.954 78.1327 52.7713 75.9498 50.1824 75.9498C47.5686 75.9498 45.2761 78.1749 43.7731 79.6778C42.2702 81.1807 42.1395 79.155 42.2049 77.26C42.2702 75.3651 44.2959 72.6859 44.688 68.4386C45.08 64.1912 44.3609 63.015 42.2046 57.0687C40.0482 51.1224 40.0485 48.7046 40.3754 43.8692Z" stroke="black" stroke-width="2"/>
<path d="M56.0544 70.8203L44.6236 71.111C43.5371 72.4335 42.2145 77.9999 42.309 79.0391C42.4035 80.0783 43.726 79.3697 44.6235 78.6612C45.5209 77.9527 47.3158 76.0161 50.2444 75.7327C53.1729 75.4493 56.4793 79.3225 57.2823 79.7949C58.0853 80.2672 57.9436 76.8663 57.6129 75.7327C57.3484 74.8258 56.4637 72.0799 56.0544 70.8203Z" fill="black"/>
<path d="M49.9512 51.3694C46.8484 51.1509 43.2687 53.2448 41.8667 54.3191L44.9257 63.8785C47.7661 58.6782 54.048 60.0547 55.1951 63.8785L58.4726 53.6636C56.925 52.9899 53.054 51.5879 49.9512 51.3694Z" fill="black"/>
<path d="M50.0522 42.912C45.6706 42.912 41.5131 45.9351 40.2766 47.3289C39.5231 39.3197 44.4577 33.3719 50.0522 32.8418C57.4014 32.8418 59.6708 42.1072 59.8869 46.7399C58.4343 45.4639 54.4338 42.912 50.0522 42.912Z" fill="black"/>
<circle cx="2.5" cy="2.5" r="2.5" transform="matrix(-1 0 0 1 61 26)" fill="black"/>
<circle cx="42.5" cy="28.5" r="2.5" fill="black"/>
</svg>
