<svg width="100" height="100" viewBox="0 0 100 100" fill="none" xmlns="http://www.w3.org/2000/svg">
<path d="M25.9568 57.1168C24.4868 64.0368 35.6367 63.6088 35.7467 58.4198C35.8567 53.2298 27.2268 51.1658 25.9568 57.1168Z" stroke="black" stroke-width="2" stroke-miterlimit="10" stroke-linecap="round" stroke-linejoin="round"/>
<path d="M31.5368 57.3259C30.0668 64.2449 41.2169 63.8179 41.3269 58.6279C41.4369 53.4389 32.8068 51.3749 31.5368 57.3259Z" stroke="black" stroke-width="2" stroke-miterlimit="10" stroke-linecap="round" stroke-linejoin="round"/>
<path d="M20.9066 32.5221C22.6466 30.5021 27.0266 31.0751 27.0266 31.0751C27.0266 31.0751 37.2967 31.1571 47.3167 31.1841C60.6667 31.2211 72.7367 31.0801 72.7367 31.0801C72.7367 31.0801 77.3167 30.6511 79.0967 32.6131C80.0867 33.7091 80.1466 38.4671 80.1466 38.4671L80.5066 61.9831C80.5066 61.9831 80.3467 64.6521 79.0867 66.0841C77.8367 67.5161 75.4867 67.7121 75.4867 67.7121L26.7866 67.9371C26.7866 67.9371 22.6866 68.4361 20.7466 66.9221C18.7966 65.4081 19.0066 61.8811 19.0066 61.8811L19.3966 37.3101C19.3966 37.3101 19.2766 34.4271 20.9066 32.5221Z" stroke="black" stroke-width="2" stroke-miterlimit="10" stroke-linecap="round" stroke-linejoin="round"/>
<path d="M19.0166 62.4307C19.1266 64.6197 18.1266 69.2067 24.6866 69.3787C31.2366 69.5517 59.6067 69.5197 59.6067 69.5197C59.6067 69.5197 76.4266 70.1937 78.2566 68.3197C80.0866 66.4457 80.1366 65.0387 80.4166 62.7327" stroke="black" stroke-width="2" stroke-miterlimit="10" stroke-linecap="round" stroke-linejoin="round"/>
<path d="M53.2461 60.0337C58.8961 60.1724 65.0136 59.8956 70.6636 60.0342" stroke="black" stroke-width="2" stroke-miterlimit="10" stroke-linecap="round" stroke-linejoin="round"/>
<path d="M53.1641 55.8961C54.5914 55.7901 55.9667 55.8291 57.4467 55.8651C61.8967 55.9741 66.2667 55.7871 70.7267 55.8961" stroke="black" stroke-width="2" stroke-miterlimit="10" stroke-linecap="round" stroke-linejoin="round"/>
<path d="M19.6165 39.4287L80.0765 39.8717L80.2166 48.0627L19.3765 47.7417L19.6165 39.4287Z" fill="black" stroke="black" stroke-width="2" stroke-miterlimit="10" stroke-linecap="round" stroke-linejoin="round"/>
</svg>
