<svg width="100" height="100" viewBox="0 0 100 100" fill="none" xmlns="http://www.w3.org/2000/svg">
<path d="M77.5269 36.2363C79.3925 38.2286 83.1672 42.5284 83.3408 43.7889C83.558 45.3646 83.3948 47.4836 80.0804 47.4836C76.766 47.4836 73.1256 46.886 71.7129 45.908" stroke="black" stroke-width="2"/>
<path d="M69.2677 31.7266C71.5136 32.0163 76.2661 32.8893 77.3092 34.063C78.6131 35.5301 76.8743 36.6168 76.1679 37.4861C75.4616 38.3555 72.9079 41.3439 72.6905 43.7346C72.4732 46.1253 73.2339 46.3426 71.0605 47.049C68.8871 47.7553 63.8751 47.7631 62.6367 46.8179" stroke="black" stroke-width="2"/>
<path d="M25.3114 38.8997C24.5506 38.5918 23.5832 37.2478 25.8002 34.3355C28.5715 30.6951 35.4175 25.5877 37.8625 24.6097C40.3076 23.6317 44.1653 22.545 48.1317 25.6964C52.0982 28.8478 55.2495 36.0742 55.7929 41.2903C56.3362 46.5064 55.7929 51.1248 53.5108 51.8855C52.2434 52.308 51.8307 52.4623 51.3326 52.3484M49.8161 26.7286C52.1887 26.3302 57.8467 25.7072 61.498 26.4026C66.0621 27.272 69.6482 29.717 70.1372 30.6407C70.6262 31.5644 70.3545 32.3251 69.1591 33.1401C67.9638 33.9551 64.5407 37.7042 64.3234 40.5296C64.106 43.355 63.3454 47.5387 62.4217 48.4624C61.498 49.3861 57.4229 50.7988 54.8692 48.8971" stroke="black" stroke-width="2"/>
<path d="M78.3408 51.1545C81.0192 50.9887 86.3895 47.0612 82.0219 46.7079C79.9953 46.544 76.6163 47.0415 76.0441 47.0415H72.9147C71.1414 47.2055 67.5231 47.5333 67.237 47.5333C66.8794 47.5333 63.4817 47.5333 62.9453 47.9356C62.4088 48.338 59.9947 49.7686 59.637 49.7686H56.4182C55.688 50.2306 54.1382 51.2081 53.7805 51.4227C53.3335 51.6909 52.4392 52.138 52.1711 52.3168C51.9567 52.4599 50.9491 54.1647 50.4722 54.9992C50.7107 55.9529 51.2235 57.9408 51.3666 58.2627L52.4392 60.6769L55.4345 62.6439C54.8384 61.9733 53.539 60.3907 53.1101 59.4251C52.5741 58.218 52.8419 56.9663 53.1101 56.1168C53.3784 55.2674 53.9594 54.2392 55.9265 53.4792C57.8935 52.7192 59.0685 51.9592 61.4379 51.4227C63.8073 50.8862 66.0071 51.1545 68.3765 51.1545C70.7459 51.1545 74.0065 51.4227 78.3408 51.1545Z" fill="black"/>
<path d="M27.9795 61.882C26.094 60.343 22.9742 56.2033 22.2144 52.3204C21.2363 47.3216 21.508 42.1598 25.094 39.0628C27.0682 37.5414 32.5487 35.2377 38.6776 38.1935C46.3388 41.8882 51.4461 50.2557 51.5005 51.777C51.5548 53.2984 50.5768 55.0371 49.2184 55.1458" stroke="black" stroke-width="2"/>
<path d="M51.5732 60.9418C52.826 57.6533 49.2765 54.5736 43.5868 51.9636C37.8972 49.3537 31.0068 50.3455 28.8145 55.3566C26.6221 60.3676 28.0317 63.9171 33.4081 67.4144C37.7092 70.2123 42.1602 69.485 43.848 68.7716C44.0957 68.7135 44.3577 68.6225 44.63 68.5025" stroke="black" stroke-width="2"/>
<path d="M49.955 60.002C46.7395 58.6657 44.1263 61.7072 43.2216 63.395C41.7462 65.3644 42.9082 68.3017 45.1527 68.9281C47.3973 69.5545 54.7051 68.0407 56.1144 66.4225C57.5238 64.8044 53.9745 61.6724 49.955 60.002Z" stroke="black" stroke-width="2"/>
</svg>
