<svg width="100" height="100" viewBox="0 0 100 100" fill="none" xmlns="http://www.w3.org/2000/svg">
<path d="M30.148 42.1412C22.338 34.4482 19.888 31.4522 23.908 27.6632C27.928 23.8742 33.978 29.3162 39.458 34.0152C43.588 37.5602 49.018 42.0392 49.018 42.0392C49.018 42.0392 58.5381 32.0862 62.2181 27.0222C70.2281 15.9782 85.6281 24.8312 73.8481 37.3362C67.9481 43.5882 60.168 50.8052 60.168 50.8052C60.168 50.8052 66.4581 57.1202 73.8381 63.7752C80.0081 69.3372 70.978 82.1922 63.618 74.2622C56.258 66.3472 50.4779 61.0082 49.3579 61.7672C49.3579 61.7672 38.548 74.0832 36.048 76.1242C31.438 79.8922 24.928 73.0502 26.828 69.8392C29.778 64.8732 40.408 53.1442 39.928 52.3072C39.498 51.5522 33.938 45.8772 30.148 42.1412Z" stroke="black" stroke-width="2" stroke-miterlimit="10" stroke-linecap="round" stroke-linejoin="round"/>
<path d="M62.6476 73.5262L38.5576 73.8682" stroke="black" stroke-width="2" stroke-miterlimit="10" stroke-linecap="round" stroke-linejoin="round"/>
<path d="M42.0078 70.0196L49.4679 61.7346C49.4679 61.7346 50.5378 61.5116 53.6678 64.3416C56.3878 66.7926 59.1678 69.7546 59.1678 69.7546L42.0078 70.0196Z" fill="black" stroke="black" stroke-width="2" stroke-miterlimit="10" stroke-linecap="round" stroke-linejoin="round"/>
<path d="M68.1783 43.2246L68.2583 58.5446L60.2383 50.8216L68.1783 43.2246Z" fill="black" stroke="black" stroke-width="2" stroke-miterlimit="10" stroke-linecap="round" stroke-linejoin="round"/>
<path d="M31.0182 64.0269L30.1982 42.2549C30.1982 42.2549 39.7782 51.7459 39.8882 52.4129C40.0282 53.1879 31.0182 64.0269 31.0182 64.0269Z" fill="black" stroke="black" stroke-width="2" stroke-miterlimit="10" stroke-linecap="round" stroke-linejoin="round"/>
<path d="M72.2781 39.042L72.0381 61.6" stroke="black" stroke-width="2" stroke-miterlimit="10" stroke-linecap="round" stroke-linejoin="round"/>
<path d="M26.9075 69.3307C26.8975 67.2937 25.9375 38.2627 25.9375 38.2627" stroke="black" stroke-width="2" stroke-miterlimit="10" stroke-linecap="round" stroke-linejoin="round"/>
<path d="M35.918 30.9637L59.528 30.3877L49.0179 42.0507L35.918 30.9637Z" fill="black" stroke="black" stroke-width="2" stroke-miterlimit="10" stroke-linecap="round" stroke-linejoin="round"/>
<path d="M30.168 26.9765C30.808 27.0715 38.718 26.7115 38.718 26.7115L62.5079 26.1865" stroke="black" stroke-width="2" stroke-miterlimit="10" stroke-linecap="round" stroke-linejoin="round"/>
</svg>
