<svg width="100" height="100" viewBox="0 0 100 100" fill="none" xmlns="http://www.w3.org/2000/svg">
<path d="M56.1972 48.2782C56.1972 48.2782 55.2769 49.3529 51.8044 51.8945C48.3319 54.4352 44.1099 51.0003 45.8367 48.8116C48.0663 45.9968 51.3585 42.001 54.1195 42C56.8899 41.999 62.7153 44.3415 64.7267 48.0663C66.7476 51.79 64.2466 56.7619 62.9373 62" stroke="black" stroke-width="2" stroke-miterlimit="10" stroke-linecap="round" stroke-linejoin="round"/>
<path d="M54.3806 50.5518C54.3806 50.5518 54.7906 52.6028 56.6406 54.0398" stroke="black" stroke-width="2" stroke-miterlimit="10" stroke-linecap="round" stroke-linejoin="round"/>
<path d="M65.4373 50C65.4373 50 63.9021 41.9591 61.6747 36.349C59.4473 30.74 57.4373 27.5 57.4373 27.5" stroke="black" stroke-width="2" stroke-miterlimit="10" stroke-linecap="round" stroke-linejoin="round"/>
<path d="M54.0709 37.7136C54.0709 37.7136 58.211 23.2086 59.151 19.7806C60.081 16.3526 54.451 11.9526 52.231 18.0076C50.011 24.0626 45.321 36.7866 44.781 38.3386" stroke="black" stroke-width="2" stroke-miterlimit="10" stroke-linecap="round" stroke-linejoin="round"/>
<path d="M48.1911 45.8799C48.1911 45.8799 44.7312 36.8589 40.7512 36.6969C36.7712 36.5359 34.2611 41.8369 36.2011 44.5849" stroke="black" stroke-width="2" stroke-miterlimit="10" stroke-linecap="round" stroke-linejoin="round"/>
<path d="M34.5209 52.469C34.5209 52.469 38.5608 61.205 41.0608 59.106C43.5708 57.006 42.5909 51.589 40.8309 49.064C39.0709 46.539 33.5608 40.39 30.4308 48.69C28.4372 55.0005 33.8398 64.9335 37.9998 68.5005C40.4698 70.6195 40 70.5005 45.4372 72.0005" stroke="black" stroke-width="2" stroke-miterlimit="10" stroke-linecap="round" stroke-linejoin="round"/>
<path d="M38.9998 69.5C38.9998 69.5 42.9998 72 42.4207 77.4044C41.6807 82.8254 41.6906 82.9484 41.6906 82.9484" stroke="black" stroke-width="2" stroke-miterlimit="10" stroke-linecap="round" stroke-linejoin="round"/>
<path d="M62.9376 62C62.9376 62 61.9511 65 61.9511 73.0616C61.7111 75.4116 61.6812 76.0816 61.6512 77.6196C61.5712 81.4186 61.9611 82.9376 61.9611 82.9376" stroke="black" stroke-width="2" stroke-miterlimit="10" stroke-linecap="round" stroke-linejoin="round"/>
<path d="M41.6707 83.096C41.6707 83.096 67.7906 87.61 70.1906 83.919C72.5906 80.228 61.6506 77.334 61.6506 77.334C61.6506 77.334 61.6007 79.448 61.8007 81.443C62.0007 83.439 62.4506 85.315 62.4506 85.315C62.4506 85.315 57.3906 85.145 54.2506 84.803C49.1706 84.251 41.6707 83.096 41.6707 83.096Z" fill="black" stroke="black" stroke-width="2" stroke-miterlimit="10" stroke-linecap="round" stroke-linejoin="round"/>
<path d="M43.1912 55.4098C43.1912 55.4098 45.3512 57.2778 47.0212 56.3658C48.6812 55.4538 49.4712 54.0728 49.4412 53.2598" stroke="black" stroke-width="2" stroke-miterlimit="10" stroke-linecap="round" stroke-linejoin="round"/>
<path d="M51.3904 19.713C51.3104 20.105 49.3404 17.418 46.4504 18.736C43.4204 20.12 44.2305 22.399 48.5505 27.025" stroke="black" stroke-width="2" stroke-miterlimit="10" stroke-linecap="round" stroke-linejoin="round"/>
</svg>
