<svg width="100" height="100" viewBox="0 0 100 100" fill="none" xmlns="http://www.w3.org/2000/svg">
<path fill-rule="evenodd" clip-rule="evenodd" d="M24.0533 67.2756C30.3573 69.9634 38.2454 73.3267 54.7134 73.3267C79.9913 73.3267 81.2516 66.1527 75.6197 65.6229C48.4578 77.8978 28.7083 69.2806 22.9145 65.8949C22.821 65.847 22.7324 65.7932 22.6487 65.7342C21.5515 65.9253 21.2873 66.1647 22.1251 66.4614C22.7559 66.7224 23.396 66.9953 24.0533 67.2756Z" fill="black"/>
<path d="M54.7134 73.3267L54.7134 74.3267L54.7134 73.3267ZM24.0533 67.2756L23.6611 68.1954L23.6611 68.1954L24.0533 67.2756ZM75.6197 65.6229L75.7133 64.6273L75.4494 64.6025L75.2078 64.7117L75.6197 65.6229ZM22.9145 65.8949L23.419 65.0315L23.3952 65.0176L23.3706 65.005L22.9145 65.8949ZM22.6487 65.7342L23.2252 64.9171L22.886 64.6777L22.4771 64.749L22.6487 65.7342ZM22.1251 66.4614L22.5074 65.5373L22.4834 65.5274L22.4589 65.5187L22.1251 66.4614ZM54.7134 72.3267C38.4272 72.3267 30.6775 69.0128 24.4455 66.3557L23.6611 68.1954C30.0371 70.914 38.0637 74.3267 54.7134 74.3267L54.7134 72.3267ZM75.526 66.6185C76.8275 66.741 77.2772 67.2131 77.3469 67.3999C77.3661 67.4514 77.4961 67.9735 76.2004 68.8431C74.9749 69.6657 72.7735 70.5457 69.2495 71.215C65.7424 71.8811 60.9893 72.3267 54.7134 72.3267L54.7134 74.3267C61.0765 74.3267 65.9601 73.8755 69.6227 73.1799C73.2685 72.4875 75.7697 71.5409 77.315 70.5038C78.7901 69.5137 79.7591 68.143 79.2206 66.7004C78.7325 65.393 77.2278 64.7698 75.7133 64.6273L75.526 66.6185ZM22.4099 66.7583C28.3976 70.2573 48.4942 78.9787 76.0315 66.5342L75.2078 64.7117C48.4214 76.8169 29.0189 68.3039 23.419 65.0315L22.4099 66.7583ZM22.0721 66.5512C22.1939 66.6371 22.3227 66.7153 22.4583 66.7848L23.3706 65.005C23.3194 64.9788 23.2709 64.9493 23.2252 64.9171L22.0721 66.5512ZM22.4589 65.5187C22.2653 65.4502 22.2834 65.4311 22.3618 65.5005C22.4056 65.5393 22.5626 65.6887 22.6153 65.9622C22.6774 66.2849 22.5535 66.5463 22.4364 66.69C22.3401 66.8082 22.2469 66.8543 22.2455 66.8551C22.2329 66.8617 22.2447 66.8542 22.2954 66.8377C22.3969 66.8047 22.5668 66.7635 22.8203 66.7193L22.4771 64.749C22.182 64.8004 21.9075 64.8608 21.677 64.9357C21.5617 64.9732 21.4357 65.0212 21.3145 65.085C21.2044 65.1429 21.0318 65.2477 20.8862 65.4264C20.7198 65.6305 20.5769 65.9539 20.6513 66.3404C20.7163 66.6776 20.9168 66.8925 21.0365 66.9984C21.2667 67.2021 21.566 67.3242 21.7912 67.404L22.4589 65.5187ZM24.4455 66.3557C23.7891 66.0758 23.144 65.8007 22.5074 65.5373L21.7427 67.3854C22.3677 67.644 23.0028 67.9148 23.6611 68.1954L24.4455 66.3557Z" fill="black"/>
<path d="M75.9384 54.6546C76.2131 58.8497 76.3932 62.7192 76.4793 64.7367C76.5164 65.6067 75.987 66.3931 75.1588 66.6618C71.1463 67.964 59.0591 71.5342 47.9341 71.2523C34.7746 70.9188 21.5534 67.4425 21.5534 65.7171C21.5533 63.9918 22.7222 55.1907 22.7222 55.1907" stroke="black" stroke-width="2" stroke-miterlimit="10"/>
<path d="M27.1136 29.2049C27.7588 29.0888 37.4783 46.6959 37.4783 46.6959C37.4783 46.6959 49.4455 26.6942 51.8909 26.9696C54.3363 27.2451 61.8809 46.5593 61.8809 46.5593C61.8809 46.5593 72.9325 27.9553 73.732 28.0912C74.5315 28.227 75.0604 36.6259 75.3469 41.4476C75.5877 45.2642 76.0022 51.0522 75.9216 54.447C71.5553 56.6265 65.7934 57.674 58.1993 59.2218C48.0198 61.2965 34.9279 60.7455 22.8229 54.447C22.8229 54.447 26.4684 29.321 27.1136 29.2049Z" stroke="black" stroke-width="2" stroke-miterlimit="10"/>
<path d="M66.2297 38.5335C62.8249 30.1527 60.66 32.9214 58.6533 37.9826L61.839 45.1079L66.2297 38.5335Z" fill="black"/>
<path d="M58.1344 37.9311C58.1344 37.9311 61.9822 32.3676 62.7406 32.2509C63.499 32.1343 66.6138 38.4204 66.6138 38.4204" stroke="black" stroke-width="2" stroke-miterlimit="10"/>
<path d="M32.5353 37.6874C32.5353 37.6874 38.4388 29.3073 39.0746 29.3991C39.7104 29.4909 43.8213 37.0889 43.8213 37.0889" stroke="black" stroke-width="2" stroke-miterlimit="10"/>
<path d="M43.6654 37.7454L37.5434 45.4158L33.3652 37.7454C34.872 34.6057 37.5652 29.5089 39.626 30.4073C40.8872 30.9572 42.1009 34.5636 43.6654 37.7454Z" fill="black"/>
<path fill-rule="evenodd" clip-rule="evenodd" d="M53.3813 49.2448C53.3813 47.7183 52.1437 46.0275 50.6172 46.0275V44.7808C53.0826 44.7808 55.0813 46.7794 55.0813 49.2448C55.0813 51.7103 53.3813 53.2145 50.6172 53.6386V52.0089C52.1437 52.0089 53.3813 50.7714 53.3813 49.2448Z" fill="black"/>
<circle cx="50" cy="48.9995" r="4" stroke="black" stroke-width="2" stroke-miterlimit="10"/>
<path fill-rule="evenodd" clip-rule="evenodd" d="M31.685 48.2671C31.685 47.5579 31.1101 46.8364 30.4009 46.8364L30.4741 45.2129C32.0593 45.2129 33.385 46.6191 33.385 48.2671C33.385 49.9152 32.049 51.1956 30.4009 51.1956V49.5512C31.1101 49.5512 31.685 48.9763 31.685 48.2671Z" fill="black"/>
<ellipse cx="29.9995" cy="48.5" rx="2" ry="2.5" stroke="black" stroke-width="2" stroke-miterlimit="10"/>
<ellipse cx="70.001" cy="47.499" rx="2" ry="2.5" stroke="black" stroke-width="2" stroke-miterlimit="10"/>
<path fill-rule="evenodd" clip-rule="evenodd" d="M71.0061 47.5501C71.0061 46.8409 70.5131 45.9083 69.8039 45.9083L69.5544 44.2856C71.2025 44.2856 72.7061 45.902 72.7061 47.5501C72.7061 49.1982 71.37 50.5342 69.722 50.5342V48.8342C70.4312 48.8342 71.0061 48.2593 71.0061 47.5501Z" fill="black"/>
</svg>
