<svg width="100" height="100" viewBox="0 0 100 100" fill="none" xmlns="http://www.w3.org/2000/svg">
<path d="M17 44.9681C17 44.9681 30.3299 42.4048 34.8799 45.8665C39.4199 49.3283 39.6999 58.5973 55.5399 57.1165C71.3799 55.6357 72.7499 53.9056 74.1299 53.0101C77.6499 50.7332 82.58 47.5134 82.09 49.5173C81.61 51.5212 84.2299 66.4079 76.1599 68.6997C68.0899 70.9916 41.3799 72.8754 31.6599 69.2888C24.2499 66.5596 17 44.9681 17 44.9681Z" stroke="black" stroke-width="2" stroke-miterlimit="10" stroke-linecap="round" stroke-linejoin="round"/>
<path d="M81.3099 62.4131C81.3099 62.4131 75.8 66.3223 62.25 66.98C48.71 67.6377 25.4399 63.0483 25.4399 63.0483C25.4399 63.0483 28.2999 67.5171 30.5199 68.6799C32.1099 69.5208 35.19 70.5392 39.37 70.8711C48.86 71.6243 70.17 71.3383 76.73 68.4198C80.73 66.639 81.3099 62.4131 81.3099 62.4131Z" fill="black" stroke="black" stroke-width="2" stroke-miterlimit="10" stroke-linecap="round" stroke-linejoin="round"/>
<path d="M28.0101 52.4038C29.1901 54.0118 30.4602 52.0089 29.4902 50.8843C28.5002 49.744 26.1901 49.9419 28.0101 52.4038Z" fill="black" stroke="black" stroke-width="2" stroke-miterlimit="10" stroke-linecap="round" stroke-linejoin="round"/>
<path d="M48.28 46.864L75.4801 46.7373L78.3501 49.746" stroke="black" stroke-width="2" stroke-miterlimit="10" stroke-linecap="round" stroke-linejoin="round"/>
<path d="M33.02 44.8823C33.02 44.8823 38.9101 40.3091 41.3401 39.9419C44.4101 39.4777 64.79 40.8801 64.79 40.8801L68.9501 46.2215" stroke="black" stroke-width="2" stroke-miterlimit="10" stroke-linecap="round" stroke-linejoin="round"/>
<path d="M44.8501 39.3984L45.2201 33.5445C46.6601 33.0128 59.3201 35.1935 59.3201 35.1935L59.2101 40.1396" stroke="black" stroke-width="2" stroke-miterlimit="10" stroke-linecap="round" stroke-linejoin="round"/>
<path d="M62.75 39.6454C62.75 39.6454 63.4099 30.8738 63.5099 29.2417C63.5899 27.9896 73.7499 27.0996 74.2599 29.556C74.5499 30.9444 73.7699 46.3968 73.7699 46.3968" stroke="black" stroke-width="2" stroke-miterlimit="10" stroke-linecap="round" stroke-linejoin="round"/>
<path d="M65.1998 28.9252C65.1998 28.9252 73.4099 28.4565 73.7199 29.3311C74.0199 30.2057 71.2598 30.3431 69.3998 30.3492C66.8598 30.3575 62.2598 29.4755 65.1998 28.9252Z" stroke="black" stroke-width="2" stroke-miterlimit="10" stroke-linecap="round" stroke-linejoin="round"/>
</svg>
