<svg width="100" height="100" viewBox="0 0 100 100" fill="none" xmlns="http://www.w3.org/2000/svg">
<path d="M19.5671 33.8345C16.8571 29.7345 24.5871 28.9845 27.4071 26.8085C30.2271 24.6365 32.0172 19.7585 34.8472 21.1905C37.6772 22.6215 37.1471 28.5145 33.0671 31.9045C28.9871 35.2945 22.0971 37.6745 19.5671 33.8345Z" stroke="black" stroke-width="2" stroke-miterlimit="10" stroke-linejoin="round"/>
<path d="M24.4473 35.8141C24.4473 35.8141 30.2673 44.1242 33.0173 47.9542C36.6173 52.9342 41.4372 56.8842 43.7772 57.6342C46.1172 58.3842 48.0372 57.9642 48.0372 57.9642C48.0372 57.9642 53.3173 66.2342 55.8273 69.6942C58.5173 73.4142 60.3973 76.5441 61.6073 78.0541C63.1973 80.0641 64.4273 78.5142 64.2473 77.4942C63.8673 75.3342 60.2573 70.5941 58.0173 67.2941C54.9873 62.8441 50.8473 55.7342 50.8473 55.7342C50.8473 55.7342 51.9973 53.0542 51.1873 50.0942C50.2273 46.5442 47.1573 42.2542 45.3773 39.6942C43.5973 37.1442 36.4272 26.3682 36.4272 26.3682" stroke="black" stroke-width="2" stroke-miterlimit="10" stroke-linejoin="round"/>
<path d="M61.8473 78.9043C61.8473 78.9043 61.1372 79.3543 61.9672 80.7643C62.7972 82.1643 64.3672 83.4643 65.0372 83.3943C65.4272 83.3443 68.0472 82.0343 67.7072 80.9043C67.3472 79.7143 66.8573 78.2143 65.8573 77.3143C64.8673 76.4043 64.4672 76.8243 64.4672 76.8243C64.4672 76.8243 64.5873 78.5344 63.7673 78.9944C62.9573 79.4544 61.8473 78.9043 61.8473 78.9043Z" stroke="black" stroke-width="2" stroke-miterlimit="10" stroke-linejoin="round"/>
<path d="M28.7971 34.5842C28.7971 34.5842 32.4771 41.1942 33.1771 42.0742C33.8771 42.9442 34.0072 43.8342 35.1272 43.1242C36.2472 42.4042 40.7272 39.4942 40.7272 39.4942C40.7272 39.4942 38.8071 36.4142 37.5671 34.8842L34.4171 30.5742" stroke="black" stroke-width="2" stroke-miterlimit="10" stroke-linejoin="round"/>
<path d="M36.1472 46.4042C36.1472 46.4042 39.4371 50.3642 41.0471 51.8242C42.6671 53.2742 45.7772 55.1642 47.1472 54.1342C48.5272 53.1042 47.3172 48.4342 46.0072 46.2642C44.9872 44.5842 43.1771 42.0342 43.1771 42.0342L36.1472 46.4042Z" stroke="black" stroke-width="2" stroke-miterlimit="10" stroke-linejoin="round"/>
<path d="M25.5471 37.0942L28.9271 36.0342" stroke="black" stroke-width="2" stroke-miterlimit="10" stroke-linejoin="round"/>
<path d="M35.4971 31.6349L37.407 28.0039" stroke="black" stroke-width="2" stroke-miterlimit="10" stroke-linejoin="round"/>
<path d="M50.0072 24.804C48.7472 20.058 56.3171 21.8 59.6771 20.636C63.0371 19.471 66.2772 15.415 68.5172 17.672C70.7472 19.929 68.3671 25.348 63.4271 27.268C58.4771 29.185 51.1872 29.255 50.0072 24.804Z" stroke="black" stroke-width="2" stroke-miterlimit="10" stroke-linejoin="round"/>
<path d="M54.0073 28.2349C54.0073 28.2349 55.9273 34.0049 57.3273 38.5049C59.1473 44.3749 62.9372 51.0649 64.9172 52.5249C66.8972 53.9749 68.8473 54.1949 68.8473 54.1949C68.8473 54.1949 71.2373 63.7049 72.5073 67.7849C73.8873 72.1649 74.6773 75.7349 75.3373 77.5549C76.2073 79.9649 77.8573 78.885 78.0173 77.855C78.3473 75.695 76.4273 70.045 75.3473 66.205C73.8873 61.025 72.2273 52.975 72.2273 52.975C72.2273 52.975 74.5073 51.655 74.6873 48.585C74.8973 44.925 73.5173 39.9849 72.6473 36.9949C71.7673 34.0049 68.3673 23.085 68.3673 23.085" stroke="black" stroke-width="2" stroke-miterlimit="10" stroke-linejoin="round"/>
<path d="M75.2972 78.4345C75.2972 78.4345 74.4772 78.6346 74.8172 80.2346C75.1672 81.8246 75.8873 83.1445 76.8873 83.6945C77.2373 83.8845 79.9772 83.6845 80.1972 82.5345C80.4772 81.0145 80.2572 79.3645 79.6072 78.1945C78.9472 77.0245 78.4472 77.2945 78.4472 77.2945C78.4472 77.2945 78.0072 78.9546 77.0772 79.1346C76.1672 79.3046 75.2972 78.4345 75.2972 78.4345Z" stroke="black" stroke-width="2" stroke-miterlimit="10" stroke-linejoin="round"/>
<path d="M61.4972 39.7451C61.5472 40.5751 63.1172 44.2551 64.1772 46.1451C65.2472 48.0351 67.8971 50.9151 69.5271 50.3751C71.1571 49.8351 71.6072 46.9951 70.7272 43.5451C70.2372 41.6451 69.3072 37.5352 69.3072 37.5352C69.3072 37.5352 61.4572 39.0051 61.4972 39.7451Z" stroke="black" stroke-width="2" stroke-miterlimit="10" stroke-linejoin="round"/>
<path d="M54.6472 29.7949L58.1871 29.8649" stroke="black" stroke-width="2" stroke-miterlimit="10" stroke-linejoin="round"/>
<path d="M58.5171 28.4547C58.5171 28.4547 59.3471 31.9947 59.6371 33.0747C60.1171 34.8447 60.407 36.2747 61.697 35.9547C62.987 35.6347 67.787 34.3547 67.787 34.3547C67.787 34.3547 67.4371 33.3647 66.7371 31.5147L65.1271 26.4287" stroke="black" stroke-width="2" stroke-miterlimit="10" stroke-linejoin="round"/>
<path d="M65.8071 27.7783L68.7771 24.9453" stroke="black" stroke-width="2" stroke-miterlimit="10" stroke-linejoin="round"/>
</svg>
