<svg width="100" height="100" viewBox="0 0 100 100" fill="none" xmlns="http://www.w3.org/2000/svg">
<path d="M51.4149 41.7292L22.2679 31.4853C22.2029 31.4624 22.1348 31.5107 22.1348 31.5796V69.3606C22.1348 69.4011 22.1601 69.438 22.1976 69.4534C33.8129 74.2253 40.3722 76.4291 52.1298 79.6966" stroke="black" stroke-width="2"/>
<path d="M81.1836 31.5796C81.1836 31.5107 81.1155 31.4624 81.0504 31.4853L51.9703 41.7057C51.9302 41.7198 51.9034 41.7576 51.9034 41.8V79.5881C51.9034 79.6538 51.9674 79.7012 52.0309 79.6842C64.4247 76.3677 70.948 74.161 81.1249 69.4547C81.1603 69.4384 81.1836 69.4026 81.1836 69.3637V31.5796Z" stroke="black" stroke-width="2"/>
<path d="M22.6182 69.8127L51.9185 59.2454C51.94 59.2376 51.9635 59.2375 51.9852 59.245L80.5156 69.1396" stroke="black" stroke-width="2"/>
<path d="M52.1431 20.667V30.3809M52.1431 30.3809L36.1458 35.8409C36.1071 35.8541 36.0803 35.8905 36.0782 35.9313C35.457 47.8529 35.4804 54.1332 36.0779 64.5516C36.0802 64.592 36.1067 64.6278 36.145 64.6411L52.109 70.1855C52.1311 70.1931 52.1551 70.1928 52.1769 70.1847L66.988 64.6424C67.0258 64.6283 67.0514 64.5922 67.0529 64.552C67.4589 54.2605 67.461 47.9743 67.0526 35.9309C67.0512 35.8903 67.0253 35.8536 66.9871 35.8395L52.1431 30.3809Z" stroke="black" stroke-width="2"/>
<path d="M53.7753 82.0279C50.8051 81.3744 30.6623 73.6115 21.9736 70.0471L51.7524 79.6266C60.7626 76.4334 79.6366 69.9126 81.4006 69.3834C81.9996 69.2036 82.5434 69.5632 86.279 70.784C88.2872 71.4403 79.0102 74.0318 76.9309 75.22C74.8516 76.4081 67.1033 79.0273 63.056 80.4229C59.3095 81.7148 57.4881 82.8447 53.7753 82.0279Z" fill="black"/>
<path d="M22.1348 31.4942L52.0939 20.2897C52.1169 20.2811 52.1422 20.2812 52.165 20.2901L81.2162 31.5212" stroke="black" stroke-width="2"/>
</svg>
