<svg width="100" height="100" viewBox="0 0 100 100" fill="none" xmlns="http://www.w3.org/2000/svg">
<path d="M21.8776 56.3574C24.7253 59.8156 31.6199 68.7865 33.0696 70.1937C35.2022 72.2636 37.27 73.7142 41.2408 73.5876C45.2116 73.4611 62.0529 73.9861 64.0835 73.5876C69.2915 72.5658 74.0014 64.4313 76.5862 60.7212C77.4924 59.4204 78.1391 58.3689 78.9749 56.6521" stroke="black" stroke-width="2" stroke-miterlimit="10" stroke-linecap="round"/>
<path d="M27.3511 55.7847C24.8288 57.726 20.6503 55.9904 18.531 54.658C13.1585 51.2801 13.7653 43.6425 16.4808 41.1952C19.9415 38.0762 22.301 40.0656 24.4174 36.4887C26.0964 33.651 29.8798 35.2688 31.6054 36.4587C31.6293 36.4752 31.6609 36.468 31.6759 36.4431L33.0595 34.1355C34.7165 31.3719 40.4744 32.0534 42.8815 34.1355C43.0722 34.3004 43.624 31.6315 49.55 30.6526C55.4591 29.6764 61.0409 33.2364 63.1128 35.1543C63.1234 35.1642 63.1383 35.1649 63.1499 35.1563C64.0447 34.4928 66.2479 33.1941 68.0688 33.1941C69.8904 33.1941 71.8049 36.1032 72.5509 37.5876C72.5592 37.6041 72.5789 37.6091 72.5941 37.5986C73.4137 37.0303 75.7403 36.042 78.7391 36.4887C81.7615 36.9388 82.1752 41.4131 82.0038 43.6182C82.0027 43.6327 82.0114 43.645 82.0254 43.6489C82.8591 43.8808 84.6541 44.8679 85.3529 47.0312C86.2347 49.761 84.2065 55.2205 78.7391 56.6277C74.4039 57.7435 70.2256 52.7534 68.6326 50.0499C68.6132 50.017 68.5669 50.017 68.5468 50.0495C68.1332 50.7171 64.8064 55.8399 59.6406 56.6277C55.3083 57.2884 51.2398 52.6696 49.6461 50.1331C49.619 50.0899 49.5499 50.1108 49.5477 50.1618C49.4784 51.8297 48.0872 55.1844 42.8815 56.6277C37.5497 58.1059 32.8611 52.9614 31.1067 50.0947C31.0822 50.0547 31.0202 50.0672 31.0107 50.1131C30.8761 50.7646 30.1436 53.6354 27.3511 55.7847Z" stroke="black" stroke-width="2" stroke-miterlimit="10" stroke-linecap="round"/>
<rect x="56.0001" y="47" width="7" height="7" rx="1" transform="rotate(-17.7898 56.0001 47)" fill="black"/>
<rect x="73.0001" y="42" width="7" height="7" rx="1" transform="rotate(11.2633 73.0001 42)" fill="black"/>
<rect x="38.0001" y="39" width="7" height="7" rx="1" transform="rotate(40.7989 38.0001 39)" fill="black"/>
<rect x="20.0001" y="34" width="10" height="10" rx="1" transform="rotate(31.0645 20.0001 34)" fill="black"/>
<rect x="49.0001" y="31" width="7" height="7" rx="1" transform="rotate(-42.6848 49.0001 31)" fill="black"/>
<path d="M79.4886 75.6056C76.3593 77.5942 64.551 80.3368 44.2179 76.987C41.4793 76.7178 36.4047 75.1859 35.1808 73.3307C33.957 71.4755 52.7024 74.9971 52.8355 73.6429C59.7993 73.5454 62.8489 73.8028 67.6951 71.5266C75.0374 72.2483 83.3051 72.0323 79.4886 75.6056Z" fill="black"/>
</svg>
