<svg width="100" height="100" viewBox="0 0 100 100" fill="none" xmlns="http://www.w3.org/2000/svg">
<path d="M27.099 42.624C24.5512 43.1839 19.5729 46.2879 19.0468 52.6764C18.3893 60.6619 17.8256 70.2446 28.6296 72.1236C39.4336 74.0026 65.645 75.1299 75.4156 71.1841C85.1862 67.2383 81.7941 50.8489 81.4283 49.2942C80.6767 46.1 77.1067 43.7515 73.7245 42.624" stroke="black" stroke-width="2" stroke-linecap="round"/>
<path d="M36.9913 36.2354C38.1939 33.6801 39.2331 29.2445 41.5637 26.5345C46.0143 22.5353 46.1835 23.7408 62.3611 23.7408C65.7764 23.7408 65.418 28.1562 63.1401 28.1562H50.0182C43.7722 28.1562 43.8269 32.9177 44.0148 34.9846C44.2027 37.0515 45.7283 38.1147 55.405 38.1147C65.0816 38.1147 73.0672 41.1211 73.2551 42.1545C73.443 43.1879 74.3309 44.0334 64.5266 45.305C53.8009 46.696 32.2938 44.9729 28.9116 44.0334C25.5295 43.094 28.5358 40.9332 30.3208 40.3695C32.1058 39.8058 35.488 39.4296 36.9913 36.2354Z" fill="black" stroke="black" stroke-width="2" stroke-linecap="round"/>
<path d="M19.2139 51.4773C21.6551 55.7387 28.3997 57.3196 39.2019 57.3196C56.4656 57.3196 79.7479 59.5396 81.8097 52.3564" stroke="black" stroke-width="2" stroke-linecap="round"/>
<path d="M19.1494 59.233C20.7293 60.2769 22.4832 61.8401 30.9135 62.8723C35.0606 63.3801 58.817 63.8485 66.4341 63.3407C75.1322 62.7608 79.2179 62.1786 82.1815 58.053" stroke="black" stroke-width="2" stroke-linecap="round"/>
<path d="M19.3227 51.0728C18.5296 55.6205 17.6836 66.576 24.9155 70.6091C27.0712 71.8113 31.9998 72.6707 35.0697 72.9654" stroke="black" stroke-width="2"/>
<path d="M81.9076 52.0837C82.8657 64.6622 79.361 66.8263 77.3976 68.6935C74.5784 71.3743 68.5896 73.2056 61.7285 73.5765" stroke="black" stroke-width="2"/>
<path d="M24.2134 70.7583C21.8885 71.1046 17.9127 71.3586 17.7138 72.7641C17.5148 74.1697 21.6166 76.3233 44.9152 76.3233C59.1615 76.3233 75.0348 76.3233 75.0348 71.1191" stroke="black" stroke-width="2"/>
<path d="M18.8229 71.9395L24.7807 70.7305C25.6873 71.1335 27.5093 71.8876 27.5438 71.6803C27.587 71.4211 32.1201 72.9755 32.4655 72.9755C32.7418 72.9755 44.2085 73.6662 49.9073 74.0116C54.5412 73.9109 63.8521 73.7094 64.0248 73.7094C64.1975 73.7094 69.8819 72.5294 72.7025 71.9395L72.0981 73.7094C70.5295 74.2851 67.3491 75.4795 67.1764 75.6522C67.0037 75.8249 61.3481 76.0695 58.5418 76.1703L45.0288 76.4293L29.7025 75.6522L19.1683 74.7024L17.873 72.9755L18.8229 71.9395Z" fill="black"/>
</svg>
