<svg width="100" height="100" viewBox="0 0 100 100" fill="none" xmlns="http://www.w3.org/2000/svg">
<path d="M32.1424 48.056C32.1424 45.2471 32.1424 38.3691 32.1424 35.6111C32.1424 32.1635 30.4825 27.8222 28.4395 26.29C26.3966 24.7578 31.7593 24.1192 33.2915 24.3746C34.8237 24.63 64.7017 23.4807 66.3616 24.3746C68.0215 25.2685 69.8091 29.4821 70.4475 32.5466C71.086 35.6111 71.5967 56.6789 71.3413 59.9987C71.137 62.6546 71.2562 66.1892 71.3413 67.9343" stroke="black" stroke-width="2" stroke-linecap="round"/>
<path d="M32.238 54.7041C32.238 58.9602 31.6498 66.6549 32.238 71.5749C32.5463 74.1537 36.2417 78.7168 40.1372 75.9034C44.0327 73.09 43.1777 68.6535 44.1515 68.3288C45.1254 68.0042 58.7489 68.3288 62.428 68.3288C66.107 68.3288 81.3643 67.6796 82.0135 68.3288C82.6628 68.9781 83.0425 76.1818 78.065 76.5064C74.0829 76.7661 49.4664 76.8978 37.6718 76.7896" stroke="black" stroke-width="2" stroke-linecap="round"/>
<path d="M30.998 49.3081C31.3435 48.9626 38.9728 43.604 39.7264 43.2512C42.3579 42.0191 45.7167 43.1854 45.1638 43.6691C44.7215 44.0561 37.723 48.7177 34.1293 51.0905" stroke="black" stroke-width="2" stroke-linecap="round"/>
<path d="M26.4337 46.9814C26.4337 46.9814 44.14 56.8916 43.3471 57.2879C42.5542 57.6843 40.9421 59.5209 39.2508 58.6753C37.5595 57.8297 28.2146 51.9163 24.0964 49.0754" stroke="black" stroke-width="2" stroke-linecap="round"/>
<path d="M27.1198 51.8584L23.7197 54.2583L25.4103 56.432L30.1046 53.1849" stroke="black" stroke-width="2" stroke-linecap="round"/>
<path d="M21.9257 49.0988C21.9426 49.0911 21.9768 49.0751 21.9768 49.0751M21.9768 49.0751C23.711 49.0988 26.6001 46.2477 26.1196 43.8016C25.5125 40.7114 21.0754 40.224 19.0889 41.6587C17.1024 43.0934 15.682 49.7686 21.9768 49.0751Z" stroke="black" stroke-width="2" stroke-linecap="round"/>
<path d="M19.8576 41.9855C18.045 43.3336 17.4754 46.4009 19.8576 48.2601C23.5177 50.0031 25.6014 46.2559 25.2607 44.3093C24.854 41.9856 22.1233 40.3005 19.8576 41.9855Z" stroke="black" stroke-width="2" stroke-linecap="round"/>
<path d="M21.9257 61.9689C21.9426 61.9612 21.9768 61.9452 21.9768 61.9452M21.9768 61.9452C23.711 61.9689 26.6001 59.1178 26.1196 56.6717C25.5125 53.5815 21.0754 53.0941 19.0889 54.5288C17.1024 55.9635 15.682 62.6387 21.9768 61.9452Z" stroke="black" stroke-width="2" stroke-linecap="round"/>
<path d="M19.8576 54.8556C18.045 56.2037 17.4754 59.271 19.8576 61.1302C23.5177 62.8732 25.6014 59.1261 25.2607 57.1794C24.854 54.8557 22.1233 53.1706 19.8576 54.8556Z" stroke="black" stroke-width="2" stroke-linecap="round"/>
<path d="M32.2012 48.8613L34.5142 50.1523" stroke="black" stroke-width="2" stroke-linecap="round"/>
<path d="M41.5507 51.2109L44.0651 51.2109" stroke="black" stroke-width="2" stroke-linecap="round"/>
<path d="M48.4375 51.2109L50.9518 51.2109" stroke="black" stroke-width="2" stroke-linecap="round"/>
<path d="M55.457 51.2109L57.9713 51.2109" stroke="black" stroke-width="2" stroke-linecap="round"/>
<path d="M62.3037 51.2109L64.818 51.2109" stroke="black" stroke-width="2" stroke-linecap="round"/>
<path d="M68.8047 51.2109H70.6196" stroke="black" stroke-width="2" stroke-linecap="round"/>
<path d="M40.2051 59.0596L23.3047 48.8438L25.764 46.4473L43.5474 57.2939L40.2051 59.0596Z" fill="black"/>
</svg>
