<svg width="100" height="100" viewBox="0 0 100 100" fill="none" xmlns="http://www.w3.org/2000/svg">
<path d="M37.0547 64.6675L55.2689 43.3262L57.1891 45.356L59.4384 46.6727L41.4437 68.1786L36.7256 69.1661L37.0547 64.6675Z" fill="black"/>
<path d="M64.6169 23.0888C63.2146 25.1046 40.1798 51.2823 28.8377 64.1193C28.3426 64.6796 31.0079 75.7158 31.424 76.1097C31.84 76.5036 42.6254 76.8108 43.0635 76.1097C43.6113 75.2333 73.8189 39.3017 78.7485 34.2625C83.6782 29.2233 82.1445 26.4846 81.4872 25.8273C80.8299 25.17 76.3385 19.9119 73.0521 18.7069C69.7656 17.5019 66.3697 20.5692 64.6169 23.0888Z" stroke="black" stroke-width="2"/>
<path d="M65.0176 23.3252L77.8391 34.4953" stroke="black" stroke-width="2"/>
<path d="M29.0679 67.0167C25.3936 71.2235 17.7721 80.0481 18.0278 80.3037C18.3473 80.6232 34.6419 82.2207 34.8816 81.9012C35.0733 81.6456 37.837 78.3867 39.1948 76.7892" stroke="black" stroke-width="2"/>
<path d="M55.2795 43.3513C47.192 52.7058 36.8935 64.5871 36.7377 64.8874C36.4818 65.3809 36.7379 68.654 36.7379 68.9943C36.7379 69.5816 40.8177 68.8422 41.2819 68.1923C41.5093 67.874 51.6686 55.8944 59.578 46.4933M65.6902 39.1971C67.5498 36.9607 68.7436 35.4968 68.804 35.3518C69.0963 34.65 65.0764 31.7456 64.8535 32.1913C64.8061 32.2862 63.5151 33.8014 61.5099 36.1324" stroke="black" stroke-width="2"/>
<path d="M60.0499 36.5446C54.826 37.6526 54.8658 42.1498 56.0925 43.9322C58.6701 47.6773 62.2884 46.5957 64.6629 44.6172C66.9677 42.6967 66.7825 35.1166 60.0499 36.5446Z" stroke="black" stroke-width="2"/>
<path d="M64.9336 32.3513L61.958 35.885L64.0967 37.0938L65.5845 39.186L68.932 35.327L64.9336 32.3513Z" fill="black"/>
<path d="M23.3633 74.0981L31.0359 74.6883" stroke="black" stroke-width="2"/>
<path d="M69.1104 18.9164L64.3264 23.1373L78.1152 34.9L82.2237 29.0468V26.7955L78.5655 22.6307L72.4309 18.3535L69.1104 18.9164Z" fill="black"/>
<path d="M28.4871 68.1467C29.0252 71.0706 30.2967 76.7045 30.9854 76.7906C31.6742 76.8768 35.9179 77.1969 37.9807 77.3404" stroke="black" stroke-width="2"/>
</svg>
