<svg width="100" height="100" viewBox="0 0 100 100" fill="none" xmlns="http://www.w3.org/2000/svg">
<path d="M62.7718 33.3528C64.1956 34.2073 65.6694 34.9731 66.31 34.8882C68.5349 34.5933 69.6082 32.4374 71.8189 29.1697C73.8367 26.187 82.073 26.2884 83.531 31.0999C84.9719 35.8549 78.2885 34.7209 73.8805 37.4166C70.8365 39.2782 76.3551 41.6233 78.8205 43.3417C81.286 45.06 80.6231 48.388 79.5024 49.2845C76.2071 51.9208 58.7982 62.3181 55.3615 64.4847C51.9248 66.6513 47.5169 69.9385 44.0802 69.9386C40.6435 69.9386 32.7408 63.9715 24.0744 58.2935C15.408 52.6155 15.116 51.2037 18.0836 49.0603C19.711 47.8849 41.5049 36.3329 47.7243 33.3528C53.9436 30.3727 57.1452 29.976 62.7718 33.3528Z" stroke="black" stroke-width="2" stroke-linecap="round"/>
<path d="M16.3831 50.9883C16.1175 51.9807 16.1911 55.185 16.8286 55.8559C17.6254 56.6946 38.338 72.1365 43.2201 72.4982C47.112 72.7864 54.8036 67.8333 58.4277 65.6574C62.1582 63.4176 78.6881 53.6001 79.6837 51.3651C80.0927 50.4469 80.533 48.1637 80.4975 47.2634" stroke="black" stroke-width="2" stroke-linecap="round"/>
<path d="M16.8555 56.3257L16.6189 52.9665L35.2133 65.6466L41.2222 69.1005L45.0073 69.8103L49.4548 68.1543L76.8022 51.4525L79.6883 49.3706V51.7836L76.8022 54.102L49.4548 70.8511L44.1556 72.8383L41.506 72.0813L35.5445 69.1005L16.8555 56.3257Z" fill="black"/>
<path d="M73.6208 39.4924C73.7456 39.0126 74.3634 38.2952 76.5863 37.7073C80.0701 36.786 82.0568 36.7284 82.9205 35.5768C83.6115 34.6554 83.8609 32.8896 83.7266 32.0067" stroke="black" stroke-width="2" stroke-linecap="round"/>
<path d="M79.4461 31.7155C80.0458 30.7447 78.7058 30.1199 77.5256 29.9866C75.7648 29.7877 75.2202 31.3157 76.1624 31.8868C77.1046 32.4579 78.8465 32.6863 79.4461 31.7155Z" fill="black"/>
</svg>
