<svg width="100" height="100" viewBox="0 0 100 100" fill="none" xmlns="http://www.w3.org/2000/svg">
<path d="M38.2631 47.3391L31.113 65.5731" stroke="black" stroke-width="2" stroke-miterlimit="10" stroke-linejoin="round"/>
<path d="M38.7031 47.4205L49.7732 63.4915C49.7732 63.4915 54.6532 60.5065 55.6732 55.7365C56.6932 50.9665 56.5332 46.6855 56.5332 46.6855L38.7031 47.4205Z" fill="black" stroke="black" stroke-width="2" stroke-miterlimit="10" stroke-linejoin="round"/>
<path d="M41.363 28.373L38.353 46.8951L56.9231 46.639C56.9231 46.639 56.7731 41.578 55.0231 37.932C53.2731 34.286 51.9031 33.397 49.9131 32.055C44.6431 28.507 41.363 28.373 41.363 28.373Z" stroke="black" stroke-width="2" stroke-miterlimit="10" stroke-linejoin="round"/>
<path d="M21.2731 36.586C30.8931 20.962 52.9531 29.048 55.6831 39.426C58.4131 49.805 57.3231 62.26 44.4331 65.756C31.5431 69.252 25.313 62.806 21.493 58.108C17.663 53.411 16.1631 44.881 21.2731 36.586Z" stroke="black" stroke-width="2" stroke-miterlimit="10" stroke-linejoin="round"/>
<path d="M49.623 53.6133C49.623 53.6133 59.8631 59.2833 61.5131 60.3603" stroke="black" stroke-width="2" stroke-miterlimit="10" stroke-linecap="round" stroke-linejoin="round"/>
<path d="M62.083 54.3804C62.083 54.3804 81.203 52.0604 81.523 53.7454C81.693 54.6624 81.4231 61.7084 81.4431 67.6094C81.4531 73.5094 81.583 77.3484 81.583 77.3484C81.583 77.3484 66.093 77.2564 63.153 77.1934C60.223 77.1314 62.083 54.3804 62.083 54.3804Z" stroke="black" stroke-width="2" stroke-miterlimit="10" stroke-linecap="round" stroke-linejoin="round"/>
<path d="M67.103 66.4185C70.263 66.5565 73.4331 65.8435 76.5731 65.9805" stroke="black" stroke-width="2" stroke-miterlimit="10" stroke-linecap="round" stroke-linejoin="round"/>
<path d="M66.2831 60.1649C67.5831 60.2219 75.4331 60.2229 76.1331 59.7439" stroke="black" stroke-width="2" stroke-miterlimit="10" stroke-linecap="round" stroke-linejoin="round"/>
<path d="M49.3232 39.7917L62.0332 36.6377" stroke="black" stroke-width="2" stroke-miterlimit="10" stroke-linecap="round" stroke-linejoin="round"/>
<path d="M63.3931 33.5077C64.5431 33.5247 82.8731 33.3457 82.8731 33.3457C82.8731 33.3457 83.2431 39.8667 82.5331 39.9357C80.3331 40.1527 77.343 40.2027 74.333 40.1877C69.473 40.1637 64.543 39.9677 62.703 40.0157C62.363 40.0247 61.6831 33.4837 63.3931 33.5077Z" stroke="black" stroke-width="2" stroke-miterlimit="10" stroke-linecap="round" stroke-linejoin="round"/>
<path d="M72.7532 29.9867C72.7532 29.6117 72.7232 30.7357 72.6932 31.1107C72.6532 31.6907 72.4531 32.2287 72.4531 32.8107" stroke="black" stroke-width="2" stroke-miterlimit="10" stroke-linecap="round" stroke-linejoin="round"/>
<path d="M63.3431 23.163C64.4931 23.18 82.8232 23 82.8232 23C82.8232 23 83.1931 29.521 82.4831 29.591C80.2831 29.807 77.2931 29.858 74.2831 29.843C69.4231 29.819 64.4931 29.623 62.6531 29.671C62.3131 29.679 61.6231 23.138 63.3431 23.163Z" stroke="black" stroke-width="2" stroke-miterlimit="10" stroke-linecap="round" stroke-linejoin="round"/>
</svg>
