<svg width="100" height="100" viewBox="0 0 100 100" fill="none" xmlns="http://www.w3.org/2000/svg">
<path opacity="0.996971" d="M49.9335 64.0742L67.3634 64.1082" stroke="black" stroke-width="2" stroke-miterlimit="10" stroke-linecap="round" stroke-linejoin="round"/>
<path opacity="0.996971" d="M74.6534 63.9482L75.9034 63.9562" stroke="black" stroke-width="2" stroke-miterlimit="10" stroke-linecap="round" stroke-linejoin="round"/>
<path opacity="0.996971" d="M49.4136 75.8936L66.8335 75.9266" stroke="white" stroke-width="2" stroke-miterlimit="10" stroke-linecap="round" stroke-linejoin="round"/>
<path opacity="0.996971" d="M74.1335 75.7666L75.3835 75.7756" stroke="white" stroke-width="2" stroke-miterlimit="10" stroke-linecap="round" stroke-linejoin="round"/>
<path d="M45.0635 69.7725C45.0635 69.7725 44.2835 80.7265 45.2235 80.8305C47.3935 81.0715 79.9535 80.7875 79.9535 80.7875C79.9535 80.7875 80.6735 69.9255 79.9935 69.9335C74.5135 69.9975 45.0635 69.7725 45.0635 69.7725Z" fill="black" stroke="black" stroke-width="2" stroke-miterlimit="10" stroke-linejoin="round"/>
<path opacity="0.996971" d="M45.1435 58.425C45.1435 58.425 44.3636 69.3801 45.3036 69.4831C47.4836 69.7241 80.0835 69.4411 80.0835 69.4411C80.0835 69.4411 80.8135 58.5791 80.1335 58.5861C74.6335 58.6511 45.1435 58.425 45.1435 58.425Z" stroke="black" stroke-width="2" stroke-miterlimit="10" stroke-linecap="round" stroke-linejoin="round"/>
<path d="M24.1335 50.9346C24.1335 58.2876 23.2535 68.8656 32.7335 70.7626C33.5435 70.9246 35.6935 71.3186 36.4435 70.9436" stroke="black" stroke-width="2" stroke-miterlimit="10" stroke-linecap="round" stroke-linejoin="round"/>
<path d="M34.7335 68.5275C36.1335 68.7255 37.8735 69.9615 39.2835 70.3845C39.3235 70.3945 39.3635 70.4055 39.3835 70.4345C39.4735 70.5615 39.0835 70.9675 39.0235 71.0415C38.2635 71.8425 35.9035 73.8855 34.8435 73.9415C34.2235 73.9735 34.4835 70.7405 34.4735 70.2675C34.4635 70.1225 34.6035 68.5085 34.7335 68.5275Z" fill="black" stroke="black" stroke-width="2" stroke-miterlimit="10" stroke-linecap="round" stroke-linejoin="round"/>
<path d="M65.6135 53.3117C65.9035 46.1007 67.2735 35.0747 57.4835 34.6807" stroke="black" stroke-width="2" stroke-miterlimit="10" stroke-linecap="round" stroke-linejoin="round"/>
<path d="M34.8135 20.1095C13.8135 20.5795 16.0136 47.6845 35.9036 47.3715C52.0436 47.1175 55.8035 19.6395 34.8135 20.1095Z" stroke="black" stroke-width="2" stroke-miterlimit="10"/>
<path d="M35.3036 20C35.3036 20 26.4535 25.179 27.5635 35.158C28.5635 44.202 33.8235 47.207 33.8235 47.207" stroke="black" stroke-width="2" stroke-miterlimit="10" stroke-linejoin="round"/>
<path d="M36.4534 20.4482C36.4534 20.4482 41.5534 25.5652 41.8934 34.4082C42.1534 41.1322 34.9934 47.3262 34.9934 47.3262" stroke="black" stroke-width="2" stroke-miterlimit="10" stroke-linejoin="round"/>
<path d="M20.1736 33.5547C20.1736 33.5547 28.9335 34.7747 34.9935 34.7217C42.2935 34.6567 48.7235 33.6327 48.7235 33.6327" stroke="black" stroke-width="2" stroke-miterlimit="10" stroke-linejoin="round"/>
<path d="M58.6935 32.3791C58.7235 32.2351 55.4836 33.2461 54.9236 34.0131C54.5836 34.4761 57.2535 37.2121 57.7235 37.0011C57.7635 36.9811 58.5635 32.9171 58.6935 32.3791Z" fill="black" stroke="black" stroke-width="2" stroke-miterlimit="10" stroke-linecap="round" stroke-linejoin="round"/>
</svg>
