<svg width="100" height="100" viewBox="0 0 100 100" fill="none" xmlns="http://www.w3.org/2000/svg">
<path d="M26.1301 56.7742C28.8307 71.2533 39.9735 81.4139 56.2273 80.2515C72.4971 79.0149 83.8984 65.388 81.6693 49.7591C81.2119 46.5522 80.2033 42.7983 77.0816 37.0175" stroke="black" stroke-width="2" stroke-miterlimit="10" stroke-linecap="round"/>
<path d="M80.8431 48.6291C83.0722 64.258 71.6709 77.8849 55.4012 79.1215C39.1474 80.2839 28.2129 71.1713 25.9998 55.4682C23.7866 39.7651 35.172 26.2124 51.4417 24.9758C67.7115 23.7392 78.614 33.0003 80.8431 48.6291Z" stroke="black" stroke-width="2" stroke-miterlimit="10" stroke-linecap="round"/>
<path d="M44.0501 79.1639L39.8305 87.578C39.0015 89.264 36.8473 89.8879 34.9385 89.0109C33.3267 88.1978 32.5327 86.4732 32.9426 84.93L35.7686 74.3009" stroke="black" stroke-width="2" stroke-miterlimit="10" stroke-linecap="round"/>
<path d="M63.418 77.9722L67.6373 86.8823C68.4896 88.6972 70.6371 89.5479 72.4943 88.8601C74.0967 88.2728 74.9098 86.661 74.487 85.0162L71.5386 72.7285" stroke="black" stroke-width="2" stroke-miterlimit="10" stroke-linecap="round"/>
<path d="M28.0483 20.3289C33.4321 16.9131 40.936 18.2987 45.28 23.349C45.6556 23.7858 45.5332 24.4445 45.0492 24.757L26.2511 36.8956C25.8066 37.1826 25.2112 37.0747 24.9273 36.6281C21.3069 30.9324 22.6144 23.8377 28.0483 20.3289Z" stroke="black" stroke-width="2" stroke-miterlimit="10" stroke-linecap="round"/>
<path d="M78.806 20.9226C73.766 17.1173 66.7807 17.4025 62.3312 21.337C61.4889 22.0818 61.6553 23.3819 62.5501 24.0627L80.4977 37.7193C80.9309 38.049 81.5527 37.9729 81.8564 37.5211C85.4288 32.2057 84.2047 25.0426 78.806 20.9226Z" stroke="black" stroke-width="2" stroke-miterlimit="10" stroke-linecap="round"/>
<path d="M75.7076 49.0769C77.5197 61.9743 68.1456 73.2038 54.7487 74.2423C41.3517 75.2809 32.8591 67.9761 31.047 55.0787C29.2349 42.1813 38.6089 30.9518 52.0059 29.9133C65.4028 28.8747 73.8955 36.1795 75.7076 49.0769Z" stroke="black" stroke-width="2" stroke-miterlimit="10" stroke-linecap="round"/>
<path d="M48.6114 55.5254C48.6114 55.5254 47.9353 55.1062 45.1371 51.513C41.8254 47.7703 40.964 46.2061 41.1924 45.8668C41.527 45.395 48.6633 49.1674 50.0523 49.9326" stroke="black" stroke-width="2" stroke-miterlimit="10" stroke-linecap="round"/>
<path d="M47.979 53.9885L42.5713 47.2812L50.0585 49.8809C49.8332 50.1062 49.2058 50.7232 48.4987 51.3887C47.7915 52.0543 47.8576 53.3992 47.979 53.9885Z" fill="black"/>
<path d="M54.4368 53.4957C54.4404 55.2833 52.9009 56.661 51.071 56.5002C49.2252 56.4136 48.0968 55.4597 48.0931 53.6721C48.0895 51.8845 49.2153 49.9634 51.0611 50.05C52.907 50.1366 54.4332 51.7081 54.4368 53.4957Z" stroke="black" stroke-width="2" stroke-miterlimit="10" stroke-linecap="round"/>
<path d="M51.045 50.1242C51.045 50.1242 53.8261 48.3923 57.9287 45.9349C62.0313 43.4775 66.5645 40.1028 67.2796 41.1113C67.9788 42.1941 62.813 47.064 61.6504 48.1344C60.4877 49.2048 56.0278 53.6829 54.0531 55.2776" stroke="black" stroke-width="2" stroke-miterlimit="10" stroke-linecap="round"/>
</svg>
