<svg width="100" height="100" viewBox="0 0 100 100" fill="none" xmlns="http://www.w3.org/2000/svg">
<path d="M67.4018 37.421C63.5723 29.7855 60.7095 24.016 60.3054 23.435C59.8943 22.8441 30.3992 28.4428 18.7609 30.5425C16.9235 30.873 37.6273 78.0869 38.8346 78.0869C40.7194 78.0869 82.1576 70.6327 82.8775 69.9128C83.2529 69.5373 77.4002 57.3466 71.5555 45.54" stroke="black" stroke-width="2" stroke-linecap="round"/>
<path d="M28.8779 33.3125L30.2259 36.4185" stroke="black" stroke-width="2" stroke-linecap="round"/>
<path d="M29.7871 34.664C30.1191 34.6087 46.3746 31.7608 54.2579 30.0781" stroke="black" stroke-width="2" stroke-linecap="round"/>
<path d="M54.1416 28.3721L55.5686 30.9883" stroke="black" stroke-width="2" stroke-linecap="round"/>
<path d="M36.5508 57.7402L41.6891 68.4312" stroke="black" stroke-width="2" stroke-linecap="round"/>
<path d="M34.9482 57.7612L38.1356 57.0802" stroke="black" stroke-width="2" stroke-linecap="round"/>
<path d="M40.2793 69.5053L43.6051 68.8" stroke="black" stroke-width="2" stroke-linecap="round"/>
<path d="M58.7118 50.6252C56.6051 48.0199 55.3093 42.9368 55.7145 42.5889C56.1196 42.241 59.9668 43.4254 60.3072 42.9149C60.7326 42.2768 59.669 38.2353 58.7118 37.7035C57.7547 37.1717 51.4227 36.0904 50.8909 36.5159C50.3591 36.9413 50.158 39.8599 46.6035 40.27C43.8382 40.5891 40.767 37.8505 39.6745 39.3311C38.3273 41.0683 34.4841 45.3612 34.9946 46.212C35.6328 47.2754 38.9298 48.2326 39.6743 48.0199C40.4188 47.8072 41.6951 44.7228 42.1205 45.4674C42.5459 46.212 46.6065 49.9384 47.7573 52.2741C48.9081 54.6099 48.0148 66.8695 49.8228 67.0822C51.6309 67.2949 66.038 64.3184 67.9524 63.2548C68.8839 62.7373 65.4777 58.787 62.3203 55.1968" stroke="black" stroke-width="2" stroke-linecap="round"/>
<path d="M48.3936 51.9989C50.533 51.9989 56.1672 50.9291 57.4509 49.7881" stroke="black" stroke-width="2" stroke-linecap="round"/>
<path d="M46.9754 38.0562C44.9874 38.7098 41.7531 38.4307 40.5485 38.7098C40.1238 38.808 45.9452 39.4951 46.43 39.3189C46.9148 39.1426 51.196 36.6403 51.0198 36.5081C50.8435 36.3758 47.8702 37.762 46.9754 38.0562Z" stroke="black" stroke-width="2" stroke-linecap="round"/>
<path d="M52.9258 55.7588L54.6499 65.8304" stroke="black" stroke-width="2" stroke-linecap="round"/>
<path d="M63.4386 64.0983L60.915 60.3633" stroke="black" stroke-width="2" stroke-linecap="round"/>
<path d="M62.6587 46.5285C63.8675 44.7028 72.1831 29.5594 75.6943 22.7272C77.6056 19.008 83.6922 22.7271 81.9571 25.7637C80.8184 27.7564 71.6359 45.9003 69.2636 49.2215C67.9792 51.0197 62.4833 55.2718 62.2935 54.6076C62.1037 53.9433 62.0939 47.3815 62.6587 46.5285Z" stroke="black" stroke-width="2" stroke-linecap="round"/>
<path d="M63.1865 46.8984C64.9291 46.4758 68.0446 48.1657 68.6254 49.2746" stroke="black" stroke-width="2" stroke-linecap="round"/>
<path d="M65.72 52.0427C65.4731 51.4783 63.7819 50.0537 62.2773 50.6913L62.4434 54.0961C63.5308 53.6846 65.9669 52.6071 65.72 52.0427Z" fill="black"/>
<path d="M74.5195 25.4941C75.5775 25.1992 77.4577 25.237 78.3179 25.8044C79.7783 26.7677 80.1621 27.6329 80.5175 28.1777" stroke="black" stroke-width="2"/>
<path d="M76.731 21.5684L74.3281 25.3622H78.1219L80.3139 27.512L81.3256 26.7954L82.3373 24.3926L81.3256 22.8751L78.8807 21.3154L76.731 21.5684Z" fill="black"/>
<path d="M19.1717 34.0986C18.6638 34.3065 17.5633 34.4738 17.785 35.1387C17.9273 35.5655 22.8018 47.6896 27.8476 58.8626C32.6254 69.442 37.5749 79.1095 38.1812 79.2443C39.4279 79.5213 44.0568 78.6045 48.4572 77.7935C61.7959 75.3353 80.1936 72.9297 80.5399 72.3064C80.817 71.8077 80.6554 70.822 80.5399 70.5218" stroke="black" stroke-width="2"/>
</svg>
