<svg width="100" height="100" viewBox="0 0 100 100" fill="none" xmlns="http://www.w3.org/2000/svg">
<path d="M75.2257 80.5488C71.6061 80.5487 67.6274 80.2738 61.2216 80.714C59.5227 80.8307 54.6072 80.7942 50.6866 80.714C47.6296 80.6515 45.2128 80.3093 45.1661 81.6427C45.1662 83.0373 44.9426 84.5948 47.581 84.595C52.5019 84.5953 79.7001 85.8088 79.7001 83.3026C79.7001 80.3314 81.0339 80.5488 75.2257 80.5488Z" fill="black"/>
<path d="M75.3193 42.6436C75.3193 42.6436 63.7007 61.6507 60.4512 67.2755C57.2016 72.9002 56.165 74.2132 56.165 74.2132" stroke="black" stroke-width="2" stroke-linejoin="round"/>
<path d="M80.2596 43.6341C80.2596 43.6341 70.0453 65.1524 68.327 68.832C66.6087 72.5115 65.911 74.1304 65.911 74.1304" stroke="black" stroke-width="2" stroke-linejoin="round"/>
<path d="M52.9996 74.001C46.7451 74.001 46.1224 78.7587 46.1843 81.3245L78.8529 81.2272C78.8529 73.9118 71.3012 74.001 69.4354 74.001H52.9996Z" stroke="black" stroke-width="2" stroke-linejoin="round"/>
<path d="M53.6914 22.375L76.106 34.699" stroke="black" stroke-width="2" stroke-linejoin="round"/>
<path d="M51.1307 25.586L72.2412 37.1251" stroke="black" stroke-width="2" stroke-linejoin="round"/>
<path d="M83.1302 39.0939C83.3609 43.4853 80.8115 44.2727 77.9513 44.2727C75.0911 44.2727 72.7725 41.9541 72.7725 39.0939C72.7725 36.2337 75.0911 33.915 77.9513 33.915C80.8115 33.915 82.8994 34.7025 83.1302 39.0939Z" fill="black" stroke="black" stroke-width="2" stroke-linejoin="round"/>
<path d="M50.1996 50.6474L18.5978 32.0971C25.7812 23.5624 34.0552 19.3245 46.4514 27.1016C56.3683 33.3232 53.0822 45.3911 50.1996 50.6474Z" stroke="black" stroke-width="2" stroke-linejoin="round"/>
<path d="M54.209 36.7103C54.0259 34.304 51.1614 30.6555 49.7521 29.132C54.3684 34.733 50.1673 44.6158 47.4896 48.857L51.5083 51.1692C53.4019 49.8119 54.438 39.7181 54.209 36.7103Z" fill="black"/>
<path d="M39.096 24.4067L45.2115 14.6334C47.5162 15.7263 52.3989 18.1656 53.4929 19.1798C54.8603 20.4476 50.0766 27.9821 49.1098 29.2255" stroke="black" stroke-width="2" stroke-linejoin="round"/>
<path d="M52.5928 18.9567C51.9872 22.1639 49.2558 26.4122 47.917 27.7853L49.4394 29.2214C50.9107 26.492 53.8351 20.864 53.7624 20.1871C53.6897 19.5101 52.9199 18.8514 52.5928 18.9567Z" fill="black"/>
</svg>
