<svg width="100" height="100" viewBox="0 0 100 100" fill="none" xmlns="http://www.w3.org/2000/svg">
<path d="M35.6814 26.8447C34.2514 27.5897 30.4913 25.9267 30.3413 27.9897C30.1613 30.4497 30.7913 48.6997 30.8613 61.4897C30.9313 74.2797 28.9413 76.9597 29.0013 77.5497C29.1313 78.8397 68.5013 79.8898 68.5013 79.8898C68.5013 79.8898 70.3513 66.3697 70.5113 53.7197C70.6713 41.2997 70.5813 29.4597 70.5713 28.3797C70.5513 27.0727 63.5013 27.6297 63.5013 27.6297" stroke="black" stroke-width="2" stroke-miterlimit="10" stroke-linejoin="round"/>
<path d="M41.4314 72.0996C45.2514 72.2296 51.2514 72.3396 55.0614 72.4596" stroke="black" stroke-width="2" stroke-miterlimit="10" stroke-linecap="round" stroke-linejoin="round"/>
<path d="M41.0215 65.9199C43.9915 66.1099 52.4215 66.38 57.0115 66.51" stroke="black" stroke-width="2" stroke-miterlimit="10" stroke-linecap="round" stroke-linejoin="round"/>
<path d="M40.9014 59.1001C41.1814 58.8301 49.8114 59.4501 50.3914 59.4901C52.8614 59.6601 56.6213 59.8601 60.5913 59.6801" stroke="black" stroke-width="2" stroke-miterlimit="10" stroke-linecap="round" stroke-linejoin="round"/>
<path d="M42.8213 42.8499C42.8213 42.8499 47.8614 43.1699 47.9414 42.4599C48.0214 41.7499 47.4014 37.0998 48.4014 37.0098C50.2314 36.8398 53.4913 36.2599 53.6013 37.9599C53.6913 39.2399 53.2113 42.3699 53.8913 42.3499C54.5613 42.3299 58.8213 42.1599 58.7513 43.1599C58.6913 44.1599 59.5413 46.5099 58.3213 47.4799C57.5713 48.0799 53.5513 47.0999 53.6313 48.1099C53.7113 49.1199 54.2513 52.9098 53.3713 53.0598C52.5013 53.1998 48.0213 53.3899 47.8813 52.5899C47.5113 50.6599 48.3413 48.2499 47.3513 48.0899C46.3713 47.9399 42.3013 48.6698 42.3413 47.8098C42.3913 46.9498 41.9113 42.8899 42.8213 42.8499Z" stroke="black" stroke-width="2" stroke-miterlimit="10" stroke-linejoin="round"/>
<path d="M51.0314 37.4298C47.4414 35.2898 49.1214 42.5398 48.7014 42.7498C47.2114 43.4998 44.9414 42.8999 43.6214 43.6099C43.1014 43.8899 43.0214 46.6999 43.4214 46.8799C44.6014 47.4199 47.7514 46.6499 48.4614 47.6699C48.9914 48.4399 48.1814 51.3799 48.9714 51.8199C49.7614 52.2499 50.6714 52.1499 51.4814 52.0999C54.2314 51.9199 51.3414 48.4798 53.2114 47.1898C53.2814 47.1398 53.3714 47.0998 53.4514 47.0598C54.5214 46.5198 56.0715 47.3499 57.0515 46.6699C58.2515 45.8399 57.9014 43.6898 56.6714 43.2498C55.8014 42.9398 53.6814 43.4999 53.0014 42.8399C52.0314 41.8999 53.5714 39.3999 52.8214 38.3199C52.5213 37.8899 51.5114 37.7198 51.0314 37.4298Z" fill="black" stroke="black" stroke-width="2" stroke-miterlimit="10" stroke-linecap="round" stroke-linejoin="round"/>
<path d="M45.5514 23.1303C45.5514 23.1303 38.2013 22.7903 37.2513 23.1183C35.6113 23.6833 34.9614 30.8303 37.5314 31.1303C40.3614 31.4603 50.9013 31.3703 57.2613 31.4903C57.2613 31.4903 62.6313 31.7103 63.0013 31.2003C64.4913 29.1203 64.3113 24.7593 62.8413 23.8483C61.7013 23.1383 55.8313 23.4083 55.8313 23.4083" stroke="black" stroke-width="2" stroke-miterlimit="10" stroke-linejoin="round"/>
<path d="M30.1213 77.9203C30.1213 77.9203 32.9314 78.3404 40.9314 78.9904C48.9714 79.6504 68.0614 81.8003 69.1614 81.1503C70.1814 80.5503 71.4913 64.7704 71.5013 60.2404C71.5113 56.1104 71.6314 38.2603 71.5514 33.7803C71.4614 29.2903 70.4613 28.1104 70.4613 28.1104" stroke="black" stroke-width="2" stroke-miterlimit="10" stroke-linejoin="round"/>
<path d="M45.7714 22.295C45.7014 17.016 55.4914 15.8769 55.6414 23.0359C55.7414 28.2199 45.8614 28.93 45.7714 22.295Z" stroke="black" stroke-width="2" stroke-miterlimit="10" stroke-linejoin="round"/>
</svg>
