<svg width="100" height="100" viewBox="0 0 100 100" fill="none" xmlns="http://www.w3.org/2000/svg">
<path d="M25.7381 73.9156C25.5491 72.9704 37.0801 42.3314 42.8692 27.1301C43.2982 27.1301 67.3867 31.9977 68.3188 31.9977C69.0645 31.9977 74.1406 31.7906 74.2678 32.3128C74.395 32.8351 72.6419 80.6263 72.1693 81.0043C71.5786 81.4769 59.8822 82.6584 58.937 82.6584C57.9919 82.6584 25.9745 75.0971 25.7381 73.9156Z" stroke="black" stroke-width="2"/>
<path d="M49.3905 70.1878C47.3497 70.4252 47.2078 65.7331 49.1923 65.0806C51.1768 64.4281 52.2749 66.3508 51.5707 68.5463C51.2624 69.5074 50.9642 70.0047 49.3905 70.1878Z" stroke="black" stroke-width="2"/>
<path d="M38.7514 68.1543C36.7106 68.3917 37.1307 64.2087 38.5532 63.0472C39.9758 61.8856 41.6546 63.6151 40.9504 65.8106C40.6421 66.7717 40.3251 67.9713 38.7514 68.1543Z" stroke="black" stroke-width="2"/>
<path d="M55.9907 62.6383C53.9499 62.8757 54.3699 58.6927 55.7925 57.5312C57.215 56.3696 58.7008 58.6217 57.9966 60.8171C57.6883 61.7782 57.5644 62.4552 55.9907 62.6383Z" stroke="black" stroke-width="2"/>
<path d="M46.6624 60.7609C44.6769 61.2062 44.5853 58.7966 45.3421 56.9439C46.0989 55.0911 48.8833 56.6214 48.5018 58.5388C48.3348 59.3781 48.1935 60.4175 46.6624 60.7609Z" stroke="black" stroke-width="2"/>
<path d="M37.928 58.5634C35.9425 59.0087 34.9968 56.8759 36.9983 54.3257C38.3903 52.552 40.149 54.4239 39.7675 56.3412C39.6005 57.1806 39.4591 58.22 37.928 58.5634Z" stroke="black" stroke-width="2"/>
<path d="M54.389 53.688C52.4035 54.2161 51.0362 52.6453 53.0377 49.6208C54.4298 47.5173 56.61 48.7788 56.2285 51.0526C56.0614 52.0481 55.9201 53.2808 54.389 53.688Z" stroke="black" stroke-width="2"/>
<path d="M44.4726 51.9558C42.4318 52.1932 42.8519 48.0103 44.2744 46.8487C45.697 45.6871 47.3758 47.4166 46.6716 49.6121C46.3633 50.5732 46.0463 51.7728 44.4726 51.9558Z" stroke="black" stroke-width="2"/>
<path d="M52.2718 43.4428C50.2863 43.9709 49.3405 41.4416 51.342 38.4171C52.7341 36.3136 54.4928 38.5336 54.1112 40.8075C53.9442 41.8029 53.8029 43.0356 52.2718 43.4428Z" stroke="black" stroke-width="2"/>
<path d="M43.6661 36.5539C41.6647 39.5783 42.7911 42.012 44.8361 40.99C48.541 39.1383 45.6676 33.5294 43.6661 36.5539Z" stroke="black" stroke-width="2"/>
<path d="M68.1632 32.2548L59.3745 82.5901" stroke="black" stroke-width="2"/>
<path d="M25.7685 73.8735C25.1294 74.4389 25.6969 75.6796 27.4462 76.1678C30.6171 77.0527 56.5525 84.0408 58.4923 84.0408C61.7422 84.0408 73.852 83.371 71.927 80.994" stroke="black" stroke-width="2"/>
<path d="M60.3026 45.3751C58.317 45.9032 57.3713 43.3738 59.3728 40.3494C60.7648 38.2458 62.5235 40.4659 62.142 42.7397C61.975 43.7352 61.8336 44.9678 60.3026 45.3751Z" stroke="black" stroke-width="2"/>
<path d="M42.8267 27.4715C43.8274 23.6305 45.8831 17.5866 49.7151 16.292C54.505 14.6738 70.8859 19.3569 73.4712 21.7509C74.9767 23.145 74.3986 29.4103 74.2692 32.5389" stroke="black" stroke-width="2"/>
<path d="M68.0589 32.371C69.0097 29.2625 69.352 23.0317 67.3313 22.2494C63.9304 20.9326 49.391 16.6965 46.0996 19.3296" stroke="black" stroke-width="2"/>
<path d="M54.5799 18.9088C51.9843 18.9087 51.4559 20.9049 50.6494 22.5179C49.843 24.131 49.4229 27.0096 49.2549 28.6178" stroke="black" stroke-width="2"/>
<path d="M49.6501 27.0253H42.9204L68.0159 31.8733L68.1993 30.3053C62.4121 29.212 50.6002 27.0253 49.6501 27.0253Z" stroke="black" stroke-width="2"/>
<path d="M50.3802 22.945C50.6546 22.2246 52.2098 20.0719 52.9531 19.0857L46.778 18.8284L44.1622 22.5162L43.0044 27.1046H49.351C49.5797 26.0183 50.1057 23.6655 50.3802 22.945Z" fill="black"/>
</svg>
