<svg width="100" height="100" viewBox="0 0 100 100" fill="none" xmlns="http://www.w3.org/2000/svg">
<path d="M69.7264 22.7003C61.8174 29.2063 44.8854 42.0863 41.6324 44.9863C38.3794 47.8963 34.9914 52.2762 34.2194 55.9762C33.4474 59.6862 27.8964 66.2762 24.5584 68.3962C21.2204 70.5162 16.8114 74.8963 18.2964 76.5863C20.4324 79.0063 25.7344 73.2763 29.0694 70.0663C32.4054 66.8563 36.7744 65.0263 41.1474 64.7963C45.5204 64.5663 49.4434 62.8262 53.1974 59.8962C56.9524 56.9562 78.4154 38.4162 80.8894 35.9562C83.3624 33.5062 81.1794 31.0062 77.3774 26.9092C74.9164 24.2592 72.5144 20.4063 69.7264 22.7003Z" stroke="black" stroke-width="2" stroke-miterlimit="10" stroke-linecap="round" stroke-linejoin="round"/>
<path d="M21.6714 71.3164L24.0214 74.2263" stroke="black" stroke-width="2" stroke-miterlimit="10" stroke-linecap="round" stroke-linejoin="round"/>
<path d="M48.4033 45.3958C48.4033 45.3958 60.6273 35.8658 61.6453 35.1658C62.6623 34.4558 66.5753 39.7558 66.9443 40.6858C67.3133 41.6158 55.6563 51.5258 54.2413 51.6558C52.8273 51.7858 48.5193 47.1058 48.4033 45.3958Z" fill="black" stroke="black" stroke-width="2" stroke-miterlimit="10" stroke-linecap="round" stroke-linejoin="round"/>
<path d="M40.9495 46.5166L52.3155 59.8966" stroke="black" stroke-width="2" stroke-miterlimit="10" stroke-linecap="round" stroke-linejoin="round"/>
<path d="M68.6334 34.3763L70.4394 32.9863" stroke="black" stroke-width="2" stroke-miterlimit="10" stroke-linecap="round" stroke-linejoin="round"/>
<path d="M20.1464 77.0863C23.7694 76.9263 28.6334 73.1462 30.6064 71.0962C33.0704 68.5362 36.4934 67.1963 41.2734 66.4363C46.6364 65.5863 48.9624 65.7163 53.6024 61.5763C58.2434 57.4363 70.0534 47.8263 72.9334 44.7363C75.8874 41.5563 80.1434 36.6562 80.1434 36.6562" stroke="black" stroke-width="2" stroke-miterlimit="10" stroke-linejoin="round"/>
</svg>
