<svg width="100" height="100" viewBox="0 0 100 100" fill="none" xmlns="http://www.w3.org/2000/svg">
<path d="M23.914 37.9991C24.4879 36.8513 28.0323 31.6756 29.7327 29.2312C30.4247 28.2325 85.688 37.2019 86.1662 37.2019C86.6445 37.2019 86.3256 46.9264 86.1662 47.6437C86.0068 48.3611 73.0941 70.4403 72.297 70.8389C71.6593 71.1577 15.0112 60.6998 14.11 60.6362C13.2087 60.5726 13.7044 56.2305 13.8319 55.7204C13.9913 55.0827 22.0808 43.2598 22.6388 42.5424C23.1967 41.825 23.1967 39.4338 23.914 37.9991Z" stroke="black" stroke-width="2" stroke-linecap="round"/>
<path d="M14.4868 56.5066L71.6346 66.3565" stroke="black" stroke-width="2" stroke-linecap="round"/>
<path d="M68.4176 50.0423L68.4241 50.0322C68.6556 49.6707 70.2961 49.9429 70.461 50.0595C70.626 50.1762 67.1782 55.8606 66.8207 56.2295C66.4632 56.5985 65.18 56.3463 64.7945 56.2426C64.4866 56.1598 67.0365 52.1916 68.4176 50.0423Z" fill="black" stroke="black" stroke-width="2" stroke-linecap="round"/>
<path d="M86.2599 37.8759C84.586 40.8782 81.9595 46.9281 81.9595 48.3266C81.9595 49.0076 81.5429 51.2305 81.0647 51.8682C80.6821 52.3783 72.5179 65.1917 72.1374 65.8206C71.7568 66.4494 72.1374 70.6793 72.1374 70.6793" stroke="black" stroke-width="2" stroke-linecap="round"/>
<path d="M74.1422 50.7488L74.1487 50.7387C74.3799 50.3771 76.0206 50.6481 76.1856 50.7647C76.3507 50.8812 72.9067 56.5679 72.5494 56.9371C72.1922 57.3063 70.9088 57.055 70.5232 56.9516C70.2153 56.869 72.7625 52.8991 74.1422 50.7488Z" fill="black" stroke="black" stroke-width="2" stroke-linecap="round"/>
<path d="M24.3682 38.2118L81.6613 47.4004" stroke="black" stroke-width="2" stroke-linecap="round"/>
<path d="M55.9072 47.4822L55.9137 47.4721C56.1466 47.1115 57.786 47.3901 57.9505 47.5074C58.115 47.6247 54.6451 53.2956 54.2862 53.6631C53.9273 54.0307 52.6451 53.7735 52.26 53.6684C51.9524 53.5844 54.5177 49.6261 55.9072 47.4822Z" fill="black" stroke="black" stroke-width="2" stroke-linecap="round"/>
<path d="M49.7343 46.2849L49.7409 46.2748C49.9737 45.9143 51.6131 46.1928 51.7777 46.3101C51.9422 46.4274 48.4723 52.0983 48.1134 52.4659C47.7545 52.8334 46.4723 52.5762 46.0871 52.4711C45.7795 52.3871 48.3448 48.4289 49.7343 46.2849Z" fill="black" stroke="black" stroke-width="2" stroke-linecap="round"/>
<path d="M43.3408 45.0494L43.3473 45.0393C43.5802 44.6788 45.2196 44.9573 45.3841 45.0746C45.5486 45.1919 42.0787 50.8628 41.7198 51.2304C41.3609 51.598 40.0787 51.3408 39.6936 51.2356C39.386 51.1516 41.9513 47.1934 43.3408 45.0494Z" fill="black" stroke="black" stroke-width="2" stroke-linecap="round"/>
<path d="M22.4692 48.5262C22.1662 48.4252 24.7617 44.4962 26.2659 42.4346C26.5183 42.0875 28.1399 42.4562 28.2976 42.5824C28.4554 42.7086 24.9856 48.1791 24.607 48.5262C24.2283 48.8734 22.8479 48.6525 22.4692 48.5262Z" fill="black" stroke="black" stroke-width="2" stroke-linecap="round"/>
<path d="M32.0493 43.5355L32.056 43.5255C32.2964 43.1699 33.9296 43.4827 34.0917 43.6035C34.2537 43.7242 30.6658 49.3212 30.2993 49.6812C29.9328 50.0411 28.6562 49.7571 28.2734 49.644C27.9676 49.5535 30.6152 45.6499 32.0493 43.5355Z" fill="black" stroke="black" stroke-width="2" stroke-linecap="round"/>
<path d="M27.8741 43.3847C27.1024 43.1834 23.2489 42.2933 22.8463 42.3738C22.6116 42.4207 21.1608 44.7858 19.5561 47.0577C17.745 49.8062 15.3788 52.866 15.5843 53.0473C15.8273 53.2616 31.2419 55.7006 43.5787 57.8686C56.5222 60.1431 73.2245 63.7489 73.792 63.1814C75.5834 61.39 80.7821 52.9774 80.4802 52.6754C80.1782 52.3734 74.4966 51.4981 73.792 51.431" stroke="black" stroke-width="2" stroke-linecap="round"/>
<path d="M71.2461 57.4287L68.6489 61.8467" stroke="black" stroke-width="2" stroke-linecap="round"/>
<path d="M65.6285 56.3696L62.9277 61.0606" stroke="black" stroke-width="2" stroke-linecap="round"/>
<path d="M53.136 53.8533L50.6816 58.4283" stroke="black" stroke-width="2" stroke-linecap="round"/>
<path d="M46.642 52.8787L44.1675 57.0339" stroke="black" stroke-width="2" stroke-linecap="round"/>
<path d="M29.0336 49.6982L26.5591 53.8535" stroke="black" stroke-width="2" stroke-linecap="round"/>
<path d="M23.3754 48.9631L20.9009 53.1184" stroke="black" stroke-width="2" stroke-linecap="round"/>
<path d="M38.3911 45.4952L33.0669 54.8662" stroke="black" stroke-width="2" stroke-linecap="round"/>
<path d="M40.5693 51.498L37.9042 56.364" stroke="black" stroke-width="2" stroke-linecap="round"/>
<path d="M62.2514 49.7671L56.4019 59.9656" stroke="black" stroke-width="2" stroke-linecap="round"/>
<path d="M28.6978 43.6731L72.9583 51.1811" stroke="black" stroke-width="2" stroke-linecap="round"/>
<path d="M82.3065 45.9368L85.8782 39.3203L86.171 47.4592L83.2433 53.0217L75.8071 65.5521L72.4695 70.4121L72.1182 66.0206L79.9643 53.6073L81.838 49.7427L82.3065 45.9368Z" fill="black"/>
<path d="M36.5878 35.8398C36.5427 35.5793 36.9479 34.286 37.1656 33.6272L39.4564 33.7622C39.5069 34.295 39.7829 35.8299 39.5577 36.0621C38.8949 36.7456 36.6684 36.3059 36.5878 35.8398Z" fill="black"/>
<ellipse cx="38.3053" cy="33.7313" rx="1.1519" ry="0.726112" transform="rotate(1.65343 38.3053 33.7313)" fill="black"/>
<path d="M29.954 34.8507C29.9089 34.5902 30.3141 33.2969 30.5318 32.638L32.8226 32.7731C32.8731 33.3058 33.1491 34.8408 32.9239 35.073C32.2611 35.7565 30.0346 35.3168 29.954 34.8507Z" fill="black"/>
<ellipse cx="31.671" cy="32.7422" rx="1.1519" ry="0.726112" transform="rotate(1.65343 31.671 32.7422)" fill="black"/>
<path d="M43.2186 36.9387C43.1736 36.6782 43.5788 35.3849 43.7964 34.726L46.0872 34.8611C46.1378 35.3939 46.4137 36.9288 46.1886 37.161C45.5258 37.8445 43.2992 37.4048 43.2186 36.9387Z" fill="black"/>
<ellipse cx="44.9356" cy="34.8302" rx="1.1519" ry="0.726112" transform="rotate(1.65343 44.9356 34.8302)" fill="black"/>
<path d="M68.1656 40.9041L73.4872 41.6813" stroke="black" stroke-width="2" stroke-linecap="round"/>
<path d="M77.8702 39.4959L78.0465 39.4958" stroke="black" stroke-width="2" stroke-linecap="round"/>
<path d="M68.9644 38.0459L74.286 38.8232" stroke="black" stroke-width="2" stroke-linecap="round"/>
<path d="M56.7276 35.8741C53.7341 35.0494 52.5933 38.0166 53.783 38.9247C55.7739 40.1831 57.2763 39.5497 57.8691 39.2888C58.462 39.0279 59.721 36.6989 56.7276 35.8741Z" stroke="black" stroke-width="2"/>
</svg>
