<svg width="100" height="100" viewBox="0 0 100 100" fill="none" xmlns="http://www.w3.org/2000/svg">
<path d="M28.9844 51.5131C29.4724 47.8241 31.6954 45.7181 36.2044 46.3881C39.2264 46.8361 39.6534 52.1621 39.6954 51.8391L28.9844 51.5131Z" stroke="black" stroke-width="2" stroke-miterlimit="10" stroke-linecap="round" stroke-linejoin="round"/>
<path d="M32.5671 42.7812C31.0171 42.2062 30.7162 40.5092 30.6882 39.6682C30.6242 37.7792 32.4241 36.6712 34.0281 36.4892C36.9271 36.1582 39.0661 39.7432 36.8881 41.9672C35.5181 43.3652 34.1171 43.3562 32.5671 42.7812Z" stroke="black" stroke-width="2" stroke-miterlimit="10" stroke-linecap="round" stroke-linejoin="round"/>
<path d="M54.2684 64.7256C54.2684 64.7256 20.6724 64.8566 18.4734 63.8146C16.2744 62.7716 16.7914 27.7736 18.3614 26.1956C19.5884 24.9626 69.6124 24.4326 71.4714 25.8376C73.3314 27.2416 73.2174 36.5526 73.2174 36.5526" stroke="black" stroke-width="2" stroke-miterlimit="10" stroke-linecap="round" stroke-linejoin="round"/>
<path d="M56.4019 59.5465L22.7129 59.0555L22.6289 30.6085L67.3179 30.4675L67.4909 35.3025" stroke="black" stroke-width="2" stroke-miterlimit="10" stroke-linecap="round" stroke-linejoin="round"/>
<path d="M60.8965 47.4256C60.3145 41.1186 72.9295 35.8226 75.0065 46.6206C76.5885 54.8526 61.7205 56.3516 60.8965 47.4256Z" fill="black" stroke="black" stroke-width="2" stroke-miterlimit="10" stroke-linecap="round" stroke-linejoin="round"/>
<path d="M56.4805 46.2176C56.7115 40.7036 62.5985 35.7146 67.4705 35.6666C72.3415 35.6186 78.1375 38.6116 79.1355 43.7756C80.0735 48.6356 78.0535 56.5086 71.0495 58.1496C64.0445 59.7916 56.1705 53.6296 56.4805 46.2176Z" stroke="black" stroke-width="2" stroke-miterlimit="10" stroke-linecap="round" stroke-linejoin="round"/>
<path d="M59.1851 54.0859C59.1851 54.0859 56.7551 59.392 55.6351 62.713C54.5151 66.034 53.2091 68.4219 52.3171 69.9909C51.4261 71.5599 59.9661 66.3459 59.9661 66.3459C59.9661 66.3459 61.4042 73.0729 61.4042 74.1289C61.4042 74.6569 63.6591 71.5959 65.2851 68.6929C66.9111 65.7889 67.9081 62.5139 67.9081 62.5139L66.3691 58.3619C66.3691 58.3619 64.3891 57.7749 62.5541 56.8059C60.7181 55.8379 59.1851 54.0859 59.1851 54.0859Z" stroke="black" stroke-width="2" stroke-miterlimit="10" stroke-linecap="round" stroke-linejoin="round"/>
<path d="M66.5264 58.449C66.5264 58.449 71.3894 70.858 72.4424 72.423C73.4944 73.988 74.8584 66.355 74.7964 65.898C74.7354 65.441 80.4184 69.253 81.9124 69.745C83.4064 70.237 78.7204 60.251 78.3554 59.202C77.9914 58.154 76.4734 54.875 76.4734 54.875C76.4734 54.875 74.9694 57.096 72.2504 57.899C69.5304 58.702 66.5264 58.449 66.5264 58.449Z" stroke="black" stroke-width="2" stroke-miterlimit="10" stroke-linecap="round" stroke-linejoin="round"/>
<path d="M67.0682 64.6456L64.8271 58.0636" stroke="black" stroke-width="2" stroke-miterlimit="10" stroke-linecap="round" stroke-linejoin="round"/>
<path d="M43.6143 46.6392C45.2643 46.5712 48.0933 46.3772 49.6053 46.8132" stroke="black" stroke-width="2" stroke-miterlimit="10" stroke-linecap="round" stroke-linejoin="round"/>
<path d="M43.1621 40.7863C44.8471 40.1463 53.4451 40.9363 53.4451 40.9363" stroke="black" stroke-width="2" stroke-miterlimit="10" stroke-linecap="round" stroke-linejoin="round"/>
<path d="M24.1289 58.6458L24.2328 31.5068" stroke="black" stroke-width="2" stroke-miterlimit="10" stroke-linecap="round" stroke-linejoin="round"/>
<path d="M23.4844 57.8779L57.0284 58.4189" stroke="black" stroke-width="2" stroke-miterlimit="10" stroke-linecap="round" stroke-linejoin="round"/>
<path d="M66.0127 32.1211L66.2187 35.5741" stroke="black" stroke-width="2" stroke-miterlimit="10" stroke-linecap="round" stroke-linejoin="round"/>
<path d="M23.5801 31.6592L66.5671 31.8822" stroke="black" stroke-width="2" stroke-miterlimit="10" stroke-linecap="round" stroke-linejoin="round"/>
</svg>
