<svg width="100" height="100" viewBox="0 0 100 100" fill="none" xmlns="http://www.w3.org/2000/svg">
<path d="M47.7036 60.281C48.2439 69.0704 47.9304 73.8949 47.7409 83.3177C48.1174 84.7231 53.2297 84.7231 54.0636 83.3177C54.1533 74.3563 54.1782 69.8659 54.0263 60.2809" stroke="black" stroke-width="2" stroke-linecap="round" stroke-linejoin="round"/>
<path d="M67.9925 84.0632C66.8297 85.4587 57.262 85.6142 49.7729 85.1955C51.7265 84.6838 53.7129 83.6775 54.5502 82.3751C57.9919 82.3751 68.6444 83.2808 67.9925 84.0632Z" fill="black"/>
<path d="M53.6562 60.2809C54.1341 63.7388 53.6562 79.4678 53.6563 84.0368" stroke="black" stroke-width="2" stroke-linecap="round" stroke-linejoin="round"/>
<path d="M34.7735 59.0605C34.3444 58.5911 33.816 51.1269 34.7735 49.2228C37.0229 49.4801 64.3492 47.6866 65.0953 48.0692C65.8414 48.4519 70.0372 53.8872 70.0372 53.8872C70.0372 53.8872 65.9863 59.0826 65.4137 59.8986C64.8411 60.7147 35.2027 59.5298 34.7735 59.0605Z" stroke="black" stroke-width="2" stroke-linecap="round" stroke-linejoin="round"/>
<path d="M62.376 53.6092C62.376 53.0427 61.9058 52.5893 61.3397 52.6099L44.7056 53.2138C44.1678 53.2333 43.7419 53.6749 43.7419 54.2131V54.5768C43.7419 55.1291 44.1896 55.5768 44.7419 55.5768H61.376C61.9283 55.5768 62.376 55.1291 62.376 54.5768V53.6092Z" fill="black"/>
<path d="M37.3579 53.2572C37.3579 52.7242 37.776 52.2849 38.3083 52.2585L40.1931 52.1649C40.7642 52.1365 41.2427 52.5919 41.2427 53.1636V54.9892C41.2427 55.5631 40.7609 56.0192 40.1879 55.9877L38.3031 55.8843C37.7729 55.8552 37.3579 55.4168 37.3579 54.8858V53.2572Z" fill="black"/>
<path d="M67.8109 43.6151C67.8109 43.6151 68.8362 35.5864 67.8109 35.4802C66.7855 35.3741 41.9545 33.7757 41.9545 33.7757C41.9545 33.7757 37.4078 38.409 36.9729 39.5889C36.5381 40.7687 41.9545 45.0316 41.9545 45.0316L67.8109 43.6151Z" stroke="black" stroke-width="2" stroke-linecap="round" stroke-linejoin="round"/>
<path d="M47.7417 44.7249V47.9125M54.0644 47.9125V44.7249" stroke="black" stroke-width="2" stroke-linecap="round" stroke-linejoin="round"/>
<path d="M53.4625 44.9269C53.4624 47.1934 53.3133 47.9838 53.2388 48.0956" stroke="black" stroke-width="2" stroke-linecap="round" stroke-linejoin="round"/>
<path d="M44.9995 38.7768C44.9995 38.2042 45.4794 37.7486 46.0512 37.7782L59.4108 38.4703C59.8823 38.4947 60.252 38.8841 60.252 39.3562C60.252 39.8404 59.8638 40.2352 59.3796 40.2432L46.016 40.4642C45.4574 40.4734 44.9995 40.0231 44.9995 39.4643V38.7768Z" fill="black"/>
<ellipse cx="63.6539" cy="39.3756" rx="1.56404" ry="2.11028" fill="black"/>
<path d="M31.0453 30.2876C31.0453 30.2876 30.6281 19.8886 31.0453 19.5789C31.4626 19.2692 67.9428 19.5789 67.9428 19.5789C67.9428 19.5789 73.1582 24.3937 73.4031 25.0393C73.6481 25.6848 68.6818 29.9248 68.1548 30.2876C67.6278 30.6504 31.0453 30.2876 31.0453 30.2876Z" stroke="black" stroke-width="2" stroke-linecap="round" stroke-linejoin="round"/>
<path d="M47.7417 30.4489V34.0162M54.0644 34.0162V30.4489" stroke="black" stroke-width="2" stroke-linecap="round" stroke-linejoin="round"/>
<path d="M53.3245 30.5839C53.6791 32.7258 53.6556 33.495 53.5995 33.6119" stroke="black" stroke-width="2" stroke-linecap="round" stroke-linejoin="round"/>
<path d="M43.3706 24.6119C43.3706 24.0596 43.8183 23.6119 44.3706 23.6119H63.3345C63.8868 23.6119 64.3345 24.0596 64.3345 24.6119V25.1698C64.3345 25.7221 63.8868 26.1698 63.3345 26.1698H44.3706C43.8183 26.1698 43.3706 25.7221 43.3706 25.1698V24.6119Z" fill="black"/>
<path d="M40.195 24.6846C40.195 26.1421 38.9073 27.3761 37.4498 27.3761C35.9923 27.3761 34.7046 26.2522 34.7046 24.7947C34.7046 23.3373 36.0948 22.0905 37.5522 22.0905C39.0097 22.0905 40.195 23.2272 40.195 24.6846Z" fill="black"/>
<path d="M47.7417 19.0698V12.5966C49.1733 12.0937 52.7855 12.2049 54.0644 12.5966V19.0698" stroke="black" stroke-width="2" stroke-linecap="round" stroke-linejoin="round"/>
<path d="M53.8684 18.7018C53.9511 17.0481 53.705 14.1558 53.4121 12.8122" stroke="black" stroke-width="2"/>
</svg>
