<svg width="100" height="100" viewBox="0 0 100 100" fill="none" xmlns="http://www.w3.org/2000/svg">
<path d="M61.7773 67.5294C60.9194 67.2208 34.1755 67.2469 33.6795 67.5294C33.1834 67.812 33.6795 73.6649 33.6795 73.6649C33.6795 74.9845 34.8706 76.0543 36.34 76.0543H59.1168C60.5862 76.0543 61.7773 74.9845 61.7773 73.6649C61.7773 73.6649 62.6353 67.8381 61.7773 67.5294Z" stroke="black" stroke-width="2" stroke-linecap="round"/>
<path d="M61.7773 73.665C61.7773 74.9846 60.4906 75.5304 59.0213 75.5304H36.2445C34.7751 75.5304 33.6794 74.9846 33.6794 73.665" stroke="black" stroke-width="2" stroke-linecap="round"/>
<path d="M52.1641 69.1641C51.9608 69.0341 48.7738 69.0508 48.5224 69.1641C48.271 69.2773 48.5224 72.1659 48.5224 72.5023C48.5224 72.8387 51.9995 72.7383 52.1641 72.5023C52.3287 72.2663 52.3674 69.294 52.1641 69.1641Z" fill="black"/>
<path d="M58.3126 69.1639C58.1548 68.9837 54.8507 69.034 54.6709 69.1639C54.491 69.2938 54.5664 72.216 54.6709 72.5022C54.7753 72.7883 58.0525 72.5877 58.3126 72.5022C58.5727 72.4166 58.4704 69.3441 58.3126 69.1639Z" fill="black"/>
<path d="M40.1943 69.1639C40.0427 69.0006 36.7053 68.9504 36.5526 69.1639C36.3999 69.3775 36.3541 72.3999 36.5526 72.5022C36.751 72.6045 39.9948 72.6546 40.1943 72.5022C40.3939 72.3498 40.3459 69.3273 40.1943 69.1639Z" fill="black"/>
<path d="M46.016 69.1639C45.9136 68.9092 42.6305 69.0172 42.3743 69.1639C42.1181 69.3105 42.1791 72.3831 42.3743 72.5021C42.5696 72.6211 45.83 72.6712 46.016 72.5021C46.2021 72.333 46.1185 69.4185 46.016 69.1639Z" fill="black"/>
<path d="M13.8834 61.0997C14.28 60.764 18.2128 56.1168 18.2128 56.1168L11.1877 52.5225C11.1877 52.5225 8.20713 60.576 8.73705 61.0997C9.26697 61.6234 13.4868 61.4354 13.8834 61.0997Z" fill="black" stroke="black" stroke-width="2" stroke-linecap="round"/>
<path d="M47.8088 59.9839V66.8965" stroke="black" stroke-width="2" stroke-linecap="round"/>
<path d="M64.5156 58.9424L59.8945 66.8966" stroke="black" stroke-width="2" stroke-linecap="round"/>
<path d="M31.4576 58.9424L36.5527 66.8966" stroke="black" stroke-width="2" stroke-linecap="round"/>
<path d="M76.999 36.4116C73.2447 43.2033 74.451 53.1185 76.8801 57.5816" stroke="black" stroke-width="2" stroke-linecap="round"/>
<path d="M8.95049 46.3819C8.95049 57.7477 47.9534 60.7199 54.3212 60.7199C80.0578 60.7199 87.0226 54.0109 87.0226 46.3819C87.0226 38.7529 77.0066 31.5191 54.3212 31.519C46.9584 31.519 8.95049 35.0161 8.95049 46.3819Z" stroke="black" stroke-width="2" stroke-linecap="round"/>
<path d="M8.95049 46.3818C11.9014 56.1155 41.1476 58.9419 54.5265 58.9419C80.2631 58.9419 87.0226 54.0108 87.0226 46.3818" stroke="black" stroke-width="2" stroke-linecap="round"/>
<path d="M8.95049 46.2347C8.95049 51.2193 47.9534 52.5228 54.3212 52.5228C80.0578 52.5228 87.0226 49.5805 87.0226 46.2347C87.0226 42.8888 77.0066 39.7163 54.3212 39.7163C46.9584 39.7163 8.95049 41.25 8.95049 46.2347Z" stroke="black" stroke-width="2" stroke-linecap="round"/>
<path d="M13.8834 32.0971C14.28 32.4328 18.2128 37.08 18.2128 37.08L11.1877 40.6743C11.1877 40.6743 8.20713 32.6208 8.73705 32.0971C9.26697 31.5733 13.4868 31.7613 13.8834 32.0971Z" fill="black" stroke="black" stroke-width="2" stroke-linecap="round"/>
</svg>
