<svg width="100" height="100" viewBox="0 0 100 100" fill="none" xmlns="http://www.w3.org/2000/svg">
<path d="M49.7901 31.0079C41.3501 31.0389 24.3102 38.4959 25.0102 54.8529C25.7102 71.2099 37.9201 79.6289 48.8101 79.3299C59.7001 79.0319 73.6401 70.3539 73.7001 55.0569C73.7701 39.0699 58.2301 30.9769 49.7901 31.0079Z" stroke="black" stroke-width="2" stroke-miterlimit="10" stroke-linejoin="round"/>
<path d="M46.0507 31.4199C46.0507 31.4199 32.7608 37.3479 33.7608 56.4789C34.4608 69.9699 44.5407 78.7929 44.5407 78.7929" stroke="black" stroke-width="2" stroke-miterlimit="10" stroke-linejoin="round"/>
<path d="M50.5205 31.126C50.5205 31.126 55.2805 40.886 55.0205 57.611C54.8205 70.541 51.1904 79.134 51.1904 79.134" stroke="black" stroke-width="2" stroke-miterlimit="10" stroke-linejoin="round"/>
<path d="M54.7803 31.7217C54.7803 31.7217 66.0404 41.3687 64.9904 56.0437C63.9904 69.9107 56.3804 77.9567 56.3804 77.9567" stroke="black" stroke-width="2" stroke-miterlimit="10" stroke-linejoin="round"/>
<path d="M48.9106 31.0322C48.9106 31.0322 43.0407 43.9552 43.2107 56.4312C43.3807 69.1592 48.3106 78.8622 48.3106 78.8622" stroke="black" stroke-width="2" stroke-miterlimit="10" stroke-linejoin="round"/>
<path d="M28.54 67.7969C28.54 67.7969 39.3401 69.3829 49.7701 69.2439C60.2101 69.1049 70.5901 66.2959 70.5901 66.2959" stroke="black" stroke-width="2" stroke-miterlimit="10" stroke-linejoin="round"/>
<path d="M24.9805 56.444C24.9805 56.444 61.4904 55.843 73.5604 55.542" stroke="black" stroke-width="2" stroke-miterlimit="10" stroke-linejoin="round"/>
<path d="M27.5107 44.2389C27.5107 44.2389 39.9607 41.7159 50.6707 41.4829C61.3907 41.2499 70.6807 43.9799 70.6807 43.9799" stroke="black" stroke-width="2" stroke-miterlimit="10" stroke-linejoin="round"/>
<path d="M43.9902 31.9576C43.9902 31.9576 44.7302 27.8046 45.0302 26.7976C45.3502 25.6905 52.5003 25.3335 53.2603 26.7186C54.1003 28.2526 54.8202 31.4486 54.8202 31.4486" stroke="black" stroke-width="2" stroke-miterlimit="10" stroke-linejoin="round"/>
<path d="M49.21 25.6499L49.1699 20" stroke="black" stroke-width="2" stroke-miterlimit="10" stroke-linecap="round" stroke-linejoin="round"/>
<path d="M43.2307 55.5979C43.0607 56.0369 43.1707 54.6389 43.2107 54.3579C43.3807 53.3789 43.5506 52.3759 43.5506 51.3719C43.5506 48.6009 45.6607 45.4079 45.2707 42.7099C45.0407 41.0399 38.1607 42.1979 36.9907 42.6679C34.8207 43.5349 34.4207 50.7899 34.0907 52.7599C33.9907 53.3679 33.7206 55.0769 34.0506 55.6189C35.0006 57.2169 40.0306 56.2729 41.4006 55.9979C41.8806 55.9029 42.9507 56.4289 43.2607 56.1239C43.3807 56.0029 43.5407 54.8199 43.2307 55.5979Z" fill="black"/>
<path d="M54.8207 59.1511C55.1007 59.4371 55.1507 58.9651 55.2007 58.6041C55.3807 57.3421 55.4508 56.1381 54.0208 55.6611C51.9108 54.9571 48.0907 56.2281 45.9507 56.5861C45.5007 56.6611 43.7307 56.5321 43.4707 56.7961C42.2007 58.0611 43.6507 63.7471 43.9307 65.4161C44.0507 66.1461 43.9207 67.9731 44.4707 68.5281C45.5107 69.5601 52.7508 70.0041 53.6408 69.1171C54.7608 68.0001 54.2207 63.3671 54.4807 61.8001C54.5707 61.2781 54.3807 58.7051 54.8207 59.1511Z" fill="black"/>
<path d="M46.2507 73.749C46.6307 73.052 46.1407 72.849 45.9807 72.199C45.8007 71.507 45.2906 69.87 44.6706 69.457C43.6006 68.749 38.0807 68.083 37.3907 69.457C36.9807 70.284 39.0807 71.883 39.4807 72.378C40.8807 74.127 44.8906 81.093 47.9406 79.055C49.5406 77.992 45.6207 74.879 46.2507 73.749Z" fill="black"/>
<path d="M61.3307 71.1357C62.5507 68.3897 63.3708 67.2297 66.7708 67.0777C67.1708 67.0597 70.1408 66.6707 70.0008 67.3057C69.2308 70.7047 64.7508 74.2647 61.6408 75.4567C61.1408 75.6487 58.3108 77.5197 57.8808 76.6897C57.4508 75.8527 62.4407 69.2167 62.0407 68.7257" fill="black"/>
<path d="M33.6808 57.9865C36.0408 56.0135 26.0009 55.9485 25.5909 56.7985C24.8109 58.4025 27.4808 66.9815 29.0508 67.7425C30.1808 68.2845 32.5609 68.2105 33.7509 68.2195C34.4609 68.2255 36.1809 68.8145 36.7709 68.4635C38.0909 67.6855 31.5108 59.8125 33.6808 57.9865Z" fill="black"/>
<path d="M62.6906 42.7198C62.5506 42.4588 63.2007 43.5748 63.2407 43.9308C63.3707 44.9808 64.0607 45.8938 64.2307 46.9588C64.5707 48.9908 64.7806 51.0908 64.7806 53.1798C64.7806 53.8568 64.3506 54.6458 64.4506 55.2718C64.4906 55.5088 65.1006 55.3518 65.2806 55.3818C66.6406 55.6078 67.7106 56.3978 69.1906 56.1528C70.3506 55.9588 71.4107 55.1138 72.4907 55.5468C72.5807 55.5818 73.3107 55.6448 73.3707 55.5468C74.5707 53.5548 72.3706 44.2998 69.7906 43.6558C68.7506 43.3938 62.8606 43.0198 62.6906 42.7198Z" fill="black"/>
<path d="M36.1201 42.7924C36.2401 43.4614 36.2801 42.2004 36.4801 41.7824C36.9601 40.7764 37.3 39.6354 37.94 38.7204C39.09 37.0784 40.7001 35.7844 41.8401 34.1484C41.9501 33.9944 42.2101 33.5504 42.0101 33.3994C41.0601 32.6854 39.25 33.9864 38.32 34.3154C36.17 35.0774 27.93 40.9344 28.43 43.4194C28.64 44.4734 36.0101 42.1234 36.1201 42.7924Z" fill="black"/>
<path d="M51.2103 31.2131C50.1203 31.5421 52.0403 34.2581 52.1803 35.3431C52.9203 41.3261 54.0803 41.1291 59.2803 42.1691C59.8803 42.2901 61.2903 42.6531 61.8703 42.2241C62.9103 41.4381 60.5303 38.4131 60.0503 37.7651C57.6503 34.5631 56.0703 29.7541 51.2103 31.2131Z" fill="black"/>
<path d="M70.3701 76.0433C70.3701 76.0433 71.8601 75.3503 73.1001 73.4713C74.3501 71.5923 74.2001 70.3203 74.2001 70.3203C74.2001 70.3203 74.5401 72.8313 75.5901 74.1213C76.6301 75.4103 78.3701 75.4783 78.3701 75.4783C78.3701 75.4783 76.87 75.1713 75.65 77.1423C74.42 79.1143 74.5901 80.1373 74.5901 80.1373C74.5901 80.1373 74.8 79.3743 73.41 77.5873C72.03 75.8003 70.3701 76.0433 70.3701 76.0433Z" fill="black" stroke="black" stroke-width="2" stroke-miterlimit="10" stroke-linejoin="round"/>
<path d="M21 29.5875C21 29.5875 23.3399 29.0225 24.6599 27.1435C25.9699 25.2645 26.25 22.0713 26.25 22.0713C26.25 22.0713 26.8399 25.6123 28.2899 27.3075C29.7399 29.0015 32.0499 28.8505 32.0499 28.8505C32.0499 28.8505 29.5799 29.4655 28.2799 31.4365C26.9799 33.4085 26.86 36.7355 26.86 36.7355C26.86 36.7355 26.47 33.8975 25 32.1105C23.54 30.3225 21 29.5875 21 29.5875Z" stroke="black" stroke-width="2" stroke-miterlimit="10" stroke-linejoin="round"/>
</svg>
