<svg width="100" height="100" viewBox="0 0 100 100" fill="none" xmlns="http://www.w3.org/2000/svg">
<path d="M36.221 27.1521C36.221 27.1521 34.491 25.2751 32.448 28.9581C30.405 32.6411 23.32 42.9021 24.053 45.4031C25.392 49.9751 32.355 77.5051 34.83 81.7281C35.476 82.8291 47.892 78.0331 47.892 78.0331" stroke="black" stroke-width="2" stroke-miterlimit="10"/>
<path d="M37.6449 24.8795C35.9539 25.6395 30.3939 41.2705 30.9739 43.3305C31.5529 45.3895 49.0078 83.6405 51.7398 83.0345C54.4718 82.4275 74.5939 72.3185 75.5329 70.1365C76.4709 67.9545 58.4638 33.2585 57.2948 31.2325C56.1258 29.2075 39.9959 23.8215 37.6449 24.8795Z" stroke="black" stroke-width="2" stroke-miterlimit="10"/>
<path d="M60.7148 55.3909C56.7078 55.4049 57.3437 62.5559 61.2627 61.5599C65.1827 60.5629 64.6108 55.3759 60.7148 55.3909Z" stroke="black" stroke-width="2" stroke-miterlimit="10"/>
<path d="M44.7031 45.3059C39.7091 45.9039 41.537 54.7279 46.279 52.9179C51.022 51.1079 49.5581 44.7239 44.7031 45.3059Z" stroke="black" stroke-width="2" stroke-miterlimit="10"/>
<path d="M53.5438 40.0645C53.5438 40.0645 53.4298 48.7304 53.5248 50.9494C53.7318 55.8044 53.3647 57.9574 53.3647 57.9574C53.3647 57.9574 53.1648 61.8384 53.0208 64.2254C52.9778 64.9284 52.9197 68.4745 52.8027 68.0385" stroke="black" stroke-width="2" stroke-miterlimit="10" stroke-linecap="round"/>
<path d="M39.4259 29.1688C40.0599 28.6498 40.7359 28.7298 41.1589 27.8608C42.7609 24.5628 39.0989 16.3808 35.4039 16.0128C32.2669 15.7008 32.3649 21.1558 33.3399 23.0868C33.7379 23.8748 34.3479 25.1378 35.5619 26.8008" stroke="black" stroke-width="2" stroke-miterlimit="10" stroke-linecap="round"/>
<path d="M39.103 28.9029C37.974 27.5849 38.491 30.3679 39.118 31.0269C39.434 31.3589 39.774 31.3409 40.152 31.2169C41.052 30.9209 39.413 29.2649 39.103 28.9029Z" stroke="black" stroke-width="2" stroke-miterlimit="10" stroke-linecap="round"/>
<path d="M34.9478 27.6338C34.9478 27.6338 29.3768 41.5848 29.5468 44.2888C29.7168 46.9928 45.9028 78.2148 45.9028 78.2148" stroke="black" stroke-width="2" stroke-miterlimit="10"/>
</svg>
