<svg width="100" height="100" viewBox="0 0 100 100" fill="none" xmlns="http://www.w3.org/2000/svg">
<path d="M50.4429 16.9412C35.2153 16.3874 25.2987 20.4586 24.4329 22.3065C23.567 24.1544 29.9377 27.064 47.3282 28.0157C64.7187 28.9675 74.4954 25.2471 75.3606 23.4302C76.2258 21.6133 69.4773 17.6334 50.4429 16.9412Z" stroke="black" stroke-width="2"/>
<path d="M24.8316 21.7507C22.5923 22.9065 18.4659 26.3417 23.3201 29C29.3878 32.3228 44.1237 34.2009 57.1259 33.4786C70.1282 32.7562 78.2907 29.2889 78.8686 26.4718C79.3309 24.2181 75.9468 22.4871 74.791 22.0055" stroke="black" stroke-width="2"/>
<path d="M21.2402 27.0334C23.0302 35.6139 27.057 52.6118 34.4524 58.8355C41.5621 64.8189 50.5466 64.7326 54.9789 64.0507C59.4112 63.3688 67.7566 60.0141 71.0034 51.6914C73.6383 44.9368 77.5689 32.9349 78.9275 26.2023" stroke="black" stroke-width="2"/>
<path d="M39.0534 62.4094C37.0418 67.7401 33.9926 77.593 34.1989 78.8037C34.7102 81.8038 43.5469 83.1102 52.0337 83.1102C59.3039 83.1102 66.2097 81.747 66.2097 78.8037C66.2097 77.4264 63.1923 67.3042 61.583 62.4094" stroke="black" stroke-width="2"/>
<path d="M35.3213 74.0928C37.7466 74.9891 45.6776 77.114 51.5615 76.8609C58.9165 76.5445 64.2307 74.2485 64.8634 73.6949" stroke="black" stroke-width="2"/>
<path d="M36.9307 70.4548C39.356 71.3511 45.6776 73.0805 51.5616 72.8274C58.9166 72.511 62.95 70.6129 63.5826 70.0593" stroke="black" stroke-width="2"/>
<path d="M35.564 74.1095L36.6891 70.3919L43.2438 72.2996L51.266 72.8866L59.5328 71.8594L63.8863 70.0984L64.7179 74.1095L54.3966 76.8977C51.853 76.8814 46.4331 76.7999 45.1026 76.6042C43.7721 76.4085 38.1891 74.8595 35.564 74.1095Z" fill="black"/>
<path d="M39.1279 62.3839C39.4054 62.4235 42.5895 65.0528 50.991 65.132C55.6176 65.1756 59.3637 63.6142 61.9018 61.9758" stroke="black" stroke-width="2"/>
<path d="M22.9487 34.2514C25.2485 38.4337 36.5019 40.8193 51.0952 40.8193C68.7676 40.8193 74.9553 36.864 77.0615 33.4912" stroke="black" stroke-width="2"/>
<path d="M23.1475 34.2326C23.9053 33.0389 25.5689 30.731 26.1601 31.0494C26.8991 31.4473 26.7854 37.7 27.8654 37.2452C28.9454 36.7905 31.1622 31.7883 32.0717 32.5841C32.9812 33.3799 32.4128 39.0642 33.9475 38.7231C35.4823 38.3821 38.0402 33.2093 38.836 33.721C39.6318 34.2326 40.1434 39.5189 41.5076 39.7463C42.8718 39.9737 44.9181 33.6074 45.9413 34.2326C46.9645 34.8578 48.1013 40.6558 49.3519 40.201C50.6024 39.7463 51.9666 33.7211 53.2172 34.2326C54.4677 34.7442 56.0593 40.6558 57.0256 40.201C57.9919 39.7463 59.3562 34.2326 60.4362 34.2326C61.5162 34.2326 63.1646 39.86 64.1309 39.2916C65.0973 38.7231 66.4046 33.0957 67.2004 33.2662C67.9962 33.4368 69.0762 37.9273 70.0994 37.5863C71.1226 37.2452 71.691 30.8789 72.771 31.7315C73.851 32.5841 75.6207 34.3528 76.7576 33.8981" stroke="black" stroke-width="2"/>
<path d="M58.8882 82.6602C61.8087 82.2066 66.0873 80.086 65.2068 75.6466C64.3263 71.2073 62.2106 65.1138 61.2628 62.6221" stroke="black" stroke-width="2"/>
<path d="M21.3481 24.9188L23.8955 22.2418L25.7088 24.2711L29.5514 25.6095L37.4957 27.1638L45.1809 27.6819L53.2979 28.2864L61.5012 27.6819L69.0569 26.3867L74.7992 24.0552L75.9649 22.5872L78.944 25.1778V26.7321L77.5624 28.2864L72.3814 30.9633L67.2867 32.2154L58.7811 33.122L50.1029 33.6401L40.2157 33.122L30.8467 31.6541L23.8955 29.3226L21.3481 27.1638V24.9188Z" fill="black"/>
<path d="M77.3504 27.543C74.9693 36.7427 73.0212 54.0057 63.5337 60.6679" stroke="black" stroke-width="2"/>
</svg>
