<svg width="100" height="100" viewBox="0 0 100 100" fill="none" xmlns="http://www.w3.org/2000/svg">
<path d="M36.1779 20.642C36.8519 28.958 42.9649 31.619 52.2579 37.85C61.5519 44.081 63.1009 50.551 57.4699 56.864C52.0569 63.05 50.1249 63.231 50.1249 63.231L54.5459 65.959C54.5459 65.959 65.9579 58.494 65.9709 50.024C65.9849 41.554 59.8859 37.409 55.7699 34.845C51.6539 32.281 44.9759 27.752 43.6759 26.223C41.0259 23.104 41.1739 21.005 40.9209 20.078C40.4339 18.295 35.9629 17.987 36.1779 20.642Z" stroke="black" stroke-width="2" stroke-miterlimit="10" stroke-linecap="round" stroke-linejoin="round"/>
<path d="M59.7819 79.8245C60.4149 82.0925 65.3868 81.7605 65.2758 78.7705C65.1638 75.7805 59.6369 69.2565 52.9469 65.1115C49.3929 62.9095 39.7348 56.3315 39.6198 50.1785C39.4558 41.4175 49.7949 36.3935 49.7949 36.3935L45.1198 33.5195C45.1198 33.5195 34.7499 39.6995 34.0449 47.9995C33.3409 56.2985 41.0729 64.2505 46.4749 67.4625C58.2719 74.4765 59.0129 77.0635 59.7819 79.8245Z" stroke="black" stroke-width="2" stroke-miterlimit="10" stroke-linecap="round" stroke-linejoin="round"/>
<path d="M45.8789 67.1562C45.8789 67.1562 39.7979 70.5473 38.3249 72.5243C37.3549 73.8273 35.0309 78.0363 35.3829 79.7853C35.7359 81.5343 39.4919 82.6193 40.2369 80.2473C40.9409 78.0063 41.3709 76.9803 42.7019 75.2183C44.0329 73.4553 50.1149 70.0273 50.1149 70.0273L45.8789 67.1562Z" stroke="black" stroke-width="2" stroke-miterlimit="10" stroke-linecap="round" stroke-linejoin="round"/>
<path d="M50.0649 31.1007C50.0649 31.1007 57.67 27.9227 59.084 24.8307C60.095 22.6177 60.869 20.1537 60.937 19.0067C61.005 17.8597 65.785 17.2027 65.818 19.8107C65.85 22.4197 64.371 25.7067 61.882 28.2527C59.392 30.7987 53.838 33.4927 53.838 33.4927L50.0649 31.1007Z" stroke="black" stroke-width="2" stroke-miterlimit="10" stroke-linecap="round" stroke-linejoin="round"/>
<path d="M40.9119 79.1508C41.5389 79.3078 46.0798 79.1118 46.7618 79.0748C48.8488 78.9628 50.3449 78.8518 52.4149 78.7408C53.2919 78.6938 58.2159 78.3578 59.0739 78.4978" stroke="black" stroke-width="2" stroke-miterlimit="10" stroke-linecap="round" stroke-linejoin="round"/>
<path d="M43.5127 74.6266C43.5127 74.6266 49.1017 74.4586 50.2677 74.3486C50.9317 74.2856 55.3077 74.2446 55.9597 74.0996" stroke="black" stroke-width="2" stroke-miterlimit="10" stroke-linecap="round" stroke-linejoin="round"/>
<path d="M44.6738 68.3584L48.5349 70.8744" stroke="black" stroke-width="2" stroke-miterlimit="10" stroke-linecap="round" stroke-linejoin="round"/>
<path d="M43.8589 58.0218C47.3759 58.1198 53.4959 58.1078 56.3859 57.5078" stroke="black" stroke-width="2" stroke-miterlimit="10" stroke-linecap="round" stroke-linejoin="round"/>
<path d="M40.6528 51.3198C44.1108 51.0018 48.7178 51.1628 52.5988 51.0508C53.8938 51.0128 55.2699 51.1548 56.5349 50.9598C56.9379 50.8968 59.7489 50.9098 60.1489 50.9778" stroke="black" stroke-width="2" stroke-miterlimit="10" stroke-linecap="round" stroke-linejoin="round"/>
<path d="M43.1167 42.8516C45.0567 42.7776 47.4647 42.8276 50.9837 42.6636C54.2107 42.5136 56.1167 42.1686 57.3757 42.3826" stroke="black" stroke-width="2" stroke-miterlimit="10" stroke-linecap="round" stroke-linejoin="round"/>
<path d="M44.1968 34.4502L47.7358 36.8632" stroke="black" stroke-width="2" stroke-miterlimit="10" stroke-linecap="round" stroke-linejoin="round"/>
<path d="M44.7908 26.8659C45.9068 27.2219 52.7408 26.6279 54.1318 26.6869C54.7068 26.7119 57.1278 26.5359 57.6918 26.5599" stroke="black" stroke-width="2" stroke-miterlimit="10" stroke-linecap="round" stroke-linejoin="round"/>
<path d="M41.8589 22.4708C44.8449 22.0038 52.3959 22.0078 55.3749 21.9688C56.3729 21.9558 58.8319 21.8298 59.8259 21.8718" stroke="black" stroke-width="2" stroke-miterlimit="10" stroke-linecap="round" stroke-linejoin="round"/>
</svg>
