<svg width="100" height="100" viewBox="0 0 100 100" fill="none" xmlns="http://www.w3.org/2000/svg">
<path d="M50.8803 42.5026C56.9203 42.3726 59.4903 39.2326 59.6503 32.7326C59.7703 27.9226 55.0703 23.3026 50.2603 23.1726C45.0503 23.0326 40.7703 27.2126 40.7703 32.3926C40.8403 37.5826 34.6103 37.5826 34.6803 32.3926C34.6803 23.6826 41.9403 16.6826 50.7403 17.0926C58.9803 17.4826 65.3203 24.5826 65.3203 32.8226V78.4826C65.3203 79.9326 64.1503 81.1026 62.7003 81.1026H38.8903C37.4403 81.1026 36.2703 79.9326 36.2703 78.4826V55.3526C36.4903 46.7526 44.0603 42.6526 50.8903 42.5026H50.8803Z" stroke="black" stroke-width="2" stroke-linecap="round" stroke-linejoin="round"/>
<path d="M37.8403 81.5427C38.4403 83.0827 40.6403 83.0027 42.2803 82.8427C46.6403 82.4227 63.9603 83.7327 64.8303 80.6727" stroke="black" stroke-width="2" stroke-linecap="round" stroke-linejoin="round"/>
<path d="M43.2803 75.0426C48.0303 74.3226 53.8803 74.6626 58.6803 74.7526" stroke="black" stroke-width="2" stroke-linecap="round" stroke-linejoin="round"/>
<path d="M42.9004 70.3126C48.3804 70.3326 52.8104 70.8126 58.8704 70.5826" stroke="black" stroke-width="2" stroke-linecap="round" stroke-linejoin="round"/>
<path d="M43.2702 61.0325C42.3802 59.6725 42.2402 58.8925 42.0702 57.1325C41.6102 52.3325 45.2102 48.4125 50.8802 48.3225C55.8602 48.2425 59.9102 52.3925 59.6902 57.1325C59.4602 62.1125 56.2902 66.1125 50.8802 65.9425C48.9402 65.8825 47.2202 65.2425 45.8302 64.1825" stroke="black" stroke-width="2" stroke-linecap="round" stroke-linejoin="round"/>
<path d="M59.3402 35.8026C59.8002 28.2526 53.0402 24.4726 48.8102 24.7026C37.3502 25.3226 43.4602 37.4726 37.6302 37.4726C36.1102 37.4726 34.2102 35.7626 34.9302 34.2326" stroke="black" stroke-width="2" stroke-linecap="round" stroke-linejoin="round"/>
</svg>
