<svg width="100" height="100" viewBox="0 0 100 100" fill="none" xmlns="http://www.w3.org/2000/svg">
<path d="M57.9417 73.0865C46.3199 73.7725 34.698 73.3914 23.2331 71.7907C20.5633 71.4095 17.6578 70.7997 16.2443 68.8179C15.302 67.5983 15.2235 65.9976 15.2235 64.4731C14.9094 49.7616 15.7731 34.9739 17.8148 20.2624C17.9719 18.8904 18.286 17.3659 19.3854 16.2987C20.4062 15.384 22.0552 15.0029 23.5472 14.7742C34.855 12.8686 46.3984 11.7252 57.8632 11.4965C57.8632 11.4965 61.7403 11.319 63.2365 12.5213C63.2365 12.5213 65.0091 13.3542 65.0091 16.9797C65.4017 22.6088 65.1662 25.8269 65.0091 30.7815C64.9306 36.1935 64.7735 41.6817 64.6165 47.1699C64.5726 49.1953 64.5286 51.2207 64.4606 53.2427" stroke="black" stroke-width="2" stroke-miterlimit="10"/>
<path d="M27.1592 45.7793L55.4286 46.2599" stroke="black" stroke-width="2" stroke-miterlimit="10" stroke-linecap="round"/>
<path d="M43.6499 65.1623L54.1724 64.2812" stroke="black" stroke-width="2" stroke-miterlimit="10" stroke-linecap="round"/>
<path d="M25.9028 36.7275H55.4287" stroke="black" stroke-width="2" stroke-miterlimit="10" stroke-linecap="round"/>
<path d="M25.9028 29.8394L54.1723 27.5967" stroke="black" stroke-width="2" stroke-miterlimit="10" stroke-linecap="round"/>
<path d="M56.3545 85.9455C57.3006 83.637 57.068 84.163 58.014 81.8545" stroke="black" stroke-width="2" stroke-miterlimit="10" stroke-linecap="round"/>
<path d="M73.3348 29.0382C70.3869 35.5317 67.3732 43.8582 65.0509 50.5974C64.1546 53.1633 63.2377 55.894 63.9074 58.4053C64.5668 60.9989 66.5657 61.417 69.2457 60.3303C71.2278 59.5745 72.1531 57.4308 72.8859 55.514C75.9494 47.4448 79.493 37.5108 82.5565 29.4416" fill="black"/>
<path d="M76.6745 31.2149C77.6336 31.4189 80.602 31.9586 82.0411 30.2978C83.0143 29.0807 82.7467 27.2895 81.7397 26.1588C80.5815 24.9255 78.9367 24.3007 77.5117 24.5404C74.9247 24.8855 73.7552 28.2073 72.8321 30.2979C73.2426 31.6049 75.6347 31.0008 76.6745 31.2149Z" stroke="black" stroke-width="2" stroke-miterlimit="10"/>
<path d="M73.306 29.2863C70.3581 35.7797 67.3444 44.1062 65.0221 50.8455C64.1258 53.4114 63.2089 56.1421 63.8786 58.6533C64.538 61.2469 66.5369 61.665 69.2169 60.5783C71.199 59.8226 72.1243 57.6788 72.8571 55.762C75.9206 47.6928 79.4642 37.7589 82.5277 29.6897" stroke="black" stroke-width="2" stroke-miterlimit="10"/>
<path d="M63.6798 57.6233C61.256 64.5173 59.0436 71.6888 56.6302 78.5004C56.3756 79.2217 56.1003 80.1078 56.3408 80.8076C56.832 82.1247 58.8619 82.2956 60.1066 81.531C61.3513 80.7665 62.022 79.3441 62.5913 78.0763C65.3053 72.1394 67.777 66.1722 70.0871 60.1846" stroke="black" stroke-width="2" stroke-miterlimit="10"/>
<path d="M76.0989 52.2162C75.7096 52.6079 75.7116 53.2411 76.1034 53.6304C76.4952 54.0197 77.1283 54.0177 77.5176 53.6259L76.0989 52.2162ZM80.5959 32.6949C82.1215 34.681 82.5057 38.0429 81.6807 41.8011C80.8649 45.5176 78.9101 49.3873 76.0989 52.2162L77.5176 53.6259C80.6228 50.5011 82.7452 46.2795 83.6342 42.2299C84.5139 38.2221 84.2303 34.1432 82.182 31.4766L80.5959 32.6949Z" fill="black"/>
</svg>
