<svg width="100" height="100" viewBox="0 0 100 100" fill="none" xmlns="http://www.w3.org/2000/svg">
<path d="M53.301 45.683C55.4315 45.683 57.1586 43.9559 57.1586 41.8254C57.1586 39.6949 55.4315 37.9678 53.301 37.9678C51.1705 37.9678 49.4434 39.6949 49.4434 41.8254C49.4434 43.9559 51.1705 45.683 53.301 45.683Z" fill="black" stroke="black" stroke-width="2" stroke-miterlimit="10" stroke-linecap="round"/>
<path d="M55.9873 37.9673L59.5005 30.1143" stroke="black" stroke-width="2" stroke-miterlimit="10" stroke-linecap="round"/>
<path d="M59.5008 30.0455C60.7563 30.0455 61.774 29.0278 61.774 27.7723C61.774 26.5168 60.7563 25.499 59.5008 25.499C58.2453 25.499 57.2275 26.5168 57.2275 27.7723C57.2275 29.0278 58.2453 30.0455 59.5008 30.0455Z" stroke="black" stroke-width="2" stroke-miterlimit="10" stroke-linecap="round"/>
<path d="M68.0427 21.5725C69.2826 42.0317 70.867 55.4645 70.3848 70.4128C70.3159 73.1683 71.0048 74.6838 69.5582 77.0259C66.6649 81.9168 29.1219 83.0879 27.0553 80.4013C25.402 78.2659 25.1265 75.3726 24.9887 72.6172C23.9554 56.2911 24.231 40.7917 23.1977 24.4657C23.1288 22.8813 22.3711 17.7148 24.7821 17.2326C34.0128 15.3038 67.1471 13.0994 67.6982 15.8549C67.9738 17.9215 68.0427 21.5725 68.0427 21.5725Z" stroke="black" stroke-width="2" stroke-miterlimit="10" stroke-linecap="round"/>
<path fill-rule="evenodd" clip-rule="evenodd" d="M39.5418 81.8102C39.789 82.7064 40.158 83.5504 40.7261 84.2889C42.4482 86.4933 73.7915 85.5289 76.2025 81.4646C77.0502 80.0685 76.9955 78.9972 76.9268 77.6498C76.9006 77.1358 76.8724 76.5815 76.8914 75.9537C77.1895 66.9597 76.5916 58.6468 75.8474 48.3001C75.5599 44.3031 75.2505 40.0025 74.9626 35.2419C74.9626 35.2419 74.9626 32.142 74.6181 30.4198C74.4984 29.761 72.0929 29.4435 68.549 29.3652C68.7409 32.1552 68.9332 34.8146 69.1182 37.3717C70.0111 49.7151 70.7315 59.6728 70.385 70.4128C70.3661 71.1715 70.4045 71.8362 70.4401 72.45C70.5336 74.0655 70.6067 75.3286 69.5584 77.0259C67.6928 80.1797 51.4201 81.7868 39.5418 81.8102Z" fill="black"/>
<path d="M40.7261 84.2889L39.9334 84.8987L39.9381 84.9046L40.7261 84.2889ZM39.5418 81.8102L39.5399 80.8102L38.2295 80.8128L38.5778 82.076L39.5418 81.8102ZM76.2025 81.4646L75.3477 80.9456L75.3425 80.9544L76.2025 81.4646ZM76.9268 77.6498L77.9255 77.5989L76.9268 77.6498ZM76.8914 75.9537L75.8919 75.9206L75.8918 75.9234L76.8914 75.9537ZM75.8474 48.3001L76.8448 48.2284L75.8474 48.3001ZM74.9626 35.2419H73.9626V35.2721L73.9644 35.3023L74.9626 35.2419ZM74.6181 30.4198L73.6343 30.5987L73.6358 30.6074L73.6376 30.616L74.6181 30.4198ZM68.549 29.3652L68.5711 28.3654L67.4763 28.3412L67.5514 29.4338L68.549 29.3652ZM69.1182 37.3717L70.1156 37.2995L69.1182 37.3717ZM70.385 70.4128L69.3855 70.3806L69.3853 70.3878L70.385 70.4128ZM70.4401 72.45L69.4417 72.5078L70.4401 72.45ZM69.5584 77.0259L68.7076 76.5004L68.7026 76.5086L68.6977 76.5168L69.5584 77.0259ZM41.5187 83.6792C41.0489 83.0684 40.7283 82.351 40.5059 81.5444L38.5778 82.076C38.8497 83.0619 39.2671 84.0323 39.9335 84.8986L41.5187 83.6792ZM75.3425 80.9544C75.3041 81.0191 75.1851 81.1588 74.8902 81.3457C74.6047 81.5268 74.2112 81.7164 73.704 81.9074C72.6896 82.2896 71.3239 82.6393 69.6978 82.9481C66.4524 83.5644 62.302 83.9936 58.1494 84.2291C53.9993 84.4644 49.8806 84.5043 46.7052 84.3503C45.1139 84.2731 43.7846 84.1484 42.8156 83.9816C42.3288 83.8979 41.9624 83.8084 41.7105 83.7207C41.4091 83.6158 41.431 83.5669 41.5141 83.6733L39.9381 84.9046C40.2365 85.2865 40.705 85.4884 41.0531 85.6096C41.4507 85.748 41.9367 85.8598 42.4764 85.9527C43.5605 86.1392 44.9813 86.2691 46.6083 86.348C49.8694 86.5061 54.0602 86.4642 58.2626 86.2259C62.4624 85.9878 66.7076 85.5517 70.0709 84.9129C71.7492 84.5942 73.2412 84.219 74.4091 83.7791C74.993 83.5591 75.5218 83.3134 75.9612 83.0349C76.3911 82.7622 76.7996 82.4181 77.0626 81.9748L75.3425 80.9544ZM75.9281 77.7008C75.9959 79.0305 76.0256 79.8291 75.3477 80.9456L77.0573 81.9836C78.0747 80.3079 77.9951 78.9639 77.9255 77.5989L75.9281 77.7008ZM75.8918 75.9234C75.8714 76.597 75.902 77.1889 75.9281 77.7008L77.9255 77.5989C77.8992 77.0826 77.8733 76.566 77.8909 75.984L75.8918 75.9234ZM74.8499 48.3719C75.5948 58.7274 76.188 66.9879 75.8919 75.9206L77.8908 75.9868C78.191 66.9316 77.5884 58.5662 76.8448 48.2284L74.8499 48.3719ZM73.9644 35.3023C74.2527 40.0693 74.5625 44.3752 74.8499 48.3719L76.8448 48.2284C76.5572 44.2309 76.2483 39.9357 75.9608 35.1815L73.9644 35.3023ZM73.6376 30.616C73.7934 31.3952 73.8776 32.5337 73.9205 33.5201C73.9415 34.0044 73.9521 34.4366 73.9573 34.7476C73.96 34.9029 73.9613 35.0276 73.9619 35.113C73.9623 35.1556 73.9624 35.1884 73.9625 35.2103C73.9625 35.2212 73.9626 35.2294 73.9626 35.2347C73.9626 35.2374 73.9626 35.2393 73.9626 35.2405C73.9626 35.2411 73.9626 35.2415 73.9626 35.2418C73.9626 35.2419 73.9626 35.2419 73.9626 35.242C73.9626 35.242 73.9626 35.2419 73.9626 35.242C73.9626 35.2419 73.9626 35.2419 74.9626 35.2419C75.9626 35.2419 75.9626 35.2418 75.9626 35.2417C75.9626 35.2417 75.9626 35.2416 75.9626 35.2415C75.9626 35.2414 75.9626 35.2411 75.9626 35.2409C75.9626 35.2404 75.9626 35.2396 75.9626 35.2387C75.9626 35.237 75.9626 35.2344 75.9626 35.2312C75.9626 35.2246 75.9625 35.2152 75.9625 35.203C75.9624 35.1786 75.9622 35.1431 75.9619 35.0977C75.9612 35.0068 75.9598 34.8758 75.9571 34.7137C75.9516 34.3896 75.9406 33.9392 75.9186 33.4332C75.8754 32.4391 75.7873 31.1666 75.5987 30.2237L73.6376 30.616ZM68.5269 30.3649C70.2851 30.4038 71.7176 30.5017 72.7078 30.662C73.2099 30.7433 73.5431 30.8323 73.7342 30.9117C73.8299 30.9514 73.8435 30.97 73.8188 30.9489C73.7914 30.9255 73.6733 30.8133 73.6343 30.5987L75.602 30.241C75.5331 29.8617 75.3136 29.5954 75.1178 29.4282C74.9248 29.2633 74.7032 29.1485 74.5012 29.0646C74.0968 28.8967 73.5846 28.7779 73.0275 28.6877C71.899 28.505 70.3568 28.4049 68.5711 28.3654L68.5269 30.3649ZM67.5514 29.4338C67.7434 32.2258 67.9359 34.887 68.1208 37.4438L70.1156 37.2995C69.9306 34.7423 69.7384 32.0845 69.5467 29.2966L67.5514 29.4338ZM68.1208 37.4438C69.0144 49.7962 69.73 59.7016 69.3855 70.3806L71.3845 70.4451C71.7329 59.6441 71.0079 49.6341 70.1156 37.2995L68.1208 37.4438ZM69.3853 70.3878C69.3652 71.193 69.4063 71.8959 69.4417 72.5078L71.4384 72.3922C71.4028 71.7764 71.3669 71.15 71.3847 70.4378L69.3853 70.3878ZM69.4417 72.5078C69.5338 74.0985 69.5814 75.0857 68.7076 76.5004L70.4092 77.5514C71.632 75.5716 71.5334 74.0324 71.4384 72.3922L69.4417 72.5078ZM68.6977 76.5168C68.6033 76.6765 68.3372 76.9394 67.7486 77.2542C67.1821 77.5571 66.4156 77.8562 65.4632 78.1432C63.5608 78.7163 61.0383 79.205 58.1681 79.6013C52.435 80.3929 45.4432 80.7986 39.5399 80.8102L39.5438 82.8102C45.5187 82.7984 52.6024 82.3888 58.4416 81.5825C61.3576 81.1799 63.9955 80.6741 66.0401 80.0582C67.0612 79.7506 67.9649 79.4065 68.6917 79.0178C69.3965 78.641 70.0471 78.1638 70.4191 77.5351L68.6977 76.5168Z" fill="black"/>
<path d="M36.9057 68.2774C36.9057 68.2774 33.8058 68.4841 44.621 67.8641C55.4361 67.2441 47.7209 67.6574 47.7209 67.6574" stroke="black" stroke-width="2" stroke-miterlimit="10" stroke-linecap="round"/>
<path d="M36.4922 63.3179C36.4922 63.3179 37.6633 63.1112 48.4784 62.4912C59.2935 61.8713 60.4646 61.5957 60.4646 61.5957" stroke="black" stroke-width="2" stroke-miterlimit="10" stroke-linecap="round"/>
<path d="M35.9414 59.1157C35.9414 59.1157 37.1125 58.9091 47.9276 58.2891C58.7428 57.6691 59.9138 57.3936 59.9138 57.3936" stroke="black" stroke-width="2" stroke-miterlimit="10" stroke-linecap="round"/>
<path d="M34.3574 41.8254C34.3574 41.8254 37.5951 35.0746 38.6284 31.8369" stroke="black" stroke-width="2" stroke-miterlimit="10" stroke-linecap="round"/>
<path d="M32.635 49.5405C34.7655 49.5405 36.4926 47.8133 36.4926 45.6828C36.4926 43.5523 34.7655 41.8252 32.635 41.8252C30.5045 41.8252 28.7773 43.5523 28.7773 45.6828C28.7773 47.8133 30.5045 49.5405 32.635 49.5405Z" stroke="black" stroke-width="2" stroke-miterlimit="10" stroke-linecap="round"/>
<path d="M46.0684 31.6992C46.0684 31.6992 49.926 38.7945 51.5793 38.3812" stroke="black" stroke-width="2" stroke-miterlimit="10" stroke-linecap="round"/>
<path d="M42.692 32.7316C46.116 32.7316 48.8917 29.9558 48.8917 26.5318C48.8917 23.1078 46.116 20.332 42.692 20.332C39.2679 20.332 36.4922 23.1078 36.4922 26.5318C36.4922 29.9558 39.2679 32.7316 42.692 32.7316Z" stroke="black" stroke-width="2" stroke-miterlimit="10" stroke-linecap="round"/>
</svg>
