<svg width="100" height="100" viewBox="0 0 100 100" fill="none" xmlns="http://www.w3.org/2000/svg">
<path fill-rule="evenodd" clip-rule="evenodd" d="M17.5248 20.9018C16.0148 24.0565 16.4166 34.7407 16.4166 34.7407C16.4166 34.7407 17.0377 45.4383 16.5719 51.5854C16.2614 57.8124 19.9875 56.9342 19.9875 56.9342C19.9875 56.9342 27.7229 58.0315 29.5963 58.192C28.4169 58.2043 27.626 58.2117 27.4433 58.2117C26.4048 58.2117 16.6589 56.9343 16.6589 56.9343C16.6589 56.9343 12.5849 57.8125 12.9843 51.5855C13.3837 45.4383 12.7446 34.7407 12.7446 34.7407L13.863 23.7237C13.863 23.7237 15.3009 19.2531 15.6205 18.7741C16.0199 18.2951 19.4549 16.6186 19.4549 16.6186C19.4549 16.6186 20.5553 16.7316 22.0181 16.8545C20.9274 17.3274 18.6489 18.553 17.5248 20.9018ZM28.5998 17.1209C29.9695 17.1867 31.1285 17.1828 31.4762 17.0177C32.436 16.5947 46.2304 15.7981 49.7092 15.7277C48.1655 15.6472 30.2001 16.5555 29.1209 17.0177C29.0123 17.0642 28.8337 17.0979 28.5998 17.1209ZM57.779 33.3539C57.7763 34.1967 57.7571 34.7676 57.7141 34.9003C57.6521 35.1128 57.5901 36.3721 57.5325 38.1057C57.5918 36.3721 57.6556 35.1129 57.7194 34.9004C57.7636 34.7677 57.7806 34.1967 57.779 33.3539Z" fill="black"/>
<path d="M47.3336 58.1325C34.8717 57.8132 13.1446 59.6493 13.3043 54.6997C13.3043 54.6997 12.825 36.338 13.3043 27.3967C13.7836 19.1739 14.7422 15.9806 24.568 16.6991C34.3937 17.4176 46.7758 15.1823 54.1251 16.1403C55.1636 16.3798 56.0423 16.9386 56.6015 17.7369C57.2406 18.5353 57.4802 19.5731 57.4003 20.6109C57.4003 24.6625 57.4003 39.1852 57.4003 47.4047" stroke="black" stroke-width="2" stroke-miterlimit="10" stroke-linecap="round"/>
<path d="M24.8867 45.9971H45.7365" stroke="black" stroke-width="2" stroke-miterlimit="10" stroke-linecap="round"/>
<path d="M24.8867 38.5732H45.7365" stroke="black" stroke-width="2" stroke-miterlimit="10" stroke-linecap="round"/>
<path d="M24.8867 31.2285H45.7365" stroke="black" stroke-width="2" stroke-miterlimit="10" stroke-linecap="round"/>
<path d="M47.5511 81.0048C47.5511 81.0048 47.1516 64.8785 47.5511 56.9751C47.9505 49.7103 48.8292 46.9161 57.4567 47.5548C66.164 48.1935 76.9484 46.1976 83.4989 47.0758C84.3776 47.2355 85.1764 47.7943 85.7356 48.5128C86.2948 49.2313 86.5344 50.1095 86.4546 51.0675C86.4546 56.0969 86.4546 79.7274 86.4546 79.7274C86.4546 79.7274 87.5729 84.0384 78.4662 84.0384C67.3623 83.7989 47.3114 85.4754 47.5511 81.0048Z" stroke="black" stroke-width="2" stroke-miterlimit="10" stroke-linecap="round"/>
<path d="M49.0688 82.6816C49.0688 82.6816 61.6479 67.2889 62.5692 67.5933C63.4906 67.8977 72.395 77.4127 72.395 77.4127L78.3863 83.9589" stroke="black" stroke-width="2" stroke-miterlimit="10" stroke-linecap="round"/>
<path d="M66.8828 70.2272C66.8828 70.2272 74.3962 54.5815 76.0695 54.8993C77.7427 55.2171 85.2562 68.6305 85.2562 68.6305" stroke="black" stroke-width="2" stroke-miterlimit="10" stroke-linecap="round"/>
<path d="M67.3623 71.2651C67.3623 71.2651 72.2867 70.2273 73.0341 70.2273C73.7815 70.2273 76.3739 72.5359 76.9484 72.6223C77.5229 72.7087 83.0141 68.6939 83.7386 68.6307C84.463 68.5675 86.4546 70.2273 86.4546 70.2273L86.3747 79.6476L85.2564 82.3619L78.7059 84.0384L67.3623 71.2651Z" fill="black"/>
</svg>
