<svg width="100" height="100" viewBox="0 0 100 100" fill="none" xmlns="http://www.w3.org/2000/svg">
<path d="M51.0983 27.996C44.6503 27.842 48.5073 27.622 41.1003 27.713C33.6923 27.803 27.0073 39.142 25.9433 49.508C24.8793 59.875 23.7893 75.404 34.7843 74.064C45.7793 72.725 43.8713 68.378 47.3703 63.884C50.8703 59.39 55.6153 61.426 58.2453 63.241C60.8763 65.057 59.1193 74.443 66.2453 74.735C73.3723 75.027 78.9003 67.078 77.8953 56.643C76.8903 46.208 74.3873 35.3 66.7603 30.401C59.1343 25.502 57.8883 28.158 51.0983 27.996Z" stroke="black" stroke-width="2" stroke-miterlimit="10" stroke-linecap="round" stroke-linejoin="round"/>
<path d="M44.5986 69.5244C44.5986 69.5244 48.1536 72.3424 52.7966 71.7984C57.4396 71.2554 60.3336 69.5324 60.3336 69.5324" stroke="black" stroke-width="2" stroke-miterlimit="10" stroke-linecap="round" stroke-linejoin="round"/>
<path d="M45.4449 50.418C45.4449 50.418 40.0799 51.12 38.3309 55.987C36.5809 60.853 37.4859 64.515 37.4859 64.515" stroke="black" stroke-width="2" stroke-miterlimit="10" stroke-linecap="round" stroke-linejoin="round"/>
<path d="M50.7593 50.317C48.8213 51.274 46.3273 52.165 48.0293 54.354C49.7313 56.543 53.0013 55.793 55.7613 55.321C58.5213 54.848 56.9433 51.596 55.1853 50.687C53.4263 49.778 52.6963 49.361 50.7593 50.317Z" fill="black" stroke="black" stroke-width="2" stroke-miterlimit="10" stroke-linecap="round" stroke-linejoin="round"/>
<path d="M58.085 49.5674C58.085 49.5674 65.6879 51.6024 66.9789 56.0144C67.8539 59.0014 67.868 63.0974 67.868 63.0974" stroke="black" stroke-width="2" stroke-miterlimit="10" stroke-linecap="round" stroke-linejoin="round"/>
<path d="M51.1117 61.8984C51.1117 61.8984 50.6117 68.6434 55.5837 68.0674C58.9737 67.6754 59.4957 66.1064 59.1257 64.9644C58.7557 63.8224 56.4847 62.1704 54.9387 62.0344C53.3927 61.8984 51.1117 61.8984 51.1117 61.8984Z" fill="black" stroke="black" stroke-width="2" stroke-miterlimit="10" stroke-linecap="round" stroke-linejoin="round"/>
<path d="M44.3009 60.7129C44.2459 60.7939 44.2439 60.7579 44.3489 60.8089" stroke="black" stroke-width="2" stroke-miterlimit="10" stroke-linecap="round" stroke-linejoin="round"/>
<path d="M60.8843 60.428L60.7812 60.293" stroke="black" stroke-width="2" stroke-miterlimit="10" stroke-linecap="round" stroke-linejoin="round"/>
<path d="M40.3916 59.9395L40.4686 60.0405" stroke="black" stroke-width="2" stroke-miterlimit="10" stroke-linecap="round" stroke-linejoin="round"/>
<path d="M64.0525 57.9893C63.9365 58.0783 63.9095 58.0602 64.0115 58.0742" stroke="black" stroke-width="2" stroke-miterlimit="10" stroke-linecap="round" stroke-linejoin="round"/>
<path d="M42.6279 56.1377C42.7199 56.2007 42.8119 56.2637 42.9039 56.3267" stroke="black" stroke-width="2" stroke-miterlimit="10" stroke-linecap="round" stroke-linejoin="round"/>
<path d="M60.4707 55.6916L60.5657 55.4326" stroke="black" stroke-width="2" stroke-miterlimit="10" stroke-linecap="round" stroke-linejoin="round"/>
<path d="M33.3396 42.376C31.5336 46.052 33.9456 50.607 38.7386 49.94C41.6426 49.537 44.0376 46.26 43.1756 43.38C42.3136 40.501 41.3816 40.638 37.1766 41.135C35.0956 41.381 33.4916 42.066 33.3396 42.376Z" stroke="black" stroke-width="2" stroke-miterlimit="10" stroke-linecap="round" stroke-linejoin="round"/>
<path d="M43.2656 45.9862C43.2656 45.9862 48.0306 42.7872 50.3386 42.3652C52.6466 41.9432 56.8706 43.8672 56.8706 43.8672" stroke="black" stroke-width="2" stroke-miterlimit="10" stroke-linecap="round" stroke-linejoin="round"/>
<path d="M61.8367 40.057C57.2697 40.823 55.8057 42.808 58.9117 46.519C60.7937 48.766 64.8417 49.059 66.8257 46.802C68.8107 44.544 67.7967 42.33 66.9417 40.826C65.9067 39.004 62.1777 40 61.8367 40.057Z" stroke="black" stroke-width="2" stroke-miterlimit="10" stroke-linecap="round" stroke-linejoin="round"/>
<path d="M58.6172 27.425C63.5922 27.441 71.5992 24.514 76.2942 29.068C80.9892 33.621 85.3912 37.827 81.2552 43.45C77.1182 49.073 74.5752 39.951 73.4962 38.202" stroke="black" stroke-width="2" stroke-miterlimit="10" stroke-linecap="round" stroke-linejoin="round"/>
<path d="M39.4302 27.7156C39.4302 27.7156 26.7792 22.8176 22.0402 29.5736C17.3012 36.3296 16.7452 44.4466 20.2982 47.1346C23.8512 49.8226 26.8962 44.4216 27.6222 42.0676" stroke="black" stroke-width="2" stroke-miterlimit="10" stroke-linecap="round" stroke-linejoin="round"/>
<path d="M37.6332 45.4716C37.5462 45.4516 37.5412 45.4616 37.6152 45.4426" stroke="black" stroke-width="2" stroke-miterlimit="10" stroke-linecap="round" stroke-linejoin="round"/>
<path d="M62.6046 43.8496C62.5256 43.8286 62.5246 43.8186 62.5776 43.8656" stroke="black" stroke-width="2" stroke-miterlimit="10" stroke-linecap="round" stroke-linejoin="round"/>
<path d="M34.4717 38.0795C35.8587 37.2005 39.1337 37.0835 40.6957 37.4335" stroke="black" stroke-width="2" stroke-miterlimit="10" stroke-linecap="round" stroke-linejoin="round"/>
<path d="M64.8053 36.2139C63.6023 36.5119 62.3853 36.4139 61.1803 36.6259C60.2013 36.7979 59.1903 37.2149 58.2393 37.3109" stroke="black" stroke-width="2" stroke-miterlimit="10" stroke-linecap="round" stroke-linejoin="round"/>
</svg>
