<svg width="100" height="100" viewBox="0 0 100 100" fill="none" xmlns="http://www.w3.org/2000/svg">
<path d="M31.1152 51.1542C31.1152 51.1542 28.1502 48.7462 27.8042 48.1702C24.1952 42.1632 27.1072 40.0102 26.1072 35.7742C25.1072 31.5382 20.7462 33.2032 18.2152 31.8772C15.6832 30.5512 16.0142 24.2572 16.0142 24.2572C16.0142 24.2572 21.0982 24.5422 22.7742 23.8802C24.4512 23.2192 26.8302 21.0102 30.5872 22.5142C34.3452 24.0182 34.0112 28.7502 36.6232 31.6732C39.2362 34.5962 43.6432 36.7102 50.7742 36.4872C57.9052 36.2632 61.5712 37.1302 67.6512 37.3092C71.0072 37.4082 75.6862 37.6732 79.0442 34.8392C82.5362 31.8922 81.0632 24.4352 81.6392 25.1492C82.2162 25.8622 86.1582 33.1032 81.6302 37.1992C77.1032 41.2952 74.9212 41.4862 74.9032 43.3852C74.8842 45.2842 75.1422 46.3012 74.5152 51.1852C74.0962 54.4532 77.3522 60.6902 77.7532 62.7592C78.4422 66.3202 78.0992 68.1872 78.1622 72.6432C78.2132 76.2682 76.1122 77.5132 72.5672 77.0062C71.1812 76.8072 73.8782 72.2312 73.8782 72.2312C73.8782 72.2312 74.8752 64.1882 70.4852 59.6602C65.3882 54.4022 61.7832 52.3932 59.5542 44.9082" stroke="black" stroke-width="2" stroke-miterlimit="10" stroke-linecap="round" stroke-linejoin="round"/>
<path d="M41.0781 54.4842C41.0781 54.4842 49.9051 58.8722 60.9921 50.3652" stroke="black" stroke-width="2" stroke-miterlimit="10" stroke-linecap="round" stroke-linejoin="round"/>
<path d="M31.6924 43.8172C31.6924 43.8172 28.6224 47.7092 32.6164 54.1312C35.0874 58.1042 36.2074 60.7742 36.3894 63.9222C36.5494 66.7082 36.3464 72.4472 36.3464 72.4472C36.3464 72.4472 33.1374 74.0572 34.4034 75.7052C35.6014 77.2652 38.8794 77.5512 39.6734 75.3692C40.4674 73.1872 39.8984 66.4602 40.4214 62.5532C41.7164 52.8832 39.3244 47.9082 39.3244 47.9082" stroke="black" stroke-width="2" stroke-miterlimit="10" stroke-linecap="round" stroke-linejoin="round"/>
<path d="M44.3402 55.5566C44.3402 55.5566 43.4922 65.1516 43.3882 68.0086C43.2832 70.8656 44.4332 72.8806 42.6452 74.0376C41.1882 74.9806 39.7822 75.0266 39.7822 75.0266" stroke="black" stroke-width="2" stroke-miterlimit="10" stroke-linecap="round" stroke-linejoin="round"/>
<path d="M57.6431 52.7482C57.6431 52.7482 64.6621 58.2572 67.8441 62.3612C71.0261 66.4642 70.826 70.8052 70.826 70.8052C70.826 70.8052 68.4011 72.4022 68.4331 74.3992C68.4651 76.3962 71.3181 76.0442 71.3181 76.0442" stroke="black" stroke-width="2" stroke-miterlimit="10" stroke-linecap="round" stroke-linejoin="round"/>
<path d="M29.472 25.6973C29.639 26.7213 30.808 27.8253 29.981 30.1843C29.154 32.5433 28.337 34.7933 30.75 36.0463C33.163 37.2993 35.756 34.4423 35.503 31.8313C35.251 29.2213 33.661 25.6953 33.661 25.6953" stroke="black" stroke-width="2" stroke-miterlimit="10" stroke-linecap="round" stroke-linejoin="round"/>
<path d="M24.6333 26.1484C24.6483 26.1764 24.6643 26.2034 24.6803 26.2314" stroke="black" stroke-width="2" stroke-miterlimit="10" stroke-linecap="round" stroke-linejoin="round"/>
<path d="M16.8013 26.6755C18.0443 26.1855 18.1013 25.1265 18.5713 24.6045" stroke="black" stroke-width="2" stroke-miterlimit="10" stroke-linecap="round" stroke-linejoin="round"/>
<path d="M36.1802 76.8336C36.1802 76.8336 46.5552 78.5346 54.1832 78.3156C61.8102 78.0976 74.0932 77.1486 74.0932 77.1486C74.0932 77.1486 70.8292 77.1066 69.3152 76.1056C67.8022 75.1046 68.0402 73.1436 68.0402 73.1436C68.0402 73.1436 59.1752 71.8206 53.5702 72.0316C47.9652 72.2436 43.9482 72.9436 43.9482 72.9436C43.9482 72.9436 42.3622 75.7886 40.5052 76.5686C38.6482 77.3486 36.1802 76.8336 36.1802 76.8336Z" fill="black" stroke="black" stroke-width="2" stroke-miterlimit="10" stroke-linecap="round" stroke-linejoin="round"/>
</svg>
