<svg width="100" height="100" viewBox="0 0 100 100" fill="none" xmlns="http://www.w3.org/2000/svg">
<path d="M45.4629 48.5238C45.4629 48.5238 43.1139 43.2737 39.7739 45.8087C36.4339 48.3447 40.5489 51.5297 40.5489 51.5297C40.5489 51.5297 39.0189 55.0267 40.6689 56.3897C42.3179 57.7517 44.3949 57.1028 45.6799 54.1788C46.0389 53.3648 54.0269 53.3967 54.0269 53.3967C54.0269 53.3967 56.3369 58.5537 59.4629 56.6877C63.8689 54.0577 59.4739 50.8437 59.4739 50.8437C59.4739 50.8437 63.437 46.6347 59.131 45.1407C54.608 43.5717 54.3979 48.4528 54.3979 48.4528L50.644 48.5837L45.4629 48.5238Z" stroke="black" stroke-width="2" stroke-miterlimit="10" stroke-linejoin="round"/>
<path d="M19.364 48.7898C19.364 48.7898 49.752 23.5518 50.661 23.5778C52.253 23.6218 80.576 48.2168 80.576 48.2168L80.812 41.1928C80.812 41.1928 53.807 17.2338 50.696 17.0008C48.563 16.8408 19 42.0808 19 42.0808L19.364 48.7898Z" stroke="black" stroke-width="2" stroke-miterlimit="10" stroke-linecap="round" stroke-linejoin="round"/>
<path d="M50.7968 28.6248L25.1748 49.9577C25.1748 49.9577 25.7838 79.6227 28.6638 80.7977C32.9748 82.5577 59.4658 85.2067 71.0748 81.1297C74.3758 79.9697 74.9968 48.7937 74.9968 48.7937L50.7968 28.6248Z" stroke="black" stroke-width="2" stroke-miterlimit="10" stroke-linecap="round" stroke-linejoin="round"/>
<path d="M40.2762 82.4518C40.2762 82.4518 39.4652 80.9368 39.4812 73.1978C39.4922 67.7878 40.4862 62.4888 47.8972 62.2708C61.1352 61.8788 58.9812 71.3678 58.6012 76.1658C58.2202 80.9648 57.5892 83.0887 57.5892 83.0887C57.5892 83.0887 54.2542 83.3297 50.3382 83.1877C46.4232 83.0457 40.2762 82.4518 40.2762 82.4518Z" fill="black" stroke="black" stroke-width="2" stroke-miterlimit="10" stroke-linecap="round" stroke-linejoin="round"/>
<path d="M25.1353 49.4541L19.4062 49.3431L50.8113 23.5391L80.5153 48.2561L75.2812 48.8611L50.6802 28.9701L25.1353 49.4541Z" fill="black" stroke="black" stroke-width="2" stroke-miterlimit="10" stroke-linecap="round" stroke-linejoin="round"/>
</svg>
