<svg width="100" height="100" viewBox="0 0 100 100" fill="none" xmlns="http://www.w3.org/2000/svg">
<path d="M51.2579 66.4762C51.2579 66.4762 44.5709 53.2182 43.4049 52.2382C42.2399 51.2592 49.3049 46.0942 53.1769 53.1382C57.0499 60.1822 57.1969 66.8692 57.1969 66.8692" stroke="black" stroke-width="2" stroke-miterlimit="10" stroke-linecap="round" stroke-linejoin="round"/>
<path d="M49.3589 49.5677C49.3589 49.5677 55.3229 45.3527 59.0499 49.9937C62.7769 54.6347 62.9629 64.3797 62.9629 64.3797" stroke="black" stroke-width="2" stroke-miterlimit="10" stroke-linecap="round" stroke-linejoin="round"/>
<path d="M56.7881 47.9827C56.7881 47.9827 66.1451 47.7757 67.6341 51.5307C69.1231 55.2847 68.2151 62.3897 68.2151 62.3897" stroke="black" stroke-width="2" stroke-miterlimit="10" stroke-linecap="round" stroke-linejoin="round"/>
<path d="M64.8652 49.1113C64.8652 49.1113 81.2572 51.1373 76.7352 65.1163" stroke="black" stroke-width="2" stroke-miterlimit="10" stroke-linecap="round" stroke-linejoin="round"/>
<path d="M68.8667 56.3547C68.8667 56.3547 70.2397 56.5757 72.2457 58.9007C74.2517 61.2257 76.7167 65.6787 76.7167 65.6787" stroke="black" stroke-width="2" stroke-miterlimit="10" stroke-linecap="round" stroke-linejoin="round"/>
<path d="M76.7561 65.3157C76.7561 65.3157 76.9641 77.5377 67.4761 81.8127C57.9881 86.0877 50.6831 81.1657 50.6831 81.1657" stroke="black" stroke-width="2" stroke-miterlimit="10" stroke-linecap="round" stroke-linejoin="round"/>
<path d="M74.7131 62.5477C72.5411 65.3427 71.2661 70.6137 65.5091 73.5817C59.7521 76.5497 49.3071 73.2427 49.3071 73.2427" stroke="black" stroke-width="2" stroke-miterlimit="10" stroke-linecap="round" stroke-linejoin="round"/>
<path d="M69.763 57.8164C69.763 57.8164 71.458 60.4094 68.371 62.6174C65.283 64.8254 61.792 66.4224 58.342 67.1314C52.4 68.3534 49.812 66.3454 49.812 66.3454" stroke="black" stroke-width="2" stroke-miterlimit="10" stroke-linecap="round" stroke-linejoin="round"/>
<path d="M50.8008 81.1727C50.8008 81.1727 48.9788 77.8057 48.6518 73.9627C48.3248 70.1197 50.0188 64.9707 50.0188 64.9707" stroke="black" stroke-width="2" stroke-miterlimit="10" stroke-linecap="round" stroke-linejoin="round"/>
<path d="M51.261 81.5166C51.261 81.5166 41.421 78.8456 42.842 71.4046C44.263 63.9646 48.32 61.3087 48.32 61.3087" stroke="black" stroke-width="2" stroke-miterlimit="10" stroke-linecap="round" stroke-linejoin="round"/>
<path d="M49.5708 73.8662C49.5708 73.8662 50.1948 80.0052 54.3788 81.9232C58.5628 83.8412 62.6598 83.8242 66.9858 82.0282" stroke="black" stroke-width="2" stroke-miterlimit="10" stroke-linecap="round" stroke-linejoin="round"/>
<path d="M42.5349 72.4377C42.5349 72.4377 38.0029 68.5307 39.6139 64.2467C41.2239 59.9627 45.8459 56.2627 45.8459 56.2627" stroke="black" stroke-width="2" stroke-miterlimit="10" stroke-linecap="round" stroke-linejoin="round"/>
<path d="M40.1759 62.8613C40.1759 62.8613 37.416 56.9013 43.313 52.9883" stroke="black" stroke-width="2" stroke-miterlimit="10" stroke-linecap="round" stroke-linejoin="round"/>
<path d="M56.9806 47.7298C56.9806 47.7298 56.5746 38.0658 51.7246 38.9408C44.6676 40.2128 45.0156 41.7598 46.3476 45.1198C46.9386 46.6108 48.9726 49.5738 48.9726 49.5738C48.9726 49.5738 50.5286 48.6068 52.5596 48.0858C54.5906 47.5648 56.9806 47.7298 56.9806 47.7298Z" fill="black" stroke="black" stroke-width="2" stroke-miterlimit="10" stroke-linecap="round" stroke-linejoin="round"/>
<path d="M52.1678 38.5811C52.1678 38.5811 60.8848 26.7911 52.3298 21.1481C43.7748 15.5041 34.3458 13.3911 26.6228 20.5801C18.8988 27.7681 24.6618 32.4621 33.2758 35.0761C41.8908 37.6901 45.4558 41.4321 45.4558 41.4321L48.2178 39.5611C48.2178 39.5611 45.3148 35.4031 38.4828 33.0261C31.6508 30.6501 28.2868 30.2341 29.0588 26.0761C29.8308 21.9171 37.4958 20.0611 42.7238 21.6651C47.9518 23.2691 52.2078 24.7741 51.5738 29.9661C50.8778 35.6681 49.6138 38.9371 49.6138 38.9371" stroke="black" stroke-width="2" stroke-miterlimit="10" stroke-linecap="round" stroke-linejoin="round"/>
</svg>
