<svg width="100" height="100" viewBox="0 0 100 100" fill="none" xmlns="http://www.w3.org/2000/svg">
<path d="M44.1665 20.001C44.1665 20.001 52.0615 23.577 54.8875 28.485C57.8805 33.683 61.5855 42.375 65.5885 46.889C69.5905 51.403 73.6725 53.075 79.8695 57.442C81.2205 58.394 58.8375 79.67 56.5205 80.261C54.2035 80.851 45.9116 73.899 42.2196 67.72C38.5276 61.542 31.7285 51.335 28.3345 46.543C24.3055 40.854 19.6525 40.815 20.0205 39.059C20.3925 37.285 42.4735 19.846 44.1665 20.001Z" stroke="black" stroke-width="2" stroke-miterlimit="10" stroke-linecap="round"/>
<path d="M42.0507 26.124C37.6107 29.005 32.7857 32.981 29.9877 36.624C29.8937 36.746 31.3767 37.834 31.8007 38.968C32.7227 41.434 29.5237 42.429 30.6757 43.124C33.6617 44.925 37.8586 52.378 37.7736 52.175C35.9476 47.813 34.2487 42.25 41.0247 35.843C46.1027 31.042 53.8676 34.178 55.1436 37.054C56.7016 40.563 53.6426 33.134 52.1896 30.99C50.7376 28.845 49.4727 28.307 48.9877 27.624C48.3437 26.716 48.0547 29.224 45.4877 28.655C43.4997 28.214 43.1007 25.442 42.0507 26.124Z" fill="black" stroke="black" stroke-width="2" stroke-miterlimit="10" stroke-linecap="round"/>
<path d="M62.1024 48.0647C64.6834 52.9137 63.0204 58.5637 59.3734 61.2947C55.3124 64.3337 50.6724 64.1477 49.3164 64.0317C47.4494 63.8717 44.9064 62.8257 42.8624 60.4147C42.8384 60.3867 46.8224 66.7867 47.6724 67.7987C48.8584 69.1227 50.4044 70.5077 51.0084 71.0537C51.8704 71.8307 52.4444 68.5987 55.1774 68.7217C57.0544 68.8077 58.2204 71.7297 59.1434 71.0607C62.0704 68.9397 65.4304 65.8247 68.4964 62.6687C69.2444 61.8997 66.6824 60.5387 66.9654 58.8617C67.4624 55.9167 70.8524 56.2477 70.4254 55.8427C69.8514 55.2977 68.4354 54.5407 66.7304 53.0997C65.0254 51.6587 62.0854 48.0327 62.1024 48.0647Z" fill="black" stroke="black" stroke-width="2" stroke-miterlimit="10" stroke-linecap="round"/>
<path d="M51.1648 40.8311C49.9488 37.9861 46.2958 40.1821 45.0768 41.8651C43.5638 43.9551 44.1638 46.7751 45.5008 48.8661C48.2258 53.1261 52.5808 44.4081 56.2268 49.7231C56.6248 50.3041 56.9718 50.9041 57.1188 51.6061C57.9528 55.5911 50.5758 61.2511 48.4938 56.3801" stroke="black" stroke-width="2" stroke-miterlimit="10" stroke-linecap="round"/>
<path d="M44.7119 38.9736C45.5089 39.6486 45.9859 41.2256 46.4959 42.1286C48.4239 45.5396 50.3409 49.0936 52.4459 52.3836C53.3289 53.7646 54.1139 55.3716 54.7589 56.8796C54.9699 57.3746 56.0869 59.3306 55.6289 58.8146" stroke="black" stroke-width="2" stroke-miterlimit="10" stroke-linecap="round"/>
<path d="M37.7441 52.1426C37.7441 52.1426 40.2722 56.5236 41.6732 58.6216C43.0752 60.7206 45.1462 64.0076 45.1462 64.0076" stroke="black" stroke-width="2" stroke-miterlimit="10" stroke-linecap="round"/>
<path d="M54.7979 36.1721C55.7449 38.5531 56.2258 39.5231 58.7628 43.3471C61.2998 47.1721 63.6658 50.1131 63.6658 50.1131" stroke="black" stroke-width="2" stroke-miterlimit="10" stroke-linecap="round"/>
</svg>
