<svg width="100" height="100" viewBox="0 0 100 100" fill="none" xmlns="http://www.w3.org/2000/svg">
<path d="M78.9331 47.5732C77.785 46.2649 74.6725 42.3692 73.2598 40.5849C72.2993 38.4329 70.2672 33.7653 69.8224 32.3109C69.2665 30.4929 66.5621 26.574 66.1869 26.9658C65.8116 27.3577 65.3699 28.7695 65.6476 30.0032C65.9252 31.2369 65.3472 33.8469 64.9702 33.8182C64.5933 33.7895 55.7658 29.8152 49.636 28.7268C46.9311 28.2466 36.0048 27.4753 31.7287 29.6122C27.4526 31.7492 25.9654 27.9681 22.5866 26.8306C19.2078 25.6931 14.4212 25.9601 12.739 26.2406C11.0568 26.5212 11.3461 28.1523 13.2464 29.0163C15.1466 29.8802 20.8404 33.1028 20.8751 34.6887C20.9098 36.2746 17.1807 40.6676 18.1291 41.2573C19.0776 41.8469 22.2955 40.6279 23.8083 38.6322C25.3211 36.6365 27.4055 33.7945 32.1826 35.0639C36.9597 36.3333 47.9714 43.7122 50.6365 45.6072C53.3015 47.5021 61.3311 54.7727 60.3397 55.018C59.3483 55.2632 51.4849 55.6575 52.7931 56.8902C54.1013 58.123 58.7234 61.1553 66.5496 61.8602C67.1234 62.6818 68.4768 64.5299 69.3 65.3501C70.3291 66.3753 77.0638 71.1518 77.6778 72.7352C78.1691 74.002 78.4974 75.3622 78.6001 75.884C79.4707 79.1447 81.7922 80.4543 82.3882 79.0415C82.865 77.9113 82.199 72.9796 81.8064 70.655C82.0928 70.3377 82.9448 69.2971 84.0615 67.6731C85.4573 65.6431 85.2183 63.1016 84.4953 59.3979C83.8795 56.243 80.3682 49.2085 78.9331 47.5732Z" stroke="black" stroke-width="2"/>
<circle cx="79.8098" cy="66.1594" r="1" transform="rotate(10.0679 79.8098 66.1594)" stroke="black" stroke-width="2"/>
<path d="M37.5339 48.9124L27.5537 48.9125M57.987 21.5681L53.0872 16.4344" stroke="black" stroke-width="2" stroke-miterlimit="10" stroke-linecap="round" stroke-linejoin="round"/>
</svg>
