<svg width="100" height="100" viewBox="0 0 100 100" fill="none" xmlns="http://www.w3.org/2000/svg">
<path d="M42.285 23.8892C34.485 25.2312 15.5449 33.4062 18.2649 53.7752C20.2749 68.8672 26.4049 67.6362 29.0249 63.3252C31.6549 59.0132 33.4749 57.4612 36.7449 58.7882C39.8149 60.0302 40.175 67.4362 43.915 68.0492C48.875 68.8622 47.2549 62.8742 50.8749 61.8652C56.6249 60.2602 53.2849 70.9812 59.5749 70.3482C68.8449 69.4152 60.2949 57.7782 68.2649 55.5072C72.1749 54.3952 73.8349 60.7002 79.5649 57.9062C83.0949 56.1872 82.8649 46.0072 80.9349 40.9742C79.8949 38.2582 72.815 18.6362 42.285 23.8892Z" stroke="black" stroke-width="2" stroke-miterlimit="10" stroke-linecap="round" stroke-linejoin="round"/>
<path d="M24.2549 66.1071C24.2549 66.1071 32.1749 78.9411 55.5249 75.6841C75.9149 72.8401 78.9648 58.415 78.9648 58.415" stroke="black" stroke-width="2" stroke-miterlimit="10" stroke-linecap="round" stroke-linejoin="round"/>
<path d="M50.1152 76.2746C50.1152 76.2746 75.8052 75.9266 79.1852 72.5426C82.1652 69.5566 73.0752 67.9336 73.0752 67.9336C73.0752 67.9336 66.8552 74.6206 54.0752 75.8456" fill="black"/>
<path d="M50.1152 76.2746C50.1152 76.2746 75.8052 75.9266 79.1852 72.5426C82.1652 69.5566 73.0752 67.9336 73.0752 67.9336C73.0752 67.9336 66.8552 74.6206 54.0752 75.8456" stroke="black" stroke-width="2" stroke-miterlimit="10" stroke-linecap="round" stroke-linejoin="round"/>
<path d="M58.2451 60.168C58.2451 60.168 59.3452 61.859 59.5352 62.043" stroke="black" stroke-width="2" stroke-miterlimit="10" stroke-linecap="round" stroke-linejoin="round"/>
<path d="M45.9746 59.1302C46.5346 58.8292 47.9047 58.0732 47.9047 58.0732" stroke="black" stroke-width="2" stroke-miterlimit="10" stroke-linecap="round" stroke-linejoin="round"/>
<path d="M24.1045 54.8281C24.1045 54.8281 24.5645 56.3341 25.7445 57.5741" stroke="black" stroke-width="2" stroke-miterlimit="10" stroke-linecap="round" stroke-linejoin="round"/>
<path d="M34.9844 51.8867C35.6744 52.6547 36.4944 53.4028 37.2144 54.0938" stroke="black" stroke-width="2" stroke-miterlimit="10" stroke-linecap="round" stroke-linejoin="round"/>
<path d="M63.125 52.0682C64.385 51.3292 64.725 50.6622 65.285 50.0742" stroke="black" stroke-width="2" stroke-miterlimit="10" stroke-linecap="round" stroke-linejoin="round"/>
<path d="M75.2549 51.92C75.2549 51.92 76.1448 49.888 76.3348 49.582" stroke="black" stroke-width="2" stroke-miterlimit="10" stroke-linecap="round" stroke-linejoin="round"/>
<path d="M39.765 45.0043C39.555 41.5643 43.965 38.4893 49.635 38.1383C55.295 37.7873 60.065 40.2913 60.275 43.7323C60.495 47.1733 56.075 50.2473 50.405 50.5983C44.745 50.9503 39.975 48.4453 39.765 45.0043Z" stroke="black" stroke-width="2" stroke-miterlimit="10" stroke-linejoin="round"/>
<path d="M43.375 49.3068C43.375 49.3068 45.855 46.1918 50.355 45.7588C54.845 45.3268 57.585 48.2228 57.585 48.2228C57.585 48.2228 54.825 50.4168 50.155 50.6168C45.905 50.7988 43.375 49.3068 43.375 49.3068Z" fill="black" stroke="black" stroke-width="2" stroke-miterlimit="10" stroke-linecap="round" stroke-linejoin="round"/>
<path d="M24.9746 43.1613C25.0946 42.7723 25.9846 40.8643 25.9846 40.8643" stroke="black" stroke-width="2" stroke-miterlimit="10" stroke-linecap="round" stroke-linejoin="round"/>
<path d="M69.8654 40.8752C69.8654 40.8752 69.2854 39.1382 69.0254 38.9102" stroke="black" stroke-width="2" stroke-miterlimit="10" stroke-linecap="round" stroke-linejoin="round"/>
<path d="M41.6754 38.0156C34.5654 46.6736 44.0853 51.3816 51.1053 50.5836C57.8053 49.8206 63.5053 44.7897 59.5953 38.1187" stroke="black" stroke-width="2" stroke-miterlimit="10" stroke-linecap="round" stroke-linejoin="round"/>
<path d="M35.0645 32.9883C35.0645 32.9883 36.7245 32.9823 38.1145 33.5173" stroke="black" stroke-width="2" stroke-miterlimit="10" stroke-linecap="round" stroke-linejoin="round"/>
<path d="M48.0352 33.6439C48.3252 33.3119 49.4651 32.0059 49.4651 32.0059" stroke="black" stroke-width="2" stroke-miterlimit="10" stroke-linecap="round" stroke-linejoin="round"/>
<path d="M60.0547 28.377C60.2447 28.501 62.6248 29.2189 62.6248 29.2189" stroke="black" stroke-width="2" stroke-miterlimit="10" stroke-linecap="round" stroke-linejoin="round"/>
</svg>
