<svg width="100" height="100" viewBox="0 0 100 100" fill="none" xmlns="http://www.w3.org/2000/svg">
<path d="M18.081 72.2086C18.081 72.2086 11.9851 72.3425 11.537 71.9977C11.0889 71.6529 11.0007 34.0413 11.537 33.5323C11.6544 33.4208 21.0352 33.5621 25.8991 33.5323C43.1722 33.4261 75.7811 33.5312 76.0949 33.5322C76.1047 33.5323 76.1022 33.5323 76.1119 33.5323C81.7115 33.5401 86.261 38.0283 86.3679 43.6042C86.3704 43.7374 86.3669 43.8695 86.3616 44.0027C86.3294 44.8166 86.2203 47.9371 86.3698 49.5012C86.5427 51.3093 88.3743 57.8154 88.5844 61.3905C88.6995 63.3479 89.0799 71.0982 88.5844 71.6806C88.089 72.2631 82.1182 71.9977 82.1182 71.9977" stroke="black" stroke-width="2" stroke-linecap="round"/>
<path d="M29.8013 71.9976L70.1096 71.9976" stroke="black" stroke-width="2" stroke-linecap="round"/>
<path d="M75.1907 66.821C73.3597 67.0546 70.2596 69.0091 70.7197 72.6148C71.0892 75.5113 73.7369 77.5597 76.6334 77.1901C79.5299 76.8206 81.7921 74.0534 81.1388 70.7869C80.4778 67.4819 77.5038 66.5258 75.1907 66.821Z" stroke="black" stroke-width="2"/>
<path d="M75.0796 70.9605C74.7274 71.1638 74.6003 71.4375 74.582 71.7555C74.561 72.1195 74.6939 72.5305 74.897 72.8215C75.0222 73.0008 75.2936 73.2148 75.6324 73.324C75.9611 73.4299 76.2331 73.4019 76.4251 73.2911C76.7136 73.1245 77.027 72.7744 77.2043 72.364C77.3867 71.9422 77.3433 71.6691 77.2736 71.5484C76.8437 70.8038 76.4515 70.6621 76.2067 70.634C75.8911 70.5978 75.5031 70.716 75.0796 70.9605Z" fill="black" stroke="black" stroke-width="2"/>
<path d="M23.1067 66.821C21.2757 67.0546 18.1756 69.0091 18.6357 72.6148C19.0053 75.5113 21.6529 77.5597 24.5494 77.1901C27.4459 76.8206 29.7082 74.0534 29.0548 70.7869C28.3938 67.4819 25.4198 66.5258 23.1067 66.821Z" stroke="black" stroke-width="2"/>
<path d="M22.9976 70.9605C22.6454 71.1638 22.5182 71.4375 22.4999 71.7555C22.479 72.1195 22.6119 72.5305 22.815 72.8215C22.9401 73.0008 23.2116 73.2148 23.5504 73.324C23.8791 73.4299 24.1511 73.4019 24.3431 73.2911C24.6316 73.1245 24.9449 72.7744 25.1223 72.364C25.3046 71.9422 25.2613 71.6691 25.1916 71.5484C24.7617 70.8038 24.3694 70.6621 24.1246 70.634C23.8091 70.5978 23.4211 70.716 22.9976 70.9605Z" fill="black" stroke="black" stroke-width="2"/>
<path d="M86.1172 65.6826L88.8328 65.6826L88.8328 62.4259L86.1172 62.4259C85.2178 62.4259 84.4888 63.1549 84.4888 64.0542C84.4888 64.9536 85.2178 65.6826 86.1172 65.6826Z" fill="black"/>
<path d="M12.5582 67.0542L11.7608 67.0542L11.7608 62.2556L12.5582 62.2556C13.8833 62.2556 14.9575 63.3298 14.9575 64.6549C14.9575 65.98 13.8833 67.0542 12.5582 67.0542Z" fill="black"/>
<mask id="path-9-inside-1_65_20472" fill="white">
<path d="M57.3644 59.4905C56.7871 59.8238 56.8808 60.5114 57.1502 60.8972C57.3759 61.2205 57.9393 61.468 58.3644 61.2225C58.7896 60.9771 59.1277 60.3223 58.8822 59.8972C58.4129 59.0843 57.7896 59.245 57.3644 59.4905Z"/>
</mask>
<path d="M57.3644 59.4905C56.7871 59.8238 56.8808 60.5114 57.1502 60.8972C57.3759 61.2205 57.9393 61.468 58.3644 61.2225C58.7896 60.9771 59.1277 60.3223 58.8822 59.8972C58.4129 59.0843 57.7896 59.245 57.3644 59.4905Z" fill="black"/>
<path d="M57.1502 60.8972L55.5102 62.042L57.1502 60.8972ZM58.3644 61.2225C58.5093 61.1389 58.664 60.9989 58.7788 60.8014C58.8891 60.6115 58.9285 60.4276 58.9365 60.289C58.9502 60.0509 58.8809 59.8824 58.7901 59.7524L55.5102 62.042C55.1501 61.5261 54.8993 60.821 54.9431 60.0593C54.9922 59.2055 55.4259 58.3003 56.3644 57.7584L58.3644 61.2225ZM58.7901 59.7524C58.6238 59.5141 58.4385 59.4155 58.296 59.3696C58.1332 59.3171 57.765 59.2592 57.3644 59.4905L59.3644 62.9546C58.5387 63.4313 57.6762 63.3724 57.069 63.1768C56.482 62.9876 55.9022 62.6035 55.5102 62.042L58.7901 59.7524ZM57.3644 59.4905C57.1568 59.6104 57.0791 59.7408 57.039 59.8337C57.0087 59.9037 56.8365 60.3539 57.1502 60.8972L60.6143 58.8972C61.1734 59.8656 60.9549 60.8557 60.7106 61.4208C60.4565 62.0088 59.9972 62.5893 59.3644 62.9546L57.3644 59.4905ZM57.1502 60.8972C57.1416 60.8823 57.1894 60.9709 57.3299 61.0732C57.4816 61.1836 57.6741 61.2604 57.8785 61.2839C58.2353 61.3249 58.4268 61.1865 58.3644 61.2225L56.3644 57.7584C56.7271 57.549 57.4429 57.2075 58.335 57.31C59.3685 57.4287 60.1386 58.0733 60.6143 58.8972L57.1502 60.8972Z" fill="black" mask="url(#path-9-inside-1_65_20472)"/>
<path d="M55.0123 71.9976C55.0123 68.4007 54.6517 51.6001 55.0123 50.8903C55.373 50.1805 65.8108 50.5354 66.2666 50.8903C66.7223 51.2451 66.7223 65.6209 66.2666 71.9976" stroke="black" stroke-width="2" stroke-linecap="round"/>
<path d="M70.1099 71.7197C53.8228 71.7067 36.4554 71.9975 29.8906 71.2324" stroke="black" stroke-width="2" stroke-linecap="round"/>
<path d="M11.8521 70.7661C13.6056 71.763 15.5983 71.763 17.9805 71.763" stroke="black" stroke-width="2" stroke-linecap="round"/>
<path d="M88.3013 70.5581C86.8955 71.1774 84.5473 71.5773 81.9173 71.648" stroke="black" stroke-width="2" stroke-linecap="round"/>
<path d="M70.8156 51.0695C70.8163 51.054 70.8165 51.0406 70.8168 51.0251C70.8292 50.4836 71.2721 50.0484 71.8166 50.0484C74.6798 50.1103 76.5796 49.8919 82.5312 50.0484C82.9968 50.0484 83.4007 50.3696 83.5056 50.8232C84.3073 54.8119 84.7188 56.5817 85.391 58.9804C85.5358 59.6071 85.0599 60.2056 84.4167 60.2056C79.8454 60.3394 77.5345 60.3283 71.8165 60.2056C71.2685 60.2056 70.8234 59.7648 70.8166 59.2184C70.8165 59.2099 70.8166 59.2026 70.8168 59.1942C70.8207 59.0368 70.862 57.295 70.8166 56.541C70.6792 54.2622 70.8033 51.3451 70.8156 51.0695Z" fill="black"/>
<path d="M36.2511 60.023C35.4249 60.023 34.755 59.5984 34.755 59.0748C34.7062 55.4363 34.6882 53.4607 34.755 50.7246C34.755 50.2009 35.4249 49.7764 36.2511 49.7764C45.5928 49.6008 48.2057 49.5728 49.7037 49.7167C50.5299 49.7167 50.6702 50.2009 50.6702 50.7246C50.6702 56.0942 50.514 56.9219 50.6702 59.0748C50.6702 59.5984 50.5299 60.146 49.7037 60.146C47.3811 60.4283 43.8553 60.2903 36.2511 60.023Z" fill="black"/>
<path d="M15.6079 50.6317C15.6079 50.0936 15.9663 49.6396 16.6394 49.6608C22.9622 49.8593 26.4803 49.7049 31.2843 49.6188C31.8538 49.6086 32.1482 50.0936 32.1482 50.6317C32.1482 50.6317 32.2297 53.5597 32.2204 55.4363C32.2134 56.8472 32.1482 59.0484 32.1482 59.0484C32.1482 59.5866 31.8307 60.0625 31.2843 60.0625C26.0204 60.0625 21.8231 60.0177 16.5592 60.0177C16.0135 60.0448 15.6079 59.5866 15.6079 59.0484V50.6317Z" fill="black"/>
<path d="M70.6118 37.6581C70.6118 37.1058 71.0595 36.6581 71.6118 36.6581C71.6118 36.6581 75.2466 36.7159 77.4223 36.6581C79.598 36.6003 82.7037 39.4551 83.2562 42.2808C83.8087 45.1065 83.4683 46.176 83.4683 46.176C83.4683 46.7283 83.0206 47.176 82.4683 47.176C78.6564 47.2866 75.7899 47.2067 71.6118 47.2958C71.0595 47.2958 70.6118 46.8481 70.6118 46.2958C70.6118 46.2958 70.6823 44.039 70.6859 42.4006C70.6898 40.6634 70.6118 37.6581 70.6118 37.6581Z" fill="black"/>
<path d="M15.8253 37.658C15.8253 37.1058 16.273 36.658 16.8253 36.658C20.6625 36.6254 22.7461 36.6134 25.6317 36.658C26.184 36.658 26.6317 37.1058 26.6317 37.658C26.8169 43.902 26.7834 45.2945 26.6317 46.2957C26.6317 46.848 26.184 47.2957 25.6317 47.2957C20.1063 47.1091 19.0958 47.1913 16.8253 47.2957C16.273 47.2957 15.8253 46.848 15.8253 46.2957C15.5276 44.7433 15.5434 42.7407 15.8253 37.658Z" fill="black"/>
<path d="M29.522 37.4795C29.522 36.9272 29.9697 36.4795 30.522 36.4795C34.653 36.6831 36.1898 36.5679 39.3284 36.4795C39.8807 36.4795 40.3284 36.9272 40.3284 37.4795C40.3284 37.4795 40.1892 39.8398 40.3284 42.3989C40.4086 43.8746 40.3284 46.1172 40.3284 46.1172C40.3284 46.6695 39.9482 47.1149 39.3959 47.1149C35.9568 47.1149 34.0286 47.1149 30.5895 47.1149C30.0372 47.1149 29.522 46.6695 29.522 46.1172V37.4795Z" fill="black"/>
<path d="M44.1214 47.3203C43.5691 47.3203 43.1214 46.8725 43.1214 46.3203C43.0888 42.483 43.0768 40.3995 43.1214 37.5139C43.1214 36.9616 43.5691 36.5139 44.1214 36.5139C50.3654 36.3286 51.7579 36.3621 52.7591 36.5139C53.3114 36.5139 53.7591 36.9616 53.7591 37.5139C53.5725 43.0393 53.6547 44.0497 53.7591 46.3203C53.7591 46.8725 53.3114 47.3203 52.7591 47.3203C51.2067 47.618 49.204 47.6022 44.1214 47.3203Z" fill="black"/>
<path d="M57.6696 47.2183C57.0736 47.2183 56.5903 46.7705 56.5903 46.2183C56.8101 42.0873 56.6857 40.5505 56.5903 37.4119C56.5903 36.8596 57.0736 36.4119 57.6696 36.4119C57.6696 36.4119 60.2171 36.551 62.9792 36.4119C64.5719 36.3316 66.9923 36.4119 66.9923 36.4119C67.5884 36.4119 68.0692 36.7921 68.0692 37.3444C68.0692 40.7835 68.0692 42.7116 68.0692 46.1508C68.0692 46.703 67.5884 47.2183 66.9923 47.2183L57.6696 47.2183Z" fill="black"/>
</svg>
