<svg width="100" height="100" viewBox="0 0 100 100" fill="none" xmlns="http://www.w3.org/2000/svg">
<path d="M52.5269 48.0728C54.8652 47.8521 56.5329 49.5464 57.0271 50.8524" stroke="black" stroke-width="2"/>
<path d="M60.9874 37.281C57.5188 36.3273 54.5031 35.833 52.7118 35.6687C48.2855 35.1689 38.1693 34.8119 33.1148 37.382C26.7967 40.5946 27.0865 46.1504 30.0363 48.7531C31.5954 50.1288 38.8076 53.196 37.1592 57.1868C36.4087 59.0038 31.0511 59.2396 24.8308 57.7759C21.8813 57.0818 19.1051 57.2554 18.3243 60.8992C17.8226 63.2406 20.7997 77.6468 45.2156 79.6814C69.6314 81.7161 80.1276 67.7889 81.411 63.2971C82.2676 60.2987 83.2314 48.7333 73.8078 42.7364C71.4455 41.2332 68.8744 40.0131 66.3376 39.0354" stroke="black" stroke-width="2"/>
<path d="M18.2799 61.1578C17.9256 63.2216 18.1321 66.0483 18.1321 66.6035C18.1321 67.2974 21.5476 74.8302 32.6923 78.8212C42.346 82.2783 53.1949 82.3546 61.7186 79.9953C68.1948 78.2028 75.741 73.6125 77.707 71.0683C79.673 68.5241 81.5666 65.4076 81.9031 59.7422" stroke="black" stroke-width="2"/>
<path d="M51.3656 68.8541C51.9914 67.6651 53.3994 67.107 54.0251 66.9766C56.6847 66.5855 57.0758 67.6024 58.5621 67.7589C60.0483 67.9153 61.2217 70.1056 59.6572 71.2007C58.0928 72.2958 57.3104 72.4522 56.2153 73.2345C55.1201 74.0167 51.9912 73.6256 50.4268 72.6087C48.8623 71.5918 50.5833 70.3402 51.3656 68.8541Z" fill="black" stroke="black" stroke-width="2"/>
<path d="M33.0131 65.7627C34.4282 66.0723 36.035 66.1865 36.6615 66.2048C37.3617 66.3338 39.1158 66.813 40.531 67.6974C42.2998 68.803 40.6415 72.396 38.7621 71.788C36.8826 71.1799 35.0584 71.6774 32.1287 71.1246C29.1989 70.5719 28.1486 67.2552 29.7517 66.5919C31.3548 65.9285 31.2442 65.3757 33.0131 65.7627Z" fill="black" stroke="black" stroke-width="2"/>
<path d="M47.4733 45.7919C48.7136 43.3335 45.2183 41.4055 41.0465 41.7909C36.875 42.1764 35.7986 45.2281 39.0624 46.9908C42.3262 48.7534 46.2073 48.3016 47.4733 45.7919Z" stroke="black" stroke-width="2"/>
<path d="M47.0063 54.564C47.0064 53.9385 66.1201 31.9751 75.6769 21.0716C81.1219 14.8448 78.0079 21.0717 76.5672 23.477C75.7581 24.8279 53.001 57.6918 51.8282 57.9524C50.6553 58.213 47.0063 55.346 47.0063 54.564Z" stroke="black" stroke-width="2"/>
<path d="M63.5219 61.2896C63.4337 60.1431 64.6923 59.2391 66.6206 58.7892C69.8817 58.0282 69.8163 57.614 71.4037 57.7021C73.388 57.8124 73.9812 58.662 74.7529 59.4336C75.5245 60.2052 75.5667 63.5723 74.4477 63.464C71.0776 63.1378 72.1071 64.1738 69.0205 64.2841C65.9338 64.3943 63.6322 62.7228 63.5219 61.2896Z" fill="black" stroke="black" stroke-width="2"/>
<path d="M44.503 58.7238C45.7124 56.725 46.1417 56.0829 47.1569 55.2739C47.1569 55.2739 49.7774 57.6623 50.8057 57.8281C51.834 57.994 50.8057 59.155 50.076 60.6477C48.7577 63.3441 44.2887 65.5545 43.5408 64.9267C42.6737 64.1988 43.9015 59.7177 44.503 58.7238Z" fill="black" stroke="black" stroke-width="2"/>
<path d="M68.3051 47.7635C67.203 46.6614 64.5108 46.676 63.3024 46.821C61.7767 46.8876 60.4748 47.7635 60.4023 49.0686C60.3298 50.3736 61.4174 52.3312 63.3024 51.8962C65.1875 51.4612 68.3051 51.5337 68.3051 51.1712C68.3051 50.8087 69.6827 49.1411 68.3051 47.7635Z" fill="black" stroke="black" stroke-width="2"/>
<path d="M28.0428 43.6567C27.7931 45.0177 27.699 47.8691 28.0428 48.9865C28.4725 50.3833 33.2698 52.4952 35.3017 54.1018C36.6142 55.1396 37.4528 58.4094 33.8153 58.6519" stroke="black" stroke-width="2"/>
<path d="M37.4551 45.5063C37.8415 44.4534 39.4888 43.0173 40.9956 42.8087C42.879 42.5479 46.3739 42.9437 47.3349 45.7761" stroke="black" stroke-width="2"/>
</svg>
