<svg width="100" height="100" viewBox="0 0 100 100" fill="none" xmlns="http://www.w3.org/2000/svg">
<path d="M66.0771 66.0015C48.8316 66.0015 24.2069 66.0015 22.1262 66.0015C19.0901 66.0015 15.5869 64.0163 15.5869 60.1628C15.5869 56.3092 15.5869 35.0564 15.5869 30.7357C15.5869 26.4151 19.3236 25.5977 22.1262 25.5977C36.217 25.5977 64.9124 25.5977 66.9676 25.5977C69.5366 25.5977 73.974 26.8822 73.974 30.7357C73.974 32.6608 73.974 41.8507 73.974 51.0311" stroke="black" stroke-width="2"/>
<path d="M28.252 25.6826V65.9064" stroke="black" stroke-width="2"/>
<path fill-rule="evenodd" clip-rule="evenodd" d="M33.9791 31.3906C33.9791 30.837 67.0777 30.9063 67.5619 31.3906C68.0461 31.875 68.0441 58.7828 67.5619 59.3426C67.0796 59.9025 34.5649 59.9026 33.9791 59.3426C33.4617 58.8481 33.8581 37.8609 33.9579 32.5788C33.9711 31.8794 33.9791 31.4554 33.9791 31.3906ZM41.9487 41.3569C42.3166 40.4529 43.0064 39.2019 43.8465 38.3544C44.2643 37.933 44.6666 37.665 45.03 37.5495C45.3604 37.4445 45.6914 37.4519 46.0698 37.6493C46.2302 37.733 46.2652 37.8069 46.2855 37.8786C46.3182 37.9944 46.3285 38.2132 46.2364 38.5796C46.0485 39.3265 45.549 40.2711 44.9376 41.3173C44.8158 41.5258 44.6886 41.7396 44.5603 41.9555L44.5601 41.9557C44.0871 42.7511 43.5979 43.5737 43.3009 44.2544C43.1168 44.6762 42.9346 45.1948 42.9531 45.7003C42.9632 45.9748 43.0339 46.2913 43.2373 46.581C43.4448 46.8764 43.7322 47.0609 44.0305 47.1635C44.845 47.4435 45.7125 47.3534 46.5043 47.1194C47.3036 46.8832 48.1169 46.4739 48.8873 45.9964C50.3356 45.0986 51.7523 43.8839 52.8192 42.8394C52.7761 43.8769 52.3124 45.3824 51.5381 46.3354C50.9442 47.0664 50.0859 47.8287 49.1374 48.5942C48.6743 48.968 48.2022 49.3327 47.7405 49.6895L47.7403 49.6896L47.7211 49.7044C47.2572 50.0629 46.8006 50.4159 46.3927 50.7492C45.9872 51.0806 45.6066 51.4112 45.2997 51.7282C45.0125 52.0249 44.7008 52.3978 44.5458 52.8195C44.4625 53.046 44.406 53.3359 44.4674 53.6546C44.5316 53.9872 44.7065 54.2582 44.9308 54.4591C45.3272 54.8139 45.8824 54.9563 46.3884 55.0299C47.6095 55.2076 49.118 54.7918 50.5888 54.1736C52.1036 53.5368 53.7494 52.6102 55.3145 51.5755C56.882 50.5392 58.3928 49.3784 59.6363 48.2601C60.8592 47.1604 61.895 46.0387 62.4368 45.0755C62.7076 44.5942 62.5368 43.9844 62.0555 43.7137C61.5741 43.4429 60.9644 43.6136 60.6936 44.095C60.3171 44.7644 59.4823 45.7089 58.2989 46.773C57.1362 47.8187 55.705 48.9197 54.2115 49.9071C52.7157 50.896 51.1815 51.7549 49.8138 52.3299C48.4825 52.8895 47.4493 53.1188 46.7912 53.0638C47.0117 52.8428 47.3031 52.5881 47.6583 52.2979C48.0411 51.985 48.4752 51.6492 48.9439 51.2871L48.9699 51.267C49.4271 50.9137 49.9136 50.5378 50.3935 50.1505C51.3625 49.3685 52.3577 48.4982 53.0903 47.5966C54.2061 46.2233 54.7929 44.2137 54.8214 42.7965C54.8287 42.4315 54.8006 42.0603 54.7117 41.7231C54.6278 41.4054 54.4564 40.9913 54.0791 40.7035C53.6405 40.3689 53.1192 40.3477 52.6729 40.5011C52.2737 40.6383 51.9187 40.9137 51.6071 41.2253C50.5847 42.2477 49.1998 43.4496 47.8335 44.2965C47.15 44.7202 46.505 45.0337 45.9375 45.2014C45.5659 45.3112 45.2641 45.3479 45.0231 45.3348C45.0511 45.2536 45.0876 45.1604 45.1339 45.0543C45.3759 44.4999 45.7729 43.8314 46.2322 43.0581C46.3714 42.8237 46.5164 42.5797 46.6644 42.3264C47.2605 41.3064 47.9089 40.1295 48.176 39.0674C48.3113 38.5294 48.3758 37.9219 48.2103 37.3354C48.0324 36.7049 47.6167 36.2006 46.9949 35.8761C46.1217 35.4206 45.2374 35.3849 44.4241 35.6435C43.6437 35.8916 42.9738 36.394 42.4262 36.9464C41.3356 38.0465 40.5219 39.5571 40.0962 40.603C39.888 41.1145 40.1339 41.698 40.6455 41.9062C41.157 42.1144 41.7405 41.8685 41.9487 41.3569ZM52.7577 42.1733C52.7578 42.1732 52.759 42.1754 52.7609 42.1802C52.7586 42.1759 52.7576 42.1735 52.7577 42.1733Z" fill="black"/>
<path d="M66.6304 64.63C67.7712 62.9187 74.6525 49.6557 77.9505 43.2381C79.7459 39.7446 85.463 43.238 83.8332 46.0903C82.7636 47.9621 74.296 64.006 72.0677 67.1256C69.8394 70.2453 64.6696 74.3454 64.4914 73.7215C64.3131 73.0975 65.2044 66.7691 66.6304 64.63Z" stroke="black" stroke-width="2" stroke-linecap="round"/>
<ellipse cx="22.1738" cy="45.7391" rx="2.10547" ry="2.49103" fill="black"/>
<path d="M67.5619 31.3906C67.0777 30.9063 33.9791 30.837 33.9791 31.3906C33.9791 31.9442 33.3933 58.7826 33.9791 59.3426C34.565 59.9026 67.0797 59.9025 67.5619 59.3426C68.0442 58.7828 68.0461 31.875 67.5619 31.3906Z" stroke="black" stroke-width="2" stroke-linecap="round"/>
<path d="M67.0723 64.4492C68.5485 64.4492 70.8574 66.0654 71.5379 67.0009" stroke="black" stroke-width="2" stroke-linecap="round"/>
<path d="M15.5762 60.2607C15.5761 62.6205 15.8027 65.3263 18.6464 66.8875C20.029 67.6465 21.3037 67.6436 34.4073 67.6436C47.5109 67.6436 56.8815 67.6436 65.1259 67.6436" stroke="black" stroke-width="2" stroke-linecap="round"/>
</svg>
