<svg width="100" height="100" viewBox="0 0 100 100" fill="none" xmlns="http://www.w3.org/2000/svg">
<path d="M43.2662 32.7895C43.2662 32.7895 40.0361 18.2244 46.7961 18.0024C53.5661 17.7814 51.0361 32.6695 51.0361 32.6695C51.0361 32.6695 49.4161 33.4195 47.3361 33.4795C45.2461 33.5295 43.2662 32.7895 43.2662 32.7895Z" stroke="black" stroke-width="2" stroke-miterlimit="10" stroke-linejoin="round"/>
<path d="M42.4562 32.2797C42.4562 32.2797 33.5861 33.9197 39.5361 35.4197C45.4961 36.9097 53.7461 36.1797 56.0361 35.0497C59.1761 33.5097 51.3962 32.2197 51.3962 32.2197" stroke="black" stroke-width="2" stroke-miterlimit="10" stroke-linejoin="round"/>
<path d="M37.4961 34.1694C37.4961 34.1694 37.106 42.5394 38.196 43.3594C39.286 44.1794 44.4861 45.4494 47.4561 45.4594C50.2861 45.4694 56.166 45.0294 56.556 43.6594C56.896 42.4394 56.776 34.1494 56.776 34.1494" stroke="black" stroke-width="2" stroke-miterlimit="10" stroke-linejoin="round"/>
<path d="M54.8563 44.7393C54.8563 44.7393 54.9363 45.8093 54.3063 46.7893C53.6863 47.7593 52.4363 48.2593 51.9863 48.3693" stroke="black" stroke-width="2" stroke-miterlimit="10" stroke-linecap="round" stroke-linejoin="round"/>
<path d="M38.2962 43.459C38.2962 43.459 38.1663 45.909 39.4963 46.709C40.8163 47.509 42.0862 48.009 42.0862 48.009" stroke="black" stroke-width="2" stroke-miterlimit="10" stroke-linecap="round" stroke-linejoin="round"/>
<path d="M38.7861 46.3398C38.7861 46.3398 36.3961 49.6698 36.2761 52.6498C36.1561 55.6298 35.6062 77.2798 36.5062 79.0898C37.0762 80.2398 41.1761 81.5898 46.3161 81.8498C51.4561 82.1198 56.6662 80.2698 56.9962 78.7098C57.4162 76.7698 57.1861 55.4799 56.9461 53.0499C56.7161 50.6299 54.1761 47.0898 54.1761 47.0898" stroke="black" stroke-width="2" stroke-miterlimit="10" stroke-linejoin="round"/>
<path d="M44.8962 45.2295C44.8962 45.2295 45.0862 58.9795 45.0662 62.6395C45.0462 66.2895 45.0961 74.4394 46.0361 75.4594C46.9761 76.4794 48.7562 77.0495 48.9662 73.4095C49.1762 69.7695 48.8562 45.3795 48.8562 45.3795" stroke="black" stroke-width="2" stroke-miterlimit="10" stroke-linejoin="round"/>
<path d="M49.3062 36.2998C49.4962 37.1598 49.5862 39.1798 49.6862 40.8798C49.7962 42.6998 49.8961 44.1998 49.6561 45.1598" fill="black"/>
<path d="M49.3062 36.2998C49.4962 37.1598 49.5862 39.1798 49.6862 40.8798C49.7962 42.6998 49.8961 44.1998 49.6561 45.1598" stroke="black" stroke-width="2" stroke-miterlimit="10" stroke-linejoin="round"/>
<path d="M44.8461 36.3494C44.7761 36.0394 44.886 36.9894 44.906 37.3094C44.936 37.8794 44.836 40.2094 44.816 40.7794C44.806 40.9394 44.7561 45.0094 44.7261 45.0394" fill="black"/>
<path d="M44.8461 36.3494C44.7761 36.0394 44.886 36.9894 44.906 37.3094C44.936 37.8794 44.836 40.2094 44.816 40.7794C44.806 40.9394 44.7561 45.0094 44.7261 45.0394" stroke="black" stroke-width="2" stroke-miterlimit="10" stroke-linejoin="round"/>
<path d="M40.5962 36.0293L40.8562 44.1993" stroke="black" stroke-width="2" stroke-miterlimit="10" stroke-linejoin="round"/>
<path d="M53.7261 35.8094C53.7461 35.7594 53.886 36.4094 53.906 36.5894C53.946 36.9794 53.9761 37.3594 54.0061 37.7494C54.1161 39.3094 53.9661 40.9994 53.8561 42.5394C53.8261 42.9794 53.856 44.7894 53.776 44.4294" fill="black"/>
<path d="M53.7261 35.8094C53.7461 35.7594 53.886 36.4094 53.906 36.5894C53.946 36.9794 53.9761 37.3594 54.0061 37.7494C54.1161 39.3094 53.9661 40.9994 53.8561 42.5394C53.8261 42.9794 53.856 44.7894 53.776 44.4294" stroke="black" stroke-width="2" stroke-miterlimit="10" stroke-linejoin="round"/>
<path d="M46.0962 81.839C46.0962 81.839 60.6061 82.849 62.6661 81.219C64.6761 79.609 57.1362 78.499 57.1362 78.499L56.8262 79.849L53.3262 81.589" fill="black"/>
<path d="M46.0962 81.839C46.0962 81.839 60.6061 82.849 62.6661 81.219C64.6761 79.609 57.1362 78.499 57.1362 78.499L56.8262 79.849L53.3262 81.589" stroke="black" stroke-width="2" stroke-miterlimit="10" stroke-linejoin="round"/>
</svg>
