<svg width="100" height="100" viewBox="0 0 100 100" fill="none" xmlns="http://www.w3.org/2000/svg">
<path d="M27.9739 57.1565L15.0789 72.181" stroke="black" stroke-width="2" stroke-linecap="round"/>
<path d="M28.4472 61.0608L24.4963 75.1752" stroke="black" stroke-width="2" stroke-linecap="round"/>
<path d="M27.3458 65.9064L23.4731 62.6677" stroke="black" stroke-width="2" stroke-linecap="round"/>
<path d="M28.7051 65.9225L31.3475 61.8389" stroke="black" stroke-width="2" stroke-linecap="round"/>
<path d="M28.7283 57.3157L32.1448 61.4311" stroke="black" stroke-width="2" stroke-linecap="round"/>
<path d="M28.5061 26.9893V69.9925" stroke="black" stroke-width="2" stroke-linecap="round"/>
<path d="M45.7818 43.3214C45.8641 40.8531 46.0286 35.6992 46.0286 34.8304C46.0286 33.7443 42.8692 32.0659 38.525 31.5723C35.0496 31.1775 28.9975 32.5461 28.9974 33.9019C28.9972 35.2577 28.8073 43.8741 28.9973 44.8985C29.2348 46.1789 31.984 47.7983 37.3316 47.9866" stroke="black" stroke-width="2" stroke-linecap="round"/>
<path d="M29.8946 46.1015C28.9256 45.3619 29.2662 43.4385 32.0312 43.2181C34.443 43.0258 42.2502 42.9976 43.1719 44.4603" stroke="black" stroke-width="2" stroke-linecap="round"/>
<path d="M54.187 43.3214C54.1047 40.8531 53.9401 35.6992 53.9401 34.8304C53.9401 33.7443 57.0996 32.0659 61.4438 31.5723C64.9191 31.1775 70.9712 32.5461 70.9714 33.9019C70.9715 35.2577 71.1614 43.8741 70.9714 44.8985C70.7339 46.1789 67.9848 47.7983 62.6371 47.9866" stroke="black" stroke-width="2" stroke-linecap="round"/>
<path d="M70.0742 46.1015C71.0431 45.3619 70.7026 43.4385 67.9376 43.2181C65.5258 43.0258 57.7186 42.9976 56.7969 44.4603" stroke="black" stroke-width="2" stroke-linecap="round"/>
<path d="M43.1719 32.2612V33.963" stroke="black" stroke-width="2" stroke-linecap="round"/>
<path d="M32.5854 31.6968V33.4106" stroke="black" stroke-width="2" stroke-linecap="round"/>
<path d="M38.1067 31.1099V32.8552" stroke="black" stroke-width="2" stroke-linecap="round"/>
<path d="M57.2312 31.9039L57.3433 33.8094" stroke="black" stroke-width="2" stroke-linecap="round"/>
<path d="M67.8312 31.7117L67.8312 33.5646" stroke="black" stroke-width="2" stroke-linecap="round"/>
<path d="M62.7261 30.9075L62.7261 32.9529" stroke="black" stroke-width="2" stroke-linecap="round"/>
<path d="M75.9178 57.1567L85.5544 69.601" stroke="black" stroke-width="2" stroke-linecap="round"/>
<path d="M75.4439 61.0608L78.8118 73.1001" stroke="black" stroke-width="2" stroke-linecap="round"/>
<path d="M76.2544 64.798L79.4397 62.3757" stroke="black" stroke-width="2" stroke-linecap="round"/>
<path d="M75.3264 57.1567L68.5634 70.3806" stroke="black" stroke-width="2" stroke-linecap="round"/>
<path d="M32.6157 58.8113C34.8432 46.6838 43.3437 43.1261 50.0647 43.4661C64.7291 44.2085 67.6314 55.5917 66.7091 63.7612C65.8824 71.0844 58.1703 77.0026 50.0647 77.5594C41.9591 78.1163 30.3882 70.9388 32.6157 58.8113Z" stroke="black" stroke-width="2" stroke-linecap="round"/>
<path d="M42.6165 77.4011L43.2088 75.8866" stroke="black" stroke-width="2" stroke-linecap="round"/>
<path d="M56.6482 77.1655L55.9637 75.7227" stroke="black" stroke-width="2" stroke-linecap="round"/>
<path d="M63.93 70.6445L67.7756 75.9184" stroke="black" stroke-width="2" stroke-linecap="round"/>
<path d="M35.1193 70.6445L31.2737 75.9184" stroke="black" stroke-width="2" stroke-linecap="round"/>
<path d="M66.864 67.9521L65.0886 67.11" stroke="black" stroke-width="2" stroke-linecap="round"/>
<path d="M32.2971 67.5146L33.8992 66.8642" stroke="black" stroke-width="2" stroke-linecap="round"/>
<path d="M74.6337 67.399C73.95 67.1265 72.7836 66.8022 70.8671 66.3734C70.0909 66.1997 68.0615 66.5007 68.9487 67.1803C70.2522 68.1789 74.1896 69.0057 74.3895 68.7772C74.6582 68.4699 75.3175 67.6715 74.6337 67.399Z" fill="black" stroke="black" stroke-width="2" stroke-linecap="round"/>
<path d="M35.8104 59.1319C37.619 49.2855 44.5206 46.397 49.9774 46.673C61.8836 47.2758 64.24 56.518 63.4912 63.1509C62.82 69.0966 56.5584 73.9016 49.9774 74.3537C43.3964 74.8059 34.0019 68.9784 35.8104 59.1319Z" stroke="black" stroke-width="2" stroke-linecap="round"/>
<path d="M75.385 40.1711V69.9927" stroke="black" stroke-width="2" stroke-linecap="round"/>
<path d="M75.425 64.8974L72.7371 62.6411" stroke="black" stroke-width="2" stroke-linecap="round"/>
<path d="M46.1419 62.3287C42.2993 64.4818 43.9959 69.3386 47.6987 70.331C51.4016 71.3234 52.9427 69.8521 53.9907 67.4391C55.3997 64.1945 50.945 59.6372 46.1419 62.3287Z" fill="black" stroke="black" stroke-width="2" stroke-linecap="round"/>
<path d="M66.864 53.9653L65.2526 54.5809" stroke="black" stroke-width="2" stroke-linecap="round"/>
<path d="M32.772 53.9653L34.3299 54.6014" stroke="black" stroke-width="2" stroke-linecap="round"/>
<path d="M59.2784 43.6264L57.0188 44.7561L59.2784 45.9665L62.3851 47.9839H65.3305L70.132 45.9665L70.7372 44.7561L69.3653 43.8684L65.3305 43.2229L59.2784 43.6264Z" fill="black"/>
<path d="M58.9436 44.9562L58.0249 46.3661" stroke="black" stroke-width="2" stroke-linecap="round"/>
<path d="M30.7232 43.5786L29.2488 45.4952L32.861 47.2277L37.2105 48.1123L41.2651 45.4952L42.1866 44.4263L40.7122 43.5786L34.6672 43.21L30.7232 43.5786Z" fill="black"/>
<path d="M40.9055 44.7743L41.8242 46.1842" stroke="black" stroke-width="2" stroke-linecap="round"/>
<path d="M49.801 43.3308V39.5797" stroke="black" stroke-width="2" stroke-linecap="round"/>
<path d="M43.7197 38.0834C44.8479 38.3323 48.0108 39.0748 49.8027 39.1943C51.5945 39.3137 54.6308 38.6467 55.9249 38.2983" stroke="black" stroke-width="2" stroke-linecap="round"/>
<path d="M71.1036 36.8711C71.8339 36.7816 72.6333 36.7216 73.4625 36.6895C74.004 36.6685 74.5088 35.7441 75.4568 35.739C76.4048 35.7338 76.9405 36.7205 77.2948 36.7348C80.2083 36.8529 85.7458 37.9552 83.031 38.7689C80.3858 39.5617 74.7619 39.6457 71.1036 39.2184" stroke="black" stroke-width="2" stroke-linecap="round"/>
<path d="M83.6983 38.4239C82.7158 40.3174 80.5625 40.524 77.295 40.8831C76.9425 40.9218 76.4051 41.8842 75.457 41.879C74.509 41.8738 74.0042 40.9494 73.4627 40.9284C72.6335 40.8963 71.8341 40.8364 71.1039 40.7468" stroke="black" stroke-width="2" stroke-linecap="round"/>
<path d="M75.4746 35.3726V32.4578" stroke="black" stroke-width="2" stroke-linecap="round"/>
<path d="M40.5268 26.4407C45.143 25.9419 36.3186 23.9541 31.5767 23.4107C30.9999 23.3446 30.3348 22.1948 28.7826 22.0654C27.2303 21.9361 26.2064 22.8699 25.3158 22.8157C21.0492 22.5556 17.2022 22.6332 15.7305 23.2793C13.4089 24.8599 33.212 27.231 40.5268 26.4407Z" stroke="black" stroke-width="2" stroke-linecap="round"/>
<path d="M29.3136 75.5727C29.6679 75.0624 30.5779 74.5859 31.372 74.2359C32.1662 73.8858 32.5818 74.9058 32.693 75.121C32.832 75.3899 32.0446 77.2513 31.4164 77.5306C30.7882 77.8099 28.8707 76.2107 29.3136 75.5727Z" fill="black"/>
<path d="M67.1648 77.4917C66.7381 77.0401 66.4587 76.0517 66.2793 75.2026C66.0998 74.3535 67.1834 74.1562 67.4168 74.0916C67.7086 74.0107 69.3685 75.1637 69.5129 75.8359C69.6572 76.5081 67.6982 78.0561 67.1648 77.4917Z" fill="black"/>
<path d="M22.9175 76.0284C22.9531 75.4081 23.4802 74.5265 23.9746 73.8132C24.4689 73.0999 25.3561 73.7526 25.5633 73.878C25.8224 74.0348 26.1231 76.0333 25.7333 76.5996C25.3434 77.1659 22.873 76.8037 22.9175 76.0284Z" fill="black"/>
<path d="M12.5901 72.7251C12.9393 72.2112 13.8444 71.7256 14.635 71.3676C15.4256 71.0096 15.8514 72.0253 15.9648 72.2394C16.1065 72.5069 15.3378 74.3761 14.7125 74.6617C14.0871 74.9473 12.1537 73.3674 12.5901 72.7251Z" fill="black"/>
<path d="M77.7311 74.6039C77.4615 74.0442 77.4951 73.0176 77.5817 72.1541C77.6683 71.2905 78.7607 71.4313 79.0027 71.4405C79.3053 71.452 80.5372 73.0542 80.4708 73.7385C80.4044 74.4228 78.0681 75.3036 77.7311 74.6039Z" fill="black"/>
<path d="M66.4833 71.119C66.723 70.5458 67.5132 69.8896 68.2166 69.3812C68.9199 68.8728 69.5397 69.7833 69.6934 69.9704C69.8857 70.2044 69.5049 72.1893 68.949 72.5938C68.3931 72.9983 66.1836 71.8355 66.4833 71.119Z" fill="black"/>
<path d="M84.9679 71.2166C84.528 70.7779 84.2193 69.7982 84.0147 68.9549C83.81 68.1115 84.8872 67.8821 85.1186 67.8105C85.4079 67.721 87.1014 68.8241 87.2657 69.4917C87.4299 70.1592 85.5179 71.7649 84.9679 71.2166Z" fill="black"/>
</svg>
