<svg width="100" height="100" viewBox="0 0 100 100" fill="none" xmlns="http://www.w3.org/2000/svg">
<path d="M26.6167 56.8621V75.2196" stroke="black" stroke-width="2" stroke-linecap="round"/>
<path d="M24.7107 65.0035C24.6721 64.5471 25.0558 62.9407 25.2168 62.1945C25.2895 61.8475 27.3664 62.1945 27.7527 62.1945C28.0617 62.1945 28.3965 63.599 28.5253 64.3013V66.7152C28.5253 67.1103 27.9348 69.075 27.7527 69.3487C27.5706 69.6224 26.1303 69.4189 25.8212 69.3487C25.5122 69.2785 24.7107 67.4406 24.7107 67.1103C24.7107 66.78 24.7493 65.46 24.7107 65.0035Z" fill="black" stroke="black" stroke-width="2" stroke-linecap="round"/>
<path d="M41.5938 60.5854V78.943" stroke="black" stroke-width="2" stroke-linecap="round"/>
<path d="M39.6878 68.727C39.6492 68.2706 40.0329 66.6642 40.1938 65.918C40.2666 65.571 42.3434 65.918 42.7297 65.918C43.0388 65.918 43.3736 67.3225 43.5023 68.0248V70.4388C43.5023 70.8338 42.9118 72.7985 42.7297 73.0722C42.5477 73.3459 41.1073 73.1424 40.7983 73.0722C40.4892 73.002 39.6878 71.1641 39.6878 70.8338C39.6878 70.5035 39.7264 69.1835 39.6878 68.727Z" fill="black" stroke="black" stroke-width="2" stroke-linecap="round"/>
<path d="M59.9741 60.3588V78.7163" stroke="black" stroke-width="2" stroke-linecap="round"/>
<path d="M58.0681 68.5001C58.0295 68.0437 58.4133 66.4373 58.5742 65.6911C58.6469 65.3441 60.7238 65.6911 61.1101 65.6911C61.4191 65.6911 61.7539 67.0956 61.8827 67.7978V70.2118C61.8827 70.6068 61.2922 72.5716 61.1101 72.8453C60.928 73.119 59.4877 72.9155 59.1787 72.8453C58.8696 72.7751 58.0681 70.9371 58.0681 70.6068C58.0681 70.2766 58.1067 68.9566 58.0681 68.5001Z" fill="black" stroke="black" stroke-width="2" stroke-linecap="round"/>
<path d="M72.916 57.5074V74.8226" stroke="black" stroke-width="2" stroke-linecap="round"/>
<path d="M71.01 65.1672C70.9714 64.7108 71.3552 63.1044 71.5161 62.3582C71.5888 62.0112 73.6657 62.3582 74.052 62.3582C74.361 62.3582 74.6958 63.7627 74.8246 64.4649V66.8789C74.8246 67.274 74.2341 69.2387 74.052 69.5124C73.8699 69.7861 72.4296 69.5826 72.1205 69.5124C71.8115 69.4422 71.01 67.6043 71.01 67.274C71.01 66.9437 71.0486 65.6237 71.01 65.1672Z" fill="black" stroke="black" stroke-width="2" stroke-linecap="round"/>
<path d="M17.1982 70.1963V44.1175C17.1982 41.0172 20.8456 37.7346 24.5842 35.9109C28.3228 34.0872 39.4745 30.0154 58.2142 32.324C78.3713 34.8072 80.9363 42.9321 80.9363 46.3059C80.9363 49.6797 81.301 69.2844 80.9363 70.9257C80.5715 72.5671 79.9227 78.5163 63.6918 82.5284C47.461 86.5405 32.4007 82.4186 26.4426 80.1488C18.7548 77.2201 17.1982 72.1111 17.1982 70.1963Z" stroke="black" stroke-width="2" stroke-linecap="round"/>
<path d="M17.2578 68.3553C17.7391 71.5239 20.9829 74.8327 31.4895 77.525C44.6227 80.8904 61.0391 80.2337 70.0681 76.458C79.0971 72.6822 80.853 69.4285 81.0809 66.5228" stroke="black" stroke-width="2" stroke-linecap="round"/>
<path d="M17.6997 71.0647C18.4862 73.6082 20.7117 78.6953 30.6013 81.5065" stroke="black" stroke-width="2" stroke-linecap="round"/>
<path d="M80.9811 69.7841C79.1033 72.7174 78.295 77.0768 70.583 80.4041" stroke="black" stroke-width="2" stroke-linecap="round"/>
<path d="M17.2422 43.6969C17.2422 46.9958 20.7254 51.3897 30.6408 53.885C43.0352 57.004 58.6308 56.3475 68.1523 53.885C77.6738 51.4224 80.8435 48.6369 80.4187 44.0107" stroke="black" stroke-width="2" stroke-linecap="round"/>
<path d="M17.4692 51.0303C20.5418 54.871 31.0935 60.6094 47.9699 60.3502C70.5007 60.0042 79.4275 55.6235 80.9853 51.4693" stroke="black" stroke-width="2" stroke-linecap="round"/>
<path d="M73.208 57.039C76.9396 55.8384 80.5197 52.7402 80.4441 48.9594" stroke="black" stroke-width="2" stroke-linecap="round"/>
<path d="M18.6987 47.246C17.5527 43.4865 24.3345 37.9642 35.9574 36.647C50.4859 35.0005 64.6118 36.7259 71.9729 39.9222C77.8618 42.4792 80.3022 44.6517 79.9674 47.1213" stroke="black" stroke-width="2" stroke-linecap="round"/>
<path d="M17.7505 46.942C17.9758 49.6434 20.0519 54.2771 26.7005 56.9852" stroke="black" stroke-width="2" stroke-linecap="round"/>
<path d="M40.5146 38.5931C41.7595 37.6193 60.2565 22.6763 69.2544 15.6429C70.1376 14.9525 71.0201 16.4782 70.3435 17.0192C69.667 17.5602 41.7322 38.5933 39.7026 40.2164C37.673 41.8394 37.132 41.1629 37.8085 40.6219C38.485 40.0809 38.9586 39.8104 40.5146 38.5931Z" stroke="black" stroke-width="2" stroke-linecap="round"/>
<path d="M35.2248 41.7899C36.3306 41.4383 37.9435 40.587 38.3729 40.1996C39.1534 39.8618 38.8442 40.5951 38.592 41.0039C37.5867 41.7576 36.4809 43.7378 35.0044 44.0516C33.528 44.3655 33.1409 42.4525 35.2248 41.7899Z" fill="black" stroke="black" stroke-width="2" stroke-linecap="round"/>
<path d="M52.7334 41.4426C53.9782 40.4687 72.4753 25.5258 81.4731 18.4924C82.3564 17.802 83.2388 19.3276 82.5623 19.8687C81.8858 20.4097 53.951 41.4428 51.9214 43.0659C49.8918 44.6889 49.3507 44.0124 50.0272 43.4714C50.7038 42.9304 51.1773 42.6599 52.7334 41.4426Z" stroke="black" stroke-width="2" stroke-linecap="round"/>
<path d="M47.4435 44.6393C48.5493 44.2877 50.1622 43.4364 50.5916 43.049C51.3721 42.7112 51.063 43.4444 50.8108 43.8533C49.8055 44.607 48.6997 46.5871 47.2232 46.901C45.7467 47.2149 45.3597 45.3019 47.4435 44.6393Z" fill="black" stroke="black" stroke-width="2" stroke-linecap="round"/>
<path d="M27.0252 76.2091L18.8164 72.3174L21.431 77.4252L28.8494 81.1952L39.8552 83.6274L50.8003 84.5395L61.1373 83.0801L72.6904 79.2493L78.771 74.5673L79.5006 72.0134L66.3058 77.79L55.7255 79.6142L41.497 79.2493L27.0252 76.2091Z" fill="black"/>
<path d="M26.1225 52.681L18.8681 48.1084L17.4722 50.8364L23.2603 55.6069L32.4195 58.6599L45.5859 60.3137L58.2434 59.8684L72.7455 57.515L78.788 54.5256L80.569 51.0272V47.9742L74.4628 52.1722L64.4767 54.8437L50.7379 56.1794L38.0804 55.6069L26.1225 52.681Z" fill="black"/>
</svg>
