<svg width="100" height="100" viewBox="0 0 100 100" fill="none" xmlns="http://www.w3.org/2000/svg">
<path d="M49.1007 40.3585C51.6067 37.7915 58.0177 40.5475 64.5237 46.9005C71.0297 53.2535 73.3787 58.8995 70.8727 61.4655C68.3657 64.0325 62.1427 61.7565 55.6367 55.4035C49.1307 49.0505 46.5947 42.9245 49.1007 40.3585Z" stroke="black" stroke-width="2" stroke-miterlimit="10" stroke-linejoin="round"/>
<path d="M70.8664 47.1953C78.2704 56.5133 79.2794 63.3683 76.3384 65.9483C74.7854 67.3093 72.4184 67.6753 69.4004 66.8913" stroke="black" stroke-width="2" stroke-miterlimit="10" stroke-linecap="round" stroke-linejoin="round"/>
<path d="M43.9397 44.743C42.8687 39.375 42.3727 36.758 44.3607 34.723C46.4687 32.563 50.6847 32.559 55.6697 35.036" stroke="black" stroke-width="2" stroke-miterlimit="10" stroke-linecap="round" stroke-linejoin="round"/>
<path d="M40.0875 30.1385C43.1785 27.0655 50.1465 27.8675 56.2745 30.3995C61.0075 32.3555 64.5605 34.9685 69.6755 39.9625C76.1565 46.2915 80.4085 52.0945 82.0105 57.9885C83.3105 62.7675 82.8695 68.0035 80.4525 70.4785C75.0555 76.0045 60.6945 69.5925 51.2995 60.9665C48.2565 58.1725 44.2265 53.5035 42.4135 50.4615C37.0285 41.4205 37.0665 33.1405 40.0875 30.1385Z" stroke="black" stroke-width="2" stroke-miterlimit="10" stroke-linejoin="round"/>
<path d="M80.237 70.724C80.237 70.724 69.406 82.571 65.735 83.232C65.735 83.232 61.484 84.569 53.586 80.778C50.087 79.099 45.685 75.915 40.966 71.489C31.21 62.337 28.619 54.796 27.736 52.25C25.852 46.82 25.983 39.644 25.983 39.644C25.983 39.644 26.414 35.948 24.418 33.25C22.422 30.553 18 28.853 18 28.853C18 28.853 19.33 25.817 22.751 23.49C26.727 20.786 29.549 17 29.549 17C29.549 17 34.087 19.344 36.512 22.173C40.389 26.696 38.643 32.556 38.643 32.556" stroke="black" stroke-width="2" stroke-miterlimit="10" stroke-linecap="round" stroke-linejoin="round"/>
<path d="M49.1484 46.9424C49.1484 46.9424 54.4544 49.1544 59.2964 53.8314C61.8864 56.3344 64.1555 61.2944 64.1555 61.2944C64.1555 61.2944 60.3495 59.8974 55.6895 55.4594C51.3075 51.2864 49.1484 46.9424 49.1484 46.9424Z" fill="black" stroke="black" stroke-width="2" stroke-miterlimit="10" stroke-linecap="round" stroke-linejoin="round"/>
</svg>
