<svg width="100" height="100" viewBox="0 0 100 100" fill="none" xmlns="http://www.w3.org/2000/svg">
<path d="M52.3862 47.3255C50.735 53.2651 54.279 61.9203 55.5904 62.9514C56.9017 63.9826 73.498 67.5087 81.091 62.8974C88.6839 58.2862 84.9346 37.9556 81.3951 36.3731C78.2662 34.9742 71.3466 34.8284 65.2585 35.2573C57.6484 35.7933 54.4502 39.9009 52.3862 47.3255Z" stroke="black" stroke-width="2" stroke-linecap="round" stroke-linejoin="round"/>
<path d="M52.9465 45.2543L36.9105 44.9281C35.239 46.4613 32.9815 50.5618 35.3037 53.2128C37.6258 55.8639 47.298 55.2611 52.1699 54.9583" stroke="black" stroke-width="2" stroke-linecap="round" stroke-linejoin="round"/>
<path d="M82.2927 37.5488C76.5153 32.8873 72.2445 39.4962 71.5936 47.7918C70.78 58.1613 72.889 61.5169 74.5467 63.1128C75.3588 63.8947 76.0695 64.35 78.5994 63.8815" stroke="black" stroke-width="2" stroke-linecap="round" stroke-linejoin="round"/>
<path d="M32.7781 34.1848C32.7781 34.1848 22.5192 34.2042 20.458 35.29C17.0749 37.0722 12.8874 39.9954 12.4021 48.3536C11.9158 56.73 14.2852 61.3235 17.259 62.2059C19.6381 62.9118 27.0287 63.0948 30.4267 63.0981M36.4592 35.29C27.4298 33.3486 23.2631 43.6529 25.1905 54.3691C26.2359 60.1816 29.3775 63.0922 32.7781 62.5317" stroke="black" stroke-width="2" stroke-linecap="round" stroke-linejoin="round"/>
<path d="M30.4121 63.0762C31.5448 62.9964 34.9664 62.357 37.1333 60.5212C38.7761 59.1295 40.1433 56.9692 40.5767 55.0188" stroke="black" stroke-width="2" stroke-linecap="round" stroke-linejoin="round"/>
<path d="M32.1484 34.2236C33.1541 34.1528 36.0389 34.0224 38.2581 36.5836C41.0322 39.7851 41.371 41.8002 41.8767 44.5452" stroke="black" stroke-width="2" stroke-linecap="round" stroke-linejoin="round"/>
<path d="M52.3862 47.3255C50.735 53.2651 54.279 61.9203 55.5904 62.9514C56.9017 63.9826 73.498 67.5087 81.091 62.8974C88.6839 58.2862 84.9346 37.9556 81.3951 36.3731C78.2662 34.9742 71.3466 34.8284 65.2585 35.2573C57.6484 35.7933 54.4502 39.9009 52.3862 47.3255Z" stroke="black" stroke-width="2" stroke-linecap="round" stroke-linejoin="round"/>
<path d="M52.9465 45.2543L36.9105 44.9281C35.239 46.4613 32.9815 50.5618 35.3037 53.2128C37.6258 55.8639 47.298 55.2611 52.1699 54.9583" stroke="black" stroke-width="2" stroke-linecap="round" stroke-linejoin="round"/>
<path d="M82.2927 37.5488C76.5153 32.8873 72.2445 39.4962 71.5936 47.7918C70.78 58.1613 72.889 61.5169 74.5467 63.1128C75.3588 63.8947 76.0695 64.35 78.5994 63.8815" stroke="black" stroke-width="2" stroke-linecap="round" stroke-linejoin="round"/>
<path d="M32.7781 34.1848C32.7781 34.1848 22.5192 34.2042 20.458 35.29C17.0749 37.0722 12.8874 39.9954 12.4021 48.3536C11.9158 56.73 14.2852 61.3235 17.259 62.2059C19.6381 62.9118 27.0287 63.0948 30.4267 63.0981M36.4592 35.29C27.4298 33.3486 23.2631 43.6529 25.1905 54.3691C26.2359 60.1816 29.3775 63.0922 32.7781 62.5317" stroke="black" stroke-width="2" stroke-linecap="round" stroke-linejoin="round"/>
<path d="M30.4121 63.0762C31.5448 62.9964 34.9664 62.357 37.1333 60.5212C38.7761 59.1295 40.1433 56.9692 40.5767 55.0188" stroke="black" stroke-width="2" stroke-linecap="round" stroke-linejoin="round"/>
<path d="M32.1484 34.2236C33.1541 34.1528 36.0389 34.0224 38.2581 36.5836C41.0322 39.7851 41.371 41.8002 41.8767 44.5452" stroke="black" stroke-width="2" stroke-linecap="round" stroke-linejoin="round"/>
<path d="M60.0055 67.8384C57.4583 67.1702 52.6412 61.6526 54.882 63.3561L78.3867 64.5636C78.3867 64.5636 81.45 62.9859 83.452 61.7793C93.3657 63.6356 88.2902 70.2082 78.0148 69.6513C66.2217 69.012 65.1531 69.189 60.0055 67.8384Z" fill="black"/>
<path d="M60.0055 67.8384C57.4583 67.1702 52.6412 61.6526 54.882 63.3561L78.3867 64.5636C78.3867 64.5636 81.45 62.9859 83.452 61.7793C93.3657 63.6356 88.2902 70.2082 78.0148 69.6513C66.2217 69.012 65.1531 69.189 60.0055 67.8384Z" fill="black"/>
<path d="M16.5452 64.6033C14.3508 64.1544 11.697 56.3672 14.2824 61.5707L34.0013 62.2967C34.0013 62.2967 36.6405 61.2369 38.3653 60.4264C46.9062 61.6733 41.5578 66.8747 32.7051 66.5006C22.5449 66.0712 19.2883 65.1644 16.5452 64.6033Z" fill="black"/>
<path d="M16.5452 64.6033C14.3508 64.1544 11.697 56.3672 14.2824 61.5707L34.0013 62.2967C34.0013 62.2967 36.6405 61.2369 38.3653 60.4264C46.9062 61.6733 41.5578 66.8747 32.7051 66.5006C22.5449 66.0712 19.2883 65.1644 16.5452 64.6033Z" fill="black"/>
</svg>
