<svg width="100" height="100" viewBox="0 0 100 100" fill="none" xmlns="http://www.w3.org/2000/svg">
<path d="M68.3602 69.622C72.0502 63.545 71.2103 55.416 69.2003 49.944C68.9803 49.36 68.7703 48.776 68.5503 48.192C68.0903 46.947 67.4803 45.647 66.7903 44.529C66.7603 44.478 66.4202 44.084 66.3802 44.098C65.8902 44.278 64.9602 46.235 64.6202 46.737C62.6502 49.621 60.7503 53.213 60.5203 56.783C60.4303 58.117 60.6002 59.466 60.7402 60.764C60.8002 61.306 61.4002 62.724 61.3602 62.69" stroke="black" stroke-width="2" stroke-miterlimit="10" stroke-linecap="round" stroke-linejoin="round"/>
<path d="M68.1 69.8313C69.39 68.8343 62.5001 63.2773 61.1901 62.6713C56.4301 60.4693 51.6 62.3013 47 63.9923C45.83 64.4253 43.38 64.8973 42.53 65.8033C42.37 65.9773 43.8 67.4703 43.97 67.6793C45.53 69.6393 47.6601 71.3273 49.9201 72.3713C56.6701 75.4913 62.38 74.2413 68.1 69.8313Z" stroke="black" stroke-width="2" stroke-miterlimit="10" stroke-linecap="round" stroke-linejoin="round"/>
<path d="M66.7002 71.1307C66.7002 71.1307 69.1701 71.0298 71.9001 74.2498C74.6301 77.4708 77.1701 79.4348 79.5201 81.6988C82.6001 84.6808 83.5601 81.4487 81.8401 79.5917C79.1001 76.6227 76.7501 74.7058 75.2601 73.2408C73.7801 71.7758 70.3602 68.9488 69.6602 67.0938" stroke="black" stroke-width="2" stroke-miterlimit="10" stroke-linecap="round" stroke-linejoin="round"/>
<path d="M63.96 47.6441C64.39 43.7191 60.7101 38.9022 58.8101 35.8042C58.1801 34.7752 54.1701 31.3701 54.0301 31.4801C53.8801 31.6031 53.7401 35.3772 53.5801 36.7862C52.9201 42.6502 51.75 48.0322 53.85 53.7632C54.44 55.3672 55.79 58.4432 57.34 59.1622C58.02 59.4762 60.19 61.2882 60.13 61.2622" stroke="black" stroke-width="2" stroke-miterlimit="10" stroke-linecap="round" stroke-linejoin="round"/>
<path d="M54.3599 55.0893C49.4699 51.9693 41.4599 49.3673 35.7099 52.8923C34.9099 53.3803 33.8199 53.3813 33.1599 54.0783C32.9099 54.3463 34.8 56.6313 35.06 56.9793C37.24 59.9613 43.1699 63.4593 46.8799 63.8733" stroke="black" stroke-width="2" stroke-miterlimit="10" stroke-linecap="round" stroke-linejoin="round"/>
<path d="M53.3902 38.2078C52.2002 33.7988 48.4502 30.3129 45.5902 28.3659C45.0602 28.0029 43.0702 26.3068 42.5102 26.5158C42.0302 26.6898 42.7502 27.5078 42.7202 28.0108C42.6802 28.9488 42.5503 30.0188 42.4003 30.9498C41.5103 36.2038 43.0902 42.2048 45.9602 46.4248C46.9102 47.8218 48.2503 49.9368 49.7003 50.6068C50.2703 50.8738 52.9503 52.5919 52.9303 52.5899" stroke="black" stroke-width="2" stroke-miterlimit="10" stroke-linecap="round" stroke-linejoin="round"/>
<path d="M43.36 41.827C39.87 38.836 34.9601 38.29 30.4301 38.998C29.4501 39.152 26.4001 38.921 25.7601 39.806C25.6701 39.928 28.3101 42.868 28.7601 43.401C30.8001 45.818 31.6801 46.766 34.0101 48.956C34.7501 49.647 37.78 51.864 37.62 51.716" stroke="black" stroke-width="2" stroke-miterlimit="10" stroke-linecap="round" stroke-linejoin="round"/>
<path d="M42.2699 30.1535C41.3599 27.6925 39.6099 25.9445 37.6199 24.3375C37.3899 24.1505 33.4299 21.8895 33.4299 21.8965C32.6699 25.0625 36.3299 31.6845 37.6799 34.3455C38.9099 36.7905 41.9899 39.7345 41.8699 39.4085" stroke="black" stroke-width="2" stroke-miterlimit="10" stroke-linecap="round" stroke-linejoin="round"/>
<path d="M36.5803 32.8429C33.1103 31.2389 30.2303 27.5329 26.3103 29.7669C25.1803 30.4059 22.7202 31.1399 21.4902 31.5919C21.0602 31.7509 23.5002 34.9009 27.6002 36.4689C28.2002 36.6959 31.4503 38.6119 31.4003 38.4759" stroke="black" stroke-width="2" stroke-miterlimit="10" stroke-linecap="round" stroke-linejoin="round"/>
<path d="M27.9299 28.9622C27.6199 27.8782 26.7899 26.8722 26.6999 24.6232C26.6099 22.3752 27.0899 20.0212 27.5699 19.9692C28.8599 19.8302 32.3599 24.0432 33.5499 25.1662" stroke="black" stroke-width="2" stroke-miterlimit="10" stroke-linecap="round" stroke-linejoin="round"/>
<path d="M27.5 28.8702C26.41 27.4292 23.18 26.6322 21.47 26.3992C20.87 26.3172 18 25.9473 18 25.9473" stroke="black" stroke-width="2" stroke-miterlimit="10" stroke-linecap="round" stroke-linejoin="round"/>
<path d="M27.2801 28.47C26.6701 28.17 25.76 26.908 25.21 26.384C23.67 24.938 18.15 20.708 19.49 18" stroke="black" stroke-width="2" stroke-miterlimit="10" stroke-linecap="round" stroke-linejoin="round"/>
</svg>
