<svg width="100" height="100" viewBox="0 0 100 100" fill="none" xmlns="http://www.w3.org/2000/svg">
<path d="M65.0928 43.4677C64.872 33.3085 60.6758 27.0143 50.7375 27.2351C40.7992 27.456 36.1652 33.237 36.1652 38.7196C36.1652 44.4589 38.6048 43.5441 38.2998 47.3254C38.0008 51.0337 34.9398 53.0824 35.3883 56.5957C36.0508 61.7857 40.6108 64.7168 44.7646 64.0363C51.2171 62.9794 58.4673 56.2771 50.7375 44.9032" stroke="black" stroke-width="2" stroke-linecap="round"/>
<path d="M27.584 43.7982C27.584 22.171 43.0517 18.2505 50.6598 18.5323C58.2678 18.814 73.7656 21.9135 74.7988 43.7983C74.7988 63.0531 67.1908 57.3236 58.9253 65.4013C50.6598 73.479 48.3116 82.9655 39.9522 82.5898C31.5927 82.2141 27.5539 78.9662 26.8025 73.6124C26.2014 69.3294 27.1303 64.4702 28.4227 60.8802" stroke="black" stroke-width="2" stroke-linecap="round"/>
<path d="M74.8105 44.8711C74.8105 64.126 67.9704 58.6218 59.7049 66.6994C51.4394 74.7771 47.5157 82.9413 39.1562 82.5656" stroke="black" stroke-width="2" stroke-linecap="round"/>
<path d="M47.421 62.2443C52.6534 58.8707 51.9335 52.3532 52.2617 49.1509C52.347 46.9023 55.076 53.6316 52.2617 59.5791C51.666 60.838 48.5881 62.2335 47.421 62.2443Z" fill="black"/>
</svg>
