<svg width="100" height="100" viewBox="0 0 100 100" fill="none" xmlns="http://www.w3.org/2000/svg">
<g clip-path="url(#clip0_65_20533)">
<path d="M63.45 60.8602C63.67 61.1202 63.8 61.3902 63.85 61.6702C63.88 61.8002 63.88 61.9302 63.87 62.0602C63.83 62.8702 63.15 63.5902 62.37 63.7802C62.29 63.8002 62.21 63.8202 62.13 63.8202C61.61 63.8802 61.08 63.7002 60.65 63.1602C60.46 62.9402 60.34 62.7002 60.28 62.4702C60.27 62.4302 60.26 62.4002 60.25 62.3702C60.08 61.5502 60.59 60.7702 61.31 60.4102C61.32 60.4102 61.34 60.3902 61.36 60.3802C62.03 60.0602 62.85 60.1202 63.45 60.8702V60.8602Z" stroke="black" stroke-width="2" stroke-linecap="round" stroke-linejoin="round"/>
<path d="M62.13 63.8102C61.31 69.7002 52.71 65.0502 60.28 62.4702C60.35 62.7002 60.46 62.9302 60.65 63.1602C61.08 63.6902 61.61 63.8802 62.13 63.8202V63.8102Z" stroke="black" stroke-width="2" stroke-linecap="round" stroke-linejoin="round"/>
<path d="M62.37 63.7698C63.16 63.5798 63.83 62.8698 63.87 62.0498C68.97 64.3498 63.1 68.5898 62.37 63.7698Z" stroke="black" stroke-width="2" stroke-linecap="round" stroke-linejoin="round"/>
<path d="M61.31 60.4002C60.59 60.7602 60.08 61.5502 60.25 62.3602C54.54 62.6902 58.79 55.3902 61.31 60.4002Z" stroke="black" stroke-width="2" stroke-linecap="round" stroke-linejoin="round"/>
<path d="M63.86 61.6702C63.81 61.4002 63.68 61.1202 63.46 60.8602C62.87 60.1102 62.04 60.0502 61.37 60.3702C59.87 54.5502 70.85 57.7402 63.86 61.6702Z" stroke="black" stroke-width="2" stroke-linecap="round" stroke-linejoin="round"/>
<path d="M56.09 34.6101C56.25 34.8901 56.33 35.1701 56.33 35.4301C56.33 35.5601 56.31 35.6801 56.28 35.8001C56.1 36.5601 55.33 37.1301 54.55 37.1801C54.47 37.1901 54.39 37.2001 54.31 37.1801C53.81 37.1601 53.34 36.9001 53.03 36.3301C52.89 36.0901 52.82 35.8501 52.8 35.6201C52.8 35.5801 52.8 35.5501 52.8 35.5201C52.78 34.7301 53.4 34.0701 54.15 33.8401C54.16 33.8401 54.18 33.8201 54.2 33.8201C54.89 33.6301 55.66 33.8201 56.09 34.6101Z" stroke="black" stroke-width="2" stroke-linecap="round" stroke-linejoin="round"/>
<path d="M54.56 37.17C55.34 37.12 56.1 36.55 56.29 35.79C60.72 38.75 54.41 41.82 54.56 37.17Z" stroke="black" stroke-width="2" stroke-linecap="round" stroke-linejoin="round"/>
<path d="M50.46 36.5402C50.78 35.7302 51.75 35.5102 52.8 35.6202C52.82 35.8502 52.89 36.0902 53.03 36.3302C53.34 36.9002 53.82 37.1502 54.31 37.1802C53.6 39.3002 52.36 39.2002 51.19 38.8402" stroke="black" stroke-width="2" stroke-linecap="round" stroke-linejoin="round"/>
<path d="M54.15 33.8401C53.4 34.0701 52.78 34.7301 52.8 35.5201C47.34 34.9401 52.64 28.7301 54.15 33.8401Z" stroke="black" stroke-width="2" stroke-linecap="round" stroke-linejoin="round"/>
<path d="M56.34 35.4301C56.34 35.1601 56.26 34.8801 56.1 34.6101C55.67 33.8101 54.9 33.6301 54.21 33.8201C53.81 28.1101 63.65 32.8301 56.34 35.4301Z" stroke="black" stroke-width="2" stroke-linecap="round" stroke-linejoin="round"/>
<path d="M54.46 55.04C53.96 60.16 52.46 64.08 50.27 66.96C46.74 71.64 41.43 73.59 35.72 73.5C26.49 73.35 17.7 66 18.28 53.75C18.85 41.49 25.63 26.5 36.44 26.5C40.09 26.5 44.05 29.12 47.33 33.14C48.22 34.23 49.07 35.43 49.83 36.71C50.67 38.09 51.42 39.55 52.06 41.08C53.92 45.46 54.91 50.36 54.46 55.04Z" stroke="black" stroke-width="2" stroke-linecap="round" stroke-linejoin="round"/>
<path d="M20.24 63.5502C20.78 61.3102 22.16 58.7002 24.78 59.3202C26.56 59.7402 28.7 64.6302 30.99 64.6302C33.43 64.6302 34.54 60.4002 36.95 60.7702C38.69 61.0402 39.76 64.1702 41.51 64.1502C44.5 64.1002 45.61 59.5902 48.49 59.2202C50.42 58.9702 52.12 60.7002 52.3 63.3802" stroke="black" stroke-width="2" stroke-linecap="round" stroke-linejoin="round"/>
<path d="M51.9964 43.5391C58.1289 64.4096 30.0118 75.8457 22.5562 65.8012C29.2445 80.0133 63.1459 73.4969 51.9964 43.5391Z" fill="black"/>
<path d="M22.57 37.46C22.12 38.98 22.38 40.26 23.7 41.14C25.02 42.02 26.91 41.92 28.13 40.91C28.87 40.3 29.34 39.44 29.96 38.71C30.58 37.98 31.47 37.35 32.42 37.49C34.56 37.81 35.03 41.53 37.19 41.48C38.37 41.45 39.12 40.24 39.65 39.19C40.18 38.14 40.96 36.93 42.14 36.93C43.07 36.93 43.8 37.71 44.27 38.51C44.74 39.31 45.08 40.22 45.77 40.83C46.78 41.72 48.46 41.71 49.46 40.82C50.46 39.93 50.47 37.6 49.7 36.5" stroke="black" stroke-width="2" stroke-linecap="round" stroke-linejoin="round"/>
<path d="M70.16 72.0002C63.51 74.6102 55.47 73.1202 50.27 66.9602C52.46 64.0802 53.96 60.1602 54.46 55.0402C54.91 50.3602 53.92 45.4602 52.06 41.0802C51.42 39.5502 50.67 38.0902 49.83 36.7102C49.07 35.4302 48.22 34.2302 47.33 33.1402C48.71 30.9502 50.58 29.2302 53 28.2402C57.25 26.5002 63.51 28.4002 69.07 32.4702C69.18 32.5402 69.29 32.6302 69.39 32.7202C74.34 36.4002 78.68 41.8002 80.5 47.8202C84.39 60.7102 78.76 68.6302 70.16 72.0002Z" stroke="black" stroke-width="2" stroke-linecap="round" stroke-linejoin="round"/>
<path d="M51.25 65.7291C63.24 77.9491 86.4591 62.2965 76.3958 41.3945C93.3413 69.2762 61.86 79.9591 50.73 66.9091L51.25 65.7291Z" fill="black"/>
<path d="M69.04 48.4799C70.1556 48.4799 71.06 47.5756 71.06 46.4599C71.06 45.3443 70.1556 44.4399 69.04 44.4399C67.9244 44.4399 67.02 45.3443 67.02 46.4599C67.02 47.5756 67.9244 48.4799 69.04 48.4799Z" stroke="black" stroke-width="2" stroke-linecap="round" stroke-linejoin="round"/>
<path d="M71.27 47.1201C77.03 47.6601 75.48 55.6201 69.15 48.9401" stroke="black" stroke-width="2" stroke-linecap="round" stroke-linejoin="round"/>
<path d="M67.11 45.35C61.72 43.7 67.52 35.86 69.32 44.35" stroke="black" stroke-width="2" stroke-linecap="round" stroke-linejoin="round"/>
<path d="M67.16 47.73C59.88 51.36 60.41 42.85 66.77 45.61" stroke="black" stroke-width="2" stroke-linecap="round" stroke-linejoin="round"/>
<path d="M69.15 48.94C68.93 54.57 61.74 51.88 67.16 47.73" stroke="black" stroke-width="2" stroke-linecap="round" stroke-linejoin="round"/>
<path d="M69.04 44.4399C70.21 38.9499 78.11 40.7699 71.45 46.7399" stroke="black" stroke-width="2" stroke-linecap="round" stroke-linejoin="round"/>
<path d="M27.0625 35.7686C27.6609 34.5292 31.679 30.3829 33.9873 29.9131" stroke="black" stroke-width="2" stroke-linecap="round" stroke-linejoin="round"/>
</g>
<defs>
<clipPath id="clip0_65_20533">
<rect width="65.5" height="49" fill="white" transform="translate(17.25 25.5)"/>
</clipPath>
</defs>
</svg>
