<svg width="100" height="100" viewBox="0 0 100 100" fill="none" xmlns="http://www.w3.org/2000/svg">
<path d="M36.7529 65.1225C44.9629 73.4695 45.3428 76.0625 51.0928 75.9245C58.3028 75.7505 60.2528 68.8925 65.6128 64.9605C75.2228 57.9165 84.0128 61.4825 82.1928 50.8635C81.5028 46.7895 77.4528 42.2455 72.0828 37.6625C66.7128 33.0795 65.6728 20.0115 53.3728 25.1965C46.6028 28.0545 44.3028 29.0285 39.3728 28.5955C21.3028 27.0075 15.2028 40.4555 17.4428 48.1495C21.5828 62.3855 28.5329 56.7755 36.7529 65.1225Z" stroke="black" stroke-width="2" stroke-miterlimit="10" stroke-linecap="round" stroke-linejoin="round"/>
<path d="M47.2428 70.5696C47.2428 70.5696 50.1228 73.5396 53.8428 70.7976" stroke="black" stroke-width="2" stroke-miterlimit="10" stroke-linecap="round" stroke-linejoin="round"/>
<path d="M30.6729 46.4823C30.6729 40.7563 35.7429 36.1133 42.0029 36.1133C48.2529 36.1133 53.3229 40.7563 53.3229 46.4823C53.3229 52.2093 48.2529 56.8523 42.0029 56.8523C35.7429 56.8523 30.6729 52.2093 30.6729 46.4823Z" stroke="black" stroke-width="2" stroke-miterlimit="10" stroke-linejoin="round"/>
<path d="M35.4828 47.6936C35.4828 47.6936 36.4427 53.6016 44.3027 52.6336" stroke="black" stroke-width="2" stroke-miterlimit="10" stroke-linecap="round" stroke-linejoin="round"/>
<path d="M74.3326 47.2021C74.3326 47.2021 81.9127 54.1122 71.9727 56.5692" stroke="black" stroke-width="2" stroke-miterlimit="10" stroke-linecap="round" stroke-linejoin="round"/>
<path d="M52.3628 42.3213C52.3628 42.3213 60.0128 58.8543 39.8428 56.6383" stroke="black" stroke-width="2" stroke-miterlimit="10" stroke-linecap="round" stroke-linejoin="round"/>
<path d="M35.3927 43.7225C35.3927 43.7225 35.3927 42.1425 36.7627 41.5195" stroke="black" stroke-width="2" stroke-miterlimit="10" stroke-linecap="round" stroke-linejoin="round"/>
<path d="M26.3027 35.7605C26.3027 35.7605 17.1928 40.5895 22.9728 51.2285" stroke="black" stroke-width="2" stroke-miterlimit="10" stroke-linecap="round" stroke-linejoin="round"/>
<path d="M53.7529 29.968C53.7529 29.968 56.9529 28.219 58.9729 28.873C61.7029 29.756 62.4229 31.278 63.3329 32.447" stroke="black" stroke-width="2" stroke-miterlimit="10" stroke-linecap="round" stroke-linejoin="round"/>
</svg>
