<svg width="100" height="100" viewBox="0 0 100 100" fill="none" xmlns="http://www.w3.org/2000/svg">
<path d="M38.9968 25.4742C36.1707 30.479 43.4306 34.8814 47.3067 37.0402C47.3067 37.0402 47.733 35.6176 48.0319 35.2191C48.3307 34.8206 49.6509 33.84 49.6509 33.84C48.7922 32.9078 46.9532 30.1654 47.3065 28.2813C48.08 24.1558 51.6047 24.0963 51.2367 22.3299C50.8687 20.5636 42.5294 19.2182 38.9968 25.4742Z" fill="black" stroke="black" stroke-width="2"/>
<path d="M42.6896 55.7146C48.2963 56.9795 50.4212 48.7593 51.3721 44.4257L48.1632 42.7777C47.5177 43.8685 44.8905 46.7442 42.9845 46.9485C38.8109 47.3959 37.7389 44.0378 36.1533 44.8989C34.5678 45.76 35.6812 54.1334 42.6896 55.7146Z" fill="black" stroke="black" stroke-width="2"/>
<path d="M68.1471 39.1515C67.5949 33.4305 62.8062 36.1113 58.3926 36.5635C58.3926 36.5635 59.0402 38.0601 58.8907 38.6058C58.7413 39.1515 58.3926 40.4986 58.3926 40.4986C59.6305 40.7705 60.9424 40.5852 61.7327 42.3317C63.463 46.1559 60.4188 48.1839 61.7327 49.4205C63.0465 50.6572 68.8373 46.3028 68.1471 39.1515Z" fill="black" stroke="black" stroke-width="2"/>
<path d="M47.4125 37.5267C48.1177 33.6477 51.8177 33.412 54.1441 33.7305C57.1636 34.1438 58.4888 37.4918 58.4888 38.6108C58.4888 40.49 57.3814 43.667 54.5613 44.2649C50.818 45.0586 46.531 42.3754 47.4125 37.5267Z" stroke="black" stroke-width="2"/>
<path d="M42.4741 16.7572C27.3352 21.8307 26.3475 36.2034 27.7439 44.5801C29.1402 52.9569 41.7576 68.9254 60.9882 58.901C75.9744 51.089 72.1896 34.9899 70.5016 29.9253C68.9855 25.3766 60.2035 10.8155 42.4741 16.7572Z" stroke="black" stroke-width="2"/>
<path d="M47.8171 25.7048C38.645 28.7787 38.0465 37.4867 38.8926 42.5619C39.7386 47.6371 47.383 57.3119 59.0342 51.2384C68.1139 46.5054 66.0152 36.6466 64.477 33.8013C62.7797 30.6615 58.5588 22.1049 47.8171 25.7048Z" stroke="black" stroke-width="2"/>
<path d="M47.3146 40.5244C40.1645 42.2224 28.8126 40.256 27.1143 37.3958" stroke="black" stroke-width="2"/>
<path d="M55.4334 34.1387C58.0021 31.4787 60.0728 23.9567 58.9651 17.2314" stroke="black" stroke-width="2"/>
<path d="M55.8728 44.2351C57.0074 47.1047 58.7507 55.0166 55.8728 61.0511" stroke="black" stroke-width="2"/>
<path d="M44.6827 61.9382C44.6827 64.1943 44.6827 67.1202 44.6827 68.3697C44.6827 69.9315 50.3229 70.4522 50.3229 68.3697C50.3229 66.7036 50.3229 64.31 50.3229 62.3722" stroke="black" stroke-width="2"/>
<path d="M44.1703 67.2447C40.1811 68.1044 32.3569 70.5504 34.8871 76.0123C37.578 81.8213 51.2158 80.9789 54.5942 80.3353C56.7817 79.9186 64.537 77.9579 61.716 72.0408C59.4592 67.3072 52.5569 66.9206 50.674 66.9207" stroke="black" stroke-width="2"/>
<path d="M35.7205 70.9971C34.5423 72.1257 32.5582 75.3864 35.386 78.8916C38.9206 83.2732 44.2422 84.357 50.2837 84.1177C56.6583 83.8652 59.9059 81.6037 60.9719 79.7116C61.8248 78.1979 63.2045 76.1926 61.8986 72.4553" stroke="black" stroke-width="2"/>
<path d="M41.1298 53.5807C40.6459 54.1684 38.2673 56.1728 35.9442 57.4174" stroke="black" stroke-width="2"/>
<path d="M66.8701 41.6059C68.2699 41.5408 71.2648 41.5864 72.046 42.2895" stroke="black" stroke-width="2"/>
<path d="M42.419 23.9496C41.3772 23.2009 38.8818 20.8526 38.7256 18.665" stroke="black" stroke-width="2"/>
<path d="M42.8751 80.3285L37.0302 78.83L37.5797 81.028L43.5245 83.8255L53.166 84.1252L60.01 80.7283L60.9592 78.2305L50.0687 80.7283L42.8751 80.3285Z" fill="black"/>
<ellipse cx="50.8001" cy="73.2165" rx="1.25418" ry="1.59179" transform="rotate(-24.7235 50.8001 73.2165)" fill="black"/>
<ellipse cx="54.1088" cy="71.9645" rx="1.10887" ry="1.59179" transform="rotate(-30.5384 54.1088 71.9645)" fill="black"/>
<ellipse cx="47.0292" cy="73.8558" rx="1.25418" ry="1.59179" transform="rotate(-17.2008 47.0292 73.8558)" fill="black"/>
</svg>
