<svg width="100" height="100" viewBox="0 0 100 100" fill="none" xmlns="http://www.w3.org/2000/svg">
<path d="M29.9618 41.542L23.2265 46.4842C22.9945 46.6544 22.8485 46.9001 22.8244 47.1868C22.5337 50.6473 20.6895 73.6419 22.8615 75.5111C25.2109 77.5328 75.1553 76.5925 76.7748 75.5111C78.2695 74.5129 77.005 51.1987 76.8014 47.6135C76.7842 47.3113 76.6314 47.0505 76.3849 46.8749L69.901 42.2582" stroke="black" stroke-width="2" stroke-linecap="round"/>
<path d="M30.4942 50.8999C30.4942 50.8999 29.5188 28.2553 30.5514 25.5755C31.5839 22.8957 69.8198 23.7442 69.8198 25.5755C69.8198 27.4068 69.8198 50.576 69.8198 50.576" stroke="black" stroke-width="2" stroke-linecap="round"/>
<path d="M53.4775 59.871L76.2675 47.2949" stroke="black" stroke-width="2" stroke-linecap="round"/>
<path d="M23.022 46.9121L45.7492 59.5687" stroke="black" stroke-width="2" stroke-linecap="round"/>
<path d="M23.1821 75.4309L49.1493 57.5784C49.3177 57.4626 49.5396 57.4609 49.7097 57.5742L76.5346 75.4309" stroke="black" stroke-width="2" stroke-linecap="round"/>
<path d="M39.4136 37.5352H61.8498" stroke="black" stroke-width="2" stroke-linecap="round"/>
<path d="M39.4136 33.0986H61.8498" stroke="black" stroke-width="2" stroke-linecap="round"/>
<path d="M28.8244 79.684C21.9564 79.3373 21.8302 76.3935 21.2991 74.4017C21.2991 74.4017 21.7559 75.8637 32.7802 76.5721C44.1714 77.304 65.912 76.7539 75.3263 75.4984C77.3947 75.3268 78.528 67.2267 78.4629 70.088C78.3977 72.9494 79.0977 79.2929 75.856 79.684C72.6143 80.075 64.4526 80.6767 55.0823 80.7241C45.8 80.771 33.9928 79.9448 28.8244 79.684Z" fill="black"/>
<path d="M70.2944 49.8693V42.8066L75.7594 46.9297L70.2944 49.8693Z" fill="black"/>
<path d="M29.7056 49.8693V42.8066L24.2406 46.9297L29.7056 49.8693Z" fill="black"/>
</svg>
