<svg width="100" height="100" viewBox="0 0 100 100" fill="none" xmlns="http://www.w3.org/2000/svg">
<path d="M83.6208 75.6321C83.6208 75.6321 86.2815 67.9898 85.9219 57.9189" stroke="black" stroke-width="2" stroke-miterlimit="10"/>
<path d="M69.5839 51.0205C71.3766 51.0205 72.8299 49.577 72.8299 47.7964C72.8299 46.0158 71.3766 44.5723 69.5839 44.5723C67.7912 44.5723 66.3379 46.0158 66.3379 47.7964C66.3379 49.577 67.7912 51.0205 69.5839 51.0205Z" stroke="black" stroke-width="2" stroke-miterlimit="10"/>
<path d="M60.775 37.2027C50.7078 37.3388 43.2293 37.1347 32.6588 37.0666C31.2925 37.0666 28.7757 36.5903 27.4814 36.9986C26.187 37.4068 24.605 37.8151 23.2388 39.1078" stroke="black" stroke-width="2" stroke-miterlimit="10"/>
<path d="M69.7271 44.5724C70.0866 35.1444 70.0866 25.7878 69.5833 16.3598L69.7271 15.9312C70.3742 15.4313 71.381 15.4313 72.2439 15.4313C77.1336 15.3598 86.0715 14.5028 86.9132 15.217C87.7549 15.9312 83.174 19.1453 81.1605 20.8595C81.0886 20.9309 80.9448 21.0024 80.9448 21.1452C80.9448 21.2881 81.0167 21.3595 81.0886 21.4309C82.5268 22.8594 84.9717 23.2879 85.9784 25.0735C86.0503 25.145 86.0503 25.2878 86.0503 25.3592C85.9784 25.5735 85.6908 25.6449 85.475 25.6449C80.2976 25.8592 75.1202 26.1449 69.8709 26.3592" stroke="black" stroke-width="2" stroke-miterlimit="10"/>
<path fill-rule="evenodd" clip-rule="evenodd" d="M6.94939 53.0448C5.9911 53.9562 5.39551 55.2438 5.39551 56.6676L5.39551 74.4028C5.39551 75.5223 5.76344 76.5559 6.38499 77.3892C6.45602 77.2242 6.57241 77.0762 6.73056 76.9657C11.5806 73.5769 18.5667 67.9335 22.7311 63.6306C17.5902 60.6646 10.9038 56.4003 6.94939 53.0448ZM8.75357 51.9452C9.22694 51.7813 9.73304 51.6865 10.26 51.673C15.6906 51.5337 24.0025 51.33 26.1659 51.3301C29.4531 51.3301 41.0815 51.8003 41.0815 51.8003L41.0815 79.4028L10.3955 79.4028C9.43656 79.4028 8.54066 79.1328 7.77967 78.6648C7.81251 78.6469 7.8447 78.6271 7.87606 78.6052C12.9266 75.0763 20.2858 69.1237 24.5256 64.6484C24.8393 64.8231 25.1439 64.9909 25.438 65.151C25.9189 65.4238 26.762 65.8858 27.701 65.7692L27.7096 65.7681L27.7182 65.7669C28.495 65.6567 29.1005 65.2294 29.4898 64.9204C29.763 64.7083 30.1446 64.4358 30.6113 64.1132L39.0262 74.4775C39.3743 74.9062 40.0041 74.9716 40.4329 74.6235C40.8616 74.2754 40.927 73.6456 40.5789 73.2168L32.2719 62.9855L32.7596 62.6575L32.7597 62.6574L32.7598 62.6574C33.1675 62.3833 33.5972 62.0944 34.043 61.7933C36.0657 60.4271 38.3749 58.8384 40.275 57.3504C40.7098 57.0099 40.7862 56.3813 40.4457 55.9465C40.1052 55.5117 39.4766 55.4353 39.0418 55.7758C37.2027 57.2161 34.9457 58.7701 32.9235 60.1359C32.5031 60.4199 32.0907 60.6971 31.6935 60.9641L31.6892 60.9669C30.207 61.9632 28.9377 62.8164 28.2584 63.3445L28.25 63.3511C27.9246 63.6097 27.6713 63.7507 27.4465 63.7854C27.2402 63.8074 26.9379 63.7025 26.4175 63.4072L26.4097 63.4028L26.4019 63.3985C21.3907 60.6712 13.3924 55.7481 8.75357 51.9452Z" fill="black"/>
<path d="M60.6745 37.2137C63.0475 36.9415 77.6774 37.6219 83.2862 39.391C84.9401 39.9353 86.6659 41.228 87.4569 42.6569C88.3198 44.2218 91.4623 48.6953 90.8366 63.3411C90.4748 71.8112 87.9603 77.6296 87.4569 78.1739C87.0255 78.6502 85.5873 78.6502 84.9401 78.6502C69.7674 78.5821 41.1873 79.0584 40.7558 78.5821C40.4682 78.2419 40.4682 77.8337 40.4682 77.4254C40.4682 71.3018 40.5401 69.3286 40.5401 63.205C40.5401 58.9185 40.5401 54.5639 39.9649 50.3454C39.3896 46.1269 38.0233 41.7043 34.5717 38.9827C31.1201 36.2611 24.0012 36.2611 21.772 40.8878C21.772 40.8878 20.3899 44.0388 20.1181 46.8754C19.9059 49.09 19.4814 53.5193 19.4814 53.5193" stroke="black" stroke-width="2" stroke-miterlimit="10"/>
</svg>
