<svg width="100" height="100" viewBox="0 0 100 100" fill="none" xmlns="http://www.w3.org/2000/svg">
<path d="M28.9766 70.9744C21.4368 70.6975 21.5159 66.6235 20.8149 64.7539C20.3299 62.8373 21.488 70.7835 75.0138 66.3442C77.0822 66.1727 79.3092 58.6479 79.244 61.5093C78.9902 65.3961 78.069 71.1481 75.0143 71.1481C73.4797 71.1481 64.6047 71.9672 55.2345 72.0145C45.9521 72.0615 34.148 71.1643 28.9766 70.9744Z" fill="black"/>
<path d="M28.0126 28.6017C22.3472 28.9279 20.9309 33.088 20.9309 35.1272V59.5981C20.9309 61.6373 20.9309 66.1237 25.7869 66.9394C30.6429 67.7551 71.5144 67.3472 74.1447 66.9394C76.7751 66.5315 77.9891 64.6962 78.1914 62.2491C78.3938 59.802 78.7984 40.4293 78.5961 37.1665C78.3938 33.9037 78.5961 31.4566 76.7751 29.6213C74.9541 27.786 59.172 27.9899 49.8647 27.9899C40.5573 27.9899 35.0943 28.1938 28.0126 28.6017Z" stroke="black" stroke-width="2" stroke-miterlimit="10"/>
<path d="M22.3948 64.4741C29.0467 58.6579 39.5725 48.5858 41.0075 46.4382" stroke="black" stroke-width="2" stroke-miterlimit="10"/>
<path d="M23.4412 30.285C31.253 37.8349 47.4346 52.3113 49.907 52.3113C54.5536 52.3113 72.7363 35.6877 76.9789 29.6616" stroke="black" stroke-width="2" stroke-miterlimit="10"/>
<path d="M58.156 47.2771C63.6026 52.6671 74.9922 63.8203 76.9778 65.3129" stroke="black" stroke-width="2" stroke-miterlimit="10"/>
</svg>
