<svg width="100" height="100" viewBox="0 0 100 100" fill="none" xmlns="http://www.w3.org/2000/svg">
<path d="M22.839 70.4208C25.939 71.2317 37.5012 70.3424 37.5012 70.3424" stroke="black" stroke-width="2"/>
<path d="M25.7763 43.1809C20.1259 40.7042 18.2851 44.827 16.8015 47.2504C15.7449 48.9765 13.5278 54.8727 15.8467 62.2794C18.7453 71.5378 24.4947 71.9956 28.1196 68.2293C33.6901 62.4413 32.8393 46.2768 25.7763 43.1809Z" stroke="black" stroke-width="2"/>
<path d="M21.9395 42.4538C32.214 42.1201 55.0357 41.6072 60.5014 41.4674C66.8397 41.3053 70.533 42.4972 73.5087 47.2725C76.4844 52.0479 75.9154 58.5425 78.4746 67.5466C80.4731 74.5777 86.348 77.6927 85.3372 78.1529C84.3265 78.6131 42.6403 80.1629 41.8965 79.5638C38.6975 76.9871 37.6102 67.3069 37.0252 63.421C36.1091 57.3346 35.7339 49.8582 32.1258 46.4096C28.1152 42.5765 23.3592 42.407 22.7615 42.4264" stroke="black" stroke-width="2"/>
<path d="M20.172 62.0202C18.899 58.4026 18.1741 52.6586 19.8566 49.6471C24.9437 43.2229 28.1768 53.8304 27.4024 59.6328C26.628 65.4353 21.7632 66.542 20.172 62.0202Z" stroke="black" stroke-width="2"/>
<path d="M22.6556 58.0557C22.3099 57.0733 22.217 54.8291 22.5592 54.295C23.9407 52.5503 24.2239 55.706 24.0136 57.2818C23.8033 58.8576 23.0877 59.2838 22.6556 58.0557Z" stroke="black" stroke-width="2"/>
<path d="M44.3868 68.027C43.5447 56.9616 42.3245 53.9686 40.1445 48.8384C38.7331 45.517 64.8417 46.7329 65.8359 47.2437C66.83 47.7545 70.1635 53.4031 70.2171 58.3979C70.2707 63.3927 75.257 72.0982 75.6177 73.1727C75.9785 74.2472 48.1314 74.6479 47.1549 74.6797C46.1783 74.7114 44.5765 70.5192 44.3868 68.027Z" stroke="black" stroke-width="2"/>
<path d="M29.1969 66.9502C29.0336 67.1656 26.8937 69.0674 25.8442 69.9914L27.7646 70.7866L37.9435 70.5262L37.2218 65.0033L36.2323 57.2706L34.5086 49.7151L31.6216 46.2002L29.3903 45.6239L30.6464 49.3388L31.8496 55.1133L31.4827 61.403C30.7888 63.1624 29.3603 66.7349 29.1969 66.9502Z" fill="black"/>
<path d="M45.2235 69.3347C48.296 68.9344 54.9877 68.1199 57.1739 68.0639C59.9066 67.994 67.3129 68.2872 68.265 67.7802C69.0267 67.3747 71.5828 67.5345 72.7657 67.6651" stroke="black" stroke-width="2"/>
<path d="M50.6728 64.2728C50.7504 64.3419 50.8346 64.416 50.9243 64.4941M50.9243 64.4941C52.1243 65.5388 54.5018 67.6349 55.3674 67.765C56.2978 67.9048 61.4801 67.5632 64.0467 67.543C64.849 66.0458 66.2894 63.0283 65.6328 62.936C64.812 62.8207 48.801 62.7803 50.9243 64.4941Z" stroke="black" stroke-width="2"/>
<path d="M52.5116 59.9824C51.5069 60.0081 55.3768 55.4635 56.8364 53.904C56.8102 52.8823 63.7338 58.014 63.6901 58.9694C63.6464 59.9248 55.4358 59.9076 52.5116 59.9824Z" stroke="black" stroke-width="2"/>
<path d="M58.166 59.6084L58.6837 62.5768" stroke="black" stroke-width="2"/>
<path d="M56.7793 52.2617L56.961 53.2988" stroke="black" stroke-width="2" stroke-linecap="round"/>
<path d="M44.9946 50.3667C43.1937 51.2639 42.4768 52.9463 43.825 55.1549C45.1733 57.3634 49.4302 56.3709 50.2577 54.1746C51.0851 51.9783 48.0142 48.8623 44.9946 50.3667Z" stroke="black" stroke-width="2" stroke-linecap="round"/>
<path d="M58.5184 68.2526L44.9062 69.4728L47.144 74.1504L71.985 73.515L75.2096 72.9341L72.643 67.5798L66.6742 68.044L58.5184 68.2526Z" fill="black"/>
<path d="M48.9214 32.5173C51.3081 33.4408 69.9745 24.6503 76.5245 20.0541C78.0767 18.965 55.1966 23.7717 48.5459 26.2443C45.084 27.5314 45.9379 31.363 48.9214 32.5173Z" stroke="black" stroke-width="2"/>
<path d="M52.2178 28.5256L50.3251 29.0928" stroke="black" stroke-width="2" stroke-linecap="round"/>
<path d="M51.2393 29.3838C50.878 30.7455 52.6097 33.1058 55.384 33.0349C58.2298 32.9621 59.9501 33.339 60.7871 35.9123" stroke="black" stroke-width="2" stroke-linecap="round"/>
<path d="M49.1085 25.6512C48.2902 24.8004 45.1294 22.2576 42.658 24.6233C39.9942 27.1732 43.2728 28.0887 39.6422 32.5125C37.4893 35.1359 32.0892 33.063 29.1433 36.1343C24.9419 40.5145 36.2945 38.0115 40.0568 48.5039" stroke="black" stroke-width="2" stroke-linecap="round"/>
</svg>
