<svg width="100" height="100" viewBox="0 0 100 100" fill="none" xmlns="http://www.w3.org/2000/svg">
<path d="M72.2951 80.6076C68.3057 81.0731 59.2715 80.4766 50.1316 80.6076C40.8455 80.7421 31.802 80.6076 28.0783 80.6076C27.9038 79.4122 28.3737 77.4215 30.8847 75.0905C35.4546 70.8484 41.5889 70.671 44.8319 70.671C45.8685 71.2068 45.9088 72.4012 47.7106 74.3587C49.0623 75.8468 49.9544 75.7196 50.5638 76.7451C51.051 75.6943 51.7038 75.9025 52.7645 74.3587C54.1794 72.327 55.4416 71.0581 56.4499 70.3951C60.1453 69.5246 64.509 70.8141 65.3995 71.3533C67.2554 72.5099 69.5336 73.3367 70.2892 74.3587C70.4788 76.1935 72.1074 78.8528 72.2951 80.6076Z" fill="black"/>
<path d="M45.9091 65.551L45.4399 70.4622L51.0718 76.6434L56.9904 70.1956L56.2899 65.3113" stroke="black" stroke-width="2" stroke-miterlimit="10" stroke-linecap="round"/>
<path d="M45.4403 70.4623C45.4403 70.4623 36.7166 70.979 34.6247 72.2153C32.5327 73.4516 29.1333 75.9745 28.8338 79.9099" stroke="black" stroke-width="2" stroke-miterlimit="10" stroke-linecap="round"/>
<path d="M57.3564 70.1865C57.3564 70.1865 61.0865 70.2022 64.5379 71.0647C67.9893 71.9272 70.7536 73.0656 71.7285 75.9521C72.5914 79.9769 72.8068 80.5085 72.8068 80.5085" stroke="black" stroke-width="2" stroke-miterlimit="10" stroke-linecap="round"/>
<path d="M62.6892 41.9981C61.9073 39.8629 55.369 35.5589 50.6798 35.2216C46.0654 34.9569 40.6665 38.0042 38.7841 42.55C37.0091 44.8184 38.5331 50.5004 38.5331 50.5004L41.2362 50.3638C41.1749 47.7664 41.1626 48.6035 41.0293 46.3591C41.0293 46.3591 40.9345 45.4846 43.7125 45.4204C45.3939 45.3816 47.3065 43.302 48.8164 43.302C49.7895 44.2448 55.8898 46.4884 58.5315 43.7545C61.175 41.0947 58.8917 42.0775 59.7309 43.5431C60.4952 44.9362 60.6534 45.609 60.7323 48.9484C60.7358 49.0968 60.741 49.3195 60.7445 49.4679L63.4477 49.3312C64.1103 46.4202 63.4729 44.2074 62.6892 41.9981Z" fill="black"/>
<path d="M38.1674 50.5091C38.1674 50.5091 36.6417 44.7529 38.4184 42.5587C40.1934 40.2902 41.9784 35.3486 50.3889 35.3029C56.7525 35.3045 61.6147 39.8699 62.3984 42.0793C63.182 44.2887 63.7464 46.5032 63.0837 49.4142" stroke="black" stroke-width="2" stroke-miterlimit="10" stroke-linecap="round"/>
<path d="M60.6702 49.4701C62.3534 49.5055 63.7792 51.0318 63.9657 52.7352C64.2359 54.8822 62.6837 57.294 60.4888 57.2704" stroke="black" stroke-width="2" stroke-miterlimit="10" stroke-linecap="round"/>
<path d="M40.9712 54.6758C40.9712 54.6758 40.9746 47.215 40.9711 47.0666C41.1833 46.1082 48.8314 42.2913 53.2727 44.7285C57.714 47.1656 58.8371 41.7919 59.3392 42.6689C60.1036 44.062 60.2884 45.6912 60.3673 49.0306C60.4462 52.37 60.4958 57.5662 60.4958 57.5662C60.4958 57.5662 60.1349 63.96 55.0579 65.785C49.9809 67.6099 45.1976 66.3838 42.9899 62.7223C42.532 61.9162 41.994 60.8149 41.67 59.4859C41.0396 57.5699 40.9261 55.8648 40.9712 54.6758Z" stroke="black" stroke-width="2" stroke-miterlimit="10" stroke-linecap="round"/>
<path d="M40.4202 49.936C38.7406 50.049 37.3884 51.6395 37.2825 53.3497C37.114 55.5068 38.7785 57.8443 40.9698 57.7195" stroke="black" stroke-width="2" stroke-miterlimit="10" stroke-linecap="round"/>
<path d="M21.9874 30.5641C19.8913 29.2222 18.6513 27.7098 16.5977 26.2222C17.4191 25.3297 81.5511 24.5132 82.2357 24.8851C82.9202 25.257 76.6778 30.7659 75.9831 30.7659C73.0913 30.7659 24.2988 32.0438 21.9874 30.5641Z" stroke="black" stroke-width="2" stroke-miterlimit="10" stroke-linecap="round"/>
<path d="M22.0464 79.6332C21.6977 81.676 19.5899 82.6293 16.8294 85.5625C15.9926 84.7454 15.7374 27.3434 16.0861 26.6625C16.4348 25.9815 20.667 29.0159 21.5437 30.4722C22.8639 32.665 22.395 77.5905 22.0464 79.6332Z" stroke="black" stroke-width="2" stroke-miterlimit="10" stroke-linecap="round"/>
<path d="M77.0538 30.7806C77.447 28.7327 79.8742 27.6542 82.976 25.3613C83.9195 26.1805 84.3061 85.5671 83.913 86.2498C83.5198 86.9324 78.1194 80.7587 77.7852 79.8304C76.8023 77.0999 76.6607 32.8285 77.0538 30.7806Z" stroke="black" stroke-width="2" stroke-miterlimit="10" stroke-linecap="round"/>
<path d="M77.5042 80.657C78.8134 80.657 81.4152 85.4833 83.457 86.9088C82.6403 87.7642 17.929 86.6098 17.2484 86.2534C16.5678 85.897 21.2903 80.9393 23.4683 80.2265C26.1908 79.3356 75.4315 80.657 77.5042 80.657Z" stroke="black" stroke-width="2" stroke-miterlimit="10" stroke-linecap="round"/>
<path d="M34.0029 24.8079L49.1553 12.7549L64.3072 24.8079" stroke="black" stroke-width="2" stroke-miterlimit="10" stroke-linecap="round"/>
<circle cx="48.5" cy="13.5" r="2.5" fill="black"/>
</svg>
