<svg width="100" height="100" viewBox="0 0 100 100" fill="none" xmlns="http://www.w3.org/2000/svg">
<path d="M26.7692 43.476L64.0841 25.588C65.5311 24.894 67.9161 24.801 69.4121 25.38L79.4441 29.866C82.9341 31.402 82.1031 33.575 80.6631 34.281C80.6631 34.281 66.8831 40.222 56.6701 45.015C46.4581 49.809 39.8111 53.455 39.8111 53.455C38.3711 54.161 33.8181 51.231 32.4831 50.341L26.5662 46.342C25.2322 45.452 25.3222 44.169 26.7692 43.476Z" stroke="black" stroke-width="2" stroke-miterlimit="10" stroke-linecap="round" stroke-linejoin="round"/>
<path d="M25.8401 44.3026L16.5091 60.4776C15.1321 62.7466 16.7521 63.4186 18.9351 64.9296L29.9101 72.5266C32.0921 74.0376 34.6211 74.8836 36.9631 73.6346L71.6531 55.7216C73.9961 54.4736 83.6301 49.6156 83.1271 45.2336L81.9741 32.2266" stroke="black" stroke-width="2" stroke-miterlimit="10" stroke-linecap="round" stroke-linejoin="round"/>
<path d="M38.9266 53.9561C35.7976 61.1121 36.0306 68.611 34.1836 73.761" stroke="black" stroke-width="2" stroke-miterlimit="10" stroke-linecap="round" stroke-linejoin="round"/>
<path opacity="0.98909" d="M48.6729 33.0021C48.6729 33.0021 52.2428 34.4341 55.8508 36.7851C59.4598 39.1371 63.1058 42.4091 63.1058 42.4091C63.1058 42.4091 64.0898 45.4501 63.6618 49.8511C63.1458 55.1601 63.1828 60.0951 63.1828 60.0951L69.1968 56.9871C69.1968 56.9871 77.6249 53.2511 81.5349 49.0001C81.9688 48.5281 82.3478 48.0491 82.6528 47.5691C83.3938 46.4021 83.0068 44.9801 83.0068 44.9801L81.9688 32.4831C81.9688 32.4831 81.9618 31.8831 81.5078 31.3241C81.0538 30.7641 80.1519 30.2451 80.1519 30.2451L69.4328 25.3791C69.4328 25.3791 68.0859 24.9831 66.7979 25.0101C65.5089 25.0371 64.2769 25.4881 64.2769 25.4881L48.6729 33.0021Z" fill="black" stroke="black" stroke-width="2" stroke-miterlimit="10" stroke-linecap="round" stroke-linejoin="round"/>
</svg>
