<svg width="100" height="100" viewBox="0 0 100 100" fill="none" xmlns="http://www.w3.org/2000/svg">
<path d="M65.7427 23.7965C70.0318 26.83 72.3065 28.0692 75.1674 30.7321C78.0283 33.395 77.3616 36.8979 74.9628 39.4938C66.3776 48.7846 44.6605 72.9331 42.5597 74.7937C40.4588 76.6543 35.7593 79.0939 30.559 74.7937C25.3587 70.4935 21.6716 66.7102 21.6716 66.7102C21.6716 66.7102 16.2793 62.4955 20.4648 58.1632C23.6819 54.8332 41.8986 35.4565 50.4057 26.2788C55.5756 20.7015 61.4536 20.763 65.7427 23.7965Z" stroke="black" stroke-width="2"/>
<path d="M18.8892 61.3195C18.8892 61.3195 17.5704 69.0373 19.8822 71.2264C22.1941 73.4155 29.9005 80.3978 32.0584 81.794C35.4586 83.9941 40.12 83.1699 43.759 80.2939C47.398 77.4179 74.5731 47.126 76.2085 44.5416C77.7994 42.0277 77.2197 37.6614 77.0632 35.2158" stroke="black" stroke-width="2"/>
<path d="M39.5538 56.2856C36.346 54.4284 32.5858 54.7676 30.0572 57.3406C24.5701 64.1995 32.1564 69.871 37.3132 67.8449C44.0876 65.1833 43.5636 58.6072 39.5538 56.2856Z" stroke="black" stroke-width="2"/>
<path d="M52.4669 43.135C49.2591 41.2777 45.4989 41.6169 42.9703 44.19C37.4832 51.0489 45.0695 56.7204 50.2263 54.6943C57.0007 52.0327 56.4767 45.4566 52.4669 43.135Z" stroke="black" stroke-width="2"/>
<path d="M65.4083 29.8157C62.2005 27.9584 58.4403 28.2976 55.9117 30.8706C50.4246 37.7295 58.0109 43.401 63.1677 41.375C69.9421 38.7134 69.4181 32.1372 65.4083 29.8157Z" stroke="black" stroke-width="2"/>
<ellipse cx="32.6515" cy="59.867" rx="1.5011" ry="1.4222" fill="black"/>
<ellipse cx="37.6818" cy="63.4801" rx="1.5011" ry="1.4222" fill="black"/>
<ellipse cx="45.6993" cy="46.7804" rx="1.5011" ry="1.4222" fill="black"/>
<ellipse cx="50.7296" cy="50.3934" rx="1.5011" ry="1.4222" fill="black"/>
<ellipse cx="58.6661" cy="33.4095" rx="1.5011" ry="1.4222" fill="black"/>
<ellipse cx="63.6964" cy="37.0225" rx="1.5011" ry="1.4222" fill="black"/>
<path d="M30.5137 66.5637L31.3795 65.5796" stroke="black" stroke-width="2" stroke-linecap="round"/>
<path d="M39.1826 57.1361L39.8475 56.5774" stroke="black" stroke-width="2" stroke-linecap="round"/>
<path d="M43.5479 53.5801L44.4136 52.5959" stroke="black" stroke-width="2" stroke-linecap="round"/>
<path d="M52.2167 44.1527L52.8815 43.594" stroke="black" stroke-width="2" stroke-linecap="round"/>
<path d="M56.5137 40.2087L57.3795 39.2246" stroke="black" stroke-width="2" stroke-linecap="round"/>
<path d="M65.1825 30.7814L65.8474 30.2227" stroke="black" stroke-width="2" stroke-linecap="round"/>
<path d="M70.3926 26.9485C74.0275 25.7123 78.4557 28.0375 80.4437 30.4099C83.7885 34.4013 86.3307 41.486 79.3617 49.3507C69.3105 60.6937 83.3205 60.2848 71.6325 70.7475" stroke="black" stroke-width="2" stroke-linecap="round"/>
<path d="M58.1922 74.4999C58.9438 69.9778 68.3876 74.3634 68.3862 80.0455C68.385 85.2231 57.0729 81.2331 58.1922 74.4999Z" stroke="black" stroke-width="2" stroke-linecap="round"/>
<path d="M58.5898 73.4658C60.0021 71.5242 62.5546 70.4483 65.5033 69.7772C69.1261 68.9527 70.5587 70.0714 71.7178 72.0041C73.5433 75.0482 70.813 79.467 67.5917 81.8498" stroke="black" stroke-width="2" stroke-linecap="round"/>
<path d="M60.983 76.7646L57.5947 79.9809" stroke="black" stroke-width="2" stroke-linecap="round"/>
<path d="M64.9251 79.6394L61.5763 83.0458" stroke="black" stroke-width="2" stroke-linecap="round"/>
<path d="M65.5398 69.5029C63.6117 70.4997 59.7261 72.5323 59.6084 72.6892L63.1353 73.4216L67.6362 77.04L67.9451 81.6292L70.1478 78.9638L72.3046 74.8461L71.6184 71.8068L69.4615 69.5029H65.5398Z" fill="black"/>
<path d="M31.152 75.2603L19.0765 64.3765L18.8779 70.2552L28.133 78.5173L33.3763 82.6086L37.8251 83.1647L45.8488 78.5173L69.4832 52.4203L76.6728 44.476L77.1494 39.3916L76.4344 38.041L70.6748 44.1979L44.0217 73.4727L38.8976 76.9285H35.1638L31.152 75.2603Z" fill="black"/>
<path d="M71.1069 25.6495C70.7775 25.5944 69.7148 25.786 69.3486 26.1522L73.1928 28.8295C73.5017 28.5091 74.1058 27.8341 74.0509 27.6968C73.9823 27.5251 71.5187 25.7182 71.1069 25.6495Z" stroke="black" stroke-width="2"/>
</svg>
