<svg width="100" height="100" viewBox="0 0 100 100" fill="none" xmlns="http://www.w3.org/2000/svg">
<path d="M36.5207 42.7389C37.1862 42.1772 36.4256 18.582 37.1925 18.0909C37.9595 17.5997 61.7022 17.2195 61.7022 18.0909C61.7022 18.9623 61.6071 41.987 62.3802 42.7389C63.1534 43.4907 81.7807 56.8077 82.8884 58.8018C84.2732 61.2943 83.9962 69.0651 82.8884 69.0651C81.7807 69.0651 17.5294 69.619 16.6987 69.0651C15.8679 68.5112 16.1448 59.9095 16.6987 58.8018C17.1418 57.9155 35.8551 43.3006 36.5207 42.7389Z" stroke="black" stroke-width="2"/>
<path d="M16.959 59.1629C38.0871 58.9386 80.8593 58.6245 82.9235 59.1629" stroke="black" stroke-width="2"/>
<path d="M36.7861 42.7373H62.2929" stroke="black" stroke-width="2"/>
<path d="M37.021 18.3189C37.5526 17.718 39.3457 16.2015 39.845 16.0907C40.469 15.952 58.8738 16.0907 59.2898 16.0907C59.6226 16.0907 61.1905 17.3849 61.6297 18.032" stroke="black" stroke-width="2"/>
<path d="M58.7841 74.7694C59.5215 75.9082 61.1688 76.9089 60.5816 78.6703C59.8477 80.8721 57.3197 80.709 59.5215 83.9709" stroke="black" stroke-width="2" stroke-linecap="round"/>
<path d="M49.683 74.7694C50.4204 75.9082 52.0677 76.9089 51.4806 78.6703C50.7466 80.8721 48.2186 80.709 50.4204 83.9709" stroke="black" stroke-width="2" stroke-linecap="round"/>
<path d="M40.8817 74.7694C41.6192 75.9082 43.2664 76.9089 42.6793 78.6703C41.9453 80.8721 39.4174 80.709 41.6192 83.9709" stroke="black" stroke-width="2" stroke-linecap="round"/>
<path d="M36.4252 63.9552C35.2846 64.6967 36.0899 65.735 37.1044 65.5145C38.3725 65.2388 37.5658 63.2137 36.4252 63.9552Z" fill="black" stroke="black" stroke-width="2"/>
<path d="M61.9327 65.4782C63.2912 65.4064 63.113 64.1045 62.1241 63.7882C60.8881 63.3929 60.5742 65.55 61.9327 65.4782Z" fill="black" stroke="black" stroke-width="2"/>
<path d="M49.6192 65.4782C50.9777 65.4064 50.7995 64.1045 49.8107 63.7882C48.5746 63.3929 48.2607 65.55 49.6192 65.4782Z" fill="black" stroke="black" stroke-width="2"/>
<path d="M43.288 63.8934C41.9571 63.6111 41.7923 64.9148 42.6656 65.4762C43.7573 66.178 44.6188 64.1756 43.288 63.8934Z" fill="black" stroke="black" stroke-width="2"/>
<path d="M16.6611 58.8588C16.6611 58.8588 22.2865 49.9067 22.8455 48.9422C23.4046 47.9777 36.4438 39.455 36.4438 39.455" stroke="black" stroke-width="2" stroke-linecap="round"/>
<path d="M82.9238 58.8588C82.9238 58.8588 77.2985 49.9067 76.7394 48.9422C76.1804 47.9777 62.2864 39.2126 62.2864 39.2126" stroke="black" stroke-width="2" stroke-linecap="round"/>
<path d="M76.8636 48.8603L62.2927 39.3843V42.8037L81.127 56.7617L76.8636 48.8603Z" fill="black"/>
<path d="M23.2111 48.2749L36.5956 39.3844V42.8038L19.1079 56.1883L23.2111 48.2749Z" fill="black"/>
</svg>
