<svg width="100" height="100" viewBox="0 0 100 100" fill="none" xmlns="http://www.w3.org/2000/svg">
<path d="M37.1106 82.4071C37.1106 83.9902 36.2 85.6745 33.7776 85.6745C31.3552 85.6745 30.4446 83.9902 30.4446 82.4071C30.4446 78.7229 33.5851 75.297 33.7776 75.2866C33.9701 75.2763 37.1106 78.2823 37.1106 82.4071Z" stroke="black" stroke-width="2" stroke-linecap="round"/>
<path d="M33.7776 85.6745C36.2931 84.9058 36.0968 83.3481 36.0968 81.765C36.0968 77.6402 33.97 75.2763 33.7776 75.2867" stroke="black" stroke-width="2" stroke-linecap="round"/>
<path d="M62.6993 25.2956C63.8619 26.051 66.0264 27.8802 65.383 29.154C64.4686 30.931 63.6409 33.5558 61.9975 34.8185C60.3542 36.0811 46.4041 28.0326 47.2938 26.3293C48.1835 24.626 49.4257 22.2468 50.5069 20.5661C51.307 19.1802 53.9924 20.2687 55.2351 20.9861" stroke="black" stroke-width="2" stroke-linecap="round"/>
<path d="M50.4651 29.8213L35.1411 56.3632C34.4331 57.5894 33.9643 58.9389 33.7596 60.3399L33.6395 61.1612C33.5141 62.0196 33.2269 62.8464 32.7931 63.5977L32.0164 64.9429C31.35 66.0973 31.7455 67.5733 32.8998 68.2398V68.2398C34.0542 68.9062 35.5302 68.5107 36.1967 67.3564L36.9733 66.0111C37.4071 65.2598 37.9795 64.5977 38.6601 64.0599L39.3114 63.5452C40.4224 62.6674 41.3566 61.5867 42.0646 60.3605L57.3886 33.8186" stroke="black" stroke-width="2" stroke-linecap="round"/>
<path d="M34.6223 57.6074L38.553 59.8768" stroke="black" stroke-width="2" stroke-linecap="round"/>
<path d="M37.1106 53.0557L39.5215 54.4476" stroke="black" stroke-width="2" stroke-linecap="round"/>
<path d="M40.0498 48.207L43.9805 50.4764" stroke="black" stroke-width="2" stroke-linecap="round"/>
<path d="M42.7793 43.2373L45.1902 44.6292" stroke="black" stroke-width="2" stroke-linecap="round"/>
<path d="M45.718 38.3887L49.6487 40.6581" stroke="black" stroke-width="2" stroke-linecap="round"/>
<path d="M54.7641 21.7295C58.8716 17.7891 57.5712 15.1042 59.5431 11.865C61.515 8.6259 64.4841 9.83111 66.1316 10.6805C67.691 11.6826 70.2193 13.6513 68.4 16.9786C66.5808 20.3058 63.6055 20.5222 62.2467 26.0496" stroke="black" stroke-width="2" stroke-linecap="round"/>
<path d="M66.1316 10.6807C67.6909 11.6827 69.1202 13.2176 67.301 16.5449C65.4817 19.8721 63.6054 20.5224 62.2467 26.0498" stroke="black" stroke-width="2" stroke-linecap="round"/>
<path d="M65.31 28.0809C64.9708 28.6683 61.7432 27.4398 57.7777 25.1503C53.8122 22.8608 51.0149 20.6109 51.354 20.0234" stroke="black" stroke-width="2" stroke-linecap="round"/>
<path d="M64.3115 28.3379C63.876 30.7397 61.8008 34.2474 60.6697 34.6458" stroke="black" stroke-width="2" stroke-linecap="round"/>
</svg>
