<svg width="100" height="100" viewBox="0 0 100 100" fill="none" xmlns="http://www.w3.org/2000/svg">
<path d="M25.3818 37.1624C30.1539 41.8912 38.041 50.4969 39.8111 51.7462C43.5158 54.3609 47.6607 52.7544 48.5778 53.3042C49.083 53.607 49.7268 54.29 51.8152 55.9133C53.9035 57.5367 56.6961 55.1468 55.1855 53.3042C53.6749 51.4615 52.3893 50.4398 52.0812 49.9264C51.6962 49.2846 53.513 44.3722 49.7908 40.7784C46.8131 37.9033 40.1232 30.7027 36.3797 27.0019" stroke="black" stroke-width="2"/>
<path d="M31.4027 22.984C33.418 22.0356 36.1625 22.1142 36.6686 25.4544C37.0893 28.231 29.3477 35.7126 26.0662 36.8907C23.4411 37.8331 22.1115 36.3297 21.859 35.5443C21.329 34.7115 21.4303 33.6525 21.9219 32.5037" stroke="black" stroke-width="2"/>
<path d="M20.7508 28.8789C20.5904 31.2183 22.5592 32.3869 23.2175 33.2972C24.6531 34.192 33.9571 26.2157 32.9423 23.9993C31.9275 21.783 30.2135 21.397 29.4017 21.4063C28.3869 21.4178 25.5905 21.2993 25.0808 21.1021C24.5711 20.905 21.1763 16.8842 19.1592 18.0236C17.1422 19.163 16.3522 21.3841 19.2292 24.1557C20.1651 25.0574 20.9395 26.1279 20.7508 28.8789Z" stroke="black" stroke-width="2"/>
<path d="M30.7129 42.4263C34.7701 42.9532 34.6583 40.7035 40.3824 43.593C44.3053 45.5732 46.4791 40.1292 50.6634 41.9816" stroke="black" stroke-width="2"/>
<path d="M35.9254 41.9566C34.592 42.1315 31.8728 42.5205 31.6631 42.6778L33.4991 45.6288L39.5977 51.5306L45.6307 53.7602H48.1881L51.7293 56.9735H54.2211C54.8332 56.2084 56.1229 54.6521 56.3852 54.5471C56.6475 54.4422 55.795 52.8422 55.3359 52.0553L52.4506 48.9076L51.7293 43.2025L49.2374 41.3008L44.7782 43.2025L41.4994 43.9238L35.9254 41.9566Z" fill="black"/>
<path d="M38.1089 29.987C43.5541 26.4905 60.4761 20.7068 72.6719 31.9644C88.3198 46.4085 80.9717 64.0523 75.4232 70.9981C72.7723 74.3165 57.196 88.9674 37.1633 76.1568C17.1306 63.3462 26.7469 44.2166 28.1789 40.6813" stroke="black" stroke-width="2"/>
<path d="M47.7416 40.3524C50.5848 38.5267 58.8107 37.9275 63.4148 42.1776C71.5849 49.7197 67.7485 58.9319 64.8513 62.5586C63.4672 64.2913 55.3341 71.9412 44.8744 65.2521C37.4197 60.4848 38.2474 51.7427 38.8758 50.3959" stroke="black" stroke-width="2"/>
<path d="M39.5092 59.7021L27.9766 66.5888" stroke="black" stroke-width="2"/>
<path d="M49.8807 67.418L47.0596 80.5273" stroke="black" stroke-width="2"/>
<path d="M63.2715 64.6475L71.8186 74.4282" stroke="black" stroke-width="2"/>
<path d="M69.0869 51.959H82.4803" stroke="black" stroke-width="2"/>
<path d="M62.9189 41.2086L70.9372 31.0752" stroke="black" stroke-width="2"/>
<path d="M53.1379 39.0945L52.6973 25.7012" stroke="black" stroke-width="2"/>
<path d="M34.757 47.0809L26.166 46.2334" stroke="black" stroke-width="2"/>
<path d="M47.2012 80.4778L50.2709 67.771L53.7687 68.4135L59.1941 66.9144L63.1204 64.5586L71.544 73.9103L69.4738 76.5516L60.3363 80.4778L51.6271 81.4772L47.2012 80.4778Z" fill="black"/>
</svg>
