<svg width="100" height="100" viewBox="0 0 100 100" fill="none" xmlns="http://www.w3.org/2000/svg">
<path d="M33.6182 35.1945C33.6182 35.1945 54.7503 30.5144 61.9243 30.0044C69.0983 29.4844 77.0902 28.8344 78.2112 29.5344C79.3332 30.2344 83.2652 39.8144 83.3862 44.7344C83.5072 49.6644 81.3842 50.7745 81.2802 54.1045C81.1772 57.4345 82.0392 58.7644 78.8882 62.7344C75.7372 66.7044 74.1242 73.4544 69.6162 74.7644C65.1072 76.0744 45.0102 74.3144 39.8102 70.7444C34.6092 67.1844 31.5522 64.1344 31.5522 64.1344C31.5522 64.1344 36.3412 55.6645 35.5042 48.4445C34.6672 41.2245 33.6182 35.1945 33.6182 35.1945Z" stroke="black" stroke-width="2" stroke-miterlimit="10" stroke-linejoin="round"/>
<path d="M39.6522 49.9346C41.0652 49.4246 42.8122 49.4846 44.3062 49.1746C47.4142 48.5346 50.4753 47.8646 53.6063 47.3346C60.6633 46.1246 67.9212 44.7146 75.1042 45.3146C77.6592 45.5246 80.4723 44.8446 82.9973 45.6046" stroke="black" stroke-width="2" stroke-miterlimit="10" stroke-linecap="round" stroke-linejoin="round"/>
<path d="M37.5752 34.585C37.5752 34.585 39.1432 44.395 39.2582 49.635C39.3722 54.875 37.6032 59.025 36.4692 61.165C35.3352 63.305 34.1492 66.095 34.1492 66.095" stroke="black" stroke-width="2" stroke-miterlimit="10" stroke-linejoin="round"/>
<path d="M36.8173 60.5947C43.0873 61.6747 49.3892 62.4247 55.6422 63.6047C60.3922 64.4947 65.3652 65.7847 70.2092 65.9747C73.5462 66.0947 75.7973 62.6046 79.0283 62.5146" stroke="black" stroke-width="2" stroke-miterlimit="10" stroke-linecap="round" stroke-linejoin="round"/>
<path d="M35.5432 63.2451C35.2392 63.3551 36.5913 63.7252 36.7873 63.8052C37.7773 64.2252 38.7822 64.6152 39.7542 65.0752C42.4782 66.3452 45.7203 67.4451 48.6383 68.2351C54.0833 69.7051 59.4873 71.2651 65.0963 71.6151C68.5163 71.8351 71.0892 70.0851 74.3352 69.9951" stroke="black" stroke-width="2" stroke-miterlimit="10" stroke-linecap="round" stroke-linejoin="round"/>
<path d="M38.9602 54.9946C41.9212 54.3146 45.8242 55.5947 48.8112 55.9047C54.7752 56.5147 60.7482 56.9747 66.7192 57.2747C68.5942 57.3647 70.4922 57.9547 72.3632 57.9047C75.6232 57.8147 78.3793 55.1547 81.2913 54.0947" stroke="black" stroke-width="2" stroke-miterlimit="10" stroke-linecap="round" stroke-linejoin="round"/>
<path d="M38.5703 39.505C41.8483 38.315 45.8273 38.1949 49.2473 37.3549C56.7593 35.4949 65.0823 33.4349 72.8463 33.9249C75.2723 34.0749 77.8663 33.475 80.2243 34.195" stroke="black" stroke-width="2" stroke-miterlimit="10" stroke-linecap="round" stroke-linejoin="round"/>
<path d="M33.8753 37.3544C33.8753 37.3544 25.2042 30.5644 20.6832 34.9744C16.1622 39.3944 15.6973 45.7345 19.8773 51.5845C21.0353 53.2045 22.5433 55.2144 24.5023 56.9244C28.7833 60.6444 31.6242 63.7245 31.6242 63.7245" stroke="black" stroke-width="2" stroke-miterlimit="10" stroke-linejoin="round"/>
<path d="M34.2542 36.035L36.9712 35.415C36.9712 35.415 38.0392 42.625 38.2132 43.335C40.5322 52.845 33.9162 65.0651 33.9162 65.0651L32.4412 63.895C32.4412 63.895 36.2382 53.795 36.1612 50.085C36.0842 46.365 34.2542 36.035 34.2542 36.035Z" fill="black" stroke="black" stroke-width="2" stroke-miterlimit="10" stroke-linecap="round" stroke-linejoin="round"/>
<path d="M73.7772 29.2249C73.7772 29.2249 64.7122 22.8709 60.7592 24.1769C56.8062 25.4829 55.4612 31.1449 55.4612 31.1449" stroke="black" stroke-width="2" stroke-miterlimit="10" stroke-linejoin="round"/>
</svg>
