<svg width="37" height="37" viewBox="0 0 37 37" fill="none" xmlns="http://www.w3.org/2000/svg">
<rect width="37" height="37" rx="4.76751" fill="#EBEBEB"/>
<path d="M16.2162 19.6628C15.9898 19.5206 15.7404 19.5802 15.5019 19.571C15.1487 19.557 14.7934 19.571 14.4399 19.5463C13.7403 19.4943 13.6595 19.4093 13.6478 18.6899C13.6382 18.115 13.6303 17.5381 13.6653 16.9649C13.6995 16.4089 13.8565 16.2828 14.4125 16.2506C15.0038 16.2163 15.6009 16.3051 16.2186 16.1821C16.3899 15.5877 16.3005 14.9912 16.3214 14.4033C16.3557 13.4215 16.4927 12.4639 16.9706 11.5879C17.6472 10.3494 18.6836 9.64746 20.105 9.59333C20.967 9.55907 21.831 9.57346 22.6936 9.58854C23.2521 9.59847 23.3507 9.69782 23.3569 10.261C23.3637 10.902 23.3569 11.5454 23.3103 12.1847C23.2551 12.9343 23.0297 13.1364 22.2979 13.0569C20.9276 12.9079 20.3075 13.4071 20.3565 14.9227C20.3685 15.2937 20.2938 15.6723 20.438 16.0635C20.9461 16.2424 21.4788 16.1348 21.9999 16.1519C22.7697 16.1769 22.9317 16.289 23.04 17.0451C23.1339 17.7035 23.1256 18.3706 23.1006 19.0321C23.0832 19.4963 22.9088 19.6563 22.4401 19.6806C22.0204 19.7022 21.5994 19.707 21.1794 19.7022C20.8207 19.6981 20.6511 19.8492 20.6586 20.2161C20.6689 20.7249 20.6586 21.2339 20.6586 21.7427C20.6586 23.2696 20.6621 24.7966 20.6586 26.3232C20.6586 27.2848 20.5367 27.4126 19.6041 27.4215C18.7857 27.4297 17.9665 27.4345 17.1484 27.4147C16.4403 27.3972 16.2865 27.241 16.2865 26.5386C16.2865 24.503 16.3036 22.4673 16.3108 20.4316C16.3128 20.1743 16.3817 19.9033 16.2162 19.6628ZM19.4328 26.7117C19.5966 26.3872 19.549 26.1395 19.5497 25.9004C19.5538 24.0189 19.5543 22.1374 19.5514 20.2558C19.5514 19.0393 19.5856 19.0057 20.8162 18.9841C22.1434 18.9608 22.2602 18.8194 22.0598 17.4736C22.0567 17.4517 22.0506 17.4301 22.0496 17.4082C22.0297 17.0245 21.8337 16.8755 21.4466 16.8827C20.9166 16.8923 20.3846 16.8638 19.8552 16.8316C19.4637 16.8076 19.254 16.5819 19.2506 16.1841C19.2461 15.675 19.2526 15.1659 19.2458 14.6572C19.2269 13.2618 20.4 12.2022 21.71 12.259C21.9019 12.2673 22.1112 12.318 22.3716 12.0439C22.3716 11.6438 22.3716 11.1395 22.3716 10.6348C22.3716 10.3515 22.2082 10.2467 21.9464 10.2494C21.2383 10.2569 20.5209 10.1925 19.8244 10.2864C18.7576 10.4299 17.9402 10.987 17.4924 12.0168C17.2067 12.675 17.0381 13.3512 17.0367 14.0724C17.0367 14.7137 17.0306 15.3568 16.9864 15.996C16.9288 16.8285 16.8 16.9169 15.9737 16.9382C15.431 16.9522 14.8774 16.8488 14.3073 17.0269C14.2977 17.6436 14.2045 18.2318 14.369 18.8279C14.9408 18.9543 15.4951 18.8964 16.0422 18.9232C16.9648 18.967 17.0388 19.0167 17.0313 19.9122C17.0224 20.9743 16.9895 22.0363 16.9775 23.0983C16.9658 24.1165 16.9692 25.1347 16.9624 26.1529C16.96 26.4653 16.9967 26.7456 17.3975 26.7583C18.0786 26.7788 18.7624 26.8264 19.4328 26.7117Z" fill="#212121"/>
</svg>
