<svg width="100" height="100" viewBox="0 0 100 100" fill="none" xmlns="http://www.w3.org/2000/svg">
<path d="M60.7754 74.366C61.417 74.1521 62.914 73.8526 63.7693 74.366" stroke="black" stroke-width="2"/>
<path d="M58.3164 30.6956C61.0116 31.1448 65.2499 33.7262 66.9407 35.0305C67.9427 35.8035 68.1105 33.2152 68.1709 31.947C68.2313 30.6789 68.3654 29.5819 67.9427 28.7968C67.52 28.0118 65.0453 27.1965 65.9387 26.9615C67.9427 26.4344 66.8175 24.8196 66.9407 24.3486C67.1689 23.476 69.7234 22.8023 70.5689 24.7949C71.4143 26.7875 72.043 28.9405 72.1752 29.8367C72.5837 32.6045 72.7791 38.2306 70.0013 39.6799C67.779 40.8393 62.9159 38.8747 60.7621 37.7475" stroke="black" stroke-width="2"/>
<path d="M38.2587 63.9268C38.3416 66.2043 38.2587 69.6391 38.5844 72.5058C38.778 74.2094 39.3037 77.9596 39.1406 78.3692C38.9775 78.7788 37.3539 80.2353 36.1627 80.553C34.6738 80.95 33.6435 83.1038 34.5749 83.4812C38.5845 85.1059 39.1406 83.2892 41.0195 82.3138C42.934 81.32 43.3096 81.1982 43.2599 80.1559C43.2103 79.1137 43.8176 74.1926 43.8176 69.8251C43.8176 66.3311 43.2599 65.0848 43.2599 63.9268" stroke="black" stroke-width="2"/>
<path d="M47.512 50.4746C45.2439 52.6326 39.96 57.3531 39.0086 59.0972C37.8194 61.2773 37.8194 63.7877 38.414 64.3162C39.0086 64.8447 42.0474 64.7126 43.3687 63.6555C44.6899 62.5985 48.5877 58.7669 49.7107 57.9081C50.6092 57.221 52.111 55.728 52.7496 55.0674" stroke="black" stroke-width="2"/>
<path d="M55.5908 56.3227C57.4185 58.5027 61.1796 63.0081 61.6025 63.5895C62.1311 64.3163 62.2632 65.5715 62.9238 65.6376C63.5844 65.7036 67.4161 65.7036 67.5482 64.1181C67.6804 62.5326 65.4342 56.713 64.179 54.4668C62.9238 52.2207 62.0282 50.9118 60.8823 49.9678" stroke="black" stroke-width="2"/>
<path d="M62.7605 66.0281C62.2753 66.9798 61.2265 69.3199 60.9129 71.0667C60.521 73.2503 60.0552 76.5582 59.9992 77.0061C59.9432 77.454 59.5304 79.5263 60.9129 79.5263C63.2312 79.5263 64.8912 79.7344 67.2667 79.5263C68.6643 79.4038 68.6668 78.7512 67.939 77.6315C67.2112 76.5118 64.0831 76.8237 63.9711 76.1519C63.8592 75.4801 67.1271 69.3873 66.9591 65.4683" stroke="black" stroke-width="2"/>
<path d="M45.7539 34.5482C46.6427 35.1329 48.5045 36.7937 48.8413 38.7585C49.2624 41.2145 48.0695 45.7757 47.9993 46.7581C47.9291 47.7406 46.9467 50.6176 48.3501 51.0387C49.7536 51.4597 52.35 52.9333 52.771 54.1262C53.192 55.3192 53.4025 56.0209 54.6656 56.0209C55.9287 56.0209 57.1217 53.9859 58.3146 52.5123C59.5075 51.0387 61.1215 50.8983 61.1917 49.9159C61.2618 48.9335 60.9812 41.1444 60.8408 39.4602C60.7005 37.7761 59.8584 31.9518 59.0865 31.1799C58.469 30.5624 57.7064 30.5951 57.4024 30.6886" stroke="black" stroke-width="2"/>
<path d="M45.7806 22.2682C46.4375 20.9039 47.5708 21.0068 48.2867 20.8804C51.939 20.8804 52.6329 24.7403 52.6329 26.4751C52.6329 27.1099 51.8243 33.2717 48.2868 30.6819C44.7493 28.092 44.9594 23.9737 45.7806 22.2682Z" stroke="black" stroke-width="2"/>
<path d="M46.0753 21.7449C47.6499 19.6919 49.3366 18.3865 51.6332 18.193C55.2217 17.8905 57.3774 22.1625 56.8294 24.9546C55.7915 30.2425 58.1962 30.4191 58.0699 30.8613C57.9436 31.3035 56.4341 33.8584 54.0337 35.3744C51.6332 36.8904 46.1384 35.1316 46.0753 34.4999C46.0121 33.8682 48.8539 31.9002 48.7276 31.1422" stroke="black" stroke-width="2"/>
<path d="M36.344 45.9401C35.7466 45.3924 35.6921 43.0087 36.8866 41.9765C38.2557 40.7942 41.4128 41.2521 41.63 42.4111C42.02 44.4916 37.0908 46.6246 36.344 45.9401Z" stroke="black" stroke-width="2"/>
<path d="M46.0895 34.2466C45.7677 35.3329 44.7414 38.2694 44.4195 39.428C44.0171 40.8762 44.1482 42.1866 43.4241 42.8705C42.8447 43.4177 41.8691 43.7727 41.668 43.8531" stroke="black" stroke-width="2"/>
<path d="M37.9414 46.2737C38.4478 46.7325 39.4221 48.1669 40.4475 48.2809C41.7293 48.4233 45.236 46.1954 45.9956 45.7681C46.6032 45.4263 48.1477 43.5368 48.844 42.6348" stroke="black" stroke-width="2"/>
<path d="M41.8613 43.9556C43.1659 45.0092 43.1599 46.9441 42.6613 47.667" stroke="black" stroke-width="2"/>
<path d="M17.8643 17.48C28.3864 24.4701 35.2389 36.4208 37.4662 41.2848" stroke="black" stroke-width="2"/>
<path d="M39.166 76.7045C40.2591 76.0867 42.4868 76.1342 43.1711 76.7044" stroke="black" stroke-width="2"/>
<path d="M66.9414 35.084L67.9288 35.9868" stroke="black" stroke-width="2" stroke-linecap="round"/>
<path d="M68.46 29.6997C69.2656 29.8224 71.0449 29.8996 71.7173 29.2271" stroke="black" stroke-width="2" stroke-linecap="round"/>
<path d="M48.1016 32.2072C49.1971 32.4744 51.1287 32.962 52.3518 32.5439C53.3368 32.2072 53.4122 31.8108 54.2539 31.0493" stroke="black" stroke-width="2" stroke-linecap="round"/>
<circle cx="17.8644" cy="17.3375" r="1.46887" fill="black"/>
<path d="M45.9514 21.6497L45.0566 26.5129L46.5739 28.7694L48.9082 30.8704H50.5423L51.3593 29.8199L52.5654 27.1354L51.3593 23.0113L48.597 21.3384L45.9514 21.6497Z" fill="black"/>
<path d="M42.922 64.4219C41.6619 64.5591 39.0444 64.8411 38.6552 64.8711L38.2061 66.4804L39.0295 76.2492L43.1466 75.9872L43.7829 69.7741L42.922 64.4219Z" fill="black"/>
<path d="M61.6809 67.9619C62.2403 67.3141 63.4033 65.9655 63.58 65.7536L66.6715 65.5327V67.9619L64.5958 74.4541L60.665 74.0124L61.6809 67.9619Z" fill="black"/>
</svg>
