<svg width="100" height="100" viewBox="0 0 100 100" fill="none" xmlns="http://www.w3.org/2000/svg">
<path d="M26.1994 21.6783C26.6794 20.2953 41.5093 29.1903 41.5093 29.1903L41.2793 79.5973C41.2793 79.5973 37.2693 77.5353 33.5093 75.0603C29.7393 72.5863 26.2194 69.6983 26.2194 69.6983C26.2194 69.6983 25.7394 22.9943 26.1994 21.6783Z" stroke="black" stroke-width="2" stroke-miterlimit="10" stroke-linecap="round" stroke-linejoin="round"/>
<path d="M29.8291 59.7715L36.5503 63.2013C36.5503 63.2013 36.9303 69.5233 36.6603 69.4223C35.7103 69.0593 29.9491 65.0985 29.9491 65.0985L29.8291 59.7715Z" fill="black" stroke="black" stroke-width="2" stroke-miterlimit="10" stroke-linecap="round" stroke-linejoin="round"/>
<path d="M41.5098 29.1816L44.8998 32.1086L54.4298 40.3106C56.7798 43.0766 58.9498 42.3356 64.2198 42.0026L74.4598 41.4206C74.4598 41.4206 75.1398 75.2646 73.6898 76.5766C72.8098 77.3666 41.6198 81.1806 41.3398 79.5426C41.0598 77.9386 41.5098 29.1816 41.5098 29.1816Z" stroke="black" stroke-width="2" stroke-miterlimit="10" stroke-linecap="round" stroke-linejoin="round"/>
<path d="M74.4391 41.3186L70.6691 38.9336L70.5791 41.1336L74.4391 41.3186Z" fill="black" stroke="black" stroke-width="2" stroke-miterlimit="10" stroke-linecap="round" stroke-linejoin="round"/>
<path d="M30.8994 23.045C30.8994 23.045 42.8494 21.322 47.4994 20.838C52.8394 20.282 58.5594 20 58.5594 20L58.3395 24.735" stroke="black" stroke-width="2" stroke-miterlimit="10" stroke-linecap="round" stroke-linejoin="round"/>
<path d="M37.4697 26.771C37.4697 26.771 47.4896 25.13 53.1196 25.051C59.7296 24.958 64.5897 23.71 64.5897 23.71L64.4796 29.707" stroke="black" stroke-width="2" stroke-miterlimit="10" stroke-linecap="round" stroke-linejoin="round"/>
<path d="M43.9492 31.2064C43.9492 31.2064 53.9992 29.8074 59.4392 30.2364C64.9692 30.6724 70.9192 29.3594 70.9192 29.3594C70.9192 29.3594 70.5592 34.8423 70.5692 41.1013" stroke="black" stroke-width="2" stroke-miterlimit="10" stroke-linecap="round" stroke-linejoin="round"/>
</svg>
