<svg width="100" height="100" viewBox="0 0 100 100" fill="none" xmlns="http://www.w3.org/2000/svg">
<path d="M46.0281 94.2639C40.5185 93.5868 32.3917 83.3833 30.5001 78.7682L32.199 79.2557L38.6843 86.3628L47.7953 79.7432C50.1533 87.6962 51.5378 94.941 46.0281 94.2639Z" fill="black"/>
<path d="M42.255 30.0425L40.1613 25.2629C40.1613 25.2629 39.2644 22.8739 40.5559 21.3606C40.5559 21.3606 42.4487 19.226 45.2395 21.0125C47.4906 22.9922 48.1679 24.3747 49.603 27.586C51.0381 30.7973 51.5651 33.6664 51.5893 34.6701C51.5893 34.6701 60.4617 27.8597 63.8977 25.579C67.3337 23.2983 73.0702 19.8563 75.862 21.3605C77.8013 22.4055 77.474 24.3161 76.234 25.8985C74.9116 27.586 73.3516 28.2978 70.463 30.759C68.9565 31.9833 59.6806 39.8059 59.6806 39.8059C59.6806 39.8059 63.0758 37.2001 64.4549 36.7218C65.8341 36.2436 70.253 37.8087 67.8179 41.3795C65.526 44.7771 61.5793 47.7571 61.5793 47.7571C61.5793 47.7571 66.7871 43.1313 68.6678 43.3214C70.9463 43.2956 72.4887 44.9131 71.6888 47.6317C71.1026 49.6999 64.3493 55.1707 66.9206 52.74C66.9206 52.74 71.4533 49.0616 73.0703 49.1067C75.6339 49.1782 75.3163 54.0818 73.6656 55.7556C71.8005 57.6469 71.5163 57.9763 69.7171 59.6091C67.9179 61.2418 63.2246 65.1263 58.9334 68.9527C56.8469 70.6808 45.9554 81.3275 45.9554 81.3275C43.7415 83.5643 40.4427 86.3225 38.952 86.2764C37.0886 86.2186 33.1584 81.6893 31.658 79.1944C30.4578 77.1984 27.796 72.8674 27.1583 69.8995C27.9131 69.1526 32.2611 65.084 33.6692 63.8252C35.0773 62.5664 37.6857 59.4256 38.185 56.7866C38.6844 54.1476 38.2194 51.9029 39.6478 46.4782C41.0762 41.0535 44.0058 35.7261 42.255 30.0425Z" stroke="black" stroke-width="2" stroke-miterlimit="10" stroke-linecap="round"/>
<path d="M60.6341 21.1035C60.6341 21.1035 62.4438 19.4767 63.6639 18.5989C64.6785 17.888 66.0978 16.9052 66.5212 16.4474" stroke="black" stroke-width="2" stroke-miterlimit="10" stroke-linecap="round"/>
<path d="M56.8873 19.0231C56.8873 19.0231 57.0707 17.705 57.2693 15.2447C57.468 12.7844 57.5636 11.8266 57.8326 10.2957" stroke="black" stroke-width="2" stroke-miterlimit="10" stroke-linecap="round"/>
<path d="M53.4235 20.8004C53.4235 20.8004 53.7655 21.1479 52.454 19.2006C50.8689 16.8502 49.7555 15.5518 48.8361 14.4599" stroke="black" stroke-width="2" stroke-miterlimit="10" stroke-linecap="round"/>
</svg>
