<svg width="100" height="100" viewBox="0 0 100 100" fill="none" xmlns="http://www.w3.org/2000/svg">
<path d="M75.006 15.16C75.006 15.16 48.019 12.6133 38.933 27.84C32.9106 42.6133 30.8559 49.565 28.7539 57.594C26.6509 65.623 19.917 82.31 24.653 83.362C29.389 84.415 31.947 75.632 34.624 68.758C37.301 61.884 40.3819 52.537 43.4699 50.945C46.5579 49.353 48.019 51.343 48.019 51.343" stroke="black" stroke-width="2" stroke-miterlimit="10" stroke-linecap="round" stroke-linejoin="round"/>
<path d="M37.9359 61.658C37.9359 61.658 44.8389 85.098 50.9499 84.091C57.0619 83.085 52.4569 75.856 51.4359 73.385C50.4279 70.948 44.2639 55.834 44.2639 55.834" stroke="black" stroke-width="2" stroke-miterlimit="10" stroke-linecap="round" stroke-linejoin="round"/>
<path d="M48.4829 65.9045C48.4829 65.9045 58.5259 60.0955 58.4479 55.2885C58.3579 49.7655 58.5589 34.7745 57.5459 30.4365" stroke="black" stroke-width="2" stroke-miterlimit="10" stroke-linecap="round" stroke-linejoin="round"/>
<path d="M58.3009 34.471C64.4959 31.322 76.5219 34.777 76.5219 34.777" stroke="black" stroke-width="2" stroke-miterlimit="10" stroke-linecap="round" stroke-linejoin="round"/>
<path d="M75.2478 15.2207C75.2478 15.2207 80.8548 58.4347 70.8518 49.2037C66.2868 44.9917 66.2778 33.1507 66.2778 33.1507C66.2778 33.1507 68.7458 33.2727 71.3788 33.6947C74.0118 34.1167 76.7758 34.7307 76.7758 34.7307C76.7758 34.7307 76.6948 30.3297 76.3118 25.4607C75.9888 21.3587 75.2478 15.2207 75.2478 15.2207Z" fill="black" stroke="black" stroke-width="2" stroke-miterlimit="10" stroke-linecap="round" stroke-linejoin="round"/>
</svg>
