<svg width="100" height="100" viewBox="0 0 100 100" fill="none" xmlns="http://www.w3.org/2000/svg">
<path d="M45.7274 69.4091C43.975 69.8494 41.9304 66.3819 41.2002 64.593C35.943 71.1979 38.8638 78.2156 42.2226 80.83C45.5814 83.4444 53.9054 85.3708 58.7246 78.6284C63.5438 71.8859 58.7246 64.5931 56.0959 61.7034C53.993 59.3917 52.9805 56.0618 52.7371 54.6858C52.9805 54.273 52.6787 54.2454 49.5243 57.4378C46.37 60.6301 45.6787 66.7488 45.7274 69.4091Z" fill="black"/>
<path d="M41.13 51.2919C37.0643 52.3377 32.3209 44.1023 30.6269 39.8538C18.43 55.5404 25.2063 72.2073 32.9987 78.4165C40.7912 84.6258 60.1029 89.201 71.2834 73.1877C82.4639 57.1744 71.2834 39.8538 65.1849 32.991C60.3062 27.5007 57.9572 19.5921 57.3925 16.3241C57.9572 15.3436 57.257 15.2783 49.9388 22.8601C42.6207 30.4419 41.017 44.9738 41.13 51.2919Z" stroke="black" stroke-width="2"/>
<path d="M45.7274 69.4091C43.975 69.8494 41.9304 66.3819 41.2002 64.593C35.943 71.1979 38.8638 78.2156 42.2226 80.83C45.5814 83.4444 53.9054 85.3708 58.7246 78.6284C63.5438 71.8859 58.7246 64.5931 56.0959 61.7034C53.993 59.3917 52.9805 56.0618 52.7371 54.6858C52.9805 54.273 52.6787 54.2454 49.5243 57.4378C46.37 60.6301 45.6787 66.7488 45.7274 69.4091Z" stroke="black" stroke-width="2"/>
</svg>
