<svg width="100" height="100" viewBox="0 0 100 100" fill="none" xmlns="http://www.w3.org/2000/svg">
<path d="M45.7391 74.8906C46.3657 74.8906 46.8736 75.228 46.8736 76.0249C46.8736 76.6513 46.3657 77.1592 45.7391 77.1592C45.2618 77.1592 44.6045 76.6513 44.6045 76.0249C44.6045 75.1764 45.1125 74.8906 45.7391 74.8906Z" fill="black"/>
<path d="M48.9757 55.6396C51.1846 59.3209 50.8088 79.5697 50.318 85.0921" stroke="black" stroke-width="2" stroke-linecap="round" stroke-linejoin="round"/>
<path d="M50.0005 83.3721C50.9505 83.3721 51.7206 83.8836 51.7206 85.0918C51.7206 86.0416 50.9505 86.8115 50.0005 86.8115C49.2768 86.8115 48.2803 86.0416 48.2803 85.0918C48.2803 83.8053 49.0504 83.3721 50.0005 83.3721Z" fill="black"/>
<path d="M73.6334 64.845C71.9155 58.0961 59.3294 50.8195 54.1754 50.942" stroke="black" stroke-width="2" stroke-linecap="round" stroke-linejoin="round"/>
<path d="M75.7744 63.1941C76.1622 63.3973 76.5115 65.8438 76.5835 66.0588C76.6556 66.2739 79.4074 67.014 79.5071 67.264C79.6067 67.5141 77.0887 68.4432 76.9514 68.7956C76.8142 69.1481 77.3888 72.0714 76.7898 72.0717C76.1907 72.072 74.8056 70.1259 74.4184 70.0648C74.0313 70.0037 71.7832 71.2359 71.3777 70.9731C70.9722 70.7102 72.4546 68.0742 72.4524 67.7264C72.4502 67.3785 70.3401 65.7671 70.7502 65.4864C71.1603 65.2057 73.415 65.5063 73.7216 65.3122C74.0281 65.1182 75.3865 62.9908 75.7744 63.1941Z" stroke="black" stroke-width="2"/>
<path d="M63.9392 78.3441C61.9758 65.4592 56.0346 56.5467 52.7213 54.0928" stroke="black" stroke-width="2" stroke-linecap="round" stroke-linejoin="round"/>
<path d="M62.4366 76.4462C62.6496 76.3496 63.7948 77.0056 63.909 77.0458C64.0232 77.0861 65.2384 76.1699 65.3764 76.21C65.5144 76.2501 65.0792 77.6158 65.1826 77.7893C65.286 77.9628 66.706 78.6805 66.5095 78.9329C66.313 79.1853 65.0385 79.1299 64.8856 79.2729C64.7328 79.416 64.5139 80.7674 64.27 80.852C64.0261 80.9365 63.4024 79.4467 63.2552 79.3334C63.108 79.2202 61.7364 79.58 61.7528 79.3151C61.7692 79.0502 62.6361 78.1991 62.655 78.0063C62.6739 77.8134 62.2237 76.5429 62.4366 76.4462Z" fill="black" stroke="black"/>
<path d="M35.6535 70.9446C36.3839 70.9446 36.976 71.3379 36.976 72.2667C36.976 72.9969 36.3839 73.5889 35.6535 73.5889C35.0972 73.5889 34.3311 72.9969 34.3311 72.2667C34.3311 71.2776 34.9232 70.9446 35.6535 70.9446Z" fill="black"/>
<path d="M43.5118 52.4756C40.8458 52.4756 36.7098 55.4355 35.5948 56.2723C32.5323 58.5725 30.848 62.0343 29.0885 66.6847" stroke="black" stroke-width="2" stroke-linecap="round" stroke-linejoin="round"/>
<path d="M26.5641 65.257C26.9995 65.3041 28.2206 67.4526 28.3664 67.6263C28.5122 67.8 31.3439 67.4808 31.5282 67.6769C31.7125 67.8731 29.7098 69.6599 29.7112 70.0381C29.7125 70.4164 31.318 72.9261 30.7607 73.1458C30.2034 73.3654 28.2016 72.062 27.819 72.1469C27.4364 72.2318 25.7959 74.2019 25.3223 74.1058C24.8487 74.0098 25.2625 71.014 25.1331 70.6911C25.0036 70.3683 22.4499 69.6417 22.7287 69.2303C23.0075 68.8189 25.2157 68.2727 25.4299 67.9799C25.644 67.6871 26.1288 65.21 26.5641 65.257Z" stroke="black" stroke-width="2"/>
<path d="M55.7031 63.4256C56.4873 63.4256 57.123 63.8479 57.123 64.8451C57.123 65.6291 56.4873 66.2646 55.7031 66.2646C55.1058 66.2646 54.2832 65.6291 54.2832 64.8451C54.2832 63.7832 54.9189 63.4256 55.7031 63.4256Z" fill="black"/>
<path d="M39.6703 62.2798C39.9372 62.1687 41.3268 63.0239 41.4664 63.0781C41.606 63.1323 43.1432 62.0474 43.3123 62.1023C43.4813 62.1572 42.8903 63.8279 43.0113 64.0463C43.1323 64.2648 44.8592 65.2068 44.6065 65.5111C44.3538 65.8154 42.7811 65.6974 42.5866 65.8681C42.3922 66.0389 42.0691 67.7004 41.7645 67.7954C41.4598 67.8904 40.7471 66.0251 40.5695 65.8794C40.392 65.7338 38.6832 66.125 38.7137 65.7983C38.7443 65.4716 39.8486 64.4536 39.8794 64.2161C39.9103 63.9786 39.4035 62.391 39.6703 62.2798Z" fill="black" stroke="black"/>
<path d="M82.1071 57.1937C82.7663 57.1937 83.3006 57.5486 83.3006 58.3869C83.3006 59.0459 82.7663 59.5801 82.1071 59.5801C81.605 59.5801 80.9136 59.0459 80.9136 58.3869C80.9136 57.4942 81.4479 57.1937 82.1071 57.1937Z" fill="black"/>
<path d="M18.1191 51.3944C18.9033 51.3944 19.539 51.8166 19.539 52.8139C19.539 53.5979 18.9033 54.2334 18.1191 54.2334C17.5218 54.2334 16.6992 53.5979 16.6992 52.8139C16.6992 51.752 17.3349 51.3944 18.1191 51.3944Z" fill="black"/>
<path d="M42.4643 47.9101C37.9239 45.4558 30.3157 45.9469 28.8431 50.9781" stroke="black" stroke-width="2" stroke-linecap="round" stroke-linejoin="round"/>
<path d="M36.4233 49.9744C37.2075 49.9744 37.8432 50.3967 37.8432 51.394C37.8432 52.1779 37.2075 52.8135 36.4233 52.8135C35.826 52.8135 35.0034 52.1779 35.0034 51.394C35.0034 50.332 35.6391 49.9744 36.4233 49.9744Z" fill="black"/>
<path d="M28.5429 49.2588C29.493 49.2588 30.2631 49.7703 30.2631 50.9785C30.2631 51.9283 29.493 52.6982 28.5429 52.6982C27.8193 52.6982 26.8228 51.9283 26.8228 50.9785C26.8228 49.692 27.5929 49.2588 28.5429 49.2588Z" fill="black"/>
<path d="M48.0955 48.0322C49.036 48.0322 50.1675 49.0185 50.1675 50.2145C50.1675 51.1548 49.4051 51.917 48.4646 51.917C47.7482 51.917 46.3926 50.675 46.3926 49.7347C46.3926 48.4611 47.155 48.0322 48.0955 48.0322Z" stroke="black" stroke-width="2"/>
<path d="M50.4594 45.7699C49.9622 40.2651 51.3796 29.6172 53.2899 25.7218" stroke="black" stroke-width="2" stroke-linecap="round" stroke-linejoin="round"/>
<path d="M53.1252 47.386C59.9972 35.8506 62.6543 35.7434 68.5446 35.8661C73.2567 35.9643 75.4983 42.6972 76.0301 46.0513" stroke="black" stroke-width="2" stroke-linecap="round" stroke-linejoin="round"/>
<path d="M76.5603 45.5229C77.4692 45.5229 78.206 46.0123 78.206 47.1682C78.206 48.0769 77.4692 48.8135 76.5603 48.8135C75.868 48.8135 74.9146 48.0769 74.9146 47.1682C74.9146 45.9373 75.6514 45.5229 76.5603 45.5229Z" fill="black"/>
<path d="M63.3844 44.7825C64.0436 44.7825 64.578 45.1374 64.578 45.9757C64.578 46.6347 64.0436 47.1689 63.3844 47.1689C62.8824 47.1689 62.1909 46.6347 62.1909 45.9757C62.1909 45.0831 62.7253 44.7825 63.3844 44.7825Z" fill="black"/>
<path d="M70.2412 41.9256C71.0254 41.9256 71.6611 42.3479 71.6611 43.3451C71.6611 44.1291 71.0254 44.7646 70.2412 44.7646C69.6439 44.7646 68.8213 44.1291 68.8213 43.3451C68.8213 42.2832 69.457 41.9256 70.2412 41.9256Z" fill="black"/>
<path d="M47.3086 44.1556C47.0377 39.2793 46.3565 36.7383 44.546 32.3257C43.5748 29.9588 40.9823 26.1819 38.7828 25.2471" stroke="black" stroke-width="2" stroke-linecap="round" stroke-linejoin="round"/>
<path d="M43.0779 43.6153C41.3824 39.4977 32.9503 38.2267 30.8117 38.7827C28.2669 39.4445 26.3562 40.6355 24.4254 43.6157" stroke="black" stroke-width="2" stroke-linecap="round" stroke-linejoin="round"/>
<path d="M24.4253 42.3545C25.3753 42.3545 26.1454 42.866 26.1454 44.0742C26.1454 45.024 25.3753 45.7939 24.4253 45.7939C23.7016 45.7939 22.7051 45.024 22.7051 44.0742C22.7051 42.7877 23.4752 42.3545 24.4253 42.3545Z" fill="black"/>
<path d="M57.1313 34.5485C57.7936 34.5485 58.3305 34.9052 58.3305 35.7474C58.3305 36.4095 57.7936 36.9463 57.1313 36.9463C56.6269 36.9463 55.9321 36.4095 55.9321 35.7474C55.9321 34.8505 56.469 34.5485 57.1313 34.5485Z" fill="black"/>
<path d="M36.4233 31.3787C37.2075 31.3787 37.8432 31.801 37.8432 32.7983C37.8432 33.5822 37.2075 34.2178 36.4233 34.2178C35.826 34.2178 35.0034 33.5822 35.0034 32.7983C35.0034 31.7363 35.6391 31.3787 36.4233 31.3787Z" fill="black"/>
<path d="M79.0492 32.5554C79.244 32.4742 80.2585 33.0985 80.3604 33.1381C80.4623 33.1777 81.5845 32.3857 81.7079 32.4258C81.8313 32.4659 81.3999 33.6855 81.4882 33.845C81.5766 34.0044 82.8372 34.6922 82.6528 34.9143C82.4683 35.1364 81.3201 35.0503 81.1782 35.1749C81.0363 35.2996 80.8004 36.5126 80.578 36.5819C80.3556 36.6512 79.8353 35.2895 79.7057 35.1832C79.576 35.0768 78.3286 35.3625 78.3509 35.124C78.3732 34.8855 79.1793 34.1423 79.2019 33.9689C79.2244 33.7955 78.8544 32.6365 79.0492 32.5554Z" fill="black" stroke="black"/>
<path d="M21.8578 31.8579C22.1247 31.7468 23.5143 32.602 23.6539 32.6562C23.7935 32.7104 25.3307 31.6255 25.4998 31.6804C25.6688 31.7354 25.0778 33.406 25.1988 33.6245C25.3198 33.8429 27.0467 34.785 26.794 35.0892C26.5413 35.3935 24.9686 35.2755 24.7741 35.4463C24.5797 35.617 24.2566 37.2786 23.952 37.3735C23.6473 37.4685 22.9346 35.6033 22.757 35.4576C22.5795 35.3119 20.8707 35.7032 20.9012 35.3765C20.9318 35.0498 22.0361 34.0318 22.0669 33.7942C22.0978 33.5567 21.591 31.9691 21.8578 31.8579Z" fill="black" stroke="black"/>
<path d="M70.2412 28.9295C71.0254 28.9295 71.6611 29.3518 71.6611 30.349C71.6611 31.133 71.0254 31.7686 70.2412 31.7686C69.6439 31.7686 68.8213 31.133 68.8213 30.349C68.8213 29.2871 69.457 28.9295 70.2412 28.9295Z" fill="black"/>
<path d="M37.574 23.2709C38.5407 23.2709 39.3243 23.7603 39.3243 24.9162C39.3243 25.8249 38.5407 26.5615 37.574 26.5615C36.8378 26.5615 35.8237 25.8249 35.8237 24.9162C35.8237 23.6854 36.6074 23.2709 37.574 23.2709Z" fill="black"/>
<path d="M54.8537 17.3386C55.295 17.5698 55.6924 20.3533 55.7743 20.598C55.8563 20.8426 58.9872 21.6847 59.1006 21.9692C59.2139 22.2537 56.3491 23.3108 56.1929 23.7118C56.0367 24.1127 56.6905 27.4388 56.009 27.4391C55.3274 27.4394 53.7514 25.2253 53.3109 25.1557C52.8705 25.0862 50.3128 26.4882 49.8514 26.1891C49.39 25.8901 51.0766 22.8909 51.0741 22.4952C51.0716 22.0994 48.6708 20.266 49.1374 19.9466C49.604 19.6273 52.1694 19.9693 52.5181 19.7485C52.8669 19.5278 54.4124 17.1074 54.8537 17.3386Z" stroke="black" stroke-width="2"/>
<path d="M60.9536 26.5623C61.7378 26.5623 62.3735 26.9846 62.3735 27.9819C62.3735 28.7658 61.7378 29.4014 60.9536 29.4014C60.3563 29.4014 59.5337 28.7658 59.5337 27.9819C59.5337 26.9199 60.1694 26.5623 60.9536 26.5623Z" fill="black"/>
<path d="M39.6703 15.0415C39.9372 14.9304 41.3268 15.7856 41.4664 15.8398C41.606 15.894 43.1432 14.8091 43.3123 14.864C43.4813 14.919 42.8903 16.5896 43.0113 16.8081C43.1323 17.0265 44.8592 17.9686 44.6065 18.2728C44.3538 18.5771 42.7811 18.4591 42.5866 18.6299C42.3922 18.8006 42.0691 20.4622 41.7645 20.5571C41.4598 20.6521 40.7471 18.7868 40.5695 18.6412C40.392 18.4955 38.6832 18.8868 38.7137 18.5601C38.7443 18.2334 39.8486 17.2154 39.8794 16.9778C39.9103 16.7403 39.4035 15.1527 39.6703 15.0415Z" fill="black" stroke="black"/>
</svg>
