<svg width="100" height="100" viewBox="0 0 100 100" fill="none" xmlns="http://www.w3.org/2000/svg">
<path d="M23.3838 43.5378C23.3838 43.5378 42.2448 72.9717 43.7858 74.7627C46.1588 77.5187 62.7108 66.7647 62.9848 62.8597C63.2268 59.4157 43.1108 30.9697 43.1108 30.9697C43.1108 30.9697 38.3288 35.6257 33.8388 38.4997C28.9558 41.6257 23.3838 43.5378 23.3838 43.5378Z" stroke="black" stroke-width="2" stroke-miterlimit="10" stroke-linejoin="round"/>
<path d="M57.672 52.832C57.672 52.832 56.84 57.915 56.085 62.326C55.329 66.737 54.873 70.84 54.873 70.84C54.873 70.84 61.7031 66.714 62.8371 63.193C63.3911 61.473 57.672 52.832 57.672 52.832Z" fill="black" stroke="black" stroke-width="2" stroke-miterlimit="10" stroke-linejoin="round"/>
<path d="M53.335 72.019C53.335 72.019 59.823 86.067 67.206 79.07C71.126 75.354 69.973 72.651 77.171 75.389C81.852 77.169 82.403 72.754 76.894 71.299C72.388 70.109 68.452 70.098 66.12 75.06C63.788 80.023 59.43 75.902 58.429 74.106C57.429 72.31 56.138 70.165 56.138 70.165L53.335 72.019Z" stroke="black" stroke-width="2" stroke-miterlimit="10" stroke-linejoin="round"/>
<path d="M60.584 80.5096C60.584 80.5096 61.304 79.4116 61.421 78.5706C61.537 77.7306 61.154 76.8096 61.154 76.8096" stroke="black" stroke-width="2" stroke-miterlimit="10" stroke-linejoin="round"/>
<path d="M65.0859 80.4178C65.0859 80.4178 65.1629 80.6399 65.1359 78.5939L64.9219 76.5479" stroke="black" stroke-width="2" stroke-miterlimit="10" stroke-linejoin="round"/>
<path d="M57.1104 77.8622C57.1104 77.8622 58.4834 77.4382 58.9964 76.8562C59.5094 76.2752 59.5224 75.4512 59.5224 75.4512" stroke="black" stroke-width="2" stroke-miterlimit="10" stroke-linejoin="round"/>
<path d="M69.0058 76.7363C69.0058 76.7363 68.9978 75.6033 68.4878 74.8943C67.9788 74.1863 66.9678 73.9023 66.9678 73.9023" stroke="black" stroke-width="2" stroke-miterlimit="10" stroke-linejoin="round"/>
<path d="M54.9404 74.6638C54.9404 74.6638 55.8494 74.6388 56.4794 74.1828C57.1094 73.7278 57.4604 72.8418 57.4604 72.8418" stroke="black" stroke-width="2" stroke-miterlimit="10" stroke-linejoin="round"/>
<path d="M75.6406 75.0135C75.6406 75.0135 76.5056 73.7416 76.6216 73.1056C76.7876 72.1926 76.3146 71.2275 76.3146 71.2275" stroke="black" stroke-width="2" stroke-miterlimit="10" stroke-linejoin="round"/>
<path d="M71.7136 74.4007C71.7136 74.4007 72.1836 73.9827 72.0566 72.6447C71.9876 71.9147 71.3076 70.7617 71.3076 70.7617" stroke="black" stroke-width="2" stroke-miterlimit="10" stroke-linejoin="round"/>
<path d="M28.0166 41.8848L27.3076 49.1498L23.7686 43.7268L28.0166 41.8848Z" fill="black" stroke="black" stroke-width="2" stroke-miterlimit="10" stroke-linejoin="round"/>
<path d="M31.9795 56.6408L36.7845 36.5858L42.9335 31.0918L35.5545 62.2208L31.9795 56.6408Z" fill="black" stroke="black" stroke-width="2" stroke-miterlimit="10" stroke-linejoin="round"/>
<path d="M48.2721 38.7148L41.1191 70.6768C41.1191 70.6768 43.3191 74.5178 44.2091 75.0168C44.8371 75.3688 46.3721 74.9069 46.3721 74.9069L52.0541 44.5919L48.2721 38.7148Z" fill="black" stroke="black" stroke-width="2" stroke-miterlimit="10" stroke-linejoin="round"/>
<path d="M20.9271 18.1155C19.4111 18.9155 18.5921 43.0845 19.2041 43.9245C19.8151 44.7645 28.8461 42.0205 33.9101 38.4205C40.8491 33.4885 46.2871 28.2775 45.3341 27.2145C44.3801 26.1515 23.2951 16.8655 20.9271 18.1155Z" stroke="black" stroke-width="2" stroke-miterlimit="10" stroke-linejoin="round"/>
<path d="M34.6143 26.5078C34.8733 26.5588 36.9083 27.4598 36.8063 27.4728" stroke="black" stroke-width="2" stroke-miterlimit="10" stroke-linecap="round" stroke-linejoin="round"/>
<path d="M25.3672 22.0195C27.0712 22.7745 28.7112 23.8655 29.1972 24.0675C29.3422 24.1275 32.0772 25.4345 31.9932 25.4185" stroke="black" stroke-width="2" stroke-miterlimit="10" stroke-linecap="round" stroke-linejoin="round"/>
</svg>
