<svg width="100" height="100" viewBox="0 0 100 100" fill="none" xmlns="http://www.w3.org/2000/svg">
<path d="M35.5688 24.497C35.5688 23.118 42.4809 22 51.0069 22C59.5339 22 66.4459 23.118 66.4459 24.497C66.4459 25.875 59.5339 26.993 51.0069 26.993C42.4809 26.993 35.5688 25.875 35.5688 24.497Z" stroke="black" stroke-width="2" stroke-miterlimit="10" stroke-linejoin="round"/>
<path d="M37.9581 23.213C37.9581 23.213 15.7651 27.813 17.0541 50.582C18.2911 72.447 35.4261 77.413 38.3221 77.552C41.2191 77.691 59.4391 77.964 62.1981 77.589C64.9571 77.213 83.8921 70.273 83.4311 48.247C82.9951 27.419 65.0321 23.466 65.0321 23.466" stroke="black" stroke-width="2" stroke-miterlimit="10" stroke-linecap="round" stroke-linejoin="round"/>
<path d="M18.8271 39.6584C18.8271 39.6584 25.5441 34.1444 33.3221 37.9554C41.1011 41.7664 43.5241 39.4654 48.6591 37.7384C55.2601 35.5174 62.5241 35.5924 69.3661 38.6384C76.2081 41.6844 78.4441 40.5564 81.8371 38.5574" stroke="black" stroke-width="2" stroke-miterlimit="10" stroke-linecap="round" stroke-linejoin="round"/>
<path d="M43.2863 53.0744C43.4733 54.9184 51.9623 60.3294 57.4823 57.5754C63.0023 54.8214 63.8713 55.7254 63.8713 55.7254C63.8713 55.7254 66.2273 59.0254 67.4843 58.8894C68.7413 58.7524 69.7123 57.1614 68.9013 55.1794C68.0893 53.1984 67.4693 53.6214 67.5433 52.3454C67.6163 51.0684 68.4433 51.4004 69.3053 49.9274C70.1663 48.4544 69.5123 46.6834 68.2053 46.5164C66.8983 46.3494 64.0783 49.2583 64.0783 49.2583C64.0783 49.2583 59.3863 44.4614 54.0833 45.5644C48.7793 46.6674 43.0883 51.1284 43.2863 53.0744Z" stroke="black" stroke-width="2" stroke-miterlimit="10" stroke-linecap="round" stroke-linejoin="round"/>
<path d="M52.2881 58.246C52.2881 58.246 51.4591 61.222 53.6561 61.771C55.8651 62.324 56.8921 60.811 56.8921 60.811C56.8921 60.811 59.0751 61.647 60.0691 59.99C61.0631 58.333 59.7911 57.391 59.7911 57.391" stroke="black" stroke-width="2" stroke-miterlimit="10" stroke-linecap="round" stroke-linejoin="round"/>
<path d="M53.9355 45.766C53.9355 45.766 56.5165 49.571 53.6885 53.621" stroke="black" stroke-width="2" stroke-miterlimit="10" stroke-linecap="round" stroke-linejoin="round"/>
<path d="M51.2203 46.416C51.2203 46.416 49.0753 43.756 50.7243 42.47C53.0523 40.655 55.5243 43.226 55.5243 43.226C55.5243 43.226 58.3623 41.417 59.8073 42.308C62.5803 44.02 60.4313 46.194 60.4313 46.194" stroke="black" stroke-width="2" stroke-miterlimit="10" stroke-linecap="round" stroke-linejoin="round"/>
<path d="M49.0363 51.0373C48.9993 51.0243 48.9623 51.0113 48.9253 50.9973" stroke="black" stroke-width="2" stroke-miterlimit="10" stroke-linecap="round" stroke-linejoin="round"/>
<path d="M37.0449 76.5333C37.4099 73.9493 43.7679 74.0003 44.3229 77.0243" stroke="black" stroke-width="2" stroke-miterlimit="10" stroke-linecap="round" stroke-linejoin="round"/>
<path d="M58.7403 76.732C56.7293 70.732 48.2353 70.232 47.2593 77.149" stroke="black" stroke-width="2" stroke-miterlimit="10" stroke-linecap="round" stroke-linejoin="round"/>
<path d="M58.2529 74.7096C59.6989 72.6126 64.3569 72.9126 65.3809 75.9676" stroke="black" stroke-width="2" stroke-miterlimit="10" stroke-linecap="round" stroke-linejoin="round"/>
<path d="M36.187 75.986C36.187 75.986 30.614 71.369 33.175 65.252C34.978 60.945 33.803 54.085 33.803 54.085C33.803 54.085 39.305 61.451 37.07 66.314C33.811 73.409 36.187 75.986 36.187 75.986Z" fill="black" stroke="black" stroke-width="2" stroke-miterlimit="10" stroke-linecap="round" stroke-linejoin="round"/>
<path d="M34.5801 74.3055C34.5801 74.3055 38.2741 76.6945 40.8411 72.3225C42.1011 70.1775 45.9161 68.5545 45.9161 68.5545C45.9161 68.5545 40.5111 66.8585 39.0451 70.7585C36.9061 76.4495 34.5801 74.3055 34.5801 74.3055Z" fill="black" stroke="black" stroke-width="2" stroke-miterlimit="10" stroke-linecap="round" stroke-linejoin="round"/>
<path d="M64.6483 73.0446C64.6483 73.0446 64.4723 71.1686 63.6093 69.5676C62.7463 67.9666 61.1973 66.6406 61.1973 66.6406C61.1973 66.6406 60.8023 69.5626 61.2803 71.2566C61.7583 72.9516 64.6483 73.0446 64.6483 73.0446Z" fill="black" stroke="black" stroke-width="2" stroke-miterlimit="10" stroke-linecap="round" stroke-linejoin="round"/>
<path d="M66.1878 75.404C66.1878 75.404 63.6968 71.78 67.9938 69.091C70.1038 67.771 71.6178 63.912 71.6178 63.912C71.6178 63.912 73.4658 69.267 69.6078 70.842C63.9788 73.139 66.1878 75.404 66.1878 75.404Z" fill="black" stroke="black" stroke-width="2" stroke-miterlimit="10" stroke-linecap="round" stroke-linejoin="round"/>
<path d="M34.2399 75.7555C34.2399 75.7555 24.207 72.5436 26.088 65.0226C27.115 60.9226 23.252 57.8525 23.252 57.8525C23.252 57.8525 30.95 58.4885 29.437 64.7565C27.231 73.9025 34.2399 75.7555 34.2399 75.7555Z" fill="black" stroke="black" stroke-width="2" stroke-miterlimit="10" stroke-linecap="round" stroke-linejoin="round"/>
<path d="M38.6727 50.6753C38.6327 50.6673 38.5927 50.6593 38.5527 50.6523" stroke="black" stroke-width="2" stroke-miterlimit="10" stroke-linecap="round" stroke-linejoin="round"/>
<path d="M42.4189 43.7344C42.4589 43.7424 42.4989 43.7504 42.5389 43.7574" stroke="black" stroke-width="2" stroke-miterlimit="10" stroke-linecap="round" stroke-linejoin="round"/>
<path d="M32.496 42.4307C32.456 42.4307 32.416 42.4307 32.376 42.4307" stroke="black" stroke-width="2" stroke-miterlimit="10" stroke-linecap="round" stroke-linejoin="round"/>
<path d="M37.8843 77.517C37.8843 77.517 59.3593 78.454 67.0183 78.491C84.4323 78.575 72.5333 72.197 70.5473 73.964C68.2573 76.002 63.0023 78.144 63.0023 78.144" fill="black"/>
<path d="M37.8843 77.517C37.8843 77.517 59.3593 78.454 67.0183 78.491C84.4323 78.575 72.5333 72.197 70.5473 73.964C68.2573 76.002 63.0023 78.144 63.0023 78.144" stroke="black" stroke-width="2" stroke-miterlimit="10" stroke-linecap="round" stroke-linejoin="round"/>
</svg>
