<svg width="100" height="100" viewBox="0 0 100 100" fill="none" xmlns="http://www.w3.org/2000/svg">
<path d="M61.9268 76.8676C61.9268 76.8676 61.7618 57.2206 61.9048 54.4606C62.0468 51.7016 68.2278 46.1756 67.6008 40.5926C66.9308 34.6256 61.2678 27.6896 60.0238 27.0406C58.0928 26.0326 51.4598 25.3516 51.4598 25.3516C51.4598 25.3516 43.4978 25.6076 42.9558 26.8296C41.3578 30.4246 42.9908 34.4566 48.3368 34.1886C53.6828 33.9216 54.8148 33.4626 56.5338 32.6796" stroke="black" stroke-width="2" stroke-miterlimit="10" stroke-linecap="round" stroke-linejoin="round"/>
<path d="M48.568 19.1952C47.543 16.8902 45.187 15.0972 41.857 17.7612C38.526 20.4252 40.162 23.3142 40.162 23.3142L42.596 27.2992" stroke="black" stroke-width="2" stroke-miterlimit="10" stroke-linecap="round" stroke-linejoin="round"/>
<path d="M40.039 23.1589C37.337 19.4349 29.048 23.0939 31.684 28.3739C32.6 30.2099 32.544 30.1289 34.362 32.4329" stroke="black" stroke-width="2" stroke-miterlimit="10" stroke-linecap="round" stroke-linejoin="round"/>
<path d="M29.8569 39.1128C29.8569 39.1128 32.9869 47.1828 37.4349 45.2838C41.8839 43.3848 37.7859 38.3858 36.7009 36.1068C35.6159 33.8288 31.9809 27.9698 28.4549 30.7368C24.9289 33.5028 24.7161 41.8218 31.0461 51.9998C35.8841 59.7798 40.5839 61.3048 41.1289 63.8808C42.1259 68.5918 38.6339 82.6748 38.6339 82.6748" stroke="black" stroke-width="2" stroke-miterlimit="10" stroke-linecap="round" stroke-linejoin="round"/>
<path d="M44.937 63.0709C44.937 63.0709 42.8181 63.0868 39.0001 60.9998" stroke="black" stroke-width="2" stroke-miterlimit="10" stroke-linecap="round" stroke-linejoin="round"/>
<path d="M59.1099 57.8172L62.5109 52.6172" stroke="black" stroke-width="2" stroke-miterlimit="10" stroke-linecap="round" stroke-linejoin="round"/>
<path d="M52.497 34.2363C52.497 34.2363 51.481 39.1553 58.586 41.0353" stroke="black" stroke-width="2" stroke-miterlimit="10" stroke-linecap="round" stroke-linejoin="round"/>
<path d="M46.2889 34.0898C47.4739 35.8128 48.7989 40.2308 45.4669 41.3188C41.5599 42.5938 38.4799 39.6788 37.1519 36.9258" stroke="black" stroke-width="2" stroke-miterlimit="10" stroke-linecap="round" stroke-linejoin="round"/>
<path d="M59.9929 26.8289C59.9929 26.8289 58.4559 13.4569 52.0519 15.1479C47.1729 16.4359 48.8239 20.1179 49.2339 21.8079C49.6439 23.4989 50.5339 25.1538 50.5339 25.1538" stroke="black" stroke-width="2" stroke-miterlimit="10" stroke-linecap="round" stroke-linejoin="round"/>
<path d="M38.575 83.0439C38.575 83.0439 49.8499 85.6609 64.3069 84.5899C77.0109 83.6479 76.427 78.0799 68.642 77.1729C63.573 76.5819 61.905 76.7189 61.905 76.7189L61.875 84.7009C61.875 84.7009 56.242 85.1879 50.431 84.7559C44.62 84.3239 38.575 83.0439 38.575 83.0439Z" fill="black" stroke="black" stroke-width="2" stroke-miterlimit="10" stroke-linecap="round" stroke-linejoin="round"/>
</svg>
