<svg width="100" height="100" viewBox="0 0 100 100" fill="none" xmlns="http://www.w3.org/2000/svg">
<path d="M43.5599 28.0822C43.5599 28.0822 39.7899 32.7622 40.0399 41.5022C40.3399 52.1122 40.9398 55.4522 35.8398 57.2822C29.8048 59.4522 25.9778 55.9822 25.4308 49.7722C24.9348 44.1422 23.6528 34.0922 30.4308 27.9822C37.2098 21.8822 50.4599 17.0122 59.9799 25.7422C68.0799 33.1722 74.5099 46.3022 74.1399 54.4722C73.7699 62.6422 69.4598 75.0323 58.3398 78.0723C48.9698 80.6423 38.8499 77.7623 37.6099 74.2023C36.3699 70.6323 39.3299 65.7823 45.6199 67.3223C51.9099 68.8723 54.1899 70.0922 56.6399 70.7122" stroke="black" stroke-width="1.52204" stroke-miterlimit="10" stroke-linejoin="round"/>
<path d="M34.25 25.1518C39.89 22.8518 43.1 26.0518 48.24 35.5418C54.8 47.6418 57.3 54.1718 57.74 60.4318C58.99 78.1018 48.99 79.2518 43.96 78.1918" stroke="black" stroke-width="1.52204" stroke-miterlimit="10" stroke-linejoin="round"/>
<path d="M57.5 59.9717C57.5 59.9717 63.18 60.9017 67.11 59.5417C71.03 58.1817 74.03 54.7617 74.03 54.7617" stroke="black" stroke-width="1.52204" stroke-miterlimit="10" stroke-linejoin="round"/>
<path d="M32.209 49.6119C32.241 49.5719 32.272 49.542 32.304 49.502" stroke="black" stroke-width="1.52204" stroke-miterlimit="10" stroke-linecap="round" stroke-linejoin="round"/>
<path d="M32.0908 42.5819C32.1298 42.5719 32.1688 42.552 32.2088 42.542" stroke="black" stroke-width="1.52204" stroke-miterlimit="10" stroke-linecap="round" stroke-linejoin="round"/>
<path d="M33.9502 35.6119C34.0102 35.5919 34.0602 35.572 34.1202 35.542" stroke="black" stroke-width="1.52204" stroke-miterlimit="10" stroke-linecap="round" stroke-linejoin="round"/>
<path d="M44.4902 30.1017C44.4902 30.1017 48.5602 26.3918 52.1602 25.4418C55.7602 24.4918 59.5702 25.4418 59.5702 25.4418" stroke="black" stroke-width="1.52204" stroke-miterlimit="10" stroke-linejoin="round"/>
<path d="M50.7194 32.4527C51.2094 35.3227 55.2495 39.4326 57.5495 45.3726C59.3595 50.0326 60.4495 54.8726 61.6095 55.3426C63.0295 55.9226 70.1995 53.3427 70.2295 52.0627C70.2695 50.4327 69.1394 45.6527 66.0594 39.2627C63.8994 34.7927 60.1995 29.7627 58.3795 29.3827C57.0795 29.1027 50.4094 30.6427 50.7194 32.4527Z" fill="black" stroke="black" stroke-width="1.52204" stroke-miterlimit="10" stroke-linejoin="round"/>
<path d="M30.6855 27.7623C30.6855 27.7623 33.6036 24.8724 37.5696 25.6924C42.5596 26.7324 44.8796 30.1724 47.2296 34.1724C50.7396 40.1624 52.7896 44.4323 54.5596 48.4723C57.8596 55.9823 57.3896 61.5723 57.1696 65.0823C56.9496 68.5923 54.8395 74.1224 51.2795 76.3024C49.9395 77.1324 47.3896 79.3724 42.2396 77.6524" stroke="black" stroke-width="1.52204" stroke-miterlimit="10" stroke-linejoin="round"/>
</svg>
