<svg width="100" height="100" viewBox="0 0 100 100" fill="none" xmlns="http://www.w3.org/2000/svg">
<path d="M45.6956 81.4506C43.8363 80.9299 41.9811 80.5634 38.985 80.9614C38.3375 81.0474 39.6693 83.9658 38.0759 84.3421C36.1892 84.7876 31.7445 82.635 32.2908 83.8894C33.6034 85.9515 34.8021 85.8796 37.3948 86.4634C39.894 87.0262 46.0524 87.2236 47.577 85.8318C49.1017 84.4401 48.8007 82.3202 45.6956 81.4506Z" fill="black"/>
<path d="M47.6138 48.854C45.9322 48.846 41.9275 50.995 40.1154 52.1681L40.004 49.1018C39.8718 49.1082 39.9979 48.9326 39.9979 48.9326L40.004 49.1018C40.1391 49.0952 40.5437 48.8985 41.6276 48.1303C43.7726 46.61 47.9637 46.0145 51.1965 47.426C53.7827 48.5552 60.3807 50.8299 63.3564 51.8261C63.3564 51.8261 61.5259 52.0899 58.3715 51.7708C55.2171 51.4517 51.0953 48.8705 47.6138 48.854Z" fill="black"/>
<path d="M39.9377 44.7465C39.8558 47.0043 39.3633 57.4581 39.5558 63.8577C39.7382 69.9221 39.828 80.5017 39.209 83.722C38.8212 85.7393 32.6469 86.0231 32.6647 81.4175C32.6647 80.3446 32.7913 75.9697 32.7356 73.5418C32.6798 71.1139 33.4389 38.1451 33.4219 36.1909C33.405 34.2368 33.3741 27.177 34.1681 24.0595C34.962 20.942 38.4943 21.5589 39.7353 23.3174C40.9764 25.0759 40.0856 40.67 39.9377 44.7465Z" stroke="black" stroke-width="2" stroke-miterlimit="10"/>
<path d="M39.8041 49.4686C41.9711 47.7808 47.1609 44.9551 50.5845 47.1548C54.864 49.9045 64.392 53.846 69.4282 51.8596C73.4571 50.2705 74.163 48.9122 74.0124 48.4316L74.4961 24.8879C74.4978 24.8054 74.4063 24.7547 74.3387 24.8022C71.4992 26.7983 64.9744 29.8681 60.2852 26.9959C54.3097 23.3357 50.5041 20.5472 46.4172 21.3112C43.1476 21.9224 40.8528 23.4611 40.2795 24.0327" stroke="black" stroke-width="2" stroke-miterlimit="10"/>
</svg>
