<svg width="100" height="100" viewBox="0 0 100 100" fill="none" xmlns="http://www.w3.org/2000/svg">
<path d="M65.51 38.8462C65.51 38.1489 35.1563 38.1489 35.1563 38.8463L35.1562 75.8109C35.1562 81.8215 39.5934 83.3935 42.7195 83.3935H59.6611C64.6025 83.3935 65.51 78.1226 65.51 75.8109V38.8462Z" stroke="black" stroke-width="2"/>
<path d="M38.8897 33.6131L38.8896 38.531H61.7774L61.7774 33.6131C61.7774 33.313 38.8897 33.2411 38.8897 33.6131Z" stroke="black" stroke-width="2"/>
<path d="M41.0117 33.6587C41.0117 28.7593 41.0117 18.686 41.0117 17.5885C41.0117 16.882 45.4489 17.0821 50.3028 17.1353C54.8733 17.1854 59.8725 17.0517 60.0214 17.5886C60.3284 18.6955 60.0214 28.5307 60.0214 33.6587" stroke="black" stroke-width="2"/>
<path d="M44.8037 26.8693V23.1299H48.5155V26.8693H44.8037Z" stroke="black" stroke-width="2" stroke-linejoin="round"/>
<path d="M52.8125 26.8693V23.1299H56.5243V26.8693H52.8125Z" stroke="black" stroke-width="2" stroke-linejoin="round"/>
<path fill-rule="evenodd" clip-rule="evenodd" d="M65.51 38.8462C65.51 38.1489 35.1563 38.1489 35.1563 38.8463L35.1562 75.8109C35.1562 81.8215 39.5934 83.3935 42.7195 83.3935H59.6611C64.6025 83.3935 65.51 78.1226 65.51 75.8109V38.8462ZM49.3283 48.5749C49.418 48.577 49.516 48.5785 49.6202 48.5795V61.64C48.8464 61.3032 47.9728 60.8941 47.2032 60.5096C46.6321 60.2244 46.1353 59.9612 45.7887 59.7587C45.7443 59.7328 45.7039 59.7087 45.6671 59.6865L45.667 57.4783C46.4151 57.1229 46.9296 56.381 46.9296 55.5233C46.9296 54.3201 45.9171 53.3448 44.6679 53.3448C43.4188 53.3448 42.4062 54.3201 42.4062 55.5233C42.4062 56.3803 42.92 57.1217 43.667 57.4774L43.6671 60.135C43.6671 60.3947 43.772 60.5825 43.8205 60.6603C43.8776 60.7519 43.9395 60.8203 43.9803 60.862C44.0628 60.9465 44.1531 61.017 44.2228 61.0681C44.3686 61.175 44.5545 61.2908 44.7515 61.4059C45.1528 61.6404 45.6939 61.9258 46.2825 62.2198C47.3516 62.7538 48.6338 63.3439 49.6202 63.7418V66.7251C48.8917 67.0869 48.3936 67.8187 48.3936 68.6626C48.3936 69.8658 49.4062 70.8412 50.6553 70.8412C51.9044 70.8412 52.917 69.8658 52.917 68.6626C52.917 67.792 52.3867 67.0406 51.6202 66.6918V60.9481L51.8079 60.8198C51.9528 60.7206 52.16 60.5785 52.4092 60.407C52.9073 60.0641 53.5743 59.603 54.2481 59.1312C54.9206 58.6602 55.6051 58.1749 56.1362 57.7848C56.4006 57.5905 56.6349 57.4142 56.8131 57.2723C56.9013 57.2021 56.9853 57.1327 57.0557 57.0695L57.0611 57.0647C57.1022 57.028 57.2384 56.9065 57.3325 56.7509C57.4312 56.5876 57.4804 56.4176 57.5072 56.3103C57.538 56.1873 57.5606 56.0558 57.5781 55.9279C57.6132 55.6715 57.6358 55.3693 57.6512 55.0595C57.67 54.6776 57.679 54.2571 57.6831 53.8513H57.7626C58.3149 53.8513 58.7626 53.42 58.7626 52.8881V50.7811C58.7626 50.2491 58.3149 49.8179 57.7626 49.8179H55.5752C55.0229 49.8179 54.5752 50.2491 54.5752 50.7811V52.8881C54.5752 53.42 55.0229 53.8513 55.5752 53.8513H55.683C55.679 54.2349 55.6705 54.6219 55.6534 54.9679C55.6392 55.2555 55.6198 55.4968 55.5953 55.676C55.5914 55.704 55.5877 55.7289 55.5841 55.7511L55.5388 55.7874C55.3907 55.9054 55.1807 56.0639 54.9234 56.253C54.4107 56.6295 53.741 57.1045 53.072 57.573C52.5607 57.9311 52.0527 58.2833 51.6202 58.5819V48.559C51.9409 48.5521 52.2396 48.5445 52.4832 48.5374C52.8316 48.5273 53.1494 48.3433 53.3219 48.0516C53.4945 47.76 53.497 47.4029 53.3286 47.109L51.4636 43.856C51.2844 43.5433 50.9401 43.3518 50.5693 43.3586C50.1985 43.3653 49.862 43.5692 49.6952 43.8883C49.5093 44.2437 49.2442 44.7015 48.9693 45.1762L48.9692 45.1763L48.969 45.1767L48.9686 45.1773L48.9686 45.1773C48.8362 45.406 48.7015 45.6386 48.5723 45.8655C48.3825 46.199 48.2015 46.5261 48.0783 46.7819C48.0202 46.9026 47.9541 47.0495 47.912 47.1901C47.8938 47.2505 47.8566 47.3836 47.8577 47.5435C47.8584 47.6446 47.8828 48.2041 48.4685 48.4548C48.6093 48.5151 48.7431 48.5344 48.7795 48.5397L48.7828 48.5401C48.8433 48.549 48.9042 48.5546 48.9571 48.5586C49.0647 48.5666 49.1931 48.5716 49.3283 48.5749ZM55.703 55.6503L55.7124 55.6407L55.7153 55.638L55.7166 55.6369C55.7171 55.6367 55.713 55.641 55.703 55.6503ZM43.0719 75.9014H58.1865C59.7933 75.9014 60.6756 79.7761 58.1865 79.7761H43.0719C40.9072 79.7761 41.223 75.9014 43.0719 75.9014Z" fill="black"/>
</svg>
