<svg width="100" height="100" viewBox="0 0 100 100" fill="none" xmlns="http://www.w3.org/2000/svg">
<ellipse cx="71.2008" cy="53.3097" rx="8.16199" ry="12.7492" transform="rotate(6.90537 71.2008 53.3097)" stroke="black" stroke-width="2" stroke-linecap="round" stroke-linejoin="round"/>
<path d="M81.9232 54.6079C80.803 63.8574 75.0946 70.7743 69.1731 70.0571C63.2516 69.34 59.3593 61.2604 60.4795 52.0109C61.5997 42.7614 67.3081 35.8446 73.2297 36.5617C79.1512 37.2789 83.0434 45.3584 81.9232 54.6079Z" stroke="black" stroke-width="2" stroke-linecap="round" stroke-linejoin="round"/>
<path d="M65.4868 46.0711C70.3803 49.4366 69.0659 57.596 63.8904 59.2528" stroke="black" stroke-width="2"/>
<path d="M72.8862 36.526C65.8347 35.672 58.3195 37.6037 52.3743 40.2032C45.8459 42.5591 44.2689 55.4847 49.7776 60.0265C53.9263 63.3795 60.5585 67.8151 68.85 70.0423" stroke="black" stroke-width="2"/>
<path d="M52.7479 40.0681L19.3285 37.6357C12.0004 37.9883 10.5988 50.1891 18.5289 52.5445C24.873 54.4289 42.836 58.0472 50.1489 60.3796" stroke="black" stroke-width="2"/>
<path d="M62.0267 37.2727C50.621 41.5498 50.2919 58.5488 57.9689 65.3485" stroke="black" stroke-width="2" stroke-linecap="round" stroke-linejoin="round"/>
<path d="M68.1222 72.0833C53.8729 70.1632 17.2002 53.0113 17.2002 53.0113L48.3953 59.7988C48.8365 61.6182 63.9117 69.4179 69.9558 69.9744C75.9999 70.5308 79.9363 63.3109 81.2038 58.3891C82.2636 57.6706 88.1525 60.8638 89.101 64.0541C90.5947 69.0785 82.3715 74.0034 68.1222 72.0833Z" fill="black"/>
<path d="M42.8942 42.7235L41.3471 46.0287L34.2532 44.6158L35.4487 42.084L42.8942 42.7235Z" stroke="black" stroke-width="2" stroke-linecap="round" stroke-linejoin="round"/>
<path d="M36.4475 44.5627L37.1895 42.8608" stroke="black" stroke-width="2" stroke-linecap="round" stroke-linejoin="round"/>
</svg>
