<svg width="100" height="100" viewBox="0 0 100 100" fill="none" xmlns="http://www.w3.org/2000/svg">
<path d="M46.4847 30.1665C47.5442 36.405 49.7622 56.5002 47.9322 68.0488C52.1724 77.6911 49.9593 81.8404 45.9274 83.4964C42.0611 85.0843 35.4764 82.089 35.4764 71.0007C33.1659 68.7827 22.1138 48.9745 18.2912 39.0632C17.7728 37.7192 18.9215 36.0765 20.2805 35.5988C23.5263 34.4579 28.1175 31.9261 30.6017 30.0069C31.5587 29.2675 33.2059 28.8799 34.4066 29.0245C36.9936 29.3362 41.1697 29.1869 44.3578 28.727C45.3664 28.5815 46.314 29.1618 46.4847 30.1665Z" stroke="black" stroke-width="2" stroke-linecap="round" stroke-linejoin="round"/>
<path d="M82.7861 27.902C81.4315 34.069 75.9639 53.4476 69.9507 63.4722C69.9507 73.9407 66.4567 77.1418 62.0981 77.1704C57.9185 77.1978 53.1724 71.1221 57.2945 61.5536C55.9808 58.633 53.1499 36.2195 53.312 25.6138C53.3341 24.1735 55.0148 23.0889 56.455 23.1147C59.4532 23.1683 63.6797 22.4705 66.3156 21.6146C67.4658 21.2411 69.15 21.436 70.2299 21.9805C72.9179 23.3357 77.8699 24.958 81.3533 25.7787C82.3452 26.0123 83.0047 26.9067 82.7861 27.902Z" stroke="black" stroke-width="2" stroke-linecap="round" stroke-linejoin="round"/>
<path d="M38.2322 54.4226C33.2041 55.7565 34.7434 64.7863 38.2322 70.3274C38.2322 76.1763 41.3106 81.2042 44.5942 80.2807C47.8778 79.3572 46.9543 73.8162 45.2099 68.2752C45.7229 64.7863 43.2602 53.0886 38.2322 54.4226Z" stroke="black" stroke-width="2" stroke-linecap="round" stroke-linejoin="round"/>
<path d="M38.2319 70.3273C39.9764 68.2751 43.3627 67.8647 44.9018 68.5829" stroke="black" stroke-width="2" stroke-linecap="round" stroke-linejoin="round"/>
<path d="M66.0482 47.208C60.886 46.5656 58.938 55.5161 60.1023 61.9596C57.9158 67.3844 58.8914 73.1987 62.2821 73.5697C65.6729 73.9406 66.8878 68.4561 67.3413 62.6647C69.1214 59.6207 71.2104 47.8504 66.0482 47.208Z" stroke="black" stroke-width="2" stroke-linecap="round" stroke-linejoin="round"/>
<path d="M60.1018 61.9595C62.487 60.7083 65.7811 61.5936 66.9401 62.8351" stroke="black" stroke-width="2" stroke-linecap="round" stroke-linejoin="round"/>
<path d="M33.6596 52.1477C37.2452 49.3736 32.0706 38.4117 30.4934 30.3665L20.7426 35.3088C23.2964 44.6672 29.6664 55.2372 33.6596 52.1477Z" fill="black"/>
<path d="M40.8204 49.9375C36.3727 49.0598 35.956 36.8393 33.7688 28.9382L43.3085 28.9382C45.2096 38.4506 45.7737 50.915 40.8204 49.9375Z" fill="black"/>
<path d="M69.4492 43.5787C65.5463 41.2722 69.3168 29.7516 69.8809 21.5728L80.1708 25.2635C78.8012 34.8669 73.7957 46.1473 69.4492 43.5787Z" fill="black"/>
<path d="M62.102 43.4223C66.3847 41.9352 65.0995 29.7753 66.1679 21.6469L56.7207 22.9723C56.1595 32.6566 57.3326 45.0784 62.102 43.4223Z" fill="black"/>
</svg>
