<svg width="100" height="100" viewBox="0 0 100 100" fill="none" xmlns="http://www.w3.org/2000/svg">
<path d="M43.5851 54.9872C43.1633 54.5341 37.4817 48.8857 34.2997 45.0148C33.8522 44.4704 32.9908 44.5132 32.6213 45.1133L23.7188 59.57" stroke="black" stroke-width="2" stroke-linecap="round" stroke-linejoin="round"/>
<path d="M58.044 41.2347C58.5288 40.8501 64.0155 36.5012 67.5572 33.2239C68.0693 32.7501 68.9035 32.911 69.1867 33.5486L75.6477 48.0931" stroke="black" stroke-width="2" stroke-linecap="round" stroke-linejoin="round"/>
<path d="M46.2763 72.7854C47.698 77.5995 44.2886 85.5843 37.8387 86.636C32.8773 87.445 28.8041 83.2037 27.4165 79.1918C26.5773 76.7652 26.9692 72.1058 26.5189 69.344C25.646 63.9912 22.0953 57.2454 20.6959 47.1013C19.2964 36.9573 25.0974 28.0219 32.3138 26.9853C39.5301 25.9488 43.5598 34.2623 44.8097 40.3659C46.0597 46.4696 43.471 55.582 43.1688 59.9764C42.8666 64.3708 44.8545 67.9713 46.2763 72.7854Z" stroke="black" stroke-width="2" stroke-linecap="round" stroke-linejoin="round"/>
<path d="M51.8671 58.0013C49.7448 62.5487 51.9241 70.962 58.1411 72.9765C62.9233 74.5261 67.5803 70.9457 69.5493 67.1868C70.7402 64.9132 71.0472 60.245 71.9037 57.581C73.5639 52.4179 78.0778 46.2814 80.9722 36.4583C83.8667 26.6353 79.4657 16.9204 72.4891 14.8052C65.5125 12.69 60.2917 20.305 58.147 26.1539C56.0023 32.0027 57.2026 41.4076 56.8464 45.8001C56.4903 50.1926 53.9894 53.454 51.8671 58.0013Z" stroke="black" stroke-width="2" stroke-linecap="round" stroke-linejoin="round"/>
<path d="M37.8382 86.636C44.2881 85.5843 48.5481 77.0625 47.1263 72.2484C45.7045 67.4342 43.7166 63.8337 44.0188 59.4393C44.321 55.0449 46.9097 45.9325 45.6598 39.8289C44.4098 33.7252 39.5297 25.9488 32.3133 26.9853" stroke="black" stroke-width="2" stroke-linecap="round" stroke-linejoin="round"/>
<path d="M30.5878 71.3053C30.0283 75.5006 30.7275 81.374 35.9017 82.9123" stroke="black" stroke-width="2" stroke-linecap="round" stroke-linejoin="round"/>
<path d="M22.4835 53.8108C22.6478 53.6399 28.0589 44.398 29.2915 41.939C30.5241 39.4799 34.1383 38.0738 36.5922 40.7485C38.5554 42.8882 42.6972 47.9032 44.1895 49.8859" stroke="black" stroke-width="2" stroke-linecap="round" stroke-linejoin="round"/>
<path d="M44.5008 48.9549C39.4779 42.232 37.0091 39.2978 33.8135 39.1956" stroke="black" stroke-width="2" stroke-linecap="round" stroke-linejoin="round"/>
<path d="M23.8923 59.4955L33.4439 45.731L33.8143 44.7375" stroke="black" stroke-width="2" stroke-linecap="round" stroke-linejoin="round"/>
<path d="M32.8408 38.9579C32.3848 37.3572 32.6816 36.0039 32.6228 34.2345" stroke="black" stroke-width="2" stroke-linecap="round" stroke-linejoin="round"/>
<path d="M58.1402 72.9764C62.9224 74.526 67.8863 72.6641 69.8553 68.9052C71.0462 66.6316 71.3531 61.9634 72.2097 59.2994C73.8698 54.1363 78.3837 47.9997 81.2782 38.1767C84.1727 28.3537 79.4648 16.9204 72.4882 14.8052" stroke="black" stroke-width="2" stroke-linecap="round" stroke-linejoin="round"/>
<path d="M67.9828 58.0277C66.1133 63.2293 67.3312 70.5366 58.937 69.6264" stroke="black" stroke-width="2" stroke-linecap="round" stroke-linejoin="round"/>
<path d="M77.8943 43.7014C77.7574 43.5078 73.7935 33.5589 72.9436 30.9428C72.0937 28.3268 68.7313 26.3946 65.904 28.671C63.6421 30.4921 58.7848 34.7289 57.012 36.4653" stroke="black" stroke-width="2" stroke-linecap="round" stroke-linejoin="round"/>
<path d="M77.9695 42.0826C74.8398 30.8832 73.1524 29.519 70.3555 27.9699" stroke="black" stroke-width="2" stroke-linecap="round" stroke-linejoin="round"/>
<path d="M57.0226 42.4763L67.8197 34.5701L68.6027 33.8551" stroke="black" stroke-width="2" stroke-linecap="round" stroke-linejoin="round"/>
<path d="M69.3524 27.2685C69.1693 24.7991 69.5765 23.6076 69.857 22.567" stroke="black" stroke-width="2" stroke-linecap="round" stroke-linejoin="round"/>
</svg>
