<svg width="100" height="100" viewBox="0 0 100 100" fill="none" xmlns="http://www.w3.org/2000/svg">
<path d="M42.9217 69.8238C40.1473 72.3663 41.726 73.94 40.5779 76.2736C39.6594 78.1405 36.0676 80.8863 34.3865 82.0258" stroke="black" stroke-width="2" stroke-linecap="round" stroke-linejoin="round"/>
<path d="M42.3224 69.6329C48.2667 71.2182 55.1907 67.2935 53.2249 73.0196C51.259 78.7457 45.8258 71.3291 42.3224 69.6329Z" stroke="black" stroke-width="2" stroke-linecap="round" stroke-linejoin="round"/>
<path d="M42.8595 69.8277C38.0175 67.4927 34.4954 59.7725 32.3263 65.4248C30.1573 71.0771 37.9653 68.0491 42.8595 69.8277Z" stroke="black" stroke-width="2" stroke-linecap="round" stroke-linejoin="round"/>
<path d="M44.3661 70.7686C52.6642 66.2665 66.2233 51.6322 72.3627 47.8236C62.9975 34.7671 45.0776 29.8142 30.2747 32.8832C30.6343 35.9426 31.0446 37.8577 31.2048 38.4328" stroke="black" stroke-width="2" stroke-linecap="round" stroke-linejoin="round"/>
<path d="M51.0216 41.2036C43.3895 37.212 36.2208 38.041 28.8569 38.798C30.7174 46.4655 38.0659 65.8896 42.1792 69.0964C47.8958 58.6055 47.8533 49.9221 51.0216 41.2036Z" stroke="black" stroke-width="2" stroke-linecap="round" stroke-linejoin="round"/>
<path d="M39.7321 69.4324C36.6887 71.7716 33.7309 74.779 30.9411 75.9193C33.7318 79.2326 44.0701 82.7195 47.593 81.9706C46.083 79.4601 45.2726 74.0057 44.423 70.8513" stroke="black" stroke-width="2" stroke-linecap="round" stroke-linejoin="round"/>
<path d="M42.8015 69.8794C43.4489 72.9149 43.077 82.3335 41.7768 86.4618" stroke="black" stroke-width="2" stroke-linecap="round" stroke-linejoin="round"/>
<path d="M50.8527 42.917L52.233 43.4044C50.4446 47.6088 49.8919 55.5462 43.3465 69.0661" stroke="black" stroke-width="2" stroke-linecap="round" stroke-linejoin="round"/>
<path d="M71.3047 45.6051C72.7938 44.594 75.9725 40.156 77.5631 37.8306C73.7738 36.7243 65.8226 34.9935 63.2045 39.0846" stroke="black" stroke-width="2" stroke-linecap="round" stroke-linejoin="round"/>
<path d="M73.5485 36.5135C73.3534 33.0558 70.868 31.4067 69.6497 31.0144C66.4642 33.1227 64.5676 36.6772 64.0175 38.191" stroke="black" stroke-width="2" stroke-linecap="round" stroke-linejoin="round"/>
<path d="M47.6446 32.3692C47.7383 30.5716 49.7587 24.9026 50.924 22.3375C53.8331 25.0059 60.5082 31.9063 58.3648 36.2648" stroke="black" stroke-width="2" stroke-linecap="round" stroke-linejoin="round"/>
<path d="M55.0366 26.258C57.2707 25.1224 59.8514 23.7029 60.2926 23.209C61.6379 27.1308 60.8004 34.3983 58.9748 35.6193" stroke="black" stroke-width="2" stroke-linecap="round" stroke-linejoin="round"/>
<path d="M61.0678 29.1337C64.046 27.7473 64.845 28.3412 65.4936 28.3384C66.4749 29.9373 66.8357 31.8998 66.877 33.1459" stroke="black" stroke-width="2" stroke-linecap="round" stroke-linejoin="round"/>
<path d="M66.4569 32.7708C64.8873 34.3005 62.8513 37.227 63.1142 38.1691" stroke="black" stroke-width="2" stroke-linecap="round" stroke-linejoin="round"/>
<path d="M61.785 29.5093C62.1912 31.3988 60.7355 35.8365 59.8954 36.4765" stroke="black" stroke-width="2" stroke-linecap="round" stroke-linejoin="round"/>
<path d="M42.4929 31.8392C43.166 30.1698 40.3118 24.2385 40.3368 21.4213C36.5738 22.614 32.3079 27.0349 32.4134 31.8908" stroke="black" stroke-width="2" stroke-linecap="round" stroke-linejoin="round"/>
<path d="M41.5063 24.6071C42.7901 23.4783 45.0494 22.1708 46.2834 21.9622C47.6259 22.9193 49.0062 24.8921 49.2377 26.3223" stroke="black" stroke-width="2" stroke-linecap="round" stroke-linejoin="round"/>
<path d="M48.5882 25.4704C47.87 27.3846 47.335 30.6284 47.1573 32.0113" stroke="black" stroke-width="2" stroke-linecap="round" stroke-linejoin="round"/>
<path d="M42.1941 25.1665C43.1444 27.3602 43.5973 30.352 43.705 31.5738" stroke="black" stroke-width="2" stroke-linecap="round" stroke-linejoin="round"/>
<path d="M32.1173 31.1036C28.8675 27.3878 30.875 23.4084 30.7238 21.7577C32.8898 20.5748 37.0037 22.2389 37.1472 23.1357" stroke="black" stroke-width="2" stroke-linecap="round" stroke-linejoin="round"/>
<path d="M52.4656 23.629C53.4073 22.0712 53.9791 21.4788 55.5953 20.7376C56.8171 22.0643 58.2411 22.7959 58.5728 24.0656" stroke="black" stroke-width="2" stroke-linecap="round" stroke-linejoin="round"/>
</svg>
