<svg width="100" height="100" viewBox="0 0 100 100" fill="none" xmlns="http://www.w3.org/2000/svg">
<path d="M62.1002 41.6426C61.0351 41.7838 59.8846 41.9872 58.6616 42.2346C55.6166 42.8507 52.8213 45.4841 50.7161 48.2635C50.3657 48.7261 50.0344 49.1928 49.7242 49.6549C48.5311 51.4326 47.6511 53.1424 47.1997 54.293M62.1002 41.6426C67.0244 40.9899 70.1235 41.668 70.1235 45.4813C70.1235 50.1194 66.3029 52.9016 64.0105 48.2635C62.1766 44.553 61.8455 42.4581 62.1002 41.6426ZM57.133 42.698C58.4065 39.9151 60.4952 33.7928 58.6613 31.5665C56.3689 28.7837 53.6944 37.5961 55.6048 42.698M45.6715 54.7907C45.1797 54.7705 44.5812 54.5629 44.1432 54.7569C43.7052 54.9508 32.6813 69.7962 32.6813 77.0198C32.6813 84.2434 32.5148 84.2913 33.2863 85.368C34.0578 86.4447 57.9417 86.2226 59.441 85.7228C60.9404 85.2231 60.5719 82.5489 60.5719 76.556C60.5719 70.5631 51.3033 55.0066 50.2562 54.7569C49.2092 54.5071 48.0491 54.8886 45.6715 54.7907ZM45.6715 54.7907C46.0535 53.388 46.4356 50.1187 44.9073 48.2635C43.572 46.6425 40.7433 44.7948 39.4224 41.7701M38.8382 36.8094C38.8229 36.915 38.8082 37.0225 38.7943 37.132C38.6844 37.9998 38.6931 38.8003 38.7943 39.5419M38.8382 36.8094C38.8441 36.7692 38.85 36.7293 38.8561 36.6896M38.8382 36.8094C38.7045 36.7366 38.1517 36.1123 36.1199 33.4215C31.9172 27.8558 35.3558 25.0729 36.1199 24.1453C36.884 23.2177 41.0867 18.1158 41.8508 24.6091C42.5949 30.9316 39.7167 31.098 38.8593 36.6682M38.8382 36.8094C38.9072 36.8469 38.8646 36.7377 38.8561 36.6896M38.8561 36.6896C38.8571 36.6825 38.8582 36.6753 38.8593 36.6682M38.8561 36.6896C38.8537 36.6767 38.8539 36.6682 38.8593 36.6682M38.7943 39.5419C37.9029 37.6564 35.203 34.7202 31.5352 38.0596C26.9504 42.2339 34.9737 44.553 37.6482 42.6978C39.7877 41.2135 39.1764 41.7701 39.4224 41.7701M38.7943 39.5419C38.9048 40.3513 39.1255 41.0904 39.4224 41.7701M45.2895 49.1914C45.1622 44.3987 45.1211 34.5638 45.2895 33.4218C45.6715 30.8322 46.8177 25.537 48.3459 24.6094C49.8742 23.6818 58.2795 26.0008 59.4257 20.4351C60.5719 14.8694 59.8078 13.9417 55.223 15.3332C51.5552 16.4463 50.3836 21.3626 50.2562 23.6816C48.6006 23.9908 45.6715 22.2902 47.1997 13.014C48.728 3.73776 52.5224 10.6106 54.3054 14.9395" stroke="black" stroke-width="2"/>
<path d="M66.3454 88.9306C63.1695 89.7149 58.8593 90.764 40.2064 88.9306C37.9483 88.7086 33.7541 87.5454 32.7285 86.1836C31.7029 84.8217 47.1754 87.563 47.2722 86.5787C53.0068 86.574 57.469 86.0475 61.4388 84.437C67.493 85.032 69.4548 86.3663 66.3454 88.9306Z" fill="black"/>
<path d="M32.3452 37.4035C34.7577 35.5172 37.4081 37.7874 38.4317 39.1582C38.4317 40.0538 39.704 41.5598 38.4317 42.3933C36.8413 43.4351 32.3452 42.7223 30.8646 41.845C29.384 40.9677 29.3294 39.7613 32.3452 37.4035Z" fill="black"/>
<path d="M55.8834 34.1257C55.1872 36.1642 55.5934 40.693 55.8834 42.7026C57.1888 42.7026 58.0586 38.9114 58.8045 37.544C59.5503 36.1767 58.7423 32.1989 58.0586 31.6395C57.375 31.0802 56.7537 31.5774 55.8834 34.1257Z" fill="black"/>
<path d="M47.3873 20.6879C47.7666 22.1293 49.154 22.987 49.8003 23.2356C49.9917 22.7973 50.4789 21.5033 50.8961 19.8344C51.3134 18.1654 53.1562 16.1677 54.0254 15.3775C53.0772 13.3387 50.9046 9.13791 49.8003 8.64481C48.42 8.02843 47.8139 11.0154 47.3873 12.2482C46.9608 13.4809 46.9132 18.8861 47.3873 20.6879Z" fill="black"/>
</svg>
