<svg width="100" height="100" viewBox="0 0 100 100" fill="none" xmlns="http://www.w3.org/2000/svg">
<path d="M74.3614 17.4738C72.7472 17.958 73.1272 20.1455 74.9796 22.2352C77.1324 24.6637 81.9682 27.3539 82.115 23.8316" stroke="black" stroke-width="2"/>
<path d="M18.2556 73.9939C19.5834 72.3342 55.8538 35.4428 73.0507 18.0155C75.6636 15.3669 85.1127 22.5252 81.2374 26.4005C78.8861 28.7518 31.1684 76.8845 26.8807 80.7572C22.593 84.63 15.6984 77.1902 18.2556 73.9939Z" stroke="black" stroke-width="2"/>
<ellipse cx="31.6554" cy="67.7386" rx="3.20493" ry="2.29916" transform="rotate(-42.3933 31.6554 67.7386)" fill="black"/>
<ellipse cx="47.2852" cy="52.1446" rx="3.20493" ry="2.29916" transform="rotate(-42.3933 47.2852 52.1446)" fill="black"/>
<ellipse cx="40.5909" cy="59.003" rx="3.20493" ry="2.29916" transform="rotate(-42.3933 40.5909 59.003)" fill="black"/>
<ellipse cx="56.1012" cy="43.3337" rx="3.20493" ry="2.29916" transform="rotate(-42.3933 56.1012 43.3337)" fill="black"/>
<path d="M61.4066 29.8516C60.5382 31.8505 61.5975 34.2531 63.9483 36.043C65.8476 37.4891 68.4528 38.724 70.0436 37.7117" stroke="black" stroke-width="2"/>
<path d="M75.2591 17.3545C74.331 17.3545 73.5014 18.2685 73.2026 18.7256L74.4155 21.573L76.8411 24.2096L79.8996 25.3697H81.9561V23.2077L80.216 20.5711C78.9504 19.4989 76.1873 17.3545 75.2591 17.3545Z" fill="black"/>
<path d="M22.3174 81.5095C23.3807 82.255 26.1109 83.1859 28.6377 82.255C31.7962 81.0914 80.8166 30.4538 81.523 29.4649C82.8127 27.6594 82.1661 26.9165 81.889 26.233" stroke="black" stroke-width="2"/>
<path d="M25.6704 82.0329L28.904 78.7096L31.374 76.5537L56.6584 51.1795L79.383 28.6347L81.7183 26.3892L82.1674 28.6347L79.1135 32.4072L60.1614 51.7635L31.0148 80.461L27.5567 82.4371L25.6704 82.0329Z" fill="black"/>
</svg>
