<svg width="100" height="100" viewBox="0 0 100 100" fill="none" xmlns="http://www.w3.org/2000/svg">
<path d="M52.5789 37.4641C32.4095 36.2035 22.3453 50.7536 21.7149 51.3841C21.1587 52.054 30.897 65.7011 51.3184 65.575C71.7399 65.449 80.3923 52.054 80.1402 52.054C79.8881 52.054 72.7483 38.7247 52.5789 37.4641Z" stroke="black" stroke-width="2"/>
<path d="M44.0734 37.9375C42.1099 39.3397 34.1946 47.3106 41.9694 55.6773C48.9898 63.2322 59.4897 58.2874 61.3925 53.7842C63.496 48.8059 64.3374 43.4068 58.8682 38.3584" stroke="black" stroke-width="2"/>
<path fill-rule="evenodd" clip-rule="evenodd" d="M44.7921 37.8158L40.9624 41.1233L38.5254 47.8542L39.8599 52.9605L44.7921 57.9507L49.3761 59.6914H54.0182L58.6602 57.2544L61.7936 53.3086L62.722 49.3629L63.0121 44.7208L59.8207 38.454L51.6971 37.3516L44.7921 37.8158ZM44.4419 52.6939C46.6011 52.6939 48.3515 50.8262 48.3515 48.5222C48.3515 46.2183 46.6011 44.3506 44.4419 44.3506C42.2826 44.3506 40.5322 46.2183 40.5322 48.5222C40.5322 50.8262 42.2826 52.6939 44.4419 52.6939Z" fill="black"/>
<path d="M18.003 67.0947C18.003 67.0947 17.4304 76.8667 18.4176 77.3014C19.4049 77.7361 30.1748 77.3014 30.1748 77.3014" stroke="black" stroke-width="2" stroke-linecap="round"/>
<path d="M81.5053 33.1738C81.5053 33.1738 82.0423 23.4019 81.1165 22.9671C80.1907 22.5324 70.0912 22.9671 70.0912 22.9671" stroke="black" stroke-width="2" stroke-linecap="round"/>
</svg>
