<svg width="100" height="100" viewBox="0 0 100 100" fill="none" xmlns="http://www.w3.org/2000/svg">
<path d="M33.9849 33.4451C34.5291 35.9568 33.5846 38.6061 33.5846 39.7816C33.5846 41.251 31.0869 44.3365 31.7481 44.9977C32.1214 45.3709 34.2035 45.0887 36.0916 44.706C37.5483 44.4107 38.3812 44.0854 39.5586 43.8756" stroke="black" stroke-width="2" stroke-linecap="round"/>
<path d="M35.1289 32.7626C33.8454 32.8047 31.2152 32.8636 30.9627 32.7626C30.6471 32.6364 29.8274 29.4795 30.3324 27.7122C30.675 26.513 38.4756 26.4876 38.7908 26.5305C39.1059 26.5735 40.948 29.094 42.8053 29.094C45.127 29.094 46.7892 27.8246 47.6115 27.8246" stroke="black" stroke-width="2" stroke-linecap="round"/>
<path d="M30.4482 27.5948C28.0048 28.2719 25.1028 29.4327 24.7653 29.5171C24.3435 29.6227 19.0606 26.5816 18.5334 26.8452C18.0062 27.1089 15.6863 29.3232 17.1098 30.694C18.5334 32.0647 19.399 31.1315 19.8306 31.2707C21.3301 31.7544 24.6489 33.91 25.5452 33.6991C26.2622 33.5304 29.1126 32.8555 30.4482 32.5392" stroke="black" stroke-width="2" stroke-linecap="round"/>
<path d="M52.2959 30.4622C54.9458 33.5263 56.3564 35.3253 56.7676 37.087C57.2816 39.2892 55.4394 41.0524 54.1181 40.979C52.7967 40.9056 44.4822 37.821 43.6013 37.087C42.7204 36.353 43.2477 32.0893 44.4223 32.6032C45.3619 33.0143 46.5853 34.5451 47.3719 35.0591C48.1586 35.573 51.763 35.7599 51.763 35.7599" stroke="black" stroke-width="2" stroke-linecap="round"/>
<path d="M48.2876 34.6738C49.9989 33.7353 52.6962 31.548 52.4312 30.8192C52.1 29.9083 48.6529 28.0612 47.6592 27.8127" stroke="black" stroke-width="2" stroke-linecap="round"/>
<path d="M41.18 24.6666C39.835 22.5817 38.7252 19.1873 42.3667 16.6798C46.0082 14.1723 47.5558 19.5097 47.5558 21.6115C47.5558 25.7672 42.8613 27.2729 41.18 24.6666Z" stroke="black" stroke-width="2" stroke-linecap="round"/>
<path d="M42.9582 15.7443C40.778 15.9866 39.4809 19.0178 39.8965 19.7971C40.3122 20.5765 40.9352 18.4525 43.3256 18.6019C44.1569 18.6538 44.8326 18.6019 46.7031 18.6019C48.3071 18.6019 48.4176 17.9264 48.1058 17.5107C47.7941 17.095 45.764 15.4324 42.9582 15.7443Z" fill="black" stroke="black" stroke-width="2" stroke-linecap="round"/>
<path d="M33.5634 45.767C32.7835 54.0387 42.8873 55.1691 43.6807 54.9708C44.4742 54.7724 49.0819 48.2284 48.2223 47.3027C47.3628 46.377 41.4404 44.1564 39.4569 43.958" stroke="black" stroke-width="2" stroke-linecap="round"/>
<path d="M48.2929 48.4678C49.8149 48.6245 53.6524 50.8501 55.2591 51.5112C56.8658 52.1723 62.78 59.2218 63.3172 59.2889C63.8545 59.3561 69.119 57.6702 71.1209 58.1312C73.034 58.5718 65.8142 63.9467 64.5178 65.1202C63.418 66.1158 62.0366 62.8384 60.8279 61.8982C60.2581 61.4551 58.2575 60.4404 56.5119 58.9809C54.5545 57.3443 52.829 55.2726 52.0534 55.2726C49.9045 55.2726 46.1811 54.7814 44.0322 54.7814" stroke="black" stroke-width="2" stroke-linecap="round"/>
<path d="M34.333 50.4517C35.1258 53.8897 34.8953 57.9398 35.6831 58.2429C36.6678 58.6217 45.255 59.0761 45.4823 58.2429C45.6641 57.5763 45.3561 55.7687 45.4823 55.0112" stroke="black" stroke-width="2" stroke-linecap="round"/>
<path d="M39.0917 43.798C41.8281 43.2644 45.1153 45.4789 45.8245 45.6425C46.711 45.8471 47.0403 40.2786 46.8357 39.3921" stroke="black" stroke-width="2" stroke-linecap="round"/>
<path d="M37.1326 59.105C37.0899 61.1169 36.9274 65.2177 36.6191 65.526C36.4201 65.7249 34.0447 67.1134 31.6423 69.1184C29.3919 70.9965 27.1076 73.4964 26.8591 73.7448C26.3455 74.2585 23.9389 73.7448 23.163 75.4477C22.8337 76.1705 28.5931 84.6672 29.492 84.2819C30.3909 83.8967 32.0358 83.2863 29.1126 76.7076C28.6063 75.5683 40.5977 70.5856 41.7558 68.6081C42.914 66.6305 43.4253 61.866 43.9389 59.105" stroke="black" stroke-width="2" stroke-linecap="round"/>
<path d="M75.6589 35.3994C71.6973 36.9021 72.3752 42.0592 74.6525 43.9793C77.1011 46.3708 80.988 46.4229 82.7957 42.6124C84.9025 38.1712 80.6108 33.5211 75.6589 35.3994Z" stroke="black" stroke-width="2" stroke-linecap="round"/>
<path d="M41.2196 25.0645C41.2196 25.0645 40.805 27.0861 40.9026 27.7681" stroke="black" stroke-width="2" stroke-linecap="round"/>
<path d="M45.2812 25.7788C45.2812 25.7788 45.444 27.8211 46.6502 27.963" stroke="black" stroke-width="2" stroke-linecap="round"/>
<path d="M38.7715 26.5279L40.4995 26.5278" stroke="black" stroke-width="2" stroke-linecap="round"/>
<path d="M45.9169 27.3579C46.4603 27.5055 47.534 27.7222 47.8321 27.8712" stroke="black" stroke-width="2" stroke-linecap="round"/>
<path d="M27.1719 73.8728L29.2623 76.1854" stroke="black" stroke-width="2" stroke-linecap="round"/>
<path d="M63.4755 59.3799L61.4287 61.8464" stroke="black" stroke-width="2" stroke-linecap="round"/>
<path d="M40.371 69.274C40.2896 68.8126 37.6577 66.8695 36.3519 65.9556L28.123 73.5828L29.7856 75.1435C33.348 73.3793 40.4524 69.7354 40.371 69.274Z" fill="black" stroke="black" stroke-width="2" stroke-linecap="round"/>
<path d="M56.2119 52.9947C55.4532 53.1753 54.541 55.2076 54.1797 56.2013L60.8635 61.169L62.128 59.3625C60.4721 57.1647 56.9706 52.8141 56.2119 52.9947Z" fill="black" stroke="black" stroke-width="2" stroke-linecap="round"/>
<path d="M69.496 44.1782L65.4717 47.951" stroke="black" stroke-width="2" stroke-linecap="round"/>
<path d="M72.7225 46.5762L71.7295 47.6987" stroke="black" stroke-width="2" stroke-linecap="round"/>
<path d="M74.3623 42.9926C74.9364 42.6082 75.7445 42.6472 76.0899 42.9926C76.4353 43.338 77.0512 44.0085 76.6936 44.7627" stroke="black" stroke-width="2" stroke-linecap="round"/>
<path d="M73.3154 38.4355C74.6069 38.4355 74.9364 38.1315 75.3758 37.6372C75.7084 37.263 75.8878 36.297 75.8062 35.854" stroke="black" stroke-width="2" stroke-linecap="round"/>
<path d="M82.4922 38.4473C81.8305 38.6259 81.4182 39.2616 81.5833 40.054C81.7484 40.8464 82.0229 41.4272 82.9051 41.7492" stroke="black" stroke-width="2" stroke-linecap="round"/>
</svg>
