<svg width="100" height="100" viewBox="0 0 100 100" fill="none" xmlns="http://www.w3.org/2000/svg">
<path d="M26.3103 77.8463C25.3784 77.8192 24.6646 77.3446 24.6083 76.7147C24.509 74.9502 24.4083 72.5923 24.3432 69.8631C24.0991 59.6287 24.5049 52.1171 24.7739 47.0031C25.0697 40.8799 25.5204 27.7894 25.7973 16.8743C25.7958 16.2809 26.5364 15.7463 27.4535 15.6845C37.4393 14.9767 45.944 15.3381 60.3713 15.2132C66.2731 15.187 69.3164 14.9911 74.6379 15.2902C75.5773 15.3617 76.2435 15.8442 76.2524 16.482C76.2374 17.8546 76.169 19.784 76.1525 22.0245C75.9313 42.3379 77.116 54.6987 75.8815 70.1121C75.779 71.5449 75.6052 73.7203 75.2607 76.3352C75.2147 76.9365 74.4667 77.4267 73.5422 77.444C68.6895 77.6147 66.5159 77.7568 61.4986 77.818C49.2898 78.0749 37.5737 78.0669 26.3103 77.8463Z" stroke="black" stroke-width="2" stroke-miterlimit="10" stroke-linecap="round"/>
<path d="M31.0546 83.1553C28.1577 83.1556 26.0474 79.5386 24.0771 77.8981C22.1068 76.2576 58.8931 76.9324 75.3655 76.9324C76.5457 76.7615 78.3149 79.0263 80.4087 81.7603C83.0258 85.1779 40.9132 83.1546 31.0546 83.1553Z" fill="black"/>
<path d="M34.7461 60.8223L50.4883 60.8223" stroke="black" stroke-width="8" stroke-miterlimit="10" stroke-linecap="round"/>
<path d="M32.8022 29.8014C32.6018 31.8384 32.4948 34.5234 32.6549 36.2053C32.7549 37.4705 65.8421 36.2597 67.2839 36.2664C68.9326 36.2807 68.4455 34.0436 68.4591 30.996C68.486 28.041 67.2511 28.8982 62.2316 28.9171C52.5131 28.8929 37.5413 29.2419 37.2477 29.2274C36.9542 29.2129 32.869 29.1224 32.8022 29.8014Z" stroke="black" stroke-width="2" stroke-miterlimit="10" stroke-linecap="round"/>
<path d="M32.7465 43.1574C32.5528 45.2407 32.4458 47.9257 32.6125 49.6539C32.7125 50.9191 65.7931 49.662 67.2349 49.6687C68.8836 49.683 68.3898 47.3996 68.4034 44.352C68.4303 41.3969 67.1954 42.2542 62.1693 42.2268C52.4507 42.2026 37.7664 42.579 37.1853 42.5371C36.6043 42.4952 32.8 42.3858 32.7465 43.1574Z" stroke="black" stroke-width="2" stroke-miterlimit="10" stroke-linecap="round"/>
</svg>
