<svg width="100" height="100" viewBox="0 0 100 100" fill="none" xmlns="http://www.w3.org/2000/svg">
<path d="M50.7556 39.3527C50.7556 39.3527 51.0186 19.3978 44.2306 19.0108C39.3936 18.7348 39.2126 23.8548 35.7166 24.6968C31.7656 25.6488 27.3626 27.3968 28.4826 31.3718C30.2286 37.5658 43.9425 43.8978 43.9425 43.8978C43.9425 43.8978 28.4016 43.4628 24.8456 46.9288C21.2896 50.3938 23.3676 53.2568 26.8946 57.3488C30.4216 61.4418 29.0805 68.5768 34.1245 67.3218C39.1685 66.0658 47.5555 51.5518 47.5555 51.5518C47.5555 51.5518 47.5566 67.4218 50.9286 71.0618C51.2496 71.4088 51.5706 71.6747 51.8906 71.8707C54.9276 73.7257 57.9076 69.2508 60.9586 67.7968C64.3306 66.1898 73.5706 63.2088 71.1306 58.7268C68.6906 54.2448 55.3435 47.0568 55.3435 47.0568C55.3435 47.0568 67.5666 48.6948 72.3236 46.0908C77.0806 43.4868 79.3946 39.2978 74.7096 35.2348C70.0256 31.1728 72.1976 26.9258 67.6706 25.0058C63.1436 23.0858 59.3676 25.6507 56.9376 29.7067C54.5076 33.7627 50.7556 39.3527 50.7556 39.3527Z" stroke="black" stroke-width="2" stroke-miterlimit="10" stroke-linecap="round" stroke-linejoin="round"/>
<path d="M44.6555 56.1844C44.6555 56.1844 41.4395 68.3364 38.5775 73.4224C35.9345 78.1204 35.3065 77.3164 36.3405 79.3524C37.3755 81.3884 39.0695 81.2535 41.1225 76.7645C43.4685 71.6325 44.6435 66.4684 45.4875 63.5344C46.3325 60.6014 47.4115 56.3514 47.4115 56.3514L47.3435 52.4404L44.6555 56.1844Z" stroke="black" stroke-width="2" stroke-miterlimit="10" stroke-linecap="round" stroke-linejoin="round"/>
<path d="M44.4875 57.2997L45.5635 58.0007L46.8735 58.1977L46.8355 53.8467L44.4875 57.2997Z" stroke="black" stroke-width="2" stroke-miterlimit="10" stroke-linecap="round" stroke-linejoin="round"/>
<path d="M52.7356 72.2551C55.2246 73.1421 57.4896 72.5141 60.3056 70.2981C63.1226 68.0831 65.5546 67.6661 68.7346 65.4731C71.9136 63.2791 74.4896 61.8971 72.4296 57.9551C70.9756 55.1721 60.5386 48.7051 60.5386 48.7051C60.5386 48.7051 68.1206 49.5241 71.1156 48.2491C74.1116 46.9741 78.9936 43.8451 77.1546 38.7041" stroke="black" stroke-width="2" stroke-miterlimit="10" stroke-linecap="round" stroke-linejoin="round"/>
</svg>
