<svg width="100" height="100" viewBox="0 0 100 100" fill="none" xmlns="http://www.w3.org/2000/svg">
<path d="M67.8857 60.9083C67.651 65.6564 68.0438 76.4444 68.364 80.9661C63.8684 83.7397 53.6664 84.19 49.1428 84.1697C40.5809 84.1697 33.0503 81.7985 30.0382 79.6582C31.0099 62.3682 28.27 51.7416 26.2604 41.191C25.9066 39.7954 25.7704 39.0495 25.4282 37.8565C24.9868 36.3173 30.4077 34.85 31.8196 36.9905C32.6319 38.2222 38.4998 47.9016 49.1427 48.2872C60.0714 47.6381 63.8336 41.9734 65.5854 39.3109C66.5854 37.7909 72.6164 39.6025 71.805 41.6659C70.4383 45.1413 68.1792 54.9731 67.8857 60.9083Z" stroke="black" stroke-width="2"/>
<path d="M42.7775 46.6829C42.0981 39.858 40.3638 22.5079 40.1044 20.4696C39.7802 17.9218 39.3397 16.5001 40.8692 15.9539C41.9387 15.5719 45.893 14.4364 46.2954 16.6093C46.4807 17.6099 48.4289 37.9587 49.4017 48.4895" stroke="black" stroke-width="2"/>
<path d="M52.6074 48.2342L56.6851 33.761C57.2196 32.5437 57.3165 32.297 58.6941 32.297C60.4161 32.297 63.1528 32.1984 63.0811 33.1135C63.0237 33.8456 61.5998 41.0119 61.1454 43.7572" stroke="black" stroke-width="2"/>
<path d="M48.0293 33.1311L49.5587 24.7062C49.6687 24.0919 50.2133 22.9734 51.5115 23.4135C53.1342 23.9636 55.097 24.1171 55.3954 25.2752C55.7957 26.8285 53.4699 40.9469 52.6077 48.2339" stroke="black" stroke-width="2"/>
<ellipse cx="50" cy="63.5" rx="6" ry="5.5" fill="black"/>
<path d="M35.8438 41.3366C35.5929 37.9571 34.4599 31.5039 35.2155 30.4114C35.971 29.3189 41.4541 30.0962 41.4541 30.0962" stroke="black" stroke-width="2"/>
</svg>
