<svg width="100" height="100" viewBox="0 0 100 100" fill="none" xmlns="http://www.w3.org/2000/svg">
<ellipse cx="53.188" cy="48.6285" rx="29.2373" ry="15.0498" transform="rotate(-23.3847 53.188 48.6285)" stroke="black" stroke-width="2"/>
<path d="M39.5568 38.8858C34.039 42.9098 28.7984 51.1342 34.0991 54.5248C40.725 58.763 56.7503 52.9295 62.4809 49.2286C68.2114 45.5276 73.015 39.0081 71.646 35.5423C70.4701 32.5653 66.2795 29.7989 58.7679 31.2535" stroke="black" stroke-width="2" stroke-linecap="round"/>
<path d="M28.2993 49.3811C26.5782 52.5881 27.4658 56.3708 31.9937 58.662C35.8989 60.6382 43.4587 61.5147 53.2434 58.0386" stroke="black" stroke-width="2" stroke-linecap="round"/>
<path d="M71.9417 31.2756C75.0672 32.4287 76.7506 34.8985 76.8378 38.0409C76.9468 41.9689 71.546 47.2606 70.7822 47.9152" stroke="black" stroke-width="2" stroke-linecap="round"/>
<path d="M47.9774 46.2313C45.763 45.9455 48.2679 43.3154 51.1017 41.8367C53.9354 40.358 57.1961 41.556 55.8347 43.2209C55.1863 44.0138 52.6591 46.8354 47.9774 46.2313Z" fill="black" stroke="black" stroke-width="2" stroke-linecap="round"/>
<path d="M56.6729 56.5691C57.2046 56.4196 58.3878 56.0408 58.8666 55.7217" stroke="black" stroke-width="2" stroke-linecap="round"/>
<path d="M33.0639 43.8794C27.7387 48.8999 24.0123 55.1774 28.1975 61.2976C33.429 68.9479 54.0757 64.0412 59.1359 61.8601C65.6611 59.0475 76.1323 53.6999 80.4199 42.6045" stroke="black" stroke-width="2" stroke-linecap="round"/>
<path d="M43.4133 71.9297L31.8965 76.7898" stroke="black" stroke-width="2" stroke-linecap="round"/>
<path d="M27.7706 72.1777L22.9727 74.0463" stroke="black" stroke-width="2" stroke-linecap="round"/>
<path d="M19.6943 55.3125L14.002 57.969" stroke="black" stroke-width="2" stroke-linecap="round"/>
</svg>
