<svg width="100" height="100" viewBox="0 0 100 100" fill="none" xmlns="http://www.w3.org/2000/svg">
<path d="M18.6136 49.521C37.5636 57.07 62.5137 48.536 81.1537 50.216C87.2937 50.77 75.9636 69.1721 70.7336 69.7571C49.1236 72.1701 33.3637 71.2511 28.7637 69.9361C19.7937 67.3751 14.0236 47.695 18.6136 49.521Z" stroke="black" stroke-width="2" stroke-miterlimit="10" stroke-linecap="round" stroke-linejoin="round"/>
<path d="M33.2637 71.0321C33.2637 71.0321 35.6237 79.0231 37.5337 79.0681C39.9837 79.1251 58.9537 79.1171 62.1437 78.9561C64.3637 78.8431 66.5137 70.7981 66.5137 70.7981" stroke="black" stroke-width="2" stroke-miterlimit="10" stroke-linecap="round" stroke-linejoin="round"/>
<g opacity="0.996361">
<path d="M37.4434 79.0358C37.4434 79.0358 51.0634 82.5068 61.4934 82.1088C71.9234 81.7108 79.5134 79.8809 78.6034 75.9229C78.0234 73.3809 66.8634 71.1328 66.8634 71.1328C66.8634 71.1328 65.8834 75.2268 63.0734 78.4728" fill="black"/>
<path d="M37.4434 79.0358C37.4434 79.0358 51.0634 82.5068 61.4934 82.1088C71.9234 81.7108 79.5134 79.8809 78.6034 75.9229C78.0234 73.3809 66.8634 71.1328 66.8634 71.1328C66.8634 71.1328 65.8834 75.2268 63.0734 78.4728" stroke="black" stroke-width="2" stroke-miterlimit="10" stroke-linecap="round" stroke-linejoin="round"/>
</g>
<path opacity="0.996361" d="M20.5635 49.9427C20.5635 41.6497 27.5034 35.1367 36.0134 35.1367C44.5234 35.1367 51.9734 40.9637 51.6534 51.7517" stroke="black" stroke-width="2" stroke-miterlimit="10" stroke-linejoin="round"/>
<path opacity="0.996361" d="M24.8135 51.2067C24.8135 51.2067 25.1135 43.9157 30.8135 41.0197C34.7535 39.0197 40.1134 38.6916 43.6334 41.8706C47.1534 45.0506 47.6334 52.2427 47.6334 52.2427" stroke="black" stroke-width="2" stroke-miterlimit="10" stroke-linecap="round" stroke-linejoin="round"/>
<path opacity="0.996361" d="M38.2437 52.6647L46.1337 46.4707" stroke="black" stroke-width="2" stroke-miterlimit="10" stroke-linecap="round" stroke-linejoin="round"/>
<path opacity="0.996361" d="M28.1338 43.8184L35.4838 52.4013" stroke="black" stroke-width="2" stroke-miterlimit="10" stroke-linecap="round" stroke-linejoin="round"/>
<path opacity="0.996361" d="M36.7437 52.5217L37.5537 39.9727" stroke="black" stroke-width="2" stroke-miterlimit="10" stroke-linecap="round" stroke-linejoin="round"/>
<path opacity="0.996361" d="M29.4536 36.263C29.4536 36.263 24.9237 31.721 27.6637 27.314C30.4037 22.906 37.1736 24.285 38.4536 25.035C39.7336 25.785 36.9236 18.335 43.0936 17.183C51.2036 15.668 49.2937 24.058 49.2937 24.058C49.2937 24.058 56.0337 20.99 59.2337 25.888C62.4237 30.786 55.3137 35.667 55.3137 35.667C55.3137 35.667 63.5037 34.106 64.4137 39.632C65.2637 44.79 59.8336 46.257 59.8336 46.257C59.8336 46.257 68.3436 45.778 68.2036 49.468" stroke="black" stroke-width="2" stroke-miterlimit="10" stroke-linecap="round" stroke-linejoin="round"/>
<path opacity="0.996361" d="M60.3037 29.4151C71.3537 24.3341 85.7937 37.2541 75.5237 49.5981" stroke="black" stroke-width="2" stroke-miterlimit="10" stroke-linecap="round" stroke-linejoin="round"/>
<path opacity="0.996361" d="M69.0337 33.0391C69.0337 33.0391 73.0736 34.5941 74.4536 38.4201" stroke="black" stroke-width="2" stroke-miterlimit="10" stroke-linecap="round" stroke-linejoin="round"/>
<path opacity="0.996361" d="M44.6937 37.3157L44.3438 26.5957" stroke="black" stroke-width="2" stroke-miterlimit="10" stroke-linecap="round" stroke-linejoin="round"/>
</svg>
