<svg width="100" height="100" viewBox="0 0 100 100" fill="none" xmlns="http://www.w3.org/2000/svg">
<path d="M17.2748 48.9948C24.0574 43.553 34.3325 42.2925 38.8727 42.2157C43.413 42.1388 47.7176 41.8178 55.1312 43.0797C64.3981 44.6571 70.0174 48.9948 70.9047 52.4452C71.7919 55.8956 69.9188 62.9937 55.1312 66.0499C40.3435 69.106 25.9503 64.6697 22.9928 63.6838C20.0352 62.698 8.79664 55.7971 17.2748 48.9948Z" stroke="black" stroke-width="2" stroke-linecap="round"/>
<path d="M14.2692 53.1842C13.7274 56.2129 16.3604 63.1205 20.3864 66.613C22.2686 68.2458 25.3312 74.2681 46.082 73.7788C66.1389 73.3059 70.3128 59.6506 71.0219 55.0025" stroke="black" stroke-width="2" stroke-linecap="round"/>
<path d="M36.8523 47.9027C34.669 49.0612 33.9051 50.2501 29.8481 49.7182C21.4608 48.6185 19.4422 53.227 21.4608 55.1038C23.7451 57.2276 26.9113 57.2809 29.169 57.2809C31.4267 57.2809 28.7642 59.9379 30.4759 61.4398C32.1875 62.9416 34.9722 62.1786 36.8523 61.4398C40.9476 59.8302 41.8507 62.2897 47.6732 63.0026C53.4956 63.7156 52.2478 61.4398 54.3987 59.9571C56.894 58.237 61.7103 58.1106 63.4927 56.2094C65.2751 54.3082 62.9791 49.0189 54.742 51.0514C52.2516 51.666 51.8797 50.0497 50.0191 48.6185C45.2158 44.9236 40.3587 46.0421 36.8523 47.9027Z" stroke="black" stroke-width="2" stroke-linecap="round"/>
<path d="M50.8999 49.2581C53.5962 49.1583 57.7235 49.7573 63.2996 51.7546C67.2626 53.1741 70.8117 57.2543 67.7828 60.565" stroke="black" stroke-width="2" stroke-linecap="round"/>
<path d="M18.7341 65.1577L16.1709 60.2247L20.3301 62.4011L26.9557 64.8676L33.6297 66.1733L40.7873 67.0922L50.6532 66.8021L59.1166 65.1577L66.7094 61.4822L69.1276 60.6117L64.9684 67.0922L60.2773 70.3325L54.3771 72.7022L44.433 73.8878H38.5556L30.1098 72.7022L23.6671 69.7038L18.7341 65.1577Z" fill="black"/>
<path d="M17.4106 60.1687C13.6843 56.173 17.5539 52.7283 21.7496 51.211M34.758 49.0193C32.1219 49.0954 30.1232 49.2228 28.11 49.5468" stroke="black" stroke-width="2" stroke-linecap="round"/>
<path d="M65.6924 46.111C69.2002 43.5263 77.5308 35.9752 79.0373 34.5572C80.5438 33.1392 83.0368 33.9485 85.3843 35.6006C87.365 36.9945 80.4252 41.1263 76.8804 44.0064C74.0446 46.3105 70.9725 48.6589 69.791 49.545" stroke="black" stroke-width="2" stroke-linecap="round"/>
<path d="M70.4966 50.842C75.1587 47.5549 84.2868 40.5867 84.8052 39.4338C85.5973 37.672 86.1774 36.4564 85.5973 35.9408" stroke="black" stroke-width="2" stroke-linecap="round"/>
<path d="M50.2754 28.9374C51.1582 30.5265 51.5248 30.8796 51.5248 31.801C51.5248 33.4317 49.5797 33.7963 51.5248 35.9409" stroke="black" stroke-width="2" stroke-linecap="round"/>
<path d="M33.0645 28.9374C33.7589 30.6734 35.1641 32.1515 34.6454 33.3485C33.9971 34.8448 32.7003 34.873 34.6454 37.0176" stroke="black" stroke-width="2" stroke-linecap="round"/>
<path d="M40.7637 26.1124C41.411 29.0551 44.9421 27.4661 44.191 30.5923C43.81 32.1778 40.1751 32.9982 43.2354 35.9408" stroke="black" stroke-width="2" stroke-linecap="round"/>
<path d="M81.7865 36.2378C81.2895 35.7406 79.8136 36.1155 80.0007 37.4297C80.1028 38.1473 81.1595 38.3495 81.6592 37.8532C82.1622 37.3536 82.4077 36.8591 81.7865 36.2378Z" fill="black"/>
<path fill-rule="evenodd" clip-rule="evenodd" d="M47.423 50.0204C48.1861 50.4632 48.8525 51.0105 49.2624 51.6172C49.6064 52.1264 49.9094 52.7422 49.9818 53.4123C50.0589 54.125 49.8666 54.8489 49.3075 55.4609C48.7804 56.0379 47.9905 56.4475 46.9877 56.731C45.9754 57.0172 44.6643 57.198 42.9999 57.2575C40.9561 57.3305 39.316 57.1677 38.0674 56.8105C36.8406 56.4595 35.8533 55.8787 35.3385 55.0029C34.7852 54.0613 34.9168 53.028 35.4244 52.1484C35.9148 51.2985 36.7748 50.5331 37.8537 49.8934C40.1156 48.552 42.6151 48.4765 44.6716 48.9509C45.7024 49.1887 46.6453 49.5692 47.423 50.0204ZM44.3759 52.2802L44.3759 52.2802L44.4288 52.2777C44.5077 52.2746 44.5529 52.2756 44.592 52.28C44.6478 52.2862 44.7699 52.3066 45.0167 52.4571C45.2453 52.5965 45.3401 52.7143 45.3842 52.779C45.4096 52.8162 45.4296 52.8528 45.4542 52.9022L45.4627 52.9196L45.4628 52.9197C45.4742 52.943 45.4934 52.9822 45.5033 53.0017C45.521 53.0366 45.5585 53.1096 45.6116 53.1862C45.9259 53.6403 46.5489 53.7536 47.003 53.4392C47.4425 53.1349 47.5627 52.5415 47.2849 52.092C47.2823 52.0867 47.2775 52.0769 47.2696 52.0612C47.2634 52.0488 47.2554 52.0328 47.2453 52.0124C47.2019 51.9249 47.1355 51.7973 47.0369 51.6527C46.8331 51.3537 46.5301 51.0374 46.0579 50.7495C45.6039 50.4726 45.2055 50.3362 44.8145 50.2924C44.6301 50.2718 44.4703 50.2745 44.3493 50.2793C44.2924 50.2816 44.252 50.2836 44.2191 50.2853L44.2191 50.2853C44.1687 50.2879 44.1362 50.2896 44.09 50.2896C43.5377 50.2896 43.09 50.7373 43.09 51.2896C43.09 51.8419 43.5378 52.2896 44.09 52.2896C44.1877 52.2896 44.3026 52.2839 44.3759 52.2802Z" fill="black"/>
</svg>
