<svg width="100" height="100" viewBox="0 0 100 100" fill="none" xmlns="http://www.w3.org/2000/svg">
<path d="M24.2752 80.7013C23.5646 79.9907 23.9791 47.0209 24.2752 30.6248C24.2989 29.289 28.6056 20.8538 29.3828 19.9655C30.1601 19.0772 34.3794 27.1827 34.3794 30.6248C34.3794 34.0669 35.0456 79.702 34.3794 80.7013C33.7132 81.7007 25.1635 81.5896 24.2752 80.7013Z" stroke="black" stroke-width="2" stroke-linecap="round"/>
<path d="M29.4731 67.5538C28.2267 67.5119 28.1157 68.7616 28.968 69.239C30.0335 69.8357 30.7195 67.5957 29.4731 67.5538Z" fill="black" stroke="black" stroke-width="2" stroke-linecap="round"/>
<path d="M29.4731 47.2056C28.2267 47.1637 28.1157 48.4135 28.968 48.8909C30.0335 49.4876 30.7195 47.2475 29.4731 47.2056Z" fill="black" stroke="black" stroke-width="2" stroke-linecap="round"/>
<path d="M43.2733 80.7012C42.3771 80.2465 43.2733 48.7641 43.2733 31.5692C43.2971 30.2334 46.2748 21.287 48.3211 18.9483C49.0984 18.06 53.3775 27.1826 53.3775 30.6247C53.3775 34.0668 54.0437 79.7019 53.3775 80.7012C52.7113 81.7006 45.1025 81.6292 43.2733 80.7012Z" stroke="black" stroke-width="2" stroke-linecap="round"/>
<path d="M49.0409 67.9504C48.1873 67.0412 47.2267 67.8484 47.4938 68.7881C47.8276 69.9627 49.8944 68.8596 49.0409 67.9504Z" fill="black" stroke="black" stroke-width="2" stroke-linecap="round"/>
<path d="M49.1838 48.1782C49.0684 46.9365 47.8146 46.9836 47.4483 47.8893C46.9905 49.0214 49.2991 49.4199 49.1838 48.1782Z" fill="black" stroke="black" stroke-width="2" stroke-linecap="round"/>
<path d="M63.9594 80.7014C63.0632 80.2467 63.746 48.7642 63.746 31.5693C63.7697 30.2335 67.2633 20.962 69.3097 18.6233C70.087 17.735 74.0785 29.5567 74.0785 31.0105C74.0785 34.4526 74.7447 79.702 74.0785 80.7014C73.4123 81.7007 65.7885 81.6294 63.9594 80.7014Z" stroke="black" stroke-width="2" stroke-linecap="round"/>
<path d="M68.4675 67.6617C67.5288 68.4826 68.3016 69.4711 69.2502 69.2373C70.4358 68.9451 69.4062 66.8407 68.4675 67.6617Z" fill="black" stroke="black" stroke-width="2" stroke-linecap="round"/>
<path d="M69.5562 47.4281C68.5038 46.759 67.7734 47.7792 68.2652 48.6233C68.88 49.6785 70.6086 48.0972 69.5562 47.4281Z" fill="black" stroke="black" stroke-width="2" stroke-linecap="round"/>
<path d="M23.8266 43.4331C22.2341 43.4331 18.9934 43.4331 17.5409 43.4331C15.7254 43.4331 16.2031 51.8415 16.872 51.8415C17.0078 51.8415 19.4781 51.8612 23.8266 51.8838M34.5685 43.4331C37.3028 43.4331 40.1701 43.4331 43.0866 43.4331M34.8128 51.9277C37.5095 51.9363 40.1375 51.9433 43.0866 51.9469M53.5875 43.4331C57.1134 43.4331 60.1855 43.4331 63.4148 43.4331M74.3688 43.4331C79.6304 43.4331 83.0504 43.4331 83.1842 43.4331C83.7575 43.4331 84.0441 50.2171 83.1842 51.2682C82.9909 51.5045 79.5677 51.6635 74.3688 51.768M53.5875 51.9441C57.0968 51.937 60.1726 51.923 63.4148 51.8996" stroke="black" stroke-width="2" stroke-linecap="round"/>
<path d="M17.159 43.5781L23.9023 43.3506V51.9123L17.159 52.1017C16.856 51.4324 16.265 49.6999 16.3256 48.124C16.3862 46.548 16.9065 44.4368 17.159 43.5781Z" fill="black"/>
<path d="M43.3369 43.6914L34.851 43.4644L34.5479 52.0638H43.3369V43.6914Z" fill="black"/>
<path d="M83.727 43.385L74.6259 43.1528L74.3008 51.9468L83.727 51.5813V43.385Z" fill="black"/>
<path d="M63.225 43.3963L54.1239 43.1528L53.7988 52.3758H63.225V43.3963Z" fill="black"/>
<path d="M23.8266 63.8125C22.2341 63.8125 18.9934 63.8125 17.5409 63.8125C15.7254 63.8125 16.2031 72.2209 16.872 72.2209C17.0078 72.2209 19.4781 72.2406 23.8266 72.2632M34.8128 63.8125C37.5471 63.8125 39.9512 63.8125 42.8678 63.8125M34.8128 72.3071C37.5095 72.3157 39.9187 72.3034 42.8678 72.3071M53.863 63.8125C57.389 63.8125 60.1855 63.8125 63.4148 63.8125M74.3688 63.8125C79.6304 63.8125 83.0504 63.8125 83.1842 63.8125C83.7575 63.8125 84.0441 70.5965 83.1842 71.6476C82.9909 71.8839 79.5677 72.0429 74.3688 72.1474M53.863 72.279C57.3724 72.2719 60.1726 72.3024 63.4148 72.279" stroke="black" stroke-width="2" stroke-linecap="round"/>
<path d="M17.159 63.9575L23.9023 63.73V72.2917L17.159 72.4811C16.856 71.8118 16.265 70.0793 16.3256 68.5033C16.3862 66.9274 16.9065 64.8161 17.159 63.9575Z" fill="black"/>
<path d="M43.3369 64.0708L34.851 63.8438L34.5479 72.4432H43.3369V64.0708Z" fill="black"/>
<path d="M83.727 63.7644L74.6259 63.5322L74.3008 72.3262L83.727 71.9607V63.7644Z" fill="black"/>
<path d="M63.225 63.7757L54.1239 63.5322L53.7988 72.7552H63.225V63.7757Z" fill="black"/>
</svg>
