<svg width="100" height="100" viewBox="0 0 100 100" fill="none" xmlns="http://www.w3.org/2000/svg">
<path d="M47.3271 47.4867C48.6656 46.692 51.7152 44.7847 52.3174 44.835C52.9197 44.8852 55.9325 46.1627 57.5009 46.9156" stroke="black" stroke-width="2" stroke-linecap="round"/>
<path d="M42.3804 59.5511C41.2513 57.4185 39.395 53.1632 39.3449 52.1595C39.2822 50.905 40.3867 45.6229 39.3449 43.6915C29.7505 25.9047 27.2204 16.982 27.6595 16.6684C28.0985 16.3548 37.1496 21.2985 41.6031 28.2611C46.0566 35.2236 49.9456 41.998 50.1338 42.2489C50.3219 42.4998 44.3198 51.4899 44.3825 52.4935C44.4327 53.2963 46.0489 56.5105 46.8852 58.0995" stroke="black" stroke-width="2" stroke-linecap="round"/>
<path d="M41.9655 62.9248C41.6861 61.3423 42.4917 59.92 43.0263 59.3368C43.9498 58.8508 46.1758 58.0537 47.6922 58.7535C49.5877 59.6284 57.0239 77.1982 57.2426 79.7499C57.4613 82.3015 52.1523 84.0511 50.4297 83.0662C49.5414 82.5583 42.1842 64.1643 41.9655 62.9248Z" fill="black" stroke="black" stroke-width="2" stroke-linecap="round"/>
<circle cx="43.8496" cy="42.4854" r="1.45803" fill="black"/>
<path d="M59.1037 49.4348C57.84 48.4422 57.4913 46.8452 57.5006 46.054C57.8643 45.0759 58.9909 42.9972 60.5875 42.507C62.5832 41.8943 79.8436 50.0232 81.7086 51.7782C83.5737 53.5333 80.7857 58.3782 78.8453 58.7936C77.8447 59.0077 60.0935 50.2122 59.1037 49.4348Z" fill="black" stroke="black" stroke-width="2" stroke-linecap="round"/>
<path d="M49.209 40.5225C50.5474 40.5225 53.3622 40.5225 53.9143 40.5225C54.4664 40.5225 57.8249 42.1118 59.4352 42.9065" stroke="black" stroke-width="2" stroke-linecap="round"/>
<path d="M34.8433 35.5593C26.1978 31.8641 23.0297 31.0434 21.4307 30.8065C19.4319 30.5104 16.2753 29.9442 15.9051 30.3144C15.535 30.6846 21.4296 38.992 32.6183 45.0943C36.5271 47.2262 38.9114 47.9272 39.6271 48.3961" stroke="black" stroke-width="2" stroke-linecap="round"/>
<path d="M50.2199 40.7456C50.5114 41.1587 51.2183 42.1014 51.1309 42.422C51.0434 42.7427 49.2967 45.3853 48.3613 46.5757" stroke="black" stroke-width="2" stroke-linecap="round"/>
<path d="M34.0596 35.377C35.6545 38.1829 38.9065 44.0606 39.1546 45.124C39.4028 46.1873 39.258 47.6346 39.1546 48.2254" stroke="black" stroke-width="2" stroke-linecap="round"/>
</svg>
