<svg width="100" height="100" viewBox="0 0 100 100" fill="none" xmlns="http://www.w3.org/2000/svg">
<path d="M47.7959 50.2761C45.2679 53.3401 41.3159 66.2181 41.3159 66.2181C41.3159 66.2181 44.3859 71.7731 54.8009 77.1481C64.1909 81.9941 73.6399 79.4361 77.7949 76.6701C79.6789 75.4151 83.4009 63.0541 76.9269 54.2421C70.5599 45.5781 66.9209 41.2031 66.9209 41.2031C66.9209 41.2031 59.9469 42.6191 55.9599 43.9371C51.9719 45.2551 51.6839 46.0661 51.6839 46.0661" stroke="black" stroke-width="2" stroke-miterlimit="10" stroke-linecap="round" stroke-linejoin="round"/>
<path d="M34.4621 39.817C30.0491 35.722 23.4421 30.2581 21.4311 27.2701C19.7471 24.7671 19.263 22.6691 21.562 20.3461C23.86 18.0221 27.186 18.9711 29.284 21.1911C31.278 23.3021 37.791 30.1721 41.404 34.0711C43.323 36.1411 37.2961 42.447 34.4621 39.817Z" fill="black" stroke="black" stroke-width="2" stroke-miterlimit="10" stroke-linecap="round" stroke-linejoin="round"/>
<path d="M37.8037 40.0529C37.8037 40.0529 51.4307 53.9059 53.3357 55.9899C55.2407 58.0729 58.4627 55.6039 58.0427 53.6699C57.6217 51.7359 52.3547 47.4329 49.9677 45.1509C47.5807 42.8679 41.0547 37.1318 41.0547 37.1318C41.0547 37.1318 40.3957 38.1388 39.5837 38.8688C38.7707 39.5988 37.8037 40.0529 37.8037 40.0529Z" stroke="black" stroke-width="2" stroke-miterlimit="10" stroke-linecap="round" stroke-linejoin="round"/>
<path d="M38.3933 31.6445C38.0983 34.0405 34.6003 36.8455 32.6523 37.9645" stroke="black" stroke-width="2" stroke-miterlimit="10" stroke-linecap="round" stroke-linejoin="round"/>
<path d="M23.3862 29.5125C22.9162 27.1835 27.6402 22.9045 29.7532 22.4775" stroke="black" stroke-width="2" stroke-miterlimit="10" stroke-linecap="round" stroke-linejoin="round"/>
<path d="M41.8469 64.5391L40.752 67.752C40.752 67.752 43.6309 71.173 45.8389 73.241C51.7359 78.762 62.0929 81.0021 67.5109 80.2291C74.1559 79.2821 78.009 76.5001 78.009 76.5001" stroke="black" stroke-width="2" stroke-miterlimit="10" stroke-linecap="round" stroke-linejoin="round"/>
<path d="M75.0012 69.3555C75.1092 69.9955 74.9872 70.9865 74.8872 71.6255" stroke="black" stroke-width="2" stroke-miterlimit="10" stroke-linecap="round" stroke-linejoin="round"/>
<path d="M63.4121 47.2559C65.5811 48.8019 66.9601 50.1559 68.8441 52.3229C70.4661 54.1879 72.6842 56.7979 73.5142 58.9789C74.1742 60.7129 74.6951 64.1959 74.6951 64.1959" stroke="black" stroke-width="2" stroke-miterlimit="10" stroke-linecap="round" stroke-linejoin="round"/>
</svg>
