<svg width="100" height="100" viewBox="0 0 100 100" fill="none" xmlns="http://www.w3.org/2000/svg">
<path d="M44.7438 55.8161C42.2609 54.5187 37.2157 52.0069 36.1419 52.4901C34.7998 53.0941 21.7813 70.4073 21.7813 71.1454C21.7812 71.8836 23.5696 72.7979 24.0394 72.4624C24.5091 72.1268 34.7326 59.5358 35.7392 59.4016C36.7458 59.2674 39.1483 60.1974 37.8195 62.2204C36.4736 64.2693 28.907 77.1373 29.1755 77.4057C29.4439 77.6741 30.3047 79.1614 31.3168 78.4867C31.8751 78.1145 41.9546 63.8355 43.3655 63.8355C44.3775 63.8355 46.2089 64.7994 45.4378 66.0525C44.7912 67.1032 35.446 81.7285 35.7392 82.1977C36.0709 82.7284 37.2155 83.9626 37.8195 83.4258C38.4234 82.8889 52.756 64.5066 52.6218 63.8355C52.3818 62.6354 49.1112 58.9972 47.4336 57.8117" stroke="black" stroke-width="2" stroke-linecap="round"/>
<path d="M65.0491 22.2214C62.9563 25.3157 57.2719 34.6196 53.9002 40.0305C53.1553 41.2276 58.8211 44.8809 60.1262 44.8809C61.4314 44.8809 70.1739 34.7343 74.1708 30.3295C78.1678 25.9247 79.9289 20.3296 76.0644 17.5809C70.9854 13.9683 66.6228 19.8944 65.0491 22.2214Z" fill="black" stroke="black" stroke-width="2" stroke-linecap="round"/>
<path d="M53.8579 41.1499C53.4042 42.091 51.7412 44.6454 52.1445 45.2907C52.6486 46.0973 55.224 47.8085 55.8794 47.9094C56.4037 47.99 58.4122 45.8475 59.3196 45.0408" stroke="black" stroke-width="2" stroke-linecap="round"/>
<path d="M52.5413 45.8833C49.6907 49.2883 44.3399 56.6357 43.8331 57.5858C43.1995 58.7736 44.778 60.2609 46.0449 59.1523C47.0585 58.2655 52.0207 51.0788 54.845 47.5419" stroke="black" stroke-width="2" stroke-linecap="round"/>
</svg>
