<svg width="100" height="100" viewBox="0 0 100 100" fill="none" xmlns="http://www.w3.org/2000/svg">
<path d="M21.3121 29.4523C17.9571 29.6831 18.6511 23.9728 20.8721 23.7913C24.9971 23.4544 31.0371 22.4618 34.5571 23.3794C38.0271 24.2852 44.5571 26.8846 44.5571 26.8846L41.2871 32.5287C41.2871 32.5287 40.0771 31.0524 33.9571 29.5462C28.1171 28.1061 24.3771 29.2412 21.3121 29.4523Z" stroke="black" stroke-width="2" stroke-miterlimit="10" stroke-linecap="round" stroke-linejoin="round"/>
<path d="M41.117 34.357C40.487 33.86 44.877 24.9158 46.487 25.5055C48.167 26.1204 60.527 28.9167 63.987 32.1902C67.437 35.4637 68.977 40.9272 63.317 42.4102C57.667 43.8932 45.017 44.4927 46.417 52.3152C47.807 60.1378 53.177 69.8775 57.077 69.4149C62.187 68.8106 67.9969 62.1911 67.9969 62.1911L72.287 68.652C72.287 68.652 64.2369 77.621 57.3769 76.3063C50.5169 74.9916 47.827 69.1223 45.477 65.3255C43.017 61.3605 39.277 55.0903 39.957 49.7069C40.637 44.3235 47.037 38.4292 47.167 37.3267C47.297 36.2243 42.277 35.2854 41.117 34.357Z" stroke="black" stroke-width="2" stroke-miterlimit="10" stroke-linecap="round" stroke-linejoin="round"/>
<path d="M66.147 41.0176C66.147 41.0176 77.927 59.3964 79.557 61.4726C81.187 63.5489 80.937 66.2799 78.427 67.7458C77.097 68.5185 73.597 70.7254 72.217 68.5148C70.847 66.3043 64.747 57.5775 63.147 55.2644C61.537 52.9513 54.387 44.5508 54.387 44.5508C54.387 44.5508 58.087 43.6856 60.967 43.1632C63.837 42.6409 66.147 41.0176 66.147 41.0176Z" stroke="black" stroke-width="2" stroke-miterlimit="10" stroke-linecap="round" stroke-linejoin="round"/>
<path d="M48.3372 47.0964C48.3372 47.0964 54.6071 49.3851 55.9971 53.5416C57.3871 57.6981 57.9071 60.1086 59.6671 59.7634C61.4171 59.4182 64.0872 56.9501 64.0872 56.9501L54.4971 44.5488C54.4971 44.5488 52.4972 44.8443 51.1072 45.4745C49.7072 46.1047 48.3372 47.0964 48.3372 47.0964Z" fill="black" stroke="black" stroke-width="2" stroke-miterlimit="10" stroke-linecap="round" stroke-linejoin="round"/>
<path d="M21.515 33.7148C21.515 33.7148 19.4801 41.0719 22.2231 44.9164C24.6371 48.3031 28.627 44.6108 28.857 42.3337C29.157 39.2335 21.515 33.7148 21.515 33.7148Z" fill="black" stroke="black" stroke-width="2" stroke-miterlimit="10" stroke-linecap="round" stroke-linejoin="round"/>
</svg>
