<svg width="100" height="100" viewBox="0 0 100 100" fill="none" xmlns="http://www.w3.org/2000/svg">
<path d="M26.1641 41.9492H74.3654C75.4598 56.8941 74.3654 72.4985 74.3654 74.2071C74.3654 75.9157 26.1641 76.501 26.1641 74.2071C26.1641 71.9132 26.1641 41.9492 26.1641 41.9492Z" stroke="black" stroke-width="2"/>
<path d="M45.8085 78.0617C23.4995 77.6769 25.3266 75.4188 25.5683 75.014C23.6914 74.2368 56.9719 75.0806 73.7038 74.0325C75.9704 72.0457 75.5109 76.4568 73.9993 77.8198C72.4878 79.1827 55.1944 78.2236 45.8085 78.0617Z" fill="black"/>
<path d="M79.7138 79.1315C75.4123 80.0361 69.5742 81.2452 44.2171 78.7529C41.1473 78.4512 35.4348 76.9805 34.0223 75.315C32.6098 73.6495 53.6612 77.1963 53.7783 76.0046C61.5659 76.0819 67.6179 75.5084 72.9855 73.6139C81.2157 74.4228 83.8992 76.0685 79.7138 79.1315Z" fill="black"/>
<path d="M24.4436 32.6256C24.4479 32.0849 24.8894 31.6582 25.4301 31.6582H75.2534C75.8087 31.6582 76.2568 32.1081 76.2443 32.6633C76.1969 34.7659 76.0232 39.5507 75.4123 40.9624C74.6216 42.7894 26.9771 41.7948 25.5921 40.9624C24.4973 40.3043 24.4256 34.8726 24.4436 32.6256Z" stroke="black" stroke-width="2"/>
<path d="M62.5761 23.3984C58.6729 23.3984 53.3899 27.6375 51.8018 30.6069C51.5053 31.1612 51.9569 31.7357 52.5849 31.7079C64.2041 31.1949 67.9364 23.3984 62.5761 23.3984Z" stroke="black" stroke-width="2"/>
<path d="M39.4131 17.7933C42.8426 16.242 49.1434 25.4853 50.7953 30.5677C50.9896 31.1655 50.5053 31.7351 49.8769 31.719C30.9249 31.2334 35.7766 19.4384 39.4131 17.7933Z" stroke="black" stroke-width="2"/>
<path d="M51.8662 42.955C43.959 43.495 27.8667 44.575 26.7559 44.575V41.6821L51.8662 42.955Z" fill="black"/>
<path d="M39.7594 55.7122L63.274 55.7122" stroke="black" stroke-width="2" stroke-linecap="round"/>
<path d="M42.5666 61.4639L51.5169 61.4639L60.4672 61.4639" stroke="black" stroke-width="2" stroke-linecap="round"/>
</svg>
