<svg width="100" height="100" viewBox="0 0 100 100" fill="none" xmlns="http://www.w3.org/2000/svg">
<path d="M65.4188 63.476L63.2158 59.585" stroke="black" stroke-width="2" stroke-miterlimit="10" stroke-linecap="round" stroke-linejoin="round"/>
<path d="M62.1942 24.537C62.1942 24.537 61.1062 26.855 60.6552 28.192C60.2052 29.529 61.1672 31.165 60.5532 32.333C59.9392 33.501 58.6292 35.941 60.6972 35.779C62.7652 35.617 64.1212 34.309 65.5162 34.848C66.9122 35.386 68.4132 35.626 69.3952 34.745C70.3772 33.864 70.7462 31.872 70.7462 31.872C70.7462 31.872 68.5812 28.962 66.9462 27.647C65.3122 26.332 62.1942 24.537 62.1942 24.537Z" fill="black" stroke="black" stroke-width="2" stroke-miterlimit="10" stroke-linecap="round" stroke-linejoin="round"/>
<path d="M43.005 24.8635C54.44 17.3685 69.576 26.2815 72.505 35.4335C74.811 42.6405 69.6659 63.2905 52.3259 61.2825C43.1969 60.2255 35.51 54.9405 34.453 46.7725C33.396 38.6045 36.006 29.4515 43.005 24.8635Z" stroke="black" stroke-width="2" stroke-miterlimit="10" stroke-linecap="round" stroke-linejoin="round"/>
<path d="M64.8008 57.8687C64.8008 57.8687 63.6398 55.2477 62.7238 53.9857C61.8078 52.7237 61.8378 52.1977 61.6288 49.7567C61.4198 47.3147 61.5088 45.3587 60.5638 43.8627C59.6178 42.3667 56.6978 42.1607 54.6408 43.1757C52.5848 44.1907 49.6458 45.7427 48.6118 45.4437C47.5788 45.1447 40.9898 45.9647 41.6268 44.2247C42.2648 42.4847 44.6548 41.4757 45.0408 40.3837C45.4268 39.2917 44.6628 37.7257 43.2028 37.0527C41.7428 36.3807 39.8278 36.2387 39.4188 35.2457C39.0108 34.2527 35.9998 33.8457 35.9998 33.8457C35.9998 33.8457 33.4178 39.1367 34.3538 45.9847C34.6348 48.0337 35.4368 52.4447 38.4958 54.9107C41.5548 57.3777 44.4708 54.8557 45.4358 54.3297C47.2168 53.3577 51.1538 50.9207 52.6228 55.4507C52.9358 56.4157 49.9608 60.8607 49.9608 60.8607C49.9608 60.8607 54.0328 61.8137 57.7678 61.1247C62.4518 60.2597 64.8008 57.8687 64.8008 57.8687Z" fill="black" stroke="black" stroke-width="2" stroke-miterlimit="10" stroke-linecap="round" stroke-linejoin="round"/>
<path d="M52.0029 22.1161C52.0029 22.1161 49.1919 25.2991 49.6869 26.6141C50.1829 27.9281 51.0979 30.7091 52.8859 30.2021C54.6729 29.6951 56.4669 28.4761 56.6959 26.8811C56.9249 25.2871 56.4429 22.4961 56.4429 22.4961C56.4429 22.4961 55.1119 22.1891 54.0009 22.0941C52.8909 21.9991 52.0029 22.1161 52.0029 22.1161Z" fill="black" stroke="black" stroke-width="2" stroke-miterlimit="10" stroke-linecap="round" stroke-linejoin="round"/>
<path d="M44.997 17C36.901 20.379 16.184 37.404 34.075 58.659C48.338 75.602 70.251 61.072 70.251 61.072" stroke="black" stroke-width="2" stroke-miterlimit="10" stroke-linecap="round" stroke-linejoin="round"/>
<path d="M52.7511 66.966L52.3721 74.721C52.3721 74.721 53.2421 75.449 54.2181 75.441C55.1951 75.433 56.4281 74.544 56.4281 74.544L56.4271 71.415L56.6201 66.672L52.7511 66.966Z" stroke="black" stroke-width="2" stroke-miterlimit="10" stroke-linecap="round" stroke-linejoin="round"/>
<path d="M52.283 74.5225C51.478 75.0015 43.4391 79.0505 42.5521 80.4625C42.1631 81.0835 49.443 82.1435 55.29 82.2045C61.138 82.2655 64.627 81.3505 65.942 80.7065C67.615 79.8865 57.3061 75.0715 56.5811 74.6475" stroke="black" stroke-width="2" stroke-miterlimit="10" stroke-linecap="round" stroke-linejoin="round"/>
<path d="M40.417 19.9268L42.84 24.6328" stroke="black" stroke-width="2" stroke-miterlimit="10" stroke-linecap="round" stroke-linejoin="round"/>
</svg>
