<svg width="100" height="100" viewBox="0 0 100 100" fill="none" xmlns="http://www.w3.org/2000/svg">
<path fill-rule="evenodd" clip-rule="evenodd" d="M77.2539 49.9996C77.2539 64.8495 65.0522 76.8877 50.0006 76.8877C43.6876 76.8877 37.8759 74.7699 33.2555 71.2152C33.5511 69.826 34.0595 67.4469 34.1835 66.9344C34.2251 66.7625 34.2335 66.6345 34.2403 66.5319C34.2623 66.1964 34.2665 66.1327 35.3549 65.6965C36.7762 65.1269 37.3369 63.9602 37.1981 63.4234C37.1561 63.2673 37.0756 63.0662 36.9833 62.8358C36.7585 62.2741 36.4638 61.5381 36.4875 60.8546C36.4951 60.6323 36.5179 60.3996 36.5409 60.1657L36.5409 60.1656C36.618 59.3796 36.6964 58.5802 36.2043 58.1159C35.7303 57.6686 34.2801 57.4447 33.3623 57.303L33.3623 57.303L33.3621 57.3029C33.0438 57.2538 32.7896 57.2145 32.6623 57.1793C32.1682 57.0424 31.6686 56.7137 31.6686 56.7137C31.6686 56.7137 27.9823 54.0408 27.416 53.7779C26.8497 53.515 26.4222 53.7779 26.4222 53.7779L23.1945 54.8765C22.9008 53.2949 22.7473 51.6649 22.7473 49.9996C22.7473 49.046 22.7976 48.1041 22.8958 47.1761C23.2579 47.6906 23.6298 48.1629 23.8131 48.2248C24.2406 48.3672 26.9332 47.8031 27.6383 47.5237C28.0835 47.3487 27.3866 46.5414 26.7685 45.8254C26.4002 45.3988 26.06 45.0046 26.0061 44.796C25.8928 44.3576 27.3555 43.5314 28.1273 43.0953C28.3391 42.9757 28.4989 42.8854 28.5598 42.8406C28.6341 42.786 28.7472 42.539 28.9301 42.14L28.9301 42.1399L28.9301 42.1399C29.4446 41.017 30.5105 38.6904 32.8124 36.0597C35.2117 33.3177 32.8934 31.0033 31.6943 30.0803C36.532 25.75 42.954 23.1115 50.0006 23.1115C50.9804 23.1115 51.9481 23.1625 52.9012 23.262C52.2468 24.0827 49.1245 27.9852 48.7236 28.2307C48.2863 28.4998 42.4985 30.6584 42.4985 30.6584C42.4985 30.6584 41.4943 30.8854 41.2729 31.4237C41.057 31.962 40.0473 34.8806 40.0473 34.8806C40.0473 34.8806 39.6964 35.8676 40.0473 36.3637C40.3497 36.7859 42.1044 39.1609 42.5957 39.8259C42.6443 39.884 42.7361 39.8628 42.7469 39.7837C42.8494 38.9973 43.4595 36.3215 46.9797 36.3584L54.4142 37.7095C54.4142 37.7095 55.9907 38.042 56.5846 38.4484C56.7015 38.5284 56.8463 38.6193 57.0041 38.7185C57.6484 39.1232 58.5086 39.6635 58.5607 40.1426C58.5875 40.389 58.5358 40.649 58.4893 40.8834C58.4233 41.2162 58.3675 41.4974 58.5607 41.6151C58.7038 41.7022 59.1204 42.5793 59.5887 43.5651L59.5887 43.5651C60.1976 44.8472 60.894 46.3132 61.19 46.4653C61.7137 46.7345 66.0546 43.7684 66.2543 43.4992C66.3402 43.3836 66.2067 43.1842 66.0579 42.9617C65.8603 42.6663 65.6354 42.3301 65.8602 42.0953C66.2543 41.6837 67.6365 41.8367 68.0306 42.0953C68.4248 42.3539 69.9365 43.6364 70.1363 44.1748C70.1886 44.3159 70.2814 44.6333 70.397 45.0285L70.397 45.0285C70.7222 46.1407 71.2276 47.869 71.5184 48.017C71.7073 48.1147 71.8783 47.8003 72.2894 47.0449C72.4777 46.6989 72.7164 46.2603 73.0301 45.7264C74.4501 43.2987 74.9144 43.0559 75.2491 43.077C75.4651 43.0876 75.8107 43.2142 76.2156 43.9267C76.0757 43.0049 75.8086 41.5813 75.2617 39.8893C76.5463 43.0105 77.2539 46.4235 77.2539 49.9996ZM46.9907 39.7622C46.8852 39.7183 46.7686 39.6964 46.652 39.7019L43.3599 39.8717C42.9102 39.8991 42.4883 40.1072 42.1996 40.4468L38.6853 44.5767C37.6916 45.7434 36.8866 48.3068 38.8741 51.0564C40.8616 53.806 44.1649 52.8748 44.8755 52.5955C45.5861 52.3161 47.0962 53.0118 47.2405 53.4335C47.277 53.5444 47.3039 53.7197 47.3367 53.933L47.3367 53.933C47.4284 54.5311 47.5662 55.4285 48.0899 56.0462C48.8005 56.8842 49.4667 58.511 48.8005 59.9132C48.1343 61.3154 48.6562 62.5258 48.6562 62.5258C48.6562 62.5258 49.9831 65.0399 50.4827 66.2066C50.5872 66.4505 50.6696 66.6904 50.7475 66.9173C51.0422 67.7753 51.2728 68.4468 52.3925 68.4468C53.8082 68.4468 55.4182 66.3983 55.557 65.7903C55.6958 65.1823 56.0733 64.065 56.4064 63.8787C56.6572 63.7361 56.882 63.1277 57.0808 62.5898C57.1415 62.4254 57.1999 62.2675 57.2558 62.1315C57.3861 61.8174 57.7681 61.3515 58.1423 60.8951C58.4534 60.5157 58.759 60.1428 58.9102 59.8694C59.1095 59.5089 58.969 58.8467 58.824 58.1628C58.7265 57.7034 58.6271 57.2343 58.6271 56.8404C58.6271 55.9386 59.3879 55.1573 60.3178 54.2025C60.3989 54.1192 60.4813 54.0345 60.5646 53.9484C61.6028 52.8748 62.7797 51.4288 62.6409 50.9194C62.5384 50.543 61.2715 50.2144 60.2744 49.9558L60.2744 49.9558C59.9222 49.8644 59.6038 49.7818 59.3821 49.7089C58.8697 49.5404 57.927 47.319 57.156 45.5022L57.156 45.5021L57.156 45.5021C56.6489 44.3072 56.2161 43.2873 56.0289 43.1416C55.557 42.7747 52.9588 42.0188 52.2482 41.9257C51.7419 41.8588 51.499 42.2945 51.281 42.6855C51.1954 42.8391 51.1136 42.9858 51.0212 43.0924C50.6937 43.4703 47.668 41.6956 47.9511 40.9507C48.1732 40.3701 47.3571 39.9265 46.9907 39.7622ZM62.3644 65.4832C62.3644 65.4832 62.1145 64.9355 62.5642 63.7908C62.8063 63.182 62.7768 62.6832 62.7487 62.208L62.7487 62.208C62.7239 61.7894 62.7003 61.3892 62.864 60.948C63.0629 60.4207 63.7819 60.0804 64.4202 59.7783C64.9223 59.5407 65.3744 59.3267 65.4844 59.0638C65.5523 58.9017 65.6205 58.7101 65.689 58.5179C65.8726 58.0025 66.0575 57.4833 66.2395 57.5192C66.4893 57.5685 66.678 58.653 66.2395 60.948C65.7343 63.5881 64.2242 66.2282 64.2242 66.2282C64.2242 66.2282 63.0195 67.8221 62.3644 65.4832Z" fill="black"/>
<path d="M50.0004 76.8878C65.0519 76.8878 77.2537 64.8496 77.2537 49.9997C77.2537 35.1498 65.0519 23.1116 50.0004 23.1116C34.9488 23.1116 22.7471 35.1498 22.7471 49.9997C22.7471 64.8496 34.9488 76.8878 50.0004 76.8878Z" stroke="black" stroke-width="2" stroke-miterlimit="10"/>
</svg>
