<svg width="100" height="100" viewBox="0 0 100 100" fill="none" xmlns="http://www.w3.org/2000/svg">
<path d="M26.9913 58.1172C26.9913 58.1172 35.1513 56.1072 35.7313 57.2852C36.3113 58.4642 36.3712 68.9622 35.0412 70.8702C33.6112 72.9192 24.0413 73.1042 23.2213 71.9842C21.8913 70.1772 26.9913 58.1172 26.9913 58.1172Z" fill="black" stroke="black" stroke-width="2" stroke-miterlimit="10" stroke-linecap="round" stroke-linejoin="round"/>
<path d="M29.3817 57.1513C29.0917 56.7163 29.2216 54.8493 30.1116 53.7433C31.0016 52.6373 31.9617 51.7753 33.0017 52.8553C33.7117 53.5883 33.0916 55.5913 33.1916 56.4463" stroke="black" stroke-width="2" stroke-miterlimit="10" stroke-linecap="round" stroke-linejoin="round"/>
<path d="M63.1113 56.2902C63.1113 56.2902 68.7513 50.5182 69.9213 51.0952C70.4513 51.3522 71.7013 53.2382 73.2213 55.7642C74.7513 58.2892 77.3813 63.2712 76.9213 64.4722C75.3613 68.5222 68.5613 69.8552 67.2213 69.4742C66.1013 69.1542 66.5813 64.8692 65.0713 61.4642C63.5613 58.0592 63.1113 56.2902 63.1113 56.2902Z" fill="black" stroke="black" stroke-width="2" stroke-miterlimit="10" stroke-linecap="round" stroke-linejoin="round"/>
<path d="M64.8912 54.2919C64.3412 54.1049 62.7511 52.1959 62.9311 50.6339C63.1211 49.0719 64.1712 48.8139 65.5012 49.0099C66.5112 49.1569 66.8612 51.2379 67.4712 51.8489" stroke="black" stroke-width="2" stroke-miterlimit="10" stroke-linecap="round" stroke-linejoin="round"/>
<path d="M47.7814 21.8168C45.8714 28.0368 51.1415 30.0068 53.9715 29.2288C56.8015 28.4518 58.4915 25.0248 57.8215 21.6648C57.1515 18.3048 49.7514 15.3888 47.7814 21.8168Z" stroke="black" stroke-width="2" stroke-miterlimit="10" stroke-linecap="round" stroke-linejoin="round"/>
<path d="M43.9916 39.5783C43.9916 39.5783 43.5816 42.6193 43.5016 44.7053C43.3416 48.8853 42.7716 52.1044 43.4616 54.3444C44.5016 57.7014 53.1216 62.8144 53.4516 64.3764C53.7816 65.9384 57.3816 76.0373 58.2216 79.4883C59.0616 82.9403 64.3616 81.4964 64.3616 78.7084C64.3716 75.9194 60.6216 63.0913 60.1516 61.6123C59.6016 59.8603 55.1216 54.6263 54.3816 52.5563C53.6416 50.4873 53.7316 47.1684 55.2316 38.9694C56.7416 30.7714 53.3916 29.7013 49.1816 29.0453C47.1416 28.7283 40.4916 31.2293 36.5916 36.3083C32.6816 41.3873 31.5915 45.8343 31.3015 48.5873C31.0115 51.3413 31.8915 52.4723 34.1615 52.8213C36.4415 53.1693 37.4816 47.2043 38.7316 43.1553C39.6616 40.1673 44.6116 39.0063 47.7316 37.1603" stroke="black" stroke-width="2" stroke-miterlimit="10" stroke-linecap="round" stroke-linejoin="round"/>
<path d="M44.4813 56.4941C44.4813 56.4941 43.8112 62.2581 42.9512 65.7211C42.6312 67.0051 39.1812 73.4691 39.1812 73.4691C39.1812 73.4691 37.1913 76.6251 36.9613 78.4161C36.7513 79.9921 39.5713 82.9831 42.1513 79.6141C44.7413 76.2441 47.3812 71.6601 48.5412 69.3221C49.7012 66.9841 50.7513 62.0471 50.7513 62.0471" stroke="black" stroke-width="2" stroke-miterlimit="10" stroke-linecap="round" stroke-linejoin="round"/>
<path d="M44.9111 58.9177L47.4812 60.7047L49.9512 62.7757" stroke="black" stroke-width="2" stroke-miterlimit="10" stroke-linecap="round" stroke-linejoin="round"/>
<path d="M55.3813 40.2517C55.3813 40.2517 62.7413 44.2287 63.9313 46.2727C65.1213 48.3167 62.9713 50.4557 60.1713 50.0187C57.5513 49.6107 54.4014 46.6797 54.4014 46.6797" stroke="black" stroke-width="2" stroke-miterlimit="10" stroke-linecap="round" stroke-linejoin="round"/>
</svg>
