<svg width="100" height="100" viewBox="0 0 100 100" fill="none" xmlns="http://www.w3.org/2000/svg">
<path d="M53.7846 37.6183C49.25 35.3765 45.4747 32.967 45.1203 31.6007C44.5826 29.5275 50.5866 32.2276 56.0011 35.0774C59.6458 36.9957 63.3333 39.089 63.59 40.2623C64.0256 42.2532 59.4528 40.4206 53.7846 37.6183Z" stroke="black" stroke-width="2"/>
<path d="M45.0017 31.4216C38.8687 42.0835 26.3196 63.9876 25.1874 66.3088C23.7722 69.2102 21.6493 76.2867 26.3905 79.3296C31.1318 82.3725 30.495 81.8772 32.0518 82.4433C33.6087 83.0094 39.1283 86.1939 43.3743 78.8343C47.6202 71.4747 53.0691 61.8506 55.6874 56.614C58.3057 51.3774 63.2891 42.5826 63.5722 40.8135" stroke="black" stroke-width="2"/>
<path d="M25.9062 65.0293C26.165 67.5444 29.8112 71.1104 34.3906 72.9455C39.2546 74.8947 43.2839 77.0526 45.0612 75.6766" stroke="black" stroke-width="2"/>
<path d="M38.2182 57.2179C37.2783 54.1463 40.5502 49.3237 42.2566 46.4866C43.0899 45.0514 52.1117 50.7743 51.9197 51.4782C51.7277 52.1821 48.656 58.1975 46.2243 59.8614C43.7925 61.5252 39.1581 60.2896 38.2182 57.2179Z" stroke="black" stroke-width="2"/>
<path d="M40.6846 48.7104C40.7265 49.1304 43.1741 53.6528 43.8462 54.0308C44.3839 54.3331 48.5742 54.5809 50.5941 54.0308" stroke="black" stroke-width="2"/>
<path d="M65.1079 22.8493C62.768 23.1889 59.8644 28.4124 58.4177 31.3058C58.0429 32.0345 59.5665 32.6647 60.3685 32.7591C61.1705 32.8534 63.8573 27.4219 64.565 27.0445C66.2941 26.1222 71.2773 31.0422 73.597 30.7461C74.7132 30.6036 76.6225 28.8742 76.5282 26.374C76.4338 23.8737 68.0326 22.4248 65.1079 22.8493Z" stroke="black" stroke-width="2"/>
<path d="M59.2587 32.4709L55.6885 38.8582" stroke="black" stroke-width="2"/>
<path d="M66.2236 22.7765C63.4666 21.9223 62.0735 20.0334 61.27 20.4619C60.5624 20.8393 57.8755 26.2708 57.0736 26.1765C56.2716 26.0821 54.748 25.4519 55.1228 24.7232C56.5694 21.8298 59.4731 16.6063 61.8129 16.2667C64.7377 15.8422 72.9246 17.5579 73.019 20.0581C73.0564 21.0501 72.6307 22.7765 70.6115 23.1646" stroke="black" stroke-width="2"/>
<path d="M55.963 25.8887L49.4932 35.9394" stroke="black" stroke-width="2"/>
<path d="M61.5974 45.3354C60.8177 47.7012 60.1101 53.1357 61.9812 55.5875C64.3201 58.6523 65.6105 64.056 63.2715 67.5241C60.9326 70.9921 56.4247 72.856 54.9644 75.3473C52.2224 80.0252 49.1251 77.3823 46.332 73.3886" stroke="black" stroke-width="2"/>
<path d="M61.7723 44.9724C61.2077 47.4604 61.035 52.1706 62.39 54.5422C64.0839 57.5067 66.3073 60.7359 65.6191 64.2297C64.9309 67.7235 61.9395 69.966 59.9279 71.3953C57.9163 72.8246 56.1015 74.0009 54.5283 76.4243C52.6494 79.3187 49.946 79.1945 48.0932 76.8653C46.611 75.002 45.9668 74.7982 45.8962 74.6218" stroke="black" stroke-width="2"/>
<path d="M46.4507 30.5447L45.0842 31.7593L45.5397 33.1763L51.46 36.5911L59.6589 40.6154L63.505 40.9191V39.8564L61.835 38.1357L55.5598 34.0366L46.4507 30.5447Z" fill="black"/>
<path d="M23.6289 70.9299L25.5194 65.7461L27.1051 68.0025L32.3498 71.9665L42.5343 75.7476L44.6078 76.6624L40.4608 82.4559L36.9237 83.7976L31.618 82.4559L26.3123 79.6506L23.6289 76.1135V70.9299Z" fill="black"/>
<ellipse cx="45.8549" cy="50.963" rx="1.17166" ry="0.986933" transform="rotate(26.3968 45.8549 50.963)" fill="black"/>
</svg>
