<svg width="100" height="100" viewBox="0 0 100 100" fill="none" xmlns="http://www.w3.org/2000/svg">
<path d="M35.8441 32.917C34.0473 36.3696 30.4453 44.0239 33.7429 46.3913C37.8648 49.3506 58.1572 52.627 65.8725 52.5213C73.5879 52.4156 81.6203 51.1473 82.2544 50.0904C82.7618 49.2449 82.4658 42.9035 82.2544 39.8385" stroke="black" stroke-width="2" stroke-linecap="round"/>
<path d="M78.1084 40.3203C78.3019 38.6755 78.7615 35.3278 79.0518 35.0956C79.4146 34.8054 83.3331 36.9823 82.0995 39.4495C80.8659 41.9167 69.9812 41.191 62.7974 40.3203C55.6135 39.4495 37.0397 35.0545 35.8787 33.0227C34.9498 31.3973 60.1454 30.884 60.6931 31.4672C61.2408 32.0504 60.6931 36.3559 60.6931 36.9461C60.6931 37.5364 57.3559 37.599 54.8313 38.6872" stroke="black" stroke-width="2" stroke-linecap="round"/>
<path d="M32.215 44.8369C27.2588 49.1361 18.3233 57.309 17.6154 58.9886C17.1172 60.1704 17.7051 61.5862 21.8253 62.3923C29.6557 63.9243 32.7748 66.5333 37.6944 68.1322C41.0089 69.2094 52.9054 69.1994 59.0856 65.7959C64.0297 63.073 70.8787 55.6448 73.6852 52.2711" stroke="black" stroke-width="2" stroke-linecap="round"/>
<path d="M20.2021 56.5017C20.6376 57.179 22.1471 58.6933 24.7013 59.3319C27.894 60.1301 35.8035 62.7424 39.3592 64.0485C42.9148 65.3547 51.9853 65.2096 55.6136 62.5972C58.5161 60.5074 65.2888 55.1473 68.3123 52.7285" stroke="black" stroke-width="2" stroke-linecap="round"/>
<path d="M64.2269 40.4634L63.3945 52.1868" stroke="black" stroke-width="2" stroke-linecap="round"/>
<path d="M72.6289 34.1648C69.9137 33.5829 64.2739 32.7021 61.4658 32.5V36.3241C62.3951 36.4655 64.6511 36.518 66.7161 36.8055C71.2512 37.4369 73.8345 38.0684 78.14 39.561L78.8863 35.7147C78.2196 35.5127 75.3442 34.7466 72.6289 34.1648Z" stroke="black" stroke-width="2" stroke-linecap="round"/>
<path d="M35.9076 33.1666C34.217 36.9169 31.2085 42.9547 33.9815 45.7278C35.3899 47.1362 37.3448 48.0848 41.3651 49.1252" stroke="black" stroke-width="2"/>
<path d="M60.2613 37.4897L56.3184 38.3016L61.7109 40.099L71.7421 40.9687H77.1926V39.3452L73.6556 38.3016L61.7109 36.3301L60.2613 37.4897Z" fill="black"/>
</svg>
