<svg width="100" height="100" viewBox="0 0 100 100" fill="none" xmlns="http://www.w3.org/2000/svg">
<path d="M36.3086 58.5314C34.3986 54.6944 34.9986 49.3194 38.7586 47.4574C42.5186 45.5944 47.3786 46.2224 49.5186 49.9314C52.6486 55.3614 47.6186 59.9344 45.2586 61.0974C43.7286 61.8554 40.2186 62.2085 37.8686 60.4355C37.2486 59.9625 36.7086 59.3384 36.3086 58.5314Z" stroke="black" stroke-width="2" stroke-miterlimit="10" stroke-linejoin="round"/>
<path d="M19.7783 62.083C16.0183 55.831 20.9983 51.131 25.5383 50.221C31.1883 49.09 32.9084 50.795 34.8084 54.632C36.7084 58.468 34.7284 63.3481 30.5784 65.4051C26.4284 67.4631 21.9783 65.753 19.7783 62.083Z" stroke="black" stroke-width="2" stroke-miterlimit="10" stroke-linejoin="round"/>
<path d="M43.5483 61.6492C44.1483 61.6442 46.9484 61.8102 48.4884 64.3642C51.9084 70.0562 47.7984 74.0802 44.1984 75.6492C41.6784 76.7452 35.6584 76.1352 32.7284 70.0372C30.9284 66.2872 32.6684 63.9312 36.4584 59.7832" stroke="black" stroke-width="2" stroke-miterlimit="10" stroke-linejoin="round"/>
<path d="M18.5184 76.6616C17.0584 73.7306 18.7483 68.4536 22.7583 67.3046C27.8484 65.8486 29.5784 66.5816 30.2684 66.8346C32.2184 67.5516 32.7184 71.7666 32.7184 71.7666C32.7484 73.7496 32.5084 77.1936 28.7684 79.0486C25.0284 80.9026 19.9684 79.5916 18.5184 76.6616Z" stroke="black" stroke-width="2" stroke-miterlimit="10" stroke-linejoin="round"/>
<path d="M21.7184 72.0977C21.7184 72.0977 20.2184 76.2256 25.5084 76.6636" stroke="black" stroke-width="2" stroke-miterlimit="10" stroke-linecap="round" stroke-linejoin="round"/>
<path d="M36.6584 65.4971C36.6584 65.4971 34.9084 67.4931 37.1884 70.6331" stroke="black" stroke-width="2" stroke-miterlimit="10" stroke-linecap="round" stroke-linejoin="round"/>
<path d="M22.2481 58.3754C22.2481 58.3754 21.9081 55.4034 26.0081 53.6094" stroke="black" stroke-width="2" stroke-miterlimit="10" stroke-linecap="round" stroke-linejoin="round"/>
<path d="M49.6683 49.9109C50.8883 48.2209 52.9883 47.6059 54.9283 47.8059C59.9683 48.3249 62.8984 53.2989 62.9484 57.2929C62.9984 61.2869 59.0383 65.5998 53.3783 65.7658C50.4783 65.8508 49.5584 65.7629 48.3184 64.1289" stroke="black" stroke-width="2" stroke-miterlimit="10" stroke-linejoin="round"/>
<path d="M55.3086 52.5488C55.3086 52.5488 58.5986 52.8508 58.9386 56.6298" stroke="black" stroke-width="2" stroke-miterlimit="10" stroke-linecap="round" stroke-linejoin="round"/>
<path d="M27.0084 50.1133C26.1984 49.5293 26.3084 49.0122 25.8884 48.1562C23.9884 44.3192 24.9184 38.6973 29.0684 36.6393C33.2184 34.5823 40.0484 35.1823 41.9484 39.0193C42.8384 40.8253 43.4884 44.2342 43.0284 46.4062" stroke="black" stroke-width="2" stroke-miterlimit="10" stroke-linejoin="round"/>
<path d="M39.2583 52.6865C39.2583 52.6865 39.7483 50.1055 43.4283 50.0535" stroke="black" stroke-width="2" stroke-miterlimit="10" stroke-linecap="round" stroke-linejoin="round"/>
<path d="M28.7287 43.6413C28.7287 43.6413 28.5086 40.2823 32.5486 39.4883" stroke="black" stroke-width="2" stroke-miterlimit="10" stroke-linecap="round" stroke-linejoin="round"/>
<path d="M44.1783 43.7634C42.7883 40.9604 42.8683 36.3804 46.6283 34.8354C52.4883 32.4244 55.7084 35.3284 57.0984 38.1314C58.4884 40.9344 58.0083 44.7774 53.2683 47.2124C49.9883 48.8954 45.5583 46.5664 44.1783 43.7634Z" stroke="black" stroke-width="2" stroke-miterlimit="10" stroke-linejoin="round"/>
<path d="M49.1884 37.6099C49.1884 37.6099 51.2584 36.5829 53.3484 38.8509" stroke="black" stroke-width="2" stroke-miterlimit="10" stroke-linecap="round" stroke-linejoin="round"/>
<path d="M42.5884 37.2455C42.5884 37.2455 41.333 20.972 47.8284 24.7285C55.5884 30.4675 37.8183 34.6705 37.6283 25.6035C37.5083 19.3685 52.4883 16.6995 55.6183 26.3625C57.5383 32.2865 70.9483 35.6835 70.9483 35.6835" stroke="black" stroke-width="2" stroke-miterlimit="10" stroke-linecap="round" stroke-linejoin="round"/>
<path d="M60.8883 31.5331C59.9083 33.6871 62.8583 39.618 65.1183 42.487C67.3883 45.356 68.0784 41.2141 68.0784 41.2141L74.0684 43.8511L73.5684 39.4541L81.0484 39.5441L75.4784 34.8651L80.0584 31.5051L72.2683 30.2441C72.2683 30.2441 73.8484 25.3011 71.1984 25.8721C68.5584 26.4421 61.6583 29.8521 60.8883 31.5331Z" stroke="black" stroke-width="2" stroke-miterlimit="10" stroke-linecap="round" stroke-linejoin="round"/>
</svg>
