<svg width="100" height="100" viewBox="0 0 100 100" fill="none" xmlns="http://www.w3.org/2000/svg">
<path d="M64.9359 18.4238H41.1578C38.9125 18.4238 27.7818 30.1474 27.0876 31.9988C26.3933 33.8503 26.6779 38.6927 26.6779 41.3893V75.5182C26.6779 78.5518 26.7621 80.49 28.1947 80.49C29.6273 80.49 70.9189 80.7428 71.7616 80.49C72.6043 80.2372 72.4358 51.5016 72.6043 50.1533C72.7728 48.805 72.4358 18.4238 71.8459 18.4238H64.9359Z" stroke="black" stroke-width="2"/>
<path d="M26.7148 36.8028C27.0384 35.2433 28.3963 32.4174 30.9076 31.7711C35.0789 30.6976 39.6379 31.695 40.2999 31.2977C40.962 30.9005 41.0672 22.9783 40.979 21.9631C40.8907 20.948 41.1364 18.4102 44.5506 18.4102" stroke="black" stroke-width="2"/>
<path d="M29.1348 80.9365C29.3007 81.285 29.3566 81.7232 29.8346 81.7631C30.4321 81.8129 71.6046 81.6834 72.6501 81.6834C73.6957 81.6834 73.8451 79.0943 73.8451 77.999C73.8451 76.9036 73.8451 33.0894 73.8451 29.8034C73.8451 26.5173 74.0809 21.5225 73.6826 20.7757C73.3639 20.1782 72.8161 20.1279 72.5008 20.0947" stroke="black" stroke-width="2"/>
<path d="M33.5121 55.0947C35.9603 64.528 44.4936 69.0464 51.3346 68.5064C58.1756 67.9664 65.8266 64.366 67.1767 53.7446C68.5269 43.1232 61.5059 34.662 51.3346 33.3118C41.1633 31.9616 30.4518 43.3031 33.5121 55.0947Z" stroke="black" stroke-width="2"/>
<path d="M36.0566 59.9407C39.8645 55.992 47.6389 48.0523 48.2734 47.883C49.0665 47.6714 56.259 55.7629 56.8936 56.4504C57.5283 57.1379 63.0284 62.1621 63.2399 62.691" stroke="black" stroke-width="2"/>
<path d="M54.1797 53.1456C55.5794 51.7602 58.4988 49.0152 58.9786 49.118C59.5783 49.2467 66.4337 55.3736 66.905 55.8878" stroke="black" stroke-width="2"/>
<path d="M48.261 48.5938C48.8676 50.1611 50.1415 53.4676 50.3843 54.1551C50.6877 55.0145 47.452 57.7952 47.5025 59.0591C47.543 60.0703 49.744 65.8845 50.8394 68.6651" stroke="black" stroke-width="2"/>
<path d="M35.8096 59.9605L47.9411 48.2158L50.406 54.3057L47.506 58.6557L50.406 68.3705L44.1711 67.5005L38.0812 63.4406L35.8096 59.9605Z" fill="black"/>
</svg>
