<svg width="100" height="100" viewBox="0 0 100 100" fill="none" xmlns="http://www.w3.org/2000/svg">
<path d="M17.1429 75.6104C17.1429 75.6104 15.5298 81.182 23.1428 81.12C37.1728 81.004 61.4058 81.206 76.1428 81.12C84.3848 81.072 83.1428 75.6104 83.1428 75.6104H17.1429Z" stroke="black" stroke-width="2" stroke-miterlimit="10" stroke-linejoin="round"/>
<path d="M22.165 63.2041H78.1429L83.1429 75.4941H17.1431L20.1431 68.1104L22.165 63.2041Z" stroke="black" stroke-width="2" stroke-miterlimit="10" stroke-linejoin="round"/>
<path d="M22.3386 63.0691C22.3386 63.0691 21.8067 24.3611 21.9997 19.7361C22.0467 18.6111 25.6425 19.1105 53.1425 19.1105C77.6425 19.1105 79.6425 18.6105 79.6425 20.4812C80.6425 22.4807 78.1425 63.0691 78.1425 63.0691H22.3386Z" stroke="black" stroke-width="2" stroke-miterlimit="10" stroke-linejoin="round"/>
<path d="M45.292 75.4534C45.292 75.4534 45.49 77.2834 47.704 77.1684C49.917 77.0534 51.511 77.1284 53.215 77.1274C54.87 77.1264 55.603 75.3164 55.603 75.3164" stroke="black" stroke-width="2" stroke-miterlimit="10" stroke-linejoin="round"/>
<path d="M27.0947 58.1116C27.0947 58.1116 27.2617 26.7557 27.4077 26.5367C27.9547 25.7137 75.1567 26.5366 75.1567 26.5366L74.7697 40.8987C74.7697 40.8987 74.2288 58.0986 73.7838 58.1116C60.8318 58.5046 27.0947 58.1116 27.0947 58.1116Z" stroke="black" stroke-width="2" stroke-miterlimit="10" stroke-linejoin="round"/>
<path d="M51.3198 22.4927C51.4448 22.4377 51.3759 22.4447 51.5259 22.5027" stroke="black" stroke-width="2" stroke-miterlimit="10" stroke-linecap="round" stroke-linejoin="round"/>
<path d="M32.083 42.2126C32.083 42.2126 32.639 37.7735 37.589 37.5085C42.644 37.2385 43.065 42.2665 43.065 42.2665" stroke="black" stroke-width="2" stroke-miterlimit="10" stroke-linejoin="round"/>
<path d="M34.383 34.3077C34.086 31.1277 36.835 30.2177 38.714 30.7257C41.074 31.3647 41.6741 33.8727 40.7961 35.5567C39.7691 37.5277 34.772 38.4717 34.383 34.3077Z" stroke="black" stroke-width="2" stroke-miterlimit="10" stroke-linejoin="round"/>
<path d="M55.873 41.8151C55.873 41.8151 56.4291 37.3762 61.3791 37.1112C66.4341 36.8402 66.855 41.8682 66.855 41.8682" stroke="black" stroke-width="2" stroke-miterlimit="10" stroke-linejoin="round"/>
<path d="M58.1729 33.9093C57.8769 30.7293 60.6249 29.8203 62.5039 30.3283C64.8639 30.9663 65.4639 33.4743 64.5859 35.1593C63.5589 37.1303 58.5619 38.0743 58.1729 33.9093Z" stroke="black" stroke-width="2" stroke-miterlimit="10" stroke-linejoin="round"/>
<path d="M55.9858 57.7702C55.9858 57.7702 56.5418 53.3322 61.4918 53.0672C66.5478 52.7962 66.9688 57.8242 66.9688 57.8242" stroke="black" stroke-width="2" stroke-miterlimit="10" stroke-linejoin="round"/>
<path d="M58.2868 49.8647C57.9898 46.6847 60.7388 45.7748 62.6178 46.2838C64.9768 46.9218 65.5779 49.4298 64.6999 51.1138C63.6729 53.0848 58.6758 54.0287 58.2868 49.8647Z" stroke="black" stroke-width="2" stroke-miterlimit="10" stroke-linejoin="round"/>
<path d="M31.7422 58.3376C31.7422 58.3376 32.2982 53.8985 37.2482 53.6335C42.3042 53.3635 42.7242 58.3915 42.7242 58.3915" stroke="black" stroke-width="2" stroke-miterlimit="10" stroke-linejoin="round"/>
<path d="M34.0432 50.4327C33.7462 47.2527 36.4942 46.3427 38.3732 46.8507C40.7332 47.4897 41.3332 49.9977 40.4562 51.6817C39.4282 53.6527 34.4312 54.5967 34.0432 50.4327Z" stroke="black" stroke-width="2" stroke-miterlimit="10" stroke-linejoin="round"/>
<path d="M27 42.6465L74 42.6468" stroke="black" stroke-width="2" stroke-miterlimit="10" stroke-linejoin="round"/>
<path d="M50.4731 26L49.9102 57.876" stroke="black" stroke-width="2" stroke-miterlimit="10" stroke-linejoin="round"/>
</svg>
