<svg width="100" height="100" viewBox="0 0 100 100" fill="none" xmlns="http://www.w3.org/2000/svg">
<path d="M25.0702 22.6062C23.8034 20.6155 19.5758 20.3765 18.8508 22.3933C18.3519 23.7808 18.3516 25.47 18.3516 33.3122C18.3516 35.6837 18.3516 74.3555 18.3516 75.9365C18.3516 77.5174 19.6072 80.7474 23.2961 80.7474C25.2708 80.7474 44.372 80.9428 49.1893 80.9428C54.0065 80.9428 75.1097 81.3303 75.1097 80.7474C75.1097 79.5178 75.1097 75.734 75.1097 74.4166" stroke="black" stroke-width="2" stroke-linecap="round"/>
<path d="M25.1768 22.6462C26.0649 22.0031 28.7783 20.7168 32.5268 20.7168C37.2124 20.7168 62.7142 21.1441 65.7461 21.1441C74.5938 21.1441 79.6975 19.7236 80.7081 19.7236C81.7187 19.7236 81.7687 25.2279 81.7687 27.6166C81.7687 30.0054 81.7687 70.4746 81.7687 71.4852C81.7687 72.4958 78.9357 73.8205 73.9624 73.8205C71.6655 73.8205 38.1272 73.2548 33.116 73.2548C30.8191 73.2548 26.9224 72.8099 25.1768 74.5555" stroke="black" stroke-width="2" stroke-linecap="round"/>
<path d="M30.0371 32.4748C31.2065 31.2469 33.149 30.7975 34.7734 31.7146C36.8039 32.8609 34.9014 38.0448 35.6459 39.2411C36.2415 40.1982 36.8624 40.495 37.1482 40.4965" stroke="black" stroke-width="2" stroke-linecap="round"/>
<path d="M35.2724 35.668C33.4125 35.4593 29.9466 35.5086 29.9376 37.4316C29.9225 40.6886 33.1473 41.1396 35.2538 39.6849" stroke="black" stroke-width="2" stroke-linecap="round"/>
<path d="M41.1346 40.4452C42.5215 35.8746 45.408 26.7339 45.8588 26.7362C46.3095 26.7385 49.3502 35.9101 50.8142 40.4956" stroke="black" stroke-width="2" stroke-linecap="round"/>
<path d="M43.168 35.7725L48.8059 35.8018" stroke="black" stroke-width="2" stroke-linecap="round"/>
<path d="M56.6562 29.7748C56.6562 29.7748 62.0447 29.3038 64.165 29.7747C66.2853 30.2457 73.9004 29.7748 73.9004 29.7748" stroke="black" stroke-width="2" stroke-linecap="round"/>
<path d="M56.7793 34.6943C60.9021 34.6943 66.2071 34.6944 66.6109 34.6944" stroke="black" stroke-width="2" stroke-linecap="round"/>
<path d="M57.4492 38.9521C61.572 38.9521 62.7137 39.3311 64.8979 38.9522" stroke="black" stroke-width="2" stroke-linecap="round"/>
<path d="M70.7881 34.6947C70.7881 34.6947 73.8108 34.8951 74.6907 34.3672" stroke="black" stroke-width="2" stroke-linecap="round"/>
<path d="M24.7246 22.6465V74.9012" stroke="black" stroke-width="2" stroke-linecap="round"/>
<path d="M18.8942 78.0547C17.8361 74.5811 20.9684 72.1401 24.5375 74.8779" stroke="black" stroke-width="2" stroke-linecap="round"/>
<path d="M32.9609 50.5596L35.9166 54.0639" stroke="black" stroke-width="2" stroke-linecap="round"/>
<path d="M39.8848 47.4141L40.2613 52.2899" stroke="black" stroke-width="2" stroke-linecap="round"/>
<path d="M43.844 48.1506C38.0563 44.965 32.0846 49.7203 30.7512 52.7356C26.1446 62.401 39.2632 70.6088 46.3906 63.02C48.3288 60.9563 51.7239 52.4878 43.844 48.1506Z" stroke="black" stroke-width="2" stroke-linecap="round"/>
<path d="M41.3209 52.8105C38.7466 51.3936 36.0906 53.5086 35.4975 54.8497C33.4486 59.1487 39.2834 62.7993 42.4535 59.424C43.3156 58.5061 44.8257 54.7395 41.3209 52.8105Z" stroke="black" stroke-width="2" stroke-linecap="round"/>
<path d="M43.9092 55.4994L48.3528 53.5312" stroke="black" stroke-width="2" stroke-linecap="round"/>
<path d="M42.3799 59.9219L46.4122 62.4451" stroke="black" stroke-width="2" stroke-linecap="round"/>
<path d="M38.5504 60.9854L37.9102 65.2842" stroke="black" stroke-width="2" stroke-linecap="round"/>
<path d="M35.2057 58.7588L31.1592 60.6066" stroke="black" stroke-width="2" stroke-linecap="round"/>
<path d="M32.667 50.208L36.2587 53.9281L40.1858 51.8722L39.5153 47.4668H38.2223L32.667 50.208Z" fill="black"/>
<path d="M31.2539 61.0564L35.5641 58.6631L38.3843 61.0564L37.8522 65.5705L33.1696 63.4493L31.2539 61.0564Z" fill="black"/>
<path d="M55.4108 66.2138C54.9786 66.2138 55.4108 59.2427 55.4108 58.8055C55.4108 58.3683 63.585 58.3681 63.585 58.8055V62.5097C63.585 62.5097 63.7297 65.9332 63.3654 66.2138C63.0011 66.4945 55.843 66.2138 55.4108 66.2138Z" stroke="black" stroke-width="2"/>
<path d="M58.6424 63.4722C58.3166 63.117 55.5288 65.5239 55.7509 65.8197C55.9729 66.1156 60.796 65.9486 60.796 65.9486C60.2038 65.307 58.9682 63.8275 58.6424 63.4722Z" fill="black" stroke="black" stroke-width="2"/>
<path d="M60.9199 65.5826C61.2588 65.0574 61.996 64.3607 62.1382 64.4217C62.2805 64.4827 62.8873 65.1082 63.3278 65.5826" stroke="black" stroke-width="2"/>
<path d="M55.4108 53.6982C54.9786 53.6982 55.4108 46.7271 55.4108 46.2899C55.4108 45.8527 63.585 45.8525 63.585 46.2899V49.994C63.585 49.994 63.7297 53.4176 63.3654 53.6982C63.0011 53.9788 55.843 53.6982 55.4108 53.6982Z" stroke="black" stroke-width="2"/>
<path d="M58.6424 50.9566C58.3166 50.6013 55.5288 53.0082 55.7509 53.3041C55.9729 53.6 60.796 53.433 60.796 53.433C60.2038 52.7914 58.9682 51.3118 58.6424 50.9566Z" fill="black" stroke="black" stroke-width="2"/>
<path d="M60.9199 53.067C61.2588 52.5418 61.996 51.8451 62.1382 51.9061C62.2805 51.9671 62.8873 52.5926 63.3278 53.067" stroke="black" stroke-width="2"/>
<path d="M68.0332 47.9307H68.3524" stroke="black" stroke-width="2" stroke-linecap="round"/>
<path d="M71.9473 47.9307H75.5431" stroke="black" stroke-width="2" stroke-linecap="round"/>
<path d="M67.8418 51.9023C68.6547 51.9023 70.4633 51.9023 71.1947 51.9023C71.9262 51.9023 73.7008 51.9023 74.4967 51.9023" stroke="black" stroke-width="2" stroke-linecap="round"/>
<path d="M68.0332 60.4229H68.3524" stroke="black" stroke-width="2" stroke-linecap="round"/>
<path d="M71.9473 60.4229H75.5431" stroke="black" stroke-width="2" stroke-linecap="round"/>
<path d="M67.8418 64.3945C68.6547 64.3945 70.4633 64.3945 71.1947 64.3945C71.9262 64.3945 73.7008 64.3945 74.4967 64.3945" stroke="black" stroke-width="2" stroke-linecap="round"/>
<path d="M22.1406 73.6373L25.4188 74.4388L27.7479 73.958L30.5947 73.0762L75.1093 73.958V80.371L23.0031 81.0925L20.2425 80.371L18.8623 77.2446L19.4661 74.4388L22.1406 73.6373Z" fill="black"/>
</svg>
