<svg width="100" height="100" viewBox="0 0 100 100" fill="none" xmlns="http://www.w3.org/2000/svg">
<path d="M69.4071 24.881C70.6698 23.7698 81.6191 18.5343 84.1802 18.1257C86.7413 17.7172 86.0272 23.1616 80.0766 24.0602C78.5667 24.2882 76.5411 28.6058 76.0361 29.4897C75.531 30.3736 71.6167 30.8155 71.0485 31.3206C70.4803 31.8256 48.3837 55.5638 48.1311 55.9426C47.8786 56.3214 48.9519 57.5209 50.404 58.1522C51.856 58.7836 54.0026 58.7836 55.0127 58.1522C56.0228 57.5209 57.7274 56.9527 57.0329 60.5513C56.3385 64.1499 50.5302 65.0338 47.8155 66.8015C45.1007 68.5692 45.3533 73.8093 43.2068 79.0494C41.0602 84.2894 35.8833 86.3728 29.6962 84.542C23.5091 82.7111 13.534 72.0416 14.481 65.0338C15.428 58.026 24.393 55.5638 30.2013 53.1647C36.0096 50.7656 36.5147 44.3892 39.2925 40.538C42.0704 36.6869 45.7321 37.192 46.1109 38.2021C46.4897 39.2122 44.6588 39.4648 42.5754 42.432C40.492 45.3993 45.3533 50.0712 46.4266 49.3767C47.4999 48.6822 66.1873 30.6892 67.6393 29.174C69.0914 27.6588 67.8288 26.2699 69.4071 24.881Z" stroke="black" stroke-width="2"/>
<path fill-rule="evenodd" clip-rule="evenodd" d="M84.1802 18.1255C81.6191 18.5341 70.6698 23.7696 69.4071 24.8807C68.5984 25.5924 68.5355 26.3041 68.4712 27.0327C68.41 27.7262 68.3474 28.435 67.6393 29.1738C66.1873 30.689 47.4999 48.682 46.4266 49.3764C45.3533 50.0709 40.492 45.399 42.5754 42.4318C43.597 40.9768 44.5579 40.1745 45.2273 39.6156C45.9231 39.0347 46.304 38.7167 46.1109 38.2018C45.7321 37.1917 42.0704 36.6866 39.2925 40.5378C38.3922 41.7859 37.7306 43.2994 37.0499 44.8567C35.6302 48.1044 34.1271 51.5429 30.2013 53.1644C29.4374 53.4799 28.619 53.7965 27.7714 54.1244C22.1737 56.2897 15.3035 58.9473 14.481 65.0335C13.534 72.0413 23.5091 82.7108 29.6962 84.5417C35.8833 86.3726 41.0602 84.2892 43.2068 79.0491C44.0413 77.0118 44.5132 74.9746 44.9378 73.1414C45.6054 70.2594 46.1562 67.8817 47.8155 66.8012C48.6539 66.2553 49.7874 65.7936 50.9743 65.3103C53.6302 64.2286 56.553 63.0382 57.0329 60.551C57.7274 56.9524 56.0228 57.5206 55.0127 58.152C54.0026 58.7833 51.856 58.7833 50.404 58.152C48.9519 57.5206 47.8786 56.3211 48.1311 55.9423C48.3837 55.5635 70.4803 31.8254 71.0485 31.3203C71.2811 31.1136 72.0744 30.9174 72.9651 30.6972C74.2501 30.3794 75.7378 30.0115 76.0361 29.4894C76.1104 29.3595 76.2175 29.1552 76.3511 28.9006C77.1258 27.4241 78.7888 24.2545 80.0766 24.06C86.0272 23.1614 86.7413 17.7169 84.1802 18.1255ZM43.1515 52.2406C42.9396 51.1486 40.9859 46.6946 39.5141 46.5324C37.9133 46.3559 36.7391 48.2049 35.7102 49.825C35.2198 50.5971 34.7625 51.3173 34.3077 51.7415C32.1492 53.7547 29.9519 54.5256 28.0739 55.1846C27.245 55.4754 26.4783 55.7444 25.8045 56.0888C23.6042 57.2134 22.0526 62.9213 24.204 66.2952C25.55 68.4059 26.8098 68.9773 28.3794 69.6892C29.3188 70.1153 30.3691 70.5916 31.6153 71.4784C35.1732 74.0103 31.9523 75.9213 29.2403 77.5303C28.2533 78.1158 27.3338 78.6613 26.8329 79.1823C24.9556 81.1347 29.5059 83.2146 30.5257 83.4504C40.4939 85.7552 42.1476 80.0323 43.6975 74.0238C43.8976 73.2483 44.0659 72.5679 44.2152 71.9643C44.938 69.043 45.2154 67.9217 46.4862 66.5402C47.7247 65.1939 50.228 64.2336 52.0108 63.5497C52.7216 63.277 53.3178 63.0483 53.6737 62.8566C56.3149 61.4335 56.3653 59.4995 54.4204 59.9703C52.4756 60.4411 49.4037 59.7666 48.0286 59.2467C44.8958 58.0624 44.1317 55.5104 43.3307 52.8354C43.2715 52.6376 43.2121 52.4392 43.1515 52.2406Z" fill="black"/>
<path d="M33.171 79.4078C31.9106 79.1352 31.5485 80.4829 31.9643 81.2038C32.5536 82.0458 33.7627 81.6434 34.0268 81.2038C34.2374 80.8531 34.7465 79.7485 33.171 79.4078Z" fill="black"/>
<path d="M37.7808 57.208C37.4476 57.1857 36.2722 58.189 35.9484 58.6794C35.3843 59.4445 40.446 63.1214 40.7791 63.399C41.1123 63.6766 42.5837 61.6777 42.6669 61.4556C42.7502 61.2335 38.1973 57.2358 37.7808 57.208Z" stroke="black" stroke-width="2"/>
<path d="M32.7698 62.3314C32.4366 62.3092 31.2612 63.3124 30.9374 63.8029C30.3733 64.5679 35.435 68.2448 35.7681 68.5224C36.1013 68.8 37.5727 66.8011 37.656 66.579C37.7392 66.357 33.1863 62.3592 32.7698 62.3314Z" fill="black" stroke="black" stroke-width="2"/>
<path d="M70.2475 20.3737L71.706 23.6547" stroke="black" stroke-width="2"/>
<ellipse cx="70.2478" cy="20.3737" rx="1.85869" ry="1.07302" transform="rotate(-22.4177 70.2478 20.3737)" fill="black"/>
<path d="M74.488 18.4302L75.9465 21.7112" stroke="black" stroke-width="2"/>
<path d="M79.0818 16.7897L80.5403 20.0707" stroke="black" stroke-width="2"/>
<ellipse cx="74.2663" cy="18.3698" rx="1.85869" ry="1.07302" transform="rotate(-22.4177 74.2663 18.3698)" fill="black"/>
<ellipse cx="78.8596" cy="16.5065" rx="1.85869" ry="1.07302" transform="rotate(-22.4177 78.8596 16.5065)" fill="black"/>
</svg>
