<svg width="100" height="100" viewBox="0 0 100 100" fill="none" xmlns="http://www.w3.org/2000/svg">
<ellipse cx="50.5351" cy="83.0773" rx="24.9035" ry="2.62804" fill="black"/>
<path d="M41.3564 69.014C38.2242 66.6873 32.6042 68.2137 30.8393 70.355C31.7387 72.2588 36.5661 73.0147 41.4533 72.1388L41.3564 69.014Z" fill="black"/>
<path d="M34.5211 51.9595C34.3012 51.2474 28.248 47.6577 25.4529 50.6955C26.0599 53.1341 31.3713 56.308 32.5906 57.0417L34.5211 51.9595Z" fill="black"/>
<path d="M40.0066 27.0503C40.2672 25.4025 42.1441 23.5108 43.828 23.9884C44.8432 24.4737 45.2205 26.439 44.8793 28.2123C44.5381 29.9857 42.8779 32.2984 41.1567 31.6715C39.4356 31.0446 39.7459 28.6981 40.0066 27.0503Z" fill="black"/>
<path d="M49.9065 27.8558C49.0287 26.0372 49.2418 23.2736 51.24 22.9606C53.2907 22.6389 53.8632 24.9147 54.2267 25.8586C54.5903 26.8025 55.923 29.4599 53.8576 30.3752C51.7921 31.2906 50.7844 29.6743 49.9065 27.8558Z" fill="black"/>
<path d="M45.5651 33.9027C45.6553 32.7901 46.6591 30.8915 48.3629 31.2375C50.5037 31.6721 50.6096 33.5911 50.4054 35.3732C50.2012 37.1552 48.7811 38.9131 47.0293 38.422C45.2774 37.9309 45.4312 35.5543 45.5651 33.9027Z" fill="black"/>
<path d="M32.5807 56.8309C31.9421 56.7314 27.4319 54.8931 25.6647 52.154C23.4557 48.7301 29.8503 45.6169 31.8878 38.6164C33.9253 31.616 34.1299 16.3057 46.319 14.2806C60.3726 11.9457 59.1727 23.4798 64.5959 28.9144C70.0191 34.3489 72.2635 35.7105 74.8294 40.9103C75.7807 42.8381 71.61 48.7887 69.822 49.9121" stroke="black" stroke-width="2" stroke-linecap="round" stroke-linejoin="round"/>
<path d="M35.2512 46.0791C36.2335 53.6634 31.181 58.8273 30.6622 63.3764C30.1434 67.9255 30.3289 70.3825 31.8695 71.437C33.4102 72.4915 40.7402 72.8122 41.5306 72.1361" stroke="black" stroke-width="2" stroke-linecap="round" stroke-linejoin="round"/>
<path d="M41.6439 48.466C43.5271 57.5303 39.2028 70.9434 42.5095 73.316C45.8161 75.6885 50.27 71.7574 55.6473 71.7505C61.0246 71.7435 63.1381 76.3835 66.8032 71.6368C70.4682 66.89 65.866 56.102 61.7845 51.4725" stroke="black" stroke-width="2" stroke-linecap="round" stroke-linejoin="round"/>
<path d="M62.6803 37.8203C67.293 49.9339 72.8791 51.6276 77.1009 65.0797C78.3876 69.1797 71.3093 73.6931 67.2425 71.0482" stroke="black" stroke-width="2" stroke-linecap="round" stroke-linejoin="round"/>
<path d="M68.5489 65.5726C71.2249 64.2704 75.2677 65.1723 77.1698 67.3358C76.2042 70.031 72.9704 72.745 66.9808 71.3265C67.6661 70.7923 68.6101 68.3758 68.5489 65.5726Z" fill="black"/>
<path d="M47.6619 72.8838C55.3734 69.9914 62.1578 66.6031 67.9255 68.6697C67.2827 70.2565 67.7348 72.4924 64.2992 73.5421C60.8637 74.5917 58.3497 70.2237 47.6619 72.8838Z" fill="black"/>
<path d="M45.6746 52.894C46.2757 59.5564 44.4447 65.8841 44.8566 68.483" stroke="black" stroke-width="2" stroke-linecap="round" stroke-linejoin="round"/>
<path d="M67.3594 46.26C67.083 44.8337 70.4949 40.2092 74.0501 39.9537C75.0088 43.8055 72.3012 48.0987 69.9293 49.9478L67.3594 46.26Z" fill="black"/>
<path d="M48.7219 16.9277C52.6618 16.4503 55.7076 17.6852 58.238 24.0119" stroke="black" stroke-width="2" stroke-linecap="round" stroke-linejoin="round"/>
</svg>
