<svg width="100" height="100" viewBox="0 0 100 100" fill="none" xmlns="http://www.w3.org/2000/svg">
<path d="M78.0286 56.375C76.7751 59.6081 73.8722 61.7189 71.629 62.3788" stroke="black" stroke-width="2" stroke-linecap="round" stroke-linejoin="round"/>
<path d="M54.1078 50.1826C59.7782 49.7099 62.2528 55.4967 58.9097 57.7261C56.3293 59.4469 54.1078 57.4828 54.1078 55.2624" stroke="black" stroke-width="2" stroke-linecap="round" stroke-linejoin="round"/>
<path d="M54.1078 50.1821C57.6253 49.8889 61.0811 51.8025 61.324 54.2314C61.6232 57.2235 59.2207 58.2417 57.1371 58.3754" stroke="black" stroke-width="2" stroke-linecap="round" stroke-linejoin="round"/>
<path d="M48.4489 33.0892C45.8773 35.7441 50.5229 38.3981 53.0945 36.1583C53.0945 38.7299 52.6797 43.5415 48.9467 45.6154C39.66 50.7747 30.7155 44.0915 21.0733 50.5098C10.1062 57.81 15.8861 73.461 20.2828 72.4655C23.336 71.7742 19.9286 59.4712 25.8072 58.3637C31.5312 57.2852 47.8682 67.267 60.3947 68.9262C72.9211 70.5853 80.7191 61.543 82.2123 54.5747C82.2123 56.8145 86.2286 58.1694 87.8533 56.9804C91.1608 54.56 87.6045 48.1041 82.8759 47.6893C84.3692 43.9562 82.1293 31.1809 71.8427 27.116C61.5561 23.0511 53.5922 27.6967 48.4489 33.0892Z" stroke="black" stroke-width="2" stroke-linecap="round" stroke-linejoin="round"/>
<path d="M16.0457 68.7905C17.6808 72.244 21.3752 72.0031 21.8315 67.7871" stroke="black" stroke-width="2" stroke-linecap="round" stroke-linejoin="round"/>
<path d="M41.098 62.8533C54.2465 67.621 69.2985 71.0386 77.8711 62.6973" stroke="black" stroke-width="2" stroke-linecap="round" stroke-linejoin="round"/>
<path d="M82.4586 55.3396C84.7007 56.7411 88.4702 58.0063 89.1316 54.5283" stroke="black" stroke-width="2" stroke-linecap="round" stroke-linejoin="round"/>
<path d="M29.0076 51.0317C26.5868 51.5363 22.8549 52.2424 21.6911 54.7267" stroke="black" stroke-width="2" stroke-linecap="round" stroke-linejoin="round"/>
<path d="M47.8267 34.0244C47.8267 36.6003 51.781 36.9139 53.1191 36.0563" stroke="black" stroke-width="2" stroke-linecap="round" stroke-linejoin="round"/>
<path d="M61.9247 38.4655C61.7927 36.8159 61.9657 33.6885 64.0768 33.6885C65.5942 33.6885 66.8373 37.0804 66.9033 38.4655C66.9692 39.8507 66.4415 41.8305 64.8581 41.8965C63.2747 41.9625 62.0566 40.1152 61.9247 38.4655Z" fill="black"/>
<path d="M68.4424 45.7032C68.248 43.6905 69.9815 41.5254 71.7264 41.8986C73.6242 41.9066 74.1556 45.3887 73.9097 46.9188C73.7724 47.773 73.1621 50.0671 71.039 49.87C68.9216 49.6735 68.6367 47.716 68.4424 45.7032Z" fill="black"/>
<path d="M72.6854 32.9129C71.3193 33.5102 71.6181 35.9977 72.2119 37.9926C72.7374 39.7579 74.3641 41.0056 76.0077 40.0491C77.3631 39.2603 76.9961 36.8318 76.3441 35.5823C75.811 34.5609 74.0515 32.3157 72.6854 32.9129Z" fill="black"/>
</svg>
