<svg width="100" height="100" viewBox="0 0 100 100" fill="none" xmlns="http://www.w3.org/2000/svg">
<path d="M57.6544 34.3332C59.827 29.852 63.8378 29.5654 68.7801 30.325C73.7099 31.0826 84.4662 40.3612 83.3799 56.1123C82.2936 71.8634 76.2009 79.3274 69.1401 77.9695" stroke="black" stroke-width="2" stroke-linecap="round" stroke-linejoin="round"/>
<path d="M61.528 81.6255C68.3988 80.6527 73.8346 76.2943 76.5361 54.0381" stroke="black" stroke-width="2" stroke-linecap="round" stroke-linejoin="round"/>
<path d="M65.0044 72.6953C62.0171 84.1009 59.4195 85.3889 50.7292 83.2162C45.9767 85.7959 36.432 82.2657 35.3457 74.1187" stroke="black" stroke-width="2" stroke-linecap="round" stroke-linejoin="round"/>
<path d="M22.9907 60.9717C22.7191 69.3901 29.36 83.0683 39.9861 82.2144" stroke="black" stroke-width="2" stroke-linecap="round" stroke-linejoin="round"/>
<path d="M62.4996 44.2907C58.2892 42.555 57.3811 47.4071 52.7906 50.8231C54.2367 53.6311 60.1073 55.369 62.4996 54.6052C65.4899 53.6505 67.7626 46.4603 62.4996 44.2907Z" fill="black" stroke="black" stroke-width="2" stroke-linecap="round" stroke-linejoin="round"/>
<path d="M40.9011 21.3009C45.0279 21.3009 50.1309 18.5672 53.2276 36.7901" stroke="black" stroke-width="2" stroke-linecap="round" stroke-linejoin="round"/>
<path d="M43.5328 34.7394C40.1382 32.024 38.9161 30.8014 33.7562 31.0732C28.5964 31.345 16.5436 37.8295 16.5436 53.2351C16.5436 67.0797 18.9566 77.7716 29.5207 78.9563" stroke="black" stroke-width="2" stroke-linecap="round" stroke-linejoin="round"/>
<path d="M77.6433 74.6843C81.3097 73.2496 86.6852 79.1872 80.3708 81.8733C74.3562 84.4319 56.2298 87.936 40.2885 85.1243C32.6692 83.7804 27.6914 80.7655 23.1454 77.0071C46.6264 86.8422 59.0106 85.1243 69.1097 78.0371C73.1312 78.0371 75.1603 77.0508 77.6433 74.6843Z" fill="black"/>
<path d="M23.9409 48.8241C26.385 39.4547 33.2131 34.6046 41.496 34.876C49.7789 35.1475 51.4083 40.0354 51.6799 41.8006" stroke="black" stroke-width="2" stroke-linecap="round" stroke-linejoin="round"/>
<path d="M36.2293 44.8122C39.7198 43.9692 40.6718 49.1956 45.1144 50.5446C43.8451 52.7926 40.291 56.8669 36.2293 55.181C31.1521 53.0736 32.7387 45.6552 36.2293 44.8122Z" fill="black" stroke="black" stroke-width="2" stroke-linecap="round" stroke-linejoin="round"/>
<path d="M25.371 54.7856C25.8457 54.148 31.9608 57.25 32.3878 57.9384C32.8148 58.6269 31.8394 60.9635 32.0248 61.5783C32.2103 62.1932 35.9433 63.9422 36.3349 63.5533C36.7265 63.1644 37.2599 60.6246 37.5906 60.4185C37.9213 60.2123 45.7295 61.1436 46.0724 61.5783C46.4153 62.0131 46.2032 65.0862 46.4857 65.4592C46.7681 65.8323 52.8662 66.2639 53.1521 65.7018C53.438 65.1398 52.9436 62.1934 53.1521 61.5783C53.3606 60.9633 62.5367 58.7798 63.0142 58.9301C63.4916 59.0804 63.3786 61.8074 63.9187 62.0004C64.4587 62.1934 68.146 60.2893 68.1369 59.9585C68.1278 59.6276 67.33 58.0528 67.532 57.5388C67.7341 57.0249 71.912 54.2097 72.6131 54.2725C72.9831 54.3057 71.9552 60.1224 69.4013 63.9467C67.1157 67.3694 63.311 69.3808 63.0142 69.2561C62.3856 68.992 62.4065 66.2293 61.9021 66.016C61.3977 65.8026 57.5562 66.6148 57.2833 66.9574C57.0103 67.3 58.1963 71.1409 57.9104 71.6249C57.7724 71.8584 53.9875 73.3337 50.4722 73.4844C46.7032 73.6459 43.0089 72.5729 42.8524 72.2183C42.55 71.5331 43.5441 68.8234 43.1549 68.3471C42.7656 67.8708 39.3507 66.8141 38.6859 66.9574C38.0212 67.1006 37.9021 69.7915 37.2679 69.995C36.9471 70.0979 32.0928 67.1187 29.2484 63.5533C26.4695 60.0699 25.1364 55.1007 25.371 54.7856Z" fill="black"/>
<path d="M71.7772 41.4182C66.4458 35.8884 65.1226 33.653 58.7407 34.4679C52.3588 35.2828 51.8102 39.7878 51.8102 41.4172" stroke="black" stroke-width="2" stroke-linecap="round" stroke-linejoin="round"/>
<path d="M37.3052 31.0831C39.8851 29.1821 44.6999 29.2822 46.9752 30.0406" stroke="black" stroke-width="2" stroke-linecap="round" stroke-linejoin="round"/>
<path d="M60.9113 30.7044C60.0867 28.9128 56.9344 28.7394 55.0334 29.2826" stroke="black" stroke-width="2" stroke-linecap="round" stroke-linejoin="round"/>
<path d="M55.2103 35.2842C54.9387 29.7166 53.6573 21.4733 50.5342 19.8436C47.4112 18.2138 40.817 18.0391 38.5086 18.0391C34.1131 18.0391 33.5346 24.2712 37.4224 24.5567C40.1129 24.7543 41.3601 22.6557 44.2116 24.5567C47.0631 26.4577 48.421 32.9763 45.9768 35.2842" stroke="black" stroke-width="2" stroke-linecap="round" stroke-linejoin="round"/>
<path d="M46.1404 35.0884C49.115 36.1592 49.397 37.9514 51.3653 37.9514C53.3336 37.9514 52.8028 35.8724 55.123 34.623" stroke="black" stroke-width="2"/>
<path d="M38.8954 31.584C40.9145 32.4517 42.1411 34.2064 39.0841 34.9239" stroke="black" stroke-width="2" stroke-linecap="round" stroke-linejoin="round"/>
<path d="M61.8017 30.4971C59.7826 31.3648 59.4243 33.6469 61.8018 34.3174" stroke="black" stroke-width="2" stroke-linecap="round" stroke-linejoin="round"/>
<path d="M39.0884 24.3478C41.2631 23.4461 40.5154 18.3313 38.4327 18.0615" stroke="black" stroke-width="2" stroke-linecap="round" stroke-linejoin="round"/>
</svg>
