<svg width="100" height="100" viewBox="0 0 100 100" fill="none" xmlns="http://www.w3.org/2000/svg">
<path d="M39.9369 42.5058C39.8215 45.5044 40.8264 48.12 42.6639 49.9848C44.0815 51.4234 46.0749 52.4954 48.6216 52.9078M61.6724 42.4289C61.6724 47.1056 58.3062 51.9161 53.0244 52.9078M65.6724 42.4289C65.6724 48.9941 60.8364 55.8701 53.1258 56.9474M35.9398 42.3521C35.7857 46.3598 37.1387 50.0766 39.8147 52.7923C42.021 55.0314 45.0353 56.4989 48.6216 56.9474" stroke="black" stroke-width="2" stroke-linecap="round" stroke-linejoin="round"/>
<path d="M30.6121 42.5058C30.3991 48.0442 32.2587 52.9553 35.7324 56.4805C38.7532 59.5462 43.0967 61.6657 48.6179 62.1625M71.0048 42.4289C71.0048 51.6608 63.9513 61.219 53.0027 62.193M75.0048 42.4289C75.0048 53.5681 66.4464 65.223 53.0027 66.2073M26.6151 42.3521C26.3633 48.8997 28.571 54.9118 32.8832 59.288C36.7543 63.2167 42.2131 65.7187 48.8311 66.1923" stroke="black" stroke-width="2" stroke-linecap="round" stroke-linejoin="round"/>
<path d="M52.9219 42.6836C52.7982 44.7875 52.6249 72.8406 52.9219 74.6826C53.2933 76.9851 54.5557 78.099 56.338 78.1733C58.1203 78.2476 61.2394 78.8183 61.2394 83.0746C61.2394 87.9048 40.0859 88.4591 40.223 83.5202C40.2725 81.7379 41.5449 78.1733 46.2383 78.1733C48.1691 78.1733 48.8375 76.7616 48.9117 74.6826C48.9712 73.0194 48.9365 44.862 48.9117 42.6836" stroke="black" stroke-width="2" stroke-linecap="round" stroke-linejoin="round"/>
<path d="M64.8243 86.3987C59.5075 88.4092 45.7127 89.2738 40.7482 85.7325C48.3251 87.5659 60.9445 86.4712 61.7348 82.6627C64.9122 82.1739 68.7657 84.9082 64.8243 86.3987Z" fill="black"/>
<path d="M53.4091 62.729C54.0114 63.5501 53.9019 64.8087 53.4091 65.6851" stroke="black" stroke-width="2" stroke-linecap="round" stroke-linejoin="round"/>
<path d="M53.4091 53.2568C54.0114 54.0779 53.9019 55.3365 53.4091 56.2129" stroke="black" stroke-width="2" stroke-linecap="round" stroke-linejoin="round"/>
<path d="M69.788 41.3086C71.0216 42.1215 75.1224 42.1523 76.5196 41.3086" stroke="black" stroke-width="2" stroke-linecap="round" stroke-linejoin="round"/>
<path d="M60.0732 41.3086C61.3068 42.1215 65.4076 42.1523 66.8047 41.3086" stroke="black" stroke-width="2" stroke-linecap="round" stroke-linejoin="round"/>
<path d="M47.4344 41.3086C48.668 42.1215 52.7689 42.1523 54.166 41.3086" stroke="black" stroke-width="2" stroke-linecap="round" stroke-linejoin="round"/>
<path d="M34.4689 41.3086C35.7025 42.1215 39.8033 42.1523 41.2004 41.3086" stroke="black" stroke-width="2" stroke-linecap="round" stroke-linejoin="round"/>
<path d="M24.9986 41.3086C26.2322 42.1215 30.333 42.1523 31.7301 41.3086" stroke="black" stroke-width="2" stroke-linecap="round" stroke-linejoin="round"/>
<path d="M69.788 41.1572C70.1794 40.8993 70.8594 40.7201 71.6502 40.6226M76.5196 41.1572C76.1102 40.91 75.4688 40.7379 74.7354 40.6385" stroke="black" stroke-width="2" stroke-linecap="round" stroke-linejoin="round"/>
<path d="M60.0732 41.1572C60.4646 40.8993 61.1446 40.7201 61.9353 40.6226M66.8047 41.1572C66.3954 40.91 65.754 40.7379 65.0206 40.6385" stroke="black" stroke-width="2" stroke-linecap="round" stroke-linejoin="round"/>
<path d="M47.4344 41.1572C47.8258 40.8993 48.5059 40.7201 49.2966 40.6226M54.166 41.1572C53.7567 40.91 53.1152 40.7379 52.3818 40.6385" stroke="black" stroke-width="2" stroke-linecap="round" stroke-linejoin="round"/>
<path d="M34.4689 41.1572C34.8603 40.8993 35.5403 40.7201 36.331 40.6226M41.2004 41.1572C40.7911 40.91 40.1497 40.7379 39.4163 40.6385" stroke="black" stroke-width="2" stroke-linecap="round" stroke-linejoin="round"/>
<path d="M24.9986 41.1572C25.39 40.8993 26.07 40.7201 26.8607 40.6226M31.7301 41.1572C31.3208 40.91 30.6794 40.7379 29.946 40.6385" stroke="black" stroke-width="2" stroke-linecap="round" stroke-linejoin="round"/>
<path d="M74.6387 40.8865C74.5981 36.387 74.6013 34.194 74.6387 30.8686C74.4095 30.3386 72.6602 30.3155 72.2443 30.8686C72.1466 35.0315 71.9903 37.2757 71.7001 40.8865" stroke="black" stroke-width="2" stroke-linecap="round" stroke-linejoin="round"/>
<path d="M36.8439 40.89C36.5939 35.5295 36.5021 33.0036 36.8439 30.1165C37.038 29.5466 38.5196 29.5217 38.8719 30.1165C39.1461 36.2243 39.2321 38.7062 39.3328 40.89" stroke="black" stroke-width="2" stroke-linecap="round" stroke-linejoin="round"/>
<path d="M62.2629 40.8865C61.9736 34.6216 61.9054 31.8043 62.2629 28.8113C62.4668 28.1726 64.0234 28.1447 64.3935 28.8113C64.4411 36.3619 64.7388 38.0314 64.8778 40.8865" stroke="black" stroke-width="2" stroke-linecap="round" stroke-linejoin="round"/>
<path d="M52.3521 40.8865C52.3145 35.463 52.3176 32.8197 52.3521 28.8113C52.1404 28.1726 50.5243 28.1447 50.14 28.8113C49.6544 34.2229 49.5476 36.8842 49.6373 40.8865" stroke="black" stroke-width="2" stroke-linecap="round" stroke-linejoin="round"/>
<path d="M26.9446 40.89C26.7901 35.5931 26.7538 32.7997 26.9446 27.5562C27.1644 26.8509 28.8431 26.8201 29.2422 27.5562C29.3242 32.6753 29.562 35.8732 29.7644 40.89" stroke="black" stroke-width="2" stroke-linecap="round" stroke-linejoin="round"/>
<path d="M73.3419 21.9834C73.0785 23.0203 76.1891 27.2001 73.3419 27.2001C71.2255 27.2001 71.8481 24.224 73.3419 21.9834Z" stroke="black" stroke-width="2" stroke-linecap="round" stroke-linejoin="round"/>
<path d="M37.9968 19.4487C38.3531 20.8517 34.1444 26.5072 37.9968 26.5072C40.8604 26.5072 40.0179 22.4803 37.9968 19.4487Z" stroke="black" stroke-width="2" stroke-linecap="round" stroke-linejoin="round"/>
<path d="M28.2557 18.3984C27.8621 20.5088 26.0468 24.034 28.5265 24.034C30.2437 24.034 30.2768 21.4301 28.2557 18.3984Z" stroke="black" stroke-width="2" stroke-linecap="round" stroke-linejoin="round"/>
<path d="M63.6011 17.7031C63.6011 19.4548 59.7487 24.7616 63.6011 24.7616C66.4647 24.7616 65.0871 21.0755 63.6011 17.7031Z" stroke="black" stroke-width="2" stroke-linecap="round" stroke-linejoin="round"/>
<path d="M50.9624 17.7031C50.0937 19.2738 47.625 24.7616 50.9624 24.7616C53.3854 24.7616 51.3914 20.7297 50.9624 17.7031Z" stroke="black" stroke-width="2" stroke-linecap="round" stroke-linejoin="round"/>
</svg>
