<svg width="100" height="100" viewBox="0 0 100 100" fill="none" xmlns="http://www.w3.org/2000/svg">
<path d="M75.612 82.0224C75.612 82.0224 77.5948 80.7512 79.2659 73.9511C79.2659 73.9511 87.7657 72.7217 87.0915 69.298C86.4173 65.8743 79.2659 66.575 79.2659 66.575C79.2659 66.575 75.4985 57.52 69.1269 54.9687C62.7554 52.4175 52.0348 50.1306 47.6858 49.0731C43.3368 48.0156 40.0585 46.7862 40.0585 43.0056C40.0585 39.225 39.0935 30.6062 38.8027 25.16C38.5119 19.7139 38.8027 15.9333 35.7095 15.4045C32.6163 14.8757 30.0122 16.0258 29.9197 18.2994C29.8271 20.5863 29.8271 26.3894 29.9197 29.2051C30.0122 32.0207 30.9375 35.3651 29.8536 36.7663C28.7696 38.1675 26.6413 38.5244 25.5837 37.9031C24.5262 37.2818 22.9796 34.6512 21.9089 31.4919C20.8382 28.3326 19.4899 22.3444 18.4324 20.6788C17.3748 19.0133 14.9557 17.7839 14.0833 19.0926C13.2108 20.4145 12.735 20.9432 13.1183 23.045C13.5017 25.16 13.9908 26.2044 15.2466 29.2051C16.5024 32.2057 19.5956 38.0882 19.8864 39.1457C20.1772 40.2032 20.468 40.2825 19.3973 41.6969C18.3398 43.0981 16.0133 46.0063 14.8632 47.4075C13.7132 48.8087 12.9333 49.8662 13.8983 50.6593C14.8633 51.4525 16.2116 52.4175 17.7582 53.0388C19.3049 53.66 20.2698 53.8319 22.2923 54.44C24.3148 55.0613 27.2229 54.44 27.8971 56.6343C28.5712 58.8287 28.6638 60.6793 28.2805 62.7018C27.8971 64.7243 27.6063 69.9987 27.7913 72.4574C27.9896 74.9161 28.4655 78.2605 29.338 79.318C30.2104 80.3755 31.5587 80.9043 32.3254 80.2037C33.0921 79.503 36.3837 72.4706 36.8596 71.1487C37.3487 69.8268 37.1504 68.0687 38.1154 69.2188C39.0804 70.3556 39.5694 70.4481 40.7194 73.5281C41.8695 76.6081 42.3586 79.1594 43.231 79.6881C44.1035 80.2169 45.6501 80.1244 47.4744 80.3888C49.2986 80.6531 50.074 81.4936 53.5506 82.0224C57.0272 82.5511 61.3568 83.5481 66.7872 83.5481C72.2175 83.5481 73.6556 83.4104 75.612 82.0224Z" stroke="black" stroke-width="2"/>
<path d="M42.3367 77.7085C42.3368 76.8124 46.1399 78.4062 47.5147 78.7216C46.8496 80.2926 45.2028 83.4657 43.937 83.5894C42.3547 83.7442 42.3366 79.8498 42.3367 77.7085Z" fill="black" stroke="black" stroke-width="2" stroke-miterlimit="10" stroke-linecap="round" stroke-linejoin="round"/>
<path d="M28.3777 76.9351C28.3778 76.0389 32.1809 77.6328 33.5557 77.9481C32.8906 79.5192 31.2438 82.6922 29.978 82.816C28.3957 82.9707 28.3776 79.0764 28.3777 76.9351Z" fill="black" stroke="black" stroke-width="2" stroke-miterlimit="10" stroke-linecap="round" stroke-linejoin="round"/>
<path d="M28.0294 45.2127C28.5624 45.2127 28.9945 44.8221 28.9945 44.3402C28.9945 43.8584 28.5624 43.4678 28.0294 43.4678C27.4965 43.4678 27.0645 43.8584 27.0645 44.3402C27.0645 44.8221 27.4965 45.2127 28.0294 45.2127Z" stroke="black" stroke-width="2"/>
<path d="M67.4961 65.5794C68.0199 65.7546 68.5865 65.472 68.7617 64.9483C68.9369 64.4245 68.6543 63.8579 68.1305 63.6827L67.4961 65.5794ZM59.3711 76.0653L59.9201 75.2295L59.9164 75.2271L59.3711 76.0653ZM54.4405 76.5941L54.1081 75.651L54.1068 75.6514L54.4405 76.5941ZM67.8133 64.6311C68.1305 63.6827 68.1303 63.6826 68.13 63.6825C68.1299 63.6825 68.1296 63.6824 68.1294 63.6823C68.1289 63.6821 68.1283 63.682 68.1277 63.6818C68.1264 63.6813 68.1249 63.6808 68.123 63.6802C68.1191 63.6789 68.1141 63.6773 68.1077 63.6752C68.0951 63.6711 68.0775 63.6654 68.0551 63.6583C68.0103 63.6441 67.9463 63.6243 67.865 63.6002C67.7024 63.552 67.4699 63.4864 67.1812 63.4139C66.6052 63.2693 65.7988 63.0956 64.8752 62.9795C63.0677 62.7523 60.6385 62.7224 58.629 63.7386L59.5315 65.5234C60.9986 64.7815 62.936 64.7515 64.6258 64.9639C65.4509 65.0676 66.1759 65.2236 66.6942 65.3537C66.9526 65.4186 67.1578 65.4766 67.2963 65.5177C67.3655 65.5382 67.4179 65.5544 67.4518 65.5652C67.4688 65.5705 67.4811 65.5745 67.4885 65.5769C67.4922 65.5781 67.4948 65.579 67.496 65.5794C67.4967 65.5796 67.497 65.5797 67.497 65.5797C67.497 65.5797 67.497 65.5797 67.4968 65.5796C67.4967 65.5796 67.4966 65.5796 67.4965 65.5795C67.4963 65.5795 67.4961 65.5794 67.8133 64.6311ZM58.629 63.7386C56.7777 64.6748 55.6098 65.7227 54.9387 66.896C54.2636 68.0761 54.1599 69.2639 54.2111 70.331L56.2088 70.2352C56.1674 69.3723 56.2606 68.613 56.6747 67.8891C57.0927 67.1584 57.9063 66.3453 59.5315 65.5234L58.629 63.7386ZM54.2111 70.331C54.2438 71.0147 54.4985 71.708 54.8173 72.3315C55.1426 72.9676 55.5714 73.6016 56.0281 74.1833C56.9284 75.3302 58.0234 76.3816 58.8258 76.9036L59.9164 75.2271C59.3572 74.8634 58.4179 73.9887 57.6012 72.9483C57.1993 72.4364 56.8489 71.9116 56.598 71.4209C56.3407 70.9177 56.2222 70.5164 56.2088 70.2352L54.2111 70.331ZM58.8221 76.9012C59.5971 77.4103 60.52 77.7211 60.9662 77.9101C61.2516 78.0309 61.3043 78.0811 61.2844 78.0615C61.2557 78.0331 61.174 77.9401 61.1385 77.7794C61.1016 77.6117 61.1394 77.4814 61.1634 77.426L62.9986 78.2209C63.1056 77.9739 63.163 77.6727 63.0917 77.3491C63.0219 77.0325 62.8518 76.7986 62.69 76.6386C62.4038 76.3559 62.011 76.1805 61.746 76.0683C61.0914 75.7912 60.4934 75.6061 59.9201 75.2295L58.8221 76.9012ZM61.1634 77.426C61.2592 77.2047 61.4369 77.0611 61.6056 76.9944C61.6778 76.9658 61.737 76.9555 61.7718 76.9514C61.8068 76.9474 61.8287 76.9484 61.8325 76.9486C61.8367 76.9488 61.8098 76.9473 61.74 76.9307C61.6734 76.915 61.5876 76.8904 61.4787 76.855C60.9807 76.6929 60.4361 76.4582 59.5989 76.1582C58.8299 75.8825 57.9288 75.5989 57.0029 75.459C56.08 75.3196 55.0679 75.3127 54.1081 75.651L54.7729 77.5372C55.3133 77.3468 55.965 77.3249 56.7042 77.4366C57.4403 77.5478 58.1996 77.7812 58.9242 78.0409C59.5806 78.2761 60.3627 78.595 60.8595 78.7567C61.1176 78.8408 61.432 78.9304 61.7285 78.9459C61.9764 78.9588 62.6915 78.93 62.9986 78.2209L61.1634 77.426ZM54.1068 75.6514C52.3872 76.2601 51.1511 77.3973 50.3585 78.3454C49.9592 78.8232 49.6625 79.2648 49.4639 79.5901C49.3643 79.7532 49.2887 79.8882 49.2366 79.9854C49.2105 80.034 49.1902 80.0733 49.1757 80.102C49.1685 80.1164 49.1626 80.1281 49.1583 80.137C49.1561 80.1415 49.1542 80.1453 49.1527 80.1483C49.152 80.1499 49.1513 80.1512 49.1508 80.1524C49.1505 80.153 49.1502 80.1535 49.15 80.154C49.1499 80.1543 49.1497 80.1546 49.1497 80.1547C49.1495 80.155 49.1494 80.1554 50.0518 80.5862C50.9542 81.0171 50.954 81.0174 50.9539 81.0177C50.9539 81.0178 50.9537 81.0181 50.9536 81.0182C50.9535 81.0185 50.9534 81.0188 50.9533 81.019C50.953 81.0195 50.9529 81.0198 50.9528 81.0199C50.9527 81.0201 50.9529 81.0197 50.9535 81.0186C50.9546 81.0163 50.957 81.0115 50.9607 81.0041C50.9682 80.9893 50.981 80.9644 50.999 80.9308C51.0352 80.8633 51.0924 80.7608 51.1709 80.6322C51.3284 80.3743 51.5687 80.0162 51.8931 79.6281C52.548 78.8445 53.5062 77.9856 54.7742 77.5368L54.1068 75.6514Z" fill="black"/>
<path d="M51.7559 83.6765C49.4349 83.5422 49.8826 81.3262 50.2017 81.3024C50.8401 81.2547 55.3748 82.2783 56.9336 82.5208C58.1806 82.7148 68.3143 83.0552 73.2253 83.2012C66.9253 84.7997 54.077 83.8108 51.7559 83.6765Z" fill="black" stroke="black" stroke-width="2" stroke-miterlimit="10" stroke-linecap="round" stroke-linejoin="round"/>
<path d="M51.7265 67.4593C51.7946 66.9112 51.4055 66.4117 50.8574 66.3436C50.3094 66.2755 49.8099 66.6645 49.7417 67.2126L51.7265 67.4593ZM48.0314 77.9707L48.8441 78.5533L48.8937 78.4841L48.9309 78.4076L48.0314 77.9707ZM50.7341 67.3359C49.7417 67.2126 49.7417 67.2125 49.7417 67.2125C49.7417 67.2125 49.7417 67.2125 49.7417 67.2125C49.7417 67.2126 49.7417 67.2128 49.7417 67.2131C49.7416 67.2136 49.7415 67.2146 49.7413 67.216C49.741 67.2187 49.7404 67.2231 49.7396 67.2291C49.7381 67.241 49.7358 67.2593 49.7326 67.2836C49.7262 67.3322 49.7165 67.4049 49.7035 67.4993C49.6774 67.6881 49.6379 67.9637 49.5846 68.307C49.478 68.994 49.3168 69.9493 49.0987 71.0212C48.6577 73.1893 48.0015 75.7433 47.1319 77.5338L48.9309 78.4076C49.9171 76.3772 50.6123 73.6139 51.0586 71.4199C51.2842 70.3106 51.4508 69.3237 51.5609 68.6137C51.6161 68.2584 51.6572 67.9718 51.6847 67.7731C51.6984 67.6737 51.7087 67.5963 51.7157 67.5432C51.7191 67.5167 51.7218 67.4962 51.7236 67.4821C51.7245 67.4751 51.7252 67.4696 51.7256 67.4658C51.7259 67.4639 51.7261 67.4624 51.7262 67.4613C51.7263 67.4608 51.7263 67.4603 51.7264 67.46C51.7264 67.4598 51.7264 67.4596 51.7264 67.4596C51.7264 67.4594 51.7265 67.4593 50.7341 67.3359ZM47.2186 77.3881C46.7957 77.9781 46.5098 78.3898 46.2717 78.7077C46.0284 79.0325 45.9069 79.1586 45.8391 79.2117C45.8195 79.227 45.843 79.2158 45.8333 79.2163C45.7544 79.2205 45.6134 79.2062 45.2464 79.1398L44.8903 81.1078C45.2173 81.167 45.5888 81.2322 45.9395 81.2135C46.3594 81.1912 46.7295 81.0548 47.0723 80.7863C47.3668 80.5556 47.6234 80.2392 47.8724 79.9067C48.1267 79.5673 48.4474 79.1067 48.8441 78.5533L47.2186 77.3881Z" fill="black"/>
</svg>
