<svg width="100" height="100" viewBox="0 0 100 100" fill="none" xmlns="http://www.w3.org/2000/svg">
<path d="M70.0612 31.865C69.1874 31.5473 39.1206 40.0807 23.6976 44.4495C22.4645 44.7985 27.2674 51.6237 28.2603 52.0208C29.2532 52.418 77.508 37.9217 77.8059 37.4252C78.1038 36.9288 71.1535 32.2621 70.0612 31.865Z" stroke="black" stroke-width="2" stroke-linecap="round"/>
<path d="M22.7662 45.5591C20.5837 46.1154 16.2187 47.3435 16.2188 47.8058C16.2188 48.3835 22.4452 58.7824 23.0871 58.7824C23.729 58.7824 83.9397 40.4239 84.2607 39.7178C84.5816 39.0117 76.4936 32.1433 75.9159 32.2075C75.4538 32.2588 73.4981 32.6568 72.578 32.8494" stroke="black" stroke-width="2" stroke-linecap="round"/>
<path d="M28.2212 52.019V57.2478" stroke="black" stroke-width="2" stroke-linecap="round"/>
<path d="M77.9233 37.4067L78.3251 41.5963" stroke="black" stroke-width="2" stroke-linecap="round"/>
<path d="M15.9602 47.8579C15.7868 50.3715 15.5441 55.565 15.9602 56.2307C16.4803 57.0627 21.4207 65.9035 22.5648 65.9035C23.7089 65.9035 82.7339 48.0139 83.462 46.8698C84.0444 45.9546 84.2056 41.786 84.2576 39.7404" stroke="black" stroke-width="2" stroke-linecap="round"/>
<path d="M23.0016 58.8623L22.5264 65.6203" stroke="black" stroke-width="2" stroke-linecap="round"/>
<path d="M31.6348 62.8499L31.6348 56.5793L35.3654 55.5078V61.8181L31.6348 62.8499Z" fill="black" stroke="black" stroke-width="2" stroke-linecap="round"/>
<path d="M41.5948 59.8067L41.5947 53.5361L45.3253 52.4646V58.7749L41.5948 59.8067Z" fill="black" stroke="black" stroke-width="2" stroke-linecap="round"/>
<path d="M52.0279 56.493L52.0278 50.2223L55.7584 49.1509V55.4612L52.0279 56.493Z" fill="black" stroke="black" stroke-width="2" stroke-linecap="round"/>
<path d="M62.4615 53.5948L62.4614 47.3242L66.192 46.2527V52.563L62.4615 53.5948Z" fill="black" stroke="black" stroke-width="2" stroke-linecap="round"/>
<ellipse cx="29.6582" cy="47.0844" rx="1.43697" ry="1.04499" fill="black"/>
<path d="M23.5399 44.5475C23.2401 45.4608 22.3192 48.4997 22.5155 49.0558C22.7608 49.751 27.7283 57.2299 27.9736 57.1072" stroke="black" stroke-width="2" stroke-linecap="round"/>
<path d="M22.7837 49.0891L23.3908 45.8256L28.1344 51.8972L27.1098 55.8438L22.7837 49.0891Z" fill="black"/>
<path d="M72.4053 50.4448L72.4053 44.1741L76.1359 43.1027V49.413L72.4053 50.4448Z" fill="black" stroke="black" stroke-width="2" stroke-linecap="round"/>
<ellipse cx="69.2788" cy="36.3618" rx="1.43697" ry="1.04499" fill="black"/>
<path d="M48.5024 64.2643V68.1435M58.6507 61.7678L60.6034 66.3242" stroke="black" stroke-width="2" stroke-linecap="round"/>
<path d="M67.2754 58.5947L68.984 60.3847" stroke="black" stroke-width="2" stroke-linecap="round"/>
</svg>
