<svg width="100" height="100" viewBox="0 0 100 100" fill="none" xmlns="http://www.w3.org/2000/svg">
<path d="M32.6758 18.2435C36.8957 20.4414 46.2321 25.1273 49.819 26.2877C54.3025 27.7382 65.2478 26.2876 71.3138 28.2657C77.3798 30.2438 80.281 38.8153 74.3468 44.8813C69.5995 49.7342 51.0058 69.2334 42.3024 78.3764" stroke="black" stroke-width="2"/>
<path d="M34.3412 77.9067C39.1467 73.1012 49.1354 62.9731 54.0527 58.2346C60.1992 52.3116 70.6359 43.9958 71.083 38.9669C71.4467 34.8752 70.1454 32.8664 65.4517 32.5311C60.758 32.1958 52.2646 33.2016 44.7771 30.296C37.2895 27.3903 34.0486 24.3729 32.3723 25.1552C31.0312 25.7811 31.5105 60.3612 32.0693 77.9067" stroke="black" stroke-width="2"/>
<path d="M26.7759 21.5105V78.1426" stroke="black" stroke-width="2"/>
<path d="M24.5592 81.1882C24.7107 79.4211 26.3052 78.1799 27.0835 77.7802C31.7537 77.5699 41.4095 77.2754 42.6717 77.7802C44.2494 78.4113 43.9338 82.7028 44.06 83.9019C44.1863 85.101 27.0834 84.4068 25.5688 84.4699C24.0542 84.533 24.3699 83.397 24.5592 81.1882Z" fill="black" stroke="black" stroke-width="2"/>
<path d="M61.1074 32.8259V51.6328" stroke="black" stroke-width="2"/>
<path d="M57.4385 32.6235V55.6487" stroke="black" stroke-width="2"/>
<path d="M53.8428 32.168V58.9886" stroke="black" stroke-width="2"/>
<path d="M50.1006 31.7632L50.1006 62.4298" stroke="black" stroke-width="2"/>
<path d="M46.0942 31.2936V65.567" stroke="black" stroke-width="2"/>
<path d="M42.0996 29.1487V70.0886" stroke="black" stroke-width="2"/>
<path d="M38.1802 27.406V74.0922" stroke="black" stroke-width="2"/>
<path d="M30.0625 15.4665C32.234 15.5253 33.1683 17.6128 33.364 18.7867C33.364 19.2758 33.0848 20.2807 33.0848 20.7503C33.0848 21.3372 25.6605 21.189 23.6797 21.1156C21.6988 21.0423 22.5059 17.7408 22.9461 16.4202C23.3863 15.0997 27.348 15.3931 30.0625 15.4665Z" fill="black" stroke="black" stroke-width="2"/>
</svg>
