<svg width="100" height="100" viewBox="0 0 100 100" fill="none" xmlns="http://www.w3.org/2000/svg">
<path d="M32.2465 56.9866C34.7065 64.8586 41.4264 73.1816 47.9464 77.1386C53.7864 80.6866 59.0465 82.1746 62.9265 79.4726C66.8065 76.7706 73.1165 67.4416 72.0965 57.2016C71.3365 49.5716 69.5965 42.9076 67.5965 41.7716C65.0565 40.3306 55.5765 40.4966 47.0165 44.1186C38.4565 47.7406 31.3465 54.1236 32.2465 56.9866Z" stroke="black" stroke-width="2" stroke-miterlimit="10" stroke-linecap="round" stroke-linejoin="round"/>
<path d="M58.7266 80.8509C58.7266 80.8509 70.8366 81.9249 74.3766 80.4429C77.9166 78.9609 72.6766 77.3119 70.4866 77.2869C68.3066 77.2609 65.7166 77.2539 65.7166 77.2539L63.1666 80.2579" fill="black"/>
<path d="M58.7266 80.8509C58.7266 80.8509 70.8366 81.9249 74.3766 80.4429C77.9166 78.9609 72.6766 77.3119 70.4866 77.2869C68.3066 77.2609 65.7166 77.2539 65.7166 77.2539L63.1666 80.2579" stroke="black" stroke-width="2" stroke-miterlimit="10" stroke-linecap="round" stroke-linejoin="round"/>
<path d="M54.9268 75.334C55.2468 75.852 56.2167 76.065 56.7767 76.357" stroke="black" stroke-width="2" stroke-miterlimit="10" stroke-linecap="round" stroke-linejoin="round"/>
<path d="M40.6567 61.0684C42.0267 65.4254 46.5567 70.9693 50.6167 73.0853" stroke="black" stroke-width="2" stroke-miterlimit="10" stroke-linecap="round" stroke-linejoin="round"/>
<path d="M33.0666 59.3837C33.0666 59.3837 25.4666 59.8717 25.0366 52.0837C24.6066 44.2967 28.0266 40.9777 32.1266 37.4837C36.2266 33.9897 43.4366 30.2867 47.6466 29.5277C51.8666 28.7687 59.5566 28.8797 62.8766 29.8747C68.8066 31.6507 74.0666 36.0037 73.4366 40.4447C72.8066 44.8857 69.6666 44.8667 69.6666 44.8667C69.6666 44.8667 68.8966 41.4117 66.0166 41.1727C60.7466 40.7367 56.3866 40.7967 48.5666 43.5387C39.7166 46.6427 32.1865 53.6777 32.1965 56.2217C32.2065 57.8917 33.0666 59.3837 33.0666 59.3837Z" fill="black" stroke="black" stroke-width="2" stroke-miterlimit="10" stroke-linecap="round" stroke-linejoin="round"/>
<path d="M32.9067 58.6873C32.9067 58.6873 33.6667 54.5723 39.2367 50.5693C44.8067 46.5663 48.5168 44.3203 53.6768 43.5563C58.8368 42.7913 66.1867 42.1913 67.6667 43.3293C69.1367 44.4673 69.6368 45.4073 70.4368 47.7993" stroke="black" stroke-width="2" stroke-miterlimit="10" stroke-linecap="round" stroke-linejoin="round"/>
<path d="M39.9464 32.1685C39.9464 32.1685 39.7865 27.9505 41.2765 24.5505C42.7565 21.1515 45.2064 19.6355 45.2064 19.6355C45.2064 19.6355 46.7264 18.6365 47.3264 19.1435C48.1564 19.8485 47.8365 20.2165 47.3765 21.4635C46.9265 22.7095 45.1864 23.4965 44.8464 24.9685C44.4964 26.4415 45.9664 29.4275 45.9664 29.4275" fill="black"/>
<path d="M39.9464 32.1685C39.9464 32.1685 39.7865 27.9505 41.2765 24.5505C42.7565 21.1515 45.2064 19.6355 45.2064 19.6355C45.2064 19.6355 46.7264 18.6365 47.3264 19.1435C48.1564 19.8485 47.8365 20.2165 47.3765 21.4635C46.9265 22.7095 45.1864 23.4965 44.8464 24.9685C44.4964 26.4415 45.9664 29.4275 45.9664 29.4275" stroke="black" stroke-width="2" stroke-miterlimit="10" stroke-linecap="round" stroke-linejoin="round"/>
</svg>
