<svg width="100" height="100" viewBox="0 0 100 100" fill="none" xmlns="http://www.w3.org/2000/svg">
<path d="M56.5773 61.165C56.7043 63.6468 56.5723 66.4583 56.3963 68.6575C56.2689 70.2498 57.5082 71.6552 59.1056 71.6552V71.6552C60.3993 71.6552 61.505 70.7198 61.6789 69.438C62.0342 66.8197 62.3991 63.2774 62.2386 61.165" stroke="black" stroke-width="2" stroke-linecap="round"/>
<path d="M39.204 47.9043C33.5825 48.2624 27.4885 48.7903 23.1399 49.7055C15.9012 51.229 11.9802 53.5467 11.9802 55.8925C11.9802 60.4028 27.8484 64.0591 47.4228 64.0591C50.3761 64.0591 53.2452 63.9758 55.988 63.819M76.6137 51.2658C80.9158 52.6175 82.8653 54.0878 82.8653 55.8925C82.8653 59.1651 74.5108 61.9882 62.4479 63.2911" stroke="black" stroke-width="2" stroke-linecap="round"/>
<path d="M82.8653 55.8301C82.8653 55.8301 82.3631 58.9814 82.4614 61.9061C82.5597 64.8307 82.8653 67.9789 82.8653 67.9789C82.8653 72.4892 66.9971 76.1456 47.4228 76.1456C27.8484 76.1456 11.9802 72.4892 11.9802 67.9789C11.9802 67.9789 12.1426 65.4826 12.0815 63.5541C11.9918 60.7246 11.9802 55.8301 11.9802 55.8301" stroke="black" stroke-width="2" stroke-linecap="round"/>
<path d="M11.9039 69.1474C13.3168 70.2564 14.8722 71.2722 16.5517 72.1975C31.1687 77.1226 75.5883 79.0452 83.7567 68.7988C90.3967 71.4843 82.6381 76.1997 77.0382 77.2923C55.6579 81.4641 31.3124 80.3296 16.5517 72.1975C13.791 71.2673 12.0934 70.23 11.9039 69.1474Z" fill="black"/>
<path d="M74.2329 61.1652C72.0693 60.6939 69.8454 60.1119 67.3157 59.5494M20.1185 61.0443C26.0218 59.8523 34.7348 57.7247 46.9987 57.4976" stroke="black" stroke-width="2" stroke-linecap="round"/>
<path d="M79.5149 40.1427C79.5149 45.821 77.892 49.1483 74.9253 52.8464C73.8971 54.1281 72.1079 56.0808 70.8215 57.0847C67.4419 59.7225 63.714 61.3142 59.1844 61.3142C51.9382 61.3142 45.5775 57.3665 41.9772 51.4237C39.9987 48.1578 38.8539 44.2895 38.8539 40.1427C38.8539 35.2603 40.6401 31.1999 43.3062 27.6185C45.0279 25.3057 47.0004 22.9385 49.4853 21.5312C52.368 19.8987 55.6722 18.9712 59.1844 18.9712C70.226 19.0929 79.5149 29.0229 79.5149 40.1427Z" stroke="black" stroke-width="2" stroke-linecap="round"/>
<path d="M61.7538 62.4906L67.2903 59.9551L71.2227 61.8179L61.7538 62.4906Z" fill="black"/>
<ellipse cx="32.9539" cy="55.4369" rx="1.06284" ry="1.37394" fill="black"/>
<ellipse cx="32.9539" cy="51.8837" rx="1.06284" ry="1.37394" fill="black"/>
<path d="M75.6487 40.1424C75.6487 30.6733 68.2773 22.9971 59.1844 22.9971M59.1844 57.2877C50.0914 57.2877 42.7201 49.6115 42.7201 40.1424" stroke="black" stroke-width="2" stroke-linecap="round"/>
<path d="M57.588 61.3142C46.3597 61.3142 37.2574 51.8354 37.2574 40.1427C37.2574 28.45 46.3597 18.9712 57.588 18.9712" stroke="black" stroke-width="2" stroke-linecap="round"/>
<path d="M63.6894 39.9823C63.6894 42.5608 61.875 44.6511 59.6367 44.6511C57.3984 44.6511 55.584 42.5608 55.584 39.9823C55.584 37.4038 57.3984 35.3135 59.6367 35.3135C61.875 35.3135 63.6894 37.4038 63.6894 39.9823Z" stroke="black" stroke-width="2" stroke-linecap="round"/>
<path d="M58.9404 44.5677C61.1787 44.5677 62.7468 42.5608 62.7468 39.9822C62.7468 37.4037 61.4293 35.335 59.1911 35.335" stroke="black" stroke-width="2" stroke-linecap="round"/>
</svg>
