<svg width="100" height="100" viewBox="0 0 100 100" fill="none" xmlns="http://www.w3.org/2000/svg">
<path d="M21.5833 70.6831C21.5833 68.3796 23.2825 63.5581 24.0907 62.2782C24.0907 62.2782 21.1235 69.8551 26.8237 76.3363C32.524 82.8175 41.0985 82.3278 41.0985 82.3278L42.051 83.6166C40.6173 84.0325 37.0247 84.8163 33.1369 83.6166C28.2771 82.1169 27.1386 81.2142 24.5879 78.3693C22.4077 75.9374 21.5834 74.0173 21.5833 70.6831Z" fill="black" stroke="black" stroke-width="2"/>
<path d="M39.6691 82.336C35.0939 81.8345 30.8638 78.5834 28.5153 76.8747C26.1668 75.166 23.2221 70.6441 23.2217 66.3404C23.2214 63.1875 25.1061 60.0419 26.2464 58.8504C28.4588 56.7662 30.5134 55.0521 37.4032 55.8436C40.0903 56.1523 42.394 57.6682 44.1956 59.4627" stroke="black" stroke-width="2"/>
<path d="M33.7071 68.5644C33.6821 70.2381 35.3629 73.114 35.5315 73.3596C35.7001 73.6052 35.0018 71.4302 36.0317 68.5644C37.0616 65.6985 43.618 59.5646 43.618 59.5646L52.29 55.7342L59.3233 55.7342C59.8249 55.1878 62.2125 54.4571 58.8447 53.6857C54.635 52.7214 50.9619 53.3404 46.997 54.2471C43.0322 55.1539 39.8852 58.0533 37.6848 60.1045C35.4844 62.1557 33.7384 66.4722 33.7071 68.5644Z" fill="black" stroke="black" stroke-width="2"/>
<path d="M39.5767 76.4696C39.3906 78.424 39.9847 82.7128 43.849 84.2328C48.6794 86.1327 53.0432 86.9253 58.2976 84.4794C63.552 82.0334 68.3157 77.3324 69.0299 72.9809" stroke="black" stroke-width="2"/>
<path d="M50.6071 70.9403C48.635 72.2776 47.6187 75.0837 47.3572 76.3195C46.8602 81.5039 52.8003 81.3016 54.9271 81.2292L54.9615 81.228C57.0578 81.1568 58.8807 79.8652 60.7935 77.8825C62.6374 75.9712 64.0014 71.7841 61.2497 69.5853C58.498 67.3865 53.0724 69.2687 50.6071 70.9403Z" fill="black" stroke="black" stroke-width="2"/>
<path d="M30.1475 65.5214C30.2497 61.57 34.7769 61.0868 36.3821 61.1713C36.3821 61.1713 35.0588 63.3622 34.3798 66.0859C33.7008 68.8095 35.0236 73.5358 35.0236 73.5358C31.8646 72.1 30.0921 67.6658 30.1475 65.5214Z" fill="black" stroke="black" stroke-width="2"/>
<path d="M31.2769 42.3254C30.2432 46.81 29.5595 53.2678 29.6599 56.1954C31.857 55.0847 35.9964 55.2383 38.1602 55.698C37.5972 54.1772 38.3277 47.4041 39.4545 43.5956C40.5813 39.787 41.5552 33.7018 46.3063 26.8355C50.2229 21.1751 55.7463 18.9027 58.6644 18.2512C58.2462 16.9428 56.5785 14.2584 53.2529 13.9878C49.0959 13.6496 46.2888 16.2775 43.6347 18.2499C41.5709 19.7835 38.3693 24.3997 37.5693 25.7088C35.1169 29.7223 32.9226 35.1857 31.2769 42.3254Z" stroke="black" stroke-width="2"/>
<path d="M57.2337 55.7916C52.0825 55.9799 40.6907 58.8675 36.3326 68.9118C35.8256 70.1334 35.0428 72.8775 35.9672 74.0814C37.1228 75.5862 39.3628 76.6217 40.3503 75.922C41.3379 75.2223 46.182 61.6993 58.684 62.5362C68.6612 63.2041 69.5966 70.4694 68.9607 73.2838C68.9575 73.298 68.956 73.3116 68.956 73.3261V73.3261C68.956 73.3436 68.981 73.3485 68.9855 73.3315C69.7051 70.5697 72.1727 65.1631 67.8217 59.6167" stroke="black" stroke-width="2"/>
<path d="M59.731 46.1526L62.8892 47.9479C60.823 54.2928 59.8334 57.0591 59.4156 57.5638C58.7625 57.0502 57.4065 55.7595 57.2069 54.7052C57.0074 53.6509 58.8065 48.5642 59.731 46.1526Z" fill="black" stroke="black" stroke-width="2"/>
<path d="M59.507 57.1754C60.1949 56.2484 62.0156 50.6004 62.8824 47.8039C67.3541 49.315 72.9928 49.7571 73.0041 50.8109C73.0154 51.8647 69.1997 59.289 68.8474 60.0822C68.4952 60.8754 58.647 58.3342 59.507 57.1754Z" stroke="black" stroke-width="2"/>
<path d="M59.921 46.1343C60.6444 39.5422 62.9194 26.852 58.9463 19.354C58.2716 18.3926 57.3967 15.9419 55.6048 14.7449C54.8187 14.3882 54.1429 14.1777 53.7232 14.0692C53.0624 13.9602 53.1723 13.9268 53.7232 14.0692C53.7994 14.0818 53.8859 14.0954 53.9831 14.1098C54.5961 14.2008 55.1323 14.4293 55.6048 14.7449C57.1232 15.4339 59.0533 16.6685 60.3455 18.7675C63.1693 23.3545 63.709 27.0344 63.3366 33.092C62.9409 39.5266 63.1987 44.3118 61.7258 48.0493L59.921 46.1343Z" fill="black" stroke="black" stroke-width="2"/>
<path d="M74.1477 30.7814C74.6415 37.268 73.319 45.4262 72.2191 50.0899L62.1408 47.8655C62.2972 45.1068 62.8899 41.3913 63.0893 30.7814C63.2887 20.1715 56.6083 14.4829 53.9537 14.0807C55.8889 14.3703 62.4359 15.3232 64.4628 16.0456C66.9965 16.9487 67.9255 17.4501 69.5074 19.367C71.0894 21.2839 73.6884 24.7467 74.1477 30.7814Z" stroke="black" stroke-width="2"/>
</svg>
