<svg width="100" height="100" viewBox="0 0 100 100" fill="none" xmlns="http://www.w3.org/2000/svg">
<path d="M24.5203 45.9153C22.0503 46.4091 22.7503 50.0311 25.9303 49.7747C26.7503 49.7081 30.3103 49.7288 34.9403 49.3734C38.6403 49.0887 41.4703 51.0666 41.9103 53.4114C42.1403 54.6275 42.1303 62.8916 60.7603 62.4918C78.2703 62.1162 81.3503 57.1475 82.1803 52.872C83.0203 48.5964 76.9803 39.7454 65.0203 40.3082C63.7303 40.3693 60.6703 37.541 60.6703 37.541L55.4403 37.6598L51.3103 41.9953C51.3103 41.9953 31.6003 44.5047 24.5203 45.9153Z" stroke="black" stroke-width="2" stroke-miterlimit="10" stroke-linecap="round" stroke-linejoin="round"/>
<path d="M65 62.3047L64.78 67.5756" stroke="black" stroke-width="2" stroke-miterlimit="10" stroke-linecap="round" stroke-linejoin="round"/>
<path d="M51.1099 62.1328L49.6899 66.7145" stroke="black" stroke-width="2" stroke-miterlimit="10" stroke-linecap="round" stroke-linejoin="round"/>
<path d="M44.2603 67.198C44.2603 67.198 63.6903 67.8294 65.5103 67.8165C68.2503 67.7971 69.9003 67.6279 70.5103 66.4922" stroke="black" stroke-width="2" stroke-miterlimit="10" stroke-linecap="round" stroke-linejoin="round"/>
<path d="M72.6299 61.2061L76.2499 64.7419" stroke="black" stroke-width="2" stroke-miterlimit="10" stroke-linecap="round" stroke-linejoin="round"/>
<path d="M73.1401 65.008C75.2001 65.0089 78.2701 65.1268 79.6201 64.935C81.3701 64.6878 81.3202 62.7881 81.3202 62.7881" stroke="black" stroke-width="2" stroke-miterlimit="10" stroke-linecap="round" stroke-linejoin="round"/>
<path d="M50.04 47.9905C48.78 48.064 47.79 49.316 47.98 51.0154C48.16 52.7148 48.78 54.2482 50.47 54.0987C52.16 53.9492 53.28 52.3115 53.03 50.7213C52.78 49.1311 51.3 47.9169 50.04 47.9905Z" fill="black" stroke="black" stroke-width="2" stroke-miterlimit="10" stroke-linecap="round" stroke-linejoin="round"/>
<path d="M57.9701 46.1065C57.6001 49.4102 57.7701 53.1887 59.1201 56.2515C59.5401 57.217 66.9201 56.8419 67.1201 55.5319C67.6401 52.2482 66.9001 48.3775 65.8801 45.1899C65.5401 44.1342 58.0801 45.1332 57.9701 46.1065Z" stroke="black" stroke-width="2" stroke-miterlimit="10" stroke-linecap="round" stroke-linejoin="round"/>
<path d="M70.7298 40.9121C70.7298 40.9121 70.4898 51.6802 73.6298 52.8854C76.7598 54.0906 81.8099 53.9113 81.8099 53.9113C81.8099 53.9113 83.9998 49.7893 77.8398 44.2296C74.7398 41.4311 70.7298 40.9121 70.7298 40.9121Z" fill="black" stroke="black" stroke-width="2" stroke-miterlimit="10" stroke-linecap="round" stroke-linejoin="round"/>
<path d="M25.88 45.2909C25.88 45.2909 25.4 43.9422 22.52 39.1047C20.9 36.3703 16 37.2665 16 37.2665C16 37.2665 18.58 45.1432 19.42 47.1852C19.64 47.725 17.73 56.2074 17.73 56.2074C17.73 56.2074 22.43 56.2658 23.11 55.5282C25.54 52.9006 26.23 50.3433 26.23 50.3433" stroke="black" stroke-width="2" stroke-miterlimit="10" stroke-linecap="round" stroke-linejoin="round"/>
<path d="M57.9901 37.5355L57.8501 32" stroke="black" stroke-width="2" stroke-miterlimit="10" stroke-linecap="round" stroke-linejoin="round"/>
<path d="M29.55 34.7119L58.1901 33.6074" stroke="black" stroke-width="2" stroke-miterlimit="10" stroke-linecap="round" stroke-linejoin="round"/>
<path d="M58.8301 33.4528L84.3901 32.1182" stroke="black" stroke-width="2" stroke-miterlimit="10" stroke-linecap="round" stroke-linejoin="round"/>
</svg>
