<svg width="100" height="100" viewBox="0 0 100 100" fill="none" xmlns="http://www.w3.org/2000/svg">
<path d="M86.3828 75.417H13.7191" stroke="black" stroke-width="2" stroke-linecap="round"/>
<path d="M67.2898 75.1113C64.3842 75.1113 62.2289 72.1754 62.0288 69.8502L73.8662 69.8502C73.8662 72.7559 70.1955 75.1113 67.2898 75.1113Z" fill="black"/>
<path d="M53.7557 75.1113C50.85 75.1113 48.6947 72.1754 48.4946 69.8502L60.332 69.8502C60.332 72.7559 56.6613 75.1113 53.7557 75.1113Z" fill="black"/>
<path d="M40.1248 75.1113C37.2192 75.1113 35.0638 72.1754 34.8637 69.8502L46.7012 69.8502C46.7012 72.7559 43.0304 75.1113 40.1248 75.1113Z" fill="black"/>
<path d="M14.7068 40.0744C14.7068 40.0744 55.7424 39.7235 59.2743 40.0744C62.8062 40.4252 67.8994 41.8626 70.8446 44.8077C73.7898 47.7529 76.8759 52.1883 78.3127 53.1173C79.7495 54.0463 86.4751 55.8732 86.3068 58.4817C86.0964 61.7425 79.8872 69.8554 70.4206 69.5398C62.8473 69.2874 25.5579 69.125 13.9175 68.9497" stroke="black" stroke-width="2" stroke-linecap="round"/>
<path d="M61.0626 61.6372C44.9936 62.154 33.2259 61.6372 17.936 61.6372" stroke="black" stroke-width="2" stroke-linecap="round"/>
<path d="M72.3531 64.3586C72.8109 63.1674 73.0956 62.4519 74.2937 59.9802C76.5009 59.8686 77.3435 59.8927 78.641 59.9802C78.1093 61.5292 77.6016 62.5117 76.516 64.3586C75.1633 64.2698 74.1455 64.3043 72.3531 64.3586Z" fill="black" stroke="black" stroke-width="2" stroke-linecap="round" stroke-linejoin="round"/>
<path d="M67.7949 55.431C59.3928 54.7535 55.5475 48.7435 55.0247 44.4358C54.9582 43.8876 55.4101 43.4399 55.9624 43.4399H68.5669L77.5281 53.084L82.8363 55.431C81.1534 55.6063 73.0121 55.8518 67.7949 55.431Z" fill="black"/>
<path d="M55.0247 44.4358L56.0174 44.3154L55.0247 44.4358ZM67.7949 55.431L67.7145 56.4278L67.7949 55.431ZM82.8363 55.431L82.9399 56.4257C83.3907 56.3787 83.7536 56.0344 83.8241 55.5867C83.8947 55.1389 83.6553 54.6997 83.2407 54.5164L82.8363 55.431ZM68.5669 43.4399L69.2995 42.7592L69.0028 42.4399H68.5669V43.4399ZM77.5281 53.084L76.7956 53.7647L76.9356 53.9154L77.1237 53.9986L77.5281 53.084ZM54.032 44.5563C54.6053 49.2805 58.7853 55.7077 67.7145 56.4278L67.8753 54.4343C60.0003 53.7992 56.4897 48.2066 56.0174 44.3154L54.032 44.5563ZM67.7145 56.4278C72.9915 56.8533 81.1944 56.6075 82.9399 56.4257L82.7327 54.4364C81.1123 54.6052 73.0326 54.8502 67.8753 54.4343L67.7145 56.4278ZM55.9624 44.4399H68.5669V42.4399H55.9624V44.4399ZM83.2407 54.5164L77.9325 52.1694L77.1237 53.9986L82.4319 56.3456L83.2407 54.5164ZM78.2607 52.4033L69.2995 42.7592L67.8344 44.1206L76.7956 53.7647L78.2607 52.4033ZM56.0174 44.3154C56.0194 44.3316 56.0179 44.3549 56.0094 44.3791C56.0015 44.4018 55.9904 44.4171 55.9819 44.4258C55.9665 44.4419 55.9572 44.4399 55.9624 44.4399V42.4399C54.8947 42.4399 53.8833 43.3314 54.032 44.5563L56.0174 44.3154Z" fill="black"/>
<path d="M13.6172 75.419C13.6172 66.1731 13.6172 62.5371 13.6173 52.3517C13.6173 36.5465 17.5828 23.7339 22.4746 23.7339C25.4708 23.7339 28.6212 32.0108 30.2241 39.368" stroke="black" stroke-width="2" stroke-linecap="round"/>
<path d="M28.4873 75.3647C28.4873 74.2288 28.4872 71.2656 28.4873 69.4233" stroke="black" stroke-width="2" stroke-linecap="round"/>
<path d="M14.9295 74.9269C14.9295 65.6809 14.2539 62.7515 14.2539 52.5662C14.2539 36.761 17.5827 23.7339 22.4745 23.7339" stroke="black" stroke-width="2" stroke-linecap="round"/>
<path d="M28.5872 68.9218L13.6328 68.9048C13.6328 72.0655 13.9119 72.7727 13.9119 76.2459C15.049 76.276 23.883 76.2629 28.4086 76.2629C29.0828 74.4143 28.1418 69.7658 28.5872 68.9218Z" fill="black"/>
<path fill-rule="evenodd" clip-rule="evenodd" d="M24.18 48.1108C24.2701 49.647 24.3826 51.5657 24.3826 54.1305C24.3826 55.0999 25.1999 55.6649 26.1671 55.6919C36.9623 55.9931 42.3451 55.8909 50.0162 55.7451C51.4091 55.7187 52.8774 55.6908 54.4674 55.6636C55.965 55.6636 56.7835 53.9172 55.8252 52.7662C51.9721 47.6884 50.8687 46.2512 48.326 43.5873C47.8627 43.1019 47.3465 42.7438 46.3942 42.7438C40.608 42.7184 37.4212 42.7371 31.9629 42.7692C30.1487 42.7798 28.0835 42.792 25.5886 42.8045C24.5802 42.8045 24.2535 43.173 24.1439 44.0777C24.0088 45.1929 24.0808 46.4202 24.18 48.1108ZM40.0408 46.4006L40.0408 46.4006C40.3761 45.9617 40.2922 45.3342 39.8533 44.9989C39.4145 44.6636 38.7869 44.7475 38.4516 45.1864L39.2462 45.7935L38.4515 45.1865L38.4514 45.1866L38.451 45.1871L38.4496 45.189L38.4442 45.1961L38.4237 45.223L38.3467 45.3244C38.2806 45.4115 38.1866 45.5359 38.0744 45.6855C37.8503 45.9843 37.552 46.3858 37.2577 46.793C36.9657 47.1971 36.6684 47.6196 36.451 47.9564C36.3452 48.1204 36.2419 48.2893 36.1675 48.4356C36.1336 48.5021 36.0821 48.6094 36.0466 48.7312C36.0301 48.7882 35.9993 48.9065 36.0003 49.0548C36.0011 49.1863 36.0297 49.5339 36.3363 49.8116C36.5095 49.9685 36.6927 50.0243 36.7409 50.039L36.7413 50.0391C36.8171 50.0622 36.8844 50.074 36.9274 50.0806C37.0156 50.0939 37.105 50.0996 37.1773 50.1027C37.3273 50.1091 37.5121 50.108 37.7041 50.104C38.0413 50.0969 38.4637 50.0789 38.8831 50.0611L39.0708 50.0531L39.1449 50.05C39.0732 50.1379 39 50.2269 38.9262 50.3163C38.5662 50.7517 38.2002 51.1828 37.9235 51.5057C37.7853 51.6669 37.6698 51.8008 37.5889 51.8941L37.4953 52.0021L37.4708 52.0302L37.4647 52.0373L37.4632 52.039L37.4628 52.0394L37.4628 52.0394C37.0997 52.4556 37.1426 53.0873 37.5588 53.4504C37.9749 53.8135 38.6066 53.7705 38.9697 53.3544L38.258 52.7334C38.9697 53.3544 38.9698 53.3544 38.9698 53.3543L38.9699 53.3542L38.9704 53.3536L38.9722 53.3516L38.9789 53.3439L39.0046 53.3144L39.1009 53.2033C39.1836 53.1078 39.3014 52.9713 39.4421 52.8071C39.7232 52.4791 40.0976 52.0383 40.4678 51.5904C40.8355 51.1456 41.2091 50.6816 41.4838 50.311C41.6182 50.1297 41.7466 49.9472 41.8398 49.7903C41.8828 49.7179 41.9438 49.609 41.9888 49.4866C42.01 49.4289 42.0479 49.315 42.0586 49.1709C42.0678 49.0462 42.07 48.7099 41.8055 48.4096C41.6499 48.2329 41.4739 48.1558 41.4069 48.1285C41.3216 48.0937 41.2451 48.0747 41.1953 48.0639C41.0945 48.0422 40.9946 48.0319 40.9175 48.0259C40.7572 48.0136 40.5643 48.0109 40.3693 48.0121C39.9735 48.0146 39.4693 48.0346 38.9866 48.0549L38.808 48.0625L38.8787 47.9645C39.1636 47.5703 39.4543 47.1791 39.6744 46.8856C39.7843 46.7391 39.8762 46.6174 39.9405 46.5326L40.0151 46.4344L40.0345 46.4089L40.0394 46.4025L40.0405 46.401L40.0408 46.4007L40.0408 46.4006ZM37.9432 49.3567C37.9431 49.3567 37.9437 49.3553 37.9451 49.3524L37.9432 49.3567Z" fill="black"/>
<path d="M14.059 39.903L30.8397 39.3403C29.2366 33.9506 25.815 23.7339 22.4561 23.7339C19.0973 23.7339 15.4585 34.5133 14.059 39.903Z" fill="black"/>
</svg>
