<svg width="100" height="100" viewBox="0 0 100 100" fill="none" xmlns="http://www.w3.org/2000/svg">
<path d="M31.3484 74.2583C30.3272 74.3264 27.0758 73.825 23.4812 70.0671C18.9881 65.3697 22.26 55.673 25.2214 54.2434C28.1828 52.8137 46.4618 59.3492 52.2824 57.511C56.9389 56.0405 60.8603 46.4824 63.209 40.1512L71.1139 17.644" stroke="black" stroke-width="2" stroke-linecap="round"/>
<path d="M78.7307 18.8091C74.3055 32.3225 64.9242 60.2685 62.8003 63.9448C59.6194 69.4504 55.2437 71.0931 53.7119 71.808" stroke="black" stroke-width="2" stroke-linecap="round"/>
<path d="M42.1048 67.0851C34.5945 66.8949 31.1129 68.9268 32.0037 71.4818C34.8556 76.1163 51.6105 74.9281 53.0362 71.8389C53.8842 70.0015 51.4926 67.3228 42.1048 67.0851Z" stroke="black" stroke-width="2" stroke-linecap="round"/>
<path d="M31.8174 70.9077C31.8174 70.9077 31.8176 76.5935 31.8174 78.0654C31.8172 79.5374 36.7032 82.3912 43.3007 82.1111C49.1698 81.8619 53.1108 79.8175 53.0725 78.7501C53.0341 77.6827 53.2751 71.7196 53.2751 71.7196" stroke="black" stroke-width="2" stroke-linecap="round"/>
<path d="M67.647 50.5421L60.5205 47.5157L67.0612 29.8462L74.1876 32.482L67.647 50.5421Z" fill="black" stroke="black" stroke-width="2" stroke-linecap="round"/>
<path d="M36.3625 74.1733L32.2712 72.23L31.7598 78.1623L33.652 80.2079L40.914 82.3558L47.9714 81.7421L52.8298 79.3896L53.2389 72.23L51.3979 73.2527L43.4199 74.6335L36.3625 74.1733Z" fill="black"/>
<path d="M29.6379 74.0347C23.4123 71.3897 22.008 67.8527 22.0078 63.057C22.0077 60.5802 22.3611 58.0373 23.2246 56.4097" stroke="black" stroke-width="2"/>
</svg>
