<svg width="100" height="100" viewBox="0 0 100 100" fill="none" xmlns="http://www.w3.org/2000/svg">
<path d="M58.4991 36.5307C58.2277 36.0556 60.705 33.3628 62.0626 32.3728C63.7596 30.4213 66.8142 36.5307 65.287 37.7185C64.2071 38.5584 58.8384 37.1245 58.4991 36.5307Z" fill="black" stroke="black" stroke-width="2" stroke-linecap="round"/>
<path d="M46.77 67.7581C46.7699 68.5982 47.6413 68.8441 48.3998 68.99C48.9757 69.1345 49.8746 61.0026 50.3121 59.69C50.7496 58.3774 49.6135 55.6668 47.6883 55.7543C45.7631 55.8418 46.7701 66.7081 46.77 67.7581Z" fill="black" stroke="black" stroke-width="2" stroke-linecap="round"/>
<path d="M60.0577 63.9481C59.0936 63.8914 59.656 61.9866 60.0577 61.0413C60.3279 60.309 63.2994 61.4047 64.93 61.83C66.5607 62.2553 69.1 63.8297 68.8873 64.6094C68.6746 65.3892 61.2628 64.0189 60.0577 63.9481Z" fill="black" stroke="black" stroke-width="2" stroke-linecap="round"/>
<path d="M62.532 41.8037C64.574 43.506 65.6645 47.6061 65.1083 49.3697C63.2864 55.147 56.5756 58.9015 55.3486 60.6544C54.4947 61.8743 54.468 64.2099 53.7228 67.6868C53.3799 69.2868 52.7566 73.3007 52.7862 73.8633" stroke="black" stroke-width="2" stroke-linecap="round"/>
<path d="M53.0522 49.0864C50.4374 52.5955 49.2191 55.4188 48.999 56.2996" stroke="black" stroke-width="2" stroke-linecap="round"/>
<path d="M48.1133 69.3955V72.1582" stroke="black" stroke-width="2" stroke-linecap="round"/>
<path d="M51.0869 53.1006C51.4878 54.5701 54.8544 58.3507 57.6331 58.511" stroke="black" stroke-width="2" stroke-linecap="round"/>
<path d="M50.5898 62.8396L53.8368 63.3205" stroke="black" stroke-width="2" stroke-linecap="round"/>
<path d="M63.7119 53.145C64.1641 54.4337 65.1499 57.0246 65.4754 57.0789C65.8009 57.1332 71.827 58.7845 74.4949 59.4854" stroke="black" stroke-width="2" stroke-linecap="round"/>
<path d="M57.8721 59.0137C58.0919 59.6915 58.8282 61.4646 59.3556 62.036" stroke="black" stroke-width="2" stroke-linecap="round"/>
<path d="M67.788 63.4779L73.6171 63.7088" stroke="black" stroke-width="2" stroke-linecap="round"/>
<path d="M59.8917 37.7473C57.673 39.7709 52.2311 44.75 51.4704 45.5693C50.5195 46.5934 50.5467 48.3311 52.0096 48.6969C53.4725 49.0626 55.1912 48.8586 55.5686 46.486C55.8674 44.6077 62.5251 41.7703 63.3297 41.1851C63.9733 40.717 65.161 39.3306 65.161 37.7473" stroke="black" stroke-width="2" stroke-linecap="round"/>
<path d="M62.1963 31.8031C60.4015 30.3813 56.2386 27.4537 53.945 27.1181C51.078 26.6986 49.9926 27.1181 49.7129 27.1181C49.5914 27.1181 48.3928 29.3965 47.0793 29.9682C45.3694 30.7123 42.5017 29.9084 41.9876 31.1739C41.0785 33.4115 40.585 41.865 41.424 42.4244C42.263 42.9839 46.3932 42.432 47.372 41.8026" stroke="black" stroke-width="2" stroke-linecap="round"/>
<path d="M51.4248 33.3877C53.1998 35.125 56.4254 38.4009 57.2866 37.6758C58.1477 36.9507 58.6652 36.3162 58.8163 36.0896" stroke="black" stroke-width="2" stroke-linecap="round"/>
<path d="M47.4256 38.9839C47.7418 40.4261 47.805 43.6905 47.4256 44.9708C46.9514 46.5711 46.2995 49.8305 45.529 50.5418C44.7585 51.253 41.923 54.6495 41.6171 55.402C41.4561 55.7979 40.6429 57.3177 39.825 58.0641C39.2565 58.5828 39.0123 57.0602 38.2476 57.0602C36.9091 57.0602 36.2568 56.3845 36.5744 55.402C37.2436 53.3316 39.5427 53.1497 41.0837 51.0159C42.6248 48.8822 43.4545 43.7256 43.5731 42.9551" stroke="black" stroke-width="2" stroke-linecap="round"/>
<path d="M37.8626 57.3195C34.5813 59.6747 28.1447 64.197 24.7612 66.4542M24.7612 66.4542C23.4513 67.3279 22.5019 67.9248 22.1978 68.0361C20.8357 68.5346 18.0447 67.2392 16.9155 65.8521C15.7863 64.4649 17.5643 63.4302 18.5072 63.5466C19.45 63.6631 21.271 68.1847 24.7612 66.4542Z" stroke="black" stroke-width="2" stroke-linecap="round"/>
<path d="M42.9521 53.5942L50.9043 48.272" stroke="black" stroke-width="2" stroke-linecap="round"/>
<path d="M62.957 41.9093L68.653 37.8154" stroke="black" stroke-width="2" stroke-linecap="round"/>
<path d="M40.5205 22.1731C39.1691 26.8356 41.2929 29.4173 46.0732 29.4173C51.5264 26.4934 47.8301 20.6188 46.0732 19.4701C45.1117 18.8414 41.7029 18.0934 40.5205 22.1731Z" stroke="black" stroke-width="2" stroke-linecap="round"/>
<path d="M47.8542 76.587C48.2385 75.9633 47.7781 73.6794 47.8542 72.8429C47.9302 72.0065 51.8576 73.2614 52.7221 73.7445C54.0328 74.4769 52.5356 79.0003 52.2315 79.4565C51.9881 79.8215 43.534 80.1827 43.3104 80.1681C43.0868 80.1535 43.3103 80.2727 43.3103 79.1169C43.3102 77.9611 47.1285 77.7646 47.8542 76.587Z" fill="black" stroke="black" stroke-width="2" stroke-linecap="round"/>
<path d="M41.0488 82.2751C41.2551 82.533 42.2554 83.0382 44.6067 82.997C46.9579 82.9558 51.7395 82.4986 53.8364 82.2751" stroke="black" stroke-width="2" stroke-linecap="round"/>
<path d="M45.5293 80.5481V82.6167" stroke="black" stroke-width="2" stroke-linecap="round"/>
<path d="M50.6348 80.1689V82.2375" stroke="black" stroke-width="2" stroke-linecap="round"/>
<path d="M74.1463 63.8673C73.0763 63.8673 73.3062 63.2639 73.2188 62.7611C73.0152 61.5898 74.1404 60.327 74.4553 59.645C74.7701 58.963 78.7336 59.9815 79.3238 60.2438C79.914 60.5061 80.3642 66.7973 80.3642 67.1908C80.3642 67.5843 80.1108 67.6157 79.3238 67.5501C78.5368 67.4845 78.4339 66.4581 77.9748 65.4744C77.5158 64.4907 75.4958 63.8673 74.1463 63.8673Z" fill="black" stroke="black" stroke-width="2" stroke-linecap="round"/>
<path d="M82.6758 69.6362C82.9028 69.4159 83.6233 68.2737 83.369 66.0351C83.1147 63.7965 82.667 61.369 82.2622 59.3896" stroke="black" stroke-width="2" stroke-linecap="round"/>
<path d="M83.1732 65.6531L81.0263 65.8294" stroke="black" stroke-width="2" stroke-linecap="round"/>
<path d="M82.6829 62.0264L80.5361 62.2027" stroke="black" stroke-width="2" stroke-linecap="round"/>
<path d="M20.83 74.8793C21.5702 74.2355 26.6563 75.5009 26.8095 76.3458C27.2597 78.8278 18.2351 77.1358 20.83 74.8793Z" fill="black" stroke="black" stroke-width="2" stroke-linecap="round"/>
<path d="M38.2969 25.4447C38.472 25.7075 39.5744 25.0068 40.1037 24.6236C41.3263 23.5652 44.0561 21.5031 45.1948 21.722C46.6181 21.9958 47.275 24.9519 48.5889 24.2403C49.9028 23.5286 48.3152 20.5724 46.6729 18.3279C45.0305 16.0834 41.089 16.9594 38.6255 18.9302C36.162 20.901 38.0781 25.1163 38.2969 25.4447Z" fill="black" stroke="black" stroke-width="2" stroke-linecap="round"/>
<path d="M65.2522 57.115C65.1975 58.1835 64.7055 60.989 63.6533 61.7781" stroke="black" stroke-width="2" stroke-linecap="round"/>
<path d="M18.3633 63.7314C17.7349 63.9307 16.4412 64.3568 16.2939 64.4672L16.7539 66.0766L20.5247 67.916L21.7203 66.5364L18.3633 63.7314Z" fill="black"/>
</svg>
