<svg width="100" height="100" viewBox="0 0 100 100" fill="none" xmlns="http://www.w3.org/2000/svg">
<path d="M63.7468 60.0226H60.9741" stroke="black" stroke-width="2"/>
<ellipse cx="60.3939" cy="60.0226" rx="1.4095" ry="2.39002" fill="black"/>
<path d="M63.7468 65.7639H60.9741" stroke="black" stroke-width="2"/>
<ellipse cx="60.3939" cy="65.7639" rx="1.4095" ry="2.39002" fill="black"/>
<path d="M64.7741 18.1423C61.8396 16.0773 38.6287 13.428 27.9564 16.3764C16.4085 20.3163 30.5379 23.7125 46.705 23.1691C62.8722 22.6257 68.4422 20.7236 64.7741 18.1423Z" stroke="black" stroke-width="2"/>
<path d="M24.5459 20.3875C26.4083 21.7624 29.9159 24.225 33.3486 30.0144C37.6393 37.2511 37.2723 44.1338 38.1272 51.8283C38.7499 57.4328 36.2945 82.2086 52.8814 84.5781C69.4682 86.9477 74.2497 76.9795 75.2103 72.5606C76.171 68.1417 77.2408 49.0497 73.9279 41.7827C71.0401 35.4482 59.5417 33.9209 54.2262 40.1329C52.2236 42.4734 50.274 45.8954 50.274 48.1368" stroke="black" stroke-width="2"/>
<path d="M65.4021 20.3993C63.3589 22.1346 57.1158 28.2693 53.7572 34.855C49.4749 43.2516 49.9787 53.7473 49.8948 60.2127C49.8108 66.6781 50.4826 77.1738 59.131 77.3417C67.7795 77.5097 68.7031 68.7772 68.7031 67.0979C68.7031 65.4186 69.8786 48.0376 67.0238 44.9309C64.169 41.8242 56.78 41.4043 55.2686 47.8697C53.7572 54.3351 54.3782 67.5149 55.8137 70.0618C57.5224 73.0935 63.9166 72.7846 63.9166 67.7467C63.9166 62.7087 64.7986 57.2735 63.4973 55.3427C63.0194 54.6337 57.9083 54.7379 55.2686 54.7379" stroke="black" stroke-width="2"/>
<path d="M55.0537 51.1245C57.4387 51.1245 62.4038 51.1245 63.1843 51.1245C66.5131 51.1245 68.9246 53.3289 68.9246 57.0221" stroke="black" stroke-width="2"/>
<path d="M56.0283 51.1763C55.9258 51.3473 55.7008 53.6975 55.6011 54.8513" stroke="black" stroke-width="2"/>
<path d="M38.3747 55.0278C37.0074 55.0278 34.0773 55.0278 33.296 55.0278C32.3194 55.0278 29.9471 57.174 28.8549 56.5107C27.7628 55.8474 27.8005 51.9153 28.4256 50.8924C29.0507 49.8695 29.4356 50.0374 29.9471 50.1511C30.4585 50.2647 32.5848 51.2507 33.296 51.3644C33.865 51.4553 36.247 51.4022 37.5162 51.3644" stroke="black" stroke-width="2"/>
<path d="M37.2442 51.7147C37.2441 51.8866 37.2441 54.078 37.2442 55.1521" stroke="black" stroke-width="2"/>
<path d="M46.5465 18.9707C41.6238 18.6782 36.5213 18.5567 30.8326 19.5581C20.9247 21.3023 52.6662 22.3322 58.5157 21.8344C64.3652 21.3366 52.8316 19.3441 46.5465 18.9707Z" fill="black" stroke="black" stroke-width="2"/>
<path d="M39.3325 68.4785C41.1875 77.2517 45.6233 86.4042 61.7476 83.7168C77.337 81.1186 76.5282 66.565 76.0809 54.3234" stroke="black" stroke-width="2"/>
<path d="M30.9539 26.4678C29.3557 24.6067 28.5666 21.8961 33.0171 22.6445" stroke="black" stroke-width="2"/>
<path d="M55.728 46.4857C57.1011 43.0081 61.0868 40.4184 65.6412 42.9957C68.6818 44.7163 68.6774 47.1971 68.8636 54.0756" stroke="black" stroke-width="2"/>
</svg>
