<svg width="100" height="100" viewBox="0 0 100 100" fill="none" xmlns="http://www.w3.org/2000/svg">
<path d="M21.5654 76.1777C22.1263 76.1778 60.125 76.1777 79.0542 76.1777" stroke="black" stroke-width="2" stroke-linecap="round"/>
<path d="M21.0049 69.5879H79.2003" stroke="black" stroke-width="2" stroke-linecap="round"/>
<path d="M20.6455 68.4941C25.3187 69.8417 38.6508 69.2766 40.9874 68.4941" stroke="black" stroke-width="2" stroke-linecap="round"/>
<path d="M49.5977 68.2397C56.3649 69.5873 75.6709 69.0222 79.0546 68.2397" stroke="black" stroke-width="2" stroke-linecap="round"/>
<path d="M20.9453 57.9424H40.987" stroke="black" stroke-width="2" stroke-linecap="round"/>
<path d="M79.3707 55.2701C79.3134 54.2077 70.8277 53.8905 61.1544 54.8301C59.0908 55.0305 51.5598 55.3614 49.2236 55.3746" stroke="black" stroke-width="2" stroke-linecap="round"/>
<path d="M41.7363 68.9061C41.9337 66.4458 41.9958 63.2226 41.7363 55.7153C41.7363 54.487 42.7408 53.4862 43.9967 53.4432C44.0526 53.4413 44.1082 53.4394 44.164 53.4353C44.6974 53.3956 47.643 53.204 48.5982 53.7354C49.65 54.3206 48.9376 69.3065 48.9376 69.3065" stroke="black" stroke-width="2" stroke-linecap="round"/>
<path d="M42.2383 67.8335C43.7162 69.181 47.9326 68.6159 48.6716 67.8335" stroke="black" stroke-width="2" stroke-linecap="round"/>
<path d="M21.2755 53.5416C21.2861 50.8356 22.9943 49.6982 25.1145 49.6982C26.8346 49.7627 27.9613 49.7713 30.4429 49.6982C32.8938 49.6097 33.9 50.6173 34.2819 53.5415C34.6638 56.4658 33.0933 57.2834 30.4428 57.3849C27.7924 57.4865 27.0454 57.1818 24.8234 57.2834C22.6014 57.3849 21.2648 56.2475 21.2755 53.5416Z" stroke="black" stroke-width="2" stroke-linecap="round"/>
<path d="M79.5762 52.2224C79.587 50.4029 80.9554 48.9351 82.6392 48.9351C84.3156 48.9351 85.6806 50.3899 85.7004 52.2012C85.7783 59.333 85.9277 81.3331 85.6624 81.7111C85.3229 82.1947 79.7822 82.0673 79.597 81.7111C79.4523 81.4327 79.5337 59.3871 79.5762 52.2224Z" stroke="black" stroke-width="2" stroke-linecap="round"/>
<path d="M14.2481 44.404C14.2589 42.5845 15.6272 41.1167 17.3111 41.1167C18.9874 41.1167 20.3525 42.5715 20.3723 44.3828C20.4502 51.5146 20.5996 81.3331 20.3343 81.7111C19.9948 82.1947 14.454 82.0674 14.2688 81.7111C14.1241 81.4327 14.2055 51.5687 14.2481 44.404Z" stroke="black" stroke-width="2" stroke-linecap="round"/>
<path d="M38.5414 21.1997C38.2194 21.5067 38.3436 28.1606 38.5414 28.4898C38.7392 28.819 45.3175 28.663 45.7048 28.9229C46.0921 29.1828 45.7965 35.3592 46.1146 35.7798C46.4326 36.2004 53.6877 36.2351 53.6877 35.7798C53.6877 35.3245 53.8141 29.3214 54.0689 28.9229C54.3237 28.5245 60.841 28.923 61.2609 28.4898C61.6808 28.0565 61.7501 21.5067 61.2609 21.1997C60.7717 20.8927 54.3686 20.7443 54.0689 20.7443C53.7692 20.7443 54.23 14.2639 53.6877 13.9097C53.1455 13.5555 46.4203 13.9097 46.1146 13.9097C45.8088 13.9097 46.0922 20.4622 45.3583 20.7443C44.6244 21.0264 38.8634 20.8927 38.5414 21.1997Z" stroke="black" stroke-width="2"/>
<path d="M61.2616 21.1999C61.7508 21.5069 62.0909 29.2014 61.671 29.6347C61.2511 30.0679 55.097 29.2362 54.8422 29.6347C54.5874 30.0331 54.3068 35.7161 54.3068 36.1714C54.3068 36.6267 46.4333 36.2006 46.1152 35.78" stroke="black" stroke-width="2"/>
</svg>
