<svg width="100" height="100" viewBox="0 0 100 100" fill="none" xmlns="http://www.w3.org/2000/svg">
<path d="M31.8098 56.1458C34.0298 55.4768 53.5599 51.7838 66.4699 40.7428C79.3699 29.7008 89.3599 49.6488 76.2399 58.8298C63.1199 68.0108 43.9299 78.0908 31.9699 73.3798C23.5399 70.0628 22.9798 58.8048 31.8098 56.1458Z" stroke="black" stroke-width="2" stroke-miterlimit="10" stroke-linecap="round" stroke-linejoin="round"/>
<path d="M39.4897 68.5615C39.5097 68.5915 39.5397 68.6225 39.5597 68.6525" stroke="black" stroke-width="2" stroke-miterlimit="10" stroke-linecap="round" stroke-linejoin="round"/>
<path d="M44.4497 65.6551L44.8597 65.6301" stroke="black" stroke-width="2" stroke-miterlimit="10" stroke-linecap="round" stroke-linejoin="round"/>
<path d="M30.9997 65.574C30.7697 65.575 30.8497 65.568 31.2497 65.641" stroke="black" stroke-width="2" stroke-miterlimit="10" stroke-linecap="round" stroke-linejoin="round"/>
<path d="M76.9797 37.7001C79.7497 35.7181 83.6197 30.0761 79.8297 26.4861C74.9997 21.9041 69.8797 29.1521 66.6097 31.6361C58.6897 37.6461 45.0997 45.4541 26.2197 48.4861C16.5697 50.0341 16.4196 55.3961 17.3896 57.5751C20.1996 63.8751 26.4297 60.3181 26.4297 60.3181" stroke="black" stroke-width="2" stroke-miterlimit="10" stroke-linecap="round" stroke-linejoin="round"/>
<path d="M75.3096 52.2324L75.6295 52.5044" stroke="black" stroke-width="2" stroke-miterlimit="10" stroke-linecap="round" stroke-linejoin="round"/>
<path d="M78.0698 48.0146C78.2798 48.1906 78.2198 48.0816 78.2598 48.3336" stroke="black" stroke-width="2" stroke-miterlimit="10" stroke-linecap="round" stroke-linejoin="round"/>
<path d="M25.6296 48.4592C25.6296 48.4592 22.5496 40.0632 35.1696 38.4092C47.7896 36.7552 53.9796 30.5832 57.6296 27.9062C65.6796 22.0062 70.0797 28.5472 70.0797 28.5472C70.0797 28.5472 62.1997 36.0702 51.0897 41.0482C39.9797 46.0262 25.6296 48.4592 25.6296 48.4592Z" stroke="black" stroke-width="2" stroke-miterlimit="10" stroke-linecap="round" stroke-linejoin="round"/>
<path d="M28.1196 53.1336C28.1196 53.1336 28.1696 53.1786 32.8196 51.6686C37.5596 50.1296 38.1196 46.2066 39.2996 45.7766C42.8796 44.4716 43.3296 48.3486 46.7296 47.4106C50.1296 46.4736 47.8396 42.5526 50.3696 41.9916C52.8996 41.4306 54.2895 44.4696 57.0295 42.6966C58.6995 41.6126 56.7396 37.4806 59.3496 37.1286C61.9496 36.7776 62.5096 39.3036 64.2996 37.7036C66.0996 36.1026 65.2695 32.8756 66.7595 32.0336C70.2495 30.0596 68.5596 33.5826 74.1996 29.9326" stroke="black" stroke-width="2" stroke-miterlimit="10" stroke-linecap="round" stroke-linejoin="round"/>
<circle cx="37.333" cy="63" r="2" fill="black"/>
<path d="M72.333 67.5C60.733 74.3 43.833 75.5 36.833 74.5C36.833 74.5 40.333 75 43.333 74.5C46.333 74 50.333 72.5 50.333 72.5C64.333 67 66.733 65.1 72.333 61.5C77.933 57.9 80.833 55.5 82.333 50.5C83.833 53.3333 83.933 60.7 72.333 67.5Z" fill="black" stroke="black" stroke-width="2"/>
</svg>
