<svg width="100" height="100" viewBox="0 0 100 100" fill="none" xmlns="http://www.w3.org/2000/svg">
<path d="M13.2927 20.0782C12.9345 14.9402 13.98 9.74566 16.902 9.74566C19.824 9.74566 20.97 14.7081 20.97 20.0782H14.4871C14.4871 20.0782 14.5261 24.0224 13.8902 26.0469C13.5917 24.8011 13.6509 25.2162 13.2927 20.0782Z" fill="black"/>
<path d="M78.4283 42.2494C78.1251 41.9149 68.5541 42.2096 56.3124 42.2492C40.7312 42.2995 21.6891 42.1627 21.3391 42.2494C20.7142 42.4042 20.5888 67.4624 21.3391 68.3866C21.5436 68.6384 29.3498 68.2682 35.4774 68.3866C51.8355 68.7026 77.8648 69.0903 78.4283 68.3866C79.2028 67.4192 79.1172 43.0095 78.4283 42.2494Z" stroke="black" stroke-width="2" stroke-linecap="round" stroke-linejoin="round"/>
<path d="M21.3896 68.2054C32.0835 67.113 77.0069 68.6194 78.079 64.93L78.3382 68.2054H21.3896Z" fill="black"/>
<path d="M72.0399 42.0226C73.1273 37.1075 65.8369 35.0567 65.5694 42.0226" stroke="black" stroke-width="2"/>
<path d="M35.2987 42.0226C36.3861 37.1075 29.0957 35.0567 28.8282 42.0226" stroke="black" stroke-width="2"/>
<path d="M33.8794 34.9933C33.8794 36.5897 33.64 39.0374 32.1107 39.0374C31.3639 39.0374 30.5575 36.5897 30.5575 34.9933C30.5575 33.3969 31.0687 30.989 32.3225 30.989C33.5763 30.989 33.8794 33.3969 33.8794 34.9933Z" stroke="black" stroke-width="2"/>
<path d="M67.3898 34.9933C67.3898 36.5897 67.6473 39.6036 69.1765 39.6036C69.9233 39.6036 70.9414 36.5897 70.9414 34.9933C70.9414 33.3969 70.2641 30.9602 69.0103 30.9602C67.7565 30.9602 67.3898 33.3969 67.3898 34.9933Z" stroke="black" stroke-width="2"/>
<path d="M82.0653 25.9612C82.6822 25.5566 82.7219 20.609 82.0653 20.3148C81.4088 20.0206 60.0113 19.8237 60.0113 19.8237L14.4298 20.3148L14.6539 25.9612C14.6539 25.9612 19.2969 26.2549 22.2755 26.3659C32.2601 26.7377 37.8657 25.9422 47.8573 25.9612C56.7761 25.9782 61.7744 26.525 70.6919 26.3659C75.1356 26.2866 81.4485 26.3659 82.0653 25.9612Z" stroke="black" stroke-width="2" stroke-linecap="round" stroke-linejoin="round"/>
<path d="M72.1952 26.4649C73.2826 31.3801 65.9922 33.4308 65.7247 26.4649" stroke="black" stroke-width="2"/>
<path d="M35.454 26.4649C36.5414 31.3801 29.251 33.4308 28.9835 26.4649" stroke="black" stroke-width="2"/>
<path d="M14.9204 24.7489C21.5872 26.2233 44.536 25.1336 48.5745 25.1976C52.6129 25.2617 76.7839 26.586 82.2968 24.6629" stroke="black" stroke-width="2"/>
<path d="M56.329 51.3508C56.379 51.1308 56.309 50.9208 56.199 50.7408C56.199 50.7408 56.199 50.7408 56.199 50.7308C56.199 50.7308 56.199 50.7208 56.199 50.7108C56.089 50.5008 55.919 50.3208 55.679 50.2508H55.659L55.639 50.2408C52.569 49.8508 49.499 50.4108 46.449 51.9008H46.429L46.409 51.9208C46.099 52.1308 45.869 52.4108 45.739 52.7508L45.719 52.8008V52.8508C45.719 53.1308 45.869 53.3608 46.079 53.5608C46.389 53.8208 46.799 53.8008 47.189 53.6608C48.359 53.2008 49.549 52.8508 50.739 52.5608C50.689 52.6408 50.649 52.7208 50.639 52.8208C50.619 52.9308 50.619 53.0508 50.639 53.1608L50.939 53.1108L50.649 53.1708C50.659 53.2308 50.669 53.2708 50.669 53.3108V53.3308C50.739 54.3508 50.789 55.3708 50.799 56.3908C50.829 57.4008 50.849 58.4208 50.869 59.4508V59.4708C50.889 59.7008 50.949 59.9208 51.069 60.1108C51.259 60.4208 51.629 60.4508 51.939 60.4108C52.159 60.3708 52.359 60.2608 52.509 60.0908C52.669 59.9108 52.759 59.7008 52.759 59.4608C52.789 58.4208 52.789 57.3708 52.759 56.3308C52.729 55.2808 52.659 54.2208 52.539 53.1608C52.539 52.9208 52.419 52.7008 52.259 52.5208C52.179 52.4308 52.079 52.3708 51.979 52.3208C53.139 52.1208 54.339 52.0408 55.589 52.1008C55.789 52.1208 56.039 52.0708 56.179 51.8608V51.8408C56.259 51.7108 56.309 51.5508 56.339 51.3908L56.329 51.3508Z" fill="black"/>
<path d="M75.419 57.5208C75.359 57.4208 75.269 57.3408 75.169 57.2908C75.089 57.2508 74.989 57.2108 74.879 57.2108H74.849C74.339 57.2508 73.779 57.3308 73.159 57.4308C72.559 57.5208 71.939 57.6308 71.309 57.7608C70.679 57.8808 70.059 57.9908 69.439 58.1108L69.489 58.3908L69.429 58.1108C68.969 58.2008 68.559 58.2808 68.159 58.3508C68.179 57.9908 68.209 57.6008 68.239 57.1508C68.299 56.5508 68.359 55.9408 68.419 55.3108L68.139 55.2808H68.149L68.419 55.3108C68.479 54.6608 68.539 54.0308 68.599 53.4208C68.659 52.7908 68.719 52.2308 68.799 51.7208V51.7008C68.819 51.4308 68.779 51.1708 68.699 50.9208C68.699 50.9208 68.699 50.9108 68.699 50.9008C68.649 50.7208 68.529 50.5808 68.349 50.5008C68.179 50.4208 67.979 50.4208 67.789 50.4408C67.509 50.4808 67.269 50.6108 67.079 50.8208V50.8308C66.909 51.0408 66.809 51.3108 66.769 51.6008C66.619 52.7908 66.499 53.9908 66.389 55.2008C66.289 56.3908 66.199 57.5808 66.129 58.7708C66.079 59.4208 66.179 59.9808 66.489 60.3508C66.819 60.7408 67.299 60.8308 67.829 60.6908C68.329 60.5608 68.859 60.4308 69.429 60.3008C69.999 60.1708 70.569 60.0408 71.149 59.9008C71.719 59.7708 72.279 59.6408 72.829 59.5008C73.369 59.3708 73.869 59.2408 74.329 59.1208L74.409 59.1008L74.469 59.0408C74.529 58.9808 74.599 58.9308 74.659 58.9108C74.779 58.8708 74.889 58.8208 74.989 58.7808H75.009L75.019 58.7608C75.149 58.6808 75.269 58.5908 75.369 58.4708V58.4508C75.489 58.2808 75.539 58.0608 75.539 57.8408C75.539 57.7308 75.509 57.6208 75.449 57.5108L75.419 57.5208Z" fill="black"/>
<path d="M64.989 57.2808C64.989 57.2808 64.979 57.2808 64.969 57.2808C64.969 57.2808 64.969 57.2808 64.959 57.2808C64.799 57.2508 64.619 57.2508 64.439 57.2808C64.439 57.2808 64.439 57.2808 64.429 57.2808C64.429 57.2808 64.429 57.2808 64.419 57.2808C64.239 57.3008 64.069 57.3308 63.899 57.3708C63.579 57.4408 63.179 57.5408 62.709 57.6608C62.259 57.7608 61.779 57.8608 61.289 57.9708C60.799 58.0708 60.309 58.1608 59.839 58.2308C59.509 58.2708 59.229 58.2908 58.969 58.3008C58.949 57.7408 58.949 57.1908 58.969 56.6308C59.599 56.5408 60.219 56.4608 60.819 56.3808C61.509 56.2808 62.179 56.1808 62.839 56.0908C63.239 56.0408 63.579 55.9508 63.819 55.7708C63.929 55.6808 64.029 55.5708 64.079 55.4308C64.139 55.2908 64.139 55.1308 64.079 54.9908L64.059 54.9408L64.019 54.9008C63.759 54.6208 63.449 54.4108 63.109 54.2908C62.779 54.1708 62.439 54.1308 62.089 54.1608C61.699 54.1908 61.189 54.2508 60.539 54.3408C60.019 54.4008 59.509 54.4808 58.999 54.5508C58.999 54.5508 58.999 54.5208 58.999 54.5108C58.999 54.5108 58.999 54.4808 58.999 54.4708C58.999 54.4708 58.999 54.4408 58.999 54.4308C58.999 54.4308 58.999 54.4008 58.999 54.3908C58.999 54.3908 58.999 54.3608 58.999 54.3508C58.999 54.3508 58.999 54.3208 58.999 54.3108C58.999 54.3008 58.999 54.2508 58.999 54.2408C58.999 54.2308 58.999 54.1808 58.999 54.1708C58.999 54.1608 58.999 54.1108 58.999 54.1008C58.999 54.0908 58.999 54.0408 58.999 54.0308C58.999 54.0208 58.999 53.9708 58.999 53.9608C58.999 53.9508 58.999 53.9008 58.999 53.8908C58.999 53.8808 58.999 53.8308 58.999 53.8208C58.999 53.8108 58.999 53.7608 58.999 53.7508C59.009 53.3908 59.039 53.0208 59.059 52.6608C59.269 52.6308 59.469 52.6008 59.689 52.5808H59.699C60.039 52.5408 60.369 52.4908 60.689 52.4508C61.019 52.4108 61.339 52.3708 61.649 52.3408H61.659C61.969 52.3008 62.229 52.2608 62.449 52.2308C62.699 52.2008 62.929 52.1208 63.109 51.9808C63.229 51.8908 63.319 51.7808 63.359 51.6308C63.399 51.4808 63.389 51.3308 63.349 51.2008L63.329 51.1308L63.279 51.0708C62.999 50.7908 62.689 50.6008 62.339 50.4908C62.029 50.3908 61.699 50.3608 61.359 50.3908C61.089 50.4008 60.759 50.4308 60.369 50.4808C59.999 50.5208 59.609 50.5808 59.199 50.6308C58.799 50.6908 58.409 50.7608 58.019 50.8308C57.639 50.9008 57.309 50.9708 57.039 51.0308H57.019L56.999 51.0408C56.789 51.1108 56.619 51.2408 56.509 51.4408C56.429 51.5908 56.389 51.7508 56.389 51.9308C56.389 52.1708 56.479 52.3908 56.639 52.5708V52.5808C56.739 52.6808 56.859 52.7608 56.979 52.8108C56.959 53.1708 56.939 53.5308 56.919 53.8908C56.909 54.2608 56.889 54.6308 56.859 55.0008C56.629 55.1608 56.489 55.4108 56.459 55.7108V55.7508C56.459 56.0708 56.599 56.3208 56.829 56.5108C56.809 57.2008 56.799 57.8808 56.829 58.5508C56.849 59.1108 56.989 59.5808 57.299 59.9308C57.629 60.2708 58.089 60.4108 58.619 60.4008C59.479 60.3808 60.359 60.2708 61.249 60.0608C62.139 59.8408 63.039 59.5808 63.949 59.2808C64.089 59.2308 64.249 59.1708 64.419 59.0908H64.429C64.609 59.0008 64.779 58.9108 64.929 58.8108C65.099 58.7008 65.239 58.6008 65.359 58.5008C65.419 58.4508 65.469 58.4008 65.519 58.3408C65.549 58.3008 65.619 58.2008 65.619 58.0708C65.619 57.8508 65.559 57.6408 65.399 57.4808C65.259 57.3408 65.089 57.2708 64.899 57.2508L64.989 57.2808Z" fill="black"/>
<path d="M45.019 54.5608C45.019 54.0308 44.909 53.5208 44.689 53.0508C44.479 52.5508 44.149 52.1208 43.709 51.7608C43.239 51.3808 42.629 51.1508 41.889 51.0608C41.479 51.0008 41.099 51.0008 40.749 51.0908C40.579 51.1308 40.419 51.1808 40.279 51.2508C40.279 51.2408 40.269 51.2208 40.259 51.2108C40.189 51.1308 40.099 51.0608 39.989 51.0308C39.889 51.0008 39.789 51.0008 39.699 51.0308C39.699 51.0308 39.699 51.0308 39.689 51.0308C39.689 51.0308 39.679 51.0308 39.669 51.0308C39.179 51.1008 38.739 51.3108 38.339 51.6408C37.939 51.9708 37.609 52.3908 37.329 52.8908C37.099 53.3108 36.909 53.7808 36.749 54.2908C36.609 54.8108 36.539 55.3608 36.519 55.9208C36.519 56.4808 36.589 57.0308 36.729 57.5608C36.889 58.1208 37.149 58.6208 37.509 59.0608L37.519 59.0808C38.059 59.6208 38.679 59.9508 39.379 60.0408C40.069 60.1208 40.769 60.0408 41.449 59.7808L41.349 59.5008L41.459 59.7808C41.839 59.6408 42.199 59.4408 42.549 59.2008C42.919 58.9508 43.259 58.6608 43.569 58.3208C43.879 57.9808 44.139 57.6208 44.369 57.2408C44.619 56.8308 44.789 56.4108 44.889 55.9608C44.979 55.5408 45.019 55.0808 45.009 54.5808L45.019 54.5608ZM40.359 53.3608C40.789 53.1508 41.179 53.0708 41.539 53.1108C41.919 53.1508 42.229 53.2708 42.489 53.4508C42.669 53.5808 42.799 53.7408 42.879 53.9208C42.969 54.1208 43.019 54.3308 43.029 54.5608L43.309 54.5408H43.319L43.029 54.5608C43.039 54.7908 43.029 55.0108 42.989 55.2408C42.949 55.4608 42.899 55.6308 42.839 55.7608C42.719 56.0508 42.559 56.3308 42.349 56.6008C42.139 56.8608 41.919 57.0808 41.679 57.2708C41.439 57.4608 41.169 57.6108 40.869 57.7308C40.599 57.8308 40.319 57.8908 40.029 57.8908C39.529 57.8908 39.219 57.7508 39.029 57.5208C38.809 57.2408 38.669 56.8708 38.629 56.4108C38.599 56.0808 38.599 55.7408 38.629 55.3908C38.669 55.0308 38.749 54.7108 38.849 54.4108C38.969 54.1108 39.119 53.8508 39.289 53.6308C39.389 53.5008 39.509 53.4008 39.629 53.3008C39.679 53.3508 39.729 53.3808 39.789 53.4108H39.809L39.829 53.4308C39.999 53.4708 40.179 53.4508 40.339 53.3608H40.359Z" fill="black"/>
<path d="M35.289 55.3208C35.189 54.1208 35.029 52.9308 34.819 51.7308C34.769 51.4508 34.659 51.2008 34.469 51.0208C34.319 50.8808 34.139 50.7708 33.919 50.7708C33.629 50.7708 33.389 50.9408 33.209 51.1608C33.019 51.4208 32.929 51.7008 32.929 52.0108V52.0508C32.969 52.3908 33.019 52.7308 33.059 53.0808L33.349 53.0408L33.049 53.0808C33.079 53.3308 33.109 53.5808 33.129 53.8308C32.429 54.0308 31.689 54.2208 30.909 54.3908C30.149 54.5408 29.449 54.6608 28.789 54.7608C28.739 54.4108 28.699 54.0708 28.669 53.7208C28.639 53.2708 28.619 52.8108 28.599 52.3408C28.599 52.2208 28.579 52.0908 28.549 51.9508C28.519 51.8008 28.469 51.6508 28.399 51.5008C28.329 51.3408 28.219 51.2008 28.089 51.0808C28.089 51.0808 28.089 51.0808 28.079 51.0808C27.929 50.9508 27.759 50.8808 27.559 50.8808C27.359 50.8808 27.169 50.9708 26.999 51.0908C26.759 51.2308 26.659 51.4708 26.619 51.7408V51.7708C26.589 52.4408 26.599 53.1408 26.639 53.8708C26.679 54.6008 26.759 55.3208 26.859 56.0308L27.159 55.9908L26.859 56.0408C26.979 56.7308 27.109 57.4008 27.259 58.0408C27.419 58.6808 27.599 59.2308 27.779 59.7008L28.059 59.5908L27.789 59.7208C27.869 59.8708 27.999 60.0008 28.159 60.1008C28.329 60.2108 28.529 60.2808 28.739 60.2608H28.779L28.819 60.2408C28.999 60.1608 29.149 60.0308 29.239 59.8508C29.319 59.6908 29.379 59.5308 29.399 59.3608C29.399 59.3608 29.399 59.3608 29.399 59.3508C29.399 59.3508 29.399 59.3408 29.399 59.3308C29.429 59.1808 29.439 59.0308 29.419 58.8808C29.419 58.8808 29.419 58.8608 29.419 58.8508C29.419 58.7308 29.419 58.6208 29.389 58.5308C29.319 58.2108 29.249 57.8908 29.189 57.5708C29.149 57.3408 29.109 57.1208 29.069 56.8908C30.559 56.6008 31.979 56.2808 33.339 55.9108C33.379 56.3508 33.429 56.7908 33.459 57.2308C33.499 57.7908 33.549 58.3408 33.589 58.9008L33.889 58.8808L33.589 58.9208C33.629 59.2208 33.739 59.4908 33.929 59.7008L33.939 59.7208C34.139 59.9008 34.369 60.0208 34.629 60.0208C34.759 60.0208 34.859 59.9608 34.939 59.9108C34.939 59.9108 34.949 59.9108 34.959 59.9008C35.049 59.8408 35.119 59.7708 35.189 59.6908C35.189 59.6908 35.189 59.6908 35.199 59.6808C35.199 59.6808 35.199 59.6808 35.209 59.6708C35.289 59.5808 35.369 59.4808 35.419 59.3708V59.3508C35.489 59.2008 35.499 59.0308 35.489 58.8608C35.429 57.6808 35.349 56.5108 35.249 55.3308L35.289 55.3208Z" fill="black"/>
</svg>
