<svg width="100" height="100" viewBox="0 0 100 100" fill="none" xmlns="http://www.w3.org/2000/svg">
<path d="M38.1372 65.3391C37.2402 56.0041 45.0202 47.5621 52.9792 47.6501C60.9382 47.7371 73.3102 50.4481 72.7922 63.7791C72.3092 76.2151 62.7982 81.1201 56.0112 80.9771C43.9632 80.7241 39.0342 74.6751 38.1372 65.3391Z" stroke="black" stroke-width="2" stroke-miterlimit="10" stroke-linejoin="round"/>
<path d="M48.8953 69.0114C52.1413 72.4114 57.7893 73.6433 59.7463 68.1943" stroke="black" stroke-width="2" stroke-miterlimit="10" stroke-linecap="round" stroke-linejoin="round"/>
<path d="M38.6772 68.7139C39.8732 73.1989 43.0533 77.7688 51.1483 79.7128C56.2933 80.9478 61.2082 79.9118 63.2612 78.7498C65.8872 77.2648 70.3783 74.0068 71.9483 69.1808" stroke="black" stroke-width="2" stroke-miterlimit="10" stroke-linejoin="round"/>
<path d="M49.7913 48.2136C49.7913 48.2136 54.3713 39.2956 49.0303 32.4296C43.4243 25.2236 28.6453 23.4596 21.9513 30.7976C15.2393 38.1546 15.2593 51.1656 22.5753 55.8126C29.8923 60.4596 38.9423 58.2816 38.9423 58.2816" stroke="black" stroke-width="2" stroke-miterlimit="10" stroke-linejoin="round"/>
<path d="M45.4292 60.1504C46.1552 58.1304 49.9832 58.2634 51.1782 59.5154" stroke="black" stroke-width="2" stroke-miterlimit="10" stroke-linecap="round" stroke-linejoin="round"/>
<path d="M48.3643 59.834C48.2763 59.917 48.2903 59.867 48.3483 59.989" stroke="black" stroke-width="2" stroke-miterlimit="10" stroke-linecap="round" stroke-linejoin="round"/>
<path d="M58.6672 59.8675C60.4292 58.1865 63.1772 58.1315 64.8342 59.8665" stroke="black" stroke-width="2" stroke-miterlimit="10" stroke-linecap="round" stroke-linejoin="round"/>
<path d="M62.1782 59.5166L62.0452 60.1136" stroke="black" stroke-width="2" stroke-miterlimit="10" stroke-linecap="round" stroke-linejoin="round"/>
<path d="M28.4634 48.6864C30.2684 46.0424 35.4944 46.4464 37.0164 49.1774" stroke="black" stroke-width="2" stroke-miterlimit="10" stroke-linecap="round" stroke-linejoin="round"/>
<path d="M40.1323 39.2214C40.1113 39.1844 40.0903 39.1474 40.0693 39.1094" stroke="black" stroke-width="2" stroke-miterlimit="10" stroke-linecap="round" stroke-linejoin="round"/>
<path d="M27.7823 38.29C27.7493 38.338 27.7173 38.385 27.6853 38.432" stroke="black" stroke-width="2" stroke-miterlimit="10" stroke-linecap="round" stroke-linejoin="round"/>
<path d="M37.8293 38.1541C40.3423 36.7541 40.4493 37.8791 42.8123 38.5511" stroke="black" stroke-width="2" stroke-miterlimit="10" stroke-linecap="round" stroke-linejoin="round"/>
<path d="M25.2122 37.5784C25.2122 37.5784 26.9672 36.6765 27.6412 36.6245C29.2892 36.4995 30.3942 37.5635 30.3942 37.5635" stroke="black" stroke-width="2" stroke-miterlimit="10" stroke-linecap="round" stroke-linejoin="round"/>
<path d="M47.3843 30.377C48.6913 24.324 63.9983 13.649 77.1053 25.012C89.5533 35.803 79.5483 48.543 76.4233 51.23C73.2983 53.917 70.2863 54.758 70.2863 54.758" stroke="black" stroke-width="2" stroke-miterlimit="10" stroke-linejoin="round"/>
<path d="M58.6204 42.9131C59.4874 42.9541 67.6634 43.3091 67.7024 43.2821" stroke="black" stroke-width="2" stroke-miterlimit="10" stroke-linecap="round" stroke-linejoin="round"/>
<path d="M57.3523 32.916C57.4023 32.656 57.3253 32.7329 57.6063 32.7109" stroke="black" stroke-width="2" stroke-miterlimit="10" stroke-linecap="round" stroke-linejoin="round"/>
<path d="M69.3452 33.4339C69.3452 33.4339 70.3202 32.865 70.5692 32.787C72.3222 32.234 72.9792 32.9359 74.4242 34.3279" stroke="black" stroke-width="2" stroke-miterlimit="10" stroke-linecap="round" stroke-linejoin="round"/>
<path d="M71.7193 34.3695C71.6843 34.3505 71.6483 34.3305 71.6133 34.3105" stroke="black" stroke-width="2" stroke-miterlimit="10" stroke-linecap="round" stroke-linejoin="round"/>
<path d="M54.8103 32.2561C56.2503 30.9441 57.5893 30.7091 58.8263 31.2951C59.2993 31.5181 60.4913 32.3851 60.4913 32.3851" stroke="black" stroke-width="2" stroke-miterlimit="10" stroke-linecap="round" stroke-linejoin="round"/>
<path d="M27.8454 27.0771C25.1644 28.1231 17.8554 31.5881 18.2614 43.0771C18.5174 50.3201 21.0504 54.9432 28.1704 57.6522C29.8624 58.2962 33.2564 58.9451 35.0594 58.7761" stroke="black" stroke-width="2" stroke-miterlimit="10" stroke-linejoin="round"/>
<path d="M76.3182 24.3418C79.6372 27.2948 82.7002 32.4238 82.4872 36.7398C82.1822 42.8948 79.0542 47.0478 77.1982 49.2558C75.3432 51.4638 70.5222 53.8718 70.5222 53.8718" stroke="black" stroke-width="2" stroke-miterlimit="10" stroke-linejoin="round"/>
</svg>
