<svg width="13" height="13" viewBox="0 0 13 13" fill="none" xmlns="http://www.w3.org/2000/svg">
<path d="M6.65559 12.7208C6.36653 12.7208 6.07717 12.7149 5.78842 12.7208C5.36889 12.7311 4.97625 12.6126 4.5775 12.5044C4.1482 12.3877 3.74089 12.2267 3.33328 12.0516C3.16248 11.9779 2.8945 11.9559 2.74692 12.0418C2.49453 12.1891 2.21067 12.212 1.954 12.3339C1.65609 12.4751 1.33739 12.6034 0.994864 12.6358C0.846975 12.6499 0.71467 12.7623 0.553642 12.7192C0.351975 12.9233 0.233726 12.7049 0.105087 12.6175C-0.0623578 12.5038 0.0170869 12.348 0.0308369 12.1763C0.0595591 11.8096 0.246253 11.5071 0.338531 11.1698C0.430808 10.8324 0.627587 10.5339 0.710392 10.2011C0.802059 9.83448 0.924281 9.46781 0.805419 9.06264C0.713753 8.75342 0.633086 8.43045 0.601309 8.10901C0.584809 7.93973 0.467475 7.80498 0.497114 7.625C0.51942 7.46731 0.51942 7.30726 0.497114 7.14956C0.475114 6.97326 0.372142 6.80887 0.414309 6.62126C0.24717 6.43609 0.34892 6.21212 0.331198 6.00648C0.314086 5.80573 0.331198 5.60223 0.326614 5.39995C0.322642 5.18942 0.428059 5.00731 0.473587 4.80992C0.479392 4.78426 0.502003 4.75859 0.499559 4.73506C0.455865 4.33478 0.656309 3.99103 0.770587 3.6314C0.83842 3.41751 0.986615 3.22684 1.12045 3.04137C1.21211 2.91426 1.39545 2.83115 1.43853 2.6967C1.48314 2.5537 1.68481 2.56867 1.66311 2.4052C2.02581 2.18917 2.27423 1.83198 2.63661 1.61534C2.95103 1.42773 3.22695 1.18023 3.56275 1.02501C3.81759 0.907368 4.06906 0.782396 4.32206 0.66048C4.5665 0.543452 4.81828 0.462786 5.07586 0.382119C5.32856 0.302675 5.58675 0.324674 5.83975 0.244008C6.09275 0.163341 6.3867 0.199702 6.65681 0.233619C6.97937 0.278161 7.298 0.347629 7.60984 0.441397C8.23789 0.628676 8.85144 0.861516 9.44561 1.13806C9.89845 1.34492 10.3287 1.5747 10.6739 1.94015C10.7714 2.04342 10.8991 2.10729 10.9826 2.23654C11.0742 2.37892 11.2099 2.50053 11.3465 2.60473C11.4773 2.70434 11.5423 2.84917 11.6111 2.97598C11.7565 3.24701 12.0031 3.46731 12.0413 3.79395C12.2084 3.92565 12.1819 4.1432 12.2696 4.30545C12.3573 4.4677 12.3664 4.64156 12.4193 4.80839C12.4902 5.03053 12.5091 5.26123 12.5595 5.48673C12.5858 5.60559 12.6591 5.70245 12.6555 5.84056C12.6399 6.41806 12.6952 7.00167 12.6332 7.57306C12.5876 7.99228 12.4312 8.4057 12.2702 8.80537C12.1556 9.09014 12.0496 9.37859 11.9316 9.66092C11.7788 10.0297 11.4757 10.3026 11.2866 10.6509C11.1072 10.9815 10.82 11.2315 10.5639 11.4961C10.3195 11.7497 10.0118 11.9544 9.70595 12.1378C9.46471 12.2807 9.20295 12.3857 8.92984 12.4491C8.763 12.4876 8.64048 12.6227 8.48373 12.6279C8.08925 12.641 7.70639 12.7718 7.3055 12.7253C7.09161 12.7006 6.87223 12.7208 6.65559 12.7208ZM12.0431 6.57909C12.0004 6.19776 12.129 5.73698 11.9564 5.29576C11.9869 4.73934 11.671 4.28498 11.4769 3.80312C11.3593 3.51101 11.1641 3.23478 10.9557 2.97262C10.7418 2.70312 10.5279 2.41253 10.2544 2.24204C9.96903 2.06451 9.74689 1.7837 9.39886 1.69387C9.24822 1.65415 9.12173 1.52917 8.97659 1.4592C8.84459 1.39595 8.64047 1.39381 8.57753 1.29512C8.45286 1.09742 8.26311 1.19398 8.11492 1.13165C7.57348 0.904008 7.01889 0.698369 6.40961 0.743897C6.20856 0.759175 6.00506 0.746341 5.80278 0.746341C5.68697 0.746341 5.57148 0.744507 5.45598 0.746341C5.35881 0.74848 5.2867 0.818758 5.19075 0.842896C4.78772 0.943424 4.41281 1.1179 4.04278 1.31498C3.58078 1.55942 3.1805 1.88759 2.74967 2.17359C2.6195 2.25976 2.4982 2.32637 2.45267 2.48098C2.26506 2.48587 2.17461 2.64812 2.10189 2.76545C2.02484 2.89783 1.92692 3.01689 1.81192 3.11806C1.602 3.29253 1.51003 3.54981 1.38659 3.77012C1.27414 3.97056 1.14917 4.20767 1.12503 4.43501C1.09661 4.70084 0.955142 4.94162 0.951781 5.18576C0.945364 5.63401 0.856753 6.08806 1.00739 6.54212C1.05903 6.69826 1.11617 6.89381 1.09906 7.06401C1.07125 7.36742 1.24603 7.64028 1.19439 7.93973C1.18553 7.99167 1.23381 8.01153 1.24878 8.04759C1.29431 8.15881 1.36061 8.29203 1.35634 8.38767C1.33678 8.83012 1.51889 9.25484 1.45411 9.69637C1.42631 9.88581 1.44036 10.1086 1.34289 10.2546C1.10884 10.6057 1.01075 11.0185 0.78067 11.3711C0.738808 11.4353 0.672198 11.5193 0.668837 11.6281C0.663031 11.8294 0.726281 11.9132 0.916948 11.9413C1.1947 11.9822 1.43395 11.8768 1.66831 11.7622C1.99281 11.6036 2.35734 11.5318 2.65067 11.3069C2.65525 11.3036 3.09036 11.1908 3.09495 11.1921C3.46895 11.303 3.82828 11.4432 4.16439 11.6458C4.38141 11.7782 4.61889 11.8738 4.86717 11.9284C5.10886 11.9776 5.36247 11.9752 5.61181 12.0103C6.00903 12.0659 6.42092 12.0018 6.82364 12.0317C7.2392 12.0623 7.63214 11.8789 8.04586 11.9382C8.06022 11.9407 8.07489 11.9407 8.08925 11.9382C8.19131 11.9159 9.40314 11.3846 9.4835 11.3271C9.59595 11.2458 9.67845 11.1374 9.80495 11.061C10.0399 10.9195 10.2367 10.7142 10.4491 10.5354C10.4096 10.3594 10.6492 10.4108 10.6767 10.2424C10.6975 10.115 10.8851 10.016 10.9951 9.90109C11.0319 9.86084 11.0636 9.81619 11.0895 9.76817C11.3413 9.3245 11.5811 8.87595 11.7987 8.41364C11.935 8.12398 12.0389 7.83645 12.0386 7.51531L12.0431 6.57909Z" fill="#F2F2F2"/>
<path d="M5.19565 9.81286C5.01231 8.61722 5.14126 7.42678 5.09848 6.24061C5.08717 5.92925 5.23354 5.63928 5.19717 5.32211C5.1877 5.23747 5.29251 5.13328 5.3582 5.04711C5.41931 4.96797 5.49906 4.90258 5.57759 4.82375C5.91615 4.82375 6.26265 4.84117 6.6067 4.81795C6.86215 4.80083 7.05495 4.92978 7.25448 5.03672C7.3544 5.0902 7.41642 5.19745 7.45493 5.33983C7.58387 5.81895 7.71342 6.29195 7.70548 6.79458C7.69692 7.31403 7.69112 7.83347 7.70548 8.35292C7.72076 8.84486 7.61198 9.31695 7.42865 9.75603C7.28381 10.1019 7.07054 10.4588 6.59937 10.4622C6.34881 10.6681 6.0949 10.4707 5.84953 10.4478C5.70531 10.4341 5.51709 10.317 5.46209 10.1606C5.41045 10.0142 5.28884 9.94608 5.19565 9.81286ZM5.7319 5.43364C5.59623 5.62125 5.52717 5.78503 5.52962 5.99556C5.54062 6.94767 5.53359 7.90008 5.53481 8.8522C5.53481 9.25797 5.76429 9.70592 6.07931 9.925C6.32559 10.0964 6.64398 10.0564 6.81845 9.8315C6.97979 9.62281 7.08917 9.36522 7.08215 9.12445C7.06779 8.63892 7.19245 8.16897 7.18206 7.68834C7.17076 7.16583 7.05556 6.64945 7.0904 6.12236C7.10781 5.85531 7.01737 5.60506 6.78759 5.43364H5.7319Z" fill="#F2F2F2"/>
<path d="M6.37981 2.04784C7.18311 2.03928 7.50303 2.662 7.43459 3.24225C7.397 3.55911 7.13239 3.74673 6.84211 3.86803C6.81767 3.87842 6.78406 3.86406 6.75687 3.87048C6.58759 3.9102 6.46842 4.07734 6.26798 4.04586C6.10359 4.0202 5.98931 3.89889 5.82523 3.85978C5.51234 3.78492 5.18784 3.2942 5.28806 3.01981C5.38248 2.76131 5.4277 2.45117 5.69353 2.28434C5.91139 2.14714 6.12834 1.98886 6.37981 2.04784Z" fill="#F2F2F2"/>
</svg>
