<svg width="100" height="100" viewBox="0 0 100 100" fill="none" xmlns="http://www.w3.org/2000/svg">
<path d="M48.0122 75.8594V66.2744H56.8399V75.8594C56.8399 78.2971 54.8638 80.2733 52.4261 80.2733C49.9884 80.2733 48.0122 78.2971 48.0122 75.8594Z" stroke="black" stroke-width="2"/>
<path fill-rule="evenodd" clip-rule="evenodd" d="M39.146 57.231C40.0484 57.8463 42.9484 59.0275 44.6221 58.5845C45.3936 58.3803 46.3491 57.5151 47.3838 56.5782C49.1549 54.9745 51.158 53.1608 52.8669 54.0929C53.3403 54.3512 53.8251 54.632 54.3221 54.9199C56.6671 56.2785 59.2854 57.7954 62.2808 57.8461C65.1849 57.8953 66.034 57.1693 66.0956 56.8001L66.0956 28.6815C62.3218 27.8817 55.1558 24.793 56.6817 18.837C51.6363 16.3963 41.0657 15.4282 39.146 31.0811L39.146 57.231ZM45.9337 45.3558C46.2438 45.8128 46.1247 46.4346 45.6677 46.7447L44.9351 47.2419L43.9148 48.0126C43.4741 48.3455 42.847 48.2582 42.5141 47.8175C42.1812 47.3768 42.2686 46.7497 42.7093 46.4168L43.77 45.6155L44.5447 45.0898C45.0017 44.7797 45.6236 44.8988 45.9337 45.3558ZM61.107 43.0215C61.5466 42.6871 62.174 42.7724 62.5083 43.212L64.1053 45.3115C64.4397 45.7511 64.3544 46.3784 63.9148 46.7128C63.4753 47.0472 62.8479 46.9619 62.5135 46.5223L60.9165 44.4228C60.5822 43.9832 60.6674 43.3558 61.107 43.0215ZM55.9929 45.0461C56.4499 44.736 56.569 44.1142 56.2589 43.6572C55.9488 43.2002 55.3269 43.0811 54.8699 43.3912L54.0952 43.9169L53.0345 44.7182C52.5938 45.0511 52.5064 45.6782 52.8393 46.1189C53.1722 46.5596 53.7993 46.6469 54.24 46.314L55.2602 45.5433L55.9929 45.0461ZM58.8742 36.7517C58.5931 37.2271 57.9798 37.3846 57.5044 37.1036L56.7422 36.653L55.61 36.0589C55.1209 35.8023 54.9324 35.1979 55.189 34.7088C55.4456 34.2198 56.05 34.0313 56.5391 34.2879L57.7164 34.9055L58.5223 35.3819C58.9977 35.663 59.1552 36.2763 58.8742 36.7517ZM45.937 32.9108C45.6294 32.4521 45.0082 32.3297 44.5495 32.6373C44.0908 32.9449 43.9684 33.5662 44.276 34.0248L45.7789 36.2656C46.0866 36.7242 46.7078 36.8467 47.1664 36.539C47.6251 36.2314 47.7475 35.6102 47.4399 35.1515L45.937 32.9108ZM53.3472 26.3823C53.4893 26.916 53.1718 27.4638 52.6381 27.6059L49.9137 28.3311C49.38 28.4731 48.8322 28.1557 48.6901 27.622C48.548 27.0883 48.8655 26.5404 49.3992 26.3984L52.1237 25.6732C52.6574 25.5311 53.2052 25.8486 53.3472 26.3823Z" fill="black"/>
<path d="M38.8442 50.3653C38.8442 50.3653 38.8442 32.9164 38.8442 31.8981C38.8442 30.8798 39.3727 25.2767 42.4861 21.3282C45.5994 17.3797 50.4239 17.2583 52.6868 17.3797C54.9497 17.5011 56.9896 18.5186 56.9896 18.5186C56.9896 18.5186 56.2102 23.0745 58.2364 25.1006C60.2626 27.1268 64.7342 26.9837 65.9359 28.5046C67.1377 30.0255 66.5293 50.3653 66.5293 50.3653V63.2743C66.5293 64.9311 65.1861 66.2743 63.5293 66.2743H41.8442C40.1874 66.2743 38.8442 64.9311 38.8442 63.2743V50.3653Z" stroke="black" stroke-width="2"/>
</svg>
