<svg width="100" height="100" viewBox="0 0 100 100" fill="none" xmlns="http://www.w3.org/2000/svg">
<path d="M41.1804 56.5576C41.2199 58.9249 42.0356 63.3158 44.76 64.488C47.3973 65.6228 51.9882 65.9088 55.5889 64.7086C57.5637 64.0503 59.6738 60.2269 59.7922 56.5576" stroke="black" stroke-width="2" stroke-linecap="round"/>
<path d="M62.793 56.5575C62.8324 58.9248 63.2883 63.6357 66.129 64.4879C69.68 65.5532 73.0706 65.4553 76.7991 64.7451C78.8627 64.3521 80.7767 60.2268 80.895 56.5575" stroke="black" stroke-width="2" stroke-linecap="round"/>
<path d="M64.1414 56.7629C64.3342 58.8401 64.6219 62.7069 67.497 64.748" stroke="black" stroke-width="2" stroke-linecap="round"/>
<path d="M42.5896 56.5303C42.7824 58.6074 43.3618 62.7069 46.2368 64.748" stroke="black" stroke-width="2" stroke-linecap="round"/>
<path d="M21.397 36.4615C22.6808 34.6886 25.5234 34.3983 30.9487 34.5511C36.3741 34.7039 73.5111 34.383 75.9564 34.9332C79.0129 35.6209 82.0695 43.7208 84.7439 48.382C86.8835 52.111 81.0397 52.4457 79.3638 52.6319C77.6879 52.8181 42.6859 52.6917 30.9487 52.814C16.2773 52.9668 15.4367 52.3555 14.8254 50.9036C14.2141 49.4518 19.7923 38.6775 21.397 36.4615Z" stroke="black" stroke-width="2" stroke-linecap="round"/>
<path d="M14.8063 51.0957C14.6618 52.3752 15.2653 55.4905 16.1571 55.7214C19.7691 56.6565 50.8673 56.3813 60.0715 56.3813C70.7747 56.3813 82.7208 56.1903 84.1635 55.4238C85.3176 54.8107 85.2376 51.3339 85.2075 50.0829" stroke="black" stroke-width="2" stroke-linecap="round"/>
<path d="M19.3022 56.2024C19.3417 58.5697 20.1308 63.6357 22.9715 64.4879C26.5224 65.5532 30.3101 65.494 34.0385 64.7839C35.624 64.4819 37.8854 60.2268 38.0037 56.5575" stroke="black" stroke-width="2" stroke-linecap="round"/>
<path d="M20.4736 56.5303C20.6665 58.6074 21.2458 62.7069 24.1208 64.748" stroke="black" stroke-width="2" stroke-linecap="round"/>
<path d="M63.4719 46.7768C66.6285 44.1446 79.8472 44.8013 79.4167 47.2522C78.9862 49.703 61.2479 49.863 63.4719 46.7768Z" fill="black" stroke="black" stroke-width="2" stroke-linecap="round"/>
<path d="M42.1218 46.7768C45.2784 44.1446 58.4971 44.8013 58.0666 47.2522C57.6361 49.703 39.8978 49.863 42.1218 46.7768Z" fill="black" stroke="black" stroke-width="2" stroke-linecap="round"/>
<path d="M20.7717 46.7768C23.9283 44.1446 37.147 44.8013 36.7165 47.2522C36.286 49.703 18.5477 49.863 20.7717 46.7768Z" fill="black" stroke="black" stroke-width="2" stroke-linecap="round"/>
<path d="M62.1716 39.6378C64.9403 37.8131 76.5345 38.2684 76.157 39.9673C75.7794 41.6663 60.2209 41.7773 62.1716 39.6378Z" fill="black" stroke="black" stroke-width="2" stroke-linecap="round"/>
<path d="M43.0903 39.6378C45.859 37.8131 57.4532 38.2684 57.0757 39.9673C56.6981 41.6663 41.1396 41.7773 43.0903 39.6378Z" fill="black" stroke="black" stroke-width="2" stroke-linecap="round"/>
<path d="M24.0092 39.6378C26.7779 37.8131 38.3722 38.2684 37.9946 39.9673C37.617 41.6663 22.0585 41.7773 24.0092 39.6378Z" fill="black" stroke="black" stroke-width="2" stroke-linecap="round"/>
</svg>
