<svg width="100" height="100" viewBox="0 0 100 100" fill="none" xmlns="http://www.w3.org/2000/svg">
<path d="M31.6775 55.7749C31.6775 55.7749 23.4724 57.6949 22.0064 60.1649C20.5404 62.6449 20.8695 65.3749 20.8695 65.3749C20.8695 65.3749 26.9264 66.9149 30.4264 67.3749C33.9264 67.8449 41.4235 69.3949 44.5915 68.6449C47.7595 67.8849 53.7175 65.7849 57.6565 64.1249C61.5945 62.4549 65.9184 61.6549 68.8344 61.4449C71.7494 61.2449 75.5245 60.8449 75.3105 57.0049C75.0965 53.1549 74.0854 46.1149 73.4994 42.1349C72.9134 38.1649 74.1395 34.3349 72.8365 32.8949C71.5345 31.4549 64.9794 26.0149 61.6214 27.8849C58.2634 29.7649 59.2705 33.0349 57.4145 36.1649C55.5595 39.2849 48.6004 46.495 45.2774 48.795C41.9554 51.085 31.6775 55.7749 31.6775 55.7749Z" stroke="black" stroke-width="2" stroke-miterlimit="10" stroke-linejoin="round"/>
<path d="M20.3008 65.235L20.3808 67.385C20.3808 67.385 29.1358 68.925 32.1018 69.345C35.0668 69.755 41.4678 70.545 43.6448 70.415C45.8208 70.275 49.9308 69.2551 52.5518 67.8051C55.1728 66.3651 58.4078 65.485 58.4078 65.485L58.8998 68.335L63.2988 69.895L73.2158 69.245L74.5198 59.915C74.5198 59.915 72.9078 60.885 70.6168 61.265C68.0018 61.705 65.9118 61.6849 64.1368 62.0649C60.4808 62.8749 54.3528 65.455 51.9408 66.265C49.5278 67.075 45.4878 68.825 42.6448 68.855C40.2458 68.875 34.5088 67.9349 29.0078 67.0649C23.5058 66.2049 20.3008 65.235 20.3008 65.235Z" fill="black" stroke="black" stroke-width="2" stroke-miterlimit="10" stroke-linejoin="round"/>
<path d="M23.2112 67.835C23.2112 67.835 20.8272 70.945 20.1582 72.395C19.4892 73.845 20.9682 77.145 24.0982 77.755C27.2292 78.355 49.6612 78.805 58.1962 78.985C66.7322 79.175 78.1032 78.5851 79.0952 78.4351C80.0882 78.2851 77.8233 74.865 74.8253 75.075C71.8263 75.285 70.6322 75.155 70.5442 72.855C70.4572 70.555 70.4423 69.405 70.4423 69.405L66.6492 69.655C66.6492 69.655 67.7182 72.015 65.8812 73.625C64.0432 75.245 59.4762 75.765 54.8402 75.535C50.2052 75.295 44.2672 75.705 42.9182 75.175C41.5692 74.645 40.4992 72.945 40.5382 72.045C40.5762 71.155 40.4542 70.455 40.4542 70.455L36.2242 70.125C36.2242 70.125 36.5302 72.885 34.6392 74.235C32.7492 75.585 28.1672 74.965 26.7272 74.735C25.2872 74.505 23.4502 72.155 24.9252 70.785C26.3992 69.405 26.7042 68.525 26.7042 68.525L23.2112 67.835Z" stroke="black" stroke-width="2" stroke-miterlimit="10" stroke-linejoin="round"/>
<path d="M33.374 54.9351C33.374 54.9351 41.871 48.3751 43.366 46.4351C44.861 44.4951 49.772 39.365 50.28 37.275C50.789 35.185 51.9191 31.395 52.1921 29.505C52.4641 27.615 51.144 22.225 53.53 21.395C55.917 20.555 59.857 20.945 60.895 23.635C61.4 24.945 62.027 27.8051 62.027 27.8051" stroke="black" stroke-width="2" stroke-miterlimit="10" stroke-linejoin="round"/>
<path d="M38.7617 50.665C38.7617 50.665 42.2167 51.3651 42.5557 52.9351" stroke="black" stroke-width="2" stroke-miterlimit="10" stroke-linecap="round" stroke-linejoin="round"/>
<path d="M42.7656 47.1948C44.2146 46.8248 45.4626 47.6648 46.2026 48.8248C46.4886 49.2648 46.6986 49.6748 46.8306 50.2048C46.8546 50.2948 46.9196 50.9248 46.9896 50.6148" stroke="black" stroke-width="2" stroke-miterlimit="10" stroke-linecap="round" stroke-linejoin="round"/>
<path d="M46.3721 43.2548C47.5661 42.9548 49.41 42.8947 50.256 43.9847C50.757 44.6347 52.167 46.8947 52.204 46.7247" stroke="black" stroke-width="2" stroke-miterlimit="10" stroke-linecap="round" stroke-linejoin="round"/>
<path d="M49.6436 39.4348C52.0386 38.8348 55.3346 40.8848 55.9116 43.1848" stroke="black" stroke-width="2" stroke-miterlimit="10" stroke-linecap="round" stroke-linejoin="round"/>
<path d="M51.1729 35.6055C53.3349 36.0755 59.0788 36.3954 59.8138 39.3154" stroke="black" stroke-width="2" stroke-miterlimit="10" stroke-linecap="round" stroke-linejoin="round"/>
<path d="M52.0908 32.0052C53.8478 31.5652 59.3988 32.5152 61.1168 33.1252C61.9238 33.4152 62.5378 34.3152 63.3078 34.4852" stroke="black" stroke-width="2" stroke-miterlimit="10" stroke-linecap="round" stroke-linejoin="round"/>
</svg>
