<svg width="100" height="100" viewBox="0 0 100 100" fill="none" xmlns="http://www.w3.org/2000/svg">
<path d="M71.8657 43.5003C79.4484 43.2193 76.7663 40.3319 73.2558 40.1914" stroke="black" stroke-width="2" stroke-linecap="round" stroke-linejoin="round"/>
<path d="M28.3267 44.3871C20.744 44.1061 24.4358 40.3319 27.9463 40.1914" stroke="black" stroke-width="2" stroke-linecap="round" stroke-linejoin="round"/>
<path d="M28.4617 38.2256C32.7485 42.0907 39.6494 44.3731 48.2232 44.5807C59.7292 44.8592 67.0116 42.9267 71.8517 39.7702" stroke="black" stroke-width="2" stroke-linecap="round" stroke-linejoin="round"/>
<path d="M38.8399 33.4243C34.1726 34.3005 30.2393 35.8468 28.0405 38.0847C27.7597 45.106 32.2532 59.9905 49.5249 59.5693C66.7966 59.148 71.1497 50.1611 72.4135 39.6296C69.3975 35.5645 61.6338 32.9652 49.8628 32.5819" stroke="black" stroke-width="2" stroke-linecap="round" stroke-linejoin="round"/>
<path d="M47.2419 59.5098C47.2419 67.7479 46.3559 80.2866 46.356 83.8729C46.356 85.645 49.7801 86.2445 49.9276 83.8729C49.9658 83.2594 50.2919 71.2493 50.1951 59.5098" stroke="black" stroke-width="2" stroke-linecap="round" stroke-linejoin="round"/>
<path d="M28.0404 38.085C27.7595 45.1063 32.4231 58.7899 49.6948 58.3687C66.9666 57.9474 71.1495 50.1614 72.4133 39.6299" stroke="black" stroke-width="2" stroke-linecap="round" stroke-linejoin="round"/>
<path d="M59.2021 58.1812C60.9741 62.0203 67.2724 77.3876 68.0259 79.9257C68.6696 82.0937 72.7756 80.9854 71.0037 78.0322C69.5862 75.6697 65.8632 63.3077 62.746 56.7046" stroke="black" stroke-width="2" stroke-linecap="round" stroke-linejoin="round"/>
<path d="M63.0674 67.7998C61.2205 70.9982 56.1537 72.8788 50.5843 73.0789" stroke="black" stroke-width="2" stroke-linecap="round" stroke-linejoin="round"/>
<path d="M36.1675 56.1138C31.9044 62.7842 25.928 75.3374 25.042 76.5184C24.156 77.6993 25.9279 80.0615 27.5522 78.29C29.9875 75.6337 33.3411 67.1597 39.1207 57.2947" stroke="black" stroke-width="2" stroke-linecap="round" stroke-linejoin="round"/>
<path d="M33.8022 67.7998C35.6491 70.9982 40.2793 72.8121 46.0154 73.1122" stroke="black" stroke-width="2" stroke-linecap="round" stroke-linejoin="round"/>
<path d="M62.3915 65.9284C59.2653 63.614 53.8614 62.66 50.6057 62.6597" stroke="black" stroke-width="2" stroke-linecap="round" stroke-linejoin="round"/>
<path d="M34.504 65.9284C37.3429 63.4336 42.5508 62.4827 46.3838 62.4829" stroke="black" stroke-width="2" stroke-linecap="round" stroke-linejoin="round"/>
<path d="M28.874 38.3017C31.0396 36.3377 34.6978 34.9784 39.0061 34.1967M71.477 39.881C69.5008 37.4341 61.3135 34.2875 53.8664 33.5703" stroke="black" stroke-width="2" stroke-linecap="round" stroke-linejoin="round"/>
<path d="M32.3708 40.412L37.2438 35.0229" stroke="black" stroke-width="2" stroke-linecap="round" stroke-linejoin="round"/>
<path d="M55.3794 34.7558C50.8515 34.6344 46.5661 29.541 41.9169 30.0262C36.5104 30.5906 39.653 36.7769 42.9276 37.9089C46.2023 39.0409 50.5685 38.2324 52.8324 38.1919C55.0964 38.1515 59.5434 37.9089 60.069 36.7769C60.5945 35.645 59.9073 34.8772 55.3794 34.7558Z" stroke="black" stroke-width="2" stroke-linecap="round" stroke-linejoin="round"/>
<path d="M39.0965 31.8872C38.2104 33.8872 39.6529 38.1482 42.9276 39.2802C46.2022 40.4121 50.5684 39.6036 52.8324 39.5632C55.0963 39.5228 59.5434 39.2802 60.069 38.1482C60.5945 37.0162 60.1467 35.9025 60.1467 35.9025" stroke="black" stroke-width="2" stroke-linecap="round" stroke-linejoin="round"/>
<path d="M46.0151 44.0236L50.3148 39.7812" stroke="black" stroke-width="2" stroke-linecap="round" stroke-linejoin="round"/>
<path d="M41.1423 43.393L44.2381 39.7812" stroke="black" stroke-width="2" stroke-linecap="round" stroke-linejoin="round"/>
<path d="M51.9773 44.2529L56.6783 39.1509" stroke="black" stroke-width="2" stroke-linecap="round" stroke-linejoin="round"/>
<path d="M35.9827 42.1314C36.212 41.948 39.0211 38.9592 40.397 37.4878" stroke="black" stroke-width="2" stroke-linecap="round" stroke-linejoin="round"/>
<path d="M64.4304 42.8603L67.8574 37.4307" stroke="black" stroke-width="2" stroke-linecap="round" stroke-linejoin="round"/>
<path d="M57.9197 43.7413C58.1031 43.5577 61.8188 38.7877 63.8444 36.2271" stroke="black" stroke-width="2" stroke-linecap="round" stroke-linejoin="round"/>
<path d="M54.5902 26.0768C56.1767 24.3141 52.2986 18.938 55.736 16.0293" stroke="black" stroke-width="2" stroke-linecap="round" stroke-linejoin="round"/>
<path d="M43.7552 26.0768C45.3417 24.3141 41.4637 18.938 44.901 16.0293" stroke="black" stroke-width="2" stroke-linecap="round" stroke-linejoin="round"/>
<path d="M49.1855 27.0892C51.0914 24.9716 46.4325 18.5129 50.562 15.0186" stroke="black" stroke-width="2" stroke-linecap="round" stroke-linejoin="round"/>
</svg>
