<svg width="100" height="100" viewBox="0 0 100 100" fill="none" xmlns="http://www.w3.org/2000/svg">
<g clip-path="url(#clip0_65_20629)">
<path d="M35.525 79.7002V85.0402H64.455L64.135 80.1702L35.525 79.7002Z" stroke="black" stroke-width="2" stroke-linecap="round" stroke-linejoin="round"/>
<path d="M35.715 84.75C42.225 84.54 48.805 84.59 55.315 84.38C58.155 84.29 61.215 84.54 63.865 83.5" stroke="black" stroke-width="2" stroke-linecap="round" stroke-linejoin="round"/>
<path d="M38.435 39.9897C39.555 42.1097 41.385 43.8697 41.545 44.2397C41.985 45.2697 41.085 55.6997 41.085 55.6997" stroke="black" stroke-width="2" stroke-linecap="round" stroke-linejoin="round"/>
<path d="M43.145 35.69C40.645 33.53 37.465 27.8 37.465 27.8C37.465 27.8 39.425 25.58 38.245 24.69C37.065 23.8 32.545 24.71 33.725 27.51C34.485 29.31 38.315 35.49 40.315 39.26" stroke="black" stroke-width="2" stroke-linecap="round" stroke-linejoin="round"/>
<path d="M62.125 79.7701C62.125 79.7701 56.215 43.4401 55.625 41.0701C55.035 38.7001 54.005 34.7201 49.715 35.0101C45.425 35.3001 47.495 36.7901 44.835 36.0501C44.355 35.9201 43.285 34.3001 42.745 33.8301" stroke="black" stroke-width="2" stroke-linecap="round" stroke-linejoin="round"/>
<path d="M52.635 35.98C48.795 39.52 44.545 50.66 43.515 52.88C42.485 55.1 35.535 61.89 36.865 63.96C38.195 66.03 38.785 66.91 38.785 66.91L38.765 68.86" stroke="black" stroke-width="2" stroke-linecap="round" stroke-linejoin="round"/>
<path d="M51.635 58.79C47.055 63.37 35.245 70.31 35.685 73.71C36.125 77.11 37.215 76.23 37.865 77.23C38.515 78.23 37.485 79.66 37.485 79.66" stroke="black" stroke-width="2" stroke-linecap="round" stroke-linejoin="round"/>
<path d="M38.535 78.54C46.085 78.66 53.625 78.78 61.175 78.9" stroke="black" stroke-width="2" stroke-linecap="round" stroke-linejoin="round"/>
<path d="M44.575 73.2899C44.315 70.9099 46.625 69.1099 48.705 67.9399C50.785 66.7699 53.205 65.3099 53.425 62.9199" stroke="black" stroke-width="2" stroke-linecap="round" stroke-linejoin="round"/>
<path d="M38.035 65.7602C40.055 67.2502 42.755 65.8802 44.765 64.4302" stroke="black" stroke-width="2" stroke-linecap="round" stroke-linejoin="round"/>
<path d="M61.075 52.6299L58.705 55.6099" stroke="black" stroke-width="2" stroke-linecap="round" stroke-linejoin="round"/>
<path d="M42.945 61.0499C44.435 58.6499 46.395 57.0999 47.885 54.6999C49.225 52.5499 50.175 49.4599 52.355 48.1699" stroke="black" stroke-width="2" stroke-linecap="round" stroke-linejoin="round"/>
<path d="M56.625 45.1798L60.545 40.8398L66.475 45.8498L63.905 49.0798" stroke="black" stroke-width="2" stroke-linecap="round" stroke-linejoin="round"/>
<path d="M64.6751 52.5101C63.6651 54.0301 62.355 53.6901 61.175 52.3801C60.525 51.6601 59.905 50.4601 60.495 49.6801C61.365 48.5301 62.985 48.5701 63.845 49.3001C64.705 50.0301 65.975 50.5701 64.6851 52.5101H64.6751Z" stroke="black" stroke-width="2" stroke-linecap="round" stroke-linejoin="round"/>
<path d="M41.575 48.6099C41.515 49.6799 41.205 52.0499 42.475 52.2999C43.305 52.4699 43.935 51.6899 44.715 50.1099" stroke="black" stroke-width="2" stroke-linecap="round" stroke-linejoin="round"/>
<path d="M41.995 33.5898C44.695 33.6598 41.915 39.5898 39.325 40.1798C37.365 40.6198 38.575 36.8198 38.575 36.8198" stroke="black" stroke-width="2" stroke-linecap="round" stroke-linejoin="round"/>
<path d="M49.895 34.6199C52.2146 34.6199 54.095 32.3321 54.095 29.5099C54.095 26.6877 52.2146 24.3999 49.895 24.3999C47.5754 24.3999 45.695 26.6877 45.695 29.5099C45.695 32.3321 47.5754 34.6199 49.895 34.6199Z" stroke="black" stroke-width="2" stroke-linecap="round" stroke-linejoin="round"/>
<path d="M45.2228 29.5102C45.2228 29.5102 40.1021 26.9872 40.3128 26.6102C40.5235 26.2332 45.8928 26.2902 45.8928 26.2902L45.2228 29.5102Z" fill="black"/>
<path d="M54.3734 29.0649C54.3734 29.0649 59.1565 26.7581 58.9334 26.3049C58.7103 25.8516 53.4834 26.1949 53.4834 26.1949L54.3734 29.0649Z" fill="black"/>
<path d="M45.755 26.1799C45.755 26.1799 42.677 21.5618 43.015 21.2799C43.353 20.998 47.805 24.0899 47.805 24.0899L45.755 26.1799Z" fill="black"/>
<path d="M53.885 26.07C53.885 26.07 55.5616 21.1481 55.155 20.87C54.7484 20.5919 51.405 24.27 51.405 24.27L53.885 26.07Z" fill="black"/>
<path d="M46.635 26.8499C48.135 27.5399 49.005 26.5799 49.775 25.1299C50.645 26.4699 51.675 27.4299 52.955 26.7699" stroke="black" stroke-width="2" stroke-linecap="round" stroke-linejoin="round"/>
<path d="M35.015 24.6201C34.785 23.0701 33.765 21.4901 33.525 19.7501C34.725 19.5701 36.835 19.5701 38.225 19.6301C37.385 21.0701 38.015 22.7501 37.325 24.1901" stroke="black" stroke-width="2" stroke-linecap="round" stroke-linejoin="round"/>
<path d="M51.165 23.9802C51.165 23.9802 49.9768 19.2905 49.525 19.3502C49.0733 19.4098 47.975 24.1302 47.975 24.1302L51.165 23.9802Z" fill="black"/>
<path d="M35.485 13.9602C35.675 15.4402 34.295 15.0602 34.585 17.1602C34.075 17.1002 33.485 16.7602 33.395 15.6602C32.905 16.4902 32.225 18.0602 34.135 19.4102C35.205 20.1602 36.705 20.7802 37.825 19.1502C38.505 18.1702 38.915 16.8002 38.145 15.0202C37.805 16.4302 37.255 16.4902 36.795 16.4702C36.155 16.4502 36.455 14.6302 35.465 13.9502L35.485 13.9602Z" fill="black"/>
</g>
<defs>
<clipPath id="clip0_65_20629">
<rect width="34.95" height="72.08" fill="white" transform="translate(32.525 13.96)"/>
</clipPath>
</defs>
</svg>
