<svg width="100" height="100" viewBox="0 0 100 100" fill="none" xmlns="http://www.w3.org/2000/svg">
<path d="M62.1146 66.3076C62.5385 68.2074 62.7708 72.232 60.3086 73.1316C57.3213 74.2232 55.7106 72.5672 55.4936 72.0148" stroke="black" stroke-width="2" stroke-linecap="round"/>
<path d="M39.0177 34C37.1844 34.5 32.6177 35.2 29.0177 34C24.5177 32.5 32.5177 25.5 41.0177 20.5C47.8177 16.5 55.1844 14.5 58.0177 14C58.6559 18.4879 60.2392 28.6119 61.4674 33.2045C63.0027 38.9451 67.4083 44.6858 69.2106 47.9566C73.0961 55.0079 72.6817 60.5727 71.28 62.7088C70.1585 64.4176 68.5431 64.5333 67.8756 64.3776" stroke="black" stroke-width="2"/>
<path d="M68.8928 61.5136C68.7725 60.9746 68.2381 60.6351 67.699 60.7554C67.16 60.8756 66.8205 61.4101 66.9408 61.9491L68.8928 61.5136ZM66.9408 61.9491C67.135 62.8193 67.2808 64.173 67.1064 65.3749C66.9264 66.6161 66.4682 67.3602 65.7677 67.6162L66.4541 69.4947C68.2156 68.851 68.8724 67.133 69.0857 65.662C69.3048 64.1517 69.1225 62.5433 68.8928 61.5136L66.9408 61.9491ZM65.7677 67.6162C63.5624 68.422 63.2457 67.486 63.3129 67.6571L61.4514 68.3884C61.9527 69.6644 63.7351 70.4882 66.4541 69.4947L65.7677 67.6162Z" fill="black"/>
<path d="M55.9412 64.364C55.9412 63.8117 55.4935 63.364 54.9412 63.364C54.3889 63.364 53.9412 63.8117 53.9412 64.364H55.9412ZM54.9412 85.9963L55.9246 86.1774L54.9412 85.9963ZM48.3543 88.3576L47.3598 88.4623L48.3543 88.3576ZM37.1855 68.7138L37.7444 69.543L37.1855 68.7138ZM31.6772 62.8324L30.836 62.2917H30.836L31.6772 62.8324ZM42.6938 50.1957L43.6844 50.3324L42.6938 50.1957ZM53.9412 64.364C53.9412 69.0869 54.1159 73.5789 54.2024 77.3172C54.2901 81.1058 54.2833 84.0479 53.9577 85.8151L55.9246 86.1774C56.2951 84.1665 56.2882 81.0002 56.2019 77.271C56.1144 73.4915 55.9412 69.0564 55.9412 64.364H53.9412ZM53.9577 85.8151C53.6014 87.7493 52.3501 88.6312 51.2225 88.8521C50.6373 88.9667 50.1224 88.8962 49.7841 88.7405C49.4599 88.5913 49.3654 88.4098 49.3488 88.2529L47.3598 88.4623C47.4676 89.4861 48.1498 90.19 48.948 90.5574C49.7321 90.9182 50.6852 90.9953 51.607 90.8148C53.4932 90.4453 55.411 88.9659 55.9246 86.1774L53.9577 85.8151ZM49.3488 88.2529C49.0973 85.8629 47.7387 71.8159 47.7387 68.7138H45.7387C45.7387 71.9487 47.1143 86.1297 47.3598 88.4623L49.3488 88.2529ZM47.7387 68.7138C47.7387 67.196 47.7944 65.3151 47.6736 63.8515C47.6136 63.1251 47.504 62.396 47.2748 61.822C47.0568 61.276 46.5654 60.5086 45.5899 60.5086V62.5086C45.2979 62.5086 45.2919 62.2494 45.4174 62.5637C45.5318 62.8501 45.624 63.3336 45.6803 64.0161C45.7921 65.3701 45.7387 67.0918 45.7387 68.7138H47.7387ZM45.5899 60.5086C45.145 60.5086 44.7436 60.7015 44.4576 60.8697C44.145 61.0537 43.8196 61.3008 43.4969 61.5721C42.8513 62.1149 42.1071 62.8485 41.3428 63.6121C39.7702 65.1834 38.0926 66.8965 36.6266 67.8846L37.7444 69.543C39.4106 68.42 41.2517 66.5305 42.7564 65.0269C43.5308 64.2532 44.215 63.5813 44.7839 63.103C45.0686 62.8637 45.297 62.6964 45.4719 62.5935C45.6733 62.4749 45.693 62.5086 45.5899 62.5086V60.5086ZM36.6266 67.8846C35.5018 68.6427 33.8909 68.4376 32.8173 67.5094C32.3005 67.0627 31.953 66.4801 31.8568 65.8182C31.7617 65.1636 31.8988 64.337 32.5184 63.3732L30.836 62.2917C29.9976 63.596 29.7027 64.9025 29.8776 66.1058C30.0514 67.3018 30.6759 68.3019 31.5092 69.0224C33.1357 70.4285 35.7371 70.896 37.7444 69.543L36.6266 67.8846ZM32.5184 63.3732C33.8923 61.2361 36.415 58.9652 38.8028 56.7154C39.9684 55.6172 41.0977 54.525 41.9643 53.4989C42.8013 52.5079 43.5343 51.4206 43.6844 50.3324L41.7032 50.0591C41.6373 50.5369 41.2498 51.2453 40.4363 52.2085C39.6525 53.1366 38.6013 54.1573 37.4313 55.2597C35.1479 57.4111 32.3783 59.8925 30.836 62.2917L32.5184 63.3732ZM43.6844 50.3324C43.7489 49.8651 43.6915 49.2118 43.5928 48.5175C43.4891 47.7877 43.3206 46.8946 43.1053 45.8883C42.6743 43.874 42.0444 41.3553 41.3326 38.684C39.9083 33.3387 38.1441 27.3376 36.9538 23.4421L35.0411 24.0265C36.2269 27.9074 37.9838 33.8841 39.4 39.199C40.1085 41.8578 40.7287 44.3398 41.1496 46.3068C41.3603 47.2913 41.5182 48.134 41.6127 48.799C41.7123 49.4995 41.7252 49.9 41.7032 50.0591L43.6844 50.3324Z" fill="black"/>
<path d="M28.1425 32.9315C26.8895 31.0752 32.7254 26.3957 35.8 24.2879L38.4685 33.9177C35.5486 34.3625 29.3955 34.7879 28.1425 32.9315Z" fill="black"/>
</svg>
