<svg width="100" height="100" viewBox="0 0 100 100" fill="none" xmlns="http://www.w3.org/2000/svg">
<path d="M17.1429 75.6104C17.1429 75.6104 15.5298 81.182 23.1428 81.12C37.1728 81.004 61.4058 81.206 76.1428 81.12C84.3848 81.072 83.1428 75.6104 83.1428 75.6104H17.1429Z" stroke="black" stroke-width="2" stroke-miterlimit="10" stroke-linejoin="round"/>
<path d="M22.165 63.2041H78.1429L83.1429 75.4941H17.1431L20.1431 68.1104L22.165 63.2041Z" stroke="black" stroke-width="2" stroke-miterlimit="10" stroke-linejoin="round"/>
<path d="M22.3386 63.0691C22.3386 63.0691 21.8067 24.3611 21.9997 19.7361C22.0467 18.6111 25.6425 19.1105 53.1425 19.1105C77.6425 19.1105 79.6425 18.6105 79.6425 20.4812C80.6425 22.4807 78.1425 63.0691 78.1425 63.0691H22.3386Z" stroke="black" stroke-width="2" stroke-miterlimit="10" stroke-linejoin="round"/>
<path d="M45.292 75.4534C45.292 75.4534 45.49 77.2834 47.704 77.1684C49.917 77.0534 51.511 77.1284 53.215 77.1274C54.87 77.1264 55.603 75.3164 55.603 75.3164" stroke="black" stroke-width="2" stroke-miterlimit="10" stroke-linejoin="round"/>
<path d="M27.0947 58.1116C27.0947 58.1116 27.2617 26.7557 27.4077 26.5367C27.9547 25.7137 75.1567 26.5366 75.1567 26.5366L74.7697 40.8987C74.7697 40.8987 74.2288 58.0986 73.7838 58.1116C60.8318 58.5046 27.0947 58.1116 27.0947 58.1116Z" stroke="black" stroke-width="2" stroke-miterlimit="10" stroke-linejoin="round"/>
<path d="M37.6538 57.8416C37.6538 57.8416 38.9108 47.7996 50.1098 47.1996C61.5478 46.5876 62.4988 57.9626 62.4988 57.9626" stroke="black" stroke-width="2" stroke-miterlimit="10" stroke-linejoin="round"/>
<path d="M42.8577 39.9565C42.1867 32.7625 48.4057 30.7035 52.6557 31.8535C57.9947 33.2985 59.3527 38.9725 57.3667 42.7825C55.0427 47.2415 43.7377 49.3775 42.8577 39.9565Z" stroke="black" stroke-width="2" stroke-miterlimit="10" stroke-linejoin="round"/>
<path d="M51.3198 22.4927C51.4448 22.4377 51.3759 22.4447 51.5259 22.5027" stroke="black" stroke-width="2" stroke-miterlimit="10" stroke-linecap="round" stroke-linejoin="round"/>
</svg>
