<svg width="100" height="100" viewBox="0 0 100 100" fill="none" xmlns="http://www.w3.org/2000/svg">
<path fill-rule="evenodd" clip-rule="evenodd" d="M19.7212 70.2472C18.3362 70.4187 17.7243 70.6077 18.0929 70.8236C17.7651 71.5999 19.314 74.5901 28.5453 74.8154C30.5175 74.8635 33.0829 74.9675 36.024 75.0867C42.5253 75.3501 50.8624 75.6879 58.6874 75.6616C65.3707 75.6392 70.437 75.3559 74.598 75.1233C77.5796 74.9566 80.0963 74.8159 82.4101 74.8157C87.6964 74.8154 87.7581 72.8924 87.9269 67.6251C87.9351 67.3696 87.9435 67.1062 87.9528 66.8349C87.9954 65.5923 87.135 65.7161 85.9383 66.1228L86.0072 68.2311C86.1081 70.5001 84.2449 72.3754 81.8669 72.4079L24.1058 74.0373C21.7932 74.0688 19.8547 72.4253 19.7212 70.2472Z" fill="black"/>
<path d="M18.768 69.8258L17.5169 30.8673C17.4122 28.4661 20.178 25.5808 22.6232 25.5475L81.1638 24.7483C83.6089 24.7149 85.5762 26.5567 85.6809 28.9579L86.9321 67.9164C87.0368 70.3176 85.1217 72.3014 82.6765 72.3348L23.2852 74.0354C20.84 74.0688 18.8008 72.228 18.768 69.8258Z" stroke="black" stroke-width="2" stroke-miterlimit="10" stroke-linecap="round"/>
<path d="M71.8479 36.7782L67.9306 46.4213C69.2357 46.4007 74.3215 43.7071 76.8347 42.2156C76.8347 42.2156 77.092 41.3406 75.4264 39.3346C73.7609 37.3286 71.8479 36.7782 71.8479 36.7782Z" fill="black"/>
<path d="M72.1201 36.7746C72.1201 36.7746 68.1821 45.2585 68.5369 45.6724C68.8916 46.0863 74.5937 43.7035 77.1069 42.212C77.1069 42.212 77.3642 41.3369 75.6986 39.3309C74.0331 37.3249 72.1201 36.7746 72.1201 36.7746Z" stroke="black" stroke-width="2" stroke-miterlimit="10"/>
<path d="M58.6315 43.3748C59.5941 35.9269 68.4674 35.2832 72.3906 36.7696C74.5853 37.8961 76.6665 39.5621 77.3822 42.4973C79.4272 50.8846 74.6259 55.0254 68.6196 55.1205C62.3663 55.2195 57.7666 50.0662 58.6315 43.3748Z" stroke="black" stroke-width="2" stroke-miterlimit="10"/>
<path d="M69.5181 45.4914C69.6038 44.9459 69.231 44.4338 68.6854 44.3475C68.1398 44.2613 67.628 44.6336 67.5423 45.1791L69.5181 45.4914ZM67.5423 45.1791L66.0009 54.9901L67.9767 55.3024L69.5181 45.4914L67.5423 45.1791Z" fill="black"/>
<path d="M28.5688 49.2432L41.7629 48.8712" stroke="black" stroke-width="2" stroke-miterlimit="10" stroke-linecap="round"/>
<path d="M28.3999 41.5879L48.255 41.0076" stroke="black" stroke-width="2" stroke-miterlimit="10" stroke-linecap="round"/>
</svg>
