<svg width="100" height="100" viewBox="0 0 100 100" fill="none" xmlns="http://www.w3.org/2000/svg">
<path d="M70.3252 28.8837C70.1386 29.9979 64.9058 29.399 59.7443 28.2776" stroke="black" stroke-width="2" stroke-linecap="round"/>
<path d="M72.3619 19.4976C72.74 17.24 52.4038 13.1694 51.6455 15.0744C50.8872 16.9794 71.9838 21.7552 72.3619 19.4976Z" fill="black" stroke="black" stroke-width="2" stroke-linecap="round"/>
<path d="M71.3623 24.4807C71.1757 25.5949 65.943 24.996 60.7814 23.8746C58.8257 23.4497 56.8802 22.9498 55.2233 22.4396" stroke="black" stroke-width="2" stroke-linecap="round"/>
<path d="M48.6267 27.0551C46.9396 26.716 45.9298 26.6558 45.6944 27.0551C44.7508 28.655 72.0917 38.898 72.2781 37.013C72.3065 36.725 70.72 35.6086 69.7158 35.0252" stroke="black" stroke-width="2" stroke-linecap="round"/>
<path d="M72.3374 37.2339C72.3374 37.2339 70.7851 49.8666 68.8151 57.3528C66.845 64.839 65.0989 75.2974 64.7766 75.6362C64.0925 76.3554 48.0381 83.4812 47.6024 83.5854C47.1666 83.6897 44.1872 82.6639 44.1872 82.6639" stroke="black" stroke-width="2" stroke-linecap="round"/>
<path d="M72.3174 19.6758L69.3626 35.6802" stroke="black" stroke-width="2" stroke-linecap="round"/>
<path d="M51.6811 15.0249L48.6604 28.7787" stroke="black" stroke-width="2" stroke-linecap="round"/>
<path d="M60.84 35.1536C59.4292 46.9101 54.4492 70.2026 53.3268 71.7498C52.2044 73.2971 47.4579 74.666 47.4579 74.666C46.1879 67.5901 37.0789 63.4915 33.782 63.9166C33.6111 63.7592 36.5413 62.6865 38.8808 61.8956C39.5974 61.6534 40.1232 61.039 40.2388 60.2915C40.8831 56.1261 43.1103 41.8715 45.6742 27.1155" stroke="black" stroke-width="2" stroke-linecap="round"/>
<path d="M47.4575 74.666L47.6022 83.5852" stroke="black" stroke-width="2" stroke-linecap="round"/>
<path d="M35.9291 85.7608L47.4248 81.3438" stroke="black" stroke-width="2" stroke-linecap="round"/>
<path d="M35.5684 77.7639L42.4053 75.0449" stroke="black" stroke-width="2" stroke-linecap="round"/>
<path d="M25.8048 76.5644L32.7759 74.2549" stroke="black" stroke-width="2" stroke-linecap="round"/>
<path d="M24.8798 69.3374C29.9459 70.2647 33.9944 73.0513 35.3936 77.8802C35.9065 80.3312 36.3846 85.5925 35.8831 85.7436C30.5035 84.6951 26.6885 80.3492 25.1389 77.0787C25.0629 76.9182 25.0053 76.7509 24.967 76.5776C24.3403 73.7395 24.5264 69.3374 24.8798 69.3374Z" stroke="black" stroke-width="2"/>
<path d="M33.772 64.0244V65.419" stroke="black" stroke-width="2" stroke-linecap="round"/>
<path d="M37.1646 64.6182L24.8692 69.3117" stroke="black" stroke-width="2" stroke-linecap="round"/>
<path d="M53.3269 71.7501C51.9616 68.9943 49.8264 66.5786 47.4536 64.7809M40.0518 61.5076C40.9275 61.6052 41.847 61.8325 42.7809 62.1744" stroke="black" stroke-width="2" stroke-linecap="round"/>
<path d="M48.2934 86.7459C45.7289 85.8879 40.3516 88.5372 35.9106 86.8483L45.3445 82.1012L47.909 83.9776L64.8544 76.1737L67.0259 69.75C84.0392 72.0018 87.3829 82.1012 69.9273 84.942C60.1075 86.5402 50.8579 87.604 48.2934 86.7459Z" fill="black"/>
</svg>
