<svg width="100" height="100" viewBox="0 0 100 100" fill="none" xmlns="http://www.w3.org/2000/svg">
<path d="M58.4919 72.939L55.4954 70.469L64.9131 69.0469L59.0056 76.8311L58.4919 72.939Z" stroke="black" stroke-width="2" stroke-linecap="round" stroke-linejoin="round"/>
<path d="M48.6718 72.2683C48.7574 72.8671 48.6718 73.3911 48.5005 73.915C48.4149 74.1395 49.3567 75.1874 49.3567 75.5617C48.843 75.6365 47.4731 75.2623 47.1307 75.412C46.617 75.7113 46.1889 75.861 45.504 75.9359C43.4492 76.1604 41.6513 74.7383 41.3944 72.8671C41.1376 70.9959 42.593 69.2744 44.5622 69.0498C46.7026 68.975 48.4149 70.3223 48.6718 72.2683Z" stroke="black" stroke-width="2" stroke-linecap="round" stroke-linejoin="round"/>
<path d="M30.3256 71.2082C30.3256 71.2082 30.6943 67.8687 33.2365 68.4388C39.3152 70.1603 31.2037 76.3228 30.9249 76.4475C30.9249 76.4475 23.8188 71.6572 27.1578 69.1124C29.2982 67.5406 30.3256 71.2082 30.3256 71.2082Z" stroke="black" stroke-width="2" stroke-linecap="round" stroke-linejoin="round"/>
<path d="M20.0157 31.8949C19.8605 40.9702 19.783 53.0273 19.783 63.075H78.8851C79.2729 51.9902 79.273 42.3963 79.1954 31.7004L20.0157 31.8949Z" stroke="black" stroke-width="2" stroke-miterlimit="10"/>
<path d="M74.8515 82.7126C64.5992 83.045 36.6132 82.8075 22.1092 82.8779C20.0151 82.737 19.7048 79.4267 19.7048 77.0321C19.7048 63.0867 19.7048 35.7593 20.2478 25.1946C20.4029 22.7999 19.4491 18.098 21.6743 18.098C34.7277 16.6302 58.3822 18.8011 77.6174 17.5333C79.7116 17.6037 79.195 21.7894 79.2726 24.2545C79.5828 43.0597 79.5052 58.132 78.7296 78.2754C78.7296 80.6701 77.6174 82.7126 74.8515 82.7126Z" stroke="black" stroke-width="2" stroke-linecap="round" stroke-linejoin="round"/>
<path d="M39.6161 24.6355H54.1317H68.6472" stroke="black" stroke-width="2" stroke-linecap="round" stroke-linejoin="round"/>
<path d="M30.3248 27.1441C31.7813 27.1441 32.9619 26.101 32.9619 24.8142C32.9619 23.5275 31.7813 22.4844 30.3248 22.4844C28.8684 22.4844 27.6877 23.5275 27.6877 24.8142C27.6877 26.101 28.8684 27.1441 30.3248 27.1441Z" fill="black" stroke="black" stroke-width="2" stroke-linecap="round" stroke-linejoin="round"/>
</svg>
