<svg width="100" height="100" viewBox="0 0 100 100" fill="none" xmlns="http://www.w3.org/2000/svg">
<path d="M60.3168 52.3379L63.2566 52.3379M35.6641 52.3379V54.9361" stroke="black" stroke-width="2" stroke-linecap="round"/>
<path d="M71.114 29.1285C67.9349 29.1285 58.2941 29.1285 48.7265 29.1285C36.767 29.1285 20.0162 27.9173 18.8049 29.1285C17.5937 30.3397 18.8049 33.8624 18.8049 54.7325C18.8049 80.5271 18.1995 81.2053 20.0162 81.2053C21.8328 81.2053 63.2419 80.9026 73.6876 81.2053C84.1332 81.5081 82.6194 73.3333 81.1055 69.3972C79.5916 65.4612 73.4741 66.6358 71.9603 66.4845C70.4465 66.3331 71.114 62.1307 71.114 59.4057C71.114 57.2257 70.7942 20.1399 71.114 19.7426C71.4338 19.3453 81.8181 19.7817 81.8181 27.1462C81.8181 34.5107 82.1741 64.2465 82.1741 75.0458" stroke="black" stroke-width="2"/>
<path d="M33.5043 34.834H25.2719C25.0608 44.8958 24.7653 65.125 25.2719 65.5472C25.7785 65.9693 37.3039 65.7231 43.0033 65.5472" stroke="black" stroke-width="2" stroke-linecap="round"/>
<path d="M41.4648 34.8809C46.4186 34.8809 56.7192 34.8809 58.2913 34.8809C60.2564 34.8809 62.4057 34.8809 63.0198 34.8809C63.6339 34.8809 63.8796 65.156 63.4497 65.4631C63.0198 65.7701 51.4133 65.4631 51.0448 65.4631" stroke="black" stroke-width="2" stroke-linecap="round"/>
<path d="M51.3594 35.2529V51.7559" stroke="black" stroke-width="2" stroke-linecap="round"/>
<path d="M46.8389 52.334H54.4409" stroke="black" stroke-width="2" stroke-linecap="round"/>
<path d="M39.2405 52.1143H25.2598" stroke="black" stroke-width="2" stroke-linecap="round"/>
<path d="M35.7871 62.9326V65.4731" stroke="black" stroke-width="2" stroke-linecap="round"/>
<path d="M48.8449 71.9541C48.5505 71.5763 27.682 71.6504 27.1179 71.6504C26.5537 71.6504 26.5761 75.4879 27.1179 75.4879H48.8449C49.3941 75.4879 49.1393 72.332 48.8449 71.9541Z" fill="black" stroke="black" stroke-width="2" stroke-linecap="round"/>
<path d="M28.8395 47.3997C28.6403 47.2005 28.7565 43.8322 28.8395 42.1729C28.8395 41.5259 31.2289 41.7742 31.2289 42.1726C31.2289 42.5709 31.4529 47.1754 31.2289 47.3994C31.005 47.6234 29.0885 47.6487 28.8395 47.3997Z" fill="black" stroke="black" stroke-width="2" stroke-linecap="round"/>
<path d="M54.5514 40.5058C54.3522 40.4259 54.4684 39.0762 54.5514 38.4112C54.5514 38.152 56.9408 38.2515 56.9408 38.4111C56.9408 38.5707 57.1648 40.4159 56.9408 40.5056C56.7169 40.5954 54.8004 40.6055 54.5514 40.5058Z" fill="black" stroke="black" stroke-width="2" stroke-linecap="round"/>
<path d="M58.2565 60.7781C58.0931 61.0171 55.6862 60.7005 55.6862 61.0171C55.6862 61.3336 55.3376 62.1686 55.6862 62.4209C56.0348 62.6732 59.9228 62.7059 60.1787 62.4209C60.4345 62.1359 60.1787 58.6871 60.1787 58.3216C60.1787 57.956 58.4379 57.7927 58.4379 58.3216C58.4379 58.8504 58.4198 60.5392 58.2565 60.7781Z" fill="black" stroke="black" stroke-width="2" stroke-linecap="round"/>
<path d="M29.2933 59.3464C28.5516 58.3192 30.128 57.287 31.0186 57.8993C31.9093 58.5115 30.7404 61.3503 29.2933 59.3464Z" fill="black" stroke="black" stroke-width="2" stroke-linecap="round"/>
<path d="M58.0547 72.2383C59.9878 72.3295 63.5356 72.2383 64.4056 72.2383C65.4931 72.2383 70.9742 72.2383 72.5837 72.2383" stroke="black" stroke-width="2" stroke-linecap="round"/>
<path d="M57.8926 75.4473C60.6766 75.4473 62.9081 75.7293 63.7781 75.7293C64.8656 75.7294 66.4622 75.4473 68.0718 75.4473" stroke="black" stroke-width="2" stroke-linecap="round"/>
</svg>
