<svg width="100" height="100" viewBox="0 0 100 100" fill="none" xmlns="http://www.w3.org/2000/svg">
<path d="M21.5318 66.1001C17.9538 55.3911 21.2088 38.3501 25.5018 33.8571C31.7858 27.2791 38.5727 33.6251 41.3697 33.4281C44.1657 33.2301 59.5748 33.5781 59.5748 33.5781C59.5748 33.5781 66.0627 30.4591 69.8307 30.9151C76.9877 31.7821 82.1207 44.4821 80.2157 57.8331C78.3107 71.1841 74.2247 74.1931 68.8827 67.5901C63.5397 60.9881 62.8257 57.2401 60.5307 56.9021C58.2357 56.5641 42.0297 56.2081 40.3797 57.5441C38.7287 58.8791 27.4558 83.8251 21.5318 66.1001Z" stroke="black" stroke-width="2" stroke-miterlimit="10" stroke-linejoin="round"/>
<path d="M26.0791 72.3153C29.3871 72.9983 32.9781 72.3903 35.8431 66.7483C37.7101 63.0733 41.1851 58.0473 41.1851 58.0473C41.1851 58.0473 44.8131 57.6883 47.0151 57.7923C53.3321 58.0893 60.7581 58.3673 60.7581 58.3673C60.7581 58.3673 63.7601 62.6183 65.9051 65.5213C68.0511 68.4233 70.1381 70.5423 73.7971 70.9783" stroke="black" stroke-width="2" stroke-miterlimit="10" stroke-linejoin="round"/>
<path d="M54.3202 51.8381C53.1202 48.3571 57.6102 47.5641 58.1312 50.2341C58.6522 52.9041 55.2022 54.3961 54.3202 51.8381Z" stroke="black" stroke-width="2" stroke-miterlimit="10" stroke-linejoin="round"/>
<path d="M43.4774 51.7717C42.2774 48.2907 46.7674 47.4977 47.2884 50.1677C47.8094 52.8367 44.3594 54.3297 43.4774 51.7717Z" stroke="black" stroke-width="2" stroke-miterlimit="10" stroke-linejoin="round"/>
<path d="M68.6747 47.727C71.0007 46.734 71.0167 49.901 69.2217 49.883C68.2727 49.873 66.8597 48.502 68.6747 47.727Z" fill="black" stroke="black" stroke-width="2" stroke-miterlimit="10" stroke-linejoin="round"/>
<path d="M33.9969 50.0374C34.0309 51.2914 31.6209 51.1144 31.6859 50.0154C31.7339 49.1964 31.9338 47.4865 31.9338 47.4865L32.9799 45.9814L33.9288 47.5275C33.9288 47.5275 33.9739 49.2004 33.9969 50.0374Z" fill="black" stroke="black" stroke-width="2" stroke-miterlimit="10" stroke-linejoin="round"/>
<path d="M38.7154 43.3035C39.9694 43.3385 39.6594 45.7355 38.5654 45.6095C37.7504 45.5155 36.0544 45.2215 36.0544 45.2215L34.6094 44.0934L36.2064 43.2314C36.2064 43.2314 37.8784 43.2795 38.7154 43.3035Z" fill="black" stroke="black" stroke-width="2" stroke-miterlimit="10" stroke-linejoin="round"/>
<path d="M26.9247 45.0954C25.6697 45.0874 25.9277 42.6844 27.0247 42.7864C27.8407 42.8624 29.5427 43.1194 29.5427 43.1194L31.0127 44.2154L29.4347 45.1124C29.4347 45.1124 27.7617 45.1014 26.9247 45.0954Z" fill="black" stroke="black" stroke-width="2" stroke-miterlimit="10" stroke-linejoin="round"/>
<path d="M63.3126 44.1093C63.2906 41.5793 66.2206 42.7843 65.5126 44.4333C65.1386 45.3063 63.3286 46.0823 63.3126 44.1093Z" fill="black" stroke="black" stroke-width="2" stroke-miterlimit="10" stroke-linejoin="round"/>
<path d="M72.4383 42.226C74.7653 41.233 74.7803 44.4 72.9863 44.382C72.0363 44.372 70.6233 43.001 72.4383 42.226Z" stroke="black" stroke-width="2" stroke-miterlimit="10" stroke-linejoin="round"/>
<path d="M71.9564 42.6758C73.3204 40.5438 75.1164 43.1528 73.6234 44.1488C72.8334 44.6748 70.8934 44.3378 71.9564 42.6758Z" fill="black" stroke="black" stroke-width="2" stroke-miterlimit="10" stroke-linejoin="round"/>
<path d="M67.3087 39.1154C67.2867 36.5854 70.2167 37.7904 69.5087 39.4394C69.1347 40.3114 67.3247 41.0884 67.3087 39.1154Z" stroke="black" stroke-width="2" stroke-miterlimit="10" stroke-linejoin="round"/>
<path d="M67.9344 38.0483C70.2614 37.0553 70.2764 40.2223 68.4824 40.2043C67.5324 40.1943 66.1194 38.8233 67.9344 38.0483Z" fill="black" stroke="black" stroke-width="2" stroke-miterlimit="10" stroke-linejoin="round"/>
<path d="M31.8518 38.1364C31.7878 36.8834 34.2018 37.0014 34.1628 38.1024C34.1348 38.9214 33.9768 40.6354 33.9768 40.6354L32.9678 42.1664L31.9808 40.6434C31.9808 40.6434 31.8948 38.9724 31.8518 38.1364Z" fill="black" stroke="black" stroke-width="2" stroke-miterlimit="10" stroke-linejoin="round"/>
<path d="M45.0222 37.8861C43.8042 38.4741 46.3322 41.7191 46.3322 41.7191L55.5572 41.7701C55.5572 41.7701 58.4081 38.8141 56.7221 37.9061C54.7931 36.8681 46.9462 36.9571 45.0222 37.8861Z" fill="black" stroke="black" stroke-width="2" stroke-miterlimit="10" stroke-linejoin="round"/>
<path d="M63.8833 31.8041C63.8833 31.8041 63.5873 29.3631 64.7013 28.6841C66.4653 27.6091 70.5353 26.8131 71.1803 27.9221C71.8843 29.1351 72.6023 31.5911 72.6023 31.5911C72.6023 31.5911 70.4703 30.5841 68.2393 30.7301C66.0093 30.8751 63.8833 31.8041 63.8833 31.8041Z" fill="black" stroke="black" stroke-width="2" stroke-miterlimit="10" stroke-linejoin="round"/>
<path d="M29.0977 31.0894C29.0977 31.0894 29.6117 28.1614 30.1427 27.5354C31.2477 26.2314 37.0527 27.5924 37.7237 28.6144C38.4807 29.7694 38.2707 32.0584 38.2707 32.0584C38.2707 32.0584 35.6437 30.9374 33.3507 30.6954C31.0577 30.4534 29.0977 31.0894 29.0977 31.0894Z" fill="black" stroke="black" stroke-width="2" stroke-miterlimit="10" stroke-linejoin="round"/>
</svg>
