<svg width="100" height="100" viewBox="0 0 100 100" fill="none" xmlns="http://www.w3.org/2000/svg">
<path d="M26.3349 63.1219C26.335 64.8539 26.2168 75.3202 26.3279 80.3846C26.332 80.5715 26.4405 80.7363 26.6086 80.818L38.327 86.5163C38.9928 86.8401 39.7674 86.3563 39.7647 85.6159C39.7425 79.4535 39.7194 69.0697 39.7708 66.7048C39.8411 63.4732 40.1923 58.3949 40.1923 55.9562V48.4392V35.7235C36.0709 33.6629 27.6734 29.5135 27.0552 29.4011C26.2824 29.2606 26.3349 37.7862 26.335 40.5879C26.3351 42.9326 26.3349 57.3256 26.3349 63.1219Z" stroke="black" stroke-width="2"/>
<path d="M38.9246 86.7069C43.5847 85.3018 54.7349 82.9335 56.4209 82.6526C57.8272 82.4182 62.0679 81.3857 64.9855 80.6554C65.8936 80.4281 66.5176 79.6019 66.502 78.6659C66.4001 72.5363 66.5372 62.1275 66.5372 59.329C66.5372 55.1461 66.5372 45.9809 66.5372 45.6296C66.5372 45.3508 66.5372 34.9042 66.5372 29.595C66.5372 29.5306 66.4771 29.4858 66.4144 29.5005L40.4736 35.5834" stroke="black" stroke-width="2"/>
<path d="M60.4258 26.7314C62.4163 27.4106 66.4113 28.9094 66.4675 29.4712" stroke="black" stroke-width="2"/>
<path d="M27.2656 29.4014C27.7574 29.3309 38.3655 27.1536 40.6838 26.8021C43.0022 26.4506 47.7527 25.4163 49.0758 25.1158C50.8748 24.7073 53.3292 23.7809 53.9615 23.9917C54.4673 24.1603 56.1862 24.8114 56.9824 25.1158" stroke="black" stroke-width="2"/>
<path d="M34.6426 32.7738C34.9939 32.7035 37.4527 32.0015 39.49 31.7202C41.5273 31.439 45.5317 30.4555 46.445 30.1745C47.1756 29.9496 53.3063 28.2542 56.2803 27.4346" stroke="black" stroke-width="2"/>
<path d="M27.6875 29.9629C28.4369 31.7661 30.0622 35.7378 30.568 37.1989C31.2002 39.0253 31.9984 41.5366 32.2294 42.2605C32.5643 43.3099 33.2851 45.8071 33.8307 45.692C34.3763 45.5768 36.5535 40.7254 37.1717 39.9386C37.7899 39.1518 39.5837 37.0349 40.4033 36.0747" stroke="black" stroke-width="2"/>
<path d="M33.7318 32.7734C33.8461 35.2792 34.0062 40.5577 33.7318 41.6254C33.4574 42.6931 33.2871 43.8499 33.2363 44.2948" stroke="black" stroke-width="2"/>
<path d="M51.4587 48.7297C51.9973 48.1632 52.7566 48.42 53.0689 48.6192C54.6431 47.9819 55.2358 49.7278 55.7003 51.417C56.1647 53.1062 58.1188 55.4827 60.1242 58.9527C62.1296 62.4226 60.1021 64.9291 59.4246 66.2995C58.747 67.6699 58.4565 69.289 56.0582 69.3369C53.7218 69.3835 53.2908 69.6204 51.9193 69.9463C50.5478 70.2721 49.1915 69.0082 47.6031 66.5356C46.0146 64.0631 46.6217 60.5793 47.2992 59.2089C47.9768 57.8385 49.1654 55.5725 49.7639 53.4132C50.3624 51.2538 50.7853 49.4378 51.4587 48.7297Z" stroke="black" stroke-width="2"/>
<path d="M53.2673 46.7019C52.7477 46.9255 51.8123 47.4604 52.2272 47.8105C52.7457 48.2481 53.1297 47.9651 53.2977 47.3287C53.4657 46.6922 53.5615 43.5472 54.2239 41.829C54.7538 40.4545 55.5428 39.6383 55.8711 39.402" stroke="black" stroke-width="2"/>
<path d="M53.9109 48.3679C59.0074 51.1712 59.638 45.7524 60.399 43.7726C59.7191 43.6955 58.0116 43.6741 56.6209 44.2055C55.2303 44.7369 54.0822 47.1641 53.7489 48.2204C53.7617 48.2743 53.8093 48.3463 53.8968 48.2035C54.0063 48.0249 54.3858 47.2177 55.0165 47.0126" stroke="black" stroke-width="2"/>
<path d="M55.6806 87.1515C51.2881 87.3767 43.174 86.9403 39.7715 87.1515L66.2399 80.3232C67.202 80.4406 69.5485 80.7456 71.238 81.0272C75.6368 81.7603 72.4343 83.1382 71.238 83.6317C70.5017 83.9354 61.1714 86.87 55.6806 87.1515Z" fill="black" stroke="black" stroke-width="2"/>
<path d="M62.47 18.2865L60.1216 28.0433C59.024 29.4006 56.7295 27.8814 56.4434 27.6406C57.2112 24.5093 58.5815 17.6783 59.1983 15.7177C60.1216 12.7822 62.1235 12.9176 63.2075 12.7822L73.7754 13.8661C74.1367 13.8811 74.8051 14.1822 74.5884 15.2661C74.3716 16.35 73.384 17.2666 72.9174 17.2967C71.5023 17.0708 68.0218 16.5559 65.4204 16.303C62.8191 16.0501 62.6055 17.5187 62.47 18.2865Z" stroke="black" stroke-width="2"/>
</svg>
