<svg width="100" height="100" viewBox="0 0 100 100" fill="none" xmlns="http://www.w3.org/2000/svg">
<path d="M33.0608 47.1367C33.0608 47.1367 23.0518 65.4867 21.5258 68.1867C19.9998 70.8967 18.7208 72.8567 22.3428 75.0067C25.9638 77.1567 27.8868 75.0167 29.1778 72.4567C30.4688 69.8967 38.5978 53.2267 39.5158 51.3767C40.4328 49.5267 35.1808 46.1167 33.0608 47.1367Z" stroke="black" stroke-width="2" stroke-miterlimit="10" stroke-linejoin="round"/>
<path d="M21.487 68.2764C21.487 68.2764 22.648 70.0063 24.422 71.1263C26.195 72.2463 28.987 72.8064 28.987 72.8064C28.987 72.8064 27.51 75.7863 25.315 75.8663C23.361 75.9263 20.5601 74.2163 20.0881 72.6063C19.6161 70.9963 21.487 68.2764 21.487 68.2764Z" stroke="black" stroke-width="2" stroke-miterlimit="10" stroke-linejoin="round"/>
<path d="M60.832 55.6765C60.832 55.6765 70.5051 74.2064 71.9011 76.9764C73.2971 79.7564 74.2141 81.9064 78.0161 80.0964C81.8191 78.2864 81.1131 75.4964 79.7051 72.9964C78.2971 70.4964 68.9751 54.4665 67.9501 52.6765C66.9251 50.8865 61.163 53.3465 60.832 55.6765Z" stroke="black" stroke-width="2" stroke-miterlimit="10" stroke-linejoin="round"/>
<path d="M71.9473 77.0565C71.9473 77.0565 74.0303 77.0564 75.9483 76.2064C77.8663 75.3564 79.8903 73.3564 79.8903 73.3564C79.8903 73.3564 81.5433 76.2364 80.3833 78.1064C79.3513 79.7664 76.3653 81.1365 74.7683 80.6365C73.1713 80.1365 71.9473 77.0565 71.9473 77.0565Z" stroke="black" stroke-width="2" stroke-miterlimit="10" stroke-linejoin="round"/>
<path d="M61.653 53.9366C61.653 53.9366 60.8429 51.8767 61.1079 51.3567C61.3729 50.8367 62.793 50.2067 63.576 49.9567C64.359 49.7067 65.66 51.9867 65.66 51.9867C65.66 51.9867 64.522 52.3266 63.521 52.8166C62.519 53.3066 61.653 53.9366 61.653 53.9366Z" fill="black" stroke="black" stroke-width="2" stroke-miterlimit="10" stroke-linejoin="round"/>
<path d="M34.959 46.8463C34.959 46.8463 36.224 45.0263 36.802 44.9563C37.38 44.8863 38.693 45.7163 39.339 46.2263C39.986 46.7363 38.87 49.0164 38.87 49.0164C38.87 49.0164 38.104 48.5364 37.194 47.9164C36.284 47.2964 34.959 46.8463 34.959 46.8463Z" fill="black" stroke="black" stroke-width="2" stroke-miterlimit="10" stroke-linejoin="round"/>
<path d="M38.4795 45.4165C38.4795 45.4165 40.8155 43.7363 41.5625 39.9363C42.3095 36.1363 43.7255 24.8064 49.9595 21.4564C56.1935 18.0964 66.7095 20.9364 69.2695 26.0364C71.8285 31.1364 71.3795 38.4164 66.1085 42.1464C60.8375 45.8764 51.5735 45.8364 50.9045 38.3164C50.2355 30.8064 54.1625 25.4464 57.8155 26.4564C61.4675 27.4664 64.4025 32.1664 62.9895 37.2764C61.5765 42.3864 59.5675 45.6464 62.1895 50.3764" stroke="black" stroke-width="2" stroke-miterlimit="10" stroke-linejoin="round"/>
</svg>
