<svg width="100" height="100" viewBox="0 0 100 100" fill="none" xmlns="http://www.w3.org/2000/svg">
<path d="M27.9808 79.4463C24.1238 79.1606 21.5524 77.5892 21.1239 73.4464C20.8058 70.3719 25.6262 40.8352 28.6061 23.3111C28.8385 21.9442 29.6719 20.3161 31.9586 19.0682C36.2398 16.7321 66.0439 19.0387 69.8367 19.448C72.4864 19.734 73.721 21.0959 73.8448 24.2465C74.297 35.7485 70.3575 63.2647 67.9286 77.8378C67.0138 81.8727 63.5598 81.9633 62.1154 81.9633C58.2864 81.9633 31.8378 79.732 27.9808 79.4463Z" stroke="black" stroke-width="2"/>
<ellipse cx="62.3606" cy="76.7053" rx="1.18166" ry="1.05113" transform="rotate(38.3074 62.3606 76.7053)" fill="black"/>
<ellipse cx="26.7581" cy="73.5261" rx="1.18166" ry="1.05113" transform="rotate(38.3074 26.7581 73.5261)" fill="black"/>
<path d="M44.608 63.8554C37.5302 63.6161 38.8791 71.545 41.7974 73.1969C44.7156 74.8487 47.3397 73.768 48.5966 72.6489C50.7017 70.7744 51.9405 64.1034 44.608 63.8554Z" fill="black" stroke="black" stroke-width="2" stroke-linecap="round"/>
<path d="M70.7557 19.6055C72.1925 19.9858 72.9584 20.0612 76.4753 21.5955C79.4827 22.9074 78.9678 30.1582 78.6306 33.4491C78.4052 35.649 75.5171 74.2971 72.9346 76.7074C71.9552 77.6216 70.334 78.9421 65.3474 81.3509" stroke="black" stroke-width="2"/>
<path d="M67.7237 34.0503C66.2557 34.0503 44.473 32.7945 33.2486 32.5939C31.3229 32.5595 30.0654 34.3158 31.8926 34.6012C33.7198 34.8866 65.9197 36.4414 67.7237 36.1407C69.5276 35.8401 68.4349 34.0503 67.7237 34.0503Z" fill="black" stroke="black" stroke-width="2"/>
<path d="M52.4761 27.4716C51.7974 34.5451 49.0266 55.5629 48.062 60.6001" stroke="black" stroke-width="2" stroke-linecap="round"/>
<path d="M65.1359 27.0299C64.4572 34.1035 62.8384 47.4133 61.8738 52.4505" stroke="black" stroke-width="2" stroke-linecap="round"/>
<path d="M59.4665 27.0299C58.7877 34.1035 56.4934 51.3583 55.5288 56.3955" stroke="black" stroke-width="2" stroke-linecap="round"/>
<path d="M47.3274 26.6339C46.6486 33.7075 44.1694 51.3583 43.2048 56.3955" stroke="black" stroke-width="2" stroke-linecap="round"/>
<path d="M42.1787 26.2661C41.4999 33.3397 39.4387 48.2964 38.4741 53.3336" stroke="black" stroke-width="2" stroke-linecap="round"/>
<path d="M36.7338 25.751C36.055 32.8245 34.5374 42.7749 33.5728 47.8121" stroke="black" stroke-width="2" stroke-linecap="round"/>
<path d="M69.7924 25.4284C69.236 25.5939 68.5964 25.376 68.4103 24.7505C68.2242 24.1249 68.5245 23.4837 69.0809 23.3181C69.6373 23.1526 70.2392 23.5255 70.4253 24.151C70.6114 24.7766 70.3488 25.2629 69.7924 25.4284Z" fill="black"/>
<path d="M33.6713 24.1453C33.1149 24.3108 32.4753 24.0929 32.2892 23.4674C32.1031 22.8419 32.4034 22.2006 32.9598 22.0351C33.5162 21.8695 34.1181 22.2424 34.3042 22.868C34.4903 23.4935 34.2277 23.9798 33.6713 24.1453Z" fill="black"/>
<path d="M68.3815 75.1283C68.0958 77.0659 68.1784 78.2784 69.7153 78.3364C73.0803 78.4635 74.4189 72.9585 75.4477 65.2676" stroke="black" stroke-width="2" stroke-linecap="round"/>
<path d="M73.3484 21.1471C75.1609 21.8994 76.7597 21.9338 77.7942 24.5669C78.8287 27.2 77.9451 42.2779 77.2202 49.4681" stroke="black" stroke-width="2" stroke-linecap="round"/>
<path d="M76.6555 22.4194L73.3438 21.2933L73.8736 26.7246L73.3438 38.5806L70.032 64.5447L67.7136 78.454L72.019 77.7254L74.0723 74.0825L76.5892 57.7887L78.4438 34.2091V25.4661L76.6555 22.4194Z" fill="black"/>
</svg>
