<svg width="100" height="100" viewBox="0 0 100 100" fill="none" xmlns="http://www.w3.org/2000/svg">
<path d="M38.3408 56.1124C36.7149 56.0778 32.7564 55.4774 33.4631 54.4519C34.331 53.1923 35.7275 50.8556 37.1459 49.0221C37.1459 48.3302 37.2774 44.0008 36.6962 42.1743C35.9698 39.8911 30.3102 38.4697 27.8195 37.0167C25.3288 35.5638 22.5267 28.2992 22.6305 27.2614C22.7343 26.2236 25.6823 25.0263 26.7201 25.2339C27.7579 25.4414 30.2112 32.0138 31.249 32.1177C32.0792 32.2008 39.773 33.0295 41.4551 33.0295C43.1371 33.0295 45.3356 37.8884 45.7346 39.3135" stroke="black" stroke-width="2"/>
<path d="M40.9382 48.3216C41.723 46.7801 43.4774 43.3609 44.2174 42.0157C44.9574 40.6704 48.054 35.4803 49.1036 34.7868C50.1531 34.0934 52.4496 36.3211 52.8601 36.8343C53.3734 37.4759 57.6716 41.3892 60.366 43.3138C63.0604 45.2384 67.8077 47.299 68.0644 48.3216C68.321 49.3441 66.6927 54.2912 65.8832 53.5141C64.2793 51.9744 53.5017 45.7516 51.4488 44.0836" stroke="black" stroke-width="2" stroke-linecap="round"/>
<path d="M39.9822 51.6432C39.4852 52.6621 38.3258 56.221 38.9222 58.5468C39.6676 61.4542 42.5118 58.6959 45.1343 59.4688C51.0581 61.2149 54.2154 60.1251 54.6811 57.9519C54.9048 56.9082 50.5118 54.9906 50.5118 52.5003C50.5118 50.5625 51.2817 49.1073 53.0936 45.3628" stroke="black" stroke-width="2" stroke-linecap="round"/>
<path d="M45.4383 49.9937C42.1702 49.6846 39.6318 49.059 37.5433 47.8794L37.3043 49.0835L36.5642 49.9937C36.7482 50.2513 37.5105 50.7444 41.1321 51.7602C44.7536 52.776 48.5963 52.8815 50.2157 52.7343V51.411L50.7596 49.9937C50.2443 50.1225 48.7065 50.3028 45.4383 49.9937Z" fill="black" stroke="black" stroke-width="2" stroke-linecap="round"/>
<path d="M33.85 55.6318C31.21 57.0131 25.6722 60.2728 24.6409 62.262C23.3517 64.7485 25.0093 74.3257 26.2986 75.4308C27.5878 76.5358 31.6396 75.9833 31.4554 75.4308C31.2712 74.8782 32.1489 67.0315 30.7813 64.7523" stroke="black" stroke-width="2" stroke-linecap="round"/>
<path d="M32.1921 66.9587C34.7093 65.6694 40.3329 63.0724 42.6903 62.9989C45.637 62.9069 62.7655 71.5632 65.0677 72.7604C67.3699 73.9575 70.1326 76.3518 72.1586 75.9835C74.1845 75.6151 76.763 73.1287 76.1184 72.2078C75.4737 71.2869 62.1377 62.1008 54.5865 58.1411" stroke="black" stroke-width="2" stroke-linecap="round"/>
<path d="M38.7324 32.9282C40.3931 34.3121 43.147 41.2178 43.9219 42.2697" stroke="black" stroke-width="2" stroke-linecap="round"/>
<path d="M52.0298 36.543C50.2043 38.0973 47.7079 42.3688 47.0314 43.2914C46.1856 44.4448 43.881 50.6774 43.7273 51.1387C43.5735 51.6 41.9403 54.9054 42.3248 56.6737C42.6323 58.0884 42.841 58.9687 42.9692 59.3275" stroke="black" stroke-width="2" stroke-linecap="round"/>
<path d="M45.1133 31.05C41.9866 26.7077 42.7681 23.2052 44.3314 21.4104C45.8947 19.6155 50.8455 20.0209 52.1482 21.4103C53.4509 22.7997 53.3641 26.1866 52.1482 28.9657C50.9323 31.7448 47.1344 33.8568 45.1133 31.05Z" stroke="black" stroke-width="2" stroke-linecap="round"/>
<path d="M44.2286 29.8474C44.3479 30.6377 43.859 33.111 41.8191 33.0752" stroke="black" stroke-width="2" stroke-linecap="round"/>
<path d="M50.1839 31.4839C50.1045 32.2778 49.2342 34.056 51.1553 35.3224" stroke="black" stroke-width="2" stroke-linecap="round"/>
<path d="M75.9645 73.9685C76.8753 74.8793 78.5286 75.9782 79.2162 76.2805C82.3728 77.668 82.5455 77.0425 83.7932 77.9549C84.297 78.3233 84.7219 79.0446 84.5787 79.3094C83.797 80.7554 79.4828 79.7393 78.3644 79.7393C76.4257 79.7393 75.0031 79.8262 74.8357 78.5277C74.6247 76.8907 73.5742 76.558 72.948 75.837" stroke="black" stroke-width="2" stroke-linecap="round"/>
<path d="M26.6699 76.0261C26.3471 76.4719 25.5723 77.4835 25.0558 77.9631C24.4102 78.5626 22.4271 79.0699 22.9344 80.1306C23.4417 81.1913 25.2402 81.9753 26.6699 81.053C28.0996 80.1306 29.1142 79.2543 30.3133 79.116C31.5123 78.9776 31.1434 76.349 30.7283 76.0261" stroke="black" stroke-width="2" stroke-linecap="round"/>
<path d="M68.4881 49.865C69.3407 50.0827 71.1982 50.7031 71.8078 51.4431C72.5697 52.3682 76.5968 55.0347 75.3995 55.4157C74.2023 55.7966 70.1294 53.9684 69.8678 53.8937C69.6063 53.819 70.3162 55.4157 69.5689 55.4157C68.9711 55.4157 67.5639 53.4512 66.8789 52.7322" stroke="black" stroke-width="2" stroke-linecap="round"/>
<path d="M22.9154 26.4518C22.418 25.2084 21.9469 23.6855 21.5495 22.5594C20.9349 20.8177 21.257 18.1011 21.7542 18.5984C22.2515 19.0957 23.5419 21.7893 23.9398 21.7396C24.3376 21.6899 25.1349 20.1006 25.8808 21.3692C26.2254 21.9553 26.137 23.3528 26.5349 25.086" stroke="black" stroke-width="2" stroke-linecap="round"/>
<path d="M46.828 23.2262C50.2925 24.6143 53.8766 23.494 53.6861 24.3C53.4956 25.1061 53.698 26.0933 51.4472 26.0329C46.656 25.9042 44.3736 24.5156 43.2997 23.8019C43.2997 23.8019 43.5331 22.0931 43.8834 21.8754C44.2337 21.6578 45.2811 22.6064 46.828 23.2262Z" fill="black" stroke="black" stroke-width="2" stroke-linecap="round"/>
<path d="M43.2717 21.7472C42.9719 21.068 42.2876 19.7731 41.9488 20.0272C41.5253 20.3448 43.0601 22.3295 43.5364 22.4882" stroke="black" stroke-width="2" stroke-linecap="round"/>
<path d="M40.6532 23.4062C40.8189 23.9089 43.1918 23.6858 43.4944 23.2851" stroke="black" stroke-width="2" stroke-linecap="round"/>
<path d="M26.1252 60.3403L34.1594 55.3188L38.9798 56.7249V58.3987L40.5197 60.3403L42.6622 59.6707H45.608L49.6251 60.3403L53.776 59.6707L55.115 58.3987L75.4682 71.3202L76.2046 73.3957L72.7901 75.8729L68.907 75.4042L47.9513 64.759L41.9926 62.8844L32.0169 67.1693L31.2135 75.8729H26.9287L25.1879 71.3202L24.3845 63.5539L26.1252 60.3403Z" fill="black"/>
</svg>
