<svg width="100" height="100" viewBox="0 0 100 100" fill="none" xmlns="http://www.w3.org/2000/svg">
<path d="M60.5956 49.2298C60.0724 50.9139 59.4721 52.5899 58.7928 54.2535C54.0743 65.8104 46.219 75.1293 36.6369 81.608C34.8514 72.8452 34.9915 63.5921 37.3277 54.5038M61.6621 45.351C63.7668 36.5727 63.8365 27.6626 62.1139 19.2088C52.5319 25.6875 44.6766 35.0065 39.958 46.5634C39.4127 47.899 38.9182 49.2427 38.4736 50.5921" stroke="black" stroke-width="2" stroke-linecap="round" stroke-linejoin="round"/>
<path d="M18.4602 54.43L27.3859 51.4436C28.2349 51.1596 29.1814 51.473 29.5299 52.2977C30.0945 53.6337 30.4532 55.2683 30.4862 56.5866C30.5072 57.4215 29.8145 58.0273 28.9845 58.1199L19.5067 59.1772C18.4903 59.2905 17.5521 58.6188 17.3319 57.6201L17.1417 56.7572C16.9215 55.7584 17.4903 54.7545 18.4602 54.43Z" stroke="black" stroke-width="2" stroke-linecap="round" stroke-linejoin="round"/>
<path d="M36.6355 81.6077C48.3386 71.5122 54.9662 62.7204 59.039 49.6112M62.1125 19.2085C63.8351 27.6623 62.1252 37.2616 60.0205 46.0399" stroke="black" stroke-width="2" stroke-linecap="round" stroke-linejoin="round"/>
<path d="M79.4738 40.9801L70.1198 42.0236C69.23 42.1229 68.5031 42.8052 68.5336 43.7C68.5831 45.1496 68.945 46.7834 69.4693 47.9934C69.8013 48.7598 70.6845 49.0181 71.4765 48.7532L80.5203 45.7273C81.4902 45.4028 82.059 44.3988 81.8388 43.4001L81.6486 42.5372C81.4284 41.5384 80.4902 40.8667 79.4738 40.9801Z" stroke="black" stroke-width="2" stroke-linecap="round" stroke-linejoin="round"/>
<path d="M55.8034 47.1082C56.5186 43.0695 55.9083 39.8479 54.0022 39.0697C51.3116 37.9711 47.0578 42.1568 44.5012 48.4186C44.3203 48.8615 44.1528 49.303 43.9986 49.7413M54.9511 50.3663C54.7113 51.1469 54.5713 51.597 54.2448 52.3968C51.6881 58.6586 47.4344 62.8442 44.7438 61.7457C42.7153 60.9175 42.1544 57.3225 43.0966 52.9201" stroke="black" stroke-width="2" stroke-linecap="round" stroke-linejoin="round"/>
<path d="M53.9091 38.9961C55.7652 39.6827 56.4215 42.087 55.7868 46.9553L43.6455 49.8317C46.4805 42.0162 52.0531 38.3095 53.9091 38.9961Z" fill="black"/>
<path d="M43.3201 52.5473L55.2981 50.2453C51.794 60.9209 45.9201 62.2258 44.6134 61.7635C43.3067 61.3012 41.9104 59.6629 43.3201 52.5473Z" fill="black"/>
<path d="M29.6936 53L68.1147 44.5299" stroke="black" stroke-width="2"/>
<path d="M30.4402 55.5015L69.0486 46.9901" stroke="black" stroke-width="2"/>
<path d="M31.0737 52.695C31.5183 53.6065 31.6878 54.7701 31.6665 55.3839" stroke="black" stroke-width="2"/>
<path d="M67.1924 44.7664C67.1723 45.7803 67.5077 46.9073 67.7852 47.4553" stroke="black" stroke-width="2"/>
</svg>
