<svg width="100" height="100" viewBox="0 0 100 100" fill="none" xmlns="http://www.w3.org/2000/svg">
<path d="M38.6717 44.624C38.6717 44.624 29.2828 50.224 29.0628 60.084C28.8428 69.944 35.7298 77.904 42.5938 79.564C49.4568 81.234 61.6627 81.7739 67.3027 72.0439C72.1597 63.6639 69.7767 54.8841 68.0667 51.6541C66.3577 48.4341 60.5588 45.014 60.5588 45.014" stroke="black" stroke-width="2" stroke-miterlimit="10" stroke-linecap="round" stroke-linejoin="round"/>
<path d="M69.9727 58.0039C70.4647 60.1639 70.5937 67.8139 64.1727 74.1539C57.7507 80.4939 49.6667 80.0339 47.3867 79.9639C43.8977 79.8639 40.0107 79.7938 35.6777 75.6838" stroke="black" stroke-width="2" stroke-miterlimit="10" stroke-linejoin="round"/>
<path d="M34.8274 47.5738C34.8274 47.5738 31.3894 44.6239 32.2314 43.7739C33.0744 42.9339 37.6364 38.9038 38.3624 38.7138C39.0884 38.5238 41.5674 41.8939 41.5674 41.8939C41.5674 41.8939 46.3034 41.2738 48.9384 41.2138C51.5734 41.1438 56.6064 42.6338 56.6064 42.6338L59.9054 38.8038C59.9054 38.8038 67.2484 43.7039 67.3704 44.4139C67.4914 45.1239 65.1514 48.0038 65.1514 48.0038" stroke="black" stroke-width="2" stroke-miterlimit="10" stroke-linejoin="round"/>
<path d="M32.9945 42.7937C32.9945 42.7937 26.4375 37.3238 28.3495 30.3738C30.2625 23.4238 36.4315 19.6637 41.0075 19.3037C45.5835 18.9537 57.9035 18.7838 60.4245 19.4838C62.9455 20.1838 70.4835 23.3238 70.9825 29.7238C71.4805 36.1338 66.2915 43.1737 66.2915 43.1737" stroke="black" stroke-width="2" stroke-miterlimit="10" stroke-linejoin="round"/>
<path d="M36.6797 39.5841C36.6797 39.5841 32.1247 35.4341 34.8597 30.7441C37.5947 26.0641 40.1957 24.3141 44.4507 24.3641C48.7047 24.4141 57.8907 23.8741 60.5037 25.1241C62.9307 26.2741 67.1727 29.5841 65.8417 33.9541C64.8637 37.1641 62.3637 40.314 62.3637 40.314" stroke="black" stroke-width="2" stroke-miterlimit="10" stroke-linejoin="round"/>
<path d="M61.6522 39.5334C61.6522 39.5334 64.8092 36.7634 65.0422 33.0834C65.1792 30.9134 64.7222 29.1933 63.4202 27.8033C62.1182 26.4233 59.6842 24.5834 56.9092 24.4434" stroke="black" stroke-width="2" stroke-miterlimit="10" stroke-linejoin="round"/>
<path d="M49.0726 24.3242C44.6246 24.3242 41.3336 24.4543 38.0916 28.2443C36.1286 30.5443 35.0086 33.0242 35.2516 34.8342C35.5466 37.0342 37.4906 38.8643 37.4906 38.8643" stroke="black" stroke-width="2" stroke-miterlimit="10" stroke-linejoin="round"/>
<path d="M40.8105 71.6543C41.5305 72.2743 42.7866 72.8442 42.7866 72.8442" stroke="black" stroke-width="2" stroke-miterlimit="10" stroke-linecap="round" stroke-linejoin="round"/>
<path d="M35.915 53.9834C33.792 56.3634 34.059 62.8434 35.229 65.1134C36.225 67.0434 36.491 67.3434 37.617 68.6434" stroke="black" stroke-width="2" stroke-miterlimit="10" stroke-linecap="round" stroke-linejoin="round"/>
<path d="M44.1611 79.8942C44.1611 79.8942 52.7581 82.0441 65.3771 80.2941C74.5991 79.0141 68.1041 77.9341 65.2221 77.8341C63.7561 77.7741 61.7141 77.4541 61.7141 77.4541C61.7141 77.4541 57.7131 79.6641 53.5721 80.0941C49.4311 80.5341 44.1611 79.8942 44.1611 79.8942Z" fill="black" stroke="black" stroke-width="2" stroke-miterlimit="10" stroke-linejoin="round"/>
</svg>
