<svg width="100" height="100" viewBox="0 0 100 100" fill="none" xmlns="http://www.w3.org/2000/svg">
<path fill-rule="evenodd" clip-rule="evenodd" d="M23.6623 76.9874C24.4455 77.4194 25.253 77.866 26.1023 78.3419C25.9488 78.5603 25.8481 78.8158 25.7563 79.049C25.7214 79.1374 25.6879 79.2226 25.6532 79.3013C25.1186 80.2756 25.1933 80.703 26.1676 81.2376L31.1544 84.0664C32.1288 84.601 32.5562 84.5264 33.1613 83.4516C34.6821 80.7485 36.0698 78.308 37.3707 76.0386C46.7453 76.3456 54 78.4499 54 81C54 83.7615 45.4934 86 35 86C24.5066 86 16 83.7615 16 81C16 79.3569 19.012 77.8988 23.6623 76.9874Z" fill="black"/>
<path d="M26.1021 78.342L26.9203 78.9169C27.0829 78.6854 27.1399 78.3959 27.0771 78.1201C27.0144 77.8442 26.8377 77.6079 26.5909 77.4696L26.1021 78.342ZM23.1215 76.6894L22.6387 77.5651H22.6387L23.1215 76.6894ZM25.7561 79.0491L26.6864 79.4156H26.6864L25.7561 79.0491ZM25.653 79.3013L26.5297 79.7824C26.5436 79.757 26.5564 79.7311 26.5681 79.7046L25.653 79.3013ZM26.1674 81.2376L26.6608 80.3679C26.6567 80.3655 26.6525 80.3632 26.6484 80.3609L26.1674 81.2376ZM31.1542 84.0665L30.6608 84.9363C30.665 84.9386 30.6691 84.9409 30.6732 84.9432L31.1542 84.0665ZM33.1611 83.4517L34.0325 83.9423L34.0326 83.942L33.1611 83.4517ZM44.0727 64.4867L44.9362 64.9911L44.0727 64.4867ZM54.9844 45.5216L55.8559 46.0119C55.8922 45.9475 55.9212 45.8792 55.9424 45.8083L54.9844 45.5216ZM55.3521 45.105L54.8773 44.2249C54.8357 44.2474 54.7957 44.2728 54.7576 44.3009L55.3521 45.105ZM55.8549 45.0048L55.8471 44.0048L55.8549 45.0048ZM55.9505 45.0005L56.0987 44.0116C55.9924 43.9956 55.8843 43.9969 55.7784 44.0154L55.9505 45.0005ZM68.8763 41.3333L68.2897 40.5234L68.2873 40.5251L68.8763 41.3333ZM74.6777 29.6607L75.6776 29.6444V29.6444L74.6777 29.6607ZM68.9264 18.4203L68.3055 19.2042C68.3205 19.2161 68.3358 19.2275 68.3515 19.2385L68.9264 18.4203ZM54.0856 16.1674L53.7387 15.2294L53.7323 15.2319L54.0856 16.1674ZM44.3585 27.5566L45.3489 27.6948C45.3498 27.6887 45.3506 27.6827 45.3513 27.6766L44.3585 27.5566ZM47.3527 40.1595L48.3378 39.9875C48.3078 39.8161 48.2337 39.6554 48.1226 39.5214L47.3527 40.1595ZM47.6431 40.8136L48.6012 41.1002C48.6457 40.9515 48.6549 40.7944 48.6282 40.6415L47.6431 40.8136ZM47.4057 41.4717L48.2781 41.9605C48.2937 41.9327 48.3079 41.9041 48.3208 41.8749L47.4057 41.4717ZM43.0197 48.6067L43.885 49.1079C43.8874 49.1038 43.8897 49.0997 43.892 49.0955L43.0197 48.6067ZM37.7703 57.8924L37.3671 58.8075C37.8391 59.0155 38.3918 58.8304 38.6434 58.3801L37.7703 57.8924ZM37.5596 57.8032L37.9417 56.8791L37.9417 56.8791L37.5596 57.8032ZM37.0973 57.5695L37.6721 56.7513C37.6458 56.7328 37.6186 56.7156 37.5907 56.6997L37.0973 57.5695ZM32.1104 54.7407L31.5912 55.5953C31.5997 55.6005 31.6083 55.6055 31.617 55.6105L32.1104 54.7407ZM30.3451 55.2252L29.4904 54.706C29.4847 54.7154 29.4791 54.7249 29.4737 54.7346L30.3451 55.2252ZM29.3465 57.0734L30.1971 57.5992C30.2042 57.5876 30.2112 57.5759 30.2179 57.564L29.3465 57.0734ZM29.846 58.9242L29.3201 59.7748C29.3437 59.7893 29.3679 59.8029 29.3926 59.8155L29.846 58.9242ZM32.2817 60.2606L31.7625 61.1153C31.7751 61.1229 31.7878 61.1302 31.8007 61.1373L32.2817 60.2606ZM33.786 61.055L33.3258 61.9429L33.3258 61.9429L33.786 61.055ZM35.2901 61.8494L36.1917 62.2819C36.4215 61.8031 36.2368 61.2281 35.7711 60.9727L35.2901 61.8494ZM34.551 63.2767L35.4353 63.7436H35.4353L34.551 63.2767ZM33.6457 65.0437L33.1473 65.9106C33.3933 66.052 33.6878 66.0823 33.9574 65.9939C34.227 65.9054 34.4464 65.7066 34.5608 65.4469L33.6457 65.0437ZM30.3211 63.1577L30.8118 62.2864C30.7927 62.2757 30.7734 62.2656 30.7537 62.2561L30.3211 63.1577ZM28.7119 63.5269L29.5752 64.0316L29.5788 64.0254L28.7119 63.5269ZM28.7114 63.5277L29.5746 64.0327L29.5747 64.0324L28.7114 63.5277ZM26.5587 67.3387L25.6729 66.8744C25.6625 66.8944 25.6527 66.9148 25.6436 66.9354L26.5587 67.3387ZM26.9835 68.7621L26.4086 69.5803C26.4625 69.6181 26.5199 69.6506 26.5802 69.6771L26.9835 68.7621ZM27.4204 68.994L26.922 69.861L27.4204 68.994ZM27.8574 69.2261L28.3263 68.3428C28.3048 68.3314 28.2829 68.3208 28.2606 68.311L27.8574 69.2261ZM30.2931 70.5625L31.1844 71.0159C31.4234 70.5461 31.2567 69.9716 30.8036 69.7026L30.2931 70.5625ZM29.5545 71.9772L30.4396 72.4426H30.4396L29.5545 71.9772ZM28.3814 74.2439L27.9004 75.1206C28.1412 75.2528 28.4258 75.28 28.6873 75.196C28.9488 75.112 29.1642 74.9241 29.283 74.6765L28.3814 74.2439ZM24.7203 72.1966L25.2119 71.3257L25.2119 71.3257L24.7203 72.1966ZM21.0592 70.1492L20.5686 71.0206L20.5782 71.0259L21.0592 70.1492ZM18.952 70.6935L18.0805 70.2028L18.0753 70.2124L18.952 70.6935ZM18.5788 71.3312L17.7606 70.7563L17.7606 70.7563L18.5788 71.3312ZM18.2057 71.969L19.0689 72.474C19.0735 72.4661 19.078 72.4581 19.0824 72.45L18.2057 71.969ZM18.8803 74.3178L18.3753 75.181L18.3818 75.1847L18.8803 74.3178ZM57.1477 22.7229L56.9033 21.7532C56.8901 21.7565 56.8769 21.7601 56.8638 21.764L57.1477 22.7229ZM52.267 31.2865L51.298 31.5337C51.3011 31.546 51.3045 31.5582 51.3081 31.5704L52.267 31.2865ZM60.8306 36.1673L61.0777 37.1363C61.09 37.1331 61.1023 37.1297 61.1144 37.1261L60.8306 36.1673ZM26.5909 77.4696C25.5414 76.8815 24.5557 76.3381 23.6042 75.8136L22.6387 77.5651C23.5909 78.09 24.5707 78.6301 25.6132 79.2143L26.5909 77.4696ZM26.6864 79.4156C26.7858 79.1634 26.8467 79.0216 26.9203 78.9169L25.2838 77.7671C25.0504 78.0992 24.91 78.4684 24.8257 78.6825L26.6864 79.4156ZM26.5681 79.7046C26.6122 79.6043 26.6532 79.4999 26.6864 79.4156L24.8257 78.6825C24.7892 78.775 24.7631 78.8409 24.7379 78.8981L26.5681 79.7046ZM26.6484 80.3609C26.44 80.2466 26.3389 80.1691 26.294 80.1258C26.2593 80.0925 26.2956 80.1162 26.3147 80.1926C26.3323 80.2633 26.3116 80.287 26.3324 80.2143C26.3555 80.1334 26.4107 79.9992 26.5297 79.7824L24.7763 78.8203C24.51 79.3056 24.1979 79.9694 24.374 80.6762C24.5583 81.4155 25.1752 81.8339 25.6864 82.1144L26.6484 80.3609ZM31.6476 83.1967L26.6608 80.3679L25.674 82.1074L30.6608 84.9363L31.6476 83.1967ZM32.2897 82.9611C32.1556 83.1993 32.0611 83.3269 31.9996 83.3925C31.9455 83.4503 31.9542 83.4201 32.0236 83.4004C32.094 83.3805 32.1233 83.4006 32.0593 83.383C31.9833 83.3621 31.8532 83.3094 31.6353 83.1898L30.6732 84.9432C31.1571 85.2087 31.8375 85.5318 32.5686 85.3247C33.2972 85.1184 33.7261 84.4865 34.0325 83.9423L32.2897 82.9611ZM43.2093 63.9822C39.9379 69.582 36.6633 75.1872 32.2896 82.9614L34.0326 83.942C38.3978 76.183 41.6654 70.5898 44.9362 64.9911L43.2093 63.9822ZM54.1128 45.0313C49.7476 52.7903 46.48 58.3836 43.2093 63.9822L44.9362 64.9911C48.2076 59.3913 51.4821 53.7862 55.8559 46.0119L54.1128 45.0313ZM54.7576 44.3009C54.6595 44.3734 54.1938 44.6754 54.0263 45.235L55.9424 45.8083C55.9271 45.8595 55.9056 45.9022 55.8848 45.9347C55.8648 45.9657 55.8479 45.9836 55.8431 45.9885C55.839 45.9927 55.8424 45.9886 55.8611 45.9736C55.8812 45.9576 55.9048 45.94 55.9465 45.9092L54.7576 44.3009ZM55.8471 44.0048C55.7387 44.0057 55.3033 43.9951 54.8773 44.2249L55.8268 45.9851C55.806 45.9964 55.7891 46.0024 55.7791 46.0055C55.7694 46.0084 55.7652 46.0088 55.7687 46.0083C55.7722 46.0078 55.7805 46.0068 55.7961 46.0061C55.813 46.0053 55.8304 46.005 55.8626 46.0048L55.8471 44.0048ZM55.7784 44.0154C55.812 44.0096 55.8378 44.0071 55.8504 44.0061C55.8639 44.005 55.8729 44.0046 55.8746 44.0046C55.8766 44.0045 55.8759 44.0046 55.8704 44.0046C55.8647 44.0047 55.8581 44.0048 55.8471 44.0048L55.8626 46.0048C55.8791 46.0047 55.9128 46.0045 55.9456 46.0033C55.973 46.0023 56.0422 45.9996 56.1225 45.9856L55.7784 44.0154ZM68.2873 40.5251C66.1576 42.0772 63.2316 42.9792 60.6956 43.4761C59.4408 43.722 58.3094 43.8634 57.4627 43.9382C57.0394 43.9756 56.6913 43.996 56.4382 44.0047C56.1447 44.0148 56.0592 44.0056 56.0987 44.0116L55.8022 45.9895C55.9774 46.0157 56.2535 46.0122 56.5069 46.0035C56.8008 45.9934 57.1851 45.9705 57.6387 45.9305C58.5461 45.8503 59.7478 45.6998 61.0802 45.4388C63.7188 44.9217 66.9844 43.9494 69.4652 42.1415L68.2873 40.5251ZM73.6779 29.677C73.7537 34.3239 71.2603 38.3722 68.2897 40.5234L69.4628 42.1432C72.9048 39.6506 75.7652 35.0116 75.6776 29.6444L73.6779 29.677ZM68.3515 19.2385C69.0569 19.7341 73.5767 23.4788 73.6779 29.677L75.6776 29.6444C75.5608 22.4905 70.4026 18.2353 69.5013 17.6021L68.3515 19.2385ZM54.4325 17.1053C59.0868 15.3839 64.4012 16.1117 68.3055 19.2042L69.5473 17.6364C65.0681 14.0886 59.0141 13.2784 53.7387 15.2295L54.4325 17.1053ZM45.3513 27.6766C45.8757 23.3377 49.5194 18.961 54.4389 17.1029L53.7323 15.2319C48.239 17.3067 43.9942 22.2363 43.3658 27.4367L45.3513 27.6766ZM48.1226 39.5214C48.1411 39.5437 48.0845 39.4677 47.9478 39.2113C47.8281 38.987 47.6751 38.6781 47.5022 38.2981C47.1566 37.5384 46.7406 36.5144 46.3605 35.3448C45.5915 32.9784 45.0085 30.1348 45.3489 27.6948L43.3681 27.4185C42.9653 30.3058 43.6562 33.4943 44.4584 35.9629C44.8639 37.2107 45.308 38.3049 45.6818 39.1264C45.8686 39.537 46.0401 39.8844 46.183 40.1524C46.3088 40.3883 46.4527 40.6407 46.5828 40.7977L48.1226 39.5214ZM48.2721 39.7655C48.2623 39.7496 48.2568 39.7408 48.2525 39.7337C48.2482 39.7265 48.2493 39.7281 48.2529 39.7347C48.256 39.7402 48.2679 39.7622 48.2817 39.795C48.294 39.8242 48.3212 39.8928 48.3378 39.9875L46.3676 40.3316C46.4007 40.5212 46.4818 40.6643 46.4975 40.6931C46.5252 40.7438 46.5572 40.795 46.5706 40.8167L48.2721 39.7655ZM48.6282 40.6415C48.5519 40.2044 48.3439 39.8818 48.2721 39.7655L46.5706 40.8167C46.6079 40.8771 46.626 40.9077 46.6407 40.9389C46.654 40.9669 46.6573 40.9812 46.658 40.9856L48.6282 40.6415ZM48.3208 41.8749C48.4722 41.5312 48.5419 41.2983 48.6012 41.1002L46.6851 40.5269C46.6331 40.7006 46.5915 40.8395 46.4906 41.0684L48.3208 41.8749ZM46.0056 45.6486C46.4062 45.1273 46.7911 44.614 48.2781 41.9605L46.5333 40.9828C45.0653 43.6025 44.7347 44.0201 44.4198 44.4298L46.0056 45.6486ZM43.892 49.0955C45.3601 46.4758 45.6907 46.0583 46.0056 45.6486L44.4198 44.4298C44.0192 44.951 43.6343 45.4644 42.1473 48.1178L43.892 49.0955ZM38.6434 58.3801C40.3889 55.2551 42.1298 52.1382 43.885 49.1079L42.1543 48.1055C40.39 51.1516 38.6414 54.2823 36.8973 57.4048L38.6434 58.3801ZM37.1774 58.7273C37.2427 58.7543 37.3022 58.7789 37.3671 58.8075L38.1736 56.9773C38.085 56.9383 38.0055 56.9055 37.9417 56.8791L37.1774 58.7273ZM36.5224 58.3878C36.7728 58.5637 37.0116 58.6587 37.1774 58.7273L37.9417 56.8791C37.755 56.8019 37.7157 56.7819 37.6721 56.7513L36.5224 58.3878ZM31.617 55.6105L36.6039 58.4393L37.5907 56.6997L32.6038 53.8709L31.617 55.6105ZM31.1997 55.7444C31.2911 55.594 31.359 55.5141 31.4001 55.4752C31.4367 55.4405 31.4335 55.4555 31.3915 55.4677C31.3456 55.4811 31.3201 55.4721 31.3414 55.4771C31.3726 55.4844 31.4522 55.5109 31.5912 55.5953L32.6296 53.886C32.1321 53.5838 31.5065 53.351 30.8319 53.5476C30.185 53.7361 29.7718 54.2429 29.4904 54.706L31.1997 55.7444ZM30.7371 56.6027C30.8294 56.4212 30.9212 56.2402 31.2165 55.7158L29.4737 54.7346C29.1639 55.2848 29.0589 55.4906 28.9545 55.6959L30.7371 56.6027ZM30.2179 57.564C30.5277 57.0137 30.6327 56.8079 30.7371 56.6027L28.9545 55.6959C28.8622 55.8774 28.7704 56.0583 28.4751 56.5827L30.2179 57.564ZM30.3718 58.0736C30.1779 57.9537 30.073 57.8706 30.0185 57.8168C29.9694 57.7683 29.9973 57.7789 30.0169 57.8462C30.0385 57.9204 30.0214 57.9628 30.0305 57.9306C30.0434 57.8845 30.0842 57.7819 30.1971 57.5992L28.4959 56.5475C28.1949 57.0344 27.8875 57.6875 28.0968 58.4058C28.2943 59.0835 28.8677 59.4951 29.3201 59.7748L30.3718 58.0736ZM32.8009 59.4059C31.9811 58.9079 31.0817 58.4309 30.2994 58.0329L29.3926 59.8155C30.1571 60.2044 31.0055 60.6554 31.7625 61.1153L32.8009 59.4059ZM34.2461 60.1672C33.7356 59.9026 33.2377 59.6445 32.7627 59.3839L31.8007 61.1373C32.3 61.4113 32.8193 61.6803 33.3258 61.9429L34.2461 60.1672ZM35.7711 60.9727C35.2718 60.6987 34.7526 60.4297 34.2461 60.1672L33.3258 61.9429C33.8363 62.2074 34.3341 62.4655 34.8091 62.7261L35.7711 60.9727ZM35.4353 63.7436C35.7323 63.1811 36.037 62.6043 36.1917 62.2819L34.3885 61.4168C34.255 61.695 33.9744 62.2269 33.6667 62.8098L35.4353 63.7436ZM34.5608 65.4469C34.6821 65.1717 35.0481 64.4768 35.4353 63.7436L33.6667 62.8098C33.3033 63.4981 32.8888 64.2814 32.7306 64.6404L34.5608 65.4469ZM29.8305 64.0291C30.9056 64.6344 31.9766 65.2375 33.1473 65.9106L34.1442 64.1768C32.9646 63.4985 31.8861 62.8913 30.8118 62.2864L29.8305 64.0291ZM29.5788 64.0254C29.6056 63.9787 29.6225 63.9673 29.6191 63.97C29.6141 63.9738 29.6052 63.9777 29.6006 63.9787C29.5963 63.9796 29.684 63.9612 29.8886 64.0594L30.7537 62.2561C30.2853 62.0314 29.7372 61.9038 29.181 62.0232C28.5956 62.1488 28.1377 62.5193 27.8449 63.0285L29.5788 64.0254ZM29.5747 64.0324L29.5752 64.0316L27.8485 63.0223L27.8481 63.0231L29.5747 64.0324ZM27.4444 67.8029C28.0923 66.5668 28.8262 65.3119 29.5746 64.0327L27.8483 63.0228C27.1045 64.2941 26.3463 65.5898 25.6729 66.8744L27.4444 67.8029ZM27.5584 67.9438C27.4419 67.862 27.437 67.8165 27.4427 67.8348C27.4449 67.8418 27.4438 67.8449 27.4444 67.8373C27.4452 67.8281 27.4494 67.797 27.4737 67.7419L25.6436 66.9354C25.4366 67.4049 25.375 67.923 25.5336 68.4309C25.6893 68.9295 26.023 69.3094 26.4086 69.5803L27.5584 67.9438ZM27.9188 68.1271C27.7825 68.0487 27.5878 67.9356 27.3867 67.847L26.5802 69.6771C26.6654 69.7147 26.7646 69.7705 26.922 69.861L27.9188 68.1271ZM28.2606 68.311C28.1754 68.2734 28.0763 68.2176 27.9188 68.1271L26.922 69.861C27.0583 69.9394 27.253 70.0525 27.4541 70.1411L28.2606 68.311ZM30.8036 69.7026C30.0907 69.2794 29.1934 68.8033 28.3263 68.3428L27.3884 70.1093C28.269 70.5769 29.1195 71.0287 29.7827 71.4224L30.8036 69.7026ZM30.4396 72.4426C30.7404 71.8706 31.0251 71.3291 31.1844 71.0159L29.4018 70.1091C29.2502 70.4071 28.9737 70.9331 28.6694 71.5119L30.4396 72.4426ZM29.283 74.6765C29.4681 74.2908 29.9703 73.3352 30.4396 72.4426L28.6694 71.5119C28.2123 72.3812 27.6854 73.3828 27.4798 73.8114L29.283 74.6765ZM24.2288 73.0674C25.4495 73.7565 26.6763 74.449 27.9004 75.1206L28.8625 73.3672C27.6508 72.7024 26.4344 72.0158 25.2119 71.3257L24.2288 73.0674ZM20.5782 71.0259C21.7899 71.6907 23.0062 72.3773 24.2288 73.0674L25.2119 71.3257C23.9912 70.6367 22.7643 69.9441 21.5403 69.2725L20.5782 71.0259ZM19.8233 71.1841C19.9581 70.9447 20.0506 70.8213 20.1086 70.7605C20.1569 70.71 20.1411 70.7447 20.0667 70.7628C19.9977 70.7797 19.98 70.7569 20.0695 70.7842C20.1677 70.8142 20.3224 70.882 20.5686 71.0206L21.5499 69.2778C21.0305 68.9854 20.3324 68.6392 19.5923 68.8199C18.8235 69.0077 18.3845 69.663 18.0806 70.2028L19.8233 71.1841ZM19.3971 71.9062C19.4831 71.7837 19.5576 71.6685 19.8287 71.1745L18.0753 70.2124C17.8118 70.6927 17.7805 70.7281 17.7606 70.7563L19.3971 71.9062ZM19.0824 72.45C19.3459 71.9698 19.3773 71.9343 19.3971 71.9061L17.7606 70.7563C17.6746 70.8787 17.6001 70.9939 17.329 71.488L19.0824 72.45ZM19.3852 73.4546C19.074 73.2726 18.8918 73.1497 18.7828 73.0563C18.6794 72.9676 18.7158 72.9669 18.741 73.049C18.7688 73.1399 18.7365 73.1761 18.7688 73.0757C18.8057 72.9611 18.8911 72.7778 19.0689 72.474L17.3426 71.4641C17.1472 71.798 16.971 72.1339 16.8651 72.4627C16.7546 72.8057 16.6984 73.2094 16.8287 73.6348C16.9563 74.0514 17.2216 74.3521 17.4808 74.5744C17.7345 74.792 18.0487 74.9899 18.3753 75.1809L19.3852 73.4546ZM23.6042 75.8136C22.1556 75.0151 20.7875 74.2609 19.3787 73.4509L18.3818 75.1847C19.8088 76.0052 21.1925 76.7679 22.6387 77.5651L23.6042 75.8136ZM57.392 23.6926C60.7447 22.8477 63.9232 24.6001 64.7417 27.848L66.681 27.3592C65.5666 22.937 61.2208 20.6652 56.9033 21.7532L57.392 23.6926ZM53.2359 31.0394C52.428 27.8713 54.2787 24.615 57.4315 23.6818L56.8638 21.764C52.6846 23.0011 50.2233 27.3195 51.298 31.5337L53.2359 31.0394ZM60.5835 35.1983C57.4153 36.0062 54.1591 34.1555 53.2258 31.0027L51.3081 31.5704C52.5452 35.7496 56.8636 38.2109 61.0777 37.1363L60.5835 35.1983ZM64.7417 27.848C65.5742 31.1515 63.7099 34.2721 60.5468 35.2084L61.1144 37.1261C65.2834 35.8921 67.7814 31.7258 66.681 27.3592L64.7417 27.848Z" fill="black"/>
<path d="M65.4063 26.4944C63.834 26.4944 63.7726 26.7005 62.1442 25.5302C59.525 22.3696 68.133 15.6875 80.7887 15.6875C96.1743 15.6875 90.9498 23.8054 79.4476 25.5302L74.669 26.7005" stroke="black" stroke-width="3"/>
</svg>
