<svg width="100" height="100" viewBox="0 0 100 100" fill="none" xmlns="http://www.w3.org/2000/svg">
<path d="M88.6021 52.5145C87.9915 52.6163 84.4456 52.048 82.749 51.7511L84.212 49.0791L88.6021 50.1605L91.7826 49.0791C91.5281 49.9698 89.3652 52.3872 88.6021 52.5145Z" fill="black"/>
<path fill-rule="evenodd" clip-rule="evenodd" d="M10.2063 48.8964C9.6571 49.1463 9.40811 49.417 9.5124 49.7105C13.9868 50.5523 18.7369 51.4491 23.5045 52.3491C39.5398 55.3761 55.7732 58.4406 62.3792 59.5824C71.5735 61.1715 73.5942 61.6848 74.7952 60.9166C75.4715 60.484 75.8878 59.6451 77.1786 58.3631C78.3495 57.2004 79.5143 56.0811 80.6268 55.0122C84.9545 50.854 88.4899 47.457 88.5014 45.2211C88.4325 45.2983 88.3627 45.3804 88.2921 45.4676C86.5751 47.5886 73.3407 59.4043 73.3407 59.4043L10.2063 48.8964Z" fill="black"/>
<path d="M9.39366 48.7612C9.39366 48.7612 8.95679 47.6819 9.73313 47.0916C10.5095 46.5013 25.9307 35.1251 26.0533 35.0342C26.176 34.9432 26.9603 33.6746 29.7885 34.2086C32.6569 34.6982 90.4747 43.323 90.4747 43.323C90.4747 43.323 91.1183 43.4597 91.2438 44.2583C91.2438 44.2583 90.0091 43.3467 88.2921 45.4677C86.5751 47.5886 73.3407 59.4043 73.3407 59.4043L9.39366 48.7612Z" stroke="black" stroke-width="2"/>
<path d="M90.3863 44.0901C90.3863 44.0901 88.5517 44.7342 88.8034 47.1787C89.0422 49.3696 89.5185 49.5572 90.1492 49.4404C90.8645 49.3193 91.6028 48.8157 91.6266 46.7809C91.6648 44.1945 91.2394 44.1738 90.3863 44.0901Z" stroke="black" stroke-width="2"/>
<path d="M89.5102 49.3886L85.0225 48.7695" stroke="black" stroke-width="2"/>
<path d="M30.4883 47.9111L35.0175 48.5985L53.1817 51.7381" stroke="black" stroke-width="2" stroke-linecap="round"/>
<path d="M54.6191 42.1858L57.4038 42.6047" stroke="black" stroke-width="2" stroke-linecap="round"/>
<path d="M44.3301 40.5342L48.8614 41.2623" stroke="black" stroke-width="2" stroke-linecap="round"/>
<path d="M29.7578 38.166L34.2891 38.8941L38.8204 39.6222" stroke="black" stroke-width="2" stroke-linecap="round"/>
</svg>
