<svg width="100" height="100" viewBox="0 0 100 100" fill="none" xmlns="http://www.w3.org/2000/svg">
<path d="M40.7802 29.5189C34.4201 29.6906 21.9022 34.9809 20.7387 46.4746C19.3184 60.5052 14.7511 64.1413 19.0568 67.9735C23.5344 71.9586 28.6711 64.4712 36.0357 61.4888C43.4004 58.5063 48.8444 59.6423 52.0387 56.7198C55.2331 53.7972 54.2746 34.4736 52.928 32.3227C51.5815 30.1718 47.1404 29.3472 40.7802 29.5189Z" stroke="black" stroke-width="2"/>
<path d="M19.3306 68.2009C24.2345 72.8088 29.8147 65.6553 37.1794 62.6728C44.544 59.6904 48.893 60.8246 52.0873 57.9021C56.4723 60.4728 69.9864 56.302 71.0671 52.0041C72.5649 46.0481 73.1562 42.7286 80.4767 39.6577" stroke="black" stroke-width="2" stroke-linecap="round"/>
<path d="M25.3074 47.9857C26.7038 36.5181 36.2193 33.853 42.5795 33.6814" stroke="black" stroke-width="2" stroke-linecap="round"/>
<path d="M52.3357 31.5716C55.9856 29.0057 83.9237 27.1969 82.7838 36.558C82.4967 40.4536 78.8569 38.9947 73.841 43.9526C69.431 48.3116 72.3929 51.3139 67.5089 54.7524C63.3433 57.685 54.2835 59.2641 51.8523 56.6973" stroke="black" stroke-width="2"/>
<path d="M52.257 75.2385C51.3312 72.3571 47.5513 62.2677 46.1351 60.2476M56.4607 73.8677C55.6495 70.5553 52.2579 61.4139 50.696 59.0605" stroke="black" stroke-width="2" stroke-linecap="round"/>
<path d="M26.8788 67.5257C29.6983 72.0439 41.2223 71.0776 46.8175 59.8438" stroke="black" stroke-width="2" stroke-linecap="round"/>
<path d="M26.8788 67.5257C29.6415 74.3585 41.104 73.7034 46.8175 59.8438" stroke="black" stroke-width="2" stroke-linecap="round"/>
<path d="M48.678 30.0947C48.9616 27.448 45.8361 20.8124 44.1121 17.6947M55.9488 30.0947C56.1259 26.6113 52.3329 19.1818 50.0601 15.4155" stroke="black" stroke-width="2" stroke-linecap="round"/>
</svg>
