<svg width="100" height="100" viewBox="0 0 100 100" fill="none" xmlns="http://www.w3.org/2000/svg">
<path d="M36.8395 44.0404C38.3615 37.4848 37.2898 40.4207 38.3878 32.3682C38.7923 29.4015 41.2668 29.6646 42.1301 26.2998C42.5396 24.7034 42.706 20.0452 44.0541 18.0064C48.2441 11.6703 55.1495 16.7963 57.4348 19.6778C59.7201 22.5593 59.2324 25.8519 59.8618 28.5246C60.4932 31.2059 63.1223 33.3237 63.3613 38.0433C64.2899 56.3839 69.2763 60.8886 65.6968 82.3652C65.0967 85.9659 41.1177 85.2288 35.3025 83.0811C32.2074 81.938 33.6519 76.6276 35.3025 65.8998C36.0184 61.2474 34.6166 53.6145 36.8395 44.0404Z" stroke="black" stroke-width="2"/>
<path d="M33.5646 80.4489C33.5074 80.6586 34.2166 81.3067 37.5107 82.2217C41.6284 83.3655 55.1823 83.0223 58.8996 82.7936C61.8735 82.6106 64.8664 81.6117 65.9911 81.1351" stroke="black" stroke-width="2"/>
<path d="M37.6576 82.3173L33.9033 80.9492L34.4123 82.9219L36.4168 83.6219L47.8709 85.0218H55.9206L64.3203 83.6219L65.7202 82.6674L65.5612 81.331C63.2915 81.8613 58.7141 82.9219 58.5614 82.9219H51.4662H44.0847L37.6576 82.3173Z" fill="black"/>
<path d="M43.2823 64.1765C41.8849 63.0411 42.7001 55.9161 43.2823 52.4955C43.3486 52.0821 47.254 53.3187 51.4055 53.3752C55.1468 53.4261 59.1717 52.2652 59.3032 52.4954C59.5805 52.981 59.6534 62.6045 58.6927 64.1765C57.4919 66.1415 45.0291 65.5957 43.2823 64.1765Z" stroke="black" stroke-width="2"/>
<path d="M44.5013 52.5324C43.7738 52.5325 43.3252 53.1518 43.2977 53.6733C43.2634 54.3253 42.4531 62.7695 43.7569 63.9018C45.0608 65.0341 47.4283 65.1369 48.5618 65.3061" stroke="black" stroke-width="2"/>
<path d="M35.9247 47.8108C34.902 47.5489 32.9692 46.6305 31.0479 48.4832C28.6462 50.7991 31.5092 55.5206 26.7059 53.8052C22.8632 52.4328 22.4947 51.3188 22.0981 51.3188C21.7016 51.3188 20.4954 53.3248 20.8385 53.8052C21.2674 54.4056 26.314 56.9849 28.2868 56.9849C30.2596 56.9849 32.4213 56.9481 32.2497 53.3456C32.0782 49.7431 33.6442 49.7637 33.6442 49.7637C33.6442 49.7637 35.4012 50.1614 35.9247 50.3884" stroke="black" stroke-width="2"/>
<path d="M64.1993 45.0274C65.8541 44.708 69.7894 44.5889 70.3468 46.8883C71.0436 49.7626 70.0513 51.7297 73.4482 52.4264C76.1656 52.9839 78.3434 52.8175 78.7446 53.0024C79.1458 53.1873 79.5808 55.3258 78.7446 55.5348C77.6994 55.7961 71.321 55.0062 69.579 53.3514C67.837 51.6965 69.2353 48.2997 67.5804 47.5158C66.2565 46.8886 64.7508 47.2545 64.1992 47.5158" stroke="black" stroke-width="2"/>
<path d="M49.5516 37.5137C55.1394 38.1124 58.9259 37.4798 59.4173 34.8589C59.8314 32.6506 57.7818 31.1183 57.4352 28.7594C57.0491 26.1322 58.2328 22.6648 55.9936 19.9464C51.8777 14.9497 42.7276 14.0918 44.0545 24.3094C44.3863 30.4796 40.9565 28.7401 40.9565 34.0133C40.9565 37.1267 44.0221 36.9213 49.5516 37.5137Z" stroke="black" stroke-width="2"/>
</svg>
