<svg width="100" height="100" viewBox="0 0 100 100" fill="none" xmlns="http://www.w3.org/2000/svg">
<path d="M40.5078 52.1069C35.643 56.9944 25.477 67.1786 23.7312 68.8153C21.549 70.8612 17.7981 74.612 17.6617 76.7262C17.5254 78.8403 20.867 83.4095 25.2316 83.1367C29.5963 82.8639 28.2322 79.1813 28.9142 77.2717C29.5962 75.3622 35.3247 71.2022 40.0304 65.951C44.736 60.6998 45.3497 59.5405 46.3727 57.9037" stroke="black" stroke-width="2"/>
<path d="M67.9695 26.1676C61.1001 32.849 48.0293 45.0439 40.3062 52.2923C39.7432 52.8208 40.3062 52.9378 46.0905 58.1304C48.4345 59.9277 51.301 62.8132 51.7324 62.1948C52.1638 61.5763 59.9835 53.2024 69.2247 41.7866C81.3793 26.7721 81.2678 17.4868 81.0779 16.917C80.888 16.3473 74.8389 19.4862 67.9695 26.1676Z" stroke="black" stroke-width="2"/>
<path fill-rule="evenodd" clip-rule="evenodd" d="M40.0307 52.8773C35.3797 57.6181 25.7273 67.4368 24.3252 68.7849C22.5727 70.4701 19.5394 73.5034 18.6632 74.447C17.7869 75.3907 17.315 77.4129 18.6632 79.098C19.7417 80.4461 21.1797 81.592 21.7639 81.9965C22.2806 82.356 23.7186 83.0345 25.3364 82.8727C27.3585 82.6705 28.1674 82.5357 28.3022 81.9965C28.4101 81.5651 28.7066 78.6262 28.8415 77.2107L31.4029 74.447L40.0307 66.4932L46.0299 58.4045L40.0307 52.8773ZM22.6041 76.6462C22.109 75.7238 23.0004 73.4866 24.5862 74.0633C26.5685 74.784 25.3671 76.9464 24.5862 77.1867C23.8054 77.4269 23.0992 77.5686 22.6041 76.6462ZM32.4437 66.0232C30.8579 65.4466 29.9664 67.6837 30.4615 68.6062C30.9567 69.5286 31.6628 69.3869 32.4437 69.1466C33.2246 68.9064 34.4259 66.744 32.4437 66.0232ZM37.9145 61.2014C37.4194 60.279 38.3108 58.0418 39.8967 58.6184C41.8789 59.3392 40.6775 61.5016 39.8967 61.7418C39.1158 61.9821 38.4096 62.1238 37.9145 61.2014Z" fill="black"/>
<path d="M46.3257 59.3875C47.9367 60.8051 51.2876 63.6145 51.8031 63.5115C52.4474 63.3826 64.5618 50.1728 68.557 44.6955C72.5522 39.2182 77.0646 32.9762 79.3805 28.5242C82.2454 23.0169 82.5538 20.4378 82.2476 20.6779C81.9634 20.9009 81.1652 21.0211 80.8365 21.1372" stroke="black" stroke-width="2"/>
</svg>
