<svg width="100" height="100" viewBox="0 0 100 100" fill="none" xmlns="http://www.w3.org/2000/svg">
<path d="M58.9629 24.4072C58.9629 24.4072 51.7349 41.6752 50.2409 43.9132C48.2369 46.9162 27.3739 59.1702 25.0719 64.2282C23.8059 67.0092 39.6219 75.4462 44.1489 77.3102C48.6759 79.1732 61.0429 83.4312 63.8219 81.4722C66.6009 79.5142 61.3709 50.9442 61.7339 48.4042C62.0309 46.3282 69.9519 29.1102 69.9519 29.1102" stroke="black" stroke-width="2" stroke-miterlimit="10" stroke-linecap="round" stroke-linejoin="round"/>
<path d="M30.303 58.9668L35.433 62.0238" stroke="black" stroke-width="2" stroke-miterlimit="10" stroke-linecap="round" stroke-linejoin="round"/>
<path d="M35.699 55.585L40.0309 58.104" stroke="black" stroke-width="2" stroke-miterlimit="10" stroke-linecap="round" stroke-linejoin="round"/>
<path d="M41.1528 51.4473L45.1639 53.7243" stroke="black" stroke-width="2" stroke-miterlimit="10" stroke-linecap="round" stroke-linejoin="round"/>
<path d="M60.6549 25.0253C60.6549 25.0253 54.6529 20.5973 61.0929 21.9193C69.7219 23.6913 77.4589 30.9633 68.1079 28.1573" stroke="black" stroke-width="2" stroke-miterlimit="10" stroke-linecap="round" stroke-linejoin="round"/>
<path d="M31.5 58.501C31.5 58.501 33 59.6252 36 61.501C39.824 63.892 44.9199 59.2126 48.6429 60.1436C52.3649 61.0736 54.9179 61.6186 56.9559 61.1956C59.8999 60.5846 62.9399 60.1596 62.9399 60.1596C62.9399 60.1596 65.8379 80.3416 63.8839 81.4626C61.9299 82.5836 53.4099 81.4726 44.6299 77.4856C37.8999 74.4296 23.7389 66.9076 25.3899 64.3626C27.0409 61.8186 31.5 58.501 31.5 58.501Z" fill="black" stroke="black" stroke-width="2" stroke-miterlimit="10" stroke-linecap="round" stroke-linejoin="round"/>
<path d="M36.15 36.8253C35.869 36.9653 35.954 36.9653 36.15 36.5723" stroke="black" stroke-width="2" stroke-miterlimit="10" stroke-linecap="round" stroke-linejoin="round"/>
<path d="M45.9018 31.2188C43.4798 32.4518 48.3658 32.4018 47.2518 30.5438C46.7068 29.6348 44.9068 30.4428 45.8268 31.5928C46.9898 33.0468 47.0128 28.8328 45.3778 30.4688C44.2698 31.5758 46.6609 33.3658 47.1769 31.8178C47.5189 30.7918 46.3958 30.9678 45.9018 31.2188Z" stroke="black" stroke-width="2" stroke-miterlimit="10" stroke-linecap="round" stroke-linejoin="round"/>
<path d="M73.2629 20.761C73.0169 20.679 71.6369 22.004 72.8139 22.298C73.4709 22.463 74.6469 21.934 74.3129 21.099C73.8799 20.017 72.1619 21.272 73.1129 22.223C73.3219 22.432 74.7629 21.262 73.2629 20.761Z" stroke="black" stroke-width="2" stroke-miterlimit="10" stroke-linecap="round" stroke-linejoin="round"/>
<path d="M61.7189 19C61.6689 19 61.6188 19 61.5688 19" stroke="black" stroke-width="2" stroke-miterlimit="10" stroke-linecap="round" stroke-linejoin="round"/>
<circle cx="50.1106" cy="23" r="1" fill="black"/>
</svg>
