<svg width="100" height="100" viewBox="0 0 100 100" fill="none" xmlns="http://www.w3.org/2000/svg">
<path d="M38.623 46.9363C38.623 42.7853 44.3327 35.0525 46.8504 32.5128C47.7552 31.6 47.7552 28.4453 47.7552 26.2868C47.7552 24.1283 47.3843 19.4015 47.7552 17.6527C48.0475 16.2745 55.8911 15.9922 55.8911 17.6528C55.8911 19.3133 55.8297 29.9199 56.3254 31.9404C56.6419 33.2305 62.9184 39.5328 63.6948 46.9363M63.6948 74.1765V77.8724C63.4007 83.4838 52.4043 83.9019 48.9175 83.9019C45.4307 83.9019 38.623 82.2389 38.623 77.8724V73.5603" stroke="black" stroke-width="2"/>
<path d="M48.0625 23.8467C50.2718 24.6229 54.7153 24.4033 56.0373 23.8467" stroke="black" stroke-width="2"/>
<path d="M41.2475 46.9774C31.0388 46.9774 25.2504 50.7025 23.6323 53.4766C23.6323 53.4766 22.671 80.1953 23.6323 80.1276C24.5936 80.06 34.4559 73.8825 41.2475 72.6376C48.8897 71.2368 54.8889 73.3801 61.4984 73.7473C71.5435 74.3053 75.0122 68.2905 75.6463 67.1565C76.2804 66.0224 76.2342 38.4717 75.7746 39.621C75.315 40.7703 73.9999 43.5222 69.5614 45.8524C64.0132 48.7652 54.0084 46.9774 41.2475 46.9774Z" stroke="black" stroke-width="2"/>
<path d="M75.5174 41.002C76.7921 37.7242 73.7659 36.2232 70.206 36.5518C66.6461 36.8803 66.1669 35.8187 66.3723 36.2067V46.547" stroke="black" stroke-width="2" stroke-linecap="round"/>
<path d="M39.6455 61.5838C39.6455 66.2658 37.5231 70.6397 34.3832 70.6397C31.2433 70.6397 28.9971 67.2568 28.9971 62.5749C28.9971 60.7997 29.4293 58.2953 30.0547 56.9336C31.079 54.7037 32.4337 53.6533 34.3832 53.6533C37.5231 53.6533 39.6455 56.9018 39.6455 61.5838Z" fill="black"/>
<path d="M65.361 55.6161C61.4475 56.6834 56.0836 55.1634 55.7458 56.2984C55.4079 57.4334 55.0105 64.0146 56.2551 64.2203C64.2393 65.5401 68.9049 63.315 68.9049 62.6216C68.9049 61.9282 69.2696 55.2233 68.9049 54.6271C68.5402 54.0309 66.8116 55.2205 65.361 55.6161Z" fill="black" stroke="black" stroke-width="2"/>
<path d="M42.4102 56.6494C45.3303 55.9084 48.8551 56.3882 50.1248 56.3882" stroke="black" stroke-width="2" stroke-linecap="round"/>
<path d="M42.4102 60.4804C45.3303 59.7393 46.4143 60.0933 47.6839 60.0933" stroke="black" stroke-width="2" stroke-linecap="round"/>
<path d="M51.121 18.7302C49.0094 18.73 48.2919 17.9315 48.4772 17.2215C48.6625 16.851 54.4754 16.272 55.2164 17.3834C55.9573 18.4947 53.7606 18.7303 51.121 18.7302Z" stroke="black" stroke-width="2" stroke-linecap="round"/>
<path d="M72.0139 36.4688H67.2427L66.5335 40.5308L65.5664 46.785L71.1758 44.9797L75.4957 40.5308V38.1452L72.0139 36.4688Z" fill="black"/>
</svg>
