<svg width="100" height="100" viewBox="0 0 100 100" fill="none" xmlns="http://www.w3.org/2000/svg">
<path d="M58.004 24.3569C60.0173 17.6815 64.3414 16.2188 66.6132 15.8802C68.8849 15.5415 73.5496 19.1255 73.1522 19.9202C72.7549 20.7149 69.546 20.2295 67.0296 23.4083C64.5131 26.5871 59.8582 44.2242 56.547 53.2307C53.2358 62.2372 55.355 64.2239 56.547 67.2703C57.7391 70.3166 53.3682 74.4225 43.1697 74.1576C32.9711 73.8927 22.5077 69.7868 28.7328 65.5484C34.9579 61.3101 45.4214 63.4292 47.9379 60.3829C50.4545 57.3366 55.4875 32.7011 58.004 24.3569Z" stroke="black" stroke-width="2"/>
<path d="M26.8703 67.8436C26.4587 72.684 28.5966 84.1891 41.8597 84.1421C58.4385 84.0834 56.2526 69.9739 56.7817 68.3865" stroke="black" stroke-width="2"/>
<path d="M38.8087 68.3059C33.3411 68.8527 29.8912 70.1065 30.3201 71.0926L36.8369 73.0219L47.0411 73.7508C49.2134 73.2935 53.6266 72.2588 53.901 71.7786C54.244 71.1783 51.1999 69.8922 48.9275 69.0347C46.6552 68.1772 43.9534 67.7914 38.8087 68.3059Z" fill="black" stroke="black" stroke-width="2"/>
<path d="M73.1665 19.876C73.058 20.3411 72.5291 21.4174 72.1941 21.6035C71.7755 21.8361 68.4292 22.488 66.4758 25.6042C64.913 28.0971 60.4963 41.6045 58.1748 48.5073" stroke="black" stroke-width="2"/>
</svg>
