<svg width="100" height="100" viewBox="0 0 100 100" fill="none" xmlns="http://www.w3.org/2000/svg">
<path d="M45.7415 45.3223L36.573 76.8843M35.1416 81.8117L36.573 76.8843M36.573 76.8843C38.0412 76.5188 41.3923 74.3907 43.0515 68.8018C44.7107 63.2129 47.7817 51.9187 49.1098 46.9702" stroke="black" stroke-width="2" stroke-linecap="round"/>
<path d="M54.9255 45.3223L64.094 76.8843M65.5254 81.8117L64.094 76.8843M64.094 76.8843C62.6258 76.5188 59.2747 74.3907 57.6155 68.8018C55.9563 63.2129 52.8853 51.9187 51.5572 46.9702" stroke="black" stroke-width="2" stroke-linecap="round"/>
<path d="M48.6065 34.9281C42.4757 35.9222 43.0489 46.0435 48.6065 46.7381C54.164 47.4327 55.0899 45.1174 56.2477 43.6122C57.4056 42.107 57.1739 33.5388 48.6065 34.9281Z" stroke="black" stroke-width="2"/>
<path d="M49.0049 34.8981C49.0049 33.5057 49.0049 30.4381 49.0049 29.3064C49.0049 27.8917 52.3733 28.1609 52.508 29.3062C52.6158 30.2224 52.553 33.416 52.508 35.235" stroke="black" stroke-width="2"/>
<path d="M69.8632 81.3887C85.7211 77.2866 88.8084 59.9053 63.9415 56.5604" stroke="black" stroke-width="2" stroke-linecap="round"/>
<path d="M70.4128 49.8733C70.8364 46.2729 71.0883 38.9152 70.8342 36.9669C70.58 35.0185 66.2246 31.6508 66.2246 27.4775" stroke="black" stroke-width="2" stroke-linecap="round"/>
<path d="M71.1514 38.3436C72.2457 37.32 74.5613 34.9129 75.0695 33.4727" stroke="black" stroke-width="2" stroke-linecap="round"/>
<path d="M71.0453 38.4676C69.4724 38.6677 65.589 39.2912 64.6969 37.7814C63.8047 36.2715 64.6969 34.9502 63.7533 34.3498C62.8097 33.7494 60.3143 32.5744 60.0043 30.4034C59.4896 26.8002 59.7211 23.2746 63.7532 22.6742C65.8745 22.3583 64.7551 17.3503 68.2726 18.8945C71.0865 20.1299 70.359 20.7092 71.0453 21.1382C71.7316 21.5672 74.4662 19.6416 75.9099 20.5481C79.5989 22.8645 77.3937 25.0845 78.1658 26.3713C78.938 27.6582 81.3572 29.0307 80.7395 30.4034C80.1218 31.7761 80.4822 33.2344 78.938 36.1514C77.3937 39.0683 73.0395 40.4702 71.0453 39.5829" stroke="black" stroke-width="2" stroke-linecap="round"/>
<path d="M28.7734 49.3075C28.1227 46.2906 29.2081 43.8312 27.6708 42.0743C25.7492 39.8782 24.6269 39.5467 24.6269 38.2657" stroke="black" stroke-width="2" stroke-linecap="round"/>
<path d="M28.1572 42.8108C29.1332 42.6279 30.9614 41.7461 31.5471 40.4284C32.1327 39.1107 32.9109 38.1261 33.2769 37.4551" stroke="black" stroke-width="2" stroke-linecap="round"/>
<path d="M26.7948 42.2589C26.0768 42.9481 24.2099 44.2405 22.4867 43.8958C20.3328 43.465 19.6435 41.9142 19.9881 40.8802C20.3328 39.8463 18.1787 39.8464 18.1787 38.1232C18.1787 36.4 18.351 33.2983 19.9881 32.9536C21.2978 32.6779 22.4867 33.5222 22.4867 32.9536C22.4867 32.3851 22.7626 29.1282 24.21 28.9903C26.0194 28.818 27.6564 29.5072 28.001 29.8519C28.3457 30.1965 29.3796 28.1284 30.4135 28.5594C31.4474 28.9903 33.1706 31.92 33.946 32.4368C34.7215 32.9536 35.2394 30.4141 37.9094 32.9536C39.2532 34.2319 37.345 36.48 37.345 38.1232C37.3737 38.755 38.2473 39.4377 37.9094 40.8802C37.548 42.4225 36.1518 43.5485 33.946 43.8958C32.889 44.0623 28.677 44.3756 29.6247 42.9971" stroke="black" stroke-width="2" stroke-linecap="round"/>
<path d="M68.0752 31.343L69.8218 29.2734" stroke="black" stroke-width="2" stroke-linecap="round"/>
<path d="M73.6567 49.8762C73.1464 47.8349 72.1513 43.2292 72.2534 41.1367C72.3555 39.0443 72.4539 37.6044 72.6028 37.0303" stroke="black" stroke-width="2" stroke-linecap="round"/>
<path d="M70.4182 49.8174C70.1108 51.3719 73.6787 51.321 73.6798 50.0723" stroke="black" stroke-width="2" stroke-linecap="round"/>
<path d="M23.35 50.0596C23.7767 48.0472 34.4494 48.1693 34.2054 50.0596C33.9614 51.95 22.9232 52.0721 23.35 50.0596Z" fill="black" stroke="black" stroke-width="2" stroke-linecap="round"/>
<path d="M65.4375 50.4073C65.9571 48.3948 78.949 48.5169 78.652 50.4073C78.355 52.2977 64.918 52.4198 65.4375 50.4073Z" fill="black" stroke="black" stroke-width="2" stroke-linecap="round"/>
<path d="M71.374 44.2266L70.293 48.9907L73.2957 48.5903L72.495 45.0672L71.374 44.2266Z" fill="black"/>
<path d="M50.5964 39.8467C49.7835 39.8468 49.4365 40.2107 49.4365 41.1206C49.6184 42.2804 50.9376 42.1894 51.4271 41.4273C51.8631 40.7486 51.3242 39.8466 50.5964 39.8467Z" fill="black" stroke="black" stroke-width="2"/>
<path d="M38.2031 61.1523C38.9925 61.6997 39.8189 62.1857 40.6746 62.6108M63.1128 61.1523C62.1617 61.7742 61.1656 62.3185 60.1365 62.7846M56.1757 64.1575C52.336 65.1105 48.2737 65.0882 44.5124 64.0649" stroke="black" stroke-width="2" stroke-linecap="round"/>
<path d="M50.4023 62.8154V66.6313" stroke="black" stroke-width="2" stroke-linecap="round"/>
<path d="M37.3127 56.0137C36.5548 56.0796 34.9795 56.251 34.7422 56.4092" stroke="black" stroke-width="2" stroke-linecap="round"/>
<path d="M29.8977 57.4961C29.2879 57.6609 27.9398 58.0695 27.4258 58.386" stroke="black" stroke-width="2" stroke-linecap="round"/>
<path d="M22.3833 61.5C21.922 61.846 20.9004 62.6765 20.5049 63.2302" stroke="black" stroke-width="2" stroke-linecap="round"/>
<path d="M18.1318 68.3223C17.9999 68.8331 17.8153 70.0623 18.1318 70.8928" stroke="black" stroke-width="2" stroke-linecap="round"/>
<path d="M20.4551 75.4414C20.8836 75.8698 21.9383 76.8157 22.7292 77.1716" stroke="black" stroke-width="2" stroke-linecap="round"/>
<path d="M30.0762 38.0859L31.447 39.4902" stroke="black" stroke-width="2" stroke-linecap="round"/>
<path d="M36.959 75.8513L45.9053 45.8359L48.8873 47.0028L44.09 67.0347L39.6817 75.203L36.959 75.8513Z" fill="black"/>
<path d="M55.2351 45.8691L51.5947 46.9548L56.7041 66.4342L61.1748 75.3755L63.921 75.8865L55.2351 45.8691Z" fill="black"/>
<path d="M49.457 28.6592L48.8877 34.5059H52.7685V29.7456L52.0958 28.6592H49.457Z" fill="black"/>
</svg>
