<svg width="100" height="100" viewBox="0 0 100 100" fill="none" xmlns="http://www.w3.org/2000/svg">
<path d="M57.5801 57.1782C57.5801 57.1782 60.1101 57.3202 61.4501 57.2712C62.7901 57.2212 67.02 57.1522 67.02 57.1522" stroke="black" stroke-width="2" stroke-miterlimit="10" stroke-linecap="round" stroke-linejoin="round"/>
<path d="M54.79 62.6052C55.34 61.2972 57.55 56.8292 58.02 55.0122C58.5 53.1962 61.84 44.8042 62.27 45.3852C62.71 45.9662 69.3201 62.8592 69.3201 62.8592" stroke="black" stroke-width="2" stroke-miterlimit="10" stroke-linecap="round" stroke-linejoin="round"/>
<path d="M31.8301 40.0029C31.8301 40.0029 37.3101 46.1349 38.9801 47.3029C40.6401 48.4719 42.8501 49.7789 43.8401 50.0649" stroke="black" stroke-width="2" stroke-miterlimit="10" stroke-linecap="round" stroke-linejoin="round"/>
<path d="M41.9998 34.4991C41.9998 34.4991 41.0297 39.8021 37.8397 43.1541C34.6497 46.5071 28.2098 50.0602 27.2598 50.5262" stroke="black" stroke-width="2" stroke-miterlimit="10" stroke-linecap="round" stroke-linejoin="round"/>
<path d="M26.7998 34.1852C26.7998 34.1852 34.3698 34.2271 36.4498 34.2281C38.5298 34.2281 46.0999 34.1552 46.0999 34.1552" stroke="black" stroke-width="2" stroke-miterlimit="10" stroke-linecap="round" stroke-linejoin="round"/>
<path d="M36.26 34.0755L36.21 30.6875" stroke="black" stroke-width="2" stroke-miterlimit="10" stroke-linecap="round" stroke-linejoin="round"/>
<path d="M52.34 37.6232C52.34 37.6232 52.8 27.9712 52.01 25.9112C51.21 23.8512 47.13 24.1092 47.13 24.1092C47.13 24.1092 23.8999 23.6162 22.3099 24.7252C20.7299 25.8342 19.8199 27.2782 20.0299 31.8212C20.2399 36.3642 20.0499 47.0172 20.3999 53.4262C20.5799 56.5642 22.7799 56.9132 24.6799 57.0712C26.5799 57.2302 46.08 57.0422 46.08 57.0422" stroke="black" stroke-width="2" stroke-miterlimit="10" stroke-linejoin="round"/>
<path d="M46.5903 43.0774C46.7103 39.7424 48.8503 37.8264 51.5103 37.8464C71.9103 38.0054 77.3103 36.5764 78.7003 41.7754C79.2203 43.7084 79.0002 66.7664 77.7902 68.8054C76.5802 70.8434 61.6203 70.2184 61.6203 70.2184C61.6203 70.2184 60.5803 72.4214 58.7203 73.8734C56.8703 75.3264 54.1903 76.0284 54.1903 76.0284C54.1903 76.0284 54.6503 73.1964 54.5703 71.5924C54.4903 69.9874 54.4703 69.6444 53.8703 69.6094C52.4003 69.5244 46.6703 70.8454 46.4603 67.0024C46.3303 64.4924 46.4703 46.4124 46.5903 43.0774Z" stroke="black" stroke-width="2" stroke-miterlimit="10" stroke-linejoin="round"/>
<path d="M73.25 37.9965C73.25 37.9965 77.97 37.8135 79.25 40.6785C80.54 43.5435 80.1099 59.9125 79.0299 67.1085C78.6799 69.4545 77.73 69.1525 76.37 69.5895" stroke="black" stroke-width="2" stroke-miterlimit="10" stroke-linecap="round" stroke-linejoin="round"/>
<path d="M48.9805 24.2116C48.9805 24.2116 52.8404 23.8216 53.5304 27.8196C54.2104 31.8176 53.9705 37.5436 53.9705 37.5436" stroke="black" stroke-width="2" stroke-miterlimit="10" stroke-linecap="round" stroke-linejoin="round"/>
</svg>
