<svg width="100" height="100" viewBox="0 0 100 100" fill="none" xmlns="http://www.w3.org/2000/svg">
<path d="M42.3379 75.8327C8.65186 74.8618 11.9234 73.8565 13.2123 72.2755C19.2388 73.6543 57.3396 75.0493 81.7164 73.2731C88.7987 72.2872 86.3228 67.1753 85.1195 66.1434C89.3819 65.8659 90.6677 72.3832 87.8538 74.9197C85.04 77.4563 56.5105 76.2412 42.3379 75.8327Z" fill="black"/>
<path d="M44.4512 53.5078L53.682 53.5078" stroke="black" stroke-width="8" stroke-miterlimit="10" stroke-linecap="round"/>
<path d="M39.791 43.988C48.3557 43.988 44.7951 43.4674 52.6862 44.2195C53.6485 44.3352 55.9581 44.5666 59.6149 44.2195" stroke="black" stroke-width="2" stroke-miterlimit="10" stroke-linecap="round"/>
<path d="M32.4131 39.805C40.8519 38.6229 46.0709 39.7181 51.4556 39.8051C56.0456 39.8792 60.978 38.7676 65.7194 39.805" stroke="black" stroke-width="2" stroke-miterlimit="10" stroke-linecap="round"/>
<path d="M15.7869 66.1886C16.0578 53.8792 16.3496 41.1486 16.6206 28.8626C16.6414 27.8329 16.704 26.733 17.2459 25.8906C18.0379 24.6971 19.5594 24.5801 20.8725 24.5333C29.6681 24.2758 38.4637 24.0652 47.2594 23.9248H49.9689C58.7645 24.0652 67.5602 24.2524 76.3558 24.5333C77.6689 24.5801 79.1904 24.7205 79.9824 25.8906C80.5452 26.7096 80.5869 27.8095 80.6077 28.8626C80.8787 41.172 81.1705 53.9026 81.4414 66.1886" stroke="black" stroke-width="2" stroke-miterlimit="10"/>
<path d="M85.7139 67.1057C86.1724 67.151 86.5893 67.4451 86.7769 67.9202C87.3396 69.3456 86.631 71.3139 85.3596 72.2415C83.8589 73.3501 81.9205 73.418 80.0863 73.418C69.7067 73.4406 59.8689 73.7121 49.6352 73.418H47.0298C36.8377 73.0786 27.5002 73.4406 17.1414 73.418C15.3072 73.418 13.3688 73.3501 11.8682 72.2415C11.8056 72.1963 11.7431 72.151 11.6806 72.1058C9.7839 70.4768 10.826 67.151 13.2229 66.9926C17.9334 66.6533 28.7508 65.9519 34.8994 66.2686C35.8581 66.3139 36.8794 66.3818 37.734 66.9247C38.5051 67.3999 39.0471 68.1917 39.8391 68.6216C40.6728 69.0741 41.6732 69.0288 42.5903 68.9836C44.6121 68.8931 52.6365 68.8931 54.6374 68.9836C55.5753 69.0515 56.5549 69.0741 57.3886 68.6216C58.1807 68.1917 58.7226 67.3999 59.4938 66.9247C60.3275 66.4044 61.3488 66.3365 62.3284 66.2686C69.4149 65.9293 82.7751 66.8795 85.7139 67.1057Z" stroke="black" stroke-width="2" stroke-miterlimit="10"/>
<path d="M41.0264 24.9609L42.5417 27.0956C42.8648 27.5393 43.6223 27.8269 44.4353 27.8146L51.6634 27.716C52.4764 27.7037 53.1668 27.4155 53.4674 26.8876L54.7698 24.8599" stroke="black" stroke-width="2" stroke-miterlimit="10" stroke-linecap="round"/>
</svg>
