<svg width="100" height="100" viewBox="0 0 100 100" fill="none" xmlns="http://www.w3.org/2000/svg">
<path d="M22.9942 54.555L22.8492 24.096C22.8162 22.625 24.3402 22.06 25.8122 22.061L75.0942 22C76.5662 22.001 76.8291 23.332 76.8641 24.803L77.1822 54.752C77.2172 56.224 76.0882 56.871 74.6162 56.88L25.7192 57.202C24.2472 57.212 23.0272 56.027 22.9942 54.555Z" stroke="black" stroke-width="2" stroke-miterlimit="10" stroke-linecap="round" stroke-linejoin="round"/>
<path d="M62.7327 71.3376L83.1737 71.2396L78.1366 59.0506C77.6486 57.8696 76.2177 56.9246 74.9397 56.9396L25.1386 57.2936C23.8586 57.3076 22.3837 58.2606 21.8447 59.4206L16.1396 71.5596L35.7426 71.6326" stroke="black" stroke-width="2" stroke-miterlimit="10" stroke-linecap="round" stroke-linejoin="round"/>
<path d="M16.1448 71.6381C16.1448 71.6381 14.7658 77.0631 20.5178 76.8831C21.5198 76.8521 27.2498 77.1141 33.6718 77.0751C33.6718 77.0751 40.5378 76.9491 51.5108 76.8981C62.4828 76.8471 79 76.8981 79 76.8981C79 76.8981 83.4488 76.8101 83.2098 71.4131" stroke="black" stroke-width="2" stroke-miterlimit="10" stroke-linecap="round" stroke-linejoin="round"/>
<path d="M35.9328 71.717L38.0948 72.953C38.8828 73.403 40.2568 73.759 41.1638 73.749L58.4348 73.559C59.3418 73.549 60.6058 73.03 61.2588 72.4L62.3098 71.384" stroke="black" stroke-width="2" stroke-miterlimit="10" stroke-linecap="round" stroke-linejoin="round"/>
<path d="M38.3588 67.782L34.8038 67.832" stroke="black" stroke-width="2" stroke-miterlimit="10" stroke-linecap="round" stroke-linejoin="round"/>
<path d="M42.1172 67.873L55.8852 67.759" stroke="black" stroke-width="2" stroke-miterlimit="10" stroke-linecap="round" stroke-linejoin="round"/>
<path d="M64.4427 67.5625L60.8877 67.6135" stroke="black" stroke-width="2" stroke-miterlimit="10" stroke-linecap="round" stroke-linejoin="round"/>
<path d="M29.5833 67.5339L26.0293 67.584" stroke="black" stroke-width="2" stroke-miterlimit="10" stroke-linecap="round" stroke-linejoin="round"/>
<path d="M73.9612 67.4902L70.4062 67.5413" stroke="black" stroke-width="2" stroke-miterlimit="10" stroke-linecap="round" stroke-linejoin="round"/>
<path d="M47.4358 64.1321L43.8808 64.1821" stroke="black" stroke-width="2" stroke-miterlimit="10" stroke-linecap="round" stroke-linejoin="round"/>
<path d="M55.7864 64.1189L52.2314 64.1699" stroke="black" stroke-width="2" stroke-miterlimit="10" stroke-linecap="round" stroke-linejoin="round"/>
<path d="M39.1468 64.0759L35.5918 64.1259" stroke="black" stroke-width="2" stroke-miterlimit="10" stroke-linecap="round" stroke-linejoin="round"/>
<path d="M64.7356 63.9463L61.1816 63.9973" stroke="black" stroke-width="2" stroke-miterlimit="10" stroke-linecap="round" stroke-linejoin="round"/>
<path d="M30.7611 63.8076L27.2061 63.8586" stroke="black" stroke-width="2" stroke-miterlimit="10" stroke-linecap="round" stroke-linejoin="round"/>
<path d="M73.0989 63.7383L69.5439 63.7893" stroke="black" stroke-width="2" stroke-miterlimit="10" stroke-linecap="round" stroke-linejoin="round"/>
<path d="M64.1546 60.6143L60.5996 60.6642" stroke="black" stroke-width="2" stroke-miterlimit="10" stroke-linecap="round" stroke-linejoin="round"/>
<path d="M55.8821 60.449L52.3271 60.499" stroke="black" stroke-width="2" stroke-miterlimit="10" stroke-linecap="round" stroke-linejoin="round"/>
<path d="M47.5931 60.3926L44.0381 60.4426" stroke="black" stroke-width="2" stroke-miterlimit="10" stroke-linecap="round" stroke-linejoin="round"/>
<path d="M39.3878 60.2891L35.8338 60.3401" stroke="black" stroke-width="2" stroke-miterlimit="10" stroke-linecap="round" stroke-linejoin="round"/>
<path d="M31.6868 60.2686L28.1318 60.3185" stroke="black" stroke-width="2" stroke-miterlimit="10" stroke-linecap="round" stroke-linejoin="round"/>
<path d="M71.8568 60.2217L68.3018 60.2727" stroke="black" stroke-width="2" stroke-miterlimit="10" stroke-linecap="round" stroke-linejoin="round"/>
<path d="M28.6294 26.8864C28.6294 26.8864 38.8794 26.8824 49.5774 26.8824C60.2754 26.8824 70.2084 26.1534 71.4214 26.8864C72.4444 27.5034 72.3754 51.5464 71.4214 52.5464C70.1554 53.8734 30.2724 52.9034 28.6294 52.5464C27.8534 52.3774 28.4154 46.6674 28.4154 40.2524C28.4154 33.8374 28.6294 26.8864 28.6294 26.8864Z" fill="black" stroke="black" stroke-width="2" stroke-miterlimit="10" stroke-linejoin="round"/>
</svg>
