<svg width="100" height="100" viewBox="0 0 100 100" fill="none" xmlns="http://www.w3.org/2000/svg">
<path d="M70.3659 71.7739H41.2725" stroke="black" stroke-width="2"/>
<path d="M43.1035 65.1777C48.3977 65.6111 59.7775 66.6021 62.9428 67.0995C66.1081 67.5969 69.0849 68.2864 70.1777 68.569" stroke="black" stroke-width="2"/>
<path d="M68.3673 68.1512L43.1777 67.8638" stroke="black" stroke-width="2"/>
<path d="M39.5771 60.3608C44.2685 60.6435 55.471 61.3572 59.4954 61.8999C63.5197 62.4425 70.2911 63.897 73.1737 64.5564" stroke="black" stroke-width="2"/>
<path d="M70.1458 69.0587C70.5653 65.8791 72.522 64.2019 75.0727 64.4116C78.1126 64.4116 80.3828 66.643 80.3828 69.513C80.3828 72.0288 78.7191 74.462 76.0505 74.6843C73.5344 74.894 69.5504 73.5714 70.1458 69.0587Z" stroke="black" stroke-width="2"/>
<path d="M74.3399 70.2283C74.129 69.8818 74.1635 69.1909 74.5773 68.9102C75.0399 68.5376 75.6588 68.5988 76.0106 69.0355C76.3189 69.4183 76.4363 70.0195 76.0575 70.3804C75.7004 70.7207 74.7845 70.9584 74.3399 70.2283Z" fill="black" stroke="black" stroke-width="2"/>
<path d="M43.0332 55.2446V60.3019" stroke="black" stroke-width="2"/>
<path d="M28.7585 70.5866C27.2128 68.0481 27.4662 62.9864 30.4978 60.9296C33.8865 58.1997 38.421 58.6484 40.9983 61.8477C43.2575 64.6521 44.1176 69.0567 41.3424 71.7011C38.7259 74.1943 32.0158 75.9359 28.7585 70.5866Z" stroke="black" stroke-width="2"/>
<path d="M59.6368 66.8726L43.5176 64.8115V67.9766L59.6368 66.8726Z" fill="black"/>
<path d="M32.776 68.2701C32.1783 67.2886 32.2762 65.3313 33.4485 64.5359C34.7588 63.4804 36.5122 63.6539 37.5088 64.891C38.3824 65.9754 38.715 67.6786 37.6419 68.7011C36.6302 69.6652 34.0355 70.3386 32.776 68.2701Z" fill="black" stroke="black" stroke-width="2"/>
<path d="M63.957 59.749V62.4658" stroke="black" stroke-width="2"/>
<path d="M38.4557 56.1809C38.7615 56.5477 39.806 58.8305 40.2901 59.926C39.4239 59.4929 37.1869 58.6268 35.1691 58.6268C33.1513 58.6268 31.4163 59.7383 30.8303 60.4007C29.9132 59.2288 28.4362 57.1137 29.8522 56.1809C32.9651 54.1301 38.0736 55.7223 38.4557 56.1809Z" fill="black" stroke="black" stroke-width="2"/>
<path d="M44.2654 42.9375H52.0703C54.154 42.8408 58.8492 42.7913 60.9601 43.367C63.5987 44.0866 68.8159 46.4859 69.0558 47.3249C69.2957 48.164 69.4156 49.3638 69.0558 49.6637C68.696 49.9635 48.2915 49.2439 47.7071 49.6637C47.1226 50.0835 48.0373 54.6564 47.1226 54.6448C45.4966 54.6216 42.0773 54.589 41.4083 54.6448C40.5721 54.7145 41.1296 51.1605 40.9902 48.164C40.8508 45.1675 42.8717 42.9375 44.2654 42.9375Z" stroke="black" stroke-width="2"/>
<path d="M67.6843 49.9448C67.7679 52.8164 67.885 58.6682 67.6843 59.1031C67.4333 59.6468 48.6149 59.145 47.8622 58.8523C47.26 58.6181 47.1895 55.7997 47.3149 54.5591" stroke="black" stroke-width="2"/>
<path d="M53.0947 54.6064C56.434 54.6064 61.6044 54.6064 61.9623 54.6064" stroke="black" stroke-width="2" stroke-linecap="round"/>
<path d="M47.2335 54.8414L43.4745 54.6064L43.0928 60.4212L63.4151 62.3888L63.7382 59.3346L47.6154 58.7179L47.2335 54.8414Z" fill="black"/>
<circle cx="44.3507" cy="49.945" r="1.07044" fill="black"/>
<path d="M30.5662 55.3531C25.4271 51.578 15.0028 44.1884 14.4183 44.8314C13.6877 45.6351 14.1159 55.3235 14.1156 61.94C14.1155 65.3069 15.8306 66.9391 18.0719 67.6282C21.1092 68.5622 23.9904 68.1397 27.6437 68.1397" stroke="black" stroke-width="2"/>
<path d="M50.2401 41.3196C49.8129 41.4453 49.5804 42.3771 49.5176 42.8273H57.8415C57.7263 42.4295 57.4457 41.6086 57.2447 41.5081C56.9934 41.3824 50.7741 41.1626 50.2401 41.3196Z" fill="black" stroke="black" stroke-width="2"/>
<path d="M30.9636 55.1663C26.2531 46.8477 17.0325 29.9899 17.8342 29.1079C18.636 28.2259 21.7764 26.4686 23.2463 25.7002" stroke="black" stroke-width="2"/>
<path d="M27.7339 24.4002C27.9316 25.2404 21.4543 28.0237 20.8613 28.2214C20.431 28.3649 19.9365 27.3591 19.7066 26.517C19.5395 25.9639 25.3814 23.0583 25.9745 22.6135C26.5676 22.1687 27.5362 23.56 27.7339 24.4002Z" fill="black" stroke="black" stroke-width="2"/>
<path d="M14.0195 54.5391C14.0195 64.2233 14.6627 67.9482 23.1532 68.2124" stroke="black" stroke-width="2" stroke-linecap="round"/>
<path d="M84.8184 66.4619C84.5911 67.7754 82.8457 72.2433 82.967 72.5463" stroke="black" stroke-width="2" stroke-linecap="round"/>
<path d="M86.009 69.2837L84.4775 72.5461" stroke="black" stroke-width="2" stroke-linecap="round"/>
<path d="M82.0847 65.9331C82.2363 67.4992 82.2535 72.1246 81.041 72.852" stroke="black" stroke-width="2" stroke-linecap="round"/>
<path d="M24.8065 49.9492L23.1055 49.5015" stroke="black" stroke-width="2" stroke-linecap="round"/>
<path d="M33.458 48.5557C34.0231 48.7295 35.3097 48.9729 35.9356 48.5557" stroke="black" stroke-width="2" stroke-linecap="round"/>
<path d="M22.0654 47.7759L23.0046 49.8754" stroke="black" stroke-width="2" stroke-linecap="round"/>
<path d="M20.9788 47.5477L18.7529 46.6235" stroke="black" stroke-width="2" stroke-linecap="round"/>
<path d="M18.2529 45.2896L19.2475 47.3891" stroke="black" stroke-width="2" stroke-linecap="round"/>
<path d="M32.1541 42.7529C32.089 43.2962 32.076 44.435 32.5454 44.6436" stroke="black" stroke-width="2" stroke-linecap="round"/>
<path d="M27.9812 38.7109C27.6769 39.1456 27.1075 40.2497 27.264 41.1885" stroke="black" stroke-width="2" stroke-linecap="round"/>
</svg>
