<svg width="100" height="100" viewBox="0 0 100 100" fill="none" xmlns="http://www.w3.org/2000/svg">
<path d="M49.543 21.5243C48.4168 20.9614 30.3057 30.3219 21.391 35.0725C18.9428 36.3705 45.9591 47.1576 49.543 48.9722C51.6548 50.0415 76.9915 36.4797 77.3434 35.0725C77.6953 33.6653 50.9508 22.2279 49.543 21.5243Z" stroke="black" stroke-width="2" stroke-linecap="round"/>
<path d="M33.5991 42.5039C28.9281 44.5173 19.8035 48.7858 20.6733 49.7521C21.7604 50.96 50.0286 64.3692 50.7534 64.2484C51.4782 64.1276 80.4711 50.4771 80.1087 49.7521C79.8188 49.1722 70.5652 44.6783 65.9747 42.5039" stroke="black" stroke-width="2" stroke-linecap="round"/>
<path d="M33.7227 57.5879C29.4274 59.5119 20.8368 63.4941 20.8369 64.031C20.837 64.702 49.1588 79.6011 50.0983 79.3327C51.0379 79.0642 78.5543 65.91 78.6885 64.9705C78.7959 64.2189 69.9959 60.0165 65.6112 58.1373" stroke="black" stroke-width="2" stroke-linecap="round"/>
<path d="M24.3928 47.1331L34.0174 42.3594L49.7244 48.7501H51.6492L65.4314 42.3594L78.9057 49.289L79.9066 50.136L50.8793 64.3802L24.9318 52.1379L21.082 49.289L24.3928 47.1331Z" fill="black"/>
<path d="M29.9492 40.1634C38.7166 35.188 56.9242 25.4558 57.434 25.2373" stroke="black" stroke-width="2" stroke-linecap="round"/>
<path d="M40.9238 44.744C49.6912 39.7686 67.2356 29.9724 67.7454 29.7539" stroke="black" stroke-width="2" stroke-linecap="round"/>
<path d="M30.3125 30.7949L60.9536 44.3945" stroke="black" stroke-width="2" stroke-linecap="round"/>
<path d="M39.707 25.9004L70.3481 39.5" stroke="black" stroke-width="2" stroke-linecap="round"/>
</svg>
