<svg width="100" height="100" viewBox="0 0 100 100" fill="none" xmlns="http://www.w3.org/2000/svg">
<path d="M65.9781 59.2213C68.8187 58.6447 70.4591 58.5951 73.1582 56.0265C76.828 52.5343 74.7108 43.8184 74.0313 43.2899C73.3518 42.7613 71.1768 47.4522 68.8442 49.5041C66.4324 51.6257 63.4045 49.6225 64.386 47.8105C65.3675 45.9984 72.1627 43.4314 72.4647 38.5237C72.7667 33.6161 69.3666 29.4284 64.839 26.972C62.7721 25.8506 59.0254 24.7824 60.0069 25.7639C60.9884 26.7453 64.0085 36.8627 61.1394 38.9766C58.2704 41.0906 57.5908 38.9766 57.6663 35.8812C57.7418 32.7857 57.2888 27.576 56.0053 25.1599C54.7218 22.7439 48.6816 20.7808 48.1531 21.0828C47.6246 21.3848 49.0591 21.9888 49.2857 23.9519C49.5122 25.9149 48.1736 33.2996 45.3045 31.1856C42.4354 29.0715 47.5809 23.6482 44.7737 21.0828C43.3528 19.7843 32.9018 16.0996 32.2223 16.0996C31.5428 16.0996 30.0299 21.4894 29.1345 26.972C28.0614 33.5428 27.7703 35.81 28.2989 37.5464C28.7217 38.9356 31.6416 40.5623 37.7301 38.5237C40.649 37.5464 41.9043 39.2625 42.2667 40.531C42.7197 42.1167 40.2254 43.5824 35.3933 43.7334C30.5612 43.8844 28.6737 41.7703 27.3901 41.5438C26.1066 41.3173 25.8801 52.0386 27.3901 56.1157C28.9002 60.1927 32.2223 64.1943 37.3564 62.2313C42.4905 60.2682 42.415 58.5317 45.2841 57.0217C48.1531 55.5116 51.0977 59.4377 48.1531 61.6273C43.6856 64.9493 37.6412 64.7304 36.5086 66.769C35.9046 67.8563 45.6533 72.572 54.1933 69.6305C56.9055 68.6963 58.0881 67.6618 59.698 64.9493" stroke="black" stroke-width="2"/>
<path d="M59.689 64.967C61.0559 62.615 62.8048 63.8815 64.0009 65.2484C66.191 68.1825 68.8071 73.5015 69.4441 76.1993C70.7277 81.6355 70.1236 83.9005 71.0297 83.9005C71.9357 83.9005 73.8987 82.466 74.0497 81.4845C74.2007 80.503 71.1889 71.1767 68.3953 67.0241C65.6018 62.8715 62.6962 59.7495 66.069 59.2037" stroke="black" stroke-width="2"/>
<path d="M37.1026 68.1946C36.4328 68.5628 36.4447 68.8675 36.8434 69.2927C37.3418 69.8242 41.283 71.39 44.8039 71.8702C47.7274 72.2688 53.1648 72.4507 56.5535 69.9591C59.9421 67.4675 59.9844 64.9895 61.7784 64.9562C63.5724 64.923 66.6437 69.4448 67.8232 71.902" stroke="black" stroke-width="2"/>
<path d="M40.7276 51.9016C39.0659 51.0493 35.9191 51.8629 33.7756 52.365C31.7961 52.7753 33.7093 54.7983 35.3894 55.6094C37.0695 56.4205 38.344 55.8411 39.9661 55.1459C41.5883 54.4507 41.7651 52.4336 40.7276 51.9016Z" stroke="black" stroke-width="2"/>
<path d="M65.9576 46.3236C64.152 47.6571 65.1111 49.8586 66.3677 49.6447C68.4862 49.2842 70.3033 48.1022 71.5673 46.1436" stroke="black" stroke-width="2"/>
<path d="M33.8631 30.0089C33.4703 31.1087 34.0268 32.7911 34.3541 33.4948C36.1708 36.1953 37.5454 34.3785 37.0544 32.6601C36.5634 30.9417 37.4472 30.9418 36.4652 28.6342C35.4833 26.3266 34.3541 28.6342 33.8631 30.0089Z" stroke="black" stroke-width="2"/>
<path d="M31.4898 17.1459C30.8511 16.965 29.8646 16.8425 29.5056 18.2424C29.0569 19.9924 26.5801 33.4485 26.6442 36.8281C26.6894 39.2062 32.3277 40.5143 34.4814 40.29C36.6352 40.0656 39.3047 38.8297 40.5215 40.4227C41.5323 41.7459 40.2986 42.8275 38.8179 43.3211" stroke="black" stroke-width="2"/>
<path d="M26.5022 42.6772C26.0129 42.5422 25.014 42.5355 24.9331 43.5883C24.8319 44.9044 23.9844 53.0821 26.9265 58.1425C29.4573 62.4954 31.7156 63.4803 33.1328 63.6321C34.55 63.784 37.8446 63.6321 41.0329 60.5619C43.7661 57.9298 47.0814 57.5935 47.7394 59.2132C48.3974 60.8329 47.0398 62.4239 46.1287 62.8288" stroke="black" stroke-width="2"/>
<path d="M60.0959 25.7466C61.4465 28.1738 61.6627 32.4893 61.7913 34.2849C62.0249 37.5451 58.2266 40.4768 57.6816 36.8824" stroke="black" stroke-width="2"/>
<path d="M48.0457 21.3291C48.41 22.2602 48.6631 24.6158 48.4977 26.0133C48.2524 28.0864 47.6323 33.0787 44.5161 29.8671" stroke="black" stroke-width="2"/>
</svg>
