<svg width="100" height="100" viewBox="0 0 100 100" fill="none" xmlns="http://www.w3.org/2000/svg">
<path d="M40.435 60.944C40.435 60.944 35.062 63.335 30.575 62.25C24.139 60.693 20 56.2921 20 56.2921C20 56.2921 22.476 49.506 27.724 47.787C30.725 46.803 33.976 46.313 33.976 46.313C33.976 46.313 29.407 40.154 28.347 35.302C27.287 30.449 28.768 22.665 28.768 22.665C28.768 22.665 34.956 21.833 39.596 26.587C42.036 29.087 43.696 32.924 43.696 32.924C43.696 32.924 48.106 27.2381 52.432 24.9431C58.929 21.4961 64.473 20 64.473 20C64.473 20 66.503 29.16 65.743 35.105C65.09 40.22 62.574 45.4561 62.574 45.4561C62.574 45.4561 65.624 45.265 70.401 47.486C75.178 49.706 80.656 55.8781 80.656 55.8781C80.656 55.8781 76.711 60.096 67.272 61.437C63.367 61.992 55.839 60.701 55.839 60.701C55.839 60.701 57.82 64.723 57.752 69.949C57.684 75.175 55.062 79.1071 55.062 79.1071C55.062 79.1071 45.687 73.463 43.048 68.869C40.577 64.57 40.435 60.944 40.435 60.944Z" stroke="black" stroke-width="2" stroke-miterlimit="10" stroke-linecap="round" stroke-linejoin="round"/>
<path d="M40.4112 61.5195C40.4112 61.5195 37.0882 67.6686 34.5762 70.6356C31.2662 74.5466 26.5622 77.3745 26.5622 77.3745C26.5622 77.3745 23.7992 76.1356 23.9942 75.3806C24.1892 74.6256 28.8172 73.7466 31.1182 72.3516C35.4142 69.7466 36.9882 67.6316 39.6972 62.9146" stroke="black" stroke-width="2" stroke-miterlimit="10" stroke-linecap="round" stroke-linejoin="round"/>
<path d="M40.5972 60.8502C40.5972 60.8502 45.1672 53.1601 47.5342 48.3481C49.9012 43.5351 53.0862 36.4531 53.0862 36.4531" stroke="black" stroke-width="2" stroke-miterlimit="10" stroke-linecap="round" stroke-linejoin="round"/>
<path d="M59.3331 51.749C58.2601 52.415 56.688 52.445 55.446 52.725C53.085 53.258 51.2831 53.415 48.9641 54.025C47.6981 54.358 44.4921 55.15 42.8301 57.144" stroke="black" stroke-width="2" stroke-miterlimit="10" stroke-linecap="round" stroke-linejoin="round"/>
<path d="M43.3409 56.0131C44.5209 51.7061 42.8489 48.8822 41.5039 46.1622C40.7269 44.5902 39.9299 42.6462 38.9559 41.2202C38.5619 40.6422 37.7429 39.9612 37.4819 39.3682" stroke="black" stroke-width="2" stroke-miterlimit="10" stroke-linecap="round" stroke-linejoin="round"/>
<path d="M55.0991 79.0478C55.0991 79.0478 58.3321 75.9898 58.7131 71.6288C58.9451 68.9688 57.7041 62.3258 57.7041 62.3258C57.7041 62.3258 64.1411 63.1908 67.2021 62.7708C75.8371 61.5838 80.6441 55.9248 80.6441 55.9248" stroke="black" stroke-width="2" stroke-miterlimit="10" stroke-linecap="round" stroke-linejoin="round"/>
</svg>
