<svg width="100" height="100" viewBox="0 0 100 100" fill="none" xmlns="http://www.w3.org/2000/svg">
<path d="M64.9211 81.499C69.1807 81.3215 76.4575 77.9003 76.4575 70.3016C76.4575 65.8051 76.2558 64.293 76.2239 56.4354C76.2118 53.4378 77.5167 46.9737 77.4186 42.8078C77.1727 32.3559 71.1436 24.4608 62.7316 20.7361C59.002 19.0847 54.2245 18.6304 50.2637 18.4927C41.4029 18.1846 32.5009 20.0418 27.2112 27.2424C24.2879 31.2217 21.9165 37.8851 21.9341 44.2277C22.2924 53.6056 23.6653 66.6714 23.3603 69.3297C22.8981 73.3583 25.1091 76.7659 27.2112 78.6959C29.781 81.0554 32.944 81.499 34.8966 81.499C40.023 81.499 47.2682 77.3702 47.2682 70.9201C47.2682 68.0637 47.5398 63.6318 47.5398 61.7499C47.5398 54.4386 37.4281 53.1356 37.6625 44.2277C37.84 37.4834 43.3829 32.1126 49.9497 32.1126C56.5164 32.1126 62.7316 37.1224 62.7316 44.6605C62.7316 53.5346 52.8523 57.1839 52.8523 60.556V70.9201C52.8523 78.5188 60.6615 81.6765 64.9211 81.499Z" stroke="black" stroke-width="2" stroke-linecap="round" stroke-linejoin="round"/>
<path d="M45.6304 76.0888C49.1244 76.4583 51.0023 76.5073 54.0913 76.0888" stroke="black" stroke-width="2" stroke-linecap="round" stroke-linejoin="round"/>
<path d="M47.3521 71.349C49.6394 71.4784 50.8488 71.4916 52.8014 71.349" stroke="black" stroke-width="2" stroke-linecap="round" stroke-linejoin="round"/>
<path d="M46.9106 63.1847C50.0084 63.0537 51.5153 63.0444 53.5895 63.1847" stroke="black" stroke-width="2" stroke-linecap="round" stroke-linejoin="round"/>
<path d="M75.9041 67.0329C71.4571 63.5499 57.0996 64.2183 53.4679 66.6756C53.4679 64.9626 53.6419 62.3615 53.4679 61.0091C61.7704 58.0488 66.5964 58.0335 75.3998 60.5049L75.9041 67.0329Z" fill="black" stroke="black" stroke-width="2" stroke-linecap="round" stroke-linejoin="round"/>
<path d="M23.7336 66.9224C28.1807 63.4393 43.2241 64.1967 46.8558 66.654C46.8558 64.7755 46.6508 62.2854 46.6508 60.9566C38.3483 57.9963 33.0414 57.9229 24.238 60.3944L23.7336 66.9224Z" fill="black" stroke="black" stroke-width="2" stroke-linecap="round" stroke-linejoin="round"/>
<path d="M46.7305 58.1065C48.4583 57.9265 50.739 57.9394 54.0918 58.1065" stroke="black" stroke-width="2" stroke-linecap="round" stroke-linejoin="round"/>
<path d="M42.5791 53.6605C40.8505 52.126 38.666 52.0406 36.6481 52.4442" stroke="black" stroke-width="2" stroke-linecap="round" stroke-linejoin="round"/>
<path d="M59.2358 53.1285C60.1022 52.323 62.8819 51.5113 63.911 51.7269" stroke="black" stroke-width="2" stroke-linecap="round" stroke-linejoin="round"/>
<path d="M77.0112 46.8615C74.1162 44.5941 65.0978 45.2618 62.7336 46.8615C63.353 44.5965 63.3654 43.046 62.7336 40.8988C68.1385 38.9717 71.2802 38.9617 77.0112 40.5706L77.0112 46.8615Z" fill="black" stroke="black" stroke-width="2" stroke-linecap="round" stroke-linejoin="round"/>
<path d="M22.1935 47.1202C25.254 44.8475 35.1211 45.2662 37.6143 46.8618C36.9643 44.5978 36.954 43.0473 37.6248 40.8988C31.9219 38.9811 28.6051 38.9767 22.5517 40.5957L22.1935 47.1202Z" fill="black" stroke="black" stroke-width="2" stroke-linecap="round" stroke-linejoin="round"/>
<path d="M39.7934 37.6066C38.7265 34.1911 35.8807 32.0691 32.0845 32.2439" stroke="black" stroke-width="2" stroke-linecap="round" stroke-linejoin="round"/>
<path d="M57.4731 34.3387C57.976 30.2329 59.7356 28.3057 60.9087 27.7192" stroke="black" stroke-width="2" stroke-linecap="round" stroke-linejoin="round"/>
<path d="M47.2135 19.2106C45.3724 21.7535 46.1576 26.2169 47.6508 32.0958C50.0093 31.5303 50.0598 31.2599 52.2987 32.0958C54.1489 23.5094 53.4054 19.8211 52.2987 18.8296C52.2987 18.8296 49.5778 18.8295 47.2135 19.2106Z" fill="black" stroke="black" stroke-width="2" stroke-linecap="round" stroke-linejoin="round"/>
</svg>
