<svg width="100" height="100" viewBox="0 0 100 100" fill="none" xmlns="http://www.w3.org/2000/svg">
<path d="M44.0641 19.7538C42.8005 18.3019 39.3215 15.6563 35.5146 16.6887C30.756 17.9793 28.7396 17.576 28.8203 21.4474C28.9009 25.3189 29.4654 33.8683 28.8203 36.8525C28.1752 39.8368 23.0133 45.8859 23.0133 48.7895C23.0133 51.693 22.0453 71.3728 23.981 76.2928C25.9167 81.2127 29.3862 82.4082 32.2091 82.9728C35.032 83.5374 45.0944 84.2973 47.7548 81.8416C48.5936 81.0673 50.1465 78.0195 50.2003 76.7828" stroke="black" stroke-width="2"/>
<path d="M51.0722 76.7062C51.0722 79.2898 52.4334 81.6875 55.6595 82.5264C59.6922 83.575 71.3263 83.8141 73.9879 79.7813C76.6495 75.7486 76.3269 73.1676 76.3269 70.264C76.3269 67.3605 76.6495 48.7291 75.843 45.9062C75.0364 43.0833 69.1486 35.1792 69.3099 29.4527C69.4712 23.7262 70.8737 21.0067 69.3099 17.8563C68.5285 16.282 59.1768 15.9281 58.5279 17.8565C57.2578 21.6307 50.2467 25.9598 43.6024 19.2852" stroke="black" stroke-width="2"/>
<path d="M38.7822 16.6277C41.3068 17.504 42.0942 19.8478 42.1256 21.9802C42.1648 24.6457 42.9285 27.6086 45.7035 29.9509C47.9234 31.8248 50.3581 35.5165 49.9517 40.7419" stroke="black" stroke-width="2"/>
<path d="M60.5142 16.7939C58.3038 17.3717 57.4155 20.3 56.8672 22.3935C56.319 24.487 56.967 26.6304 54.6242 29.2225C52.2813 31.8146 51.2995 34.3653 50.8508 37.5057C50.4919 40.018 50.801 40.6683 50.8508 41.0173" stroke="black" stroke-width="2"/>
<path d="M69.2957 29.7266C69.5464 37.4981 70.6628 44.3845 72.2904 45.8867C73.918 47.389 75.2292 46.5127 75.6813 45.8867" stroke="black" stroke-width="2"/>
<path d="M29.0836 34.2324C29.0836 37.2993 28.678 44.8032 26.8093 46.7101C24.4734 49.0937 23.6503 48.5684 23.3884 46.7101" stroke="black" stroke-width="2"/>
<path d="M29.174 40.3027C31.4038 41.1978 35.1362 41.1118 38.5779 41.1979C42.0196 41.2841 45.1243 41.2337 46.1819 41.1978V46.5559C42.0949 46.5201 36.7891 46.5421 31.9855 46.0228C30.3937 45.8507 28.3014 45.2957 27.8533 45.3674" stroke="black" stroke-width="2"/>
<path d="M70.0437 39.8594C68.062 40.0211 65.2769 40.8091 62.6078 41.0033C59.9387 41.1975 56.9006 41.0842 56.3142 41.0033V45.9796C59.8933 45.9392 66.4974 45.9796 70.7522 44.3411" stroke="black" stroke-width="2"/>
<path d="M46.7475 39.7421C46.1184 39.8208 46.2211 40.6758 46.2211 41.8987C46.0572 44.0939 46.3051 47.8806 46.5017 48.1951C46.7474 48.5883 50.2807 47.3231 50.7722 47.274C51.2636 47.2248 54.8074 48.1951 55.1515 47.8019C55.4955 47.4088 55.6429 40.6758 55.1515 39.7421C54.66 38.8084 52.1535 40.4301 50.974 40.6758C49.7945 40.9216 47.5338 39.6438 46.7475 39.7421Z" stroke="black" stroke-width="2"/>
<path d="M46.7475 55.7299C46.1184 55.8086 46.2211 56.6636 46.2211 57.8865C46.0572 60.0817 46.3051 63.8684 46.5017 64.1829C46.7474 64.5761 50.2807 63.3109 50.7722 63.2617C51.2636 63.2126 54.8074 64.1829 55.1515 63.7897C55.4955 63.3966 55.6429 56.6636 55.1515 55.7299C54.66 54.7962 52.1535 56.4179 50.974 56.6636C49.7945 56.9094 47.5338 55.6316 46.7475 55.7299Z" stroke="black" stroke-width="2"/>
<path d="M46.7475 68.5522C46.1184 68.6309 46.2211 69.4859 46.2211 70.7088C46.0572 72.9039 46.3051 76.6906 46.5017 77.0052C46.7474 77.3983 50.2807 76.1332 50.7722 76.084C51.2636 76.0349 54.8074 77.0052 55.1515 76.612C55.4955 76.2188 55.6429 69.4859 55.1515 68.5522C54.66 67.6185 52.1535 69.2402 50.974 69.4859C49.7945 69.7316 47.5338 68.4538 46.7475 68.5522Z" stroke="black" stroke-width="2"/>
<path d="M22.924 50.7798C22.4823 51.345 21.8518 53.4186 24.0143 54.6907C26.7174 56.2808 29.4204 56.7048 33.6073 56.8638C36.9569 56.991 43.2003 57.0935 45.9033 57.1288V62.1108C41.3099 61.9165 31.5403 61.4536 29.2084 61.1568C26.2934 60.7858 23.5373 59.4608 22.6364 58.2948C21.7354 57.1288 22.1668 53.6616 22.5055 51.9216" stroke="black" stroke-width="2"/>
<path d="M76.4334 52.1338C77.2591 53.1283 78.7837 55.9493 77.2975 58.1111C75.4398 60.8135 69.3598 61.3202 66.6576 61.489C64.4958 61.6242 58.5885 61.9207 55.905 62.052C55.905 60.2881 55.9402 57.602 56.2555 57.5119C56.6495 57.3993 66.3987 57.1937 68.8758 56.8559C71.3528 56.5181 75.4959 55.2402 76.6782 53.8327" stroke="black" stroke-width="2"/>
<path d="M22.8165 67.709C21.9603 68.9841 21.2647 71.5453 24.2377 73.5564C27.954 76.0703 36.3152 75.5784 37.2442 75.6331C37.9874 75.6768 43.201 75.2141 45.7149 75.1959C45.9335 73.5928 46.2395 70.8349 45.7149 70.8786C45.0591 70.9332 32.2711 71.1518 30.4677 70.8786C28.6642 70.6053 24.4675 70.0195 23.1012 68.4893" stroke="black" stroke-width="2"/>
<path d="M76.4263 66.7627C77.4681 68.7658 78.0255 71.9191 76.4263 73.1573C74.4272 74.705 66.7533 75.3499 63.0776 75.4789C60.137 75.582 57.1664 75.5218 56.0486 75.4789C56.0485 73.9097 56.1516 70.7585 56.5643 70.7069C57.0802 70.6424 64.5606 70.7069 68.6232 70.2555C71.8734 69.8944 74.8885 69.081 75.9418 68.5437" stroke="black" stroke-width="2"/>
<path d="M50.8083 47.5728V56.0628" stroke="black" stroke-width="2"/>
<path d="M50.6948 63.7195V69.3785" stroke="black" stroke-width="2"/>
<path d="M29.574 56.8304L23.03 54.4688V58.7002L29.9184 61.1112L41.5106 62.1038V57.1534L29.574 56.8304Z" fill="black"/>
<path d="M29.3153 71.2171L22.7712 68.8555V73.0869L29.6596 75.4979L41.2518 75.8837V71.2171H29.3153Z" fill="black"/>
<path d="M41.9225 41.7083L29.0751 41.0757L28.3496 45.4893L41.9225 45.974V41.7083Z" fill="black"/>
<path d="M70.4445 39.9165L56.3164 41.1748L56.6024 46.2656L71.2454 44.3209L70.4445 39.9165Z" fill="black"/>
<path d="M71.0441 56.5082L56.1722 57.7156L55.6003 62.1008L69.3281 61.2111L75.9378 59.4951V55.0464L71.0441 56.5082Z" fill="black"/>
<path d="M56.5534 75.4475L56.1084 70.4902C58.8752 70.2353 62.9927 70.8162 66.6585 70.4902C71.5254 70.0574 75.7055 68.7452 75.9375 68.7742L76.3188 73.3502C75.0901 73.8586 72.5564 74.8882 72.2513 74.9391C71.9462 74.9899 61.6589 75.2992 56.5534 75.4475Z" fill="black"/>
<path d="M48.1209 22.5164L42.5271 19.0669V23.4952L44.2052 28.2033L46.9088 31.0934L49.0531 34.7759L50.3583 36.1278L52.0364 32.6317L54.8799 29.4152L56.325 24.4275L56.8843 20.6983L52.5958 22.5164H48.1209Z" fill="black"/>
</svg>
