<svg width="100" height="100" viewBox="0 0 100 100" fill="none" xmlns="http://www.w3.org/2000/svg">
<path d="M77.7656 47.2687C83.421 36.2361 78.6838 22.6104 67.1457 17.5675C57.2021 13.2244 45.3403 17.0957 39.8695 26.4584C36.9299 31.4876 36.2476 37.1473 37.4673 42.3264C38.7067 47.6254 37.8431 53.1988 35.362 58.0366L34.5073 59.7047L54.4268 69.9164L55.5105 67.8058C57.9117 63.1198 61.8799 59.3972 66.7546 57.3935C71.3406 55.5108 75.3155 52.0363 77.7656 47.2687Z" stroke="black" stroke-width="2" stroke-miterlimit="10"/>
<path d="M46.9906 79.284L30.7683 70.9618C29.4741 70.2977 28.9618 68.7124 29.6259 67.4182L29.8343 66.8247C30.7052 64.9444 30.5597 63.7562 31.7622 65.1475L49.5637 74.2739C50.8579 74.938 51.3702 76.5233 50.7061 77.8175L50.5415 78.1433C49.8775 79.4374 48.2848 79.9481 46.9906 79.284Z" stroke="black" stroke-width="2" stroke-miterlimit="10"/>
<path d="M39.1034 81.5615L33.5251 78.7008C31.3442 77.5862 30.4882 74.9075 31.6012 72.7339L32.1455 71.6676L45.6203 78.5802L45.076 79.6466C43.9557 81.8185 41.2843 82.6761 39.1034 81.5615Z" stroke="black" stroke-width="2" stroke-miterlimit="10"/>
<path fill-rule="evenodd" clip-rule="evenodd" d="M67.2224 17.5851C78.7605 22.628 83.4977 36.2536 77.8423 47.2863C75.3922 52.0539 71.4172 55.5284 66.8297 57.4184C61.9549 59.4222 57.9867 63.1447 55.5855 67.8307C54.9891 68.9934 53.5539 69.4541 52.3912 68.8577L34.584 59.7223L35.4387 58.0542C37.9197 53.2163 38.7833 47.6429 37.5439 42.3439C36.3243 37.1649 37.0082 31.4978 39.9461 26.476C45.4169 17.1133 57.2788 13.2419 67.2224 17.5851ZM55.4646 28.7611C58.5856 27.2635 60.4016 24.5613 59.5207 22.7254C58.6398 20.8896 55.3957 20.6153 52.2747 22.1128C49.1537 23.6103 47.3377 26.3125 48.2186 28.1484C49.0995 29.9843 52.3436 30.2586 55.4646 28.7611ZM47.4745 40.9806C47.3641 40.5361 46.9143 40.2653 46.4699 40.3757C46.0254 40.4861 45.7546 40.9359 45.8649 41.3804C46.0431 42.0978 46.3208 42.9686 46.7773 43.7658C47.1309 44.3834 47.6093 44.9866 48.2578 45.4302L43.8454 63.6821L44.7741 63.9066L45.5081 64.5378L57.7399 50.3144C58.4997 50.6205 59.3028 50.6812 60.0462 50.6238C61.0064 50.5496 61.9288 50.2741 62.6581 50.0017C63.0871 49.8414 63.305 49.3637 63.1447 48.9347C62.9845 48.5057 62.5068 48.2878 62.0777 48.448C61.4208 48.6934 60.6616 48.9128 59.9184 48.9702C59.1757 49.0276 58.5112 48.9192 57.9758 48.5795L57.9757 48.5794C57.3656 48.1924 57.1285 47.6526 56.7965 46.8626L56.7859 46.8374C56.4705 46.0866 56.0509 45.0877 54.9101 44.4756L54.9072 44.4741C53.7211 43.8436 52.6047 44.0795 51.7675 44.2564L51.7334 44.2636C50.843 44.4515 50.2317 44.5682 49.5516 44.2621L49.5511 44.2619C49.0019 44.0151 48.5655 43.5512 48.2166 42.9417C47.8671 42.3314 47.6346 41.625 47.4745 40.9806ZM56.3578 49.3779C55.8065 48.7922 55.5261 48.1226 55.3014 47.5858L55.2675 47.5052C54.9408 46.7277 54.7086 46.2502 54.1274 45.9378C53.5167 45.6138 52.9544 45.7009 52.076 45.8863L51.9868 45.9052C51.387 46.0326 50.6387 46.1915 49.8124 46.0577L46.1363 61.2638L56.3578 49.3779Z" fill="black"/>
<path d="M50.7062 74.858L32.1919 65.3658C30.8977 64.7017 30.3854 63.1164 31.0495 61.8222L31.4275 61.089C32.0916 59.7948 33.6769 59.2826 34.9711 59.9466L53.0151 69.1961C55.3258 70.3857 54.2497 73.7156 54.2497 73.7156C53.0446 76.0615 52.0003 75.5221 50.7062 74.858Z" stroke="black" stroke-width="2" stroke-miterlimit="10"/>
</svg>
