<svg width="100" height="100" viewBox="0 0 100 100" fill="none" xmlns="http://www.w3.org/2000/svg">
<path d="M55.7925 58.2102C55.7925 58.2102 60.6195 54.2802 58.7405 49.1142C56.5215 43.0102 46.0195 32.2062 39.4105 26.4472C33.0105 20.8712 13.2125 32.4382 19.0705 43.5902C22.4605 50.0442 33.4455 61.9252 39.7325 65.4812C45.4605 68.7202 51.1725 63.8292 51.1725 63.8292" stroke="black" stroke-width="2" stroke-miterlimit="10" stroke-linecap="round"/>
<path d="M51.6216 53.1267C51.7826 52.3067 52.0696 52.1517 51.5746 50.6187C50.5416 47.4187 40.6086 36.4097 37.1866 33.4287C33.8736 30.5427 23.7076 37.0267 26.7406 42.7997C28.4956 46.1407 38.4236 56.1347 41.2386 58.5947C43.7736 60.8107 45.7476 57.7367 45.7476 57.7367" stroke="black" stroke-width="2" stroke-miterlimit="10" stroke-linecap="round"/>
<path d="M58.8561 52.5C58.8561 54.5 57.1895 57.3333 56.3561 58.5C57.1895 60 59.5561 63.5 62.3561 65.5C65.856 68 68.3561 67.5 70.8561 66.5C73.3561 65.5 74.8561 62.5 74.8561 60C74.8561 57.5 67.8561 49.5 66.8561 48.5C65.8561 47.5 60.8561 42 58.8561 42C56.8561 42 54.3561 43 55.8561 44C57.3561 45 58.8561 50 58.8561 52.5Z" fill="black"/>
<path d="M44.7205 42.2441C44.7205 42.2441 39.0805 46.9491 42.5245 52.4761C46.3795 58.6631 57.0105 70.6201 63.1865 74.3661C70.3825 78.7311 85.2175 67.3621 82.1945 58.0001C80.1985 51.8181 69.8635 40.6111 62.8635 35.3331C57.7485 31.4761 50.8955 37.0221 50.8955 37.0221" stroke="black" stroke-width="2" stroke-miterlimit="10" stroke-linecap="round"/>
<path d="M49.9065 48.3742C49.9065 48.3742 48.6975 48.8382 50.1935 51.6852C51.9485 55.0262 61.4955 65.5412 64.6925 67.4812C68.4175 69.7412 76.5935 64.3512 75.0285 59.5042C73.9955 56.3042 63.9345 45.4362 60.6405 42.3152C59.0525 40.8102 55.5915 42.7202 55.5915 42.7202" stroke="black" stroke-width="2" stroke-miterlimit="10" stroke-linecap="round"/>
<path d="M45.0365 58.874L49.8635 64.337" stroke="black" stroke-width="2" stroke-miterlimit="10" stroke-linecap="round"/>
<path d="M44.0905 43.0693L49.4845 49.8493" stroke="black" stroke-width="2" stroke-miterlimit="10" stroke-linecap="round"/>
</svg>
