<svg width="37" height="37" viewBox="0 0 37 37" fill="none" xmlns="http://www.w3.org/2000/svg">
<rect width="37" height="37" rx="4.76751" fill="#EBEBEB"/>
<path d="M15.6738 20.9308C15.6738 19.6475 15.6762 18.3641 15.6738 17.0808C15.6717 16.153 16.0774 15.6672 17.0558 15.7471C17.8307 15.8101 18.6317 15.5987 19.3553 16.1147C19.7013 16.361 20.071 16.0664 20.4173 15.9238C23.1598 14.7868 26.5514 15.8944 26.412 19.9027C26.3589 21.4485 26.4257 22.998 26.3836 24.5445C26.3449 25.9652 25.9509 26.2592 24.3242 26.2301C22.8168 26.2026 22.5479 25.9721 22.5356 24.5633C22.5249 23.356 22.5667 22.1484 22.5849 20.9408C22.5924 20.4454 22.5441 19.9637 22.306 19.5132C21.9977 18.9284 21.5523 18.5772 20.8603 18.6344C20.1864 18.6899 19.7575 19.0455 19.5293 19.6838C19.2155 20.5608 19.307 21.4752 19.2597 22.3752C19.2254 23.0145 19.2837 23.6582 19.2662 24.2992C19.2189 26.0546 18.0051 26.8344 16.3446 26.1698C15.6686 25.9005 15.5885 25.2989 15.5909 24.6671C15.5967 23.4222 15.5926 22.1772 15.5926 20.9329L15.6738 20.9308ZM16.4789 20.9887C16.4789 22.0809 16.509 23.1741 16.4683 24.2649C16.4415 24.9786 16.5734 25.4082 17.4275 25.4054C18.2634 25.403 18.4529 24.956 18.4505 24.2632C18.445 22.8322 18.4639 21.4029 18.6495 19.9808C18.7321 19.3467 18.9579 18.8503 19.5369 18.5022C20.4149 17.9753 21.3156 17.8605 22.2091 18.3532C23.2876 18.9458 23.3948 20.0346 23.3965 21.1042C23.3982 22.232 23.305 23.3595 23.2571 24.4876C23.2266 25.2071 23.6706 25.3626 24.278 25.366C24.8488 25.3695 25.3558 25.3345 25.3667 24.5781C25.3931 22.7712 25.5401 20.9538 25.29 19.162C24.956 16.7714 23.1827 15.7789 20.9274 16.6207C20.5403 16.765 20.1642 16.9376 19.8024 17.137C19.3268 17.3997 18.9962 17.546 18.6259 16.8934C18.2761 16.2767 17.5371 16.5052 16.9671 16.6032C16.3422 16.7108 16.4929 17.2856 16.4857 17.7125C16.4676 18.804 16.4792 19.8965 16.4792 20.9887H16.4789Z" fill="#212121"/>
<path d="M10.6046 20.9326C10.6046 19.6503 10.5964 18.368 10.6074 17.0857C10.6163 16.0301 11.1175 15.4707 12.2199 15.5296C12.6334 15.5515 13.0494 15.5344 13.4642 15.5372C14.3444 15.5426 14.8127 16.0188 14.8171 16.8661C14.8305 19.4304 14.8545 21.9964 14.7743 24.5586C14.7294 25.9975 14.3954 26.2154 12.9469 26.2308C10.7156 26.2552 10.581 26.1205 10.583 23.8752C10.5842 22.8956 10.5847 21.9147 10.5847 20.9326H10.6046ZM13.9521 20.9203H13.9788C13.9788 19.7168 13.9367 18.5115 13.9925 17.3108C14.036 16.3786 13.5393 16.2559 12.7986 16.3049C12.1432 16.3481 11.4035 16.1336 11.422 17.2433C11.4628 19.6493 11.4563 22.0567 11.422 24.4627C11.4107 25.2736 11.8379 25.4299 12.4817 25.361C13.0812 25.2973 13.9548 25.6755 13.9511 24.5295C13.95 23.3277 13.9521 22.1245 13.9521 20.9217V20.9203Z" fill="#212121"/>
<path d="M12.7949 14.7695C11.5886 14.7822 10.6883 13.9401 10.6674 12.7798C10.6461 11.5934 11.5139 10.6214 12.6143 10.5981C13.7812 10.5735 14.7658 11.519 14.8052 12.7023C14.8467 13.9456 14.0566 14.7565 12.7949 14.7695Z" fill="#212121"/>
</svg>
