<svg width="100" height="100" viewBox="0 0 100 100" fill="none" xmlns="http://www.w3.org/2000/svg">
<rect x="28" y="42" width="44" height="33" rx="3" transform="rotate(-3.18512 28 42)" stroke="black" stroke-width="2" stroke-miterlimit="10"/>
<path fill-rule="evenodd" clip-rule="evenodd" d="M29.595 70.6581C23.6831 71.7506 20.0001 73.2911 20.0001 74.9981C20.0001 78.3119 33.8793 80.9981 51.0001 80.9981C68.1209 80.9981 82.0001 78.3119 82.0001 74.9981C82.0001 73.3857 78.7138 71.9218 73.3668 70.8437C72.9342 71.8634 71.951 72.6034 70.7703 72.6691L32.829 74.7805C31.1747 74.8725 29.759 73.6061 29.667 71.9518L29.595 70.6581Z" fill="black"/>
<circle cx="50.2701" cy="55.7145" r="5" transform="rotate(-3.18512 50.2701 55.7145)" fill="black"/>
<rect x="49" y="60" width="3" height="7" transform="rotate(-3.18512 49 60)" fill="black"/>
<path d="M48.4424 18.6498C32.717 19.5249 33.0855 36.9392 33.4082 41.1653C33.448 41.6868 33.9003 42.0609 34.4225 42.0318L40.0645 41.7179C40.6561 41.685 41.0952 41.1473 41.0356 40.5579C40.6605 36.8456 40.1406 24.9715 48.7675 24.4915C57.3944 24.0114 58.1952 35.8699 58.2342 39.6008C58.2404 40.1932 58.7364 40.6788 59.328 40.6459L64.9701 40.3319C65.4923 40.3029 65.9003 39.8809 65.882 39.3582C65.7338 35.1224 64.1679 17.7747 48.4424 18.6498Z" stroke="black" stroke-width="2" stroke-miterlimit="10"/>
</svg>
