<svg width="100" height="100" viewBox="0 0 100 100" fill="none" xmlns="http://www.w3.org/2000/svg">
<path d="M40.1909 44.1276L78.1899 43.9756C79.8469 43.9696 81.1959 45.3076 81.2019 46.9636L81.3099 73.9636C81.3169 75.6206 79.9789 76.9696 78.3219 76.9756L40.3229 77.1276C38.6659 77.1346 37.3169 75.7966 37.3109 74.1396L37.2029 47.1396C37.1959 45.4836 38.5339 44.1346 40.1909 44.1276Z" stroke="black" stroke-width="2" stroke-miterlimit="10"/>
<path d="M53.7239 59.0042C53.7129 56.2422 55.9418 53.9952 58.7038 53.9842C61.4648 53.9732 63.7129 56.2022 63.7239 58.9642C63.7349 61.7252 61.5049 63.9732 58.7439 63.9842C55.9819 63.9952 53.7349 61.7652 53.7239 59.0042Z" fill="black"/>
<path d="M57.2339 63.1985L60.2339 63.1865L60.2619 70.1865L57.2619 70.1985L57.2339 63.1985Z" fill="black"/>
<path d="M35.3619 21.0002C19.6119 20.9302 18.9349 38.3352 19.0039 42.5732C19.0109 43.0952 19.4409 43.4962 19.9639 43.4982L25.6149 43.5242C26.2079 43.5262 26.6779 43.0162 26.6539 42.4242C26.5019 38.6962 26.6959 26.8122 35.3359 26.8512C43.9759 26.8902 44.0639 38.7752 43.8789 42.5012C43.8489 43.0932 43.4819 44.0832 44.0739 44.0852L51.3139 44.0192C51.8369 44.0222 51.5138 43.2412 51.5268 42.7182C51.6328 38.4812 51.1119 21.0712 35.3619 21.0002Z" stroke="black" stroke-width="2" stroke-miterlimit="10"/>
<path d="M37.1769 72.7341C37.1769 72.7341 19.1329 76.7941 27.5949 78.4981C40.4739 81.0901 78.4689 76.9751 78.4689 76.9751C78.4689 76.9751 50.3089 77.7091 40.0509 77.0731C37.6849 76.9271 37.3669 74.3661 37.3669 74.3661L37.1769 72.7341Z" fill="black" stroke="black" stroke-width="2" stroke-miterlimit="10"/>
</svg>
