<svg width="100" height="100" viewBox="0 0 100 100" fill="none" xmlns="http://www.w3.org/2000/svg">
<path d="M23.251 78.8419C22.4415 78.5991 22.2392 76.515 22.2393 75.5033C22.2393 75.0634 23.1421 77.5076 24.6659 77.2925C29.8027 77.7053 43.8205 78.7991 55.8994 79.1729C61.0524 79.3324 66.6837 77.6925 69.9339 77.7053C70.6677 76.3752 71.6446 75.9355 72.3484 75.9867C76.6087 76.2965 78.4554 78.4377 77.5259 79.8319C76.5964 81.2262 67.8601 82.058 63.6773 82.1354C59.4946 82.2129 41.0572 81.27 33.9245 80.663C26.7919 80.056 24.2628 79.1455 23.251 78.8419Z" fill="black"/>
<path d="M28.3776 29.7021C26.6992 34.7375 23.4309 42.9936 23.4308 47.0166C23.4307 51.0396 22.3792 76.2434 23.4308 77.582C24.4824 78.9205 60.5335 79.3899 60.5335 79.3899M60.5335 79.3899L70.8692 77.582C70.8692 77.582 71.7414 50.3176 70.8692 47.0166C69.9969 43.7156 65.6572 30.8505 65.6572 30.8505C65.6572 30.8505 61.0411 44.3784 60.5335 47.0166C60.0259 49.6548 60.5335 79.3899 60.5335 79.3899Z" stroke="black" stroke-width="2" stroke-miterlimit="10" stroke-linecap="round"/>
<path d="M66.1146 49.6504V72.7069L61.1681 78.7169" stroke="black" stroke-width="2" stroke-miterlimit="10" stroke-linecap="round"/>
<path d="M66.293 72.6182L70.5922 76.9962" stroke="black" stroke-width="2" stroke-miterlimit="10" stroke-linecap="round"/>
<path d="M62.5938 29.7742C62.5938 30.4661 27.2526 29.7742 27.2526 29.7742C27.2526 29.7742 25.0386 29.0674 25.0386 26.4173C25.0386 23.7671 27.2526 23.0603 27.2526 23.0603C27.2526 23.0603 63.7131 22.4962 62.5938 23.0603C61.4744 23.6245 61.1998 24.9155 61.1998 26.4173C61.1998 27.919 62.5938 29.0823 62.5938 29.7742Z" stroke="black" stroke-width="2" stroke-miterlimit="10" stroke-linecap="round"/>
<path d="M62.5419 23.0422C66.6177 22.7024 65.9454 29.2536 66.4754 32.2074" stroke="black" stroke-width="2" stroke-miterlimit="10" stroke-linecap="round"/>
</svg>
