<svg width="100" height="100" viewBox="0 0 100 100" fill="none" xmlns="http://www.w3.org/2000/svg">
<path d="M42.3533 41.2657C41.8573 39.6857 43.8402 37.6057 43.6172 34.7857C43.3942 31.9657 38.4812 26.0787 32.3182 34.8457C26.1542 43.6057 22.9853 50.1857 21.4263 58.9557C19.8663 67.7157 18.2822 79.3957 24.2972 79.6257C30.3132 79.8457 31.7983 76.3557 36.4023 77.0257C41.0063 77.6957 45.6172 76.6958 46.3602 71.7158C47.1022 66.7458 45.2392 63.6558 45.6852 59.7158C46.1302 55.7858 48.3583 52.1457 46.2053 48.6557C44.0513 45.1657 43.3223 44.3557 42.3533 41.2657Z" stroke="black" stroke-width="2" stroke-miterlimit="10" stroke-linejoin="round"/>
<path d="M56.7623 40.536C57.2583 38.956 55.2752 36.876 55.4982 34.056C55.7212 31.236 60.6332 25.354 66.8002 34.116C72.9602 42.876 76.1303 49.466 77.6903 58.226C79.2503 66.986 80.8303 78.676 74.8203 78.896C68.8003 79.116 67.3203 75.626 62.7103 76.296C58.1083 76.966 53.4983 75.9659 52.7553 70.9959C52.0133 66.0159 53.8763 62.9259 53.4303 58.9959C52.9843 55.0559 50.7573 51.416 52.9103 47.926C55.0643 44.436 55.7933 43.636 56.7623 40.536Z" stroke="black" stroke-width="2" stroke-miterlimit="10" stroke-linejoin="round"/>
<path d="M42.9923 38.5557C42.9923 38.5557 47.2273 36.5057 47.6893 35.2957C48.1503 34.0857 48.0232 28.6657 47.7872 26.2487C47.6042 24.3797 47.5703 22.2457 47.6033 20.8427C47.6643 18.2957 51.9893 18.3387 52.1163 21.2867C52.2653 24.7827 52.2653 27.1947 52.1513 29.7457C52.0363 32.2957 51.8343 34.5257 52.4733 35.8057C53.1123 37.0757 56.7683 39.8557 56.7683 39.8557C56.7683 39.8557 56.5572 41.3956 55.9382 42.2756C55.3202 43.1556 54.8983 44.1057 54.8983 44.1057C54.8983 44.1057 51.5242 40.1457 49.4722 40.3157C46.7092 40.5457 43.4543 43.1757 43.4543 43.1757C43.4543 43.1757 42.5473 41.9056 42.4773 40.7056C42.4073 39.5056 42.9923 38.5557 42.9923 38.5557Z" stroke="black" stroke-width="2" stroke-miterlimit="10" stroke-linejoin="round"/>
<path d="M71.8502 42.0654C73.8702 46.5154 69.7202 51.4054 66.4702 54.2554C64.7402 55.7654 62.1802 56.6454 62.1802 56.6454" stroke="black" stroke-width="2" stroke-miterlimit="10" stroke-linecap="round" stroke-linejoin="round"/>
<path d="M76.6002 53.5156C77.6002 56.8656 75.0601 59.5456 74.3101 60.5356C72.4701 62.9756 68.2101 64.9557 63.3601 66.2057" stroke="black" stroke-width="2" stroke-miterlimit="10" stroke-linecap="round" stroke-linejoin="round"/>
<path d="M78.7401 65.2949C78.9201 68.2849 76.8301 69.655 76.1301 70.215C75.0101 71.125 72.3601 72.7749 69.1501 73.5549" stroke="black" stroke-width="2" stroke-miterlimit="10" stroke-linecap="round" stroke-linejoin="round"/>
<path d="M27.4392 42.4658C26.1692 45.2758 29.4782 51.3258 32.7332 54.1758C34.4632 55.6858 37.0212 56.5659 37.0212 56.5659" stroke="black" stroke-width="2" stroke-miterlimit="10" stroke-linecap="round" stroke-linejoin="round"/>
<path d="M22.6273 53.8652C22.2923 55.7352 23.7123 58.3452 24.4163 59.3752C27.4783 63.8452 30.9883 64.8752 35.8413 66.1252" stroke="black" stroke-width="2" stroke-miterlimit="10" stroke-linecap="round" stroke-linejoin="round"/>
<path d="M20.4574 65.2158C20.2764 68.1958 22.6393 69.4558 23.4033 69.9158C25.8273 71.3758 26.8374 72.6958 30.0514 73.4758" stroke="black" stroke-width="2" stroke-miterlimit="10" stroke-linecap="round" stroke-linejoin="round"/>
<path d="M46.0543 57.666C45.2603 63.016 46.1503 65.016 47.0443 68.406C47.9383 71.796 47.4033 75.2561 44.6093 76.9661C41.8143 78.6861 39.5712 78.2361 36.7402 77.9761C33.9082 77.7161 30.8762 78.406 28.2682 79.496C25.6602 80.576 23.2453 80.696 21.3063 77.906" stroke="black" stroke-width="2" stroke-miterlimit="10" stroke-linejoin="round"/>
<path d="M53.0161 56.7461C54.0281 60.0661 52.4482 62.1461 52.1892 65.5061C52.1082 66.5561 51.9482 70.1661 52.1032 71.6661C52.2902 73.4661 53.3732 76.1862 55.6832 77.0862C57.9922 77.9762 62.1502 75.9262 64.6902 76.5962C67.2402 77.2662 68.5302 78.1762 70.7502 78.9562C72.9602 79.7362 76.6402 79.8162 78.0002 76.8362" stroke="black" stroke-width="2" stroke-miterlimit="10" stroke-linejoin="round"/>
</svg>
