<svg width="100" height="100" viewBox="0 0 100 100" fill="none" xmlns="http://www.w3.org/2000/svg">
<g clip-path="url(#clip0_65_20700)">
<path d="M39.3307 30.4401C39.3307 30.5101 39.3307 37.1601 43.2207 40.9301C45.1207 42.7601 47.6607 43.6301 50.8007 43.5101C54.0307 43.3901 56.5407 42.3101 58.2607 40.3101C61.6407 36.3701 60.9707 30.0601 60.9607 30.0001C60.9407 29.8601 60.9607 29.7301 61.0007 29.6001C60.6607 29.4101 60.3507 29.2001 60.0707 28.9601C56.8107 26.1801 57.3607 22.6801 57.3907 22.5401C57.4407 22.2501 57.3607 21.9501 57.1707 21.7201C56.9807 21.4901 56.7007 21.3601 56.4007 21.3601H43.6907C43.3907 21.3601 43.1007 21.5001 42.9107 21.7301C42.7207 21.9701 42.6507 22.2701 42.7107 22.5701C42.7107 22.6101 43.5407 26.6101 40.3607 29.2901C40.0307 29.5701 39.6407 29.8001 39.2207 30.0001C39.2807 30.1301 39.3307 30.2801 39.3307 30.4401Z" fill="black"/>
<path d="M39.9598 47.92C40.8198 47.43 41.5498 46.9 41.6798 46.63C41.7998 46.36 41.6698 45.47 41.3998 44.52C40.6698 44.91 40.0698 45.33 39.9398 45.56C39.6598 46.3 39.7798 47.21 39.9598 47.92Z" fill="black"/>
<path d="M72.2399 36.1002C72.1599 32.7702 68.8799 31.9702 65.7099 31.1902C64.7999 30.9702 63.8699 30.7402 62.9999 30.4502C63.0999 32.3502 63.0699 37.7602 59.7799 41.5902C59.4799 41.9402 59.1499 42.2702 58.8099 42.5702C59.7599 42.9402 61.9199 43.9102 62.4599 45.1902C63.0099 46.5002 62.2899 49.0202 62.0499 49.7602C61.9199 50.1802 61.5199 50.4602 61.0999 50.4602C61.0099 50.4602 60.9199 50.4502 60.8299 50.4202C60.7099 50.3902 57.9899 49.6002 56.8799 47.4702C56.3999 46.5502 56.7199 44.9602 57.0299 43.8702C55.6799 44.6402 54.1299 45.1402 52.3799 45.3702C53.3899 46.5602 54.6999 48.4602 54.8199 50.3502C54.9899 53.3602 51.7099 56.4702 51.3399 56.8102C51.1499 56.9902 50.9099 57.0702 50.6599 57.0702C50.4099 57.0702 50.1799 56.9802 49.9899 56.8102C49.8499 56.6902 46.6199 53.7402 46.4399 50.7402C46.3299 48.7702 47.6799 46.7002 48.7299 45.4102C46.5999 45.2002 44.7399 44.5302 43.1499 43.4002C43.5199 44.4902 44.0099 46.3602 43.4899 47.4502C42.8899 48.7302 40.5299 49.8802 39.8199 50.2002C39.6899 50.2602 39.5499 50.2902 39.4099 50.2902C39.0399 50.2902 38.6799 50.0802 38.5099 49.7302C38.4599 49.6202 37.2299 47.0702 38.0699 44.8202C38.5299 43.5702 40.6999 42.5602 41.5999 42.1802C41.6299 42.1702 41.6599 42.1802 41.6899 42.1602C37.6999 38.1402 37.3599 31.8602 37.3399 30.6102C36.3299 30.8502 35.2599 31.0102 34.2499 31.1502C31.4199 31.5402 28.4999 31.9402 28.0099 34.5102C27.4199 37.5302 27.6899 44.5302 30.2099 55.1302C32.6499 65.3302 34.4399 69.0002 37.6999 75.6802L37.7799 75.8502C38.4099 77.1302 40.4699 78.6102 50.8999 78.6102C60.5999 78.6102 62.3999 77.0102 62.9099 75.8002C65.9899 68.5302 67.4399 63.2802 69.7399 53.5202C72.1399 43.3102 72.3199 38.6702 72.2499 36.0702L72.2399 36.1002Z" fill="black"/>
<path d="M60.4399 48.12C60.6599 47.15 60.7499 46.26 60.6299 45.98C60.5099 45.71 59.7599 45.22 58.8699 44.78C58.6699 45.59 58.5799 46.32 58.6599 46.56C59.0499 47.29 59.8199 47.8 60.4399 48.11V48.12Z" fill="black"/>
</g>
<defs>
<clipPath id="clip0_65_20700">
<rect width="100" height="100" fill="white"/>
</clipPath>
</defs>
</svg>
