<svg width="100" height="100" viewBox="0 0 100 100" fill="none" xmlns="http://www.w3.org/2000/svg">
<path d="M48.1234 24.4274C46.3889 24.7632 27.4797 28.0682 18.242 29.6788C17.247 29.8523 45.929 74.2996 46.5147 74.2952C47.1003 74.2908 54.446 73.2181 60.433 71.9871C67.9166 70.4484 82.954 62.7549 82.884 62.1954C82.8141 61.6358 54.0683 23.3082 53.5787 23.0284C53.0891 22.7487 50.2915 24.0076 48.1234 24.4274Z" stroke="black" stroke-width="2" stroke-linecap="round"/>
<path d="M18.0913 29.9962C18.0913 29.9962 17.6221 32.9427 17.9992 33.6792C18.3762 34.4156 45.8406 77.4907 46.2425 77.5309C46.6444 77.5711 46.5287 75.5025 46.499 74.4899" stroke="black" stroke-width="2" stroke-linecap="round"/>
<path d="M46.6309 77.9737C49.5605 77.6727 55.9857 77.2792 59.5874 76.5661C73.3601 73.8393 80.8451 70.719 81.4471 70.3578C81.9287 70.0688 81.7933 67.258 81.4471 67.2993C81.1009 67.3406 63.9249 72.7917 48.9685 73.9827" stroke="black" stroke-width="2" stroke-linecap="round"/>
<path d="M81.4802 67.2607C81.1649 66.3734 79.9525 64.7473 79.5322 64.4951" stroke="black" stroke-width="2" stroke-linecap="round"/>
<path d="M40.0361 49.7981C40.8849 48.992 42.8646 48.4543 44.1104 48.4825C45.6678 48.5178 47.47 50.5256 47.9301 52.2598C48.8223 55.6227 48.9911 56.6737 51.7922 55.4429" stroke="black" stroke-width="2" stroke-linecap="round"/>
<path d="M49.4658 46.4564C49.9349 45.7899 51.3913 44.4569 54.1685 44.4569" stroke="black" stroke-width="2" stroke-linecap="round"/>
<path d="M37.1884 43.9395C37.5233 46.4266 36.4723 48.6772 40.0042 51.4483C42.1727 53.1496 42.8008 55.654 44.2588 56.9981C46.5607 59.1201 53.8171 64.5547 56.4885 64.869C61.006 65.4005 66.1524 59.3692 67.4881 56.305C68.1086 54.8814 68.1559 53.8048 67.9983 52.692" stroke="black" stroke-width="2" stroke-linecap="round"/>
<path d="M69.2383 53.002C70.8565 54.5663 71.7337 56.2692 73.3737 57.1754C75.0136 58.0816 75.4242 58.1107 76.7728 58.3624" stroke="black" stroke-width="2" stroke-linecap="round"/>
<path d="M60.9385 63.793C63.9856 64.8903 64.1094 66.8267 64.7713 67.6924" stroke="black" stroke-width="2" stroke-linecap="round"/>
<path d="M63.5312 42.9941C64.79 43.3539 67.3291 44.494 67.4153 46.177C67.5231 48.2807 67.0879 48.8227 65.9011 49.0385C64.9517 49.2111 64.0527 48.9409 63.5312 48.5453" stroke="black" stroke-width="2" stroke-linecap="round"/>
<path d="M52.7391 58.5851C52.0489 58.5851 51.8092 59.9013 51.6794 60.5043C51.2502 61.6583 53.7691 60.969 55.2179 60.356C56.1589 59.9579 57.9991 57.6369 57.9712 57.3029C57.9434 56.969 54.9929 57.2556 54.5203 57.7283C53.9115 58.3371 53.6019 58.585 52.7391 58.5851Z" fill="black" stroke="black" stroke-width="2" stroke-linecap="round"/>
<path d="M65.7658 39.1006C66.0895 40.9352 64.5249 43.093 61.9891 43.0931C59.4534 43.0932 56.5936 39.4785 49.0942 39.8562C44.7834 40.0733 38.6503 42.7985 38.0713 43.0931C36.2478 44.0207 34.0595 43.9637 32.1631 43.4783" stroke="black" stroke-width="2" stroke-linecap="round"/>
<ellipse cx="43.0979" cy="50.1334" rx="1.70923" ry="1.49185" fill="black"/>
<ellipse cx="52.4592" cy="45.9489" rx="1.70923" ry="1.49185" fill="black"/>
<path d="M30.0546 39.6763C28.8045 37.5727 26.4431 33.596 26.7724 33.4496C27.184 33.2666 30.6486 35.0303 30.923 34.9389C31.1974 34.8474 32.2466 31.2619 32.9326 31.6735C33.4814 32.0028 35.1474 36.2047 36.1535 37.8663" stroke="black" stroke-width="2" stroke-linecap="round"/>
<path d="M39.4145 36.957C39.1706 34.8838 39.2652 30.2385 39.8506 30.1653C40.5824 30.0738 45.0632 35.1414 45.1089 35.37" stroke="black" stroke-width="2" stroke-linecap="round"/>
<path d="M40.1709 34.5833L43.0977 33.3486" stroke="black" stroke-width="2" stroke-linecap="round"/>
<path d="M49.5086 27.7574C48.0323 27.4122 45.4534 28.2632 45.8702 30.9717C46.2361 33.3499 50.3674 34.4148 51.9224 33.7289C53.4773 33.0429 52.5056 31.0722 52.3226 30.6149C52.1763 30.2491 50.7255 30.6821 50.0395 30.9718" stroke="black" stroke-width="2" stroke-linecap="round"/>
<path d="M79.1694 64.6943C76.0119 66.2326 69.6095 69.319 69.2598 69.3579L71.8829 69.9407L79.8981 67.5119L81.064 66.346L79.1694 64.6943Z" fill="black"/>
<path fill-rule="evenodd" clip-rule="evenodd" d="M72.5613 52.5143C73.7615 50.8823 73.0747 48.3388 71.0275 46.8333C68.9802 45.3279 66.3477 45.4305 65.1475 47.0625C63.9474 48.6945 64.6342 51.238 66.6814 52.7434C68.7287 54.2489 71.3612 54.1463 72.5613 52.5143ZM70.4541 50.965C70.9719 50.2608 70.6756 49.1633 69.7922 48.5137C68.9088 47.864 67.7728 47.9083 67.255 48.6125C66.7371 49.3168 67.0334 50.4143 67.9168 51.0639C68.8003 51.7135 69.9362 51.6692 70.4541 50.965Z" fill="black"/>
<path d="M46.5779 74.2757V77.7849L18.2471 34.4495V30.4824L46.5779 74.2757Z" fill="black"/>
<path d="M35.3313 50.205C34.7129 49.2981 34.0774 45.8421 33.8369 44.2275L36.7226 43.6094L37.547 48.5561L40.0204 51.4932L42.6999 54.8425C44.1426 56.1822 47.0282 59.0163 47.0282 59.6346C47.0282 60.4076 44.864 60.253 43.7819 59.9953C42.6999 59.7377 40.2265 56.1307 39.7112 54.8425C39.1959 53.5543 36.1042 51.3386 35.3313 50.205Z" fill="black"/>
<path d="M66.3154 39.9824L64.1445 42.6538L64.5202 43.3219L66.691 44.4907L67.7764 46.6198L70.0725 47.0372L70.7404 46.2441L66.3154 39.9824Z" fill="black"/>
</svg>
