<svg width="100" height="100" viewBox="0 0 100 100" fill="none" xmlns="http://www.w3.org/2000/svg">
<path d="M33.1445 42.5509C40.2836 49.6898 57.5578 66.0965 60.6729 68.9522C64.5668 72.5218 71.8959 79.3007 73.8985 80.588C76.2597 82.1059 82.9551 78.4711 78.6284 73.7116C74.3017 68.9522 56.0216 50.7804 51.9113 46.9946C48.6231 43.9659 41.7135 37.0437 39.1535 34.6641" stroke="black" stroke-width="2"/>
<path d="M26.3359 34.1261C30.652 32.8938 31.8576 31.242 32.941 27.0615C34.084 30.926 35.3337 32.4881 39.0917 33.9699C35.9262 35.6128 34.2475 36.4971 32.9894 40.6101C31.5382 36.3636 29.9992 35.3154 26.3359 34.1261Z" fill="black" stroke="black" stroke-width="2"/>
<path d="M32.959 28.1353V18.624" stroke="black" stroke-width="2" stroke-linecap="round"/>
<path d="M32.959 47.5108V39.8115" stroke="black" stroke-width="2" stroke-linecap="round"/>
<path d="M39.3066 34.0693L47.0059 34.0693" stroke="black" stroke-width="2" stroke-linecap="round"/>
<path d="M20.4567 34.0693L27.6299 34.0693" stroke="black" stroke-width="2" stroke-linecap="round"/>
<path d="M44.7454 24.701C45.9417 24.2069 46.3626 23.7044 46.8093 22.5195C47.1608 23.708 47.4994 24.2453 48.6551 24.701C47.6816 25.2063 47.264 25.6435 46.8093 26.772C46.363 25.4661 45.872 25.0668 44.7454 24.701Z" fill="black" stroke="black" stroke-width="2"/>
<path d="M46.7688 22.9068L46.769 20.2139" stroke="black" stroke-width="2" stroke-linecap="round"/>
<path d="M46.7688 28.8649V26.4971" stroke="black" stroke-width="2" stroke-linecap="round"/>
<path d="M48.7205 24.7314L51.5951 24.7314" stroke="black" stroke-width="2" stroke-linecap="round"/>
<path d="M42.9231 24.7314L45.1292 24.7314" stroke="black" stroke-width="2" stroke-linecap="round"/>
<path d="M50.0283 58.4839C50.9922 56.6345 53.67 52.7638 56.6706 52.0762" stroke="black" stroke-width="2" stroke-linecap="round"/>
<path d="M52.3104 55.3745L50.2021 59.0006L74.1514 80.7571H77.1873C77.592 80.7571 79.2674 79.2955 80.0544 78.5646V75.6974L78.0306 72.6616L57.0328 52.1699L52.3104 55.3745Z" fill="black"/>
</svg>
