<svg width="100" height="100" viewBox="0 0 100 100" fill="none" xmlns="http://www.w3.org/2000/svg">
<path d="M34.0526 53.4728C34.0526 53.4728 32.0926 67.9798 32.5226 76.7778C32.6826 80.0758 44.3326 82.0348 52.5426 81.8038C60.7526 81.5738 68.3126 79.1328 68.5426 76.1198C69.2526 66.6548 66.1826 53.0388 66.1826 53.0388" stroke="black" stroke-width="2" stroke-miterlimit="10" stroke-linecap="round" stroke-linejoin="round"/>
<path d="M36.4628 69.7659L36.3027 71.7329" stroke="black" stroke-width="2" stroke-miterlimit="10" stroke-linecap="round" stroke-linejoin="round"/>
<path d="M37.3228 58.8779C37.3228 58.8779 36.9627 63.6129 36.8027 64.8369" stroke="black" stroke-width="2" stroke-miterlimit="10" stroke-linecap="round" stroke-linejoin="round"/>
<path d="M42.6924 64.6634L48.5624 62.8884L51.4524 57.9004L54.8024 62.6034L59.0123 64.2754L56.3624 67.6274L56.5724 72.5384L51.8424 69.9724L47.0824 73.0464L47.0624 67.8174L42.6924 64.6634Z" stroke="black" stroke-width="2" stroke-miterlimit="10" stroke-linejoin="round"/>
<path d="M37.6027 41.5738C37.6027 41.5738 21.1726 42.8938 22.0326 46.9728C23.4626 53.8148 44.3727 53.5858 52.9727 53.3528C61.5727 53.1208 77.2327 51.4008 77.2027 47.3148C77.1627 43.2288 60.7427 41.3328 60.7427 41.3328" stroke="black" stroke-width="2" stroke-miterlimit="10" stroke-linecap="round" stroke-linejoin="round"/>
<path d="M38.2527 44.4299C38.2527 44.4299 29.2327 45.9979 31.6927 47.6219C34.1527 49.2459 48.1427 49.9639 52.8827 49.7369C57.6327 49.5099 67.4227 48.5929 67.0827 46.9309C66.7527 45.2689 59.7227 44.6499 59.7227 44.6499" stroke="black" stroke-width="2" stroke-miterlimit="10" stroke-linecap="round" stroke-linejoin="round"/>
<path d="M45.333 49.3354C45.333 49.3354 48.933 31.1014 45.143 28.4234C41.353 25.745 34.163 26.4294 30.943 30.8574C27.723 35.2854 25.813 40.5484 28.543 39.6294C31.273 38.7114 40.213 38.4744 42.443 33.2564" stroke="black" stroke-width="2" stroke-miterlimit="10" stroke-linecap="round" stroke-linejoin="round"/>
<path d="M50.5927 43.1357L46.7227 43.2927" stroke="black" stroke-width="2" stroke-miterlimit="10" stroke-linejoin="round"/>
<path d="M50.7228 40.6228L46.8828 40.6858" stroke="black" stroke-width="2" stroke-miterlimit="10" stroke-linejoin="round"/>
<path d="M38.103 37.9648C38.103 37.9648 37.9829 40.9038 38.2929 43.6498C38.6029 46.3958 39.1329 47.6868 39.3329 48.9488" stroke="black" stroke-width="2" stroke-miterlimit="10" stroke-linecap="round" stroke-linejoin="round"/>
<path d="M39.0422 48.3291C39.1022 47.2391 38.7422 44.9961 37.4222 44.7271C36.3922 44.5171 30.8423 45.9221 31.2423 47.0561C32.0223 49.2521 38.9022 50.6881 39.0422 48.3291Z" fill="black"/>
<path d="M51.3531 49.2039C51.3531 49.2039 49.783 37.6719 51.653 31.2979C53.523 24.9229 57.9231 17.3113 58.8731 19.3317C59.8231 21.3521 64.1031 28.9879 62.6131 34.5049C61.1231 40.0219 57.2531 49.3339 57.2531 49.3339" stroke="black" stroke-width="2" stroke-miterlimit="10" stroke-linecap="round" stroke-linejoin="round"/>
<path d="M58.6731 45.9423C58.5031 46.2793 59.3132 44.8033 59.5032 44.7333C59.8532 44.6083 60.4931 44.5903 60.8631 44.5823C62.6231 44.5453 66.8531 45.3083 66.7431 47.3823C66.6731 48.6053 59.013 50.1653 57.763 49.4843C57.183 49.1693 58.7631 45.7733 58.6731 45.9423Z" fill="black"/>
<path d="M51.1221 45.5195C52.4821 43.3495 48.1021 43.0205 47.1021 43.4135C45.7321 43.9505 45.8221 45.3395 45.5921 46.5515C45.4921 47.0765 45.0521 48.2725 45.3321 48.7975C46.1721 50.3905 50.5121 50.4995 51.2521 48.9485C51.7421 47.9085 50.5421 46.4425 51.1221 45.5195Z" fill="black"/>
<path d="M48.9023 81.7912C57.9923 82.3442 70.4824 81.8042 75.1824 79.2842C80.9124 76.2092 69.0123 74.7412 69.0123 74.7412C69.0123 74.7412 69.2924 78.1052 66.3424 79.2582C63.3924 80.4112 60.0123 81.0982 60.0123 81.0982" fill="black"/>
<path d="M48.9023 81.7912C57.9923 82.3442 70.4824 81.8042 75.1824 79.2842C80.9124 76.2092 69.0123 74.7412 69.0123 74.7412C69.0123 74.7412 69.2924 78.1052 66.3424 79.2582C63.3924 80.4112 60.0123 81.0982 60.0123 81.0982" stroke="black" stroke-width="2" stroke-miterlimit="10" stroke-linejoin="round"/>
</svg>
