<svg width="100" height="100" viewBox="0 0 100 100" fill="none" xmlns="http://www.w3.org/2000/svg">
<path d="M29.8344 70.3428C29.8344 70.3428 30.2911 71.7178 30.5149 72.3225C30.7387 72.9272 30.9564 73.7946 30.9564 73.7946C32.1659 74.2422 32.844 74.4931 34.0534 74.9406C32.8826 75.3593 32.2501 75.6873 31.0792 76.1059C31.0792 76.1059 30.7443 76.8083 30.4752 77.481C30.2498 78.0443 29.8344 79.277 29.8344 79.277C29.8344 79.277 29.3677 78.2944 29.1319 77.6399C28.9299 77.0793 28.6883 76.1799 28.6883 76.1799C28.6883 76.1799 27.7871 75.9566 27.2004 75.7403C26.5769 75.5103 25.5913 75.0339 25.5913 75.0339C25.5913 75.0339 26.6646 74.578 27.3674 74.3255C27.8788 74.1417 28.6883 73.8879 28.6883 73.8879L29.8344 70.3428Z" fill="black" stroke="black" stroke-linejoin="round"/>
<path d="M43.6558 56.981C43.6558 56.981 44.315 58.9653 44.638 59.8381C44.9609 60.7109 45.2752 61.9627 45.2752 61.9627C47.0207 62.6086 47.9993 62.9707 49.7448 63.6166C48.055 64.2208 47.1422 64.6942 45.4524 65.2983C45.4524 65.2983 44.969 66.312 44.5806 67.2828C44.2554 68.0958 43.6558 69.8748 43.6558 69.8748C43.6558 69.8748 42.9824 68.4568 42.642 67.5123C42.3504 66.7032 42.0019 65.4051 42.0019 65.4051C42.0019 65.4051 40.7011 65.0829 39.8545 64.7707C38.9546 64.4388 37.5322 63.7512 37.5322 63.7512C37.5322 63.7512 39.0812 63.0933 40.0954 62.7288C40.8335 62.4636 42.0019 62.0973 42.0019 62.0973L43.6558 56.981Z" stroke="black" stroke-width="2" stroke-linejoin="round"/>
<path d="M51.4298 48.8227C51.4298 48.8227 54.9076 55.0178 57.0133 58.7823C60.3569 64.76 65.6409 73.5099 65.6409 73.5099L71.6743 83.9601C72.1304 84.7501 72.859 84.9707 73.649 84.5146C74.6011 83.7972 74.9849 83.1099 74.5464 82.3281C74.5391 82.3151 74.5323 82.3031 74.5251 82.29C74.3036 81.886 70.4748 74.907 67.7219 70.1986C65.6698 66.6886 62.1379 60.8357 62.1379 60.8357L54.2687 47.2612" stroke="black" stroke-width="2" stroke-linecap="round" stroke-linejoin="round"/>
<path d="M75.4119 61.1172C75.4119 61.1172 75.6482 61.8286 75.764 62.1414C75.8798 62.4543 75.9924 62.9031 75.9924 62.9031C76.6182 63.1346 76.969 63.2644 77.5948 63.496C76.989 63.7126 76.6618 63.8823 76.056 64.0989C76.056 64.0989 75.8827 64.4623 75.7434 64.8103C75.6268 65.1017 75.4119 65.7395 75.4119 65.7395C75.4119 65.7395 75.1705 65.2312 75.0485 64.8925C74.944 64.6025 74.819 64.1372 74.819 64.1372C74.819 64.1372 74.3527 64.0216 74.0492 63.9097C73.7266 63.7908 73.2167 63.5443 73.2167 63.5443C73.2167 63.5443 73.772 63.3084 74.1356 63.1777C74.4002 63.0826 74.819 62.9513 74.819 62.9513L75.4119 61.1172Z" fill="black" stroke="black" stroke-linejoin="round"/>
<path d="M22.8631 46.5107C22.8631 46.5107 23.1585 47.3999 23.3032 47.7909C23.4479 48.182 23.5887 48.7428 23.5887 48.7428C24.3708 49.0322 24.8092 49.1945 25.5913 49.4839C24.8342 49.7546 24.4252 49.9667 23.6681 50.2374C23.6681 50.2374 23.4515 50.6916 23.2775 51.1266C23.1317 51.4908 22.8631 52.2879 22.8631 52.2879C22.8631 52.2879 22.5614 51.6526 22.4089 51.2294C22.2782 50.8669 22.122 50.2853 22.122 50.2853C22.122 50.2853 21.5392 50.1409 21.1599 50.001C20.7567 49.8523 20.1194 49.5442 20.1194 49.5442C20.1194 49.5442 20.8134 49.2494 21.2678 49.0861C21.5985 48.9673 22.122 48.8032 22.122 48.8032L22.8631 46.5107Z" fill="black" stroke="black" stroke-linejoin="round"/>
<path d="M47.2106 44.1252C47.9387 45.5912 48.5058 46.5734 49.7012 48.439C49.9388 48.8506 50.6492 49.0032 51.0607 48.7655L54.2687 46.9202C54.6803 46.6826 54.9977 45.9299 54.76 45.5183C54.0977 44.1377 53.5955 43.262 52.2695 41.2045" stroke="black" stroke-width="2" stroke-linecap="round" stroke-linejoin="round"/>
<path d="M40.9847 40.8241L31.9635 38.9893L39.4695 32.9503L38.0268 23.7783L45.6682 29.3715L54.5737 25.3768L51.4992 33.7216L58.3596 41.4812L48.8274 41.0193L43.9801 49.7832L40.9847 40.8241Z" stroke="black" stroke-width="2" stroke-linecap="round" stroke-linejoin="round"/>
<path d="M43.0979 38.3523L38.4242 37.4018L42.3129 34.2731L41.5655 29.5212L45.5243 32.4189L50.1381 30.3493L48.5453 34.6727L52.0995 38.6928L47.1611 38.4535L44.6497 42.9939L43.0979 38.3523Z" fill="black" stroke="black" stroke-linecap="round" stroke-linejoin="round"/>
<path d="M51.9486 49.0273C52.6933 49.0527 54.1825 48.3081 54.2339 48.0257M47.6863 44.6616C48.1228 43.5067 50.3824 41.6321 52.4879 41.9149" stroke="black" stroke-width="2" stroke-linecap="round" stroke-linejoin="round"/>
<path d="M68.5389 37.4194C68.5389 37.4194 68.9957 38.7944 69.2194 39.3992C69.4432 40.0039 69.6609 40.8713 69.6609 40.8713C70.8704 41.3188 71.5485 41.5697 72.758 42.0173C71.5871 42.4359 70.9546 42.7639 69.7838 43.1826C69.7838 43.1826 69.4488 43.8849 69.1797 44.5576C68.9543 45.121 68.5389 46.3536 68.5389 46.3536C68.5389 46.3536 68.0723 45.3711 67.8364 44.7166C67.6344 44.156 67.3929 43.2566 67.3929 43.2566C67.3929 43.2566 66.4916 43.0333 65.905 42.8169C65.2814 42.587 64.2958 42.1106 64.2958 42.1106C64.2958 42.1106 65.3692 41.6547 66.0719 41.4021C66.5833 41.2183 67.3929 40.9646 67.3929 40.9646L68.5389 37.4194Z" fill="black" stroke="black" stroke-linejoin="round"/>
<path d="M74.5931 17.8882C74.5931 17.8882 75.2108 19.7475 75.5134 20.5652C75.816 21.383 76.1104 22.5559 76.1104 22.5559C77.7459 23.161 78.6628 23.5003 80.2983 24.1055C78.7151 24.6716 77.8598 25.1151 76.2765 25.6812C76.2765 25.6812 75.8236 26.631 75.4597 27.5406C75.1549 28.3024 74.5931 29.9692 74.5931 29.9692C74.5931 29.9692 73.9622 28.6406 73.6433 27.7556C73.3701 26.9975 73.0435 25.7813 73.0435 25.7813C73.0435 25.7813 71.8247 25.4794 71.0315 25.1868C70.1883 24.8759 68.8556 24.2317 68.8556 24.2317C68.8556 24.2317 70.307 23.6152 71.2572 23.2737C71.9488 23.0252 73.0435 22.682 73.0435 22.682L74.5931 17.8882Z" stroke="black" stroke-width="2" stroke-linejoin="round"/>
<path d="M23.9447 17.0132C23.9447 17.0132 24.4015 18.3882 24.6253 18.9929C24.849 19.5976 25.0668 20.465 25.0668 20.465C26.2762 20.9126 26.9543 21.1635 28.1638 21.611C26.9929 22.0297 26.3604 22.3577 25.1896 22.7763C25.1896 22.7763 24.8546 23.4787 24.5855 24.1514C24.3601 24.7147 23.9447 25.9474 23.9447 25.9474C23.9447 25.9474 23.4781 24.9648 23.2422 24.3103C23.0402 23.7497 22.7987 22.8503 22.7987 22.8503C22.7987 22.8503 21.8974 22.627 21.3108 22.4107C20.6872 22.1808 19.7017 21.7043 19.7017 21.7043C19.7017 21.7043 20.775 21.2484 21.4777 20.9959C21.9891 20.8121 22.7987 20.5583 22.7987 20.5583L23.9447 17.0132Z" fill="black" stroke="black" stroke-linejoin="round"/>
<path d="M51.2897 14.7021C51.2897 14.7021 51.526 15.4135 51.6418 15.7264C51.7576 16.0393 51.8702 16.488 51.8702 16.488C52.496 16.7196 52.8468 16.8494 53.4726 17.081C52.8668 17.2975 52.5396 17.4672 51.9338 17.6838C51.9338 17.6838 51.7605 18.0472 51.6213 18.3953C51.5047 18.6867 51.2897 19.3245 51.2897 19.3245C51.2897 19.3245 51.0483 18.8161 50.9263 18.4775C50.8218 18.1875 50.6968 17.7221 50.6968 17.7221C50.6968 17.7221 50.2305 17.6066 49.927 17.4947C49.6044 17.3757 49.0945 17.1292 49.0945 17.1292C49.0945 17.1292 49.6498 16.8934 50.0134 16.7627C50.278 16.6676 50.6968 16.5363 50.6968 16.5363L51.2897 14.7021Z" fill="black" stroke="black" stroke-linejoin="round"/>
</svg>
