<svg width="100" height="100" viewBox="0 0 100 100" fill="none" xmlns="http://www.w3.org/2000/svg">
<path d="M25.0704 59.1123C25.0704 59.1123 31.1342 44.3715 40.1951 34.7066C49.256 25.0416 55.1107 22.3299 58.3865 21.426C61.6624 20.5221 66.8201 19.6877 69.2596 23.5815C71.699 27.4752 73.6506 33.3159 68.3535 43.5371C63.0564 53.7583 44.0983 68.9163 44.0983 68.9163L49.8833 71.9757C49.8833 71.9757 66.5413 60.5029 73.3021 50.0036C80.0629 39.5043 83.4085 34.2198 80.8993 21.565C80.8993 21.565 77.275 5.85081 55.738 14.0556C34.201 22.2603 21.6552 47.3614 19.4248 56.5396L25.0704 59.1123Z" stroke="black" stroke-width="2" stroke-miterlimit="10"/>
<path d="M43.262 69.5312C43.0536 69.8829 44.6184 72.836 45.4328 74.3241C45.7365 74.879 46.2139 75.3158 46.7892 75.579L51.6389 77.797L49.4587 71.9062" stroke="black" stroke-width="2" stroke-miterlimit="10"/>
<path d="M19.2539 57.2235C19.0057 57.8301 20.2822 60.1372 21.0409 61.4204C21.3789 61.9919 21.9108 62.4177 22.5347 62.6446L27.2675 64.3664L24.9179 59.1656" stroke="black" stroke-width="2" stroke-miterlimit="10"/>
<path d="M28.2061 65.7181C28.2061 65.7181 34.9669 47.014 42.8428 39.7827C50.7188 32.5514 55.8068 28.1014 60.6857 26.6412C65.5647 25.181 69.1193 25.2506 70.9315 27.1974" stroke="black" stroke-width="2" stroke-miterlimit="10"/>
<path d="M52.8794 78.7894C52.8794 78.7894 72.7436 64.744 80.5499 51.3243C88.3561 37.9047 86.9622 29.4913 86.9622 29.4913C86.4046 27.4749 85.2894 24.5546 83.059 21.5647C81.4559 19.3397 79.7135 17.7404 78.2498 16.6279" stroke="black" stroke-width="2" stroke-miterlimit="10"/>
<path d="M43.6099 68.9162C43.6099 68.9162 55.2496 58.556 56.8527 56.6786C58.4558 54.8013 62.4983 50.9075 62.4983 50.9075L69.6773 53.6887L71.0016 62.6584C71.0016 62.6584 56.7133 75.6608 52.7404 78.164L45.7008 74.9655L43.6099 68.9162Z" fill="black"/>
<path d="M63.125 51.1855L70.5828 53.4801L71.6283 62.8669" stroke="black" stroke-width="2" stroke-miterlimit="10"/>
<path d="M19.3545 56.1229L22.4212 48.0572L27.0214 39.4352L29.0426 36.0977L35.9429 39.7829L37.6157 46.0408C37.6157 46.0408 31.4124 56.5401 31.4124 56.7487C31.4124 56.8878 27.9972 65.3707 27.9972 65.3707L21.4455 62.1722L19.3545 56.1229Z" fill="black"/>
<path d="M37.7553 46.5271L36.1522 39.6434L29.6006 36.5144" stroke="black" stroke-width="2" stroke-miterlimit="10"/>
<path d="M49.9999 82.5352C49.9999 82.5352 48.385 87.4997 48.385 88.5247" stroke="black" stroke-width="2" stroke-miterlimit="10" stroke-linecap="round"/>
<path d="M43.6096 82.5352C43.6096 82.5352 41.678 85.1933 40.6192 86.7024" stroke="black" stroke-width="2" stroke-miterlimit="10" stroke-linecap="round"/>
<path d="M39.7337 76.4814C39.7337 76.4814 37.144 78.7074 35.7773 79.8463" stroke="black" stroke-width="2" stroke-miterlimit="10" stroke-linecap="round"/>
</svg>
