<svg width="100" height="100" viewBox="0 0 100 100" fill="none" xmlns="http://www.w3.org/2000/svg">
<path d="M68.3579 36.04C68.3579 36.04 68.598 31.014 67.148 28.265C65.698 25.517 61.2979 22.695 61.1079 19.594C60.9079 16.493 63.288 16.126 66.278 18.743C69.268 21.359 73.288 26.315 75.028 30.635C76.768 34.955 81.638 46.135 81.988 54.075C82.338 62.015 82.1379 82.334 82.1379 82.334L64.948 82.447C64.948 82.447 69.408 71.373 69.188 64.426C69.078 60.9 67.718 55.933 63.588 55.139C59.458 54.346 50.418 54.829 50.791 51.343C51.164 47.857 55.998 46.875 59.218 47.625C62.428 48.374 67.118 47.958 67.848 44.146C68.588 40.334 68.3579 36.04 68.3579 36.04Z" stroke="black" stroke-width="2" stroke-miterlimit="10" stroke-linejoin="round"/>
<path d="M82.118 82.2994C82.118 82.2994 42.1639 83.8744 50.9659 79.1354C58.4379 75.1144 66.9579 76.5514 66.9579 76.5514L65.0779 82.0084" fill="black"/>
<path d="M82.118 82.2994C82.118 82.2994 42.1639 83.8744 50.9659 79.1354C58.4379 75.1144 66.9579 76.5514 66.9579 76.5514L65.0779 82.0084" stroke="black" stroke-width="2" stroke-miterlimit="10" stroke-linejoin="round"/>
<path d="M64.0081 55.2285C64.0081 55.2285 68.0281 55.6065 70.2581 55.4305" stroke="black" stroke-width="2" stroke-miterlimit="10" stroke-linecap="round" stroke-linejoin="round"/>
<path d="M62.928 37.3467C62.928 37.3467 65.578 37.7967 66.248 39.7427C66.918 41.6887 67.798 44.3627 67.798 44.3627" stroke="black" stroke-width="2" stroke-miterlimit="10" stroke-linejoin="round"/>
<path d="M54.858 47.1147L59.768 47.0437C59.768 47.0437 62.548 47.3287 62.618 44.5497C62.698 41.7707 62.408 24.5277 62.408 24.5277C62.408 24.5277 62.128 21.6067 57.778 21.8207C53.428 22.0337 20.206 21.3467 20.206 21.3467C20.206 21.3467 17 21.4187 17 24.3397C17 27.2607 17.071 44.0767 17.071 44.0767C17.071 44.0767 16.816 46.9817 21.417 46.7847C24.408 46.6567 54.858 47.1147 54.858 47.1147Z" stroke="black" stroke-width="2" stroke-miterlimit="10" stroke-linejoin="round"/>
<path d="M58.848 33.1278C58.308 31.6738 56.648 33.7218 57.008 34.8058C57.658 36.7598 59.578 35.1018 58.848 33.1278Z" stroke="black" stroke-width="2" stroke-miterlimit="10" stroke-linecap="round" stroke-linejoin="round"/>
<path d="M21.0702 31.7744C21.0702 33 21.0722 34.6964 21.0342 35.8964" stroke="black" stroke-width="2" stroke-miterlimit="10" stroke-linecap="round" stroke-linejoin="round"/>
<path d="M62.598 30.8076C62.598 30.8076 65.078 32.0206 66.568 33.4036C68.048 34.7866 68.348 35.9626 68.348 35.9626" stroke="black" stroke-width="2" stroke-miterlimit="10" stroke-linejoin="round"/>
<path d="M62.688 27.4697C62.688 27.4697 64.588 27.8687 65.728 28.8487C66.868 29.8287 67.978 30.7917 67.978 30.7917" stroke="black" stroke-width="2" stroke-miterlimit="10" stroke-linejoin="round"/>
<path d="M24.8286 26.1188C25.5342 25.5002 51.1569 26.123 52.8579 26.119C54.5579 26.115 53.558 28.068 53.898 34.839C54.328 43.566 54.2071 42.9878 51.5341 42.9998C48.9051 43.0118 25.8164 42.7002 25.5342 42.5001C24.8286 41.9998 24.5342 26.4998 24.8286 26.1188Z" fill="black" stroke="black" stroke-width="2" stroke-miterlimit="10" stroke-linejoin="round"/>
</svg>
