<svg width="100" height="100" viewBox="0 0 100 100" fill="none" xmlns="http://www.w3.org/2000/svg">
<path d="M42.8215 56.12C42.8215 56.12 51.8595 57.14 57.6205 49.9C65.2025 40.38 57.7025 29.32 57.7025 29.32L65.5165 22.359C65.5165 22.359 65.4505 26.65 65.6105 28.5C65.7605 30.24 68.4335 31.39 68.7905 28.42C69.1485 25.453 67.9465 17.411 67.9465 17.411C67.9465 17.411 59.7895 16.791 56.9055 17.074C54.5615 17.303 54.6895 20.141 56.2845 20.238C58.1555 20.352 62.1765 20.488 62.1765 20.488L55.1725 26.71C55.1725 26.71 44.6765 19.493 34.0105 27.029C27.5085 31.62 25.0335 44.77 32.9875 51.8C35.9285 54.4 38.9125 55.78 38.9125 55.78" stroke="black" stroke-width="2" stroke-miterlimit="10" stroke-linejoin="round"/>
<path d="M39.1846 51.7096C39.1846 51.7096 36.8426 50.5396 35.3846 48.8996C29.5546 42.3396 31.0976 35.7196 35.6606 30.7796C39.8036 26.3046 48.5446 26.6936 53.5006 30.9996C57.2936 34.2996 59.4736 43.8596 53.3276 49.2696C48.0506 53.9196 42.5916 52.7096 42.5916 52.7096" stroke="black" stroke-width="2" stroke-miterlimit="10" stroke-linejoin="round"/>
<path d="M61.3535 38.8699C61.3535 38.8699 71.4315 42.3599 71.9845 52.3299C72.9455 69.6399 56.4885 69.6099 56.4885 69.6099L56.4455 73.8299C56.4455 73.8299 60.2595 73.8599 61.6985 73.9799C63.1095 74.0999 63.4165 76.05 62.1075 76.77C60.7995 77.48 56.2755 76.8299 56.2755 76.8299C56.2755 76.8299 56.2325 80.6499 56.0655 81.8499C55.8355 83.4999 53.6065 83.8699 52.7195 82.4699C51.8325 81.0699 52.5595 77.4 52.5595 77.4C52.5595 77.4 49.8965 77.4899 47.8955 77.4799C46.1495 77.4699 46.3755 74.2499 47.8255 74.0699C49.2765 73.8899 52.5605 73.9599 52.5605 73.9599L52.4765 69.67C52.4765 69.67 39.3775 67.8199 39.0495 54.9899C38.7195 42.0699 48.2555 37.9199 55.0095 37.9199C55.6055 37.9199 56.8565 38.0299 56.8565 38.0299" stroke="black" stroke-width="2" stroke-miterlimit="10" stroke-linejoin="round"/>
<path d="M60.9765 43.29C60.9765 43.29 68.1495 46.18 68.0965 54.87C68.0515 62.2 62.3095 66.54 54.7605 66.37C47.2115 66.2 41.9915 60.29 42.2765 54.17C42.9155 40.52 56.7955 42.17 56.7955 42.17" stroke="black" stroke-width="2" stroke-miterlimit="10" stroke-linejoin="round"/>
<path d="M43.9156 53.1504C43.9156 53.1504 43.6766 54.8103 43.9316 55.5803" stroke="black" stroke-width="2" stroke-miterlimit="10" stroke-linejoin="round"/>
<path d="M55.1636 38.1396C55.1636 38.1396 55.6916 39.1696 55.6926 40.0396C55.6936 40.9096 55.2086 42.0496 55.2086 42.0496" stroke="black" stroke-width="2" stroke-miterlimit="10" stroke-linejoin="round"/>
</svg>
