<svg width="100" height="100" viewBox="0 0 100 100" fill="none" xmlns="http://www.w3.org/2000/svg">
<path d="M46.6272 46.3457C47.8446 47.0247 48.4048 47.6176 48.9727 48.1844C51.8217 51.0345 51.1536 54.2737 49.8206 57.6045C49.4577 58.5113 47.7956 60.1593 48.6087 61.2427C49.3334 62.2094 50.2719 61.4596 51.1547 61.6067C51.9656 61.7418 52.431 62.5081 53.1765 62.6574C54.1454 62.8514 54.4986 61.6361 55.0762 61.2024C55.74 60.7053 56.8898 61.2983 57.5023 60.8383C58.0865 60.4002 57.2844 58.4111 57.2844 58.4111" stroke="black" stroke-width="2" stroke-miterlimit="10" stroke-linecap="round" stroke-linejoin="round"/>
<path d="M47.1634 51.0372C45.5656 50.9936 45.3346 49.6246 42.4833 50.1227C41.7847 50.2437 38.5367 51.9767 38.613 51.9625" stroke="black" stroke-width="2" stroke-miterlimit="10" stroke-linecap="round" stroke-linejoin="round"/>
<path d="M57.5732 49.6621C57.5732 49.6621 60.3678 47.8016 61.8043 47.6501C63.2637 47.4953 64.0953 48.0359 66.1324 48.6332" stroke="black" stroke-width="2" stroke-miterlimit="10" stroke-linecap="round" stroke-linejoin="round"/>
<path d="M43.8675 46.1526C41.5023 46.2518 39.619 46.7891 37.8729 48.4174" stroke="black" stroke-width="2" stroke-miterlimit="10" stroke-linecap="round" stroke-linejoin="round"/>
<path d="M56.7046 45.9329C59.0588 44.6305 63.0141 42.5836 66.0005 44.128" stroke="black" stroke-width="2" stroke-miterlimit="10" stroke-linecap="round" stroke-linejoin="round"/>
<path d="M49.1101 29.0448C49.1101 29.0448 31.1624 31.3402 31.885 43.6236C32.6076 55.908 36.1727 68.0475 36.9923 70.3123C37.8109 72.5761 43.9766 77.9232 46.5302 79.9951C49.0828 82.066 53.0337 82.8365 56.6468 82.2589C60.2599 81.6812 66.2326 75.6594 67.7258 73.1058C69.22 70.5532 71.8685 60.5325 71.5317 55.6671C71.195 50.8017 72.3568 41.9723 64.3296 32.4301C59.6245 26.8378 49.1101 29.0448 49.1101 29.0448Z" stroke="black" stroke-width="2" stroke-miterlimit="10" stroke-linejoin="round"/>
<path d="M34.8758 64C31.5363 62.8872 30.1826 61.6022 29.5352 57.9292C29.1472 55.7341 29.8556 52.2627 32.4093 52.2627" stroke="black" stroke-width="2" stroke-miterlimit="10" stroke-linecap="round" stroke-linejoin="round"/>
<path d="M71.1458 47.5303C75.4084 47.5303 75.3529 50.8894 74.6978 54.1602C74.3905 55.7014 73.6962 58.7008 71.7103 58.7008" stroke="black" stroke-width="2" stroke-miterlimit="10" stroke-linecap="round" stroke-linejoin="round"/>
<path d="M36.6708 69.444C36.6708 69.444 14.2948 67.3241 16.1041 43.116C17.9133 18.9079 38.794 21.8779 47.231 20.0818C55.668 18.2856 73.3726 11.381 80.7393 26.9188C84.1616 34.1373 85.075 45.6501 80.7437 53.2991C76.2031 61.3198 70.2783 65.5127 70.2783 65.5127" stroke="black" stroke-width="2" stroke-miterlimit="10" stroke-linecap="round" stroke-linejoin="round"/>
<path d="M49.0054 69.0855C51.1231 70.5318 57.8511 68.8817 59.8904 67.7471" stroke="black" stroke-width="2" stroke-miterlimit="10" stroke-linecap="round" stroke-linejoin="round"/>
<path d="M32.1139 51.1709C32.1139 51.1709 28.782 43.9066 31.4371 37.9469C32.8463 34.7818 34.5989 33.3312 42.4027 30.5649C57.7029 25.1404 65.0108 29.0511 67.6986 33.3214C70.3874 37.5916 70.42 43.123 70.42 43.123C70.42 43.123 68.4789 32.5519 60.3907 29.9655C52.3024 27.3791 42.9575 30.7764 36.5761 34.638C30.1946 38.5006 32.1139 51.1709 32.1139 51.1709Z" fill="black" stroke="black" stroke-width="2" stroke-miterlimit="10" stroke-linejoin="round"/>
<path d="M35.1873 36.0777C37.7137 41.3736 44.844 39.8695 44.844 39.8695C44.844 39.8695 42.8341 35.9382 43.5491 35.6995C43.9513 35.5654 45.9709 37.0411 48.6118 37.5807C51.2515 38.1191 54.1093 37.8542 54.1093 37.8542C54.1093 37.8542 51.9829 35.0771 51.4772 34.4025C50.3022 32.8352 48.8668 31.512 48.8668 29.6875" fill="black"/>
<path d="M35.1873 36.0777C37.7137 41.3736 44.844 39.8695 44.844 39.8695C44.844 39.8695 42.8341 35.9382 43.5491 35.6995C43.9513 35.5654 45.9709 37.0411 48.6118 37.5807C51.2515 38.1191 54.1093 37.8542 54.1093 37.8542C54.1093 37.8542 51.9829 35.0771 51.4772 34.4025C50.3022 32.8352 48.8668 31.512 48.8668 29.6875" stroke="black" stroke-width="2" stroke-miterlimit="10" stroke-linecap="round" stroke-linejoin="round"/>
<circle cx="43.6353" cy="52.6406" r="1" stroke="black" stroke-width="2"/>
<circle cx="61.6353" cy="50.6406" r="1" stroke="black" stroke-width="2"/>
</svg>
