<svg width="100" height="100" viewBox="0 0 100 100" fill="none" xmlns="http://www.w3.org/2000/svg">
<path fill-rule="evenodd" clip-rule="evenodd" d="M30.2891 35.7368L31.7673 41.1133L31.7521 41.2911C31.5244 43.9663 31.3908 48.2912 31.7317 52.5311C31.9021 54.6504 32.1895 56.7276 32.6349 58.5566C33.0835 60.3983 33.6768 61.9215 34.4214 62.9821C35.4566 64.4563 36.2261 65.2503 36.7985 65.6505C37.3309 66.0227 37.6273 66.0135 37.8203 65.9702C38.1071 65.9058 38.4018 65.7148 38.9136 65.3486L38.9681 65.3096C39.4133 64.9905 40.0209 64.555 40.7617 64.3366C43.1149 63.6431 46.267 63.044 48.6923 63.6047C49.5903 63.8123 50.41 63.7565 51.2361 63.6008C51.6344 63.5257 52.0219 63.4302 52.4315 63.3291L52.4999 63.3123C52.9239 63.2077 53.377 63.0974 53.8339 63.0215C54.3877 62.9296 55.0738 62.9601 55.756 63.0372C56.4578 63.1165 57.2346 63.255 58.004 63.4199C59.5406 63.7493 61.1089 64.1975 62.0939 64.5388C62.9001 64.8181 63.435 64.811 63.8616 64.6607C64.3102 64.5026 64.7981 64.131 65.3949 63.3674C65.9424 62.6669 66.6611 61.1909 67.3094 59.3561C67.948 57.5485 68.4769 55.5106 68.6939 53.7538C68.9144 51.9675 68.9627 49.8428 69.003 47.9361L69.0048 47.8521L69.0048 47.8521C69.024 46.9409 69.0422 46.0778 69.0792 45.3523C69.116 44.6313 69.1746 43.9473 69.3037 43.4719C69.6297 42.2714 70.2426 40.6306 70.5049 39.9664L72.8484 34.0323L72.4329 40.3988C72.3138 42.2234 72.1781 45.1785 72.1589 48.0986C72.1396 51.0497 72.241 53.8619 72.5664 55.4588C73.023 57.7003 73.2223 61.0415 73.1939 64.2937C73.1655 67.5419 72.9089 70.8212 72.408 72.9315C71.8781 75.1638 69.7635 79.0518 66.2023 82.3837C62.6111 85.7435 57.465 88.6171 50.8337 88.6428C44.3501 88.6679 39.0732 87.0892 35.2215 84.2931C31.3584 81.4887 28.9895 77.5013 28.2806 72.8512C27.2875 66.3371 27.5461 60.8773 27.7543 56.482L27.7543 56.4819C27.8298 54.8862 27.8988 53.4308 27.8987 52.1161C27.8987 49.0729 28.8746 42.297 29.429 39.7255L30.2891 35.7368ZM51.5737 70.596C52.5355 70.4559 53.3911 70.3313 53.4507 69.9838C53.5932 69.1526 48.5446 69.1413 45.4806 70.1918C42.4166 71.2422 42.6096 72.6782 45.3207 73.4566C50.0084 74.8026 58.2117 73.1309 57.4841 71.3752C57.1545 70.5797 54.9514 71.137 52.8466 71.6695C50.8244 72.1811 48.8929 72.6698 48.8003 71.9138C48.6903 71.016 50.2349 70.791 51.5737 70.596Z" fill="black"/>
<path d="M29.6446 40.8345C28.329 40.2322 25.6793 40.0574 25.6054 44.1757C25.513 49.3237 26.1774 51.2182 28.2088 52.0811" stroke="black" stroke-width="2" stroke-miterlimit="10" stroke-linecap="round"/>
<path d="M50.4871 18.2646L51.662 12.6828C53.0345 10.886 64.1935 14.7888 68.8669 23.3432C72.6056 30.1868 71.8834 38.7124 71.055 42.1198C70.9514 40.6876 70.2955 37.1564 68.5001 34.4899C66.2558 31.1567 59.4439 26.2505 55.7911 24.026C52.8688 22.2464 51.0375 19.4436 50.4871 18.2646Z" fill="black" stroke="black" stroke-width="2" stroke-miterlimit="10" stroke-linecap="round"/>
<path d="M35.6295 31.3028C40.8768 28.8074 47.6855 21.4991 50.4338 18.1569C50.9348 16.5557 51.8422 13.2217 51.4641 12.6959C50.9913 12.0386 46.5042 11.9321 41.594 14.9163C36.6837 17.9006 32.9027 22.9206 30.8807 28.0435C29.2631 32.1419 29.6678 38.7099 30.0724 41.4816C29.7384 39.1284 30.3821 33.7981 35.6295 31.3028Z" fill="black" stroke="black" stroke-width="2" stroke-miterlimit="10" stroke-linecap="round"/>
<path d="M46.0147 47.7137C46.3138 49.1699 46.9137 52.4568 46.9204 53.955C46.9289 55.8278 46.1192 60.8208 46.7114 61.0575C47.3037 61.2941 50.8804 61.4642 52.0651 61.0901C53.0128 60.7909 53.2951 60.4461 53.3178 60.3111" stroke="black" stroke-width="2" stroke-miterlimit="10" stroke-linecap="round"/>
<path d="M71.6671 40.433C72.9003 40.0554 75.321 40.2266 75.1386 43.9323C74.9107 48.5645 73.9848 51.8236 71.3417 52.1966" stroke="black" stroke-width="2" stroke-miterlimit="10" stroke-linecap="round"/>
<path d="M33.052 51.1882C33.1389 50.6814 33.8261 49.6314 35.8796 49.4852C38.4465 49.3025 40.6691 49.0406 41.863 49.5616C42.8181 49.9784 43.2811 50.6542 43.3933 50.9401" stroke="black" stroke-width="2" stroke-miterlimit="10" stroke-linecap="round"/>
<path d="M35.4807 51.0042C35.4353 50.1313 36.5858 49.5624 36.6882 49.5774L39.4695 49.4321C40.8499 49.3601 40.5787 51.5726 38.7721 51.6669C37.6757 51.7242 35.5261 51.8771 35.4807 51.0042Z" fill="black" stroke="black" stroke-width="2" stroke-miterlimit="10" stroke-linecap="round"/>
<path d="M36.8798 42.9767C35.1422 43.2133 34.123 44.153 33.9876 44.3546C33.234 45.1323 41.5143 44.5045 42.5273 44.3544C43.5403 44.2043 43.9146 43.3418 43.4581 42.9767C43.0015 42.6116 38.6175 42.7402 36.8798 42.9767Z" fill="black"/>
<path d="M57.9159 42.9767C55.3481 42.9553 54.9856 42.4058 54.8406 43.3532C54.5764 44.1846 55.2314 44.4506 57.0736 44.3544C58.9157 44.2582 64.1509 45.2443 64.9931 44.617C65.8353 43.9897 61.1256 43.0036 57.9159 42.9767Z" fill="black"/>
<path d="M36.8798 42.9767C35.1422 43.2133 34.123 44.153 33.9876 44.3546C33.234 45.1323 41.5143 44.5045 42.5273 44.3544C43.5403 44.2043 43.9146 43.3418 43.4581 42.9767C43.0015 42.6116 38.6175 42.7402 36.8798 42.9767Z" stroke="black" stroke-width="2" stroke-miterlimit="10" stroke-linecap="round"/>
<path d="M57.9159 42.9767C55.3481 42.9553 54.9856 42.4058 54.8406 43.3532C54.5764 44.1846 55.2314 44.4506 57.0736 44.3544C58.9157 44.2582 64.1509 45.2443 64.9931 44.617C65.8353 43.9897 61.1256 43.0036 57.9159 42.9767Z" stroke="black" stroke-width="2" stroke-miterlimit="10" stroke-linecap="round"/>
<path d="M54.6023 50.5486C54.6892 50.0418 55.3764 48.9917 57.4299 48.8456C59.9968 48.6628 62.2194 48.401 63.4133 48.922C64.3684 49.3388 64.8314 50.0146 64.9436 50.3004" stroke="black" stroke-width="2" stroke-miterlimit="10" stroke-linecap="round"/>
<path d="M57.4465 50.471C57.4011 49.5981 58.5516 49.0292 58.654 49.0442L61.4354 48.8989C62.8157 48.8269 62.5445 51.0394 60.7379 51.1337C59.6415 51.191 57.4919 51.3439 57.4465 50.471Z" fill="black" stroke="black" stroke-width="2" stroke-miterlimit="10" stroke-linecap="round"/>
<path d="M64.3827 36.7996C62.703 30.5006 56.8986 27.1021 54.3496 22.8906" stroke="black" stroke-width="2" stroke-miterlimit="10" stroke-linecap="round"/>
</svg>
