<svg width="100" height="100" viewBox="0 0 100 100" fill="none" xmlns="http://www.w3.org/2000/svg">
<path d="M49.1466 68.0994C45.9115 74.3001 36.2605 72.0932 35.3396 71.8665C35.2941 71.8553 35.27 71.8207 35.2737 71.774C35.3436 70.8951 36.344 62.5586 49.1468 62.5586C49.1468 62.5586 62.215 62.5586 62.316 69.8552C62.3166 69.9033 62.2888 69.9456 62.2414 69.9539C61.3089 70.1181 51.971 71.6601 49.1466 68.0994Z" fill="black"/>
<path d="M71.8919 47.3643C75.7236 47.5903 77.0912 49.1112 77.4293 51.8239C77.8801 55.3279 75.9693 65.4503 71.103 60.1368" stroke="black" stroke-width="2" stroke-miterlimit="10" stroke-linecap="round"/>
<path d="M27.3779 47.3643C23.5462 47.5903 22.0947 50.3765 21.7566 53.0892C21.3058 56.5932 23.4317 62.8223 28.2777 62.8223" stroke="black" stroke-width="2" stroke-miterlimit="10" stroke-linecap="round"/>
<path d="M50.0305 47.1045C50.0305 47.1045 36.6508 67.0281 50.0306 61.6454" stroke="black" stroke-width="2" stroke-miterlimit="10" stroke-linecap="round"/>
<path d="M56.2673 47.0627C56.9925 46.2157 58.7851 44.522 60.1546 44.5225C61.5241 44.5229 63.4357 46.7371 64.2203 47.8441" stroke="black" stroke-width="2" stroke-linecap="round"/>
<circle cx="60" cy="46.999" r="2" fill="black"/>
<path d="M35.2688 46.6911C35.9939 45.9681 37.7866 44.522 39.1561 44.5225C40.5256 44.5229 42.4372 46.4132 43.2218 47.3583" stroke="black" stroke-width="2" stroke-linecap="round"/>
<circle cx="39" cy="46.999" r="2" fill="black"/>
<path d="M76.8535 31.3143C75.2758 26.567 68.0631 23.8543 68.0631 23.8543C64.9076 20.0112 61.0758 16.9594 50.8203 16.0551C40.5648 15.1509 32.9014 23.8543 32.9014 23.8543C32.9014 23.8543 28.168 26.454 24.1109 31.3143C20.0538 36.1746 23.0966 48.7211 23.0966 48.7211L28.9569 47.5908C28.9569 41.8262 28.9569 36.6268 28.9569 36.4007C28.9569 36.4007 30.5347 29.9579 36.7331 29.8449C42.9315 29.7319 39.8886 29.8449 42.1426 31.8795C44.3965 33.914 51.0457 39.3395 56.906 33.5749C62.7663 27.8104 67.8799 29.5526 69.5704 32.7175C71.1482 35.8824 71.4577 39.2265 71.4577 46.4604C71.4577 46.7995 71.4577 47.2517 71.4577 47.5908L77.9805 47.4777C79.671 40.9219 78.4313 36.0616 76.8535 31.3143Z" fill="black"/>
<path d="M22.8541 48.8368C22.8541 48.8368 19.262 36.0616 23.3192 31.2012C27.3763 26.3409 32.1096 23.7412 32.1096 23.7412C32.1096 23.7412 39.7731 14.9248 50.0286 15.9421C60.2841 16.9593 64.1158 20.0112 67.2714 23.7412C67.2714 23.7412 74.4058 27.1805 76.0618 31.2012C78.1347 36.2341 78.569 42.2109 76.6022 48.7596" stroke="black" stroke-width="2" stroke-miterlimit="10" stroke-linecap="round"/>
<path d="M32.2396 75.0755C28.2161 69.1324 28.2161 57.6292 28.2161 57.6292C28.2161 57.6292 28.2161 36.5811 28.2161 36.1309C28.2161 36.1309 29.7807 29.7152 35.9276 29.6026C42.0745 29.49 39.057 29.6026 41.2922 31.6286C43.5274 33.6546 50.1214 39.0574 55.933 33.317C61.7446 27.5766 67.3327 29.1524 69.0091 32.304C70.5738 35.4555 70.9091 38.9448 70.9091 46.1484C70.9091 53.3521 70.8623 62.0549 70.4962 64.943C70.13 67.8311 69.6797 78.5647 58.5035 82.2791C47.3273 85.9935 36.9336 83.1796 32.2396 75.0755Z" stroke="black" stroke-width="2" stroke-miterlimit="10" stroke-linecap="round"/>
</svg>
