<svg width="100" height="100" viewBox="0 0 100 100" fill="none" xmlns="http://www.w3.org/2000/svg">
<path d="M66.6184 77.3832C63.0487 84.2614 55.1183 85.9084 51.5994 85.8722C49.9666 85.957 47.0287 85.8722 41.6959 82.7161C36.363 79.56 30.9297 66.5467 29.8331 66.7176C26.6769 67.2097 26.0235 64.2144 24.6087 60.8407C23.4928 58.1797 26.0935 56.2874 27.5924 55.6435C27.6311 55.6269 27.6548 55.5922 27.6535 55.5501C27.6019 53.8757 28.2572 47.3417 27.656 43.4771C26.8942 38.5796 29.1801 16.1102 53.2321 17.0897C77.2842 18.0692 75.4454 42.328 74.4332 46.0393C73.7802 48.4336 74.8899 51.9163 76.8489 52.4604C78.8079 53.0046 78.9167 55.6166 78.4814 58.6639C78.0461 61.7112 75.6023 63.7408 72.4956 64.2144C70.0374 64.5892 71.0805 68.7854 66.6184 77.3832Z" stroke="black" stroke-width="2" stroke-miterlimit="10" stroke-linecap="round"/>
<path d="M31.2063 54.6483C35.4179 52.8322 44.0937 50.9213 45.1042 57.807C46.1148 64.6928 45.0253 67.125 45.8939 67.6778C46.7625 68.2305 51.7374 67.6778 51.7374 67.6778" stroke="black" stroke-width="2" stroke-miterlimit="10" stroke-linecap="round"/>
<path d="M47.4729 74.7842C49.5261 74.5735 53.8378 74.0101 54.6589 73.4417C55.4801 72.8732 56.0014 72.2046 56.1594 71.9414" stroke="black" stroke-width="2" stroke-miterlimit="10" stroke-linecap="round"/>
<circle cx="29.5" cy="63.498" r="1.5" fill="black"/>
<path d="M38.4353 57.2193C35.9825 56.8559 33.8446 57.9886 33.125 59.7141C32.1594 60.6226 34.12 61.6483 37.5836 61.5915C40.3546 61.5461 41.653 59.7934 41.9558 58.9228C41.8043 58.5064 40.8881 57.5827 38.4353 57.2193Z" stroke="black" stroke-width="2" stroke-miterlimit="10" stroke-linecap="round"/>
<path d="M35.9597 58.0883C36.2958 57.1667 37.2122 57.7776 37.2122 57.7776L38.64 58.0883C38.64 58.0883 38.9495 60.0684 38.64 60.8282C38.3305 61.588 35.9597 60.8282 35.9597 60.8282C35.9597 60.8282 35.6236 59.01 35.9597 58.0883Z" fill="black"/>
<path d="M63.6212 55.9139C61.2086 55.5564 58.8183 57.4776 57.9246 58.4829C56.9749 59.3765 59.3768 60.27 62.7835 60.2142C65.5089 60.1695 66.7859 58.4457 67.0838 57.5893C66.9348 57.1798 66.0337 56.2713 63.6212 55.9139Z" stroke="black" stroke-width="2" stroke-miterlimit="10" stroke-linecap="round"/>
<circle cx="73.5" cy="59.498" r="1.5" fill="black"/>
<path d="M61.0874 56.7802C61.418 55.8737 62.3193 56.4745 62.3193 56.4745L63.7236 56.7802C63.7236 56.7802 64.028 58.7277 63.7236 59.475C63.4192 60.2223 61.0874 59.475 61.0874 59.475C61.0874 59.475 60.7568 57.6867 61.0874 56.7802Z" fill="black"/>
<path d="M57.5808 54.6485C58.8704 53.3587 62.3813 51.0317 66.1086 52.0426C69.836 53.0534 70.2415 53.7272 69.9784 53.9377" stroke="black" stroke-width="2" stroke-miterlimit="10" stroke-linecap="round"/>
<path d="M51.3341 40.1233L27.6562 44.359C26.241 38.1979 28.9626 17.2117 53.5588 17.3079C73.2358 17.385 78.0291 32.5873 77.3761 40.9626C76.5418 41.3797 72.9964 43.8969 70.2103 44.359C67.7456 44.7679 62.3172 44.6041 59.0631 44.4275C58.4549 44.3945 58.0253 43.8253 58.1516 43.2294L59.3018 37.8021L51.3341 40.1233Z" fill="black"/>
<path d="M51.1672 86.0368C53.9034 86.142 60.1545 85.8684 63.2693 83.9321C67.1628 81.5118 68.5549 74.2901 69.3968 70.8174" stroke="black" stroke-width="2" stroke-linecap="round"/>
<path d="M68.7902 43.4629C69.8491 43.1978 78.2036 41.4086 78.1471 40.507C78.0765 39.3802 77.1263 31.0405 72.6694 26.4839C65.3985 19.0502 62.4368 19.8898 60.9778 19.7793" stroke="black" stroke-width="2" stroke-linecap="round"/>
<path d="M58.3565 37.9736C56.2763 40.4656 44.1137 44.4563 38.3608 44.4563C33.9692 44.7314 23.7873 45.2291 25.0988 43.4939C26.4104 41.7586 35.7176 38.9636 39.344 37.9736H58.3565Z" fill="black" stroke="black" stroke-width="2" stroke-linecap="round"/>
<path d="M29.1812 43.4901C27.3104 45.8854 21.6352 43.2476 21.3213 42.5107C21.0073 41.7738 26.7454 37.8267 27.2916 35.5558C27.9742 32.7171 31.2901 25.8494 32.7529 27.1314C34.2158 28.4134 29.7915 41.708 29.1812 43.4901Z" fill="black" stroke="black" stroke-width="2" stroke-linecap="round"/>
<path d="M57.5344 16.3748C57.7049 15.5649 58.4807 13.9453 60.2195 13.9453" stroke="black" stroke-width="2" stroke-linecap="round"/>
<path d="M56.1594 16.3748C55.9889 15.5649 55.2132 13.9453 53.4744 13.9453" stroke="black" stroke-width="2" stroke-linecap="round"/>
</svg>
