<svg width="100" height="100" viewBox="0 0 100 100" fill="none" xmlns="http://www.w3.org/2000/svg">
<path d="M28.8994 51.5867C28.8081 52.4237 28.0263 50.0041 27.4522 48.9709C26.469 47.2008 25.4195 45.2107 24.7802 43.2924C22.6516 36.9077 22.3002 30.8052 24.4462 24.3671C24.8039 23.2935 25.6196 20.4129 26.7842 19.9137C28.1678 19.3208 28.7518 20.863 30.0127 20.3595C33.8978 18.8053 36.6578 15.4135 40.923 14.3475C44.3686 13.4854 46.9254 14.4424 50.3859 14.9045C59.1016 16.0663 71.6992 17.7862 76.1033 26.5938C78.6591 31.7055 75.3458 38.0565 73.8613 43.0025C73.6564 43.6848 72.0523 50.6308 71.7926 49.7458C71.3479 48.2275 71.5238 44.7692 71.3322 44.0662C70.4116 40.6908 69.1839 36.0434 66.1947 33.7186C63.1729 31.3687 59.0351 31.4832 55.5071 30.6014C52.318 29.8036 42.518 27.566 39.8096 29.0429C32.9269 32.7965 31.3892 39.639 30.0127 46.5218C29.6613 48.2777 29.0998 49.748 28.8994 51.5867Z" fill="black" stroke="black" stroke-width="2" stroke-miterlimit="10" stroke-linecap="round" stroke-linejoin="round"/>
<path d="M28.8992 51.3092C28.8992 56.7795 29.4997 62.1288 31.2371 67.3408C32.5675 71.332 34.098 75.0454 36.6651 78.4753C43.8783 88.1124 55.5297 86.9843 62.5207 79.1195C69.8364 70.8895 71.5383 59.3506 71.5383 48.6367" stroke="black" stroke-width="2" stroke-miterlimit="10" stroke-linecap="round" stroke-linejoin="round"/>
<path d="M28.9132 53.5204C27.8341 51.3613 23.8952 49.8572 23.2393 53.1379C22.7131 55.7689 26.3861 66.9602 30.3158 64.9951" stroke="black" stroke-width="2" stroke-miterlimit="10" stroke-linecap="round" stroke-linejoin="round"/>
<path d="M71.4996 51.6085C72.103 49.7981 74.6614 50.282 75.3884 51.736C76.4685 53.8951 73.4048 63.4024 70.4158 63.4024" stroke="black" stroke-width="2" stroke-miterlimit="10" stroke-linecap="round" stroke-linejoin="round"/>
<path d="M29.1195 56.8051C29.9654 57.5778 31.2306 58.1947 31.5785 58.3942C33.1435 59.2879 35.6013 59.7228 37.4358 59.8198C42.5252 60.0879 45.141 56.3582 50.0788 56.0062C52.8571 55.8078 54.607 58.2939 57.1517 58.8029C62.1612 59.8045 67.3215 59.1364 71.016 55.5441" stroke="black" stroke-width="2" stroke-miterlimit="10" stroke-linecap="round" stroke-linejoin="round"/>
<path d="M47.7887 59.8203C47.0091 65.9762 46.5372 63.804 49.3239 68.0841" stroke="black" stroke-width="2" stroke-miterlimit="10" stroke-linecap="round" stroke-linejoin="round"/>
<path d="M54.9238 51.3529C56.24 50.5125 56.5874 50.154 57.2827 49.8858C60.4476 48.6695 62.405 50.2804 65.0604 51.6079" stroke="black" stroke-width="2" stroke-miterlimit="10" stroke-linecap="round" stroke-linejoin="round"/>
<path d="M34.6509 51.2885C38.8941 48.4144 41.7385 48.3675 45.6162 50.9702" stroke="black" stroke-width="2" stroke-miterlimit="10" stroke-linecap="round" stroke-linejoin="round"/>
<path d="M46.9548 48.1641C50.8737 48.1641 48.1024 54.7417 48.1024 56.1335" stroke="black" stroke-width="2" stroke-miterlimit="10" stroke-linecap="round" stroke-linejoin="round"/>
<path d="M56.1143 46.7085C59.0099 46.7085 64.2036 43.32 66.4663 47.8453" stroke="black" stroke-width="2" stroke-miterlimit="10" stroke-linecap="round" stroke-linejoin="round"/>
<path d="M44.0579 46.5818C38.5211 44.4041 35.4772 45.5049 33.1378 47.845" stroke="black" stroke-width="2" stroke-miterlimit="10" stroke-linecap="round" stroke-linejoin="round"/>
<circle cx="60" cy="51.1006" r="1" stroke="black" stroke-width="2"/>
<circle cx="40" cy="51.1006" r="1" stroke="black" stroke-width="2"/>
</svg>
