<svg width="100" height="100" viewBox="0 0 100 100" fill="none" xmlns="http://www.w3.org/2000/svg">
<path d="M40.2797 64.0686C38.3244 64.4719 36.744 66.6997 37.1527 68.6789" stroke="black" stroke-width="2" stroke-miterlimit="10" stroke-linecap="round" stroke-linejoin="round"/>
<path d="M62.0325 63.6038C63.408 64.3206 63.7118 65.2227 63.908 66.8206" stroke="black" stroke-width="2" stroke-miterlimit="10" stroke-linecap="round" stroke-linejoin="round"/>
<path d="M47.7424 51.7679C47.4808 53.9652 43.2639 58.7783 44.6547 61.1772C45.1179 61.9772 46.7691 61.927 47.4873 61.8355C48.1478 61.7516 49.362 61.8965 49.9386 62.1156C50.7353 62.4186 52.0454 61.7374 52.7964 61.6415C54.4901 61.4268 55.7108 61.9816 56.6372 59.9979C57.6617 57.8388 53.374 56.5701 53.5626 54.9832" stroke="black" stroke-width="2" stroke-miterlimit="10" stroke-linecap="round" stroke-linejoin="round"/>
<path d="M42.6166 26.8988L42.6166 25.8988C42.5897 25.8988 42.5628 25.8999 42.536 25.902L42.6166 26.8988ZM31.6118 33.0448L30.7368 32.5607L30.7367 32.5607L31.6118 33.0448ZM29.6804 50.8987L30.6776 50.8243L30.6776 50.8241L29.6804 50.8987ZM34.3038 73.4937L33.5335 74.1314L33.5336 74.1315L34.3038 73.4937ZM67.3185 72.2055L66.4244 71.7576L66.4243 71.7577L67.3185 72.2055ZM70.0651 50.7232L69.066 50.7664L69.0661 50.7691L70.0651 50.7232ZM65.6836 31.9331L66.3999 31.2353L66.3991 31.2345L65.6836 31.9331ZM35.5987 76.4132C35.9874 76.8055 36.6206 76.8085 37.0129 76.4198C37.4052 76.0311 37.4082 75.3979 37.0195 75.0056L35.5987 76.4132ZM42.6166 26.8988C42.536 25.902 42.5356 25.9021 42.5352 25.9021C42.5351 25.9021 42.5346 25.9021 42.5343 25.9022C42.5336 25.9022 42.5329 25.9023 42.5319 25.9024C42.5301 25.9025 42.5278 25.9027 42.525 25.903C42.5194 25.9034 42.5119 25.9041 42.5026 25.905C42.4838 25.9067 42.4576 25.9092 42.4244 25.9126C42.3578 25.9194 42.2629 25.9299 42.1428 25.9451C41.9027 25.9756 41.5612 26.025 41.1439 26.102C40.311 26.2555 39.1665 26.5203 37.9187 26.9671C35.4491 27.8513 32.4296 29.501 30.7368 32.5607L32.4867 33.5289C33.838 31.0867 36.3209 29.6634 38.5928 28.8501C39.7156 28.4481 40.7516 28.208 41.5065 28.0688C41.883 27.9994 42.1873 27.9555 42.3944 27.9293C42.4979 27.9161 42.577 27.9074 42.6286 27.9021C42.6543 27.8995 42.6732 27.8977 42.6848 27.8966C42.6906 27.8961 42.6946 27.8958 42.6966 27.8956C42.6977 27.8955 42.6983 27.8954 42.6984 27.8954C42.6984 27.8954 42.6984 27.8954 42.6982 27.8954C42.6981 27.8955 42.6979 27.8955 42.6978 27.8955C42.6975 27.8955 42.6973 27.8955 42.6166 26.8988ZM30.7367 32.5607C27.5194 38.3768 28.2212 44.7992 28.6832 50.9733L30.6776 50.8241C30.2022 44.4707 29.6158 38.7187 32.4868 33.5289L30.7367 32.5607ZM28.6832 50.9732C28.9089 53.9972 28.9486 58.4231 29.4854 62.6302C30.0236 66.8477 31.0879 71.1772 33.5335 74.1314L35.0741 72.8561C33.0129 70.3661 31.9993 66.53 31.4693 62.377C30.9381 58.2135 30.9194 54.0639 30.6776 50.8243L28.6832 50.9732ZM68.2125 72.6533C69.7701 69.5441 70.5125 65.0182 70.8573 60.867C71.2049 56.6811 71.1582 52.7297 71.064 50.6774L69.0661 50.7691C69.1573 52.7559 69.2031 56.6192 68.8641 60.7015C68.5222 64.8184 67.7987 69.014 66.4244 71.7576L68.2125 72.6533ZM71.0641 50.6801C70.9807 48.7474 71.0504 45.1309 70.5532 41.4786C70.0571 37.8345 68.9704 33.8742 66.3999 31.2353L64.9673 32.6309C67.0724 34.792 68.0894 38.2071 68.5715 41.7483C69.0524 45.2812 68.975 48.6598 69.066 50.7664L71.0641 50.6801ZM66.3991 31.2345C64.0154 28.7931 61.9823 27.2171 59.7749 26.3295C57.555 25.437 55.2602 25.2812 52.4344 25.4917L52.5829 27.4862C55.2591 27.2869 57.2083 27.4532 59.0288 28.1852C60.8617 28.9222 62.6652 30.2731 64.9681 32.6317L66.3991 31.2345ZM52.4344 25.4917C49.7023 25.6952 47.245 25.797 45.4707 25.848C44.5839 25.8734 43.8685 25.8861 43.3757 25.8925C43.1293 25.8956 42.9385 25.8972 42.8099 25.898C42.7455 25.8984 42.6967 25.8986 42.6643 25.8987C42.648 25.8987 42.6359 25.8988 42.6279 25.8988C42.6239 25.8988 42.621 25.8988 42.6191 25.8988C42.6181 25.8988 42.6175 25.8988 42.617 25.8988C42.6168 25.8988 42.6167 25.8988 42.6166 25.8988C42.6166 25.8988 42.6166 25.8988 42.6166 25.8988C42.6166 25.8988 42.6166 25.8988 42.6166 26.8988C42.6166 27.8988 42.6167 27.8988 42.6168 27.8988C42.6168 27.8988 42.6169 27.8988 42.617 27.8988C42.6172 27.8988 42.6174 27.8988 42.6178 27.8988C42.6184 27.8988 42.6194 27.8988 42.6205 27.8988C42.6229 27.8988 42.6264 27.8988 42.6308 27.8988C42.6398 27.8987 42.653 27.8987 42.6702 27.8987C42.7048 27.8986 42.7557 27.8984 42.8221 27.898C42.955 27.8971 43.1503 27.8955 43.4014 27.8923C43.9036 27.8858 44.6296 27.8729 45.5281 27.8471C47.3244 27.7956 49.8132 27.6925 52.5829 27.4862L52.4344 25.4917ZM33.5336 74.1315C34.1948 74.9301 34.8849 75.6928 35.5987 76.4132L37.0195 75.0056C36.3487 74.3285 35.6984 73.61 35.074 72.856L33.5336 74.1315ZM66.7875 74.8793C67.3401 74.1749 67.8227 73.4317 68.2126 72.6533L66.4243 71.7577C66.1018 72.4016 65.6945 73.0322 65.214 73.6448L66.7875 74.8793Z" fill="black"/>
<path d="M36.1841 75.1646C36.1841 75.1646 41.3906 77.2638 41.9649 77.7423C43.8352 79.3008 46.6778 78.697 49.1268 78.9684C53.4658 79.4513 53.2979 79.7074 57.2042 77.4741C57.9889 77.0273 60.8663 76.9074 60.8663 76.9074C60.9208 76.6349 66.1741 73.4022 66.4139 73.46C67.3186 73.6878 63.2859 79.9799 63.2859 79.9799C63.2859 79.9799 61.4113 81.4164 59.166 83.6649C56.7464 86.0834 54.2941 85.7531 51.1672 85.7531C45.1792 85.7531 41.5225 85.3935 38.1536 78.8246C37.589 77.7237 36.1841 75.1646 36.1841 75.1646Z" fill="black" stroke="black" stroke-width="2" stroke-miterlimit="10" stroke-linecap="round" stroke-linejoin="round"/>
<path d="M55.4277 49.2532C55.4277 49.2532 57.8037 47.3377 58.6975 47.1524C62.2671 46.4123 64.3868 48.5949 64.3868 48.5949" stroke="black" stroke-width="2" stroke-miterlimit="10" stroke-linecap="round" stroke-linejoin="round"/>
<path d="M29.1976 46.5681C28.7649 43.973 28.1774 41.7757 28.3714 39.0608C28.766 33.5425 30.5948 29.3649 33.5888 24.8744C34.3507 23.7311 34.2799 22.118 35.2782 21.1208C36.1698 20.2292 37.4112 19.6919 38.3932 18.906C42.0902 15.9491 45.6564 14.5758 50.5163 15.1153C52.3103 15.3148 53.6182 16.178 55.2858 16.8047C57.1932 17.5208 59.7108 19.8826 61.0296 21.3834C61.6727 22.1289 61.8362 23.2058 62.5228 23.8978C64.1032 25.476 65.2476 27.1654 66.392 29.0771C66.9697 30.0363 67.5582 31.864 67.9833 35.0651C68.0705 35.7093 65.7708 31.67 65.4111 31.4041C63.7108 30.1224 62.0977 28.7327 60.016 27.9513C55.3403 26.2009 47.094 26.578 42.1087 27.2014C38.0684 27.706 33.7589 30.5387 31.9376 34.1823C31.2009 35.6559 30.8194 37.2918 30.173 38.7981C29.6957 39.9142 29.9627 42.6117 29.1594 43.415" fill="black"/>
<path d="M29.1976 46.5681C28.7649 43.973 28.1774 41.7757 28.3714 39.0608C28.766 33.5425 30.5948 29.3649 33.5888 24.8744C34.3507 23.7311 34.2799 22.118 35.2782 21.1208C36.1698 20.2292 37.4112 19.6919 38.3932 18.906C42.0902 15.9491 45.6564 14.5758 50.5163 15.1153C52.3103 15.3148 53.6182 16.178 55.2858 16.8047C57.1932 17.5208 59.7108 19.8826 61.0296 21.3834C61.6727 22.1289 61.8362 23.2058 62.5228 23.8978C64.1032 25.476 65.2476 27.1654 66.392 29.0771C66.9697 30.0363 67.5582 31.864 67.9833 35.0651C68.0705 35.7093 65.7708 31.67 65.4111 31.4041C63.7108 30.1224 62.0977 28.7327 60.016 27.9513C55.3403 26.2009 47.094 26.578 42.1087 27.2014C38.0684 27.706 33.7589 30.5387 31.9376 34.1823C31.2009 35.6559 30.8194 37.2918 30.173 38.7981C29.6957 39.9142 29.9627 42.6117 29.1594 43.415" stroke="black" stroke-width="2" stroke-miterlimit="10" stroke-linecap="round" stroke-linejoin="round"/>
<path d="M43.8438 66.3174C45.2793 66.0166 47.834 66.7926 48.4128 66.8177C51.6662 66.9594 55.2967 64.8548 58.5773 65.6123C59.6999 65.8717 60.1468 68.0177 58.0977 69.6547C56.234 71.149 48.1512 71.658 45.8755 70.9986C44.8531 70.7032 41.93 69.7812 41.6182 68.3828C41.3643 67.2471 42.4084 66.6182 43.8438 66.3174Z" stroke="black" stroke-width="2" stroke-miterlimit="10" stroke-linecap="round" stroke-linejoin="round"/>
<path d="M51.8886 67.0266C51.5551 68.1056 51.6325 69.6479 51.8221 70.7923" stroke="black" stroke-width="2" stroke-miterlimit="10" stroke-linecap="round" stroke-linejoin="round"/>
<path d="M47.1748 66.9678C47.2413 67.3645 47.3884 68.2397 47.4015 68.7498C47.4146 69.2697 47.408 69.8198 47.4015 70.8198" stroke="black" stroke-width="2" stroke-miterlimit="10" stroke-linecap="round" stroke-linejoin="round"/>
<path d="M55.6455 66.3201C55.6237 67.2367 55.9071 69.0102 55.6455 69.8778" stroke="black" stroke-width="2" stroke-miterlimit="10" stroke-linecap="round" stroke-linejoin="round"/>
<path d="M29.4167 49.1434C25.3818 49.1434 25.2881 59.5815 27.2358 61.139C28.1579 61.8769 29.311 61.3679 30.2778 61.3679" stroke="black" stroke-width="2" stroke-miterlimit="10" stroke-linecap="round" stroke-linejoin="round"/>
<path d="M45.8723 48.3167C40.2963 45.3914 37.1028 49.3009 37.1028 49.3009" stroke="black" stroke-width="2" stroke-miterlimit="10" stroke-linecap="round" stroke-linejoin="round"/>
<path d="M70.7954 47.5369C71.2422 46.6465 72.6591 47.3353 72.9207 47.9958C74.3158 51.4879 74.7191 57.1216 70.3921 57.1216" stroke="black" stroke-width="2" stroke-miterlimit="10" stroke-linecap="round" stroke-linejoin="round"/>
<path d="M72.5501 56.8361C72.2341 57.3483 72.5501 58.6661 72.5501 59.2394C72.5501 59.6655 72.5501 60.0917 72.5501 60.5178C72.5501 61.0639 72.7355 61.4867 73.4657 61.126C74.1197 60.7968 72.8009 57.7516 72.6701 57.2317C72.6265 57.0573 72.7136 56.5636 72.5501 56.8361Z" stroke="black" stroke-width="2" stroke-miterlimit="10" stroke-linecap="round" stroke-linejoin="round"/>
<path d="M44.549 43.4702C42.0629 43.3296 39.87 42.0151 37.4417 43.6304C35.8057 44.7181 33.8123 47.3252 33.8123 47.3252" stroke="black" stroke-width="2" stroke-miterlimit="10" stroke-linecap="round" stroke-linejoin="round"/>
<path d="M54.3159 43.5696C57.4658 42.01 60.9317 41.4694 64.572 43.3963" stroke="black" stroke-width="2" stroke-miterlimit="10" stroke-linecap="round" stroke-linejoin="round"/>
<path d="M40.5229 37.7963C45.1398 36.2726 51.9442 36.1277 56.6047 37.7876" stroke="black" stroke-width="2" stroke-miterlimit="10" stroke-linecap="round" stroke-linejoin="round"/>
<path d="M44.5198 33.6097C44.2211 33.5029 45.2533 33.4266 45.4026 33.4004C46.0042 33.2947 46.6146 33.2195 47.2217 33.1454C48.7704 32.9568 50.3551 32.9939 51.9104 32.9775" stroke="black" stroke-width="2" stroke-miterlimit="10" stroke-linecap="round" stroke-linejoin="round"/>
<circle cx="59.4082" cy="49.8203" r="1" stroke="black" stroke-width="2"/>
<circle cx="41.4082" cy="49.8203" r="1" stroke="black" stroke-width="2"/>
</svg>
