<svg width="100" height="100" viewBox="0 0 100 100" fill="none" xmlns="http://www.w3.org/2000/svg">
<path d="M56.3479 51.2404C58.5648 49.3385 62.3424 49.539 64.3097 51.8333" stroke="black" stroke-width="2" stroke-miterlimit="10" stroke-linecap="round" stroke-linejoin="round"/>
<path d="M50.1278 49.6267C51.4706 52.1411 50.8417 54.4627 49.3964 56.7646C48.725 57.8338 46.0406 60.4005 47.331 61.8185C48.6215 63.2365 53.598 61.6899 53.9435 61.5253C55.0389 61.0065 56.2106 59.4861 54.8918 58.6578" stroke="black" stroke-width="2" stroke-miterlimit="10" stroke-linecap="round" stroke-linejoin="round"/>
<path d="M39.9304 50.1484C39.9304 50.1484 40.7206 49.4519 41.0716 49.2285C42.2029 48.508 43.3876 48.4862 44.6203 49.005C44.8753 49.1118 47.0519 50.3936 46.9189 50.508" stroke="black" stroke-width="2" stroke-miterlimit="10" stroke-linecap="round" stroke-linejoin="round"/>
<path d="M58.2347 45.8601C58.129 45.8132 58.7306 45.6661 58.8843 45.6432C59.4499 45.556 59.911 45.2944 60.4603 45.2105C61.6592 45.0263 65.4739 44.5784 66.0068 46.2296C66.4657 47.6519 62.5791 46.4116 62.0134 46.2765C61.8445 46.2361 58.3196 45.9985 58.3414 45.9473C58.3774 45.8666 60.7218 45.9146 60.7218 45.9146C60.7218 45.9146 61.73 46.0029 62.2249 46.004C62.9704 46.0051 63.9131 45.8285 64.5812 46.1228" stroke="black" stroke-width="2" stroke-miterlimit="10" stroke-linecap="round" stroke-linejoin="round"/>
<path d="M47.61 45.0006C47.7201 44.9668 47.138 44.7553 46.9887 44.715C46.435 44.5668 43.2787 43.8736 42.7424 43.7297C41.5708 43.4169 40.5539 42.9395 39.8443 44.5232C39.2329 45.8877 44.0939 45.4016 44.6705 45.3286C44.8438 45.3068 47.6176 45.0485 47.6001 44.9962C47.574 44.9112 45.3451 44.788 45.1315 44.7848C44.6443 44.7771 44.12 44.763 43.6274 44.7106C42.8862 44.6311 41.9686 44.3521 41.2732 44.5711" stroke="black" stroke-width="2" stroke-miterlimit="10" stroke-linecap="round" stroke-linejoin="round"/>
<path d="M61.1185 18.7071C61.1217 18.6907 57.0531 17.0591 56.5582 16.8596C52.7795 15.3381 49.173 14.7747 45.1741 14.0259C44.0569 13.8166 42.0602 14.9043 41.4291 16.2787C41.0695 17.0635 48.3457 16.8695 48.6193 17.5103C48.8177 17.9768 35.9011 19.8351 35.5927 19.9877C33.1534 21.191 33.4139 22.3517 33.4139 22.3517C31.476 24.3386 42.7566 20.4498 42.1855 21.3501C41.3921 22.5991 33.8542 25.4515 32.7022 26.3779C29.6591 28.8237 27.0401 32.0313 24.6913 35.1288C24.0733 35.9441 20.1595 40.1784 20.7633 41.4024C21.3649 42.6209 25.1033 38.6078 25.7071 38.1228C25.8401 38.016 29.8259 33.3522 29.6951 33.5931C27.6101 37.4351 24.3872 42.0421 23.4913 43.6552C21.5077 47.2269 24.4286 46.2089 19.8248 53.9767C19.1523 55.1135 15.1371 59.9157 18.0439 61.5702C18.4592 61.8067 24.5823 51.9865 24.5823 51.9865C24.5823 51.9865 21.7954 55.1909 20.6455 59.9287C19.3562 65.2443 20.3175 65.3761 19.7485 68.4094C19.5916 69.2486 19.8445 74.7963 21.1469 75.3205C22.4014 75.8252 23.827 59.5952 24.2662 62.1707C24.6891 64.6437 21.6472 78.3516 21.3267 80.0649C21.2177 80.6448 22.8799 83.811 23.6308 84.1129C25.3267 84.7962 24.8406 76.0442 26.3164 75.956C28.4101 75.8306 26.954 79.5178 27.0641 81.3663C27.0881 81.7565 27.4815 84.4987 28.0537 84.3352C28.6564 84.163 30.2891 85.6856 30.3807 85.2006C30.967 82.0693 30.0733 77.5385 30.6586 74.417C30.6946 74.2252 31.0477 75.9342 31.0662 76.1292C31.0968 76.4519 31.5937 77.3325 31.9305 77.5472C32.7251 78.0519 33.3496 76.8257 33.5708 76.2775C33.9076 75.4393 34.0765 73.7816 34.0253 72.9162C33.8727 70.3647 33.6254 67.8023 33.6777 65.2094C33.6831 64.9206 33.4728 58.7702 33.3703 58.7516C33.0009 58.6819 34.7327 63.8949 34.7371 64.271C34.7501 65.3478 35.5894 65.0568 36.8907 64.1663C37.0793 64.0366 37.2493 63.8633 37.2329 63.5876C37.1207 61.714 35.9708 59.1756 35.8564 57.2672C35.6689 54.1348 35.8641 51.677 35.6755 48.5184C35.4521 44.7942 35.4858 40.0977 36.1758 36.4116C36.2183 36.186 36.2804 38.052 36.2379 38.2776C36.1801 38.586 36.2302 39.471 36.3784 39.7719C36.5572 40.1326 37.7539 40.1566 37.888 39.8209C39.4106 36.0389 42.8482 29.8144 46.6542 27.9365C48.5114 27.0198 56.1452 28.379 58.2389 29.0896C62.4928 30.5326 67.101 32.2503 70.1779 35.8231C72.3795 38.38 71.4433 42.9315 71.2591 45.956C71.1152 48.3146 72.3936 50.5282 72.2901 52.9239C72.1157 56.938 70.3751 60.0127 71.2601 63.9756C71.452 64.8345 69.2819 68.7124 69.235 69.6116C68.9734 74.6132 69.7234 71.3761 69.6416 75.4524C69.6002 77.557 69.1152 79.8611 71.0977 82.2611C71.2155 82.4028 73.3473 86.3112 74.0187 85.3379C75.0977 83.7739 71.295 79.3532 72.9102 74.8301C73.2383 73.9134 76.5397 82.7265 76.9004 81.9407C77.5729 80.4758 76.9941 80.1216 77.2873 78.5532C77.5489 77.1592 75.7462 70.9587 75.8824 69.5309C75.902 69.3173 75.7397 59.4165 75.5293 59.3772C75.4007 59.3533 76.8634 74.4758 78.5266 74.5521C80.6476 74.6502 79.3571 70.393 79.5184 68.2284C79.5849 67.3369 78.9048 62.7255 78.944 61.8187C78.9549 61.5821 79.1816 63.4405 79.1816 63.4405C79.1816 63.4405 79.5075 65.1167 79.5097 65.2977C79.5195 66.0693 80.1146 66.1631 81.2917 65.3576C83.332 63.9614 81.6481 59.9255 81.6208 57.6661C81.5903 55.1669 80.847 48.7844 79.6361 45.0656C79.4443 44.4748 75.8345 39.9266 75.8563 39.8078C75.8901 39.6302 76.8154 41.2759 76.9113 41.349C77.7081 41.9528 80.3249 45.6541 81.4824 45.0013C83.9271 43.6214 77.1587 36.8618 76.132 35.362C75.2001 34.0007 74.192 32.0465 73.4814 30.6057C72.2225 28.0553 69.7713 26.8509 67.9151 24.828C66.1604 22.9141 66.4024 22.5861 64.3773 21.0515L61.1185 18.7071Z" fill="black" stroke="black" stroke-width="2" stroke-miterlimit="10" stroke-linecap="round" stroke-linejoin="round"/>
<path d="M34.9561 65.1857C34.9691 67.5377 35.9893 70.2756 36.4601 71.5323C37.331 73.8549 41.0618 78.996 43.2732 79.881C52.8732 83.7208 61.3952 78.8282 66.9745 71.3884C68.7434 69.0298 71.004 65.3241 71.004 62.2734" stroke="black" stroke-width="2" stroke-miterlimit="10" stroke-linecap="round" stroke-linejoin="round"/>
<path d="M43.4988 74.6817C42.1974 73.1286 39.4606 71.2081 39.4606 71.2081L36.6967 72.2087C36.6967 72.2087 41.1054 79.3596 42.7991 81.3127C46.3609 85.4195 51.004 86.625 55.7647 84.2043C57.9391 83.0991 60.1562 80.5001 60.1562 80.5001C60.1562 80.5001 62.5745 77.4642 63.2045 75.8468C63.8333 74.2294 63.0409 72.8299 62.0764 72.3264C61.5946 72.0757 56.9919 76.1476 56.2377 76.6097C54.7194 77.5394 50.6301 77.098 48.9168 76.686C48.2018 76.5138 44.8001 76.2337 43.4988 74.6817Z" fill="black" stroke="black" stroke-width="2" stroke-miterlimit="10" stroke-linecap="round" stroke-linejoin="round"/>
<path d="M49.4205 67.5609C49.1219 67.2198 54.0386 66.5604 54.8451 67.3124C54.9432 67.404 54.9246 67.5958 54.8211 67.5849C53.0979 67.4203 50.154 68.398 49.4205 67.5609Z" stroke="black" stroke-width="2" stroke-miterlimit="10" stroke-linecap="round" stroke-linejoin="round"/>
<circle cx="60.1562" cy="52" r="1" stroke="black" stroke-width="2"/>
<circle cx="43.1562" cy="51" r="1" stroke="black" stroke-width="2"/>
</svg>
