<svg width="100" height="100" viewBox="0 0 100 100" fill="none" xmlns="http://www.w3.org/2000/svg">
<path d="M47.4276 65.6255C50.6407 66.2467 53.6347 66.6968 57.6412 65.3475" stroke="black" stroke-width="2" stroke-miterlimit="10" stroke-linecap="round" stroke-linejoin="round"/>
<path d="M36.9982 49.5105C36.0892 48.9361 34.6799 48.9612 33.6434 49.1127C33.3927 49.1497 32.5154 50.0827 32.3802 50.2974C32.3105 50.4075 31.6587 51.8298 31.8276 51.7917" stroke="black" stroke-width="2" stroke-miterlimit="10" stroke-linecap="round" stroke-linejoin="round"/>
<path d="M49.5509 47.1924C50.6681 49.4256 49.7613 51.4082 48.9624 53.806C48.5057 55.1749 46.1395 57.4779 47.2185 58.9166C48.2038 60.231 49.2076 59.2665 50.4654 59.5182C50.97 59.6196 51.4005 60.0785 51.9084 60.1798C52.7095 60.34 53.2359 59.6621 53.9531 59.5182C55.6032 59.188 56.5885 58.8371 55.6359 56.933" stroke="black" stroke-width="2" stroke-miterlimit="10" stroke-linecap="round" stroke-linejoin="round"/>
<path d="M34.0337 59.7113C33.9607 59.3985 33.9607 60.4339 33.9607 60.6595C33.9607 61.307 33.9967 61.9718 33.9967 62.6268C33.9967 64.5952 34.0642 66.7969 34.5438 68.714C36.1394 75.0955 37.7264 80.5004 44.159 83.7167C46.8991 85.0878 50.9241 85.3603 53.7884 84.787C56.05 84.3347 58.8576 85.272 61.0375 84.3379C66.1448 82.1494 69.2173 73.732 70.0369 68.4067C70.3955 66.0742 70.7017 61.8857 70.5066 58.8982C70.487 58.6051 70.6255 55.8672 70.2015 55.8672C69.8974 55.8672 69.2053 59.5489 69.165 59.7952C68.6462 62.9135 68.499 62.6214 67.893 64.7413C67.1791 67.2405 64.4424 67.6088 63.0091 69.0421C61.5563 70.4949 60.6135 72.4895 59.0004 73.7799C56.6407 75.6677 54.5666 73.7287 54.2255 71.3385C54.1906 71.0922 54.3846 69.4148 54.2876 69.3505C54.1089 69.2306 51.0854 69.3407 51.0854 69.3407C51.0854 69.3407 51.9421 73.6165 49.0135 74.035C45.2533 74.5723 46.3868 71.7963 43.8528 69.9315C43.7906 69.8857 41.2599 69.2993 40.3389 69.1151C37.6947 68.5865 34.6005 62.1658 34.0337 59.7113Z" fill="black" stroke="black" stroke-width="2" stroke-miterlimit="10" stroke-linecap="round" stroke-linejoin="round"/>
<path d="M49.6173 47.2041C47.492 42.9534 38.22 45.0253 37.3296 49.4766C36.7454 52.3975 39.4909 55.0395 42.0849 55.4101C43.468 55.6073 44.741 55.3926 46.0031 55.0776C46.7661 54.8869 48.0606 54.1909 49.0606 53.1909" stroke="black" stroke-width="2" stroke-miterlimit="10" stroke-linecap="round" stroke-linejoin="round"/>
<path d="M58.5404 44.0785C51.2194 44.3869 51.784 53.7428 59.0178 54.836C65.8668 55.8714 66.6254 49.3504 66.0434 47.091C65.1584 43.6611 58.5404 44.0785 58.5404 44.0785Z" stroke="black" stroke-width="2" stroke-miterlimit="10" stroke-linecap="round" stroke-linejoin="round"/>
<path d="M49.8647 47.371C50.741 46.6538 52.6244 46.353 53.6075 46.9743" stroke="black" stroke-width="2" stroke-miterlimit="10" stroke-linecap="round" stroke-linejoin="round"/>
<path d="M66.1689 46.8301C70.6724 45.6497 70.6157 45.8437 70.9765 47.738" stroke="black" stroke-width="2" stroke-miterlimit="10" stroke-linecap="round" stroke-linejoin="round"/>
<path d="M33.358 48.843C33.358 48.843 29.7525 46.1923 25.4136 43.6234C21.0746 41.0544 16 38.5683 16 38.5683C16 38.5683 23.1651 32.798 31.5607 26.1909C39.9552 19.5839 49.5051 15 49.5051 15C49.5051 15 58.8315 17.2612 67.5607 22.1909C76.2898 27.1206 84.4957 31.8577 84.4957 31.8577L69.493 45.6234C69.493 45.6234 67.5094 29.6528 48.644 31.8741C35.0463 33.4751 33.358 48.843 33.358 48.843Z" fill="black" stroke="black" stroke-width="2" stroke-miterlimit="10" stroke-linejoin="round"/>
<path d="M34.5122 61.3312C34.5122 61.3312 33.3906 57.6168 33.1694 54.5552C32.9481 51.4936 33.8342 45.9503 33.8342 45.9503" stroke="black" stroke-width="2" stroke-miterlimit="10" stroke-linejoin="round"/>
<path d="M32.7063 51.8663C30.1875 50.6063 30.1352 54.627 30.3554 55.9491C30.63 57.5981 32.0872 57.3104 33.1608 57.8466" stroke="black" stroke-width="2" stroke-miterlimit="10" stroke-linecap="round" stroke-linejoin="round"/>
<path d="M70.5742 48.2364C70.8064 48.0816 71.8429 47.8091 72.1415 47.9889C72.8696 48.426 73.4723 53.4211 72.9666 54.0521C72.4238 54.7312 71.9246 54.6298 71.1933 54.6298" stroke="black" stroke-width="2" stroke-miterlimit="10" stroke-linecap="round" stroke-linejoin="round"/>
<path d="M70.3015 57.5455C70.3015 57.5455 70.6056 54.1167 70.4465 51.3134C70.2874 48.5112 69.7849 44.8916 69.7849 44.8916" stroke="black" stroke-width="2" stroke-miterlimit="10" stroke-linejoin="round"/>
<path d="M78.9176 36.7648L78.9187 50.5707L78.9209 66.6775L82.0903 66.7658L78.9176 36.7648Z" fill="black" stroke="black" stroke-width="2" stroke-miterlimit="10" stroke-linejoin="round"/>
<circle cx="60.0605" cy="50.1914" r="1" stroke="black" stroke-width="2"/>
<circle cx="44.0605" cy="50.1914" r="1" stroke="black" stroke-width="2"/>
</svg>
