<svg width="100" height="100" viewBox="0 0 100 100" fill="none" xmlns="http://www.w3.org/2000/svg">
<path d="M40.3887 52.0342C45.2606 48.2936 54.3723 50.7219 55.2551 57.1611C55.5712 59.4914 52.4541 63.1655 53.4132 64.8145C55.0154 67.5459 62.503 66.5802 61.8709 63.3028" stroke="black" stroke-width="2" stroke-miterlimit="10" stroke-linecap="round" stroke-linejoin="round"/>
<path d="M60.835 51.6045C62.6225 50.4502 64.617 49.5859 67.2219 50.3925C67.5707 50.4982 69.7506 51.4508 69.7288 51.4639" stroke="black" stroke-width="2" stroke-miterlimit="10" stroke-linecap="round" stroke-linejoin="round"/>
<path d="M61.0859 46.9183C62.5682 45.5657 63.9089 44.9009 66.7099 44.9641C69.5001 45.0273 72.0396 47.63 72.0396 47.63" stroke="black" stroke-width="2" stroke-miterlimit="10" stroke-linecap="round" stroke-linejoin="round"/>
<path d="M49.9904 47.2089C49.9904 47.2089 47.331 44.6378 43.9849 44.9234C40.6389 45.2089 38.4481 47.4749 37.3691 48.4547" stroke="black" stroke-width="2" stroke-miterlimit="10" stroke-linecap="round" stroke-linejoin="round"/>
<path d="M41.489 36.0035C39.6143 36.7392 35.5816 37.5206 34.1648 38.8721C33.5762 39.4323 34.0667 42.1636 34.0558 43.0105C34.0013 45.2176 32.3663 45.7658 31.5162 47.7124C30.2955 50.5353 33.6634 52.2116 33.2165 54.8644C33.1838 55.0759 32.6934 56.908 32.4318 56.9287C31.0694 57.0366 29.5762 55.6121 28.8569 54.9342C27.4509 53.6176 25.0095 53.4268 23.8215 52.1723C21.0531 49.2677 20.846 45.0236 21.0639 41.0934C21.6743 30.155 31.6143 18.4209 42.3935 16.0689C45.1946 15.4575 48.1374 14.8972 51.0148 15.016C58.3826 15.3212 72.4861 22.0972 75.7667 28.8155C78.6223 34.665 79.8649 41.9849 77.5216 48.1702C77.2709 48.8296 76.3008 52.9342 75.6905 52.9821C74.7532 53.0563 75.4616 48.1876 75.3962 47.4323C75.1019 43.6285 76.508 37.3855 73.4344 34.3108C71.6906 32.5626 69.914 32.5757 67.7124 31.8182C59.6906 29.0629 51.0912 33.2906 43.4727 35.6307L41.489 36.0035Z" fill="black" stroke="black" stroke-width="2" stroke-miterlimit="10" stroke-linecap="round" stroke-linejoin="round"/>
<path d="M25.7833 53.2659C23.1566 51.5362 23.9741 57.9939 24.9332 61.1809C25.8815 64.3678 26.9931 65.7051 29.5871 66.0146C30.3391 66.104 31.5926 65.8958 31.9522 66.5214C32.0285 66.6381 32.6062 69.2964 32.6062 69.2964" stroke="black" stroke-width="2" stroke-miterlimit="10" stroke-linecap="round" stroke-linejoin="round"/>
<path d="M30.4482 56.2809C31.6471 62.8891 31.8869 71.7294 36.2248 77.2433C38.4046 80.016 41.6634 81.3195 44.5952 82.9217C47.1347 84.3059 50.5571 84.8988 53.3364 85.7086C57.7069 86.9849 64.5407 82.9849 67.004 79.6607C68.3554 77.8264 69.8704 76.1108 71.0257 74.1196C74.7968 67.5855 74.2627 58.7801 75.1238 51.5234" stroke="black" stroke-width="2" stroke-miterlimit="10" stroke-linecap="round" stroke-linejoin="round"/>
<path d="M74.9167 61.8688C78.9058 60.5805 78.1647 52.3309 77.0966 49.0361" stroke="black" stroke-width="2" stroke-miterlimit="10" stroke-linecap="round" stroke-linejoin="round"/>
<path d="M62.6658 73.6974C62.9056 72.8418 63.1235 70.5486 62.0336 70.0429C61.0636 69.5928 59.5268 70.189 58.4805 70.1999C55.7775 70.2293 48.148 70.5879 47.2979 73.9056C46.6004 76.638 49.7285 77.572 51.5704 77.9557C55.3742 78.7502 61.4887 77.9426 62.6658 73.6974Z" stroke="black" stroke-width="2" stroke-miterlimit="10" stroke-linecap="round" stroke-linejoin="round"/>
<path d="M62.0561 75.0214C60.7373 76.5494 58.3612 77.9129 54.5574 78.096C47.4294 78.4361 47.2441 74.6247 47.2441 74.6247C50.939 75.502 54.1978 75.09 57.3695 74.6007C58.4158 74.4394 59.9852 74.2257 60.9552 73.8268C62.3176 73.2699 63.0587 72.52 62.8408 72.6312C62.8408 72.6312 62.5356 74.4535 62.0561 75.0214Z" fill="black" stroke="black" stroke-width="2" stroke-miterlimit="10" stroke-linecap="round" stroke-linejoin="round"/>
<circle cx="64.668" cy="52.6406" r="1" stroke="black" stroke-width="2"/>
<circle cx="45.668" cy="52.6406" r="1" stroke="black" stroke-width="2"/>
</svg>
