<svg width="100" height="100" viewBox="0 0 100 100" fill="none" xmlns="http://www.w3.org/2000/svg">
<path d="M58.96 72.4301C61.9463 71.9974 64.2679 72.1293 66.4586 72.1707C67.3087 72.187 68.1807 72.3538 68.9982 72.4868C69.3251 72.538 70.1208 72.7516 70.0772 72.7385" stroke="black" stroke-width="2" stroke-miterlimit="10" stroke-linecap="round" stroke-linejoin="round"/>
<path d="M70.5676 55.9381C70.6548 53.2569 72.5295 50.1365 75.7665 50.3763C79.0145 50.6161 81.3687 52.6967 80.8129 55.4182C80.257 58.1387 77.8483 62.2204 75.1344 61.7005C72.4097 61.1795 70.4913 58.6193 70.5676 55.9381Z" fill="black" stroke="black" stroke-width="2" stroke-miterlimit="10" stroke-linejoin="round"/>
<path d="M65.2703 52.912C66.4801 53.3828 69.7935 53.5965 71.1559 53.3654" stroke="black" stroke-width="2" stroke-miterlimit="10" stroke-linecap="round" stroke-linejoin="round"/>
<path d="M63.9622 57.4061C63.9622 57.4061 67.6896 50.8427 60.9103 49.2775C54.142 47.7113 54.2183 52.0241 53.6951 53.8737C53.1719 55.7233 53.2046 61.0366 56.6596 61.7146C60.1147 62.3914 63.9622 57.4061 63.9622 57.4061Z" fill="black" stroke="black" stroke-width="2" stroke-miterlimit="10" stroke-linejoin="round"/>
<path d="M68.5946 53.9133C69.096 54.9204 69.3029 56.3634 69.5863 57.4632C70.2076 59.9809 72.2458 63.2866 69.521 65.3291C67.9842 66.4822 66.4801 65.5253 64.8779 65.2975C63.9297 65.1612 62.9162 65.8795 61.9352 65.3934C61.5647 65.2038 61.2703 64.6577 61.2703 64.2414" stroke="black" stroke-width="2" stroke-miterlimit="10" stroke-linecap="round" stroke-linejoin="round"/>
<path d="M53.8157 52.6956C52.6059 52.3708 51.2108 52.4122 49.9683 52.1365C43.7013 50.7501 37.5434 50.0569 31.2764 50.4373" stroke="black" stroke-width="2" stroke-miterlimit="10" stroke-linecap="round" stroke-linejoin="round"/>
<path d="M70.6437 46.9395C70.6437 46.9395 73.2485 45.357 74.5346 45.3167" stroke="black" stroke-width="2" stroke-miterlimit="10" stroke-linecap="round" stroke-linejoin="round"/>
<path d="M61.8916 46.1549C61.8916 46.1549 59.2759 45.4857 58.6655 45.3952C55.1233 44.8721 54.6437 46.5669 51.3958 47.4039" stroke="black" stroke-width="2" stroke-miterlimit="10" stroke-linecap="round" stroke-linejoin="round"/>
<path d="M44.2348 44.4891C44.5945 43.4569 43.4938 42.6318 42.9924 41.7937C41.5102 39.313 40.1367 35.0406 41.7825 32.2929C43.1122 30.0684 46.1641 29.1583 48.5837 28.8553C54.066 28.1719 61.085 25.0809 66.6436 27.3065C69.3901 28.4041 70.6435 31.6597 72.0386 33.9768C72.2675 34.3583 73.5755 37.5201 74.3384 37.009C75.0251 36.5567 75.1994 34.0727 75.3738 33.3414C76.3656 29.3687 74.044 23.7567 70.6871 21.2412C67.3738 18.7583 61.8262 16.7191 57.8153 15.918C56.2022 15.5954 54.2839 16.2755 52.8343 15.9856C49.8588 15.3916 46.7853 14.7093 43.7335 14.0989C41.739 13.7 39.9515 14.6123 38.1422 14.9752C31.7117 16.2613 24.9761 20.5949 22.2404 26.9687C21.1396 29.542 19.6573 32.1904 19.2104 34.9207C18.5129 39.1147 19.69 43.9779 20.6927 47.9931C21.4011 50.8247 21.2921 53.9757 21.7717 56.8204C22.2077 59.4612 26.7527 66.5914 25.6737 68.7473C25.3794 69.3457 23.8317 69.7958 23.7881 69.9604C23.2323 72.1871 31.6791 73.7021 33.4448 72.8149C35.1995 71.9397 35.7009 68.7135 35.3521 66.9914C35.0251 65.3707 29.1505 65.8688 27.1996 61.4427C25.2377 57.0165 25.3576 53.0307 27.4284 50.9577C30.5783 47.8068 35.3085 55.8601 35.9189 58.3026C36.0497 58.8214 36.9325 61.2672 37.9352 60.5937C39.5156 59.5462 38.3494 55.3795 38.7527 53.7882C39.2649 51.7065 39.8534 49.3119 41.4447 47.7228C42.4583 46.7081 43.7662 45.8569 44.2348 44.4891Z" fill="black" stroke="black" stroke-width="2" stroke-miterlimit="10" stroke-linecap="round" stroke-linejoin="round"/>
<path d="M74.0664 36.9277C74.0664 36.9277 75.7666 47.9511 75.6576 55.7222C75.5486 63.4933 75.1671 68.6203 73.347 74.1865C71.5268 79.7538 70.9165 85.0442 65.7394 85.6513C60.5623 86.2573 52.1263 83.6121 46.7203 81.2971C41.3252 78.9821 38.7312 74.9581 36.7475 69.8879C34.7639 64.8165 35.3635 65.8759 35.3635 65.8759L34.3389 62.7173" stroke="black" stroke-width="2" stroke-miterlimit="10" stroke-linecap="round" stroke-linejoin="round"/>
</svg>
