<svg width="100" height="100" viewBox="0 0 100 100" fill="none" xmlns="http://www.w3.org/2000/svg">
<path d="M32.3103 71.3148C31.8983 71.062 32.4487 71.3246 32.8629 69.5808C32.9577 69.1808 33.4503 67.5252 33.9538 67.3988C34.4716 67.2702 35.568 67.9612 36.0574 67.5939C36.3931 67.3421 37.6334 65.6298 38.1609 65.8413C39.2933 66.2936 38.95 66.2249 40.089 66.5813C41.1506 66.9127 41.4318 67.0031 41.8623 67.1263C41.9593 67.1546 43.8514 67.571 43.7718 67.5939C42.0181 68.1007 40.5794 68.868 40.1871 69.1132C38.2089 70.3503 34.6634 72.7579 32.3103 71.3148Z" fill="black" stroke="black" stroke-width="2" stroke-miterlimit="10" stroke-linecap="round" stroke-linejoin="round"/>
<path d="M31.4766 55.0098C31.0352 55.8926 30.2101 57.6604 30.1044 58.7187C29.9682 60.0746 30.8129 62.48 33.0243 61.5961C33.8799 61.2539 34.5698 60.5629 35.5278 60.443C36.6068 60.3078 38.0815 60.4648 39.0515 59.8828C39.6313 59.5351 41.0831 58.1171 40.6645 57.2811" stroke="black" stroke-width="2" stroke-miterlimit="10" stroke-linecap="round" stroke-linejoin="round"/>
<path d="M60.938 35.6359C62.0442 61.8844 54.9522 49.7307 31.6465 54.6768C24.198 56.2571 17.8885 61.7318 16.7626 57.5171C14.8553 50.5253 17.1267 42.5427 17.1267 42.5427C17.1267 42.5427 19.8765 39.7809 28.1555 37.6098C36.0171 35.5476 48.6644 35.3874 48.6644 35.3874C48.6644 35.3874 56.4562 35.3166 60.938 35.6359Z" fill="black" stroke="black" stroke-width="2" stroke-miterlimit="10" stroke-linecap="round" stroke-linejoin="round"/>
<path d="M23.7742 57.6426C23.5235 58.0349 23.821 58.6867 23.8297 59.127C23.9169 63.636 26.003 67.5652 28.0673 71.5008C30.4412 76.0284 32.96 84.3226 38.6624 85.6545C41.8221 86.3924 47.6902 84.0196 50.282 82.4719C53.2324 80.7096 53.5158 80.6965 56.6591 79.2349C57.9267 78.6442 61.325 76.727 62.2493 75.6839C64.2133 73.4681 65.5997 71.3385 66.5392 68.5352C66.9577 67.2862 68.0128 62.314 67.4929 60.9243" stroke="black" stroke-width="2" stroke-miterlimit="10" stroke-linecap="round" stroke-linejoin="round"/>
<path d="M51.8044 69.4576C52.1826 69.6636 52.0889 70.0156 52.1815 70.627C52.2502 71.0761 52.5085 71.9894 52.3668 72.4298C52.163 73.0619 49.3249 73.0347 48.8377 72.663C47.157 71.3802 50.7069 68.8592 51.8044 69.4576Z" fill="black" stroke="black" stroke-width="2" stroke-miterlimit="10" stroke-linecap="round" stroke-linejoin="round"/>
<path d="M16.8391 57.7686C17.2326 65.689 19.8397 74.005 22.4358 76.8257C24.535 79.1069 27.3437 78.1968 30.7323 77.8273" stroke="black" stroke-width="2" stroke-miterlimit="10" stroke-linecap="round" stroke-linejoin="round"/>
<path d="M25.4504 31.8245C25.6346 31.5717 27.2357 29.6796 27.4297 29.4256C28.6351 27.8518 29.228 27.5728 30.8825 26.5177C36.7746 22.7564 45.834 21.3842 52.6187 23.4017C54.3876 23.9281 57.9723 24.266 58.7614 26.2681C59.2072 27.3984 59.0961 28.9722 59.4274 30.0469C59.4285 30.0501 61.7664 30.7869 61.8732 31.661C62.0846 33.3831 62.3179 36.8981 62.5969 40.1874C62.7996 42.5667 65.3119 43.3809 65.6051 44.3302C65.6258 44.3989 66.1707 41.2381 66.1707 41.2381C66.1707 41.2381 67.1266 38.3008 67.1952 38.2202C67.604 37.7406 68.4693 36.8142 68.9925 36.5428C70.393 35.8158 72.8083 36.6398 72.8072 34.6267C72.8061 31.5074 72.8301 27.4038 70.3069 25.0398C66.38 21.3613 60.6307 19.8987 55.5375 18.569C48.8269 16.8175 43.228 13.8791 36.0879 15.4442C30.8073 16.6017 26.6362 21.1619 25.119 26.2649C24.5632 28.1308 23.8591 31.7886 23.7719 32.8381C23.7283 33.3569 25.0613 32.3597 25.4504 31.8245Z" fill="black" stroke="black" stroke-width="2" stroke-miterlimit="10" stroke-linecap="round" stroke-linejoin="round"/>
<path d="M65.7784 43.972C65.5833 45.6831 65.1462 46.9224 65.5615 51.1469C65.835 53.924 66.2874 56.8428 67.0754 59.5109C67.8318 62.07 69.3195 66.8351 71.6661 68.1583C73.3555 69.1109 81.1331 65.9152 82.1587 63.8913C85.9135 56.4798 85.193 47.0455 81.4132 39.5229C79.6617 36.0374 73.0492 36.1333 69.435 36.2979" stroke="black" stroke-width="2" stroke-miterlimit="10" stroke-linecap="round" stroke-linejoin="round"/>
<path d="M67.3673 60.4668C65.4229 65.4553 59.9984 69.6559 52.4617 70.9801" stroke="black" stroke-width="2" stroke-miterlimit="10" stroke-linecap="round" stroke-linejoin="round"/>
<path d="M73.0089 36.248C73.0089 36.248 72.5685 37.678 72.5239 37.8252C72.2797 38.6415 72.3222 38.5554 72.0977 39.3772C71.5309 41.4578 71.2127 43.5984 71.0176 45.7488C70.3997 52.5467 71.8285 62.8006 78.635 66.2033" stroke="black" stroke-width="2" stroke-miterlimit="10" stroke-linecap="round" stroke-linejoin="round"/>
<path d="M60.9271 35.4964C60.5184 30.934 57.1365 29.8964 55.2629 29.7045C46.222 28.7759 36.5054 29.7209 27.4025 32.2222C24.5207 33.0146 18.621 34.656 18.1589 37.3285C17.9039 38.8053 17.0995 42.413 17.0995 42.413" stroke="black" stroke-width="2" stroke-miterlimit="10" stroke-linecap="round" stroke-linejoin="round"/>
</svg>
