<svg width="100" height="100" viewBox="0 0 100 100" fill="none" xmlns="http://www.w3.org/2000/svg">
<path d="M38.6709 62.8108C42.9543 62.3661 45.7444 62.4326 49.7008 60.6396" stroke="black" stroke-width="2" stroke-miterlimit="10" stroke-linecap="round" stroke-linejoin="round"/>
<path d="M34.9216 59.0721C35.1287 58.6536 34.6927 59.4133 34.5183 59.8481C34.2023 60.6536 34.0279 60.9773 33.8535 62.1392" stroke="black" stroke-width="2" stroke-miterlimit="10" stroke-linecap="round" stroke-linejoin="round"/>
<path d="M50.7148 55.2891C50.7148 55.2891 53.1562 56.634 53.9082 58.2918" stroke="black" stroke-width="2" stroke-miterlimit="10" stroke-linecap="round" stroke-linejoin="round"/>
<path d="M30.2783 45.2808C31.1571 44.8198 31.3899 44.6847 31.9567 44.5419C34.3763 43.937 36.9377 43.0432 38.4527 45.5686C39.608 47.4901 38.1584 51.2874 37.875 53.2895C37.766 54.0558 37.33 55.6884 38.082 56.2476C40.9049 58.362 49.657 56.0743 45.3954 51.8116" stroke="black" stroke-width="2" stroke-miterlimit="10" stroke-linecap="round" stroke-linejoin="round"/>
<path d="M44.9492 43.1726C47.4233 41.1704 50.6931 41.3524 53.5705 42.2484" stroke="black" stroke-width="2" stroke-miterlimit="10" stroke-linecap="round" stroke-linejoin="round"/>
<path d="M69.0254 37.0749C68.6548 35.3517 68.3278 32.4733 68.2516 31.185C68.0554 27.7256 67.5976 25.3093 63.4559 20.5332C59.9682 16.5191 53.0254 13.5654 46.693 14.0526C41.2216 14.4733 32.8511 15.8553 29.1454 27.7463C25.4397 39.6373 28.3716 48.7501 28.4697 54.0133C28.5677 59.2765 28.753 65.1239 34.0718 69.5097C39.3797 73.8955 41.3742 76.2355 45.4723 75.2601C49.5704 74.2857 54.8784 69.3146 56.8729 67.2198C58.8783 65.1239 62.4314 61.7615 63.7938 60.0067C65.1562 58.253 65.5813 57.7626 66.5514 56.1538C67.5214 54.5462 68.2734 52.2661 68.2734 52.2661L69.6576 48.4307" stroke="black" stroke-width="2" stroke-miterlimit="10" stroke-linejoin="round"/>
<path d="M28.5021 55.6985C28.5021 57.4914 27.4449 59.9971 27.1397 61.7944C26.8781 63.3802 27.0088 65.3028 27.3249 66.844C27.6519 68.5083 26.9762 70.3797 27.2596 72.0767C28.2732 78.1312 28.8727 79.7639 33.9735 83.8478C39.4776 88.2478 48.3712 87.3508 53.6573 84.7066C61.7009 80.6837 64.2295 77.9513 68.6655 70.5737C70.4311 67.6233 70.5837 65.0304 71.2486 61.6723C71.9461 58.2217 73.3086 54.1465 72.4039 50.5378C72.3167 50.1541 71.096 47.0315 70.3331 47.789C67.1941 50.9334 69.4393 51.862 64.4366 59.2015C62.9761 61.3497 60.7636 63.7672 58.9652 65.5666C55.9679 68.5584 52.7636 72.8941 48.9271 74.8145C41.374 78.5889 33.3304 72.566 30.4857 65.4445C29.6029 63.232 30.2568 65.2723 29.0906 61.0522" stroke="black" stroke-width="2" stroke-miterlimit="10" stroke-linecap="round" stroke-linejoin="round"/>
<path d="M65.3193 41.9712C65.3193 39.266 70.2021 34.3036 71.6626 38.6992C72.4364 41.0262 71.8588 45.2344 70.3111 47.1668C69.7116 47.9177 69.232 48.7701 68.3492 49.2126C67.9459 49.4142 66.758 50.0681 67.1612 49.8665" stroke="black" stroke-width="2" stroke-miterlimit="10" stroke-linecap="round" stroke-linejoin="round"/>
<path d="M70.1695 48.9792C68.0224 56.8713 67.8153 62.3961 62.9543 69.2953C59.8262 73.7443 54.8671 80.4288 47.75 81.2636" stroke="black" stroke-width="2" stroke-miterlimit="10" stroke-linecap="round" stroke-linejoin="round"/>
<path d="M63.8586 21.0254C63.0956 20.3748 62.3545 24.5611 62.2346 25.2914C61.6351 28.8401 61.7115 32.2854 62.1475 35.7894C62.2455 36.6047 62.3 38.4881 62.8994 39.094C63.3899 39.5856 67.3084 36.5118 67.6571 35.8208C69.4337 32.2655 66.6269 23.372 63.8586 21.0254Z" fill="black" stroke="black" stroke-width="2" stroke-miterlimit="10" stroke-linecap="round" stroke-linejoin="round"/>
<circle cx="35.1572" cy="45.8203" r="1" stroke="black" stroke-width="2"/>
<circle cx="49.1572" cy="43.8203" r="1" stroke="black" stroke-width="2"/>
</svg>
