<svg width="100" height="100" viewBox="0 0 100 100" fill="none" xmlns="http://www.w3.org/2000/svg">
<path d="M50.5707 29.2448C54.9828 29.0061 59.4373 28.8567 63.7085 30.1469C68.0221 31.5263 72.165 34.5747 74.2263 39.3232C76.1477 43.5742 74.5217 38.7234 74.2263 43.5779C73.9526 47.464 72.766 62.4275 70.9046 65.4029C68.0827 70.006 62.269 72.8182 57.5383 73.3998C50.5356 74.2662 48.6501 74.9926 41.7252 73.1829C38.3413 72.3421 32.6828 67.4253 29.9155 64.8408C25.565 60.7466 26.5871 45.7814 27.4693 39.3232C28.3516 32.865 29.094 34.9138 33.8006 31.8469C38.6939 28.7679 44.9951 29.4665 50.5707 29.2448Z" stroke="black" stroke-width="2" stroke-miterlimit="10"/>
<path fill-rule="evenodd" clip-rule="evenodd" d="M43.9219 58.8744C44.6606 58.2549 45.522 57.8447 46.4337 57.8447H46.5061L46.5778 57.8552C47.5758 58.0005 48.2933 58.1834 48.8677 58.3456C49.0037 58.384 49.1257 58.4193 49.2372 58.4515L49.2373 58.4516L49.2373 58.4516C49.6188 58.5619 49.8778 58.6367 50.156 58.6804C50.7582 58.7749 51.4916 58.7226 53.6147 57.9107L53.7872 57.8447H53.9719C55.6422 57.8447 56.8495 59.0555 57.7827 60.9641C58.7194 62.8798 59.5474 65.814 60.3526 69.9771C61.8483 73.908 59.5918 77.3278 58.0246 79.5903C56.1503 82.2961 53.4394 82.999 50.7105 82.999H50.6383L50.5669 82.9886C50.1517 82.9283 49.7558 82.8736 49.3777 82.8214C47.8797 82.6143 46.6632 82.4462 45.6511 82.1263C44.2778 81.6923 43.2446 80.9796 42.1554 79.6564C41.1483 78.4328 40.4103 76.8082 40.0261 75.1225C39.6525 73.4834 39.597 71.7138 40.0127 70.1207C40.0315 66.5373 40.8036 63.5655 41.9319 61.4479C42.5023 60.3772 43.1786 59.4977 43.9219 58.8744ZM47.9034 66.7969C47.3768 66.6302 46.8149 66.9219 46.6482 67.4484C46.4815 67.975 46.7732 68.5369 47.2997 68.7036C47.3772 68.7282 47.4565 68.7536 47.5374 68.7796C48.2543 69.0094 49.1016 69.2812 50.0362 69.3611C51.1172 69.4535 52.2933 69.2938 53.635 68.6525C54.1333 68.4144 54.3442 67.8173 54.106 67.319C53.8679 66.8207 53.2708 66.6099 52.7725 66.848C51.7532 67.3352 50.9338 67.4305 50.2066 67.3683C49.5094 67.3087 48.8776 67.1073 48.1336 66.8701L48.1336 66.8701C48.0581 66.8461 47.9814 66.8216 47.9034 66.7969Z" fill="black"/>
<path d="M57.0146 47.3943C59.3679 47.9244 64.5974 48.6665 66.6892 47.3943" stroke="black" stroke-width="2" stroke-miterlimit="10" stroke-linecap="round"/>
<path d="M61.9843 51.2109C62.8508 51.2109 63.5532 50.3565 63.5532 49.3026C63.5532 48.2487 62.8508 47.3943 61.9843 47.3943C61.1179 47.3943 60.4155 48.2487 60.4155 49.3026C60.4155 50.3565 61.1179 51.2109 61.9843 51.2109Z" fill="black"/>
<path d="M34.267 47.3943C36.6203 47.9244 41.8499 48.6665 43.9417 47.3943" stroke="black" stroke-width="2" stroke-miterlimit="10" stroke-linecap="round"/>
<path d="M38.9736 51.2109C39.84 51.2109 40.5424 50.3565 40.5424 49.3026C40.5424 48.2487 39.84 47.3943 38.9736 47.3943C38.1071 47.3943 37.4047 48.2487 37.4047 49.3026C37.4047 50.3565 38.1071 51.2109 38.9736 51.2109Z" fill="black"/>
<path d="M48.1049 46.1221C46.8846 50.1507 44.5479 58.2448 47.7308 59.0319" stroke="black" stroke-width="2" stroke-miterlimit="10" stroke-linecap="round"/>
<path d="M26.9952 42.3456C25.8385 43.7777 25.6828 44.9703 25.1578 47.97L26.9952 55.9224C26.9952 55.9224 21.6025 64.4685 18.0427 58.844C14.4829 53.2195 16.4967 48.0179 19.6459 40.8457C23.6576 31.709 29.8826 22.4725 36.9696 20.5977C42.6392 19.0978 47.2064 21.2226 48.7813 22.4725C53.7684 17.598 65.0551 20.2227 71.0922 28.8469C75.9218 35.7462 88.016 53.0736 82.3789 58.844C76.7417 64.6144 72.6583 58.844 72.6583 58.844C72.6583 55.8443 75.4494 49.095 73.9795 46.0952C72.1421 42.3456 69.7798 35.9712 64.2677 35.9712C59.858 35.9712 52.106 31.2217 48.7813 28.8469C47.2064 31.0967 37.7571 34.0964 35.3947 34.0964C33.0324 34.0964 30.9324 37.4711 26.9952 42.3456Z" fill="black" stroke="black" stroke-width="2" stroke-miterlimit="10" stroke-linecap="round"/>
<path d="M60.4138 42.3057L66.4277 43.5779" stroke="black" stroke-width="2" stroke-miterlimit="10" stroke-linecap="round"/>
<path d="M33.2204 43.2598L39.7573 42.3057" stroke="black" stroke-width="2" stroke-miterlimit="10" stroke-linecap="round"/>
</svg>
