<svg width="100" height="100" viewBox="0 0 100 100" fill="none" xmlns="http://www.w3.org/2000/svg">
<path d="M75.0337 49.1602C76.571 49.3993 78.4459 49.6548 78.5448 52.1661C78.6396 54.7741 78.5812 63.5174 74.3062 62.4176" stroke="black" stroke-width="2" stroke-miterlimit="10" stroke-linecap="round"/>
<path d="M29.5069 49.0127C27.1892 49.0127 25.7147 49.3301 25.7147 52.0589C25.6277 55.7997 26.9814 62.825 29.4199 62.825" stroke="black" stroke-width="2" stroke-miterlimit="10" stroke-linecap="round"/>
<path d="M74.2101 30.1748C74.2101 30.1748 75.8035 51.1568 74.2101 62.8234C72.6167 74.49 64.7151 85.4251 52.6485 85.8437C52.3518 85.8437 52.055 85.8437 51.8572 85.8437C39.4939 85.8437 29.5044 75.4846 29.5044 62.8234L29.5044 32.1955" stroke="black" stroke-width="2" stroke-miterlimit="10" stroke-linecap="round"/>
<path d="M45.5322 76.8417C46.604 76.957 53.6705 77.0533 53.6553 75.7779Z" stroke="black" stroke-width="2" stroke-miterlimit="10" stroke-linecap="round"/>
<path d="M46.8983 57.5273C46.7235 57.666 44.3809 63.0346 44.376 65.7794C44.3697 69.2475 47.2348 70.049 53.354 67.7422" stroke="black" stroke-width="2" stroke-miterlimit="10" stroke-linecap="round"/>
<path d="M46.825 55.1855H55.4298" stroke="black" stroke-width="2" stroke-miterlimit="10" stroke-linecap="round"/>
<path d="M61.959 62.8249C65.5642 62.8249 68.4868 59.7329 68.4868 55.9188C68.4868 52.1047 65.5642 49.0127 61.959 49.0127C58.3538 49.0127 55.4312 52.1047 55.4312 55.9188C55.4312 59.7329 58.3538 62.8249 61.959 62.8249Z" stroke="black" stroke-width="2" stroke-miterlimit="10" stroke-linecap="round"/>
<path d="M40.2971 62.8249C43.9023 62.8249 46.8249 59.7329 46.8249 55.9188C46.8249 52.1047 43.9023 49.0127 40.2971 49.0127C36.6919 49.0127 33.7693 52.1047 33.7693 55.9188C33.7693 59.7329 36.6919 62.8249 40.2971 62.8249Z" stroke="black" stroke-width="2" stroke-miterlimit="10" stroke-linecap="round"/>
<path d="M73.0156 28.9652C72.9708 28.9652 72.9379 28.9233 72.9469 28.8794C73.0156 28.5455 73.0156 28.2036 73.0156 27.7593C73.0156 23.2978 69.5875 19.8008 65.3684 19.8008C62.7631 19.8008 58.4009 18.6132 56.3381 17.0218C54.3925 15.5207 51.8506 14.8728 49.2831 15.4598C45.2857 16.3257 36.8317 18.6089 33.2471 20.5785C32.7387 20.8578 32.2501 21.2013 31.7913 21.6096C29.7908 23.3994 28.8231 26.1339 29.2289 28.8782C29.2357 28.9238 29.2005 28.9652 29.1544 28.9652C25.5506 28.9652 22.562 31.9798 22.562 35.8384C22.562 39.5765 25.4627 42.7117 29.1544 42.7117C29.6818 42.7117 31.0881 42.7117 32.4945 41.747C34.1195 40.6324 35.8846 39.3834 37.8419 39.1548C40.9017 38.7974 43.0384 37.9553 43.5697 37.0443C44.0971 36.0796 44.4487 35.1149 44.4487 34.0297C44.4487 33.7885 44.7124 33.6679 44.8882 33.7885C46.2066 34.9943 50.5136 38.6118 53.3264 37.5266C54.7327 36.9237 56.5786 34.7532 57.2818 33.7885C57.3697 33.6679 57.6334 33.6679 57.6334 33.9091C57.8971 37.406 60.7098 40.1794 64.1379 40.3C66.3633 40.3 68.7479 40.0415 70.6584 41.1829L71.2677 41.5469C72.4116 42.2302 73.7525 42.6876 75.0176 42.2694C77.6623 41.3952 79.6079 38.8313 79.6079 35.7178C79.6079 31.9798 76.6194 28.9652 73.0156 28.9652Z" fill="black"/>
<path d="M73.2348 29.0139V29.0139C73.1896 29.0139 73.1563 28.9717 73.1652 28.9275C73.2348 28.5819 73.2348 28.2363 73.2348 27.8908C73.2348 23.4919 69.873 19.9353 65.7151 19.8417V19.8417C63.1272 19.8417 58.8344 18.6631 56.8012 17.0621C54.8717 15.5428 52.3444 14.8821 49.7909 15.4428V15.4428C45.8554 16.3193 37.5001 18.5906 33.9789 20.5548C33.5039 20.8198 33.0504 21.1435 32.6282 21.5264C30.6145 23.2863 29.6405 26.0545 30.1351 28.8331C30.1431 28.8783 30.1086 28.9203 30.0626 28.9203V28.9203C26.4355 28.9203 23.6045 32.0089 23.6045 35.7527C23.6045 39.4964 26.5239 42.585 30.0626 42.585C30.5934 42.585 31.9204 42.585 33.3359 41.6491V41.6491C34.8994 40.5857 36.6291 39.3543 38.5066 39.13C41.5552 38.7657 43.6792 37.8946 44.2174 36.9694C44.7482 36.0334 45.0136 35.0039 45.1021 33.9744C45.1021 33.7872 45.3675 33.6 45.5444 33.7872C46.8715 35.0039 51.1179 38.6541 53.8604 37.5309C55.1874 36.9694 57.0452 34.7231 57.753 33.7872C57.8414 33.6936 58.1068 33.6936 58.1068 33.8808C58.3723 37.4373 60.7375 38.6494 64.0993 38.743V38.743C66.481 38.743 69.1037 40.0774 71.1397 41.3133L71.5029 41.5337C72.6358 42.2214 73.9704 42.6842 75.2257 42.2593C77.8466 41.3721 79.6929 38.776 79.6929 35.7527C79.6929 32.0089 76.862 29.0139 73.2348 29.0139Z" stroke="black" stroke-width="2" stroke-miterlimit="10" stroke-linecap="round"/>
<circle cx="64" cy="56" r="2" fill="black"/>
<circle cx="42" cy="56" r="2" fill="black"/>
<path d="M60.8457 46.6689C61.9325 46.7369 64.3099 46.9542 65.125 47.2803C65.9401 47.6063 67.706 48.5708 68.487 49.0122" stroke="black" stroke-width="2" stroke-miterlimit="10" stroke-linecap="round"/>
<path d="M74.9185 44.3273C53.1026 34.4798 35.8674 40.2242 29.9768 44.3273L25.7109 39.8139L46.5822 31.334L74.9185 38.5828V44.3273Z" fill="black"/>
<path d="M68.0882 18.2908C72.5795 20.8899 73.7893 26.1214 73.8328 28.4123L43.8044 24.4136C39.4961 24.6219 31.2448 24.4136 32.7071 21.9145C34.5349 18.7905 46.8071 16.1664 49.2877 15.5417C51.7683 14.9169 62.4741 15.0419 68.0882 18.2908Z" fill="black" stroke="black" stroke-width="2" stroke-miterlimit="10" stroke-linecap="round"/>
<path d="M53.8652 13.561C54.0621 12.6744 55.1653 10.8815 58.0024 10.8027" stroke="black" stroke-width="2" stroke-miterlimit="10" stroke-linecap="round"/>
<path d="M53.002 13.561C52.805 12.6744 51.7019 10.8815 48.8647 10.8027" stroke="black" stroke-width="2" stroke-miterlimit="10" stroke-linecap="round"/>
</svg>
