<svg width="100" height="100" viewBox="0 0 100 100" fill="none" xmlns="http://www.w3.org/2000/svg">
<path d="M30.9161 66.9576C32.9274 70.097 35.4753 74.4759 39.0968 77.819C41.0099 79.5851 48.5756 84.1019 52.1075 84.4698C54.0698 84.7666 58.3205 84.4637 60.8774 82.1037C63.6535 79.5412 68.7619 68.7668 70.933 64.2644" stroke="black" stroke-width="2" stroke-linecap="round"/>
<path d="M51.9758 68.9121C51.1766 68.7392 48.2445 70.2361 46.8783 71.0063C46.8783 71.6695 47.2505 71.9091 48.3306 72.0981C49.4106 72.2871 51.3817 72.6921 53.8928 72.9081C55.9017 73.0809 59.6853 72.0981 60.274 70.4887C60.8626 68.8792 56.6469 69.1931 55.8909 68.9121C55.1349 68.6311 54.1178 69.0292 53.7038 69.2633C53.2934 69.1121 52.3808 68.9662 51.9758 68.9121Z" fill="black"/>
<path d="M50.8522 62.2235C53.9367 62.4085 58.6974 62.316 58.0964 59.5401C57.29 55.8156 53.073 49.084 53.9983 46.123" stroke="black" stroke-width="2" stroke-linecap="round"/>
<circle cx="62.5001" cy="48.5" r="1.5" fill="black"/>
<circle cx="42.5001" cy="48.5" r="1.5" fill="black"/>
<path d="M58.5568 47.6782C59.2276 47.3921 60.8862 46.8199 62.1532 46.8201C63.4203 46.8202 65.1889 47.5682 65.9148 47.9421" stroke="black" stroke-width="2" stroke-linecap="round"/>
<path d="M39.1293 47.4535C39.8002 47.1674 41.4587 46.5953 42.7257 46.5955C43.9928 46.5956 45.7614 47.3436 46.4873 47.7175" stroke="black" stroke-width="2" stroke-linecap="round"/>
<path d="M67.0738 42.4474C67.0571 42.0285 66.7523 41.1607 65.6664 41.0399C64.309 40.8889 59.9469 41.5345 57.8024 43.1424" stroke="black" stroke-width="2" stroke-linecap="round"/>
<path d="M41.8101 41.9423C44.7348 42.2586 47.1839 42.4353 46.674 42.6352C46.164 42.8351 37.2681 42.6352 36.3196 42.6352C35.3711 42.6352 40.3123 41.7803 41.8101 41.9423Z" stroke="black" stroke-width="2" stroke-linecap="round"/>
<path d="M29.5725 38.082C28.9373 44.7868 28.9857 59.0413 30.5101 62.429" stroke="black" stroke-width="2" stroke-miterlimit="10" stroke-linecap="round"/>
<path d="M72.0465 37.834C71.9122 44.4123 71.4423 58.2536 70.6367 60.9925" stroke="black" stroke-width="2" stroke-miterlimit="10" stroke-linecap="round"/>
<path d="M31.9609 40.9099C31.3548 42.5263 30.6657 44.7832 30.6657 49.7131L31.8576 69.6985C31.8576 69.6985 26.8045 66.4678 23.6097 61.0504C20.4149 55.6331 20.7832 45.1059 23.6094 38.1978C27.2098 29.3975 32.7965 20.5011 39.1568 18.6953C44.245 17.2507 48.3439 15.8909 49.7573 17.0947C54.2331 12.3997 64.3624 18.3342 69.7804 26.6408C74.1148 33.2861 86.0387 47.5544 74.7428 62.1813C63.4468 76.8082 69.9066 67.0976 69.9066 67.0976C69.9066 64.2083 71.0996 46.626 69.7804 43.7368C68.1315 40.1252 68.6026 33.5028 63.6557 33.5028C59.6982 33.5028 52.7411 28.9281 49.7573 26.6408C48.3439 28.8077 39.724 30.9407 37.7434 31.697C34.9772 32.7532 33.8729 35.8113 31.9609 40.9099Z" fill="black" stroke="black" stroke-width="2" stroke-miterlimit="10" stroke-linecap="round"/>
</svg>
