<svg width="100" height="100" viewBox="0 0 100 100" fill="none" xmlns="http://www.w3.org/2000/svg">
<path d="M68.2106 42.083C70.6714 42.4877 72.4431 45.1858 72.5415 48.4234C72.6399 51.9309 70.4745 55.0336 67.7185 55.0336" stroke="black" stroke-width="2" stroke-miterlimit="10" stroke-linecap="round"/>
<path d="M22.8372 42.083C20.3764 42.4877 18.6047 45.1858 18.5063 48.4234C18.4079 51.9309 19.9827 55.0336 22.7387 55.0336" stroke="black" stroke-width="2" stroke-miterlimit="10" stroke-linecap="round"/>
<path d="M67.6213 40.1777V58.9939C67.6213 71.9781 58.1721 82.7616 46.1639 83.2017C45.8686 83.2017 45.5733 83.2017 45.3764 83.2017C33.0729 83.2017 23.1316 72.3082 23.1316 58.9939L23.1316 40.1777" stroke="black" stroke-width="2" stroke-miterlimit="10" stroke-linecap="round"/>
<path d="M41.5449 47.7891C41.7696 50.2826 42.0843 55.6259 41.5449 57.0508C41.0055 58.4756 40.1965 58.8319 39.8594 58.8319" stroke="black" stroke-width="2" stroke-miterlimit="10" stroke-linecap="round"/>
<path d="M39.4037 58.1197C38.7295 58.7134 37.7856 60.1145 39.4037 60.9694C41.4263 62.0381 42.437 62.7505 43.7855 62.7505C45.1339 62.7505 48.505 60.257 48.505 59.1883C48.505 58.3334 47.606 57.6447 47.1565 57.4072" stroke="black" stroke-width="2" stroke-miterlimit="10" stroke-linecap="round"/>
<path d="M54.1253 50.5328C55.6748 50.5328 56.931 49.2009 56.931 47.5579C56.931 45.9149 55.6748 44.583 54.1253 44.583C52.5757 44.583 51.3196 45.9149 51.3196 47.5579C51.3196 49.2009 52.5757 50.5328 54.1253 50.5328Z" fill="black"/>
<path d="M51.2544 48.0637C51.9406 47.2167 53.6371 45.523 54.9331 45.5234C56.2291 45.5239 58.0382 47.7381 58.7807 48.8451" stroke="black" stroke-width="2" stroke-linecap="round"/>
<path d="M34.5745 50.5328C36.124 50.5328 37.3802 49.2009 37.3802 47.5579C37.3802 45.9149 36.124 44.583 34.5745 44.583C33.025 44.583 31.7688 45.9149 31.7688 47.5579C31.7688 49.2009 33.025 50.5328 34.5745 50.5328Z" fill="black"/>
<path d="M30.8113 48.0637C31.4975 47.2167 33.194 45.523 34.49 45.5234C35.786 45.5239 37.5951 47.7381 38.3376 48.8451" stroke="black" stroke-width="2" stroke-linecap="round"/>
<path d="M23.0571 25.8531C25.3565 19.6688 34.9799 16.8345 39.6637 16.8345C44.4541 16.5482 55.8231 17.951 61.6992 20.6996C67.5753 23.4481 68.1927 34.4423 67.7669 39.5959H38.1573C38.106 39.5959 38.063 39.5571 38.0576 39.5061C37.9642 38.6258 37.1839 31.5684 36.1508 31.4361C35.1181 31.3038 34.6185 38.5876 34.5599 39.502C34.5565 39.5548 34.5128 39.5959 34.4598 39.5959H21.2263C21.1772 39.5959 21.1356 39.5626 21.1284 39.514C20.8204 37.4438 20.7884 31.955 23.0571 25.8531Z" stroke="black" stroke-width="2" stroke-miterlimit="10" stroke-linecap="round"/>
<path d="M67.8954 34.898C73.78 33.7382 87.9989 32.161 90.0432 35.0204C92.5985 38.5947 88.9208 39.2898 84.8773 39.627C81.6424 39.8968 72.0163 39.6854 67.6076 39.5459" stroke="black" stroke-width="2" stroke-miterlimit="10" stroke-linecap="round"/>
<path fill-rule="evenodd" clip-rule="evenodd" d="M23.2427 59.659C25.9023 62.2611 31.7533 67.4965 33.8808 67.6214C35.1617 67.6967 35.7571 67.0836 36.3768 66.4453C37.0437 65.7585 37.7389 65.0425 39.3471 65.1234C40.4587 65.1793 42.3477 65.075 44.4097 64.961C48.1032 64.757 52.3514 64.5222 53.6788 65.1234C55.3336 65.8728 57.1263 67.101 57.8158 67.6214C60.623 66.0082 66.4148 62.1571 67.124 59.659C67.8332 57.161 67.912 59.3467 67.8628 60.7519C66.8778 66.2163 62.4203 78.6994 55.4465 80.9476C46.7293 83.7579 40.0858 83.0781 34.7668 79.9555C29.4478 76.833 23.9817 70.4317 23.2427 59.659ZM49.5356 69.9517C49.5748 70.1673 49.4933 70.3452 49.4202 70.4552C49.1854 70.8086 48.8169 71.0604 48.4212 71.2435C48.0201 71.4289 47.5498 71.5627 47.0585 71.6572C46.0756 71.8461 44.9453 71.8896 43.9699 71.8345C43.4808 71.8069 43.0215 71.754 42.6313 71.679C42.2538 71.6064 41.8971 71.5053 41.6432 71.3601C41.5206 71.2901 41.361 71.176 41.2654 70.9938C41.1477 70.7695 41.1675 70.5214 41.2917 70.3185C41.3947 70.1501 41.5551 70.0336 41.7006 69.9501C41.8553 69.8615 42.0463 69.7807 42.2681 69.7052L42.3424 69.6799L42.4208 69.6785C43.0345 69.6679 43.9022 69.5899 44.8235 69.507L44.8235 69.507L44.8236 69.507C45.4327 69.4522 46.0652 69.3953 46.6633 69.3544C47.3888 69.3047 48.0727 69.2786 48.5482 69.3249C48.7642 69.3459 49.0348 69.3886 49.2354 69.5179C49.3498 69.5916 49.4952 69.7292 49.5356 69.9517Z" fill="black"/>
<path d="M66.9118 42.8205C66.8242 44.1191 54.074 41.5837 47.71 40.1537L66.9118 39.458C66.9484 40.0377 66.9995 41.5219 66.9118 42.8205Z" fill="black"/>
</svg>
