<svg width="100" height="100" viewBox="0 0 100 100" fill="none" xmlns="http://www.w3.org/2000/svg">
<path d="M32.7113 49.1121C32.0584 47.0227 29.9723 45.8402 29.0917 48.4483C28.198 51.0947 28.6121 53.4042 28.7113 56.0745C28.756 57.2843 29.9756 59.4194 31.3718 59.3006C32.1522 59.2352 33.0633 57.9677 33.0546 58.02" stroke="black" stroke-width="2" stroke-miterlimit="10" stroke-linecap="round" stroke-linejoin="round"/>
<path d="M33.1018 57.6403C34.7498 62.91 35.8821 68.6594 38.4575 73.5716C43.2891 82.7858 60.4481 87.8822 66.6018 77.6403C68.9549 73.7242 67.9986 68.5068 69.24 64.2681C71.2531 57.394 74.0585 47.4115 70.5043 40.6333C64.7845 29.7243 52.9807 32.315 41.8657 36.7466C38.596 38.0502 35.9039 40.3488 34.451 41.6371C33.1388 42.8011 31.057 45.7777 30.0815 47.1325" stroke="black" stroke-width="2" stroke-miterlimit="10" stroke-linecap="round" stroke-linejoin="round"/>
<path d="M38.112 73.4619C37.6881 76.0821 38.8744 78.9401 37.5 83.9995" stroke="black" stroke-width="2" stroke-miterlimit="10" stroke-linecap="round" stroke-linejoin="round"/>
<path d="M38.0248 78.6634C38.0837 78.2982 36.5991 80.8626 36.4999 80.9999C36.0236 81.6625 35.9279 82.677 35.9999 82.9999C36.3971 84.7819 38.5349 85.9462 40.6755 85.9854C42.4324 86.0181 44.2319 86.0127 45.9932 86.1009C51.5801 86.38 57.6063 87.0917 62.8716 84.9892C64.3615 84.3952 67.4972 83.4884 67.4188 81.3642C67.3795 80.3081 66.6394 79.6367 66.3539 78.7244" stroke="black" stroke-width="2" stroke-miterlimit="10" stroke-linecap="round" stroke-linejoin="round"/>
<path d="M50.2209 68.6369C53.0722 68.2412 53.5321 67.184 54.9763 67.0565C55.6934 66.9944 57.0918 67.7235 57.7294 67.7824C58.1501 67.8205 59.4809 67.2363 59.9626 67.1938C61.6978 67.0412 61.1735 67.935 63.434 68.4439C63.434 68.4439 61.5801 68.6837 58.0182 68.9573C53.712 69.2875 50.2209 68.6369 50.2209 68.6369Z" fill="black" stroke="black" stroke-width="2" stroke-miterlimit="10" stroke-linecap="round" stroke-linejoin="round"/>
<path d="M60.5131 44.7168C56.3867 46.0083 61.2684 52.8781 62.6482 54.7909C63.1256 55.4514 64.0913 57.3882 62.7409 58.5696C61.7218 59.4634 61.2357 59.1222 59.2761 59.1941C58.0837 59.2388 57.0821 61.1876 54.6668 59.5277C53.5289 58.7462 53.0407 56.8628 54.8325 55.8241" stroke="black" stroke-width="2" stroke-miterlimit="10" stroke-linecap="round" stroke-linejoin="round"/>
<path d="M27.5911 51.2139C25.9213 50.9436 25.3753 48.16 25.166 46.8695C24.5056 42.8096 25.8701 36.0227 28.2886 32.6658C34.3246 24.2865 46.7736 20.5285 56.7725 20.4827C65.0155 20.4445 72.8902 24.6952 74.7975 33.226C75.6422 37.0025 74.6667 40.5687 74.9817 44.2886C75.0983 45.6674 74.2122 47.8548 72.7136 46.7747" stroke="black" stroke-width="2" stroke-miterlimit="10" stroke-linecap="round" stroke-linejoin="round"/>
<path d="M53.1856 45.6677C50.8641 43.865 46.0402 43.3582 42.8304 46.6672" stroke="black" stroke-width="2" stroke-miterlimit="10" stroke-linecap="round" stroke-linejoin="round"/>
<path d="M60.7202 44.6133C61.9911 44.0215 64.0249 43.8493 65.4821 44.1109C66.7093 44.3321 67.9758 44.9948 68.7736 45.7022" stroke="black" stroke-width="2" stroke-miterlimit="10" stroke-linecap="round" stroke-linejoin="round"/>
<path d="M28.3998 32.0646C32.1208 12.8025 57.5267 7.73547 67.0482 22.7752" stroke="black" stroke-width="2" stroke-miterlimit="10" stroke-linecap="round" stroke-linejoin="round"/>
<path d="M37.6017 80.6396C35.641 84.4227 43.5669 85.2626 45.7685 85.1362C52.3843 84.7569 55.253 85.6997 62.9598 83.1732C65.5887 82.3122 65.7487 80.6802 66.1018 80.1396" stroke="black" stroke-width="2" stroke-miterlimit="10" stroke-linecap="round" stroke-linejoin="round"/>
<path d="M56.1185 63.9576C52.7125 61.974 49.1932 65.3375 46.5142 65.8083C45.0286 66.0699 43.6771 63.7691 45.36 63.7146" stroke="black" stroke-width="2" stroke-miterlimit="10" stroke-linecap="round" stroke-linejoin="round"/>
<path d="M59.0057 63.8526C62.7747 62.1752 66.6428 66.3594 66.3594 62.0564" stroke="black" stroke-width="2" stroke-miterlimit="10" stroke-linecap="round" stroke-linejoin="round"/>
<path d="M55.7457 83.129C56.8999 82.5525 58.5054 80.062 58.1784 77.4855" stroke="black" stroke-width="2" stroke-miterlimit="10" stroke-linecap="round" stroke-linejoin="round"/>
<circle cx="66.1016" cy="46.6406" r="1" stroke="black" stroke-width="2"/>
<circle cx="50.1016" cy="46.6406" r="1" stroke="black" stroke-width="2"/>
</svg>
