<svg width="100" height="100" viewBox="0 0 100 100" fill="none" xmlns="http://www.w3.org/2000/svg">
<path d="M52.6057 64.4019C49.1714 61.5563 47.1976 58.1246 46.0264 56.4044C42.5129 50.9144 47.1157 37.9401 42.8335 30.2541C38.5513 22.5681 27.3518 21.6898 22.0814 24.9838C16.811 28.2778 12.1994 36.5127 17.36 46.3947C22.5206 56.2767 34.379 56.0571 38.0024 57.3747C41.6258 58.6923 43.712 64.4019 45.2492 68.0253C46.7864 71.6486 49.643 82.8993 57.0328 78.4171C63.3117 74.6087 56.5585 67.677 52.6057 64.4019Z" stroke="black" stroke-width="2" stroke-linecap="round"/>
<path d="M42.9009 62.7535C46.9451 69.9605 47.7056 77.2711 52.6139 78.6364C55.095 79.3266 58.9213 77.939 59.4751 75.4218" stroke="black" stroke-width="2"/>
<path d="M17.5601 46.7775C18.2807 44.111 21.1922 37.6394 27.0729 33.0846C32.9537 28.5299 38.6038 27.6315 40.6938 27.7516" stroke="black" stroke-width="2" stroke-linecap="round"/>
<path d="M23.8799 53.0704C24.7686 50.2182 28.0094 43.596 33.8628 39.9252C39.7162 36.2544 43.1003 35.7082 44.2578 35.8735" stroke="black" stroke-width="2" stroke-linecap="round"/>
<path fill-rule="evenodd" clip-rule="evenodd" d="M22.5822 37.4392C20.9744 39.5293 18.6296 44.2054 17.6582 46.2821L19.7685 49.7489L23.989 53.2158L27.6066 45.8299L32.8822 40.4537L39.3637 37.4392L44.3882 35.781L43.3833 31.4098L41.0218 27.943H37.9067L29.3651 31.4098C27.7741 32.5487 24.19 35.349 22.5822 37.4392ZM21.4122 44.089C21.002 44.7182 23.0847 50.8869 23.7418 49.8817C24.3989 48.8765 26.9637 44.7832 26.9033 44.5719C26.8278 44.3076 21.8224 43.4597 21.4122 44.089ZM28.2784 42.6486C27.3888 43.4552 26.7128 36.3487 27.113 35.9847C27.5133 35.6207 33.223 38.0953 33.2293 38.37C33.2326 38.5116 31.5452 39.9124 30.1066 41.1066L30.1066 41.1066L30.1066 41.1066C29.3128 41.7656 28.5947 42.3617 28.2784 42.6486ZM42.5536 31.6338C42.3014 31.4825 41.6724 34.3486 41.7575 34.5066C41.8425 34.6645 43.3203 34.3042 43.4212 34.1024C43.5473 33.8501 42.8689 31.8231 42.5536 31.6338ZM35.3167 37.3364C34.334 37.819 35.5328 31.4222 35.9752 31.2042C36.4177 30.9862 40.7966 34.5933 40.7329 34.8356C40.7 34.9605 38.8685 35.7625 37.3071 36.4462C36.4455 36.8235 35.6662 37.1648 35.3167 37.3364Z" fill="black"/>
<path d="M31.2888 69.4341C31.3519 72.0108 34.8431 74.1031 37.4103 73.8992C40.5522 73.6497 42.5702 70.8636 44.918 67.2826" stroke="black" stroke-width="2"/>
<path d="M46.2537 55.497C48.9935 53.2452 49.6948 52.6202 50.1407 48.9794C50.6838 37.5712 52.5338 32.6763 56.2451 28.2733C61.9156 21.546 73.0769 22.8215 77.6216 27.0609C83.3453 32.4002 84.4807 41.0674 78.1694 48.9794C71.2175 57.6947 59.6191 55.2157 55.8109 55.8175C53.3383 56.2082 51.1484 58.54 49.3141 61.0208M40.1347 59.9281C35.6294 62.3886 27.6773 67.9038 33.1139 72.8407C38.26 77.5138 42.4702 71.6372 45.066 67.4601" stroke="black" stroke-width="2" stroke-linecap="round"/>
<path d="M77.8998 49.3168C77.7013 46.5618 76.0786 39.6534 71.1754 34.06C66.2721 28.4665 60.8973 26.5061 58.8229 26.2251" stroke="black" stroke-width="2" stroke-linecap="round"/>
<path d="M70.2649 54.3001C69.937 51.3307 68.2499 44.1992 63.2048 39.4787C58.1597 34.7581 54.942 33.576 53.7743 33.5173" stroke="black" stroke-width="2" stroke-linecap="round"/>
<path fill-rule="evenodd" clip-rule="evenodd" d="M74.7526 39.1915C75.9319 41.5502 77.3411 46.5878 77.8982 48.8117L75.165 51.812L70.3604 54.4096L68.2191 46.4689L64.0666 40.1847L58.2796 35.9884L53.6641 33.4017L55.4848 29.3027L58.4646 26.3503L61.5225 26.9449L69.2452 31.9784C70.5897 33.4 73.5734 36.8329 74.7526 39.1915ZM73.6873 43.5118C73.9698 44.2077 70.748 49.8655 70.2949 48.7534C69.8417 47.6413 68.1053 43.1337 68.205 42.9377C68.3295 42.6927 73.4047 42.8158 73.6873 43.5118ZM66.7467 41.4993C67.5421 42.3991 68.9965 35.4102 68.6388 35.0043C68.281 34.5985 62.3335 36.4293 62.297 36.7016C62.2781 36.842 63.801 38.42 65.0993 39.7653L65.0994 39.7654L65.0994 39.7655C65.8158 40.5078 66.4639 41.1794 66.7467 41.4993ZM61.2031 29.6183C61.6142 29.8907 61.9902 36.388 61.0768 35.7844C60.752 35.5698 60.0223 35.1322 59.2157 34.6485L59.2157 34.6485L59.2156 34.6485C57.7538 33.7718 56.0392 32.7435 56.0225 32.6154C55.9901 32.367 60.792 29.3458 61.2031 29.6183ZM70.713 49.8649C72.0275 50.0008 74.6838 50.309 74.7925 50.4541C74.9284 50.6354 73.8406 51.678 72.8434 52.2445C71.8461 52.8111 71.2569 53.0604 71.0982 53.0831C70.9396 53.1058 70.3277 49.8242 70.713 49.8649Z" fill="black"/>
</svg>
