<svg width="100" height="100" viewBox="0 0 100 100" fill="none" xmlns="http://www.w3.org/2000/svg">
<path d="M29.217 53.6413L67.519 19.1013C69.127 17.6513 71.702 17.6873 73.268 19.1833L80.681 26.2603C81.504 27.0463 82.503 28.0653 82.517 29.1473C82.53 30.1253 81.634 31.1653 80.964 31.9453L47.06 71.4653C47.06 71.4653 40.752 71.1183 38.763 71.7223C35.336 72.7623 33.096 74.6543 33.096 74.6543L25.164 82.4713L17 77.4583L24.894 68.8543C24.894 68.8543 27.031 66.0183 28.111 62.2153C29.192 58.4123 29.217 53.6413 29.217 53.6413Z" stroke="black" stroke-width="2" stroke-miterlimit="10" stroke-linecap="round" stroke-linejoin="round"/>
<path d="M17.0127 77.461L25.2037 82.501L31.0057 76.73L22.4777 71.5L17.0127 77.461Z" fill="black" stroke="black" stroke-width="2" stroke-miterlimit="10" stroke-linecap="round" stroke-linejoin="round"/>
<path d="M25.3457 82.3593L71.7947 79.6863C71.7947 79.6863 67.7707 75.1023 62.3817 75.5123C60.6387 75.6453 30.8367 76.8983 30.8367 76.8983L25.3457 82.3593Z" fill="black" stroke="black" stroke-width="2" stroke-miterlimit="10" stroke-linecap="round" stroke-linejoin="round"/>
<path d="M29.2783 53.6419C29.2783 53.6419 40.8843 43.225 50.4493 34.592C60.0143 25.958 67.5383 19.1069 67.5383 19.1069C67.5383 19.1069 68.8303 18.0659 70.2033 18.0029C71.2233 17.9559 72.4193 18.4809 73.0353 19.0349C75.5293 21.2819 80.7233 26.346 80.7233 26.346C80.7233 26.346 82.4633 27.6889 82.5433 29.0479C82.6323 30.5519 81.0233 31.8959 81.0233 31.8959L66.1773 49.071L47.1083 71.4259C47.1083 71.4259 44.5173 67.0679 37.9193 61.5989C33.0723 57.5809 29.2783 53.6419 29.2783 53.6419Z" stroke="black" stroke-width="2" stroke-miterlimit="10" stroke-linecap="round" stroke-linejoin="round"/>
<path d="M35.2178 58.8974C35.2178 58.8974 40.8668 53.3114 46.9308 48.0314C52.9948 42.7524 56.6768 39.9834 59.4738 37.7784C60.3418 37.0944 62.7188 40.3354 62.7188 40.3354C62.7188 40.3354 57.3478 47.9434 52.3408 54.2624C47.3348 60.5814 42.6927 65.6104 42.6927 65.6104" stroke="black" stroke-width="2" stroke-miterlimit="10" stroke-linecap="round" stroke-linejoin="round"/>
</svg>
