<svg width="100" height="100" viewBox="0 0 100 100" fill="none" xmlns="http://www.w3.org/2000/svg">
<path d="M44.4186 50.0732C52.5741 51.6867 66.6865 58.2029 75.3466 61.0572" stroke="black" stroke-width="2"/>
<path d="M26.7832 32.9847C26.2374 32.3566 23.7995 32.5683 23.3187 33.2336C22.838 33.899 22.7278 34.8061 22.6963 35.6403C22.659 36.6261 22.6204 37.6499 22.5831 38.6357C22.553 39.432 22.5201 40.3041 22.9113 41.0024C23.3026 41.7006 25.4422 42.351 26.1053 41.8824" fill="black"/>
<path d="M26.7832 32.9847C26.2374 32.3566 23.7995 32.5683 23.3187 33.2336C22.838 33.899 22.7278 34.8061 22.6963 35.6403C22.659 36.6261 22.6204 37.6499 22.5831 38.6357C22.553 39.432 22.5201 40.3041 22.9113 41.0024C23.3026 41.7006 25.4422 42.351 26.1053 41.8824" stroke="black" stroke-width="2"/>
<path d="M27.5831 29.869C26.0403 35.5642 25.9212 41.6452 27.2243 47.4202C27.3905 48.1457 27.6098 48.9285 28.2294 49.3668C28.6333 49.6586 29.156 49.7337 29.6521 49.7801C33.7283 50.2383 37.8404 50.4765 41.9344 50.4652C43.0136 50.4506 44.2627 50.3318 44.8496 49.4411C45.2019 48.9012 44.4897 48.1403 44.2253 47.367C42.9226 43.5577 43.0105 38.9014 44.8496 32.2566C45.1231 31.2684 46.0677 29.4582 45.6987 28.974C45.3043 28.4336 44.534 28.3215 43.8722 28.2688C39.0748 27.8664 34.9195 27.4905 30.1221 27.0881C29.5155 27.0375 28.6796 27.1996 28.356 27.7129C28.356 27.7129 27.778 29.1018 27.5831 29.869Z" stroke="black" stroke-width="2"/>
<path d="M32.5607 50.6086C32.5607 50.6086 34.3511 76.7244 35.1814 77.7112C36.0117 78.6981 42.2219 78.2992 42.9648 78.0052C43.7077 77.7112 41.704 70.1128 40.4761 61.35C39.2481 52.5871 43.8543 50.1948 43.8543 50.1948" stroke="black" stroke-width="2"/>
<path d="M45.8106 28.7567C55.0393 26.8093 66.9195 24.2093 76.1492 22.2343" stroke="black" stroke-width="2"/>
<path d="M78.1413 40.6681C78.3159 27.4675 76.6327 18.6781 74.944 23.5728C74.3052 24.7934 73.023 31.3646 72.5708 40.6679C72.1186 49.9712 73.794 60.7246 75.1946 61.0337C76.5952 61.3428 77.9666 53.8686 78.1413 40.6681Z" stroke="black" stroke-width="2"/>
</svg>
