<svg width="100" height="100" viewBox="0 0 100 100" fill="none" xmlns="http://www.w3.org/2000/svg">
<path d="M21.5801 22.6679C21.5801 22.6679 33.4971 21.5329 36.4351 21.4689C40.7811 21.3749 47.4191 27.0349 51.7331 26.8549C56.0461 26.6749 60.3191 21.8549 65.8271 21.0519C68.0321 20.7299 78.9441 21.9799 80.0541 22.7939C81.1641 23.6069 79.7541 37.8179 76.0301 42.5069C72.3061 47.1959 66.3241 49.6429 61.5621 50.4249C56.8011 51.2069 54.1101 55.4789 50.3261 54.9649C46.5431 54.4499 44.9151 50.2699 40.6621 50.0059C36.4081 49.7409 24.7101 46.1449 23.2581 37.7169C21.8071 29.2899 21.5801 22.6679 21.5801 22.6679Z" stroke="black" stroke-width="2" stroke-miterlimit="10" stroke-linejoin="round"/>
<path d="M56.3232 35.782C56.3232 35.782 59.4662 33.03 62.9732 31.877C66.3452 30.769 70.1312 32.1089 70.5342 33.3759C70.9362 34.6429 68.8103 37.031 64.7473 37.476C59.9843 37.998 56.3232 35.782 56.3232 35.782Z" fill="black" stroke="black" stroke-width="2" stroke-miterlimit="10" stroke-linejoin="round"/>
<path d="M45.6372 35.782C45.6372 35.782 42.4942 33.03 38.9872 31.877C35.6152 30.769 31.8292 32.1089 31.4262 33.3759C31.0242 34.6429 33.1502 37.031 37.2132 37.476C41.9762 37.998 45.6372 35.782 45.6372 35.782Z" fill="black" stroke="black" stroke-width="2" stroke-miterlimit="10" stroke-linejoin="round"/>
<path d="M21.4717 22.8438L22.1297 66.0057" stroke="black" stroke-width="2" stroke-miterlimit="10" stroke-linejoin="round"/>
<path d="M20.0002 67.8558C19.9632 65.2848 24.2972 65.0278 24.2232 68.1128C24.1522 71.1138 25.0683 78.3228 23.1583 79.3878C21.2493 80.4528 19.9262 77.7718 20.0732 73.2178C20.1392 71.1978 20.0252 69.5948 20.0002 67.8558Z" fill="black" stroke="black" stroke-width="2" stroke-miterlimit="10" stroke-linejoin="round"/>
<path d="M42.2218 50.6602C42.0598 52.3332 42.3238 54.0472 42.3008 55.7252C42.2958 56.0962 42.1748 58.0442 42.2508 57.9222" stroke="black" stroke-width="2" stroke-miterlimit="10" stroke-linecap="round" stroke-linejoin="round"/>
<path d="M34.2589 48.6641C34.0529 50.7911 34.2479 52.9811 34.0439 55.0871" stroke="black" stroke-width="2" stroke-miterlimit="10" stroke-linecap="round" stroke-linejoin="round"/>
<path d="M27.7379 45.2578C27.5969 46.7118 27.4889 48.7688 27.8259 50.2418" stroke="black" stroke-width="2" stroke-miterlimit="10" stroke-linecap="round" stroke-linejoin="round"/>
<path d="M79.4712 22.7861C79.4712 22.7861 79.7092 38.0531 74.4402 43.3041C69.1702 48.5551 62.0142 49.0051 59.0582 50.6491C56.1022 52.2941 53.3362 54.6521 50.7132 54.6581C48.0902 54.6641 45.5352 52.3291 45.5352 52.3291" stroke="black" stroke-width="2" stroke-miterlimit="10" stroke-linejoin="round"/>
<path d="M57.8559 51.7686C57.6399 53.9926 58.3909 56.3475 58.1749 58.5695" stroke="black" stroke-width="2" stroke-miterlimit="10" stroke-linecap="round" stroke-linejoin="round"/>
<path d="M65.7419 49.5156C65.6089 50.8866 65.5559 52.2696 65.4229 53.6446" stroke="black" stroke-width="2" stroke-miterlimit="10" stroke-linecap="round" stroke-linejoin="round"/>
<path d="M72.6374 45.6992C72.4724 47.4032 72.2234 50.6782 72.6334 52.4692" stroke="black" stroke-width="2" stroke-miterlimit="10" stroke-linecap="round" stroke-linejoin="round"/>
</svg>
