<svg width="100" height="100" viewBox="0 0 100 100" fill="none" xmlns="http://www.w3.org/2000/svg">
<path d="M24.4397 76.8819C16.0348 69.9025 15.2351 60.6612 18.0737 58.4905C21.5001 55.8703 29.8663 60.5253 33.6959 64.1533C37.5254 67.7813 43.1689 74.8357 42.0604 79.9753C40.9518 85.115 33.8121 84.6648 24.4397 76.8819Z" stroke="black" stroke-width="2"/>
<path d="M21.5239 61.7785C21.608 61.9467 21.8772 62.2687 22.2809 62.211C22.7856 62.1389 50.4891 48.971 51.4829 48.5193C52.2779 48.1579 57.0403 43.2167 59.6602 40.4462" stroke="black" stroke-width="2" stroke-linecap="round"/>
<path d="M51.3395 48.645C47.3141 57.3876 39.1752 75.0364 38.823 75.6906C38.3828 76.5082 37.5652 78.2064 38.1941 78.6467" stroke="black" stroke-width="2" stroke-linecap="round"/>
<path d="M58.6627 37.162C58.8864 36.3792 69.0523 24.3031 74.1072 18.3629C76.4861 15.5592 79.4884 16.6158 81.4452 18.3629C83.402 20.1101 84.031 23.4645 82.7031 24.5827C81.3753 25.7008 64.7528 42.2481 62.5164 41.5493C60.2801 40.8504 58.3831 38.1404 58.6627 37.162Z" stroke="black" stroke-width="2" stroke-linecap="round"/>
<path d="M30.3452 74.9642C32.5201 75.1477 34.7782 78.6215 32.8518 78.7265C30.4241 78.8589 28.1702 74.7806 30.3452 74.9642Z" fill="black"/>
<path d="M33.6616 70.6252C35.8365 70.8088 38.0946 74.2825 36.1682 74.3876C33.7405 74.5199 31.4866 70.4416 33.6616 70.6252Z" fill="black"/>
<path d="M27.766 68.6591C29.941 68.8427 32.1991 72.3164 30.2727 72.4215C27.845 72.5539 25.5911 68.4755 27.766 68.6591Z" fill="black"/>
<path d="M23.4467 70.2006C25.6216 70.3842 27.8798 73.858 25.9534 73.963C23.5257 74.0954 21.2718 70.017 23.4467 70.2006Z" fill="black"/>
<path d="M21.4916 64.4891C23.6666 64.6726 25.9247 68.1464 23.9983 68.2514C21.5706 68.3838 19.3167 64.3055 21.4916 64.4891Z" fill="black"/>
<path d="M28.0131 63.7256C30.188 63.9092 32.4462 67.383 30.5198 67.488C28.0921 67.6204 25.8382 63.542 28.0131 63.7256Z" fill="black"/>
<path fill-rule="evenodd" clip-rule="evenodd" d="M74.1067 18.3629C69.0518 24.3031 58.8859 36.3792 58.6622 37.162C58.3826 38.1404 60.2796 40.8504 62.516 41.5493C64.3327 42.117 75.6439 31.3029 80.5362 26.6255C81.666 25.5453 82.4535 24.7925 82.7027 24.5827C84.0305 23.4645 83.4015 20.1101 81.4447 18.3629C79.4879 16.6158 76.4856 15.5592 74.1067 18.3629ZM76.1705 20.8446C75.1786 23.2586 77.8502 24.317 79.0624 23.0423C80.8134 21.2009 77.1623 18.4306 76.1705 20.8446Z" fill="black"/>
</svg>
