<svg width="100" height="100" viewBox="0 0 100 100" fill="none" xmlns="http://www.w3.org/2000/svg">
<path d="M27.8652 53.543C28.0952 71.15 36.0952 80.2639 45.8652 80.6199C55.6352 80.9749 50.1353 80.7049 55.8853 80.8179C63.0953 80.9589 73.0753 71.181 73.2253 52.751" stroke="black" stroke-width="2" stroke-miterlimit="10" stroke-linecap="round" stroke-linejoin="round"/>
<path d="M49.2646 80.7531C49.2646 80.7531 65.6847 82.1851 69.4147 79.7971C72.6547 77.7301 65.7147 75.5391 65.7147 75.5391C65.7147 75.5391 64.0947 77.6771 60.9647 79.4541C57.7547 81.2701 53.7847 80.808 53.7847 80.808" fill="black"/>
<path d="M49.2646 80.7531C49.2646 80.7531 65.6847 82.1851 69.4147 79.7971C72.6547 77.7301 65.7147 75.5391 65.7147 75.5391C65.7147 75.5391 64.0947 77.6771 60.9647 79.4541C57.7547 81.2701 53.7847 80.808 53.7847 80.808" stroke="black" stroke-width="2" stroke-miterlimit="10" stroke-linecap="round" stroke-linejoin="round"/>
<path d="M26.375 44.1797C26.375 44.1797 24.875 51.6397 27.875 53.3797C29.385 54.2577 40.7551 57.3997 52.0851 57.2047C63.4251 57.0107 72.3251 53.6647 73.2251 52.6007C75.0251 50.4507 74.3051 44.2197 74.3051 44.2197" stroke="black" stroke-width="2" stroke-miterlimit="10" stroke-linecap="round" stroke-linejoin="round"/>
<path d="M62.9846 40.0866C63.1046 40.1026 63.2346 40.1196 63.3546 40.1356C70.0846 41.0496 74.3347 42.6246 74.3347 44.4646C74.3347 47.3186 63.5847 49.6317 50.3147 49.6317C37.0547 49.6317 26.3047 47.3186 26.3047 44.4646C26.3047 41.8066 35.4147 39.6086 47.4147 39.3216C47.5147 39.3186 47.6047 39.3166 47.7047 39.3146C47.7447 39.3136 47.7847 39.3076 47.8247 39.3066" stroke="black" stroke-width="2" stroke-miterlimit="10" stroke-linejoin="round"/>
<path d="M43.2354 45.9271C43.2354 45.9271 57.5454 25.0192 63.3054 18.3772C64.6054 16.8822 72.6154 20.0482 70.7754 24.0612C67.9054 30.3472 62.7753 40.3881 60.1053 45.8311" stroke="black" stroke-width="2" stroke-miterlimit="10" stroke-linecap="round" stroke-linejoin="round"/>
<path d="M63.0245 40.1671C66.9445 40.8151 69.4346 41.7751 69.4346 42.8471C69.4346 44.1661 65.6746 45.3171 60.0946 45.9241C57.4246 46.2151 54.3345 46.3821 51.0345 46.3821C47.3745 46.3821 43.9745 46.1771 41.1045 45.8231C36.0145 45.1941 32.6445 44.0961 32.6445 42.8471C32.6445 41.1111 39.1545 39.6681 47.7345 39.3691" stroke="black" stroke-width="2" stroke-miterlimit="10" stroke-linejoin="round"/>
<path d="M62.9347 40.1387C66.8547 40.7877 69.3846 41.7687 69.3846 42.8407C69.3846 44.1437 65.5147 45.3147 60.0547 45.9277L62.9347 40.1387Z" fill="black" stroke="black" stroke-width="2" stroke-miterlimit="10" stroke-linejoin="round"/>
<path d="M43.0956 46.0333C43.0956 46.0333 41.7156 45.8963 41.0656 45.8163C35.9756 45.1873 32.6055 44.0893 32.6055 42.8403C32.6055 41.1043 40.0556 39.5783 47.6956 39.3623C47.8656 39.3573 43.0956 46.0333 43.0956 46.0333Z" fill="black" stroke="black" stroke-width="2" stroke-miterlimit="10" stroke-linejoin="round"/>
</svg>
