<svg width="100" height="100" viewBox="0 0 100 100" fill="none" xmlns="http://www.w3.org/2000/svg">
<path fill-rule="evenodd" clip-rule="evenodd" d="M39.5952 62.9191C35.8304 62.2615 32.2658 58.7356 32.7297 53.0758C32.9347 50.5748 33.3657 48.7236 33.7131 47.2319C34.1518 45.3479 34.457 44.0373 34.0046 42.7151C34.5133 42.6733 35.2014 43.1081 35.9374 43.944C35.9319 43.2533 35.856 42.7137 35.7852 42.2107C35.657 41.3002 35.5457 40.5094 35.8993 39.1586C36.1779 38.0942 37.071 37.3398 37.8813 36.6552C38.6675 35.9911 39.3759 35.3927 39.3699 34.6407C40.7957 36.1188 43.4974 40.1281 42.8975 44.341C43.1768 43.9052 43.9611 42.9525 44.8635 42.6285C44.5621 43.6632 44.8632 44.9639 45.191 46.3793C45.5816 48.0662 46.01 49.9161 45.5012 51.6731C46.3504 50.3542 46.8251 49.8338 46.9563 49.7385C47.8258 54.7654 47.5934 64.3161 39.5952 62.9191ZM39.3047 59.1612C37.0259 58.8833 36.587 56.048 37.4099 53.327C37.9488 54.3362 38.517 54.6301 38.517 54.6301C38.2627 53.1523 38.4722 52.0653 38.6647 51.0662C38.7891 50.4206 38.9065 49.8117 38.887 49.1577C38.9712 49.4627 39.2512 50.0541 39.6061 50.8037C41.074 53.9043 43.8236 59.7123 39.3047 59.1612Z" fill="black"/>
<path d="M51.4505 29.348C52.1312 29.7055 62.6243 26.1151 63.5532 26.541C64.4822 26.9668 63.8697 67.5834 63.8697 67.5834L51.787 72.9895C51.787 72.9895 29.9809 63.3465 29.6157 62.5588C29.2505 61.7711 28.7275 23.1436 29.3084 22.7077C29.8893 22.2717 50.7697 28.9905 51.4505 29.348Z" stroke="black" stroke-width="2" stroke-linecap="round" stroke-linejoin="round"/>
<path d="M51.4574 29.3444C51.4574 29.3444 51.7762 38.5793 51.7874 44.4992C51.7996 50.982 51.4065 54.6133 51.4575 61.0959C51.494 65.741 51.7874 72.9858 51.7874 72.9858" stroke="black" stroke-width="2" stroke-linecap="round" stroke-linejoin="round"/>
<path d="M53.555 29.3546C54.459 46.1194 54.5075 55.3331 53.8735 71.489L61.7646 68.3119C61.7421 49.9199 61.7465 39.1845 61.4557 27.4501L53.555 29.3546Z" fill="black"/>
<path d="M70.7328 78.9245L39.2735 81.1007C38.2216 81.2923 37.3054 80.6296 37.2692 79.918C37.2036 78.6253 37.9995 78.2826 39.0513 78.091L70.5966 76.0965" stroke="black" stroke-width="2" stroke-linecap="round" stroke-linejoin="round"/>
<path d="M74.2061 73.6104C77.1194 73.3139 78.4962 74.7708 78.5835 76.7667C78.6708 78.7626 77.7193 80.6983 74.5222 80.8381C72.8209 80.9125 69.3309 79.8091 69.2436 77.8132C69.1564 75.8173 72.1638 73.8183 74.2061 73.6104Z" fill="black"/>
<path d="M29.4756 22.6851C29.4756 22.6851 40.3085 20.5362 41.3439 20.6031C42.3792 20.67 63.4412 26.408 63.4412 26.408" stroke="black" stroke-width="2" stroke-linecap="round" stroke-linejoin="round"/>
</svg>
