<svg width="100" height="100" viewBox="0 0 100 100" fill="none" xmlns="http://www.w3.org/2000/svg">
<path d="M80.8145 25.472C81.6819 30.5115 81.1664 53.6532 81.1664 53.6532" stroke="black" stroke-width="2" stroke-linecap="round"/>
<path d="M54.7402 19.6601C44.1161 19.5723 37.1511 19.872 32.2853 20.6402C25.9233 21.6448 24.5237 24.6689 32.2856 26.0253C38.804 27.1644 69.2121 28.3034 74.8686 24.3685C77.3929 22.6124 70.3312 19.7889 54.7402 19.6601Z" stroke="black" stroke-width="2" stroke-linecap="round"/>
<path d="M26.9634 23.7114C29.0285 40.0879 33.3754 73.7576 35.1043 76.2356C37.2653 79.3332 48.6377 80.7089 55.4091 80.2767C62.1806 79.8444 67.4842 76.6583 68.1494 74.8362C69.7333 70.4977 74.6295 36.9342 75.3386 23.8139" stroke="black" stroke-width="2" stroke-linecap="round"/>
<path d="M28.5676 21.5551C28.5676 21.5551 17.9253 22.6848 17.7876 23.3046C17.6499 23.9243 27.2439 25.1486 27.2439 25.1486" stroke="black" stroke-width="2" stroke-linecap="round"/>
<path d="M17.8223 23.4718C19.5623 28.4814 28.37 43.7018 29.476 45.0712" stroke="black" stroke-width="2" stroke-linecap="round"/>
<path d="M73.1221 21.9559C75.1721 22.2902 80.6254 22.452 81.5245 22.867C83.2627 23.6692 81.1912 52.6506 80.9712 56.3892C80.9044 57.5257 78.458 54.6439 78.294 51.0359C78.1603 48.0944 78.7619 33.3547 78.294 32.2182C77.9196 31.3091 76.0966 30.7791 75.0938 30.8237" stroke="black" stroke-width="2" stroke-linecap="round"/>
<path d="M73.9336 25.0508C75.7549 25.0508 80.2739 25.3737 80.6705 25.3406C81.0671 25.3076 81.7447 24.2924 81.7447 23.3051" stroke="black" stroke-width="2" stroke-linecap="round"/>
<path d="M19.5674 23.4102L27.1645 21.6857V25.1812L19.5674 23.4102Z" fill="black"/>
<path d="M34.6644 20.43C30.2829 21.0674 27.5127 22.4862 26.6753 23.1159L30.7309 25.6581L38.7472 26.6041L50.2986 27.102L67.7252 26.6041L74.895 24.4133L74.5465 22.5213L68.7708 20.928L58.3646 19.9819C52.2902 19.8657 39.0459 19.7927 34.6644 20.43Z" fill="black"/>
<path d="M51.6436 63.7156C53.3636 64.0015 54.7364 64.0055 56.2827 63.7156" stroke="black" stroke-width="2" stroke-linecap="round"/>
<path d="M51.6436 58.8992C53.3636 59.1851 54.7364 59.1891 56.2827 58.8992" stroke="black" stroke-width="2" stroke-linecap="round"/>
<path d="M51.5664 54.6868C52.1032 54.6868 55.5032 54.985 58.6646 54.2692" stroke="black" stroke-width="2" stroke-linecap="round"/>
<path d="M51.6436 49.9022C53.3636 50.1881 54.7364 50.1922 56.2827 49.9022" stroke="black" stroke-width="2" stroke-linecap="round"/>
<path d="M51.6436 45.5353C53.3636 45.8212 54.7364 45.8252 56.2827 45.5353" stroke="black" stroke-width="2" stroke-linecap="round"/>
<path d="M51.5664 40.8731C52.1032 40.8731 55.5032 41.1713 58.6646 40.4554" stroke="black" stroke-width="2" stroke-linecap="round"/>
<path d="M50.9666 36.21C50.9666 46.6122 50.9663 68.6301 50.9663 70.5414" stroke="black" stroke-width="2" stroke-linecap="round"/>
</svg>
