<svg width="100" height="100" viewBox="0 0 100 100" fill="none" xmlns="http://www.w3.org/2000/svg">
<path d="M42.4937 59.628C32.7897 67.782 38.0678 82.055 51.6698 81.9C63.8188 81.761 64.7607 67.409 61.5547 62.446C58.1377 57.156 48.7557 54.366 42.4937 59.628Z" stroke="black" stroke-width="2" stroke-miterlimit="10" stroke-linejoin="round"/>
<path d="M43.3657 66.9624C40.8987 74.0224 47.8736 76.8014 51.5146 76.4814C58.0036 75.9124 59.0177 70.6634 57.7997 66.9624C56.0747 61.7254 45.6647 60.3844 43.3657 66.9624Z" stroke="black" stroke-width="2" stroke-miterlimit="10" stroke-linejoin="round"/>
<path d="M47.9214 81.5394C56.3744 83.2254 63.6244 80.1954 64.2724 71.7064C64.8334 64.3444 61.0824 61.7984 59.6334 60.2334" stroke="black" stroke-width="2" stroke-miterlimit="10" stroke-linejoin="round"/>
<path d="M44.6105 57.8209C44.6105 57.8209 42.9975 56.6399 38.5365 50.0369C34.0745 43.4349 27.8725 34.1309 26.7645 31.4119C24.6825 26.2969 26.9885 18.5049 32.0355 19.0959C37.0835 19.6879 68.8685 17.8079 71.2425 20.4919C73.6175 23.1769 75.3385 30.1559 67.2395 39.3909C59.1415 48.6259 56.3055 58.1039 56.3055 58.1039" stroke="black" stroke-width="2" stroke-miterlimit="10" stroke-linejoin="round"/>
<path d="M34.6016 19.219C32.6066 19.336 27.6497 18.869 32.1527 25.105C33.9227 27.558 37.4327 34.339 43.1357 42.482C48.8377 50.625 54.5407 57.065 54.5407 57.065" stroke="black" stroke-width="2" stroke-miterlimit="10" stroke-linejoin="round"/>
<path d="M65.2115 19.2374C65.2115 19.2374 72.6055 19.1514 68.2365 24.7264C63.8675 30.3024 54.9835 41.6044 53.6265 46.0514C52.2695 50.4994 50.3755 51.6994 50.3755 51.6994" stroke="black" stroke-width="2" stroke-miterlimit="10" stroke-linejoin="round"/>
<path d="M51.2373 51.3545L56.0883 56.9815" stroke="black" stroke-width="2" stroke-miterlimit="10" stroke-linejoin="round"/>
<path d="M65.3546 28.0116C65.3546 28.0116 60.1136 27.3156 51.0216 27.3436C37.0496 27.3866 34.1216 28.1036 34.1216 28.1036" stroke="black" stroke-width="2" stroke-miterlimit="10" stroke-linejoin="round"/>
<path d="M65.0154 19.2549C67.2674 19.4489 69.6494 20.8859 67.9214 22.8999C66.1944 24.9129 63.8345 27.8779 63.8345 27.8779" stroke="black" stroke-width="2" stroke-miterlimit="10" stroke-linejoin="round"/>
<path d="M34.3366 19.2002C32.7146 19.2012 29.9826 20.2322 32.1206 23.0542C34.2576 25.8772 35.3916 27.7002 35.3916 27.7002" stroke="black" stroke-width="2" stroke-miterlimit="10" stroke-linejoin="round"/>
</svg>
