<svg width="100" height="100" viewBox="0 0 100 100" fill="none" xmlns="http://www.w3.org/2000/svg">
<path d="M84.0103 75.0023C81.9044 75.0023 18.4349 76.4308 17.0745 75.0023C16.382 74.275 16.4184 64.1371 16.4157 53.7695C16.413 43.7716 16.3454 33.5321 17.0745 32.8029C18.5598 31.3177 81.0909 30.766 83.1278 32.8029C85.1647 34.8399 86.1162 75.0023 84.0103 75.0023Z" stroke="black" stroke-width="2" stroke-linecap="round"/>
<path d="M16.536 74.7163H85.4168C92.5403 76.2569 92.5875 77.3099 85.4168 79.522H21.3416C18.6875 79.522 16.536 77.3704 16.536 74.7163Z" fill="black"/>
<path d="M80.6367 64.2344C80.2565 67.9125 80.9481 70.1405 80.6367 70.5556C80.3253 70.9708 75.3432 70.8151 72.3331 70.8151" stroke="black" stroke-width="2" stroke-linecap="round"/>
<path d="M43.0655 50.5747C42.8625 50.7683 42.9408 54.9622 43.0655 55.1697C43.1902 55.3771 47.3365 55.2789 47.5806 55.4427C47.8247 55.6065 47.6384 59.4994 47.8389 59.7646C48.0393 60.0297 52.6122 60.0515 52.6122 59.7646C52.6122 59.4776 52.6919 55.6938 52.8525 55.4427C53.0131 55.1915 57.1209 55.4427 57.3856 55.1697C57.6503 54.8966 57.6939 50.7682 57.3856 50.5747C57.0772 50.3812 53.0414 50.2877 52.8525 50.2877C52.6636 50.2877 52.954 46.2031 52.6122 45.9798C52.2705 45.7566 48.0316 45.9798 47.8389 45.9798C47.6461 45.9798 47.8247 50.1099 47.3622 50.2877C46.8996 50.4655 43.2685 50.3812 43.0655 50.5747Z" fill="black" stroke="black" stroke-width="2"/>
<path d="M80.0995 38.6396C80.7034 43.3383 80.8045 50.9471 80.3207 56.2925" stroke="black" stroke-width="2" stroke-linecap="round"/>
<path d="M64.6672 53.111C64.6672 56.0033 63.8026 59.4956 62.2178 61.6957C59.5677 65.3746 55.0439 66.9301 50.2076 66.9301C47.9193 66.9301 45.2009 66.5987 43.2363 65.5386C38.5656 63.0183 35.7479 57.6779 35.7479 52.2376C35.7479 48.228 37.1529 44.6381 39.9756 42.132C42.5938 39.8075 46.4886 38.4185 50.2075 38.4185C54.0679 38.4185 58.0558 40.0701 60.7039 42.7725C63.3574 45.4803 64.6672 49.2428 64.6672 53.111Z" stroke="black" stroke-width="2" stroke-linecap="round"/>
<path d="M42.1548 31.1534C42.1548 26.8881 43.5451 24.0637 49.8988 23.9699C56.2525 23.8761 57.6009 26.8881 57.6009 31.1534" stroke="black" stroke-width="2" stroke-linecap="round"/>
<path d="M42.2688 30.5206C42.2688 26.2553 43.7679 23.4309 50.6192 23.3371C57.4704 23.2433 58.9244 26.2553 58.9244 30.5206" stroke="black" stroke-width="2" stroke-linecap="round"/>
<path d="M63.542 30.847C62.7897 23.9661 59.5442 18.3676 49.8779 18.6117C40.2116 18.8558 36.966 23.9661 36.2137 30.847" stroke="black" stroke-width="2" stroke-linecap="round"/>
</svg>
