<svg width="100" height="100" viewBox="0 0 100 100" fill="none" xmlns="http://www.w3.org/2000/svg">
<path d="M27.0451 33.6398C20.7271 41.9328 24.3921 56.1398 26.7231 62.3208C26.9241 62.8518 26.9041 63.4337 26.6591 63.9447C25.3161 66.7377 20.9701 75.9168 21.5521 76.4928C22.1151 77.0508 31.4701 73.2468 34.7981 71.8688C35.5131 71.5718 36.3241 71.7228 36.9461 72.1828C43.2101 76.8108 52.7391 75.6348 57.0311 75.3898C61.5551 75.1308 79.7801 66.4707 78.6171 47.9877C77.4541 29.5037 64.7871 24.2048 55.6101 21.7488C46.4331 19.2928 35.3171 22.7828 27.0451 33.6398Z" stroke="black" stroke-width="2" stroke-miterlimit="10"/>
<path d="M23.275 78.0114C22.687 77.9644 21.724 77.8534 21 77.3384L36.52 72.0224C35.379 71.4734 33.833 70.7054 36.783 72.0224C40.47 73.6684 51.993 77.2764 63.253 73.5364C72.26 70.5454 77.322 59.5604 78.726 54.4424C78.397 61.5534 72.917 72.0014 63.253 76.1004C53.588 80.2004 41.957 76.8184 39.883 76.1004C38.224 75.5264 36.541 74.4324 35.907 73.9564C34.703 73.9864 24.009 78.0694 23.275 78.0114Z" fill="black"/>
<path d="M52.078 42.2665C50.371 41.9845 46.0429 40.8715 46.0639 45.8985C46.0849 51.0535 45.827 59.0855 46.125 62.4655C46.305 64.5165 48.651 67.7065 51.104 66.7215C56.815 64.4275 55.096 51.5415 54.576 46.4275C54.371 44.4125 54.646 42.6905 52.078 42.2665Z" stroke="black" stroke-width="2" stroke-miterlimit="10" stroke-linecap="round"/>
<path d="M50.1951 29.0094C47.6141 29.1354 46.5141 32.1674 46.7531 33.6554C47.1431 36.0824 49.9911 36.4514 51.3621 36.1884C52.6341 35.9444 54.3871 34.8664 54.1681 32.4354C53.9481 30.0044 52.7741 28.8844 50.1951 29.0094Z" fill="black" stroke="black" stroke-width="2" stroke-miterlimit="10" stroke-linejoin="round"/>
</svg>
