<svg width="100" height="100" viewBox="0 0 100 100" fill="none" xmlns="http://www.w3.org/2000/svg">
<path d="M27.9013 33.3823C21.5835 41.6748 25.248 55.8819 27.5796 62.0634C27.7798 62.594 27.7605 63.176 27.5148 63.6872C26.1726 66.4796 21.8264 75.6587 22.408 76.2346C22.9717 76.7927 32.3258 72.9892 35.6547 71.6105C36.3696 71.3144 37.1801 71.4652 37.8025 71.9251C44.0661 76.5533 53.5952 75.377 57.8877 75.1318C62.4117 74.8732 80.6366 66.2132 79.4733 47.7297C78.31 29.2462 65.643 23.9467 56.4659 21.4909C47.2888 19.035 36.1732 22.5249 27.9013 33.3823Z" stroke="black" stroke-width="2" stroke-miterlimit="10"/>
<path d="M24.1307 77.7535C23.5433 77.7066 22.5798 77.5964 21.8558 77.0814L37.3758 71.765C36.2345 71.2163 34.6893 70.4481 37.6392 71.765C41.3265 73.4111 52.8493 77.0189 64.1088 73.2794C73.1163 70.2878 78.1776 59.303 79.5823 54.1846C79.2531 61.2958 73.7732 71.7438 64.1088 75.8433C54.4443 79.9429 42.8129 76.5613 40.7388 75.8433C39.0795 75.269 37.3971 74.1746 36.7632 73.6992C35.5587 73.7286 24.865 77.8123 24.1307 77.7535Z" fill="black"/>
<path d="M50.1036 46.5406C48.0434 49.2118 48.0652 51.7541 48.3335 52.6914C48.3335 52.6914 54.8067 52.8974 55.0928 52.6914C55.3788 52.4853 54.9522 52.0531 55.6603 49.4522C56.5454 46.2011 60.7253 42.8501 60.323 39.9505C59.9207 37.0508 59.4379 31.4272 51.0696 30.6364C44.3749 30.0038 43.1592 37.7047 43.5871 39.9504C44.015 42.1962 47.6235 42.9633 48.6127 40.7413C49.0935 39.6611 48.7358 39.1596 49.2186 37.6659C49.7014 36.1721 53.0809 37.4022 53.6442 39.1596C54.2074 40.917 52.6788 43.2016 50.1036 46.5406Z" stroke="black" stroke-width="2" stroke-miterlimit="10"/>
<path d="M50.4871 57.1153C48.0335 57.9215 47.7783 61.1368 48.4037 62.5076C49.4239 64.745 51.8337 64.3358 53.9298 63.9702C56.0258 63.6046 56.0855 61.6478 55.2281 59.3626C54.3706 57.0774 52.941 56.309 50.4871 57.1153Z" stroke="black" stroke-width="2" stroke-miterlimit="10"/>
</svg>
