<svg width="100" height="100" viewBox="0 0 100 100" fill="none" xmlns="http://www.w3.org/2000/svg">
<path d="M46.3571 62.7863L34.9757 40.7238" stroke="black" stroke-width="2" stroke-linecap="round"/>
<path d="M28.0839 37.2887C27.4449 41.4056 33.2733 43.7426 35.563 41.1483C37.8527 38.554 37.4909 36.7292 36.3482 34.5706C35.2055 32.4119 28.8827 32.1425 28.0839 37.2887Z" fill="black" stroke="black" stroke-width="2" stroke-linecap="round"/>
<path d="M30.5523 33.5401L29.5922 31.5953" stroke="black" stroke-width="2" stroke-linecap="round"/>
<path d="M60.9191 19.1086C59.8936 19.1086 49.7929 18.4898 47.8573 19.1087C46.2899 20.502 33.4996 81.0881 33.4995 82.578C33.4994 84.7266 43.8283 84.0613 54.1567 84.0535C64.5543 84.0456 74.7935 84.0369 75.0049 83.4555C75.4263 82.2966 62.4164 19.1086 60.9191 19.1086Z" stroke="black" stroke-width="2" stroke-linecap="round"/>
<path d="M60.9111 19.1551C61.1547 18.9724 65.6986 15.993 66.0982 16.7422C66.4977 17.4914 78.6935 66.0521 79.0977 68.7195C79.2459 69.6978 75.7009 82.9004 75.092 83.281" stroke="black" stroke-width="2" stroke-linecap="round"/>
<path d="M36.0312 70.1231C36.0312 70.1231 40.9987 70.1231 41.5373 70.1231C42.076 70.1231 43.9312 61.4451 54.4644 60.9663C62.7149 60.5913 66.6135 70.1231 66.9127 70.1231C67.1521 70.1231 70.7629 70.1231 72.5384 70.1231" stroke="black" stroke-width="2" stroke-linecap="round"/>
<path d="M54.5288 60.6965V27.6095" stroke="black" stroke-width="2" stroke-linecap="round"/>
<path d="M50.813 55.4807H58.041" stroke="black" stroke-width="2" stroke-linecap="round"/>
<path d="M50.813 49.3447H58.041" stroke="black" stroke-width="2" stroke-linecap="round"/>
<path d="M50.813 43.3341H58.041" stroke="black" stroke-width="2" stroke-linecap="round"/>
<path d="M50.813 37.194H58.041" stroke="black" stroke-width="2" stroke-linecap="round"/>
<path d="M50.813 31.1213H58.041" stroke="black" stroke-width="2" stroke-linecap="round"/>
<path d="M47.792 18.9935C48.7824 18.0738 50.8162 16.4042 52.0894 16.0223C53.681 15.5449 65.4059 16.1285 65.9365 16.553" stroke="black" stroke-width="2" stroke-linecap="round"/>
<path d="M65.8646 16.767L61.1699 19.4679L62.9063 25.5131L74.2249 77.8616L75.6397 82.1704L79.3054 68.7296L66.6363 18.8249L65.8646 16.767Z" fill="black"/>
</svg>
