<svg width="100" height="100" viewBox="0 0 100 100" fill="none" xmlns="http://www.w3.org/2000/svg">
<path d="M41.452 59.4981C32.095 58.9969 30.3824 53.0931 30.6957 50.2038C30.8155 49.1008 53.2423 49.2639 53.6601 50.2039C54.0778 51.1438 53.1482 60.1246 41.452 59.4981Z" stroke="black" stroke-width="2" stroke-linecap="round"/>
<path d="M74.1424 52.5037C70.0791 54.4713 71.1418 60.138 75.6822 59.4758C81.8415 58.5775 78.2058 50.5361 74.1424 52.5037Z" stroke="black" stroke-width="2"/>
<path d="M76.7553 53.2902L75.8042 55.0942" stroke="black" stroke-width="2" stroke-linecap="round"/>
<path d="M68.7799 73.8209C68.7799 73.4511 68.5995 72.199 68.7799 71.0432H73.4187C73.539 71.9935 73.7074 73.5421 73.4187 74.0353C73.0579 74.6517 68.7799 74.4665 68.7799 73.8209Z" fill="black" stroke="black" stroke-width="2" stroke-linecap="round"/>
<path d="M25.4308 73.8209C25.4308 73.4511 25.2503 72.199 25.4308 71.0432H30.0696C30.1899 71.9935 30.3583 73.5421 30.0696 74.0353C29.7088 74.6517 25.4308 74.4665 25.4308 73.8209Z" fill="black" stroke="black" stroke-width="2" stroke-linecap="round"/>
<path d="M83.7514 32.7036C83.3568 32.0722 39.1267 32.4405 17.0611 32.7036C15.3838 33.2955 16.2719 63.8784 16.3705 66.6407C16.4692 69.403 18.3436 70.6855 21.6979 70.6855C25.0521 70.6855 73.0967 70.5868 77.1415 70.6855C81.1863 70.7842 83.6756 70.2248 83.6756 67.6019C83.6756 66.3194 84.2446 33.4929 83.7514 32.7036Z" stroke="black" stroke-width="2" stroke-linecap="round"/>
<path d="M70.2182 65.075C70.7953 63.92 72.563 64.3295 72.5629 65.7506C72.5629 67.4574 69.3803 67.2526 70.2182 65.075Z" fill="black"/>
<path d="M70.6104 46.2158V40.6882C70.6104 40.2934 79.6254 40.3591 80.1518 40.6882C80.6782 41.0172 80.086 45.8209 80.1518 46.2158C80.2176 46.6106 70.6104 46.7422 70.6104 46.2158Z" fill="black" stroke="black" stroke-width="2" stroke-linecap="round"/>
<path d="M21.5862 62.5292C21.1044 61.8874 21.0308 38.6325 21.5862 38.0973C22.1417 37.5622 60.4432 37.3844 60.9474 38.0973C61.4516 38.8102 61.4006 61.6209 60.9474 62.5292C60.4942 63.4375 22.068 63.171 21.5862 62.5292Z" stroke="black" stroke-width="2" stroke-linecap="round"/>
<path d="M21.6855 62.3586C24.2703 60.8737 29.0999 58.003 30.4858 57.8051C30.9578 57.7376 31.7151 57.6702 34.267 57.6178M60.7608 62.5072C59.2484 61.1048 55.9267 58.201 54.7388 57.8051C54.3085 57.6616 52.9429 57.5806 50.1747 57.5438" stroke="black" stroke-width="2" stroke-linecap="round"/>
<path d="M66.9033 32.9559V70.4373" stroke="black" stroke-width="2" stroke-linecap="round"/>
<path d="M66.9036 43.2471C66.4404 44.2446 65.5035 46.2567 65.4608 47.1971C65.4074 48.3726 65.4607 55.8379 65.4607 56.2654C65.4607 56.6074 66.4226 58.9474 66.9036 59.8024" stroke="black" stroke-width="2"/>
<path fill-rule="evenodd" clip-rule="evenodd" d="M30.9404 57.867L22.5647 61.6889H21.2637V59.4933V40.8717V38.0256H60.9463L61.8408 53.8824L60.9463 62.1767L55.8233 58.3548L53.3025 57.867L50.3751 57.0538L53.3025 52.2652L53.05 50.4253L41.3588 49.9653L30.9404 50.4253L31.3925 53.3769L34.0304 57.867H30.9404ZM44.0044 41.0686C44.535 40.9154 45.0893 41.2213 45.2425 41.7519C45.4561 42.4917 45.322 43.095 45.0533 43.5815C44.935 43.7957 44.7967 43.9763 44.6988 44.1025L44.6612 44.1509L44.6611 44.1509C44.5726 44.2647 44.5231 44.3284 44.4816 44.3944C44.4406 44.4595 44.4417 44.4615 44.4486 44.474C44.4505 44.4775 44.4529 44.4818 44.4549 44.4885C44.4959 44.6244 44.671 44.963 45.3095 45.5918C45.703 45.9793 45.7079 46.6125 45.3203 47.006C44.9328 47.3995 44.2997 47.4043 43.9062 47.0168C43.201 46.3223 42.7296 45.694 42.5402 45.0665C42.3191 44.3338 42.5212 43.7541 42.7893 43.3285C42.8884 43.1712 43.0054 43.0214 43.0866 42.9175L43.1189 42.8761C43.2135 42.7542 43.2663 42.6803 43.3026 42.6146C43.3431 42.5413 43.3719 42.483 43.321 42.3067C43.1678 41.7761 43.4738 41.2218 44.0044 41.0686ZM38.0412 40.5059C37.5384 40.2774 36.9456 40.4997 36.7171 41.0025C36.4911 41.4998 36.7061 42.0851 37.1972 42.319L37.1972 42.319C37.1971 42.3191 37.1984 42.3201 37.201 42.3222C37.2131 42.3316 37.2535 42.3633 37.3157 42.4337C37.405 42.5348 37.5015 42.6742 37.5825 42.8347C37.7614 43.1894 37.7756 43.4588 37.7371 43.5819C37.6866 43.7438 37.5953 43.9105 37.4501 44.1321C37.4248 44.1707 37.3944 44.2156 37.3609 44.2652L37.3609 44.2653C37.2381 44.447 37.0726 44.692 36.9556 44.9214C36.7874 45.251 36.6331 45.6956 36.7089 46.2267C36.7837 46.75 37.06 47.2053 37.4433 47.6125C37.8218 48.0147 38.4547 48.0339 38.8568 47.6554C39.259 47.2768 39.2782 46.644 38.8997 46.2418C38.734 46.0658 38.6968 45.9707 38.6898 45.9472C38.6926 45.9327 38.703 45.8971 38.7371 45.8303C38.794 45.7188 38.8597 45.6213 38.9596 45.4732L38.9596 45.4731C39.0058 45.4046 39.0594 45.3251 39.1228 45.2284C39.2957 44.9646 39.5109 44.6111 39.6461 44.1784C39.9049 43.3503 39.6595 42.5115 39.3682 41.9341C39.2141 41.6285 39.023 41.3457 38.8152 41.1102C38.6194 40.8885 38.3567 40.6493 38.0412 40.5059ZM38.689 45.9553C38.6888 45.9554 38.6887 45.9536 38.6894 45.9496C38.6895 45.9531 38.6892 45.9551 38.689 45.9553Z" fill="black"/>
<path d="M16.9014 32.869C19.4856 30.711 25.1379 26.4934 27.9512 25.9818C31.468 25.3423 68.7706 25.6715 71.3282 25.6715C73.8858 25.6715 82.778 31.5734 83.6945 32.5555" stroke="black" stroke-width="2" stroke-linecap="round"/>
<path d="M79.0181 29.2959C81.2462 30.5586 82.0445 32.5761 78.8447 32.4399" stroke="black" stroke-width="2" stroke-linecap="round"/>
<path d="M23.234 28.2212C19.7903 30.2929 18.5466 32.6236 22.5631 32.6236" stroke="black" stroke-width="2" stroke-linecap="round"/>
</svg>
