<svg width="100" height="100" viewBox="0 0 100 100" fill="none" xmlns="http://www.w3.org/2000/svg">
<path d="M49.2197 76.1182L53.0697 76.1722L53.0398 79.7822L49.3397 79.7532L49.2197 76.1182Z" fill="black" stroke="black" stroke-width="2" stroke-miterlimit="10" stroke-linecap="round" stroke-linejoin="round"/>
<path d="M57.0498 76.0029L60.8999 76.0569L60.8699 79.6669L57.1599 79.6379L57.0498 76.0029Z" fill="black" stroke="black" stroke-width="2" stroke-miterlimit="10" stroke-linecap="round" stroke-linejoin="round"/>
<path d="M40.6797 75.9443L44.5198 75.9983L44.4897 79.6073L40.7898 79.5793L40.6797 75.9443Z" fill="black" stroke="black" stroke-width="2" stroke-miterlimit="10" stroke-linecap="round" stroke-linejoin="round"/>
<path d="M42.8899 69.0039C42.4299 71.5739 42.7499 75.6889 42.7499 75.6889" stroke="black" stroke-width="2" stroke-miterlimit="10" stroke-linecap="round" stroke-linejoin="round"/>
<path d="M69.98 55.6799C71.58 55.1079 75.35 55.6439 75.35 55.6439" stroke="black" stroke-width="2" stroke-miterlimit="10" stroke-linecap="round" stroke-linejoin="round"/>
<path d="M69.6699 47.8879C71.1799 47.8569 75.46 47.9789 75.46 47.9789" stroke="black" stroke-width="2" stroke-miterlimit="10" stroke-linecap="round" stroke-linejoin="round"/>
<path d="M69.8799 40.6533C71.0799 41.2263 75.1898 40.6843 75.1898 40.6843" stroke="black" stroke-width="2" stroke-miterlimit="10" stroke-linecap="round" stroke-linejoin="round"/>
<path d="M38.11 29.7021C34.59 29.7021 31.14 32.4761 31.06 36.3991C30.98 40.3211 31.1501 61.2431 31.1501 61.2431C31.1501 61.2431 29.77 67.8672 38.57 68.6932C43.13 69.1222 57.64 68.2692 62.46 68.4322C67.28 68.5951 68.97 66.0752 69.21 61.4172C69.46 56.7592 69.38 40.8241 69.3 37.0651C69.22 33.3061 66.2901 30.6041 63.2701 30.1951C60.2401 29.7861 41.62 29.7021 38.11 29.7021ZM41.85 33.9062C46.49 33.9692 59.12 33.8551 61.07 34.4561C63.01 35.0581 65.0201 36.3381 65.0401 41.0951C65.0501 45.8521 65.01 55.2541 65.09 58.3731C65.18 61.4911 64.2901 64.6382 60.0201 64.6352C55.7501 64.6312 44.86 64.7581 42.45 64.6641C40.04 64.5691 36.05 65.1691 35.67 60.2571C35.29 55.3451 35.3201 42.5621 35.2901 39.0661C35.2701 35.5691 37.2 33.8422 41.85 33.9062Z" fill="black" stroke="black" stroke-width="2" stroke-miterlimit="10" stroke-linecap="round" stroke-linejoin="round"/>
<path d="M50.5003 68.7393C50.2903 69.9603 50.4703 73.7353 50.4003 74.9763" stroke="black" stroke-width="2" stroke-miterlimit="10" stroke-linecap="round" stroke-linejoin="round"/>
<path d="M58.94 68.7051C58.69 68.7941 58.8701 68.6941 58.8401 69.1681C58.7301 71.3581 59.0101 72.3581 59.0001 75.3381" stroke="black" stroke-width="2" stroke-miterlimit="10" stroke-linecap="round" stroke-linejoin="round"/>
<path d="M23.48 56.2931C23.48 56.2931 28.8 55.4561 30.35 55.9371" stroke="black" stroke-width="2" stroke-miterlimit="10" stroke-linecap="round" stroke-linejoin="round"/>
<path d="M20 54.3105L23.85 54.3645L23.8199 57.9735L20.11 57.9455L20 54.3105Z" fill="black" stroke="black" stroke-width="2" stroke-miterlimit="10" stroke-linecap="round" stroke-linejoin="round"/>
<path d="M75.9199 53.7871L79.76 53.8411L79.73 57.4511L76.03 57.4221L75.9199 53.7871Z" fill="black" stroke="black" stroke-width="2" stroke-miterlimit="10" stroke-linecap="round" stroke-linejoin="round"/>
<path d="M23.4697 49.2309C23.8797 49.1419 29.3698 48.8249 30.2498 49.0979" stroke="black" stroke-width="2" stroke-miterlimit="10" stroke-linecap="round" stroke-linejoin="round"/>
<path d="M20 46.8965L23.85 46.9505L23.8199 50.5605L20.11 50.5315L20 46.8965Z" fill="black" stroke="black" stroke-width="2" stroke-miterlimit="10" stroke-linecap="round" stroke-linejoin="round"/>
<path d="M75.9199 46.1982L79.76 46.2522L79.73 49.8622L76.03 49.8333L75.9199 46.1982Z" fill="black" stroke="black" stroke-width="2" stroke-miterlimit="10" stroke-linecap="round" stroke-linejoin="round"/>
<path d="M23.7002 41.6428C25.8702 41.5978 28.4402 41.6088 30.8202 41.6358" stroke="black" stroke-width="2" stroke-miterlimit="10" stroke-linecap="round" stroke-linejoin="round"/>
<path d="M76.0898 39.1328L79.9398 39.1868L79.8999 42.7958L76.1998 42.7668L76.0898 39.1328Z" fill="black" stroke="black" stroke-width="2" stroke-miterlimit="10" stroke-linecap="round" stroke-linejoin="round"/>
<path d="M20.0898 38.7842L23.9298 38.8382L23.8999 42.4472L20.1998 42.4192L20.0898 38.7842Z" fill="black" stroke="black" stroke-width="2" stroke-miterlimit="10" stroke-linecap="round" stroke-linejoin="round"/>
<path d="M58.24 29.3715C58.04 28.4135 58.16 27.4235 58.12 26.4525C58.11 26.1545 58 25.0355 57.98 25.1635" stroke="black" stroke-width="2" stroke-miterlimit="10" stroke-linecap="round" stroke-linejoin="round"/>
<path d="M40.4399 29.3696C40.6099 28.0426 40.49 25.6426 40.65 24.3496" stroke="black" stroke-width="2" stroke-miterlimit="10" stroke-linecap="round" stroke-linejoin="round"/>
<path d="M49.7197 29.2666C49.8597 28.1266 50.1097 25.0996 49.7397 24.0596" stroke="black" stroke-width="2" stroke-miterlimit="10" stroke-linecap="round" stroke-linejoin="round"/>
<path d="M56.29 20.291L60.14 20.345L60.1 23.954L56.4 23.926L56.29 20.291Z" fill="black" stroke="black" stroke-width="2" stroke-miterlimit="10" stroke-linecap="round" stroke-linejoin="round"/>
<path d="M47.9399 20.2129L51.79 20.2669L51.76 23.8759L48.0499 23.8479L47.9399 20.2129Z" fill="black" stroke="black" stroke-width="2" stroke-miterlimit="10" stroke-linecap="round" stroke-linejoin="round"/>
<path d="M38.8398 20L42.6798 20.054L42.6499 23.663L38.9498 23.635L38.8398 20Z" fill="black" stroke="black" stroke-width="2" stroke-miterlimit="10" stroke-linecap="round" stroke-linejoin="round"/>
<path d="M42.1101 41.458C41.1201 43.354 40.4302 53.694 42.2902 57.812C43.1902 59.786 55.6302 59.902 57.7702 57.723C59.4602 56.003 58.6201 44.525 57.5801 41.656C56.6001 38.96 43.2901 39.187 42.1101 41.458Z" stroke="black" stroke-width="2" stroke-miterlimit="10" stroke-linecap="round" stroke-linejoin="round"/>
</svg>
