<svg width="100" height="100" viewBox="0 0 100 100" fill="none" xmlns="http://www.w3.org/2000/svg">
<path d="M53.0887 61.1179C53.0887 61.1179 47.1227 60.6099 46.1747 61.4629C45.2277 62.3149 45.9417 67.7329 45.9417 67.7329C45.9417 67.7329 48.5697 70.2899 49.4647 70.3959C50.3597 70.5009 52.9577 70.5299 52.9577 70.5299L53.0887 61.1179Z" stroke="black" stroke-width="2" stroke-miterlimit="10" stroke-linejoin="round"/>
<path d="M45.484 63.6328C45.484 63.6328 22.798 63.8428 20.924 63.9398C19.05 64.0368 19.824 67.4658 20.984 67.5788C26.608 68.1278 31.338 67.3758 37.435 67.5058C41.514 67.5928 46.154 67.7118 46.154 67.7118" stroke="black" stroke-width="2" stroke-miterlimit="10" stroke-linejoin="round"/>
<path d="M47.3178 21.6664C47.3178 21.6664 33.9048 38.9337 34.7728 42.0447C35.4668 44.5307 41.9928 48.5897 43.6978 46.9157C45.2818 45.3597 55.5838 29.2442 56.3998 27.7668C57.2168 26.2893 48.3588 20.0839 47.3178 21.6664Z" stroke="black" stroke-width="2" stroke-miterlimit="10" stroke-linejoin="round"/>
<path d="M35.273 42.9092C35.273 42.9092 32.288 48.5242 31.81 49.9762C31.194 51.8432 35.735 55.0592 37.385 52.9892C39.035 50.9202 41.572 47.2512 41.572 47.2512" stroke="black" stroke-width="2" stroke-miterlimit="10" stroke-linejoin="round"/>
<path d="M46.6973 43.423C46.6973 43.423 52.7293 44.162 53.3683 43.306C54.0063 42.449 59.2723 33.635 59.6973 32.885C60.1223 32.136 55.5723 29.624 55.5723 29.624" stroke="black" stroke-width="2" stroke-miterlimit="10" stroke-linejoin="round"/>
<path d="M58.811 34.9346C58.811 34.9346 68.295 38.8706 70.575 47.2706C73.167 56.8186 67.999 65.2036 67.999 65.2036L63.206 56.9256C63.206 56.9256 64.229 50.9726 62.988 47.4346C61.747 43.8966 55.894 39.8926 55.894 39.8926L58.811 34.9346Z" stroke="black" stroke-width="2" stroke-miterlimit="10" stroke-linejoin="round"/>
<path d="M63.1643 56.9635C63.1643 56.9635 60.1653 52.7505 56.4443 54.9565C53.6513 56.6125 52.8653 59.5445 52.9793 63.7115C53.1603 70.2965 53.0833 76.1185 53.0833 76.1185L74.3864 76.3215L63.1643 56.9635Z" stroke="black" stroke-width="2" stroke-miterlimit="10" stroke-linejoin="round"/>
<path d="M74.761 76.424C74.761 76.424 78.605 77.122 79.783 79.833C80.661 81.853 80.687 82.925 80.687 82.925L19 82.853C19 82.853 20.845 76.953 25.968 76.872C31.091 76.791 53.482 76.292 53.482 76.292L74.761 76.424Z" stroke="black" stroke-width="2" stroke-miterlimit="10" stroke-linejoin="round"/>
<path d="M20.291 82.8327C20.291 82.8327 68.783 81.6846 72.585 81.5966C76.489 81.5056 79.73 81.1396 79.73 81.1396" stroke="black" stroke-width="2" stroke-miterlimit="10" stroke-linejoin="round"/>
<path d="M57.3903 62.4213C57.2853 64.7993 59.5283 64.3903 60.4683 63.6123C61.4083 62.8333 61.2653 61.5443 59.9193 60.6693C58.5733 59.7943 57.4593 60.8823 57.3903 62.4213Z" stroke="black" stroke-width="2" stroke-miterlimit="10" stroke-linejoin="round"/>
<path d="M27.3479 63.3645C27.3479 63.3645 25.1539 60.7135 28.1229 60.0415C31.0919 59.3685 35.7128 59.0885 38.5308 59.9175C41.3478 60.7455 39.3358 63.4395 39.3358 63.4395L27.3479 63.3645Z" fill="black" stroke="black" stroke-width="2" stroke-miterlimit="10" stroke-linejoin="round"/>
<path d="M50.689 22.005L53.1249 19.209L56.689 21.6109L55.0209 25.2258" stroke="black" stroke-width="2" stroke-miterlimit="10" stroke-linejoin="round"/>
<path d="M51.4629 18L58.2299 22.2298" stroke="black" stroke-width="2" stroke-miterlimit="10" stroke-linecap="round" stroke-linejoin="round"/>
</svg>
