<svg width="100" height="100" viewBox="0 0 100 100" fill="none" xmlns="http://www.w3.org/2000/svg">
<g clip-path="url(#clip0_65_20657)">
<path d="M83.4687 77.6652C86.7675 77.5604 89.5787 75.9726 91.0736 73.5152C92.2877 71.5192 90.7117 71.7094 89.5756 73.7508C88.113 76.3791 84.2002 76.1072 84.2002 76.1072C67.4111 72.2781 30.9446 58.2108 35.49 63.7503C46.5923 68.0768 75.918 77.9051 83.4687 77.6652Z" fill="black"/>
<path d="M38.1281 62.2181C33.1873 64.6016 22.8637 66.0724 15.0617 59.8067C5.35443 52.0108 6.68857 39.8514 10.5298 34.2477C14.371 28.6441 19.9607 23.3347 28.7141 22.8018C37.262 22.2815 43.2469 24.3413 47.8518 30.7778C51.4414 35.7951 51.2737 40.5171 51.0762 41.6102" stroke="black" stroke-width="2"/>
<path d="M10.4478 34.8604C16.374 34.7906 30.0325 37.048 37.2567 46.636" stroke="black" stroke-width="2"/>
<path d="M15.8442 28.1572C20.4955 26.4591 32.0984 27.5371 41.8144 42.0999" stroke="black" stroke-width="2"/>
<path d="M7.71338 42.3877C16.1843 49.8192 28.9316 50.5015 35.142 50.8559" stroke="black" stroke-width="2"/>
<path d="M9.19824 52.0283C12.642 54.9853 22.876 60.2187 36.2622 57.4964" stroke="black" stroke-width="2"/>
<path d="M24.4337 66.8668C15.7085 65.2759 10.5141 57.0013 9.39893 54.8037C14.0182 56.6308 18.4143 63.8651 26.5418 63.8651C34.6693 63.8651 36.9305 63.9774 39.447 63.4258C41.8523 64.537 50.2293 68.9276 47.25 68.0109C45.0768 67.3422 42.5032 66.8668 39.447 66.8668C35.5008 67.6081 33.1589 68.4576 24.4337 66.8668Z" fill="black"/>
<path d="M37.5791 23.681C31.0938 25.0747 27.108 27.0311 21.1551 36.5711C16.3928 44.203 17.3881 55.6379 19.636 61.4086L20.4306 63.3687" stroke="black" stroke-width="2"/>
<path d="M31.4441 65.7081C28.6769 61.0654 24.7184 49.7065 31.0215 41.4125C37.3247 33.1185 44.7724 32.5651 48.4352 32.6973" stroke="black" stroke-width="2"/>
<path d="M83.1315 76.1534L38.3516 62.3638C29.8576 46.1733 42.9474 41.0678 50.5541 40.5389C61.5949 45.7357 84.9019 57.5736 89.8043 63.3514C94.7066 69.1292 88.7895 78.0924 83.1315 76.1534Z" stroke="black" stroke-width="2"/>
<path d="M56.5399 67.6881C56.5399 67.6881 54.5671 63.3129 57.028 56.2339C59.489 49.155 64.6506 47.3597 64.6506 47.3597" stroke="black" stroke-width="2"/>
<path d="M87.7109 61.6363C87.3295 61.8688 76.5325 66.182 81.6923 75.7873" stroke="black" stroke-width="2"/>
</g>
<defs>
<clipPath id="clip0_65_20657">
<rect width="100" height="100" fill="white" transform="translate(100 100) rotate(-180)"/>
</clipPath>
</defs>
</svg>
