<svg width="100" height="100" viewBox="0 0 100 100" fill="none" xmlns="http://www.w3.org/2000/svg">
<path d="M28.0674 75.4346C27.3044 75.2057 27.1137 73.2411 27.1138 72.2875C27.1138 71.8379 28.1862 73.3423 29.8145 73.122C34.3346 73.122 44.5058 74.9021 54.5993 74.8546C62.6001 74.817 71.8129 72.1778 73.3221 72.2875C77.3379 72.5796 80.1042 75.0535 79.2281 76.3678C78.3519 77.682 70.1169 78.4661 66.1742 78.5391C62.2314 78.6121 44.8519 77.7234 38.1286 77.1512C31.4052 76.579 29.0212 75.7207 28.0674 75.4346Z" fill="black"/>
<path d="M44.2762 56.2285H34.7565" stroke="black" stroke-width="2" stroke-miterlimit="10" stroke-linecap="round"/>
<path d="M47.6321 52.1602H34.7564" stroke="black" stroke-width="2" stroke-miterlimit="10" stroke-linecap="round"/>
<path d="M72.211 72.8794C73.2084 72.3231 72.2111 44.3149 72.211 40.6701C72.2108 37.0252 63.0904 28.4028 63.0904 28.4028C63.0904 28.4028 63.4177 22.6494 63.0904 21.9803C62.763 21.3111 37.7942 21.2521 37.4713 21.9803C37.1485 22.7084 37.4713 28.4028 37.4713 28.4028L28.6952 39.661C28.6952 39.661 27.8088 72.7197 28.252 73.4356C28.6952 74.1515 54.8285 75.18 54.8285 75.18C54.8285 75.18 71.2135 73.4356 72.211 72.8794Z" stroke="black" stroke-width="2" stroke-miterlimit="10" stroke-linecap="round"/>
<path d="M71.689 40.459L54.9819 40.0156V74.9427" stroke="black" stroke-width="2" stroke-miterlimit="10" stroke-linecap="round"/>
<path d="M62.9131 28.8457L54.4918 39.6607H29.0373" stroke="black" stroke-width="2" stroke-miterlimit="10" stroke-linecap="round"/>
<path d="M62.4695 28.4033H37.3822" stroke="black" stroke-width="2" stroke-miterlimit="10" stroke-linecap="round"/>
</svg>
