<svg width="100" height="100" viewBox="0 0 100 100" fill="none" xmlns="http://www.w3.org/2000/svg">
<path d="M43.8945 78.4313C43.3945 77.8343 45.7845 71.4783 43.8545 70.8743C41.9245 70.2693 34.0845 73.6523 32.5045 71.3313C30.9345 69.0113 31.4144 65.1043 31.4144 65.1043C31.4144 65.1043 29.9445 64.6313 29.7345 63.8053C29.5345 62.9793 31.0045 61.8403 31.0045 61.8403C31.0045 61.8403 29.3845 61.5883 29.1345 60.3893C28.8845 59.1903 30.8845 57.3223 29.6045 57.0043C28.3245 56.6853 23.7744 57.5753 25.3144 53.8713C26.6844 50.5683 31.0745 44.4173 30.7245 42.8363C29.9445 39.3173 28.9945 33.8813 32.3745 28.6523C35.7445 23.4223 47.0844 15.9293 56.7744 18.5343C65.5244 20.8853 71.6545 25.5443 74.3845 34.2413C77.1145 42.9383 75.7944 50.1163 71.4244 55.8023C67.0544 61.4883 63.3245 65.3283 63.3345 70.7273C63.3345 76.1263 64.0544 76.8613 63.9344 78.0623C63.8544 78.8303 59.7944 80.4453 54.5444 80.5343C49.2844 80.6233 44.9745 79.7173 43.8945 78.4313Z" stroke="black" stroke-width="2" stroke-miterlimit="10" stroke-linecap="round" stroke-linejoin="round"/>
<path d="M63.5346 78.5594C63.5346 78.5594 57.3147 83.4874 45.4647 82.8484C39.1547 82.5084 32.5947 80.6444 36.3947 78.7334C39.2847 77.2784 43.6247 77.2314 43.6247 77.2314C43.6247 77.2314 42.0847 79.8034 48.9647 80.4474C50.8447 80.6244 52.8846 80.9284 57.7746 80.3224C61.6546 79.8404 63.5346 78.5594 63.5346 78.5594Z" fill="black" stroke="black" stroke-width="2" stroke-miterlimit="10" stroke-linecap="round" stroke-linejoin="round"/>
<path d="M42.0645 31.9181C42.0645 31.9181 42.5345 55.3921 42.7645 59.7281C42.9145 62.6291 45.7744 62.9101 51.5344 62.6671C58.0644 62.3931 60.9844 62.5171 61.0544 59.2381C61.1744 52.8391 61.1145 37.7381 61.0745 35.2101C61.0145 30.6421 59.8745 29.1571 57.0045 29.1491C54.9345 29.1421 42.3145 28.1851 42.0645 31.9181Z" stroke="black" stroke-width="2" stroke-miterlimit="10" stroke-linejoin="round"/>
<path d="M47.0842 58.5354C48.4342 58.4954 54.2742 58.5634 57.1142 58.2174C58.0842 58.0994 58.1842 53.2834 57.2142 53.2494C54.3942 53.1484 47.8742 53.6214 46.7242 53.7084C45.6342 53.7924 46.1342 58.5644 47.0842 58.5354Z" fill="black" stroke="black" stroke-width="2" stroke-miterlimit="10" stroke-linejoin="round"/>
<path d="M47.0343 49.4758C48.3843 49.4348 54.2243 49.5038 57.0543 49.1578C58.0343 49.0388 58.1243 44.2238 57.1643 44.1898C54.3343 44.0888 47.8243 44.5618 46.6743 44.6488C45.5743 44.7318 46.0743 49.5048 47.0343 49.4758Z" fill="black" stroke="black" stroke-width="2" stroke-miterlimit="10" stroke-linejoin="round"/>
<path d="M47.0547 29.1408C47.0547 29.1408 47.2048 25.8748 47.7648 24.8108C48.3348 23.7458 53.1947 24.0298 54.0547 24.3488C54.9047 24.6688 54.9747 29.1758 54.9747 29.1758" stroke="black" stroke-width="2" stroke-miterlimit="10" stroke-linejoin="round"/>
</svg>
