<svg width="100" height="100" viewBox="0 0 100 100" fill="none" xmlns="http://www.w3.org/2000/svg">
<path d="M63.6845 78.5178C63.6845 78.5178 57.4646 83.4458 45.6146 82.8068C39.3046 82.4668 32.7446 80.6027 36.5446 78.6917C39.4346 77.2367 44.2446 77.0947 44.2446 77.0947C44.2446 77.0947 42.2346 79.7618 49.1146 80.4058C50.9946 80.5828 53.0346 80.8868 57.9246 80.2808C61.8046 79.7988 63.6845 78.5178 63.6845 78.5178Z" fill="black" stroke="black" stroke-width="2" stroke-miterlimit="10" stroke-linecap="round" stroke-linejoin="round"/>
<path d="M43.8945 78.4313C43.3945 77.8343 48.4945 72.2963 45.7345 70.7133C43.9845 69.7073 34.0845 73.6523 32.5045 71.3313C30.9345 69.0113 31.4145 65.1043 31.4145 65.1043C31.4145 65.1043 29.9445 64.6313 29.7345 63.8053C29.5345 62.9793 31.0045 61.8403 31.0045 61.8403C31.0045 61.8403 29.3845 61.5883 29.1345 60.3893C28.8845 59.1903 30.8845 57.3223 29.6045 57.0043C28.3245 56.6853 23.7744 57.5753 25.3144 53.8713C26.6844 50.5683 31.0745 44.4173 30.7245 42.8363C29.9445 39.3173 28.9945 33.8813 32.3745 28.6523C35.7445 23.4223 47.0845 15.9293 56.7745 18.5343C65.5245 20.8853 71.6545 25.5443 74.3845 34.2413C77.1145 42.9383 75.7945 50.1163 71.4245 55.8023C67.0545 61.4883 63.3245 65.3283 63.3345 70.7273C63.3345 76.1263 64.0544 76.8613 63.9344 78.0623C63.8544 78.8303 59.7945 80.4453 54.5445 80.5343C49.2845 80.6233 44.9745 79.7173 43.8945 78.4313Z" stroke="black" stroke-width="2" stroke-miterlimit="10" stroke-linecap="round" stroke-linejoin="round"/>
<path d="M49.7444 18.4365L49.2143 29.2775C49.2143 29.2775 43.8443 23.5616 40.8143 30.2166C38.1343 36.0906 44.0244 39.2286 47.2244 37.2106C50.4244 35.1936 48.1644 44.9396 48.1644 44.9396L59.9844 45.2886C59.9844 45.2886 57.6444 42.7316 60.0944 39.0336C62.0944 36.0136 69.0343 37.1606 68.4443 41.1346C68.0343 43.9346 66.8043 45.4766 66.8043 45.4766L75.2944 46.1625" stroke="black" stroke-width="2" stroke-miterlimit="10" stroke-linejoin="round"/>
<path d="M48.2145 45.1885L48.0045 53.0245C48.0045 53.0245 52.4646 49.5165 55.1746 53.8775C57.0846 56.9605 54.7145 59.5635 52.7145 60.2015C50.5345 60.8975 47.1746 58.3665 47.1746 58.3665L46.3545 71.2395" stroke="black" stroke-width="2" stroke-miterlimit="10" stroke-linejoin="round"/>
<path d="M46.4443 71.21L63.0743 70.9619" stroke="black" stroke-width="2" stroke-miterlimit="10" stroke-linejoin="round"/>
<path d="M48.2346 44.9031L31.2246 43.9131" stroke="black" stroke-width="2" stroke-miterlimit="10" stroke-linejoin="round"/>
<path d="M50.4443 18.8718L49.6644 29.8758C49.6644 29.8758 46.7444 26.6218 44.1544 28.2808C41.5744 29.9408 41.0143 31.4168 41.4343 33.7328C41.8543 36.0488 44.7744 38.0998 46.9044 36.8608C49.0444 35.6208 50.0043 36.5928 49.7043 38.7648C49.4043 40.9378 49.2043 44.0548 49.2043 44.0548L58.4944 44.6538C58.4944 44.6538 57.4843 39.7358 59.9343 38.0628C62.3843 36.3898 64.9344 36.3288 66.9044 37.8778C68.8744 39.4258 69.7943 41.4618 69.1043 42.9238C68.4043 44.3858 67.2944 45.4018 70.0344 45.4288C72.7644 45.4558 74.9343 45.2208 74.9343 45.2208C74.9343 45.2208 75.3743 34.9148 72.2243 30.7008C69.0643 26.4868 62.7744 21.5378 59.3744 20.3008C54.4244 18.4988 50.4443 18.8718 50.4443 18.8718Z" fill="black" stroke="black" stroke-width="2" stroke-miterlimit="10" stroke-linejoin="round"/>
</svg>
