<svg width="100" height="100" viewBox="0 0 100 100" fill="none" xmlns="http://www.w3.org/2000/svg">
<path d="M43.8944 78.4313C43.3944 77.8343 45.7844 71.4783 43.8544 70.8743C41.9244 70.2693 34.0844 73.6523 32.5044 71.3313C30.9344 69.0113 31.4144 65.1043 31.4144 65.1043C31.4144 65.1043 29.9444 64.6313 29.7344 63.8053C29.5344 62.9793 31.0044 61.8403 31.0044 61.8403C31.0044 61.8403 29.3844 61.5883 29.1344 60.3893C28.8844 59.1903 30.8844 57.3223 29.6044 57.0043C28.3244 56.6853 23.7744 57.5753 25.3144 53.8713C26.6844 50.5683 31.0744 44.4173 30.7244 42.8363C29.9444 39.3173 28.9944 33.8813 32.3744 28.6523C35.7444 23.4223 47.0844 15.9293 56.7744 18.5343C65.5244 20.8853 71.6544 25.5443 74.3844 34.2413C77.1144 42.9383 75.7944 50.1163 71.4244 55.8023C67.0544 61.4883 63.3243 65.3283 63.3343 70.7273C63.3343 76.1263 64.0544 76.8613 63.9344 78.0623C63.8544 78.8303 59.7944 80.4453 54.5444 80.5343C49.2844 80.6233 44.9744 79.7173 43.8944 78.4313Z" stroke="black" stroke-width="2" stroke-miterlimit="10" stroke-linecap="round" stroke-linejoin="round"/>
<path d="M63.5343 78.5594C63.5343 78.5594 57.3142 83.4874 45.4642 82.8484C39.1542 82.5084 32.5942 80.6444 36.3942 78.7334C39.2842 77.2784 43.6242 77.2314 43.6242 77.2314C43.6242 77.2314 42.0842 79.8034 48.9642 80.4474C50.8442 80.6244 52.8843 80.9284 57.7743 80.3224C61.6543 79.8404 63.5343 78.5594 63.5343 78.5594Z" fill="black" stroke="black" stroke-width="2" stroke-miterlimit="10" stroke-linecap="round" stroke-linejoin="round"/>
<path d="M46.1045 57.2559C46.4145 58.6479 46.1146 60.1379 46.4146 61.4649" stroke="black" stroke-width="2" stroke-miterlimit="10" stroke-linecap="round" stroke-linejoin="round"/>
<path d="M59.1943 53.8975C59.5243 55.3955 59.1843 56.9635 59.5043 58.4195" stroke="black" stroke-width="2" stroke-miterlimit="10" stroke-linecap="round" stroke-linejoin="round"/>
<path d="M53.4043 49.0859C53.7043 50.4619 53.5943 51.9099 53.8943 53.2549" stroke="black" stroke-width="2" stroke-miterlimit="10" stroke-linecap="round" stroke-linejoin="round"/>
<path d="M47.3843 47.7842C47.5543 48.5262 47.7443 49.7442 47.5543 50.5152" stroke="black" stroke-width="2" stroke-miterlimit="10" stroke-linecap="round" stroke-linejoin="round"/>
<path d="M40.6143 47.3418C40.9043 48.6178 41.0243 51.4098 40.6843 52.7368" stroke="black" stroke-width="2" stroke-miterlimit="10" stroke-linecap="round" stroke-linejoin="round"/>
<path d="M62.7441 47.2539C62.6041 47.8249 62.9442 48.7298 63.0742 49.3188" stroke="black" stroke-width="2" stroke-miterlimit="10" stroke-linecap="round" stroke-linejoin="round"/>
<path d="M40.1944 33.2853C40.1944 33.2853 40.0443 32.0354 40.2143 30.6514C40.4843 28.5514 41.6044 25.7134 45.5544 24.7284C50.1344 23.5884 53.0244 29.0654 53.0244 29.0654C53.0244 29.0654 56.2644 26.6654 59.4144 28.0494C63.1644 29.6944 62.9643 32.9524 62.9643 32.9524C62.9643 32.9524 66.2643 32.9913 67.4643 36.0223C68.6743 39.0543 67.4644 43.0474 63.8844 43.6434C60.3044 44.2384 51.7444 44.2724 47.0444 43.6584C40.0244 42.7404 36.9544 44.7974 36.0044 38.7144C35.4644 35.2614 40.1944 33.2853 40.1944 33.2853Z" stroke="black" stroke-width="2" stroke-miterlimit="10" stroke-linejoin="round"/>
<path d="M62.9844 33.1162C62.9844 33.1162 63.1644 34.0942 62.9944 35.0122" stroke="black" stroke-width="2" stroke-miterlimit="10" stroke-linecap="round" stroke-linejoin="round"/>
<path d="M40.0044 33.4126C41.3644 32.8296 41.8644 32.6046 42.5344 32.4756" stroke="black" stroke-width="2" stroke-miterlimit="10" stroke-linecap="round" stroke-linejoin="round"/>
<path d="M53.4641 28.7773C52.9641 29.3443 52.0942 29.7674 51.7842 30.4844" stroke="black" stroke-width="2" stroke-miterlimit="10" stroke-linecap="round" stroke-linejoin="round"/>
</svg>
