<svg width="100" height="100" viewBox="0 0 100 100" fill="none" xmlns="http://www.w3.org/2000/svg">
<path d="M43.8945 78.4313C43.3945 77.8343 45.7844 71.4783 43.8544 70.8743C41.9244 70.2693 34.0844 73.6523 32.5044 71.3313C30.9344 69.0113 31.4144 65.1043 31.4144 65.1043C31.4144 65.1043 29.9444 64.6313 29.7344 63.8053C29.5344 62.9793 31.0044 61.8403 31.0044 61.8403C31.0044 61.8403 29.3845 61.5883 29.1345 60.3893C28.8845 59.1903 30.8844 57.3223 29.6044 57.0043C28.3244 56.6853 23.7744 57.5753 25.3144 53.8713C26.6844 50.5683 31.0745 44.4173 30.7245 42.8363C29.9445 39.3173 28.9944 33.8813 32.3744 28.6523C35.7444 23.4223 47.0845 15.9293 56.7745 18.5343C65.5245 20.8853 71.6545 25.5443 74.3845 34.2413C77.1145 42.9383 75.7944 50.1163 71.4244 55.8023C67.0544 61.4883 63.3245 65.3283 63.3345 70.7273C63.3345 76.1263 64.0544 76.8613 63.9344 78.0623C63.8544 78.8303 59.7944 80.4453 54.5444 80.5343C49.2844 80.6233 44.9745 79.7173 43.8945 78.4313Z" stroke="black" stroke-width="2" stroke-miterlimit="10" stroke-linecap="round" stroke-linejoin="round"/>
<path d="M63.5347 78.5594C63.5347 78.5594 57.3147 83.4874 45.4647 82.8484C39.1547 82.5084 32.5947 80.6444 36.3947 78.7334C39.2847 77.2784 43.6247 77.2314 43.6247 77.2314C43.6247 77.2314 42.0847 79.8034 48.9647 80.4474C50.8447 80.6244 52.8847 80.9284 57.7747 80.3224C61.6547 79.8404 63.5347 78.5594 63.5347 78.5594Z" fill="black" stroke="black" stroke-width="2" stroke-miterlimit="10" stroke-linecap="round" stroke-linejoin="round"/>
<path d="M50.6057 43.4713C49.3597 42.8473 47.9457 47.5343 49.8047 48.2783C54.3997 50.1163 60.1477 43.0913 55.7137 39.7653C48.3987 34.2793 41.8147 44.8173 45.2977 51.7833C46.3137 53.8153 48.2877 54.0083 50.2057 54.4873C55.5627 55.8263 60.8007 51.6043 61.7227 46.0743C64.0767 31.9473 45.4337 28.5773 39.5897 40.2663C34.7377 49.9683 41.1527 62.9913 53.0097 61.2973C55.1177 60.9963 57.4717 59.3413 59.2187 58.2933C69.1957 52.3063 70.2517 32.0603 58.7177 27.4473C55.0277 25.9713 48.9167 26.8393 45.4987 28.5483C44.4687 29.0633 41.9937 31.4533 40.9917 31.4533" stroke="black" stroke-width="2" stroke-miterlimit="10" stroke-linecap="round" stroke-linejoin="round"/>
</svg>
