<svg width="100" height="100" viewBox="0 0 100 100" fill="none" xmlns="http://www.w3.org/2000/svg">
<path d="M43.8944 78.4313C43.3944 77.8343 45.7845 71.4783 43.8545 70.8743C41.9245 70.2693 34.0845 73.6523 32.5045 71.3313C30.9345 69.0113 31.4144 65.1043 31.4144 65.1043C31.4144 65.1043 29.9445 64.6313 29.7345 63.8053C29.5345 62.9793 31.0045 61.8403 31.0045 61.8403C31.0045 61.8403 29.3845 61.5883 29.1345 60.3893C28.8845 59.1903 30.8845 57.3223 29.6045 57.0043C28.3245 56.6853 23.7744 57.5753 25.3144 53.8713C26.6844 50.5683 31.0745 44.4173 30.7245 42.8363C29.9445 39.3173 28.9945 33.8813 32.3745 28.6523C35.7445 23.4223 47.0844 15.9293 56.7744 18.5343C65.5244 20.8853 71.6545 25.5443 74.3845 34.2413C77.1145 42.9383 75.7944 50.1163 71.4244 55.8023C67.0544 61.4883 63.3245 65.3283 63.3345 70.7273C63.3345 76.1263 64.0544 76.8613 63.9344 78.0623C63.8544 78.8303 59.7944 80.4453 54.5444 80.5343C49.2844 80.6233 44.9744 79.7173 43.8944 78.4313Z" stroke="black" stroke-width="2" stroke-miterlimit="10" stroke-linecap="round" stroke-linejoin="round"/>
<path d="M63.5343 78.5594C63.5343 78.5594 57.3143 83.4874 45.4643 82.8484C39.1543 82.5084 32.5942 80.6444 36.3942 78.7334C39.2842 77.2784 43.6243 77.2314 43.6243 77.2314C43.6243 77.2314 42.0843 79.8034 48.9643 80.4474C50.8443 80.6244 52.8842 80.9284 57.7742 80.3224C61.6542 79.8404 63.5343 78.5594 63.5343 78.5594Z" fill="black" stroke="black" stroke-width="2" stroke-miterlimit="10" stroke-linecap="round" stroke-linejoin="round"/>
<path d="M51.3045 59.8397C49.3945 61.5147 53.2045 65.5367 54.6645 62.6517C56.1245 59.7677 54.2445 57.2617 51.3045 59.8397Z" fill="black" stroke="black" stroke-width="2" stroke-miterlimit="10" stroke-linejoin="round"/>
<path d="M45.7647 35.0794C45.7647 35.0794 45.8147 38.3704 43.9547 38.4704C40.9147 38.6354 42.4147 32.9004 43.2747 31.6274C45.6347 28.1384 49.8747 26.6404 53.9347 26.7454C55.3747 26.7824 56.8947 27.4624 57.8447 28.5034C60.1147 31.0164 60.3247 32.8064 60.2747 34.4354C60.1447 38.2144 56.0048 40.6234 54.3848 45.5784C53.7748 47.4404 54.8248 52.5854 53.3848 53.5614C50.3948 55.5834 50.4647 51.6914 50.3547 49.6594C50.0747 44.4024 52.7747 42.2114 54.7947 37.8664C55.4147 36.5344 55.4148 35.0604 54.7548 33.6924C52.7948 29.6624 47.0347 31.7364 45.7647 35.0794Z" fill="black" stroke="black" stroke-width="2" stroke-miterlimit="10" stroke-linecap="round" stroke-linejoin="round"/>
</svg>
