<svg width="100" height="100" viewBox="0 0 100 100" fill="none" xmlns="http://www.w3.org/2000/svg">
<path d="M33.8251 71.6533C35.2317 66.471 36.9263 62.3116 38.0284 60.6262C39.5621 60.1121 56.9335 60.6262 58.4235 60.6262C61.7395 60.6262 64.9005 83.4986 64.2527 84.1463C63.7345 84.6646 33.362 84.5975 32.5296 84.1463C31.6973 83.6952 32.4186 76.8356 33.8251 71.6533Z" stroke="black" stroke-width="2"/>
<path d="M48.2879 77.3603C44.0597 77.3603 43.3574 73.449 45.1246 71.2199C46.8918 68.9907 50.2831 69.6935 51.4511 71.2199C52.6192 72.7462 53.3264 77.3603 48.2879 77.3603Z" stroke="black" stroke-width="2"/>
<path d="M46.5439 70.7386L47.6993 72.6884" stroke="black" stroke-width="2" stroke-linecap="round"/>
<path d="M45.2914 71.0431C43.5506 72.586 42.6671 78.1246 47.6656 78.461C53.8379 78.8764 53.4015 72.4476 50.6915 70.54" stroke="black" stroke-width="2" stroke-linecap="round"/>
<path d="M41.252 69.3325L41.8266 69.7994" stroke="black" stroke-width="2" stroke-linecap="round"/>
<path d="M44.374 66.438L44.7619 67.0687" stroke="black" stroke-width="2" stroke-linecap="round"/>
<path d="M48.8208 66.0137L48.7885 66.7534" stroke="black" stroke-width="2" stroke-linecap="round"/>
<path d="M37.3379 61.9968C40.9209 61.2466 58.2733 61.3998 59.8457 61.9968" stroke="black" stroke-width="2"/>
<path d="M38.6387 60.0224C37.0463 50.4089 33.7201 31.0759 33.1538 30.6514C32.446 30.1206 28.465 26.0511 28.642 24.4587C28.7835 23.1848 63.5518 23.3972 64.1173 23.928C64.6827 24.4587 63.5157 28.1211 63.2326 30.032C62.9495 31.9429 59.6939 50.8218 58.1015 60.0224" stroke="black" stroke-width="2"/>
<path d="M64.1942 29.0958C65.7875 29.2729 70.3196 28.7064 71.0986 29.981C72.0724 31.5744 70.1249 42.3736 69.0627 43.8784C68.2129 45.0823 61.8927 50.3107 59.9453 50.8713" stroke="black" stroke-width="2"/>
<path d="M46.5742 44.1714C41.7831 44.6691 38.9914 41.4026 35.6807 41.4026L39.2584 60.1377L57.6816 60.6132L60.8254 42.4346C60.618 42.4087 59.2445 41.3404 56.8802 41.4026C53.9247 41.4804 50.5967 43.7535 46.5742 44.1714Z" fill="black" stroke="black" stroke-width="2" stroke-linecap="round"/>
<path d="M38.4933 28.9359L39.6068 35.9556" stroke="black" stroke-width="2" stroke-linecap="round"/>
<path d="M59.1671 28.8617L58.3491 35.7777" stroke="black" stroke-width="2" stroke-linecap="round"/>
<path d="M32.6548 23.8532C33.1954 22.9628 35.3766 20.62 37.2847 19.7042C39.6698 18.5594 55.2648 19.3767 57.4591 19.3767C59.2145 19.3767 62.4204 22.5812 63.0882 23.8532" stroke="black" stroke-width="2"/>
<path d="M46.1282 15.5193C45.3769 15.5194 45.8152 17.3562 46.1282 18.2746H49.6347C49.8017 17.6692 50.1106 16.3459 50.0104 15.895C49.8852 15.3315 47.0675 15.5193 46.1282 15.5193Z" fill="black" stroke="black" stroke-width="2"/>
</svg>
