<svg width="100" height="100" viewBox="0 0 100 100" fill="none" xmlns="http://www.w3.org/2000/svg">
<path d="M46.4385 42.7174C38.8372 42.7174 28.6638 43.5498 21.184 46.8599C11.8678 50.9826 17.8571 57.2877 26.3118 59.5028C34.7665 61.7179 55.4615 64.2652 68.9638 58.7275C82.4661 53.1898 75.1459 48.0781 73.1269 46.8599C71.5116 45.8852 67.9147 44.6064 64.5312 43.6556" stroke="black" stroke-width="2"/>
<path d="M16.5516 52.3543C16.2575 62.354 21.1246 77.1669 32.8073 81.9894C44.9611 87.0064 57.3282 83.4482 59.322 82.8138C61.3158 82.1794 76.5052 75.9138 76.8811 52.2886" stroke="black" stroke-width="2"/>
<path d="M67.9585 68.7798C66.3817 72.2714 65.7167 72.5446 64.0807 73.8356" stroke="black" stroke-width="2" stroke-linecap="round"/>
<path d="M70.0845 64.3842C69.881 64.9394 69.881 65.1225 69.6275 65.6385" stroke="black" stroke-width="2" stroke-linecap="round"/>
<path d="M50.6054 48.2166C45.429 49.387 42.6257 38.5865 41.4046 31.5892C39.8754 24.6724 47.3805 24.5997 49.6512 30.37C50.6165 32.823 56.5182 46.8796 50.6054 48.2166Z" stroke="black" stroke-width="2" stroke-linecap="round"/>
<path d="M43.1954 26.4025C50.4103 23.4202 68.7663 16.5603 72.0747 16.9165C79.5249 17.7185 83.2955 32.5184 79.3864 36.78C76.9331 39.4546 59.1974 46.0579 51.3131 48.1109" stroke="black" stroke-width="2" stroke-linecap="round"/>
<path d="M41.3792 54.1495C38.7788 54.5424 37.6876 54.3279 41.227 47.1147C42.6069 44.3024 44.6615 38.7032 51.0856 36.5184C52.0773 36.1051 51.7875 39.3792 52.1604 39.7622C53.4289 41.0653 51.5472 46.4861 51.5472 46.4861C50.8355 48.6801 49.9511 49.8222 50.1612 57.0651C50.2451 59.9615 47.1077 59.5367 45.2978 57.7999C43.9658 56.5217 44.9452 53.6107 41.3792 54.1495Z" fill="black" stroke="black" stroke-width="2" stroke-linecap="round"/>
<path d="M29.8679 53.9361C24.7963 54.5936 21.87 56.0832 20.8135 56.7875L24.9372 58.5145C29.3983 59.4928 40.551 61.4963 49.4731 61.6842C60.6258 61.919 72.2481 56.8709 72.4829 56.8709C72.7177 56.8709 68.6088 54.6404 60.391 53.1143C52.1733 51.5881 36.2073 53.1143 29.8679 53.9361Z" fill="black" stroke="black" stroke-width="2" stroke-linecap="round"/>
<path d="M17.6841 55.1698C18.2054 59.8035 18.5781 68.7308 24.2871 74.9209C28.4749 79.4614 32.3046 82.205 38.4171 83.7228" stroke="black" stroke-width="2" stroke-linecap="round"/>
<path d="M66.8179 17.8444C68.4856 18.0111 71.5833 18.4003 74.4418 22.927C76.6606 26.4405 78.6649 35.5266 76.0203 38.8145" stroke="black" stroke-width="2"/>
</svg>
