<svg width="100" height="100" viewBox="0 0 100 100" fill="none" xmlns="http://www.w3.org/2000/svg">
<path d="M64.0024 82.1078L37.4343 82.4146C34.9164 82.4279 32.8568 80.4688 32.8435 77.9509L32.2167 22.2967C32.2034 19.7788 34.1625 17.7192 36.6804 17.7059L63.2485 17.3992C65.7664 17.3859 67.8261 19.3449 67.8393 21.8628L68.4661 77.517C68.4794 80.0349 66.5203 82.0946 64.0024 82.1078Z" stroke="black" stroke-width="2" stroke-miterlimit="10"/>
<path d="M42.9297 59.4307L57.4408 59.418" stroke="black" stroke-width="2" stroke-miterlimit="10" stroke-linecap="round"/>
<path d="M48.4697 69.6738L52.4683 69.6828" stroke="black" stroke-width="6" stroke-miterlimit="10" stroke-linecap="round"/>
<path d="M40.9775 54.7998L59.5207 54.7935" stroke="black" stroke-width="2" stroke-miterlimit="10" stroke-linecap="round"/>
<path d="M31.3198 40.0652L32.2234 40.038L39.3385 39.8467C39.3385 39.8467 39.8655 26.5455 51.0656 27.1384C62.2657 27.7313 61.9363 39.751 61.9363 39.751L67.5502 39.6554L67.5502 23.0506C67.5502 20.2892 65.3116 18.0506 62.5502 18.0506L58.5104 18.0506L56.2703 21.1431L45.3998 21.1431L42.3691 18.0507L35.5173 18.0506L32.6843 20.2866" fill="black"/>
<path d="M42.8564 18.4951L44.5441 20.7024C44.9039 21.1612 45.7475 21.4586 46.6529 21.4458L54.7027 21.3439C55.6082 21.3312 56.3771 21.0332 56.7118 20.4873L58.1623 18.3907" stroke="black" stroke-width="2" stroke-miterlimit="10" stroke-linecap="round"/>
<circle cx="50.841" cy="38.9804" r="11.5" transform="rotate(-7.1446 50.841 38.9804)" stroke="black" stroke-width="2" stroke-miterlimit="10"/>
</svg>
