<svg width="100" height="100" viewBox="0 0 100 100" fill="none" xmlns="http://www.w3.org/2000/svg">
<path d="M44.0362 34.4981C44.0362 34.4981 33.7322 33.3091 31.7642 38.4951C29.7962 43.6821 32.6132 44.5661 35.0202 44.7371C37.4282 44.9091 47.9812 42.6711 48.9192 46.5501C49.8582 50.4291 44.4281 57.0841 36.5771 54.9701" stroke="black" stroke-width="2" stroke-miterlimit="10" stroke-linecap="round"/>
<path d="M34.6752 32.6162L45.7061 57.1362" stroke="black" stroke-width="2" stroke-miterlimit="10" stroke-linecap="round"/>
<path d="M69.5953 61.7364C69.5953 61.7364 62.9233 61.9823 62.3473 60.8303C61.8943 59.9243 70.9143 45.1753 72.4953 45.2463C74.4883 45.3373 82.4273 59.1684 83.1663 61.1804C83.6743 62.5644 76.4923 61.3794 76.3943 62.5164C76.1823 64.9774 76.3003 78.1353 76.3003 78.1353L69.3243 78.0444L69.5953 61.7364Z" stroke="black" stroke-width="2" stroke-miterlimit="10" stroke-linejoin="round"/>
<path d="M54.1203 39.7336C51.8473 34.2146 39.7883 15.6216 27.8993 22.5106C17.5463 28.5096 20.3523 42.3456 24.9963 52.6986C28.7953 61.1686 37.0113 66.8916 43.8523 67.9916C46.7733 68.4616 49.4423 68.0896 51.4113 66.7286C57.9133 62.2346 58.1843 49.6026 54.1203 39.7336Z" stroke="black" stroke-width="2" stroke-miterlimit="10"/>
<path d="M26.3243 23.5537C26.3243 23.5537 15.8783 30.7217 17.0993 42.6037C17.6413 47.8817 20.2253 56.5967 23.2933 60.2997C32.1813 71.0277 34.9293 70.2657 40.2563 69.8287C45.5823 69.3927 49.0673 67.8527 49.0673 67.8527C49.0673 67.8527 33.4523 71.2417 23.7513 49.7687C15.3893 31.2607 26.3243 23.5537 26.3243 23.5537Z" fill="black" stroke="black" stroke-width="2" stroke-miterlimit="10" stroke-linecap="round" stroke-linejoin="round"/>
</svg>
