<svg width="100" height="100" viewBox="0 0 100 100" fill="none" xmlns="http://www.w3.org/2000/svg">
<path d="M66.7006 35.8126C66.7006 35.8126 60.4636 32.0926 57.7166 34.8396C54.9696 37.5866 56.5146 38.9596 58.0026 39.7616C59.4906 40.5626 66.8726 42.1646 66.3576 44.9116C65.8426 47.6586 60.4636 50.3486 56.0566 46.7426" stroke="black" stroke-width="2" stroke-miterlimit="10" stroke-linecap="round"/>
<path d="M61.2646 31.9202V50.7482" stroke="black" stroke-width="2" stroke-miterlimit="10" stroke-linecap="round"/>
<path d="M41.6157 64.4316C42.1597 65.1126 42.1257 66.0536 41.5167 66.6566L26.2857 81.6336C25.7357 82.1616 25.0317 82.5056 24.2997 82.5836C23.1677 82.7046 20.9247 81.8156 19.4297 80.7556" stroke="black" stroke-width="2" stroke-miterlimit="10"/>
<path d="M37.4136 58.8836L43.4246 54.0156" stroke="black" stroke-width="2" stroke-miterlimit="10"/>
<path d="M41.0886 63.6544L47.5616 58.0654" stroke="black" stroke-width="2" stroke-miterlimit="10"/>
<path d="M40.8335 64.5226L47.3065 58.9336" stroke="black" stroke-width="2" stroke-miterlimit="10"/>
<path d="M62.0196 63.8151C51.5436 63.8571 40.5156 55.9251 38.6756 44.3641C36.9476 33.9431 44.4106 26.0651 45.1056 25.3051C50.0026 20.2901 55.9626 19.0081 57.8476 18.5911C59.8846 18.1581 64.3496 17.3321 69.2156 18.9981C77.4286 21.7911 82.4926 30.1151 83.6366 37.7531C83.9926 39.7911 85.2776 50.4091 77.5316 57.7791C72.0406 63.0051 64.4076 63.8091 62.0196 63.8151Z" stroke="black" stroke-width="2" stroke-miterlimit="10"/>
<path d="M37.3376 59.4267L40.8746 63.5417C41.4186 64.2217 41.3856 65.1647 40.7766 65.7667L25.5446 80.7437C24.9956 81.2717 24.2916 81.6157 23.5586 81.6937C22.4276 81.8157 20.7347 81.7277 19.2017 80.6177C17.4407 79.2627 16.6526 76.9327 17.1436 74.5997C17.3316 73.8417 17.7276 73.1287 18.3496 72.6607C24.1826 68.0107 29.2516 63.7807 35.0236 59.2047C35.7066 58.6627 36.7266 58.7537 37.3376 59.4267Z" stroke="black" stroke-width="2" stroke-miterlimit="10"/>
<path d="M62.9826 58.931C61.9386 59.081 58.2436 59.564 54.1636 57.893C48.5036 55.601 43.5097 49.874 43.2407 43.273C43.0057 38.445 45.4266 34.573 46.8876 32.137C47.6216 30.959 48.5706 29.363 50.3316 27.796C53.3156 25.099 56.7966 23.822 59.0456 23.513C66.9866 22.267 77.7326 29.233 78.8736 39.247C79.9086 48.865 71.1796 55.409 70.7976 55.756C69.6286 56.479 66.9956 58.346 62.9826 58.931Z" stroke="black" stroke-width="2" stroke-miterlimit="10"/>
<path d="M24.2861 82.5755C24.2861 82.5755 36.9001 82.7935 40.8151 80.9585C50.7431 76.3055 36.5747 72.3877 36.5747 72.3877C36.5747 72.3877 36.4277 72.9287 33.1487 75.8847C31.5547 77.3217 31.0611 79.9565 28.5421 81.4005C26.2206 83.1134 24.2861 82.5755 24.2861 82.5755Z" fill="black" stroke="black" stroke-width="2" stroke-miterlimit="10" stroke-linecap="round" stroke-linejoin="round"/>
</svg>
