<svg width="100" height="100" viewBox="0 0 100 100" fill="none" xmlns="http://www.w3.org/2000/svg">
<path d="M56.1811 81.0648H43.9758C43.1373 81.0648 43.4168 79.7251 43.4168 78.0505L43.4168 67.8875C43.4168 66.2129 44.069 67.4277 44.9075 67.4277H55.6221C56.4606 67.4277 57.1128 66.2129 57.1128 67.8875L57.1128 78.1063C57.1128 79.7251 57.0196 81.0648 56.1811 81.0648Z" fill="black"/>
<path d="M56.0176 68.0156H43.9824C43.18 68.0156 43.3988 68.8284 43.3988 70.2097C43.4718 71.2594 43.4718 72.3644 43.4718 73.4694C43.4718 75.4583 43.4718 78.1656 43.3988 79.9335C43.3988 80.4308 43.3094 81.591 43.3096 82.2512C43.5284 82.638 45.0035 81.591 45.5871 81.591C47.9941 81.6463 53.2596 81.591 55.7396 81.7015C56.542 81.7015 56.3823 82.033 56.3823 80.5965C56.3094 78.9943 56.3094 75.9003 56.3094 74.1324C56.3094 72.8064 56.3094 71.4804 56.3823 70.2649C56.3094 70.0439 56.6012 68.0156 56.0176 68.0156Z" stroke="black" stroke-width="2" stroke-miterlimit="10"/>
<path fill-rule="evenodd" clip-rule="evenodd" d="M87.6684 47.9206L12.9649 47.9205L12.4599 25.684C12.3977 22.9489 14.5238 20.7739 17.2391 20.795L87.3196 21.3382L87.3199 31.5061L87.6684 47.9206ZM35 34.5C35 38.0899 32.0899 41 28.5 41C24.9101 41 22 38.0899 22 34.5C22 30.9101 24.9101 28 28.5 28C32.0899 28 35 30.9101 35 34.5ZM42.4097 31.0674C41.8574 31.0674 41.4097 31.5151 41.4097 32.0674C41.4097 32.6197 41.8574 33.0674 42.4097 33.0674H63.2594C63.8117 33.0674 64.2594 32.6197 64.2594 32.0674C64.2594 31.5151 63.8117 31.0674 63.2594 31.0674H42.4097ZM42.4097 36.6201C41.8574 36.6201 41.4097 37.0678 41.4097 37.6201C41.4097 38.1724 41.8574 38.6201 42.4097 38.6201H54.8919C55.4442 38.6201 55.8919 38.1724 55.8919 37.6201C55.8919 37.0678 55.4442 36.6201 54.8919 36.6201H42.4097Z" fill="black"/>
<path d="M36.5469 82.6807H62.4405" stroke="black" stroke-width="2" stroke-miterlimit="10" stroke-linecap="round"/>
<path d="M86.0798 67.3057C84.0069 68.7574 15.2621 67.3057 15.2621 67.3057C10.5739 67.3057 11.6596 63.5029 11.6596 58.8605C11.9063 55.3541 12.0544 51.7488 12.1037 47.9954C12.2518 41.2788 12.0544 32.3397 11.6596 26.4627C11.5609 24.7835 11.5609 23.4007 13.5349 21.7216C14.966 20.4869 21.3816 21.0301 24.6387 20.9314C38.9996 20.6844 65.254 20.882 79.6149 20.635C82.2289 20.635 88.0538 19.5979 88.0538 24.2403C87.7577 29.5247 87.6096 39.9947 87.6096 45.8718C87.659 50.366 87.8071 54.6626 88.0538 58.8111C88.0538 59.4038 88.1527 65.854 86.0798 67.3057Z" stroke="black" stroke-width="2" stroke-miterlimit="10" stroke-linecap="round"/>
<path d="M65.1411 56.7607H77.2019" stroke="black" stroke-width="6" stroke-miterlimit="10" stroke-linecap="round"/>
</svg>
