<svg width="100" height="100" viewBox="0 0 100 100" fill="none" xmlns="http://www.w3.org/2000/svg">
<path d="M45.2027 64.222C45.2027 64.222 53.2947 64.2311 56.7357 64.3201C60.2457 64.4111 62.7447 64.467 62.7447 64.467M77.9999 57C77.9999 57 77.1703 51.2471 76.6703 47.7471C75.8132 41.7471 73.5297 33.5801 73.5297 33.5801C73.5297 33.5801 70.4937 33.7511 68.0447 33.6531C65.5967 33.5551 67.1703 34.2471 66.6703 39.7471C66.0794 46.2471 64.8609 52.181 62.9999 56.001C61.1389 59.821 49.5097 58.816 49.5097 58.816C49.5097 58.816 48.9401 58.3394 48.1703 54.7471C46.6703 47.7471 44.1703 46.2471 44.1703 46.2471" stroke="black" stroke-width="2" stroke-miterlimit="10" stroke-linecap="round" stroke-linejoin="round"/>
<path d="M65.9999 65.8599L63.1703 65.8369C63.1703 65.8369 62.1705 62.5422 65.1703 59.2471C66.9911 57.247 69.3163 56.3317 72.1703 56.2467C79.7903 56.0197 81.1705 59.5804 82.1705 61.2472C83.1705 62.9139 83.1705 65.8369 83.1705 65.8369H79.9999" stroke="black" stroke-width="2" stroke-miterlimit="10" stroke-linecap="round" stroke-linejoin="round"/>
<path d="M41 65.0003H44.5C44.5 62 42.6704 59.7461 42.6704 59.7461C39.8297 56.2466 34.8153 55.2462 30.6704 56.2466C24.4566 57.7462 24 62.4994 24 65.0003H26.9999" stroke="black" stroke-width="2" stroke-miterlimit="10" stroke-linecap="round" stroke-linejoin="round"/>
<path d="M65.5 48.001C65 50.501 63.5 57.7452 59.2228 58.1533C56.1938 58.4423 49.1704 58.1533 49.1704 58.1533" stroke="black" stroke-width="2" stroke-miterlimit="10" stroke-linecap="round" stroke-linejoin="round"/>
<path d="M24.4577 46.9756C24.4577 46.9756 19.2044 48.1365 18.6704 56.0585C18.5114 58.4255 18.2494 63.8165 18.8784 63.8655C20.9544 64.0265 23.6107 63.9166 23.6107 63.9166" stroke="black" stroke-width="2" stroke-miterlimit="10" stroke-linecap="round" stroke-linejoin="round"/>
<path d="M75.5 42C75.5 42 72.0001 42.1831 72 44.5C72 46.5 72.1704 46.7463 72.4177 48.2692C72.8198 50.7463 76.6704 49.7463 76.6704 49.7463C76.6704 49.7463 76.6704 48.2463 76.1704 45.2463C75.6704 42.2463 75.5 42 75.5 42Z" stroke="black" stroke-width="2" stroke-miterlimit="10" stroke-linecap="round" stroke-linejoin="round"/>
<path d="M26.6704 40.2463C24.0584 40.7683 21.9047 46.8121 23.9167 46.8681C25.9277 46.9241 44.1704 47.7471 44.1704 46.2471C44.1704 44.3485 45.0368 40.5001 42.5001 40.5C35.2843 40.4996 29.5001 40.2463 26.6704 40.2463Z" fill="black" stroke="black" stroke-width="2" stroke-miterlimit="10" stroke-linecap="round" stroke-linejoin="round"/>
<path d="M73.6702 34.2465C73.6702 34.2465 73.5852 29.7147 73.1702 28.0007C72.8111 26.5174 67.1702 26.2466 66.6702 28.2465V34.2465" stroke="black" stroke-width="2" stroke-miterlimit="10" stroke-linecap="round" stroke-linejoin="round"/>
<path d="M69.5 31.2467C70.5 31.2466 70.5 29.7473 69.5 29.7467C68.5 29.746 61.6704 29.7464 60.1704 29.7463C58.6703 29.7462 59.1705 31.2474 60.1704 31.2469C61.1702 31.2464 68.5 31.2467 69.5 31.2467Z" stroke="black" stroke-width="2" stroke-miterlimit="10" stroke-linecap="round" stroke-linejoin="round"/>
<path d="M41 67C41 68.3957 40.4527 70.17 39.2905 71.5817C38.152 72.9645 36.427 74 34 74C30.134 74 27 70.866 27 67C27 63.0985 30.2341 59.3016 35.0798 59.7424C38.002 60.0083 41 63.0488 41 67Z" stroke="black" stroke-width="2"/>
<path d="M33.6742 65.3183C34.2322 65.0457 34.7098 65.1203 35.1288 65.3688C35.5875 65.6409 35.9646 66.1256 36.147 66.5978C36.2714 66.9199 36.3025 67.4212 36.1621 67.9074C36.0247 68.3835 35.7609 68.7254 35.4199 68.892C34.9787 69.1075 34.3246 69.1927 33.7148 69.0787C33.0926 68.9624 32.738 68.6891 32.6075 68.4221C32.0977 67.3783 32.2105 66.7695 32.4037 66.397C32.6297 65.9613 33.0929 65.6022 33.6742 65.3183Z" fill="black" stroke="black" stroke-width="2"/>
<path d="M74.0441 60.2381C75.1993 60.3855 76.859 61.106 78.138 62.415C79.3865 63.6927 80.2482 65.5014 79.9439 67.8862C79.4546 71.7211 75.9491 74.4332 72.1142 73.9439C68.2824 73.455 65.281 69.7931 66.151 65.4431C66.5916 63.2403 67.7783 61.8726 69.2162 61.0793C70.6855 60.2688 72.4644 60.0365 74.0441 60.2381Z" stroke="black" stroke-width="2"/>
<path d="M74.2795 65.6907C74.8174 66.0012 75.0223 66.439 75.0503 66.9254C75.0809 67.4578 74.8896 68.0413 74.5999 68.4564C74.4022 68.7396 74.0039 69.0454 73.5222 69.2006C73.0505 69.3526 72.6196 69.325 72.2909 69.1352C71.8657 68.8897 71.4296 68.3948 71.1834 67.8253C70.9323 67.2443 70.9608 66.7975 71.1094 66.5401C71.6902 65.5341 72.2581 65.2876 72.6751 65.2397C73.1627 65.1837 73.7193 65.3672 74.2795 65.6907Z" fill="black" stroke="black" stroke-width="2"/>
</svg>
