<svg width="100" height="100" viewBox="0 0 100 100" fill="none" xmlns="http://www.w3.org/2000/svg">
<path d="M55.9479 58.9011C55.9479 58.9011 58.4349 48.4173 63.4789 47.2651C68.5229 46.113 75.9769 47.5854 75.5809 43.8049C75.1849 40.0244 63.4389 37.2837 57.7589 38.2348C52.0789 39.1858 52.299 40.8089 51.975 43.0652C51.753 44.609 50.6439 45.3327 48.5839 46.7547C47.5729 47.4529 44.569 48.573 43.764 48.7948C42.152 49.239 36.9339 51.3982 36.9209 51.7543C36.9079 52.1105 40.385 54.5117 42.23 55.6258C44.497 56.9942 49.7589 56.6164 51.3299 57.3167C53.4109 58.2441 55.9479 58.9011 55.9479 58.9011Z" stroke="black" stroke-width="2" stroke-miterlimit="10" stroke-linecap="round" stroke-linejoin="round"/>
<path d="M52.6859 58.6591C52.6859 58.6591 53.0699 61.6291 47.9399 61.3001C42.8089 60.9701 33.8289 61.7001 32.5949 60.8171C31.3599 59.9331 32.4509 57.401 34.1739 57.1461C35.8959 56.8911 43.8169 56.8259 45.6859 56.9116C46.5509 56.9512 48.3139 56.7252 50.0639 57.1621C51.8129 57.599 52.6859 58.6591 52.6859 58.6591Z" stroke="black" stroke-width="2" stroke-miterlimit="10" stroke-linecap="round" stroke-linejoin="round"/>
<path d="M63.277 47.584C63.277 47.584 67.035 57.6847 68.912 58.9632C70.789 60.2422 71.322 56.9397 69.974 53.7699C68.626 50.6002 67.628 46.9404 67.628 46.9404L63.277 47.584Z" stroke="black" stroke-width="2" stroke-miterlimit="10" stroke-linecap="round" stroke-linejoin="round"/>
<path d="M51.1159 44.7395C51.1159 44.7395 43.2879 44.3017 40.8689 42.9712C38.4499 41.6407 35.7839 38.7255 32.7879 39.265C29.7919 39.8046 28.6329 40.7647 29.3339 43.0404C30.0349 45.3161 34.4219 47.9449 35.7029 48.5085C37.4959 49.298 39.2559 50.0785 41.4469 49.4441C42.4279 49.1601 45.7479 48.2195 47.8669 47.1176C49.9859 46.0156 51.1159 44.7395 51.1159 44.7395Z" stroke="black" stroke-width="2" stroke-miterlimit="10" stroke-linecap="round" stroke-linejoin="round"/>
<path d="M35.195 48.6211C35.195 48.6211 28.209 54.1614 28.814 54.8646C29.419 55.5678 32.761 54.7186 34.592 53.486C36.423 52.2535 38.167 50.5985 38.167 50.5985" stroke="black" stroke-width="2" stroke-miterlimit="10" stroke-linecap="round" stroke-linejoin="round"/>
<path d="M32.5669 50.6354C32.5669 50.6354 24.6209 48.0422 20.1059 53.7884C15.5899 59.5343 19.0119 66.7973 24.0189 69.0013C29.0249 71.2063 33.3619 70.6593 35.9989 68.5753C40.1559 65.2903 40.1789 61.6233 40.1789 61.6233L34.8829 61.3033C34.8829 61.3033 31.4749 65.7823 28.2089 64.8983C24.9419 64.0143 23.0919 62.4463 23.3639 59.3363C23.8689 53.5545 29.2339 53.7479 29.2339 53.7479" stroke="black" stroke-width="2" stroke-miterlimit="10" stroke-linecap="round" stroke-linejoin="round"/>
<path d="M64.6059 52.0808C64.6059 52.0808 60.7349 54.6405 60.5859 59.4242C60.4929 62.4072 60.9339 67.9732 69.1759 70.1382C80.1109 73.0092 86.0599 59.5592 79.9689 52.6982C76.9229 49.2662 68.7449 49.9906 68.7449 49.9906" stroke="black" stroke-width="2" stroke-miterlimit="10" stroke-linecap="round" stroke-linejoin="round"/>
<path d="M66.8379 56.2492C64.5069 58.893 64.8289 65.4371 71.3449 65.2461C76.4159 65.0971 77.2029 61.882 76.7429 59.058C76.2829 56.2339 74.1209 54.2091 70.6899 55.1203" stroke="black" stroke-width="2" stroke-miterlimit="10" stroke-linecap="round" stroke-linejoin="round"/>
<path d="M74.5079 41.9503C74.5079 41.9503 69.0419 34.4478 67.3769 32.5376C65.1029 29.9292 58.9339 28.5269 61.3999 32.3726C63.8659 36.2183 65.3709 38.3734 65.3709 38.3734C65.3709 38.3734 68.4049 38.7335 70.6689 39.7815C72.9319 40.8295 74.5079 41.9503 74.5079 41.9503Z" fill="black" stroke="black" stroke-width="2" stroke-miterlimit="10" stroke-linecap="round" stroke-linejoin="round"/>
<path d="M67.7259 57.2431C66.1799 56.6726 65.2039 59.772 65.6729 61.184C67.1559 65.64 69.6249 65.254 73.4679 64.829C74.8779 64.674 76.1769 63.978 76.9189 62.771C78.8999 59.547 75.8349 55.3605 72.5259 54.9998C69.4419 54.6636 71.8379 58.814 69.6009 58.875C68.4999 58.904 67.5659 56.9159 66.8479 56.1502" fill="black"/>
<path d="M32.4669 54.7656C32.4669 54.7656 33.6259 56.0015 33.5739 56.568" stroke="black" stroke-width="2" stroke-miterlimit="10" stroke-linecap="round" stroke-linejoin="round"/>
<path d="M29.4159 54.9608C28.9539 53.248 26.562 53.9921 25.687 54.8672C22.344 58.2101 22.827 64.0471 28.027 64.9141C29.026 65.0811 34.6969 63.0081 34.2359 61.8561C34.0389 61.3631 33.0399 61.3421 32.6449 61.0451C32.0409 60.5921 32.2689 59.8031 32.1659 59.0831C31.8729 57.0344 35.269 58.4381 32.988 55.3976C32.184 54.3258 29.7179 56.0818 29.4159 54.9608Z" fill="black"/>
<path d="M38.3199 53.0625C38.3199 53.0625 40.2639 55.472 39.9189 56.677" stroke="black" stroke-width="2" stroke-miterlimit="10" stroke-linecap="round" stroke-linejoin="round"/>
</svg>
