<svg width="100" height="100" viewBox="0 0 100 100" fill="none" xmlns="http://www.w3.org/2000/svg">
<path d="M29.3328 16.9317C27.0796 17.495 25.3427 21.1566 24.756 22.917C24.3146 24.0614 30.2169 28.9901 30.7451 29.3421C31.2732 29.6942 34.2618 27.6698 34.2618 27.2297C34.2618 26.8777 31.3829 24.9158 31.1425 24.6961C30.902 24.4764 31.9173 22.917 32.3213 22.404C32.7704 21.8338 38.9538 23.2787 39.4819 23.3667C40.01 23.4547 40.0207 21.4479 39.7955 21.0662C39.6648 20.8447 33.2605 15.95 29.3328 16.9317Z" stroke="black" stroke-width="2" stroke-linecap="round"/>
<path d="M34.1035 27.5256C35.5344 26.2332 36.6942 24.5529 36.9191 22.8638" stroke="black" stroke-width="2" stroke-linecap="round"/>
<path d="M24.6416 23.479C23.7948 23.7919 21.6925 24.8928 20.0577 26.7926C18.0143 29.1675 19.1189 42.643 20.0577 45.0178C20.9966 47.3925 27.8446 47.6687 30.3851 47.7791C32.4175 47.8675 34.1037 47.8159 34.6928 47.7791" stroke="black" stroke-width="2" stroke-linecap="round"/>
<path d="M26.2488 25.2828C24.5112 24.1628 23.3985 26.3913 23.3984 27.6624C23.3984 28.9752 25.4698 32.9781 27.1266 34.6349C28.7834 36.2918 30.6611 37.1754 31.4343 36.9545C32.2075 36.7336 40.9801 35.5234 42.9683 35.5786C44.9565 35.6338 44.5071 37.2059 45.446 36.7088C47.4192 35.6642 47.6091 33.4752 46.2284 32.702C44.8477 31.9288 36.2344 32.6468 35.406 32.702C34.7433 32.7462 33.0172 32.702 32.2967 32.702C31.5763 32.702 29.5566 28.4495 29.5566 28.4495" stroke="black" stroke-width="2" stroke-linecap="round"/>
<path d="M28.3906 35.6392C28.5621 36.9379 28.8023 39.6678 28.3906 40.197C27.876 40.8586 21.0987 41.999 19.4814 40.9699" stroke="black" stroke-width="2" stroke-linecap="round"/>
<path d="M28.0996 40.6523C31.0747 41.2379 37.2919 42.5356 38.3601 43.0416C39.6955 43.6741 41.3878 55.0357 41.6689 55.2465C41.95 55.4574 46.934 56.0429 47.2151 57.0268C47.4962 58.0107 47.3557 59.1351 46.7935 59.2757C46.2312 59.4163 39.9949 60.1734 39.1515 59.7517C38.3081 59.33 38.461 59.2705 37.8872 56.446C37.2782 53.4477 34.8187 47.1466 34.0457 46.7952" stroke="black" stroke-width="2" stroke-linecap="round"/>
<path d="M46.7569 33.0557C50.2961 33.0557 70.1237 47.5932 70.5043 48.3543C70.98 49.3058 70.5044 51.5257 67.5711 49.94C65.2245 48.6715 52.2847 40.6101 45.8369 36.752" stroke="black" stroke-width="2" stroke-linecap="round"/>
<path d="M56.7236 38.1271C57.1641 37.3637 58.087 36.2061 60.2715 35.6423C63.0021 34.9377 66.2613 35.29 66.6136 35.0257C66.9659 34.7615 69.3442 32.3833 68.9038 32.1191C68.4634 31.8548 61.0549 29.5143 57.1004 32.1191C54.1754 34.0458 54.0386 34.1474 52.04 35.3803" stroke="black" stroke-width="2" stroke-linecap="round"/>
<path d="M53.3891 41.7983C52.7655 42.7339 51.7054 45.1038 52.4537 47.0994C53.3891 49.5939 54.6364 52.816 52.4537 54.9988C50.7076 56.745 47.2119 60.4959 46.0095 60.8194C44.807 61.1429 41.7971 61.2307 41.3132 61.4605C40.8294 61.6903 40.2412 60.1107 40.2412 60.1107" stroke="black" stroke-width="2" stroke-linecap="round"/>
<path d="M48.18 38.9707C43.826 41.9684 38.8477 43.7177 38.8477 43.7177" stroke="black" stroke-width="2" stroke-linecap="round"/>
<path d="M31.6053 48.1807C27.0862 50.2578 18.0479 54.5132 18.0479 54.9174C18.0478 55.4226 21.1635 57.7804 21.9213 57.3594C22.5276 57.0226 24.1992 56.3706 25.2378 55.9776" stroke="black" stroke-width="2" stroke-linecap="round"/>
<path d="M22.8477 52.8965C23.9984 54.4122 26.4853 57.3931 27.2264 57.191C28.1527 56.9384 31.4368 55.6752 32.5315 55.5068C33.4073 55.3721 36.1557 56.1844 37.6995 56.6335" stroke="black" stroke-width="2" stroke-linecap="round"/>
<path d="M38.8289 60.1694C36.5211 63.3576 32.0482 69.8768 32.6192 70.4477C33.3329 71.1614 33.9754 72.1608 35.4029 70.4477C36.545 69.0772 40.4469 63.5955 42.2551 61.0259" stroke="black" stroke-width="2" stroke-linecap="round"/>
<path d="M46.6704 45.9208C47.7822 45.0053 48.8462 39.8922 48.4687 39.5446C48.0912 39.197 39.8857 43.7954 39.8857 43.7954L40.5396 49.1088C42.12 48.4276 45.5587 46.8363 46.6704 45.9208Z" fill="black" stroke="black" stroke-width="2" stroke-linecap="round"/>
<path d="M33.1396 51.8992C32.6627 52.0581 30.1154 50.6851 28.9014 49.9788C29.707 49.7044 31.3492 49.1324 31.4725 49.04C31.6266 48.9244 33.7845 48.539 34.2083 48.6931C34.5474 48.8164 35.3149 50.4404 35.6563 51.237C35.0161 51.3916 33.6165 51.7403 33.1396 51.8992Z" fill="black" stroke="black" stroke-width="2" stroke-linecap="round"/>
<path d="M43.6451 36.3076L42.7871 37.7575" stroke="black" stroke-width="2" stroke-linecap="round"/>
<path d="M32.5907 21.6636L31.3115 24.3567L34.274 27.1173L36.2939 25.0974L36.7652 22.7745L32.5907 21.6636Z" fill="black"/>
<path d="M62.4181 42.2053C64.7444 39.8667 68.8506 37.5968 74.3837 39.2341C83.5531 41.9474 82.9687 55.8353 75.8808 58.6017C69.0322 61.2747 62.8673 58.7533 60.7236 54.9074C58.6987 51.2746 59.2246 47.5284 60.0583 45.5362" stroke="black" stroke-width="2" stroke-linecap="round"/>
<path d="M63.3421 48.0953C63.1039 49.4124 63.179 51.1603 64.1315 52.8692C65.5105 55.3431 69.4761 56.9651 73.8815 55.2456C78.4409 53.4661 78.8168 44.5325 72.9185 42.7871C69.7312 41.844 67.28 42.9163 65.7279 44.231" stroke="black" stroke-width="2" stroke-linecap="round"/>
<path d="M66.9853 38.5303C66.3046 39.0587 66.0713 40.6987 66.3046 41.2044" stroke="black" stroke-width="2" stroke-linecap="round"/>
<path d="M72.0035 38.2965C71.223 38.6618 70.6336 40.2099 70.7497 40.7546" stroke="black" stroke-width="2" stroke-linecap="round"/>
<path d="M77.325 40.2653C76.4733 40.134 75.1216 41.0916 74.9146 41.6086" stroke="black" stroke-width="2" stroke-linecap="round"/>
<path d="M80.5661 44.0635C79.7892 43.6907 78.2178 44.2149 77.8697 44.6497" stroke="black" stroke-width="2" stroke-linecap="round"/>
<path d="M81.8096 49.6016C81.4156 48.8351 79.8467 48.3036 79.3066 48.4397" stroke="black" stroke-width="2" stroke-linecap="round"/>
<path d="M80.8588 54.1152C80.7034 53.2676 79.3554 52.3049 78.799 52.279" stroke="black" stroke-width="2" stroke-linecap="round"/>
<path d="M78.2022 58.0714C78.345 57.2215 77.4058 55.857 76.8916 55.643" stroke="black" stroke-width="2" stroke-linecap="round"/>
<path d="M73.3075 60.1694C73.8351 59.4881 73.6526 57.8417 73.3007 57.41" stroke="black" stroke-width="2" stroke-linecap="round"/>
<path d="M68.2764 60.1727C68.9549 59.6414 69.1812 58.0004 68.9458 57.4957" stroke="black" stroke-width="2" stroke-linecap="round"/>
<path d="M62.6773 58.2948C63.5389 58.3109 64.7502 57.181 64.8862 56.641" stroke="black" stroke-width="2" stroke-linecap="round"/>
<path d="M59.3182 54.115C60.1156 54.4418 61.6537 53.8267 61.9758 53.3724" stroke="black" stroke-width="2" stroke-linecap="round"/>
<path d="M58.2513 48.6148C58.8459 49.2385 60.5011 49.3045 60.9806 49.0212" stroke="black" stroke-width="2" stroke-linecap="round"/>
<path d="M38.9663 60.4766C43.9306 63.1394 45.5887 67.1951 44.7063 72.8975C43.2439 82.3474 29.4027 83.6261 25.7129 76.972C22.1478 70.5425 23.8219 64.0957 27.3465 61.4568C30.6758 58.9642 34.8596 58.2652 37.9735 59.9802" stroke="black" stroke-width="2" stroke-linecap="round"/>
<path d="M35.5182 63.162C34.1249 63.0997 31.2211 63.0271 29.5893 64.2489C27.2269 66.0176 26.1048 70.3387 28.4944 74.6482C30.9675 79.1082 40.2448 78.2512 41.225 71.9172C41.7546 68.4945 41.213 67.1714 39.6391 65.7519" stroke="black" stroke-width="2" stroke-linecap="round"/>
<path d="M44.4139 65.4717C43.7991 64.8678 42.6406 65.1729 42.1706 65.4718" stroke="black" stroke-width="2" stroke-linecap="round"/>
<path d="M45.317 70.414C44.8506 69.6893 43.2376 69.3124 42.7133 69.5002" stroke="black" stroke-width="2" stroke-linecap="round"/>
<path d="M44.0779 75.9501C44.0942 75.0885 42.9643 73.8771 42.4243 73.7411" stroke="black" stroke-width="2" stroke-linecap="round"/>
<path d="M40.7474 79.6706C41.0129 78.8508 40.2832 77.3636 39.8058 77.0768" stroke="black" stroke-width="2" stroke-linecap="round"/>
<path d="M35.4258 81.6438C36.1327 81.1509 36.4496 79.5249 36.2424 79.008" stroke="black" stroke-width="2" stroke-linecap="round"/>
<path d="M30.8255 81.3048C31.6447 81.0374 32.4185 79.5727 32.3697 79.0179" stroke="black" stroke-width="2" stroke-linecap="round"/>
<path d="M26.5491 79.2017C27.4104 79.2296 28.637 78.1163 28.7803 77.5781" stroke="black" stroke-width="2" stroke-linecap="round"/>
<path d="M23.8152 74.6313C24.561 75.063 26.1683 74.6619 26.549 74.2554" stroke="black" stroke-width="2" stroke-linecap="round"/>
<path d="M23.1391 69.6465C23.7564 70.2478 25.4129 70.2526 25.8816 69.9518" stroke="black" stroke-width="2" stroke-linecap="round"/>
<path d="M24.2508 63.8461C24.35 64.7021 25.6318 65.7515 26.1852 65.814" stroke="black" stroke-width="2" stroke-linecap="round"/>
<path d="M27.944 59.9585C27.7268 60.7925 28.5421 62.2345 29.0354 62.493" stroke="black" stroke-width="2" stroke-linecap="round"/>
<path d="M33.2512 58.1643C32.7126 58.8371 32.8686 60.4863 33.2136 60.9235" stroke="black" stroke-width="2" stroke-linecap="round"/>
<path d="M41.0859 32.3711L40.6543 35.737" stroke="black" stroke-width="2" stroke-linecap="round"/>
<path d="M37.1436 53.3776C37.8669 52.8457 39.5305 51.8202 40.3985 51.9734" stroke="black" stroke-width="2" stroke-linecap="round"/>
<path d="M41.557 32.4414L40.5879 35.264L43.9583 35.6854L45.6856 36.2752L46.8652 35.6854L47.2022 33.916L45.2643 32.4414H41.557Z" fill="black"/>
<path d="M18.3691 54.9569C19.8449 54.1358 22.8393 52.4719 23.0107 52.3862L25.3313 55.6709L21.1541 57.4917L18.3691 54.9569Z" fill="black"/>
<path d="M25.7341 63.2316L30.0253 60.2135L34.2691 59.0347L38.6546 60.2135L36.384 63.986L32.8318 63.5139L28.8462 65.438L27.5034 70.5197L29.5064 75.3053L34.2691 77.3782L39.9855 74.7375L41.3896 69.3432L39.5896 65.705L41.3896 62.2884L43.5587 63.986L45.0677 68.4658L44.6905 72.8041L43.2758 77.3782L39.079 80.7262L33.7032 81.4336L28.8462 80.1132L25.7341 76.9066L23.9893 71.4366L24.3194 67.004L25.7341 63.2316Z" fill="black"/>
<path d="M59.8839 45.7961L63.8365 47.8664L63.4601 50.7276L65.0788 54.5673C66.3963 55.0692 69.1067 56.0728 69.4079 56.0728C69.709 56.0728 72.0179 55.8219 73.1346 55.6964L75.8827 54.1156L77.3131 50.7276L77.0873 46.9632L74.7533 43.9517L69.0314 42.5965L65.907 44.554L62.5943 42.2953L63.8365 40.6766L69.0314 38.7188L72.4947 38.9825L76.8238 40.3754C77.7398 41.0906 79.6019 42.5962 79.7224 42.8974C79.8729 43.2738 81.3411 47.6405 81.3787 47.8664C81.4088 48.0471 80.6886 51.0536 80.3247 52.5343L79.0824 56.0728C78.0786 56.9888 76.0332 58.8359 75.8827 58.8961C75.7321 58.9564 71.7794 59.3228 69.8219 59.4984L64.74 58.5573L61.0132 55.6964L59.3193 50.4262L59.8839 45.7961Z" fill="black"/>
</svg>
