<svg width="100" height="100" viewBox="0 0 100 100" fill="none" xmlns="http://www.w3.org/2000/svg">
<g clip-path="url(#clip0_65_20439)">
<path d="M12.86 70.5C12.17 70.47 11.78 69.72 12.14 69.14C14.53 65.35 17.23 60.21 21.22 60.04C24.87 59.89 22.82 49.48 30.2 50.84C32.1 45.85 37.43 46.4 38.8 42.79C39.11 41.97 40.15 41.75 40.75 42.39C42.26 43.98 44.08 47.12 44.48 48.52C44.18 41.41 47.92 37.44 50.76 32.19C52.54 33.67 53.42 34.91 54.73 34.68C56.04 34.45 57.1 30.77 58.46 29C63.58 35.77 61.75 46.83 68.93 51.33C69.97 50.18 71.46 47.63 73.42 47.81C75.2 47.97 81.58 59.46 88.03 66.63C88.87 67.56 88.13 68.79 86.89 68.94C85.65 69.09 75.36 70.53 64.68 71.27C47.95 72.43 37.68 69.94 29.73 70.11C20.34 70.31 16.15 70.62 12.87 70.5H12.86Z" stroke="black" stroke-width="2" stroke-linecap="round" stroke-linejoin="round"/>
<path d="M68.93 51.33C67.45 53.48 64.67 55.87 62.48 56.87" stroke="black" stroke-width="2" stroke-linecap="round" stroke-linejoin="round"/>
<path d="M30.1999 50.84C29.7199 52.78 27.7299 55.73 27.6099 57.21" stroke="black" stroke-width="2" stroke-linecap="round" stroke-linejoin="round"/>
<path d="M20.6701 60.96C19.4801 61.03 17.9201 63.09 18.4101 64.18C18.9001 65.27 20.0701 65.15 21.2701 65.14C22.4701 65.13 23.6001 64.65 24.7001 64.19C27.7901 62.88 32.1801 56.54 37.3601 57.19C38.7201 57.36 32.5501 62.19 32.4901 63.29C32.4001 65.06 34.0701 66.01 35.6701 65.41C37.2701 64.81 38.4801 62.81 40.1801 62.58C41.8801 62.35 41.5901 66.08 42.3101 66.73C43.0301 67.38 48.1801 60.25 49.7001 61.13C52.1401 62.55 49.5801 64.86 50.5701 65.32C51.5601 65.78 54.1701 64.41 55.2401 64.27C57.8301 63.94 61.0801 65.18 63.5401 64.33C65.8101 63.54 65.9401 61.16 68.0301 59.96C69.5101 59.11 70.4901 59.41 71.4801 58.02C73.5201 55.19 72.7601 51.29 71.9101 47.91C74.6301 47.35 88.4601 67.75 88.4601 67.75C82.1901 71.13 51.7301 71.63 51.7301 71.63C51.7301 71.63 35.4101 70.24 31.8201 70.04C28.2301 69.84 11.8101 69.94 11.8101 69.94C11.8101 69.94 14.7601 63.04 20.6401 60.95L20.6701 60.96Z" fill="black"/>
<path d="M50.6299 56.66C50.8799 55.58 57.8999 54.18 57.8199 51.72" stroke="black" stroke-width="2" stroke-linecap="round" stroke-linejoin="round"/>
<path d="M50.1202 34.99C50.0702 35.26 47.9502 37.86 47.7002 38.13C47.1802 38.68 46.7202 39.28 46.3302 39.93C45.5802 41.18 45.0702 42.57 44.8502 44.01C43.1902 54.82 45.9402 44.9 46.8802 42.29C47.5702 40.37 48.8802 38.01 50.1202 35V34.99Z" fill="black"/>
<path d="M44.48 48.52C44.88 49.84 45.96 51.2 47.15 51.77" stroke="black" stroke-width="2" stroke-linecap="round" stroke-linejoin="round"/>
<path d="M53.1802 34.24C55.1002 36.07 56.9002 40.38 56.5902 42.69" stroke="black" stroke-width="2" stroke-linecap="round" stroke-linejoin="round"/>
<path d="M56.63 41.7C58.65 38.23 59.32 34.01 58.47 30.09C57.73 31.07 56.99 32.06 56.24 33.04C55.63 33.85 54.43 34.81 54.88 35.79C55.81 37.81 56.76 39.35 56.63 41.7Z" fill="black"/>
</g>
<defs>
<clipPath id="clip0_65_20439">
<rect width="78.39" height="44.59" fill="white" transform="translate(11 28)"/>
</clipPath>
</defs>
</svg>
