<svg width="100" height="100" viewBox="0 0 100 100" fill="none" xmlns="http://www.w3.org/2000/svg">
<path d="M22.0675 19.7147C21.3808 20.9797 20.8932 61.2744 20.8428 81.7413C20.8407 82.546 43.1854 83.0642 44.7753 83.1011C45.5583 83.1192 45.259 67.8169 45.492 52.1953C45.7321 36.0937 46.4887 19.6579 46.2466 19.6523C46.0173 19.647 39.9718 19.6053 34.3529 19.3765C28.2862 19.1294 22.6032 18.7278 22.0675 19.7147Z" stroke="black" stroke-width="2" stroke-linecap="round"/>
<path d="M36.9103 64.1872L36.9253 60.5619C36.9264 60.3105 39.3951 60.5722 39.5898 60.573C39.7845 60.5738 39.6085 63.875 39.5747 64.1983C39.5477 64.4569 36.9092 64.4577 36.9103 64.1872Z" fill="black" stroke="black" stroke-width="2" stroke-linecap="round"/>
<path d="M27.0221 64.0105L27.0371 60.3852C27.0382 60.1338 29.5069 60.3954 29.7016 60.3962C29.8963 60.397 29.7203 63.6983 29.6866 64.0215C29.6595 64.2801 27.021 64.281 27.0221 64.0105Z" fill="black" stroke="black" stroke-width="2" stroke-linecap="round"/>
<path d="M37.1564 53.5613L37.1714 49.936C37.1725 49.6845 39.6411 49.9462 39.8359 49.947C40.0306 49.9478 39.8546 53.249 39.8208 53.5723C39.7938 53.8309 37.1553 53.8317 37.1564 53.5613Z" fill="black" stroke="black" stroke-width="2" stroke-linecap="round"/>
<path d="M27.2702 53.3318L27.2852 49.7065C27.2862 49.4551 29.7549 49.7167 29.9496 49.7175C30.1443 49.7183 29.9684 53.0195 29.9346 53.3428C29.9076 53.6014 27.269 53.6023 27.2702 53.3318Z" fill="black" stroke="black" stroke-width="2" stroke-linecap="round"/>
<path d="M37.2262 43.5666L37.2412 39.9413C37.2423 39.6899 39.711 39.9516 39.9057 39.9524C40.1004 39.9532 39.9244 43.2544 39.8907 43.5777C39.8636 43.8363 37.2251 43.8371 37.2262 43.5666Z" fill="black" stroke="black" stroke-width="2" stroke-linecap="round"/>
<path d="M27.341 43.2849L27.356 39.6596C27.357 39.4082 29.8257 39.6698 30.0204 39.6706C30.2151 39.6714 30.0392 42.9727 30.0054 43.2959C29.9784 43.5546 27.3398 43.5554 27.341 43.2849Z" fill="black" stroke="black" stroke-width="2" stroke-linecap="round"/>
<path d="M37.3053 33.1614L37.3203 29.5361C37.3214 29.2846 39.7901 29.5463 39.9848 29.5471C40.1795 29.5479 40.0036 32.8491 39.9698 33.1724C39.9427 33.431 37.3042 33.4318 37.3053 33.1614Z" fill="black" stroke="black" stroke-width="2" stroke-linecap="round"/>
<path d="M27.4186 32.9319L27.4336 29.3066C27.4347 29.0552 29.9034 29.3168 30.0981 29.3176C30.2928 29.3184 30.1168 32.6196 30.083 32.9429C30.056 33.2015 27.4175 33.2024 27.4186 32.9319Z" fill="black" stroke="black" stroke-width="2" stroke-linecap="round"/>
<path d="M46.4914 19.6581C52.8099 18.7852 70.4965 17.7552 71.3658 17.9501C72.4524 18.1938 71.1462 74.5207 70.0293 75.587C69.1358 76.44 51.3204 80.904 44.9724 83.0504" stroke="black" stroke-width="2" stroke-linecap="round"/>
<path d="M70.9043 66.659C71.3233 66.1127 72.7445 64.9426 73.6072 65.3733C74.4698 65.8039 74.7054 68.6201 74.9437 68.6124C75.182 68.6047 77.0927 68.3543 77.4269 69.4399C77.761 70.5256 75.9734 72.8806 76.2744 73.0179C76.5753 73.1552 78.2558 74.0917 78.3847 75.1727" stroke="black" stroke-width="2" stroke-linecap="round"/>
<path d="M22.3097 19.4175C25.9083 17.6193 45.6486 16.6766 46.349 16.6929C47.0494 16.7092 63.8112 17.3219 71.0179 17.9137" stroke="black" stroke-width="2" stroke-linecap="round"/>
<path d="M48.5635 57.4287C49.4242 56.9047 51.1753 56.0671 51.9302 55.0402C52.8738 53.7566 54.4121 52.1604 55.597 51.7309C56.782 51.3015 62.3269 52.6419 63.2206 53.5112C64.1143 54.3805 65.4121 54.6838 67.4018 54.8795" stroke="black" stroke-width="2" stroke-linecap="round"/>
<path d="M52.8612 53.6174C52.479 53.7225 51.9135 53.8689 51.0392 53.5751C49.9462 53.2079 48.8437 53.2584 48.2681 53.5109" stroke="black" stroke-width="2" stroke-linecap="round"/>
<path d="M62.9859 51.8029L63.0459 49.2148" stroke="black" stroke-width="2" stroke-linecap="round"/>
<path d="M63.0224 52.4726C63.4777 51.5971 65.7859 50.221 66.5183 50.3153C67.4338 50.4332 68.0281 49.3992 68.8593 48.9835" stroke="black" stroke-width="2" stroke-linecap="round"/>
<path d="M53.8805 52.4396L53.9902 47.7065" stroke="black" stroke-width="2" stroke-linecap="round"/>
<path d="M62.0504 47.9084C61.9868 47.7733 63.0159 46.7827 63.1659 46.6191C63.3159 46.4556 64.2421 47.3789 64.3566 47.4817C64.4711 47.5846 63.8056 48.137 63.4585 48.4003C63.7036 48.6356 64.2179 49.1402 64.315 49.276C64.412 49.4119 63.2792 49.5303 62.7007 49.5726C62.429 49.5871 61.8608 49.6032 61.7619 49.5508C61.6629 49.4984 62.4607 48.8225 62.8719 48.4911C62.6246 48.3531 62.1141 48.0435 62.0504 47.9084Z" stroke="black" stroke-width="2" stroke-linecap="round"/>
<path d="M52.5664 47.938C52.4925 47.7813 53.686 46.6325 53.86 46.4428C54.0339 46.2531 55.108 47.3239 55.2408 47.4432C55.3736 47.5625 54.6018 48.203 54.1993 48.5084C54.4835 48.7813 55.08 49.3665 55.1925 49.524C55.3051 49.6815 53.9914 49.8189 53.3205 49.8679C53.0054 49.8848 52.3465 49.9034 52.2317 49.8427C52.1169 49.7819 53.0421 48.998 53.519 48.6137C53.2323 48.4537 52.6403 48.0946 52.5664 47.938Z" stroke="black" stroke-width="2" stroke-linecap="round"/>
<path d="M61.7441 64.6548L66.7156 82.1262" stroke="black" stroke-width="2" stroke-linecap="round"/>
<path d="M65.1743 63.4717L70.1458 80.9431" stroke="black" stroke-width="2" stroke-linecap="round"/>
<path d="M66.1746 79.8237L68.8139 78.9269" stroke="black" stroke-width="2" stroke-linecap="round"/>
<path d="M57.3676 82.5437C57.18 82.319 57.3406 80.2417 57.4446 79.2225C57.4696 78.1425 60.7732 78.703 61.0445 78.8815C61.314 79.0587 60.9671 81.6619 60.8415 82.6047L60.8389 82.6242C60.8003 82.9138 57.6021 82.8247 57.3676 82.5437Z" stroke="black" stroke-width="2" stroke-linecap="round"/>
<path d="M57.918 78.8892C58.085 79.1527 58.4406 79.4532 59.3816 79.475C59.8682 79.4863 60.5474 79.3722 61.009 79.3017" stroke="black" stroke-width="2" stroke-linecap="round"/>
<path d="M64.5422 73.5191L67.1816 72.6222" stroke="black" stroke-width="2" stroke-linecap="round"/>
<path d="M63.7083 70.2422L66.3476 69.3454" stroke="black" stroke-width="2" stroke-linecap="round"/>
<path d="M62.7551 67.2827L65.3945 66.3859" stroke="black" stroke-width="2" stroke-linecap="round"/>
<path d="M71.4734 38.4916C70.8113 38.4762 68.8516 38.0337 68.3638 39.2592C67.7541 40.791 66.7447 40.5109 66.7293 41.173C66.714 41.8352 65.2651 43.3086 66.4581 43.2921C67.651 43.2756 68.9974 42.4099 69.6155 42.4242C70.1099 42.4357 71.0035 42.2503 71.3884 42.1562" stroke="black" stroke-width="2" stroke-linecap="round"/>
<path d="M52.4604 38.3139C51.5935 38.2938 50.6758 39.8163 49.238 40.8129C47.8003 41.8095 51.8795 43.3635 54.2401 42.7663C56.6006 42.1692 60.242 41.0985 60.8909 40.3907C61.5398 39.683 58.3874 39.2484 57.8581 38.694C57.4347 38.2504 56.1025 38.8955 55.4074 39.1793C54.7122 39.4631 53.3273 38.3341 52.4604 38.3139Z" stroke="black" stroke-width="2" stroke-linecap="round"/>
<path d="M66.9207 29.34C65.5733 29.6695 64.75 31.2864 65.5205 32.7857C65.9914 33.3119 66.9247 34.1709 67.9002 34.3224C69.1196 34.5117 70.7364 32.8423 70.898 31.429C71.0596 30.0157 68.605 28.9282 66.9207 29.34Z" fill="black" stroke="black" stroke-width="2" stroke-linecap="round"/>
<path d="M26.1056 72.6694C25.3695 72.6523 25.6159 76.0488 25.4765 82.0589L40.02 82.8143C40.1138 79.9713 40.0349 73.9911 39.9835 73.3204C39.9321 72.6498 27.0256 72.6907 26.1056 72.6694Z" fill="black" stroke="black" stroke-width="2" stroke-linecap="round"/>
</svg>
