<svg width="100" height="100" viewBox="0 0 100 100" fill="none" xmlns="http://www.w3.org/2000/svg">
<path d="M32.6738 64.502C32.6738 69.8109 32.6738 80.6004 32.6738 81.2868C32.6738 82.1449 35.8406 82.413 35.8406 80.9651C35.8406 79.8068 35.8406 69.507 35.8406 64.502" stroke="black" stroke-width="2"/>
<path d="M35.3152 68.3841C34.7547 68.7746 33.6561 68.6988 33.1016 68.3841L33.4288 65.7441L35.0767 65.8577L35.3152 68.3841Z" fill="black" stroke="black" stroke-width="2"/>
<path d="M31.5024 60.091C29.5483 62.6706 32.4307 65.5136 34.678 65.2695C36.9253 65.0253 37.6603 63.2595 37.6603 61.5874C37.6603 59.4708 33.9451 56.8666 31.5024 60.091Z" stroke="black" stroke-width="2"/>
<path d="M64.2949 64.502C64.2949 69.8019 64.2949 80.573 64.2949 81.2583C64.2949 82.1149 67.4617 82.3825 67.4617 80.9371C67.4617 79.7808 67.4617 69.4985 67.4617 64.502" stroke="black" stroke-width="2"/>
<path d="M66.9363 68.3841C66.3758 68.7746 65.2772 68.6988 64.7227 68.3841L65.0499 65.7441L66.6978 65.8577L66.9363 68.3841Z" fill="black" stroke="black" stroke-width="2"/>
<path d="M63.123 60.091C61.1689 62.6706 64.0513 65.5136 66.2986 65.2695C68.5459 65.0253 69.2809 63.2595 69.2809 61.5874C69.2809 59.4708 65.5658 56.8666 63.123 60.091Z" stroke="black" stroke-width="2"/>
<path d="M63.6949 79.8525C61.2226 80.0699 56.3684 80.9233 57.596 81.967C59.1305 83.2715 61.4948 83.7459 67.6255 83.5561C73.7563 83.3664 76.1074 80.5675 67.6255 79.8525" stroke="black" stroke-width="2"/>
<path d="M58.6788 81.2126L63.7449 80.0293L64.5211 81.7506H67.1768L68.0756 80.2086L72.8149 81.2126L73.7137 82.0016L71.7526 83.3285L68.0756 84.1174L60.7624 83.5437L57.9434 82.3961L58.6788 81.2126Z" fill="black"/>
<path d="M32.4546 79.8525C29.9824 80.0699 25.1282 80.9233 26.3558 81.967C27.8903 83.2715 30.2545 83.7459 36.3853 83.5561C42.5161 83.3664 44.8672 80.5675 36.3853 79.8525" stroke="black" stroke-width="2"/>
<path d="M27.127 81.2126L32.1932 80.0293L32.9694 81.7506H35.625L36.5238 80.2086L41.2631 81.2126L42.162 82.0016L40.2009 83.3285L36.5238 84.1174L29.2106 83.5437L26.3916 82.3961L27.127 81.2126Z" fill="black"/>
<path d="M32.466 65.6182C31.7213 67.3282 28.8904 72.0034 18.1382 70.0776" stroke="black" stroke-width="2" stroke-linecap="round"/>
<path d="M67.2461 65.4053C68.6765 67.238 73.2134 71.5068 81.8628 70.0987" stroke="black" stroke-width="2" stroke-linecap="round"/>
<path d="M35.9766 65.3506C37.5547 67.4967 43.3074 72.2593 50.7306 71.8049C58.1538 71.3505 62.6775 67.118 64.3818 65.3506" stroke="black" stroke-width="2"/>
<path d="M68.1651 59.247C68.1651 58.3869 69.3962 19.644 67.7834 19.644C66.4932 19.644 42.7491 19.644 32.0685 19.644C31.1008 19.644 31.5693 59.1131 32.6445 59.1131M35.7455 58.8895C42.7983 59.0313 56.9589 59.2054 64.1483 59.0056" stroke="black" stroke-width="2"/>
<path d="M30.7371 61.949C29.72 61.7233 29.0383 61.4472 28.8625 61.1103C27.9723 59.4041 27.6756 17.1925 28.4916 16.3765C29.1443 15.7237 32.3169 15.9313 36.3553 15.9314C47.8788 15.9314 71.0592 15.6643 71.5934 16.3765C72.261 17.2667 72.3352 61.1103 71.5934 62.1489C71.4492 62.3507 70.6582 62.4993 69.4428 62.6083M37.7426 62.7003C41.7498 62.9109 46.0704 62.9262 48.2992 62.8908C50.8245 62.8507 57.2052 62.9406 62.6546 62.8678" stroke="black" stroke-width="2"/>
<path d="M60.5535 42.5611C59.9387 42.2751 58.4946 41.0941 57.6367 38.6577C56.5643 35.6121 56.307 28.4058 55.3633 26.5185C54.4196 24.6311 50.5161 23.0441 47.7279 23.7733C45.4974 24.3566 44.9684 26.1038 44.9827 26.9045" stroke="black" stroke-width="2"/>
<path d="M44.7129 27.2515C44.7129 30.2832 44.9524 33.8021 46.1673 35.9891C46.6781 36.9087 48.493 37.7749 50.2299 37.3662C51.6194 37.0393 52.7312 36.2956 53.0037 35.9891" stroke="black" stroke-width="2" stroke-linecap="round"/>
<path d="M44.6396 27.4619C45.8693 26.6469 48.8433 25.3258 50.9022 26.5611C53.4759 28.1053 53.2185 35.8692 53.2613 37.4134C53.2957 38.6488 53.5044 43.3043 53.6045 45.4776" stroke="black" stroke-width="2"/>
<path d="M45.0088 26.5249C43.6915 28.9641 43.3312 30.6142 43.2931 31.9106C43.2454 33.531 44.0482 37.8609 44.2865 38.7188C44.4772 39.4051 44.2747 42.5083 44.0682 43.5251" stroke="black" stroke-width="2"/>
<path d="M48.239 37.3989C48.6782 38.5107 48.8327 40.1041 48.5276 40.638C48.1464 41.3053 44.7148 42.4839 44.0475 43.5324C43.3803 44.581 43.7615 44.724 44.0475 45.0099C44.3336 45.2959 47.0501 47.2976 50.72 47.107" stroke="black" stroke-width="2"/>
<path d="M60.6804 42.6748C58.1385 43.4056 52.6066 45.3819 50.8146 47.4409C48.5746 50.0146 47.7863 51.9028 47.1851 53.4059C46.9848 53.9065 46.119 55.6665 46.0078 56.588" stroke="black" stroke-width="2" stroke-linecap="round"/>
<path d="M43.6895 44.543C44.567 45.2854 46.727 46.821 48.347 47.0236C49.967 47.2261 50.8782 47.108 51.1314 47.0236" stroke="black" stroke-width="2"/>
<path d="M43.8222 43.6021C43.085 43.6676 40.948 45.0725 39.7515 46.8071C37.8718 49.532 37.7485 50.5936 37.7649 51.5928" stroke="black" stroke-width="2" stroke-linecap="round"/>
<path d="M41.2686 48.6147C40.9401 49.5797 40.4064 51.633 42.1311 54.7128" stroke="black" stroke-width="2" stroke-linecap="round"/>
<path d="M37.9922 51.5952C38.6121 51.6221 40.6711 52.1359 41.3827 53.1062" stroke="black" stroke-width="2" stroke-linecap="round"/>
<path d="M60.1514 42.2266C62.7882 43.1883 64.7388 47.6512 65.4066 53.1272" stroke="black" stroke-width="2" stroke-linecap="round"/>
<path d="M62.4998 45.1978C60.5809 45.5422 56.1673 46.7772 53.8645 48.9619C50.986 51.6928 50.0984 53.9759 49.877 54.8616" stroke="black" stroke-width="2" stroke-linecap="round"/>
<path d="M45.3369 30.8857H46.5477" stroke="black" stroke-width="2" stroke-linecap="round"/>
<path d="M50.4418 30.6628C50.1304 30.6407 49.4711 30.8361 49.2301 31.0754C48.989 31.3146 48.9217 32.2484 48.6143 33.416" stroke="black" stroke-width="2" stroke-linecap="round"/>
<path d="M43.6104 35.5241L43.9411 32.5171L44.9335 33.0283L46.1063 36.3661L48.542 37.8095V40.185L47.5196 41.448L44.5426 42.8913V39.1927L43.6104 35.5241Z" fill="black"/>
<path d="M47.0254 23.8496L45.3301 25.7814L47.3408 26.4122L49.864 26.1362L51.7564 27.6738L53.2151 32.2865L53.6094 41.0389V45.0209L57.9856 43.641L60.0357 42.3006L57.9856 39.1465L56.724 33.9424L55.8961 27.6738L54.3585 25.2688L50.14 23.5342L47.0254 23.8496Z" fill="black"/>
<path d="M37.8265 51.7168C36.834 52.182 35.613 53.1287 34.626 54.6226" stroke="black" stroke-width="2" stroke-linecap="round"/>
</svg>
