<svg width="100" height="100" viewBox="0 0 100 100" fill="none" xmlns="http://www.w3.org/2000/svg">
<path d="M37.3047 40.7374C37.3396 42.7988 37.8182 47.1941 39.4534 48.2842C41.4974 49.6468 47.0527 49.7516 49.6731 47.236C52.2935 44.7204 54.4447 38.9998 54.1474 36.792" stroke="black" stroke-width="2" stroke-linecap="round"/>
<path d="M52.8286 22.1926C51.8786 21.8426 51.0726 22.4144 50.7884 22.9827C50.4333 23.693 48.4785 24.6559 47.0196 25.0398C46.176 25.2618 45.9492 27.4223 45.4164 27.1116C44.8837 26.8008 43.2853 24.3589 42.131 25.5133C41.2075 26.4367 40.0144 30.1539 42.7338 29.728" stroke="black" stroke-width="2" stroke-linecap="round"/>
<path d="M53.5856 22.5274C53.9705 22.3795 55.4308 21.2531 53.5856 19.9636C52.2495 19.0299 49.1903 16.4562 45.9937 16.4118C42.7972 16.3674 40.8437 18.454 39.9113 19.6971C38.979 20.9402 36.5411 23.904 37.6073 28.8249C38.7946 34.3042 34.7368 33.9918 36.295 40.553" stroke="black" stroke-width="2" stroke-linecap="round"/>
<path d="M51.3867 35.1475C52.1456 35.7049 54.2858 36.8943 56.776 37.1916C59.8887 37.5633 67.7403 40.8155 68.9482 41.7911C70.1562 42.7668 71.9228 44.2051 70.9078 47.2828C70.3078 49.1019 68.9482 51.2223 67.1828 50.7577C65.4174 50.2931 62.7227 48.2954 62.3511 48.7135C61.9794 49.1316 60.9108 55.4965 60.0281 56.6115C59.3219 57.5036 58.1543 59.3681 57.6587 60.1889" stroke="black" stroke-width="2" stroke-linecap="round"/>
<path d="M53.1604 30.6396C53.1604 32.0425 52.6736 32.5582 52.5306 32.9587C52.3517 33.4592 51.859 35.6474 49.4671 34.8769C47.0753 34.1064 47.9409 34.392 46.9648 33.9741" stroke="black" stroke-width="2" stroke-linecap="round"/>
<path d="M41.8259 29.8496C42.4472 30.891 43.5033 33.478 42.7578 35.4951C41.8259 38.0164 36.3997 40.9213 35.1938 41.5243C33.988 42.1272 29.3291 48.3756 28.8358 49.2526C28.3425 50.1296 31.9052 54.0759 32.5629 54.35C33.0891 54.5692 34.2072 53.6375 34.7005 53.1442" stroke="black" stroke-width="2" stroke-linecap="round"/>
<path d="M35.0742 53.752C36.2438 55.0128 38.6267 57.7649 38.8021 58.6859C38.9775 59.6069 39.8985 60.4584 40.3371 60.7691" stroke="black" stroke-width="2" stroke-linecap="round"/>
<path d="M39.8443 62.4873C39.1327 64.5789 37.6319 69.0596 37.3214 70.2499C37.011 71.4402 36.3296 74.7998 36.0277 76.3308C35.8336 77.4089 35.5619 79.5523 36.0277 79.5005C36.6099 79.4358 65.1378 80.0827 65.3966 79.5005C65.6553 78.9183 65.3966 72.8978 65.0731 72.0613C64.7497 71.2247 63.8656 69.9697 63.2618 69.0856C62.5934 67.5115 61.1789 64.2468 60.8683 63.7811C60.5578 63.3153 58.5395 61.3876 57.5692 60.4819" stroke="black" stroke-width="2" stroke-linecap="round"/>
<path d="M36.1442 79.4833C36.1442 79.4833 31.4221 79.3074 31.101 79.8052C30.7799 80.303 29.0664 83.27 29.5678 83.458C30.1946 83.6931 70.2237 83.5386 70.5372 83.5386C70.8506 83.5386 69.4891 79.5993 68.7055 79.5993C68.0787 79.5993 66.9205 79.5994 65.1707 79.5994" stroke="black" stroke-width="2" stroke-linecap="round"/>
<path d="M40.0938 61.6409C42.8965 60.8307 48.9135 59.6388 50.6476 59.5337C52.3818 59.4287 56.0246 59.6202 57.5792 59.9487" stroke="black" stroke-width="2" stroke-linecap="round"/>
<path d="M47.286 60.2305C46.623 60.8781 45.2968 62.3768 45.2969 63.1909" stroke="black" stroke-width="2" stroke-linecap="round"/>
<path d="M43.9209 58.6016C44.1901 59.0503 44.9636 60.2215 46.6151 60.1138" stroke="black" stroke-width="2" stroke-linecap="round"/>
<path d="M52.872 57.5459C52.6357 58.0521 51.9809 59.1253 51.252 59.3683" stroke="black" stroke-width="2" stroke-linecap="round"/>
<path d="M39.0635 50.9316C39.7939 51.4398 42.0168 52.475 45.0652 52.5512" stroke="black" stroke-width="2" stroke-linecap="round"/>
<path d="M49.415 51.473C49.784 51.3993 50.5882 51.1633 50.8538 50.8091" stroke="black" stroke-width="2" stroke-linecap="round"/>
<path d="M70.9957 44.5071C70.4862 43.4417 69.5629 41.779 68.1899 43.9431C67.0693 45.7096 65.6741 50.7706 67.545 50.691" stroke="black" stroke-width="2" stroke-linecap="round"/>
<path d="M34.4742 42.4146C34.4393 45.5241 34.4951 52.0157 34.9983 53.1058" stroke="black" stroke-width="2" stroke-linecap="round"/>
<path d="M34.7666 52.7393C35.842 54.8602 38.4934 57.1457 39.0086 58.0572C39.6526 59.1965 40.0984 60.5835 39.7517 61.8219C39.4049 63.0603 39.5039 65.7352 39.0086 67.2212C38.5133 68.7073 37.0273 75.9394 37.0273 78.7629" stroke="black" stroke-width="2"/>
<path d="M43.043 40.9502C43.792 41.4496 45.5815 42.2736 46.7467 41.5744" stroke="black" stroke-width="2" stroke-linecap="round"/>
<path d="M37.9965 40.1582C37.947 42.8996 36.9253 48.7268 43.3862 49.2278" stroke="black" stroke-width="2"/>
<path d="M57.2885 37.5142C56.312 40.4013 56.6415 45.4091 57.0339 47.1641C57.7974 50.5783 60.2029 51.8049 61.1516 52.0238" stroke="black" stroke-width="2" stroke-linecap="round"/>
<path d="M52.9083 22.1494C53.828 23.1785 53.6691 24.8479 53.8908 26.2619C54.2911 28.8161 54.3882 27.9817 54.6835 29.2273C54.8705 30.0161 53.8908 30.2279 52.5801 30.2279" stroke="black" stroke-width="2" stroke-linecap="round"/>
<path d="M50.1478 23.4936L47.9354 24.7441L46.5889 25.5616L45.6269 27.0044L43.3663 25.5616H42.2122L41.0579 28.5435L42.2122 30.2268L42.9336 33.0164L42.5969 36.2388L40.0479 38.6435L36.633 40.4231L36.2002 39.365L36.633 34.4111L37.9797 30.2268L37.2582 27.0044L37.691 22.9163L40.5287 19.0206L43.3663 16.5195H46.252L50.6287 18.059L54.3801 20.9447L54.0916 22.1468H51.5906L50.1478 23.4936Z" fill="black"/>
</svg>
