<svg width="100" height="100" viewBox="0 0 100 100" fill="none" xmlns="http://www.w3.org/2000/svg">
<path d="M45.1527 40.9578C45.1527 40.9578 40.7517 58.9898 40.6527 65.2568C40.5997 68.6328 40.5057 83.0358 49.8517 82.7138C61.5887 82.3098 56.8737 70.1968 56.1387 65.4828C54.9677 57.9678 55.4687 40.8838 55.4687 40.8838" stroke="black" stroke-width="2" stroke-miterlimit="10" stroke-linecap="round" stroke-linejoin="round"/>
<path d="M42.3468 51.7355C42.3468 51.7355 34.3978 52.1585 26.9638 48.6315C21.5928 46.0835 29.7778 41.2775 36.0048 40.7755C42.2318 40.2735 58.9018 40.1025 66.2108 42.2785C74.4328 44.7265 76.3488 50.5675 69.6638 51.4505C62.9798 52.3345 55.6708 52.2675 55.6708 52.2675" stroke="black" stroke-width="2" stroke-miterlimit="10" stroke-linecap="round" stroke-linejoin="round"/>
<path d="M31.9478 50.4665C23.7518 48.6185 17.9368 43.0165 25.5408 31.0405C33.1438 19.0645 42.1408 16.5945 51.3358 17.0505C60.5308 17.5055 71.0868 24.2675 75.4188 30.1075C81.1618 37.8495 79.6078 49.8325 70.0438 51.3975" stroke="black" stroke-width="2" stroke-miterlimit="10" stroke-linecap="round" stroke-linejoin="round"/>
<path d="M43.4856 40.6934C41.8456 44.2534 32.9346 44.8743 32.9346 44.8743" stroke="black" stroke-width="2" stroke-miterlimit="10" stroke-linecap="round" stroke-linejoin="round"/>
<path d="M43.8989 41.6152C42.4999 44.6532 42.9579 44.8792 40.1539 46.7922C39.9759 46.9132 37.8179 48.4782 37.8179 48.4782" stroke="black" stroke-width="2" stroke-miterlimit="10" stroke-linecap="round" stroke-linejoin="round"/>
<path d="M55.9668 41.2744C56.8098 43.5574 57.2428 46.7454 58.7678 48.6494" stroke="black" stroke-width="2" stroke-miterlimit="10" stroke-linecap="round" stroke-linejoin="round"/>
<path d="M57.6509 41.2012C57.6589 41.4482 59.2889 43.1902 59.6049 43.5092C62.4039 46.3372 62.8319 46.7371 66.9279 46.6061" stroke="black" stroke-width="2" stroke-miterlimit="10" stroke-linecap="round" stroke-linejoin="round"/>
<path d="M24.5556 45.1723C24.5556 45.1723 20.5456 37.4883 27.7006 29.3433C34.8546 21.1983 41.2636 17.4373 49.6266 18.1873C57.9896 18.9373 65.7806 22.6303 70.5136 26.7123C75.2466 30.7933 78.1706 35.6723 77.6096 40.2763C77.0486 44.8793 74.5956 48.0173 74.5956 48.0173C74.5956 48.0173 75.3666 42.2723 60.0416 40.5183C44.7176 38.7653 33.9676 40.2183 33.9676 40.2183C33.9676 40.2183 31.1466 41.1323 28.7936 42.3713C26.4406 43.6093 24.5556 45.1723 24.5556 45.1723Z" stroke="black" stroke-width="2" stroke-miterlimit="10" stroke-linejoin="round"/>
<path fill-rule="evenodd" clip-rule="evenodd" d="M24.5556 45.1728C24.5556 45.1728 20.5456 37.4888 27.7006 29.3438C34.8546 21.1988 41.2636 17.4378 49.6266 18.1878C57.9896 18.9378 65.7806 22.6308 70.5136 26.7128C75.2466 30.7938 78.1706 35.6728 77.6096 40.2768C77.0486 44.8798 74.5956 48.0178 74.5956 48.0178C74.5956 48.0178 75.3666 42.2728 60.0416 40.5188C44.7176 38.7658 33.9676 40.2188 33.9676 40.2188C33.9676 40.2188 31.1466 41.1328 28.7936 42.3718C26.4406 43.6098 24.5556 45.1728 24.5556 45.1728ZM42.7967 22.0297C42.9316 22.5653 42.6068 23.1088 42.0712 23.2436C36.3409 24.6868 32.6645 28.7897 30.0009 32.7983C29.6952 33.2583 29.0745 33.3834 28.6145 33.0778C28.1545 32.7721 28.0294 32.1514 28.3351 31.6914C31.0975 27.5341 35.1312 22.929 41.5828 21.3042C42.1184 21.1693 42.6619 21.4941 42.7967 22.0297ZM50.1759 21.3389C50.7258 21.2876 51.13 20.8002 51.0787 20.2503C51.0274 19.7004 50.54 19.2963 49.9901 19.3476L49.8647 19.3592C49.4024 19.402 48.8094 19.457 48.216 19.5489C47.5774 19.6479 46.8646 19.7999 46.2648 20.0641C45.7594 20.2867 45.5302 20.8769 45.7528 21.3824C45.9755 21.8878 46.5657 22.117 47.0711 21.8944C47.4293 21.7366 47.9366 21.6161 48.5223 21.5253C49.0518 21.4433 49.5855 21.3937 50.0548 21.3502L50.1759 21.3389Z" fill="black"/>
</svg>
