<svg width="100" height="100" viewBox="0 0 100 100" fill="none" xmlns="http://www.w3.org/2000/svg">
<path d="M58.5138 53.2766L58.6533 61.0316C58.6725 62.0995 58.4495 63.1566 57.9752 64.1135C57.2014 65.6745 55.8979 68.2046 54.6029 70.2669C51.3667 75.4208 46.0439 84.5451 46.0439 84.5451C45.5499 85.4009 38.6367 84.608 32.6823 81.1703C26.728 77.7325 24.0764 73.0031 24.5705 72.1474C24.5705 72.1474 27.1247 67.1427 28.8739 63.9969C31.8466 58.6508 36.9427 50.6733 37.1989 50.2726C37.2071 50.2597 37.2119 50.2516 37.2198 50.2385C38.1236 48.7478 45.1855 45.5814 45.1855 45.5814" stroke="black" stroke-width="2" stroke-linecap="round"/>
<path d="M26.8389 67.8027C26.3448 68.6585 28.85 73.109 34.8044 76.5468M48.4572 80.3959C48.2662 80.7267 47.2176 80.824 45.6591 80.6204C44.1081 80.4178 42.0521 79.9171 39.8336 79.0519" stroke="black" stroke-width="2" stroke-linecap="round"/>
<path d="M37.3828 50.2212C36.8888 51.0769 39.394 55.5275 45.3483 58.9652C46.7104 59.7516 48.0872 60.3951 49.4064 60.9097M58.0301 62.2537C57.8391 62.5845 56.7905 62.6819 55.232 62.4783" stroke="black" stroke-width="2" stroke-linecap="round"/>
<path d="M43.2314 71.1487C42.4562 72.4914 40.8592 73.4739 38.8047 72.2878C36.7503 71.1017 36.8027 69.2273 37.5779 67.8846C39.3819 64.76 43.7229 63.3923 43.8912 63.4778C44.0595 63.5632 45.2511 67.6504 43.2314 71.1487Z" stroke="black" stroke-width="2" stroke-linecap="round"/>
<path d="M60.4188 52.5869L61.0385 51.5135C54.1143 49.3278 50.9132 48.0062 45.6787 42.6455L45.059 43.719C43.2106 46.9248 58.8596 55.2875 60.4188 52.5869Z" fill="black" stroke="black" stroke-width="2"/>
<path d="M59.0498 45.1463C62.8688 47.6269 65.7042 50.1644 64.9894 51.4025C62.9198 54.9872 42.044 42.0374 43.7251 39.1256C44.3407 38.0593 48.2059 39.3269 52.484 41.4292" stroke="black" stroke-width="2"/>
<path d="M60.7802 28.9744L52.1556 42.1516C51.9795 42.4566 53.2803 43.5373 55.0612 44.5655C56.842 45.5936 58.4284 46.1799 58.6045 45.8749L65.5728 31.7079C66.215 30.4021 65.7348 28.822 64.4746 28.0944C63.2047 27.3612 61.5832 27.7474 60.7802 28.9744Z" stroke="black" stroke-width="2"/>
<circle cx="66.5515" cy="19.7225" r="1.74768" transform="rotate(-16.0558 66.5515 19.7225)" fill="black"/>
<circle cx="74.3474" cy="18.5165" r="1.74768" transform="rotate(-16.0558 74.3474 18.5165)" fill="black"/>
<circle cx="82.3025" cy="12.7003" r="1.06744" transform="rotate(-16.0558 82.3025 12.7003)" fill="black"/>
<circle cx="71.657" cy="12.3668" r="1.06744" transform="rotate(-16.0558 71.657 12.3668)" fill="black"/>
<circle cx="71.3045" cy="5.77573" r="1.74768" transform="rotate(-16.0558 71.3045 5.77573)" fill="black"/>
<circle cx="78.5749" cy="2.76867" r="1.06744" transform="rotate(-16.0558 78.5749 2.76867)" fill="black"/>
</svg>
