<svg width="100" height="100" viewBox="0 0 100 100" fill="none" xmlns="http://www.w3.org/2000/svg">
<path d="M30.8538 74.8776C23.2489 74.6007 21.9729 70.9253 22.2429 69.9712C24.9545 73.0232 37.3476 72.9453 50.9925 72.6475C59.2797 72.4666 68.1681 72.8659 75.2285 71.9323C77.3148 71.7608 79.8605 62.2072 79.7947 65.0686C78.2067 72.6925 78.3097 74.878 75.2285 74.878C73.6807 74.878 65.1366 75.8704 55.6853 75.9177C46.3228 75.9647 36.07 75.0675 30.8538 74.8776Z" fill="black"/>
<path d="M22.2102 29.9001V29.9007V66.3086C22.2102 72.3188 24.8345 72.3766 26.7475 72.3766H73.0251C77.3807 72.3766 77.2597 69.5623 77.2597 67.7533V29.9007C77.2597 24.3528 74.4367 22.9658 73.0251 22.9658H28.562C22.2107 22.9658 22.2105 26.4328 22.2102 29.9001Z" stroke="black" stroke-width="2"/>
<path d="M30.075 62.2636L69.6983 61.9746" stroke="black" stroke-width="2" stroke-linecap="round"/>
<path d="M30.075 52.7274L69.6983 52.4385" stroke="black" stroke-width="2" stroke-linecap="round"/>
<path d="M56.3889 42.9033H69.6975" stroke="black" stroke-width="2" stroke-linecap="round"/>
<path d="M56.3889 33.3682H69.6975" stroke="black" stroke-width="2" stroke-linecap="round"/>
<path d="M77.2605 31.3457C78.4704 31.6347 87.8469 30.4788 86.9395 34.8131C86.2785 37.9703 80.386 58.6035 77.8654 68.6205" stroke="black" stroke-width="2"/>
<rect x="29" y="31.001" width="21" height="13" rx="3" fill="black"/>
</svg>
