<svg width="100" height="100" viewBox="0 0 100 100" fill="none" xmlns="http://www.w3.org/2000/svg">
<path d="M18.5382 69.6249C17.8562 69.6079 17.5362 74.599 19.3622 74.792C21.1892 74.985 80.6282 75.618 81.5092 74.469C82.3912 73.32 82.6272 69.4549 80.5182 69.4609C78.4102 69.4669 30.0752 69.9269 18.5382 69.6249Z" stroke="black" stroke-width="2" stroke-miterlimit="10" stroke-linejoin="round"/>
<path d="M23.5203 69.6111C23.5203 69.6111 23.2803 32.957 23.2803 30.733C23.2803 28.509 25.6143 25.0023 30.7603 25.0659C35.9073 25.1294 70.6253 24.3496 74.5483 26.873C76.2733 27.982 77.6303 29.5521 77.6943 33.7451C77.7573 37.9391 77.6622 69.362 77.6622 69.362L73.7123 69.403C73.7123 69.403 73.5343 37.388 73.6613 35.291C73.7883 33.194 73.2973 30.1131 69.6613 29.8381C67.1893 29.6511 35.5193 29.2381 32.9773 29.3021C30.4363 29.3661 28.0063 30.2801 27.9433 33.6481C27.8793 37.0151 28.0713 69.551 28.0713 69.551L23.5203 69.6111Z" stroke="black" stroke-width="2" stroke-miterlimit="10" stroke-linejoin="round"/>
<path d="M39.7485 29.1709L32.1475 50.0569" stroke="black" stroke-width="2" stroke-miterlimit="10" stroke-linejoin="round"/>
<path d="M26.1573 53.8698C26.4263 47.3778 35.5423 49.4938 34.9923 54.2408C34.3403 59.8778 25.9063 59.9158 26.1573 53.8698Z" fill="black" stroke="black" stroke-width="2" stroke-miterlimit="10" stroke-linejoin="round"/>
<path d="M49.4395 29.4697L49.9304 51.2357" stroke="black" stroke-width="2" stroke-miterlimit="10" stroke-linejoin="round"/>
<path d="M45.6203 55.6361C44.6763 49.2081 53.8553 49.8341 54.2913 54.5931C54.8653 60.8561 46.4983 61.6241 45.6203 55.6361Z" fill="black" stroke="black" stroke-width="2" stroke-miterlimit="10" stroke-linejoin="round"/>
<path d="M59.7421 51.7012C64.6251 47.4142 69.778 54.4872 65.563 58.1752C61.138 62.0462 55.1941 55.6932 59.7421 51.7012Z" fill="black" stroke="black" stroke-width="2" stroke-miterlimit="10" stroke-linejoin="round"/>
<path d="M62.0801 29.4258L62.6101 50.3348" stroke="black" stroke-width="2" stroke-miterlimit="10" stroke-linejoin="round"/>
</svg>
