<svg width="100" height="100" viewBox="0 0 100 100" fill="none" xmlns="http://www.w3.org/2000/svg">
<path d="M34.0071 48.5352C26.9171 55.2752 18.4992 61.9122 18.0512 61.0202C17.2292 59.3802 26.5131 50.2072 31.5671 45.2842" stroke="black" stroke-width="2" stroke-miterlimit="10" stroke-linecap="round" stroke-linejoin="round"/>
<path d="M32.6062 61.1572C30.2222 61.8112 24.2322 62.8371 24.2212 61.9761C24.2022 60.3191 30.5933 57.9131 33.8083 56.8271" stroke="black" stroke-width="2" stroke-miterlimit="10" stroke-linecap="round" stroke-linejoin="round"/>
<path d="M38.1401 38.9318C40.4081 36.7638 38.0451 38.9748 40.4161 36.7578C47.5411 30.0978 54.6512 23.5748 58.8422 19.3698C60.2482 17.9588 63.5142 20.9168 61.8052 22.6798C57.5642 27.0518 49.9302 34.2888 42.2122 41.3088C40.0592 43.2668 42.9312 40.6548 40.8362 42.5128" stroke="black" stroke-width="2" stroke-miterlimit="10" stroke-linecap="round" stroke-linejoin="round"/>
<path d="M41.1743 54.4853C53.7743 50.3493 70.9413 45.2072 79.1223 42.3652C81.0033 41.7122 82.6443 45.8012 80.3383 46.6382C74.6123 48.7152 64.5823 51.8832 54.5703 54.8202C50.0733 56.1392 44.0233 58.3203 39.9253 59.4263" stroke="black" stroke-width="2" stroke-miterlimit="10" stroke-linecap="round" stroke-linejoin="round"/>
<path d="M31.8171 44.8469C33.6291 46.7979 35.4522 48.6589 35.0092 52.9149C34.5652 57.1709 30.2911 62.1739 34.3691 67.4929C38.4481 72.8129 38.2002 78.0059 38.1122 80.6659C38.0232 83.3249 42.7222 76.1439 38.8212 69.0509C34.9202 61.9579 35.0281 62.4639 37.6681 53.6239C39.4021 47.8209 35.6202 43.3409 34.5132 41.8719C33.2192 40.1529 30.1111 43.0099 31.8171 44.8469Z" stroke="black" stroke-width="2" stroke-miterlimit="10" stroke-linecap="round" stroke-linejoin="round"/>
<path d="M34.0771 41.1009C35.3261 35.8499 38.3792 39.2249 38.3792 39.2249C38.3792 39.2249 42.9522 43.2699 41.9332 49.6589C40.9152 56.0489 38.4131 60.2549 40.6351 65.4409C42.8581 70.6269 43.7011 72.4359 43.3301 76.6029C42.9601 80.7699 39.7601 71.1509 39.7601 71.1509" stroke="black" stroke-width="2" stroke-miterlimit="10" stroke-linecap="round" stroke-linejoin="round"/>
<path d="M43.2601 58.7578C42.0811 61.4098 42.9152 64.9119 43.9142 66.7849C45.1122 69.0309 42.9332 69.9188 42.9332 69.9188" stroke="black" stroke-width="2" stroke-miterlimit="10" stroke-linecap="round" stroke-linejoin="round"/>
<path d="M43.9592 39.9739C43.9592 39.9739 46.4872 44.8619 45.0632 50.1139C44.7632 51.2199 44.3702 52.3219 44.1282 53.3119" stroke="black" stroke-width="2" stroke-miterlimit="10" stroke-linecap="round" stroke-linejoin="round"/>
</svg>
