<svg width="100" height="100" viewBox="0 0 100 100" fill="none" xmlns="http://www.w3.org/2000/svg">
<path d="M22.1929 77.1934C24.29 77.6621 28.8035 78.459 30.0806 77.8965C31.6769 77.1934 72.785 77.1934 75.4457 77.1934" stroke="black" stroke-width="2" stroke-miterlimit="10" stroke-linecap="round"/>
<path d="M28.3201 86.5776C28.3201 86.5776 28.5876 72.48 28.5876 67.5168L24.6828 67.5168C23.1851 67.5168 22.2757 65.9856 23.1851 64.8768L29.8178 56.9568C30.8877 55.7424 32.7598 55.6368 33.9366 56.6928C34.0436 56.7984 34.1506 56.8512 34.204 56.9568L40.8368 64.8768C41.7462 65.9856 40.8903 67.5168 39.3391 67.5168L35.1134 67.5696C35.1134 67.5696 35.7018 80.7168 35.0064 87L28.3201 86.5776Z" fill="black"/>
<path d="M30.4552 86.3962C29.385 86.3306 28.5568 85.4379 28.5767 84.3659C28.6515 80.341 28.816 71.0528 28.816 67.218L24.7377 67.218C23.1945 67.218 22.2576 65.6868 23.1945 64.578L30.0285 56.6579C31.1308 55.4435 33.0597 55.3379 34.3273 56.3939C34.4375 56.4995 34.4926 56.5523 34.6029 56.6579L41.4369 64.578C42.3738 65.6868 41.492 67.218 39.8937 67.218L35.5398 67.2708C35.5398 67.2708 36.0398 78.1135 35.595 84.8114C35.5245 85.873 34.597 86.6501 33.5351 86.585L30.4552 86.3962Z" stroke="black" stroke-width="2" stroke-linejoin="round"/>
<path d="M33.8535 72.6775L33.7987 64.9194L30.8944 64.9194C30.4561 64.9194 30.1273 65.6533 30.1821 66.492L30.2917 72.4154" stroke="black" stroke-width="2" stroke-miterlimit="10"/>
<path d="M26.2879 76.83C26.2879 76.83 63.4241 76.4595 69.1243 76.83C75.4453 77.2534 79.3396 77.3064 79.8475 71.8019C80.3554 66.2974 79.396 43.3268 79.8475 30.0949C80.299 16.863 77.9286 14.1108 74.4859 13.211C71.0432 12.3112 24.875 14.3813 24.875 14.3813" stroke="black" stroke-width="2" stroke-miterlimit="10"/>
<path d="M21.8782 76.8295C21.8782 76.8295 19.7971 54.3332 20.0162 42.8998C20.2352 31.4664 19.7423 36.2832 20.2352 26.7024C20.5091 20.6681 20.5638 17.4393 20.5091 15.8513C20.5091 15.1632 21.0567 14.5809 21.7687 14.528C29.2169 14.1574 65.6367 12.4107 68.6489 13.2047C71.9349 14.1045 74.2898 16.857 73.8517 30.0901C73.4136 43.3232 74.3446 66.2959 73.8517 71.8009C73.3588 77.3059 69.5799 77.253 63.446 76.8295C57.9694 76.459 21.8782 76.8295 21.8782 76.8295Z" stroke="black" stroke-width="2" stroke-linejoin="round"/>
<path d="M59.5254 55.9669L66.127 49.9307" stroke="black" stroke-width="2" stroke-miterlimit="10" stroke-linecap="round"/>
<path d="M66.127 55.9669L59.5254 49.9307" stroke="black" stroke-width="2" stroke-miterlimit="10" stroke-linecap="round"/>
<path d="M59.5254 41.0324L66.127 34.9961" stroke="black" stroke-width="2" stroke-miterlimit="10" stroke-linecap="round"/>
<path d="M66.127 41.0324L59.5254 34.9961" stroke="black" stroke-width="2" stroke-miterlimit="10" stroke-linecap="round"/>
</svg>
