<svg width="100" height="100" viewBox="0 0 100 100" fill="none" xmlns="http://www.w3.org/2000/svg">
<path d="M39.5 69.461C39.5 69.461 43.517 69.654 54.084 69.591C64.65 69.529 81.766 69.21 81.766 69.21" stroke="black" stroke-width="2" stroke-miterlimit="10" stroke-linecap="round" stroke-linejoin="round"/>
<path d="M39.4395 61.5517L47.4984 61.4307" stroke="black" stroke-width="2" stroke-miterlimit="10" stroke-linecap="round" stroke-linejoin="round"/>
<path d="M53.2129 61.5907C53.2129 61.5907 57.9299 61.6086 58.2149 61.6266C59.6189 61.7156 70.6789 61.4817 76.3889 61.3797C78.0379 61.3497 80.9289 61.3477 80.9289 61.3477" stroke="black" stroke-width="2" stroke-miterlimit="10" stroke-linecap="round" stroke-linejoin="round"/>
<path d="M49.7924 58.2706C47.1334 59.5876 46.4614 66.7506 50.2414 65.4116C54.0204 64.0716 54.0294 56.1716 49.7924 58.2706Z" fill="black" stroke="black" stroke-width="2" stroke-miterlimit="10" stroke-linecap="round" stroke-linejoin="round"/>
<path d="M39.4395 54.3828C39.4395 54.3828 43.4564 54.5758 54.0224 54.5138C57.9444 54.4898 64.0344 54.4648 64.0344 54.4648" stroke="black" stroke-width="2" stroke-miterlimit="10" stroke-linecap="round" stroke-linejoin="round"/>
<path d="M69.875 54.3531C74.292 54.2701 81.705 54.1321 81.705 54.1321" stroke="black" stroke-width="2" stroke-miterlimit="10" stroke-linecap="round" stroke-linejoin="round"/>
<path d="M66.2319 50.8084C63.5729 52.1264 62.9009 59.2884 66.6809 57.9494C70.4599 56.6104 70.4689 48.7104 66.2319 50.8084Z" fill="black" stroke="black" stroke-width="2" stroke-miterlimit="10" stroke-linecap="round" stroke-linejoin="round"/>
<path d="M39.4395 46.0858C39.4395 46.0858 56.4045 46.0468 58.2155 46.1618C59.6195 46.2508 70.6794 46.0158 76.3894 45.9138C78.0384 45.8848 80.9294 45.8818 80.9294 45.8818" stroke="black" stroke-width="2" stroke-miterlimit="10" stroke-linecap="round" stroke-linejoin="round"/>
<path d="M39.4395 36.6655C39.4395 36.6655 46.2064 36.4614 56.7724 36.3984" stroke="black" stroke-width="2" stroke-miterlimit="10" stroke-linecap="round" stroke-linejoin="round"/>
<path d="M70.4316 36.25L81.7047 36.414" stroke="black" stroke-width="2" stroke-miterlimit="10" stroke-linecap="round" stroke-linejoin="round"/>
<path d="M52.7939 58.9709L53.0839 37.8529L70.064 31.5439L69.3489 52.2359" stroke="black" stroke-width="2" stroke-miterlimit="10" stroke-linecap="round" stroke-linejoin="round"/>
<path d="M53.3096 43.8895L69.8586 37.0565L70.0096 31.7285L53.3086 38.1265L53.3096 43.8895Z" fill="black" stroke="black" stroke-width="2" stroke-miterlimit="10" stroke-linecap="round" stroke-linejoin="round"/>
<path d="M24.334 56.154C25.335 54.952 25.97 53.681 27.197 52.655C30.37 50.002 34.563 51.842 34.619 55.82C34.734 63.924 23.354 69.792 18.955 62.689C14.687 55.798 25.924 43.408 29.071 37.303C30.575 34.383 32.115 27.167 27.192 27.002C24.273 26.905 22.358 30.34 22.289 32.401C22.145 36.713 25.458 45.259 27.251 49.029C29.058 52.829 30.262 57.454 30.321 61.644C30.364 64.702 29.832 70.643 26.89 72.465C25.8 73.14 22.452 72.639 23.283 70.818C23.834 69.612 24.89 72.404 24.787 71.971" stroke="black" stroke-width="2" stroke-miterlimit="10" stroke-linecap="round" stroke-linejoin="round"/>
</svg>
