<svg width="100" height="100" viewBox="0 0 100 100" fill="none" xmlns="http://www.w3.org/2000/svg">
<path d="M28.4199 22.8033L29.5798 76.4242C29.5798 76.4242 63.1298 76.2732 65.0798 76.2932C68.9898 76.3332 69.2399 74.7222 69.0299 67.9882C68.8899 63.1352 69.4398 30.9522 69.4398 30.9522C69.4398 30.9522 69.8399 21.8032 64.3599 21.4142C57.1599 20.9042 28.4699 20.4343 28.4199 22.8033Z" stroke="black" stroke-width="2" stroke-miterlimit="10" stroke-linecap="round" stroke-linejoin="round"/>
<path d="M37.3833 33.0002C37.3833 33.0002 36.9134 43.6546 37.8834 44.5006C38.8434 45.3466 59.8033 44.5635 60.8833 44.5005C61.9533 44.4385 61.8733 34.6246 61.8833 33.5006C61.9033 32.3756 37.3833 33.0002 37.3833 33.0002Z" stroke="black" stroke-width="2" stroke-miterlimit="10" stroke-linecap="round" stroke-linejoin="round"/>
<path d="M29.6196 76.4372L32.8396 79.6272C32.8396 79.6272 66.0196 79.4802 67.5896 79.4182C73.6196 79.1812 72.6697 72.0982 72.7697 69.4292C72.9597 64.7522 73.0996 35.0542 72.9296 31.7172C72.7496 28.3802 69.2196 27.6572 69.2196 27.6572C69.2196 27.6572 69.5396 31.2462 69.3496 36.3782C69.2596 38.6922 69.0197 70.4592 69.0197 70.4592C69.0197 71.8152 69.2496 74.1382 68.0696 75.4252C67.2296 76.3362 65.4896 76.2522 63.6896 76.2592C60.5396 76.2712 29.6196 76.4372 29.6196 76.4372Z" fill="black" stroke="black" stroke-width="2" stroke-miterlimit="10" stroke-linecap="round" stroke-linejoin="round"/>
<path d="M31.2598 68.6697C29.3598 65.8057 27.0497 69.7937 29.3197 71.0987" stroke="black" stroke-width="2" stroke-miterlimit="10" stroke-linecap="round" stroke-linejoin="round"/>
<path d="M31.0698 60.8002C30.4998 58.8812 26.4899 60.5612 29.1599 63.4202" stroke="black" stroke-width="2" stroke-miterlimit="10" stroke-linecap="round" stroke-linejoin="round"/>
<path d="M40.3828 57.9871C42.1328 57.8451 45.9628 58.1959 50.3828 57.9869C54.7928 57.7769 59.3828 57.9869 59.3828 57.9869" stroke="black" stroke-width="2" stroke-miterlimit="10" stroke-linecap="round" stroke-linejoin="round"/>
<path d="M43.9932 52.1641C46.8632 51.9331 48.8832 52.1638 51.3732 52.0391C52.8832 52.0392 53.5632 52.2028 54.8832 52.1638" stroke="black" stroke-width="2" stroke-miterlimit="10" stroke-linecap="round" stroke-linejoin="round"/>
<path d="M31.2497 53.0096C30.6497 50.9766 26.5897 52.4066 28.1597 54.7666C28.3697 55.0836 28.5596 55.5436 28.9296 55.6806" stroke="black" stroke-width="2" stroke-miterlimit="10" stroke-linecap="round" stroke-linejoin="round"/>
<path d="M30.5198 43.9317C30.2198 42.9027 28.1197 43.9727 27.7997 44.4667C27.1697 45.4307 28.1897 46.6797 28.7997 47.3387" stroke="black" stroke-width="2" stroke-miterlimit="10" stroke-linecap="round" stroke-linejoin="round"/>
<path d="M30.7299 35.8598C30.0899 33.6708 24.9099 37.8268 28.4999 39.1618" stroke="black" stroke-width="2" stroke-miterlimit="10" stroke-linecap="round" stroke-linejoin="round"/>
<path d="M30.6997 27.5862C28.4797 25.4052 25.1297 30.4302 28.2997 30.8552" stroke="black" stroke-width="2" stroke-miterlimit="10" stroke-linecap="round" stroke-linejoin="round"/>
<path d="M42.1396 38.8789C43.6996 36.5459 42.8396 40.3279 43.3896 40.2199C45.0296 39.8949 46.0196 37.5769 47.6096 37.4909C48.4696 37.4439 46.8096 40.0369 48.0696 40.1969C49.0996 40.3279 50.6296 38.6319 51.6296 38.2819C51.9296 38.1759 52.1897 38.2889 52.1497 38.6319C52.1397 38.7429 52.0596 39.3879 52.3396 39.3889C52.9096 39.3899 53.4397 38.6679 54.0397 38.6349C54.8097 38.5929 55.4796 39.4629 56.3396 38.9729" stroke="black" stroke-width="2" stroke-miterlimit="10" stroke-linecap="round" stroke-linejoin="round"/>
</svg>
