<svg width="100" height="100" viewBox="0 0 100 100" fill="none" xmlns="http://www.w3.org/2000/svg">
<path fill-rule="evenodd" clip-rule="evenodd" d="M37.5094 53.9485C36.989 54.7173 36.6325 55.3289 36.6079 55.6034C36.5103 56.6928 40.7162 58.0044 41.1841 57.955C42.7922 58.2398 46.1773 56.5695 47.9039 55.7175C48.4214 55.4621 48.79 55.2803 48.917 55.2467C49.2244 55.1653 50.4736 56.2399 51.7599 57.3463C52.7786 58.2226 53.8205 59.1188 54.4362 59.4767C55.8294 60.2865 58.0935 61.316 59.2463 60.6042C60.3992 59.8925 59.7757 53.5129 59.5789 51.9256C59.563 51.797 59.5477 51.6756 59.5333 51.5608C59.3702 50.2592 59.3121 49.7959 59.4747 48.9996C59.5796 48.4864 61.8486 46.9798 63.973 45.5693C65.4365 44.5976 66.8312 43.6716 67.4025 43.1473C68.8032 41.8618 66.9456 39.7355 66.5376 39.2948C66.4178 39.1548 65.7226 39.129 64.7889 39.1508C64.8555 39.1839 64.9018 39.2143 64.9249 39.2414C65.0229 39.3472 65.1821 39.438 65.3481 39.5326C65.8735 39.8321 66.4668 40.1705 65.4025 41.1473C64.8312 41.6716 63.4365 42.5976 61.973 43.5693C59.8486 44.9798 57.5796 46.4864 57.4747 46.9996C57.3121 47.7959 57.3702 48.2592 57.5333 49.5608C57.5477 49.6756 57.5629 49.797 57.5789 49.9256C57.5962 50.0652 57.619 50.2387 57.6453 50.4396C57.9188 52.5227 58.5784 57.5483 57.5269 58.1974C56.6843 58.7177 55.3421 57.7343 54.1368 56.8512C53.6931 56.5261 53.2679 56.2145 52.893 55.9966C52.2889 55.6454 51.4049 54.906 50.5524 54.1929C49.439 53.2616 48.3794 52.3752 48.0674 52.4578C47.8324 52.52 46.2653 53.1571 44.5096 53.8708C42.1512 54.8295 39.4523 55.9267 39.1841 55.955C38.7162 56.0044 37.2502 55.7896 37.3479 54.7002C37.361 54.5541 37.4188 54.2927 37.5094 53.9485ZM56.8729 37.299C56.7841 37.0179 56.6759 36.595 56.5461 36.0875C56.0873 34.2937 55.3582 31.4435 54.2575 30.0645C53.7793 29.4654 53.3406 29.243 52.9616 29.2235C53.6804 30.703 54.1932 32.7078 54.5461 34.0875C54.7423 34.8544 54.8891 35.4283 54.9944 35.6114C55.0713 35.7339 55.1373 35.8648 55.2044 35.9979C55.4746 36.5341 55.7624 37.105 56.8492 37.2948C56.857 37.2962 56.8649 37.2976 56.8729 37.299Z" fill="black"/>
<path d="M43.887 35.2134C44.3506 35.199 44.7699 34.9661 45.0313 34.5717L49.5063 28.1907C49.5063 28.1907 50.6511 26.0923 52.2224 28.0608C53.7937 30.0294 54.6076 34.9963 54.9942 35.612C55.3808 36.2277 55.4924 37.0585 56.8491 37.2954C58.2057 37.5324 64.5518 38.8056 64.9248 39.242C65.3328 39.6827 66.803 39.8624 65.4024 41.1479C64.0017 42.4333 57.6516 46.1336 57.4746 47.0002C57.2976 47.8667 57.382 48.3389 57.5787 49.9262C57.7755 51.5136 58.6796 57.4863 57.5268 58.1981C56.3739 58.9098 54.2861 56.8071 52.8929 55.9972C51.4997 55.1874 48.618 52.3126 48.0673 52.4584C47.5165 52.6043 39.6518 55.9062 39.1839 55.9556C38.716 56.005 37.2501 55.7902 37.3477 54.7008C37.4454 53.6113 40.0321 46.1113 40.0878 45.6562C40.1084 45.1969 39.989 44.7204 39.5238 44.1661C39.0587 43.6119 34.2534 37.8728 33.9461 37.4799C33.6739 37.0913 33.4257 35.9241 34.873 35.7102C36.1017 35.5407 41.8531 35.2845 43.887 35.2134Z" stroke="black" stroke-width="2" stroke-miterlimit="10"/>
<path d="M55.408 70.1942C58.2727 74.4599 67.6672 83.5107 69.069 84.5049L70.1398 71.3977C83.1037 72.4568 87.1378 63.0125 87.5344 58.158L89.0811 39.2254C90.2708 24.6619 79.8878 20.1484 74.3634 19.6971C68.839 19.2457 42.3813 16.3513 30.1682 16.0866C17.955 15.8219 13.867 25.0174 13.2127 33.0274L11.666 51.96C10.672 64.1273 21.7606 67.5676 25.9445 67.7872L55.408 70.1942Z" stroke="black" stroke-width="2" stroke-miterlimit="10" stroke-linecap="round"/>
</svg>
