<svg width="100" height="100" viewBox="0 0 100 100" fill="none" xmlns="http://www.w3.org/2000/svg">
<path d="M55.0027 69.6942C57.8674 73.9599 68.116 83.9139 68.6637 84.0049C69.2114 84.0959 69.7345 70.8977 69.7345 70.8977C82.6984 71.9568 86.7326 62.5125 87.1291 57.658L88.6758 38.7254C89.8656 24.1619 79.4825 19.6484 73.9581 19.1971C68.4337 18.7457 41.9761 15.8513 29.7629 15.5866C17.5497 15.3219 13.4618 24.5174 12.8074 32.5274L11.2607 51.46C10.2667 63.6273 21.3554 67.0676 25.5393 67.2872L55.0027 69.6942Z" stroke="black" stroke-width="2" stroke-miterlimit="10" stroke-linecap="round"/>
<path d="M44.5513 27.0815C43.3713 26.7735 42.1513 27.3045 42.0313 29.2515C41.9613 30.4905 41.7112 33.3045 41.5612 35.4365C39.6512 35.2615 38.1313 35.2045 37.0013 35.0705C34.2313 34.7395 34.4013 39.3385 36.5513 39.5685C37.9813 39.7225 39.2513 39.8095 41.1813 39.9885C41.0113 42.2775 40.8912 43.5605 40.7112 45.7985C38.7612 45.6205 37.2112 45.5695 36.0712 45.4325C33.3012 45.1015 33.4713 49.6735 35.6213 49.9035C37.0813 50.0605 38.3813 50.1395 40.3613 50.3235C40.2213 51.9325 40.0812 54.3145 39.9612 55.3035C39.6412 58.0755 44.2412 57.8725 44.4612 55.7295C44.5912 54.4915 44.7413 52.3775 44.8913 50.7495C46.8613 50.9245 48.2512 51.0565 50.2112 51.2275C50.1412 52.1695 49.8713 55.0015 49.8013 55.7655C49.4313 60.2485 54.9312 58.1855 54.8212 55.2685C54.7612 53.4205 54.7213 52.4075 54.7713 51.6265C56.5913 51.7885 58.8312 52.0005 60.2012 52.1315C63.1112 52.4105 64.8713 47.6795 60.9813 47.4455C59.8213 47.3765 57.1512 47.1085 55.1912 46.9675C55.4212 44.9445 55.4813 43.3855 55.7513 41.2915C57.5613 41.4515 59.7913 41.6635 61.1613 41.7965C64.0613 42.0755 65.8013 37.3445 61.9113 37.1105C60.7813 37.0435 58.1912 36.7945 56.3112 36.6595C56.5412 34.8015 56.8612 32.5795 56.9512 31.1965C57.0112 30.2655 55.2613 28.5625 53.7913 28.6815C52.9013 28.7525 52.1213 29.4685 51.8913 31.4145C51.7613 32.5205 51.6313 34.6795 51.4913 36.2605C49.4213 36.0995 48.2813 35.9825 46.2213 35.8085C46.3813 33.8415 46.5813 31.4665 46.7213 29.9985C46.8613 28.5455 45.7313 27.3905 44.5513 27.0815ZM45.8212 40.4135C47.7712 40.5875 49.1412 40.7225 51.0912 40.8925C50.9212 43.0215 50.7713 44.4925 50.6113 46.5955C48.5313 46.4345 47.3912 46.3445 45.3112 46.1705C45.4912 44.0635 45.6412 42.5485 45.8212 40.4135Z" stroke="black" stroke-width="2" stroke-miterlimit="10" stroke-linejoin="round"/>
<path d="M54.501 28.751C56.391 29.006 58.6509 30.174 58.3109 32.536C57.9709 34.898 57.791 36.016 57.791 36.016C57.791 36.016 63.8809 36.363 64.3209 37C65.4999 37.5 65.7509 40.627 64.3209 42.419C63.9509 42.895 57.121 41.964 57.121 41.964L56.7109 46.434C56.7109 46.434 61.281 46.545 63.631 47.605C65.671 48.523 64.2809 52.493 62.8109 52.42C60.7909 52.32 55.631 51.943 55.631 51.943C55.631 51.943 55.911 54.062 55.181 55.765C54.451 57.467 53.431 58.493 51.511 58.37" stroke="black" stroke-width="2" stroke-miterlimit="10" stroke-linejoin="round"/>
</svg>
