<svg width="100" height="100" viewBox="0 0 100 100" fill="none" xmlns="http://www.w3.org/2000/svg">
<path d="M55.408 70.1942C58.2727 74.4599 67.6672 83.5107 69.069 84.5049L70.1398 71.3977C83.1037 72.4568 87.1378 63.0125 87.5344 58.158L89.0811 39.2254C90.2708 24.6619 79.8878 20.1484 74.3634 19.6971C68.839 19.2457 42.3813 16.3513 30.1682 16.0866C17.955 15.8219 13.867 25.0174 13.2127 33.0274L11.666 51.96C10.672 64.1273 21.7606 67.5676 25.9445 67.7872L55.408 70.1942Z" stroke="black" stroke-width="2" stroke-miterlimit="10" stroke-linecap="round"/>
<path d="M35.1196 37.6724C34.66 46.0695 44.171 53.9537 49.1597 56.9789C59.3018 53.3623 67.6871 41.5946 65.1321 35.4131C62.5768 29.2309 55.0341 30.0312 51.4042 32.496C48.3745 26.0677 35.6941 27.176 35.1196 37.6724Z" stroke="black" stroke-width="2" stroke-miterlimit="10"/>
<path fill-rule="evenodd" clip-rule="evenodd" d="M52.1295 30.8384C50.226 28.0066 46.9305 26.8877 43.9001 27.7233C42.9566 27.9835 42.0582 28.4253 41.2447 29.0445C45.1347 27.6999 49.7347 28.9537 51.4042 32.496C55.0341 30.0312 62.5768 29.2309 65.1321 35.4131C67.6871 41.5946 59.3018 53.3623 49.1597 56.9789C47.3614 55.8884 44.9754 54.1665 42.6807 52.0167C43.9306 53.7277 45.266 55.2223 46.5237 56.3375C47.2372 56.9702 47.9447 57.4978 48.6142 57.8725C49.2658 58.2372 49.9706 58.5078 50.6553 58.5078C51.3375 58.5078 52.1529 58.2058 52.9475 57.8155C53.7829 57.4052 54.7417 56.8222 55.7572 56.1131C57.7895 54.694 60.1129 52.725 62.2167 50.4974C64.3152 48.2753 66.2348 45.7542 67.4149 43.2253C68.5883 40.7109 69.0988 38.034 68.1044 35.6281C65.4809 29.2806 57.3772 26.8292 52.1295 30.8384Z" fill="black"/>
</svg>
