<svg width="100" height="100" viewBox="0 0 100 100" fill="none" xmlns="http://www.w3.org/2000/svg">
<path d="M55.6821 70.5893C58.8273 74.994 67.7091 83.5405 69.069 84.5049L70.1398 71.3977C83.1037 72.4568 87.1378 63.0125 87.5344 58.158L89.0811 39.2254C90.2708 24.6619 79.8878 20.1484 74.3634 19.6971C68.839 19.2457 42.3813 16.3513 30.1682 16.0866C17.955 15.8219 13.867 25.0174 13.2127 33.0274L11.666 51.96C10.672 64.1273 21.7606 67.5676 25.9445 67.7872L54.9279 70.155C55.2313 70.1798 55.5052 70.3416 55.6821 70.5893Z" stroke="black" stroke-width="2" stroke-miterlimit="10" stroke-linecap="round"/>
<path d="M68.392 46.8562C69.335 48.2922 70.4702 51.2984 67.4671 51.8361C64.4639 52.3737 61.8547 51.8247 60.9255 51.4829" stroke="black" stroke-width="2" stroke-linecap="round"/>
<path d="M66.8004 52.0187C67.2072 53.936 66.8409 57.7505 62.1216 57.6707C56.2225 57.5709 49.656 58.181 46.224 56.8331C42.792 55.4851 42.5273 55.3523 39.7804 55.3523" stroke="black" stroke-width="2" stroke-linecap="round"/>
<path d="M69.1463 40.993C70.3113 42.368 71.8811 45.4268 68.8403 46.6623L61.6446 46.2738" stroke="black" stroke-width="2" stroke-linecap="round"/>
<path d="M40.5348 40.3227C43.6051 38.8118 50.5385 34.2305 51.0381 31.4583C51.5377 28.6861 51.8744 26.1013 52.4933 24.7576C52.9614 23.7413 54.5324 23.2773 56.027 24.7576C57.8953 26.6079 58.6795 32.3361 56.9884 35.3064L64.4711 35.7103C67.1443 35.8547 70.906 36.3708 70.9455 39.0476C70.9554 39.7195 70.5858 40.4032 69.5826 41.0161L61.9508 40.6041" stroke="black" stroke-width="2" stroke-linecap="round"/>
<path fill-rule="evenodd" clip-rule="evenodd" d="M28.2069 39.4732C28.2962 37.8187 29.7098 36.5499 31.3643 36.6393L38.7087 37.0358C40.3632 37.1251 41.632 38.5387 41.5426 40.1931L40.7695 54.5152C40.6802 56.1696 39.2666 57.4384 37.6121 57.3491L30.2677 56.9526C28.6132 56.8633 27.3444 55.4497 27.4338 53.7952L28.2069 39.4732ZM34.6302 52.1648C35.7302 52.2647 36.703 51.454 36.8029 50.3539C36.9028 49.2539 36.0921 48.2811 34.992 48.1812C33.892 48.0813 32.9192 48.892 32.8193 49.992C32.7194 51.0921 33.5301 52.0648 34.6302 52.1648Z" fill="black"/>
</svg>
