<svg width="100" height="100" viewBox="0 0 100 100" fill="none" xmlns="http://www.w3.org/2000/svg">
<path d="M44.8032 51.0189C41.9632 43.9089 54.2232 42.8029 54.7932 48.1229C55.3732 53.4439 47.7432 58.3499 44.8032 51.0189Z" fill="black" stroke="black" stroke-width="2" stroke-miterlimit="10" stroke-linecap="round" stroke-linejoin="round"/>
<path d="M75.1931 58.1016C78.1631 61.3236 82.1231 68.9816 77.9331 70.5846C67.8731 74.4316 52.3431 66.5157 43.9231 60.4317C35.4931 54.3477 17.5541 33.8566 20.6191 28.5576C23.6831 23.2586 46.7631 33.0527 55.1831 40.2547C57.5231 42.2617 70.4131 53.0926 70.4131 53.0926" stroke="black" stroke-width="2" stroke-miterlimit="10" stroke-linecap="round" stroke-linejoin="round"/>
<path d="M44.433 21.2031C47.923 16.4731 57.303 13.9821 59.553 35.9931C62.563 65.6161 55.993 76.1801 54.423 78.1771C45.393 89.6781 40.183 66.4281 39.733 61.9491C38.753 52.0831 37.943 38.4021 41.023 26.8991" stroke="black" stroke-width="2" stroke-miterlimit="10" stroke-linecap="round" stroke-linejoin="round"/>
<path d="M29.1631 72.5328C26.4431 73.4618 19.7521 73.6298 20.0071 68.8568C20.5281 59.0998 33.6931 46.4588 43.5531 39.0578C53.4131 31.6568 74.4431 21.9258 77.5731 28.0308C79.0831 30.9908 77.8031 35.8648 72.9231 42.3958C68.8031 47.9138 62.4431 55.2548 56.4331 59.5878C51.2431 63.3298 35.9431 69.9398 35.9431 69.9398" stroke="black" stroke-width="2" stroke-miterlimit="10" stroke-linecap="round" stroke-linejoin="round"/>
<path d="M32.0532 68.4455C35.6332 67.3895 37.4932 73.2395 33.3532 73.8605C28.4832 74.5915 28.1532 69.5935 32.0532 68.4455Z" stroke="black" stroke-width="2" stroke-miterlimit="10" stroke-linecap="round" stroke-linejoin="round"/>
<path d="M70.3029 57.2132C67.9029 53.4352 73.833 49.9772 75.843 53.6472C78.073 57.7012 72.0629 60.0052 70.3029 57.2132Z" stroke="black" stroke-width="2" stroke-miterlimit="10" stroke-linecap="round" stroke-linejoin="round"/>
<path d="M39.283 24.1202C38.913 20.9712 44.823 19.2822 45.373 23.4322C45.953 27.8572 39.673 27.4012 39.283 24.1202Z" stroke="black" stroke-width="2" stroke-miterlimit="10" stroke-linecap="round" stroke-linejoin="round"/>
</svg>
