<svg width="100" height="100" viewBox="0 0 100 100" fill="none" xmlns="http://www.w3.org/2000/svg">
<path d="M25.2297 35.7751C20.8379 26.2416 23.2188 21.2531 27.1821 19.1107C29.7528 17.9324 34.8703 18.315 41.7258 21.2072C51.2414 25.2216 61.6497 36.4179 67.9696 43.2734C74.2895 50.1289 87.465 70.9097 82.4305 76.6941C77.3959 82.4784 62.1852 72.5165 58.0077 70.267C53.8301 68.0176 39.3692 60.0909 30.4785 64.9111C21.5877 69.7314 18.0405 69.0471 16.648 64.0126C15.2555 58.9781 21.4806 56.0204 24.3727 54.1994C27.2649 52.3784 29.6214 45.3086 25.2297 35.7751Z" stroke="black" stroke-width="2"/>
<path d="M56.3873 69.2525C54.8421 69.061 53.767 67.1465 53.9961 65.2149C54.2252 63.2833 56.9335 62.1768 58.301 64.3463C59.7022 66.5694 59.1657 69.5968 56.3873 69.2525Z" stroke="black" stroke-width="2"/>
<path d="M54.1792 67.0716C54.1792 65.2391 55.0098 64.4325 56.2941 64.3723C57.5785 64.3121 58.2012 64.8499 58.7688 65.4336" stroke="black" stroke-width="2"/>
<path d="M80.0989 62.2647C75.5203 63.7473 77.5786 71.1231 82.508 68.751" stroke="black" stroke-width="2"/>
<path d="M80.4529 63.45C79.1159 63.6699 77.4726 65.0962 78.1857 67.7627" stroke="black" stroke-width="2"/>
<path d="M16.4712 62.1699C16.4712 60.4825 18.0453 59.0838 19.5926 60.4872C21.4944 62.2123 24.2349 67.9168 20.8642 68.1555" stroke="black" stroke-width="2"/>
<path d="M18.6885 60.5684C17.9191 60.3761 17.0655 61.1095 16.7349 61.5002V63.484L17.6967 66.5197C18.6585 67.0107 20.6122 67.9925 20.7324 67.9925C20.8827 67.9925 21.9046 67.7521 22.115 67.7521C22.2833 67.7521 22.3855 66.7702 22.4156 66.2793L21.574 62.5222C20.9328 61.9511 19.458 60.7608 18.6885 60.5684Z" fill="black"/>
<path d="M22.0234 68.312C22.2092 68.7659 23.8092 70.3954 27.4303 68.8723C30.2538 67.6848 32.2987 66.0632 36.1163 65.8471C40.2572 65.6127 44.2604 65.6538 50.4501 68.8723C56.6398 72.0909 67.4712 77.8313 70.222 79.0644C74.3997 80.9372 78.5268 81.9388 80.198 80.577C81.535 79.4877 81.69 78.155 81.7106 77.6599" stroke="black" stroke-width="2"/>
<path d="M23.3257 54.8605C25.0637 54.4068 27.984 55.6895 29.044 57.5442C30.6262 60.313 31.1215 63.3897 29.044 65.5915" stroke="black" stroke-width="2"/>
<path d="M80.5196 80.6678L81.6312 77.6443L78.6967 78.578L71.7606 77.1997L50.6855 66.7511C47.6028 65.8174 41.384 63.95 41.1706 63.95H33.7009L22.0732 68.3614L24.4543 69.7999L30.6329 67.6848L38.4583 65.5506L47.7065 67.6848L68.915 78.578L77.2294 81.5126L80.5196 80.6678Z" fill="black"/>
<path d="M72.1841 56.492C70.669 56.8509 68.7533 55.0916 68.0445 53.2802C67.3356 51.4688 69.6909 48.3756 71.9199 49.6439C74.2039 50.9436 75.8433 55.6249 72.1841 56.492Z" stroke="black" stroke-width="2"/>
<path d="M68.3116 53.7353C68.3117 51.1151 69.8293 49.8291 72.1808 50.7779C74.0316 51.5246 74.4421 52.4258 74.5503 52.7775" stroke="black" stroke-width="2"/>
<path d="M59.5193 50.8296C58.0664 51.3894 56.2156 50.2081 55.5067 48.3967C54.7978 46.5853 56.6643 44.3324 58.8933 45.6007C61.1773 46.9004 62.1317 49.823 59.5193 50.8296Z" stroke="black" stroke-width="2"/>
<path d="M55.542 48.847C55.6491 48.0071 55.9823 46.0585 57.8939 46.0585C59.4464 46.0585 60.3754 47.1373 60.7542 47.5819" stroke="black" stroke-width="2"/>
<path d="M38.143 44.0671C36.4793 44.5232 34.5699 43.0158 33.9892 40.9404C33.4086 38.8649 35.7159 36.5883 38.0324 38.2335C40.4062 39.9194 41.1344 43.247 38.143 44.0671Z" stroke="black" stroke-width="2"/>
<path d="M34.2603 40.5418C34.7712 39.7148 36.2308 38.265 37.9824 39.0823C39.7339 39.8997 40.0664 41.6204 40.0988 41.9529" stroke="black" stroke-width="2"/>
<path d="M51.5238 38.7892C49.818 39.4465 47.6449 38.0595 46.8126 35.9327C45.9803 33.8059 48.1718 31.1608 50.7888 32.6499C53.4705 34.1759 54.5911 37.6074 51.5238 38.7892Z" stroke="black" stroke-width="2"/>
<path d="M47.1084 35.8148C47.5377 34.7786 48.8913 32.867 51.2076 33.8836C52.697 34.5373 53.247 35.9548 53.247 37.1985" stroke="black" stroke-width="2"/>
<path d="M38.9729 31.43C37.5645 31.9727 35.7703 30.8276 35.0831 29.0716C34.3959 27.3156 36.2053 25.1317 38.366 26.3612C40.5801 27.6211 41.5053 30.4543 38.9729 31.43Z" stroke="black" stroke-width="2"/>
<path d="M35.1421 29.0516C35.5427 26.8804 37.9988 25.845 40.1367 28.1834" stroke="black" stroke-width="2"/>
<path d="M22.7774 24.4781C22.2054 24.3992 20.3008 24.7028 19.9221 26.9277C19.4487 29.7088 20.6471 31.7338 22.7773 35.7576C24.9076 39.7813 28.7811 43.4074 27.0059 50.2714" stroke="black" stroke-width="2"/>
<path d="M20.7723 25.3221L23.1333 24.7555L23.6999 31.6967L24.9276 37.6462L22.1417 34.577L19.4502 28.3441L20.7723 25.3221Z" fill="black"/>
</svg>
