<svg width="100" height="100" viewBox="0 0 100 100" fill="none" xmlns="http://www.w3.org/2000/svg">
<path d="M25.733 57.6035C25.733 57.6035 24.6657 67.0064 26.2371 74.8021C26.8357 77.6869 27.397 80.4343 29.1929 82.8382C32.8969 87.7149 41.4274 88.0926 48.0123 87.6118C56.9918 86.9593 59.9102 86.5472 62.6414 81.3272C65.8649 75.2451 66.3264 65.2946 66.2293 60.7512" stroke="black" stroke-width="2" stroke-linejoin="round"/>
<path d="M44.7442 58.7302C44.4357 58.5585 39.3975 56.4292 38.5749 51.8617C38.0266 48.9082 39.8431 48.1183 39.2261 45.7144C38.1979 41.6963 32.3029 41.3185 32.3714 38.9146C32.4057 37.5065 34.3936 37.1974 34.5992 35.7207C34.76 34.5284 33.7439 32.5801 28.0113 29.3935C27.2433 28.9666 26.6003 28.323 26.316 27.4916C23.9771 20.6505 27.2122 12.3921 27.4703 12.2305C27.5046 12.2305 27.5731 12.2648 27.6074 12.2992C28.807 13.5011 27.8131 19.0646 32.9198 23.7009C36.6556 27.1008 42.5849 32.4238 45.8409 41.868C46.9377 45.0619 48.5828 51.1405 47.8288 59.4514C47.1091 59.3827 46.0123 59.2453 44.7442 58.7302Z" stroke="black" stroke-width="2" stroke-linejoin="round"/>
<path d="M27.6074 12.2988C32.9541 13.1574 31.686 17.9997 34.4279 19.3734C42.4479 23.3571 47.0748 28.7489 48.5143 32.2861C49.0969 33.7285 49.3026 34.7588 49.3026 34.7588C50.1251 38.5365 48.7885 40.597 49.7481 41.8333C50.7763 43.207 53.0041 41.5586 53.8952 42.5202C54.4446 43.0707 54.4809 44.5237 53.3267 47.7318" stroke="black" stroke-width="2" stroke-linejoin="round"/>
<path d="M48.1028 58.4207C49.748 60.1035 52.1814 60.2409 54.3406 59.8631C56.4998 59.451 58.6248 58.6268 60.784 58.5238C64.2456 58.3177 67.7073 60.2066 69.9008 63.3317C70.175 61.2368 69.9008 59.0389 69.0782 57.1157C68.9411 56.841 68.804 56.4632 68.9068 56.1541C69.0439 55.742 69.5238 55.7077 69.9008 55.742C71.4431 55.8451 72.9854 56.0168 74.5277 56.1885C74.0136 52.9259 70.8604 51.3119 68.1186 50.6593C65.2053 49.9382 62.2578 49.6291 59.276 49.6978C58.522 49.7321 57.4595 49.4574 57.4938 48.5988C57.528 47.9463 58.1107 47.6029 58.5905 47.2594C59.0703 46.916 59.4474 46.0575 59.0018 45.6797C53.758 45.9544 48.9597 50.7624 48 56.8066L48.1028 58.4207Z" stroke="black" stroke-width="2" stroke-linejoin="round"/>
<path d="M74.5277 56.1545C58.522 49.6294 48 56.7383 48 56.7383" stroke="black" stroke-width="2" stroke-linejoin="round"/>
<path fill-rule="evenodd" clip-rule="evenodd" d="M44.6173 58.6674L44.617 58.6672C43.8248 58.2842 39.9446 56.4081 38.7879 52.7266C35.5884 52.9606 32.8974 53.3655 30.7643 53.8816C28.7771 54.3623 27.2018 54.9563 26.1473 55.6478C25.1583 56.2964 24.2359 57.3237 24.6256 58.6364C24.802 59.2414 25.2384 59.6965 25.6798 60.0312C26.1358 60.377 26.7049 60.6756 27.3202 60.9368C28.5536 61.4605 30.1264 61.8978 31.7421 62.2529C34.9788 62.9643 38.5663 63.3838 40.3758 63.4724C43.9338 63.6466 54.0208 63.37 56.3315 63.1961C57.4945 63.1086 61.1598 62.7427 64.3639 61.937C65.5016 61.6509 66.635 61.2967 67.591 60.854C65.608 59.2538 63.196 58.3803 60.784 58.5239C59.4146 58.5892 58.0589 58.9447 56.6995 59.3011L56.6995 59.3011C55.9155 59.5066 55.1304 59.7125 54.3406 59.8632C52.1814 60.241 49.7479 60.1036 48.1028 58.4209L48 56.8068C48.2397 55.2972 48.7188 53.8648 49.3845 52.5608C49.2985 52.5591 49.2171 52.5575 49.1403 52.5561C48.8725 52.5512 48.6621 52.5483 48.5182 52.5467C48.4462 52.5458 48.3909 52.5453 48.3533 52.545L48.3104 52.5447L48.3062 52.5447C48.1823 52.5413 48.0588 52.5381 47.9357 52.5352C48.0655 54.6239 48.0571 56.9354 47.8288 59.4515C47.1091 59.3828 46.0123 59.2454 44.7442 58.7303C44.7231 58.7185 44.6798 58.6976 44.6173 58.6674ZM69.2777 55.7926C69.1096 55.8517 68.9709 55.9618 68.9068 56.1543C68.804 56.4633 68.9411 56.8411 69.0782 57.1158C69.3726 57.8041 69.5967 58.5275 69.7506 59.2687C69.8426 59.143 69.9251 59.0102 69.9955 58.8698C70.321 58.2218 70.3461 57.5006 70.0405 56.7884L70.0391 56.7852C69.8701 56.3951 69.5993 56.0683 69.2777 55.7926Z" fill="black"/>
</svg>
