<svg width="100" height="100" viewBox="0 0 100 100" fill="none" xmlns="http://www.w3.org/2000/svg">
<path fill-rule="evenodd" clip-rule="evenodd" d="M72.487 72.4664C67.9841 76.6294 62.1596 79.4682 55.9761 80.1548C54.5043 80.3056 53.0324 80.3716 51.5605 80.4376C51.0698 80.4596 50.5792 80.4816 50.0886 80.5068C49.8907 80.5172 49.6923 80.5286 49.4936 80.5401C47.7719 80.6398 46.0264 80.7408 44.4023 80.1548C43.7171 79.9151 43.1019 79.5589 42.4772 79.1973C42.1844 79.0277 41.8895 78.857 41.5843 78.6965C40.4751 78.0973 39.2944 77.6588 38.1167 77.2214C37.3177 76.9246 36.5201 76.6283 35.7471 76.2828C34.8361 75.8774 33.9633 75.4056 33.1319 74.8754C32.959 77.5229 37.5341 79.8177 41.805 81.4009C46.2405 83.0769 63.1065 86.9506 78.4669 80.5686C87.8239 74.5643 74.5042 72.2885 74.5042 72.2885L72.487 72.4664Z" fill="black"/>
<path d="M26.3874 40.5798C23.1668 46.6643 21.7579 53.7546 23.2675 60.4425C24.7771 67.1305 29.001 74.0401 35.4421 76.9064C35.4421 76.9064 43.3959 79.7018 44.4023 80.0538C46.2138 80.7075 48.1764 80.5064 50.0886 80.4058C52.0511 80.3052 54.0136 80.2549 55.9761 80.0538C68.657 78.6458 79.8283 68.1864 81.1869 55.8162C82.5456 43.3958 75.0834 23.6696 53.3062 33.9756C45.8586 32.3162 41.0688 29.3571 33.0678 33.9756C30.8537 35.8362 28.1486 37.2609 26.3874 40.5798Z" stroke="black" stroke-width="2" stroke-linecap="round" stroke-linejoin="round"/>
<path d="M77.0595 57.325C77.0595 57.325 76.0531 64.8175 70.1152 68.6894" stroke="black" stroke-width="2" stroke-linecap="round" stroke-linejoin="round"/>
<path d="M53.8115 34.7469C54.5663 29.9698 57.1327 25.4944 60.8061 22.3264" stroke="black" stroke-width="2" stroke-linecap="round" stroke-linejoin="round"/>
<path d="M61.6666 23.5306C65.626 21.2394 65.5772 19.3432 64.8887 18.609C63.8379 17.4884 61.2403 20.4021 59.3166 22.4434L55.4951 28.0022C56.1987 29.6215 60.5908 24.1531 61.6666 23.5306Z" fill="black"/>
<path d="M53.8118 33.8557C53.737 27.6187 49.5886 21.5311 43.6836 19.1036C41.5907 18.2446 39.2735 17.4976 37.0311 17.0495C34.415 16.5266 31.8736 16.3399 29.2948 15.8544C28.6595 15.7423 27.6504 15.8917 27.7625 16.5266C27.7999 16.7134 27.912 16.8627 28.0615 17.0121C29.8928 19.0289 30.4349 16.95 37.8066 24.6219C45.1783 32.2939 47.1593 29.4114 52.8027 34.0424" fill="black"/>
<path d="M53.8118 33.8557C53.737 27.6187 49.5886 21.5311 43.6836 19.1036C41.5907 18.2446 39.2735 17.4976 37.0311 17.0495C34.415 16.5266 31.8736 16.3399 29.2948 15.8544C28.6595 15.7423 27.6504 15.8917 27.7625 16.5266C27.7999 16.7134 27.912 16.8627 28.0615 17.0121C29.8928 19.0289 30.4349 16.95 37.8066 24.6219C45.1783 32.2939 47.1593 29.4114 52.8027 34.0424" stroke="black" stroke-width="2" stroke-linecap="round" stroke-linejoin="round"/>
<path d="M62.0146 34.4957C58.6934 33.7414 53.8123 33.7414 50.6924 37.5128" stroke="black" stroke-width="2" stroke-linecap="round" stroke-linejoin="round"/>
</svg>
