<svg width="100" height="100" viewBox="0 0 100 100" fill="none" xmlns="http://www.w3.org/2000/svg">
<path d="M13.9922 38.6239V50.5534C13.9922 51.6814 15.6472 52.7724 16.2618 53.0253C26.7453 57.8333 47.9008 68.0422 49.9992 68.0422C52.2455 68.0422 52.1753 63.7123 52.1753 59.2873C52.1753 52.8826 52.5929 51.7835 50.5558 50.3928C48.4125 48.9298 18.7991 36.7517 17.8542 36.5327C16.2618 36.1636 13.9922 37.4307 13.9922 38.6239Z" stroke="black" stroke-width="2"/>
<path d="M14.6895 37.402C17.6514 34.5689 45.8178 23.5756 46.6687 23.4209C48.4032 23.1055 51.2254 23.1396 54.0866 24.4809C56.1624 25.454 80.2667 35.7423 81.4272 36.5159C83.4931 37.8932 83.8737 41.0499 83.8737 42.5973C83.8737 44.1446 84.3081 50.1788 82.1303 52.3644C81.2497 53.248 51.9524 67.5418 50.4727 67.9422" stroke="black" stroke-width="2"/>
<path d="M38.4016 52.4556C35.5384 55.8422 38.6343 60.816 41.6554 60.816C44.0726 60.816 45.3741 58.4881 45.3741 55.4719C45.3741 53.0355 41.9806 48.2223 38.4016 52.4556Z" stroke="black" stroke-width="2"/>
<path d="M41.1661 56.2703C40.715 54.2272 41.9291 52.821 42.9573 52.3899C43.4326 52.9648 44.5099 54.1079 44.616 55.2754C44.7221 56.4428 44.5382 57.9839 44.2839 58.9567C43.4769 58.9678 41.6171 58.3134 41.1661 56.2703Z" fill="black" stroke="black" stroke-width="2"/>
<path d="M51.9246 51.2036L82.4683 37.8918" stroke="black" stroke-width="2" stroke-linecap="round"/>
<path d="M43.4998 47.1323C46.0041 48.2662 50.0442 49.448 51.5413 49.3384C54.9229 49.091 58.4433 48.4427 60.3451 47.5449" stroke="black" stroke-width="2" stroke-linecap="round"/>
<path d="M75.8739 33.9652C77.4309 34.588 80.4179 35.7867 80.4179 37.3779C80.4179 39.046 78.1486 39.7522 77.2144 40.1626" stroke="black" stroke-width="2" stroke-linecap="round"/>
<path d="M56.1478 49.3623C53.1935 50.6774 53.0963 51.8066 52.6409 53.1865C52.2498 54.3719 52.1846 56.4186 52.1846 57.1296" stroke="black" stroke-width="2" stroke-linecap="round"/>
<path d="M77.7249 39.9768C79.7121 39.0084 81.299 38.839 81.8849 39.0851C85.2499 40.4979 82.9828 50.8212 82.6382 51.3588C81.0661 53.8113 61.5867 62.2525 52.1707 66.363" stroke="black" stroke-width="2" stroke-linecap="round"/>
<path d="M41.3195 36.55C41.9126 36.8137 47.265 39.1267 49.9558 40.0603" stroke="black" stroke-width="2" stroke-linecap="round"/>
<path d="M45.2892 34.6299C45.8823 34.8935 51.2347 37.2066 53.9255 38.1401" stroke="black" stroke-width="2" stroke-linecap="round"/>
<path d="M49.6074 32.8748C50.2005 33.1384 55.553 35.4515 58.2437 36.385" stroke="black" stroke-width="2" stroke-linecap="round"/>
<path d="M31.257 51.2397L23.8974 51.2397" stroke="black" stroke-width="2" stroke-linecap="round"/>
<path d="M39.781 70.7668L38.043 75.7953" stroke="black" stroke-width="2" stroke-linecap="round"/>
<path d="M28.0163 65.1966L24.7725 67.5301" stroke="black" stroke-width="2" stroke-linecap="round"/>
<path d="M80.6319 53.2728L83.2927 50.8467C85.3418 51.9492 86.6072 52.1459 86.6072 53.2728C86.6072 54.6815 53.1455 70.6279 51.9612 70.6279C48.3868 70.6279 16.8955 55.4691 15.6694 54.817C14.6452 54.2724 13.8557 52.3785 14.0433 51.0967" stroke="black" stroke-width="2"/>
<path d="M85.9632 52.1045L83.3545 50.8872L81.3812 52.7508L50.5192 68.2325L19.3568 54.3655L14.2265 50.8872L13.8555 52.5973L15.5309 54.8872L51.6166 70.6258L85.9632 53.8438V52.1045Z" fill="black"/>
</svg>
