<svg width="100" height="100" viewBox="0 0 100 100" fill="none" xmlns="http://www.w3.org/2000/svg">
<path fill-rule="evenodd" clip-rule="evenodd" d="M33.7969 77.8634C33.804 77.9706 33.8274 78.0811 33.8678 78.1948C36.4903 80.8472 39.0975 81.3055 43.6229 82.1009C44.4646 82.2489 45.3728 82.4085 46.3598 82.5961C52.426 83.749 68.0107 84.7253 72.6406 82.7084C77.2705 80.6914 77.6389 77.3353 70.1935 75.6357C69.3884 75.452 68.5809 75.2761 67.752 75.113C64.9713 79.1696 60.3833 79.4742 53.3671 79.9401C52.2338 80.0154 51.0371 80.0948 49.7745 80.195C43.6873 80.6802 37.9458 81.1365 33.7969 77.8634Z" fill="black"/>
<path d="M72.5722 45.3386C72.9045 47.1698 73.1171 64.3391 68.6313 73.5785C65.5992 79.9045 62.3594 80.404 52.391 81.1947C45.0808 81.7774 35.6108 81.3196 31.4988 75.4097C29.5051 72.4964 28.882 69.1669 28.2175 65.6709C26.473 56.2235 27.7409 45.4477 27.7409 45.4477" stroke="black" stroke-width="2" stroke-linejoin="round"/>
<path d="M49.3779 48.7534C72.1546 48.7534 71.9175 35.0064 68.9519 28.1328C67.387 28.2408 65.939 28.4384 64.6 28.7135" stroke="black" stroke-width="2" stroke-linejoin="round"/>
<path d="M49.332 48.7536C65.8451 48.7536 65.6732 27.6664 63.5231 17.1228C54.8877 18.3831 50.6323 27.8664 49.7228 36.8408" stroke="black" stroke-width="2" stroke-linejoin="round"/>
<path fill-rule="evenodd" clip-rule="evenodd" d="M68.1032 42.1344C65.5266 45.6727 60.4175 48.4116 51.1755 48.7239L51.1719 48.7538C50.8928 48.7538 50.6175 48.7509 50.346 48.7452C50.0439 48.7506 49.7376 48.7534 49.4271 48.7537L49.3318 48.7539L49.3287 48.71C41.4717 48.3272 36.9763 45.4767 34.5983 41.744C34.1149 41.8184 33.6544 41.8969 33.2169 41.979C31.1996 42.3579 29.5979 42.8287 28.5216 43.3818C27.9929 43.6535 27.4876 43.9964 27.1473 44.4474C26.7693 44.9484 26.5793 45.6242 26.8531 46.3273C27.0923 46.9548 27.6293 47.3584 28.0606 47.6139C28.5349 47.8948 29.1194 48.1331 29.7445 48.3394C31.0008 48.7541 32.6009 49.0976 34.2441 49.3755C34.8896 49.4847 35.6005 49.628 36.3905 49.7873L36.3905 49.7873C39.6324 50.4408 44.2058 51.3628 51.0481 51.2951C57.9499 51.2267 62.2897 50.2481 65.4223 49.5418L65.4223 49.5418L65.4223 49.5418C66.152 49.3772 66.8163 49.2274 67.4321 49.1074C69.0411 48.7937 70.6422 48.3775 71.764 47.813C72.3094 47.5386 72.8925 47.1566 73.2525 46.6024C73.4453 46.3055 73.5829 45.9448 73.5944 45.5337C73.6059 45.1244 73.4902 44.7485 73.3067 44.4227C73.0876 44.0312 72.7614 43.7442 72.4476 43.5325C72.126 43.3155 71.753 43.1348 71.3614 42.9803C70.5795 42.672 69.6045 42.4227 68.541 42.2162C68.3974 42.1883 68.2514 42.1611 68.1032 42.1344Z" fill="black"/>
<path d="M51.1719 48.7536C52.026 41.5804 49.6985 26.8851 33.5553 25.4893C30.8863 33.244 30.6729 48.7536 51.1719 48.7536Z" stroke="black" stroke-width="2" stroke-linejoin="round"/>
</svg>
