<svg width="100" height="100" viewBox="0 0 100 100" fill="none" xmlns="http://www.w3.org/2000/svg">
<path d="M79.0004 28.3188L77.2852 28.9065" stroke="black" stroke-width="2" stroke-linecap="round"/>
<path d="M19.2685 62.5442C19.5083 61.5851 34.1542 34.7709 41.4471 21.4837C42.0283 20.4245 76.2135 27.9276 76.9628 28.3771C77.7121 28.8267 55.0839 72.5845 54.3347 73.3338C53.5854 74.083 18.9688 63.743 19.2685 62.5442Z" stroke="black" stroke-width="2" stroke-linecap="round"/>
<path d="M33.6169 68.1333C33.0339 68.8535 31.7444 70.4996 31.2505 71.3228C30.6333 72.3518 49.0202 77.3023 51.5923 78.1254C54.1645 78.9485 65.1006 81.8175 66.0266 81.5088C66.9526 81.2001 72.92 66.7959 73.9489 60.4169C74.9778 54.0379 74.8474 35.8289 74.5388 33.1538" stroke="black" stroke-width="2" stroke-linecap="round"/>
<path d="M76.9003 28.9818C77.3805 36.1154 78.0166 51.1198 77.7696 56.0584C77.4608 62.2316 74.9773 75.5402 74.1542 76.5691C73.4957 77.3922 70.4502 76.9121 69.0098 76.5691" stroke="black" stroke-width="2" stroke-linecap="round"/>
<path d="M41.6348 21.2088C42.295 20.6096 43.0818 20.4648 44.0237 20.4648C45.201 20.4649 79.76 27.823 80.2309 28.451C80.7018 29.0789 80.943 70.5719 80.943 71.7147C80.943 72.4464 78.279 71.7147 75.8643 71.4047" stroke="black" stroke-width="2" stroke-linecap="round"/>
<path d="M65.8037 50.8618L71.1437 51.8979" stroke="black" stroke-width="2" stroke-linecap="round"/>
<path d="M62.5098 55.7005C62.5098 55.7005 64.5974 55.644 65.8033 56.162C67.0093 56.68 68.8331 56.7951 68.8331 56.7951" stroke="black" stroke-width="2" stroke-linecap="round"/>
<path d="M60.4639 61.542C60.4639 61.542 66.5233 62.9968 67.8761 62.9767" stroke="black" stroke-width="2" stroke-linecap="round"/>
<path d="M57.2754 67.1211C57.2754 67.1211 63.1181 67.8608 64.6876 68.5558" stroke="black" stroke-width="2" stroke-linecap="round"/>
<path d="M48.0518 25.1767C46.1323 22.7596 46.9802 18.1383 49.7452 17.6328C52.5102 17.1273 53.745 20.7899 52.6835 22.7596" stroke="black" stroke-width="2" stroke-linecap="round"/>
<path d="M58.1768 27.331C56.2573 24.9139 57.1052 20.2926 59.8702 19.7871C62.6352 19.2816 63.87 22.9442 62.8085 24.9139" stroke="black" stroke-width="2" stroke-linecap="round"/>
<path d="M68.3008 29.6533C66.3813 27.2362 67.2292 22.6149 69.9942 22.1094C72.7592 21.6039 73.994 25.2664 72.9325 27.2362" stroke="black" stroke-width="2" stroke-linecap="round"/>
<path fill-rule="evenodd" clip-rule="evenodd" d="M19.2685 62.5442C19.5083 61.5851 34.1542 34.7709 41.4471 21.4837C42.0283 20.4245 76.2135 27.9276 76.9628 28.3771C77.7121 28.8267 55.0839 72.5845 54.3347 73.3338C53.5854 74.083 18.9688 63.743 19.2685 62.5442ZM43.0352 37.7882C42.5801 36.619 44.2256 33.2418 45.6339 31.2261C46.1326 30.5025 62.7199 34.6096 62.8519 35.1893C63.3056 37.1806 60.7232 41.7136 59.8631 42.2064C59.0031 42.6993 43.4902 38.9574 43.0352 37.7882ZM41.6897 43.4942C41.1557 43.3534 40.6087 43.6722 40.4679 44.2063C40.3271 44.7403 40.6458 45.2873 41.1799 45.4281C43.2288 45.9683 46.3418 46.7787 49.0223 47.4545C50.3619 47.7922 51.5976 48.0973 52.5397 48.3184C53.01 48.4287 53.4132 48.5196 53.7222 48.5834C53.876 48.6152 54.0137 48.6418 54.1282 48.6609C54.2191 48.676 54.3647 48.699 54.4973 48.699C55.0496 48.699 55.4973 48.2513 55.4973 47.699C55.4973 47.1589 55.0692 46.7188 54.5338 46.6996C54.5263 46.6987 54.5025 46.6957 54.4569 46.6881C54.3785 46.675 54.2688 46.6541 54.1267 46.6248C53.8437 46.5663 53.4605 46.4801 52.9967 46.3713C52.0706 46.1539 50.8474 45.852 49.5112 45.5151C46.8401 44.8418 43.7345 44.0333 41.6897 43.4942Z" fill="black"/>
</svg>
