<svg width="100" height="100" viewBox="0 0 100 100" fill="none" xmlns="http://www.w3.org/2000/svg">
<path d="M35.0779 48.4608C36.8286 44.8228 42.5497 44.1383 46.8628 43.947C51.1759 43.7558 59.6922 44.364 62.621 44.823C66.2819 45.3968 68.7267 49.89 67.0853 52.3586C65.4439 54.8271 49.526 55.667 43.918 54.757C37.8989 53.7804 32.8895 53.0083 35.0779 48.4608Z" stroke="black" stroke-width="2"/>
<path d="M34.222 51.5375C31.6199 52.5131 32.6407 39.8911 32.6407 39.8911" stroke="black" stroke-width="2" stroke-linecap="round"/>
<path d="M67.6068 51.5372C69.8587 52.2223 69.0328 39.9438 69.0328 39.9438" stroke="black" stroke-width="2" stroke-linecap="round"/>
<path d="M29.8116 38.5739C29.2789 37.6887 31.4017 35.0612 32.7517 33.779C33.1312 33.4101 34.4161 33.094 35.4701 33.779C36.5242 34.464 35.1927 38.5737 34.4161 39.206C33.6394 39.8383 30.4775 39.6805 29.8116 38.5739Z" stroke="black" stroke-width="2" stroke-linecap="round"/>
<path d="M70.9775 38.5739C71.5102 37.6887 69.3874 35.0612 68.0374 33.779C67.658 33.4101 66.373 33.094 65.319 33.779C64.265 34.464 65.5964 38.5737 66.373 39.206C67.1497 39.8383 70.3117 39.6805 70.9775 38.5739Z" stroke="black" stroke-width="2" stroke-linecap="round"/>
<path d="M49.4825 40.8538L49.4824 43.1183C50.9615 43.5712 51.2389 43.5657 52.7964 43.1183L52.7964 40.8538H49.4825Z" fill="black" stroke="black" stroke-width="2" stroke-linecap="round"/>
<path d="M34.1946 51.8528C33.9763 53.2421 35.5998 55.9961 41.9926 56.6433C49.9836 57.4522 57.9778 57.5765 63.4763 55.7723C66.8456 54.6667 68.2542 52.2882 68.1232 51.2927" stroke="black" stroke-width="2" stroke-linecap="round"/>
<path d="M47.6836 57.1172C47.6836 57.1172 47.6836 58.9919 47.6836 60.0462C47.6836 61.1005 53.666 60.9833 53.666 60.0462C53.666 59.109 53.666 56.6484 53.666 56.6484" stroke="black" stroke-width="2" stroke-linecap="round"/>
<path d="M49.5477 62.0732V66.3026C49.5477 66.3026 30.9658 70.5787 30.9658 71.1091C30.9658 71.6395 30.9658 73.2899 30.9658 73.2899" stroke="black" stroke-width="2" stroke-linecap="round"/>
<path d="M50.7237 66.0391C50.7237 66.0391 67.3462 70.3428 67.8076 70.9252C68.2691 71.5075 68.164 73.1272 68.164 73.1272" stroke="black" stroke-width="2" stroke-linecap="round"/>
<path d="M50.437 66.7612C50.437 66.7612 41.5285 77.2218 41.5285 77.9298C41.5285 78.6378 41.5285 79.8334 41.5285 79.8334" stroke="black" stroke-width="2" stroke-linecap="round"/>
<path d="M50.5821 66.7612C50.5821 66.7612 59.1897 77.0916 59.1887 77.6324C59.1876 78.1732 59.1897 79.417 59.1897 79.417" stroke="black" stroke-width="2" stroke-linecap="round"/>
<path d="M43.2019 49.4365C44.9682 50.5103 56.5541 50.98 58.6029 49.4365" stroke="black" stroke-width="2" stroke-linecap="round"/>
<path d="M33.2374 74.3711C33.0203 75.883 31.9577 76.5274 30.741 76.5274C29.5243 76.5274 28.6934 75.5268 28.6934 74.3711C28.6934 73.2154 29.6797 72.2786 30.8964 72.2786C32.113 72.2786 33.2374 73.2154 33.2374 74.3711Z" fill="black"/>
<path d="M39.5555 79.748C40.5522 78.5513 41.8121 78.5101 42.8596 79.098C43.9071 79.6859 44.0865 80.9489 43.4676 81.9439C42.8486 82.9388 41.4977 83.2687 40.4502 82.6808C39.4027 82.0929 38.9365 80.743 39.5555 79.748Z" fill="black"/>
<path d="M61.3867 80.2689C61.5586 81.786 60.6901 82.6541 59.5091 82.9319C58.3281 83.2097 57.2683 82.4281 56.9759 81.3063C56.6834 80.1845 57.4037 79.05 58.5848 78.7722C59.7658 78.4944 61.0942 79.1471 61.3867 80.2689Z" fill="black"/>
<path d="M66.8027 72.6521C68.2318 71.9551 69.3965 72.4134 70.0934 73.3607C70.7903 74.308 70.4027 75.5282 69.4054 76.1901C68.4081 76.8521 67.0347 76.6207 66.3378 75.6734C65.6409 74.7261 65.8053 73.314 66.8027 72.6521Z" fill="black"/>
<path d="M51.5117 61.3142V66.2665" stroke="black" stroke-width="2" stroke-linecap="round"/>
<path d="M50.7922 16.2546C45.819 16.2546 43.0921 16.3436 39.1544 19.2976C35.2166 22.2516 41.3185 38.1153 41.8848 38.9861C42.451 39.8568 59.1811 40.6356 59.7413 38.9861C60.3015 37.3365 66.7761 22.2579 62.4723 19.2976C58.1684 16.3372 57.0231 16.2546 50.7922 16.2546Z" stroke="black" stroke-width="2" stroke-linecap="round"/>
<path d="M40.1365 54.1862L34.8008 52.0681L34.084 52.9758L35.9953 55.1695L43.0035 57.2876L54.0733 57.5902C56.9669 57.1867 62.7938 56.3799 62.9531 56.3799C63.1123 56.3799 65.9661 54.5896 67.373 53.6944L68.2491 51.6143L64.9839 53.4298L58.0155 54.6401L48.0606 54.867L40.1365 54.1862Z" fill="black"/>
<path d="M29.8823 37.5535C28.8302 39.8017 29.8337 40.0783 31.1292 40.357C32.4247 40.6357 34.0709 40.9861 34.782 38.7285" stroke="black" stroke-width="2"/>
<path d="M70.8696 37.4534C71.9217 39.7017 70.905 40.078 69.6095 40.3567C68.314 40.6354 66.677 40.5971 65.8948 38.5362" stroke="black" stroke-width="2"/>
<path d="M38.139 26.6042C37.3647 22.8243 38.7095 17.2011 45.8888 17.2009C50.2869 17.2008 51.9835 17.2008 56.6328 17.201C58.6934 17.201 63.9231 18.6941 63.9231 23.8517" stroke="black" stroke-width="2"/>
</svg>
