<svg width="100" height="100" viewBox="0 0 100 100" fill="none" xmlns="http://www.w3.org/2000/svg">
<path fill-rule="evenodd" clip-rule="evenodd" d="M35.6983 81.2329C35.6228 81.4597 35.6259 81.7025 35.7184 81.9626C38.3409 84.615 40.9481 85.0733 45.4735 85.8687C46.3153 86.0167 47.2234 86.1763 48.2104 86.3639C54.2766 87.5168 69.8613 88.4931 74.4912 86.4762C79.1211 84.4592 79.4895 81.1031 72.0441 79.4036C70.7812 79.1153 69.5126 78.8464 68.1644 78.616C65.539 82.5059 61.1517 82.7869 54.3838 83.2204C53.3082 83.2893 52.1724 83.3621 50.9741 83.4538C45.1421 83.9021 39.6443 84.3236 35.6983 81.2329Z" fill="black"/>
<path d="M72.5365 51.3487C72.8519 52.988 73.1262 68.506 68.8689 76.7772C65.9912 82.4404 62.9165 82.8875 53.4557 83.5954C46.5178 84.117 37.53 83.7072 33.6275 78.4166C31.7353 75.8085 31.144 72.8279 30.5133 69.6982C28.8577 61.2407 29.7791 51.3486 29.7791 51.3486" stroke="black" stroke-width="2" stroke-linejoin="round"/>
<path fill-rule="evenodd" clip-rule="evenodd" d="M41.2003 47.2112C38.7055 47.4362 36.5666 47.7664 34.8119 48.1692C32.8594 48.6174 31.3106 49.1714 30.2724 49.8174C29.7548 50.1395 29.2965 50.5257 29.0009 50.9962C28.6865 51.4965 28.5615 52.0924 28.7527 52.7044C28.9347 53.2963 29.3794 53.7302 29.8115 54.0411C30.2618 54.3651 30.8223 54.644 31.4268 54.8875C32.6392 55.376 34.185 55.7838 35.7731 56.115C38.2123 56.6237 40.8541 56.9724 42.7554 57.1447C43.5175 57.2274 44.1804 57.2827 44.6871 57.3101C47.9733 57.4856 57.2628 57.2246 59.4375 57.0494L59.4389 57.0492C59.6506 57.0319 59.9527 57.0043 60.3242 56.9653C61.7519 56.8464 64.9833 56.5023 67.8411 55.8204C69.3979 55.4489 70.9474 54.9541 72.0308 54.2835C72.5284 53.9754 73.0088 53.5815 73.3195 53.0714H73.4962C73.4962 52.9682 73.4896 52.8674 73.4768 52.7687C73.7312 52.1818 73.7272 51.5377 73.442 50.9069L73.4405 50.9036C73.101 50.1599 72.3666 49.6676 71.6507 49.3238C70.8957 48.9613 69.9528 48.667 68.9247 48.4228C66.8626 47.9329 64.2919 47.6064 61.8086 47.3867C60.7611 47.294 59.7229 47.2198 58.7364 47.1604C58.5637 48.6802 58.3779 50.09 58.1912 51.3434H42.3855C42.2805 51.1327 41.8091 49.5693 41.2003 47.2112Z" fill="black"/>
<path d="M59.6016 25.5537L63.3941 23.4678" stroke="black" stroke-width="2" stroke-linecap="round" stroke-linejoin="round"/>
<path d="M38.594 35.0716C36.7195 35.7294 35.4962 35.6875 34.8499 35.008C34.0672 32.7704 34.0769 31.6279 33.2481 27.2996C32.7122 24.5005 31.7858 21.9619 28.9415 22.4147C27.4922 22.5 25.9806 24.8726 26.8747 29.5776C28.0539 35.7824 28.4704 39.9003 31.9979 41.8366C34.2303 43.0619 37.3345 43.4939 40.1622 42.8448" stroke="black" stroke-width="2" stroke-linejoin="round"/>
<path d="M58.1902 51.7231C59.821 40.7743 61.389 17.895 54.6151 13.9685C46.1478 9.06042 38.4331 13.2134 37.6804 23.0296C36.9278 32.8458 42.0082 50.968 42.3845 51.7231" stroke="black" stroke-width="2" stroke-linejoin="round"/>
<path d="M52.6406 35.4154L55.6747 31.8125" stroke="black" stroke-width="2" stroke-linecap="round" stroke-linejoin="round"/>
<path d="M29.9572 29.5189L30.915 32.2272" stroke="black" stroke-width="2" stroke-linecap="round" stroke-linejoin="round"/>
<path d="M23.5617 27.2588L26.7285 29.3617" stroke="black" stroke-width="2" stroke-linecap="round" stroke-linejoin="round"/>
<path d="M43.673 28.967L41.3975 25.5537" stroke="black" stroke-width="2" stroke-linecap="round" stroke-linejoin="round"/>
<path d="M26.0713 20.9084L27.2438 22.8668" stroke="black" stroke-width="2" stroke-linecap="round" stroke-linejoin="round"/>
<path d="M49.2959 22.7094L51.1922 19.1064" stroke="black" stroke-width="2" stroke-linecap="round" stroke-linejoin="round"/>
<path d="M39.1226 16.2893L36.4678 12.876" stroke="black" stroke-width="2" stroke-linecap="round" stroke-linejoin="round"/>
<path d="M55.6748 16.2897L59.6016 10.9991" stroke="black" stroke-width="2" stroke-linecap="round" stroke-linejoin="round"/>
</svg>
