<svg width="100" height="100" viewBox="0 0 100 100" fill="none" xmlns="http://www.w3.org/2000/svg">
<path d="M36.6016 53.0368C38.1736 49.7702 43.3105 49.1556 47.1832 48.9839C51.0559 48.8121 58.7026 49.3582 61.3324 49.7704C64.6196 50.2856 66.8147 54.32 65.3409 56.5365C63.8671 58.7531 49.5745 59.5072 44.5391 58.6901C39.1346 57.8132 34.6367 57.1199 36.6016 53.0368Z" stroke="black" stroke-width="2"/>
<path d="M35.8333 55.7987C33.4969 56.6748 34.4134 45.3416 34.4134 45.3416" stroke="black" stroke-width="2" stroke-linecap="round"/>
<path d="M65.8093 55.7987C67.8312 56.4139 67.0897 45.3892 67.0897 45.3892" stroke="black" stroke-width="2" stroke-linecap="round"/>
<path d="M31.8732 44.1591C31.3949 43.3642 33.301 41.005 34.5131 39.8537C34.8538 39.5225 36.0076 39.2386 36.954 39.8537C37.9004 40.4688 36.7049 44.1588 36.0076 44.7266C35.3102 45.2944 32.4711 45.1527 31.8732 44.1591Z" stroke="black" stroke-width="2" stroke-linecap="round"/>
<path d="M68.8355 44.1591C69.3138 43.3642 67.4078 41.005 66.1956 39.8537C65.8549 39.5225 64.7012 39.2386 63.7548 39.8537C62.8084 40.4688 64.0038 44.1588 64.7012 44.7266C65.3985 45.2944 68.2377 45.1527 68.8355 44.1591Z" stroke="black" stroke-width="2" stroke-linecap="round"/>
<path d="M49.536 22.5476L49.5359 23.9865C50.864 24.3931 51.1131 24.3882 52.5115 23.9865L52.5116 22.5476H49.536Z" fill="black" stroke="black" stroke-width="2" stroke-linecap="round"/>
<path d="M49.536 46.2061L49.5359 48.2394C50.864 48.646 51.1131 48.6411 52.5115 48.2394L52.5116 46.2061H49.536Z" fill="black" stroke="black" stroke-width="2" stroke-linecap="round"/>
<path d="M46.3866 15.653C43.4978 16.2849 44.3081 21.4662 45.9807 21.9717C47.6533 22.4772 51.8597 22.3929 55.5592 21.9717C59.2587 21.5505 57.8904 15.9901 55.5592 15.653C53.228 15.316 49.2754 15.021 46.3866 15.653Z" stroke="black" stroke-width="2" stroke-linecap="round"/>
<path d="M35.8091 56.0822C35.613 57.3297 37.0708 59.8025 42.8108 60.3836C49.9859 61.1099 57.1639 61.2215 62.1009 59.6015C65.1262 58.6088 66.391 56.4731 66.2733 55.5793" stroke="black" stroke-width="2" stroke-linecap="round"/>
<path d="M47.9199 60.8091C47.9199 60.8091 47.9199 62.4923 47.9199 63.439C47.9199 64.3856 53.2915 64.2804 53.2915 63.439C53.2915 62.5975 53.2915 60.3882 53.2915 60.3882" stroke="black" stroke-width="2" stroke-linecap="round"/>
<path d="M49.5936 65.259V69.0565C49.5936 69.0565 32.9091 72.896 32.9091 73.3723C32.9091 73.8485 32.9091 75.3304 32.9091 75.3304" stroke="black" stroke-width="2" stroke-linecap="round"/>
<path d="M50.6502 68.8201C50.6502 68.8201 65.5755 72.6844 65.9898 73.2073C66.4042 73.7302 66.3098 75.1845 66.3098 75.1845" stroke="black" stroke-width="2" stroke-linecap="round"/>
<path d="M50.3924 69.4683C50.3924 69.4683 42.3936 78.8608 42.3936 79.4965C42.3936 80.1322 42.3936 81.2057 42.3936 81.2057" stroke="black" stroke-width="2" stroke-linecap="round"/>
<path d="M50.5233 69.4683C50.5233 69.4683 58.252 78.7438 58.2511 79.2294C58.2502 79.715 58.252 80.8318 58.252 80.8318" stroke="black" stroke-width="2" stroke-linecap="round"/>
<path d="M43.8964 53.9126C45.4823 54.8767 55.8852 55.2985 57.7248 53.9126" stroke="black" stroke-width="2" stroke-linecap="round"/>
<path d="M34.9492 76.3012C34.7543 77.6588 33.8002 78.2373 32.7077 78.2373C31.6153 78.2373 30.8691 77.3389 30.8691 76.3012C30.8691 75.2636 31.7547 74.4224 32.8472 74.4224C33.9396 74.4224 34.9492 75.2636 34.9492 76.3012Z" fill="black"/>
<path d="M40.6226 81.1293C41.5175 80.0548 42.6488 80.0178 43.5893 80.5457C44.5299 81.0736 44.691 82.2076 44.1352 83.1009C43.5794 83.9943 42.3665 84.2906 41.426 83.7626C40.4854 83.2347 40.0668 82.0227 40.6226 81.1293Z" fill="black"/>
<path d="M60.224 81.5969C60.3783 82.9591 59.5986 83.7386 58.5381 83.988C57.4777 84.2374 56.5261 83.5356 56.2635 82.5284C56.001 81.5211 56.6477 80.5024 57.7082 80.253C58.7686 80.0036 59.9614 80.5896 60.224 81.5969Z" fill="black"/>
<path d="M65.0872 74.758C66.3703 74.1322 67.4161 74.5437 68.0419 75.3943C68.6676 76.2449 68.3197 77.3404 67.4242 77.9348C66.5287 78.5292 65.2955 78.3214 64.6697 77.4709C64.044 76.6203 64.1917 75.3524 65.0872 74.758Z" fill="black"/>
<path d="M51.3575 64.5776V69.0243" stroke="black" stroke-width="2" stroke-linecap="round"/>
<path d="M50.9502 25.5371C46.4848 25.5371 43.7971 24.1987 40.2614 26.8511C36.7257 29.5035 42.2046 43.7474 42.713 44.5292C43.2215 45.3111 58.2433 46.0104 58.7463 44.5292C59.2493 43.0481 65.0629 29.5091 61.1984 26.851C57.334 24.193 56.545 25.5371 50.9502 25.5371Z" stroke="black" stroke-width="2" stroke-linecap="round"/>
<path d="M41.1445 58.1773L36.3536 56.2755L35.71 57.0904L37.4261 59.0602L43.7188 60.962L53.6583 61.2337C56.2564 60.8714 61.4883 60.1469 61.6314 60.1469C61.7744 60.1469 64.3367 58.5394 65.6 57.7357L66.3866 55.8679L63.4548 57.498L57.1979 58.5848L48.2595 58.7886L41.1445 58.1773Z" fill="black"/>
<path d="M31.9368 43.2429C30.9922 45.2616 31.8932 45.5099 33.0564 45.7602C34.2196 46.0104 35.6978 46.3251 36.3363 44.298" stroke="black" stroke-width="2"/>
<path d="M68.7385 43.1531C69.6831 45.1718 68.7703 45.5097 67.607 45.7599C66.4438 46.0102 64.9739 45.9758 64.2716 44.1253" stroke="black" stroke-width="2"/>
<path d="M39.3499 33.4114C38.6547 30.0175 39.75 24.6798 46.1597 25.3656C50.8502 25.8675 51.8928 25.8374 56.0008 25.3656C57.8389 25.1545 62.5013 26.3091 62.5013 30.94" stroke="black" stroke-width="2"/>
</svg>
