<svg width="100" height="100" viewBox="0 0 100 100" fill="none" xmlns="http://www.w3.org/2000/svg">
<g clip-path="url(#clip0_65_20425)">
<path d="M66.6261 52.8759C63.2301 52.8286 59.145 52.2168 56.5135 52.0986C49.2704 51.773 34.0394 51.8063 26.4937 50.8853" stroke="black" stroke-width="2" stroke-linecap="round"/>
<path d="M10.2092 52.2948L29.5881 30.2875" stroke="black" stroke-width="2" stroke-linecap="round"/>
<path d="M76.5212 36.4239C76.5212 36.4239 71.6188 35.4072 64.5263 34.4337C57.2525 33.4354 48.0136 32.5974 40.1528 31.3528C30.4759 29.8207 23.7377 28.0661 23.3959 28.1807C20.1286 29.2766 3.60273 49.3453 4.06007 51.6478C4.14195 52.06 71.8099 61.057 71.8099 61.057" stroke="black" stroke-width="2" stroke-linecap="round"/>
<path d="M88.1799 43.9558C90.3709 44.4053 91.4648 48.0951 90.6232 52.1971C89.7816 56.2991 87.3232 59.26 85.1322 58.8105C82.9412 58.361 81.8473 54.6712 82.6889 50.5692C83.5305 46.4672 85.9889 43.5062 88.1799 43.9558Z" stroke="black" stroke-width="2" stroke-linecap="round"/>
<path d="M87.015 43.9558C89.206 44.4053 90.2999 48.0951 89.4583 52.1971C88.6167 56.2991 86.1583 59.2601 83.9673 58.8105" stroke="black" stroke-width="2" stroke-linecap="round"/>
<path d="M80.956 40.8483C80.2078 38.5082 78.8777 36.8935 77.1229 36.5334C73.4931 35.7887 69.4203 40.694 68.026 47.4897C66.6317 54.2854 68.444 60.3981 72.0738 61.1429C73.5495 61.4456 75.6056 60.627 77.018 59.3147" stroke="black" stroke-width="2" stroke-linecap="round"/>
<path d="M78.7487 41.281C76.2555 40.7695 73.4579 44.1389 72.5002 48.8068C71.5425 53.4747 72.7873 57.6735 75.2806 58.185" stroke="black" stroke-width="2" stroke-linecap="round"/>
<path d="M83.0521 47.3481C82.3107 47.102 77.0648 45.5516 74.6365 45.0674M82.0059 53.4915L73.0736 53.0273" stroke="black" stroke-width="2" stroke-linecap="round"/>
<path d="M78.7022 41.2363L88.132 43.9728M75.0147 58.211L85.0186 58.8122" stroke="black" stroke-width="2" stroke-linecap="round"/>
<path d="M49.0406 33.5918C48.7575 33.8247 46.3312 36.9769 46.0225 37.0911C45.7138 37.2052 41.2518 36.6724 40.9175 36.7975C40.5831 36.9226 37.1244 40.7183 37.2885 41.1404C37.4525 41.5624 42.2407 41.2118 42.6022 41.3536C42.9636 41.4954 39.4736 45.4025 39.9491 45.7608C40.4246 46.119 44.9358 46.1462 45.3387 46.052C45.7416 45.9577 47.7242 42.8858 48.2755 42.682C48.8268 42.4781 53.0305 43.1854 53.4049 42.7413C53.7794 42.2973 57.2705 38.3164 56.9849 37.9713C56.6994 37.6263 51.595 38.0144 51.3179 37.7995C51.0409 37.5847 54.4168 33.8429 54.0987 33.7703C53.7806 33.6978 49.3237 33.3588 49.0406 33.5918Z" stroke="black" stroke-width="2" stroke-linecap="round"/>
<path d="M74.1733 68.1451C68.7883 68.7082 29.435 59.7431 4.50391 52.5293C27.7529 54.8851 73.013 61.5306 73.013 61.5306L76.7277 58.8686L85.2801 58.8137L91.5397 52.9275C91.5397 52.9275 102.306 55.0876 97.9895 58.8686C93.6731 62.6496 84.191 62.9075 83.0887 63.3151C81.9864 63.7227 79.5583 67.582 74.1733 68.1451Z" fill="black"/>
</g>
<defs>
<clipPath id="clip0_65_20425">
<rect width="100" height="100" fill="white"/>
</clipPath>
</defs>
</svg>
