<svg width="100" height="100" viewBox="0 0 100 100" fill="none" xmlns="http://www.w3.org/2000/svg">
<path d="M33.4302 30.0005C33.4302 33.7241 33.4302 39.2612 33.4302 43.7613C33.4302 48.2614 27.0209 52.1551 23.9006 55.2244C20.3763 58.6912 18.6495 66.2952 20.3762 71.1301C22.103 75.9649 26.0867 80.5408 28.1588 82.0085C30.2309 83.4763 46.5335 83.6788 48.5221 82.0085C50.2114 80.5895 55.4156 73.4258 56.1926 68.5909C56.9697 63.756 54.7381 57.9963 51.8026 54.5428M44.5506 30.0005C44.5506 33.1772 44.5506 40.3768 44.5506 43.7613C44.5506 45.5812 45.3494 47.1915 46.4935 48.7106" stroke="black" stroke-width="2"/>
<path d="M32.3436 29.9556C32.5919 30.825 35.8317 30.6916 37.5286 30.6916C38.7522 30.6916 44.7728 30.8678 45.3491 30.5316C45.9254 30.1954 45.8965 25.7794 45.0801 25.3472C44.2637 24.9151 34.4958 24.8144 33.1031 25.0545C31.4328 25.3425 32.0877 29.0595 32.3436 29.9556Z" stroke="black" stroke-width="2"/>
<path d="M33.7461 24.8372C33.6142 23.8591 33.4295 21.8566 33.7461 21.672C34.1418 21.4411 43.7695 21.3753 44.0333 21.672C44.2443 21.9094 44.1542 23.881 44.1982 24.8372" stroke="black" stroke-width="2"/>
<path d="M34.3187 15.6287C33.8786 16.123 34.7954 19.7642 35.3088 21.5229H42.5137C42.8803 19.6849 43.5037 15.8759 43.0637 15.3435C42.5137 14.678 34.8688 15.0107 34.3187 15.6287Z" fill="black" stroke="black" stroke-width="2"/>
<path d="M42.1286 52.0584C46.5807 47.4844 52.4164 46.113 54.7073 47.8655C56.9982 49.618 57.6042 52.0584 55.5458 57.2422C53.4875 62.426 45.5591 66.8478 42.1286 65.7043C38.6981 64.5607 36.5634 57.7759 42.1286 52.0584Z" stroke="black" stroke-width="2"/>
<path d="M61.4639 63.3233C61.696 57.3834 64.881 52.7985 67.5586 52.5843C70.2362 52.3701 72.176 53.6818 73.9808 58.5523C75.7857 63.4229 73.0525 71.4231 69.9655 72.7688C66.8785 74.1145 61.1738 70.748 61.4639 63.3233Z" stroke="black" stroke-width="2"/>
<path d="M55.4521 48.7112C56.7284 46.9564 60.5569 43.5107 65.6615 43.766C72.0423 44.0851 75.791 42.0114 77.2267 40.7352C78.3752 39.7143 79.5663 36.4281 80.0183 34.9126" stroke="black" stroke-width="2" stroke-linecap="round"/>
<path d="M74.6366 42.3584C71.227 43.8915 69.2278 47.1316 68.7823 48.6167C68.3367 50.1017 68.2563 51.7724 68.2718 52.4221" stroke="black" stroke-width="2"/>
<path d="M74.953 42.4926C75.1275 43.6268 75.0996 45.9227 74.953 46.6282C74.4743 48.9319 74.7435 52.7533 76.8376 54.6903C78.9316 56.6273 79.3504 57.6743 79.6645 57.3602C79.9787 57.0461 80.921 53.8004 79.6645 50.8163C78.4081 47.8323 75.5295 46.1643 75.0712 44.2712" stroke="black" stroke-width="2"/>
<path d="M70.9505 43.1003C70.4922 42.6922 70.3779 42.7847 69.6114 42.0563M69.6114 42.0563C68.2069 40.7214 65.9408 38.3111 64.7442 36.894C62.432 34.1558 54.3102 33.0555 53.86 33.0555C52.334 33.0557 53.9428 38.7967 58.8105 40.1962C63.6782 41.5956 67.709 41.1512 69.6114 42.0563Z" stroke="black" stroke-width="2"/>
<path d="M27.4852 81.6578C24.7286 81.6578 22.0739 82.8849 26.4578 83.9243C30.1569 84.8014 48.1219 85.0541 50.5624 83.9243C52.5148 83.0205 49.9158 82.3778 48.5599 82.0916" stroke="black" stroke-width="2"/>
<path d="M25.0357 82.3748L27.8288 81.8304L32.776 83.0613L43.4043 83.2507L48.2805 82.1144L50.4346 82.5642C50.687 82.8877 51.211 83.5584 51.2867 83.6531C51.3625 83.7477 50.7502 84.3553 50.4346 84.6472L44.849 85.0218L27.2883 84.4879L24.3965 83.5584L25.0357 82.3748Z" fill="black"/>
<path fill-rule="evenodd" clip-rule="evenodd" d="M67.5583 52.5837C64.8807 52.7979 61.6958 57.3828 61.4637 63.3227C61.1736 70.7474 66.8782 74.1139 69.9652 72.7682C73.0522 71.4225 75.7854 63.4223 73.9806 58.5517C72.1758 53.6812 70.2359 52.3695 67.5583 52.5837ZM71.67 56.4811C71.2652 56.1054 70.6325 56.1289 70.2567 56.5336C69.881 56.9383 69.9045 57.5711 70.3092 57.9468L70.3088 57.9465C70.3088 57.9465 70.3089 57.9466 70.3092 57.9469C70.3114 57.9491 70.3236 57.9613 70.3448 57.9863C70.3694 58.0151 70.4006 58.0544 70.4361 58.1036C70.5076 58.2025 70.5883 58.33 70.6633 58.4761C70.8191 58.7799 70.917 59.0991 70.917 59.3778C70.917 59.9301 71.3647 60.3778 71.917 60.3778C72.4693 60.3778 72.917 59.9301 72.917 59.3778C72.917 58.673 72.6842 58.0338 72.4428 57.5632C72.2059 57.1014 71.9093 56.7033 71.67 56.4811Z" fill="black"/>
<path fill-rule="evenodd" clip-rule="evenodd" d="M42.1286 52.0581C46.5807 47.4841 52.4164 46.1126 54.7073 47.8652C56.9982 49.6177 57.6042 52.0581 55.5458 57.2419C53.4875 62.4257 45.5591 66.8474 42.1286 65.7039C38.6981 64.5604 36.5634 57.7755 42.1286 52.0581ZM44.849 52.8426C45.2268 53.2455 45.2064 53.8783 44.8034 54.256C43.5232 55.4563 42.9444 56.9655 42.8294 57.4828C42.7096 58.0219 42.1755 58.3619 41.6363 58.2421C41.0972 58.1223 40.7573 57.5881 40.8771 57.049C41.0643 56.2065 41.815 54.3162 43.4356 52.7969C43.8385 52.4192 44.4713 52.4396 44.849 52.8426ZM47.418 51.9403C47.4996 51.8703 47.6344 51.7633 47.7581 51.6801C47.7925 51.657 47.8201 51.6397 47.8409 51.6274C48.2866 51.5267 48.6195 51.1283 48.6196 50.6521C48.6196 50.0998 48.172 49.652 47.6197 49.652C47.3258 49.6519 47.0837 49.7686 46.9937 49.8129C46.8653 49.8762 46.7427 49.9527 46.6418 50.0206C46.4377 50.1579 46.2403 50.3155 46.1162 50.4219C45.697 50.7814 45.6485 51.4127 46.0079 51.832C46.3674 52.2513 46.9987 52.2998 47.418 51.9403Z" fill="black"/>
<path d="M38.8739 63.5709C29.3812 63.5709 26.3963 64.3558 23.9508 65.6099C17.5548 70.2188 50.1409 70.2092 52.451 67.9613C54.3974 66.0674 51.2898 63.571 38.8739 63.5709Z" stroke="black" stroke-width="2" stroke-linecap="round"/>
<path d="M23.0029 66.8838C23.6927 70.1517 26.2772 76.0723 29.7512 78.5594C32.5539 80.5659 44.0836 80.5659 46.4086 79.1964C47.4423 78.5875 52.4565 69.7715 52.912 67.3215" stroke="black" stroke-width="2" stroke-linecap="round"/>
</svg>
