<svg width="100" height="100" viewBox="0 0 100 100" fill="none" xmlns="http://www.w3.org/2000/svg">
<path d="M50.668 23.7329L50.668 42.139L22.1591 42.139C22.1591 42.139 21.1605 27.0042 22.1591 24.6873C23.1578 22.3705 50.668 23.7329 50.668 23.7329Z" stroke="black" stroke-width="2"/>
<path d="M43.0127 42.3436C43.0127 38.7183 39.7934 35.7793 35.8223 35.7793C31.8511 35.7793 28.6318 38.7183 28.6318 42.3436" stroke="black" stroke-width="2"/>
<path d="M32.4189 32.1941C32.4189 30.3152 33.9421 28.792 35.8211 28.792V28.792C37.7 28.792 39.2232 30.3152 39.2232 32.1941V32.3782C39.2232 34.2571 37.7 35.7803 35.8211 35.7803V35.7803C33.9421 35.7803 32.4189 34.2571 32.4189 32.3782V32.1941Z" stroke="black" stroke-width="2"/>
<path d="M50.668 42.1387L50.668 60.5448L22.1591 60.5448L22.1591 42.1387L50.668 42.1387Z" stroke="black" stroke-width="2"/>
<path d="M43.0127 60.7499C43.0127 57.1245 39.7934 54.1855 35.8223 54.1855C31.8511 54.1855 28.6318 57.1245 28.6318 60.7499" stroke="black" stroke-width="2"/>
<path d="M31.8135 49.5428C31.8135 47.6638 33.3367 46.1406 35.2156 46.1406V46.1406C37.0946 46.1406 38.6178 47.6638 38.6178 49.5428V50.7833C38.6178 52.6623 37.0946 54.1855 35.2156 54.1855V54.1855C33.3367 54.1855 31.8135 52.6623 31.8135 50.7833V49.5428Z" stroke="black" stroke-width="2"/>
<path d="M79.1768 42.1387L79.1768 60.5448L50.6679 60.5448L50.6679 42.1387L79.1768 42.1387Z" stroke="black" stroke-width="2"/>
<path d="M70.8474 60.7499C70.8474 57.1245 67.779 54.1855 63.994 54.1855C60.209 54.1855 57.1406 57.1245 57.1406 60.7499" stroke="black" stroke-width="2"/>
<path d="M60.9287 50.7661C60.9287 48.7951 62.5265 47.1973 64.4975 47.1973H64.7565C66.5073 47.1973 68.1373 48.3821 68.1887 50.1322C68.1985 50.465 68.1929 50.8029 68.1719 51.1556C68.0657 52.9342 66.4512 54.1856 64.6694 54.1856H64.3482C62.4597 54.1856 60.9287 52.6546 60.9287 50.7661V50.7661Z" stroke="black" stroke-width="2"/>
<path d="M78.9768 23.7324C79.0872 23.7324 79.1768 23.822 79.1768 23.9324L79.1768 42.1385L50.6679 42.1385L50.6679 23.7324L78.9768 23.7324Z" stroke="black" stroke-width="2"/>
<path d="M71.5215 42.3436C71.5215 38.7183 68.3022 35.7793 64.3311 35.7793C60.3599 35.7793 57.1406 38.7183 57.1406 42.3436" stroke="black" stroke-width="2"/>
<path d="M60.9287 32.1932C60.9287 30.3142 62.4519 28.791 64.3309 28.791V28.791C66.2098 28.791 67.733 30.3142 67.733 32.1932V32.3772C67.733 34.2561 66.2098 35.7793 64.3309 35.7793V35.7793C62.4519 35.7793 60.9287 34.2561 60.9287 32.3772V32.1932Z" stroke="black" stroke-width="2"/>
<path fill-rule="evenodd" clip-rule="evenodd" d="M18.6732 73.5453C18.3878 74.6792 18.3051 75.4762 18.5839 75.6045C19.7345 76.1339 83.9606 77.1632 84.9341 76.3838C85.9076 75.6045 79.5262 61.5361 79.5262 61.5361L79.5205 61.5363C80.5332 64.5525 83.4091 73.2957 82.8078 73.5527C82.0808 73.8635 19.472 73.7828 18.6903 73.5527C18.6843 73.551 18.6786 73.5485 18.6732 73.5453Z" fill="black"/>
<path d="M18.5839 75.6045L19.0019 74.696H19.0019L18.5839 75.6045ZM18.6732 73.5453L19.1871 72.6874L18.0321 71.9956L17.7035 73.3012L18.6732 73.5453ZM84.9341 76.3838L85.559 77.1645L85.5591 77.1645L84.9341 76.3838ZM79.5262 61.5361L80.4369 61.123L80.1623 60.5176L79.4978 60.5365L79.5262 61.5361ZM79.5205 61.5363L79.4921 60.5367L78.143 60.5751L78.5725 61.8546L79.5205 61.5363ZM82.8078 73.5527L83.2009 74.4722V74.4722L82.8078 73.5527ZM18.6903 73.5527L18.408 74.5121L18.408 74.5121L18.6903 73.5527ZM19.0019 74.696C19.338 74.8506 19.4081 75.1368 19.4115 75.1507C19.419 75.1813 19.4069 75.1488 19.4152 75.0121C19.431 74.7499 19.5045 74.3394 19.643 73.7894L17.7035 73.3012C17.5565 73.8851 17.446 74.4401 17.4188 74.8918C17.4055 75.1121 17.4072 75.3738 17.4687 75.6254C17.526 75.8602 17.6904 76.2941 18.1659 76.5129L19.0019 74.696ZM84.3091 75.6032C84.4184 75.5156 84.5168 75.4776 84.5409 75.4683C84.5771 75.4544 84.6008 75.4487 84.6021 75.4484C84.6047 75.4477 84.5828 75.4529 84.5235 75.4612C84.4084 75.4772 84.2279 75.4945 83.9743 75.5115C83.4715 75.5453 82.7479 75.5735 81.8263 75.5961C79.9867 75.6412 77.4029 75.6629 74.3172 75.6653C68.148 75.6701 59.9979 75.598 51.8392 75.485C43.6809 75.372 35.5185 75.2181 29.3252 75.0595C26.2279 74.9802 23.627 74.8997 21.7666 74.8228C20.8353 74.7842 20.0965 74.7468 19.576 74.7113C19.3145 74.6935 19.1182 74.6768 18.9844 74.6617C18.9165 74.6541 18.8763 74.6482 18.857 74.6448C18.8037 74.6354 18.8887 74.6439 19.0019 74.696L18.1659 76.5129C18.315 76.5815 18.4668 76.6068 18.5101 76.6145C18.5874 76.6281 18.6736 76.6394 18.761 76.6492C18.9377 76.6691 19.1675 76.6881 19.4399 76.7067C19.9871 76.744 20.747 76.7823 21.684 76.8211C23.56 76.8987 26.1731 76.9794 29.274 77.0588C35.4772 77.2177 43.6478 77.3717 51.8115 77.4848C59.9749 77.5979 68.1358 77.6701 74.3188 77.6653C77.4091 77.6629 80.0117 77.6412 81.8753 77.5955C82.8053 77.5727 83.5625 77.5436 84.108 77.5071C84.3785 77.4889 84.6141 77.4679 84.7992 77.4421C84.8901 77.4295 84.9892 77.4129 85.0831 77.3897C85.1219 77.3801 85.3536 77.329 85.559 77.1645L84.3091 75.6032ZM79.5262 61.5361C78.6155 61.9492 78.6155 61.9492 78.6156 61.9493C78.6156 61.9494 78.6157 61.9495 78.6157 61.9497C78.6159 61.9501 78.6162 61.9507 78.6166 61.9515C78.6173 61.9531 78.6184 61.9556 78.6199 61.9589C78.6229 61.9654 78.6273 61.9753 78.6333 61.9885C78.6451 62.0147 78.6628 62.0538 78.6859 62.105C78.732 62.2074 78.7997 62.358 78.8855 62.5502C79.0573 62.9345 79.3017 63.4848 79.5921 64.1477C80.1732 65.4743 80.9368 67.2487 81.6692 69.0452C82.4037 70.8467 83.0986 72.6504 83.5482 74.0424C83.7747 74.7438 83.9273 75.3055 83.9965 75.6964C84.032 75.8969 84.0366 76.0044 84.0348 76.0425C84.0296 76.1548 84.0035 75.8478 84.3091 75.6032L85.5591 77.1645C85.9863 76.8224 86.0244 76.3141 86.0327 76.1348C86.0444 75.8812 86.0117 75.6065 85.9659 75.3477C85.8725 74.8201 85.6862 74.1548 85.4514 73.4277C84.9782 71.9627 84.2604 70.1032 83.5212 68.2902C82.78 66.4722 82.0091 64.6808 81.4241 63.3453C81.1314 62.6771 80.8849 62.1223 80.7115 61.7342C80.6248 61.5401 80.5563 61.3877 80.5094 61.2836C80.486 61.2316 80.4679 61.1916 80.4557 61.1646C80.4496 61.1511 80.4449 61.1408 80.4418 61.1338C80.4402 61.1303 80.439 61.1277 80.4382 61.1259C80.4378 61.125 80.4375 61.1243 80.4373 61.1238C80.4371 61.1236 80.4371 61.1234 80.437 61.1233C80.4369 61.1231 80.4369 61.123 79.5262 61.5361ZM79.549 62.5359L79.5546 62.5357L79.4978 60.5365L79.4921 60.5367L79.549 62.5359ZM78.5725 61.8546C79.078 63.3601 80.0455 66.2864 80.8107 68.8638C81.1944 70.1561 81.521 71.3402 81.7141 72.2081C81.812 72.6482 81.8671 72.9702 81.8844 73.1716C81.8936 73.2797 81.8867 73.2975 81.892 73.2617C81.8946 73.2441 81.9073 73.1613 81.9608 73.0548C82.0166 72.944 82.1495 72.7466 82.4147 72.6332L83.2009 74.4722C83.5037 74.3428 83.6674 74.1128 83.7475 73.9536C83.8254 73.7988 83.8559 73.6519 83.8703 73.5555C83.899 73.3619 83.8909 73.1625 83.8771 73.001C83.8482 72.6633 83.7693 72.2365 83.6664 71.7737C83.4577 70.8356 83.1148 69.5973 82.728 68.2946C81.9524 65.6821 80.9757 62.7286 80.4685 61.218L78.5725 61.8546ZM82.4147 72.6332C82.4784 72.606 82.5297 72.5924 82.5497 72.5873C82.5745 72.581 82.5931 72.5774 82.6017 72.5759C82.6185 72.5729 82.6254 72.5724 82.6161 72.5734C82.5987 72.5754 82.5616 72.5787 82.4982 72.5828C82.3739 72.5907 82.1896 72.5989 81.9436 72.607C81.4539 72.6232 80.7508 72.638 79.8609 72.6515C78.0828 72.6785 75.5783 72.7 72.5872 72.7162C66.606 72.7487 58.6896 72.7606 50.7702 72.7556C42.8509 72.7505 34.9307 72.7286 28.942 72.6935C25.9474 72.676 23.4377 72.6552 21.6532 72.6316C20.7603 72.6198 20.0525 72.6074 19.5574 72.5944C19.309 72.5879 19.1198 72.5814 18.9896 72.575C18.9237 72.5718 18.8804 72.569 18.8554 72.5669C18.7877 72.5612 18.8685 72.5628 18.9726 72.5934L18.408 74.5121C18.5364 74.5499 18.6719 74.5585 18.6881 74.5599C18.7469 74.5649 18.8168 74.569 18.8923 74.5727C19.0449 74.5801 19.2517 74.5871 19.505 74.5937C20.0132 74.607 20.7314 74.6196 21.6267 74.6314C23.4186 74.6551 25.9341 74.6759 28.9303 74.6935C34.9235 74.7286 42.8474 74.7505 50.7689 74.7556C58.6903 74.7606 66.6113 74.7487 72.5981 74.7162C75.5911 74.6999 78.1033 74.6785 79.8913 74.6513C80.7845 74.6377 81.5018 74.6227 82.0095 74.6059C82.2621 74.5976 82.4707 74.5886 82.6261 74.5787C82.7025 74.5738 82.7769 74.568 82.8417 74.5606C82.8735 74.557 82.9142 74.5518 82.9573 74.544C82.9786 74.5402 83.0839 74.5223 83.2009 74.4722L82.4147 72.6332ZM18.9726 72.5934C19.0487 72.6158 19.1208 72.6477 19.1871 72.6874L18.1594 74.4031C18.2365 74.4493 18.3198 74.4861 18.408 74.5121L18.9726 72.5934Z" fill="black"/>
<path d="M22.1579 60.8037L18.9919 72.2724C18.8838 72.7021 18.7466 73.6076 19.0622 73.7919" stroke="black" stroke-width="2"/>
</svg>
