<svg width="100" height="100" viewBox="0 0 100 100" fill="none" xmlns="http://www.w3.org/2000/svg">
<path d="M41.3157 51.0469C41.2457 52.7349 41.3657 57.1209 41.2457 59.5769C41.1957 60.5719 41.1857 62.8679 41.1357 63.8489" stroke="black" stroke-width="2" stroke-miterlimit="10" stroke-linecap="round" stroke-linejoin="round"/>
<path d="M53.2559 50.5953C53.3059 50.3633 52.9658 56.4403 52.9458 56.7013C52.7858 58.5783 52.7258 60.8733 52.7158 62.9293C52.7158 63.5703 55.6759 63.3693 55.9059 63.3573C57.1459 63.2923 57.2958 63.2273 58.9158 63.2803" stroke="black" stroke-width="2" stroke-miterlimit="10" stroke-linecap="round" stroke-linejoin="round"/>
<path d="M53.9062 56.5586C55.1463 56.7126 58.3662 56.6576 58.3662 56.6576" stroke="black" stroke-width="2" stroke-miterlimit="10" stroke-linecap="round" stroke-linejoin="round"/>
<path d="M63.7259 63.4882C63.6759 60.3742 63.9759 58.1852 63.9059 55.5572C63.8759 54.6092 63.9859 52.7882 64.0859 51.1232C64.1059 50.7702 67.7658 56.8502 67.9358 57.2502C68.6358 58.9262 72.3359 63.5072 72.3359 63.5072C72.3359 63.5072 72.3158 58.0972 72.5558 55.5202C72.6358 54.6572 72.5858 50.8422 72.4258 51.0512" stroke="black" stroke-width="2" stroke-miterlimit="10" stroke-linecap="round" stroke-linejoin="round"/>
<path d="M53.356 50.6103C55.616 50.5483 57.6159 50.5983 59.1659 50.9003" stroke="black" stroke-width="2" stroke-miterlimit="10" stroke-linecap="round" stroke-linejoin="round"/>
<path d="M41.4258 51.04C44.7858 48.78 51.2158 52.865 47.8658 56.452C46.2058 58.229 44.1958 57.388 42.1658 57.44" stroke="black" stroke-width="2" stroke-miterlimit="10" stroke-linecap="round" stroke-linejoin="round"/>
<path d="M35.7959 52.1432C30.3959 45.5502 23.376 57.5333 29.696 62.3983C34.666 66.2323 39.8959 57.1452 35.7959 52.1432Z" stroke="black" stroke-width="2" stroke-miterlimit="10" stroke-linecap="round" stroke-linejoin="round"/>
<path d="M52.2561 38.148C40.2961 38.138 27.7061 38.279 23.3161 38.46C19.1461 38.632 18.3261 41.599 18.0661 44.21C17.7961 46.822 18.4261 64.718 18.6561 68.71C18.8761 72.359 20.4561 75.383 24.3461 75.71C28.2361 76.038 67.3961 75.743 71.3761 75.773C75.3561 75.803 79.7661 75.568 80.3761 73.21C81.3361 69.47 81.1161 50.183 81.0961 44.617C81.0761 40.537 80.3661 39.51 77.3461 38.773C75.5361 38.331 64.2061 38.157 52.2561 38.148Z" stroke="black" stroke-width="2" stroke-miterlimit="10" stroke-linecap="round" stroke-linejoin="round"/>
<path d="M18.666 68.8691C19.086 71.2741 17.8261 77.7811 26.3561 77.5891C34.8861 77.3981 60.756 78.0371 74.416 77.3161C79.936 77.0261 80.4661 77.3061 80.7061 71.0851" stroke="black" stroke-width="2" stroke-miterlimit="10" stroke-linecap="round" stroke-linejoin="round"/>
<path d="M29.4561 38.0734C29.4561 38.0734 47.3161 25.2764 48.6561 24.8974C49.9961 24.5194 70.296 38.1504 70.296 38.1504" stroke="black" stroke-width="2" stroke-miterlimit="10" stroke-linecap="round" stroke-linejoin="round"/>
<path d="M47.4859 25.3496C46.0659 23.0096 49.5359 22.2036 50.2359 23.9176C50.9359 25.6306 48.3559 26.7826 47.4859 25.3496Z" fill="black" stroke="black" stroke-width="2" stroke-miterlimit="10" stroke-linecap="round" stroke-linejoin="round"/>
</svg>
