<svg width="100" height="100" viewBox="0 0 100 100" fill="none" xmlns="http://www.w3.org/2000/svg">
<path d="M38.8336 68.6598C29.3636 65.4228 25.6436 58.2428 24.1436 52.0058C20.2036 35.6348 36.3036 24.1768 46.3736 24.1768C56.4536 24.1768 71.6135 30.5128 71.5635 45.5228C71.5635 47.2258 70.8836 50.4868 70.8836 50.4868L69.9936 53.5388" stroke="black" stroke-width="2" stroke-miterlimit="10" stroke-linecap="round" stroke-linejoin="round"/>
<path d="M37.7834 73.9772C28.2734 70.6172 19.7933 63.4502 18.0933 48.7222C16.8333 37.8732 28.4134 18.1842 47.7734 19.0262C63.0834 19.6922 75.9234 28.2282 77.0034 44.2952C77.1334 46.2022 76.2033 51.3232 76.2033 51.3232" stroke="black" stroke-width="2" stroke-miterlimit="10" stroke-linecap="round" stroke-linejoin="round"/>
<path d="M45.543 46.9382C45.313 50.6182 48.5429 48.9452 48.7129 48.1152C49.1729 45.8122 45.643 45.2492 45.543 46.9382Z" fill="black" stroke="black" stroke-width="2" stroke-miterlimit="10" stroke-linecap="round" stroke-linejoin="round"/>
<path d="M30.8633 63.3009C31.3233 63.3009 32.2833 61.9919 32.5233 61.5049" stroke="black" stroke-width="2" stroke-miterlimit="10" stroke-linecap="round" stroke-linejoin="round"/>
<path d="M24.123 48.0347C24.883 48.0347 26.973 48.2757 27.583 47.9707" stroke="black" stroke-width="2" stroke-miterlimit="10" stroke-linecap="round" stroke-linejoin="round"/>
<path d="M45.6631 47.5721L41.623 46.0281L37.4131 48.1831L41.943 49.5081L45.6631 47.5721Z" fill="black" stroke="black" stroke-width="2" stroke-miterlimit="10" stroke-linecap="round" stroke-linejoin="round"/>
<path d="M71.3937 44.7628C70.8037 44.4668 68.7437 44.6988 69.4137 44.6988" stroke="black" stroke-width="2" stroke-miterlimit="10" stroke-linecap="round" stroke-linejoin="round"/>
<path d="M31.373 31.5498C31.793 31.9708 32.6531 32.7678 33.1631 33.0248" stroke="black" stroke-width="2" stroke-miterlimit="10" stroke-linecap="round" stroke-linejoin="round"/>
<path d="M64.2733 30.7803C64.0733 31.4063 63.1733 31.8423 62.8633 32.4483" stroke="black" stroke-width="2" stroke-miterlimit="10" stroke-linecap="round" stroke-linejoin="round"/>
<path d="M47.5236 45.6071L45.9336 38.3111L47.4036 30.4121L48.8135 38.2611L47.5236 45.6071Z" fill="black" stroke="black" stroke-width="2" stroke-miterlimit="10" stroke-linecap="round" stroke-linejoin="round"/>
<path d="M47.6629 24.3662C47.5229 24.6472 47.6129 25.5502 47.7329 25.9052" stroke="black" stroke-width="2" stroke-miterlimit="10" stroke-linecap="round" stroke-linejoin="round"/>
<path d="M44.5732 58.776C49.0732 53.93 58.1833 54.082 58.9733 62.527C59.5233 68.452 51.6733 69.106 47.7733 71.076C46.0033 71.968 46.4233 72.026 45.8833 73.656C45.6833 74.265 45.2132 76.803 46.1932 76.907C49.1932 77.226 52.3033 76.97 55.6633 76.242C58.1933 75.694 61.9833 77.727 59.6733 79.731C58.6133 80.644 55.1832 80.704 53.8432 80.798C51.1632 80.983 40.2032 82.794 41.0932 78.089C42.2232 72.163 41.5133 71.012 45.4233 68.329C46.5333 67.561 57.7033 65.141 54.4833 61.013C52.5033 58.47 48.1333 59.309 46.2833 63.261C45.6733 64.547 39.8833 64.73 42.6833 60.707C42.6833 60.707 44.4432 58.91 44.5732 58.776Z" fill="black" stroke="black" stroke-width="2" stroke-miterlimit="10" stroke-linecap="round" stroke-linejoin="round"/>
<path d="M74.4636 66.4316L78.3436 66.5326C78.3436 66.5326 78.6836 57.6376 78.4936 56.0886C78.3036 54.5396 73.9336 54.8886 72.3836 56.0896C70.8436 57.2916 64.0636 64.2526 63.4636 65.2646C62.8636 66.2766 62.6336 69.4356 63.8436 69.8466C65.0436 70.2576 71.0036 70.0616 72.9936 70.1246C74.9936 70.1876 81.1636 70.6416 81.7636 69.8196C82.3636 68.9976 83.0936 66.5366 81.1036 66.5686C79.1136 66.5996 67.2836 66.4056 67.2836 66.4056C67.2836 66.4056 74.1236 59.1586 74.7536 58.7156C75.3836 58.2726 74.4636 66.4316 74.4636 66.4316Z" fill="black" stroke="black" stroke-width="2" stroke-miterlimit="10" stroke-linecap="round" stroke-linejoin="round"/>
<path d="M73.9937 70.2327C73.9937 70.2327 73.1536 76.4847 73.0936 77.6497C73.0336 78.8157 72.7137 80.6227 73.6337 80.9687C74.5437 81.3157 78.2737 81.5307 78.2437 80.5547C78.2137 79.5777 78.3737 70.3617 78.3737 70.3617L73.9937 70.2327Z" fill="black" stroke="black" stroke-width="2" stroke-miterlimit="10" stroke-linecap="round" stroke-linejoin="round"/>
</svg>
