<svg width="100" height="100" viewBox="0 0 100 100" fill="none" xmlns="http://www.w3.org/2000/svg">
<path d="M76.0679 32.9788C76.7768 32.4865 57.9201 22.1029 56.8765 21.6247C55.8329 21.1464 24.6866 25.5962 24.2814 25.8916C23.7751 26.2607 37.583 39.0084 38.5957 39.2546C39.6085 39.5007 75.1818 33.594 76.0679 32.9788Z" stroke="black" stroke-width="2" stroke-linecap="round"/>
<path d="M76.0488 32.874C75.7069 47.385 74.6826 76.4433 74.2268 76.7092C73.657 77.0416 41.3792 84.8222 39.3308 85.0213C38.1913 85.1321 24.8723 66.4881 24.8723 65.7127C24.8723 65.0924 24.1461 40.8178 24.1461 26.0752" stroke="black" stroke-width="2" stroke-linecap="round"/>
<path d="M39.4829 76.6772L74.5658 69.0994" stroke="black" stroke-width="2" stroke-linecap="round"/>
<path d="M39.6509 52.4524L74.9149 45.9319" stroke="black" stroke-width="2" stroke-linecap="round"/>
<path d="M44.0885 71.1506C43.3667 71.1506 43.7877 61.8796 44.0885 56.8424C44.1583 55.6181 69.5752 52.0344 70.3646 52.0344C71.154 52.0344 70.9284 66.0759 70.3646 66.1886C69.8007 66.3014 44.9907 71.1506 44.0885 71.1506Z" stroke="black" stroke-width="2" stroke-linecap="round"/>
<path fill-rule="evenodd" clip-rule="evenodd" d="M44.0885 71.1506C43.3667 71.1506 43.7877 61.8796 44.0885 56.8425C44.1583 55.6181 69.5752 52.0344 70.3646 52.0344C71.154 52.0344 70.9284 66.0759 70.3646 66.1886C69.8007 66.3014 44.9907 71.1506 44.0885 71.1506ZM52.7566 57.4549C53.2202 57.7551 53.3525 58.3743 53.0523 58.8378L48.7799 65.434C48.4796 65.8976 47.8605 66.03 47.3969 65.7297C46.9334 65.4295 46.801 64.8103 47.1012 64.3468L51.3737 57.7506C51.6739 57.287 52.2931 57.1546 52.7566 57.4549ZM55.4317 62.4484C55.7188 61.9767 55.5692 61.3614 55.0974 61.0743C54.6256 60.7871 54.0104 60.9368 53.7233 61.4086L52.5021 63.4148C52.215 63.8866 52.3647 64.5018 52.8364 64.789C53.3082 65.0761 53.9234 64.9265 54.2106 64.4547L55.4317 62.4484Z" fill="black"/>
<path d="M45.7307 43.5529C44.1177 45.0978 45.7137 46.8669 47.233 46.1532C49.7294 44.9806 47.3437 42.0079 45.7307 43.5529Z" fill="black" stroke="black" stroke-width="2" stroke-linecap="round"/>
<path d="M52.5403 42.3147C50.9273 43.8597 52.5232 45.6287 54.0426 44.915C56.5389 43.7424 54.1533 40.7697 52.5403 42.3147Z" fill="black" stroke="black" stroke-width="2" stroke-linecap="round"/>
<path d="M59.0691 41.1328C57.4561 42.6778 59.052 44.4468 60.5714 43.7331C63.0678 42.5606 60.6821 39.5878 59.0691 41.1328Z" fill="black" stroke="black" stroke-width="2" stroke-linecap="round"/>
<path d="M39.0117 39.5804V84.4385" stroke="black" stroke-width="2" stroke-linecap="round"/>
<path d="M68.7488 39.5334C67.1358 41.0784 68.7317 42.8474 70.2511 42.1338C72.7474 40.9612 70.3618 37.9885 68.7488 39.5334Z" fill="black" stroke="black" stroke-width="2" stroke-linecap="round"/>
<ellipse cx="44.2407" cy="33.4871" rx="4.58984" ry="2.02322" fill="black"/>
<ellipse cx="60.3828" cy="31.0069" rx="4.71921" ry="2.08025" fill="black"/>
<ellipse cx="38.4932" cy="28.2202" rx="3.58259" ry="1.57923" fill="black"/>
<path d="M24.2602 26.342C23.9983 23.9061 23.6315 18.8928 24.2602 18.327C25.046 17.6198 55.1412 14.6873 55.7698 15.0016C56.2727 15.2531 56.18 19.3756 56.1538 21.3138" stroke="black" stroke-width="2" stroke-linecap="round"/>
<ellipse cx="53.1809" cy="26.2008" rx="3.76978" ry="1.66174" fill="black"/>
</svg>
