<svg width="100" height="100" viewBox="0 0 100 100" fill="none" xmlns="http://www.w3.org/2000/svg">
<path d="M60.8492 78.7199C51.1398 80.2838 46.3535 69.4072 43.6795 63.8704C43.0689 62.6668 41.8038 67.1681 41.1535 68.9767C40.5033 70.7853 37.0295 73.5719 33.8067 69.568C30.584 65.564 33.3915 49.6559 33.7709 46.7006C34.1503 43.7453 28.1719 37.2155 28.0965 32.5943C28.0624 30.5026 49.1227 20.0828 50.9116 20.2579C52.7933 20.4421 53.607 22.8735 54.7503 25.0804C55.8936 27.2874 61.3849 33.5858 66.4615 38.9957C71.5381 44.4055 79.3642 57.741 78.3574 64.5766C77.3506 71.4123 70.0463 77.2385 60.8492 78.7199Z" stroke="black" stroke-width="2" stroke-linecap="round"/>
<path d="M51.9766 68.8288C57.2697 69.7698 69.4097 69.3511 72.4209 68.0337" stroke="black" stroke-width="2" stroke-linecap="round"/>
<path d="M37.8008 49.8237C44.1525 51.4704 59.5046 53.1849 68.9146 50.7147" stroke="black" stroke-width="2" stroke-linecap="round"/>
<path d="M37.1562 41.4223C44.3238 42.6987 56.329 44.8333 63.1425 42.8491" stroke="black" stroke-width="2" stroke-linecap="round"/>
<path d="M54.1294 24.7202C52.8804 27.0512 46.8026 29.9652 41.1414 32.7129C36.9764 34.7344 33.9811 37.2085 30.0681 37.7081" stroke="black" stroke-width="2" stroke-linecap="round"/>
<path d="M46.2131 35.6588C45.2469 46.0608 43.2453 53.4266 38.9219 63.8348" stroke="black" stroke-width="2" stroke-linecap="round"/>
<path d="M36.5249 58.5488C47.8776 60.9683 68.8305 60.8947 73.3473 60.236" stroke="black" stroke-width="2" stroke-linecap="round"/>
<path d="M71.4174 54.6776C71.4174 60.6223 69.2363 68.42 68.1748 71.8168" stroke="black" stroke-width="2" stroke-linecap="round"/>
<path d="M64.4032 46.3986C63.0763 53.9175 60.051 69.8842 58.5649 73.5994" stroke="black" stroke-width="2" stroke-linecap="round"/>
<path d="M56.0935 36.4822C54.7996 47.6565 51.0591 61.1598 49.7417 63.8887" stroke="black" stroke-width="2" stroke-linecap="round"/>
<path d="M51.1483 20.3207C51.208 19.8426 53.419 13.1496 52.7019 11.5958C51.9849 10.0421 48.0408 9.50419 47.8615 12.1336C47.7181 14.2371 49.236 18.2889 50.0128 20.3207" stroke="black" stroke-width="2" stroke-linecap="round"/>
<path d="M28.0437 32.8065C27.3025 31.2006 41.9257 23.127 49.5688 19.7043C50.0835 19.833 51.0049 20.1831 50.5725 20.5536C50.0321 21.0169 28.9701 34.8138 28.0437 32.8065Z" fill="black" stroke="black" stroke-width="2" stroke-linecap="round"/>
<path d="M28.0381 32.8108C28.66 38.0709 32.7914 43.8994 33.3103 45.3004C33.9589 47.0517 30.2636 60.0005 31.8852 66.0977C33.2094 71.0768 35.2272 71.8261 36.7839 72.0207C38.3407 72.2153 40.2804 71.3367 41.3831 69.9097C42.2652 68.7681 43.223 65.0048 43.5885 65.2395C43.9539 65.4742 46.5105 72.7662 49.2089 75.3607C52.5818 78.6039 56.528 81.7908 67.0684 76.9597" stroke="black" stroke-width="2" stroke-linecap="round"/>
</svg>
