<svg width="100" height="100" viewBox="0 0 100 100" fill="none" xmlns="http://www.w3.org/2000/svg">
<path d="M22.632 36.9161C29.6382 28.066 43.3976 28.2728 50.6897 33.3865C57.9818 38.5001 59.6844 48.3264 58.454 55.7092C57.1138 63.7501 44.0302 74.7387 30.926 69.0321C17.8217 63.3254 12.5925 49.5976 22.632 36.9161Z" stroke="black" stroke-width="2"/>
<path d="M46.7863 36.9161C53.7925 28.066 67.5519 28.2728 74.844 33.3865C82.136 38.5001 83.8387 48.3264 82.6083 55.7092C81.2681 63.7501 68.1845 74.7387 55.0803 69.0321C41.976 63.3254 36.7468 49.5976 46.7863 36.9161Z" stroke="black" stroke-width="2"/>
<path d="M55.111 37.7271L50.8881 33.4121L46.2537 37.7271L42.8324 43.351L41.2705 50.1191L42.8324 57.4079L46.2537 62.5397L50.8881 66.4816L52.5012 65.4404L56.9637 60.0854L59.195 55.0279V50.1191L57.7818 43.351L55.111 37.7271Z" fill="black"/>
<path d="M47.7539 37.2988H22.3027" stroke="black" stroke-width="2"/>
<path d="M47.7538 45.4805H18.2011" stroke="black" stroke-width="2"/>
<path d="M47.7533 54.5225H17.6826" stroke="black" stroke-width="2"/>
<path d="M47.7539 62.959H22.3027" stroke="black" stroke-width="2"/>
</svg>
