<svg width="100" height="100" viewBox="0 0 100 100" fill="none" xmlns="http://www.w3.org/2000/svg">
<path d="M69.8696 33.2354L28.1641 29.9078C29.85 29.9078 31.8244 28.318 32.4899 27.6895L72.3138 31.2735C72.6092 31.3001 72.691 31.6933 72.4308 31.8355L69.8696 33.2354Z" fill="black"/>
<path d="M72.5341 31.2187L69.3155 33.1185C65.1449 73.5818 67.5777 83.6976 69.3155 83.6976C69.3155 83.6976 77.5262 78.6281 77.5235 77.708C77.5208 76.7905 75.7583 47.4682 72.6825 31.2831C72.6696 31.2151 72.5937 31.1835 72.5341 31.2187Z" stroke="black" stroke-width="2"/>
<path d="M68.9826 33.1246C68.9826 33.1246 28.2321 28.6641 27.5202 30.3424C26.8097 32.0175 24.6191 62.842 24.6104 76.6261C24.6103 76.6752 24.6461 76.7142 24.6946 76.7219L68.9083 83.7688C68.9875 83.7814 69.053 83.7093 69.0213 83.6356C66.0225 76.6863 68.139 48.1998 68.9826 33.1246Z" stroke="black" stroke-width="2" stroke-miterlimit="10"/>
<path d="M69.0475 32.23C69.0475 32.23 27.1199 30.7954 27.5541 30.2069C27.9884 29.6183 32.022 28.7427 32.2494 28.7025C32.4395 28.6689 62.5921 30.5667 72.4829 31.1905C72.8457 31.2133 72.8471 31.7396 72.4867 31.7862L69.0475 32.23Z" stroke="black" stroke-width="2"/>
<path d="M39.9221 36.1702C39.8851 30.5777 39.9221 16.9961 48.241 16.9961C57.5582 16.9961 57.2877 28.4225 57.2877 36.9675" stroke="black" stroke-width="2" stroke-linecap="round"/>
<path d="M44.9977 30.2872C44.9605 24.6478 46.5824 13.3691 53.3676 13.3691C61.8492 13.3691 63.1878 22.7214 63.1878 31.338" stroke="black" stroke-width="2" stroke-linecap="round"/>
<path d="M52.4006 47.2463L38.7621 62.0818C38.4153 62.459 38.4686 63.0529 38.8769 63.3624C39.2368 63.6352 39.7457 63.5869 40.0478 63.2513L53.5298 48.2735C53.8249 47.9456 53.7814 47.4365 53.4349 47.1634C53.1215 46.9164 52.6707 46.9525 52.4006 47.2463Z" stroke="black" stroke-width="2"/>
<path d="M51.4012 60.3284C49.376 59.8964 48.0052 62.1509 47.9145 63.7271C47.7079 64.6956 48.0727 67.1668 50.2739 67.6363C52.475 68.1058 53.9143 67.4002 54.4026 65.111C54.6978 63.7271 54.4026 60.9686 51.4012 60.3284Z" stroke="black" stroke-width="2"/>
<path d="M40.7157 43.72C38.6905 43.288 37.3197 45.5425 37.229 47.1187C37.0224 48.0872 37.3871 50.5584 39.5883 51.0279C41.7895 51.4974 43.2288 50.7918 43.717 48.5026C44.0122 47.1187 43.717 44.3602 40.7157 43.72Z" stroke="black" stroke-width="2"/>
<path d="M69.0617 85.9989C47.9113 83.8212 22.5561 78.4581 23.844 77.0947L69.0617 82.9683C71.6517 81.5476 76.6799 78.1284 77.0809 77.87C77.5822 77.547 79.7511 78.0452 82.7415 78.5206C84.8864 78.8616 83.758 80.7193 79.2119 82.9684C76.7221 84.2002 73.6356 86.4699 69.0617 85.9989Z" fill="black"/>
</svg>
