<svg width="100" height="100" viewBox="0 0 100 100" fill="none" xmlns="http://www.w3.org/2000/svg">
<path d="M54.623 17.4489C62.9435 18.8652 73.8091 30.8314 78.6775 38.6872C82.3288 46.2111 76.5238 47.7314 70.4392 46.5145C62.6089 44.9484 53.2672 34.9441 48.8802 28.7233C43.5958 21.2298 44.2224 15.6786 54.623 17.4489Z" stroke="black" stroke-width="2"/>
<path d="M46.9981 18.1484C45.4842 19.1725 21.2127 43.5088 20.3169 45.0764C18.5467 48.1745 20.3328 64.301 36.6925 72.4058C48.7528 78.3807 49.0849 75.2826 50.0807 74.9507C51.0765 74.6187 77.0718 48.8378 78.3651 45.8201" stroke="black" stroke-width="2"/>
<path d="M36.7551 28.7114C37.0413 30.8101 38.4723 36.1094 41.9064 40.5165C46.1991 46.0255 43.8382 46.1686 41.9064 48.315C39.9746 50.4613 32.0331 57.4728 31.3176 57.3297C30.6021 57.1866 24.5924 49.3166 23.7339 41.0888" stroke="black" stroke-width="2"/>
<path d="M30.8604 40.4141C31.033 40.8744 31.4386 41.8988 31.6804 42.3131" stroke="black" stroke-width="2" stroke-linecap="round"/>
<path d="M33.3203 37.5654C33.9246 39.1193 34.5719 40.6245 35.0467 41.2772C35.6401 42.0932 36.4797 43.3503 36.999 44.0921" stroke="black" stroke-width="2" stroke-linecap="round"/>
<path d="M65.8603 53.2433C66.2924 49.5273 64.816 44.9255 64.0238 43.0891C62.7275 41.3606 51.3345 31.9489 50.0382 29.5723C48.7419 27.1958 47.1045 24.3882 50.0384 24.6816C56.7509 25.353 57.5424 27.7498 60.9992 30.1263C64.456 32.5028 68.1288 33.475 70.8294 34.6633C73.53 35.8516 78.067 39.5244 79.3633 43.0891C80.6596 46.6538 80.1195 57.2403 80.1195 60.481C80.1195 63.7218 79.3633 68.4748 78.7152 70.0952C78.067 71.7155 77.851 81.2217 75.0423 82.734C72.2337 84.2463 72.2337 73.768 72.6658 70.0952C73.0979 66.4224 70.9374 64.0458 69.8572 64.694C68.7769 65.3421 66.6165 70.2032 65.3202 69.447C64.0239 68.6909 65.3202 57.8885 65.8603 53.2433Z" fill="black" stroke="black" stroke-width="2"/>
<path d="M42.3828 22.6284C42.5929 24.7555 45.3256 31.0861 48.0551 34.603C52.1516 39.8812 58.8479 46.0261 66.1745 49.256" stroke="black" stroke-width="2"/>
<path d="M25.0647 39.9336C22.9241 42.119 20.7862 45.918 20.8152 49.63C20.8442 53.3421 20.8152 55.0216 23.7296 60.8149" stroke="black" stroke-width="2" stroke-linecap="round"/>
</svg>
