<svg width="100" height="100" viewBox="0 0 100 100" fill="none" xmlns="http://www.w3.org/2000/svg">
<path d="M82.7444 37.9268C82.9999 38.6605 82.9463 40.7716 82.5385 41.6462C80.4339 46.1604 77.1699 44.7685 73.8793 47.3662C73.1888 47.9113 72.7018 48.4124 72.3815 48.8797M79.5795 61.5937V63.8052C79.5496 67.3788 77.6977 71.0614 72.5932 73.5768C63.3117 78.1503 55.4868 80.3384 46.1743 76.2055C36.8619 72.0877 25.3027 60.5703 25.3027 60.5703C25.3027 60.5703 17.0915 53.4037 17.709 43.03" stroke="black" stroke-width="2" stroke-miterlimit="10"/>
<path d="M73.8793 30.154C73.8793 30.154 84.643 35.1318 82.5384 39.646C80.4339 44.1601 77.1699 42.7682 73.8793 45.3659C68.9519 49.2557 74.3885 50.9081 76.7768 53.9508C80.4024 58.57 81.8746 67.0029 72.5931 71.5764C63.3117 76.15 55.4867 78.338 46.1743 74.2051C36.8618 70.0874 25.3027 58.57 25.3027 58.57C25.3027 58.57 11.3417 46.0649 21.243 33.7877C31.1442 21.5105 46.3754 20.5928 54.867 22.2095C63.3585 23.8261 73.8793 30.154 73.8793 30.154Z" stroke="black" stroke-width="2" stroke-miterlimit="10"/>
<path d="M45.2464 61.1892C45.2464 61.1892 44.2953 65.3801 49.6808 66.8821C55.0663 68.3841 55.8389 64.4664 53.739 62.7222C51.6392 60.978 46.914 56.5016 45.2464 61.1892Z" fill="black" stroke="black" stroke-width="2" stroke-miterlimit="10" stroke-linecap="round"/>
<path d="M30.3866 48.7214C30.3866 48.7214 27.8626 52.0462 31.1724 55.7103C34.4823 59.3743 36.0289 58.6525 37.2178 56.9995C39.0667 54.4287 35.1811 45.1304 30.3866 48.7214Z" fill="black" stroke="black" stroke-width="2" stroke-miterlimit="10" stroke-linecap="round"/>
<path d="M72.6408 40.7637C70.5954 42.2983 67.1865 42.2983 65.0172 40.7485C62.848 39.1986 62.755 36.7067 64.8003 35.1569C66.8457 33.6223 70.2546 33.6223 72.4239 35.1721C74.5932 36.7219 74.6861 39.229 72.6408 40.7637Z" stroke="black" stroke-width="2" stroke-miterlimit="10" stroke-linecap="round"/>
<path d="M33.811 33.5261C31.3618 32.6704 28.1946 33.7441 26.6686 37.6959C25.1426 41.6477 27.8186 42.4716 30.6172 41.3158C33.4157 40.1599 36.2602 34.3818 33.811 33.5261Z" fill="black" stroke="black" stroke-width="2" stroke-miterlimit="10" stroke-linecap="round"/>
<path d="M49.619 31.4692C52.8264 30.9982 53.2913 27.7769 50.3163 26.7589C48.9372 26.2879 47.1243 26.0448 44.893 26.455C38.8035 27.5794 39.2616 30.1294 42.0774 31.0105C44.8931 31.8916 46.675 31.8947 49.619 31.4692Z" fill="black" stroke="black" stroke-width="2" stroke-miterlimit="10" stroke-linecap="round"/>
</svg>
