<svg width="100" height="100" viewBox="0 0 100 100" fill="none" xmlns="http://www.w3.org/2000/svg">
<path d="M44.1595 34.0631C44.1595 34.0631 41.8115 40.4011 41.7115 44.2161C41.6115 48.0311 41.4015 57.0941 40.4105 55.7361C39.4195 54.3781 35.3465 48.2211 36.0825 43.8671C36.8185 39.5131 40.4675 34.5651 41.8785 33.7631C43.2895 32.9611 44.1595 34.0631 44.1595 34.0631Z" stroke="black" stroke-width="2" stroke-miterlimit="10" stroke-linecap="round" stroke-linejoin="round"/>
<path d="M53.4253 68.9213C53.5673 64.9563 53.7233 54.7764 51.9483 49.8884C49.3653 42.7764 47.0203 40.0513 45.5273 37.3933C44.1363 34.9173 44.4143 33.8504 44.4143 33.8504C44.4143 33.8504 46.6363 32.1924 47.9743 34.7904C49.3133 37.3884 52.5513 41.3364 55.7533 49.4904C57.7823 54.6584 58.2913 62.3043 58.9303 67.4163C59.4833 71.8443 57.9983 71.2914 56.4803 71.5064C54.8123 71.7424 53.3573 70.8213 53.4253 68.9213Z" fill="black" stroke="black" stroke-width="2" stroke-miterlimit="10" stroke-linecap="round" stroke-linejoin="round"/>
<path d="M59.3512 68.3447C59.3512 68.3447 64.2592 69.3977 67.0702 70.9697C72.6332 74.0787 77.4352 80.4197 77.7012 81.6077C77.8272 82.1697 56.8852 82.0417 56.8852 82.0417C56.8852 82.0417 32.7482 82.3417 35.0402 79.6227C35.0402 79.6227 38.7712 71.5297 52.9972 68.6797" stroke="black" stroke-width="2" stroke-miterlimit="10" stroke-linecap="round" stroke-linejoin="round"/>
<path d="M42.3023 33.1599C42.3023 33.1599 35.9343 36.1159 33.1793 38.6319C30.4243 41.1489 23.9153 45.8149 22.4953 47.6499C21.0743 49.4849 23.0083 41.5429 24.5543 39.3989C26.1003 37.2559 29.9423 33.0709 33.7353 32.4909C37.5283 31.9099 42.3023 33.1599 42.3023 33.1599Z" stroke="black" stroke-width="2" stroke-miterlimit="10" stroke-linecap="round" stroke-linejoin="round"/>
<path d="M42.8632 32.9075C42.8632 32.9075 37.9083 31.3465 33.2163 31.1055C27.5573 30.8155 23.4872 28.8735 24.0182 28.3265C25.1722 27.1375 30.5392 24.7995 34.1392 25.8335C41.5342 27.9575 42.8632 32.9075 42.8632 32.9075Z" stroke="black" stroke-width="2" stroke-miterlimit="10" stroke-linecap="round" stroke-linejoin="round"/>
<path d="M43.1005 32.012C41.8735 31.547 40.8135 28.268 42.2505 23.62C42.4725 22.9 43.7045 19.865 45.4515 18.59C47.1995 17.316 50.7265 17 50.7265 17C50.7265 17 48.4875 21.075 47.1255 24.149C45.7645 27.223 45.0885 32.766 43.1005 32.012Z" stroke="black" stroke-width="2" stroke-miterlimit="10" stroke-linecap="round" stroke-linejoin="round"/>
<path d="M47.1792 24.904C47.1792 24.904 49.8302 21.59 53.4632 20.62C57.0962 19.649 62.7792 20.7019 63.3942 21.2309C64.0092 21.7599 59.6272 23.462 57.0512 24.602C54.4752 25.742 45.5512 31.5569 45.0252 31.9789C44.4982 32.3999 47.1792 24.904 47.1792 24.904Z" stroke="black" stroke-width="2" stroke-miterlimit="10" stroke-linecap="round" stroke-linejoin="round"/>
<path d="M51.5945 28.0024C51.5945 28.0024 58.8464 26.2284 62.6954 28.0624C66.5444 29.8974 71.8605 36.3744 72.7625 37.8254C73.6655 39.2764 69.1015 38.4704 64.6765 36.4774C60.2505 34.4854 56.0475 34.3885 51.9995 33.7455C47.9515 33.1035 45.1484 32.2314 45.1484 32.2314L51.5945 28.0024Z" stroke="black" stroke-width="2" stroke-miterlimit="10" stroke-linecap="round" stroke-linejoin="round"/>
</svg>
