<svg width="100" height="100" viewBox="0 0 100 100" fill="none" xmlns="http://www.w3.org/2000/svg">
<path d="M36.7698 51.1466C38.8171 57.1312 47.7682 70.0464 51.8366 72.9336" stroke="black" stroke-width="2" stroke-linecap="round" stroke-linejoin="round"/>
<path d="M56.4338 74.0211C56.4338 75.919 54.7681 76.2559 53.3547 76.2559C51.9413 76.2559 49.687 76.5256 49.687 74.0211C49.687 71.9731 51.9413 71.4223 53.3547 71.4223C54.7681 71.4223 56.4338 71.7882 56.4338 74.0211Z" fill="black"/>
<path d="M52.0518 75.2989C51.0197 78.5671 51.6218 82.9677 52.0518 84.7596" stroke="black" stroke-width="2" stroke-linecap="round" stroke-linejoin="round"/>
<path d="M54.4973 74.1728C54.2865 78.0134 58.5559 81.1754 60.7168 82.2763" stroke="black" stroke-width="2" stroke-linecap="round" stroke-linejoin="round"/>
<path d="M67.3188 36.6811C71.7108 36.6812 81.6291 39.7637 82.7636 43.1674C80.2676 48.5001 73.1747 51.7633 68.1329 50.3516C64.7578 49.4066 61.933 49.0165 56.5935 49.269C50.4325 49.5603 41.6774 53.0132 30.3313 49.269C21.2545 46.2736 17.615 45.0584 17.2368 43.1674C18.5983 39.877 27.2305 36.6811 33.5801 36.6811" stroke="black" stroke-width="2" stroke-linecap="round" stroke-linejoin="round"/>
<path d="M82.0933 42.4321C79.5972 47.7647 74.276 51.2114 69.2342 49.7997C65.8591 48.8547 61.6758 48.6559 56.3362 48.9084C50.1752 49.1997 41.6769 53.0133 30.3308 49.2691" stroke="black" stroke-width="2" stroke-linecap="round" stroke-linejoin="round"/>
<path d="M53.979 72.4225C53.9791 64.2518 60.297 57.3906 62.5515 49.6407" stroke="black" stroke-width="2" stroke-linecap="round" stroke-linejoin="round"/>
<path d="M34.3208 34.9793C34.5478 28.1718 36.0884 26.1763 39.0181 24.4251C44.5467 21.1204 54.7107 20.7327 61.1771 24.4251C65.1795 26.7106 66.0898 32.2562 65.9764 34.9793" stroke="black" stroke-width="2" stroke-linecap="round" stroke-linejoin="round"/>
<path d="M66.9192 34.7521C64.2663 37.2219 39.5534 38.027 33.713 34.8372L33.7129 38.7233C39.2133 41.7471 62.5875 41.7323 67.0878 38.2656L66.9192 34.7521Z" fill="black" stroke="black" stroke-width="2" stroke-linecap="round" stroke-linejoin="round"/>
<ellipse cx="62.3448" cy="32.0537" rx="1.20552" ry="2.29837" transform="rotate(-11.173 62.3448 32.0537)" fill="black"/>
</svg>
