<svg width="100" height="100" viewBox="0 0 100 100" fill="none" xmlns="http://www.w3.org/2000/svg">
<path d="M24.8019 29.7398C24.8126 26.0635 24.8198 22.7176 24.8198 20.2218C24.8198 16.9672 34.4668 18.1359 34.4668 20.2218C34.4668 20.7763 34.4641 24.9265 34.4601 30.7948M24.7699 39.2375C24.7392 47.618 24.7055 55.5336 24.7056 57.6969C24.7057 61.6834 24.7056 77.5843 24.7056 79.1774C24.7056 82.2469 34.4284 83.0884 34.4284 79.1774C34.4284 76.8017 34.4426 56.3285 34.4537 40.153" stroke="black" stroke-width="2"/>
<path d="M27.9678 21.1924C26.1962 20.9004 25.4113 19.9823 25.3516 19.4298C25.9422 18.1866 32.861 18.2911 33.6199 19.4296C34.8745 21.3115 30.9409 21.6825 27.9678 21.1924Z" fill="black" stroke="black" stroke-width="2"/>
<path d="M38.1006 31.2874C38.1006 27.3877 38.1006 23.6239 38.1006 20.2218C38.1006 16.9672 47.7476 18.1359 47.7476 20.2218C47.7476 20.8408 47.7476 25.2665 47.7476 31.2874M38.1006 40.2939C38.1006 54.9882 38.1006 69.2004 38.1006 71.5325C38.1006 75.8345 47.7476 75.4435 47.7476 71.5325C47.7476 69.3299 47.7476 53.9949 47.7476 40.6457" stroke="black" stroke-width="2"/>
<path d="M41.2491 21.1924C39.4774 20.9004 38.6925 19.9823 38.6328 19.4298C39.2235 18.1866 46.1422 18.2911 46.9012 19.4296C48.1558 21.3115 44.2222 21.6825 41.2491 21.1924Z" fill="black" stroke="black" stroke-width="2"/>
<path d="M51.8353 31.569C51.8301 25.9598 51.8887 21.5783 52.0721 20.5811C52.645 17.4667 61.7913 18.1359 61.7913 20.2218C61.7913 20.8974 61.7913 25.2397 61.7913 30.9356M51.8838 40.7175C51.971 50.9131 52.1443 61.4752 52.1443 63.259C52.1443 67.561 61.7913 67.17 61.7913 63.259C61.7913 61.2538 61.7913 50.5403 61.7913 40.2939" stroke="black" stroke-width="2"/>
<path d="M55.2923 21.1924C53.5206 20.9004 52.633 20.49 52.5732 19.9374C53.1639 18.6943 60.1854 18.2911 60.9444 19.4296C62.199 21.3115 58.2653 21.6825 55.2923 21.1924Z" fill="black" stroke="black" stroke-width="2"/>
<path d="M67.167 30.9356C67.167 27.5919 67.167 24.0045 67.167 20.2218C67.167 16.9672 76.814 18.1359 76.814 20.2218C76.814 20.8527 76.7771 25.116 76.747 30.2311M67.167 39.9421C67.167 48.2303 67.167 54.0153 67.167 56.074C67.167 60.3761 76.814 59.985 76.814 56.074C76.814 55.1572 77.0503 52.7931 76.814 49.7385C76.723 48.5635 76.7021 44.1613 76.7107 39.0978" stroke="black" stroke-width="2"/>
<path d="M70.3155 21.1924C68.5438 20.9004 67.7589 19.9823 67.6992 19.4298C68.2899 18.1866 75.2086 18.2911 75.9676 19.4296C77.2222 21.3115 73.2886 21.6825 70.3155 21.1924Z" fill="black" stroke="black" stroke-width="2"/>
<path d="M57.1336 31.2772C35.8583 32.1911 27.6121 29.8013 19.5876 29.2894C16.4678 29.1715 17.5028 37.7065 18.1109 38.054C18.719 38.4015 23.8347 39.2993 38.6027 40.2549C60.1687 41.6504 81.3209 38.1893 82.0159 38.1025C82.7108 38.0156 82.7555 30.6736 82.0159 30.2318C81.2762 29.79 67.1149 30.8484 57.1336 31.2772Z" stroke="black" stroke-width="2"/>
<path d="M51.4186 28.67H48.2983V31.2229L51.7022 31.5066L51.4186 28.67Z" fill="black"/>
<path d="M48.1729 28.67H49.9146H51.5829" stroke="black" stroke-width="2"/>
<path d="M34.7031 28.0446L36.4018 28.1881L38.1005 28.3317" stroke="black" stroke-width="2"/>
<path d="M37.8629 28.2325H34.7427V30.7854L38.1465 31.0691L37.8629 28.2325Z" fill="black"/>
<path d="M61.981 28.2693L67.2106 28.0223" stroke="black" stroke-width="2"/>
<path d="M66.8055 28.1881H62.3516V30.741L67.2104 31.0246L66.8055 28.1881Z" fill="black"/>
<path d="M81.984 30.2427C81.083 29.3567 79.7885 27.9047 78.9522 27.6873C78.5322 27.5781 77.2501 27.7024 76.8296 27.6873" stroke="black" stroke-width="2"/>
<path d="M79.9134 27.5924L76.8296 27.4062V29.9591H80.7201L79.9134 27.5924Z" fill="black"/>
<path d="M18.7612 29.5246C20.0198 28.3894 21.3886 27.452 22.0333 27.3163C22.678 27.1805 24.2528 27.2597 24.9597 27.3163" stroke="black" stroke-width="2"/>
<path d="M22.3359 27.1453L19.5542 28.8142L24.5984 29.7415L24.858 27.1453H22.3359Z" fill="black"/>
</svg>
