<svg width="100" height="100" viewBox="0 0 100 100" fill="none" xmlns="http://www.w3.org/2000/svg">
<path d="M33.4685 36.9694C31.9852 36.9694 29.382 36.9218 28.753 36.9696C25.632 37.2069 23.7505 38.8346 22.8492 42.1015C22.2528 44.2632 24.1798 46.7555 27.334 46.7555C30.4883 46.7555 47.6989 46.7555 51.3837 46.7555C55.0686 46.7555 72.867 46.7555 73.8404 46.7555C75.9517 46.7555 78.2533 44.7101 78.0624 43.0872C77.8714 41.4642 76.1511 38.0577 74.3956 37.4839C72.6402 36.9102 70.291 36.9256 68.0257 36.9256" stroke="black" stroke-width="2"/>
<path d="M22.7803 43.5117C24.5456 54.272 28.1609 76.4702 28.5214 77.6871C28.972 79.2083 30.6621 81.2928 33.0282 81.3491C35.3944 81.4055 66.4924 81.3491 68.1825 81.3491C69.8726 81.3491 71.6777 78.9971 72.0698 77.3492C72.3309 76.2517 77.3069 51.1535 78.0152 43.6578" stroke="black" stroke-width="2"/>
<path d="M24.6602 54.9922C25.0303 56.7469 26.36 57.6203 28.1525 57.6203C30.436 57.6203 48.2047 57.6203 52.8729 57.6203C57.5412 57.6203 71.3872 57.8161 72.5012 57.4979C73.8326 57.1175 75.9381 57.0154 76.3408 54.7267" stroke="black" stroke-width="2"/>
<path d="M30.2021 42.4951H70.223" stroke="black" stroke-width="2" stroke-linecap="round"/>
<path d="M34.0842 42.0748C33.9492 40.1397 33.7601 36.6461 34.0842 33.6758C34.4894 29.963 35.294 28.5828 36.6669 25.2648C37.4461 23.3818 37.0157 20.2888 36.6669 18.4602C36.3182 16.6315 43.237 18.4602 55.732 18.46C58.9834 18.46 67.2288 19.1912 69.7264 19.731C70.1074 19.8134 70.6634 23.8909 69.3214 26.954C68.5209 28.7811 67.6241 30.5999 67.2963 33.0969C67.0711 34.8112 67.2738 38.9022 67.2963 42.0748" stroke="black" stroke-width="2" stroke-linecap="round"/>
<path d="M67.3464 51.2206C66.3147 50.3558 65.1915 51.3837 64.9632 52.2918C64.7348 53.1998 65.9099 53.9745 66.8296 53.7912C67.5213 53.6533 68.636 52.3015 67.3464 51.2206Z" fill="black" stroke="black" stroke-width="2" stroke-linecap="round"/>
<path d="M57.3137 50.6013C55.6253 50.6558 55.4349 52.5568 55.9811 53.5971C56.5273 54.6375 58.5134 54.538 59.2201 53.5971C59.7517 52.8894 59.4243 50.5332 57.3137 50.6013Z" stroke="black" stroke-width="2" stroke-linecap="round"/>
<path d="M33.8596 58.0913C33.6398 59.7672 33.3321 64.078 33.8597 65.9242C34.5191 68.2319 34.9667 72.0872 34.6055 74.1834C34.3749 75.5214 39.3856 76.3148 39.7209 75.7819C40.0561 75.2491 40.7099 71.2485 39.7209 68.2154C38.4845 64.4241 38.6438 63.0485 38.8911 61.4825C39.0889 60.2297 39.3032 58.433 39.3856 57.6912" stroke="black" stroke-width="2" stroke-linecap="round"/>
<path d="M43.3686 58.0914C43.1488 59.7672 43.3686 63.5074 43.751 66.0362C44.1099 68.4094 44.2926 70.3262 44.2926 72.9904C44.2926 74.3482 48.8947 73.5233 49.2299 72.9904C49.5651 72.4576 49.6214 70.2358 49.6214 68.6102C49.6214 64.6223 49.2299 64.9525 48.8947 62.3785C48.7309 61.1208 48.8122 58.5594 48.8947 57.8176" stroke="black" stroke-width="2" stroke-linecap="round"/>
<path d="M52.7305 57.8977C52.8981 60.2333 53.2712 65.2677 53.4221 66.7209C53.6108 68.5374 53.4221 75.1547 53.4221 75.6089C53.4221 76.063 59.081 76.063 59.3325 75.6089C59.584 75.1547 59.3325 68.0833 59.3325 65.8775C59.3325 64.1129 58.7667 59.7575 58.6409 57.8977" stroke="black" stroke-width="2" stroke-linecap="round"/>
<path d="M62.7773 57.9558C62.7773 60.1783 62.8444 64.6999 63.113 65.0068C63.4489 65.3905 68.1016 65.7742 68.2934 65.3905C68.4469 65.0836 68.3574 60.3062 68.2934 57.9558" stroke="black" stroke-width="2" stroke-linecap="round"/>
<path d="M33.6254 57.5286V60.1482V63.7163L34.7095 69.9943V74.7367L38.2324 75.7755L39.8132 75.5497L40.1294 70.3105L38.6389 64.0776L39.4519 57.6189L42.9296 57.5286L44.1943 73.2011L46.4977 73.7882L49.569 72.7946V66.8779L49.1173 60.5547V58.0254L52.6854 57.6189L53.4533 66.6069V75.7755H59.099L59.7313 74.7367L59.099 61.0063L58.7828 58.0254H63.3445L63.0284 63.084L63.6607 65.1164L68.3579 65.4777C68.4332 63.1141 68.5928 58.3145 68.6289 58.0254C68.6651 57.7363 70.9324 57.634 72.0615 57.6189L75.8554 56.4897L71.7002 79.0726L68.2676 81.6019L31.864 81.2406L28.8379 78.8468L28.1605 75.0528L25.7215 60.7353L25.4053 57.5286H33.6254Z" fill="black"/>
<path d="M43.1504 25.8691C46.3568 25.9693 53.1184 26.2297 54.5132 26.4702C56.2567 26.7709 61.6074 26.9486 62.6895 27.0087" stroke="black" stroke-width="2" stroke-linecap="round"/>
<path d="M40.4453 31.9661C43.6517 32.0662 46.4568 31.9661 51.9859 31.9661C56.076 31.9661 58.7212 32.2395 59.8034 32.2996" stroke="black" stroke-width="2" stroke-linecap="round"/>
<path d="M41.1661 37.8887C44.3725 37.9888 45.3163 37.8887 50.8454 37.8887C54.9355 37.8887 58.3604 38.1893 59.4426 38.2495" stroke="black" stroke-width="2" stroke-linecap="round"/>
</svg>
