<svg width="100" height="100" viewBox="0 0 100 100" fill="none" xmlns="http://www.w3.org/2000/svg">
<g clip-path="url(#clip0_65_20531)">
<path d="M24.4408 49.3356C24.4408 49.3356 22.7225 50.7752 16.2641 50.7501" stroke="black" stroke-width="2" stroke-miterlimit="10" stroke-linecap="round"/>
<path d="M26.684 42.0446C26.684 42.0446 19.7952 41.9047 6.08623 43.1191" stroke="black" stroke-width="2" stroke-miterlimit="10" stroke-linecap="round"/>
<path d="M26.8317 36.1451C26.8317 36.1451 24.2817 36.3227 17.46 34.8848" stroke="black" stroke-width="2" stroke-miterlimit="10" stroke-linecap="round"/>
<path d="M91.3433 42.5641C91.7658 43.5791 70.1983 49.0508 61.0164 52.0049C57.9171 53.0087 54.8172 54.0903 51.7288 55.172C43.47 58.0562 27.5374 63.8644 26.9409 63.8246C26.3444 63.7849 26.8665 61.7438 27.2889 60.892C30.2114 54.9486 33.2556 48.2675 36.178 42.3242C36.178 42.3242 90.9208 41.5491 91.3433 42.5641Z" stroke="black" stroke-width="2" stroke-miterlimit="10"/>
<path d="M91.1836 42.4211C93.1115 42.4211 79.8705 49.9937 73.2095 53.7048C60.7793 60.6303 49.981 64.9748 38.2288 73.1366C38.0316 73.271 37.7997 73.4245 37.5931 73.3061C37.2717 73.1284 37.1968 72.4473 37.1555 71.8831C36.9347 68.0513 35.9914 60.963 36.9458 60.6303C37.9001 60.2975 87.1822 42.3868 91.1836 42.4211Z" stroke="black" stroke-width="2" stroke-miterlimit="10"/>
<path d="M24.4408 49.3395C24.4408 49.3395 22.7225 50.7791 16.2641 50.754" stroke="black" stroke-width="2" stroke-miterlimit="10" stroke-linecap="round"/>
<path d="M26.684 42.0465C26.684 42.0465 19.7952 41.9067 6.08623 43.1211" stroke="black" stroke-width="2" stroke-miterlimit="10" stroke-linecap="round"/>
<path d="M26.8317 36.1471C26.8317 36.1471 24.2817 36.3247 17.46 34.8867" stroke="black" stroke-width="2" stroke-miterlimit="10" stroke-linecap="round"/>
<path d="M36.2212 41.9555L31.84 28.693C31.8157 28.6192 31.8805 28.5469 31.9564 28.5639C35.4551 29.3497 91.2557 41.8917 91.3084 42.5131C91.3629 43.1546 36.2212 41.9555 36.2212 41.9555Z" stroke="black" stroke-width="2" stroke-miterlimit="10"/>
<path d="M91.3433 42.5671C91.7658 43.5821 70.1983 49.0537 61.0164 52.0078C57.9171 53.0116 54.8172 54.0932 51.7288 55.1749C43.47 58.0591 27.5374 63.8673 26.9409 63.8276C26.3444 63.7878 26.8665 61.7467 27.2889 60.8949C30.2114 54.9516 33.2556 48.2705 36.178 42.3271C36.178 42.3271 90.9208 41.5521 91.3433 42.5671Z" stroke="black" stroke-width="2" stroke-miterlimit="10"/>
<path d="M91.1836 42.4231C93.1115 42.423 79.8705 49.9957 73.2095 53.7068C60.7793 60.6322 49.981 64.9767 38.2288 73.1385C38.0316 73.2729 37.7997 73.4264 37.5931 73.308C37.2717 73.1303 37.1968 72.4492 37.1555 71.8851C36.9347 68.0532 35.9914 60.9649 36.9458 60.6322C37.9001 60.2995 87.1822 42.3888 91.1836 42.4231Z" stroke="black" stroke-width="2" stroke-miterlimit="10"/>
<path d="M27.0364 65.5483C25.878 65.5483 25.9909 64.0724 26.1921 63.3344L83.981 45.041C65.4821 51.8767 28.1948 65.5482 27.0364 65.5483Z" fill="black"/>
<path d="M27.0364 65.5483C25.878 65.5483 25.9909 64.0724 26.1921 63.3344L83.981 45.041C65.4821 51.8767 28.1948 65.5482 27.0364 65.5483Z" fill="black"/>
</g>
<defs>
<clipPath id="clip0_65_20531">
<rect width="100" height="100" fill="white" transform="translate(100 100) rotate(-180)"/>
</clipPath>
</defs>
</svg>
