<svg width="100" height="100" viewBox="0 0 100 100" fill="none" xmlns="http://www.w3.org/2000/svg">
<path d="M22.2527 20.8331C22.6408 20.0703 39.4912 22.4008 40.8055 22.6481C42.1199 22.8954 58.8407 19.0219 59.3624 19.0182C59.8841 19.0146 77.4249 20.356 77.9192 20.8331C78.4136 21.3103 78.1692 74.0181 77.9192 75.833C77.6693 77.6479 59.3624 74.0181 59.3624 74.0181L40.8055 77.6479C40.8055 77.6479 22.8696 76.398 22.2527 75.833C21.6359 75.2681 21.8646 21.596 22.2527 20.8331Z" stroke="black" stroke-width="2" stroke-linejoin="round"/>
<path d="M40.7266 22.6928V77.6479" stroke="black" stroke-width="2" stroke-linecap="round" stroke-linejoin="round"/>
<path d="M59.322 74.2347L76.0525 76.6771C74.065 78.8236 67.0271 77.8372 60.0818 77.8372C57.2717 77.8372 50.5483 80.3132 41.8258 80.8947C33.1034 81.4762 27.9405 79.2342 23.541 76.6771L41.1263 78.2647L59.322 74.2347Z" fill="black"/>
<path d="M59.3184 19.0125V73.9676" stroke="black" stroke-width="2" stroke-linecap="round" stroke-linejoin="round"/>
<path d="M22.4961 71.635C26.523 73.229 30.0307 58.2625 33.3296 55.795C36.5855 53.3598 36.268 47.8159 38.6608 44.6128C40.8612 41.6671 48.8997 38.5215 52.0987 39.664C55.8642 41.0088 56.2127 50.6009 58.716 52.5264C61.2193 54.4519 68.9834 57.1043 72.3917 52.5264C73.9691 50.4077 71.2571 45.9781 72.9675 44.0967C74.2847 42.4348 77.3783 41.4305 77.3557 41.4305" stroke="black" stroke-width="2" stroke-linecap="round" stroke-linejoin="round" stroke-dasharray="3 3"/>
<path d="M22.6504 43.3919C32.1087 44.6223 31.4167 59.3865 38.1835 62.8468C44.9504 66.307 55.1776 64.9998 54.1779 59.6171C53.1783 54.2343 44.1814 53.9909 44.1814 59.6171C44.1814 63.5388 44.489 69.6905 56.8693 68.6908C62.8313 68.2094 65.3704 63.2712 69.9686 62.8468C74.5668 62.4223 76.622 66.7918 77.9289 67.1163" stroke="black" stroke-width="2" stroke-linecap="round"/>
<path d="M26.9863 32.9489C27.3566 33.2289 27.6432 33.7357 27.986 34.0719C28.4993 34.5754 29.0258 35.0788 29.4755 35.6653C29.9975 36.346 30.6131 36.9092 31.1968 37.5149" stroke="black" stroke-width="2" stroke-linecap="round"/>
<path d="M26.9463 36.9426C27.2544 36.7681 27.5303 36.5205 27.8116 36.3081C28.9837 35.4229 30.5772 34.2565 31.5417 33.1848" stroke="black" stroke-width="2" stroke-linecap="round"/>
<path d="M72.6468 29.0771C72.6468 34.4079 68.4201 37.9562 68.4201 37.9562C68.4201 37.9562 64.1934 34.4079 64.1934 29.0771C64.1934 26.7428 66.0857 24.8504 68.4201 24.8504C70.7545 24.8504 72.6468 26.7428 72.6468 29.0771Z" stroke="black" stroke-width="2" stroke-linecap="round" stroke-linejoin="round"/>
<path d="M70.0068 29.0767C70.0068 29.9529 69.2965 30.6631 68.4204 30.6631C67.549 30.7123 66.8945 29.9487 66.834 29.0767C66.834 28.2006 67.5272 27.5746 68.4033 27.5746C69.3466 27.4727 70.0068 28.2006 70.0068 29.0767Z" fill="black"/>
</svg>
