<svg width="100" height="100" viewBox="0 0 100 100" fill="none" xmlns="http://www.w3.org/2000/svg">
<path d="M40.0454 47.0967C39.1682 43.9914 34.7846 38.2584 32.8082 36.0536C29.2977 31.0373 33.0668 24.4919 34.0461 23.2153C35.0254 21.9387 40.297 15.8963 49.6809 17.291C59.0647 18.6857 61.4817 28.0722 61.087 30.6211C60.6923 33.1699 59.6157 36.1821 59.125 42.1269C58.6343 48.0717 63.0986 56.9098 64.5213 59.3576C65.9439 61.8055 69.0695 66.9323 69.3976 66.8692L74.6286 65.8642C75.3634 65.7231 77.0703 70.486 75.5718 70.7739L67.4783 72.3287C66.9535 72.4295 62.2512 65.3041 60.6369 62.2128C59.0226 59.1214 54.755 50.009 53.9535 45.1288C53.1521 40.2485 54.4923 36.5821 55.5516 31.6845C56.5175 27.2186 52.7217 20.9571 44.7579 22.3509C36.7941 23.7447 35.3446 30.3666 36.8177 33.0769C38.2908 35.7873 41.6525 37.0478 44.2651 44.9816C46.8776 52.9153 47.7264 60.9767 47.2842 63.9869C46.842 66.9971 44.6592 75.841 44.1934 76.5284C43.7275 77.2158 36.2495 78.3674 35.1343 78.5816C34.0191 78.7959 32.9684 73.8675 34.7155 73.5318L39.8196 72.5513C40.8697 72.3496 40.1664 72.7774 41.6984 66.754C43.2304 60.7307 41.1418 50.9783 40.0454 47.0967Z" stroke="black" stroke-width="2"/>
<path d="M40.2969 47.8391C31.4287 49.6408 24.3158 51.1701 23.7962 51.4328C22.6551 52.0098 28.2878 70.3786 29.5145 70.1429C29.8943 70.07 34.5005 69.1851 40.7028 67.9936M59.2011 44.1177C68.8537 42.2841 76.0514 41.0462 76.3258 41.3416C77.0304 42.1002 77.591 60.9072 76.8364 61.0522C76.6202 61.0937 72.742 61.8387 67.2896 62.8862M62.1835 63.8671C57.071 64.8492 51.2992 65.958 46.0436 66.9676M44.6941 46.9524C47.7726 46.3361 50.958 45.7074 54.0752 45.1024L44.6941 46.9524Z" stroke="black" stroke-width="2"/>
<path d="M40.4155 72.2462C40.4155 72.2462 28.0618 74.4376 27.5579 74.9503C27.054 75.463 28.191 81.8407 28.857 81.7128C29.523 81.5848 80.7735 71.806 81.7148 71.5585C82.6561 71.3111 81.0577 64.6727 80.4157 64.796C80.1778 64.8417 75.9455 65.452 69.2062 66.7467M46.2832 71.3531C50.6049 70.5228 57.1373 69.2679 63.3348 68.0774" stroke="black" stroke-width="2"/>
<path d="M27.3713 75.0683L34.3158 73.3268L34.5456 77.8796L36.2166 78.6642L36.5185 80.2355L29.0984 81.6609L28.215 80.8996L27.3713 75.0683Z" fill="black"/>
<path d="M64.1469 67.9445L46.069 71.4174L44.5527 76.0343L42.9836 77.1597L42.0054 78.8582L68.6254 73.7444L64.1469 67.9445Z" fill="black"/>
<path d="M80.6582 64.6882L74.846 65.8047L75.8769 69.5563L74.82 71.2057L74.4542 73.2229L82.3179 71.7123L81.8265 67.0783L80.6582 64.6882Z" fill="black"/>
<path d="M40.3796 47.6502L23.8356 51.1772L23.8709 55.3537L28.6939 69.2085L30.3384 70.1476L41.7023 67.9646L42.3302 57.8038L40.3796 47.6502Z" fill="black"/>
<path d="M53.5937 45.156L45.3014 46.749L47.5485 60.1813L47.0503 66.6092L61.6423 63.806L55.9806 52.0294L53.5937 45.156Z" fill="black" stroke="black"/>
<path d="M76.3784 41.49L59.5098 44.074L61.3481 53.6435L67.0105 62.9893L75.2432 61.4078L77.246 60.4393L76.9322 46.2721L76.3784 41.49Z" fill="black"/>
</svg>
