<svg width="100" height="100" viewBox="0 0 100 100" fill="none" xmlns="http://www.w3.org/2000/svg">
<path d="M26.8992 65.9871C26.8992 65.9871 45.8158 21.1113 46.2065 21.0732C46.5972 21.0351 68.9963 61.3267 68.9963 61.3267C69.7133 62.8119 69.6621 64.5531 68.7915 65.9359C65.7699 70.9036 51.4814 77.9197 28.1795 69.316C26.848 68.855 26.2846 67.2674 26.8992 65.9871Z" stroke="black" stroke-width="2" stroke-miterlimit="10" stroke-linecap="round"/>
<path d="M32.4297 70.7495C38.7801 72.4395 50.2518 76.6902 56.6535 78.3802C63.3624 80.1214 71.0443 81.8115 76.5754 78.3802C77.8045 77.612 78.8799 76.5877 79.136 75.2562C79.3409 74.3344 79.0848 73.3613 78.7775 72.4395C77.8045 69.4691 72.0174 65.5257 69.7128 63.1699" stroke="black" stroke-width="2" stroke-miterlimit="10" stroke-linecap="round"/>
<path d="M61.267 81.8822C56.9283 81.0934 37.3623 79.1404 26.7155 73.6905C23.2799 71.9319 25.257 67.6639 25.7968 66.3745C26.2347 65.3284 25.5695 67.8261 26.7157 67.9589C39.4059 71.7202 66.5208 80.7463 72.0744 80.3045C77.6279 79.8627 79.3363 74.5099 79.5204 72.1433C81.8683 76.1389 78.9374 79.8312 75.9398 81.4089C72.9421 82.9866 65.6057 82.6711 61.267 81.8822Z" fill="black"/>
<path d="M26.2781 41.9654L27.6991 43.9733C27.7917 44.1277 27.9771 44.2204 28.1624 44.2204L30.6336 44.1895C31.097 44.1895 31.375 44.7146 31.097 45.0853L29.6142 47.0623C29.4907 47.2167 29.4598 47.4021 29.5216 47.5874L30.2938 49.935C30.4483 50.3675 30.0158 50.8 29.5833 50.6455L27.2357 49.8424C27.0504 49.7806 26.865 49.8115 26.7106 49.935L24.7336 51.4178C24.3629 51.6958 23.8378 51.4178 23.8378 50.9544L23.8687 48.4832C23.8687 48.2979 23.776 48.1125 23.6216 48.0199L21.6446 46.568C21.2739 46.29 21.3666 45.7031 21.7991 45.5795L24.1467 44.8382C24.332 44.7764 24.4556 44.6528 24.5174 44.4675L25.2587 42.1199C25.4441 41.6874 26.031 41.5947 26.2781 41.9654Z" stroke="black" stroke-width="2" stroke-miterlimit="10" stroke-linecap="round"/>
<path d="M68.0966 22.5475L69.633 25.6715C69.7354 25.9276 69.9915 26.0812 70.2476 26.1324L73.7301 26.6446C74.3958 26.747 74.6519 27.5664 74.191 28.0273L71.6815 30.4855C71.4767 30.6904 71.4255 30.9465 71.4767 31.2025L72.0912 34.6338C72.1937 35.2996 71.5279 35.8117 70.9133 35.4532L67.8406 33.8144C67.5845 33.712 67.3284 33.712 67.0724 33.8144L63.9996 35.4532C63.4362 35.7605 62.7193 35.2483 62.8217 34.6338L63.4362 31.2025C63.4874 30.9465 63.385 30.6904 63.2314 30.4855L60.7219 28.0273C60.261 27.5664 60.5171 26.747 61.1829 26.6446L64.6653 26.1324C64.9214 26.0812 65.1263 25.9276 65.2799 25.6715L66.8163 22.5475C66.9699 21.9842 67.8406 21.9842 68.0966 22.5475Z" stroke="black" stroke-width="2" stroke-miterlimit="10" stroke-linecap="round"/>
<path d="M29.3799 26.8515C30.9675 27.2612 32.7087 27.0052 36.3961 23.1642C39.5713 19.8353 44.6414 20.5523 45.9729 20.962C46.0753 21.0132 46.0241 21.1157 45.9729 21.1157C44.5389 21.3717 38.8031 23.4202 37.1131 28.8488" stroke="black" stroke-width="2" stroke-miterlimit="10" stroke-linecap="round"/>
</svg>
