<svg width="100" height="100" viewBox="0 0 100 100" fill="none" xmlns="http://www.w3.org/2000/svg">
<path d="M25.9482 55.0253C25.9482 55.0253 12.1402 55.6633 18.8292 70.2853C21.0122 75.0583 29.7003 79.1263 36.4173 78.9263C44.8003 78.6763 53.3913 75.2183 53.3913 75.2183C53.3913 75.2183 74.8812 84.2713 81.7852 71.7843C89.0142 58.7103 72.8172 57.0043 72.8172 57.0043C72.8172 57.0043 73.0692 50.4023 66.1072 47.4453C59.3402 44.5703 54.6803 50.6933 54.6803 50.6933C54.6803 50.6933 52.4572 36.3943 37.3982 39.2633C25.6632 41.4993 25.9482 55.0253 25.9482 55.0253Z" stroke="black" stroke-width="2" stroke-miterlimit="10" stroke-linecap="round" stroke-linejoin="round"/>
<path d="M52.7681 75.4666C52.7681 75.4666 57.4851 73.4386 58.1201 72.7656" stroke="black" stroke-width="2" stroke-miterlimit="10" stroke-linecap="round" stroke-linejoin="round"/>
<path d="M56.0449 74.3978C56.0449 74.3978 65.5569 77.9558 70.8969 77.1388C76.2369 76.3218 79.9639 75.5878 82.2689 70.8408" stroke="black" stroke-width="2" stroke-miterlimit="10" stroke-linecap="round" stroke-linejoin="round"/>
<path d="M73.8161 57.1742C71.1711 56.8072 68.6841 57.0402 66.8501 59.3642" stroke="black" stroke-width="2" stroke-miterlimit="10" stroke-linecap="round" stroke-linejoin="round"/>
<path d="M25.4692 55.0379C25.4692 55.0379 31.2252 54.3919 34.4692 58.2369" stroke="black" stroke-width="2" stroke-miterlimit="10" stroke-linecap="round" stroke-linejoin="round"/>
<path d="M19.5592 57.4307C18.3322 58.6387 16.8622 64.7437 20.1082 69.0767C23.3532 73.4107 30.3032 80.2837 40.4202 78.6027" stroke="black" stroke-width="2" stroke-miterlimit="10" stroke-linecap="round" stroke-linejoin="round"/>
<path d="M39.1221 32.5967C40.0971 33.2617 41.9461 34.4587 41.9461 34.4587" stroke="black" stroke-width="2" stroke-miterlimit="10" stroke-linecap="round" stroke-linejoin="round"/>
<path d="M46.254 30.4696C46.254 30.4696 45.134 29.3456 44.149 28.1286C43.163 26.9106 42.311 25.5996 42.311 25.5996" stroke="black" stroke-width="2" stroke-miterlimit="10" stroke-linecap="round" stroke-linejoin="round"/>
<path d="M50.6943 24.2607C51.0053 25.3987 51.6373 27.5087 51.6373 27.5087" stroke="black" stroke-width="2" stroke-miterlimit="10" stroke-linecap="round" stroke-linejoin="round"/>
<path d="M57.5034 27.264C57.5034 27.264 57.5644 25.764 57.6024 24.198C57.6414 22.632 57.6584 21 57.6584 21" stroke="black" stroke-width="2" stroke-miterlimit="10" stroke-linecap="round" stroke-linejoin="round"/>
<path d="M68.7021 32.2311C68.7021 32.2311 69.7361 31.1431 70.7971 29.9911C71.8591 28.8391 72.9481 27.6221 72.9481 27.6221" stroke="black" stroke-width="2" stroke-miterlimit="10" stroke-linecap="round" stroke-linejoin="round"/>
<path d="M65.5609 25.4854C65.0449 26.5464 64.1289 28.5493 64.1289 28.5493" stroke="black" stroke-width="2" stroke-miterlimit="10" stroke-linecap="round" stroke-linejoin="round"/>
<path d="M75.8019 49.3936C74.7019 48.9686 72.6279 48.2236 72.6279 48.2236" stroke="black" stroke-width="2" stroke-miterlimit="10" stroke-linecap="round" stroke-linejoin="round"/>
<path d="M73.0654 43.0957C73.0654 43.0957 74.5585 43.2507 76.1185 43.3877C77.6795 43.5257 79.3074 43.6457 79.3074 43.6457" stroke="black" stroke-width="2" stroke-miterlimit="10" stroke-linecap="round" stroke-linejoin="round"/>
<path d="M76.4924 36.4902C75.3374 36.7292 73.1914 37.2262 73.1914 37.2262" stroke="black" stroke-width="2" stroke-miterlimit="10" stroke-linecap="round" stroke-linejoin="round"/>
<path d="M61.3832 46.7533C57.0442 47.2693 54.8063 50.7823 54.8063 50.7823C54.8063 50.7823 53.4633 46.3393 51.0873 43.1373C48.7113 39.9353 44.2383 38.4393 44.2383 38.4393C44.2383 38.4393 48.8293 26.7053 61.7733 32.0003C72.6713 36.4583 67.9293 48.2813 67.9293 48.2813C67.9293 48.2813 65.7222 46.2363 61.3832 46.7533Z" fill="black" stroke="black" stroke-width="2" stroke-miterlimit="10" stroke-linecap="round" stroke-linejoin="round"/>
</svg>
