<svg width="100" height="100" viewBox="0 0 100 100" fill="none" xmlns="http://www.w3.org/2000/svg">
<path d="M25.9495 56.003C25.9495 56.003 12.1395 56.641 18.8295 71.263C21.0095 76.036 29.6995 80.104 36.4195 79.904C44.7995 79.654 53.3895 76.196 53.3895 76.196C53.3895 76.196 74.8795 85.249 81.7895 72.762C89.0195 59.689 72.8195 57.982 72.8195 57.982C72.8195 57.982 73.0694 51.38 66.1094 48.423C59.3394 45.548 54.6795 51.671 54.6795 51.671C54.6795 51.671 52.4595 37.372 37.3995 40.241C25.6695 42.477 25.9495 56.003 25.9495 56.003Z" stroke="black" stroke-width="2" stroke-miterlimit="10" stroke-linecap="round" stroke-linejoin="round"/>
<path d="M52.7695 76.4444C52.7695 76.4444 57.4895 74.4164 58.1195 73.7444" stroke="black" stroke-width="2" stroke-miterlimit="10" stroke-linecap="round" stroke-linejoin="round"/>
<path d="M56.0493 75.3756C56.0493 75.3756 65.5593 78.9336 70.8993 78.1166C76.2393 77.2996 79.9693 76.5656 82.2693 71.8186" stroke="black" stroke-width="2" stroke-miterlimit="10" stroke-linecap="round" stroke-linejoin="round"/>
<path d="M73.8196 58.1519C71.1696 57.7849 68.6896 58.018 66.8496 60.342" stroke="black" stroke-width="2" stroke-miterlimit="10" stroke-linecap="round" stroke-linejoin="round"/>
<path d="M25.4697 56.0157C25.4697 56.0157 31.2297 55.3697 34.4697 59.2147" stroke="black" stroke-width="2" stroke-miterlimit="10" stroke-linecap="round" stroke-linejoin="round"/>
<path d="M19.5593 58.4084C18.3293 59.6164 16.8593 65.7215 20.1093 70.0545C23.3493 74.3885 30.2993 81.2615 40.4193 79.5805" stroke="black" stroke-width="2" stroke-miterlimit="10" stroke-linecap="round" stroke-linejoin="round"/>
<path d="M72.2692 54.807C77.1592 53.403 81.5892 50.27 82.7692 46.929C82.7692 46.929 67.3892 49.855 60.4392 36.717C56.3892 29.074 60.8892 20 60.8892 20C56.3692 21.326 46.0792 30.233 47.9492 41.156C48.1392 42.276 49.5792 41.672 52.2992 45.849C53.9992 48.458 54.6892 51.625 54.6892 51.625C54.6892 51.625 58.7992 46.747 64.1892 47.829C71.8692 49.372 72.2692 54.807 72.2692 54.807Z" fill="black" stroke="black" stroke-width="2" stroke-miterlimit="10" stroke-linecap="round" stroke-linejoin="round"/>
</svg>
