<svg width="100" height="100" viewBox="0 0 100 100" fill="none" xmlns="http://www.w3.org/2000/svg">
<path d="M25.6766 82.8445C25.5121 80.7747 25.5121 21.0873 25.6766 18.9741C30.1194 16.9043 72.1223 14.2889 73.0923 15.0683C74.0622 15.8477 73.6898 77.1719 73.0923 78.1592C72.4947 79.1465 29.4959 84.0656 25.6853 82.8445H25.6766Z" stroke="black" stroke-width="2" stroke-linejoin="round"/>
<path d="M38.52 71.508V65.1426C38.52 63.8695 39.5506 62.7437 40.815 62.6224C45.9853 62.302 51.2941 61.817 56.7675 61.1242C58.0232 61.0029 59.0365 61.9382 59.0365 63.2027V69.5334C59.0365 70.7978 58.0232 71.9237 56.7675 72.0449C51.6578 73.2314 46.323 73.699 40.815 73.5865C39.5506 73.7077 38.52 72.781 38.52 71.508Z" stroke="black" stroke-width="2" stroke-linejoin="round"/>
<path d="M38.8147 68.0352C46.1327 67.8447 53.113 67.4203 58.7769 66.1386" stroke="black" stroke-width="2" stroke-linejoin="round"/>
<path d="M48.8087 64.6576C50.3936 64.5104 51.6667 65.6795 51.6667 67.2644C51.6667 68.8492 50.3849 70.2695 48.8087 70.4168C47.2325 70.564 45.9421 69.4035 45.9421 67.81C45.9421 66.2165 47.2239 64.8048 48.8087 64.6576Z" fill="black"/>
<path d="M48.5315 25.9023C56.8021 25.2009 63.4793 30.6396 63.4793 38.9449C63.4793 47.2502 56.8021 54.6029 48.5315 55.365C40.2262 56.1271 33.4624 49.9696 33.4624 41.595C33.4624 33.2204 40.2262 26.6038 48.5315 25.9023Z" stroke="black" stroke-width="2" stroke-linejoin="round"/>
<path d="M48.5315 25.9024C51.7705 25.6252 54.3946 31.419 54.3946 39.7503C54.3946 48.0816 51.7705 55.0705 48.5315 55.365C45.2925 55.6594 42.6511 49.1382 42.6511 40.7896C42.6511 32.4409 45.2925 26.1795 48.5402 25.911L48.5315 25.9024Z" stroke="black" stroke-width="2" stroke-linejoin="round"/>
<path d="M36.8313 50.2813C40.8844 45.1284 55.7802 44.2191 60.5434 48.0643" stroke="black" stroke-width="2" stroke-linejoin="round"/>
<path d="M33.3496 41.3092C43.8287 41.2226 53.9353 40.4085 63.5397 38.6418" stroke="black" stroke-width="2" stroke-linejoin="round"/>
<path d="M36.8313 32.6748C40.4687 38.6418 55.3212 37.1089 60.5434 30.7002" stroke="black" stroke-width="2" stroke-linejoin="round"/>
<path d="M72.6855 20.3338H74.1491C74.1491 20.3338 75.0238 82.6886 73.7334 83.6326C72.5469 84.49 37.4377 86.0662 26.7162 84.1955C25.3911 83.9617 25.6336 82.0564 25.6336 80.792" stroke="black" stroke-width="2" stroke-linejoin="round"/>
<path d="M28.6472 83.9183L74.1662 78.0033L73.2742 83.0349C57.3997 85.1827 42.9628 85.5291 28.6472 83.9183Z" fill="black"/>
</svg>
