<svg width="100" height="100" viewBox="0 0 100 100" fill="none" xmlns="http://www.w3.org/2000/svg">
<circle cx="4" cy="4" r="4" transform="matrix(0.797271 0.603621 0.603621 -0.797271 22 70.9995)" fill="black" stroke="black" stroke-width="2"/>
<circle cx="4" cy="4" r="4" transform="matrix(0.797271 0.603621 0.603621 -0.797271 45 40.9985)" fill="black"/>
<path d="M49.3038 42.0407L31.418 65.6646" stroke="black" stroke-width="2"/>
<path d="M61.129 16.6442C62.2887 17.5769 64.4822 19.362 65.9532 20.6889C67.7382 22.299 70.3373 24.2466 71.7423 25.2746C72.2527 25.6481 72.3008 26.3953 71.8392 26.8277L64.3093 33.8817C66.3825 37.95 67.9871 47.209 59.4813 52.4027C50.9756 57.5964 38.3238 62.6758 31.4253 65.6083C32.3763 58.1729 31.8261 47.9728 36.5227 35.0205C39.475 26.8785 45.6132 20.3199 53.0394 25.3492L59.7249 16.8092C60.0667 16.3726 60.6969 16.2967 61.129 16.6442Z" stroke="black" stroke-width="2"/>
<path d="M28.1484 74.7726C50.1497 69.4924 72.8871 71.0155 62.026 74.9724C46.0378 80.7971 57.6852 86.865 73.1019 85.5568" stroke="black" stroke-width="2"/>
</svg>
