<svg width="100" height="100" viewBox="0 0 100 100" fill="none" xmlns="http://www.w3.org/2000/svg">
<path d="M34.7612 67.1437C36.6406 63.3031 50.4573 34.6279 57.1307 20.7703C58.3652 17.7403 67.5651 21.5593 66.5973 24.3659C66.2424 25.3952 63.2311 32.3607 62.109 34.2542C60.9869 36.1477 47.1714 63.4982 43.6649 70.7917C40.1585 78.0851 32.1637 83.8357 31.7429 83.1344C31.3221 82.4332 32.4118 71.9444 34.7612 67.1437Z" stroke="black" stroke-width="2"/>
<path d="M59.1034 19.6499C55.7615 20.3009 58.445 23.2759 61.4791 24.382C64.7942 25.5905 66.7485 25.5592 66.6104 23.5338" stroke="black" stroke-width="2"/>
<path d="M44.6596 46.7043C44.5602 47.631 45.3498 49.049 47.723 50.33C50.0828 51.6037 52.4156 51.9562 53.6069 50.9635" stroke="black" stroke-width="2"/>
<path d="M41.8154 52.4126C41.7161 53.3393 42.3565 55.1055 44.7297 56.3864C47.0895 57.6602 49.466 58.0106 50.6976 56.667" stroke="black" stroke-width="2"/>
<path d="M65.6297 27.4077C66.3258 28.5623 67.9042 30.8867 67.5625 32.4053C67.1353 34.3036 59.3113 49.8268 59.1689 50.159" stroke="black" stroke-width="2" stroke-linecap="round"/>
<path d="M62.4304 16.8942C62.2011 17.1911 61.4112 18.6733 60.7544 20.0941C60.2089 21.2512 64.1095 22.8684 64.4494 22.1511C64.5735 21.8891 66.2397 19.1399 66.2397 18.4562C66.2397 17.0466 62.8282 16.3793 62.4304 16.8942Z" fill="black" stroke="black" stroke-width="2" stroke-linecap="round"/>
<path d="M34.407 81.5702C34.9006 81.1965 31.8781 79.887 31.8293 80.3956C31.7805 80.9042 31.7299 82.79 32.0672 82.9264C32.4045 83.0628 33.9134 81.9439 34.407 81.5702Z" fill="black" stroke="black" stroke-width="2" stroke-linecap="round"/>
<path d="M41.9238 53.4262L44.5221 47.6062L47.4841 50.3603L52.8883 51.5555L49.7185 57.5834L43.8985 55.8685L41.9238 53.4262Z" fill="black"/>
<path d="M54.7334 25.9055C54.5284 29.2002 62.0205 31.6541 63.7308 30.6855" stroke="black" stroke-width="2"/>
</svg>
