<svg width="100" height="100" viewBox="0 0 100 100" fill="none" xmlns="http://www.w3.org/2000/svg">
<path d="M46.9027 26.6182C47.3296 25.1672 51.9879 21.1772 54.2638 19.3636C54.7957 18.9351 80.0656 32.3012 80.3857 33.1547C80.7057 34.0081 76.7339 38.4603 74.7069 40.0606C72.6798 41.6609 64.871 45.5226 61.137 48.7232C57.4031 51.9237 53.5171 60.3309 52.6637 61.3978C51.8102 62.4646 47.1008 66.9804 46.6518 67.0357C46.2027 67.091 20.7647 52.8629 20.3379 52.4362C19.9112 52.0094 23.9653 47.5287 25.3522 46.2484C26.7391 44.9682 31.6466 43.9014 36.9808 40.0607C42.3151 36.22 46.3691 28.432 46.9027 26.6182Z" stroke="black" stroke-width="2"/>
<path d="M20.3143 52.193C20.1777 54.165 20.1104 64.7877 20.1104 65.4541C20.1104 66.1205 45.9368 80.5832 46.7192 80.4702C47.5016 80.3572 54.1292 73.1839 54.4996 72.8454C55.8466 71.6145 58.5492 62.3633 63.5286 59.0177C68.508 55.6722 70.9215 55.3007 73.7949 53.3944C74.4195 52.9801 80.049 48.5273 80.0971 47.4814C80.1451 46.4354 80.3794 33.3286 80.3794 33.3286" stroke="black" stroke-width="2"/>
<path d="M46.7197 67.1021V80.2732" stroke="black" stroke-width="2"/>
<path d="M27.3289 56.1798C32.36 51.2638 45.3493 38.6726 48.4297 35.4381C50.8087 32.9401 57.2982 32.3714 59.4679 34.36C61.4415 36.1689 62.3181 39.913 59.0344 43.1391C56.4074 45.72 42.6653 60.0381 39.6505 63.1105" stroke="black" stroke-width="2"/>
<path d="M29.1027 57.5459C26.7089 59.2397 26.8017 63.9707 30.9135 66.5405C35.0255 69.1105 39.7327 65.022 37.7468 62.2185" stroke="black" stroke-width="2"/>
<ellipse cx="46.0062" cy="43.6585" rx="1.72864" ry="1.50442" fill="black"/>
<path d="M35.1768 60.4712L46.3912 49.624L57.4706 38.5755C58.1895 37.8412 60.6912 34.9203 58.0357 33.5784" stroke="black" stroke-width="2"/>
<path d="M27.8809 59.3757L29.4482 57.8086L37.6389 62.46L37.9929 64.0779L36.9311 66.3025L33.4931 67.2126L30.7629 66.3025L27.8809 63.0667V59.3757Z" fill="black"/>
<path d="M26.1111 45.5278L20.4766 52.3555L27.6371 56.3852L47.4031 37.0812L51.0357 34.5238L55.941 33.4633L59.8788 34.5238L60.8464 38.1593L59.8788 41.7532L39.4454 63.0594L46.7269 67.0054L52.0963 62.6303L54.7478 57.7913L58.46 52.3555L60.8464 48.9749L67.2101 44.5335L75.8276 39.363L79.805 34.5238L80.3353 32.9993L73.7064 29.1545L54.4827 19.4102L47.8538 24.9783L46.3954 28.4917L42.4844 34.5238L38.706 38.899L32.74 42.6111L26.1111 45.5278Z" fill="black"/>
</svg>
