<svg width="100" height="100" viewBox="0 0 100 100" fill="none" xmlns="http://www.w3.org/2000/svg">
<path d="M43.1355 38.212C49.3808 30.1162 56.1711 19.8989 59.7341 18.7422C63.2972 17.5855 71.334 22.2623 70.9365 26.4765C70.5389 30.6907 62.8024 39.9237 57.1353 47.5569C52.2611 54.1222 45.7262 62.2207 42.2454 67.2404C41.2669 68.6516 40.0237 69.8687 38.5278 70.7121L25.8444 77.8622C25.343 78.1448 24.7337 77.7353 24.8062 77.1643L26.7512 61.8329C26.9722 60.0912 27.6466 58.4394 28.7104 57.0428C32.0647 52.6387 37.8861 45.0168 43.1355 38.212Z" stroke="black" stroke-width="2"/>
<path d="M46.4879 75.1484C42.5084 75.2934 24.1345 75.5219 25.4358 78.9634C38.392 78.0227 39.4847 80.1311 36.8432 82.6494C33.0264 86.2881 61.8625 84.8527 66.8984 82.974C71.9343 81.0953 72.4411 77.9982 64.5068 76.4598C59.7559 75.5387 54.9193 74.8413 46.4879 75.1484Z" fill="black"/>
<path d="M31.7964 74.4999C30.977 71.3863 27.1533 70.0753 25.6784 70.84L25.1592 77.189L31.7964 74.4999Z" fill="black"/>
<path d="M26.9766 60.0356C26.9766 60.0356 32.6117 59.1762 35.8093 61.6009C39.007 64.0256 40.3934 68.5329 40.3934 68.5329" stroke="black" stroke-width="2"/>
<path d="M66.357 35.1094C67.1746 31.911 56.9523 25.65 52.807 24.8823" stroke="black" stroke-width="2"/>
<path d="M65.7627 26.8955C66.7961 27.5352 68.8925 29.1838 69.0106 30.6601" stroke="black" stroke-width="2" stroke-linecap="round"/>
</svg>
