<svg width="100" height="100" viewBox="0 0 100 100" fill="none" xmlns="http://www.w3.org/2000/svg">
<path d="M41.1286 72.3115C39.0363 73.4506 34.0285 74.7036 30.7358 70.6029C26.62 65.4771 24.2531 51.3526 24.1502 47.2519C24.0473 43.1513 25.4423 34.5973 30.7358 33.2414C35.6911 31.9721 39.6585 35.0884 40.6875 36.3793" stroke="black" stroke-width="2" stroke-miterlimit="10" stroke-linecap="round"/>
<path d="M53.4929 36.7353C55.3561 34.7659 60.9999 31.6707 64.7263 34.0338C69.3843 36.9878 72.179 43.8045 69.5006 55.6202C66.8222 67.4358 63.7944 75.0478 52.9644 72.662" stroke="black" stroke-width="2" stroke-miterlimit="10" stroke-linecap="round"/>
<path d="M46.7011 74.0067C38.0089 73.8952 37.1172 65.9831 35.334 55.5078C35.334 37.8559 42.9121 33.74 46.7011 33.8886C54.1675 34 57.5107 43.2495 58.2908 52.3875C59.0709 61.5255 55.3934 74.1181 46.7011 74.0067Z" stroke="black" stroke-width="2" stroke-miterlimit="10" stroke-linecap="round"/>
<path d="M74.7513 75.1066C71.622 77.0952 59.8137 79.8378 39.4806 76.488C36.742 76.2188 31.6674 74.6868 30.4435 72.8316C29.2197 70.9764 47.9651 74.4981 48.0982 73.1439C55.062 73.0464 58.1116 73.3038 62.9577 71.0276C70.3001 71.7493 78.5678 71.5333 74.7513 75.1066Z" fill="black"/>
<path d="M64.4053 39.3818C64.9801 39.8745 66.1627 41.3198 66.2939 43.1592" stroke="black" stroke-width="2" stroke-miterlimit="10" stroke-linecap="round"/>
<path d="M47.0348 33.2209C46.9235 29.5806 48.1941 21.7874 54.1672 19.7368" stroke="black" stroke-width="2" stroke-miterlimit="10" stroke-linecap="round"/>
</svg>
