<svg width="100" height="100" viewBox="0 0 100 100" fill="none" xmlns="http://www.w3.org/2000/svg">
<path d="M55.747 52.4475C59.4133 48.3243 62.6531 43.8306 65.8291 39.3522C66.0868 39.0201 65.4076 38.4401 65.3567 38.7901C64.8574 41.2069 56.5252 45.5728 51.9674 47.9511C52.2226 47.8898 52.9116 47.3865 54.2571 48.2117C56.2665 49.553 55.7494 52.1767 55.747 52.4475Z" fill="black"/>
<path d="M55.9806 53.6015C59.6469 49.4782 62.902 45.0484 66.0627 40.5062C66.3204 40.1741 65.9578 39.7883 65.5903 39.9441C60.8079 42.5115 50.3983 47.9649 50.4112 48.1164C50.4242 48.2679 52.7696 47.8201 54.4907 49.3657C56.2424 51.0391 55.983 53.3307 55.9806 53.6015Z" stroke="black" stroke-width="2" stroke-miterlimit="10" stroke-linecap="round"/>
<path d="M28.0586 68.4902C27.0086 69.6069 24.7775 71.1833 23.3994 71.8402" stroke="black" stroke-width="2" stroke-miterlimit="10" stroke-linecap="round"/>
<path d="M38.0986 77.2263C37.4424 77.2263 36.983 76.6352 37.1142 76.044C37.508 74.4019 37.7048 72.6941 37.6392 70.9863C37.6392 70.3294 37.6392 69.6069 38.1642 69.2784C38.4267 69.0814 38.7548 69.0814 39.0829 69.0814C45.4482 68.8186 51.8792 68.5559 58.2445 68.2932C59.032 68.2932 59.8851 68.2275 60.6069 68.6216C61.6568 69.2128 61.985 70.5265 62.1162 71.7088C62.3131 73.2196 62.3787 74.796 62.3131 76.3724C62.3131 76.5695 62.3131 76.7666 62.1162 76.8979C61.985 77.0293 61.7225 76.9636 61.5256 76.9636C58.7695 76.8979 56.0134 76.9636 53.1916 77.0293C48.9262 77.2263 41.1828 77.1607 38.0986 77.2263Z" stroke="black" stroke-width="2" stroke-miterlimit="10" stroke-linecap="round"/>
<path d="M37.0268 79.573C35.4266 79.3866 36.0129 78.5121 36.8353 77.3995L62.2975 76.3906C62.6309 76.8564 63.3377 77.9741 63.4977 78.7193C63.6978 79.6507 39.027 79.8059 37.0268 79.573Z" fill="black" stroke="black" stroke-width="2" stroke-miterlimit="10" stroke-linecap="round"/>
<path d="M17.2305 55.4182C18.9366 55.6153 22.1521 55.2212 23.8583 55.4182" stroke="black" stroke-width="2" stroke-miterlimit="10" stroke-linecap="round"/>
<path d="M46.6898 49.6711C45.2461 51.0505 44.2017 53.1202 44.7266 55.4192C45.3172 57.9152 47.8109 59.6231 50.3045 59.4917C52.995 59.2946 54.7012 57.127 55.2262 55.1565C55.423 54.5653 55.6199 52.5947 54.6356 50.6899C53.9793 49.3105 49.3146 47.0437 46.6898 49.6711Z" stroke="black" stroke-width="2" stroke-miterlimit="10" stroke-linecap="round"/>
<path d="M22.0869 37.5527C24.5149 38.341 26.8117 39.6547 28.7147 41.3625" stroke="black" stroke-width="2" stroke-miterlimit="10" stroke-linecap="round"/>
<path d="M67.4975 25.7949C66.2507 27.6998 65.0695 29.6047 64.0195 31.6409" stroke="black" stroke-width="2" stroke-miterlimit="10" stroke-linecap="round"/>
<path d="M33.8984 25.4668C35.0796 27.1746 36.9827 30.3275 37.8358 32.2324" stroke="black" stroke-width="2" stroke-miterlimit="10" stroke-linecap="round"/>
<path d="M51.092 20.6719C51.092 22.9709 50.6982 26.3865 50.6982 28.8168" stroke="black" stroke-width="2" stroke-miterlimit="10" stroke-linecap="round"/>
<path d="M23.334 71.5772C16.6406 63.5636 15.3282 51.6746 19.2655 42.0189C23.2028 32.3632 31.9305 25.0064 41.9051 21.8536C45.1205 20.8683 48.4672 20.4742 51.814 20.3428C63.3634 19.9487 80.0314 29.473 82.6563 48.5874C83.7719 56.6667 81.6063 65.2715 76.4878 71.6429" stroke="black" stroke-width="2" stroke-miterlimit="10" stroke-linecap="round"/>
<path d="M72.3535 68.3584C74.0597 70.0005 74.9784 70.526 76.5533 71.7083" stroke="black" stroke-width="2" stroke-miterlimit="10" stroke-linecap="round"/>
<path d="M75.4746 54.6309C77.1807 54.6309 80.3582 54.6309 82.0644 54.6309" stroke="black" stroke-width="2" stroke-miterlimit="10" stroke-linecap="round"/>
<path d="M78.6531 38.1436C77.0125 38.9318 75.6345 39.8514 73.7314 40.7053" stroke="black" stroke-width="2" stroke-miterlimit="10" stroke-linecap="round"/>
</svg>
