<svg width="100" height="100" viewBox="0 0 100 100" fill="none" xmlns="http://www.w3.org/2000/svg">
<path d="M35.4981 63.0676C36.5051 61.6546 35.4481 59.9336 32.8561 59.4036C30.3171 58.8836 29.0971 62.7966 31.0141 63.7466C32.9301 64.6976 34.6391 64.2716 35.4981 63.0676Z" fill="black" stroke="black" stroke-width="2" stroke-miterlimit="10" stroke-linecap="round" stroke-linejoin="round"/>
<path d="M39.1119 68.1279C40.8479 70.0769 43.5459 69.1949 45.6589 66.7599C47.3629 64.7949 50.4929 65.0449 50.8509 62.8049C51.1019 61.2259 49.7769 58.5129 46.8059 58.4389C43.8329 58.3649 42.3489 55.8418 40.4019 57.2108C38.2989 58.6898 39.1809 60.3319 38.9219 62.7359C38.6619 65.1399 37.1439 65.9188 39.1119 68.1279Z" fill="black" stroke="black" stroke-width="2" stroke-miterlimit="10" stroke-linecap="round" stroke-linejoin="round"/>
<path d="M37.2438 55.8235C37.7078 55.4095 37.6668 54.6315 37.3068 53.9315C36.8688 53.0815 35.9698 52.3195 35.0688 52.1285C32.8648 51.6615 32.1958 54.8996 33.4938 56.0216C34.7928 57.1426 36.3668 56.6075 37.2438 55.8235Z" fill="black" stroke="black" stroke-width="2" stroke-miterlimit="10" stroke-linecap="round" stroke-linejoin="round"/>
<path d="M47.919 55.1357C49.013 55.5077 50.072 54.4237 50.065 53.0197C50.058 51.6147 47.8721 51.6127 47.3781 53.0157C47.1371 53.7007 46.987 54.8187 47.919 55.1357Z" fill="black" stroke="black" stroke-width="2" stroke-miterlimit="10" stroke-linecap="round" stroke-linejoin="round"/>
<path d="M41.8351 53.6662C42.2081 53.6772 43.463 53.5182 43.854 52.5232C44.164 51.7362 44.264 50.8112 43.794 49.7312C43.144 48.2352 40.112 48.7692 40.278 50.4282C40.445 52.0882 40.6931 53.6332 41.8351 53.6662Z" fill="black" stroke="black" stroke-width="2" stroke-miterlimit="10" stroke-linecap="round" stroke-linejoin="round"/>
<path d="M29.547 24.2522C29.547 24.2522 23.773 32.7332 23.632 36.6662C23.5 40.3322 21.92 75.3442 24.32 76.5752C26.72 77.8072 53.913 83.0632 57.469 81.6922C61.025 80.3212 69.67 75.1432 69.988 71.7132C70.491 66.2712 71.1711 41.2932 71.1801 38.1632C71.1861 35.8822 64.8521 30.6162 64.8521 30.6162C64.8521 30.6162 65.621 24.6482 64.364 23.3702C63.634 22.6282 56.329 21.6442 47.853 20.4742C39.377 19.3042 30.9701 16.7852 30.4591 18.6902C29.5551 22.0632 29.547 24.2522 29.547 24.2522Z" stroke="black" stroke-width="2" stroke-miterlimit="10" stroke-linecap="round" stroke-linejoin="round"/>
<path d="M24.1519 36.6272L60.0618 42.5332" stroke="black" stroke-width="2" stroke-miterlimit="10" stroke-linecap="round" stroke-linejoin="round"/>
<path d="M64.9271 30.2512C64.9271 30.2512 60.5991 40.2872 60.3961 42.8942C60.0691 47.0952 59.7111 61.2842 59.3561 70.8092C59.0011 80.3342 57.4302 81.4892 57.4302 81.4892" stroke="black" stroke-width="2" stroke-miterlimit="10" stroke-linecap="round" stroke-linejoin="round"/>
<path d="M56.1909 81.9184C56.1909 81.9184 68.8049 82.1365 72.7199 80.3015C82.6479 75.6485 69.9209 72.6895 69.9209 72.6895C69.9209 72.6895 69.7739 73.2304 66.4949 76.1864C64.9009 77.6234 62.9659 79.2995 60.4469 80.7435C57.9269 82.1875 56.1909 81.9184 56.1909 81.9184Z" fill="black" stroke="black" stroke-width="2" stroke-miterlimit="10" stroke-linecap="round" stroke-linejoin="round"/>
<path d="M30.2363 24.4639L64.6234 30.5959" stroke="black" stroke-width="2" stroke-miterlimit="10" stroke-linecap="round" stroke-linejoin="round"/>
<path d="M65.84 32.1436C65.84 32.1436 65.088 33.7056 63.268 38.2836C61.448 42.8606 60.724 51.2456 60.448 56.4846C60.172 61.7236 59.312 71.7346 59.312 71.7346" stroke="black" stroke-width="2" stroke-miterlimit="10" stroke-linecap="round" stroke-linejoin="round"/>
</svg>
