<svg width="100" height="100" viewBox="0 0 100 100" fill="none" xmlns="http://www.w3.org/2000/svg">
<path d="M61.37 44.7416C61.37 44.7416 66.47 44.8526 70.73 46.7786C74.12 48.3116 73.4 50.1886 73.4 50.1886C73.4 50.1886 47.2699 83.1796 41.5399 83.3876C35.8199 83.5966 18.7 76.2366 16.33 74.0736C13.96 71.9116 24.9699 60.7046 29.7799 54.3866C34.0699 48.7596 39.36 42.2706 41.61 42.0366C42.92 41.8996 50.95 42.2956 50.95 42.2956" stroke="black" stroke-width="2" stroke-miterlimit="10" stroke-linejoin="round"/>
<path d="M67.8401 57.194C67.8401 57.194 46.52 50.774 42.66 52.236C39.89 53.285 34.1601 59.458 30.8301 62.379C28.1101 64.77 16.54 74.267 16.54 74.267" stroke="black" stroke-width="2" stroke-miterlimit="10" stroke-linejoin="round"/>
<path d="M73.4799 49.591C73.4799 49.591 75.8899 62.503 74.3799 65.219C72.8599 67.935 47.6498 85.115 41.0498 83.373" stroke="black" stroke-width="2" stroke-miterlimit="10" stroke-linecap="round" stroke-linejoin="round"/>
<path d="M42.7096 51.881L41.3496 42.368" stroke="black" stroke-width="2" stroke-miterlimit="10" stroke-linejoin="round"/>
<path d="M81.8798 17.653C81.8798 17.653 63.8498 48.096 55.5598 47.882C47.9698 47.686 50.6898 43.178 53.5698 39.329C56.4498 35.479 74.0898 17 74.0898 17L81.8798 17.653Z" stroke="black" stroke-width="2" stroke-miterlimit="10" stroke-linejoin="round"/>
<path d="M81.9399 17.718C81.9399 17.718 84.4699 20.782 83.1599 23.223C81.8499 25.663 67.23 45.538 67.23 45.538L62.1699 44.473C62.1699 44.473 67.91 38.236 72.89 31.632C77.87 25.028 81.9399 17.718 81.9399 17.718Z" fill="black" stroke="black" stroke-width="2" stroke-miterlimit="10" stroke-linejoin="round"/>
<path d="M44.8799 76.34C44.8699 76.362 42.3899 78.874 42.1299 78.986" stroke="black" stroke-width="2" stroke-miterlimit="10" stroke-linecap="round" stroke-linejoin="round"/>
<path d="M37.95 73.4854C37.35 74.1924 36.0899 75.4564 35.4199 76.1014C35.2099 76.3064 34.97 76.4934 34.75 76.6914C34.67 76.7614 34.37 77.0884 34.45 76.9954" stroke="black" stroke-width="2" stroke-miterlimit="10" stroke-linecap="round" stroke-linejoin="round"/>
<path d="M29.3495 71.2715C28.5695 72.1965 27.5495 72.8905 26.7695 73.8105" stroke="black" stroke-width="2" stroke-miterlimit="10" stroke-linecap="round" stroke-linejoin="round"/>
<path d="M53.2401 67.964L51.1301 70.126C51.1301 70.126 49.57 71.689 49.04 72.313" stroke="black" stroke-width="2" stroke-miterlimit="10" stroke-linecap="round" stroke-linejoin="round"/>
<path d="M45.6506 65.0518C44.6506 66.2288 43.6406 67.3768 42.6406 68.5568" stroke="black" stroke-width="2" stroke-miterlimit="10" stroke-linecap="round" stroke-linejoin="round"/>
<path d="M38.0498 63.0957C38.0498 63.0957 35.1498 66.0627 34.5498 66.7817" stroke="black" stroke-width="2" stroke-miterlimit="10" stroke-linecap="round" stroke-linejoin="round"/>
<path d="M60.7302 59.7225C60.7902 59.6465 60.1602 60.3465 59.9602 60.5765C59.4002 61.2405 58.7602 61.8915 58.2202 62.5355C58.0702 62.7105 57.4902 63.3085 57.5402 63.2885" stroke="black" stroke-width="2" stroke-miterlimit="10" stroke-linecap="round" stroke-linejoin="round"/>
<path d="M53.0501 57.5635C52.3601 58.3775 51.8002 58.9865 51.1102 59.8035C50.8902 60.0655 50.2401 60.7685 50.2801 60.6865" stroke="black" stroke-width="2" stroke-miterlimit="10" stroke-linecap="round" stroke-linejoin="round"/>
<path d="M45.1598 56.0234C44.2798 57.0604 43.4498 57.8844 42.5898 58.9084" stroke="black" stroke-width="2" stroke-miterlimit="10" stroke-linecap="round" stroke-linejoin="round"/>
<path d="M42.9697 83.436C42.9697 83.436 55.0497 80.777 65.9097 74.563C76.7597 68.35 79.4297 64.12 77.9497 63.578C75.2597 62.59 74.7897 63.488 74.7897 63.488L74.4597 65.304C74.4597 65.304 69.0097 70.518 61.3197 75.016C53.6297 79.514 42.9697 83.436 42.9697 83.436Z" fill="black" stroke="black" stroke-width="2" stroke-miterlimit="10" stroke-linejoin="round"/>
</svg>
