<svg width="100" height="100" viewBox="0 0 100 100" fill="none" xmlns="http://www.w3.org/2000/svg">
<path d="M36.9445 68.331C36.9445 68.331 35.6144 64.759 33.2954 66.3C30.9804 67.84 33.5734 70.117 33.5734 70.117C33.5734 70.117 32.4164 72.368 33.4514 73.338C34.4844 74.308 35.8845 73.964 36.8645 72.082C37.1345 71.558 42.2445 71.744 42.2445 71.744C42.2445 71.744 43.5544 75.252 45.7044 74.146C48.7244 72.587 45.9544 70.279 45.9544 70.279C45.9544 70.279 48.7444 67.657 45.9544 66.491C43.0344 65.266 42.6945 68.487 42.6945 68.487L40.2044 68.419L36.9445 68.331Z" stroke="black" stroke-width="2" stroke-miterlimit="10" stroke-linejoin="round"/>
<path d="M28.4874 63.2884C18.9084 62.0134 14.0964 57.1124 15.1404 51.5204C17.0964 41.0524 30.2983 33.9074 38.5143 31.1644C46.7343 28.4224 56.0644 25.4784 61.8144 25.1024C81.7644 23.7964 80.6143 35.4164 80.6143 35.4164C80.6143 35.4164 78.6643 51.9804 54.6443 59.3044C52.4943 59.9594 52.9144 60.0334 50.8844 60.5014" stroke="black" stroke-width="2" stroke-miterlimit="10" stroke-linejoin="round"/>
<path d="M29.0336 77.6262C26.3326 76.7672 23.4466 74.2822 22.9436 73.7942C17.4836 68.4932 15.2246 54.8682 15.2246 54.8682" stroke="black" stroke-width="2" stroke-miterlimit="10" stroke-linejoin="round"/>
<path d="M80.2346 32.6484C80.2346 32.6484 84.6146 47.5434 83.1946 51.9204C81.7746 56.2964 74.1146 69.9694 57.3746 74.7264C54.9646 75.4114 54.5846 75.6554 52.4746 76.1004" stroke="black" stroke-width="2" stroke-miterlimit="10" stroke-linejoin="round"/>
<path d="M38.0044 81.0527C34.3844 80.7977 31.6924 81.3237 29.7804 78.6797C27.8684 76.0367 27.1824 73.0337 27.4344 69.0647C27.7004 64.8837 27.9734 62.8187 29.0314 61.3237C31.0454 58.4777 33.6234 58.7727 39.6244 58.3387C44.8844 57.9597 51.7944 56.3517 51.1244 59.6857C50.3844 63.3527 51.0643 66.9307 51.1543 68.7457C51.3943 73.0417 55.2644 78.5157 50.7244 79.6587C46.1944 80.8007 39.7844 81.1787 38.0044 81.0527Z" stroke="black" stroke-width="2" stroke-miterlimit="10" stroke-linejoin="round"/>
<path d="M65.4943 24.957C65.4943 24.957 52.7843 25.083 44.4043 23.594C36.0143 22.105 31.9433 19 31.9433 19L24.7993 20.46L25.4973 27.717C25.4973 27.717 30.1853 32.199 35.4743 32.339" stroke="black" stroke-width="2" stroke-miterlimit="10" stroke-linejoin="round"/>
<path d="M60.3844 24.954C60.3844 24.954 58.2344 28.361 59.3044 33.595C60.4244 39.043 60.7744 40.342 63.5344 40.43C65.8744 40.504 69.6944 40.585 66.6244 35.811C64.7244 32.859 65.5144 26.897 68.0444 24.564C70.5644 22.23 64.4445 22.801 62.7245 22.751C61.4945 22.715 60.3844 24.954 60.3844 24.954Z" fill="black" stroke="black" stroke-width="2" stroke-miterlimit="10" stroke-linejoin="round"/>
<path d="M21.0503 60.4548C21.0503 60.4548 32.0233 45.3147 48.5243 41.5957C69.9143 36.7777 78.9943 40.0688 78.9943 40.0688" stroke="black" stroke-width="2" stroke-miterlimit="10" stroke-linejoin="round"/>
<path d="M77.2843 53.2364C73.4743 52.0624 77.8543 47.2334 79.4243 48.5254C80.9943 49.8164 79.8943 54.0434 77.2843 53.2364Z" stroke="black" stroke-width="2" stroke-miterlimit="10" stroke-linejoin="round"/>
<path d="M52.7041 77.9592C52.7041 77.9592 70.1141 74.4882 78.2441 62.9932C86.3741 51.4982 85.6141 51.0742 83.7341 51.5342" stroke="black" stroke-width="2" stroke-miterlimit="10" stroke-linejoin="round"/>
<path d="M39.9648 37.443C39.8548 34.258 44.5948 35.239 44.0548 37.739C43.5148 40.238 40.0648 40.321 39.9648 37.443Z" stroke="black" stroke-width="2" stroke-miterlimit="10" stroke-linejoin="round"/>
<path d="M50.8643 33.3984C50.2843 36.7924 53.2443 37.3204 54.8143 35.7804C55.1943 35.4074 55.4943 34.9134 55.6443 34.3084C56.3943 31.2084 51.3543 30.4814 50.8643 33.3984Z" stroke="black" stroke-width="2" stroke-miterlimit="10" stroke-linejoin="round"/>
<path d="M69.794 32.13C70.514 28.26 75.844 30.595 74.534 33.207C73.224 35.819 69.244 35.096 69.794 32.13Z" stroke="black" stroke-width="2" stroke-miterlimit="10" stroke-linejoin="round"/>
<path d="M21.8652 61.7404C21.8652 61.7404 29.4032 50.7584 41.2742 45.6464C53.1442 40.5344 57.6143 39.9004 57.6143 39.9004" stroke="black" stroke-width="2" stroke-miterlimit="10" stroke-linejoin="round"/>
</svg>
