<svg width="100" height="100" viewBox="0 0 100 100" fill="none" xmlns="http://www.w3.org/2000/svg">
<path d="M60.8921 39.3968C60.8921 39.3968 64.9641 38.3678 67.8801 40.7118C70.4421 42.7708 70.6131 44.3848 70.6131 44.3848" stroke="black" stroke-width="2" stroke-miterlimit="10" stroke-linecap="round" stroke-linejoin="round"/>
<path d="M27.958 43.9778C27.958 43.9778 28.114 39.8618 31.996 36.6248C35.878 33.3868 40.502 31.7868 44.176 32.0228C47.104 32.2108 48.451 33.4418 51.083 35.2268" stroke="black" stroke-width="2" stroke-miterlimit="10" stroke-linecap="round" stroke-linejoin="round"/>
<path d="M44.0742 31.8031C44.0742 31.8031 50.4253 26.5021 54.7623 27.1731C61.9443 28.2841 63.2972 33.2051 64.3442 36.0661C65.3902 38.9261 65.0692 38.9721 65.0692 38.9721" stroke="black" stroke-width="2" stroke-miterlimit="10" stroke-linecap="round" stroke-linejoin="round"/>
<path d="M43.7443 31.9684C36.4793 31.8414 20.6953 35.1424 24.2133 40.7244C27.7323 46.3054 39.0193 48.9274 50.3133 48.6674C61.6073 48.4074 75.0083 45.3534 74.6583 39.9254C74.3093 34.4984 63.3343 33.4494 63.3343 33.4494" stroke="black" stroke-width="2" stroke-miterlimit="10" stroke-linejoin="round"/>
<path d="M47.4782 53.8951C58.0662 54.2801 71.5442 50.4561 76.0262 46.4651C81.1962 41.8631 83.4602 35.8951 71.5342 31.0601C58.4512 25.7551 46.2072 27.1131 44.0732 27.2681C35.5892 27.8851 17.4602 31.3541 18.8642 40.4421C19.6142 45.2961 24.3752 48.1871 30.6172 50.6941C36.5162 53.0641 40.1852 53.6291 47.4782 53.8951Z" stroke="black" stroke-width="2" stroke-miterlimit="10" stroke-linejoin="round"/>
<path d="M80.0992 38.2627C80.0992 38.2627 85.4182 57.0277 83.4212 59.6577C78.4002 66.2747 69.1572 72.1917 50.7572 73.1087C37.9182 73.7497 21.1202 66.6807 16.1812 61.0007C15.1502 59.8157 18.8562 38.5077 18.8562 38.5077" stroke="black" stroke-width="2" stroke-miterlimit="10" stroke-linejoin="round"/>
<path d="M56.7139 44.5897C57.5479 43.1427 59.3639 43.0927 60.5869 43.8037" stroke="black" stroke-width="2" stroke-miterlimit="10" stroke-linecap="round" stroke-linejoin="round"/>
<path d="M46.1592 43.4531C46.7822 42.7031 49.6302 42.4941 49.7302 44.9001" stroke="black" stroke-width="2" stroke-miterlimit="10" stroke-linecap="round" stroke-linejoin="round"/>
<path d="M33.6553 42.4806C34.5313 41.1096 36.6103 40.2596 38.2493 41.2626" stroke="black" stroke-width="2" stroke-miterlimit="10" stroke-linecap="round" stroke-linejoin="round"/>
<path d="M42.397 36.4181C43.356 35.6021 45.853 36.8661 45.64 38.5921" stroke="black" stroke-width="2" stroke-miterlimit="10" stroke-linecap="round" stroke-linejoin="round"/>
<path d="M55.7852 33.4521C56.5702 33.6351 58.0432 33.8011 58.1932 35.6311" stroke="black" stroke-width="2" stroke-miterlimit="10" stroke-linecap="round" stroke-linejoin="round"/>
<path d="M63.3242 33.4451C63.3242 33.4451 73.0862 34.3921 74.5522 39.1291C75.5912 42.4871 70.6982 44.7031 70.6982 44.7031C70.6982 44.7031 70.4253 42.9131 68.4193 41.1511C66.9723 39.8811 65.2952 39.4051 65.2952 39.4051C65.2952 39.4051 65.2613 39.2381 65.1973 38.9591C65.0753 38.4331 64.8443 37.5071 64.5233 36.5351C64.0303 35.0451 63.3242 33.4451 63.3242 33.4451Z" fill="black" stroke="black" stroke-width="2" stroke-miterlimit="10" stroke-linejoin="round"/>
<path d="M40.1269 32.1416C40.1269 32.1416 22.3059 33.9406 23.8209 39.9026C24.3679 42.0536 27.9129 44.1786 27.9129 44.1786C27.9129 44.1786 28.2909 40.8676 30.0779 38.6136C33.3799 34.4476 40.1269 32.1416 40.1269 32.1416Z" fill="black" stroke="black" stroke-width="2" stroke-miterlimit="10" stroke-linejoin="round"/>
<path d="M45.5503 72.9666C45.5503 72.9666 67.5083 75.9876 77.0583 70.5656C85.2833 65.8956 83.8593 56.6836 83.8593 56.6836C83.8593 56.6836 84.4683 58.8386 81.3583 62.1106C79.6583 63.8996 76.6143 66.4286 72.7753 68.3176C61.4823 73.8746 45.5503 72.9666 45.5503 72.9666Z" fill="black" stroke="black" stroke-width="2" stroke-miterlimit="10" stroke-linejoin="round"/>
<path d="M45.9243 65.9668L48.6913 66.1838" stroke="black" stroke-width="2" stroke-miterlimit="10" stroke-linecap="round" stroke-linejoin="round"/>
<path d="M22.1812 58.957C22.1812 58.957 31.4812 64.2 38.5322 65.146" stroke="black" stroke-width="2" stroke-miterlimit="10" stroke-linecap="round" stroke-linejoin="round"/>
</svg>
