<svg width="100" height="100" viewBox="0 0 100 100" fill="none" xmlns="http://www.w3.org/2000/svg">
<path d="M66.2042 37.2691C66.2312 39.8811 66.2452 42.5981 66.3262 45.6331C66.3612 46.9301 69.6372 46.9511 69.5972 45.7751C69.5492 44.3941 69.5451 42.5131 69.5311 40.9991C69.5121 38.8971 69.5112 38.5601 69.4742 37.0411C69.4412 35.6821 66.1872 35.6831 66.2042 37.2691Z" stroke="black" stroke-width="2" stroke-miterlimit="10" stroke-linecap="round" stroke-linejoin="round"/>
<path d="M57.6553 37.2691C57.6833 39.8811 57.6973 42.5981 57.7783 45.6331C57.8133 46.9301 61.0893 46.9511 61.0483 45.7751C61.0003 44.3941 60.9963 42.5131 60.9833 40.9991C60.9643 38.8971 60.9623 38.5601 60.9263 37.0411C60.8933 35.6821 57.6383 35.6831 57.6553 37.2691Z" stroke="black" stroke-width="2" stroke-miterlimit="10" stroke-linecap="round" stroke-linejoin="round"/>
<path d="M48.5801 37.2691C48.6071 39.8811 48.6212 42.5981 48.7022 45.6331C48.7372 46.9301 52.0131 46.9511 51.9731 45.7751C51.9251 44.3941 51.9212 42.5131 51.9072 40.9991C51.8882 38.8971 51.8872 38.5601 51.8502 37.0411C51.8172 35.6821 48.5631 35.6831 48.5801 37.2691Z" stroke="black" stroke-width="2" stroke-miterlimit="10" stroke-linecap="round" stroke-linejoin="round"/>
<path d="M39.168 37.2691C39.195 39.8811 39.209 42.5981 39.29 45.6331C39.325 46.9301 42.601 46.9511 42.561 45.7751C42.513 44.3941 42.5091 42.5131 42.4951 40.9991C42.4761 38.8971 42.4751 38.5601 42.4381 37.0411C42.4051 35.6821 39.151 35.6831 39.168 37.2691Z" stroke="black" stroke-width="2" stroke-miterlimit="10" stroke-linecap="round" stroke-linejoin="round"/>
<path d="M29.7471 37.2691C29.7751 39.8811 29.7892 42.5981 29.8702 45.6331C29.9052 46.9301 33.1811 46.9511 33.1401 45.7751C33.0931 44.3941 33.0891 42.5131 33.0751 40.9991C33.0561 38.8971 33.0551 38.5601 33.0181 37.0411C32.9851 35.6821 29.7311 35.6831 29.7471 37.2691Z" stroke="black" stroke-width="2" stroke-miterlimit="10" stroke-linecap="round" stroke-linejoin="round"/>
<path d="M65.9854 61.0286C66.0124 63.6396 66.0264 66.3576 66.1074 69.3926C66.1424 70.6896 69.4184 70.7106 69.3784 69.5346C69.3304 68.1536 69.3264 66.2726 69.3124 64.7586C69.2934 62.6566 69.2924 62.3196 69.2554 60.8006C69.2224 59.4416 65.9684 59.4426 65.9854 61.0286Z" stroke="black" stroke-width="2" stroke-miterlimit="10" stroke-linecap="round" stroke-linejoin="round"/>
<path d="M57.4366 61.0286C57.4646 63.6396 57.4786 66.3576 57.5596 69.3926C57.5946 70.6896 60.8706 70.7106 60.8296 69.5346C60.7816 68.1536 60.7776 66.2726 60.7646 64.7586C60.7456 62.6566 60.7436 62.3196 60.7066 60.8006C60.6746 59.4416 57.4196 59.4426 57.4366 61.0286Z" stroke="black" stroke-width="2" stroke-miterlimit="10" stroke-linecap="round" stroke-linejoin="round"/>
<path d="M48.3614 61.0286C48.3884 63.6396 48.4024 66.3576 48.4834 69.3926C48.5184 70.6896 51.7944 70.7106 51.7544 69.5346C51.7064 68.1536 51.7024 66.2726 51.6884 64.7586C51.6694 62.6566 51.6684 62.3196 51.6314 60.8006C51.5984 59.4416 48.3444 59.4426 48.3614 61.0286Z" stroke="black" stroke-width="2" stroke-miterlimit="10" stroke-linecap="round" stroke-linejoin="round"/>
<path d="M38.9483 61.0286C38.9763 63.6396 38.9903 66.3576 39.0713 69.3926C39.1063 70.6896 42.3823 70.7106 42.3413 69.5346C42.2943 68.1536 42.2903 66.2726 42.2763 64.7586C42.2573 62.6566 42.2563 62.3196 42.2193 60.8006C42.1863 59.4416 38.9323 59.4426 38.9483 61.0286Z" stroke="black" stroke-width="2" stroke-miterlimit="10" stroke-linecap="round" stroke-linejoin="round"/>
<path d="M29.5284 61.0286C29.5564 63.6396 29.5704 66.3576 29.6514 69.3926C29.6864 70.6896 32.9624 70.7106 32.9214 69.5346C32.8734 68.1536 32.8704 66.2726 32.8564 64.7586C32.8374 62.6566 32.8364 62.3196 32.7994 60.8006C32.7664 59.4416 29.5124 59.4426 29.5284 61.0286Z" stroke="black" stroke-width="2" stroke-miterlimit="10" stroke-linecap="round" stroke-linejoin="round"/>
<path d="M19.4629 56.3236C19.4629 56.3236 23.8069 72.1876 25.9749 73.4676C28.1439 74.7466 43.8589 75.4826 49.4209 75.5346C54.9839 75.5866 71.8159 75.0576 73.7909 72.8966C75.7649 70.7346 80.6969 55.7266 80.6969 55.7266" stroke="black" stroke-width="2" stroke-miterlimit="10" stroke-linecap="round" stroke-linejoin="round"/>
<path d="M34.7754 74.8393C48.4974 76.2883 53.9874 78.0123 74.1984 76.1993C81.2944 75.5633 74.2284 72.4043 74.2284 72.4043L73.3694 73.5033C73.3694 73.5033 69.7974 74.7983 64.3374 75.4113C58.8774 76.0243 50.9324 76.1083 50.9324 76.1083" fill="black"/>
<path d="M34.7754 74.8393C48.4974 76.2883 53.9874 78.0123 74.1984 76.1993C81.2944 75.5633 74.2284 72.4043 74.2284 72.4043L73.3694 73.5033C73.3694 73.5033 69.7974 74.7983 64.3374 75.4113C58.8774 76.0243 50.9324 76.1083 50.9324 76.1083" stroke="black" stroke-width="2" stroke-miterlimit="10" stroke-linecap="round" stroke-linejoin="round"/>
<path d="M19.3161 50.1651C14.4061 50.0911 15.5331 55.7321 18.9131 55.7231C35.6681 55.6761 63.9061 55.2031 80.5481 55.3531C85.2401 55.3961 84.5681 50.0401 80.8241 50.0471C64.0691 50.0771 35.9561 50.4191 19.3161 50.1651Z" stroke="black" stroke-width="2" stroke-miterlimit="10" stroke-linecap="round" stroke-linejoin="round"/>
<path d="M30.87 50.3776C30.87 50.3776 30.413 51.7906 30.417 53.0636C30.421 54.3356 30.885 55.4676 30.885 55.4676L34.915 55.3406C34.915 55.3406 35.625 54.2196 35.653 52.9716C35.682 51.7236 35.029 50.3486 35.029 50.3486L30.87 50.3776Z" stroke="black" stroke-width="2" stroke-miterlimit="10" stroke-linecap="round" stroke-linejoin="round"/>
<path d="M64.2583 50.2116C64.2583 50.2116 63.7172 51.6156 63.7212 52.8886C63.7252 54.1606 64.2743 55.3016 64.2743 55.3016L68.3042 55.1746C68.3042 55.1746 68.9933 53.9866 69.0213 52.7386C69.0503 51.4906 68.4182 50.1826 68.4182 50.1826L64.2583 50.2116Z" stroke="black" stroke-width="2" stroke-miterlimit="10" stroke-linecap="round" stroke-linejoin="round"/>
<path d="M19.001 49.8116C19.001 49.8116 23.253 34.7836 25.631 32.6156C28.01 30.4486 41.463 31.7486 48.933 31.7896C56.403 31.8306 70.768 30.0936 73.392 32.8056C76.017 35.5176 80.921 49.7896 80.921 49.7896" stroke="black" stroke-width="2" stroke-miterlimit="10" stroke-linecap="round" stroke-linejoin="round"/>
<path d="M39.7959 31.2671L43.1559 25.3871C43.9149 24.0601 45.7689 22.9911 47.2969 23.0001L53.8129 23.0371C55.3419 23.0461 57.1949 24.1301 57.9519 25.4581L61.2949 31.3251" stroke="black" stroke-width="2" stroke-miterlimit="10" stroke-linecap="round" stroke-linejoin="round"/>
<path d="M44.0029 31.3356C44.0029 31.3356 45.7869 27.1786 46.9519 26.9046C48.1159 26.6306 53.2539 26.7956 54.0229 26.8376C54.7929 26.8796 56.6769 31.2576 56.6769 31.2576" stroke="black" stroke-width="2" stroke-miterlimit="10" stroke-linecap="round" stroke-linejoin="round"/>
</svg>
