<svg width="100" height="100" viewBox="0 0 100 100" fill="none" xmlns="http://www.w3.org/2000/svg">
<path d="M42.9893 26.1812C41.8701 27.011 41.5161 29.5378 42.6766 31.1432C43.7486 32.6276 46.6649 33.62 49.1025 32.073C53.2947 29.4127 57.3561 26.9317 59.7111 25.2013C62.6553 23.0372 59.1065 16.841 54.7983 19.2082C51.2749 21.1442 49.5608 22.0699 49.5608 22.0699C49.5608 22.0699 45.3343 24.4466 42.9893 26.1812Z" stroke="black" stroke-width="2" stroke-miterlimit="10" stroke-linejoin="round"/>
<path d="M48.5917 22.6327C50.5089 21.4818 52.9011 22.6869 53.8576 24.4674C54.8408 26.2979 54.7766 28.4328 53.3368 29.4085" stroke="black" stroke-width="2" stroke-miterlimit="10" stroke-linejoin="round"/>
<path d="M50.3976 22.0074C50.3976 22.0074 55.7178 19.084 56.7627 19.0869C57.8072 19.0898 59.5222 19.7591 59.9717 20.9316C60.4212 22.1075 60.967 23.3625 60.2378 24.2132C59.5081 25.0596 54.5911 28.2369 54.5911 28.2369C54.5911 28.2369 55.2404 26.2063 54.2688 24.7135C53.2973 23.2166 51.601 21.8364 50.3976 22.0074Z" fill="black" stroke="black" stroke-width="2" stroke-miterlimit="10" stroke-linejoin="round"/>
<path d="M21.4494 76.4043C21.4494 76.4043 18.093 78.0103 17.9619 79.5453C17.8309 81.0813 83.4766 79.6003 83.4766 79.6003C83.4766 79.6003 81.7938 76.5203 79.5635 76.4733C77.3321 76.4253 21.4494 76.4043 21.4494 76.4043Z" stroke="black" stroke-width="2" stroke-miterlimit="10" stroke-linecap="round" stroke-linejoin="round"/>
<path d="M25.8176 80.1306C42.3918 80.6999 76.2045 80.7056 78.095 80.7056C80.458 80.7056 83.238 80.5738 83.4198 79.8467" stroke="black" stroke-width="2" stroke-miterlimit="10" stroke-linecap="round" stroke-linejoin="round"/>
<path d="M32.3525 59.0682C32.193 59.2203 32.2546 62.5158 32.3525 62.6788C32.4505 62.8419 35.7086 62.7646 35.9004 62.8933C36.0922 63.0221 35.9458 66.0811 36.1033 66.2894C36.2609 66.4977 39.8541 66.5149 39.8542 66.2894C39.8542 66.0639 39.9167 63.0907 40.0429 62.8933C40.1691 62.696 43.397 62.8934 43.605 62.6788C43.8129 62.4642 43.8473 59.2203 43.605 59.0682C43.3627 58.9162 40.1914 58.8427 40.0429 58.8427C39.8945 58.8427 40.1227 55.6331 39.8541 55.4576C39.5856 55.2822 36.2548 55.4576 36.1033 55.4576C35.9519 55.4576 36.0922 58.703 35.7288 58.8427C35.3653 58.9824 32.512 58.9162 32.3525 59.0682Z" fill="black" stroke="black" stroke-width="2"/>
<path d="M28.3132 75.0631C28.3132 75.0631 27.7249 51.9046 28.3132 51.3685C28.9015 50.8324 47.3577 50.6061 47.7865 51.3685C48.2153 52.1309 47.7865 75.0631 47.7865 75.0631" stroke="black" stroke-width="2" stroke-linecap="round"/>
<path d="M53.741 49.811C53.1304 50.1402 53.2455 64.7222 53.741 65.2002C54.2366 65.6782 73.5642 65.6379 73.9523 65.2002C74.3404 64.7625 74.3974 50.2791 73.9523 49.811C73.5072 49.3429 54.3517 49.4818 53.741 49.811Z" stroke="black" stroke-width="2" stroke-linecap="round"/>
<path d="M61.681 57.9904C61.897 57.7114 62.147 57.3704 62.442 57.1724" stroke="black" stroke-width="2" stroke-miterlimit="10" stroke-linecap="round" stroke-linejoin="round"/>
<path d="M57.5281 56.388C58.9641 55.425 59.9331 53.736 61.3741 52.769" stroke="black" stroke-width="2" stroke-miterlimit="10" stroke-linecap="round" stroke-linejoin="round"/>
<path d="M65.8271 26.185C65.8271 28.97 64.9631 32.3329 63.3791 34.4514C60.7305 37.9939 56.2093 39.4918 51.3757 39.4918C49.0887 39.4918 46.3718 39.1726 44.4083 38.1518C39.7403 35.725 36.9243 30.5825 36.9243 25.3439C36.9243 21.483 38.3284 18.0262 41.1496 15.613C43.7662 13.3747 47.6588 12.0371 51.3757 12.0371C55.2339 12.0371 59.2195 13.6275 61.8661 16.2297C64.5181 18.8372 65.8271 22.4602 65.8271 26.185Z" stroke="black" stroke-width="2" stroke-linecap="round"/>
<path d="M66.0997 25.6357C66.0997 25.6357 81.0867 24.8141 82.0235 25.6357C82.9603 26.4573 82.0235 41.9948 82.0235 43.3395C82.0235 44.6842 20.1909 43.8625 19.5096 43.3395C18.8282 42.8166 18.8282 26.5321 19.5096 25.6357C20.1909 24.7393 37.0173 25.6357 37.0173 25.6357" stroke="black" stroke-width="2" stroke-linecap="round"/>
<path d="M78.8158 44.0498V75.9525" stroke="black" stroke-width="2" stroke-linecap="round"/>
<path d="M22.7036 43.5977V75.9529" stroke="black" stroke-width="2" stroke-linecap="round"/>
<path d="M20.2373 42.3149C33.1733 42.7119 59.6478 43.5198 62.0576 43.5758C65.0699 43.6459 73.2659 43.9261 75.2273 43.9261" stroke="black" stroke-width="2" stroke-miterlimit="10" stroke-linecap="round" stroke-linejoin="round"/>
</svg>
