<svg width="100" height="100" viewBox="0 0 100 100" fill="none" xmlns="http://www.w3.org/2000/svg">
<path d="M67.1987 15.2902C66.878 15.8514 44.0578 44.6347 32.5334 59.2323C31.6316 59.2323 24.5164 55.5245 20.2073 52.5181C15.8982 49.5118 9.99248 45.2239 18.4035 33.2774C22.445 27.537 31.2472 23.4044 37.8239 20.3429C39.5133 19.5564 50.2967 15.7363 51.6344 15.2904C52.9721 14.8446 67.5996 14.5887 67.1987 15.2902Z" stroke="black" stroke-width="2"/>
<path d="M15.4055 47.9424C14.7544 51.5659 13.1608 59.5358 18.2756 63.4815C21.2236 65.7557 43.9152 78.6341 45.8685 78.6341C47.8218 78.6341 84.9196 58.4852 85.5141 57.636C86.1086 56.7867 85.7546 52.515 85.7546 52.1753C85.7546 51.8356 76.6536 47.5151 76.4837 47.5151C76.3479 47.5151 76.1058 41.5731 75.5943 40.9885C75.0828 40.404 67.345 37.8085 66.6656 37.8085C65.9862 37.8085 54.6859 38.2281 48.9959 38.5112" stroke="black" stroke-width="2"/>
<path d="M39.394 75.9014C39.394 75.9014 39.6711 83.4967 39.6711 84.4382C39.6711 85.3797 40.85 85.4896 40.9051 84.0972C40.9602 82.7047 41.2929 78.5345 41.27 76.6718" stroke="black" stroke-width="2"/>
<path d="M19.9253 64.8491C19.9253 64.8491 20.2195 73.5275 20.2195 74.5894C20.2195 75.6514 21.3984 75.7754 21.4535 74.2048C21.5086 72.6341 21.7176 67.8326 21.6946 65.7316" stroke="black" stroke-width="2"/>
<path d="M77.6841 62.3342C77.6841 62.3342 78.2255 68.7614 78.2255 69.7108C78.2255 70.6602 79.2267 71.115 79.2818 69.7108C79.3369 68.3066 79.5496 63.1406 79.5267 61.2622" stroke="black" stroke-width="2"/>
<path d="M32.3838 59.1681C34.399 60.0841 42.5262 56.241 45.1158 55.1387C58.6857 49.3628 72.3304 43.1927 72.1705 42.713C72.0762 42.4302 66.592 40.8974 65.9896 40.8302C65.6717 40.7947 61.9955 41.031 57.4772 41.3043C53.4328 41.5489 48.631 41.8171 46.3049 42.0463" stroke="black" stroke-width="2"/>
<path d="M36.6781 66.723C36.2104 67.0737 45.0233 71.7951 46.0729 71.8475C47.1224 71.9 81.8777 54.0741 82.4622 53.6357C83.0468 53.1972 75.3421 49.7233 74.5253 49.7234C73.7349 49.7234 37.2627 66.2846 36.6781 66.723Z" stroke="black" stroke-width="2"/>
<path d="M46.2712 67.2826C46.0242 67.3568 43.3362 65.7951 42.3789 65.1877L43.3458 64.6548C44.2413 65.1386 47.5219 66.6874 47.2752 66.8116C46.5342 67.1849 46.58 67.1899 46.2712 67.2826Z" stroke="black" stroke-width="2"/>
<path d="M49.9406 65.1523C49.6936 65.2264 47.0057 63.6647 46.0483 63.0574L47.0152 62.5244C47.9108 63.0082 51.1913 64.557 50.9447 64.6813C50.2037 65.0545 50.2494 65.0596 49.9406 65.1523Z" stroke="black" stroke-width="2"/>
<path d="M56.4504 62.4088C56.2034 62.483 53.5154 60.9213 52.5581 60.314L53.525 59.781C54.4205 60.2648 57.7011 61.8136 57.4544 61.9379C56.7134 62.3111 56.7592 62.3162 56.4504 62.4088Z" stroke="black" stroke-width="2"/>
<path d="M65.6145 40.992C62.5113 40.491 46.2912 42.0296 46.2912 42.0296L33.0767 58.4999H37.2262L70.869 43.5617L71.3159 42.5403C71.3159 42.5403 68.7176 41.493 65.6145 40.992Z" fill="black"/>
<path d="M60.3493 60.508C60.1023 60.5821 57.4144 59.0204 56.457 58.4131L57.4239 57.8801C58.3195 58.3639 61.6 59.9127 61.3534 60.037C60.6124 60.4102 60.6581 60.4153 60.3493 60.508Z" stroke="black" stroke-width="2"/>
<path d="M64.3181 58.6816C64.0711 58.7557 61.3831 57.194 60.4258 56.5867L61.3927 56.0537C62.2882 56.5375 65.5688 58.0863 65.3221 58.2106C64.5811 58.5838 64.6269 58.5889 64.3181 58.6816Z" stroke="black" stroke-width="2"/>
<path d="M70.9069 56.0512C70.6599 56.1253 67.972 54.5637 67.0146 53.9563L67.9815 53.4233C68.8771 53.9071 72.1576 55.4559 71.911 55.5802C71.17 55.9534 71.2157 55.9585 70.9069 56.0512Z" stroke="black" stroke-width="2"/>
<path d="M74.5998 54.09C74.3528 54.1641 71.6649 52.6025 70.7075 51.9951L71.6744 51.4622C72.5699 51.946 75.8505 53.4947 75.6038 53.619C74.8628 53.9923 74.9086 53.9973 74.5998 54.09Z" stroke="black" stroke-width="2"/>
<path d="M16.3253 49.5977C14.5109 59.1366 16.6477 62.6528 22.4426 66.0577C28.1201 69.3936 28.0094 69.3884 28.533 69.7013" stroke="black" stroke-width="2"/>
<path d="M62.9785 21.2343L67.094 37.6861" stroke="black" stroke-width="2"/>
</svg>
