<svg width="100" height="100" viewBox="0 0 100 100" fill="none" xmlns="http://www.w3.org/2000/svg">
<path d="M52.9727 20.7908V48.3481C52.9727 48.5958 53.0646 48.8347 53.2307 49.0185L71.9475 69.7323C72.3214 70.1462 72.9624 70.1753 73.3497 69.7739C77.2556 65.7269 84.4313 55.1259 80.635 40.7573C77.1445 27.5461 62.4961 20.7807 54.0243 19.8217C53.4527 19.757 52.9727 20.2155 52.9727 20.7908Z" stroke="black" stroke-width="2" stroke-miterlimit="10" stroke-linecap="round"/>
<path d="M61.709 52.3583L71.9004 34.9568" stroke="black" stroke-width="2" stroke-miterlimit="10" stroke-linecap="round"/>
<path d="M71.9001 43.6572C69.5706 43.6572 68.9883 45.8669 68.9883 46.9718C68.9883 47.8004 69.5706 49.4577 71.9001 49.4577C74.2296 49.4577 74.8119 47.8004 74.8119 46.9718C74.8119 45.8669 74.2296 43.6572 71.9001 43.6572Z" stroke="black" stroke-width="2" stroke-miterlimit="10" stroke-linecap="round"/>
<path d="M61.7087 36.407C59.3792 36.407 58.7969 38.6167 58.7969 39.7216C58.7969 40.5502 59.3792 42.2075 61.7087 42.2075C64.0382 42.2075 64.6205 40.5502 64.6205 39.7216C64.6205 38.6167 64.0382 36.407 61.7087 36.407Z" stroke="black" stroke-width="2" stroke-miterlimit="10" stroke-linecap="round"/>
<path fill-rule="evenodd" clip-rule="evenodd" d="M24.5747 31.6016C30.7759 25.2267 39.6823 22.265 46.2208 22.3251C47.3364 22.3354 48.1495 23.2594 48.1495 24.2995V51.9643L66.7781 71.8933C67.5752 72.746 67.4976 74.1535 66.4747 74.8563C60.8962 78.689 51.3631 82.0505 42.0842 81.1095C37.4248 80.637 32.805 79.0762 28.7955 75.9196C24.7831 72.7608 21.4393 68.049 19.2643 61.3693C14.8783 47.8994 18.307 38.0448 24.5747 31.6016ZM34.0464 42.6582C34.5987 42.6582 35.0464 43.1059 35.0464 43.6582V45.5686C37.4643 45.6645 39.0507 46.4387 39.9665 47.6014C40.9252 48.8187 40.9863 50.2595 40.7584 51.2204C40.6309 51.7577 40.0919 52.09 39.5545 51.9625C39.0172 51.835 38.6849 51.2961 38.8124 50.7587C38.9348 50.2426 38.8908 49.468 38.3953 48.8389C37.9573 48.2828 37.0236 47.6625 35.0464 47.5703V53.4562L35.1267 53.4753L35.1273 53.4755C35.3999 53.5402 35.6751 53.6056 35.9526 53.6744C37.0599 53.949 38.2477 54.2875 39.156 54.9171C40.1466 55.6037 40.7854 56.6219 40.7854 58.079C40.7854 59.2996 40.5688 60.311 40.1182 61.125C39.6591 61.9545 38.9966 62.5066 38.2385 62.8617C37.2824 63.3095 36.1452 63.4482 35.0464 63.4911V66.1351C35.0464 66.6874 34.5987 67.1351 34.0464 67.1351C33.4941 67.1351 33.0464 66.6874 33.0464 66.1351V63.4954C30.0079 63.2888 28.3794 60.9351 27.6785 59.922L27.6785 59.9219L27.6784 59.9219C27.5806 59.7805 27.5008 59.6652 27.4378 59.5855C27.0953 59.1523 27.1687 58.5234 27.6019 58.1808C28.0351 57.8383 28.664 57.9117 29.0066 58.3449C29.1334 58.5053 29.2642 58.6864 29.4033 58.8789L29.4035 58.8792L29.4035 58.8792C30.1591 59.9252 31.1561 61.3052 33.0464 61.4894V55.0142C32.6649 54.908 32.2834 54.7914 31.9123 54.6599C30.6993 54.2301 29.4718 53.6032 28.5263 52.5404C28.1109 52.0735 27.8865 51.3792 27.8343 50.6984C27.7797 49.9861 27.9013 49.1607 28.3179 48.3735C29.0508 46.9883 30.5625 45.937 33.0464 45.642V43.6582C33.0464 43.1059 33.4941 42.6582 34.0464 42.6582ZM30.0856 49.3089C30.4137 48.6889 31.2042 47.9257 33.0464 47.6574V52.93C32.8899 52.8809 32.7345 52.8294 32.5803 52.7747C31.5267 52.4014 30.6518 51.9206 30.0205 51.211C30.0208 51.2114 30.0176 51.2078 30.0116 51.1992C30.0057 51.1907 29.9977 51.1783 29.9883 51.1615C29.9692 51.1275 29.9469 51.0803 29.9248 51.0192C29.8802 50.8959 29.843 50.7344 29.8285 50.5455C29.7995 50.1668 29.8651 49.7256 30.0856 49.3089ZM35.0464 61.4873V55.5125C35.1916 55.5472 35.3335 55.5815 35.4713 55.6157C36.5979 55.895 37.4467 56.1657 38.0167 56.5608C38.5044 56.8989 38.7854 57.3207 38.7854 58.079C38.7854 59.0739 38.6077 59.7242 38.3684 60.1564C38.1378 60.5731 37.8147 60.8517 37.3902 61.0505C36.7709 61.3406 35.984 61.4479 35.0464 61.4873Z" fill="black"/>
</svg>
