<svg width="100" height="100" viewBox="0 0 100 100" fill="none" xmlns="http://www.w3.org/2000/svg">
<path d="M50.4302 22.3818L50.9675 30.8715C61.3915 31.1939 69.7737 36.6745 69.7737 49.3552C69.7737 60.3165 64.5079 69.1285 50.0003 69.1285C39.039 69.1285 30.227 61.7136 30.227 49.3552C30.227 49.2478 30.227 49.2478 30.227 49.2478H21.5225C21.5225 66.9793 34.3106 77.6182 50.0003 77.6182C70.9558 77.6182 78.4782 64.83 78.4782 49.1403C78.4782 30.4416 65.905 22.5968 50.4302 22.3818Z" stroke="black" stroke-width="2" stroke-miterlimit="10"/>
<path d="M49.5698 22.3818L50.1072 30.8715C60.5311 31.1939 68.9133 36.6745 68.9133 49.3552C68.9133 60.3165 63.6476 69.1285 49.14 69.1285C38.1787 69.1285 29.3667 61.7136 29.3667 49.3552C29.3667 49.2478 29.3667 49.2478 29.3667 49.2478H20.6621C20.6621 66.9793 33.4503 77.6182 49.14 77.6182C70.0954 77.6182 77.6179 64.83 77.6179 49.1403C77.6179 30.4416 65.1521 22.5968 49.5698 22.3818Z" fill="black"/>
<path d="M49.2474 22.3818C33.5577 22.3818 20.7695 33.4506 20.7695 49.1403C20.7695 66.9793 33.5577 77.6182 49.2474 77.6182C70.2028 77.6182 77.7253 64.83 77.7253 49.1403C77.6178 30.3341 64.9371 22.3818 49.2474 22.3818ZM49.2474 69.1285C38.2861 69.1285 30.2394 61.7136 30.2394 49.3552C30.2394 38.3939 38.2861 30.764 49.2474 30.764C60.2087 30.764 69.0208 36.2447 69.0208 49.3552C68.9133 60.3165 63.755 69.1285 49.2474 69.1285Z" stroke="black" stroke-width="2" stroke-miterlimit="10"/>
<path d="M44.9043 57.9298L55.0957 40.5283" stroke="black" stroke-width="2" stroke-miterlimit="10" stroke-linecap="round"/>
<path d="M55.0954 49.2295C52.766 49.2295 52.1836 51.4392 52.1836 52.5441C52.1836 53.3727 52.766 55.03 55.0954 55.03C57.4249 55.03 58.0072 53.3727 58.0072 52.5441C58.0072 51.4392 57.4249 49.2295 55.0954 49.2295Z" stroke="black" stroke-width="2" stroke-miterlimit="10" stroke-linecap="round"/>
<path d="M44.905 41.9785C42.5755 41.9785 41.9932 44.1882 41.9932 45.2931C41.9932 46.1217 42.5755 47.779 44.905 47.779C47.2344 47.779 47.8168 46.1217 47.8168 45.2931C47.8168 44.1882 47.2344 41.9785 44.905 41.9785Z" stroke="black" stroke-width="2" stroke-miterlimit="10" stroke-linecap="round"/>
</svg>
