<svg width="100" height="100" viewBox="0 0 100 100" fill="none" xmlns="http://www.w3.org/2000/svg">
<path d="M23.4683 40.9951C20.7843 42.9851 19.9353 49.0451 22.7183 52.8951C25.2893 56.4551 32.2833 58.8351 38.1293 55.1251C48.1833 48.7451 57.9233 42.7951 63.5713 38.6451C70.6323 33.4551 62.1213 18.5952 51.7893 24.2722C43.3393 28.9152 39.2283 31.1351 39.2283 31.1351C39.2283 31.1351 29.0923 36.8351 23.4683 40.9951Z" stroke="black" stroke-width="2" stroke-miterlimit="10" stroke-linejoin="round"/>
<path d="M36.9043 32.4854C41.5023 29.7254 47.2393 32.6154 49.5333 36.8854C51.8913 41.2754 51.7373 46.3954 48.2843 48.7354" stroke="black" stroke-width="2" stroke-miterlimit="10" stroke-linejoin="round"/>
<path d="M49.8872 65.0552C45.6312 59.3152 51.0412 47.0952 62.6492 47.4052C74.7912 47.7252 80.9792 53.2852 78.2332 62.5652C75.4932 71.8252 59.3502 77.8052 49.8872 65.0552Z" stroke="black" stroke-width="2" stroke-miterlimit="10" stroke-linejoin="round"/>
<path d="M48.6903 58.0352C47.5763 65.4752 49.3763 77.3651 63.7483 77.3851C78.5873 77.4051 79.2743 66.4651 78.8513 57.7051" stroke="black" stroke-width="2" stroke-miterlimit="10" stroke-linejoin="round"/>
<path d="M49.6084 57.2656L78.4614 61.3456" stroke="black" stroke-width="2" stroke-miterlimit="10" stroke-linejoin="round"/>
<path d="M29.3003 50.8447L30.2803 51.8247" stroke="black" stroke-width="2" stroke-miterlimit="10" stroke-linecap="round" stroke-linejoin="round"/>
<path d="M34.1753 39.0752C30.4403 41.1452 26.6303 43.2052 27.4533 46.9252" stroke="black" stroke-width="2" stroke-miterlimit="10" stroke-linecap="round" stroke-linejoin="round"/>
<path d="M41.2354 30.9854C41.2354 30.9854 53.9943 23.9745 56.5003 23.9815C59.0053 23.9885 63.1184 25.5935 64.1964 28.4055C65.2743 31.2255 66.5834 34.2355 64.8344 36.2755C63.0844 38.3055 51.2924 45.9254 51.2924 45.9254C51.2924 45.9254 52.8493 41.0555 50.5193 37.4755C48.1893 33.8855 44.1214 30.5754 41.2354 30.9854Z" fill="black" stroke="black" stroke-width="2" stroke-miterlimit="10" stroke-linejoin="round"/>
</svg>
