<svg width="100" height="100" viewBox="0 0 100 100" fill="none" xmlns="http://www.w3.org/2000/svg">
<path d="M29.3884 34.1113C29.3884 34.1113 30.4614 70.2514 30.9394 73.8014C31.4174 77.3414 40.3784 81.4113 48.4154 81.3313C56.4524 81.2513 65.2454 77.8714 65.3214 71.9314C65.3984 65.9914 64.9394 34.3514 64.9394 34.3514" stroke="black" stroke-width="2" stroke-miterlimit="10" stroke-linejoin="round"/>
<path d="M64.7294 41.7207C64.7294 41.7207 62.2283 43.3907 55.1423 44.2307C49.9873 44.8407 44.1204 44.2207 44.1204 44.2207L44.7933 72.7106C44.7933 72.7106 48.5444 73.4007 54.1284 72.6607C64.0074 71.3607 65.2853 67.6006 65.2853 67.6006" stroke="black" stroke-width="2" stroke-miterlimit="10" stroke-linejoin="round"/>
<path d="M27.2945 23.2432C27.2945 23.2432 25.7544 32.5412 29.7184 34.1912C35.1654 36.4612 43.1195 37.5012 48.2815 37.1912C53.4425 36.8812 64.3574 35.9512 65.8444 33.5612C67.6794 30.6112 66.6414 24.1282 66.6414 24.1282" stroke="black" stroke-width="2" stroke-miterlimit="10" stroke-linejoin="round"/>
<path d="M48.0344 18C40.6404 17.993 24.0304 19.803 27.8504 24.675C31.6694 29.551 45.2054 28.911 49.4754 28.771C52.4894 28.681 67.1484 27.861 66.6854 24.27C66.2234 20.676 55.9864 18.008 48.0344 18Z" stroke="black" stroke-width="2" stroke-miterlimit="10" stroke-linejoin="round"/>
<path d="M48.0234 81.3414C48.0234 81.3414 68.2794 82.1115 72.6834 77.5715C75.8914 74.2515 65.7294 73.5215 65.7294 73.5215C65.7294 73.5215 64.5154 76.8715 61.0194 78.6315C57.5234 80.4015 53.2344 81.2915 53.2344 81.2915" fill="black"/>
<path d="M48.0234 81.3414C48.0234 81.3414 68.2794 82.1115 72.6834 77.5715C75.8914 74.2515 65.7294 73.5215 65.7294 73.5215C65.7294 73.5215 64.5154 76.8715 61.0194 78.6315C57.5234 80.4015 53.2344 81.2915 53.2344 81.2915" stroke="black" stroke-width="2" stroke-miterlimit="10" stroke-linejoin="round"/>
<path d="M50.0754 66.6112C51.5854 66.7812 54.2154 66.5713 55.5624 65.7812" stroke="black" stroke-width="2" stroke-miterlimit="10" stroke-linecap="round" stroke-linejoin="round"/>
<path d="M49.6174 61.3708C52.5784 61.7108 55.6114 60.9508 58.4994 60.3408" stroke="black" stroke-width="2" stroke-miterlimit="10" stroke-linecap="round" stroke-linejoin="round"/>
<path d="M48.0635 51.1208C48.0845 50.9808 48.7685 49.7709 49.0095 50.2209C49.4375 51.0109 48.4445 56.2408 49.9755 55.8408C51.1155 55.5408 50.6204 52.7409 51.9164 52.4309C53.3694 52.0909 52.8175 54.8608 54.0185 54.8708C54.7015 54.8708 54.9414 52.7509 55.8384 52.5209C56.7994 52.2709 57.2395 54.0109 58.1545 53.8009C58.4115 53.7309 59.4945 52.4408 60.4495 52.1308" stroke="black" stroke-width="2" stroke-miterlimit="10" stroke-linecap="round" stroke-linejoin="round"/>
<path d="M48.1985 29.1406C48.1985 30.9306 48.2225 32.7906 48.4435 34.5606C48.5155 35.1306 48.4515 35.7406 48.5655 36.3106C48.5965 36.4606 48.5675 37.0806 48.6465 36.8406" stroke="black" stroke-width="2" stroke-miterlimit="10" stroke-linecap="round" stroke-linejoin="round"/>
<path d="M39.1174 29.1006C39.1174 30.7806 39.4434 32.4505 39.4434 34.1105C39.4434 34.9305 39.5654 35.7405 39.5654 36.5505C39.5654 36.6705 39.5534 36.6605 39.6064 36.5505" stroke="black" stroke-width="2" stroke-miterlimit="10" stroke-linecap="round" stroke-linejoin="round"/>
<path d="M56.2214 28.5713C56.2214 30.3613 56.5884 32.1413 56.5884 33.9513C56.5884 34.5113 56.4254 36.5613 56.4254 36.1913" stroke="black" stroke-width="2" stroke-miterlimit="10" stroke-linecap="round" stroke-linejoin="round"/>
<path d="M32.6824 27.8008C33.0184 28.8108 32.8054 31.4708 32.8054 32.7208C32.8054 33.2508 32.9274 33.7508 32.9274 34.2708C32.9274 34.4508 33.0084 35.1908 33.0084 34.9608" stroke="black" stroke-width="2" stroke-miterlimit="10" stroke-linecap="round" stroke-linejoin="round"/>
<path d="M62.0453 27.7207C62.4383 29.2907 62.2493 31.0907 62.2493 32.6807C62.2493 33.2307 62.0864 33.7707 62.0864 34.3107C62.0864 34.4607 62.0013 35.1607 61.9233 35.0107" stroke="black" stroke-width="2" stroke-miterlimit="10" stroke-linecap="round" stroke-linejoin="round"/>
</svg>
