<svg width="100" height="100" viewBox="0 0 100 100" fill="none" xmlns="http://www.w3.org/2000/svg">
<path d="M25.5221 55.1593C30.2041 47.2593 39.6901 57.6693 33.8051 62.1293C28.7541 65.9493 22.1911 60.7693 25.5221 55.1593Z" stroke="black" stroke-width="2" stroke-miterlimit="10" stroke-linejoin="round"/>
<path d="M28.5471 52.4795C30.2821 51.9695 34.5161 53.1595 34.7061 58.1795C34.8811 62.8195 30.9541 63.5995 29.6261 63.4295" stroke="black" stroke-width="2" stroke-miterlimit="10" stroke-linejoin="round"/>
<path d="M52.4201 28.4895C57.1031 20.5995 66.5891 31.0095 60.7041 35.4595C55.6531 39.2895 49.0901 34.0995 52.4201 28.4895Z" stroke="black" stroke-width="2" stroke-miterlimit="10" stroke-linejoin="round"/>
<path d="M55.4451 25.8191C57.1811 25.2991 61.4151 26.489 61.6041 31.509C61.7791 36.159 57.8521 36.929 56.5251 36.759" stroke="black" stroke-width="2" stroke-miterlimit="10" stroke-linejoin="round"/>
<path d="M63.6163 39.4903C68.2993 31.6003 77.7843 42.0103 71.9003 46.4703C66.8493 50.2903 60.2853 45.1103 63.6163 39.4903Z" stroke="black" stroke-width="2" stroke-miterlimit="10" stroke-linejoin="round"/>
<path d="M66.6411 36.8205C68.3771 36.3005 72.6111 37.5004 72.8001 42.5204C72.9751 47.1604 69.0481 47.9304 67.7211 47.7704" stroke="black" stroke-width="2" stroke-miterlimit="10" stroke-linejoin="round"/>
<path d="M38.9862 41.9297C43.6692 34.0397 53.1542 44.4497 47.2692 48.9097C42.2182 52.7297 35.6552 47.5497 38.9862 41.9297Z" stroke="black" stroke-width="2" stroke-miterlimit="10" stroke-linejoin="round"/>
<path d="M42.0112 39.2598C43.7462 38.7498 47.9802 39.9399 48.1702 44.9599C48.3452 49.5999 44.4182 50.3699 43.0902 50.2099" stroke="black" stroke-width="2" stroke-miterlimit="10" stroke-linejoin="round"/>
<path d="M36.9702 66.4797C41.6532 58.5897 51.1392 68.9997 45.2542 73.4497C40.2032 77.2797 33.6402 72.0897 36.9702 66.4797Z" stroke="black" stroke-width="2" stroke-miterlimit="10" stroke-linejoin="round"/>
<path d="M39.9952 63.8098C41.7312 63.2898 45.9652 64.4897 46.1542 69.4997C46.3292 74.1497 42.4022 74.9197 41.0752 74.7597" stroke="black" stroke-width="2" stroke-miterlimit="10" stroke-linejoin="round"/>
<path d="M50.2133 53.0303C54.8953 45.1403 64.3813 55.5503 58.4963 60.0103C53.4453 63.8303 46.8823 58.6503 50.2133 53.0303Z" stroke="black" stroke-width="2" stroke-miterlimit="10" stroke-linejoin="round"/>
<path d="M53.2373 50.3605C54.9733 49.8405 59.2073 51.0405 59.3963 56.0605C59.5713 60.7005 55.6453 61.4705 54.3173 61.3105" stroke="black" stroke-width="2" stroke-miterlimit="10" stroke-linejoin="round"/>
<path d="M20.5642 52.9398C20.5642 52.9398 49.3662 24.3198 51.7642 21.4598C54.9512 17.6598 58.3372 16.9699 61.2142 19.4899C64.0912 21.9999 77.7192 35.3998 79.6542 37.1698C81.5892 38.9398 83.3522 42.9998 78.9522 47.5798C74.5512 52.1698 62.3212 64.3798 59.6202 66.8398C46.4342 78.8498 45.8012 83.6398 40.5022 82.3398C37.2632 81.5498 25.0372 67.5298 19.0282 61.1998C17.8112 59.9098 17.0212 56.5798 20.5642 52.9398Z" stroke="black" stroke-width="2" stroke-miterlimit="10" stroke-linejoin="round"/>
<path d="M40.4531 82.3295C44.7501 83.4295 47.4641 81.6795 53.4321 75.2295C59.3991 68.7695 71.0941 58.1894 74.3731 54.5394C76.0261 52.6894 82.1141 48.3395 81.6911 41.4795" stroke="black" stroke-width="2" stroke-miterlimit="10" stroke-linejoin="round"/>
<path d="M40.5312 63.7998C40.5312 66.1698 40.9452 66.9099 40.9452 69.2399C40.9452 70.0499 41.0752 72.6198 41.2692 73.3998C41.3042 73.5398 41.3512 74.3398 41.3512 73.9698" fill="black"/>
<path d="M40.5312 63.7998C40.5312 66.1698 40.9452 66.9099 40.9452 69.2399C40.9452 70.0499 41.0752 72.6198 41.2692 73.3998C41.3042 73.5398 41.3512 74.3398 41.3512 73.9698" stroke="black" stroke-width="2" stroke-miterlimit="10" stroke-linecap="round" stroke-linejoin="round"/>
<path d="M28.9713 52.5693C28.3143 54.5393 29.7093 57.4593 29.7093 59.5393C29.7093 60.3993 29.9553 61.1593 29.9553 61.9993C29.9553 62.1593 30.0373 63.3494 30.0373 62.7394" fill="black"/>
<path d="M28.9713 52.5693C28.3143 54.5393 29.7093 57.4593 29.7093 59.5393C29.7093 60.3993 29.9553 61.1593 29.9553 61.9993C29.9553 62.1593 30.0373 63.3494 30.0373 62.7394" stroke="black" stroke-width="2" stroke-miterlimit="10" stroke-linecap="round" stroke-linejoin="round"/>
<path d="M54.2231 50.4395C54.2231 52.7195 54.9612 55.0395 54.9612 57.2395C54.9612 58.0495 55.2072 60.9495 55.2072 60.1995" fill="black"/>
<path d="M54.2231 50.4395C54.2231 52.7195 54.9612 55.0395 54.9612 57.2395C54.9612 58.0495 55.2072 60.9495 55.2072 60.1995" stroke="black" stroke-width="2" stroke-miterlimit="10" stroke-linecap="round" stroke-linejoin="round"/>
<path d="M42.6742 39.2998C42.6742 41.6498 43.1812 43.9598 43.5642 46.2598C43.6832 46.9698 43.8922 47.8398 43.8922 48.5498C43.8922 48.8198 43.9742 49.9798 43.9742 49.6998" fill="black"/>
<path d="M42.6742 39.2998C42.6742 41.6498 43.1812 43.9598 43.5642 46.2598C43.6832 46.9698 43.8922 47.8398 43.8922 48.5498C43.8922 48.8198 43.9742 49.9798 43.9742 49.6998" stroke="black" stroke-width="2" stroke-miterlimit="10" stroke-linecap="round" stroke-linejoin="round"/>
<path d="M67.5051 36.8301C67.5051 40.2501 68.3241 43.63 68.3241 47L67.5051 36.8301Z" fill="black"/>
<path d="M67.5051 36.8301C67.5051 40.2501 68.3241 43.63 68.3241 47" stroke="black" stroke-width="2" stroke-miterlimit="10" stroke-linecap="round" stroke-linejoin="round"/>
<path d="M55.6982 26.1699C55.6982 28.5299 56.2192 30.93 56.6002 33.22C56.7172 33.92 56.7092 34.67 56.8462 35.35C56.8912 35.58 57.0102 36.5599 57.0102 36.2599" fill="black"/>
<path d="M55.6982 26.1699C55.6982 28.5299 56.2192 30.93 56.6002 33.22C56.7172 33.92 56.7092 34.67 56.8462 35.35C56.8912 35.58 57.0102 36.5599 57.0102 36.2599" stroke="black" stroke-width="2" stroke-miterlimit="10" stroke-linecap="round" stroke-linejoin="round"/>
</svg>
