<svg width="100" height="100" viewBox="0 0 100 100" fill="none" xmlns="http://www.w3.org/2000/svg">
<g clip-path="url(#clip0_65_20856)">
<path d="M48.475 48.6297C48.475 48.6297 46.585 15.7497 41.165 16.6297C35.745 17.5097 37.885 25.9497 37.885 25.9497C37.885 25.9497 26.415 32.6297 24.145 34.1397C21.875 35.6497 19.605 40.5697 24.275 42.4597C28.945 44.3497 31.455 42.7097 31.705 45.2297C31.955 47.7497 31.455 49.8897 33.845 50.1397C36.235 50.3897 36.995 48.7497 36.995 48.7497C36.995 48.7497 37.755 50.1397 39.765 50.3897C41.775 50.6397 42.915 48.8797 42.915 48.8797C42.915 48.8797 43.675 50.3897 45.565 50.3897C47.455 50.3897 48.465 48.6297 48.465 48.6297H48.475Z" stroke="black" stroke-width="2" stroke-linecap="round" stroke-linejoin="round"/>
<path d="M48.475 48.6297C59.995 48.3497 66.195 49.1997 67.585 59.2397C66.275 61.3497 62.635 60.1097 61.545 58.9497C61.545 58.9497 60.675 60.1897 58.785 60.1897C56.895 60.1897 55.365 58.7297 55.365 58.7297C55.365 58.7297 53.985 60.1097 52.385 60.1097C50.785 60.1097 49.405 58.7297 49.405 58.7297C49.405 58.7297 48.165 60.0397 46.345 60.0397C44.525 60.0397 43.585 58.7997 43.585 58.7997C43.585 58.7997 42.275 60.1097 40.385 60.0397C38.495 59.9697 37.405 58.7997 37.405 58.7997C37.405 58.7997 36.535 59.5997 34.135 59.7497C31.735 59.8997 31.225 58.4397 31.225 58.4397L32.145 48.9897" stroke="black" stroke-width="2" stroke-linecap="round" stroke-linejoin="round"/>
<path d="M31.935 59.6797L31.165 68.4697C31.165 68.4697 31.745 69.9297 34.075 69.7797C36.405 69.6297 37.345 68.8297 37.345 68.8297C37.345 68.8297 38.435 69.9897 40.325 70.0697C42.215 70.1497 43.525 68.8297 43.525 68.8297C43.525 68.8297 44.475 70.0697 46.285 70.0697C48.095 70.0697 49.345 68.7597 49.345 68.7597C49.345 68.7597 50.725 70.1397 52.325 70.1397C53.925 70.1397 55.305 68.7597 55.305 68.7597C55.305 68.7597 56.835 70.2197 58.725 70.2197C60.615 70.2197 61.485 68.9797 61.485 68.9797C62.575 70.1397 66.215 71.3797 67.525 69.2697L67.035 60.2597" stroke="black" stroke-width="2" stroke-linecap="round" stroke-linejoin="round"/>
<path d="M66.965 70.0898L66.895 81.7698C66.895 82.5898 66.225 83.2498 65.405 83.2498H61.955C61.225 83.2498 60.605 82.7198 60.485 81.9998L58.605 70.6998" stroke="black" stroke-width="2" stroke-linecap="round" stroke-linejoin="round"/>
<path d="M59.355 75.2597L57.905 82.1497C57.745 82.8897 57.055 83.3997 56.295 83.3197L52.655 82.9997C51.895 82.9197 51.315 82.2797 51.315 81.5097V70.2397" stroke="black" stroke-width="2" stroke-linecap="round" stroke-linejoin="round"/>
<path d="M47.295 69.9398L47.105 81.7898C47.165 82.6598 46.465 83.3998 45.595 83.3898L42.105 83.3498C41.385 83.3498 40.775 82.8198 40.655 82.1198L38.585 69.7998" stroke="black" stroke-width="2" stroke-linecap="round" stroke-linejoin="round"/>
<path d="M40.645 82.11L47.105 81.79" stroke="black" stroke-width="2" stroke-linecap="round" stroke-linejoin="round"/>
<path d="M60.485 82L66.895 81.77" stroke="black" stroke-width="2" stroke-linecap="round" stroke-linejoin="round"/>
<path d="M51.315 81.52L57.905 82.15" stroke="black" stroke-width="2" stroke-linecap="round" stroke-linejoin="round"/>
<path d="M32.035 69.6196L31.415 81.4196C31.375 82.2496 32.025 82.9596 32.855 82.9896L36.865 83.1296C37.605 83.1596 38.245 82.6396 38.385 81.9096L39.465 76.1296" stroke="black" stroke-width="2" stroke-linecap="round" stroke-linejoin="round"/>
<path d="M31.425 81.4199L38.395 81.9099" stroke="black" stroke-width="2" stroke-linecap="round" stroke-linejoin="round"/>
<path d="M65.455 52.95C72.245 52.12 76.165 55.53 78.445 62.62" stroke="black" stroke-width="2" stroke-linecap="round" stroke-linejoin="round"/>
<path d="M66.685 53.6196C72.245 54.0196 76.035 60.5996 75.785 64.2696" stroke="black" stroke-width="2" stroke-linecap="round" stroke-linejoin="round"/>
<path d="M67.605 54.9199C72.995 57.9199 72.365 63.6399 72.515 65.8199" stroke="black" stroke-width="2" stroke-linecap="round" stroke-linejoin="round"/>
<path d="M40.9494 35.8931C40.9494 35.8931 40.3071 37.4847 38.3105 37.4847C36.3138 37.4847 35.4391 36.1418 35.4391 36.1418" stroke="black" stroke-width="2" stroke-linecap="round" stroke-linejoin="round"/>
<path d="M28.505 31.54C30.755 34.44 31.335 40.75 29.885 43.43" stroke="black" stroke-width="2" stroke-linecap="round" stroke-linejoin="round"/>
<path d="M37.8423 25.9191C40.0125 26.7539 43.4711 25.804 45.326 25.2476" stroke="black" stroke-width="2" stroke-linecap="round" stroke-linejoin="round"/>
<path d="M32.735 28.9997C32.565 24.9897 31.615 18.5497 33.875 18.1097C36.135 17.6697 37.695 20.1097 37.695 20.1097" stroke="black" stroke-width="2" stroke-linecap="round" stroke-linejoin="round"/>
</g>
<defs>
<clipPath id="clip0_65_20856">
<rect width="58.89" height="68.78" fill="white" transform="translate(20.555 15.6099)"/>
</clipPath>
</defs>
</svg>
