<svg width="100" height="100" viewBox="0 0 100 100" fill="none" xmlns="http://www.w3.org/2000/svg">
<path d="M28.8875 38.5103C35.4099 36.4592 49.1063 32.1186 51.7127 31.1651C54.9707 29.9732 78.3339 20.2782 78.016 21.3113C77.7617 22.1377 66.5727 54.767 61.01 70.9784" stroke="black" stroke-width="2" stroke-miterlimit="10" stroke-linecap="round"/>
<path d="M57.9825 68.9717C52.9021 66.0182 46.3911 61.8519 42.0099 58.347C37.2368 54.5287 33.2353 47.5309 30.4996 41.5625C28.747 37.7392 24.9156 35.4518 21.1574 37.34C18.7009 38.5742 17.1031 41.6495 18.0862 44.2168C19.8254 48.7582 23.5145 56.267 30.6935 63.4133C39.2845 71.9651 47.8731 77.2426 53.5583 79.9672C56.2857 81.2743 59.3835 79.9143 60.6635 77.1741C62.0567 74.1915 60.8284 70.6262 57.9825 68.9717Z" stroke="black" stroke-width="2" stroke-miterlimit="10" stroke-linecap="round"/>
<circle cx="54.0002" cy="56" r="3" fill="black" stroke="black" stroke-width="2" stroke-miterlimit="10" stroke-linecap="round"/>
<path d="M29.7913 53.3564C30.0828 53.8878 30.7174 55.0124 30.923 55.2593" stroke="black" stroke-width="2" stroke-miterlimit="10" stroke-linecap="round"/>
<path d="M44.3308 51.5556L44.3308 54.8518" stroke="black" stroke-width="2" stroke-miterlimit="10" stroke-linecap="round"/>
<path d="M63.593 47.1436L67.1289 50.5255" stroke="black" stroke-width="2" stroke-miterlimit="10" stroke-linecap="round"/>
<path d="M23.676 42.2422C24.9105 44.7794 27.472 49.967 27.8423 50.4196" stroke="black" stroke-width="2" stroke-miterlimit="10" stroke-linecap="round"/>
<circle cx="55.0002" cy="41" r="4" fill="black" stroke="black" stroke-width="2" stroke-miterlimit="10" stroke-linecap="round"/>
<path d="M42.1212 35.7174C43.3414 37.7854 42.6541 40.4511 40.5861 41.6714C38.518 42.8916 35.8523 42.2044 34.6321 40.1363C34.0727 39.1883 33.9142 38.1147 34.1057 37.1123" stroke="black" stroke-width="2" stroke-miterlimit="10" stroke-linecap="round"/>
<path d="M42.4558 46.1445H47.6826" stroke="black" stroke-width="2" stroke-miterlimit="10" stroke-linecap="round"/>
<path d="M66.4358 37.1583C66.4358 39.5596 68.3824 41.5061 70.7836 41.5061L73.6555 33.894C72.8895 33.2196 71.8843 32.8105 70.7836 32.8105C68.3824 32.8105 66.4358 34.7571 66.4358 37.1583Z" fill="black" stroke="black" stroke-width="2" stroke-miterlimit="10" stroke-linecap="round"/>
<path d="M60.0126 31.4681L59.1316 28.7266" stroke="black" stroke-width="2" stroke-miterlimit="10" stroke-linecap="round"/>
</svg>
