<svg width="100" height="100" viewBox="0 0 100 100" fill="none" xmlns="http://www.w3.org/2000/svg">
<path d="M46.4268 59.1239C46.4268 59.1239 47.8107 47.8729 48.1387 43.4309C48.4677 38.9879 48.9167 30.1409 48.6347 27.0549C48.3537 23.9689 46.2617 16.8169 47.3287 18.1679C48.3957 19.5199 51.6017 25.4139 51.5147 29.1939C51.4277 32.9729 51.2867 39.6419 51.0707 43.7209C50.8557 47.8009 49.7937 59.1949 49.7937 59.1949" stroke="black" stroke-width="2" stroke-miterlimit="10" stroke-linecap="round" stroke-linejoin="round"/>
<path d="M33.4443 65.2097C33.4443 65.2097 32.7222 58.9387 36.8922 59.1497C41.0612 59.3607 58.9162 59.1507 61.0622 59.4207C63.2072 59.6907 64.0273 61.5607 64.1043 63.1967C64.1813 64.8327 63.5902 65.6267 63.5902 65.6267C63.5902 65.6267 51.3872 65.5237 48.4582 65.4347C45.5292 65.3457 33.4443 65.2097 33.4443 65.2097Z" stroke="black" stroke-width="2" stroke-miterlimit="10" stroke-linecap="round" stroke-linejoin="round"/>
<path d="M36.0127 65.5576C36.0127 65.5576 36.1047 79.2467 39.2647 81.4337C41.9077 83.2627 49.6527 82.9377 55.5137 82.5717C58.4957 82.3857 59.8337 75.1836 60.2667 72.7496C60.8787 69.3066 61.4907 65.7877 61.4907 65.7877" stroke="black" stroke-width="2" stroke-miterlimit="10" stroke-linecap="round" stroke-linejoin="round"/>
<path d="M49.2979 82.8607C49.2979 82.8607 55.6958 82.8877 58.6288 82.6827C61.5618 82.4777 61.9809 82.5077 63.3839 82.1237C65.2388 81.6157 58.0768 80.5537 58.0768 80.5537L57.5358 82.7127L49.2979 82.8607Z" fill="black" stroke="black" stroke-width="2" stroke-miterlimit="10" stroke-linecap="round" stroke-linejoin="round"/>
<path d="M60.3159 66.1143C60.3159 66.1143 58.854 77.5172 56.93 80.2382C55.514 82.2412 50.577 82.8642 48.689 82.8522" stroke="black" stroke-width="2" stroke-miterlimit="10" stroke-linecap="round" stroke-linejoin="round"/>
<path d="M58.9341 59.3154C60.5581 59.3684 62.1561 59.7935 62.8601 61.3185C63.5651 62.8435 62.8401 65.5345 62.8401 65.5345" stroke="black" stroke-width="2" stroke-miterlimit="10" stroke-linecap="round" stroke-linejoin="round"/>
<path d="M46.9918 54.4455C46.9918 54.4455 48.1178 47.0515 39.5288 44.8445C34.0628 43.4395 34.2748 42.6565 34.2628 44.0695C34.2558 44.7915 34.2798 46.0935 34.4248 47.7545C34.6148 49.9335 35.3068 52.5405 36.8258 53.8755C40.0318 56.6945 46.0788 56.8465 46.0788 56.8465" fill="black"/>
<path d="M46.9918 54.4455C46.9918 54.4455 48.1178 47.0515 39.5288 44.8445C34.0628 43.4395 34.2748 42.6565 34.2628 44.0695C34.2558 44.7915 34.2798 46.0935 34.4248 47.7545C34.6148 49.9335 35.3068 52.5405 36.8258 53.8755C40.0318 56.6945 46.0788 56.8465 46.0788 56.8465" stroke="black" stroke-width="2" stroke-miterlimit="10" stroke-linecap="round" stroke-linejoin="round"/>
<path d="M50.4171 53.0591C50.4171 53.0591 52.3751 46.1431 56.3081 44.3751C59.7651 42.8211 66.0881 43.0971 66.0881 43.0971C66.0881 43.0971 66.1091 48.8161 63.9731 51.8001C61.8361 54.7841 56.8201 55.8951 54.9131 56.3111C53.1911 56.6861 50.3491 56.2081 50.3491 56.2081" stroke="black" stroke-width="2" stroke-miterlimit="10" stroke-linecap="round" stroke-linejoin="round"/>
<path d="M35.0151 34.7601C35.0151 34.7601 41.7361 32.3951 44.8051 33.4621C47.8731 34.5301 48.2661 38.7941 48.2661 38.7941C48.2661 38.7941 47.2951 40.9831 43.1131 40.2901C38.9311 39.5971 35.0151 34.7601 35.0151 34.7601Z" stroke="black" stroke-width="2" stroke-miterlimit="10" stroke-linecap="round" stroke-linejoin="round"/>
<path d="M51.312 37.3336C51.312 37.3336 52.286 32.9636 55.752 30.6916C59.219 28.4196 64.199 28.3916 64.199 28.3916C64.199 28.3916 64.892 29.1436 63.401 32.9656C61.909 36.7876 59.154 40.1676 56.276 40.1346C53.398 40.1026 51.376 39.5176 51.376 39.5176" fill="black"/>
<path d="M51.312 37.3336C51.312 37.3336 52.286 32.9636 55.752 30.6916C59.219 28.4196 64.199 28.3916 64.199 28.3916C64.199 28.3916 64.892 29.1436 63.401 32.9656C61.909 36.7876 59.154 40.1676 56.276 40.1346C53.398 40.1026 51.376 39.5176 51.376 39.5176" stroke="black" stroke-width="2" stroke-miterlimit="10" stroke-linecap="round" stroke-linejoin="round"/>
<path d="M48.341 27.9893C48.341 27.9893 44.899 21.7923 40.951 21.4503C37.003 21.1083 33 22.9163 33 22.9163C33 22.9163 36.928 29.5143 40.928 29.8873C46.712 30.4273 48.341 27.9893 48.341 27.9893Z" fill="black" stroke="black" stroke-width="2" stroke-miterlimit="10" stroke-linecap="round" stroke-linejoin="round"/>
<path d="M51.4912 27.4385C51.4912 27.4385 52.1942 21.3484 55.7422 20.1314C59.2912 18.9144 61.6642 19.2644 61.6642 19.2644C61.6642 19.2644 60.5192 24.0364 57.8092 25.8304C55.0992 27.6254 51.4912 27.4385 51.4912 27.4385Z" stroke="black" stroke-width="2" stroke-miterlimit="10" stroke-linecap="round" stroke-linejoin="round"/>
</svg>
