<svg width="100" height="100" viewBox="0 0 100 100" fill="none" xmlns="http://www.w3.org/2000/svg">
<path d="M33.1722 54.936C32.7497 56.6839 32.3385 61.5609 34.8738 63.3587C38.0429 65.606 51.7569 65.5484 54.5804 65.2026C56.8391 64.9261 60.2655 64.1315 61.1013 62.1959" stroke="black" stroke-width="2"/>
<path d="M35.2686 63.8306C36.2885 69.3833 38.4643 80.6793 39.0082 81.4408C39.6881 82.3927 44.1608 83.3597 48.1868 83.3597C52.1959 83.3597 55.8427 82.9396 57.0263 80.1489C57.7403 78.4656 59.0855 68.4541 59.5614 63.8306" stroke="black" stroke-width="2"/>
<path d="M54.5954 45.0522C55.9973 45.3887 57.7498 47.2486 58.4508 48.1365C60.6904 50.3581 62.5864 47.2252 60.6938 46.384C58.8012 45.5429 57.4694 44.0007 58.4508 42.8792C59.4321 41.7577 66.1095 42.8076 67.6333 43.44C71.5188 45.0523 77.7973 48.1365 76.8159 54.8656C75.8346 61.5948 66.5118 62.5061 62.0256 62.1556C57.5395 61.8052 49.6186 59.0714 47.8662 52.2721C46.1138 45.4728 52.8431 44.6316 54.5954 45.0522Z" stroke="black" stroke-width="2"/>
<path d="M35.7838 31.9892C34.6606 33.674 32.7596 36.8168 32.6816 37.8893C32.6816 40.5803 36.3529 39.9388 36.6024 38.4418C37.1802 34.9747 38.0167 33.0424 39.1867 31.9894C40.3567 30.9364 44.0812 31.748 45.2512 33.854C46.4212 35.96 46.4797 42.395 44.7247 47.075C42.9697 51.755 31.9716 58.2486 25.8875 51.5795C19.8035 44.9105 24.7128 33.5978 30.2166 30.5194C33.6681 28.5889 37.1878 29.8832 35.7838 31.9892Z" stroke="black" stroke-width="2"/>
<path d="M34.6341 54.3818C34.3164 55.0749 34.0122 57.0585 35.849 57.925C38.1451 59.0081 50.2321 59.6146 52.4848 58.9648" stroke="black" stroke-width="2"/>
<path d="M38.4023 52.9149C41.6566 52.2738 46.9068 51.9427 48.0111 52.2739" stroke="black" stroke-width="2"/>
<path d="M42.7839 31.7199C41.7276 28.4265 41.0939 21.1314 47.0095 18.2979C54.404 14.756 64.0977 17.7387 65.5269 19.4164C66.9561 21.0942 68.1988 26.1896 65.5269 30.7878C62.8549 35.3861 56.2681 38.9902 53.4097 39.4873C50.5513 39.9844 48.7146 38.8987 47.6054 37.7468C46.4961 36.5949 48.0747 33.7365 49.9092 33.3098C51.7437 32.8832 52.2557 30.5794 51.4877 30.1101C50.7198 29.6408 48.7999 29.6408 47.6054 31.1767C46.4108 32.7126 45.5189 33.114 44.5376 32.9007" stroke="black" stroke-width="2"/>
<path d="M47.5282 37.9512C46.8634 40.4201 46.583 46.6352 46.2412 48.9142C45.8994 51.1932 46.3362 54.0895 46.5974 55.2528" stroke="black" stroke-width="2"/>
<path d="M39.0744 52.8601C41.2956 52.7388 45.6941 52.4741 45.5194 52.3867H47.522L49.1242 54.6079L51.9279 58.5039L49.1242 59.4142L37.2539 58.5039L34.341 56.8654L33.9404 54.8263L39.0744 52.8601Z" fill="black"/>
<path d="M59.6931 48.8798C58.7988 49.4507 56.3824 50.4896 53.8708 50.0786C51.3592 49.6676 49.095 48.6896 48.2769 48.252" stroke="black" stroke-width="2"/>
<path d="M60.5561 48.9854C60.3143 50.1141 59.191 52.3785 58.3794 53.7744C57.17 55.8545 54.2514 57.5637 52.9131 58.7569" stroke="black" stroke-width="2"/>
<path d="M60.6064 48.937C61.8622 50.6114 64.4993 54.4853 65.0017 56.5859C65.504 58.6864 65.8579 61.0001 65.9721 61.8944" stroke="black" stroke-width="2"/>
<path d="M61.043 49.0161C62.8255 49.1434 66.9144 49.7909 69.0099 51.3625C71.6292 53.327 74.9033 56.2737 75.5036 57.8016" stroke="black" stroke-width="2"/>
<path d="M61.2612 48.3614C62.5163 47.7794 65.4194 46.6699 66.9909 46.8881C68.5625 47.1063 71.8657 46.7971 73.3208 46.6152" stroke="black" stroke-width="2"/>
<path d="M33.1977 39.6889C32.2455 40.1332 29.6289 40.8814 28.4367 39.6889C26.8179 38.0698 26.5005 35.6417 26.1514 34.5942" stroke="black" stroke-width="2"/>
<path d="M33.8644 39.8315C32.8804 41.2281 32.9667 43.2935 29.245 45.0214C26.0049 46.5257 24.741 46.5389 24.0586 48.3322" stroke="black" stroke-width="2"/>
<path d="M35.3779 39.7402C36.0404 41.4947 37.0266 43.2052 36.1132 47.3952C35.3779 50.768 30.869 53.8448 30.1172 54.3282" stroke="black" stroke-width="2"/>
<path d="M36.4863 39.1813C38.1552 40.1319 40.1993 40.9011 42.6484 39.9769C43.5803 39.6253 45.2678 37.8949 45.9649 37.0288" stroke="black" stroke-width="2"/>
<path d="M36.4531 39.7183C37.9712 41.4387 40.4737 43.9015 41.3108 46.1447C42.148 48.388 42.1542 49.6362 42.4241 50.7494" stroke="black" stroke-width="2"/>
<path d="M51.8623 31.7988C53.757 31.8423 55.8295 31.7988 58.1998 32.9748C59.0832 33.4131 59.4629 35.5011 59.7678 36.2415" stroke="black" stroke-width="2"/>
<path d="M51.6587 32.2334C52.5056 33.2567 54.1042 35.5468 53.7231 36.5208C53.342 37.4948 52.8938 38.8675 52.7174 39.4321" stroke="black" stroke-width="2"/>
<path d="M51.3058 30.0098C50.4479 29.0804 48.2921 27.4 46.951 27.1025C44.9606 26.661 43.2812 27.4123 42.3042 27.5314" stroke="black" stroke-width="2"/>
<path d="M51.6446 30.0212C52.0826 28.7856 52.6957 25.9295 51.6446 24.3905C50.5936 22.8514 48.8918 19.3697 48.1724 17.8213" stroke="black" stroke-width="2"/>
<path d="M51.7969 30.4924C53.452 29.6213 56.8929 27.5001 57.4157 25.9843C58.069 24.0896 59.1144 18.0135 59.7677 17.5562" stroke="black" stroke-width="2"/>
<path d="M51.8623 31.2763C53.8659 30.4923 58.1998 28.9242 59.5065 28.9242C60.8132 28.9242 64.5808 28.6629 66.3013 28.5322" stroke="black" stroke-width="2"/>
<path d="M35.6973 64.5928C37.9554 65.2037 41.3551 66.1915 47.9807 66.1915C52.6936 66.1915 57.6784 65.1601 59.3911 64.5928" stroke="black" stroke-width="2"/>
</svg>
