<svg width="100" height="100" viewBox="0 0 100 100" fill="none" xmlns="http://www.w3.org/2000/svg">
<path d="M26.7297 35.7998C25.2008 36.2702 22.0493 37.2439 22.6137 38.1848C23.3193 39.3608 26.2007 38.3612 26.9063 36.3031" stroke="black" stroke-width="2" stroke-linecap="round"/>
<path d="M57.3684 60.7161C59.334 55.9515 62.9077 46.8196 62.1214 40.9146C61.747 38.1027 60.041 34.5598 57.0264 31.7692M26.7808 35.8262C28.5412 34.6681 29.1784 32.3888 32.0622 30.4883C34.946 28.5877 37.3367 28.2381 39.6993 27.7123C45.3015 26.4656 49.8724 27.3146 53.3953 29.1866" stroke="black" stroke-width="2" stroke-linecap="round"/>
<path d="M31.1414 38.3001C30.0171 38.3 29.6236 35.1147 29.5674 33.522C30.3169 33.522 31.9397 33.7581 32.4344 34.7024C33.0527 35.8829 32.5468 38.3001 31.1414 38.3001Z" stroke="black" stroke-width="2" stroke-linecap="round"/>
<path d="M46.9109 27.3291C46.7225 27.8771 47.6162 29.3043 49.4855 29.3043C50.2887 29.3043 49.0151 33.3171 52.4205 34.1227C55.7262 34.9046 56.624 32.659 56.3157 31.7856" stroke="black" stroke-width="2" stroke-linecap="round"/>
<path d="M37.6096 27.8346C35.3319 26.5799 31.2861 23.5726 33.3244 21.5805C35.8723 19.0905 38.1306 20.7698 38.4781 20.8856C38.8255 21.0015 40.8523 17.4112 43.1107 19.4959C45.3691 21.5805 41.3156 26.8503 40.7944 27.1398" stroke="black" stroke-width="2" stroke-linecap="round"/>
<path d="M37.3285 28.4091C36.3854 28.9012 34.6991 30.7715 35.5848 31.7065C36.692 32.8752 40.0135 32.6907 40.8131 31.1529C41.6128 29.6152 43.5196 31.399 44.3192 30.7839C44.9589 30.2918 43.6836 28.2005 42.966 27.2163" stroke="black" stroke-width="2" stroke-linecap="round"/>
<path d="M32.1397 29.8348C31.238 28.7176 28.8231 26.6478 26.377 27.3063C23.3194 28.1296 27.5531 30.8933 30.7285 31.0109" stroke="black" stroke-width="2" stroke-linecap="round"/>
<path d="M46.6606 26.589C46.1867 25.5414 46.1547 24.0106 47.7829 22.6231C48.9152 21.6583 51.4912 22.9441 51.6418 22.6231C52.2806 21.2619 47.288 18.8081 50.3271 16.7119C53.2746 14.6787 59.4322 16.1077 59.4322 19.7107" stroke="black" stroke-width="2" stroke-linecap="round"/>
<path d="M57.7656 21.208C56.4133 22.459 57.7656 24.7159 57.7656 25.054C57.7656 25.1746 55.9057 24.1242 54.8069 25.6035C53.1589 27.8219 53.6352 29.2976 54.3421 30.5483C55.2212 32.1036 58.9489 29.9566 59.287 30.2525C59.6251 30.5483 59.6738 33.38 61.8228 33.38C65.2039 33.38 63.8092 29.9144 64.0205 29.534C64.2319 29.1536 66.5986 31.1654 68.1201 30.2525C70.022 29.1114 68.6696 24.7159 67.6975 23.7016C66.9198 22.8901 64.2318 24.1242 63.7247 24.1242C63.5241 24.1242 63.6343 23.7433 63.799 23.2346C64.0506 22.4575 64.0205 21.4156 62.6846 20.2838C61.7018 19.4512 59.4561 19.6442 57.7656 21.208Z" stroke="black" stroke-width="2" stroke-linecap="round"/>
<circle cx="61.1401" cy="27.1704" r="1.24361" fill="black"/>
<path d="M45.0365 65.631C45.8671 71.3898 47.246 82.2895 49.324 83.186C52.4365 84.5289 62.8936 84.8463 64.9076 82.402C65.9042 81.1925 68.1559 66.5434 67.6576 66.3773C67.1592 66.2112 61.8155 67.8158 56.3336 67.8158C50.1319 67.8158 42.3242 66.6265 45.8958 64.3008C46.6334 63.8206 48.1646 63.4922 50.0899 63.3027M67.0813 66.534C69.003 65.1364 65.7135 64.004 61.5444 63.4545" stroke="black" stroke-width="2"/>
<path d="M54.7943 66.0065C51.8035 64.3366 44.9248 60.0997 41.3359 56.5108C36.8498 52.0247 35.9526 50.5294 37.5975 50.978C39.2424 51.4266 44.5489 50.978 48.8128 55.5389C50.293 57.1221 53.9204 63.2825 55.1416 65.5504" stroke="black" stroke-width="2"/>
<path d="M48.3331 55.041C47.4802 52.3648 45.897 46.1108 46.0381 43.9934C46.2146 41.3466 50.9788 46.1108 52.5669 47.8754C54.155 49.6399 56.2724 54.757 56.8018 57.7567C57.2253 60.1565 56.3312 64.0502 55.8313 65.6971" stroke="black" stroke-width="2"/>
<path d="M56.2563 65.1841C57.3281 62.7914 58.8795 56.2709 63.5419 52.922C66.5624 50.7524 75.5796 49.1836 77.0002 48.8845C78.4209 48.5855 76.2526 53.7444 73.9347 55.6884C71.6169 57.6324 60.0227 64.7928 57.2562 65.6152" stroke="black" stroke-width="2"/>
<path d="M45.9192 64.2522L50.136 63.2905L52.4293 64.4742L54.5006 64.7331L58.8283 64.4742L61.6764 63.2905L65.4492 64.2522L67.4466 65.5099L66.8178 66.6935L56.35 68.0251L47.5468 67.0634L45.1055 65.5099L45.9192 64.2522Z" fill="black"/>
</svg>
