<svg width="100" height="100" viewBox="0 0 100 100" fill="none" xmlns="http://www.w3.org/2000/svg">
<path d="M51.581 62.4619C55.057 64.3479 59.558 70.4099 54.873 76.8809C52.971 79.5079 50.452 82.0529 48.823 82.1509C44.598 82.4049 37.654 82.2389 37.654 82.2389C37.654 82.2389 32.412 81.1539 29.952 75.3139C27.491 69.4749 29.885 65.8929 34.078 62.8059" stroke="black" stroke-width="2" stroke-miterlimit="10" stroke-linecap="round" stroke-linejoin="round"/>
<path d="M43.1909 82.3079C43.1909 82.3079 55.6509 82.3998 57.4979 81.5588C59.3449 80.7178 52.8219 79.8828 52.8219 79.8828L50.8189 81.7538" fill="black"/>
<path d="M43.1909 82.3079C43.1909 82.3079 55.6509 82.3998 57.4979 81.5588C59.3449 80.7178 52.8219 79.8828 52.8219 79.8828L50.8189 81.7538" stroke="black" stroke-width="2" stroke-miterlimit="10" stroke-linecap="round" stroke-linejoin="round"/>
<path d="M41.8381 62.8897C41.8381 62.8897 41.6311 61.7057 42.2791 58.2567C42.9281 54.8067 44.9841 53.2667 44.4311 49.0927C43.8181 44.4687 42.9211 43.5127 42.9211 43.5127" stroke="black" stroke-width="2" stroke-miterlimit="10" stroke-linecap="round" stroke-linejoin="round"/>
<path d="M48.377 45.1472C49.109 40.9632 51.579 38.2712 53.419 38.0152C53.986 37.9362 53.661 41.0252 53.571 41.3892C53.137 43.1412 53.393 45.2822 55.171 46.1182C55.947 46.4832 57.016 45.7052 57.055 44.8592C57.097 43.9232 56.647 42.5972 56.69 41.6502C56.835 38.4352 59.718 35.0992 63.133 35.2532C64.147 35.2982 63.457 36.8802 63.27 37.3662C62.678 38.9072 60.779 42.9222 63.072 43.9122C64.029 44.3252 65.656 43.7892 66.09 42.7822C67.122 40.3932 64.045 37.6202 67.521 35.5222C67.902 35.2922 69.128 35.3742 69.535 35.4162C69.919 35.4542 71.17 35.2262 71.411 35.6262C72.055 36.6922 68.79 40.8212 71.198 41.0012C75.175 41.2982 72.53 35.0312 77.887 37.5522C78.198 37.6992 80.554 38.9692 80.63 39.3072C80.728 39.7432 80.183 42.4882 76.352 44.5342C76.174 44.6302 71.146 43.3632 70.553 45.5362C69.565 49.1572 74.169 46.1832 74.843 47.7742C75.654 49.6872 71.892 52.9912 70.129 52.9112C69.527 52.8842 68.984 51.1362 68.643 50.7182C67.434 49.2382 65.25 46.9262 63.022 48.0092C62.477 48.2742 62.149 49.8862 62.73 50.2192C63.597 50.7172 64.76 51.0492 65.527 51.5352C66.538 52.1742 66.991 53.9852 66.939 55.1372C66.876 56.5462 61.45 58.2862 60.241 57.8222C57.119 56.6222 60.574 50.2752 57.318 49.9462C54.421 49.6542 56.681 56.0082 56.151 57.1332C55.731 58.0262 54.55 56.7392 52.837 55.8732C50.028 54.4542 50.996 53.5532 50.016 51.5592C48.811 49.1072 47.603 49.5662 48.377 45.1472Z" fill="black" stroke="black" stroke-width="2" stroke-miterlimit="10" stroke-linecap="round" stroke-linejoin="round"/>
<path d="M50.272 52.1078C48.058 51.6758 43.993 58.4337 43.993 58.4337C43.993 58.4337 42.844 60.4057 42.676 61.2647C42.615 61.5757 42.471 63.2347 42.437 63.1147" stroke="black" stroke-width="2" stroke-miterlimit="10" stroke-linecap="round" stroke-linejoin="round"/>
<path d="M38.1191 62.3007C36.0421 62.3547 32.8871 62.5226 34.5991 63.2056C35.8401 63.7006 40.5141 64.4406 43.7181 64.2856C48.3301 64.0636 49.7171 63.6917 51.2541 62.7277C52.4501 61.9777 48.3141 62.0066 45.8911 61.9766C42.2221 61.9306 38.1191 62.3007 38.1191 62.3007Z" fill="black" stroke="black" stroke-width="2" stroke-miterlimit="10" stroke-linecap="round" stroke-linejoin="round"/>
<path d="M38.2439 46.8131C35.9779 47.8761 34.4269 47.48 32.7979 46.724C31.9759 46.342 31.3359 45.9 30.7819 44.474C30.6229 44.065 32.5279 42.4511 34.3179 42.5271C36.6279 42.6251 39.5399 42.881 38.2399 39.932C37.6379 38.566 34.1549 38.5501 32.9129 39.1501C30.1819 40.4691 29.0649 42.4941 27.7029 41.3691C27.7029 41.3691 26.0919 39.7031 25.6199 39.1841C25.2009 38.7251 24.9379 38.114 24.7479 37.482C24.5769 36.913 27.7269 36.6691 27.9839 36.6701C30.1069 36.6801 32.4799 36.6731 32.5559 34.0791C32.6149 32.0731 30.8119 31.6661 29.2049 32.0541C26.7329 32.6501 23.7519 35.728 21.9919 32.911C21.5949 32.276 21.0279 31.0851 21.1459 30.3041C21.2039 29.9211 22.7329 29.96 23.0449 30.081C24.4169 30.611 27.3139 30.7821 27.4679 28.5931C27.6809 25.5651 24.0509 26.038 22.1489 26.497C21.9579 26.543 20.3339 27.033 20.2709 26.932C19.3949 25.531 19.6479 24.1721 19.3189 22.5921C19.1609 21.8351 18.7249 19.138 19.2549 18.497C19.3639 18.364 22.6469 17.8851 23.0089 17.7981C24.3839 17.4661 29.7399 16.448 30.8799 17.39C31.5119 17.912 29.9319 18.924 29.6079 19.26C28.0929 20.831 28.1599 23.15 30.3469 23.883C33.1039 24.806 33.0499 20.517 34.0489 19.307C34.4339 18.841 37.3419 20.779 37.4979 21.365C37.8559 22.709 33.0219 25.736 35.1239 28.044C37.1169 30.235 38.1849 27.708 38.4969 26.028C38.5519 25.731 39.8089 22.8291 40.0039 22.7071C40.7349 22.2501 43.3769 25.4521 43.5819 26.1341C43.7659 26.7461 41.9839 28.4081 41.6789 28.8681C40.2909 30.9581 40.0559 31.549 39.7499 33.32C39.6019 34.173 40.3079 36.077 41.4739 36.346C43.5529 36.826 43.2689 34.0101 43.9919 32.4961C44.1059 32.2561 45.1459 28.7591 45.3629 28.8091C45.8919 28.9321 47.5909 31.8661 47.6489 32.3111C48.0229 35.1681 48.3119 35.888 46.9939 40.252C46.0949 43.229 44.4219 42.076 42.6019 43.461C40.4259 45.116 41.5329 45.2691 38.2439 46.8131Z" stroke="black" stroke-width="2" stroke-miterlimit="10" stroke-linecap="round" stroke-linejoin="round"/>
</svg>
