<svg width="100" height="100" viewBox="0 0 100 100" fill="none" xmlns="http://www.w3.org/2000/svg">
<path d="M34.6011 46.5879C34.6011 46.5879 31.5171 67.8549 31.0121 74.7059C30.5531 80.9329 43.2701 83.9499 44.7071 74.4099C46.1441 64.8709 48.1101 47.8539 48.1101 47.8539" stroke="black" stroke-width="2" stroke-miterlimit="10" stroke-linecap="round" stroke-linejoin="round"/>
<path d="M34.0742 40.8486C34.0742 40.8486 32.6992 44.7596 34.3532 45.6656C36.0062 46.5716 38.9512 47.7576 42.6062 48.0306C45.3452 48.2356 48.5942 48.1696 49.1732 47.1206C49.7522 46.0726 50.2922 43.4276 50.2922 43.4276" stroke="black" stroke-width="2" stroke-miterlimit="10" stroke-linecap="round" stroke-linejoin="round"/>
<path d="M42.257 40.3157C38.722 39.8277 32.573 40.0817 34.293 41.5957C36.013 43.1097 39.865 44.0917 42.329 44.3657C44.793 44.6397 50.09 44.4547 50.281 43.3717C50.472 42.2887 45.791 40.8027 42.257 40.3157Z" stroke="black" stroke-width="2" stroke-miterlimit="10" stroke-linecap="round" stroke-linejoin="round"/>
<path d="M41.6914 44.0689C43.0904 39.6189 46.5714 35.8909 50.2204 32.3469C55.5944 27.1269 60.3224 25.2471 60.3224 25.2471" stroke="black" stroke-width="2" stroke-miterlimit="10" stroke-linecap="round" stroke-linejoin="round"/>
<path d="M45.465 37.319L45.313 32.915" stroke="black" stroke-width="2" stroke-miterlimit="10" stroke-linecap="round" stroke-linejoin="round"/>
<path d="M45.3511 37.6547L50.0571 36.7188" stroke="black" stroke-width="2" stroke-miterlimit="10" stroke-linecap="round" stroke-linejoin="round"/>
<path d="M50.0522 36.816C50.0522 36.816 52.2832 34.372 54.1862 34.518C56.0882 34.665 60.0482 37.145 60.0482 37.145C60.0482 37.145 56.3422 39.83 54.4402 39.799C52.5382 39.767 50.0522 36.816 50.0522 36.816Z" stroke="black" stroke-width="2" stroke-miterlimit="10" stroke-linecap="round" stroke-linejoin="round"/>
<path d="M52.9641 29.7244C52.9641 29.7244 52.7541 23.3041 57.9131 21.2329C61.2731 19.8841 68.6581 22.1164 68.6581 22.1164C68.6581 22.1164 66.198 29.4684 62.294 30.6424C58.391 31.8174 52.9641 29.7244 52.9641 29.7244Z" stroke="black" stroke-width="2" stroke-miterlimit="10" stroke-linecap="round" stroke-linejoin="round"/>
<path d="M45.3224 33.0899C45.3224 33.0899 50.6864 28.3359 49.8324 24.4616C48.9774 20.5876 45.4424 18 45.4424 18C45.4424 18 42.6524 20.6992 41.9224 24.7664C41.1924 28.8339 45.3224 33.0899 45.3224 33.0899Z" stroke="black" stroke-width="2" stroke-miterlimit="10" stroke-linecap="round" stroke-linejoin="round"/>
<path d="M34.8701 79.9066C43.3261 83.0226 53.5551 82.4066 51.5041 80.4186C50.0731 79.0316 43.7441 78.1016 43.7441 78.1016L40.2531 80.6106" fill="black"/>
<path d="M34.8701 79.9066C43.3261 83.0226 53.5551 82.4066 51.5041 80.4186C50.0731 79.0316 43.7441 78.1016 43.7441 78.1016L40.2531 80.6106" stroke="black" stroke-width="2" stroke-miterlimit="10" stroke-linejoin="round"/>
<path d="M33.5584 54.6797C33.5584 54.6797 36.7774 56.3117 40.1184 56.7627C43.4604 57.2137 47.0104 56.3957 47.0104 56.3957L45.8034 66.7617C45.8034 66.7617 42.1134 68.0307 38.6684 67.5757C35.2234 67.1197 32.2744 65.1127 32.2744 65.1127L33.5584 54.6797Z" stroke="black" stroke-width="2" stroke-miterlimit="10" stroke-linejoin="round"/>
<path d="M36.2568 61.0245C38.2368 59.4815 35.8209 63.2075 37.4199 63.0545C38.4249 62.9585 39.0008 61.4585 39.9208 61.1325C40.3488 60.9815 39.8128 62.5525 40.2798 62.6705C40.9708 62.8445 41.4029 62.1675 42.3309 62.6105" stroke="black" stroke-width="2" stroke-miterlimit="10" stroke-linecap="round" stroke-linejoin="round"/>
<path d="M49.0591 43.3558C49.0591 43.3558 44.6841 41.0558 41.9151 40.8138C39.1451 40.5708 34.4951 40.7128 35.4981 41.5948C36.5011 42.4758 40.4151 43.9178 42.8291 44.1298C45.2431 44.3418 49.0591 43.3558 49.0591 43.3558Z" fill="black" stroke="black" stroke-width="2" stroke-miterlimit="10" stroke-linejoin="round"/>
</svg>
