<svg width="100" height="100" viewBox="0 0 100 100" fill="none" xmlns="http://www.w3.org/2000/svg">
<path d="M33.7375 54.7768C33.7665 53.6648 41.6815 57.2608 48.9055 57.2858C56.1285 57.3098 59.1145 56.5148 62.4865 55.2558C63.2995 54.9518 63.1735 58.5008 62.9045 59.6088C62.3715 61.8038 59.2015 73.4178 58.5415 75.2148C57.9845 76.7338 54.2035 78.0179 49.1525 77.9599C44.1025 77.9019 38.8575 76.5288 38.3385 74.9848C37.7865 73.3418 33.8085 61.6818 33.6515 59.8858C33.5405 58.6238 33.6865 56.7798 33.7375 54.7768Z" stroke="black" stroke-width="2" stroke-miterlimit="10" stroke-linecap="round" stroke-linejoin="round"/>
<path d="M33.6255 59.8906C33.6255 59.8906 40.6975 62.7216 44.2945 62.9266C47.8905 63.1306 52.4195 63.0896 54.9315 62.6756C59.0205 62.0006 62.8095 59.9636 62.8095 59.9636" stroke="black" stroke-width="2" stroke-miterlimit="10" stroke-linecap="round" stroke-linejoin="round"/>
<path d="M53.8201 56.9417C53.8201 56.9417 55.8821 51.3236 67.2291 49.4436C71.3501 48.7606 74.2151 46.1016 71.0981 44.2536C67.9811 42.4056 66.6561 41.9897 66.6561 41.9897C66.6561 41.9897 72.2061 41.9647 75.2191 40.9937C78.2311 40.0227 82.1911 38.3797 81.6391 36.1347C81.0871 33.8897 75.4141 33.1206 75.4141 33.1206C75.4141 33.1206 81.4291 30.3827 82.6701 27.8197C83.9111 25.2557 80.6911 20.7027 76.8831 23.5487C73.0761 26.3957 70.4381 28.2257 70.4381 28.2257C70.4381 28.2257 72.6901 19.3717 68.6661 21.2657C64.6411 23.1597 63.3691 25.0867 61.7181 27.5647C60.0661 30.0417 59.1371 32.0787 59.1371 32.0787C59.1371 32.0787 62.4701 22.3917 58.4241 22.5797C54.3781 22.7677 51.5111 29.0777 50.9021 30.5077C50.2931 31.9377 48.1041 44.4897 48.1041 44.4897L47.8511 56.9646" stroke="black" stroke-width="2" stroke-miterlimit="10" stroke-linecap="round" stroke-linejoin="round"/>
<path d="M62.527 55.1882C62.527 55.1882 60.309 54.1703 59.126 54.0613C57.764 53.9363 56.138 54.0873 56.138 54.0873L53.96 56.8872C53.96 56.8872 57.254 56.7842 58.56 56.4902C59.867 56.1972 62.527 55.1882 62.527 55.1882Z" fill="black" stroke="black" stroke-width="2" stroke-miterlimit="10" stroke-linecap="round" stroke-linejoin="round"/>
<path d="M48.0353 47.1071C47.6343 41.3501 44.7363 32.533 42.3783 29.957C40.0213 27.382 37.0523 27.5121 36.9653 30.3941C36.8783 33.2751 37.2713 34.9341 37.2713 34.9341C37.2713 34.9341 34.5203 29.3461 31.5521 27.7311C28.5835 26.1151 27.3612 26.9891 27.3612 29.3021C27.3612 31.6161 28.1033 32.926 28.1033 32.926C28.1033 32.926 19.8087 24.937 17.5823 28.866C15.5031 32.535 19.6048 33.6791 20.3326 34.1051C22.6463 35.4581 25.0037 37.4661 25.0037 37.4661C25.0037 37.4661 19.765 36.637 18.8919 38.863C18.0188 41.089 21.8169 43.7521 24.8291 43.9271C27.8414 44.1021 31.8141 43.84 31.8141 43.84C31.8141 43.84 27.7541 45.499 26.75 46.939C25.7459 48.38 26.4444 50.6501 30.1988 50.9121C33.9533 51.1741 35.7053 50.684 38.6203 51.962C42.3803 53.61 41.7453 56.361 41.7453 56.361" stroke="black" stroke-width="2" stroke-miterlimit="10" stroke-linecap="round" stroke-linejoin="round"/>
<path d="M33.8403 54.6173C33.8403 54.6173 35.5483 52.8923 39.6553 53.5433C42.0683 53.9253 41.9873 56.4263 41.9873 56.4263L37.3653 55.3793L33.8403 54.6173Z" fill="black" stroke="black" stroke-width="2" stroke-miterlimit="10" stroke-linecap="round" stroke-linejoin="round"/>
<path d="M46.7824 56.3378C46.7824 56.3378 45.5984 52.2508 42.9554 48.8038C40.3124 45.3578 37.1674 42.6148 35.1704 41.1048C33.1724 39.5948 30.189 37.4238 30.189 37.4238" stroke="black" stroke-width="2" stroke-miterlimit="10" stroke-linecap="round" stroke-linejoin="round"/>
<path d="M49.0381 56.6505C49.0381 56.6505 51.6311 49.6145 55.6781 44.6835C59.7261 39.7525 70.9911 32.2324 70.9911 32.2324" stroke="black" stroke-width="2" stroke-miterlimit="10" stroke-linecap="round" stroke-linejoin="round"/>
<path d="M47.9502 77.9348C47.9502 77.9348 58.6802 79.0877 63.3392 78.3677C66.6162 77.8627 64.2972 75.8178 61.4942 75.2598C60.3422 75.0308 58.8692 74.8857 58.8692 74.8857C58.8692 74.8857 58.0092 76.8707 55.3092 77.8777C53.3952 78.5917 47.9502 77.9348 47.9502 77.9348Z" fill="black" stroke="black" stroke-width="2" stroke-miterlimit="10" stroke-linecap="round" stroke-linejoin="round"/>
</svg>
