<svg width="100" height="100" viewBox="0 0 100 100" fill="none" xmlns="http://www.w3.org/2000/svg">
<path d="M32.6778 63.1546C32.6778 63.1546 23.0428 45.0216 38.6198 34.0126C44.4608 29.8846 52.4048 29.2746 56.6578 29.6646C66.0228 30.5216 70.1348 38.5896 70.1348 38.5896" stroke="black" stroke-width="2" stroke-miterlimit="10" stroke-linejoin="round"/>
<path d="M73.0466 44.2549C74.5196 48.2589 78.1896 60.6139 67.0666 69.7419C57.5116 77.5839 44.3306 76.4469 36.3696 68.5859" stroke="black" stroke-width="2" stroke-miterlimit="10" stroke-linejoin="round"/>
<path d="M29.6557 49.9C29.6557 49.9 5.34369 71.3429 21.5987 71.5509C35.6437 71.7299 55.8877 58.073 59.3957 55.489C69.3517 48.158 88.3827 31.854 81.6617 26.658C74.9397 21.4607 59.2857 30.143 59.2857 30.143" stroke="black" stroke-width="2" stroke-miterlimit="10" stroke-linejoin="round"/>
<path d="M65.6527 32.9656C65.6527 32.9656 83.8837 24.1904 71.3097 37.8486C69.5577 39.7506 62.0737 46.9236 54.0257 52.1286C44.4847 58.2996 20.2157 70.1496 24.9907 62.3356C27.3747 58.4326 30.3607 56.5366 30.3607 56.5366" stroke="black" stroke-width="2" stroke-miterlimit="10" stroke-linejoin="round"/>
<path d="M32.4546 61.7131C32.4546 61.7131 46.0766 55.4151 52.9756 51.1661C59.8746 46.9181 69.4426 37.9551 69.4426 37.9551" stroke="black" stroke-width="2" stroke-miterlimit="10" stroke-linejoin="round"/>
</svg>
