<svg width="100" height="100" viewBox="0 0 100 100" fill="none" xmlns="http://www.w3.org/2000/svg">
<path d="M31.4146 54.8676C31.8976 54.7296 42.6906 55.5846 52.2806 55.6836C61.8706 55.7826 66.8036 55.1856 69.7746 55.2656C71.6726 55.3156 71.8926 66.2306 67.3786 72.6826C64.4126 76.9226 60.8636 79.7676 58.5596 80.3076C56.4196 80.8086 44.6706 80.8366 43.4876 80.3506C40.7386 79.2206 35.4646 77.0126 32.9976 70.0306C30.5306 63.0476 29.9756 55.2776 31.4146 54.8676Z" stroke="black" stroke-width="2" stroke-miterlimit="10" stroke-linecap="round" stroke-linejoin="round"/>
<path d="M69.4991 55.9238C70.4711 59.8558 69.9801 65.1168 67.8331 69.6538C65.6861 74.1918 61.9411 78.5508 59.6381 79.3658C57.3351 80.1808 54.3351 80.6038 50.8301 80.6868" stroke="black" stroke-width="2" stroke-miterlimit="10" stroke-linecap="round" stroke-linejoin="round"/>
<path d="M50.7808 80.708C56.5268 80.638 64.2517 81.643 68.5317 80.848C72.8117 80.053 71.2168 77.543 68.3628 77.246C65.5098 76.95 63.4597 77.249 63.4597 77.249L59.6867 80.445" fill="black"/>
<path d="M50.7808 80.708C56.5268 80.638 64.2517 81.643 68.5317 80.848C72.8117 80.053 71.2168 77.543 68.3628 77.246C65.5098 76.95 63.4597 77.249 63.4597 77.249L59.6867 80.445" stroke="black" stroke-width="2" stroke-miterlimit="10" stroke-linecap="round" stroke-linejoin="round"/>
<path d="M31.0176 61.99C31.9676 66.065 35.1076 68.238 37.1896 69.052C37.7226 69.26 41.3756 63.131 42.1746 62.572C42.2626 62.51 43.1126 63.813 43.1126 63.813C43.5656 64.374 47.0056 69.187 47.4176 69.073C48.7706 68.697 52.1496 63.466 53.1246 63.591C54.2026 63.73 57.8486 69.812 58.4066 69.69C58.8736 69.588 60.6076 66.839 60.9776 66.261C61.2086 65.901 62.9366 63.275 63.3736 63.084C63.7016 62.94 65.3546 66.162 66.1016 66.453C66.7206 66.696 70.1396 62.43 70.0546 61.5" stroke="black" stroke-width="2" stroke-miterlimit="10" stroke-linecap="round" stroke-linejoin="round"/>
<path d="M53.1587 69.1172C53.1827 69.2162 53.1597 69.1702 53.2297 69.2522" stroke="black" stroke-width="2" stroke-miterlimit="10" stroke-linecap="round" stroke-linejoin="round"/>
<path d="M42.5477 68.7422C42.4717 68.7902 42.4976 68.7542 42.5016 68.8682" stroke="black" stroke-width="2" stroke-miterlimit="10" stroke-linecap="round" stroke-linejoin="round"/>
<path d="M63.3237 68.5127C63.3377 68.5227 63.3527 68.5317 63.3677 68.5407" stroke="black" stroke-width="2" stroke-miterlimit="10" stroke-linecap="round" stroke-linejoin="round"/>
<path d="M36.2256 63.8652C36.2306 63.8892 36.2366 63.9133 36.2426 63.9373" stroke="black" stroke-width="2" stroke-miterlimit="10" stroke-linecap="round" stroke-linejoin="round"/>
<path d="M48.1499 63.4453C48.1719 63.5343 48.1469 63.5053 48.2119 63.5453" stroke="black" stroke-width="2" stroke-miterlimit="10" stroke-linecap="round" stroke-linejoin="round"/>
<path d="M58.4798 62.9729C58.3858 62.9649 58.4078 62.954 58.4968 63.045" stroke="black" stroke-width="2" stroke-miterlimit="10" stroke-linecap="round" stroke-linejoin="round"/>
<path d="M33.0358 54.7346C33.0358 54.7346 25.2968 49.3366 24.1008 43.2206C23.1038 38.1216 22.2508 33.4426 24.0468 34.0236C25.8428 34.6046 30.1898 37.3646 30.1898 37.3646" stroke="black" stroke-width="2" stroke-miterlimit="10" stroke-linecap="round" stroke-linejoin="round"/>
<path d="M40.3068 55.1885C40.3068 55.1885 31.7388 50.3845 30.8598 44.9665C29.9818 39.5485 30.2828 32.5285 31.2688 31.2495C32.2538 29.9705 34.9278 35.1445 38.6658 37.1635C42.4038 39.1815 49.1368 42.7185 50.1258 46.3895C51.1158 50.0605 50.9748 55.2525 50.9748 55.2525" stroke="black" stroke-width="2" stroke-miterlimit="10" stroke-linecap="round" stroke-linejoin="round"/>
<path d="M50.7578 49.8602C50.7578 49.8602 51.6168 44.0902 55.4808 41.4022C59.3438 38.7132 63.1398 37.4162 65.6128 35.2142C68.0858 33.0122 69.7318 29.4362 70.4298 31.3922C71.1268 33.3492 71.9418 40.9832 70.5708 44.5592C69.1988 48.1352 62.2498 55.2422 62.2498 55.2422" stroke="black" stroke-width="2" stroke-miterlimit="10" stroke-linecap="round" stroke-linejoin="round"/>
<path d="M69.7871 54.8641C69.7871 54.8641 75.9771 48.7292 76.7001 43.7772C77.2661 39.9072 78.4431 36.2551 77.1651 35.5441C75.8861 34.8341 71.6801 37.1981 71.6801 37.1981" stroke="black" stroke-width="2" stroke-miterlimit="10" stroke-linecap="round" stroke-linejoin="round"/>
<path d="M40.0138 37.6786C40.0138 37.6786 39.1298 30.0386 40.0178 26.3166C40.9068 22.5936 42.6058 17.9685 44.1678 18.1725C45.7288 18.3765 44.8508 21.1096 45.8668 24.4156C46.8828 27.7216 49.7428 31.6985 50.3338 35.0105C50.9238 38.3225 50.8558 47.0906 50.8558 47.0906" stroke="black" stroke-width="2" stroke-miterlimit="10" stroke-linecap="round" stroke-linejoin="round"/>
<path d="M34.3276 33.4245C34.3276 33.4245 33.6936 23.7105 35.0636 23.5135C36.4336 23.3165 39.6826 26.9965 39.6826 26.9965" stroke="black" stroke-width="2" stroke-miterlimit="10" stroke-linecap="round" stroke-linejoin="round"/>
<path d="M46.5239 25.6363C46.5239 25.6363 49.2669 18.4483 50.6559 18.0373C52.0449 17.6263 53.0869 20.6964 53.8999 22.9264C54.7129 25.1564 55.1359 26.0423 55.1359 26.0423" stroke="black" stroke-width="2" stroke-miterlimit="10" stroke-linecap="round" stroke-linejoin="round"/>
<path d="M50.6958 37.407C50.6958 37.407 53.9888 33.593 55.0048 28.03C55.5638 24.973 55.6638 19.367 56.7938 18.299C57.9238 17.232 61.0638 20.99 61.6048 24.362C62.1448 27.734 62.4008 37.014 62.4008 37.014" stroke="black" stroke-width="2" stroke-miterlimit="10" stroke-linecap="round" stroke-linejoin="round"/>
<path d="M61.9395 26.5187C61.9395 26.5187 65.5984 22.2027 66.5834 23.6817C68.0244 25.8437 67.4404 33.0198 67.4404 33.0198" stroke="black" stroke-width="2" stroke-miterlimit="10" stroke-linecap="round" stroke-linejoin="round"/>
</svg>
