<svg width="100" height="100" viewBox="0 0 100 100" fill="none" xmlns="http://www.w3.org/2000/svg">
<path d="M46.3983 48.338C49.6016 32.887 56.8193 24.3427 66.4982 24.0507C76.1771 23.7588 78.9947 40.6271 78.013 52.4083C76.9636 65.0028 71.7713 81.2612 59.7591 83.7343C47.7469 86.2074 42.3942 67.6517 46.3983 48.338Z" stroke="black" stroke-width="2" stroke-linecap="round"/>
<path d="M64.1086 61.2865C60.3441 61.8908 60.2297 54.4705 61.6627 50.4286C64.0458 42.6072 68.4316 46.8904 68.7929 50.0567C69.2528 54.0873 68.7925 60.5347 64.1086 61.2865Z" fill="black" stroke="black" stroke-width="2" stroke-linecap="round"/>
<path d="M69.2012 53.4492C71.21 53.4864 75.0626 53.1495 77.4732 52.0335C80.4864 50.6386 83.0186 54.0349 80.7308 56.6575C78.9005 58.7556 73.7952 55.9219 69.2012 55.1863" stroke="black" stroke-width="2" stroke-linecap="round"/>
<path d="M52.4933 32.3379C52.4933 26.4118 49.5164 13.871 40.6136 17.7301C26.1964 23.9796 20.6504 49.0974 20.0979 57.7029C18.813 77.7141 31.2193 79.4675 38.3836 72.0096C43.5353 66.6469 44.7933 62.4764 45.0796 62.047" stroke="black" stroke-width="2" stroke-linecap="round"/>
<path d="M36.7022 52.8923C34.5137 55.5161 32.6732 51.6098 34.8052 44.9734C36.4439 39.8725 39.587 39.9252 39.9405 42.1277C40.2939 44.3303 39.4379 49.6125 36.7022 52.8923Z" fill="black" stroke="black" stroke-width="2" stroke-linecap="round"/>
<path d="M22.4535 44.9337C19.8437 54.2238 18.4267 71.2539 25.6094 74.4942C32.7921 77.7346 38.1116 72.6417 41.0555 68.9231" stroke="black" stroke-width="2" stroke-linecap="round"/>
<path d="M52.4849 31.1205C50.4176 34.2677 46.0053 42.5244 44.8945 50.374C43.7838 58.2236 43.9998 62.4692 44.2466 63.6109" stroke="black" stroke-width="2" stroke-linecap="round"/>
<path d="M45.6182 68.082C47.0397 75.8183 52.9652 86.6489 63.1999 82.2017C73.4346 77.7545 77.0357 61.0763 77.9615 52.621" stroke="black" stroke-width="2" stroke-linecap="round"/>
<path d="M24.7368 37.7313C22.8212 31.872 24.7367 30.1819 22.7085 29.7312C20.1732 29.1678 17.5254 29.1115 18.6522 33.9003C19.779 38.6891 23.3846 38.2947 23.3283 41.675" stroke="black" stroke-width="2" stroke-linecap="round"/>
<path d="M62.5131 19.7768L61.641 21.1307" stroke="black" stroke-width="2" stroke-linecap="round"/>
<path d="M54.0386 17.9685L54.8454 20.4538" stroke="black" stroke-width="2" stroke-linecap="round"/>
<path d="M58.7305 16.0431L58.4253 19.8941" stroke="black" stroke-width="2" stroke-linecap="round"/>
<path d="M50.3672 69.9344C50.8079 71.6029 52.2749 75.3366 54.617 76.9232" stroke="black" stroke-width="2" stroke-linecap="round"/>
<path d="M49.4152 66.519C49.3193 66.1993 49.1275 65.4831 49.1274 65.1761" stroke="black" stroke-width="2" stroke-linecap="round"/>
</svg>
