<svg width="100" height="100" viewBox="0 0 100 100" fill="none" xmlns="http://www.w3.org/2000/svg">
<path d="M49.9998 82.4193C67.9046 82.4193 82.4193 67.9046 82.4193 49.9997C82.4193 32.0948 67.9046 17.5801 49.9998 17.5801C32.0949 17.5801 17.5801 32.0948 17.5801 49.9997C17.5801 67.9046 32.0949 82.4193 49.9998 82.4193Z" stroke="black" stroke-width="2"/>
<path d="M48.4236 18.3805C66.7955 18.3805 81.6913 33.2763 81.6913 51.6482C81.6913 56.0919 80.8193 60.3325 79.2425 64.2028C81.2732 59.9622 82.4199 55.2199 82.4199 50.2029C82.4199 32.2968 67.9064 17.7832 50.0004 17.7832C45.927 17.7832 42.0448 18.5358 38.4492 19.8975C41.5908 18.9061 44.9475 18.3805 48.4236 18.3805Z" fill="black"/>
<path d="M49.9992 82.9096C31.8543 82.9096 17.0898 68.1452 17.0898 50.0002C17.0898 31.8552 31.8543 17.0908 49.9992 17.0908C68.1442 17.0908 82.9086 31.8552 82.9086 50.0002C82.9086 68.1452 68.1442 82.9096 49.9992 82.9096ZM49.9992 18.0823C32.4038 18.0823 18.0813 32.4047 18.0813 50.0002C18.0813 67.5957 32.4038 81.9182 49.9992 81.9182C67.5947 81.9182 81.9172 67.5957 81.9172 50.0002C81.9172 32.4047 67.5947 18.0823 49.9992 18.0823Z" fill="black"/>
<path fill-rule="evenodd" clip-rule="evenodd" d="M66.1883 50.0004C66.1883 58.9412 58.9403 66.1892 49.9995 66.1892C41.0586 66.1892 33.8105 58.9412 33.8105 50.0004C33.8105 41.0595 41.0586 33.8115 49.9995 33.8115C58.9403 33.8115 66.1883 41.0595 66.1883 50.0004ZM49.9993 38.543C43.6863 38.543 38.5425 43.6868 38.5425 49.9998C38.5425 56.3128 43.6863 61.4567 49.9993 61.4567C56.3124 61.4567 61.4562 56.3128 61.4562 49.9998C61.4562 43.6868 56.3124 38.543 49.9993 38.543Z" fill="black"/>
<path d="M49.9993 52.9985C51.6552 52.9985 52.9976 51.6561 52.9976 50.0002C52.9976 48.3443 51.6552 47.002 49.9993 47.002C48.3434 47.002 47.001 48.3443 47.001 50.0002C47.001 51.6561 48.3434 52.9985 49.9993 52.9985Z" stroke="black" stroke-width="2"/>
<path d="M63.9043 43.9373L80.1809 36.9785C80.36 37.3608 81.1272 39.0233 81.2944 39.5011C81.4617 39.9909 81.8081 41.1615 81.8917 41.5676C77.8781 42.4277 68.488 45.5224 64.4743 46.3825L63.9043 43.9373Z" fill="black"/>
<path d="M63.1768 43.3219L79.3376 35.1406C79.5168 35.5229 80.2336 36.8727 80.4008 37.3625C80.568 37.8522 80.4844 37.5178 80.58 37.9239C76.5664 38.784 67.4228 43.6896 63.4091 44.5616L63.1768 43.3219Z" fill="black"/>
<path d="M36.4952 56.5346L20.5545 64.4906C20.3395 64.1322 20.1245 63.7261 19.9094 63.2483C19.6944 62.7824 19.2405 61.6476 19.1211 61.2534C23.0392 60.0111 32.1383 56.6136 36.0444 55.3593L36.4952 56.5346Z" fill="black"/>
<path d="M36.9136 57.5009L22.2266 67.5725C22.0116 67.2142 21.1634 65.936 20.9604 65.4702C20.7453 65.0043 20.6741 64.1153 20.5547 63.7211C24.4728 62.4788 32.5164 57.7113 36.4344 56.457L36.9136 57.5009Z" fill="black"/>
<path d="M78.188 52.626C78.0258 55.2204 77.0759 61.1181 74.5742 63.9535" stroke="black" stroke-width="2" stroke-linecap="round"/>
</svg>
