<svg width="100" height="100" viewBox="0 0 100 100" fill="none" xmlns="http://www.w3.org/2000/svg">
<path d="M40.8103 25.8132C40.8103 25.8132 70.4801 23.4866 70.8536 23.8846C71.2272 24.2825 73.289 61.8211 73.289 61.8211M30.0385 36.7921C31.183 53.8831 32.0156 75.1877 31.523 77.6624C36.3256 80.0592 60.5374 76.8903 60.5374 76.8903" stroke="black" stroke-width="2" stroke-linecap="round" stroke-linejoin="round"/>
<path d="M38.6575 73.602C39.263 72.4693 39.8855 71.5228 41.1246 72.4647C41.4568 72.7173 41.7338 72.9244 42.176 72.8712C42.6205 72.8178 43.0502 72.6719 43.4938 72.6114C46.4401 72.21 49.4157 72.2475 52.3778 72.072" stroke="black" stroke-width="2" stroke-linecap="round"/>
<path d="M68.9021 59.5773C68.8968 58.9265 67.2262 28.3421 66.8788 28.058C66.5314 27.7739 36.2339 30.0252 36.2339 30.0252L33.9948 32.3266C33.9948 32.3266 35.3077 44.7091 35.648 52.6743C35.7985 56.1959 35.8802 61.6972 35.8802 61.6972C35.8802 61.6972 68.9075 60.2282 68.9021 59.5773Z" stroke="black" stroke-width="2" stroke-linecap="round" stroke-linejoin="round"/>
<path d="M59.1782 79.5656L60.0401 77.7286L75.7908 59.4361L75.8876 60.9441L77.4299 61.3799L78.0191 62.2325L80.8009 61.1635L80.9148 62.9376L83.7048 63.382L64.2136 83.0725L63.4787 81.3381L61.7932 81.4463L61.6622 79.4061L59.1782 79.5656Z" stroke="black" stroke-width="2" stroke-linecap="round" stroke-linejoin="round"/>
<path d="M32.4366 78.1885L61.9455 77.2824C55.8295 79.5777 45.3012 80.7697 32.887 81.0505C31.6811 81.0778 31.264 80.243 31.4492 79.3548C31.6344 78.4666 32.4366 78.1885 32.4366 78.1885Z" fill="black"/>
<path d="M35.3735 67.2286C35.9932 66.5561 36.7765 66.0388 37.619 65.6881C38.5253 65.3109 39.4111 64.7496 40.336 65.3952C41.0191 65.872 41.5298 66.7699 42.3678 67.0269C43.2821 67.3074 43.9325 65.9686 44.6189 65.6561C44.8584 65.5471 45.1353 65.8312 45.2974 65.9526C45.8735 66.3842 46.2095 66.5696 46.9194 66.338C47.3352 66.2023 47.7825 65.9695 48.2332 66.0166C49.0126 66.098 49.7284 66.5904 50.519 66.7097C51.3328 66.8325 52.1112 66.7407 52.9134 66.6075C53.4766 66.514 54.048 66.642 54.6216 66.57C56.4556 66.3397 58.4611 65.712 59.9688 64.6295" stroke="black" stroke-width="2" stroke-linecap="round"/>
<path d="M20.5 37.2387L21.3618 35.4017L37.1125 17.1092L37.2093 18.6172L38.7516 19.053L39.3408 19.9056L42.1227 18.8366L42.2366 20.6107L45.0266 21.0552L25.5354 40.7456L24.8005 39.0112L23.1149 39.1194L22.984 37.0792L20.5 37.2387Z" stroke="black" stroke-width="2" stroke-linecap="round" stroke-linejoin="round"/>
<path fill-rule="evenodd" clip-rule="evenodd" d="M68.9019 59.5774C68.8966 58.9265 67.2259 28.3422 66.8785 28.058C66.5311 27.7739 36.2336 30.0253 36.2336 30.0253L33.9946 32.3267C33.9946 32.3267 35.3075 44.7092 35.6478 52.6744C35.7982 56.196 35.88 61.6972 35.88 61.6972C35.88 61.6972 68.9072 60.2282 68.9019 59.5774ZM41.0048 50.0753C41.3963 49.6858 42.0295 49.6873 42.4191 50.0788L47.5302 55.2152C47.9198 55.6067 47.9182 56.2398 47.5267 56.6294C47.1352 57.019 46.5021 57.0174 46.1125 56.6259L41.0014 51.4895C40.6118 51.0981 40.6134 50.4649 41.0048 50.0753ZM40.0977 37.5499C39.7398 37.1293 39.1086 37.0785 38.6881 37.4365C38.2675 37.7944 38.2167 38.4255 38.5746 38.8461L53.2642 56.1062C53.6222 56.5268 54.2533 56.5776 54.6739 56.2197C55.0945 55.8617 55.1453 55.2306 54.7873 54.81L40.0977 37.5499Z" fill="black"/>
</svg>
