<svg width="100" height="100" viewBox="0 0 100 100" fill="none" xmlns="http://www.w3.org/2000/svg">
<path d="M26.1704 39.0413C26.1704 39.0413 49.844 38.7063 50.1203 39.0413C50.3966 39.3763 50.1203 69.2834 50.1203 69.2834M17.0591 47.2085C17.0967 60.8355 16.672 77.7917 16.1548 79.7313C19.8454 81.8789 39.2288 80.5971 39.2288 80.5971" stroke="black" stroke-width="2" stroke-linecap="round" stroke-linejoin="round"/>
<path d="M22.0264 76.8714C22.5648 76.003 23.1072 75.2833 24.043 76.0943C24.2939 76.3117 24.5032 76.4902 24.857 76.4706C25.2126 76.4508 25.5611 76.3569 25.9164 76.3315C28.276 76.163 30.6364 76.3444 32.997 76.356" stroke="black" stroke-width="2" stroke-linecap="round"/>
<path d="M38.0137 82.652L38.7915 81.2375L52.2284 67.5178V68.7199L53.4306 69.1445L53.8549 69.8514L56.1179 69.1445V70.5588L58.3102 71.0538L41.8326 85.6928L41.3375 84.2784H39.9938V82.652H38.0137Z" stroke="black" stroke-width="2" stroke-linecap="round" stroke-linejoin="round"/>
<path d="M16.8528 80.1959L40.3262 80.9804C35.3537 82.4909 26.9345 82.9007 17.0644 82.4909C16.1057 82.4511 15.8171 81.7672 16.0094 81.0715C16.2017 80.3758 16.8528 80.1959 16.8528 80.1959Z" fill="black"/>
<path d="M19.7437 71.6438C20.2699 71.1415 20.9181 70.7707 21.6048 70.5353C22.3436 70.282 23.0754 69.8815 23.7768 70.4412C24.2948 70.8546 24.6545 71.5934 25.3067 71.8401C26.0183 72.1094 26.6029 71.0797 27.1637 70.8666C27.3594 70.7923 27.5648 71.0319 27.6873 71.1366C28.1227 71.5085 28.3799 71.6729 28.9554 71.5252C29.2924 71.4386 29.6593 71.2767 30.0148 71.337C30.6294 71.4414 31.1726 71.8688 31.7941 72.0038C32.434 72.1428 33.0566 72.1095 33.7003 72.0447C34.1522 71.9991 34.5993 72.1299 35.0583 72.1019C36.5261 72.0126 38.1503 71.6164 39.4024 70.8339" stroke="black" stroke-width="2" stroke-linecap="round"/>
<path d="M46.4065 38.5996C46.4065 38.5996 41.3918 27.0696 41.7979 26.4789C42.2039 25.8882 72.6497 14.5961 72.6497 14.5961C72.6497 14.5961 75.2216 20.3156 77.3195 25.7813C81.68 37.1416 87.8435 52.7874 87.5857 53.375C81.0475 55.5772 62.9365 62.0224 56.7338 65.2578L50.448 49" stroke="black" stroke-width="2" stroke-linecap="round" stroke-linejoin="round"/>
<path d="M46.3631 66.9075C46.3912 66.4059 46.6167 42.7626 46.3631 42.5265C46.1095 42.2905 22.6585 42.5265 22.6585 42.5265L20.8198 44.1887C20.8198 44.1887 21.2189 53.7925 21.0871 59.9453C21.0289 62.6656 20.8198 66.9075 20.8198 66.9075C20.8198 66.9075 46.335 67.4092 46.3631 66.9075Z" stroke="black" stroke-width="2" stroke-linecap="round" stroke-linejoin="round"/>
<path d="M9.46338 47.077L10.2412 45.6625L23.6781 31.9428V33.1449L24.8803 33.5695L25.3046 34.2764L27.5676 33.5695V34.9838L29.76 35.4788L13.2823 50.1178L12.7872 48.7034H11.4436V47.077H9.46338Z" stroke="black" stroke-width="2" stroke-linecap="round" stroke-linejoin="round"/>
<path d="M46.1188 28.1348C46.3715 27.739 70.326 18.5573 70.5557 18.7228C70.7854 18.8882 79.6538 41.9388 79.6092 42.2289C79.5647 42.5189 55.1724 51.6409 55.1724 51.6409C55.1724 51.6409 54.3232 48.3307 52.6447 44.1044C49.9563 37.3351 45.9633 28.3785 46.1188 28.1348Z" stroke="black" stroke-width="2" stroke-linecap="round" stroke-linejoin="round"/>
<path fill-rule="evenodd" clip-rule="evenodd" d="M46.3631 66.9075C46.3912 66.4059 46.6167 42.7626 46.3631 42.5265C46.1095 42.2905 22.6585 42.5265 22.6585 42.5265L20.8198 44.1887C20.8198 44.1887 21.2189 53.7925 21.0871 59.9453C21.0289 62.6656 20.8198 66.9075 20.8198 66.9075C20.8198 66.9075 46.335 67.4092 46.3631 66.9075ZM24.9543 58.1593C25.3699 57.7956 26.0017 57.8377 26.3654 58.2534L30.1614 62.5916C30.525 63.0073 30.4829 63.639 30.0673 64.0027C29.6517 64.3664 29.0199 64.3243 28.6562 63.9087L24.8602 59.5704C24.4965 59.1547 24.5387 58.523 24.9543 58.1593ZM25.1706 48.2006C24.8404 47.7579 24.2138 47.6668 23.7711 47.9971C23.3285 48.3274 23.2374 48.9539 23.5676 49.3966L34.3501 63.8481C34.6804 64.2908 35.307 64.3819 35.7496 64.0516C36.1923 63.7214 36.2834 63.0948 35.9531 62.6521L25.1706 48.2006Z" fill="black"/>
<path d="M57.0938 41.0302C57.0561 40.5976 57.3704 39.7338 57.4434 39.3914" stroke="black" stroke-width="2" stroke-linecap="round" stroke-linejoin="round"/>
<path d="M60.41 39.0661C60.7797 39.4381 61.1311 40.1784 61.3216 40.4721" stroke="black" stroke-width="2" stroke-linecap="round" stroke-linejoin="round"/>
<path d="M53.2922 38.574C53.5714 38.2415 54.4045 37.853 54.6982 37.6625" stroke="black" stroke-width="2" stroke-linecap="round" stroke-linejoin="round"/>
<path d="M62.5094 36.2324C63.0339 36.234 63.8058 36.509 64.1482 36.582" stroke="black" stroke-width="2" stroke-linecap="round" stroke-linejoin="round"/>
<path d="M52.4613 34.0992C53.1442 34.0148 53.7577 34.3758 54.1001 34.4488" stroke="black" stroke-width="2" stroke-linecap="round" stroke-linejoin="round"/>
<circle cx="58.2182" cy="35.2256" r="2.11536" transform="rotate(12.0441 58.2182 35.2256)" stroke="black" stroke-width="2" stroke-linecap="round" stroke-linejoin="round"/>
<path d="M62.1392 33.2274C62.6006 33.0362 63.4772 32.3599 63.771 32.1695" stroke="black" stroke-width="2" stroke-linecap="round" stroke-linejoin="round"/>
<path d="M66.4522 42.3768C61.259 43.0628 60.3845 46.153 54.7993 49.1907L55.6485 51.3453L79.0892 42.3768L75.4644 32.0196C74.0273 33.7506 70.6068 41.8281 66.4522 42.3768Z" fill="black"/>
<path d="M57.4443 55.996C58.0011 55.1968 58.666 54.3484 59.7491 54.3942C60.5487 54.4281 60.9427 54.3601 61.7607 54.1021C62.9175 53.7372 63.5561 52.5318 64.6218 52.0721C65.1189 51.8576 65.6748 51.8493 66.1731 51.6167C66.524 51.4529 66.8636 51.0502 67.2449 50.9773C67.7204 50.8863 68.1034 50.8818 68.5694 50.6779C69.6259 50.2156 70.7996 50.2318 71.7284 49.5756" stroke="black" stroke-width="2" stroke-linecap="round"/>
<path d="M59.1864 60.5001C59.6104 59.9744 60.0377 59.4587 60.5005 58.9664C60.6657 58.7906 60.9696 58.3431 61.2624 58.339C62.5016 58.3219 63.3653 58.1627 64.3853 57.3677C65.066 56.837 65.6717 56.3705 66.5301 56.2208C67.3082 56.0852 68.0738 55.9295 68.7699 55.5342C69.3848 55.185 69.7048 54.7367 70.1386 54.2171" stroke="black" stroke-width="2" stroke-linecap="round"/>
<path d="M57.1899 65.241C63.4299 65.3739 85.7344 57.275 86.6638 53.8232L57.1899 65.241Z" fill="black"/>
<path d="M79.7559 52.4194C80.0014 52.092 80.3814 51.8488 80.6893 51.5851C80.8907 51.4127 81.1419 50.9811 81.4328 51.1597C81.7924 51.3803 82.1094 51.6845 82.515 51.8247C82.8253 51.9319 83.1119 51.7785 83.3989 51.676" stroke="black" stroke-width="2" stroke-linecap="round"/>
<path d="M54.9166 30.3974C55.4592 30.8206 55.6377 31.5097 55.8281 31.8034" stroke="black" stroke-width="2" stroke-linecap="round" stroke-linejoin="round"/>
<path d="M59.2212 31.0646C59.4122 30.6032 59.5539 29.5051 59.627 29.1627" stroke="black" stroke-width="2" stroke-linecap="round" stroke-linejoin="round"/>
<path d="M56.2908 20.5149C55.5054 18.7711 55.111 16.2561 57.3638 15.3884C59.3698 14.6158 60.8259 16.0042 61.753 18.4111C62.2691 19.7513 62.754 21.8514 63.2688 23.1879C63.7835 24.5244 62.9862 25.4916 62.3046 25.6405C61.623 25.7893 60.581 25.6199 60.3786 24.5041C60.2167 23.6115 58.7282 20.4475 58.3936 18.89" stroke="black" stroke-width="2" stroke-linecap="round" stroke-linejoin="round"/>
</svg>
