<svg width="100" height="100" viewBox="0 0 100 100" fill="none" xmlns="http://www.w3.org/2000/svg">
<path d="M39.8939 44.3541C40.7754 43.2522 40.2612 40.0385 39.8939 38.5693C37.0781 33.3048 31.373 22.6289 31.0791 22.0412C30.7118 21.3067 30.4452 17.445 29.9799 16.8566C28.8993 15.4905 28.55 17.683 27.1727 16.8566C25.7953 16.0302 24.6514 17.0827 24.1923 18.7355C23.7332 20.3884 26.6643 20.6811 28.2325 24.5205C29.2448 26.9988 30.8954 31.5908 33.6501 37.7429C36.4048 43.8951 38.7922 45.7315 39.8939 44.3541Z" stroke="black" stroke-width="2"/>
<path d="M46.2347 26.3672C46.5323 27.8302 47.0383 30.9943 46.6812 32.5418C46.324 34.0892 43.8543 34.4759 42.6641 34.4015" stroke="black" stroke-width="2" stroke-linecap="round"/>
<path d="M43.8992 34.5762C44.4753 35.6001 45.9986 37.8785 47.4835 38.8003C49.3395 39.9525 49.6474 41.9302 49.5834 43.5943C49.5194 45.2584 48.9555 48.2731 48.8915 49.9372C48.8403 51.2685 48.8701 53.3082 48.8915 54.1616" stroke="black" stroke-width="2"/>
<path d="M40.5645 40.061C42.3121 40.5231 46.231 40.8653 47.9668 39.7563" stroke="black" stroke-width="2"/>
<path d="M37.0544 43.6489C37.9496 45.7188 40.4529 51.711 40.7214 53.8594C41.0569 56.5448 38.5394 59.5658 40.0499 62.3351C41.5604 65.1043 46.9311 65.1882 50.5396 63.7616C54.148 62.3351 56.8334 60.9085 57.253 61.412C57.6726 61.9155 56.601 65.4763 58.5665 72.3556C59.07 74.1178 57.0851 77.6919 57.8404 78.615C58.1931 79.0461 59.2064 78.9783 61.2504 79.2445C63.5831 79.5484 66.9708 80.1421 67.2391 79.8738C67.7426 79.3703 67.7461 78.2384 67.0013 77.866C66.2564 77.4936 64.1461 76.8729 63.1944 76.0867C62.2427 75.3005 62.159 71.8101 62.2004 70.7756C62.4391 64.8091 62.9461 56.6869 61.7048 55.2731C60.4634 53.8594 45.0037 53.8594 40.7358 54.781" stroke="black" stroke-width="2" stroke-linecap="round"/>
<path d="M48.3918 39.5051C49.9666 36.3939 53.2544 29.7797 53.8076 28.2124C54.4991 26.2534 55.8242 23.8335 56.6885 23.0269C57.5527 22.2203 59.3388 22.0474 59.5693 21.356C59.7997 20.6646 59.8573 19.2242 59.1083 19.2242C58.3593 19.2242 57.0918 17.0925 55.7666 17.6686C54.4415 18.2448 54.2686 19.7427 53.4044 21.7593C52.713 23.3725 48.6251 29.2173 46.8006 31.81" stroke="black" stroke-width="2"/>
<path d="M46.0378 26.4796C47.3995 25.0723 46.0925 24.0951 45.3111 23.227C44.3345 22.1418 41.395 20.9609 39.9728 22.2254C39.4845 22.6595 37.9569 22.6533 36.395 24.3333C35.3128 25.4974 35.3681 28.8055 35.2234 30.1256" stroke="black" stroke-width="2"/>
<path d="M46.6387 26.0264C45.6471 27.0179 43.2782 27.624 41.35 27.0179C39.9565 26.5798 39.3341 25.7997 39.2256 26.6135C39.1171 27.4273 40.9617 30.7365 37.9236 33.7747" stroke="black" stroke-width="2"/>
<path d="M39.8603 58.3403C37.9718 61.2613 34.1344 67.3299 33.8927 68.2363C33.5905 69.3693 28.0006 70.8045 26.4897 71.8621C24.9789 72.9197 20.9753 73.9682 20.2954 74.2703C19.6156 74.5725 19.6912 77.3664 20.2955 78.5751C20.8998 79.7837 21.8064 83.2687 23.9215 83.4953C26.0367 83.7219 25.4323 81.9845 24.6769 81.1535C23.9215 80.3226 23.9215 77.9685 24.6769 76.7598C25.4323 75.5512 29.1326 74.9592 31.0966 74.7326C33.0607 74.506 36.5367 74.1283 37.7454 73.2218C38.7123 72.4966 44.558 67.0752 47.1264 64.6328" stroke="black" stroke-width="2"/>
<path d="M52.5222 54.1021C53.1723 55.8572 54.2125 60.0176 53.1723 62.6178" stroke="black" stroke-width="2"/>
<path d="M35.572 65C35.7766 66.1762 38.0881 69.3722 41.4018 69.9858" stroke="black" stroke-width="2"/>
<path d="M26.0906 72.5503C26.289 73.261 26.8148 74.8015 27.3305 75.2776" stroke="black" stroke-width="2"/>
<path d="M58.3455 70.8618C59.2818 71.1349 61.3417 71.5171 62.0907 70.8618" stroke="black" stroke-width="2"/>
<path d="M30.3728 17.8501C35.2274 16.6642 46.0376 15.414 54.8332 18.4621M80.3883 76.1616C79.4309 41.7906 69.0003 26.8043 60.0604 20.9994" stroke="black" stroke-width="2" stroke-linecap="round"/>
<path d="M19.4061 19.3349C18.8656 19.4487 18.5197 19.979 18.6335 20.5195C18.7473 21.0599 19.2776 21.4058 19.818 21.2921L19.4061 19.3349ZM23.9146 18.3859L19.4061 19.3349L19.818 21.2921L24.3266 20.3431L23.9146 18.3859Z" fill="black"/>
<path d="M45.2305 27.4418L40.6291 26.9502L40.3163 28.3354L39.4675 32.5348L38.1719 34.2771L35.2234 28.3354L36.4744 23.5551C37.4572 23.3467 39.5301 22.894 39.9589 22.751C40.3878 22.608 40.9418 21.9766 41.1651 21.6787L44.2477 22.0807L46.1687 23.3318L47.2409 25.6101L45.2305 27.4418Z" fill="black"/>
<path d="M27.1139 75.2187L24.6868 77.2598L24.3005 79.301L25.1831 83.0522L23.9695 83.6038L21.6526 81.673L19.9978 76.8737V74.8878L25.5143 72.2949L27.1139 75.2187Z" fill="black"/>
<path d="M58.1914 75.7069L58.8044 71.7229H62.053L62.7272 75.2167L65.6693 77.362L67.6308 78.7104L67.1404 79.9363L60.2755 79.0782L58.1914 78.2814V75.7069Z" fill="black"/>
<path d="M48.0986 39.6372L40.5996 40.1528V42.3852L39.7982 44.6177H37.7947L39.7982 50.8574L40.5996 54.6356L49.1291 54.1776V49.8843L49.7015 41.7555L48.0986 39.6372Z" fill="black"/>
</svg>
