<svg width="100" height="100" viewBox="0 0 100 100" fill="none" xmlns="http://www.w3.org/2000/svg">
<path d="M48.4746 69.6259C48.7446 69.5709 50.6046 69.9999 50.8846 70.1329" stroke="black" stroke-width="2" stroke-miterlimit="10" stroke-linecap="round" stroke-linejoin="round"/>
<path d="M41.1445 67.9775L43.3145 68.5165" stroke="black" stroke-width="2" stroke-miterlimit="10" stroke-linecap="round" stroke-linejoin="round"/>
<path d="M32.9746 66.1902C32.9746 66.1902 35.2046 66.6632 35.4646 66.7872" stroke="black" stroke-width="2" stroke-miterlimit="10" stroke-linecap="round" stroke-linejoin="round"/>
<path d="M50.7646 63.6807C51.4546 63.7677 52.4346 63.9007 53.0646 64.2017" stroke="black" stroke-width="2" stroke-miterlimit="10" stroke-linecap="round" stroke-linejoin="round"/>
<path d="M43.0947 61.8467C43.0947 61.8467 44.4547 62.2437 45.2047 62.3387" stroke="black" stroke-width="2" stroke-miterlimit="10" stroke-linecap="round" stroke-linejoin="round"/>
<path d="M34.8643 59.9143C35.5043 59.9943 37.3042 60.4953 37.3042 60.4953" stroke="black" stroke-width="2" stroke-miterlimit="10" stroke-linecap="round" stroke-linejoin="round"/>
<path d="M52.4551 58C53.2951 58.281 54.1551 58.191 54.9351 58.565" stroke="black" stroke-width="2" stroke-miterlimit="10" stroke-linecap="round" stroke-linejoin="round"/>
<path d="M44.8545 56.0652C44.8545 56.0652 46.3745 56.5202 47.0945 56.6112" stroke="black" stroke-width="2" stroke-miterlimit="10" stroke-linecap="round" stroke-linejoin="round"/>
<path d="M36.7246 54.0303L38.9247 54.5243" stroke="black" stroke-width="2" stroke-miterlimit="10" stroke-linecap="round" stroke-linejoin="round"/>
<path d="M50.2939 41.1143C51.5339 40.2923 53.3639 40.6663 53.9539 41.8993" stroke="white" stroke-width="2" stroke-miterlimit="10" stroke-linecap="round" stroke-linejoin="round"/>
<path d="M49.3438 37.0277C51.4037 36.0517 52.4638 35.8467 54.7738 36.8967C55.9638 37.4397 57.4637 39.3157 57.4637 39.3157" stroke="white" stroke-width="2" stroke-miterlimit="10" stroke-linecap="round" stroke-linejoin="round"/>
<path d="M47.3643 33.4006C47.3643 33.4006 49.4943 31.8516 51.5343 31.7796C55.9543 31.6226 58.9743 32.9866 60.8843 37.0166" stroke="white" stroke-width="2" stroke-miterlimit="10" stroke-linecap="round" stroke-linejoin="round"/>
<path d="M27.2749 70.0696C27.2749 70.0696 41.0449 29.1716 42.9949 25.7556C44.9449 22.3396 45.9548 18.2256 51.7248 19.1256C56.2248 19.8266 73.7149 22.6256 72.5049 27.0326C71.3649 31.1706 55.0249 73.7196 52.1349 76.3416C49.8149 78.4446 25.8149 74.6566 27.2749 70.0696Z" stroke="black" stroke-width="2" stroke-miterlimit="10" stroke-linecap="round" stroke-linejoin="round"/>
<path d="M72.5747 26.5657C72.5747 26.5657 73.5548 32.8157 73.4048 37.8107C73.2448 42.8047 72.8448 44.7587 72.0348 46.5347C70.2648 50.3907 56.6048 79.3707 54.3948 80.8887C52.1848 82.4057 37.1547 79.3777 30.5647 77.0677C27.6147 76.0347 27.1748 70.5637 27.1748 70.5637" stroke="black" stroke-width="2" stroke-miterlimit="10" stroke-linecap="round" stroke-linejoin="round"/>
<path d="M52.1143 76.3506L53.7543 80.7546" stroke="black" stroke-width="2" stroke-miterlimit="10" stroke-linecap="round" stroke-linejoin="round"/>
<path d="M36.4941 43.8835C36.4941 43.8835 42.4841 50.0576 48.9541 51.0676C55.4241 52.0786 63.6241 49.4035 63.6241 49.4035" stroke="black" stroke-width="2" stroke-miterlimit="10" stroke-linecap="round" stroke-linejoin="round"/>
<path d="M40.8046 30.415C40.8046 30.415 36.8746 30.475 35.4646 33.792C34.0446 37.109 29.7746 48.961 27.4346 56.267C25.8046 61.35 29.2847 63.85 29.2847 63.85" stroke="black" stroke-width="2" stroke-miterlimit="10" stroke-linecap="round" stroke-linejoin="round"/>
<path d="M41.3651 41.6026C41.8951 39.3576 47.175 26.7336 47.835 25.3016C48.465 23.9236 67.335 29.2236 67.225 29.4296C66.505 30.7166 61.525 44.2336 60.575 46.2716C60.195 47.0776 41.0551 42.8706 41.3651 41.6026Z" fill="black" stroke="black" stroke-width="2" stroke-miterlimit="10" stroke-linecap="round" stroke-linejoin="round"/>
<path d="M52.3447 81.2961C52.3447 81.2961 56.4548 81.7211 58.9048 77.2281C61.3548 72.7351 72.2348 51.0301 72.8948 48.3121C73.5548 45.5931 73.0747 43.4551 73.0747 43.4551" stroke="black" stroke-width="2" stroke-miterlimit="10" stroke-linecap="round" stroke-linejoin="round"/>
</svg>
