<svg width="100" height="100" viewBox="0 0 100 100" fill="none" xmlns="http://www.w3.org/2000/svg">
<path d="M23.6557 53.939C23.6557 57.435 23.2834 63.5338 23.6557 66.5912C24.2903 71.8027 28.7919 78.9615 41.6663 78.9615C52.1551 78.9615 58.6775 78.0076 64.6517 76.0162C74.513 72.7291 77.4525 68.5871 78.8447 61.9341C79.8523 57.1191 80.1995 45.6566 78.0069 41.5734C75.4328 36.7796 65.2381 35.6759 51.6896 38.3211" stroke="black" stroke-width="2"/>
<path d="M22.9924 56.8373C21.3503 57.5346 18.0929 59.4556 18.2009 61.5613C18.3358 64.1934 22.925 63.9234 23.5999 63.9234" stroke="black" stroke-width="2"/>
<path d="M77.395 40.2634C79.4181 39.9354 81.71 39.502 83.3802 41.6362C85.4681 44.304 82.6872 47.6827 80.0195 49.8865" stroke="black" stroke-width="2"/>
<path d="M24.7295 53.5531C21.0662 57.6939 40.9779 57.8817 52.3342 55.3581C66.5297 52.2035 82.955 43.7498 74.7206 38.6606" stroke="black" stroke-width="2"/>
<path d="M27.5355 33.8482C25.7009 35.4115 23.0049 38.3328 21.7715 39.8128C15.329 47.5439 13.611 53.9864 19.4809 54.4159C25.3507 54.8454 42.2445 46.2553 49.9756 39.8128C57.7066 33.3703 61.5477 28.2416 60.57 23.6349C59.665 19.371 51.2208 21.2577 46.6393 22.9643C44.5762 23.7328 42.2897 24.7986 39.942 26.0624" stroke="black" stroke-width="2"/>
<path d="M29.0065 28.2013C27.256 30.7476 27.4349 36.1705 28.4517 38.0492C29.3104 39.636 31.9253 37.7321 31.9916 36.87C32.0579 36.008 31.4342 34.5165 31.4342 32.3123C31.4342 30.1081 33.0037 29.1441 35.2111 28.5598C38.3704 27.7236 40.2608 31.83 41.0418 31.9959C42.7283 32.3541 44.2688 30.6717 43.8526 29.3538C43.6559 28.7311 41.3529 26.0199 38.3704 25.0786C35.4575 24.1593 31.1947 25.0185 29.0065 28.2013Z" stroke="black" stroke-width="2" stroke-linecap="round"/>
<path d="M60.8622 37.2974C57.6257 37.4915 53.3104 38.4032 51.5573 38.8347L49.3727 40.453L42.8188 45.3077L34.5658 49.5151L24.29 53.8844V55.3408L30.5203 56.7972H40.5534L52.5284 55.3408C56.1694 54.262 63.8722 51.9101 65.5552 51.1334C67.6589 50.1624 73.8891 46.5214 75.2646 45.3077C76.6401 44.0941 77.3683 42.0713 76.721 40.453C76.2032 39.1584 73.5924 38.2954 72.3517 38.0257L68.3062 37.2974C67.1734 37.2165 64.0987 37.1032 60.8622 37.2974Z" fill="black"/>
<path d="M24.3453 55.3429C24.1998 59.3865 23.2553 66.6422 25.9586 70.8735C27.9658 74.0154 31.0582 79.4416 47.5399 78.8391" stroke="black" stroke-width="2"/>
<path d="M28.3325 59.9877C30.9865 60.463 34.4609 61.1804 43.6827 60.61C52.9044 60.0395 58.8573 58.2553 63.6047 56.3563" stroke="black" stroke-width="2" stroke-linecap="round"/>
<path d="M67.2568 54.9683C67.963 54.6919 69.5121 54.0535 70.0591 53.7117" stroke="black" stroke-width="2" stroke-linecap="round"/>
</svg>
