<svg width="100" height="100" viewBox="0 0 100 100" fill="none" xmlns="http://www.w3.org/2000/svg">
<path d="M42.5992 20.9125C53.034 21.1393 69.7591 20.3223 69.4417 18.8412C69.1917 17.6744 41.7535 17.1503 33.5108 18.3339C25.268 19.5176 37.7326 20.8067 42.5992 20.9125Z" fill="black" stroke="black" stroke-width="2"/>
<path d="M30.741 19.1876C32.3594 22.0199 35.4909 24.351 36.1732 28.0184C37.2523 33.8197 32.9469 37.9332 30.2484 42.5857C27.2301 47.7899 22.129 65.7245 33.9102 74.1397C43.66 81.1038 56.5525 78.6942 61.8539 76.316C66.4205 74.2674 74.9987 64.564 73.3748 53.4006C71.8772 43.1059 67.3773 39.8478 66.186 37.8188C64.4079 34.7902 62.4307 30.4563 64.2121 26.1674C65.4796 23.1157 67.8926 22.0778 69.3318 19.0723" stroke="black" stroke-width="2"/>
<path d="M38.2526 76.898C38.2526 78.8826 37.7704 80.2715 39.9762 80.9717C43.2665 82.0163 49.395 82.2904 52.6674 82.0685C57.0001 81.7748 61.1186 80.5432 61.396 80.044C61.6178 79.6446 61.7042 77.3985 61.6118 76.585" stroke="black" stroke-width="2"/>
<path d="M38.5039 80.3514V76.9653L41.7449 77.9328L49.5329 78.9003L57.1758 77.9328L61.5777 76.9653L61.1424 80.3514L52.145 82.3347L42.5189 81.851L38.5039 80.3514Z" fill="black"/>
<path d="M27.8027 49.5055C29.7277 48.977 34.5697 48.2662 34.6305 51.3655C34.7064 55.2396 38.3296 54.6992 39.5681 54.1001C41.7332 53.0529 43.4912 51.3655 45.7971 52.6568C47.1127 53.3936 49.2154 55.9992 51.4943 55.2396C53.7732 54.4799 53.325 52.0187 56.3635 52.1707C59.402 52.3226 60.0778 55.1131 62.8129 54.1001C64.8639 53.3405 63.4008 50.3445 65.6235 49.6942C67.2178 49.2278 70.2688 52.6568 72.4366 48.7134" stroke="black" stroke-width="2"/>
<path d="M26.4248 56.582C27.5047 58.686 29.2738 62.3913 30.5025 63.7319C30.8742 64.1375 33.3513 59.3191 34.1892 59.3749C35.0271 59.4308 37.429 66.5248 37.9318 66.0221C38.4345 65.5194 40.6686 61.4975 41.2272 61.6093C41.7858 61.721 44.6397 68.2278 45.4217 67.5575C46.2037 66.8872 48.8235 62.7448 49.9414 63.1175C51.1144 63.5085 54.3836 67.8368 54.8863 67.5575C55.3891 67.2782 57.4914 60.4434 58.3851 61.2254C59.2788 62.0074 62.2783 65.2233 62.781 64.7764C63.2837 64.3296 65.8609 57.8667 66.6429 58.3694C67.4249 58.8721 69.3287 61.5047 69.608 61.2254C69.8872 60.9461 72.3154 57.2017 73.5442 55.3584" stroke="black" stroke-width="2"/>
<path d="M26.7959 62.1917C27.4333 64.7966 29.274 67.7211 30.5026 69.0617C30.8744 69.4673 32.748 66.0291 33.5859 66.085C34.4238 66.1408 35.5654 71.6066 37.0934 71.6066C37.8043 71.6066 40.459 67.7443 41.0176 67.8561C41.5762 67.9678 44.1945 74.4241 44.9765 73.7538C45.7585 73.0835 48.8237 68.0746 49.9415 68.4472C51.1146 68.8382 54.9283 73.826 55.4989 73.7538C57.3742 73.5166 58.7724 67.074 59.6662 67.8561C60.5599 68.6381 62.7507 70.6245 63.4167 70.5301C64.9747 70.3091 66.4547 64.1237 67.2367 64.6264C68.0187 65.1291 68.9891 67.2183 69.2684 66.939C69.5477 66.6597 71.7685 65.5615 72.8696 61.5439" stroke="black" stroke-width="2"/>
<path d="M31.4678 40.6825C32.8389 40.2426 36.225 39.8039 36.2773 42.4752C36.3428 45.8143 39.4657 45.3485 40.5332 44.8322C42.3993 43.9296 43.9146 42.4752 45.9021 43.5882C47.036 44.2232 48.8484 46.4691 50.8126 45.8143C52.7769 45.1596 53.0388 42.9335 55.6577 43.0644C58.2767 43.1954 58.8005 45.487 60.5683 44.8322C62.3361 44.1775 61.6814 41.6136 62.9909 41.0347C64.3004 40.4558 65.9941 43.0644 67.7619 40.5743" stroke="black" stroke-width="2"/>
<path fill-rule="evenodd" clip-rule="evenodd" d="M31.293 40.751H34.3033L36.395 41.6184V43.6592L38.2317 45.1387L41.0889 44.7306L44.15 43.353L46.65 44.1183L49.252 45.751H51.1908L53.8438 43.6592L56.1907 43.353L59.456 44.7306L61.5478 44.4245L62.7723 41.0571L64.8641 41.6184L68.1804 40.751L72.313 48.8122L71.1905 50.1897L68.9457 50.5979L65.7824 49.7815L64.4559 50.853L63.8437 52.8937L62.007 54.3223L59.456 53.506L56.7009 52.3325L54.456 52.5876L52.4152 54.8835L49.252 55.1896L44.15 52.3325L41.7521 52.8937L38.2317 54.3223L35.4257 53.8631L34.3033 51.2101L33.742 49.4754L30.1706 49.1183L27.9258 49.4754L28.9462 45.1387L31.293 40.751ZM50.8281 53.8032C51.4985 53.8032 52.042 53.2598 52.042 52.5894C52.042 51.919 51.4985 51.3755 50.8281 51.3755C50.1577 51.3755 49.6143 51.919 49.6143 52.5894C49.6143 53.2598 50.1577 53.8032 50.8281 53.8032ZM39.376 52.0449C39.376 52.8582 38.6587 53.5175 37.7739 53.5175C36.889 53.5175 36.1718 52.8582 36.1718 52.0449C36.1718 51.2316 36.889 50.5723 37.7739 50.5723C38.6587 50.5723 39.376 51.2316 39.376 52.0449ZM60.8792 52.5894C61.5495 52.5894 62.093 52.0459 62.093 51.3755C62.093 50.7051 61.5495 50.1616 60.8792 50.1616C60.2088 50.1616 59.6653 50.7051 59.6653 51.3755C59.6653 52.0459 60.2088 52.5894 60.8792 52.5894ZM45.7228 45.6821C45.7228 46.2982 45.2233 46.7977 44.6071 46.7977C43.991 46.7977 43.4915 46.2982 43.4915 45.6821C43.4915 45.0659 43.991 44.5664 44.6071 44.5664C45.2233 44.5664 45.7228 45.0659 45.7228 45.6821ZM55.6608 47.4045C56.5026 47.4045 57.1851 46.7221 57.1851 45.8802C57.1851 45.0384 56.5026 44.356 55.6608 44.356C54.8189 44.356 54.1365 45.0384 54.1365 45.8802C54.1365 46.7221 54.8189 47.4045 55.6608 47.4045ZM65.6278 43.6245C65.6278 44.1598 65.1938 44.5937 64.6585 44.5937C64.1232 44.5937 63.6893 44.1598 63.6893 43.6245C63.6893 43.0892 64.1232 42.6552 64.6585 42.6552C65.1938 42.6552 65.6278 43.0892 65.6278 43.6245ZM33.6555 44.9814C34.3745 44.9814 34.9573 44.3986 34.9573 43.6797C34.9573 42.9607 34.3745 42.3779 33.6555 42.3779C32.9366 42.3779 32.3538 42.9607 32.3538 43.6797C32.3538 44.3986 32.9366 44.9814 33.6555 44.9814Z" fill="black"/>
<path d="M36.4248 31.2407C38.1326 31.7892 41.1213 33.0539 46.6183 33.289C51.3646 33.4919 59.9605 33.0539 63.5896 31.5765" stroke="black" stroke-width="2"/>
<path d="M36.9434 20.5208C32.1536 19.7557 33.6335 22.6996 35.3301 25.6102" stroke="black" stroke-width="2"/>
<path d="M63.2109 20.2728C65.9293 19.953 67.2022 20.1926 67.2022 21.4896C67.2022 22.3619 66.1485 22.9397 65.5066 23.9734" stroke="black" stroke-width="2"/>
</svg>
