<svg width="100" height="100" viewBox="0 0 100 100" fill="none" xmlns="http://www.w3.org/2000/svg">
<path d="M19.2831 64.2072C15.7639 62.2826 10.6897 62.9909 9.85347 62.5323C8.64361 61.8687 8.82884 56.8136 9.33922 56.1522C9.8496 55.4907 16.868 55.5453 16.868 55.5453L16.5697 51.8445C18.0496 51.0831 24.0644 48.9029 36.2851 46.274C48.5058 43.645 77.3183 42.7954 90.1969 42.6993C89.9951 43.9142 87.8339 48.4381 80.8028 56.8136C77.4024 60.8643 73.1809 63.0105 68.9804 64.2072" stroke="black" stroke-width="2" stroke-linecap="round" stroke-linejoin="round"/>
<path d="M9.85366 62.532C12.7629 61.7509 19.2647 62.1613 22.4273 64.8409" stroke="black" stroke-width="2" stroke-linecap="round" stroke-linejoin="round"/>
<path d="M47.988 65.9321C58.0709 65.6376 73.4456 64.137 82.7459 53.9571" stroke="black" stroke-width="2" stroke-linecap="round" stroke-linejoin="round"/>
<path d="M8.00391 67.3132C11.274 66.7903 17.6603 63.7641 21.2766 64.559C24.0657 65.1756 27.4756 67.4382 30.0916 67.3132C34.9005 67.0826 37.5499 64.1284 42.4358 64.5769C46.2637 64.9272 49.0003 67.186 52.9917 67.3132C57.9577 67.471 62.0644 64.5249 67.0959 64.559C69.7267 64.5769 72.6694 67.046 78.0108 66.9227C83.3523 66.7994 83.9174 64.5769 89.0994 64.559" stroke="black" stroke-width="2" stroke-miterlimit="10" stroke-linecap="round" stroke-linejoin="round"/>
<path d="M16.868 55.5452C22.8647 55.4657 30.9893 53.9497 31.798 54.3418C32.6066 54.7339 34.0007 57.1163 36.0726 57.9787C38.1445 58.841 70.5635 55.6665 83.5968 53.1666" stroke="black" stroke-width="2" stroke-linecap="round" stroke-linejoin="round"/>
<path d="M31.7981 54.3418L39.4601 58.0265" stroke="black" stroke-width="2" stroke-linecap="round" stroke-linejoin="round"/>
<path d="M29.4245 58.268C29.2735 58.268 29.1858 58.3021 29.1311 58.3334C29.0715 58.3676 29.0069 58.4248 28.9443 58.5202C28.8051 58.7321 28.7343 59.0476 28.7569 59.3101C28.767 59.428 28.8498 59.6586 29.0286 59.8561C29.1981 60.0435 29.3427 60.0844 29.4245 60.0844C29.6511 60.0844 29.9979 59.9775 30.2823 59.7661C30.5577 59.5614 30.5767 59.4186 30.578 59.4188C30.5781 59.4188 30.5781 59.4197 30.5781 59.4216C30.5781 58.6984 30.3589 58.5177 30.2836 58.4618C30.1339 58.3509 29.8539 58.268 29.4245 58.268Z" fill="black" stroke="black" stroke-width="2.60072"/>
<path d="M24.2219 58.7762C24.1075 58.6777 24.0188 58.6463 23.9569 58.6344C23.8894 58.6215 23.8032 58.6227 23.6935 58.6541C23.4498 58.724 23.1903 58.9169 23.0362 59.1306C22.967 59.2266 22.8794 59.4554 22.886 59.7217C22.8923 59.9743 22.9752 60.0997 23.0372 60.153C23.209 60.3008 23.5415 60.446 23.895 60.4713C24.2373 60.4957 24.3448 60.3999 24.3457 60.4008C24.3457 60.4009 24.3451 60.4016 24.3439 60.403C24.8156 59.8549 24.7674 59.5749 24.7467 59.4834C24.7057 59.3017 24.5474 59.0563 24.2219 58.7762Z" fill="black" stroke="black" stroke-width="2.60072"/>
<path d="M58.2878 36.5823L68.4009 43.1716C60.6611 43.1716 42.654 43.9327 32.5447 46.9768C35.0248 45.3252 51.3642 37.1404 58.2878 36.5823Z" stroke="black" stroke-width="2" stroke-linecap="round" stroke-linejoin="round"/>
<path fill-rule="evenodd" clip-rule="evenodd" d="M68.4009 43.1714L58.2878 36.582C51.3642 37.1401 35.0248 45.325 32.5447 46.9766C42.654 43.9324 60.6611 43.1714 68.4009 43.1714ZM60.4636 41.9964C60.7954 42.4379 61.4223 42.5268 61.8638 42.195C62.3053 41.8633 62.3943 41.2364 62.0625 40.7949C61.7425 40.3691 61.049 39.7265 60.2966 39.1505C59.5387 38.5704 58.5807 37.949 57.693 37.6509C57.1695 37.4751 56.6025 37.7569 56.4267 38.2805C56.2508 38.804 56.5327 39.371 57.0563 39.5468C57.629 39.7392 58.3781 40.2007 59.0809 40.7387C59.7891 41.2808 60.3095 41.7913 60.4636 41.9964Z" fill="black"/>
</svg>
