<svg width="100" height="100" viewBox="0 0 100 100" fill="none" xmlns="http://www.w3.org/2000/svg">
<path d="M16.1711 59.9348C33.1651 58.7821 72.0245 52.3656 89.3299 49.3015" stroke="black" stroke-width="2" stroke-linecap="round"/>
<path d="M17.2782 64.7201L15.9902 60.0879C15.9248 59.8524 16.04 59.604 16.2607 59.4989C20.3688 57.5433 21.6836 56.2253 22.0613 54.0359C22.0962 53.8338 22.2221 53.6706 22.421 53.6203C32.9066 50.9693 73.9648 42.3406 90.0035 48.985C90.2817 49.1003 90.3748 49.4332 90.2113 49.6862C84.9641 57.8042 74.9796 62.4234 65.0962 64.7141" stroke="black" stroke-width="2" stroke-linecap="round"/>
<path d="M21.5635 55.2117L20.8417 49.2848C20.8272 49.1662 20.7717 49.0574 20.6828 48.9776C20.2509 48.5898 18.9087 47.4039 18.3275 47.1142C17.6297 46.7665 12.2704 47.6034 11.8026 47.7361C11.4253 47.8432 10.3429 49.447 9.93844 50.0633C9.84138 50.2112 9.67587 50.2983 9.49899 50.2959C8.83902 50.2871 7.24229 50.2981 7.01205 50.6036C6.72066 50.9903 7.38629 58.1081 7.84513 58.2587C8.30397 58.4092 19.9127 57.1346 19.9127 57.1346" stroke="black" stroke-width="2" stroke-linecap="round"/>
<path d="M11.7991 58.1901C11.7991 60.683 12.2978 63.3691 12.473 65.2094" stroke="black" stroke-width="2" stroke-linecap="round" stroke-linejoin="round"/>
<path d="M10.5738 58.1793C10.5738 60.6722 11.0724 63.3584 11.2477 65.1986" stroke="black" stroke-width="2" stroke-linecap="round" stroke-linejoin="round"/>
<path d="M10.0865 65.3355C10.5691 62.9685 10.1789 60.2538 8.14624 58.1904" stroke="black" stroke-width="2" stroke-linecap="round" stroke-linejoin="round"/>
<path d="M9.45215 65.6923C12.7222 65.4741 19.1085 64.2113 22.7248 64.543C25.514 64.8003 28.9238 65.7445 31.5398 65.6923C36.3488 65.5961 38.9982 64.3633 43.884 64.5504C47.7119 64.6966 50.4486 65.6393 54.44 65.6923C59.406 65.7582 63.5127 64.5287 68.5441 64.543C71.175 64.5504 74.1176 65.5808 79.4591 65.5294C84.8005 65.4779 85.3657 64.5504 90.5477 64.543" stroke="black" stroke-width="2" stroke-miterlimit="10" stroke-linecap="round" stroke-linejoin="round"/>
<path d="M17.4016 64.5221L16.1069 60.3793L89.2983 50.022C87.503 55.753 75.7763 61.4437 70.1373 63.5727L56.5866 65.7305L42.7769 64.5221L31.1249 65.7305L17.4016 64.5221Z" fill="black"/>
<path d="M46.7936 41.8267L38.5593 49.72" stroke="black" stroke-width="2" stroke-linecap="round" stroke-linejoin="round"/>
<path fill-rule="evenodd" clip-rule="evenodd" d="M53.6892 38.5897C53.4279 38.4792 53.1572 38.4542 52.9075 38.4895L46.9967 39.3251C46.1913 39.439 45.6234 40.174 45.7165 40.9821L46.5327 48.0646C46.6316 48.9223 47.4305 49.516 48.2763 49.3721C53.0287 48.5634 56.149 48.241 60.8377 48.0693C61.8943 48.0306 62.704 46.8472 62.0377 45.8133C61.0548 44.288 59.544 42.734 58.0265 41.4551C56.5153 40.1814 54.9078 39.1055 53.6892 38.5897ZM53.5569 40.3444C53.0459 40.135 52.4618 40.3796 52.2524 40.8906C52.043 41.4017 52.2875 41.9857 52.7986 42.1951C54.0404 42.704 55.4354 43.8017 56.299 44.9852C56.6246 45.4313 57.2501 45.5291 57.6963 45.2035C58.1424 44.878 58.2401 44.2524 57.9146 43.8062C56.8437 42.3387 55.1578 41.0004 53.5569 40.3444Z" fill="black"/>
</svg>
