<svg width="100" height="100" viewBox="0 0 100 100" fill="none" xmlns="http://www.w3.org/2000/svg">
<path d="M60.8612 50.6985C60.8612 50.6985 58.8112 48.2555 60.5012 45.0985C62.2012 41.9425 69.7612 41.7435 70.5412 46.2635C71.3212 50.7835 67.3712 53.1475 64.7512 52.6145C61.5612 51.9615 60.8612 50.6985 60.8612 50.6985Z" stroke="black" stroke-width="2" stroke-miterlimit="10" stroke-linejoin="round"/>
<path d="M21.2914 28.3008C21.2914 28.3008 21.6914 36.3108 21.3814 48.0178C21.1214 57.8298 21.1913 69.8698 22.0613 70.0238C23.6213 70.3008 37.3213 69.8008 43.2113 69.9468C49.1013 70.0918 57.9813 69.6108 57.9813 69.6108" stroke="black" stroke-width="2" stroke-miterlimit="10" stroke-linejoin="round"/>
<path d="M78.3013 27.501V62.785" stroke="black" stroke-width="2" stroke-miterlimit="10" stroke-linejoin="round"/>
<path d="M72.2413 73.813L72.2513 64.508L76.3312 67.874C76.3312 67.874 74.2912 70.592 71.8212 74.51C69.3412 78.428 74.3512 79.148 75.5612 78.1C76.7712 77.052 83.0913 68.83 82.3813 66.871C81.6613 64.911 71.7913 57.139 69.3613 56.028C66.9613 54.929 63.9613 54.914 61.3013 55.713C59.0413 56.391 52.4813 59.474 51.2813 59.071C49.6913 58.534 45.8913 56.202 43.7313 55.659C41.5713 55.116 37.2312 58.454 40.5812 60.763C43.9212 63.072 49.9713 65.286 52.1113 65.268C54.0713 65.251 58.3513 64.225 58.3513 64.225C58.3513 64.225 58.2212 75.704 58.1812 78.434" stroke="black" stroke-width="2" stroke-miterlimit="10" stroke-linecap="round" stroke-linejoin="round"/>
<path d="M28.1912 50.2273C28.4412 49.5543 30.1112 47.8663 30.4612 47.4473C30.6412 47.2303 31.6813 45.1583 31.9213 45.1673C32.8613 45.2003 36.0312 50.4883 36.1412 50.4923C36.3412 50.4993 37.4612 48.0363 37.6112 47.7203C38.8412 45.1583 40.7512 42.9263 42.0612 40.4083C42.1812 40.1863 42.7612 38.3743 43.0312 38.3103C43.3713 38.2303 47.9412 44.2813 48.7112 44.9823C48.7612 45.0273 49.0913 45.3033 49.1613 45.2713C51.0613 44.4063 54.6612 39.4083 56.3712 37.8203" stroke="black" stroke-width="2" stroke-miterlimit="10" stroke-linecap="round" stroke-linejoin="round"/>
<path d="M19.2112 22.0221C34.2612 22.0391 63.8013 22.6211 79.1713 22.0061C84.4513 21.7941 83.5412 27.1981 80.4912 27.2901C65.1212 27.7541 34.6613 27.9221 19.2913 27.9711C16.0713 27.9811 16.4312 22.0191 19.2112 22.0221Z" fill="black" stroke="black" stroke-width="2" stroke-miterlimit="10" stroke-linejoin="round"/>
<path d="M79.7612 63.6937L79.2012 27.6777" stroke="black" stroke-width="2" stroke-miterlimit="10" stroke-linejoin="round"/>
</svg>
