<svg width="100" height="100" viewBox="0 0 100 100" fill="none" xmlns="http://www.w3.org/2000/svg">
<path d="M62.8753 70.9495C62.8753 70.9495 67.518 83.064 67.4454 83.4267C67.3729 83.7894 72.5959 83.4267 72.5959 83.4267C72.5959 83.4267 68.461 71.5298 68.1709 71.0946L62.8753 70.9495Z" fill="black"/>
<path d="M68.6069 71.0946C68.9696 71.5298 73.032 83.4267 73.032 83.4267C73.032 83.4267 67.8089 83.7894 67.8815 83.4267C68.0266 83.064 63.3113 70.9495 63.3113 70.9495" stroke="black" stroke-width="2" stroke-miterlimit="10" stroke-linecap="round"/>
<path d="M36.3259 70.9495C36.3259 70.9495 31.6832 83.064 31.7558 83.4267C31.9008 83.7894 26.6053 83.4267 26.6053 83.4267C26.6053 83.4267 30.7402 71.5298 31.0303 71.0946L36.3259 70.9495Z" fill="black"/>
<path d="M31.6827 71.0946C31.32 71.5298 27.2576 83.4267 27.2576 83.4267C27.2576 83.4267 32.4806 83.7894 32.4081 83.4267C32.3356 83.064 36.9782 70.9495 36.9782 70.9495" stroke="black" stroke-width="2" stroke-miterlimit="10" stroke-linecap="round"/>
<path d="M74.4805 23.7444H25.5198C21.1015 23.7444 17.5198 27.3261 17.5198 31.7444V62.4614C17.5198 66.8797 21.1015 70.4614 25.5198 70.4614H74.4805C78.8988 70.4614 82.4805 66.8797 82.4805 62.4614V31.7444C82.4805 27.3261 78.8988 23.7444 74.4805 23.7444Z" stroke="black" stroke-width="2" stroke-miterlimit="10" stroke-linecap="round"/>
<path d="M38.6493 61.3842H30.9637C31.1272 57.4815 31.1272 56.405 31.1272 54.0499C31.1272 52.7714 31.1272 51.4256 32.2719 50.6855C33.7436 49.6761 35.6241 50.2144 37.2594 50.9546C38.4858 51.4929 38.1588 52.5695 38.1588 53.2424C38.1588 56.9432 38.4858 58.76 38.6493 61.3842Z" stroke="black" stroke-width="2" stroke-miterlimit="10" stroke-linecap="round"/>
<path d="M51.3461 61.3846H43.6604C43.824 57.4819 43.824 47.9943 43.824 45.6392C43.824 44.3607 43.824 43.015 44.9686 42.2748C46.4404 41.2655 48.3209 41.8038 49.9561 42.5439C51.1826 43.0822 50.8555 44.1589 50.8555 44.8318C51.1826 49.0709 51.1826 58.7604 51.3461 61.3846Z" stroke="black" stroke-width="2" stroke-miterlimit="10" stroke-linecap="round"/>
<path d="M65.2284 61.3848H57.0522C57.0522 54.4458 57.3793 51.628 57.3793 47.5235C57.3793 43.4189 57.3793 40.4582 56.6434 37.0265C56.3981 35.6807 55.9893 34.1331 57.0522 32.9892C58.5239 31.3743 62.2032 30.9033 63.8385 32.1145C65.0649 32.9892 64.9014 34.6714 64.7379 35.6807C64.1655 40.9965 65.392 46.3123 65.2284 51.628C65.1467 53.9158 65.0649 57.2803 65.2284 61.3848Z" stroke="black" stroke-width="2" stroke-miterlimit="10" stroke-linecap="round"/>
<path d="M48.303 23.7073C48.303 23.7073 48.303 19.5662 48.303 18.6611C48.303 17.7561 49.101 16.4124 50.842 16.4124C52.583 16.4124 53.381 18.0082 53.381 19.0964C53.381 20.1845 53.526 23.7073 53.526 23.7073" fill="black"/>
<path d="M48.303 23.7073C48.303 23.7073 48.303 19.5662 48.303 18.6611C48.303 17.7561 49.101 16.4124 50.842 16.4124C52.583 16.4124 53.381 18.0082 53.381 19.0964C53.381 20.1845 53.526 23.7073 53.526 23.7073H48.303Z" stroke="black" stroke-width="2" stroke-miterlimit="10" stroke-linecap="round"/>
</svg>
