<svg width="100" height="100" viewBox="0 0 100 100" fill="none" xmlns="http://www.w3.org/2000/svg">
<path d="M34.8251 70.1538L26.3731 70.0178C21.8961 67.7188 21.0161 59.4108 21.0031 58.6408C20.9631 56.3058 21.3241 47.6778 21.3241 47.6778C21.4141 45.1148 23.5661 43.0168 26.1311 42.9918L50.5801 42.7548L74.4721 42.5238C77.0371 42.4988 79.1131 44.5578 79.1091 47.1228C79.1091 47.1228 79.5651 52.7498 79.3671 59.5808C79.2471 63.6988 76.7381 70.4728 73.8771 70.3508L66.0521 70.3488" stroke="black" stroke-width="2" stroke-miterlimit="10" stroke-linecap="round" stroke-linejoin="round"/>
<path d="M35.6797 59.3584C35.6797 59.3584 35.9457 70.4124 36.3237 74.1374C37.0627 81.4164 37.0107 83.6144 37.0107 83.6144C37.0107 83.6144 47.6367 84.1164 54.7807 83.9674C60.5017 83.8474 67.4137 83.9324 67.4137 83.9324C67.4137 83.9324 67.7287 79.6194 66.2517 73.4634C64.9057 67.8504 65.5557 59.5114 65.5557 59.5114L35.6797 59.3584Z" stroke="black" stroke-width="2" stroke-miterlimit="10" stroke-linecap="round" stroke-linejoin="round"/>
<path d="M42.0234 78.1898C42.0234 78.1898 47.0014 78.6488 50.2604 78.3058C54.5614 77.8518 61.5095 78.2928 61.5095 78.2928" stroke="black" stroke-width="2" stroke-miterlimit="10" stroke-linecap="round" stroke-linejoin="round"/>
<path d="M41.6855 71.7483C41.6855 71.7483 46.0286 71.6813 50.7566 71.9343C55.7376 72.2013 60.7496 71.7733 60.7496 71.7733" stroke="black" stroke-width="2" stroke-miterlimit="10" stroke-linecap="round" stroke-linejoin="round"/>
<path d="M40.9053 65.0512C40.9053 65.0512 48.1943 65.2972 52.7203 65.0732C56.5753 64.8812 60.1633 65.3952 60.1633 65.3952" stroke="black" stroke-width="2" stroke-miterlimit="10" stroke-linecap="round" stroke-linejoin="round"/>
<path d="M65.4794 59.5449L35.6654 59.3809L35.5164 62.222L31.6514 62.3099L31.7304 56.9059C31.7304 56.9059 42.2634 56.759 51.9914 56.848C61.7194 56.936 70.4014 57.1779 70.4014 57.1779L70.7484 61.3369L65.5044 61.4009L65.4794 59.5449Z" fill="black" stroke="black" stroke-width="2" stroke-miterlimit="10" stroke-linecap="round" stroke-linejoin="round"/>
<path d="M70.0821 49.2651C70.0901 48.3261 71.0731 47.5721 72.2771 47.5821C73.4811 47.5921 74.451 48.3621 74.443 49.3021C74.435 50.2421 74.1951 51.2401 72.5591 51.3151C70.9271 51.3911 70.0741 50.2051 70.0821 49.2651Z" stroke="black" stroke-width="2" stroke-miterlimit="10" stroke-linejoin="round"/>
<path d="M33.3926 38.4298C33.3926 38.4298 33.8756 32.9188 33.8776 27.6898C33.8796 22.4608 33.3995 17.5128 33.3995 17.5128C33.3995 17.5128 40.6945 17.2698 46.9515 17.2538C53.2075 17.2368 55.9416 16.2898 59.7736 18.1668C61.9566 19.2358 66.2696 25.4098 66.7306 26.6388C66.9016 27.0928 67.1635 29.2848 67.1385 32.1628C67.1135 35.0408 66.6296 38.1528 66.6296 38.1528" stroke="black" stroke-width="2" stroke-miterlimit="10" stroke-linecap="round" stroke-linejoin="round"/>
<path d="M21.4141 46.7859C21.4141 46.7859 25.2581 35.9578 28.4891 34.9868C30.4071 34.4108 33.4412 34.5659 33.4412 34.5659" stroke="black" stroke-width="2" stroke-miterlimit="10" stroke-linecap="round" stroke-linejoin="round"/>
<path d="M78.5066 44.8859C78.5066 44.8859 75.1746 37.0819 72.8586 35.2189C71.2906 33.9579 67.6016 34.1719 67.6016 34.1719" stroke="black" stroke-width="2" stroke-miterlimit="10" stroke-linecap="round" stroke-linejoin="round"/>
<path d="M30.6133 39.0601L69.2552 38.4111" stroke="black" stroke-width="2" stroke-miterlimit="10" stroke-linecap="round" stroke-linejoin="round"/>
<path d="M57.0432 17.2648C59.0152 17.8688 59.4572 18.5588 59.4052 21.2528C59.3522 23.9468 58.3871 28.0418 58.3871 28.0418C58.3871 28.0418 61.4371 28.1768 64.0861 27.9308C66.7351 27.6858 66.6052 27.2678 66.6052 27.2678" stroke="black" stroke-width="2" stroke-miterlimit="10" stroke-linecap="round" stroke-linejoin="round"/>
</svg>
