<svg width="100" height="100" viewBox="0 0 100 100" fill="none" xmlns="http://www.w3.org/2000/svg">
<path d="M18.212 30.302C18.212 30.302 31.602 30.478 47.177 30.651C62.752 30.825 80.247 30.961 80.247 30.961L79.944 19.984C79.944 19.984 65.674 18.906 52.183 19.012C38.692 19.118 18.645 19.095 18.279 20.042C17.912 20.989 18.212 30.302 18.212 30.302Z" stroke="black" stroke-width="2" stroke-miterlimit="10" stroke-linecap="round" stroke-linejoin="round"/>
<path fill-rule="evenodd" clip-rule="evenodd" d="M47.177 30.651C31.602 30.478 18.212 30.302 18.212 30.302C18.212 30.302 17.912 20.989 18.279 20.042C18.5958 19.2222 33.6595 19.1293 46.4527 19.0504C48.4387 19.0381 50.3701 19.0262 52.183 19.012C65.674 18.906 79.944 19.984 79.944 19.984L80.247 30.961C80.247 30.961 62.752 30.825 47.177 30.651ZM56.6538 26.2488C57.2078 26.2488 57.7347 25.9971 57.6903 25.1827C57.6903 24.6286 57.2313 24.1345 56.566 24.1345C56.012 24.1345 55.5628 24.5837 55.5628 25.1377C55.5628 25.6917 56.0997 26.2488 56.6538 26.2488ZM64.8892 26.3483C64.1233 26.4208 63.8664 25.9258 63.8457 25.3957C63.825 24.8656 64.3301 24.3314 64.8522 24.311C65.3744 24.2907 65.8145 24.7039 65.8351 25.234C65.86 25.8706 65.4114 26.328 64.8892 26.3483ZM71.879 25.1391C71.7634 25.6569 71.8852 26.2011 72.6442 26.3269C73.1542 26.4407 73.7048 26.1132 73.8436 25.4915C73.9591 24.9737 73.6394 24.4617 73.1294 24.3478C72.6194 24.234 71.9945 24.6213 71.879 25.1391Z" fill="black"/>
<path d="M33.834 68.271C33.834 68.271 18.608 69.019 18.63 67.972C18.707 64.35 18.054 22.538 18 19.94C17.968 18.419 78.965 19.004 79.956 19.873C81.211 20.973 80.764 59.529 79.975 67.241C79.831 68.64 64.406 68.465 64.406 68.465" stroke="black" stroke-width="2" stroke-miterlimit="10"/>
<path d="M19.0701 68.1865C21.7061 69.3775 33.2131 69.6565 33.2131 69.6565" stroke="black" stroke-width="2" stroke-miterlimit="10"/>
<path d="M34.669 58.167C34.669 58.167 32.565 74.659 34.872 79.139C35.655 80.658 63.47 80.328 63.718 79.071C65.347 70.791 64.804 59.388 63.921 58.302C63.039 57.216 34.94 56.538 34.669 58.167Z" stroke="black" stroke-width="2" stroke-miterlimit="10"/>
<path d="M38.253 57.057C38.253 50.417 37.988 44.367 45.647 42.105C47.81 41.465 49.718 41.109 51.945 41.612C56.309 42.597 58.78 47.412 59.832 51.47C60.195 52.87 60.216 54.307 60.216 55.743C60.216 56.118 60.216 57.312 60.216 57.276" stroke="black" stroke-width="2" stroke-miterlimit="10" stroke-linecap="round"/>
<path d="M55.6149 56.9473C55.6149 51.8083 53.8599 44.6393 47.1249 45.3363C43.6859 45.6923 42.3509 49.8203 42.5789 52.6753C42.6549 53.6213 42.5549 54.5853 42.6889 55.5233C42.7329 55.8303 42.7439 57.1713 42.7439 56.7833" stroke="black" stroke-width="2" stroke-miterlimit="10" stroke-linecap="round"/>
<path d="M65 69.8175C65 69.8175 80.2428 70.812 80.1892 68.1582C80.1357 65.5043 82.5058 20.9946 79.3811 20" stroke="black" stroke-width="2" stroke-miterlimit="10"/>
</svg>
