<svg width="100" height="100" viewBox="0 0 100 100" fill="none" xmlns="http://www.w3.org/2000/svg">
<path d="M44.5388 86.6064C36.0374 86.3115 25.5756 83.356 21.5352 82.2502C19.4101 80.4808 48.1929 79.8703 65.9595 79.8703C67.2325 79.686 76.5621 80.2229 78.8204 83.1717C81.6431 86.8579 55.1656 86.975 44.5388 86.6064Z" fill="black"/>
<path d="M51.7838 81.342C52.1776 81.3288 52.5619 81.2841 52.9553 81.2613C55.5754 81.1096 65.908 81.0315 68.1457 80.4053C68.4036 80.3331 68.6499 80.0928 68.64 79.8251V79.8251C68.6304 79.5663 68.6036 79.3825 68.6079 79.1235C68.6587 76.1129 68.993 55.8583 68.9112 49.8122C68.8375 44.3691 68.9478 25.6276 68.706 17.8969C68.6483 16.0508 67.2181 14.6836 65.3743 14.5739C59.4906 14.2237 46.9529 13.5335 42.0215 13.695C37.5794 13.8405 29.0838 14.0846 24.0824 14.2266C21.8902 14.2888 20.1605 16.1037 20.1992 18.2965L20.7928 51.9556" stroke="black" stroke-width="2" stroke-miterlimit="10"/>
<path d="M36.0605 59.0415C45.5989 59.0415 40.669 59.0415 49.1356 59.1487C50.7432 59.1487 53.744 59.363 57.8166 58.8271" stroke="black" stroke-width="2" stroke-miterlimit="10" stroke-linecap="round"/>
<path d="M35.7388 54.4137C45.2771 54.4137 41.3226 53.8051 50.0999 54.8424C51.1716 55.0568 53.7438 55.4854 57.8163 54.8424" stroke="black" stroke-width="2" stroke-miterlimit="10" stroke-linecap="round"/>
<path d="M34.0239 49.9297C43.5623 49.9297 38.6323 49.9297 47.099 50.0369C48.7066 50.0369 55.0298 50.7871 59.1023 50.2512" stroke="black" stroke-width="2" stroke-miterlimit="10" stroke-linecap="round"/>
<path fill-rule="evenodd" clip-rule="evenodd" d="M33.2373 32.5581C33.2373 25.85 38.6752 20.4121 45.3833 20.4121C50.2677 20.4121 54.4788 23.2953 56.4074 27.4527C57.3045 29.0589 57.8158 30.9099 57.8158 32.8803C57.8158 36.8223 55.7695 40.2863 52.6811 42.268C50.6494 43.7974 48.1222 44.704 45.3833 44.704C38.6752 44.704 33.2373 39.2661 33.2373 32.5581ZM51.7016 38.4622V38.8015V39.5935C50.7994 40.2722 49.1079 41.5167 45.725 41.6298C42.4717 41.7386 40.157 40.2781 39.182 39.6629C39.1431 39.6383 39.1064 39.6151 39.0718 39.5935V38.8015C39.0718 36.1995 40.6505 33.9369 42.9058 33.0319C43.1313 32.9188 43.2441 32.5794 43.0186 32.3531C42.342 31.6743 41.8909 30.6561 41.8909 29.5248C41.8909 27.2622 43.5824 25.4521 45.725 25.4521C47.8675 25.4521 49.559 27.2622 49.559 29.5248C49.559 30.7693 49.1079 31.5612 49.1079 31.5612C48.8747 31.8888 48.6221 32.1196 48.4141 32.3097C48.1194 32.5791 47.9142 32.7666 47.9803 33.0319C47.9803 33.2314 48.1751 33.3136 48.4731 33.4394C48.6821 33.5276 48.9418 33.6373 49.2207 33.8238C50.7994 34.7288 51.3633 36.5389 51.476 36.9915C51.5888 37.444 51.7016 37.8965 51.7016 38.4622Z" fill="black"/>
</svg>
