<svg width="100" height="100" viewBox="0 0 100 100" fill="none" xmlns="http://www.w3.org/2000/svg">
<path d="M19.1735 60.173C19.3085 57.049 17.8265 50.211 21.6395 50.326C25.4535 50.441 79.1365 49.274 81.0285 51.135C82.9205 52.996 81.9775 66.484 77.8955 68.793C73.8125 71.101 29.6545 71.104 27.1275 70.792C24.6015 70.481 18.7875 69.064 19.1735 60.173Z" stroke="black" stroke-width="2" stroke-miterlimit="10" stroke-linejoin="round"/>
<path d="M58.0878 61.5583C57.8868 55.7983 62.2517 54.8663 65.1887 54.8733C68.1257 54.8803 71.9368 57.4954 71.6388 61.1824C71.3408 64.8684 69.5628 67.0533 65.5098 67.2803C64.0208 67.3643 58.2898 67.3183 58.0878 61.5583Z" stroke="black" stroke-width="2" stroke-miterlimit="10" stroke-linejoin="round"/>
<path d="M62.1346 61.2752C62.0526 58.9532 63.8136 58.5772 64.9976 58.5802C66.1816 58.5832 67.7176 59.6372 67.5976 61.1242C67.4776 62.6102 66.7606 63.4912 65.1266 63.5822C64.5266 63.6162 62.2156 63.5982 62.1346 61.2752Z" fill="black" stroke="black" stroke-width="2" stroke-miterlimit="10" stroke-linejoin="round"/>
<path d="M26.0816 55.2443C26.0816 55.2443 24.9046 66.5513 27.1656 66.5103C29.5126 66.4673 45.4376 67.6493 45.2536 65.8233C45.0686 63.9973 46.1546 55.2983 43.4536 55.2403C39.9796 55.1653 26.0816 55.2443 26.0816 55.2443Z" stroke="black" stroke-width="2" stroke-miterlimit="10" stroke-linejoin="round"/>
<path d="M35.0775 66.6479L34.8555 55.918" stroke="black" stroke-width="2" stroke-miterlimit="10" stroke-linejoin="round"/>
<path d="M29.7055 66.325L29.5825 55.668" stroke="black" stroke-width="2" stroke-miterlimit="10" stroke-linejoin="round"/>
<path d="M40.6797 66.5516L40.5518 55.4316" stroke="black" stroke-width="2" stroke-miterlimit="10" stroke-linejoin="round"/>
<path d="M19.6387 51.4303C19.6387 51.4303 31.2147 27.8323 33.7777 27.5813C36.3417 27.3303 66.2857 26.0753 68.5567 28.2883C70.8287 30.5023 81.2657 51.5133 81.2657 51.5133" stroke="black" stroke-width="2" stroke-miterlimit="10" stroke-linejoin="round"/>
<path d="M56.4244 41.4558L55.5034 46.1048L73.0884 46.0918L70.3414 41.4238L56.4244 41.4558Z" stroke="black" stroke-width="2" stroke-miterlimit="10" stroke-linejoin="round"/>
<path d="M24.2587 70.8156C24.2587 70.8156 15.0097 71.8075 21.0687 73.0795C27.1287 74.3515 68.4667 73.2985 75.3747 73.0545C80.5857 72.8705 84.5737 70.0076 77.1767 69.8246C73.7727 69.7406 53.9987 70.9276 53.9987 70.9276L24.2587 70.8156Z" fill="black" stroke="black" stroke-width="2" stroke-miterlimit="10" stroke-linejoin="round"/>
</svg>
