<svg width="100" height="100" viewBox="0 0 100 100" fill="none" xmlns="http://www.w3.org/2000/svg">
<path d="M16.7665 57.7255C16.7665 57.1093 22.9888 57.383 24.0507 57.383C25.1127 57.383 22.2376 29.3569 49.6824 28.2242C79.6131 26.9888 76.5153 57.3831 77.6655 57.383H82.8389C83.5361 57.383 83.5361 70.5185 82.8389 70.3165C82.1417 70.1145 18.5452 70.3165 17.1137 70.3165C15.6822 70.3165 16.7665 58.3417 16.7665 57.7255Z" stroke="black" stroke-width="2" stroke-linecap="round"/>
<path d="M50.5413 41.0976C39.576 41.4077 38.0341 51.1618 37.3883 56.6242C36.9712 56.8328 43.4393 57.0341 50.5413 57.0005C57.1854 56.9692 63.1494 57.1313 63.8518 56.6241C65.3048 55.5747 62.6474 40.7553 50.5413 41.0976Z" stroke="black" stroke-width="2" stroke-linecap="round"/>
<path d="M25.1943 65.707V70.2849" stroke="black" stroke-width="2" stroke-linecap="round"/>
<path d="M31.6133 67.7334V70.2256" stroke="black" stroke-width="2" stroke-linecap="round"/>
<path d="M26.1709 47.4051L28.0881 47.8793" stroke="black" stroke-width="2" stroke-linecap="round"/>
<path d="M28.7661 40.7182L30.3977 41.8311" stroke="black" stroke-width="2" stroke-linecap="round"/>
<path d="M38.5316 31.7534L39.3017 33.5721" stroke="black" stroke-width="2" stroke-linecap="round"/>
<path d="M44.5418 29.7958L44.804 31.7533" stroke="black" stroke-width="2" stroke-linecap="round"/>
<path d="M75.8984 47.4051L73.9812 47.8793" stroke="black" stroke-width="2" stroke-linecap="round"/>
<path d="M73.3032 40.7182L71.6717 41.8311" stroke="black" stroke-width="2" stroke-linecap="round"/>
<path d="M63.5377 31.7534L62.7676 33.5721" stroke="black" stroke-width="2" stroke-linecap="round"/>
<path d="M57.5276 29.7958L57.2653 31.7533" stroke="black" stroke-width="2" stroke-linecap="round"/>
<path d="M37.9111 65.707V70.2849" stroke="black" stroke-width="2" stroke-linecap="round"/>
<path d="M44.3311 67.7334V70.2256" stroke="black" stroke-width="2" stroke-linecap="round"/>
<path d="M50.791 65.707V70.0465" stroke="black" stroke-width="2" stroke-linecap="round"/>
<path d="M57.2109 67.7334V70.2256" stroke="black" stroke-width="2" stroke-linecap="round"/>
<path d="M63.5078 65.707V67.9006V70.0942" stroke="black" stroke-width="2" stroke-linecap="round"/>
<path d="M76.5742 65.707V67.9006V70.0942" stroke="black" stroke-width="2" stroke-linecap="round"/>
<path d="M29.582 54.1445L27.3884 54.1445L25.1948 54.1445" stroke="black" stroke-width="2" stroke-linecap="round"/>
<path d="M76.5742 54.1445L74.3806 54.1445L72.187 54.1445" stroke="black" stroke-width="2" stroke-linecap="round"/>
<path d="M35.7158 38.7793L34.3437 37.0679L32.9715 35.3564" stroke="black" stroke-width="2" stroke-linecap="round"/>
<path d="M66.6221 38.7793L67.9942 37.0679L69.3664 35.3564" stroke="black" stroke-width="2" stroke-linecap="round"/>
<path d="M51.2939 33.0615L51.2939 30.8679L51.2939 28.6743" stroke="black" stroke-width="2" stroke-linecap="round"/>
<path d="M69.9277 67.7334V70.2256" stroke="black" stroke-width="2" stroke-linecap="round"/>
<path d="M38.0273 56.2285C47.2328 56.2285 63.0569 56.47 63.3516 55.9788C63.7201 55.3649 62.1014 38.4183 46.5065 41.7189" stroke="black" stroke-width="2" stroke-linecap="round"/>
<path d="M18.0645 70.626C18.2682 71.4791 18.4047 71.7573 18.9187 71.7573C19.4327 71.7572 83.4618 72.0827 83.9041 71.575C84.3464 71.0672 84.292 59.968 84.113 59.2817C83.934 58.5954 83.188 58.8341 83.188 58.8341" stroke="black" stroke-width="2" stroke-linecap="round"/>
</svg>
