<svg width="100" height="100" viewBox="0 0 100 100" fill="none" xmlns="http://www.w3.org/2000/svg">
<path d="M60.6255 54.0625C60.6255 54.0625 64.0705 35.7755 64.9305 33.6045C65.7895 31.4335 68.9355 31.4075 71.4545 31.5325C73.9735 31.6575 74.9195 35.5405 74.2825 39.9185C73.6455 44.2965 73.0155 55.3965 73.0155 55.3965" stroke="black" stroke-width="2" stroke-miterlimit="10" stroke-linejoin="round"/>
<path d="M39.2466 63.1573C39.2466 63.1573 36.4566 56.3473 39.4366 54.7873C41.9946 53.4473 71.9296 54.4374 72.9086 55.1844C73.8866 55.9304 73.1526 68.8733 73.1276 71.9503C73.1036 75.0283 72.6546 76.9274 72.6606 79.7364C72.6646 81.7614 67.8426 81.3513 67.6946 79.3473C67.5886 77.9083 67.5706 75.3473 67.5706 75.3473L44.1046 74.6173C44.1046 74.6173 43.9216 77.6043 43.8926 79.5293C43.8656 81.3013 38.9386 81.9433 38.8246 79.3473C38.7176 76.9103 39.2466 63.1573 39.2466 63.1573Z" stroke="black" stroke-width="2" stroke-miterlimit="10" stroke-linejoin="round"/>
<path d="M62.6823 42.0986C62.6823 42.0986 61.8173 37.9586 59.1703 35.1256C56.5223 32.2926 54.0283 31.5335 50.4453 33.4725C46.8623 35.4115 46.2793 37.7316 44.8543 41.0316C43.4293 44.3316 41.8813 47.8766 40.6613 48.3526C39.4423 48.8286 34.7134 45.5666 32.3244 44.7726C29.9344 43.9796 27.6803 47.4686 29.1793 48.8856C30.4333 50.0706 34.3443 52.5606 36.6693 53.1676C37.1233 53.2866 38.9403 53.9616 39.2433 54.0136C41.1003 54.3306 46.9203 53.4936 48.3943 51.2516C49.8673 49.0106 51.4333 45.0796 51.4333 45.0796" stroke="black" stroke-width="2" stroke-miterlimit="10" stroke-linecap="round" stroke-linejoin="round"/>
<path d="M37.6825 53.624C33.7085 53.726 30.2905 63.3 30.2905 63.3C30.2905 63.3 26.8325 70.448 26.3415 73.336C25.8495 76.224 26.2305 77.375 27.8015 77.996C29.3715 78.618 33.0615 74.5 34.6305 70.728C36.1385 67.1 38.8335 62.744 38.8335 62.744" stroke="black" stroke-width="2" stroke-miterlimit="10" stroke-linejoin="round"/>
<path d="M43.6688 42.8828C43.6688 42.8828 41.7998 39.2838 40.0648 39.4878C39.1088 39.5998 36.9468 41.2848 38.5548 43.5738C39.3448 44.6978 41.1148 47.7498 41.1148 47.7498" stroke="black" stroke-width="2" stroke-miterlimit="10" stroke-linejoin="round"/>
<path d="M35.7334 39.8711L40.8714 38.2051" stroke="black" stroke-width="2" stroke-miterlimit="10" stroke-linecap="round" stroke-linejoin="round"/>
<path d="M29.6185 44.9498C29.6185 44.9498 25.8475 36.8228 25.0055 35.3838C24.7855 35.0088 31.2525 36.8798 31.8535 37.9758L35.6095 46.0568C35.6095 46.0568 33.8605 45.2639 32.6125 44.8029C31.3635 44.3429 29.6185 44.9498 29.6185 44.9498Z" fill="black" stroke="black" stroke-width="2" stroke-miterlimit="10" stroke-linejoin="round"/>
<path d="M43.3623 28.731C39.6273 25.021 43.7223 17.61 48.1933 18.016C52.6643 18.423 55.5643 21.8001 54.8943 25.0851C54.2233 28.3701 48.5623 33.898 43.3623 28.731Z" stroke="black" stroke-width="2" stroke-miterlimit="10" stroke-linejoin="round"/>
</svg>
