<svg width="100" height="100" viewBox="0 0 100 100" fill="none" xmlns="http://www.w3.org/2000/svg">
<path d="M72.769 38.8584C72.769 38.8584 75.0591 37.6884 77.2891 38.9004C81.3691 40.9344 82.9191 47.2994 81.9691 50.2814C81.0491 53.2614 80.0092 54.2184 80.0092 54.2184" stroke="black" stroke-width="2" stroke-miterlimit="10" stroke-linecap="round" stroke-linejoin="round"/>
<path d="M67.229 31.0716C67.229 31.0716 74.699 30.2155 74.699 38.2105" stroke="black" stroke-width="2" stroke-miterlimit="10" stroke-linecap="round" stroke-linejoin="round"/>
<path d="M34.2591 57.863C34.2591 57.863 29.4391 58.891 26.8191 58.063C22.4691 56.681 23.1591 52.636 22.5391 51.64C21.8991 50.604 17.7371 46.352 18.0131 42.36C18.2881 38.369 23.6391 35.674 23.6391 35.674C23.6391 35.674 24.4691 31.023 27.2691 28.791C30.0891 26.559 34.9091 26.745 34.9091 26.745" stroke="black" stroke-width="2" stroke-miterlimit="10" stroke-linecap="round" stroke-linejoin="round"/>
<path d="M74.7592 53.6273C74.7592 53.6273 80.0491 52.2673 80.4391 55.9503C80.8391 59.6323 78.4791 64.8603 74.6991 65.8733C72.5991 66.4333 69.7592 67.4563 69.7592 67.4563C69.7592 67.4563 71.4391 72.9643 71.0991 74.8013C70.8291 76.2243 65.8992 79.4383 63.8892 75.3703C61.8692 71.3023 58.5491 64.6143 54.9491 63.0243C51.3591 61.4343 48.7791 65.9563 42.2191 64.7323C32.7091 62.9553 34.8391 55.8993 34.8391 55.8993" stroke="black" stroke-width="2" stroke-miterlimit="10" stroke-linecap="round" stroke-linejoin="round"/>
<path d="M69.8389 68.519C69.8389 68.519 69.1088 64.078 68.7988 62.46" stroke="black" stroke-width="2" stroke-miterlimit="10" stroke-linecap="round" stroke-linejoin="round"/>
<path d="M50.3892 63.4758C50.3892 63.4758 53.7391 62.1398 54.7891 59.4258" stroke="black" stroke-width="2" stroke-miterlimit="10" stroke-linecap="round" stroke-linejoin="round"/>
<path d="M64.3792 63.7983C61.2592 60.6763 62.5092 54.5803 58.6092 51.6553C56.3092 49.9343 51.7192 49.9313 48.9392 49.9313C48.0092 49.9313 47.0891 49.9313 46.1591 49.9313C45.9091 49.9313 45.5291 50.3083 45.4091 50.0813C44.7391 48.7363 44.4192 47.1633 41.7692 47.6053C35.2392 48.6923 44.8391 58.9023 45.5391 50.3823" stroke="black" stroke-width="2" stroke-miterlimit="10" stroke-linecap="round" stroke-linejoin="round"/>
<path d="M45.0491 52.4663C46.7091 52.2483 45.1192 47.3903 42.6092 47.6423C39.1192 47.9903 39.0192 51.9853 41.9692 53.4623C44.0292 54.4913 44.0491 52.5983 45.0491 52.4663Z" fill="black"/>
<path d="M19.0801 46.5293C21.6091 50.8043 24.7891 51.2703 26.8391 50.0753" stroke="black" stroke-width="2" stroke-miterlimit="10" stroke-linecap="round" stroke-linejoin="round"/>
<path d="M59.9492 47.3291C61.7092 43.6931 65.5792 45.2951 65.5792 44.9841" stroke="black" stroke-width="2" stroke-miterlimit="10" stroke-linecap="round" stroke-linejoin="round"/>
<path d="M70.2592 43.8493C66.7892 42.5703 64.4492 46.6243 67.6092 48.9933C70.0592 50.8323 73.7492 45.1393 70.2592 43.8493Z" stroke="black" stroke-width="2" stroke-miterlimit="10" stroke-linecap="round" stroke-linejoin="round"/>
<path d="M66.8291 48.5097C66.3291 48.5097 66.069 46.6297 66.149 46.2387C66.439 44.7787 69.4891 42.4997 70.8191 43.6087C72.7191 45.1937 71.7391 49.0907 69.2291 49.4037C67.8891 49.5717 67.9991 48.2367 67.1191 47.7957" fill="black"/>
<path d="M58.7891 51.5816C59.2691 51.3446 59.4792 49.9196 59.5792 49.4066C60.4792 44.9366 57.9892 41.3986 54.2592 38.9116C53.8392 38.6296 51.7792 37.1146 51.3392 37.4126C50.9692 37.6576 50.7692 38.4516 50.2092 38.7616C48.7492 39.5766 46.9592 39.5546 46.3292 37.6456C44.8092 33.0856 51.4992 32.7006 51.4992 37.0526" stroke="black" stroke-width="2" stroke-miterlimit="10" stroke-linecap="round" stroke-linejoin="round"/>
<path d="M50.5191 38.7589C50.9591 37.8869 51.6391 37.5668 51.4691 36.4608C51.1591 34.4538 48.1991 33.7198 46.9191 35.2098C46.0991 36.1698 46.1792 38.9278 47.6392 39.3458C48.5692 39.6128 49.3891 38.7838 50.0591 38.2478" fill="black"/>
<path d="M35.1293 29.4876C35.1293 29.4876 34.7093 28.7116 35.9993 26.3356C37.2993 23.9586 38.0093 23.4656 40.7793 22.4726C44.8393 21.0256 50.8293 22.9736 52.6993 27.3296" stroke="black" stroke-width="2" stroke-miterlimit="10" stroke-linecap="round" stroke-linejoin="round"/>
<path d="M52.2593 25.6708C52.2593 25.6708 57.3492 22.0008 63.4192 25.7018C68.2892 28.6758 66.8593 32.6948 66.8593 32.6948" stroke="black" stroke-width="2" stroke-miterlimit="10" stroke-linecap="round" stroke-linejoin="round"/>
</svg>
