<svg width="100" height="100" viewBox="0 0 100 100" fill="none" xmlns="http://www.w3.org/2000/svg">
<path d="M19.434 23.1712C17.814 22.5062 16.994 18.2691 20.144 18.2221C23.294 18.1751 34.3439 16.6901 34.2339 25.2821C34.1239 33.8751 31.6239 47.7951 38.3139 51.6231C44.9939 55.4521 47.284 54.8311 47.164 49.7741C47.044 44.7171 46.8439 30.2071 46.6939 27.3991C46.4939 23.3811 43.314 23.0011 41.254 23.1041C39.064 23.2141 39.514 20.7962 39.684 18.9912C39.844 17.1852 45.0339 18.4261 50.8339 18.2921C54.3339 18.2111 60.224 17.6991 60.764 19.0711C61.304 20.4431 61.8939 23.4301 57.7239 23.4301C55.2439 23.4301 53.9339 24.1631 53.7239 27.4531C53.5139 30.7421 53.414 47.3601 53.504 49.1881C53.584 51.0151 53.684 56.5212 59.024 53.0772C65.904 48.6392 66.8839 39.6342 66.8539 32.9292C66.8239 23.8452 66.3339 19.6562 70.6139 19.0492C74.8839 18.4422 81.1139 17.3601 81.3339 20.2641C81.4239 21.3841 81.4539 24.2471 79.4839 24.1491C77.3139 24.0431 74.934 24.2252 73.904 24.7232C71.744 25.7682 72.9739 28.6091 72.8339 33.8081C72.7039 39.0071 73.6539 48.6621 65.9839 56.5991C62.8539 59.8451 55.0739 61.9851 55.0739 61.9851C55.0739 61.9851 53.4639 64.2392 53.6239 68.9682C53.7739 73.6972 53.9439 76.4411 57.3439 76.3341C60.7439 76.2271 61.494 78.4072 60.914 80.2572C60.334 82.1072 39.524 80.8692 39.524 80.8692C39.524 80.8692 37.584 77.1172 39.654 76.2282C41.714 75.3392 45.994 76.5521 46.154 73.8371C46.314 71.1221 47.124 63.9161 46.014 62.4921C44.904 61.0681 33.174 59.0192 30.294 51.5622C27.404 44.1062 27.5639 38.7431 27.5639 33.2011C27.5639 27.6591 27.214 24.2361 24.534 23.6641C21.854 23.0911 20.594 23.6492 19.434 23.1712Z" stroke="black" stroke-width="2" stroke-miterlimit="10" stroke-linejoin="round"/>
<path d="M57.2137 76.3217C53.7437 75.8547 54.0637 72.8776 54.3837 69.0146C54.6937 65.1526 54.9637 63.8256 56.4937 62.9456C58.0237 62.0656 64.0538 60.6726 67.5438 56.7386C71.2738 52.5476 73.5037 46.6127 73.6937 42.8817C73.9937 36.7437 73.7237 32.4897 73.7637 28.1317C73.8037 25.1197 75.8137 25.4086 76.8737 25.2586C78.0437 25.0936 80.9638 25.6346 81.1838 23.9426C81.3838 22.4036 81.3637 20.5996 81.3637 20.5996" stroke="black" stroke-width="2" stroke-miterlimit="10" stroke-linejoin="round"/>
</svg>
