<svg width="100" height="100" viewBox="0 0 100 100" fill="none" xmlns="http://www.w3.org/2000/svg">
<path d="M29.7656 45.9721C29.7656 45.9721 29.7656 17.2817 29.7656 16.5482C29.7656 15.8146 65.8155 16.5482 67.4719 16.5482C69.5425 16.5482 69.9784 21.5611 64.9655 21.5611C60.9551 21.5611 36.0843 21.1807 35.7415 21.9739C35.3987 22.7672 35.3234 45.9721 35.3234 45.9721" stroke="black" stroke-width="2" stroke-linecap="round"/>
<path d="M35.9827 46.2661C36.0616 45.7 30.0616 45.7872 29.7505 46.2661C29.4395 46.745 29.7505 54.2578 29.7505 55.0591C29.7505 55.8604 34.9577 55.0591 35.6137 53.255C35.9522 52.3243 35.9038 46.8321 35.9827 46.2661Z" fill="black" stroke="black" stroke-width="2" stroke-linecap="round"/>
<path d="M56.5322 29.3932C56.8708 31.8878 62.4376 31.9089 62.8904 29.3932C63.373 26.712 62.8904 23.858 62.8904 21.5649" stroke="black" stroke-width="2" stroke-linecap="round"/>
<path d="M59.75 29.511V35.0836" stroke="black" stroke-width="2" stroke-linecap="round"/>
<path d="M49.3826 45.5961C50.2822 43.1674 55.417 42.3352 57.8719 42.2227C69.1724 42.2227 69.3973 43.8532 70.0157 45.5961C70.6342 47.339 70.2969 59.7076 70.2969 66.1168C70.2969 72.5261 69.8471 76.3491 68.1042 78.3731C66.3614 80.3971 54.8922 80.1722 51.6876 78.3731C48.4829 76.574 49.3826 65.1049 49.3826 59.7076C49.3826 54.3104 48.2581 48.632 49.3826 45.5961Z" stroke="black" stroke-width="2" stroke-linecap="round"/>
<path d="M35.4121 31.419L45.0178 21.9175" stroke="black" stroke-width="2" stroke-linecap="round"/>
<path d="M35.8672 36.3109L50.4777 21.613" stroke="black" stroke-width="2" stroke-linecap="round"/>
<path d="M69.3942 44.3267C71.2454 46.9352 65.4245 48.014 60.7412 48.0914" stroke="black" stroke-width="2" stroke-linecap="round"/>
<path d="M50.1636 44.5474C49.2968 45.6648 50.3979 47.5341 53.5306 47.6189" stroke="black" stroke-width="2" stroke-linecap="round"/>
<path d="M50.7227 77.6736C51.264 80.5879 52.9258 83.0663 55.7509 83.3316C61.5879 83.8797 63.9393 83.3554 65.5311 83.0901C67.5274 82.7574 68.5224 79.0078 68.2226 78.3334" stroke="black" stroke-width="2" stroke-linecap="round"/>
<path d="M49.4512 53.9583C50.7393 55.955 55.7746 57.0751 61.4429 56.7145C67.1112 56.3538 69.2369 54.8895 69.9454 54.3956" stroke="black" stroke-width="2" stroke-linecap="round"/>
<path d="M49.4512 67.7568C50.7393 69.7536 55.7746 70.8737 61.4429 70.5131C67.1112 70.1524 69.2369 68.688 69.9454 68.1942" stroke="black" stroke-width="2" stroke-linecap="round"/>
<path d="M49.5467 68.6964L49.124 54.7915L51.8016 55.919L57.6265 56.5297H64.5319L69.934 54.7915V68.3205C67.2095 69.0251 61.704 70.4344 61.4785 70.4344H54.3383L49.5467 68.6964Z" fill="black"/>
<path d="M62.0421 79.6587C58.6329 79.4428 51.7405 78.9831 51.4443 78.872L53.6179 82.6874L57.3609 83.7776L65.2147 83.4228L67.7343 81.2323C67.796 80.4455 67.8824 78.8164 67.7343 78.5943C67.5862 78.3723 63.8778 79.2114 62.0421 79.6587Z" fill="black"/>
<path d="M49.5791 45.2379C51.6765 41.9608 59.6323 35.2617 59.6323 35.2617C62.2737 36.9045 68.8268 42.0231 69.8658 45.1983" stroke="black" stroke-width="2"/>
</svg>
