<svg width="100" height="100" viewBox="0 0 100 100" fill="none" xmlns="http://www.w3.org/2000/svg">
<path d="M39.5703 81.1005C39.5703 81.1005 46.2543 69.9145 48.2753 67.5565C50.2963 65.1995 53.9753 66.2025 59.6243 60.2975C63.0333 56.7335 70.7113 56.0965 72.3703 53.7725C74.0293 51.4485 72.7013 48.7985 67.7473 48.9485C63.5543 49.0765 61.2503 50.6265 59.3143 53.3195" stroke="black" stroke-width="2" stroke-miterlimit="10" stroke-linecap="round" stroke-linejoin="round"/>
<path d="M60.9591 51.3368C60.9591 51.3368 66.0951 45.2578 68.0771 41.7868C70.0591 38.3168 74.9832 31.5838 74.8752 27.9788C74.7432 23.5768 70.1791 25.4018 68.4411 28.4388C67.1861 30.6298 64.4601 35.1458 62.7661 37.7178C61.0711 40.2908 58.5671 44.7128 58.5671 44.7128" stroke="black" stroke-width="2" stroke-miterlimit="10" stroke-linecap="round" stroke-linejoin="round"/>
<path d="M63.9861 35.7102C63.7881 34.4072 62.9661 33.2032 61.1671 32.6882C58.9631 32.0572 57.1221 34.5162 56.1681 36.1342C55.2141 37.7532 53.2681 41.4642 53.2681 41.4642" stroke="black" stroke-width="2" stroke-miterlimit="10" stroke-linecap="round" stroke-linejoin="round"/>
<path d="M56.7119 34.7822C56.7119 34.7822 55.658 30.2732 52.071 31.7472C49.822 32.6712 48.538 36.7173 47.168 39.4143" stroke="black" stroke-width="2" stroke-miterlimit="10" stroke-linecap="round" stroke-linejoin="round"/>
<path d="M50.114 33.4721C50.114 33.4721 47.204 31.8811 44.756 34.3291C42.308 36.7781 36.962 42.0081 36.239 51.6091C35.97 55.1741 35.912 56.9811 31.579 63.5071C29.626 66.4491 24.936 70.0441 24.936 70.0441C24.936 70.0441 27.802 72.5131 31.453 75.2771C35.103 78.0401 39.5381 81.1001 39.5381 81.1001" stroke="black" stroke-width="2" stroke-miterlimit="10" stroke-linecap="round" stroke-linejoin="round"/>
<path d="M39.6542 81.1618C39.6542 81.1618 24.6362 70.9168 20.2792 65.5568C15.9212 60.1958 18.5732 57.1028 21.9062 58.1258C25.1802 59.1318 31.4422 63.2098 31.4422 63.2098L25.2122 69.8088" fill="black"/>
<path d="M39.6542 81.1618C39.6542 81.1618 24.6362 70.9168 20.2792 65.5568C15.9212 60.1958 18.5732 57.1028 21.9062 58.1258C25.1802 59.1318 31.4422 63.2098 31.4422 63.2098L25.2122 69.8088" stroke="black" stroke-width="2" stroke-miterlimit="10" stroke-linejoin="round"/>
<path d="M64.4952 29.1848C64.4952 29.1848 62.6272 24.8918 66.2132 21.1118C70.9292 16.1408 77.9472 17.5938 81.0602 22.1738C82.9112 24.8968 82.3682 30.2058 80.1652 32.3078C77.9622 34.4088 75.2902 34.7688 75.2902 34.7688" stroke="black" stroke-width="2" stroke-miterlimit="10" stroke-linecap="round" stroke-linejoin="round"/>
</svg>
