<svg width="100" height="100" viewBox="0 0 100 100" fill="none" xmlns="http://www.w3.org/2000/svg">
<path d="M40.083 61.6503C40.034 62.4683 39.672 68.4803 40.374 68.7923C41.076 69.1043 47.409 69.2923 47.392 68.7433C47.352 67.4963 47.801 61.4163 47.099 61.2993C46.397 61.1823 40.124 60.9653 40.083 61.6503Z" fill="black" stroke="black" stroke-width="2" stroke-miterlimit="10" stroke-linecap="round" stroke-linejoin="round"/>
<path d="M40.7728 56.7748C40.7728 56.7748 47.5547 57.3108 47.4917 56.8698C47.4287 56.4278 47.6808 52.7948 47.1138 52.6048C46.5458 52.4158 31.6568 52.1318 31.2468 52.8258C30.8368 53.5198 31.1527 68.2188 31.3097 68.6918C31.4677 69.1658 36.3258 69.1658 36.2308 68.5658C36.1368 67.9668 35.9178 57.3428 36.0438 57.0588C36.1698 56.7748 40.7728 56.7748 40.7728 56.7748Z" stroke="black" stroke-width="2" stroke-miterlimit="10" stroke-linecap="round" stroke-linejoin="round"/>
<path d="M37.8347 40.3489C37.0167 40.2929 31.0087 39.8759 30.6907 40.5749C30.3717 41.2729 30.1247 47.6049 30.6747 47.5919C31.9217 47.5639 37.9976 48.0689 38.1206 47.3689C38.2446 46.6679 38.5197 40.3969 37.8347 40.3489Z" fill="black" stroke="black" stroke-width="2" stroke-miterlimit="10" stroke-linecap="round" stroke-linejoin="round"/>
<path d="M42.7038 41.0848C42.7038 41.0848 42.1039 47.8619 42.5459 47.8029C42.9889 47.7439 46.6199 48.0298 46.8139 47.4638C47.0089 46.8978 47.4299 32.0119 46.7399 31.5959C46.0499 31.1789 31.3479 31.3588 30.8739 31.5118C30.3989 31.6658 30.3539 36.5228 30.9549 36.4338C31.5549 36.3448 42.1798 36.2248 42.4628 36.3528C42.7458 36.4818 42.7038 41.0848 42.7038 41.0848Z" stroke="black" stroke-width="2" stroke-miterlimit="10" stroke-linecap="round" stroke-linejoin="round"/>
<path d="M22.4619 60.1895C22.4619 60.1895 22.7699 68.8064 22.7699 70.7574C22.7699 72.7094 22.1099 77.8185 22.9239 77.7815C25.3009 77.6735 39.7709 77.8195 39.7709 77.8195" stroke="black" stroke-width="2" stroke-miterlimit="10" stroke-linecap="round" stroke-linejoin="round"/>
<path d="M76.804 59.7793C76.804 59.7793 78.243 74.7773 77.113 76.6263C75.983 78.4753 58.6221 77.5513 58.6221 77.5513" stroke="black" stroke-width="2" stroke-miterlimit="10" stroke-linecap="round" stroke-linejoin="round"/>
<path d="M52.4736 53.2201C52.4246 54.0391 52.0627 60.0511 52.7647 60.3631C53.4657 60.6751 59.7996 60.863 59.7826 60.314C59.7426 59.067 60.1907 52.987 59.4897 52.87C58.7877 52.753 52.5146 52.5351 52.4736 53.2201Z" fill="black" stroke="black" stroke-width="2" stroke-miterlimit="10" stroke-linecap="round" stroke-linejoin="round"/>
<path d="M52.7649 64.3278C52.7649 64.3278 52.2939 69.0998 52.9539 69.1938C53.6129 69.2888 68.9979 69.5708 69.2179 69.0688C69.4369 68.5658 69.3749 53.1498 69.0609 52.8048C68.7469 52.4598 65.4189 52.4908 64.3509 52.7728C63.5319 52.9898 64.7909 64.3278 64.1309 64.2648C63.4719 64.2018 52.7649 64.3278 52.7649 64.3278Z" stroke="black" stroke-width="2" stroke-miterlimit="10" stroke-linecap="round" stroke-linejoin="round"/>
<path d="M59.2378 23.3112C59.2378 23.3112 76.3928 22.3862 76.4958 24.1322C76.5988 25.8792 77.4208 40.4662 77.4208 40.4662" stroke="black" stroke-width="2" stroke-miterlimit="10" stroke-linecap="round" stroke-linejoin="round"/>
<path d="M52.478 31.712C52.478 31.712 51.541 47.419 52.761 48.14C53.8 48.754 68.151 48.187 68.151 48.187C68.151 48.187 68.7651 33.27 68.0571 32.137C67.3481 31.004 52.714 31.193 52.478 31.712Z" stroke="black" stroke-width="2" stroke-miterlimit="10" stroke-linecap="round" stroke-linejoin="round"/>
<path d="M56.6966 36.4639C56.6966 36.4639 56.2256 43.4289 56.8436 43.6059C57.3596 43.7529 64.2796 44.3419 64.2426 43.0899C64.2066 41.8389 64.5006 36.7589 63.6906 36.6479C62.8806 36.5379 56.6966 36.4639 56.6966 36.4639Z" fill="black" stroke="black" stroke-width="2" stroke-miterlimit="10" stroke-linecap="round" stroke-linejoin="round"/>
<path d="M22.1118 40.8619C22.1118 40.8619 21.7148 25.0889 22.4168 23.7929C23.1188 22.4979 40.0548 23.1789 40.0548 23.1789" stroke="black" stroke-width="2" stroke-miterlimit="10" stroke-linecap="round" stroke-linejoin="round"/>
</svg>
