<svg width="100" height="100" viewBox="0 0 100 100" fill="none" xmlns="http://www.w3.org/2000/svg">
<path d="M45.2712 56.942C45.2712 56.942 40.6612 56.821 40.1792 56.649C39.7542 56.498 39.8432 52.261 39.8432 52.261" stroke="black" stroke-width="2" stroke-miterlimit="10" stroke-linecap="round" stroke-linejoin="round"/>
<path d="M57.6412 51.7651C57.6412 51.7651 57.4932 56.3741 57.3182 56.8551C57.1652 57.2791 52.9282 57.1651 52.9282 57.1651" stroke="black" stroke-width="2" stroke-miterlimit="10" stroke-linecap="round" stroke-linejoin="round"/>
<path d="M44.4141 48.8547L52.6721 49.1307" stroke="black" stroke-width="2" stroke-miterlimit="10" stroke-linecap="round" stroke-linejoin="round"/>
<path d="M52.2563 41.4417C52.2563 41.4417 56.8673 41.5067 57.3513 41.6727C57.7783 41.8187 57.7404 46.0567 57.7404 46.0567" stroke="black" stroke-width="2" stroke-miterlimit="10" stroke-linecap="round" stroke-linejoin="round"/>
<path d="M39.7803 46.3951C39.7803 46.3951 39.8373 41.783 40.0013 41.299C40.1463 40.872 44.3853 40.901 44.3853 40.901" stroke="black" stroke-width="2" stroke-miterlimit="10" stroke-linecap="round" stroke-linejoin="round"/>
<path d="M29.5683 76.647C27.8683 71.546 30.4863 21.301 30.8803 19.203C31.2423 17.269 68.3583 17.67 68.6513 20.383C69.1763 25.236 67.4383 76.147 66.8153 78.483C66.2903 80.45 30.8803 80.582 29.5683 76.647Z" stroke="black" stroke-width="2" stroke-miterlimit="10" stroke-linejoin="round"/>
<path d="M46.7124 22.1357L52.0324 22.1997" stroke="black" stroke-width="2" stroke-miterlimit="10" stroke-linecap="round" stroke-linejoin="round"/>
<path d="M68.6143 20.25C68.6143 20.25 70.0873 21.199 70.4763 25.143C70.5793 26.188 70.2023 35.501 70.2023 35.501C70.2023 35.501 68.9613 74.993 67.8793 79.622C67.3063 82.076 39.4903 81.2 36.8593 80.486C34.2273 79.772 30.9523 78.831 29.6743 76.846" stroke="black" stroke-width="2" stroke-miterlimit="10" stroke-linecap="round" stroke-linejoin="round"/>
<path d="M34.7584 25.8037C34.7584 25.8037 42.5184 26.0627 49.3294 26.2177C56.1404 26.3717 64.2234 26.6187 64.2234 26.6187C64.2234 26.6187 64.1904 43.4717 63.9984 49.2367C63.6474 59.7967 62.9494 71.2297 62.9494 71.2297L33.3794 70.5327C33.3794 70.5327 33.5644 53.9477 33.8664 43.3807C34.1684 32.8137 34.7584 25.8037 34.7584 25.8037Z" stroke="black" stroke-width="2" stroke-miterlimit="10" stroke-linecap="round" stroke-linejoin="round"/>
</svg>
