<svg width="100" height="100" viewBox="0 0 100 100" fill="none" xmlns="http://www.w3.org/2000/svg">
<path d="M61.7975 45.1432C61.7975 45.1432 60.6629 45.2519 51.4807 46.1464" stroke="black" stroke-width="2" stroke-miterlimit="10" stroke-linecap="round"/>
<path d="M32.9062 40.624C33.1364 32.4364 37.893 26.978 39.7343 24.9311C41.192 23.3391 45.2581 18.8663 51.9327 16.8952C62.1364 13.8628 75.102 17.7291 81.7766 27.5087C87.9908 36.6818 85.8427 46.6888 85.3824 48.7357L90.2924 61.6994L74.7951 58.5153C73.3632 59.4381 66.5609 63.7918 57.4801 63.5421" stroke="black" stroke-width="2" stroke-miterlimit="10" stroke-linecap="round"/>
<path d="M72.1901 31.6885C72.1901 31.6885 70.9677 31.5799 59.6156 32.8082C48.2634 34.0364 47.0253 33.8453 47.0253 33.8453" stroke="black" stroke-width="2" stroke-miterlimit="10" stroke-linecap="round"/>
<path d="M72.4655 37.6241C72.4655 37.6241 71.2431 37.5154 59.891 38.7437C48.5388 39.972 47.3007 39.7808 47.3007 39.7808" stroke="black" stroke-width="2" stroke-miterlimit="10" stroke-linecap="round"/>
<path d="M57.2835 61.0465C57.12 59.1154 56.3843 51.6669 50.9073 46.3334C47.147 42.747 42.9779 42.0114 40.7707 41.6436C39.4628 41.4596 23.931 39.1607 17.3095 51.5749C12.65 60.1269 15.5929 69.8743 16.0833 71.4376L12.8135 83.392L24.9937 79.6218C25.8929 80.3574 34.4763 86.7944 44.2858 82.8403C45.4303 82.3805 52.8692 79.254 55.9756 70.61C56.3843 69.6904 57.6105 65.9202 57.2835 61.0465Z" stroke="black" stroke-width="2" stroke-miterlimit="10" stroke-linecap="round"/>
<path d="M37.719 72.6909C38.3599 72.6909 38.8794 72.341 38.8794 71.9094C38.8794 71.4778 38.3599 71.1279 37.719 71.1279C37.0781 71.1279 36.5586 71.4778 36.5586 71.9094C36.5586 72.341 37.0781 72.6909 37.719 72.6909Z" stroke="black" stroke-width="2" stroke-miterlimit="10"/>
<path d="M31.7559 55.6443C31.7559 55.6443 34.8002 49.3278 39.4682 51.4587C44.1362 53.5895 43.5949 57.7751 40.4153 61.0475C37.2357 64.3199 36.9651 64.3199 37.0327 66.6029" stroke="black" stroke-width="2" stroke-miterlimit="10" stroke-linecap="round"/>
<path fill-rule="evenodd" clip-rule="evenodd" d="M57.2725 65.5174C66.4051 65.8988 73.5186 61.4249 74.9501 60.4896C74.9501 60.4896 90.0585 64.2719 90.8032 63.7104C91.1159 63.4747 90.2119 61.1445 89.0579 58.5205L90.2355 61.6727L74.9501 58.4886C73.5273 59.4183 66.4906 63.8441 57.4373 63.5228C57.4109 64.2276 57.3525 64.8951 57.2725 65.5174ZM85.6537 49.4079L85.3926 48.709C85.5711 47.9041 86.0071 45.8685 86.0977 43.1367C86.1865 45.7856 85.9036 47.9957 85.6537 49.4079Z" fill="black"/>
<path d="M74.9501 60.4896L75.193 59.5195L74.769 59.4134L74.4031 59.6524L74.9501 60.4896ZM57.2725 65.5174L56.2806 65.3899L56.1416 66.471L57.2307 66.5165L57.2725 65.5174ZM90.8032 63.7104L91.4052 64.5089L90.8032 63.7104ZM89.0579 58.5205L89.9733 58.1179L88.1212 58.8705L89.0579 58.5205ZM90.2355 61.6727L90.0316 62.6517L91.8069 63.0215L91.1723 61.3227L90.2355 61.6727ZM74.9501 58.4886L75.1541 57.5096L74.7493 57.4253L74.4032 57.6515L74.9501 58.4886ZM57.4373 63.5228L57.4728 62.5234L56.4754 62.488L56.4381 63.4853L57.4373 63.5228ZM85.6537 49.4079L84.7169 49.7579L85.9997 53.1916L86.6384 49.5822L85.6537 49.4079ZM85.3926 48.709L84.4163 48.4925L84.3522 48.7816L84.4558 49.059L85.3926 48.709ZM86.0977 43.1367L87.0972 43.1032L85.0983 43.1036L86.0977 43.1367ZM74.4031 59.6524C73.0148 60.5596 66.1231 64.8862 57.3142 64.5183L57.2307 66.5165C66.6872 66.9115 74.0225 62.2902 75.4971 61.3267L74.4031 59.6524ZM90.2011 62.912C90.2931 62.8426 90.3755 62.8084 90.4187 62.7929C90.4647 62.7763 90.4982 62.7695 90.5106 62.7672C90.5332 62.763 90.5285 62.766 90.4817 62.767C90.39 62.7689 90.2362 62.7616 90.0102 62.7385C89.5644 62.6927 88.9429 62.5965 88.1903 62.4601C86.6908 62.1884 84.7493 61.7721 82.818 61.3352C80.8896 60.899 78.983 60.445 77.5578 60.0999C76.8454 59.9274 76.2538 59.7822 75.8404 59.6801C75.6337 59.6291 75.4716 59.5889 75.3613 59.5615C75.3062 59.5478 75.264 59.5372 75.2356 59.5302C75.2214 59.5266 75.2107 59.524 75.2036 59.5222C75.2 59.5213 75.1973 59.5206 75.1955 59.5202C75.1947 59.5199 75.194 59.5198 75.1936 59.5197C75.1934 59.5196 75.1932 59.5196 75.1931 59.5196C75.193 59.5195 75.193 59.5195 74.9501 60.4896C74.7073 61.4596 74.7073 61.4597 74.7075 61.4597C74.7076 61.4597 74.7078 61.4598 74.708 61.4598C74.7085 61.46 74.7092 61.4601 74.7102 61.4604C74.7121 61.4609 74.7149 61.4616 74.7186 61.4625C74.726 61.4643 74.7369 61.4671 74.7514 61.4707C74.7802 61.4779 74.8229 61.4885 74.8786 61.5024C74.99 61.5301 75.1532 61.5706 75.3611 61.6219C75.7769 61.7245 76.3714 61.8704 77.0871 62.0437C78.5179 62.3902 80.435 62.8467 82.3768 63.2859C84.3156 63.7245 86.2908 64.1485 87.8337 64.428C88.6021 64.5673 89.2832 64.6744 89.8061 64.728C90.0646 64.7545 90.3117 64.771 90.5231 64.7666C90.6279 64.7644 90.7503 64.7568 90.8737 64.734C90.9715 64.7159 91.1942 64.668 91.4052 64.5089L90.2011 62.912ZM88.1425 58.9231C88.717 60.2294 89.2191 61.44 89.5374 62.3433C89.6985 62.8007 89.7995 63.1434 89.8443 63.3661C89.8678 63.483 89.8651 63.5165 89.8658 63.495C89.8662 63.4834 89.8685 63.4172 89.8996 63.3244C89.9312 63.2302 90.0111 63.0552 90.2011 62.912L91.4052 64.5089C91.8386 64.1821 91.8606 63.688 91.8648 63.5597C91.8714 63.3554 91.8404 63.1477 91.8051 62.972C91.7322 62.6095 91.5938 62.1614 91.4237 61.6788C91.0797 60.7021 90.5528 59.4356 89.9733 58.1179L88.1425 58.9231ZM91.1723 61.3227L89.9947 58.1705L88.1212 58.8705L89.2987 62.0226L91.1723 61.3227ZM74.7462 59.4676L90.0316 62.6517L90.4394 60.6937L75.1541 57.5096L74.7462 59.4676ZM57.4019 64.5222C66.7753 64.8548 74.031 60.2837 75.4971 59.3258L74.4032 57.6515C73.0236 58.5529 66.206 62.8333 57.4728 62.5234L57.4019 64.5222ZM58.2643 65.6449C58.348 64.9941 58.409 64.2965 58.4366 63.5603L56.4381 63.4853C56.4128 64.1586 56.357 64.7961 56.2806 65.3899L58.2643 65.6449ZM86.5905 49.058L86.3294 48.3591L84.4558 49.059L84.7169 49.7579L86.5905 49.058ZM86.3689 48.9256C86.5532 48.0944 87.0036 45.9905 87.0972 43.1699L85.0983 43.1036C85.0106 45.7465 84.589 47.7138 84.4163 48.4925L86.3689 48.9256ZM85.0983 43.1702C85.1841 45.7313 84.9104 47.8693 84.669 49.2337L86.6384 49.5822C86.8968 48.1221 87.1889 45.84 87.0972 43.1032L85.0983 43.1702Z" fill="black"/>
</svg>
