<svg width="100" height="100" viewBox="0 0 100 100" fill="none" xmlns="http://www.w3.org/2000/svg">
<path d="M51.8672 70.0412C51.8672 70.0412 50.8172 76.4172 54.7572 79.0172C58.6972 81.6172 66.8672 80.2772 67.2572 77.2192C67.7472 73.3932 63.3671 71.8212 61.4471 74.5572" stroke="black" stroke-width="2" stroke-miterlimit="10" stroke-linecap="round" stroke-linejoin="round"/>
<path d="M27.6663 69.3359C27.6663 69.3359 26.3863 76.9259 30.8463 78.9169C35.3063 80.9069 42.0163 81.1619 41.2063 77.3719C40.3963 73.5809 35.2463 74.7869 35.2463 74.7869" stroke="black" stroke-width="2" stroke-miterlimit="10" stroke-linecap="round" stroke-linejoin="round"/>
<path d="M30.7666 78.8832C30.7666 78.8832 38.0266 83.7952 51.7566 83.6952C59.2866 83.6412 74.1566 81.8612 72.8966 79.7702C71.6366 77.6792 67.8265 77.5862 67.8265 77.5862C67.8265 77.5862 66.0066 81.2512 59.2466 80.7512C57.0066 80.5862 54.3466 79.0282 54.3466 79.0282C54.3466 79.0282 52.7565 76.8682 51.4265 76.7712C48.6565 76.5702 41.2266 75.8672 41.2266 75.8672C41.2266 75.8672 41.9265 80.1922 39.5565 80.4852C37.1865 80.7782 35.1166 80.4122 35.1166 80.4122" fill="black"/>
<path d="M30.7666 78.8832C30.7666 78.8832 38.0266 83.7952 51.7566 83.6952C59.2866 83.6412 74.1566 81.8612 72.8966 79.7702C71.6366 77.6792 67.8265 77.5862 67.8265 77.5862C67.8265 77.5862 66.0066 81.2512 59.2466 80.7512C57.0066 80.5862 54.3466 79.0282 54.3466 79.0282C54.3466 79.0282 52.7565 76.8682 51.4265 76.7712C48.6565 76.5702 41.2266 75.8672 41.2266 75.8672C41.2266 75.8672 41.9265 80.1922 39.5565 80.4852C37.1865 80.7782 35.1166 80.4122 35.1166 80.4122" stroke="black" stroke-width="2" stroke-miterlimit="10" stroke-linecap="round" stroke-linejoin="round"/>
<path d="M38.7168 74.7792C38.7168 74.7792 42.8568 75.6162 45.8668 75.7022C48.8668 75.7882 51.8868 75.5602 51.8868 75.5602" stroke="black" stroke-width="2" stroke-miterlimit="10" stroke-linecap="round" stroke-linejoin="round"/>
<path d="M62.9366 63.9676C62.9366 63.9676 70.8466 67.0726 75.9766 66.3526C81.1066 65.6336 82.8067 64.7316 82.9167 61.5776C83.4567 46.7886 68.8066 40.0896 68.8066 40.0896C68.8066 40.0896 69.2067 18.2186 63.3667 17.6316C53.7067 16.6626 60.5766 34.6366 60.5766 34.6366" stroke="black" stroke-width="2" stroke-miterlimit="10" stroke-linecap="round" stroke-linejoin="round"/>
<path d="M61.4971 74.4291C61.4971 74.4291 62.7971 71.1371 63.5071 69.5331C64.0771 68.2121 65.4371 66.1851 65.8571 65.6611" stroke="black" stroke-width="2" stroke-miterlimit="10" stroke-linecap="round" stroke-linejoin="round"/>
<path d="M22.7368 57.7415C22.7368 57.7415 18.6268 56.5115 17.3968 59.8555C16.1668 63.1995 17.8968 67.2355 21.1968 67.5045C24.5068 67.7735 26.3468 64.6215 26.3468 64.6215" stroke="black" stroke-width="2" stroke-miterlimit="10" stroke-linecap="round" stroke-linejoin="round"/>
<path d="M25.2969 66.3592C25.2969 66.3592 26.9068 68.8602 29.3068 70.1972" stroke="black" stroke-width="2" stroke-miterlimit="10" stroke-linecap="round" stroke-linejoin="round"/>
<path d="M71.4473 53.2576C71.4473 53.2576 72.9373 53.1656 74.4773 54.9466" stroke="black" stroke-width="2" stroke-miterlimit="10" stroke-linecap="round" stroke-linejoin="round"/>
<path d="M64.7672 42.7432C64.7672 42.7432 51.1771 14.2202 43.0971 17.2212C35.0171 20.2212 47.8871 36.8192 53.3071 42.3582C58.7271 47.8972 63.3471 48.8552 63.3471 48.8552" stroke="black" stroke-width="2" stroke-miterlimit="10" stroke-linecap="round" stroke-linejoin="round"/>
<path d="M48.8367 37.6132C48.8367 37.6132 32.7067 32.3682 24.7667 45.3022C21.8067 50.1212 21.3567 52.6792 21.3467 56.7092" stroke="black" stroke-width="2" stroke-miterlimit="10" stroke-linecap="round" stroke-linejoin="round"/>
</svg>
