<svg width="100" height="100" viewBox="0 0 100 100" fill="none" xmlns="http://www.w3.org/2000/svg">
<path d="M25.9483 35.1425C25.9483 35.1425 12.1402 35.7805 18.8292 50.4015C21.0122 55.1755 29.7003 59.2435 36.4183 59.0435C44.8003 58.7935 53.3912 55.3354 53.3912 55.3354C53.3912 55.3354 74.8813 64.3885 81.7853 51.9015C89.0143 38.8275 72.8173 37.1215 72.8173 37.1215C72.8173 37.1215 73.0693 30.5195 66.1083 27.5625C59.3403 24.6875 54.6802 30.8105 54.6802 30.8105C54.6802 30.8105 52.4573 16.5114 37.3983 19.3804C25.6643 21.6164 25.9483 35.1425 25.9483 35.1425Z" stroke="black" stroke-width="2" stroke-miterlimit="10" stroke-linecap="round" stroke-linejoin="round"/>
<path d="M52.7686 55.5838C52.7686 55.5838 57.4855 53.5558 58.1205 52.8828" stroke="black" stroke-width="2" stroke-miterlimit="10" stroke-linecap="round" stroke-linejoin="round"/>
<path d="M56.0449 54.515C56.0449 54.515 65.557 58.073 70.897 57.256C76.237 56.439 79.9639 55.705 82.2689 50.957" stroke="black" stroke-width="2" stroke-miterlimit="10" stroke-linecap="round" stroke-linejoin="round"/>
<path d="M73.816 37.2914C71.171 36.9244 68.6841 37.1574 66.8501 39.4804" stroke="black" stroke-width="2" stroke-miterlimit="10" stroke-linecap="round" stroke-linejoin="round"/>
<path d="M25.4692 35.1555C25.4692 35.1555 31.2252 34.5085 34.4692 38.3545" stroke="black" stroke-width="2" stroke-miterlimit="10" stroke-linecap="round" stroke-linejoin="round"/>
<path d="M19.5592 37.5469C18.3322 38.7559 16.8622 44.8609 20.1082 49.1939C23.3532 53.5279 30.3032 60.4009 40.4212 58.7199" stroke="black" stroke-width="2" stroke-miterlimit="10" stroke-linecap="round" stroke-linejoin="round"/>
<path d="M64.9942 68.6455C64.9942 68.6455 53.8042 77.6535 61.0442 79.8585C68.2842 82.0635 64.9942 68.6455 64.9942 68.6455Z" fill="black" stroke="black" stroke-width="2" stroke-miterlimit="10" stroke-linecap="round" stroke-linejoin="round"/>
<path d="M36.893 65.3525C36.893 65.3525 23.76 76.3345 32.435 78.8015C41.11 81.2685 36.893 65.3525 36.893 65.3525Z" fill="black" stroke="black" stroke-width="2" stroke-miterlimit="10" stroke-linecap="round" stroke-linejoin="round"/>
<path d="M51.8211 61.7234C51.8211 61.7234 42.2701 69.5134 48.4931 71.3654C54.7171 73.2184 51.8211 61.7234 51.8211 61.7234Z" fill="black" stroke="black" stroke-width="2" stroke-miterlimit="10" stroke-linecap="round" stroke-linejoin="round"/>
</svg>
