<svg width="100" height="100" viewBox="0 0 100 100" fill="none" xmlns="http://www.w3.org/2000/svg">
<path d="M26.4798 52.2781C26.4798 52.2781 13.3998 52.883 19.7298 66.742C21.7998 71.266 30.0397 75.1221 36.4097 74.9321C44.3497 74.6951 52.4898 71.4181 52.4898 71.4181C52.4898 71.4181 72.8597 79.9991 79.4097 68.1631C86.2597 55.7711 70.9097 54.1541 70.9097 54.1541C70.9097 54.1541 71.1497 47.896 64.5497 45.093C58.1297 42.368 53.7198 48.1721 53.7198 48.1721C53.7198 48.1721 51.6098 34.6191 37.3398 37.3381C26.2098 39.4571 26.4798 52.2781 26.4798 52.2781Z" stroke="black" stroke-width="2" stroke-miterlimit="10" stroke-linecap="round" stroke-linejoin="round"/>
<path d="M51.8994 71.6528C51.8994 71.6528 56.3794 69.7298 56.9794 69.0928" stroke="black" stroke-width="2" stroke-miterlimit="10" stroke-linecap="round" stroke-linejoin="round"/>
<path d="M55.0098 70.6405C55.0098 70.6405 64.0297 74.0135 69.0897 73.2395C74.1497 72.4645 77.6798 71.7685 79.8698 67.2695" stroke="black" stroke-width="2" stroke-miterlimit="10" stroke-linecap="round" stroke-linejoin="round"/>
<path d="M71.85 54.3154C69.35 53.9674 66.99 54.1884 65.25 56.3904" stroke="black" stroke-width="2" stroke-miterlimit="10" stroke-linecap="round" stroke-linejoin="round"/>
<path d="M26.0293 52.2897C26.0293 52.2897 31.4792 51.6777 34.5592 55.3227" stroke="black" stroke-width="2" stroke-miterlimit="10" stroke-linecap="round" stroke-linejoin="round"/>
<path d="M20.4299 54.5566C19.2599 55.7026 17.87 61.4886 20.95 65.5956C24.02 69.7036 30.61 76.2186 40.2 74.6246" stroke="black" stroke-width="2" stroke-miterlimit="10" stroke-linecap="round" stroke-linejoin="round"/>
<path d="M38.79 37.1954C41.84 31.7434 49.6201 24.9364 62.8401 25.0004C69.1601 25.0314 76.4501 29.1574 80.1301 31.4884C83.8201 33.8184 81.3901 36.9374 77.2601 34.2074C75.8101 33.2494 71.89 31.3144 67.66 30.2414C65.87 29.7884 64.03 29.4884 62.3 29.4804C54.07 29.4434 48.4001 31.9774 44.4801 37.3594" stroke="black" stroke-width="2" stroke-miterlimit="10" stroke-linejoin="round"/>
<path d="M44.3896 37.4945C46.0396 36.0455 49.3996 29.6535 62.6196 29.7185C68.9296 29.7495 76.2295 33.8745 79.9095 36.2055C83.5995 38.5355 81.1696 41.6545 77.0396 38.9245C75.5896 37.9675 71.6596 36.0315 67.4296 34.9585C65.6496 34.5055 63.8096 34.1865 62.0796 34.1985C56.5896 34.2345 51.4197 37.8365 49.2797 39.8175" fill="black"/>
<path d="M44.3896 37.4945C46.0396 36.0455 49.3996 29.6535 62.6196 29.7185C68.9296 29.7495 76.2295 33.8745 79.9095 36.2055C83.5995 38.5355 81.1696 41.6545 77.0396 38.9245C75.5896 37.9675 71.6596 36.0315 67.4296 34.9585C65.6496 34.5055 63.8096 34.1865 62.0796 34.1985C56.5896 34.2345 51.4197 37.8365 49.2797 39.8175" stroke="black" stroke-width="2" stroke-miterlimit="10" stroke-linejoin="round"/>
<path d="M49.5898 40.3061C50.6898 38.6641 57.5498 34.3131 62.0898 34.2941C62.9998 34.2901 63.9399 34.3841 64.8999 34.5551C70.5899 35.5701 76.6498 38.6741 79.7998 40.6691C83.4898 43.0001 80.4899 46.2471 76.3599 43.5171C74.9099 42.5591 71.7599 41.1231 67.5299 40.0491C65.7399 39.5961 63.8998 39.2591 62.1698 39.2891C57.8298 39.3631 53.7798 42.8071 52.4098 44.7221" stroke="black" stroke-width="2" stroke-miterlimit="10" stroke-linejoin="round"/>
<path d="M52.6201 44.6558C52.6201 44.6558 56.56 39.0618 62.16 39.2528C67.76 39.4448 71.9601 41.3828 75.1001 42.8288C78.6701 44.4698 77.1201 48.2118 73.6201 47.0328C70.1101 45.8528 68.4701 44.4438 65.9001 43.8718C62.1701 43.0408 60.8701 44.0828 58.4801 44.8898C56.0901 45.6978 53.8501 47.8588 53.8501 47.8588L52.6201 44.6558Z" fill="black" stroke="black" stroke-width="2" stroke-miterlimit="10" stroke-linejoin="round"/>
</svg>
