<svg width="100" height="100" viewBox="0 0 100 100" fill="none" xmlns="http://www.w3.org/2000/svg">
<path d="M32.8181 39.592C32.8181 39.592 19.4562 55.986 20.0172 64.633C20.5782 73.279 25.8562 78.444 33.2672 78.332C40.6782 78.22 46.4802 73.167 46.1822 64.405C45.8872 55.77 32.8181 39.592 32.8181 39.592Z" stroke="black" stroke-width="2" stroke-miterlimit="10" stroke-linecap="round" stroke-linejoin="round"/>
<path d="M24.73 64.342C24.976 65.133 24.909 66.129 25.056 66.954C25.709 70.619 28.5 72.749 31.806 73.726" stroke="black" stroke-width="2" stroke-miterlimit="10" stroke-linecap="round" stroke-linejoin="round"/>
<path d="M24.8042 75.4108C25.6112 76.0708 37.9142 83.9218 45.0992 68.7428C47.1282 64.4568 42.9342 54.6398 42.1082 53.2278" stroke="black" stroke-width="2" stroke-miterlimit="10" stroke-linecap="round" stroke-linejoin="round"/>
<path d="M51.3294 21C51.3294 21 43.4604 30.654 43.7914 35.746C44.1224 40.838 47.2294 43.879 51.5944 43.813C55.9584 43.747 59.3754 40.772 59.1994 35.612C59.0254 30.527 51.3294 21 51.3294 21Z" stroke="black" stroke-width="2" stroke-miterlimit="10" stroke-linecap="round" stroke-linejoin="round"/>
<path d="M46.6104 42.0933C47.0854 42.4823 54.3304 47.1053 58.5614 38.1673C59.7564 35.6433 57.2864 29.8623 56.8004 29.0303" stroke="black" stroke-width="2" stroke-miterlimit="10" stroke-linecap="round" stroke-linejoin="round"/>
<path d="M69.4053 44.8154C69.4053 44.8154 59.6973 56.7264 60.1053 63.0074C60.5123 69.2894 64.3473 73.0424 69.7313 72.9604C75.1163 72.8794 79.3313 69.2084 79.1143 62.8424C78.9003 56.5684 69.4053 44.8154 69.4053 44.8154Z" stroke="black" stroke-width="2" stroke-miterlimit="10" stroke-linecap="round" stroke-linejoin="round"/>
<path d="M63.5835 70.8387C64.1695 71.3187 73.1075 77.0227 78.3275 65.9947C79.8015 62.8807 76.7545 55.7487 76.1555 54.7227" stroke="black" stroke-width="2" stroke-miterlimit="10" stroke-linecap="round" stroke-linejoin="round"/>
<path d="M71.0483 69.586C73.1563 68.519 73.5513 67.154 74.8403 65.418" stroke="black" stroke-width="2" stroke-miterlimit="10" stroke-linecap="round" stroke-linejoin="round"/>
<path d="M53.457 39.598C53.866 38.968 54.201 38.234 54.598 37.624" stroke="black" stroke-width="2" stroke-miterlimit="10" stroke-linecap="round" stroke-linejoin="round"/>
</svg>
