<svg width="100" height="100" viewBox="0 0 100 100" fill="none" xmlns="http://www.w3.org/2000/svg">
<path d="M38.7738 81.3389L38.2461 85.2504" stroke="black" stroke-width="2" stroke-linecap="round"/>
<path d="M46.8206 65.2895C44.5595 57.8767 39.608 41.8148 37.8908 36.869C35.7443 30.6868 32.4434 19.6572 31.5848 17.7682C30.7262 15.8792 34.1607 13.6467 35.1052 15.364C36.0497 17.0812 40.5526 30.6867 41.4112 33.4343C42.0981 35.6324 48.0513 54.6138 50.942 63.8298" stroke="black" stroke-width="2"/>
<path d="M48.032 73.4848C48.6922 71.8813 47.0316 67.2738 46.4814 65.6821C45.9415 63.8421 51.4415 63.0607 51.8333 64.4318C52.5335 66.8826 54.0995 72.0617 56.0449 72.7692C57.9903 73.4766 65.2939 72.7692 66.355 72.7692C66.9817 72.7692 68.5528 74.3187 68.5528 74.6724C68.5528 75.0261 68.4345 75.5107 68.0219 76.0412C67.6092 76.5718 37.0726 81.5108 36.1294 81.3339C35.1862 81.1571 33.0614 77.801 34.0046 77.1525C34.9479 76.504 47.2067 75.4891 48.032 73.4848Z" stroke="black" stroke-width="2"/>
<path d="M43.7455 80.77L43.2178 84.6815" stroke="black" stroke-width="2" stroke-linecap="round"/>
<path d="M49.8119 79.9766L49.2842 83.8881" stroke="black" stroke-width="2" stroke-linecap="round"/>
<path d="M55.7484 79.1484L55.2207 83.0599" stroke="black" stroke-width="2" stroke-linecap="round"/>
<path d="M61.3217 78.2192L60.8076 81.8346" stroke="black" stroke-width="2" stroke-linecap="round"/>
<path d="M66.1225 77.4277L65.6934 80.9007" stroke="black" stroke-width="2" stroke-linecap="round"/>
<path fill-rule="evenodd" clip-rule="evenodd" d="M46.5642 65.9236C47.1803 67.6965 48.6605 71.956 48.031 73.4848C47.4862 74.8078 41.9599 75.6997 37.9945 76.3397C35.9524 76.6693 34.3243 76.9321 34.0037 77.1525C33.0605 77.801 35.1852 81.1571 36.1284 81.334C37.0717 81.5108 67.6082 76.5718 68.0209 76.0413C68.4335 75.5107 68.5518 75.0262 68.5518 74.6725C68.5518 74.3187 66.9807 72.7692 66.354 72.7692C66.1179 72.7692 65.5728 72.8042 64.8464 72.8509C62.3081 73.0139 57.5564 73.3192 56.0439 72.7692C54.0985 72.0618 52.5325 66.8826 51.8323 64.4318C51.4405 63.0608 45.9406 63.8422 46.4805 65.6821C46.5061 65.7563 46.5341 65.837 46.5642 65.9236ZM50.1595 68.7211C50.6432 68.7211 51.0353 68.329 51.0353 67.8454C51.0353 67.3618 50.6432 66.9697 50.1595 66.9697C49.6759 66.9697 49.2838 67.3618 49.2838 67.8454C49.2838 68.329 49.6759 68.7211 50.1595 68.7211Z" fill="black"/>
<path d="M35.3516 27.9243C35.8398 27.192 37.0266 25.9922 38.7424 26.2014" stroke="black" stroke-width="2" stroke-linecap="round"/>
</svg>
