<svg width="100" height="100" viewBox="0 0 100 100" fill="none" xmlns="http://www.w3.org/2000/svg">
<path d="M45.1782 47.0728C45.7284 53.4819 46.8452 67.7031 46.9112 73.3146" stroke="black" stroke-width="2" stroke-linecap="round"/>
<path d="M39.6672 33.0832C39.063 27.6449 40.4442 24.7101 42.7748 24.4511C48.5583 23.7605 48.0863 32.0494 48.4721 38.6076C48.6447 41.5425 49.9395 46.1175 44.8466 46.5491C39.7536 46.9807 40.2714 38.5215 39.6672 33.0832Z" fill="black" stroke="black" stroke-width="2" stroke-linecap="round"/>
<path d="M47.2709 81.1009C47.3048 78.4511 46.8632 72.1933 44.8249 68.3612C42.2769 63.571 38.9136 61.5327 36.9771 56.9463C35.0407 52.36 34.2254 48.8948 30.4544 45.3277C26.6834 41.7605 24.645 40.2961 24.645 41.5567C24.6451 43.4796 25.8755 49.8647 28.5179 54.2965C32.6226 61.181 30.2504 59.2905 35.2444 64.9979C40.2384 70.7053 43.2448 76.4127 44.0603 81.1009" stroke="black" stroke-width="2" stroke-linecap="round"/>
<path d="M43.5042 79.9878C42.5235 78.1969 39.9994 73.9497 36.7245 71.8006C32.6309 69.1142 30.5842 70.3934 28.2815 65.9161C25.9789 61.4387 22.333 61.1828 22.333 61.8225C22.3332 63.7654 24.4596 64.7485 25.3269 68.2718C25.8233 70.2886 27.1359 71.7431 28.2815 72.9877C31.6313 76.6269 32.0549 73.9753 35.1891 76.0221C38.3232 78.0689 40.3704 80.3076 40.5623 81.203" stroke="black" stroke-width="2" stroke-linecap="round"/>
<path d="M46.9571 75.3911C47.5125 70.0704 49.1596 57.9736 50.3523 55.3776C51.8433 52.1324 53.8606 49.2382 54.7376 48.098C55.6147 46.9578 55.9655 53.7988 54.7376 55.816C53.5097 57.8332 54.036 61.6046 52.9835 65.2882C51.931 68.9718 48.1392 77.1038 47.4376 80.4366" stroke="black" stroke-width="2" stroke-linecap="round"/>
<path d="M64.8342 25.4957C66.5339 20.2946 69.0054 18.1941 71.2344 18.9224C77.2296 20.8814 73.2854 28.2752 70.9236 34.4055C69.8667 37.1489 68.7943 41.6119 63.979 39.898C59.1637 38.184 63.1345 30.6967 64.8342 25.4957Z" fill="black" stroke="black" stroke-width="2" stroke-linecap="round"/>
<path d="M63.8514 40.4092C58.7408 58.1705 57.2065 81.1531 57.2065 81.1531" stroke="black" stroke-width="2" stroke-linecap="round"/>
<path d="M57.2086 80.8604C58.6823 78.3866 61.5994 73.362 61.5994 71.025C61.5993 68.1039 62.0492 62.2454 64.1808 58.7716C66.3125 55.2978 71.2074 54.5871 73.6548 53.166C76.1023 51.7449 77.0497 49.3765 77.3655 50.087C77.6813 50.7976 78.7077 55.1399 73.6548 58.7716C68.602 62.4033 68.5009 60.9955 66.2212 65.5549C65.125 67.7474 65.2206 72.3762 63.4591 76.6731C62.159 79.8444 61.6494 80.4829 61.1494 81.1934" stroke="black" stroke-width="2" stroke-linecap="round"/>
<path d="M64.0493 74.9998C65.9893 71.8911 68.0206 71.8856 69.5791 69.9635C71.5272 67.5608 73.0698 65.5368 74.3036 64.1732C75.5375 62.8095 75.4253 69.0725 73.2343 71.3048C70.2681 74.3269 67.1764 75.2313 65.6179 77.3742C64.3711 79.0885 64.3916 81.043 64.3916 81.4326" stroke="black" stroke-width="2" stroke-linecap="round"/>
<path d="M42.3521 20.4453L42.7309 24.0444" stroke="black" stroke-width="2" stroke-linecap="round"/>
<path d="M71.6079 19.7012L73.108 16.6675" stroke="black" stroke-width="2" stroke-linecap="round"/>
<path d="M28.5698 83.2781C32.6499 83.3883 36.4245 82.9888 37.2213 82.838C39.2614 82.4521 39.1185 81.8915 41.141 81.6239C44.8903 81.1277 47.3715 82.0651 50.7348 82.0651C54.0981 82.0651 58.107 81.238 60.2574 81.6239C62.4077 82.0098 64.8352 82.2415 67.5934 82.324C70.3515 82.4065 70.0232 83.3332 76.7594 83.3332" stroke="black" stroke-width="2" stroke-linecap="round"/>
<path d="M30.9956 58.8882C32.5523 61.6275 33.738 63.1749 35.9925 65.1938C38.8107 67.7175 40.4086 70.0562 41.4181 72.4538C42.4275 74.8513 44.2783 79.3098 44.3624 81.1185" stroke="black" stroke-width="2" stroke-linecap="round"/>
<path d="M28.1992 72.8936C28.9207 73.5198 29.8978 74.5147 31.7636 74.6755C34.0957 74.8766 34.6588 75.1272 36.79 76.5748C38.4949 77.7328 40.8968 80.1704 41.6071 81.2695" stroke="black" stroke-width="2" stroke-linecap="round"/>
<path d="M47.5269 76.6149C48.3433 74.4241 50.1804 69.5852 50.9968 67.7563C52.0174 65.4701 53.6193 62.55 54.0219 57.9604" stroke="black" stroke-width="2" stroke-linecap="round"/>
<path d="M64.9824 57.728C61.8565 61.8308 62.5017 65.6452 62.1935 69.4312C61.902 73.0125 60.1414 77.5924 59.5888 78.6055C59.1467 79.416 58.238 80.6011 57.8389 81.0923" stroke="black" stroke-width="2" stroke-linecap="round"/>
<path d="M62.564 81.113C63.422 79.2974 65.3815 74.4408 65.6203 72.8589" stroke="black" stroke-width="2" stroke-linecap="round"/>
</svg>
