<svg width="100" height="100" viewBox="0 0 100 100" fill="none" xmlns="http://www.w3.org/2000/svg">
<path d="M59.5246 76.8147C60.2843 77.3209 61.0289 78.5929 60.1947 79.3156C59.1519 80.2191 57.5168 81.0207 56.3716 80.5375C55.6096 80.216 55.8586 78.5189 56.0206 77.7536" stroke="black" stroke-width="2" stroke-linecap="round" stroke-linejoin="round"/>
<path d="M22.3037 56.3775C21.4855 55.9726 19.548 56.088 19.3392 57.1718C19.0782 58.5266 19.6651 60.2192 20.6562 60.9695C21.3156 61.4686 22.6608 60.4044 23.2426 59.8814" stroke="black" stroke-width="2" stroke-linecap="round" stroke-linejoin="round"/>
<path d="M76.5936 40.0614C77.0998 39.3016 78.3717 38.557 79.0945 39.3912C79.9979 40.434 80.7996 42.0691 80.3164 43.2144C79.9948 43.9764 78.2978 43.7274 77.5325 43.5653" stroke="black" stroke-width="2" stroke-linecap="round" stroke-linejoin="round"/>
<path d="M39.1677 24.0075C38.408 23.5013 37.4567 21.4583 38.291 20.7356C39.3338 19.8321 41.1877 19.0782 42.093 19.7168C42.7688 20.1935 43.0324 21.8525 42.8703 22.6179" stroke="black" stroke-width="2" stroke-linecap="round" stroke-linejoin="round"/>
<path d="M42.9272 20.3519C52.6268 14.7476 58.9902 14.1008 62.6189 18.3548C70.9446 28.1153 74.8104 25.2487 77.6086 38.8689" stroke="black" stroke-width="2" stroke-linecap="round" stroke-linejoin="round"/>
<path d="M79.3797 43.9429C82.5538 52.2648 85.4108 63.9632 80.6512 68.854C77.6512 71.9368 65.8795 76.4221 60.9465 78.1485" stroke="black" stroke-width="2" stroke-linecap="round" stroke-linejoin="round"/>
<path d="M55.6682 79.7771C40.3304 80.8178 35.2019 83.0766 29.2232 78.9886C22.8006 74.5972 25.3376 68.7544 21.8154 60.9815" stroke="black" stroke-width="2" stroke-linecap="round" stroke-linejoin="round"/>
<path d="M72.4759 52.1375C72.9113 56.348 69.2898 65.0293 64.4678 68.0291" stroke="black" stroke-width="2" stroke-linecap="round" stroke-linejoin="round"/>
<path d="M19.8889 55.97C17.1909 50.2123 11.0354 45.3804 17.2932 37.4926C23.3715 29.831 28.1441 24.4654 37.9044 22.5134" stroke="black" stroke-width="2" stroke-linecap="round" stroke-linejoin="round"/>
<path d="M32.8771 46.7892C32.8771 43.9229 35.8126 38.8808 37.6083 37.3959" stroke="black" stroke-width="2" stroke-linecap="round" stroke-linejoin="round"/>
<path d="M63.8612 48.4034C63.8612 56.2141 57.6906 63.1997 49.8799 63.1997C42.0691 63.1997 35.585 57.9695 35.585 50.1588C35.585 42.348 41.3167 35.4251 49.1275 35.4251C56.9382 35.4251 63.8612 40.5926 63.8612 48.4034Z" stroke="black" stroke-width="2" stroke-linecap="round" stroke-linejoin="round"/>
<path d="M76.4361 49.9846C76.4361 54.9743 74.7697 59.9895 72.4775 64.0151C67.8392 72.1609 59.5431 77.3008 49.638 77.3008C42.4342 77.3008 37.6735 76.0742 32.8579 71.3603C27.7798 66.3895 22.8398 57.7278 22.8398 49.9846C22.8398 46.3583 23.5862 42.2519 24.8449 39.0859C28.8227 29.0803 38.3952 22.6684 49.638 22.6684C55.0338 22.6684 59.4802 23.3792 63.6855 26.1761C71.0149 31.0508 76.4361 40.3984 76.4361 49.9846Z" stroke="black" stroke-width="2" stroke-linecap="round" stroke-linejoin="round"/>
<path d="M63.0645 74.1666L56.6317 61.6142C54.8426 63.2007 51.3466 63.7335 49.8589 63.429L51.8081 77.7362C53.5992 77.8098 60.1945 76.2641 63.0645 74.1666Z" fill="black" stroke="black" stroke-width="2" stroke-linecap="round" stroke-linejoin="round"/>
<path d="M25.6157 63.4986L37.4204 57.3001C35.8338 55.5111 35.3011 52.0151 35.6056 50.5273L22.0462 52.2421C21.9725 54.0332 23.5182 60.6286 25.6157 63.4986Z" fill="black" stroke="black" stroke-width="2" stroke-linecap="round" stroke-linejoin="round"/>
<path d="M74.3105 36.7489L62.625 42.4239C63.841 43.6217 64.3963 47.6565 63.841 49.5443L77.8801 48.0053C77.9537 46.2142 76.408 39.6188 74.3105 36.7489Z" fill="black" stroke="black" stroke-width="2" stroke-linecap="round" stroke-linejoin="round"/>
<path d="M35.658 25.4606L41.7613 37.2532C43.6111 35.738 47.4564 34.8182 48.9311 35.1807L46.9605 22.3536C45.1737 22.2099 38.6079 23.477 35.658 25.4606Z" fill="black" stroke="black" stroke-width="2" stroke-linecap="round" stroke-linejoin="round"/>
</svg>
