<svg width="100" height="100" viewBox="0 0 100 100" fill="none" xmlns="http://www.w3.org/2000/svg">
<path d="M14.7838 62.8114C14.2622 61.6814 15.8604 60.3083 17.2005 59.8375C18.7165 59.1829 30.909 78.2392 31.3272 79.4941C31.6725 80.5301 29.1663 81.9568 27.9811 81.9568C27.1051 81.9568 15.4359 64.224 14.7838 62.8114Z" fill="black" stroke="black" stroke-width="2"/>
<path d="M18.957 60.8046C21.6313 58.9839 27.5238 55.8441 31.7569 56.0261C37.0482 56.2536 42.268 63.4865 39.8783 69.1193C37.9666 73.6256 32.644 76.4138 30.3491 77.6276" stroke="black" stroke-width="2"/>
<path d="M31.8579 60.8768C28.652 60.033 27.3727 60.9404 26.0721 62.0302C25.4609 62.2514 31.5942 71.132 31.8579 71.2375C32.1215 71.3429 32.3833 71.6694 34.2816 69.6658C36.1798 67.6621 35.8652 61.9315 31.8579 60.8768Z" stroke="black" stroke-width="2"/>
<path d="M26.6045 62.5738C28.6265 60.9707 31.1606 61.264 32.7136 62.0146C34.6548 62.9529 36.8672 66.9902 33.5354 70.4109" stroke="black" stroke-width="2"/>
<path d="M31.0244 78.1066C33.3956 76.9975 39.2495 73.7724 40.6624 68.6981C42.1617 63.3137 38.0932 59.1085 35.722 57.4639" stroke="black" stroke-width="2"/>
<path d="M67.382 20.5474C66.5105 19.6588 64.6598 20.6659 63.7442 21.7518C62.5943 22.9369 76.0853 41.0971 77.1102 41.9334C77.9562 42.6237 80.1793 40.7867 80.5998 39.6786C80.9106 38.8596 68.4713 21.6582 67.382 20.5474Z" fill="black" stroke="black" stroke-width="2"/>
<path d="M64.0245 23.7368C61.3735 25.5912 56.3473 29.9864 55.0157 34.0087C53.3511 39.0366 58.2616 46.4829 64.3759 46.2471C69.2673 46.0585 73.7624 42.0713 75.7115 40.3564" stroke="black" stroke-width="2"/>
<path d="M59.5154 35.8241C59.8639 32.5274 61.1661 31.6532 62.6464 30.8239C63.0701 30.331 69.1971 39.2159 69.2021 39.4998C69.2072 39.7837 69.4195 40.1444 66.8728 41.2083C64.326 42.2721 59.0798 39.9449 59.5154 35.8241Z" stroke="black" stroke-width="2"/>
<path d="M62.9663 31.5139C60.75 32.8356 60.1252 35.3089 60.2761 37.0272C60.4646 39.1751 63.4543 42.6759 67.8346 40.7744" stroke="black" stroke-width="2"/>
<path d="M75.9201 41.1579C74.0418 42.9814 68.9497 47.3102 63.7041 46.831C58.1381 46.3225 55.6498 41.0267 54.9535 38.2262" stroke="black" stroke-width="2"/>
<path d="M55.3319 38.5708C53.0453 38.8512 47.8637 40.111 45.4304 42.9067C42.3887 46.4014 43.3791 50.5405 41.2885 53.326C39.3495 55.9096 38.1142 56.3954 34.7734 57.0759" stroke="black" stroke-width="2"/>
<path d="M40.8408 65.713C44.4001 64.6602 50.5318 60.6239 52.3423 57.003C54.6054 52.4769 53.1088 51.5706 55.5909 49.0885C57.5766 47.1029 60.3144 46.0574 61.8231 45.9844" stroke="black" stroke-width="2"/>
<path d="M38.874 60.5365C40.3341 60.6583 43.9112 59.5438 46.5393 54.1124C49.8244 47.3231 47.9263 46.666 51.6495 44.622C54.628 42.9867 56.346 42.6752 56.8327 42.7239" stroke="black" stroke-width="2"/>
</svg>
