<svg width="100" height="100" viewBox="0 0 100 100" fill="none" xmlns="http://www.w3.org/2000/svg">
<path d="M34.8166 21.9048C34.7042 22.6407 34.7681 32.1791 34.7681 33.2423C34.7681 34.5714 36.9316 37.377 36.7256 40.4041C36.5195 43.4312 34.7681 45.0555 34.7681 46.5322C34.7681 48.0088 34.7681 73.7024 34.7681 75.9173C34.7681 78.1323 37.1967 82.0935 42.327 83.5231C45.0161 84.2724 53.4065 84.2658 55.28 83.8369C58.403 83.1218 63.0095 81.2558 63.5572 77.2581C63.9569 74.3413 64.3101 68.6363 64.3101 64.1326C64.3101 59.6288 64.3101 57.4415 64.3101 55.891C64.3101 54.3406 61.9602 53.5177 62.7116 47.2354C63.0207 44.6512 64.9699 42.7194 65.176 41.3166C65.3408 40.1943 65.176 32.6237 65.176 28.8582" stroke="black" stroke-width="2"/>
<path d="M46.961 20.5193C41.1383 19.56 32.5129 19.4592 35.3975 23.3575C39.0033 28.2304 55.5992 31.0274 58.7729 31.0274C64.5184 31.0274 67.3658 29.3862 63.2448 26.1376C59.9481 23.5387 54.858 22.2414 52.9006 21.6507" stroke="black" stroke-width="2"/>
<path d="M50.072 16.1215C49.6115 16.4044 46.9841 21.1424 45.7504 23.4215C44.7197 25.2993 48.2592 26.1624 50.3939 25.4293C51.5162 25.0438 55.3719 17.8847 55.7069 16.6501C55.9742 15.6648 50.6476 15.768 50.072 16.1215Z" stroke="black" stroke-width="2"/>
<path d="M48.8828 16.7739C49.6532 17.5295 54.5359 17.3086 55.2496 16.7739" stroke="black" stroke-width="2"/>
<path d="M34.8174 28.8887C36.1162 30.8716 42.5704 32.7335 49.499 34.028C60.3326 36.052 63.8698 34.7404 64.8402 34.3232" stroke="black" stroke-width="2"/>
<path d="M42.4373 32.8687C42.4373 37.5783 45.1468 40.3203 42.4373 44.9103C40.6835 47.8813 41.8925 51.1158 41.8925 61.7708C41.8925 70.9143 40.1374 76.9687 44.602 77.0829C49.0665 77.1972 52.9522 77.6423 55.8379 77.0829C58.3158 76.6026 57.3841 65.5417 57.3841 61.7708C57.3841 57.9999 57.3841 57.9469 57.3841 56.8042C57.3841 54.8834 55.8379 54.7572 55.8379 49.195C55.8379 46.5446 58.3158 43.7162 58.3158 42.5735C58.3158 41.6593 58.3158 37.4695 58.3158 35.4888" stroke="black" stroke-width="2"/>
<path fill-rule="evenodd" clip-rule="evenodd" d="M42.8389 32.8799L58.2859 35.4675V42.4137L56.164 47.5893V52.8329L57.6917 58.0766V73.1947L56.6732 76.6678L52.0051 77.553L43.348 76.6678L41.7354 74.5567V63.797V47.5893L43.348 43.0266V37.3063L42.8389 32.8799ZM47.5208 67.5666C47.1448 67.104 46.3726 66.9736 45.7961 67.2753C45.2195 67.577 45.057 68.1966 45.433 68.6592C45.8426 69.1631 46.488 69.922 47.0958 70.5622C47.3969 70.8793 47.709 71.1889 47.9904 71.4272C48.1284 71.5441 48.2878 71.6686 48.4559 71.7713C48.54 71.8227 48.6528 71.8851 48.7877 71.9381C48.9099 71.986 49.1392 72.0621 49.4336 72.0621C49.7243 72.0621 49.951 71.9877 50.0676 71.9434C50.1991 71.8933 50.3107 71.8343 50.3952 71.7851C50.5643 71.6867 50.7286 71.5663 50.874 71.451C51.1702 71.2162 51.5044 70.9096 51.8303 70.5934C52.4876 69.9556 53.1928 69.1986 53.6423 68.6958C54.0436 68.2471 53.9154 67.6223 53.3561 67.3004C52.7968 66.9784 52.0182 67.0813 51.6169 67.53C51.1875 68.0103 50.5184 68.7279 49.9093 69.3189C49.7488 69.4746 49.598 69.6162 49.4609 69.7394C49.3431 69.6243 49.2147 69.4935 49.0786 69.3502C48.5197 68.7615 47.9104 68.0458 47.5208 67.5666ZM45.7961 60.5493C46.3726 60.2475 47.1448 60.3779 47.5208 60.8405C47.9104 61.3197 48.5197 62.0355 49.0786 62.6241C49.2147 62.7674 49.3431 62.8982 49.4609 63.0133C49.598 62.8901 49.7488 62.7485 49.9093 62.5928C50.5184 62.0019 51.1875 61.2842 51.6169 60.8039C52.0182 60.3552 52.7968 60.2524 53.3561 60.5743C53.9154 60.8962 54.0436 61.521 53.6423 61.9697C53.1928 62.4725 52.4876 63.2295 51.8303 63.8673C51.5044 64.1836 51.1702 64.4901 50.874 64.7249C50.7286 64.8402 50.5643 64.9606 50.3952 65.0591C50.3107 65.1083 50.1991 65.1672 50.0676 65.2173C49.951 65.2617 49.7243 65.336 49.4336 65.3361C49.1392 65.3361 48.9099 65.2599 48.7877 65.212C48.6528 65.159 48.54 65.0967 48.4559 65.0453C48.2878 64.9426 48.1284 64.8181 47.9904 64.7012C47.709 64.4628 47.3969 64.1532 47.0958 63.8361C46.488 63.1959 45.8426 62.437 45.433 61.9331C45.057 61.4706 45.2195 60.851 45.7961 60.5493ZM47.5208 53.5363C47.1448 53.0737 46.3726 52.9433 45.7961 53.2451C45.2195 53.5468 45.057 54.1664 45.433 54.629C45.8426 55.1328 46.488 55.8917 47.0958 56.5319C47.3969 56.849 47.709 57.1586 47.9904 57.397C48.1284 57.5139 48.2878 57.6384 48.4559 57.7411C48.54 57.7925 48.6528 57.8548 48.7877 57.9078C48.9099 57.9557 49.1392 58.0319 49.4336 58.0319C49.7243 58.0318 49.951 57.9575 50.0676 57.9131C50.1991 57.863 50.3107 57.8041 50.3952 57.7549C50.5643 57.6564 50.7286 57.536 50.874 57.4207C51.1702 57.1859 51.5044 56.8794 51.8303 56.5631C52.4876 55.9253 53.1928 55.1683 53.6423 54.6655C54.0436 54.2168 53.9154 53.592 53.3561 53.2701C52.7968 52.9482 52.0182 53.051 51.6169 53.4997C51.1875 53.98 50.5184 54.6977 49.9093 55.2886C49.7488 55.4443 49.598 55.5859 49.4609 55.7091C49.3431 55.594 49.2147 55.4632 49.0786 55.3199C48.5197 54.7313 47.9104 54.0155 47.5208 53.5363Z" fill="black"/>
</svg>
