<svg width="100" height="100" viewBox="0 0 100 100" fill="none" xmlns="http://www.w3.org/2000/svg">
<path d="M35.0449 21.6436C35.0449 22.4557 35.0449 32.4529 35.0449 33.5162C35.0449 34.8452 37.1679 37.6508 36.9657 40.6779C36.7636 43.705 35.0449 45.3293 35.0449 46.806C35.0449 48.2826 35.0449 73.9762 35.0449 76.1912C35.0449 78.4061 38.0098 82.0212 43.1544 83.0271C47.6247 83.9012 50.2079 83.7101 52.6532 83.7101C55.8508 83.7101 62.7123 82.1509 63.2497 78.1532C63.6419 75.2365 64.034 68.9101 64.034 64.4064C64.034 59.9026 64.034 57.7153 64.034 56.1649C64.034 54.6144 61.7281 53.7915 62.4654 47.5092C62.7687 44.9251 64.6815 42.9932 64.8837 41.5904C65.0454 40.4681 64.8837 32.8975 64.8837 29.132" stroke="black" stroke-width="2"/>
<path d="M46.8581 20.4895C41.1444 19.5302 32.8326 19.733 35.6632 23.6313C39.2015 28.5042 55.4868 31.3012 58.6011 31.3012C64.239 31.3012 67.0331 29.66 62.9893 26.4114C59.7543 23.8125 54.7595 22.5152 52.8387 21.9245" stroke="black" stroke-width="2"/>
<path d="M49.8209 16.625C49.369 16.9079 46.9086 21.2849 45.6981 23.564C44.6866 25.4418 48.2837 26.4363 50.3784 25.7032C51.4798 25.3177 55.2632 18.1586 55.5919 16.924C55.8543 15.9387 50.3858 16.2715 49.8209 16.625Z" stroke="black" stroke-width="2"/>
<path d="M48.8955 17.0479C49.6515 17.8034 54.4428 17.5826 55.1432 17.0479" stroke="black" stroke-width="2"/>
<path d="M35.0938 29.1626C36.3683 31.1455 42.7016 33.0075 49.5006 34.3019C60.1314 36.3259 63.6024 35.0143 64.5547 34.5971" stroke="black" stroke-width="2"/>
<path d="M49.1152 51.6981C60.7732 52.4782 64.1784 57.6139 61.8629 59.2547C59.5475 60.8955 36.3931 57.1092 36.2387 53.7012C36.1347 51.405 37.0702 51.0024 44.3324 51.3985" stroke="black" stroke-width="2"/>
<path d="M44.6864 33.5103C44.4035 39.9628 44.0075 53.0219 44.6864 53.6382C45.535 54.4085 48.3995 55.5644 48.8239 53.6382C49.1634 52.0972 49.2235 40.4075 49.5322 34.4679" stroke="black" stroke-width="2"/>
<path d="M35.3926 75.6138V53.9224L38.9089 55.8764L45.7977 57.7003L56.131 59.3939L60.8671 59.7847L62.8045 58.3517L64.0962 57.7003V66.885L62.8045 79.978L59.0731 82.1928L54.337 83.6258H47.3764L40.2723 82.1928L36.3973 79.0661L35.3926 75.6138Z" fill="black"/>
</svg>
