<svg width="100" height="100" viewBox="0 0 100 100" fill="none" xmlns="http://www.w3.org/2000/svg">
<path d="M49.2494 40.208H70.902C71.866 40.208 72.6929 40.8957 72.8685 41.8436L79.3734 76.9481C79.6012 78.1777 78.6574 79.3125 77.4069 79.3125H22.149C20.9211 79.3125 19.9831 78.2163 20.1731 77.0032L25.6687 41.8987C25.8211 40.9254 26.6595 40.208 27.6446 40.208H30.8704" stroke="black" stroke-width="2"/>
<path d="M47.0639 78.4246C49.0511 68.1625 61.8281 74.822 66.9384 66.5498C74.0934 54.9682 62.6307 53.288 53.7533 53.288L45.1191 53.2881" stroke="black" stroke-width="2" stroke-dasharray="7 5"/>
<path d="M31.2593 85.261C22.7579 84.8835 22.3162 82.0236 20.1029 79.8763C18.3784 77.4306 62.4212 78.5202 80.1878 78.5203C79.5459 80.0761 79.1645 81.3123 77.5649 83.316C74.2466 87.4727 41.8861 85.7328 31.2593 85.261Z" fill="black"/>
<ellipse cx="40.499" cy="52.5" rx="7.5" ry="2.5" fill="black"/>
<path d="M25.9219 26.1589C25.9219 35.6206 35.3735 48.1324 40.0246 52.1904C44.5977 50.0445 53.6831 35.1627 53.6831 26.1585C53.6831 18.3263 45.4667 13.9741 40.0246 13.9746C34.9994 14.0941 25.9219 16.6973 25.9219 26.1589Z" stroke="black" stroke-width="2"/>
<circle cx="40" cy="26" r="5" stroke="black" stroke-width="2"/>
</svg>
