<svg width="100" height="100" viewBox="0 0 100 100" fill="none" xmlns="http://www.w3.org/2000/svg">
<path d="M33.4097 79.6373C33.4097 79.6373 34.8796 73.9203 35.9896 73.8323C37.1096 73.7443 54.9397 73.4613 55.7897 73.4783C56.6297 73.4943 59.2996 78.0863 59.3796 78.9273C59.4496 79.7673 33.4097 79.6373 33.4097 79.6373Z" stroke="black" stroke-width="2" stroke-miterlimit="10" stroke-linecap="round" stroke-linejoin="round"/>
<path d="M38.7495 73.6761C38.7495 73.6761 37.3096 59.1681 46.3196 59.0101C55.3196 58.8511 53.9296 73.2211 53.9296 73.2211" stroke="black" stroke-width="2" stroke-miterlimit="10" stroke-linecap="round" stroke-linejoin="round"/>
<path d="M45.4395 65.7253C44.8695 63.1433 47.8694 62.8353 48.2194 65.1833C48.4794 66.8603 45.7595 67.2233 45.4395 65.7253Z" stroke="black" stroke-width="2" stroke-miterlimit="10" stroke-linecap="round" stroke-linejoin="round"/>
<path d="M24.1295 45.7707C22.7395 39.1737 32.9695 38.4087 34.0995 43.3467C35.4895 49.4257 25.5795 52.6607 24.1295 45.7707Z" stroke="black" stroke-width="2" stroke-miterlimit="10" stroke-linecap="round" stroke-linejoin="round"/>
<path d="M62.7396 37.6702C62.0296 32.7792 69.5497 32.3232 70.3097 36.2052C71.1397 40.4612 63.5796 43.3772 62.7396 37.6702Z" stroke="black" stroke-width="2" stroke-miterlimit="10" stroke-linecap="round" stroke-linejoin="round"/>
<path d="M63.1894 39.7023C63.1894 39.7023 60.3193 38.9713 60.3793 42.6253C60.3993 44.0543 62.3193 45.2293 66.8393 45.2013C70.5993 45.1783 72.5494 43.9173 72.5294 42.2803C72.4894 38.8773 69.2093 39.7643 69.2093 39.7643" stroke="black" stroke-width="2" stroke-miterlimit="10" stroke-linecap="round" stroke-linejoin="round"/>
<path d="M61.3794 44.5416C61.3794 44.5416 61.7394 50.7566 63.6594 51.9706C65.5794 53.1836 69.3194 53.2436 70.0394 51.2616C70.7494 49.2796 71.2294 44.3486 71.2294 44.3486" stroke="black" stroke-width="2" stroke-miterlimit="10" stroke-linecap="round" stroke-linejoin="round"/>
<path d="M61.6796 49.0381C61.6796 49.0381 56.9995 53.0451 56.5795 53.5971C56.1695 54.1501 57.4696 59.5401 57.6396 60.3441C57.8096 61.1471 60.3496 59.4201 60.5196 58.8161C60.6896 58.2121 60.0596 54.4981 60.0596 54.4981L63.5896 52.3381" stroke="black" stroke-width="2" stroke-miterlimit="10" stroke-linecap="round" stroke-linejoin="round"/>
<path d="M70.8096 48.1836C70.8096 48.1836 76.4496 52.8206 76.8196 53.2826C77.1896 53.7446 76.7395 58.3396 75.6095 60.2776C74.7995 61.6556 72.9396 58.3526 72.9396 58.3526L73.2195 54.5746L69.7695 51.7176" stroke="black" stroke-width="2" stroke-miterlimit="10" stroke-linecap="round" stroke-linejoin="round"/>
<path d="M27.6997 49.692L39.6797 63.421C39.6797 63.421 40.9096 61.363 42.3596 60.23C43.7996 59.098 46.6296 58.789 46.6296 58.789L34.4796 44.584" stroke="black" stroke-width="2" stroke-miterlimit="10" stroke-linecap="round" stroke-linejoin="round"/>
<path d="M27.6094 40.048C27.6094 40.048 41.2394 25.614 46.1494 20.7224C49.1894 17.7008 53.1495 19.0606 53.0695 21.6843C52.9995 24.3079 50.9595 27.666 48.3195 30.319C45.6695 32.971 34.3894 44.819 34.3894 44.819" stroke="black" stroke-width="2" stroke-miterlimit="10" stroke-linecap="round" stroke-linejoin="round"/>
<path d="M50.8394 28.1236L62.3195 37.1556C62.3195 37.1556 62.8695 35.2826 63.6995 34.5006C64.5395 33.7186 67.1794 33.2306 67.1794 33.2306L53.2494 21.3613" stroke="black" stroke-width="2" stroke-miterlimit="10" stroke-linecap="round" stroke-linejoin="round"/>
<path d="M59.0598 77.5371C59.0598 77.5371 67.1898 79.2481 65.0398 80.4251C62.7498 81.6791 33.5098 79.6011 33.5098 79.6011C33.5098 79.6011 51.6797 80.0521 56.4797 79.6961C62.2697 79.2681 59.0598 77.5371 59.0598 77.5371Z" fill="black" stroke="black" stroke-width="2" stroke-miterlimit="10" stroke-linecap="round" stroke-linejoin="round"/>
</svg>
