<svg width="100" height="100" viewBox="0 0 100 100" fill="none" xmlns="http://www.w3.org/2000/svg">
<path d="M26.5525 27.6849C26.6213 25.7538 26.8832 21.6846 27.3799 20.8568C28.0007 19.8222 40.105 18.4773 43.8294 18.3738C47.5539 18.2704 49.9645 19.9973 50.3783 21.9629C50.7094 23.5354 50.5162 26.409 50.3783 27.685" stroke="black" stroke-width="2"/>
<path d="M42.7705 18.4163C45.0908 18.1559 52.0314 17.417 53.5605 18.6979C54.8034 19.739 54.1976 28.3912 54.1976 31.5165" stroke="black" stroke-width="2"/>
<path d="M43.6371 30.5113C45.354 29.4186 50.7685 30.2259 53.702 30.5111C54.622 30.5948 54.368 34.5937 54.0013 35.4493C53.6346 36.3049 48.8796 35.6628 45.2739 35.785C41.6682 35.9072 42.2927 31.367 43.6371 30.5113Z" stroke="black" stroke-width="2"/>
<path d="M51.4801 30.0283C51.4382 29.6923 51.8639 28.8137 50.4525 27.6041C48.6884 26.092 43.0181 23.5089 37.9148 24.1389C32.8115 24.7689 24.1169 28.3602 23.6129 29.2422C23.1089 30.1243 23.613 32.6444 23.235 33.1484C22.857 33.6525 21.219 36.6766 21.912 39.1968C22.605 41.7169 20.9042 43.9851 21.4081 44.5521C21.912 45.1191 27.3933 53.4356 32.0556 53.5616C36.7178 53.6876 39.175 49.7814 39.805 46.7572C40.435 43.733 40.7289 41.1312 43.5641 39.9341C46.3993 38.737 49.041 39.5457 49.9228 38.8527C50.6283 38.2982 50.7465 36.8415 50.4525 36.1275" stroke="black" stroke-width="2"/>
<path d="M45.4012 46.033C45.9699 45.7487 51.1343 41.6503 53.6455 39.6367C54.8333 38.687 56.6303 42.6216 56.0617 43.4034C55.4932 44.1852 47.7464 51.1502 46.8225 51.6477C45.8985 52.1452 43.9797 50.013 43.269 49.2312C42.5583 48.4495 44.6904 46.3884 45.4012 46.033Z" stroke="black" stroke-width="2"/>
<path d="M48.6699 44.1851L51.655 47.4545" stroke="black" stroke-width="2"/>
<path d="M55.7059 44.5403C57.2695 45.8906 61.1927 48.8898 64.3766 50.0838C68.3565 51.5763 75.819 53.7795 77.3115 54.277C78.804 54.7745 82.4287 56.4802 82.1444 58.8966C81.8601 61.3131 81.1494 63.5873 78.804 63.8716C76.4587 64.1559 66.4376 64.5113 61.4626 64.4402C56.4876 64.3691 51.1572 63.8006 48.0301 63.4452C44.9029 63.0898 40.4254 61.8816 39.5015 62.0948C38.5776 62.3081 38.0801 63.4452 36.943 63.4452C35.8058 63.4452 23.0129 64.0848 22.5864 63.4452C22.16 62.8056 19.3171 58.6123 19.3171 53.8506C19.3171 50.0411 21.1177 46.8619 22.018 45.7484" stroke="black" stroke-width="2"/>
<path d="M59.878 47.6162C59.3085 44.936 56.6489 47.5955 55.9579 49.0235" stroke="black" stroke-width="2" stroke-linecap="round"/>
<path d="M64.4268 49.6313C63.8573 46.9511 61.1977 49.6106 60.5068 51.0386" stroke="black" stroke-width="2" stroke-linecap="round"/>
<path d="M69.3214 51.5923C68.7518 48.912 66.0923 51.5716 65.4013 52.9996" stroke="black" stroke-width="2" stroke-linecap="round"/>
<path d="M65.4062 60.3007C63.9227 60.4178 62.6408 62.5941 62.0391 63.9117C63.0475 63.7653 64.9867 63.9507 65.8455 63.9117C66.919 63.8629 80.0939 63.4237 79.9963 62.7405C79.8987 62.0574 67.2606 60.1544 65.4062 60.3007Z" fill="black" stroke="black" stroke-width="2" stroke-linecap="round"/>
<path d="M30.186 45.3287C32.228 43.2866 34.7992 45.5093 34.6572 47.2141C34.2786 51.7584 27.0208 49.3638 30.186 45.3287Z" stroke="black" stroke-width="2" stroke-linecap="round"/>
<path d="M23.3752 52.759C23.9014 53.3905 25.4274 54.8954 27.3218 55.8637" stroke="black" stroke-width="2" stroke-linecap="round"/>
<path d="M47.7559 55.707C50.0383 54.4517 51.9617 52.315 52.8608 52.3149C53.9846 52.3149 59.0936 55.1046 62.4771 56.2918" stroke="black" stroke-width="2" stroke-linecap="round"/>
<path d="M25.8722 64.0417C25.6206 64.2931 23.5579 66.5571 24.3629 66.8588C25.1678 67.1605 25.8482 67.6286 24.8421 69.2384C24.0372 70.5262 22.6662 72.1833 21.7318 74.0523C21.0346 75.4468 23.5266 77.3485 25.0364 76.917C27.8535 76.1121 31.0907 72.4367 32.942 72.2191C34.6616 72.0169 35.1128 71.3443 38.2879 75.5238C40.2378 78.0906 42.4642 77.8584 44.4438 75.0055C47.7486 70.2427 51.5691 72.6381 53.0387 73.7934C55.0383 75.3654 57.2119 78.712 59.4374 77.6726C62.8084 76.0981 63.648 71.9019 66.9681 72.7571C69.5952 73.4337 75.4473 78.9015 77.1936 76.8328C78.94 74.7641 76.2872 70.963 75.5756 69.7558C74.8957 68.6023 73.817 67.7295 73.5615 66.4679C73.4643 65.9881 73.595 64.4273 73.5615 64.0417C70.7612 64.0417 64.9995 64.0417 64.3556 64.0417C63.5507 64.0417 62.2428 65.9031 62.3434 66.8588C62.444 67.8145 57.665 69.877 57.2123 70.0279C56.7595 70.1788 50.7229 67.9153 46.0948 66.8588C41.4667 65.8023 39.7061 65.8023 39.0521 65.8023C38.5289 65.8023 38.0963 64.3602 37.9454 63.6392" stroke="black" stroke-width="2" stroke-linecap="round"/>
<path d="M24.6255 67.2749C21.835 67.2748 17.0591 69.4134 17.323 74.637C17.6529 81.1664 22.7482 82.387 26.8368 80.799C31.1598 79.12 30.97 73.8771 30.7062 73.5473" stroke="black" stroke-width="2" stroke-linecap="round"/>
<path d="M35.6307 72.8044C34.936 74.1402 34.2307 77.4743 36.9666 80.1247C40.3865 83.4378 45.5298 80.9537 46.9054 78.7355C48.4921 76.1771 47.9207 75.1022 47.3864 72.8044" stroke="black" stroke-width="2" stroke-linecap="round"/>
<path d="M52.533 73.6335C52.1483 75.4452 52.3602 79.4726 56.2851 81.0889C61.1911 83.1092 64.6824 79.1652 65.1834 76.9524C65.7606 74.403 64.9482 74.0264 64.7558 73.353" stroke="black" stroke-width="2" stroke-linecap="round"/>
<path d="M69.1499 73.9314C68.3684 75.4488 69.3334 78.8433 71.1732 80.231C73.7947 82.2082 80.669 82.9138 82.2095 77.288C83.7499 71.6622 80.3379 69.5129 79.353 68.9301C77.7026 67.9534 76.4546 67.7678 74.8107 68.4177" stroke="black" stroke-width="2" stroke-linecap="round"/>
<path d="M53.1484 35.9951C53.1484 36.9762 53.1484 39.0946 53.1484 39.7199" stroke="black" stroke-width="2" stroke-linecap="round"/>
<path d="M43.1826 48.1719L48.652 43.6968L51.9462 47.2396L47.6577 50.8445L45.7931 51.7146L43.1826 48.1719Z" fill="black" stroke="black"/>
<path fill-rule="evenodd" clip-rule="evenodd" d="M52.3039 30.3633C49.2905 30.0334 45.1076 29.5754 43.6371 30.5113C42.2927 31.367 41.6682 35.9072 45.2739 35.785C46.5382 35.7422 47.9438 35.7933 49.252 35.8409C51.6747 35.929 53.7632 36.0049 54.0013 35.4493C54.368 34.5938 54.622 30.5949 53.702 30.5111C53.281 30.4702 52.8089 30.4185 52.3039 30.3633ZM45.8739 34.4043C46.5786 34.4043 47.1499 33.833 47.1499 33.1283C47.1499 32.4236 46.5786 31.8523 45.8739 31.8523C45.1692 31.8523 44.5979 32.4236 44.5979 33.1283C44.5979 33.833 45.1692 34.4043 45.8739 34.4043Z" fill="black"/>
<path d="M54.2471 69.3591C54.9573 68.3854 57.8447 67.1639 60.8562 68.3934" stroke="black" stroke-width="2"/>
<path d="M19.9602 68.8939L24.4792 67.1992L25.3608 68.8939L23.4058 71.2791C22.935 71.9946 22.2504 74.3846 22.2052 74.6558C22.1601 74.9269 23.2552 75.8609 23.4058 76.294L27.4165 75.3337L30.5799 73.6955L31.1448 74.6558L30.5799 77.8192L28.5463 80.7001C27.1906 80.8696 24.3549 81.2198 23.8577 81.265C23.3605 81.3102 21.0522 80.9073 19.9602 80.7001L17.8698 77.4238L17.4746 72.1703L19.9602 68.8939Z" fill="black"/>
<path d="M35.0596 75.5747L36.0764 72.6255L37.5222 73.9934L39.6489 76.6254C40.4625 76.6254 42.4406 77.1901 43.0508 76.1394C43.642 75.1215 44.5515 74.2865 45.3312 73.6424L46.9584 72.6255L47.6195 73.6424C47.8059 74.7781 48.1788 77.1308 48.1788 77.4562C48.1788 77.7816 46.6194 79.6258 45.8397 80.5072L42.0768 82.0327L38.4156 81.1174L36.0764 79.0834L35.0596 75.5747Z" fill="black"/>
<path d="M52.8623 76.3926V73.6705L54.2235 74.3931L57.2377 77.4325H60.597L63.1164 74.3931L64.432 72.4065L65.307 75.3232C65.064 76.4575 64.5487 78.7844 64.432 79.0177C64.3153 79.251 62.3093 80.6705 61.3208 81.3511H57.7236L54.2235 79.8927L52.8623 76.3926Z" fill="black"/>
<path d="M69.1504 77.3599V74.2624L72.0758 75.4096L75.9536 77.3599L77.7133 75.4096L75.9536 71.3939L74.5997 68.1819H77.4104L80.7374 69.9602L81.9994 72.14C82.2288 73.1151 82.6877 75.1343 82.6877 75.4096C82.6877 75.7538 81.7126 78.966 81.7126 79.3102C81.7126 79.5856 79.9917 80.4957 79.1313 80.9164L75.3454 81.3752L71.6169 80.9164L69.1504 77.3599Z" fill="black"/>
<path d="M63.451 62.8627C58.43 63.4985 49.0795 62.6035 45.6918 61.9643C41.4571 61.1653 39.8785 60.6255 38.7599 61.5843C37.6413 62.5431 35.0845 62.9426 32.9272 62.8627C31.2013 62.7988 25.7628 62.836 23.2592 62.8627C21.5014 60.6255 17.6583 53.4101 21.5631 46.3433" stroke="black" stroke-width="2"/>
<path d="M76.7751 54.1089C80.6546 55.6155 81.6338 57.5364 81.3445 59.9163C81.0223 62.5662 80.0519 63.299 79.7499 63.4069" stroke="black" stroke-width="2"/>
</svg>
