<svg width="100" height="100" viewBox="0 0 100 100" fill="none" xmlns="http://www.w3.org/2000/svg">
<path d="M56.1232 81.4067C56.5232 82.2917 57.2432 82.5977 57.8932 82.5037C58.8332 82.3677 59.6532 81.3897 59.1932 80.1117C58.4132 77.9507 55.3532 79.6987 56.1232 81.4067Z" fill="black" stroke="black" stroke-width="2" stroke-miterlimit="10" stroke-linejoin="round"/>
<path d="M63.493 81.3696C63.893 82.2536 64.603 82.5596 65.253 82.4656C66.203 82.3296 67.013 81.3526 66.553 80.0736C65.783 77.9126 62.713 79.6606 63.493 81.3696Z" fill="black" stroke="black" stroke-width="2" stroke-miterlimit="10" stroke-linejoin="round"/>
<path d="M55.7528 69.4265C55.7528 69.4265 53.9828 73.8085 55.4228 76.5915C57.0028 79.6235 64.9228 78.7695 67.5528 78.3735C68.0928 78.2925 68.9128 74.7475 66.8328 74.3545C61.4128 73.3275 63.4928 69.8905 62.8028 69.7485C60.0128 69.1765 55.7528 69.4265 55.7528 69.4265Z" stroke="black" stroke-width="2" stroke-miterlimit="10" stroke-linejoin="round"/>
<path d="M25.5633 68.9135C25.9633 69.7985 26.6734 70.1045 27.3234 70.0105C28.2734 69.8745 29.0834 68.8975 28.6234 67.6185C27.8534 65.4575 24.7833 67.2055 25.5633 68.9135Z" fill="black" stroke="black" stroke-width="2" stroke-miterlimit="10" stroke-linejoin="round"/>
<path d="M53.4832 25.7111L62.7432 23.2356C62.7432 23.2356 62.0732 17.2954 56.8432 18.0696C51.9832 18.7886 53.4832 25.7111 53.4832 25.7111Z" stroke="black" stroke-width="2" stroke-miterlimit="10" stroke-linejoin="round"/>
<path d="M53.5334 24.6766C53.2434 27.0441 54.8433 31.6331 58.3633 31.4591C61.8833 31.2851 62.3333 29.5191 62.7533 27.8601C63.2233 26.0077 61.9833 22.9453 61.9833 22.9453" stroke="black" stroke-width="2" stroke-miterlimit="10" stroke-linejoin="round"/>
<path d="M58.1836 31.4492C62.7936 31.9062 63.9836 37.6612 65.3236 38.3612C66.6536 39.0602 70.3036 34.9922 72.0436 32.8062C73.2036 31.3572 75.1336 31.6422 75.7336 33.3492C76.4236 35.3402 70.2236 43.7642 65.9336 45.0002C63.7536 45.6302 61.6537 43.3062 61.6537 43.3062" stroke="black" stroke-width="2" stroke-miterlimit="10" stroke-linejoin="round"/>
<path d="M57.0433 31.2895C57.0433 31.2895 51.2634 30.7255 49.2734 32.0885C47.2834 33.4515 42.9834 35.6035 42.9834 35.6035L45.3734 41.8335L49.1134 39.0855L48.4434 49.0465C48.4434 49.0465 56.7634 49.3705 59.6234 49.3725C62.4834 49.3745 61.2634 32.9955 61.2634 32.9955" stroke="black" stroke-width="2" stroke-miterlimit="10" stroke-linejoin="round"/>
<path d="M50.0626 49.3047C50.0626 49.3047 49.2526 52.1287 51.0526 55.1257C52.8426 58.1237 55.9226 61.1227 55.9226 61.1227L62.0426 58.6017L59.2727 49.6177" stroke="black" stroke-width="2" stroke-miterlimit="10" stroke-linejoin="round"/>
<path d="M56.1035 60.9739L56.6536 64.0679L62.9635 64.0629C62.9635 64.0629 63.8835 62.6289 63.7535 61.2599C63.6335 59.8919 62.4635 58.5889 62.4635 58.5889L56.1035 60.9739Z" stroke="black" stroke-width="2" stroke-miterlimit="10" stroke-linejoin="round"/>
<path d="M57.2129 64.0254L57.2429 69.2714L61.5029 69.3684L61.8629 64.2484" stroke="black" stroke-width="2" stroke-miterlimit="10" stroke-linejoin="round"/>
<path d="M25.1232 60.9457C25.5232 61.8297 26.2432 62.1358 26.8932 62.0418C27.8332 61.9058 28.6532 60.9287 28.1932 59.6497C27.4132 57.4887 24.3532 59.2367 25.1232 60.9457Z" fill="black" stroke="black" stroke-width="2" stroke-miterlimit="10" stroke-linejoin="round"/>
<path d="M38.8129 65.0341C39.3929 62.3011 38.473 58.5891 38.473 58.5891C38.473 58.5891 30.643 56.2541 29.593 58.4841C28.383 61.0281 29.2129 66.4441 29.5529 69.2481C29.8929 71.9841 34.273 69.6491 34.383 68.4271C34.963 62.5161 38.7229 65.4771 38.8129 65.0341Z" stroke="black" stroke-width="2" stroke-miterlimit="10" stroke-linejoin="round"/>
<path d="M49.8833 51.6025L45.7133 59.3345L39.2233 59.4165L39.0732 63.5875L46.6932 65.3725C46.6932 65.3725 48.7733 65.8545 50.0133 65.0845C51.2633 64.3155 51.6832 62.2945 51.6832 62.2945L54.1732 59.1975" stroke="black" stroke-width="2" stroke-miterlimit="10" stroke-linejoin="round"/>
<path d="M46.153 65.173L45.7129 59.168L51.6029 62.111" stroke="black" stroke-width="2" stroke-miterlimit="10" stroke-linejoin="round"/>
<path d="M42.9329 35.9482C42.9329 35.9482 39.1829 38.2322 38.4529 40.1562C37.6629 42.2142 38.4929 47.5532 38.7229 48.8542C38.9529 50.1542 42.083 51.8112 42.363 48.3992C42.573 45.7352 42.673 44.4912 42.773 43.2302C42.863 41.9702 45.0929 41.0112 45.0929 41.0112" stroke="black" stroke-width="2" stroke-miterlimit="10" stroke-linejoin="round"/>
<path d="M65.0034 38.1348L63.4834 44.6168" stroke="black" stroke-width="2" stroke-miterlimit="10" stroke-linejoin="round"/>
</svg>
