<svg width="100" height="100" viewBox="0 0 100 100" fill="none" xmlns="http://www.w3.org/2000/svg">
<path d="M28.9787 74.0785C29.6561 74.5913 30.3774 75.0431 31.1358 75.4157C37.1205 78.3555 39.0422 76.7342 42.785 73.4167C44.9224 71.5222 74.9188 41.0822 75.9687 38.5623C77.0187 36.0425 76.0086 30.2891 71.2439 26.4879C65.4309 21.8503 61.3192 23.0645 59.3073 24.98C47.6179 36.1095 25.0671 57.6084 23.4712 60.7163C22.1744 63.2416 23.2733 67.4527 25.8451 70.8984" stroke="black" stroke-width="2" stroke-linecap="round"/>
<path d="M30.3246 65.7885L30.3274 65.7844C30.8493 64.0623 34.9669 67.2659 34.3821 68.7473C34.2241 69.1476 31.9596 70.3498 29.9765 72.646C27.9935 74.9421 29.2786 73.7867 24.9674 80.297C21.8713 84.9725 16.626 83.6891 16.626 80.297C16.626 76.905 19.4817 75.3667 23.8652 72.4443C27.3688 70.1085 29.3101 67.2712 30.3246 65.7885Z" stroke="black" stroke-width="2" stroke-linecap="round"/>
<path d="M27.7011 69.1062C26.5388 67.271 24.1531 63.6616 26.5388 61.0311C28.5592 58.8034 34.3652 61.276 37.1829 65.0075C39.361 67.8921 40.7312 71.3085 38.2842 73.3884C36.7811 74.6661 33.5831 74.2276 30.6986 72.2261" stroke="black" stroke-width="2" stroke-linecap="round"/>
<path d="M28.2918 68.8917L30.0933 66.1741L31.185 65.2384L33.1085 66.6687L34.3819 68.5953L32.3305 70.0033L30.552 72.1523L33.3308 73.7825L36.8878 74.153L38.8145 73.3009L39.7037 70.8925L38.8145 67.4838L36.7025 64.5197L33.5902 61.8149L29.0329 60.2217L26.4022 60.8886L25.4019 63.9268L27.4026 68.5953L28.2918 68.8917Z" fill="black"/>
<path d="M36.751 51.6948C37.0013 51.361 44.4144 44.3299 45.249 43.245" stroke="black" stroke-width="2" stroke-linecap="round"/>
<path d="M48.2417 40.6816L49.9997 38.9236" stroke="black" stroke-width="2" stroke-linecap="round"/>
<path d="M35.25 76.8664C35.8564 76.995 40.2699 77.5927 42.0384 76.614C46.569 74.1069 74.887 44.2682 76.3276 41.7734C77.2882 40.1099 76.3572 38.9057 76.0817 38.1892" stroke="black" stroke-width="2"/>
<path d="M42.6869 73.604L38.2695 76.4568L39.1898 77.3771L41.9046 77.009L45.5856 73.9721L56.8589 62.9749L74.6661 44.0174L76.9207 40.7045L76.1845 38.8639L63.2548 52.7139L42.6869 73.604Z" fill="black"/>
<path d="M70.8013 25.7216C71.0783 25.7217 73.9721 22.0213 75.6345 20.0265C77.2968 18.0317 79.2217 15.2622 82.1976 17.4771C83.896 18.7412 84.2587 20.9486 79.811 24.2029C75.3633 27.4573 76.2854 26.8065 73.6818 28.9761" stroke="black" stroke-width="2" stroke-linecap="round"/>
</svg>
