<svg width="100" height="100" viewBox="0 0 100 100" fill="none" xmlns="http://www.w3.org/2000/svg">
<path d="M20.9209 75.0991C20.8357 75.0982 20.79 74.9958 20.8458 74.9314C41.2584 51.3699 52.7442 39.0371 73.1806 18.9881C73.2431 18.9268 73.3506 18.9678 73.3526 19.0554L74.5757 74.8668C74.5769 74.9205 74.5339 74.9656 74.4803 74.9688C51.5185 76.3473 40.2871 75.3175 20.9209 75.0991Z" stroke="black" stroke-width="2"/>
<path d="M42.7347 65.1451C42.6462 65.1471 42.599 65.0415 42.6595 64.9768L63.3274 42.8849C63.3886 42.8194 63.4984 42.8614 63.5004 42.951L63.9744 64.5802C63.9756 64.6354 63.9319 64.6811 63.8766 64.6823L42.7347 65.1451Z" stroke="black" stroke-width="2"/>
<path d="M20.9453 77.6771C18.5583 77.4221 19.8732 75.6654 20.8535 74.7945C20.8718 74.7783 20.8939 74.7698 20.9184 74.7699C37.5446 74.8583 71.4406 75.0576 74.3103 75.1497C77.9 75.2649 79.2716 75.9135 79.9775 77.1584C80.6835 78.4033 73.6136 78.7522 67.5128 79.0799C61.412 79.4075 23.9576 77.9987 20.9453 77.6771Z" fill="black"/>
<path d="M71.4654 67.2932C70.9132 67.3053 70.4754 67.7627 70.4875 68.3149C70.4996 68.867 70.9571 69.3048 71.5092 69.2927L71.4654 67.2932ZM71.5092 69.2927L74.779 69.221L74.7351 67.2215L71.4654 67.2932L71.5092 69.2927Z" fill="black"/>
<path d="M69.6148 60.1477C69.0626 60.1598 68.6248 60.6172 68.6369 61.1694C68.6491 61.7215 69.1065 62.1593 69.6586 62.1472L69.6148 60.1477ZM69.6586 62.1472L74.6211 62.0384L74.5773 60.0389L69.6148 60.1477L69.6586 62.1472Z" fill="black"/>
<path d="M71.1509 52.928C70.5988 52.9401 70.161 53.3975 70.1731 53.9497C70.1852 54.5018 70.6426 54.9396 71.1948 54.9275L71.1509 52.928ZM71.1948 54.9275L74.4645 54.8558L74.4207 52.8563L71.1509 52.928L71.1948 54.9275Z" fill="black"/>
<path d="M69.3003 45.7825C68.7482 45.7946 68.3104 46.252 68.3225 46.8041C68.3346 47.3563 68.792 47.7941 69.3442 47.782L69.3003 45.7825ZM69.3442 47.782L74.3067 47.6732L74.2629 45.6737L69.3003 45.7825L69.3442 47.782Z" fill="black"/>
<path d="M70.8355 38.5627C70.2833 38.5748 69.8455 39.0323 69.8577 39.5844C69.8698 40.1366 70.3272 40.5744 70.8793 40.5623L70.8355 38.5627ZM70.8793 40.5623L74.1491 40.4906L74.1052 38.4911L70.8355 38.5627L70.8793 40.5623Z" fill="black"/>
<path d="M68.9849 31.4182C68.4328 31.4303 67.995 31.8877 68.0071 32.4399C68.0192 32.992 68.4766 33.4298 69.0287 33.4177L68.9849 31.4182ZM69.0287 33.4177L73.9913 33.3089L73.9474 31.3094L68.9849 31.4182L69.0287 33.4177Z" fill="black"/>
</svg>
