<svg width="100" height="100" viewBox="0 0 100 100" fill="none" xmlns="http://www.w3.org/2000/svg">
<path d="M55.6986 26.0182C55.6986 26.0182 51.6886 22.9683 47.9986 21.4183C44.3086 19.8683 35.7686 21.3682 32.6186 22.3582C31.1486 22.8182 27.4986 23.8882 27.2486 25.2182C27.1886 25.5382 27.3985 26.5382 28.4185 26.9682C29.1285 27.2682 31.6587 25.8582 31.6587 25.8582C31.6587 25.8582 31.1986 27.4682 31.9286 27.6382C32.6686 27.8082 33.9186 26.6582 34.5986 26.5382C38.4386 25.8882 44.0985 25.0482 45.6685 26.4082C47.2285 27.7582 50.8686 31.1582 50.8686 31.1582" stroke="black" stroke-width="2" stroke-miterlimit="10" stroke-linejoin="round"/>
<path d="M55.5787 25.9688C55.5787 25.9688 55.8587 28.5687 54.6787 29.8287C53.5087 31.0987 50.8688 31.0188 50.8688 31.0188L45.6787 42.3688L55.7987 46.0388C55.7987 46.0388 60.0388 42.1588 61.7788 39.3988C63.5088 36.6488 63.3287 32.3387 63.3287 32.3387C63.3287 32.3387 61.9687 33.0087 60.6787 31.7188C59.3887 30.4188 59.3688 28.0288 59.3688 28.0288C59.3688 28.0288 58.8987 27.3588 57.9587 26.8488C57.0087 26.3288 55.5787 25.9688 55.5787 25.9688Z" stroke="black" stroke-width="2" stroke-miterlimit="10" stroke-linejoin="round"/>
<path d="M45.4784 42.3789C45.4784 42.3789 41.4384 45.3589 40.3184 49.0789C39.1984 52.7989 36.1485 56.0689 35.0185 57.6689C33.8985 59.2589 38.1385 63.3088 38.1385 63.3088C38.1385 63.3088 47.5285 56.6389 48.7685 55.5789C50.0085 54.5089 50.7784 56.1089 52.1284 57.3489C53.4884 58.5889 60.3384 62.7189 60.3384 62.7189C60.3384 62.7189 63.9484 61.0689 61.0484 56.3489C58.1584 51.6189 55.8484 46.1289 55.8484 46.1289L45.4784 42.3789Z" stroke="black" stroke-width="2" stroke-miterlimit="10" stroke-linejoin="round"/>
<path d="M54.439 59.248C54.439 59.248 51.5389 59.8281 49.4189 61.6581C47.2889 63.4881 44.749 66.438 44.749 66.438L47.759 68.9181L60.369 62.708L54.439 59.248Z" stroke="black" stroke-width="2" stroke-miterlimit="10" stroke-linejoin="round"/>
<path d="M34.7587 58.5391C34.7587 58.5391 29.3387 60.869 27.2887 63.109C26.4787 64.009 24.8286 66.369 24.8286 66.369L22.3086 69.609L26.3086 71.719C26.3086 71.719 30.3386 68.6891 32.5886 66.9191C34.8286 65.1491 37.8386 63.069 37.8386 63.069C37.8386 63.069 36.7086 61.9091 35.9386 60.7891C35.1686 59.6691 34.7587 58.5391 34.7587 58.5391Z" stroke="black" stroke-width="2" stroke-miterlimit="10" stroke-linejoin="round"/>
<path d="M22.2286 69.6689C22.2286 69.6689 17.7786 73.8389 18.0086 74.9189C18.2386 76.0089 22.0786 79.5089 23.9086 79.8989C25.7386 80.2889 28.8286 81.0289 28.5986 79.9489C28.3686 78.8589 25.8986 77.7189 24.5786 75.1489C23.6186 73.2789 26.2586 71.7589 26.2586 71.7589L22.2286 69.6689Z" fill="black" stroke="black" stroke-width="2" stroke-miterlimit="10" stroke-linejoin="round"/>
<path d="M44.8584 66.2686L38.8184 71.3785L42.0583 75.7485C42.0583 75.7485 44.6384 79.4385 46.0284 79.3785C47.4184 79.3085 46.5684 76.6985 46.5684 76.6985C45.8684 74.9885 45.5383 72.6585 45.9283 71.5785C46.3083 70.4885 47.7184 69.0785 47.7184 69.0785L44.8584 66.2686Z" fill="black" stroke="black" stroke-width="2" stroke-miterlimit="10" stroke-linejoin="round"/>
<path d="M59.5684 29.0186L61.5385 26.2686" stroke="black" stroke-width="2" stroke-miterlimit="10" stroke-linejoin="round"/>
<path d="M62.2685 27.5285C61.5185 26.2985 61.2185 24.0986 63.0085 21.6786C64.7985 19.2486 71.0085 17.4385 72.2585 20.9985C74.0585 26.1485 69.8884 29.1485 66.9284 29.5985C63.9584 30.0485 62.9485 28.6485 62.2685 27.5285Z" stroke="black" stroke-width="2" stroke-miterlimit="10" stroke-linejoin="round"/>
<path d="M63.4385 32.498L65.6085 29.498" stroke="black" stroke-width="2" stroke-miterlimit="10" stroke-linejoin="round"/>
<path d="M63.2689 32.2785C63.2689 32.2785 68.2289 39.7184 69.2589 39.8484C70.2889 39.9784 75.6989 34.6984 76.5989 32.8684C77.4889 31.0384 76.5489 30.0985 77.0289 29.2785C77.5189 28.4585 78.5289 29.5884 78.5289 29.5884C78.5289 29.5884 79.9089 26.7884 80.4689 27.0584C81.5889 27.5984 81.5289 30.1084 80.2589 32.9884C78.5589 36.8784 76.0289 41.2385 72.8889 43.5185C69.7589 45.7985 66.2389 46.5484 64.7189 44.2184C63.1989 41.8984 61.3389 40.0684 61.3389 40.0684" stroke="black" stroke-width="2" stroke-miterlimit="10" stroke-linejoin="round"/>
</svg>
