<svg width="100" height="100" viewBox="0 0 100 100" fill="none" xmlns="http://www.w3.org/2000/svg">
<path d="M20.9516 70.5086C15.3779 70.4678 11.3846 70.3918 11.1047 70.2764C10.1765 69.8937 10.6509 30.609 11.1047 30.0533C11.5585 29.4977 38.8573 30.2488 39.3036 30.0533C39.7498 29.8578 41.6301 27.2982 42.3026 27.0542C42.9752 26.8102 71.8912 26.4426 72.6464 27.0542C73.1935 27.4974 76.0967 32.0218 77.6545 34.4806C78.081 35.1536 77.5901 36.0263 76.7936 36.009C72.2259 35.9096 60.7473 35.6966 60.209 36.0515C59.5361 36.4951 60.6645 69.9441 60.209 70.2764C59.9926 70.4343 45.1628 70.262 34.8845 70.2764" stroke="black" stroke-width="2" stroke-linecap="round"/>
<path d="M60.7369 70.2526C60.7369 70.2526 62.8172 70.5572 65.3365 70.5763M60.1425 38.7087C60.1425 38.7087 70.9367 38.2333 71.5881 38.8742C72.2396 39.5152 77.3574 52.0537 77.7627 52.7229C78.168 53.3922 84.5168 54.9097 84.7312 55.5456C84.9457 56.1815 85.3651 70.3253 84.7312 70.541C84.528 70.6102 82.0247 70.6351 78.7172 70.6368" stroke="black" stroke-width="2" stroke-linecap="round"/>
<path d="M84.3838 69.2476C82.978 69.8668 81.2748 69.9614 78.6448 70.0321" stroke="black" stroke-width="2" stroke-linecap="round"/>
<path d="M60.8336 68.9551C61.7818 69.4362 62.9306 69.5096 64.7045 69.5646" stroke="black" stroke-width="2" stroke-linecap="round"/>
<path d="M65.3992 70.4365C65.3992 73.1153 67.4623 77.0384 72.0011 77.0384C75.6472 77.0384 78.603 74.0826 78.603 70.4365C78.603 66.7903 75.5741 63.2124 71.0352 63.6254C68.1588 63.8871 65.3992 66.7903 65.3992 70.4365Z" stroke="black" stroke-width="2"/>
<path d="M72.4538 68.3486C71.8958 68.076 71.4182 68.1506 70.9992 68.3992C70.5405 68.6712 70.1634 69.1559 69.9811 69.6281C69.8566 69.9503 69.8255 70.4515 69.9659 70.9377C70.1033 71.4138 70.3671 71.7557 70.7081 71.9223C71.1493 72.1378 71.8034 72.223 72.4132 72.109C73.0354 71.9927 73.39 71.7195 73.5205 71.4524C74.0304 70.4086 73.9175 69.7999 73.7243 69.4273C73.4983 68.9916 73.0351 68.6325 72.4538 68.3486Z" fill="black" stroke="black" stroke-width="2"/>
<path d="M26.8741 63.7851C24.5411 64.0828 20.591 66.5732 21.1772 71.1675C21.6481 74.8582 25.0218 77.4683 28.7125 76.9974C32.4032 76.5265 35.2857 73.0006 34.4532 68.8384C33.6109 64.6272 29.8215 63.409 26.8741 63.7851Z" stroke="black" stroke-width="2"/>
<path d="M10.9888 68.5996C13.3512 69.7983 16.6387 69.9812 21.0584 70.1182" stroke="black" stroke-width="2" stroke-linecap="round"/>
<path d="M26.5959 68.8216C26.0581 69.1321 25.8532 69.5699 25.8252 70.0562C25.7946 70.5886 25.9859 71.1722 26.2756 71.5873C26.4733 71.8704 26.8716 72.1763 27.3533 72.3315C27.8249 72.4835 28.2559 72.4558 28.5846 72.266C29.0098 72.0205 29.4459 71.5257 29.6921 70.9561C29.9432 70.3752 29.9147 69.9284 29.7661 69.671C29.1853 68.6649 28.6173 68.4185 28.2004 68.3706C27.7128 68.3146 27.1562 68.4981 26.5959 68.8216Z" fill="black" stroke="black" stroke-width="2"/>
<path d="M81.3365 62.3311L85.067 62.3311L85.067 57.8573L81.3365 57.8573C80.1011 57.8573 79.0996 58.8588 79.0996 60.0942C79.0996 61.3296 80.1011 62.3311 81.3365 62.3311Z" fill="black"/>
<path d="M11.6723 61.167L10.5722 61.167L10.5722 54.5468L11.6723 54.5468C13.5004 54.5468 14.9824 56.0287 14.9824 57.8569C14.9824 59.685 13.5004 61.167 11.6723 61.167Z" fill="black"/>
<path d="M72.1083 46.6734C71.1369 44.2728 70.4407 42.1618 70.0972 41.8346C69.7019 41.4582 68.3568 41.4691 66.694 41.5772C65.1509 41.6776 63.5273 41.3547 63.1047 41.8346C62.6721 42.3261 62.8423 45.0255 62.8957 47.4984C62.9506 50.0432 62.898 52.6747 63.1047 53.1153C63.3078 53.5481 65.6306 53.3302 68.4394 53.3116C70.4886 53.298 72.6475 53.3725 73.7532 53.2797C74.1597 53.2456 74.5153 52.7914 74.3791 52.35C74.019 51.1827 73.0007 48.8785 72.1083 46.6734Z" fill="black"/>
<path d="M36.6769 51.2523C37.2047 50.8782 37.0794 41.1778 36.6769 40.7555C36.2744 40.3332 16.4962 40.4167 16.1151 40.7555C15.734 41.0942 16.4472 50.3349 16.1151 51.2523C15.7829 52.1698 36.1492 51.6264 36.6769 51.2523Z" fill="black" stroke="black" stroke-width="2" stroke-linecap="round"/>
<path d="M42.1641 69.6566C42.1641 69.6566 41.593 39.2294 42.0818 38.8349C42.5707 38.4405 55.5656 38.4404 55.8342 38.8349C56.1028 39.2294 56.0554 69.6566 56.0554 69.6566" stroke="black" stroke-width="2" stroke-linecap="round"/>
<path d="M35.2153 69.8467C45.0423 69.8337 55.5465 69.7202 59.5074 68.9551" stroke="black" stroke-width="2" stroke-linecap="round"/>
<path d="M44.6085 54.5879C45.4361 54.8625 45.9641 54.5879 46.9141 54.5879" stroke="black" stroke-width="2" stroke-miterlimit="10" stroke-linecap="round" stroke-linejoin="round"/>
<path d="M60.2916 36.0206C63.2187 35.4802 73.3851 35.6855 76.6963 34.7754" stroke="black" stroke-width="2" stroke-linecap="round"/>
<path d="M65.9268 31.2565C67.3582 31.1376 69.0307 31.3467 70.55 31.2565" stroke="black" stroke-width="2" stroke-miterlimit="10" stroke-linecap="round" stroke-linejoin="round"/>
<path d="M57.1958 31.2565C58.6272 31.1376 60.2998 31.3467 61.8191 31.2565" stroke="black" stroke-width="2" stroke-miterlimit="10" stroke-linecap="round" stroke-linejoin="round"/>
</svg>
