<svg width="100" height="100" viewBox="0 0 100 100" fill="none" xmlns="http://www.w3.org/2000/svg">
<path d="M63.39 76.4087C65.81 75.2627 66.02 75.6357 68.85 73.7457C71.87 71.7228 72.75 64.298 72.75 64.298C72.75 64.298 61.8901 66.4866 51.3201 65.7978C40.7601 65.109 26.0701 59.7979 26.0701 59.7979C26.0701 59.7979 29.36 70.4561 39.66 75.6686" stroke="black" stroke-width="2" stroke-miterlimit="10" stroke-linejoin="round"/>
<path d="M53.27 65.7966C53.27 65.7966 54.32 38.4871 54.09 33.0703C53.87 27.6535 54.2 25.8684 54.13 22.6334C54.05 19.3984 56.39 18.4956 56.91 23.6867C57.44 28.8777 57.03 28.4811 57.03 33.5217C57.03 38.5623 56.5 65.6462 56.5 65.6462" stroke="black" stroke-width="2" stroke-miterlimit="10" stroke-linejoin="round"/>
<path d="M24 78.538C27.4 77.835 34.04 73.7663 37.8 74.835C40.7 75.664 44.27 79.563 46.99 79.395C51.99 79.085 54.72 74.256 59.8 74.859C63.78 75.33 66.65 79.061 70.8 79.232C72.09 79.285 73.74 78.637 74.9 78.079C75.46 77.808 77.1001 76.897 76.5601 77.21" stroke="black" stroke-width="2" stroke-miterlimit="10" stroke-linecap="round" stroke-linejoin="round"/>
<path d="M29.1401 66.1621C29.1401 66.1621 31.5201 67.2302 35.3801 68.2743C39.2301 69.3184 43.1802 69.7748 46.1902 70.0279C49.2002 70.281 58.2402 70.3771 60.6902 70.1807C63.1402 69.9843 71.6301 68.4229 71.6301 68.4229" stroke="black" stroke-width="2" stroke-miterlimit="10" stroke-linejoin="round"/>
<path d="M57.1099 22.9437C57.1099 22.9437 58.7699 23.8605 61.3899 22.9536C64.0199 22.0468 63.4099 21.1407 65.8899 21.5304C68.3699 21.9201 70.5999 22.9736 70.5999 22.9736L67.9899 24.9993L70.1299 27.798C70.1299 27.798 67.5699 27.0948 65.6599 27.3434C63.7399 27.5919 63.9998 28.402 61.9698 28.9024C60.2098 29.3371 57.1799 29.0456 57.1799 29.0456L57.1099 22.9437Z" fill="black" stroke="black" stroke-width="2" stroke-miterlimit="10" stroke-linejoin="round"/>
<path d="M54.4199 20.2506C51.3599 21.7485 35.6699 32.2713 30.8699 41.0794C26.0599 49.8874 34.6499 55.2909 39.2499 58.2869C43.8499 61.2829 55.3499 65.0398 52.6699 61.9153C45.4499 53.4969 44.1899 47.1191 44.5099 40.8495C44.8299 34.5799 57.7999 18.6005 54.4199 20.2506Z" stroke="black" stroke-width="2" stroke-miterlimit="10" stroke-linejoin="round"/>
</svg>
