<svg width="100" height="100" viewBox="0 0 100 100" fill="none" xmlns="http://www.w3.org/2000/svg">
<path d="M29.9546 84.1834C29.8812 83.2562 30.8073 83.1497 31.2097 83.5555C31.6121 83.9613 31.4291 84.2904 31.2471 84.5094C30.9637 84.93 30.0087 84.8673 29.9546 84.1834Z" fill="black"/>
<path d="M37.792 82.999C36.4683 82.9022 36.5182 81.573 37.1775 81.0931C37.8368 80.6133 38.2615 80.9424 38.5309 81.2464C39.0629 81.7369 38.7683 83.0703 37.792 82.999Z" fill="black"/>
<path d="M28.422 77.9323C28.1072 76.2582 29.7341 76.0539 30.5461 76.7143C31.358 77.3747 31.0892 78.0097 30.8006 78.4439C30.3667 79.2651 28.7368 79.6064 28.422 77.9323Z" fill="black"/>
<path d="M35.4009 78.5225C33.3676 78.1054 33.7131 76.054 34.8324 75.4428C35.9517 74.8317 36.5439 75.4277 36.9005 75.9536C37.6266 76.8217 36.9005 78.8302 35.4009 78.5225Z" fill="black"/>
<path d="M33.5295 47.816C36.5557 38.3246 42.897 18.8054 44.0525 16.6595C45.4968 13.9773 51.8932 14.9057 56.5357 16.6595C61.1782 18.4134 71.4949 23.6749 72.836 27.5952C74.1772 31.5156 66.646 40.8006 63.4479 45.7526C60.8893 49.7142 57.0859 55.8629 55.504 58.4421" stroke="black" stroke-width="2" stroke-linecap="round"/>
<path d="M30.7994 55.3653C30.4638 54.6223 29.9941 52.7769 30.7994 51.3389C31.806 49.5415 32.2374 47.6002 34.2506 47.8159C36.2637 48.0316 45.4667 50.1885 50.5714 53.9273C55.6762 57.666 56.0357 59.5353 55.7481 60.1105C55.4605 60.6857 54.2382 63.993 53.5193 64.2087C52.9441 64.3812 51.9375 64.8558 51.5061 65.0715" stroke="black" stroke-width="2" stroke-linecap="round"/>
<path d="M27.2762 63.0581C27.3913 62.1954 29.6249 57.5699 30.7273 55.3651C31.2262 54.3577 35.0995 54.8197 39.3517 56.2759C44.6082 58.076 51.0745 63.0581 51.434 64.1366C51.7935 65.215 49.4209 69.0257 48.2705 71.3264C47.1201 73.6271 44.2675 74.1879 37.1382 71.3264C29.6687 68.3283 27.1324 64.1366 27.2762 63.0581Z" stroke="black" stroke-width="2" stroke-linecap="round"/>
<path d="M27.7435 64.4119C27.1323 62.9329 27.7566 61.3144 30.6422 61.6315C36.2001 62.2422 45.2349 67.6853 46.7928 70.2884C47.8777 72.1012 46.1815 73.2593 44.6318 73.2593" stroke="black" stroke-width="2" stroke-linecap="round"/>
<path d="M27.4889 73.3677C26.716 73.0988 26.9367 71.8868 27.6842 71.5482C28.4317 71.2095 29.0413 71.7602 29.0327 72.4391C29.0241 73.1181 28.6612 73.7756 27.4889 73.3677Z" fill="black"/>
<path d="M39.3012 69.5443C39.7131 70.6707 42.199 70.9616 41.9797 70.0819C41.7056 68.9824 38.8894 68.4179 39.3012 69.5443Z" fill="black"/>
<path d="M36.6972 66.54C37.1091 67.6664 39.595 67.9573 39.3757 67.0777C39.1016 65.9781 36.2854 65.4136 36.6972 66.54Z" fill="black"/>
<path d="M33.894 67.6705C34.3058 68.7969 36.7918 69.0878 36.5725 68.2081C36.2984 67.1086 33.4822 66.5441 33.894 67.6705Z" fill="black"/>
<path d="M31.3301 65.1964C31.7419 66.3228 34.2278 66.6137 34.0085 65.734C33.7344 64.6345 30.9182 64.07 31.3301 65.1964Z" fill="black"/>
<path d="M36.4331 48.0137C37.0613 46.1292 38.3279 42.4872 38.8304 41.8339C39.4586 41.0172 53.6673 34.8614 62.5747 34.8613C65.5156 34.8613 63.2028 39.4468 62.0721 41.2685C61.1676 42.7258 55.7487 51.4655 53.1523 55.6532" stroke="black" stroke-width="2" stroke-linecap="round"/>
<path d="M38.731 41.9962C38.2704 42.8755 38.5795 44.3151 40.5896 44.1643C43.1022 43.9759 46.7155 44.6462 54.4588 41.5832C56.8098 40.6532 63.8898 39.278 64.0274 36.4343" stroke="black" stroke-width="2" stroke-linecap="round"/>
<path d="M43.9994 27.5509L43.5618 28.4728" stroke="black" stroke-width="2" stroke-linecap="round"/>
<path d="M46.7164 20.9524L45.3972 24.3322" stroke="black" stroke-width="2" stroke-linecap="round"/>
<path d="M38.9366 41.7215C38.3487 42.1257 37.1607 46.1767 36.6401 48.1516C39.1816 49.0549 44.6226 50.9626 46.0556 51.3668C47.4887 51.7709 51.3376 54.5053 53.0829 55.822C56.742 49.698 64.0693 37.2571 64.1061 36.4855C64.152 35.521 63.2334 35.2913 62.5444 35.0617C61.8555 34.832 56.4358 35.4291 53.4503 36.2099C50.4649 36.9907 39.6715 41.2163 38.9366 41.7215Z" fill="black"/>
<path d="M51.4841 60.0488C53.3219 61.5913 53.7025 62.871 53.9125 63.7899" stroke="black" stroke-width="2" stroke-linecap="round"/>
<path d="M30.9634 52.0245C31.6555 51.7985 34.7415 51.5403 38.7236 52.7419" stroke="black" stroke-width="2" stroke-linecap="round"/>
</svg>
