<svg width="100" height="100" viewBox="0 0 100 100" fill="none" xmlns="http://www.w3.org/2000/svg">
<path d="M31.5006 70.2688C30.3567 70.6191 28.1424 71.4683 28.4364 72.0628M64.2752 73.1896C64.5035 72.358 63.2051 71.7976 61.6928 71.3956" stroke="black" stroke-width="2"/>
<path d="M31.5604 71.7393C31.5722 71.001 31.6793 68.9351 32.0132 66.5774C32.4306 63.6302 33.5805 60.2338 34.7174 58.5905C36.6494 55.798 38.6525 54.8295 41.4071 52.1127C44.1617 49.3959 46.402 46.5002 46.2435 44.8362C46.0851 43.1721 45.3597 42.2374 43.9089 40.3681C42.458 38.4987 37.8792 35.4715 34.9746 31.9174C32.6509 29.074 32.2761 23.1973 32.3792 20.6143L62.1718 21.0914C62.0218 22.7506 61.6408 26.5106 61.3163 28.2777C60.9107 30.4866 58.8191 33.9607 56.5689 35.7708C54.3188 37.5809 51.0557 40.1505 49.8156 41.3857C48.9768 42.2212 47.5418 44.6724 48.0644 46.7115C48.5871 48.7506 51.1334 51.5606 53.1482 52.8851C55.1631 54.2097 58.4466 57.2161 59.8856 59.8238C61.3247 62.4314 61.6061 67.9743 61.5854 69.2663C61.5696 70.2512 61.5453 71.7724 61.2027 72.6799" stroke="black" stroke-width="2"/>
<path d="M27.9961 77.5273C28.0008 77.232 28.2629 72.0944 28.4117 71.8738C28.5606 71.6531 64.1894 72.546 64.3051 72.8178C64.4208 73.0896 64.5924 77.9916 64.5924 77.9916C63.6758 79.7492 59.873 79.8852 58.0862 79.7335C51.917 79.6963 38.6908 79.5706 35.1403 79.3661C30.7021 79.1104 27.9902 77.8964 27.9961 77.5273Z" stroke="black" stroke-width="2"/>
<path fill-rule="evenodd" clip-rule="evenodd" d="M28.0193 77.1686C28.0058 77.4434 27.9978 77.6283 27.9971 77.6777C27.9911 78.0468 30.7031 79.2608 35.1412 79.5165C38.6918 79.721 51.9179 79.8467 58.0872 79.8839C59.874 80.0356 63.6768 79.8996 64.5934 78.142C64.5934 78.142 64.5249 76.1856 64.4453 74.6762C65.8924 74.8673 67.26 75.0932 68.6213 75.3365C77.0254 76.8385 76.538 80.1176 71.2481 82.1798C65.9583 84.242 48.3132 83.6141 41.4611 82.6163C40.3462 82.4539 39.3201 82.3172 38.369 82.1905C33.256 81.5091 30.3103 81.1166 27.3928 78.5855C27.1804 78.048 27.4288 77.5787 28.0193 77.1686Z" fill="black"/>
<path d="M39.6428 34.012C40.385 33.9009 41.5404 33.4145 43.3263 32.8523C45.5587 32.1496 47.1842 31.6957 49.4524 31.732C52.2343 31.7765 54.5243 32.4619 57.4541 34.7717C54.6179 37.5113 50.9128 39.9637 49.4708 41.4799C48.702 42.2883 48.0416 43.5458 48.0304 44.2419C48.0116 45.4163 47.8974 46.6611 47.6236 47.1982L46.6281 47.1982C46.3361 47.2047 46.0582 47.2102 45.855 47.1982C45.623 46.7223 46.3183 45.6148 46.2773 44.736C46.0633 43.5722 45.0509 41.1897 41.3235 38.0422L37.7783 34.7819L39.6428 34.012Z" fill="black"/>
<path d="M45.855 47.1982C45.623 46.7223 46.3183 45.6148 46.2773 44.736C46.0633 43.5722 45.0509 41.1897 41.3235 38.0422L37.7783 34.7819L39.6428 34.012C40.385 33.9009 41.5404 33.4145 43.3263 32.8523C45.5587 32.1496 47.1842 31.6957 49.4524 31.732C52.2343 31.7765 54.5243 32.4619 57.4541 34.7717C54.6179 37.5113 50.9128 39.9637 49.4708 41.4799C48.702 42.2883 48.0416 43.5458 48.0304 44.2419C48.0116 45.4163 47.8974 46.6611 47.6236 47.1982M45.855 47.1982C46.2987 47.2245 47.0985 47.167 47.6236 47.1982M45.855 47.1982L47.6236 47.1982" stroke="black" stroke-width="2"/>
<path d="M30.2265 16.3342C29.3011 16.3194 29.1044 17.0547 29.0926 17.7929L29.063 19.6386C29.0488 20.5245 30.1575 20.6407 30.7136 20.5881L63.8372 21.1185C64.7624 21.1334 64.598 19.8384 64.6217 18.3619C64.6406 17.1807 64.1519 16.8775 63.9051 16.8735L30.2265 16.3342Z" stroke="black" stroke-width="2"/>
</svg>
