<svg width="100" height="100" viewBox="0 0 100 100" fill="none" xmlns="http://www.w3.org/2000/svg">
<path d="M34.0149 32.7988C31.6479 32.7988 29.7291 34.9098 29.7291 37.5138C29.5783 41.9032 29.7049 50.9949 29.81 70.0173C29.8279 73.247 29.7041 75.2263 29.7291 79.1609C29.7291 81.4293 37.9555 83.2682 48.1033 83.2682C58.2511 83.2682 66.4775 81.4293 66.4775 79.1609C66.4775 79.1609 66.0638 67.2396 66.0472 59.4723C66.0333 52.9871 66.296 43.5934 66.4175 39.6156C66.4562 38.3496 66.5877 37.0488 66.1467 35.8614C65.4795 34.0648 63.8751 32.7988 62.0019 32.7988" stroke="black" stroke-width="2" stroke-linecap="round"/>
<path d="M69.774 83.91C64.5864 87.3342 40.5503 86.5099 32.9418 82.3248C43.5476 84.8612 67.6989 83.91 66.9835 78.254C69.0247 78.254 73.7071 81.3138 69.774 83.91Z" fill="black"/>
<path d="M66.2114 70.0932C66.2114 72.3616 58.2516 74.113 48.1038 74.113C37.956 74.113 29.8516 72.3084 29.8516 70.04" stroke="black" stroke-width="2" stroke-linecap="round"/>
<path d="M49.7493 55.9612C49.6171 55.8351 46.7514 55.8837 46.6096 55.9612C46.4678 56.0386 46.535 58.6139 46.423 58.7655C46.3111 58.9172 43.6511 58.8014 43.4699 58.9259C43.2887 59.0504 43.2738 61.8907 43.4699 61.8907C43.666 61.8907 46.2514 61.9402 46.423 62.0399C46.5946 62.1397 46.423 64.6911 46.6096 64.8555C46.7962 65.0199 49.6171 65.047 49.7493 64.8555C49.8815 64.664 49.9454 62.1573 49.9454 62.0399C49.9454 61.9226 52.7365 62.103 52.889 61.8907C53.0415 61.6784 52.889 59.0456 52.889 58.9259C52.889 58.8062 50.0669 58.9172 49.9454 58.6299C49.8239 58.3426 49.8815 56.0872 49.7493 55.9612Z" fill="black" stroke="black" stroke-width="2"/>
<path d="M57.9785 60.7439C57.9785 62.7796 57.3904 65.2376 56.3123 66.7861C54.5096 69.3754 51.4324 70.4702 48.1425 70.4702C46.5859 70.4702 44.7367 70.2369 43.4003 69.4908C40.2231 67.717 38.3064 63.9582 38.3064 60.1292C38.3064 57.3071 39.2621 54.7804 41.1823 53.0165C42.9633 51.3805 45.6127 50.4028 48.1425 50.4028C50.7685 50.4028 53.4812 51.5653 55.2825 53.4673C57.0875 55.3732 57.9785 58.0213 57.9785 60.7439Z" stroke="black" stroke-width="2" stroke-linecap="round"/>
<path d="M66.318 42.8674C66.318 45.1358 58.2514 46.946 48.1036 46.946C37.9558 46.946 29.6785 45.1073 29.6785 42.8389" stroke="black" stroke-width="2" stroke-linecap="round"/>
<path d="M66.4774 37.5767C66.4774 38.7722 64.1922 39.8485 60.5449 40.5991" stroke="black" stroke-width="2" stroke-linecap="round"/>
<path d="M29.729 37.5767C29.729 39.0194 33.0567 40.2884 38.0899 41.021" stroke="black" stroke-width="2" stroke-linecap="round"/>
<path d="M61.939 30.0674V33.0149C61.2288 35.1437 53.6883 36.2696 48.1034 36.1076C42.5185 35.9456 34.2678 34.723 34.2678 33.0149V30.0674" stroke="black" stroke-width="2" stroke-linecap="round"/>
<path d="M54.0061 27.0864C58.8945 27.5635 61.9388 28.6536 61.9388 29.9222C61.5709 31.4132 53.6168 33.0149 48.1033 33.0149C42.5897 33.0149 34.0204 31.5754 34.2677 29.9222C34.2677 28.6536 37.6843 27.5635 42.5727 27.0864" stroke="black" stroke-width="2" stroke-linecap="round"/>
<path d="M53.8513 19.9177C53.8513 16.1507 51.1291 13.5112 48.1034 13.5112C45.0974 13.5112 42.3384 16.6107 42.3384 19.9177L42.6605 28.5323C42.6605 29.2042 44.9105 29.7489 48.1034 29.7489C51.2963 29.7489 53.8513 29.2042 53.8513 28.5323V23.8722" stroke="black" stroke-linecap="round"/>
<path fill-rule="evenodd" clip-rule="evenodd" d="M50.4823 21.2876C50.6359 20.1961 51.5648 19.4481 52.557 19.6171L67.116 22.5728C68.8615 22.87 70.4162 23.952 71.4079 25.5599L74.4166 30.2419C74.9803 31.1559 74.7639 32.3996 73.9331 33.0199C73.1022 33.6401 71.9717 33.4019 71.4079 32.4879L68.3993 27.8059C67.9743 27.1168 67.308 26.6531 66.5599 26.5257L52.0009 23.57C51.0086 23.4011 50.3288 22.3792 50.4823 21.2876Z" fill="black"/>
<path fill-rule="evenodd" clip-rule="evenodd" d="M53.851 28.5323C53.851 29.2042 51.296 29.7489 48.1032 29.7489C44.9103 29.7489 42.6603 29.2042 42.6603 28.5323L42.3381 19.9177C42.3381 16.6107 45.0971 13.5112 48.1032 13.5112C51.1288 13.5112 53.851 16.9838 53.851 20.2777C52.6959 19.9532 50.4466 19.9639 50.526 21.6543C50.6055 23.3447 52.7895 23.4755 53.851 23.3447V28.5323ZM46.4521 19.3018C46.4521 18.2138 47.233 17.4983 48.0004 17.4983C48.5527 17.4983 49.0004 17.0506 49.0004 16.4983C49.0004 15.946 48.5527 15.4983 48.0004 15.4983C45.9531 15.4983 44.4521 17.2931 44.4521 19.3018V21.5319C44.4521 22.0842 44.8998 22.5319 45.4521 22.5319C46.0044 22.5319 46.4521 22.0842 46.4521 21.5319V19.3018Z" fill="black"/>
</svg>
