<svg width="100" height="100" viewBox="0 0 100 100" fill="none" xmlns="http://www.w3.org/2000/svg">
<path d="M42.8472 25.6278C42.4294 29.0993 41.7937 35.9297 38.4765 40.0184C34.3299 45.1294 32.1433 48.6751 32.1433 52.1466C32.1433 55.6182 32.1433 75.5995 32.1433 77.5082C32.1433 79.4169 34.085 82.6268 41.9306 83.6178C47.8871 84.3702 56.1635 84.2448 61.0729 83.2941C63.2504 82.8724 67.8231 80.9844 67.8231 76.8462C67.8231 73.8568 67.8231 58.4109 67.8231 52.8454C67.8231 47.2799 64.7373 44.3356 61.0729 39.0319C58.1414 34.7889 57.087 28.3279 56.9263 25.6278" stroke="black" stroke-width="2"/>
<path d="M39.1745 71.8959C38.7506 70.0711 39.1745 56.0216 39.1745 54.5716C39.1745 53.1216 42.8377 49.2294 50.6222 49.611C58.4067 49.9926 60.6962 53.7321 60.6962 54.5716C60.6962 55.4111 60.9119 71.2758 60.6962 71.8959C60.0857 73.6512 39.5984 73.7206 39.1745 71.8959Z" stroke="black" stroke-width="2"/>
<path d="M32.1504 66.9387C32.2864 71.6795 31.832 78.1011 34.6179 80.6751C35.72 81.6934 37.4215 82.7728 40.272 83.3563" stroke="black" stroke-width="2"/>
<path d="M47.2609 69.3148C41.9755 67.7129 43.6855 60.9688 45.0632 59.6804C46.1019 58.709 47.9623 58.5314 48.7665 58.9172C48.7234 58.6334 48.949 58.2583 49.9793 57.7947C52.4538 56.6813 56.6568 59.1336 57.0981 61.9331C57.9259 67.1847 53.8677 71.3171 47.2609 69.3148Z" fill="black" stroke="black" stroke-width="2"/>
<path d="M56.9109 83.8486C61.4024 83.0763 67.4214 82.3446 67.7413 74.3472C67.9334 69.5445 67.8276 64.9693 67.8276 61.4557" stroke="black" stroke-width="2"/>
<path d="M45.9723 58.7103C45.3732 58.061 43.2225 57.2385 43.8038 57.1012C44.819 56.8614 46.3668 56.7625 46.9367 56.5508C47.5066 56.3391 47.2224 54.5602 47.5914 54.6907C48.1404 54.885 49.5121 55.5561 49.6549 55.3228C49.7977 55.0894 51.0928 54.5891 51.2331 54.6907C51.3734 54.7923 50.587 56.6356 50.5285 57.3555" stroke="black" stroke-width="2"/>
<path d="M42.3259 31.6816C44.5257 32.4402 53.8862 32.8953 57.6485 31.6816" stroke="black" stroke-width="2"/>
<path d="M43.0288 27.0165C45.6676 27.5641 50.4969 28.2114 56.4714 27.2655" stroke="black" stroke-width="2"/>
<path d="M42.6473 16.9704C41.1022 18.0519 41.1344 23.0864 41.3436 25.4684C41.4134 26.5228 53.4958 27.1344 57.9698 25.9428C58.5139 25.7979 58.5987 17.8178 57.484 16.9704C55.4899 15.4544 44.5786 15.6184 42.6473 16.9704Z" stroke="black" stroke-width="2"/>
</svg>
