<svg width="100" height="100" viewBox="0 0 100 100" fill="none" xmlns="http://www.w3.org/2000/svg">
<path d="M15.9373 46.3093C14.8092 47.7884 15.0909 48.8965 16.0878 49.5699C17.8659 50.7709 26.597 52.5358 39.4074 49.5699C55.7954 45.7756 55.7196 40.7128 54.8189 39.662C54.4623 39.246 53.8223 38.8803 52.9565 38.5702" stroke="black" stroke-width="2" stroke-linecap="round"/>
<path d="M15.292 48.6724C16.343 54.223 19.5756 65.9337 21.1215 67.3772C24.4074 70.4455 36.7264 70.3473 47.4664 66.8001C58.2064 63.253 57.9786 57.2205 57.9786 56.5308C57.9786 55.979 56.0993 45.045 55.1797 40.2826" stroke="black" stroke-width="2" stroke-linecap="round"/>
<path d="M29.9512 65.3683H30.7547" stroke="black" stroke-width="2" stroke-linecap="round"/>
<path d="M22.4272 61.4376C22.5994 62.2413 23.0502 63.339 23.4636 64.0279C23.8769 64.7168 24.694 65.3231 25.9892 65.3231" stroke="black" stroke-width="2" stroke-linecap="round"/>
<path d="M54.7788 39.1182C56.6064 38.8744 60.3306 37.9473 61.0129 37.8499C61.8658 37.7281 62.4548 41.4332 62.4548 41.9815C62.4548 42.5297 56.8553 45.4277 56.4898 47.6209" stroke="black" stroke-width="2" stroke-linecap="round"/>
<path d="M55.189 41.2278C57.1691 40.6648 61.176 39.4456 61.3623 39.0729" stroke="black" stroke-width="2" stroke-linecap="round"/>
<path d="M31.1901 47.5687C22.3039 48.8129 17.554 47.3468 16.1717 46.31C14.3675 45.4233 18.3792 41.5705 22.1558 39.1268C28.5646 34.98 36.5961 34.7578 41.7797 34.7578C46.9633 34.7578 52.8132 36.0907 52.8873 39.1268C52.9613 42.1629 42.2979 46.0136 31.1901 47.5687Z" stroke="black" stroke-width="2" stroke-linecap="round"/>
<path d="M28.7228 33.8549C27.8052 34.4972 29.1052 36.8755 29.8699 37.9844C31.017 39.3609 35.6053 37.9844 36.0068 37.1813C36.4082 36.3783 36.0641 33.4534 35.4332 32.7079C34.8023 31.9623 29.8699 33.052 28.7228 33.8549Z" fill="black" stroke="black" stroke-width="2" stroke-linecap="round"/>
<path d="M82.9159 30.424C81.6829 30.4239 68.7219 34.6861 62.047 37.2997C61.5263 37.5031 62.7708 41.763 63.0121 42.0043C63.2533 42.2456 62.9361 43.5361 66.1829 43.2219C71.7922 42.679 68.1213 40.2755 83.5511 35.2356C85.5786 34.5734 84.9467 30.4241 82.9159 30.424Z" stroke="black" stroke-width="2" stroke-linecap="round"/>
<path d="M60.6079 38.1732L54.9736 39.2537L55.6683 41.0675L60.1448 39.5624L60.6079 38.1732Z" fill="black"/>
<path fill-rule="evenodd" clip-rule="evenodd" d="M62.047 37.3C68.7219 34.6863 81.6829 30.4241 82.9159 30.4242C84.9467 30.4243 85.5786 34.5736 83.5511 35.2359C74.6634 38.1389 72.1131 40.1672 70.4761 41.469C69.2712 42.4273 68.5612 42.992 66.1829 43.2221C63.5223 43.4796 63.255 42.6595 63.1124 42.2222C63.081 42.1259 63.0556 42.0481 63.0121 42.0045C62.7708 41.7633 61.5263 37.5034 62.047 37.3ZM65.1383 41.5881C64.4738 41.0532 64.767 39.7103 65.5511 39.6277C66.5313 39.5244 67.2021 40.5563 66.8925 41.227C66.583 41.8977 65.8028 42.1229 65.1383 41.5881Z" fill="black"/>
</svg>
