<svg width="100" height="100" viewBox="0 0 100 100" fill="none" xmlns="http://www.w3.org/2000/svg">
<path d="M43.8759 71.9125C43.8759 71.9125 38.9259 71.4295 35.5759 70.4305C32.2259 69.4325 30.5959 68.3585 28.2059 67.6855C25.8059 67.0125 23.1258 68.2735 20.6558 62.9375C18.1758 57.6005 23.5284 54 23.5284 54C23.5284 54 31.7359 42.6845 39.6159 40.0295C43.0459 38.8715 57.9559 39.9955 57.9559 39.9955C57.9559 39.9955 65.7687 40.5 69.8659 45.0605C78.5059 54.6775 74.8758 59.8375 72.7858 63.8385C70.6858 67.8395 68.5559 72.4205 67.3459 74.4815C66.1259 76.5425 62.2159 78.5715 62.0159 76.8165C61.8059 75.0615 62.0258 71.1505 62.0258 71.1505" stroke="black" stroke-width="2" stroke-miterlimit="10" stroke-linecap="round" stroke-linejoin="round"/>
<path d="M33.1558 69.6172C33.1558 69.6172 33.2158 73.7802 34.2258 75.5252C35.1858 77.1922 37.5358 77.5272 38.1658 77.3422C38.7958 77.1582 40.3458 71.7392 40.3458 71.7392" stroke="black" stroke-width="2" stroke-miterlimit="10" stroke-linecap="round" stroke-linejoin="round"/>
<path d="M64.2158 69.9746C64.2158 69.9746 61.6958 71.2616 58.9558 71.8706C56.2258 72.4796 53.2758 72.4106 53.2758 72.4106C53.2758 72.4106 51.3558 78.7586 50.0258 79.2186C48.6858 79.6776 44.8458 79.9996 44.5958 76.1146C44.3458 72.2286 43.9458 69.1836 43.9458 69.1836" stroke="black" stroke-width="2" stroke-miterlimit="10" stroke-linecap="round" stroke-linejoin="round"/>
<path d="M23.7759 54.0099C23.7759 54.0099 26.0259 52.8639 27.6959 54.3619C28.2459 54.8529 31.236 57.5769 31.146 60.7519C31.056 63.9269 30.0759 66.4189 27.6959 66.9129C24.9659 67.4809 23.376 66.4799 23.376 66.4799" stroke="black" stroke-width="2" stroke-miterlimit="10" stroke-linecap="round" stroke-linejoin="round"/>
<path d="M26.536 60.6933C26.536 60.4183 26.5461 61.7743 26.4561 61.5133" stroke="black" stroke-width="2" stroke-miterlimit="10" stroke-linecap="round" stroke-linejoin="round"/>
<path d="M23.5957 59.7727C23.5957 60.0067 23.5757 60.7547 23.5757 60.7337" stroke="black" stroke-width="2" stroke-miterlimit="10" stroke-linecap="round" stroke-linejoin="round"/>
<path d="M34.716 51.2323C34.326 50.7303 32.386 52.8023 33.716 53.1153C35.106 53.4423 35.876 52.7043 34.716 51.2323Z" stroke="black" stroke-width="2" stroke-miterlimit="10" stroke-linecap="round" stroke-linejoin="round"/>
<path d="M75.4658 53.2102C79.7658 55.3592 81.3958 48.7702 78.1558 49.5802C75.5558 50.2302 78.4458 53.9912 78.9458 55.0002C79.1358 55.3772 79.3558 56.0632 79.2458 56.4912C79.2158 56.6212 78.9458 57.2992 79.0458 57.0882" stroke="black" stroke-width="2" stroke-miterlimit="10" stroke-linecap="round" stroke-linejoin="round"/>
<path d="M42.2959 49.1182C42.2959 49.1182 43.5259 48.4573 45.0259 48.0783C46.5359 47.7003 47.4159 47.6962 48.3059 47.6052C50.3559 47.3952 48.0059 52.2392 45.9459 54.3552" stroke="black" stroke-width="2" stroke-miterlimit="10" stroke-linecap="round" stroke-linejoin="round"/>
<path d="M29.0359 47.3766C29.0359 47.3766 28.5159 45.5836 28.2959 44.6266C27.6059 41.6306 28.396 40.0326 28.396 40.0326C28.396 40.0326 31.346 39.7526 34.006 42.1036" stroke="black" stroke-width="2" stroke-miterlimit="10" stroke-linecap="round" stroke-linejoin="round"/>
<path d="M43.2856 40.1076C43.2856 40.1076 44.5283 41.9998 46.0283 41.9998C47.0283 41.9998 47.2583 41.9908 50.5283 41.9998C53.7983 42.0088 53.5283 41.9998 55.0283 41.9998C56.235 41.9998 56.4357 40.2556 56.4357 40.2556C56.4357 40.2556 52.7857 39.7676 49.4957 39.7306C46.2057 39.6936 43.2856 40.1076 43.2856 40.1076Z" fill="black" stroke="black" stroke-width="2" stroke-miterlimit="10" stroke-linecap="round" stroke-linejoin="round"/>
<path d="M44.7557 23.1906C39.0457 28.2506 47.2956 41.0006 54.5356 34.4076C61.7756 27.8146 52.7257 16.1336 44.7557 23.1906Z" fill="black" stroke="black" stroke-width="2" stroke-miterlimit="10" stroke-linecap="round" stroke-linejoin="round"/>
</svg>
