<svg width="100" height="100" viewBox="0 0 100 100" fill="none" xmlns="http://www.w3.org/2000/svg">
<path d="M62.7964 39.9106L64.4561 41.5113" stroke="black" stroke-width="2"/>
<ellipse cx="64.8049" cy="41.8217" rx="1.01544" ry="2.3499" transform="rotate(46.2771 64.8049 41.8217)" fill="black"/>
<path d="M57.9966 44.1797L59.6563 45.7803" stroke="black" stroke-width="2"/>
<ellipse cx="60.0048" cy="46.0905" rx="1.01544" ry="2.3499" transform="rotate(46.2771 60.0048 46.0905)" fill="black"/>
<path d="M52.7791 49.2786L54.4388 50.8792" stroke="black" stroke-width="2"/>
<ellipse cx="54.7873" cy="51.1895" rx="1.01544" ry="2.3499" transform="rotate(46.2771 54.7873 51.1895)" fill="black"/>
<path d="M38.6943 53.4191L37.1594 51.6984" stroke="black" stroke-width="2"/>
<ellipse cx="36.8351" cy="51.3628" rx="1.01544" ry="2.3499" transform="rotate(-129.418 36.8351 51.3628)" fill="black"/>
<path d="M43.3708 48.8033L41.8359 47.0827" stroke="black" stroke-width="2"/>
<ellipse cx="41.5116" cy="46.7471" rx="1.01544" ry="2.3499" transform="rotate(-129.418 41.5116 46.7471)" fill="black"/>
<path d="M63.5049 75.8155C62.6279 75.7255 60.9751 76.1392 58.3845 77.1647C55.1463 78.4464 47.3208 86.6768 37.4038 84.8554C27.4868 83.0339 26.4075 68.5969 30.1854 63.6047C33.9633 58.6125 55.4164 37.9016 61.0157 32.7744C66.6151 27.6473 65.8288 22.9776 60.1486 21.8291C57.9948 21.3936 56.6981 22.5876 55.4164 22.79C54.3909 22.952 47.6281 16.1713 47.3883 15.1668C47.1484 14.1622 51.5155 16.1042 53.0104 16.6408C54.5933 17.209 55.4773 17.9771 57.3476 17.3322C59.2179 16.6873 66.7635 16.0423 69.4722 23.6525C72.1809 31.2626 66.2476 35.7126 62.507 39.3887C58.7664 43.0648 39.3915 61.2341 37.2258 65.6373C36.1666 67.7911 38.9671 71.4862 42.1918 69.3134C45.4164 67.1406 47.67 63.4162 47.67 59.3744M63.5049 75.8155C66.6048 75.5444 70.0806 74.2894 66.174 67.1406C60.8368 57.3736 45.8529 52.3479 47.843 60.4676C49.8331 68.5874 55.5727 75.596 63.5049 75.8155Z" stroke="black" stroke-width="2"/>
<path d="M39.0181 80.5938C39.6142 80.7641 40.7042 80.747 40.9852 80.5938" stroke="black" stroke-width="2" stroke-linecap="round"/>
<path d="M32.3201 74.6201C32.385 75.6805 33.0472 78.113 35.1767 79.3595" stroke="black" stroke-width="2" stroke-linecap="round"/>
<path d="M70.6445 65.7568C70.7961 65.6962 71.2448 65.5295 71.827 65.3475" stroke="black" stroke-width="2" stroke-linecap="round"/>
<path d="M58.6154 65.582C55.2968 62.3821 48.9762 59.9649 53.5531 66.4834C55.6556 69.4778 60.5368 73.1308 61.8746 72.8633C64.6485 72.3085 62.4613 69.2905 58.6154 65.582Z" stroke="black" stroke-width="2"/>
<path d="M52.4801 62.3666L51.9465 64.8564L55.8111 69.3379L59.2736 72.6458L61.9056 73.1793L62.617 71.4009L61.9056 69.3379L58.8044 65.7687L54.543 62.3666H52.4801Z" fill="black"/>
<path d="M67.8306 58.3983L70.6446 55.8971" stroke="black" stroke-width="2" stroke-linecap="round"/>
<path d="M62.7967 54.787L63.66 52.5586" stroke="black" stroke-width="2" stroke-linecap="round"/>
<path d="M57.3447 17.5293L57.9145 21.7212" stroke="black" stroke-width="2"/>
<path d="M57.1915 18.2094L47.8291 15.1036L51.138 19.3768L55.4619 22.5333L57.667 21.8414L57.1915 18.2094Z" fill="black"/>
</svg>
