<svg width="100" height="100" viewBox="0 0 100 100" fill="none" xmlns="http://www.w3.org/2000/svg">
<path d="M20.4807 35.6202C20.0576 35.1971 20.3044 30.9061 20.4807 28.155C20.5176 27.5258 26.5351 27.802 46.0747 27.802C59.1951 27.7962 72.0519 27.5144 72.2654 28.155C72.6887 29.4247 72.3712 79.0016 72.2654 79.7423C72.1596 80.483 64.6962 80.483 64.1672 79.7423C63.6382 79.0016 64.9602 35.9003 63.7963 35.9003C62.6324 35.9003 21.0097 36.1492 20.4807 35.6202Z" stroke="black" stroke-width="2"/>
<path d="M76.9744 67.4553C77.3975 67.8785 77.1507 71.4748 76.9744 74.2259C76.9579 74.5056 75.7595 74.6064 72.7162 74.632L72.7162 67.2557C75.2596 67.2903 76.8721 67.3531 76.9744 67.4553Z" fill="black"/>
<path d="M25.1897 22.6386C25.2955 21.8979 32.2464 21.898 32.7754 22.6386C32.8792 22.7838 32.9209 24.5682 32.9298 27.3434L25.1163 27.3434C25.1439 24.5397 25.1703 22.7739 25.1897 22.6386Z" fill="black"/>
<path d="M51.3803 74.5789C38.26 74.5846 25.4032 74.8664 25.1897 74.2258C24.9072 73.3783 24.9546 51.0087 25.0489 36.0054L32.9 36.0054C32.8157 48.9931 32.6401 67.4553 33.385 67.4553C34.1104 67.4553 51.2411 67.2498 63.4576 67.2231L63.4576 74.6114C60.1752 74.5956 56.1869 74.5789 51.3803 74.5789Z" fill="black"/>
<path d="M76.9744 67.4553C77.3975 67.8785 77.1507 71.4748 76.9744 74.2259C76.9579 74.5056 75.7595 74.6064 72.7162 74.632L72.7162 67.2557C75.2596 67.2903 76.8721 67.3531 76.9744 67.4553Z" stroke="black" stroke-width="2"/>
<path d="M25.1897 22.6386C25.2955 21.8979 32.2464 21.898 32.7754 22.6386C32.8792 22.7838 32.9209 24.5682 32.9298 27.3434L25.1163 27.3434C25.1439 24.5397 25.1703 22.7739 25.1897 22.6386Z" stroke="black" stroke-width="2"/>
<path d="M51.3803 74.5789C38.26 74.5846 25.4032 74.8664 25.1897 74.2258C24.9072 73.3783 24.9546 51.0087 25.0489 36.0054L32.9 36.0054C32.8157 48.9931 32.6401 67.4553 33.385 67.4553C34.1104 67.4553 51.2411 67.2498 63.4576 67.2231L63.4576 74.6114C60.1752 74.5956 56.1869 74.5789 51.3803 74.5789Z" stroke="black" stroke-width="2"/>
<path d="M34.1865 66.3626L63.4026 37.1224M80.1283 20.3828L72.1214 28.3963" stroke="black" stroke-width="2" stroke-linecap="round"/>
</svg>
