<svg width="100" height="100" viewBox="0 0 100 100" fill="none" xmlns="http://www.w3.org/2000/svg">
<path d="M17.0795 68.9693C17.2935 68.1134 23.8114 56.0416 27.2884 50.1126C23.5458 42.5644 16.5503 27.3745 16.5503 27.001C16.5503 26.5342 16.2921 24.5617 16.5503 23.3438C16.9617 21.4041 17.9354 19.3535 20.5565 19.3536H79.6673C82.0745 19.3536 83.9468 20.156 83.9468 21.8946V26.9765C83.9468 27.8324 76.9034 42.7572 73.3817 50.1126C76.9034 56.0415 83.9468 68.1133 83.9468 68.9693V76.1431C83.9468 79.4865 80.4092 80.4448 77.258 80.4448C75.1182 80.4448 24.7023 80.4704 22.1614 80.4704C19.6204 80.4704 17.0795 78.4865 17.0795 76.6142C17.0795 74.7419 16.812 70.0391 17.0795 68.9693Z" stroke="black" stroke-width="2"/>
<path d="M16.4648 26.9688H83.8363" stroke="black" stroke-width="2"/>
<path d="M17.1104 69.0537C17.1104 69.0537 29.4168 69.0537 33.8118 69.0537C38.2068 69.0537 50.5133 69.0537 50.5133 69.0537H83.9162" stroke="black" stroke-width="2"/>
<path d="M27.5967 50.0576H73.1785" stroke="black" stroke-width="2"/>
<path d="M25.7386 64.3727C25.2399 64.2637 30.3209 53.7911 30.8583 53.7911C31.3956 53.7911 69.009 53.856 69.5111 53.856C70.0132 53.856 75.1776 64.504 74.6236 64.4376C74.0697 64.3713 26.2374 64.4818 25.7386 64.3727Z" fill="black" stroke="black" stroke-width="2"/>
<path d="M22.1162 59.3174H78.6988" stroke="black" stroke-width="2"/>
<path d="M63.6533 23.1836H65.1923" stroke="black" stroke-width="2" stroke-linecap="round"/>
<path d="M69.8975 23.1836H70.2284" stroke="black" stroke-width="2" stroke-linecap="round"/>
<path d="M73.6201 23.1836H73.9511" stroke="black" stroke-width="2" stroke-linecap="round"/>
<path d="M61.6143 74.9242C61.6143 72.4771 65.5218 72.3195 65.6927 74.9242C65.8636 77.5288 61.6143 77.8605 61.6143 74.9242Z" stroke="black" stroke-width="2" stroke-linecap="round"/>
<path d="M71.3672 74.9598C71.3672 73.4552 73.7698 73.3582 73.8749 74.9598C73.9799 76.5613 71.3672 76.7652 71.3672 74.9598Z" fill="black" stroke="black" stroke-width="2" stroke-linecap="round"/>
<path d="M17.0835 69.4629C16.7679 76.6534 17.2415 77.6227 19.2629 79.0352C21.1651 80.3644 22.2656 80.4766 25.5209 80.4766" stroke="black" stroke-width="2"/>
<path d="M83.9254 69.6584C84.2827 77.8245 82.7425 78.3078 81.0345 79.4339C79.7236 80.2982 77.7273 80.4351 74.4721 80.4351" stroke="black" stroke-width="2"/>
</svg>
