<svg width="100" height="100" viewBox="0 0 100 100" fill="none" xmlns="http://www.w3.org/2000/svg">
<path d="M33.6201 81.7637L44.9302 40.4328L45.9202 35.3317C45.9202 35.3317 41.5602 31.0857 43.0602 25.4137C44.8502 18.6647 50.3201 17.1617 54.8901 18.3887C59.4601 19.6147 62.8401 25.1317 61.3501 30.3197C59.8501 35.5077 53.6602 37.6658 53.6602 37.6658C53.6602 37.6658 49.7701 58.4488 44.7601 69.4728C39.7401 80.4968 33.6201 81.7637 33.6201 81.7637Z" stroke="black" stroke-width="2" stroke-miterlimit="10" stroke-linecap="round" stroke-linejoin="round"/>
<path d="M56.29 27.8302C56.3 30.0542 54.5599 31.8672 52.3999 31.8792C50.2399 31.8922 48.47 30.0992 48.46 27.8752C48.45 25.6512 50.1899 23.8382 52.3499 23.8262C54.5199 23.8132 56.28 25.6062 56.29 27.8302Z" stroke="black" stroke-width="2" stroke-miterlimit="10" stroke-linejoin="round"/>
<path d="M41.89 48.9314C37.9 49.4984 33.99 50.2204 30.8 51.1344C19.16 54.4644 17 60.3384 17 60.3384L40.14 57.5684" stroke="black" stroke-width="2" stroke-miterlimit="10" stroke-linecap="round" stroke-linejoin="round"/>
<path d="M49.4004 56.4595L59.5504 55.2444L64.7404 55.0175C64.7404 55.0175 68.3004 59.9545 74.1304 59.3075C81.0604 58.5385 83.2504 52.0864 82.7704 48.4814C82.1104 43.5304 77.3203 39.7825 71.9703 40.5005C66.6203 41.2175 63.5704 47.0185 63.5704 47.0185C63.5704 47.0185 58.3404 47.2125 51.6504 47.8185" stroke="black" stroke-width="2" stroke-miterlimit="10" stroke-linecap="round" stroke-linejoin="round"/>
<path d="M73.6898 45.8659C71.4898 45.5249 69.4397 46.9819 69.1097 49.1189C68.7797 51.2559 70.2897 53.2649 72.4897 53.6049C74.6897 53.9459 76.7398 52.4889 77.0698 50.3519C77.3998 48.2149 75.8898 46.2059 73.6898 45.8659Z" stroke="black" stroke-width="2" stroke-miterlimit="10" stroke-linejoin="round"/>
<path d="M46.9704 52.7204C46.9704 53.2674 46.5304 53.7134 45.9804 53.7164C45.4404 53.7194 44.9904 53.2783 44.9904 52.7323C44.9804 52.1853 45.4204 51.7393 45.9704 51.7363C46.5204 51.7333 46.9604 52.1744 46.9704 52.7204Z" stroke="black" stroke-width="2" stroke-miterlimit="10" stroke-linejoin="round"/>
</svg>
