<svg width="100" height="100" viewBox="0 0 100 100" fill="none" xmlns="http://www.w3.org/2000/svg">
<path d="M49.1655 63.7618C56.3795 64.2308 73.038 63.9316 73.038 63.9316C73.038 63.9316 70.038 63.9745 68.038 65.8678C66.4851 67.3378 66.038 70.3478 66.038 70.3478L36.038 70.5638C36.038 70.5638 36.4429 66.9316 35.0378 65.4316C33.6328 63.9316 33.5378 63.7607 33.5378 63.7607C33.5378 63.7607 37.5378 63.7624 43.038 63.7612" stroke="black" stroke-width="2" stroke-miterlimit="10" stroke-linecap="round" stroke-linejoin="round"/>
<path d="M36.3185 49.2862L38.2595 43.7242C40.2125 37.9202 41.6265 33.7202 41.6265 33.7202C41.6265 33.7202 40.4585 33.6742 39.4315 33.3152C38.4055 32.9562 37.3925 32.2422 37.3925 32.2422L27.0378 61.9316M32.0378 62.4316C32.5208 61.3386 34.7435 54.1872 34.7435 54.1872" stroke="black" stroke-width="2" stroke-miterlimit="10" stroke-linecap="round" stroke-linejoin="round"/>
<path d="M42.5405 63.297L34.7545 54.752" stroke="black" stroke-width="2" stroke-miterlimit="10" stroke-linecap="round" stroke-linejoin="round"/>
<path d="M49.0595 63.7231L36.3585 49.2861" stroke="black" stroke-width="2" stroke-miterlimit="10" stroke-linecap="round" stroke-linejoin="round"/>
<path d="M36.4124 30.5045C36.6884 27.8515 36.8804 23.4495 38.9194 23.5515C40.9594 23.6535 46.1474 24.9916 46.0094 26.3776C45.8724 27.7636 45.2754 32.3976 42.7954 33.5936C41.7484 34.0976 36.1714 32.8345 36.4124 30.5045Z" stroke="black" stroke-width="2" stroke-miterlimit="10" stroke-linecap="round" stroke-linejoin="round"/>
<path d="M42.2764 27.9467C42.2764 27.9467 50.2044 33.2267 49.4074 34.3197C48.3194 35.8127 46.3334 34.1857 44.5624 32.7257C42.7924 31.2667 41.038 29.9313 41.038 29.9313C41.038 29.9313 39.5356 28.9313 40.2265 28.0168C41.038 26.9428 42.2764 27.9467 42.2764 27.9467Z" fill="black" stroke="black" stroke-width="2" stroke-miterlimit="10" stroke-linecap="round" stroke-linejoin="round"/>
<path d="M36.7355 26.2909C36.7355 26.2909 33.704 24.478 33.538 23.41C33.371 22.342 34.0379 21.4315 35.5379 22.4316C37.0379 23.4308 38.0379 23.9312 38.0379 23.9312L36.7355 24.9312C36.3465 25.6522 36.7355 26.2909 36.7355 26.2909Z" fill="black" stroke="black" stroke-width="2" stroke-miterlimit="10" stroke-linejoin="round"/>
<path d="M80.0378 70.9316C80.0378 72.961 79.4643 74.6982 78.3595 75.9168C77.2697 77.1189 75.559 77.9316 73.0378 77.9316C69.1718 77.9316 66.0378 74.7976 66.0378 70.9316C66.0378 67.0656 69.1718 63.9316 73.0378 63.9316C75.2865 63.9316 77.0167 64.7304 78.1878 65.9634C79.3664 67.2044 80.0378 68.9484 80.0378 70.9316Z" stroke="black" stroke-width="2"/>
<path d="M74.2306 69.5272C74.7652 69.8358 74.9848 70.289 75.0193 70.8022C75.0566 71.3566 74.8673 71.9507 74.5857 72.3542C74.1779 72.9383 72.9685 73.5101 71.7305 72.7953C70.9361 72.3367 70.6389 71.2282 71.0952 70.4379C71.709 69.3747 72.2423 69.1094 72.6036 69.0508C73.0186 68.9834 73.5403 69.1286 74.2306 69.5272Z" fill="black" stroke="black" stroke-width="2"/>
<path d="M36.0379 69.9316C36.0379 74.3499 32.4561 77.9316 28.0379 77.9316C23.516 77.9316 19.6052 74.309 20.0329 70.0311C20.4944 65.4157 23.6991 61.9316 28.0379 61.9316C32.4561 61.9316 36.0379 65.5134 36.0379 69.9316Z" stroke="black" stroke-width="2"/>
<path d="M29.3673 68.3973C29.902 68.706 30.1215 69.1591 30.156 69.6723C30.1933 70.2267 30.0041 70.8208 29.7224 71.2243C29.3146 71.8084 28.1053 72.3802 26.8672 71.6654C26.0728 71.2068 25.7756 70.0983 26.2319 69.308C26.8457 68.2448 27.3791 67.9795 27.7403 67.9209C28.1553 67.8535 28.677 67.9987 29.3673 68.3973Z" fill="black" stroke="black" stroke-width="2"/>
</svg>
