<svg width="100" height="100" viewBox="0 0 100 100" fill="none" xmlns="http://www.w3.org/2000/svg">
<path d="M73.7976 46.9178C76.2875 46.8589 77.2003 45.0984 77.552 45.1147C77.9037 45.1309 81.0497 45.1147 84.9989 45.908" stroke="black" stroke-width="2" stroke-linecap="round"/>
<path d="M72.5618 41.4179C66.8265 39.8377 68.0169 37.0699 67.3956 36.7437C66.7744 36.4174 64.3438 36.5504 61.4738 35.4344C59.5132 34.672 58.8002 31.4581 60.7987 31.5719C61.9584 31.6379 63.7598 32.0553 65.9421 32.0841C66.9177 32.0969 69.0239 32.1757 70.4663 33.2164C72.2693 34.5172 75.608 36.9038 77.3175 37.0411C78.6851 37.151 83.1174 37.6219 84.2908 37.5894" stroke="black" stroke-width="2" stroke-linecap="round"/>
<path d="M61.7797 37.407C62.1204 36.3896 61.4151 35.2499 60.328 35.0309C59.2408 34.8119 56.4487 34.9508 55.5254 35.2752C54.3713 35.6807 54.4141 37.9654 55.5254 38.3114C56.6368 38.6574 61.439 38.4244 61.7797 37.407Z" stroke="black" stroke-width="2" stroke-linecap="round"/>
<path d="M56.0581 38.6794C55.7698 39.316 55.4039 40.7525 56.2465 41.4053C57.2999 42.2213 65.4806 41.7335 66.3515 40.9239C67.2225 40.1143 66.6893 38.421 65.2965 38.1355C63.8 37.8288 62.2664 37.8971 61.1516 37.9597" stroke="black" stroke-width="2" stroke-linecap="round"/>
<path d="M58.2903 42.162C58.1832 42.9216 58.2678 44.5726 59.4629 45.1001C60.9567 45.7594 67.9131 44.5451 68.6883 43.5364C69.4636 42.5278 68.6359 40.8503 67.0304 40.4717" stroke="black" stroke-width="2" stroke-linecap="round"/>
<path d="M61.2576 45.8248C61.1288 46.7477 62.7965 48.4133 63.9399 48.2589C65.3691 48.0658 69.3387 47.5178 70.0688 45.8248C70.4378 44.9695 69.3404 43.9044 68.5036 43.9044" stroke="black" stroke-width="2" stroke-linecap="round"/>
<path d="M68.2469 47.506C69.2839 48.9276 71.2438 51.8338 71.9219 51.7046C72.7696 51.5433 75.3642 49.5582 75.3387 49.0851C75.3183 48.7066 71.257 43.7696 69.2289 41.3483" stroke="black" stroke-width="2" stroke-linecap="round"/>
<path d="M72.0148 51.6232L68.5894 47.4573L69.7929 46.2076L70.7649 43.708L75.3937 49.17L72.0148 51.6232Z" fill="black"/>
<path d="M67.5356 37.0913H64.9614L65.2157 38.2989L67.5356 39.157V37.0913Z" fill="black"/>
<path d="M57.1175 34.7745C56.3895 34.1387 55.0745 32.926 55.3288 32.6349C55.6467 32.2709 58.2388 30.1235 58.6052 30.3991C58.8983 30.6196 59.3533 31.1533 59.6734 31.497" stroke="black" stroke-width="2" stroke-linecap="round"/>
<path d="M51.8446 34.5654C52.7488 34.6169 57.5159 30.3539 59.6549 28.6313C60.3815 28.0831 61.9643 27.1571 61.9643 25.9467C61.9643 25.1304 59.1258 20.7009 57.655 20.9596C56.1841 21.2184 47.4987 26.5786 47.3416 29.3363C47.2214 31.447 50.2169 34.4727 51.8446 34.5654Z" stroke="black" stroke-width="2" stroke-linecap="round"/>
<path d="M58.4817 30.6904L55.1865 32.8479L56.991 34.417L60.0507 34.1817V31.9457L58.4817 30.6904Z" fill="black"/>
<path d="M53.3484 23.1023C52.9917 22.4621 52.205 21.1958 51.9117 21.2516C51.5449 21.3214 48.3232 23.6549 48.486 23.9816C48.6162 24.243 49.3433 25.0093 49.7395 25.4854" stroke="black" stroke-width="2" stroke-linecap="round"/>
<path d="M51.8909 21.4229L48.3813 23.476L49.8377 25.2906L52.9176 22.927L51.8909 21.4229Z" fill="black"/>
<path d="M14.978 46.1143C19.4079 47.4231 23.295 47.2794 24.0377 48.6975C24.9661 50.4701 26.4855 58.742 26.9075 59.6705C27.3295 60.599 29.2709 66.076 29.8618 67.0045C30.3344 67.7473 31.7552 75.1378 31.7552 75.7597" stroke="black" stroke-width="2" stroke-linecap="round"/>
<path d="M27.4473 60.1187C28.499 60.505 31.0403 61.3677 32.7917 61.7284C34.981 62.1792 35.6249 61.8572 38.7157 64.3041C41.8065 66.751 45.4657 74.1791 46.5714 75.1218C47.6771 76.0645 50.7957 77.8837 52.5301 79.6181" stroke="black" stroke-width="2" stroke-linecap="round"/>
<path d="M30.3687 66.7334C33.4425 66.413 35.8008 63.661 38.3556 64.0539" stroke="black" stroke-width="2" stroke-linecap="round"/>
<path d="M68.3101 67.1418C62.3274 64.7681 49.9114 59.8608 48.1093 59.2214C45.8567 58.422 44.6214 58.422 41.6422 56.6781C38.6629 54.9341 33.5036 49.4843 32.777 47.6677C32.1957 46.2144 33.1922 44.8908 34.3757 44.9064C35.5592 44.922 39.1587 48.0512 39.6231 48.4924" stroke="black" stroke-width="2" stroke-linecap="round"/>
<path d="M35.667 58.5166L35.3453 58.5519" stroke="black" stroke-width="2" stroke-linecap="round"/>
<path d="M28.9441 56.9449C28.7521 57.1586 33.5071 49.7354 33.5071 49.7354L35.5063 51.5024C35.5063 51.5024 29.1362 56.7311 28.9441 56.9449Z" fill="black" stroke="black" stroke-width="2" stroke-linecap="round"/>
<path d="M23.951 49.1709C22.6173 51.0603 19.861 54.9724 19.5054 55.5059C19.1498 56.0394 16.4599 56.8801 14.978 57.3617" stroke="black" stroke-width="2" stroke-linecap="round"/>
<path d="M33.7305 45.0089C34.0594 44.1187 35.1413 42.0074 35.9076 41.8448C37.6113 41.4834 40.8714 44.3993 41.6841 45.2411" stroke="black" stroke-width="2" stroke-linecap="round"/>
<path d="M25.3866 43.7819L23.4185 40.9971" stroke="black" stroke-width="2" stroke-linecap="round"/>
<path d="M36.5835 41.4881C36.958 40.7826 37.8691 39.3664 38.5171 39.3454C39.1652 39.3245 41.9576 41.009 43.2729 41.8539" stroke="black" stroke-width="2" stroke-linecap="round"/>
<path d="M28.9385 41.8913V39.9472V38.003" stroke="black" stroke-width="2" stroke-linecap="round"/>
<path d="M21.5575 38.2824L21.3867 38.0029" stroke="black" stroke-width="2" stroke-linecap="round"/>
<path d="M38.7114 39.0666C38.7507 38.5697 39.0176 37.4894 39.7709 37.1441C40.7125 36.7125 45.8132 38.9097 47.0295 40.283C48.2459 41.6562 49.2268 48.2872 50.2861 50.0136C51.3455 51.74 64.4112 55.899 69.9436 56.566" stroke="black" stroke-width="2" stroke-linecap="round"/>
<path d="M39.9695 37.0879C36.5781 38.0177 35.2617 38.1426 34.5177 38.5802C33.5878 39.1271 32.0381 41.3818 34.9918 42.175" stroke="black" stroke-width="2" stroke-linecap="round"/>
<path d="M44.16 34.6661C43.7703 34.4991 42.6055 36.2206 42.0718 37.1023L45.9349 39.1903C46.5265 38.6567 47.7098 37.492 47.7098 37.1023C47.7098 36.6152 44.6472 34.8749 44.16 34.6661Z" fill="black" stroke="black" stroke-width="2" stroke-linecap="round"/>
<path d="M28.9385 33.6353V33.9589" stroke="black" stroke-width="2" stroke-linecap="round"/>
</svg>
