<svg width="100" height="100" viewBox="0 0 100 100" fill="none" xmlns="http://www.w3.org/2000/svg">
<path d="M58.4992 82.097C58.4992 84.0205 50.6914 85.5797 41.06 85.5797C26.5699 85.5797 26.1048 84.367 26.1048 82.4435C26.1048 82.01 25.731 82.5428 26.2603 82.1326C28.2639 83.5317 29.851 83.2491 31.5628 82.8235C33.8083 82.1326 33.3436 79.0755 35.0822 78.8966C36.8361 78.7162 38.8329 78.6143 41.06 78.6143C50.6914 78.6143 58.4992 80.1735 58.4992 82.097Z" fill="black"/>
<circle cx="64.4995" cy="41.5" r="1.5" fill="black"/>
<circle cx="47.4995" cy="33.5" r="1.5" fill="black"/>
<circle cx="58.9995" cy="29" r="1" fill="black"/>
<path fill-rule="evenodd" clip-rule="evenodd" d="M54.5188 55.6897C59.4658 55.9493 63.2606 54.1008 64.2607 53.5943C68.3406 51.5354 70.4825 48.6172 71.301 47.4473C71.3074 47.4377 71.3162 47.4249 71.3272 47.4088C71.7925 46.7274 76.2081 40.2615 75.594 32.8325C76.5372 36.4384 77.0514 41.8249 74.0431 47.0135C70.6697 52.808 64.9917 54.8845 63.0189 55.4953C54.2482 58.1655 42.4764 54.9324 37.9964 45.7938C35.8165 41.4193 35.9957 36.9933 36.7111 33.6788C36.2854 36.6345 36.2926 40.5247 37.7942 44.5191C40.3769 51.2052 47.6892 55.3787 54.5188 55.6897Z" fill="black"/>
<path d="M44.2544 61.6491C44.9681 62.1476 45.2016 63.0615 44.7872 63.8106L34.4002 82.4769C34.022 83.1388 33.4436 83.667 32.7632 83.9488C31.7116 84.3843 30.1677 84.4756 28.3839 83.8428" stroke="black" stroke-width="2" stroke-miterlimit="10"/>
<path d="M38.658 57.5103L43.0508 51.1436" stroke="black" stroke-width="2" stroke-miterlimit="10"/>
<path d="M43.5306 61.0512L48.1631 53.8633" stroke="black" stroke-width="2" stroke-miterlimit="10"/>
<path d="M43.5306 61.9545L48.1631 54.7666" stroke="black" stroke-width="2" stroke-miterlimit="10"/>
<path d="M61.9703 54.3239C53.2257 57.0067 42.0035 53.1651 37.5427 43.968C33.4646 35.6953 37.7105 27.2238 38.0994 26.413C40.9241 20.9844 45.5813 18.4061 47.0513 17.5808C48.6449 16.7043 52.1671 14.8848 56.655 15.0475C64.2258 15.305 70.5625 20.9821 73.4491 27.0775C74.2617 28.6899 78.0197 37.2396 73.4096 45.3566C70.1411 51.1135 63.9645 53.7146 61.9703 54.3239Z" stroke="black" stroke-width="2" stroke-miterlimit="10"/>
<path d="M61.8012 48.6479C61.0226 49.0426 58.2536 50.4058 54.6101 50.1822C49.5616 49.8908 44.1218 46.7296 42.1531 41.6256C40.6839 37.9029 41.5515 34.2231 42.0487 31.9239C42.3101 30.8051 42.6294 29.3013 43.5929 27.603C45.2144 24.6937 47.6045 22.7656 49.2855 21.925C55.18 18.8344 65.4602 21.4348 69.021 28.9833C72.3924 36.2494 67.2905 43.7039 67.0833 44.0784C66.3595 44.9556 64.7921 47.1206 61.8012 48.6479Z" stroke="black" stroke-width="2" stroke-miterlimit="10"/>
<path d="M38.7382 58.0543L43.2934 61.0044C44.0071 61.5029 44.2406 62.4167 43.8262 63.1659L33.4392 81.8321C33.0611 82.494 32.4827 83.0223 31.8022 83.3041C30.7506 83.7395 29.1021 84.1335 27.3182 83.5007C25.2467 82.6983 23.8332 80.685 23.646 78.3082C23.6128 77.5279 23.7906 76.7324 24.2561 76.1065C28.5399 70.0014 32.209 64.5118 36.4564 58.494C36.9582 57.7809 37.9627 57.5815 38.7382 58.0543Z" stroke="black" stroke-width="2" stroke-miterlimit="10"/>
</svg>
