<svg width="100" height="100" viewBox="0 0 100 100" fill="none" xmlns="http://www.w3.org/2000/svg">
<path fill-rule="evenodd" clip-rule="evenodd" d="M53.3739 80.3225C51.4068 81.7323 47.4522 81.6618 45.4851 80.3225C41.4105 77.5029 35.5253 72.5496 32.0829 69.2365C19.8793 57.4912 21.0874 32.0773 21.8944 30.6153C22.4816 29.5515 27.8047 27.8896 32.1099 26.5455C33.7221 26.0422 35.1915 25.5834 36.2161 25.2173C39.9767 23.8736 46.3486 21.1805 48.5264 20.0527C48.8777 19.8412 49.2992 19.7002 49.6505 19.7002C49.9505 19.7002 50.148 19.803 50.3744 19.9209C50.413 19.941 50.4525 19.9616 50.4935 19.9822C54.2169 21.9559 61.6169 25.9034 61.6169 25.9034C61.6169 25.9034 75.5 31.5956 76.0654 32.4921C76.6307 33.3886 76.1821 43.9524 75.6544 49.7016C75.1266 55.4507 74.3212 58.6931 71.8624 63.416C69.1661 68.6289 65.0219 72.0012 60.6005 75.5991C60.2987 75.8447 59.9955 76.0914 59.6915 76.3397C59.0077 76.7463 58.3292 77.2342 57.6209 77.7436C56.3645 78.6472 55.0142 79.6182 53.3739 80.3225ZM46.4048 23.9402C39.5004 27.112 32.4296 29.783 25.1092 31.9532L23.6122 32.3197C23.3625 35.0218 23.3623 37.3787 23.6119 39.9662C24.0278 44.3065 24.5269 48.6469 25.6915 52.8203C28.7694 63.5043 36.7553 72.4354 46.5712 77.6105C46.6473 77.6487 46.7228 77.6869 46.7977 77.7248C47.5415 78.1014 48.2355 78.4528 49.0668 78.5286C50.5641 78.6956 51.9783 77.9444 53.2261 77.1931C60.7128 72.8528 67.95 67.2604 71.1942 59.2474C73.2739 54.1558 73.5234 48.5634 73.6066 42.971C73.773 40.5506 73.8562 38.1301 73.9394 35.7096L73.9394 35.7093C73.9394 35.0415 73.9394 34.2069 73.5234 33.706C73.3088 33.4189 72.9712 33.2553 72.6692 33.1089C72.62 33.0851 72.5718 33.0617 72.5252 33.0383C69.0314 31.2855 61.711 28.3641 61.711 28.3641C61.711 28.3641 50.6473 23.5229 49.9818 23.2725C48.8719 22.8747 47.6863 23.3868 46.5693 23.8693C46.5143 23.893 46.4595 23.9167 46.4048 23.9402Z" fill="black"/>
<path d="M45.4851 80.3225L44.9161 81.1448L44.9223 81.1491L45.4851 80.3225ZM53.3739 80.3225L52.9793 79.4036L52.8796 79.4464L52.7913 79.5097L53.3739 80.3225ZM32.0829 69.2365L31.3895 69.957L31.3895 69.957L32.0829 69.2365ZM21.8944 30.6153L21.0189 30.132H21.0189L21.8944 30.6153ZM32.1099 26.5455L31.8119 25.591L32.1099 26.5455ZM36.2161 25.2173L36.5526 26.159L36.2161 25.2173ZM48.5264 20.0527L48.9863 20.9406L49.0148 20.9259L49.0422 20.9094L48.5264 20.0527ZM50.3744 19.9209L50.8362 19.0339V19.0339L50.3744 19.9209ZM50.4935 19.9822L50.9619 19.0986L50.952 19.0934L50.9419 19.0883L50.4935 19.9822ZM61.6169 25.9034L61.1463 26.7857L61.1908 26.8095L61.2376 26.8287L61.6169 25.9034ZM75.6544 49.7016L74.6586 49.6102L75.6544 49.7016ZM71.8624 63.416L70.9754 62.9542L70.9742 62.9565L71.8624 63.416ZM60.6005 75.5991L61.2317 76.3747L60.6005 75.5991ZM59.6915 76.3397L60.2026 77.1992L60.2665 77.1612L60.3242 77.1142L59.6915 76.3397ZM57.6209 77.7436L57.0371 76.9317L57.0371 76.9317L57.6209 77.7436ZM25.1092 31.9532L25.347 32.9245L25.3704 32.9188L25.3935 32.912L25.1092 31.9532ZM46.4048 23.9402L46.0098 23.0216L45.9985 23.0264L45.9874 23.0315L46.4048 23.9402ZM23.6122 32.3197L23.3744 31.3484L22.6821 31.5179L22.6165 32.2277L23.6122 32.3197ZM23.6119 39.9662L24.6073 39.8708L24.6073 39.8702L23.6119 39.9662ZM25.6915 52.8203L24.7283 53.0891L24.7306 53.0972L25.6915 52.8203ZM46.5712 77.6105L46.1048 78.4951L46.1138 78.4998L46.1228 78.5043L46.5712 77.6105ZM46.7977 77.7248L46.3459 78.617L46.346 78.617L46.7977 77.7248ZM49.0668 78.5286L49.1776 77.5348L49.1676 77.5337L49.1576 77.5328L49.0668 78.5286ZM53.2261 77.1931L52.7245 76.328L52.7174 76.3322L52.7103 76.3364L53.2261 77.1931ZM71.1942 59.2474L70.2685 58.8693L70.2673 58.8721L71.1942 59.2474ZM73.6066 42.971L72.609 42.9025L72.6071 42.9293L72.6067 42.9562L73.6066 42.971ZM73.9394 35.7096L74.9388 35.744L74.9388 35.7435L73.9394 35.7096ZM73.9394 35.7093L74.9388 35.7432L74.9394 35.7262V35.7093H73.9394ZM73.5234 33.706L72.7225 34.3047L72.7378 34.3252L72.7541 34.3449L73.5234 33.706ZM72.6692 33.1089L72.233 34.0087L72.233 34.0088L72.6692 33.1089ZM72.5252 33.0383L72.9736 32.1445L72.9736 32.1445L72.5252 33.0383ZM61.711 28.3641L61.3102 29.2802L61.3252 29.2868L61.3404 29.2928L61.711 28.3641ZM49.9818 23.2725L50.334 22.3365L50.3266 22.3338L50.3192 22.3311L49.9818 23.2725ZM46.5693 23.8693L46.1727 22.9513L46.1727 22.9513L46.5693 23.8693ZM44.9223 81.1491C46.1251 81.968 47.8233 82.3439 49.4235 82.3534C51.021 82.3629 52.7381 82.0084 53.9564 81.1353L52.7913 79.5097C52.0425 80.0464 50.7989 80.3616 49.4355 80.3534C48.0749 80.3453 46.8123 80.0163 46.048 79.4959L44.9223 81.1491ZM31.3895 69.957C34.8625 73.2996 40.7891 78.2889 44.9161 81.1448L46.0542 79.5002C42.032 76.7168 36.188 71.7996 32.7764 68.516L31.3895 69.957ZM21.0189 30.132C20.8806 30.3825 20.807 30.7185 20.7587 30.9776C20.7016 31.2838 20.6498 31.6672 20.605 32.1125C20.515 33.0056 20.4482 34.1941 20.4298 35.6019C20.3932 38.4187 20.5503 42.1506 21.1193 46.2085C22.251 54.2778 25.0408 63.8468 31.3895 69.957L32.7764 68.516C26.9214 62.8809 24.2134 53.8703 23.1 45.9308C22.5465 41.9843 22.3942 38.3546 22.4297 35.628C22.4474 34.2641 22.512 33.1355 22.5949 32.313C22.6365 31.9006 22.6815 31.5766 22.7248 31.3441C22.7769 31.0646 22.8073 31.0307 22.7699 31.0985L21.0189 30.132ZM31.8119 25.591C29.6662 26.2609 27.2328 27.0203 25.2618 27.7473C24.2782 28.1101 23.3823 28.4748 22.6835 28.8263C22.3349 29.0016 22.0124 29.185 21.7447 29.3759C21.4984 29.5516 21.2024 29.7997 21.0189 30.132L22.7699 31.0985C22.7332 31.1649 22.732 31.1283 22.906 31.0043C23.0586 30.8954 23.2819 30.764 23.5822 30.613C24.1812 30.3117 24.9953 29.9774 25.954 29.6237C27.8676 28.9179 30.2484 28.1743 32.4079 27.5001L31.8119 25.591ZM35.8796 24.2757C34.8787 24.6333 33.4325 25.085 31.8119 25.591L32.4079 27.5001C34.0117 26.9994 35.5043 26.5336 36.5526 26.159L35.8796 24.2757ZM48.0666 19.1647C45.942 20.265 39.6149 22.9409 35.8796 24.2757L36.5526 26.159C40.3385 24.8062 46.7553 22.0961 48.9863 20.9406L48.0666 19.1647ZM49.6505 18.7002C49.0684 18.7002 48.4694 18.9197 48.0107 19.1959L49.0422 20.9094C49.286 20.7626 49.53 20.7002 49.6505 20.7002V18.7002ZM50.8362 19.0339C50.6097 18.916 50.2184 18.7002 49.6505 18.7002V20.7002C49.6771 20.7002 49.6895 20.7031 49.7087 20.7099C49.7454 20.7227 49.7886 20.7433 49.9125 20.8079L50.8362 19.0339ZM50.9419 19.0883C50.9087 19.0717 50.8758 19.0545 50.8362 19.0339L49.9125 20.8079C49.9503 20.8275 49.9963 20.8515 50.0451 20.876L50.9419 19.0883ZM61.6169 25.9034C62.0876 25.0211 62.0876 25.0211 62.0875 25.021C62.0875 25.021 62.0874 25.021 62.0873 25.0209C62.087 25.0208 62.0867 25.0206 62.0863 25.0204C62.0854 25.0199 62.084 25.0192 62.0822 25.0182C62.0786 25.0163 62.0733 25.0135 62.0662 25.0097C62.0521 25.0022 62.0311 24.991 62.0036 24.9763C61.9484 24.9469 61.8671 24.9035 61.7623 24.8476C61.5526 24.7358 61.249 24.5738 60.873 24.3734C60.121 23.9724 59.0795 23.4172 57.9217 22.8004C55.6063 21.5668 52.8246 20.086 50.9619 19.0986L50.0252 20.8657C51.8858 21.852 54.6658 23.3319 56.9813 24.5655C58.1389 25.1822 59.1802 25.7373 59.932 26.1382C60.308 26.3386 60.6115 26.5005 60.8211 26.6123C60.9259 26.6682 61.0072 26.7115 61.0623 26.7409C61.0899 26.7556 61.1108 26.7668 61.125 26.7743C61.132 26.7781 61.1373 26.781 61.1409 26.7829C61.1427 26.7838 61.144 26.7845 61.1449 26.785C61.1454 26.7852 61.1457 26.7854 61.1459 26.7855C61.1461 26.7856 61.1461 26.7856 61.1462 26.7857C61.1463 26.7857 61.1463 26.7857 61.6169 25.9034ZM76.9112 31.9587C76.8156 31.807 76.6981 31.6983 76.6284 31.638C76.5474 31.568 76.4596 31.5032 76.3751 31.4454C76.2059 31.3294 75.9975 31.2053 75.7686 31.0779C75.3079 30.8214 74.6974 30.515 74.0004 30.1821C72.6025 29.5143 70.8008 28.713 69.0269 27.9441C67.2507 27.1742 65.4934 26.4328 64.1806 25.8842C63.5241 25.6098 62.9784 25.3834 62.5966 25.2256C62.4058 25.1467 62.2559 25.0849 62.1536 25.0428C62.1025 25.0218 62.0633 25.0056 62.0368 24.9948C62.0235 24.9893 62.0134 24.9852 62.0067 24.9824C62.0033 24.981 62.0007 24.98 61.999 24.9793C61.9981 24.9789 61.9975 24.9786 61.997 24.9784C61.9968 24.9784 61.9966 24.9783 61.9965 24.9782C61.9964 24.9782 61.9963 24.9782 61.6169 25.9034C61.2376 26.8287 61.2376 26.8287 61.2377 26.8287C61.2378 26.8287 61.2379 26.8288 61.2381 26.8289C61.2385 26.829 61.2391 26.8293 61.24 26.8296C61.2416 26.8303 61.2441 26.8313 61.2473 26.8327C61.2539 26.8354 61.2638 26.8394 61.2768 26.8448C61.3029 26.8555 61.3417 26.8714 61.3924 26.8923C61.4937 26.934 61.6427 26.9954 61.8325 27.0739C62.2122 27.2309 62.7556 27.4562 63.4094 27.7295C64.7174 28.2761 66.4661 29.0139 68.2314 29.7791C69.9989 30.5452 71.774 31.335 73.1383 31.9867C73.8223 32.3135 74.3892 32.5989 74.7958 32.8253C75.0006 32.9393 75.1485 33.0294 75.2448 33.0953C75.2931 33.1284 75.3153 33.1465 75.32 33.1506C75.336 33.1645 75.2799 33.1212 75.2195 33.0255L76.9112 31.9587ZM76.6502 49.793C76.9161 46.8957 77.1613 42.7971 77.2693 39.308C77.3233 37.5644 77.3434 35.9595 77.3136 34.7266C77.2987 34.1123 77.2711 33.5729 77.2261 33.148C77.2038 32.9365 77.1753 32.7354 77.1372 32.5589C77.1055 32.4119 77.0456 32.1718 76.9112 31.9587L75.2195 33.0255C75.1558 32.9245 75.1587 32.8719 75.1822 32.981C75.1994 33.0606 75.2188 33.1839 75.2372 33.3583C75.2739 33.7052 75.2998 34.1831 75.3142 34.775C75.3427 35.9547 75.3237 37.5181 75.2703 39.2462C75.1633 42.7005 74.9203 46.7583 74.6586 49.6102L76.6502 49.793ZM72.7494 63.8777C75.2807 59.0157 76.1133 55.6416 76.6502 49.793L74.6586 49.6102C74.14 55.2599 73.3618 58.3705 70.9754 62.9542L72.7494 63.8777ZM61.2317 76.3747C65.6317 72.7942 69.9444 69.3007 72.7506 63.8754L70.9742 62.9565C68.3877 67.957 64.412 71.2083 59.9693 74.8234L61.2317 76.3747ZM60.3242 77.1142C60.6273 76.8665 60.9297 76.6204 61.2317 76.3747L59.9693 74.8234C59.6676 75.069 59.3638 75.3162 59.0589 75.5653L60.3242 77.1142ZM58.2048 78.5555C58.9207 78.0406 59.563 77.5795 60.2026 77.1992L59.1804 75.4802C58.4524 75.9131 57.7378 76.4278 57.0371 76.9317L58.2048 78.5555ZM53.7684 81.2414C55.5235 80.4878 56.9573 79.4526 58.2048 78.5555L57.0371 76.9317C55.7717 77.8417 54.5049 78.7486 52.9793 79.4036L53.7684 81.2414ZM25.3935 32.912C32.7604 30.728 39.8756 28.0401 46.8223 24.8489L45.9874 23.0315C39.1251 26.1839 32.0988 28.8381 24.825 30.9944L25.3935 32.912ZM23.85 33.291L25.347 32.9245L24.8714 30.9819L23.3744 31.3484L23.85 33.291ZM24.6073 39.8702C24.364 37.3479 24.3638 35.054 24.608 32.4117L22.6165 32.2277C22.3613 34.9895 22.3607 37.4094 22.6165 40.0622L24.6073 39.8702ZM26.6547 52.5516C25.5161 48.471 25.023 44.2083 24.6073 39.8708L22.6164 40.0616C23.0326 44.4048 23.5378 48.8228 24.7283 53.0891L26.6547 52.5516ZM47.0376 76.7259C37.4294 71.6604 29.6453 62.9324 26.6524 52.5435L24.7306 53.0972C27.8935 64.0762 36.0811 73.2105 46.1048 78.4951L47.0376 76.7259ZM47.2494 76.8327C47.1748 76.7949 47.0977 76.7558 47.0196 76.7167L46.1228 78.5043C46.197 78.5415 46.2708 78.5789 46.3459 78.617L47.2494 76.8327ZM49.1576 77.5328C48.5463 77.477 48.0184 77.222 47.2494 76.8327L46.346 78.617C47.0645 78.9808 47.9247 79.4286 48.9759 79.5245L49.1576 77.5328ZM52.7103 76.3364C51.4428 77.0995 50.2996 77.6599 49.1776 77.5348L48.956 79.5225C50.8286 79.7313 52.5138 78.7892 53.7419 78.0499L52.7103 76.3364ZM70.2673 58.8721C67.1533 66.5636 60.1656 72.0141 52.7245 76.328L53.7276 78.0583C61.26 73.6915 68.7467 67.9572 72.1211 59.6227L70.2673 58.8721ZM72.6067 42.9562C72.5234 48.5557 72.2686 53.9723 70.2685 58.8693L72.12 59.6255C74.2791 54.3393 74.5234 48.5712 74.6065 42.9859L72.6067 42.9562ZM72.9399 35.6753C72.8567 38.0986 72.774 40.5019 72.609 42.9025L74.6043 43.0396C74.772 40.5992 74.8557 38.1616 74.9388 35.744L72.9399 35.6753ZM72.9399 35.6754L72.9399 35.6757L74.9388 35.7435L74.9388 35.7432L72.9399 35.6754ZM72.7541 34.3449C72.7926 34.3912 72.8575 34.5143 72.8979 34.7901C72.9376 35.0605 72.9394 35.3626 72.9394 35.7093H74.9394C74.9394 35.3882 74.9412 34.9391 74.8768 34.5001C74.8132 34.0663 74.6702 33.5217 74.2927 33.0671L72.7541 34.3449ZM72.233 34.0088C72.3923 34.086 72.4994 34.1391 72.591 34.1976C72.6776 34.2529 72.7108 34.2891 72.7225 34.3047L74.3244 33.1073C73.9391 32.5919 73.3633 32.3341 73.1054 32.209L72.233 34.0088ZM72.0768 33.9321C72.1305 33.9591 72.185 33.9855 72.233 34.0087L73.1054 32.209C73.055 32.1846 73.0131 32.1643 72.9736 32.1445L72.0768 33.9321ZM61.711 28.3641C61.3404 29.2928 61.3404 29.2928 61.3404 29.2928C61.3405 29.2929 61.3405 29.2929 61.3406 29.2929C61.3408 29.293 61.3411 29.2931 61.3416 29.2933C61.3424 29.2936 61.3437 29.2941 61.3454 29.2948C61.3488 29.2962 61.354 29.2983 61.3609 29.301C61.3746 29.3065 61.3951 29.3147 61.4222 29.3255C61.4762 29.3472 61.556 29.3792 61.659 29.4207C61.8651 29.5036 62.1635 29.6241 62.5327 29.7743C63.2713 30.0746 64.2922 30.4932 65.4216 30.9662C67.6894 31.9161 70.364 33.0728 72.0768 33.9321L72.9736 32.1445C71.1926 31.2509 68.4601 30.0705 66.1943 29.1215C65.0569 28.6451 64.0293 28.2238 63.2861 27.9216C62.9145 27.7704 62.6137 27.649 62.4058 27.5653C62.3018 27.5235 62.221 27.491 62.166 27.469C62.1386 27.458 62.1176 27.4496 62.1034 27.444C62.0963 27.4411 62.091 27.439 62.0873 27.4375C62.0855 27.4368 62.0841 27.4363 62.0832 27.4359C62.0827 27.4357 62.0823 27.4355 62.0821 27.4354C62.082 27.4354 62.0819 27.4354 62.0818 27.4353C62.0817 27.4353 62.0817 27.4353 61.711 28.3641ZM49.6297 24.2084C49.9307 24.3217 52.8227 25.5766 55.6965 26.8289C57.1206 27.4495 58.5241 28.0624 59.5715 28.52C60.0952 28.7489 60.5299 28.9389 60.8337 29.0718C60.9855 29.1382 61.1047 29.1903 61.1858 29.2258C61.2264 29.2436 61.2575 29.2572 61.2784 29.2663C61.2889 29.2709 61.2968 29.2744 61.3022 29.2767C61.3048 29.2779 61.3068 29.2787 61.3082 29.2793C61.3088 29.2796 61.3093 29.2798 61.3097 29.28C61.3098 29.28 61.31 29.2801 61.31 29.2801C61.3101 29.2802 61.3102 29.2802 61.711 28.3641C62.1119 27.4479 62.1119 27.4479 62.1118 27.4479C62.1117 27.4478 62.1116 27.4478 62.1114 27.4477C62.1111 27.4476 62.1106 27.4473 62.1099 27.447C62.1085 27.4464 62.1065 27.4456 62.1039 27.4444C62.0985 27.4421 62.0906 27.4386 62.0801 27.434C62.0591 27.4248 62.028 27.4112 61.9874 27.3935C61.9062 27.3579 61.787 27.3058 61.635 27.2393C61.3311 27.1064 60.8962 26.9163 60.3723 26.6874C59.3245 26.2295 57.9204 25.6164 56.4955 24.9954C53.671 23.7646 50.6984 22.4737 50.334 22.3365L49.6297 24.2084ZM46.9658 24.7873C47.5406 24.539 48.0362 24.3278 48.5127 24.2129C48.9749 24.1014 49.3356 24.1032 49.6445 24.2139L50.3192 22.3311C49.5181 22.044 48.731 22.1029 48.0438 22.2687C47.3707 22.431 46.715 22.717 46.1727 22.9513L46.9658 24.7873ZM46.7999 24.8589C46.8554 24.835 46.9109 24.811 46.9658 24.7873L46.1727 22.9513C46.1176 22.9751 46.0636 22.9984 46.0098 23.0216L46.7999 24.8589Z" fill="black"/>
<path d="M48.2548 49.7833C50.9519 47.3158 54.7596 43.5748 57.4567 41.1073C58.0913 40.5501 58.7259 39.9133 59.5985 39.5949C60.3918 39.2766 61.423 39.2766 62.0576 39.7541C62.6129 40.1521 62.8509 40.8685 62.9302 41.5849C63.1682 44.0523 61.1057 46.1218 59.2019 47.7138C55.7908 50.6588 53.1965 53.6477 49.7855 56.5928C49.2302 57.0703 48.5956 57.5479 47.8816 57.5479C47.3263 57.5479 46.8504 57.1499 46.3744 56.8316C43.5186 54.4437 40.9567 50.9772 39.1322 47.7934C38.7355 47.1566 38.4182 46.3606 38.6562 45.6443C38.8148 45.1667 39.2115 44.7687 39.6874 44.6095C41.3533 43.8931 43.1778 45.1667 44.6057 46.3606C45.9543 47.475 48.2548 49.7833 48.2548 49.7833Z" stroke="black" stroke-width="2"/>
</svg>
