<svg width="100" height="100" viewBox="0 0 100 100" fill="none" xmlns="http://www.w3.org/2000/svg">
<path d="M40.6055 42.9706C40.7009 47.3621 44.7025 50.4487 46.6914 51.4431C48.1234 51.4431 49.8537 46.9085 49.9731 42.6722C50.0924 38.4359 45.0208 33.424 44.5434 33.245C44.0661 33.066 40.4861 37.4813 40.6055 42.9706Z" stroke="black" stroke-width="2"/>
<path d="M52.9575 49.5892C50.2564 51.6399 50.2484 55.0121 50.5287 56.7059C51.1779 57.6008 54.7963 56.6263 57.4978 54.7802C60.1993 52.9341 60.0899 46.6125 59.9853 46.2331C59.8808 45.8536 56.3339 47.0259 52.9575 49.5892Z" stroke="black" stroke-width="2"/>
<path d="M47.0181 51.7788C47.9704 53.0327 49.7925 54.6868 50.0179 57.0166C50.1608 58.4927 48.4466 60.5402 48.399 61.3973" stroke="black" stroke-width="2" stroke-linecap="round"/>
<path d="M69.4237 81.0072C67.4117 82.3694 65.6445 85.2354 67.0479 84.9436C68.8022 84.579 71.5283 80.1513 69.4237 81.0072Z" stroke="black" stroke-width="2" stroke-linecap="round"/>
<path d="M16.5953 44.324C16.1379 44.663 16.8771 48.5888 17.5074 49.1404C17.8055 49.4012 23.8154 54.9112 30.2367 59.7139C37.3953 65.068 45.0569 69.7789 45.7146 70.2253C47.4575 71.4983 65.9351 67.6853 66.2835 67.7371L71.3112 68.4844C71.9086 68.5732 70.5336 63.7897 70.2739 63.1406C70.0143 62.4914 73.6334 63.1312 74.8577 63.1097C76.082 63.0881 74.1776 58.7856 74.0451 58.308C73.9125 57.8304 78.3301 58.2326 78.8871 57.9084C79.4441 57.5842 77.6373 53.6523 77.5969 53.2393C77.5565 52.8262 81.7514 52.3305 82.3636 52.3197C82.9757 52.309 81.4366 47.6028 81.1474 47.1528C80.9923 46.9114 72.1019 37.6139 61.3373 29.7653C52.0276 22.9775 40.6611 17.4756 40.235 17.4123C39.3163 17.2757 36.2284 17.6571 35.7508 17.7897C35.2732 17.9222 36.994 21.3537 36.6415 22.0136C36.289 22.6736 32.7914 22.226 32.3191 22.6646C31.8469 23.1032 33.3347 26.2978 32.9029 27.1494C32.471 28.001 28.732 27.7099 28.2947 28.2554C27.8575 28.801 28.8753 32.5646 28.6519 33.0402C28.4286 33.5158 25.4217 32.8654 24.6413 33.6652C23.861 34.465 24.8956 37.7733 24.6077 38.3411C24.3198 38.9088 20.99 38.7191 20.4754 39.1005C19.9607 39.4819 21.1501 43.1184 20.9913 43.5019C20.8326 43.8853 17.0527 43.9849 16.5953 44.324Z" stroke="black" stroke-width="2"/>
<path d="M50.8024 75.9669C51.8664 78.5331 54.6709 81.1702 54.6662 79.5314C54.6603 77.4828 50.3267 73.4132 50.8024 75.9669Z" stroke="black" stroke-width="2" stroke-linecap="round"/>
<path d="M60.687 76.1337C64.1979 76.7738 68.9984 75.5849 67.2265 74.4479C65.0115 73.0266 57.5995 74.8675 60.687 76.1337Z" fill="black" stroke="black" stroke-width="2" stroke-linecap="round"/>
<path d="M59.9621 68.5908C62.9438 62.9037 76.636 43.9838 76.636 43.9838" stroke="black" stroke-width="2"/>
<path d="M46.2964 70.3717C49.9435 69.9665 55.051 68.4978 56.6352 68.1225C61.35 67.0056 64.1247 67.5977 66.1049 67.7019" stroke="black" stroke-width="2" stroke-linecap="round"/>
<path d="M51.0117 56.6459C51.7634 55.8727 53.344 54.2492 53.6532 53.9399" stroke="black" stroke-width="2" stroke-linecap="round"/>
<path d="M22.3845 52.3309C22.3845 52.3309 29.3363 42.0253 33.4355 36.3186C37.5348 30.6119 45.3193 21.4602 45.3193 21.4602" stroke="black" stroke-width="2"/>
<path d="M36.1187 17.8042C38.599 17.4544 40.4429 17.5459 41.4922 18.3765C42.0907 18.8503 49.3668 26.2268 58.0433 32.7028C68.3803 40.4182 80.3679 47.4174 80.7542 47.7145C81.3225 48.1517 82.0111 50.8478 82.2844 52.1412" stroke="black" stroke-width="2"/>
<path d="M46.892 50.9674C46.7727 49.7216 46.4626 47.0708 46.1763 46.4346" stroke="black" stroke-width="2" stroke-linecap="round"/>
<path d="M53.3103 24.2437L44.8071 20.2603L46.7223 23.6308L52.8506 28.84L63.2689 36.6536L75.9852 44.6971H78.36L70.3165 36.6536L63.8051 31.2147L53.3103 24.2437Z" fill="black"/>
</svg>
