<svg width="100" height="100" viewBox="0 0 100 100" fill="none" xmlns="http://www.w3.org/2000/svg">
<path d="M36.0364 74.104H59.0605" stroke="black" stroke-width="2" stroke-linecap="round" stroke-linejoin="round"/>
<path d="M36.0364 69.7803H59.0605" stroke="black" stroke-width="2" stroke-linecap="round" stroke-linejoin="round"/>
<path d="M50.9409 63.4028H58.5557" stroke="black" stroke-width="2" stroke-linecap="round" stroke-linejoin="round"/>
<path d="M36.0364 63.4028H43.579" stroke="black" stroke-width="2" stroke-linecap="round" stroke-linejoin="round"/>
<path d="M59.7004 58.5636C60.2048 58.0151 70.5874 58.0654 70.8599 58.5636C71.1325 59.0618 71.1364 77.1118 70.8599 78.1521C70.5835 79.1925 60.1521 78.6274 59.7004 78.1521C59.2486 77.6768 59.196 59.1121 59.7004 58.5636Z" stroke="black" stroke-width="2" stroke-linecap="round" stroke-linejoin="round"/>
<path d="M35.7147 72.9951C39.289 73.5264 50.8813 73.7196 59.3823 72.9951" stroke="black" stroke-width="2" stroke-linecap="round" stroke-linejoin="round"/>
<path d="M34.7308 78.3465C34.2263 78.895 23.8438 78.8447 23.5712 78.3465C23.2986 77.8484 23.2948 59.7984 23.5712 58.758C23.8476 57.7177 34.279 58.2827 34.7308 58.758C35.1825 59.2334 35.2352 77.7981 34.7308 78.3465Z" stroke="black" stroke-width="2" stroke-linecap="round" stroke-linejoin="round"/>
<path d="M49.2546 55.5635C49.892 55.6851 50.1907 55.8434 50.3409 56.0912V65.8812C49.564 66.9228 44.5164 66.7021 43.9231 65.8812V56.0912C44.0446 55.8586 44.4293 55.6833 44.9549 55.5635" stroke="black" stroke-width="2" stroke-linecap="round" stroke-linejoin="round"/>
<path d="M43.9115 66.0133C45.6467 67.0051 49.4187 67.0244 52.6478 66.1955C51.974 65.8687 50.8018 66.0133 50.8018 66.0133" stroke="black" stroke-width="2" stroke-linecap="round" stroke-linejoin="round"/>
<path d="M50.3408 56.1644C49.8216 57.1588 44.4921 57.1036 43.923 56.1644" stroke="black" stroke-width="2" stroke-linecap="round" stroke-linejoin="round"/>
<path d="M57.6606 58.6689V68.4551C59.3768 57.3165 65.5301 61.3821 67.9706 59.775C69.3993 58.8341 68.922 55.3917 68.922 52.981C68.922 49.3749 62.4986 51.2869 61.2359 52.0553C59.2337 53.2736 57.6606 54.4919 57.6606 58.6689Z" fill="black" stroke="black" stroke-width="2" stroke-linecap="round" stroke-linejoin="round"/>
<path d="M36.603 58.6689V68.4551C34.8869 57.3165 28.7335 61.3821 26.293 59.775C24.8644 58.8341 25.3417 55.3917 25.3417 52.981C25.3417 49.3749 31.765 51.2869 33.0278 52.0553C35.0299 53.2736 36.603 54.4919 36.603 58.6689Z" fill="black" stroke="black" stroke-width="2" stroke-linecap="round" stroke-linejoin="round"/>
<path d="M50 22.1343H52.2693" stroke="black" stroke-width="2" stroke-linecap="round" stroke-linejoin="round"/>
<path d="M41.6538 22.1196H43.9231" stroke="black" stroke-width="2" stroke-linecap="round" stroke-linejoin="round"/>
<path d="M49.1362 55.8455C49.3456 45.1745 49.5503 38.1695 49.1362 20.833H45.053C45.0994 32.8068 45.0928 40.736 45.053 55.8455" stroke="black" stroke-width="2" stroke-linecap="round" stroke-linejoin="round"/>
<path d="M53.2804 23.8466C52.9418 23.4355 53.2804 20.4223 53.2804 20.4223C53.2804 20.4223 64.0769 20.1301 64.3883 20.4223C64.6998 20.7145 64.3883 23.8466 64.3883 23.8466C64.3883 23.8466 53.6189 24.2577 53.2804 23.8466Z" fill="black" stroke="black" stroke-width="2" stroke-linecap="round" stroke-linejoin="round"/>
<path d="M29.5348 23.8314C29.5348 23.8314 29.0226 20.7396 29.5348 20.4071C30.0469 20.0746 40.6427 20.4071 40.6427 20.4071C40.6427 20.4071 41.1591 23.4322 40.6427 23.8314C40.1264 24.2306 29.5348 23.8314 29.5348 23.8314Z" fill="black" stroke="black" stroke-width="2" stroke-linecap="round" stroke-linejoin="round"/>
</svg>
