<svg width="100" height="100" viewBox="0 0 100 100" fill="none" xmlns="http://www.w3.org/2000/svg">
<path d="M65.1073 72.0928H45.3819" stroke="black" stroke-width="2" stroke-linecap="round"/>
<path d="M63.3019 63.3819V48.7256H57.3895V71.7908" stroke="black" stroke-width="2" stroke-linecap="round" stroke-linejoin="round"/>
<path d="M19.1277 72.3706C19.1277 72.3706 14.7643 72.7397 14.5436 72.3706C14.323 72.0016 14.2424 61.0646 14.5436 60.7619C14.8448 60.4592 52.7177 61.2489 53.153 60.7619C53.5882 60.2749 52.6375 31.7891 53.153 31.2529C53.536 30.8546 56.9909 31.0482 58.7416 31.174C59.4143 31.2223 60.0879 31.2456 60.7617 31.2748C72.9944 31.8048 82.749 41.8897 82.749 54.2529V59.828" stroke="black" stroke-width="2" stroke-linecap="round"/>
<path d="M72.5243 64.8393C74.6278 65.1077 78.1893 67.3531 77.6608 71.4955C77.2362 74.8231 74.1944 77.1764 70.8668 76.7519C67.5392 76.3273 64.9402 73.1483 65.6908 69.3955C66.4502 65.5986 69.8669 64.5002 72.5243 64.8393Z" stroke="black" stroke-width="2"/>
<path d="M72.7258 69.4658C73.1787 69.7273 73.3481 70.0901 73.3717 70.4994C73.3979 70.9549 73.2333 71.4596 72.9832 71.8179C72.8186 72.0536 72.4783 72.3174 72.062 72.4516C71.6557 72.5826 71.2974 72.5547 71.0312 72.401C70.6684 72.1916 70.2885 71.7629 70.0738 71.2662C69.8541 70.758 69.8894 70.3906 70.0019 70.1957C70.5137 69.3091 71.0014 69.1106 71.3396 69.0717C71.7486 69.0247 72.2281 69.1784 72.7258 69.4658Z" fill="black" stroke="black" stroke-width="2"/>
<path d="M26.4806 64.8393C28.5841 65.1077 32.1456 67.3531 31.6171 71.4955C31.1925 74.8231 28.1507 77.1764 24.8231 76.7519C21.4955 76.3273 18.8965 73.1483 19.6471 69.3955C20.4065 65.5986 23.8232 64.5002 26.4806 64.8393Z" stroke="black" stroke-width="2"/>
<path d="M45.1265 71.6783C44.8581 73.7818 42.6127 77.3434 38.4704 76.8148C35.1427 76.3902 32.7894 73.3485 33.214 70.0208C33.6386 66.6932 36.8176 64.0943 40.5703 64.8449C44.3672 65.6043 45.4656 69.0209 45.1265 71.6783Z" stroke="black" stroke-width="2"/>
<path d="M40.2629 69.4658C40.7159 69.7273 40.8853 70.0901 40.9088 70.4994C40.935 70.9549 40.7704 71.4596 40.5203 71.8179C40.3558 72.0536 40.0154 72.3174 39.5991 72.4516C39.1928 72.5826 38.8345 72.5547 38.5683 72.401C38.2056 72.1916 37.8256 71.7629 37.6109 71.2662C37.3912 70.758 37.4265 70.3906 37.539 70.1957C38.0508 69.3091 38.5385 69.1106 38.8767 69.0717C39.2857 69.0247 39.7652 69.1784 40.2629 69.4658Z" fill="black" stroke="black" stroke-width="2"/>
<path d="M26.6821 69.4658C27.135 69.7273 27.3044 70.0901 27.328 70.4994C27.3542 70.9549 27.1896 71.4596 26.9395 71.8179C26.7749 72.0536 26.4346 72.3174 26.0183 72.4516C25.612 72.5826 25.2537 72.5547 24.9875 72.401C24.6247 72.1916 24.2448 71.7629 24.0301 71.2662C23.8104 70.758 23.8457 70.3906 23.9582 70.1957C24.47 69.3091 24.9577 69.1106 25.2959 69.0717C25.7049 69.0247 26.1844 69.1784 26.6821 69.4658Z" fill="black" stroke="black" stroke-width="2"/>
<path d="M13.3291 66.5566L14.3518 66.5566L14.3518 62.8731L13.3291 62.8731C12.3119 62.8731 11.4873 63.6977 11.4873 64.7149C11.4873 65.7321 12.3119 66.5566 13.3291 66.5566Z" fill="black"/>
<path d="M60.9615 72.1881V69.894C60.9615 64.3712 65.4386 59.894 70.9615 59.894H81.4564C83.1133 59.894 84.4564 61.2372 84.4564 62.894V69.1881C84.4564 70.845 83.1133 72.1881 81.4564 72.1881H77.6329" stroke="black" stroke-width="2"/>
<path d="M82.891 67.1807L85.0063 67.1807L85.0063 62.382L82.891 62.382C81.5659 62.382 80.4917 63.4562 80.4917 64.7813C80.4917 66.1065 81.5659 67.1807 82.891 67.1807Z" fill="black"/>
<path d="M25.8639 60.2582V58.8232H18.1175V60.2582" stroke="black" stroke-width="2" stroke-linecap="round" stroke-linejoin="round"/>
<path d="M57.211 48.8945H63.1352L63.42 63.0786L60.9706 67.4648V72.0789H57.211V48.8945Z" fill="black"/>
<path d="M60.5391 70.5376C54.3474 71.0943 51.1112 71.1805 45.5613 71.1817" stroke="black" stroke-width="2" stroke-linecap="round"/>
<path d="M20.4417 71.0606C20.3318 71.0606 17.0755 71.2132 14.6546 70.5215" stroke="black" stroke-width="2"/>
<path d="M61.6101 67.3032C61.3458 67.3032 49.7042 67.4355 44.3078 67.4355" stroke="black" stroke-width="2"/>
<path d="M21.2102 67.1025C21.1004 67.1025 16.5888 67.1025 14.3468 67.1025" stroke="black" stroke-width="2"/>
<path d="M73.2995 45.9461C75.8369 45.8729 78.3682 45.9461 80.6188 45.9461C82.1349 48.5203 82.8123 51.4794 82.6237 55.157C78.3814 55.157 72.1248 55.3139 69.4725 55.157C69.0126 55.1298 68.6584 54.7487 68.6584 54.2881V51.2361C68.6584 48.4615 70.5261 46.0261 73.2995 45.9461Z" fill="black"/>
<path d="M77.7136 40.5459H53.421" stroke="black" stroke-width="2" stroke-linecap="round"/>
<path d="M60.3156 48.4793V27.2697C60.3156 24.9847 58.4632 23.1323 56.1782 23.1323V23.1323" stroke="black" stroke-width="2" stroke-linecap="round"/>
</svg>
