<svg width="100" height="100" viewBox="0 0 100 100" fill="none" xmlns="http://www.w3.org/2000/svg">
<path d="M38.7212 20.3648C38.6932 21.2168 38.5933 24.8368 38.5933 24.8368C35.9413 25.2598 33.4463 26.1768 31.2963 27.5518C31.2963 27.5518 29.0282 24.4958 28.0572 24.1948C26.2322 23.6298 23.7082 28.4268 23.7082 28.4268L26.8312 31.6378C25.0382 33.8888 23.7943 36.5208 23.2703 39.4298C23.2703 39.4298 19.1403 38.3888 19.0673 39.4008C18.9353 41.2408 19.0383 45.4718 19.0383 45.4718L23.2703 45.5008C23.6973 47.9438 24.5843 50.2108 25.9263 52.2138C25.9263 52.2138 22.1652 54.0948 22.6282 55.0738C23.0452 55.9578 24.8883 60.4558 26.6263 59.6558C28.0603 58.9968 30.1293 56.5918 30.1293 56.5918C32.5593 58.4278 35.4672 59.7128 38.6512 60.2108V65.1138C38.6512 65.1138 44.2222 66.1738 44.7222 65.1138C45.2682 63.9558 44.7222 60.1818 44.7222 60.1818C47.3642 59.7598 49.8153 58.8348 51.9603 57.4668C51.9603 57.4668 54.5912 60.1858 55.2292 60.8238C55.6282 61.2218 60.1422 57.5898 59.5782 56.5918C59.3102 56.1188 56.4553 53.3808 56.4553 53.3808C58.2483 51.1288 59.5213 48.4998 60.0453 45.5888C60.0453 45.5888 64.2113 45.9318 64.2183 45.6178C64.2613 43.7838 64.2472 39.5758 64.2472 39.5758L60.0453 39.5468C59.6213 37.1038 58.6982 34.8388 57.3592 32.8338C57.3592 32.8338 60.6223 30.6058 60.6583 29.9448C60.7583 28.0718 57.6062 25.7218 56.6882 25.3628C56.5432 25.3058 53.1573 28.4268 53.1573 28.4268C50.7273 26.5908 47.8482 25.3058 44.6642 24.8078C44.6642 24.8078 44.7222 20.8238 44.6642 19.9048C44.5952 18.8338 38.7832 18.4098 38.7212 20.3648Z" stroke="black" stroke-width="2" stroke-miterlimit="10" stroke-linejoin="round"/>
<path d="M51.4396 44.178C51.9875 41.699 50.8721 35.2547 43.8052 33.714C36.7393 32.1723 32.8559 37.784 32.5187 42.0462C32.1815 46.3083 34.6689 51.1014 40.7717 51.9709C46.8745 52.8405 50.7509 47.2902 51.4396 44.178Z" stroke="black" stroke-width="2" stroke-miterlimit="10" stroke-linejoin="round"/>
<path d="M67.4203 59.2503C66.5303 59.3813 65.2953 60.1953 65.2953 60.1953L65.8832 62.2913C64.6012 62.8353 63.4812 63.6793 62.5862 64.7963C62.5862 64.7963 61.0622 63.3853 60.7972 63.7993C60.3172 64.5513 59.3923 66.3803 59.3923 66.3803L61.1813 67.3773C60.7983 68.5153 60.6383 69.6653 60.7463 70.8273C60.7463 70.8273 58.7313 70.7643 58.7023 71.2873C58.6753 71.7603 58.4172 74.1153 59.3412 74.1753C60.1032 74.2263 61.5383 73.6643 61.5383 73.6643C62.1483 75.0063 63.0843 76.2193 64.3243 77.1663L63.2002 79.2613C63.2002 79.2613 65.3242 81.0023 65.7812 80.6673C66.2802 80.3003 66.9103 78.5713 66.9103 78.5713C68.1303 79.0023 69.3802 79.1693 70.6102 79.0823C70.6102 79.0823 71.1003 80.8363 71.2203 81.2553C71.3003 81.5163 74.0702 81.0183 74.0602 80.4633C74.0602 80.2003 73.4703 78.3923 73.4703 78.3923C74.7603 77.8483 75.9002 77.0053 76.8002 75.8883C76.8002 75.8883 78.4802 76.9913 78.5602 76.8593C79.0002 76.0893 79.9703 74.3033 79.9703 74.3033L78.2002 73.3323C78.5902 72.1953 78.7202 71.0183 78.6102 69.8563C78.6102 69.8563 80.5102 69.6443 80.6802 69.3713C81.1602 68.5973 80.3503 66.8733 80.0403 66.5083C79.9903 66.4513 77.8202 66.9943 77.8202 66.9943C77.2102 65.6523 76.3002 64.4393 75.0602 63.4923C75.0602 63.4923 76.0002 61.8273 76.1802 61.4223C76.4002 60.9513 74.0302 59.4303 73.5502 60.2473C73.3402 60.6033 72.4502 62.1123 72.4502 62.1123C71.2302 61.6803 69.9503 61.4873 68.7203 61.5763C68.7203 61.5763 68.4802 59.7553 68.1302 59.4033C67.9702 59.2383 67.7103 59.2063 67.4203 59.2503ZM69.4103 66.0993C69.8603 66.0483 70.3203 66.0583 70.7903 66.1503C71.4103 66.2743 72.0303 66.5473 72.6003 67.0193C74.9203 68.9073 74.7602 71.4973 73.5502 73.1793C72.3402 74.8603 69.3203 76.2253 66.7803 73.8183C64.2363 71.4113 65.3942 68.4713 66.2402 67.5823C66.8402 66.9533 68.0603 66.2533 69.4103 66.0993Z" stroke="black" stroke-width="1.63567" stroke-miterlimit="10" stroke-linejoin="round"/>
<path d="M67.4203 59.2499C66.5303 59.3809 65.2953 60.1949 65.2953 60.1949L65.8832 62.2909C64.6012 62.8349 63.4812 63.6789 62.5862 64.7959C62.5862 64.7959 61.0622 63.3849 60.7972 63.7989C60.3172 64.5509 59.3923 66.3799 59.3923 66.3799L61.1813 67.3769C60.7983 68.5149 60.6383 69.6649 60.7463 70.8269C60.7463 70.8269 58.7313 70.7639 58.7023 71.2869C58.6753 71.7599 58.4172 74.1149 59.3412 74.1749C60.1032 74.2259 61.5383 73.6639 61.5383 73.6639C62.1483 75.0059 63.0853 76.2189 64.3243 77.1659L63.2002 79.2609C63.2002 79.2609 65.3242 81.0019 65.7812 80.6669C66.2802 80.2999 66.9103 78.5709 66.9103 78.5709C68.1303 79.0019 69.3802 79.1689 70.6102 79.0819C70.6102 79.0819 71.1003 80.8359 71.2203 81.2549C71.3003 81.5159 74.0702 81.0179 74.0602 80.4629C74.0602 80.1999 73.4703 78.3919 73.4703 78.3919C74.7603 77.8479 75.9002 77.0049 76.8002 75.8879C76.8002 75.8879 78.4802 76.9909 78.5602 76.8589C79.0002 76.0889 79.9603 74.3029 79.9703 74.3029L78.2002 73.3319C78.5902 72.1949 78.7202 71.0179 78.6102 69.8559C78.6102 69.8559 80.5102 69.6439 80.6802 69.3709C81.1602 68.5969 80.3503 66.8729 80.0403 66.5079C79.9903 66.4509 77.8202 66.9939 77.8202 66.9939C77.2102 65.6519 76.3002 64.4389 75.0602 63.4919C75.0602 63.4919 76.0002 61.8269 76.1802 61.4219C76.4002 60.9509 74.0302 59.4299 73.5502 60.2469C73.3402 60.6029 72.4502 62.1119 72.4502 62.1119C71.2302 61.6799 69.9503 61.4869 68.7203 61.5759C68.7203 61.5759 68.4802 59.7549 68.1302 59.4029C67.9702 59.2379 67.7103 59.2069 67.4203 59.2499ZM69.4103 66.0989C69.8603 66.0479 70.3203 66.0579 70.7903 66.1499C71.4103 66.2739 72.0303 66.5479 72.6003 67.0189C74.9203 68.9069 74.7602 71.4969 73.5502 73.1789C72.3402 74.8599 69.3203 76.2249 66.7803 73.8179C64.2363 71.4109 65.3942 68.4709 66.2402 67.5819C66.8402 66.9529 68.0603 66.2539 69.4103 66.0989Z" fill="black"/>
<path d="M36.6537 50.5307C33.5831 48.924 31.204 42.0167 36.9762 36.6369C42.7495 31.258 53.6581 38.0005 51.0711 45.3641" stroke="black" stroke-width="2" stroke-miterlimit="10" stroke-linejoin="round"/>
</svg>
