<svg width="100" height="100" viewBox="0 0 100 100" fill="none" xmlns="http://www.w3.org/2000/svg">
<path d="M59.791 74.4658C60.5035 59.0411 60.5326 58.1971 60.1747 35.6146" stroke="black" stroke-width="2" stroke-miterlimit="10" stroke-linecap="round"/>
<path d="M40.4502 74.3135C40.6913 69.3886 40.8765 65.0185 41.006 60.8743M40.8339 25.5392C41.1475 35.3323 41.2763 42.8836 41.2186 50.22" stroke="black" stroke-width="2" stroke-miterlimit="10" stroke-linecap="round"/>
<path d="M21.1079 74.1611L21.3263 46.4033M21.4916 25.3869L21.4102 35.7329" stroke="black" stroke-width="2" stroke-miterlimit="10" stroke-linecap="round"/>
<line x1="79.0079" y1="74.9922" x2="79.3934" y2="25.9937" stroke="black" stroke-width="2" stroke-miterlimit="10" stroke-linecap="round"/>
<path d="M34.8759 52.3767C37.4732 49.4559 44.5481 49.7563 47.598 52.3712C50.6478 54.9861 49.0897 58.8675 46.8149 60.0357C44.5401 61.2038 39.9451 61.1502 36.9499 60.0356C33.9548 58.9209 32.2786 55.2976 34.8759 52.3767Z" stroke="black" stroke-width="2" stroke-miterlimit="10" stroke-linecap="round"/>
<path d="M85.3124 46.3333C82.7382 49.2745 75.6611 49.0297 72.5908 46.4389C69.5204 43.848 71.048 39.9545 73.3135 38.7685C75.5791 37.5825 80.1743 37.6 83.1782 38.691C86.182 39.7821 87.8866 43.3921 85.3124 46.3333Z" fill="black" stroke="black" stroke-width="2" stroke-miterlimit="10" stroke-linecap="round"/>
<path d="M14.7958 37.8465C17.3931 34.9256 24.468 35.226 27.5179 37.8409C30.5677 40.4559 29.0096 44.3373 26.7348 45.5054C24.46 46.6735 19.865 46.6199 16.8699 45.5053C13.8747 44.3907 12.1985 40.7673 14.7958 37.8465Z" stroke="black" stroke-width="2" stroke-miterlimit="10" stroke-linecap="round"/>
<path d="M54.3946 27.0092C56.9919 24.0884 64.0668 24.3888 67.1167 27.0037C70.1665 29.6186 68.6084 33.5001 66.3336 34.6682C64.0588 35.8363 60.5656 36.0593 56.0351 35.4024C51.5046 34.7455 51.7973 29.9301 54.3946 27.0092Z" stroke="black" stroke-width="2" stroke-miterlimit="10" stroke-linecap="round"/>
</svg>
