<svg width="100" height="100" viewBox="0 0 100 100" fill="none" xmlns="http://www.w3.org/2000/svg">
<path d="M42.902 55.6424C45.5721 47.5891 48.7794 44.8195 55.5021 43.3335C62.2247 41.8475 67.4263 44.7719 72.066 49.7675C76.7058 54.7631 79.4872 71.6545 63.4735 75.8028C47.4598 79.9511 39.5644 65.7089 42.902 55.6424Z" stroke="black" stroke-width="2"/>
<path d="M55.8052 42.6085C50.6243 34.508 40.0896 18.2825 39.3988 18.1839C38.7079 18.0852 18.6351 45.596 19.2988 46.6909C19.9625 47.7858 37.5516 51.5835 38.6388 51.4999C39.726 51.4162 43.4824 50.6287 45.2248 50.2454" stroke="black" stroke-width="2"/>
<path d="M51.1362 35.1358C51.1362 32.2164 51.1362 26.234 51.1362 25.6597C51.1362 24.9418 58.3868 19.5577 58.7458 19.4859C59.1047 19.4141 79.9234 19.4142 79.9234 20.132C79.9234 20.8498 80.2823 36.428 79.9234 37.1459C79.5644 37.8638 74.6828 46.4784 74.2521 46.4784C73.9075 46.4784 70.2722 46.4784 68.6928 46.4784" stroke="black" stroke-width="2"/>
<path d="M51.3638 25.7386C58.343 25.7386 72.4758 25.7386 72.9411 25.7386C73.4064 25.7386 77.7297 22.0551 79.8622 20.2134" stroke="black" stroke-width="2"/>
<path d="M73.7554 25.6806V46.1529" stroke="black" stroke-width="2"/>
<path d="M80.2463 20.7847L73.7393 25.6172V46.0477L80.2463 37.2439V20.7847Z" fill="black"/>
<path d="M39.7109 51.1635V20.4737L40.5857 19.4531L52.468 37.1672L55.8212 43.2176L49.8436 46.2793L45.0324 50.5074L39.7109 51.1635Z" fill="black"/>
<path d="M53.1698 75.8573C60.7295 77.9299 73.0145 74.0623 74.8534 62.7817C76.3074 53.8625 69.5246 44.4732 60.0183 42.9927" stroke="black" stroke-width="2"/>
<path d="M54.8408 76.2365C63.8763 76.6788 69.534 72.2706 71.8086 65.1207C75.1493 54.6198 67.4571 45.4759 62.8271 43.6488" stroke="black" stroke-width="2" stroke-linecap="round"/>
<path d="M70.5715 67.8929L64.7782 74.2938L69.9429 71.8232L73.6975 67.4636L75.5505 60.9037L74.199 53.7214L70.3812 49.5335L71.435 53.5345L72.8689 62.0254L70.5715 67.8929Z" fill="black"/>
<path d="M39.4453 19.0781V50.9779" stroke="black" stroke-width="2"/>
</svg>
