<svg width="100" height="100" viewBox="0 0 100 100" fill="none" xmlns="http://www.w3.org/2000/svg">
<path d="M17.1592 29.0466C17.4016 28.7868 60.7621 23.5743 61.6847 23.8084C62.6072 24.0425 79.0983 28.9868 80.0346 29.3096C81.205 29.7132 82.4561 31.5697 82.2947 34.2737C82.1333 36.9778 82.1222 38.687 82.0048 38.8044C81.9109 38.8984 80.4717 38.3511 73.7375 36.0688M17.1592 29.0466C16.9168 29.3064 31.7703 35.5354 32.9132 36.0688C34.3419 36.7355 34.58 39.5929 34.5324 42.2122C34.4848 44.8315 34.5324 46.5459 34.5324 46.784C34.5324 47.0221 17.4415 38.7765 17.4415 38.4432C17.4415 38.1765 17.1592 31.8246 17.1592 29.0466Z" stroke="black" stroke-width="2"/>
<path d="M69.2881 41.0566C75.0147 42.7559 79.099 43.9559 80.0353 44.2787C81.2057 44.6823 82.4568 46.5388 82.2954 49.2429C82.1339 51.9469 82.1229 53.6562 82.0055 53.7736C81.9116 53.8675 62.3246 47.172 60.9696 47.172C59.6145 47.172 51.2763 48.2895 51.2763 48.2895M17.1599 44.0157C17.3899 43.4525 31.7553 50.7666 32.8983 51.3C34.327 51.9667 34.8405 55.0411 34.7929 57.6603C34.7452 60.2796 34.5331 61.5151 34.5331 61.7532C34.5331 61.9914 17.1599 53.195 17.1599 52.8616C17.1599 52.5949 16.9298 44.5788 17.1599 44.0157Z" stroke="black" stroke-width="2"/>
<path d="M72.0716 55.6931C77.7981 57.3923 79.0993 57.8935 80.0356 58.2163C81.206 58.6199 82.4571 60.4764 82.2957 63.1804C82.1343 65.8845 82.1232 67.5937 82.0058 67.7112C81.9119 67.8051 80.0356 67.2571 76.2897 65.8901M17.1602 57.9533C17.1602 57.4383 31.8274 65.1668 32.8607 65.8901C34.5334 67.0611 34.581 69.1792 34.5334 71.7984C34.4858 74.4177 34.2446 76.4825 34.2446 76.7206C34.2446 76.9587 17.1602 67.1325 17.1602 66.7992C17.1602 66.5325 17.1601 58.4683 17.1602 57.9533Z" stroke="black" stroke-width="2"/>
<path d="M26.75 33.4577C36.7553 32.0248 56.3874 29.4375 57.0397 29.6747C57.855 29.9712 73.5898 34.347 73.7381 34.9399C73.8567 35.4142 73.7875 38.9005 73.7381 40.1357C73.7381 40.1357 42.7844 45.238 41.2963 45.238C39.8081 45.238 34.6801 42.6477 34.6801 42.6477" stroke="black" stroke-width="2"/>
<path d="M26.75 48.455C36.7553 47.0221 43.407 45.5731 44.0593 45.8103C44.8747 46.1068 61.0697 51.8257 61.218 52.4186C61.3365 52.8929 61.2674 55.8824 61.218 57.1176C61.218 57.1176 42.7844 60.2352 41.2963 60.2352C39.8081 60.2352 34.6801 57.645 34.6801 57.645" stroke="black" stroke-width="2"/>
<path d="M61.1946 57.863C60.5423 57.6258 55.0034 58.5034 44.9982 59.9363C44.9982 59.9363 44.6684 64.6357 44.9982 64.845C45.328 65.0544 56.871 71.4681 60.2876 71.4681C63.7042 71.4681 76.4378 68.1639 76.4378 68.1639C76.4872 66.9287 76.5564 63.7244 76.4378 63.2501C76.2896 62.6571 62.0099 58.1596 61.1946 57.863Z" stroke="black" stroke-width="2"/>
<path d="M34.3534 46.7763C35.6669 46.7948 81.6155 39.0619 81.8681 38.8557" stroke="black" stroke-width="2"/>
<path d="M34.3534 61.7581C34.3534 61.7581 81.4582 54.5301 81.9689 53.7925" stroke="black" stroke-width="2"/>
<path d="M34.2676 76.6827C34.6745 76.8996 81.8127 67.9128 82.0011 67.698" stroke="black" stroke-width="2"/>
<path d="M17.1084 44.07C17.8842 43.5785 26.2156 42.8162 26.2156 42.8162" stroke="black" stroke-width="2"/>
<path d="M17.1602 57.942C17.9359 57.4505 24.614 56.9321 24.614 56.9321" stroke="black" stroke-width="2"/>
<path d="M73.5633 35.1099C63.4979 36.731 43.6142 39.9139 42.0937 39.9139C41.2808 39.9139 36.2728 37.9439 33.9258 37.0728" stroke="black" stroke-width="2"/>
<path d="M60.3012 53.0691C48.9565 54.9246 42.4455 56.1539 41.4309 56.154C40.4163 56.154 36.4045 54.5099 34.5255 53.6878" stroke="black" stroke-width="2"/>
<path d="M76.3947 63.5642C76.0308 63.5643 61.7696 66.665 59.7697 66.4148C58.9934 66.3177 49.2599 61.8086 44.9336 60.1306" stroke="black" stroke-width="2"/>
<path d="M35.2213 57.9114L34.5967 61.2844L39.2605 60.3266L35.2213 57.9114Z" fill="black"/>
<path d="M39.6194 45.3045L35.0389 43.0432L34.5751 46.696L39.6194 45.3045Z" fill="black"/>
<path d="M44.5446 63.1108L31.3596 65.1186" stroke="black" stroke-width="2"/>
<path d="M79.8821 38.5286L74.2205 36.3425L73.6113 40.0693L79.8821 38.5286Z" fill="black"/>
<path d="M31.7284 65.1201C34.2507 64.6407 43.8795 63.1608 44.4799 63.1108V64.7953L49.598 67.4965L56.5557 70.4964L58.344 72.4399L34.6676 76.752V71.9992L34.1673 67.4965L31.7284 65.1201Z" fill="black"/>
<path d="M81.2594 67.6477L76.0409 65.469L75.5848 69.3703L81.2594 67.6477Z" fill="black"/>
<path d="M60.3645 47.1792L51.9541 48.2605L60.8452 52.4658L61.1456 56.9715L80.0094 53.4871L60.3645 47.1792Z" fill="black"/>
</svg>
