<svg width="100" height="100" viewBox="0 0 100 100" fill="none" xmlns="http://www.w3.org/2000/svg">
<path d="M23.2061 47.1006C23.2061 47.1006 27.1761 74.4476 30.4751 76.8676C33.0681 78.7706 35.8261 78.2446 48.3101 78.2686C58.8991 78.2886 69.4081 78.1516 70.7711 75.9716C72.1341 73.7916 75.8251 47.5046 75.8251 47.5046L23.2061 47.1006Z" stroke="black" stroke-width="2" stroke-miterlimit="10" stroke-linecap="round" stroke-linejoin="round"/>
<path d="M62.5943 53.8176C62.5943 53.8176 58.7653 72.1066 61.0053 72.5086C63.2453 72.9116 63.9843 73.6786 65.5583 62.4216C65.8153 60.5816 66.6063 56.0716 66.6033 54.5586C66.5983 52.3956 63.7443 50.8646 62.5943 53.8176Z" stroke="black" stroke-width="2" stroke-miterlimit="10" stroke-linecap="round" stroke-linejoin="round"/>
<path d="M33.646 54.2293C33.646 54.2293 34.392 72.9003 36.662 72.7443C38.933 72.5883 39.837 73.1523 38.618 61.8513C38.419 60.0043 38.087 55.4373 37.715 53.9713C37.182 51.8743 34.042 51.0853 33.646 54.2293Z" stroke="black" stroke-width="2" stroke-miterlimit="10" stroke-linecap="round" stroke-linejoin="round"/>
<path d="M48.1061 53.9853C48.1061 53.9853 46.6641 72.6153 48.9381 72.7263C51.2111 72.8373 52.0431 73.5023 52.1531 62.1363C52.1721 60.2793 52.375 55.7043 52.177 54.2043C51.893 52.0603 48.8671 50.9093 48.1061 53.9853Z" stroke="black" stroke-width="2" stroke-miterlimit="10" stroke-linecap="round" stroke-linejoin="round"/>
<path d="M21.8342 47.1017C21.8342 47.1017 20.8981 45.9637 21.0091 44.5277C21.1781 42.3637 24.6212 42.5547 25.8992 42.4997C30.3862 42.3047 70.1952 42.7277 72.8942 42.7497C74.8532 42.7667 76.8342 42.9097 77.4752 43.3047C78.5252 43.9527 78.9931 47.4267 77.0201 47.4707C73.3581 47.5517 59.1362 47.3517 53.0662 47.3697C47.6012 47.3867 21.8342 47.1017 21.8342 47.1017Z" fill="black" stroke="black" stroke-width="2" stroke-miterlimit="10" stroke-linecap="round" stroke-linejoin="round"/>
<path d="M28.1001 42.4847C28.1001 42.4847 27.9041 32.8717 29.1501 29.1297C30.6331 24.6727 34.6461 22.5447 39.8691 22.0807C42.5401 21.8427 52.7361 22.2107 55.3831 22.1747C65.5171 22.0367 68.0151 24.8277 69.7201 29.5017C70.4901 31.6127 70.2311 42.8417 70.2311 42.8417" stroke="black" stroke-width="2" stroke-miterlimit="10" stroke-linecap="round" stroke-linejoin="round"/>
</svg>
