<svg width="100" height="100" viewBox="0 0 100 100" fill="none" xmlns="http://www.w3.org/2000/svg">
<path d="M36.6455 52.7783H80.0678" stroke="black" stroke-width="2" stroke-miterlimit="10" stroke-linecap="round"/>
<path d="M33.7017 41.1719H83.5006" stroke="black" stroke-width="2" stroke-miterlimit="10"/>
<path d="M15.0815 20.8154H26.2499C27.0643 20.8154 27.7753 21.3474 27.995 22.1229C30.4769 30.8139 32.0345 37.4666 33.0104 42.0685C33.3724 43.7862 34.6586 47.4522 35.6539 50.8491C37.1533 56.0086 38.0776 58.9504 39.3056 61.6615C51.0815 61.6615 62.8639 61.6615 74.6399 61.6615C76.5594 61.6615 78.2334 60.3541 78.6794 58.5018L84.884 33.5826C85.065 32.8584 84.5027 32.1662 83.753 32.179C64.5444 31.8393 49.0198 34.1338 31.5174 33.134" stroke="black" stroke-width="2" stroke-miterlimit="10" stroke-linecap="round"/>
<path d="M52.2593 33.166L54.3951 61.8785" stroke="black" stroke-width="2" stroke-miterlimit="10"/>
<path d="M67.0366 32.6816C67.0366 38.7725 67.0775 52.1082 67.0775 55.6737C67.0775 59.2391 67.0775 61.2446 67.0775 61.8017" stroke="black" stroke-width="2" stroke-miterlimit="10"/>
<path d="M38.8145 60.5068C39.7694 63.0007 41.3085 69.1636 42.5816 70.1639C43.8547 71.1643 62.3627 71.6028 71.5703 71.6786" stroke="black" stroke-width="2" stroke-miterlimit="10"/>
<path d="M76.8714 73.6024C76.8779 73.7882 76.8973 74.6791 76.4061 75.7174C75.54 77.5633 73.4136 79.1912 70.9059 79.172C67.5774 79.1528 64.8499 76.2558 64.9468 73.596C65.0179 71.5578 66.7371 70.1222 67.2994 69.6543C67.9393 69.1159 69.1802 68.084 70.9124 68.0199C73.8984 67.9238 76.7745 70.7887 76.8714 73.6024Z" fill="black"/>
<path d="M75.5639 73.4062C75.5699 73.5855 75.5878 74.4451 75.1338 75.4469C74.3335 77.2279 72.3684 78.7987 70.0509 78.7801C66.9748 78.7616 64.4542 75.9664 64.5438 73.4C64.6095 71.4335 66.1983 70.0482 66.718 69.5968C67.3093 69.0773 68.4561 68.0817 70.0568 68.0198C72.8163 67.9271 75.4743 70.6914 75.5639 73.4062Z" fill="black"/>
<path d="M76.4686 73.6082C76.4751 73.7941 76.4945 74.685 76.0033 75.7233C75.1372 77.5691 73.0108 79.1971 70.5031 79.1779C67.1745 79.1586 64.4471 76.2617 64.544 73.6018C64.6151 71.5637 66.3343 70.128 66.8966 69.6601C67.5365 69.1218 68.7774 68.0899 70.5095 68.0258C73.4955 67.9297 76.3717 70.7946 76.4686 73.6082Z" stroke="black" stroke-width="2" stroke-miterlimit="10"/>
<path d="M74.1713 73.6058C74.1753 73.72 74.1872 74.2677 73.8853 74.9059C73.3529 76.0405 72.0458 77.0412 70.5044 77.0294C68.4583 77.0176 66.7818 75.2368 66.8414 73.6018C66.8851 72.349 67.9419 71.4665 68.2875 71.1789C68.6808 70.848 69.4436 70.2137 70.5083 70.1743C72.3438 70.1152 74.1117 71.8763 74.1713 73.6058Z" fill="black"/>
<path d="M74.1713 73.6058C74.1753 73.72 74.1872 74.2677 73.8853 74.9059C73.3529 76.0405 72.0458 77.0412 70.5044 77.0294C68.4583 77.0176 66.7818 75.2368 66.8414 73.6018C66.8851 72.349 67.9419 71.4665 68.2875 71.1789C68.6808 70.848 69.4436 70.2137 70.5083 70.1743C72.3438 70.1152 74.1117 71.8763 74.1713 73.6058Z" fill="black"/>
<path d="M48.6288 73.4033C48.6353 76.3002 45.8626 79.178 42.799 79.1844C40.4723 79.1908 38.8953 77.5372 38.5204 77.1142C38.2102 76.7681 36.9628 75.3709 36.9757 73.4033C36.9886 70.4806 39.7678 67.6093 42.8055 67.6221C45.2033 67.6349 46.7997 69.4359 47.0777 69.75C47.4137 70.1409 48.6224 71.4997 48.6288 73.4033Z" fill="black"/>
<path d="M49.2245 73.4033C49.231 76.3002 46.4583 79.178 43.3947 79.1844C41.068 79.1908 39.491 77.5372 39.1161 77.1142C38.8059 76.7681 37.5585 75.3709 37.5714 73.4033C37.5843 70.4806 40.3635 67.6093 43.4012 67.6221C45.799 67.6349 47.3954 69.4359 47.6734 69.75C48.0094 70.1409 49.2181 71.4997 49.2245 73.4033Z" stroke="black" stroke-width="2" stroke-miterlimit="10"/>
<path d="M47.0629 73.6048C47.0669 73.7191 47.0788 74.2667 46.7769 74.9049C46.2445 76.0395 44.9375 77.0402 43.396 77.0284C41.3499 77.0166 39.6734 75.2358 39.733 73.6009C39.7767 72.348 40.8335 71.4655 41.1791 71.1779C41.5724 70.847 42.3352 70.2127 43.3999 70.1733C45.2354 70.1142 47.0033 71.8753 47.0629 73.6048Z" fill="black"/>
</svg>
