<svg width="100" height="100" viewBox="0 0 100 100" fill="none" xmlns="http://www.w3.org/2000/svg">
<path d="M54.6945 48.8392C54.1938 50.5337 52.5456 54.2464 49.9575 55.5403C46.7224 57.1577 39.0969 63.6278 32.6268 61.086C26.1568 58.5442 24.0771 51.843 24.5392 47.5681C25.0014 43.2932 27.5433 20.0703 30.0851 17.8751C32.6268 15.6798 38.6348 18.3373 40.7145 20.8791C42.7942 23.4209 46.9535 25.2694 51.3439 25.3849C55.7344 25.5005 58.542 27.033 57.6439 30.9623" stroke="black" stroke-width="2"/>
<path d="M25.5862 53.8298C24.3387 56.2965 21.9117 62.2336 22.1838 66.2483C22.524 71.2667 23.2896 73.9034 23.2045 74.9241C23.1195 75.9448 21.1631 80.7931 22.1838 81.8988C23.2045 83.0045 67.8592 82.9195 69.05 82.9195C70.2408 82.9195 77.896 83.1747 77.8959 81.8988C77.8959 80.8781 76.7619 79.3187 76.1948 78.6666C77.2155 76.9088 79.1038 73.274 77.4707 71.0966C75.8376 68.9191 73.1895 66.8153 72.1971 66.2483" stroke="black" stroke-width="2"/>
<path d="M23.1875 73.1516C25.2424 76.8747 42.5507 77.5618 56.2061 78.3264C59.6949 78.5218 73.9288 79.8465 76.4095 78.1303" stroke="black" stroke-width="2"/>
<path d="M55.2015 55.6613C56.3994 54.8627 57.6713 55.262 58.3573 56.6424C59.4199 58.7806 52.6801 66.1874 52.9296 66.6865C53.1792 67.1856 56.5481 69.4939 56.9848 69.2444C57.4215 68.9948 62.8246 59.8446 62.8246 58.3473C62.8246 55.9517 58.9155 54.5455 56.0457 55.2944" stroke="black" stroke-width="2"/>
<path d="M52.1201 53.812L58.1966 56.7971" stroke="black" stroke-width="2"/>
<path d="M62.7979 59.9634L66.8433 62.4858" stroke="black" stroke-width="2"/>
<path d="M65.1564 61.1533C67.1781 60.8537 69.7636 59.9177 72.0836 62.401C74.1125 64.5729 68.5571 72.7779 68.2763 72.5532C67.9955 72.3286 63.559 70.9808 63.7836 70.3631C64.0083 69.7453 67.6586 63.6242 67.6024 62.6133C67.5341 61.383 66.9847 61.3029 66.7039 61.1531" stroke="black" stroke-width="2"/>
<path d="M56.9939 40.7297C57.1733 41.0884 57.1554 41.8865 55.6487 42.2094C53.7652 42.6131 39.2362 38.1064 38.6981 38.51C38.16 38.9136 37.0836 44.5638 37.8908 44.7656C38.6981 44.9674 53.6969 49.4097 56.4004 48.223C58.5908 47.2616 59.1462 44.0926 58.7426 42.2094C58.4198 40.7028 57.2283 40.106 56.7799 39.9492" stroke="black" stroke-width="2"/>
<path d="M57.7472 29.8112C58.2214 29.9256 59.1992 30.3506 59.3169 31.1356C59.4346 31.9205 41.2394 27.4281 40.7252 28.0453C40.2109 28.6624 39.0966 33.8632 39.4497 33.981C39.8912 34.1281 56.2266 37.5177 57.9435 37.1743C59.6604 36.831 60.6554 33.0915 59.2819 30.9822" stroke="black" stroke-width="2"/>
<path d="M34.4289 56.564C31.7931 55.664 31.2256 52.5459 33.2235 50.6174C35.2213 48.6889 38.2864 50.6174 38.6882 52.5459C39.09 54.4744 37.7237 57.689 34.4289 56.564Z" fill="black" stroke="black" stroke-width="2"/>
<path d="M56.9502 37.4268L56.25 41.8901" stroke="black" stroke-width="2"/>
<path d="M59.3713 31.5057L41.1258 27.8357L38.9551 33.6764L56.6837 37.3979L59.3713 36.4158L60.095 33.0045L59.3713 31.5057Z" fill="black"/>
<path d="M54.6156 42.2561L57.6136 41.4293L58.699 45.8226L57.2001 48.1486H53.9955L40.3501 45.4608L37.8691 44.1687L38.7995 38.5864L54.6156 42.2561Z" fill="black"/>
<path d="M58.5135 58.9031V56.3115H61.4289L62.2711 58.2552V60.4578L56.8292 69.398L53.2012 66.5475L58.5135 58.9031Z" fill="black"/>
<path d="M67.1072 63.96L67.4745 61.5456L68.3142 61.1257L71.2534 61.8605L72.618 63.4351L71.8832 67.0041L68.6291 72.515L63.958 70.5731L67.1072 63.96Z" fill="black"/>
<path d="M26.1995 56.0127C23.7144 59.5729 20.0693 72.8092 26.8045 75.2833" stroke="black" stroke-width="2"/>
<path d="M37.0714 18.217C33.4251 16.2603 30.4495 17.8469 28.8597 22.2491C27.27 26.6512 26.8947 29.3071 26.8438 29.9865" stroke="black" stroke-width="2"/>
</svg>
