<svg width="100" height="100" viewBox="0 0 100 100" fill="none" xmlns="http://www.w3.org/2000/svg">
<path d="M51.7771 77.622C51.4237 77.7414 47.0453 75.1838 47.0572 74.897C47.0691 74.6102 51.6751 66.6286 52.0576 66.2361C52.4401 65.8436 56.7077 68.6407 56.7775 68.9611C56.8472 69.2816 52.1305 77.5027 51.7771 77.622Z" fill="black" stroke="black" stroke-width="2" stroke-linecap="round" stroke-linejoin="round"/>
<path d="M31.2634 65.7788C30.9101 65.8981 26.5316 63.3406 26.5435 63.0537C26.5554 62.7669 31.1614 54.7853 31.5439 54.3928C31.9264 54.0003 36.1941 56.7974 36.2638 57.1179C36.3335 57.4383 31.6168 65.6594 31.2634 65.7788Z" fill="black" stroke="black" stroke-width="2" stroke-linecap="round" stroke-linejoin="round"/>
<path d="M49.9149 68.279C47.748 67.0279 46.3836 66.8698 46.0584 65.4378C45.6518 63.6478 47.9751 62.5495 44.7434 60.6836C41.5116 58.8178 40.5354 62.8637 38.5914 61.7413C37.0361 60.8434 35.5434 59.9815 34.7081 59.4993" stroke="black" stroke-width="2" stroke-linecap="round"/>
<path d="M33.2694 62.9886L47.9194 71.7349" stroke="black" stroke-width="2" stroke-linecap="round"/>
<path d="M50.9911 75.3247C45.2053 85.346 39.0952 86.1412 32.3217 82.4925C25.5483 78.8439 23.6292 71.448 28.791 62.5075" stroke="black" stroke-width="2" stroke-linecap="round"/>
<path d="M30.4971 74.7695C31.3599 78.8618 37.8627 81.326 39.8251 80.8001" stroke="black" stroke-width="2" stroke-linecap="round"/>
<path d="M41.7528 64.465C41.7336 64.242 41.7931 63.9744 41.913 63.7916C41.9677 63.7084 42.0258 63.6559 42.0823 63.6235C42.1349 63.5934 42.2151 63.5636 42.3462 63.5636C42.6985 63.5636 42.9389 63.6311 43.0735 63.7309C43.1509 63.7883 43.3334 63.9523 43.3334 64.5507C43.3334 64.5533 43.3207 64.6878 43.0725 64.8723C42.8343 65.0493 42.5426 65.1405 42.3462 65.1405C42.2612 65.1405 42.1307 65.0978 41.9863 64.9381C41.8347 64.7706 41.7621 64.5733 41.7528 64.465Z" fill="black" stroke="black" stroke-width="2"/>
<path d="M69.9763 46.1001C69.6229 46.2194 65.2445 43.6619 65.2564 43.375C65.2683 43.0882 69.8743 35.1066 70.2568 34.7141C70.6393 34.3216 74.907 37.1187 74.9767 37.4392C75.0464 37.7596 70.3297 45.9807 69.9763 46.1001Z" fill="black" stroke="black" stroke-width="2" stroke-linecap="round" stroke-linejoin="round"/>
<path d="M67.9067 45.4248L54.7598 68.1959" stroke="black" stroke-width="2"/>
<path d="M59.0234 45.3246L53.7028 53.4323" stroke="black" stroke-width="2" stroke-linecap="round"/>
<path d="M49.4626 34.2563C49.1093 34.3756 44.7309 31.8181 44.7427 31.5313C44.7546 31.2445 49.3606 23.2629 49.7431 22.8704C50.1256 22.4779 54.3933 25.2749 54.463 25.5954C54.5327 25.9159 49.816 34.137 49.4626 34.2563Z" fill="black" stroke="black" stroke-width="2" stroke-linecap="round" stroke-linejoin="round"/>
<path d="M46.2314 32.9106L33.0845 55.6817" stroke="black" stroke-width="2"/>
<path d="M50.6396 30.1409C50.1882 29.8227 49.5643 29.9306 49.246 30.382C48.9278 30.8334 49.0357 31.4573 49.4871 31.7755L50.6396 30.1409ZM55.1513 33.8958L56.1265 33.6743C56.0896 33.512 56.0129 33.3616 55.9032 33.2365L55.1513 33.8958ZM67.3099 42.0702C67.7882 42.3464 68.3998 42.1825 68.6759 41.7042C68.9521 41.2259 68.7882 40.6143 68.3099 40.3382L67.3099 42.0702ZM49.4871 31.7755C50.7466 32.6636 51.8668 33.1718 52.7318 33.5696C53.6515 33.9926 54.1138 34.2293 54.3994 34.555L55.9032 33.2365C55.2808 32.5266 54.3763 32.1245 53.5675 31.7526C52.7041 31.3555 51.7342 30.9127 50.6396 30.1409L49.4871 31.7755ZM54.1761 34.1173C54.2355 34.3785 54.2226 34.7076 54.1598 35.1936C54.1044 35.6236 53.9978 36.2381 53.9921 36.8181C53.986 37.4348 54.0853 38.1287 54.4898 38.801C54.8934 39.4719 55.5406 40.0214 56.4525 40.4645L57.3265 38.6656C56.664 38.3437 56.3575 38.0258 56.2035 37.7699C56.0505 37.5155 55.9882 37.2233 55.992 36.8378C55.9962 36.4154 56.0709 36.0113 56.1434 35.4496C56.2087 34.9438 56.2704 34.308 56.1265 33.6743L54.1761 34.1173ZM56.4525 40.4645C57.4208 40.935 58.3086 41.0327 59.1243 40.893C59.9094 40.7586 60.5651 40.413 61.075 40.1199C61.6439 39.7928 61.9635 39.5815 62.2946 39.4685C62.5362 39.3861 62.6763 39.395 62.8602 39.5012L63.8602 37.7691C63.072 37.3141 62.3109 37.3499 61.649 37.5756C61.0765 37.7709 60.4904 38.149 60.0782 38.386C59.6071 38.6568 59.2064 38.8498 58.7868 38.9217C58.3977 38.9883 57.9326 38.96 57.3265 38.6656L56.4525 40.4645ZM62.8602 39.5012C62.8632 39.5029 62.8663 39.5047 62.8693 39.5065C62.8723 39.5082 62.8754 39.51 62.8784 39.5117C62.8815 39.5135 62.8845 39.5152 62.8876 39.517C62.8906 39.5188 62.8937 39.5205 62.8967 39.5223C62.8998 39.524 62.9028 39.5258 62.9059 39.5276C62.9089 39.5293 62.912 39.5311 62.9151 39.5329C62.9181 39.5346 62.9212 39.5364 62.9242 39.5382C62.9273 39.5399 62.9304 39.5417 62.9334 39.5435C62.9365 39.5453 62.9396 39.547 62.9427 39.5488C62.9457 39.5506 62.9488 39.5523 62.9519 39.5541C62.9549 39.5559 62.958 39.5577 62.9611 39.5595C62.9642 39.5612 62.9673 39.563 62.9703 39.5648C62.9734 39.5666 62.9765 39.5683 62.9796 39.5701C62.9827 39.5719 62.9858 39.5737 62.9889 39.5755C62.9919 39.5773 62.995 39.579 62.9981 39.5808C63.0012 39.5826 63.0043 39.5844 63.0074 39.5862C63.0105 39.588 63.0136 39.5898 63.0167 39.5916C63.0198 39.5933 63.0229 39.5951 63.026 39.5969C63.0291 39.5987 63.0322 39.6005 63.0353 39.6023C63.0384 39.6041 63.0415 39.6059 63.0446 39.6077C63.0477 39.6095 63.0509 39.6113 63.054 39.6131C63.0571 39.6149 63.0602 39.6167 63.0633 39.6185C63.0664 39.6203 63.0695 39.6221 63.0727 39.6239C63.0758 39.6257 63.0789 39.6275 63.082 39.6293C63.0852 39.6311 63.0883 39.6329 63.0914 39.6347C63.0945 39.6365 63.0977 39.6383 63.1008 39.6401C63.1039 39.6419 63.107 39.6437 63.1102 39.6455C63.1133 39.6473 63.1164 39.6491 63.1196 39.6509C63.1227 39.6528 63.1258 39.6546 63.129 39.6564C63.1321 39.6582 63.1353 39.66 63.1384 39.6618C63.1415 39.6636 63.1447 39.6654 63.1478 39.6673C63.151 39.6691 63.1541 39.6709 63.1573 39.6727C63.1604 39.6745 63.1636 39.6763 63.1667 39.6782C63.1699 39.68 63.173 39.6818 63.1762 39.6836C63.1793 39.6854 63.1825 39.6873 63.1856 39.6891C63.1888 39.6909 63.192 39.6927 63.1951 39.6946C63.1983 39.6964 63.2014 39.6982 63.2046 39.7C63.2078 39.7019 63.2109 39.7037 63.2141 39.7055C63.2172 39.7073 63.2204 39.7092 63.2236 39.711C63.2268 39.7128 63.2299 39.7147 63.2331 39.7165C63.2363 39.7183 63.2394 39.7201 63.2426 39.722C63.2458 39.7238 63.249 39.7256 63.2521 39.7275C63.2553 39.7293 63.2585 39.7311 63.2617 39.733C63.2648 39.7348 63.268 39.7367 63.2712 39.7385C63.2744 39.7403 63.2776 39.7422 63.2808 39.744C63.2839 39.7458 63.2871 39.7477 63.2903 39.7495C63.2935 39.7514 63.2967 39.7532 63.2999 39.755C63.3031 39.7569 63.3063 39.7587 63.3095 39.7606C63.3126 39.7624 63.3158 39.7643 63.319 39.7661C63.3222 39.768 63.3254 39.7698 63.3286 39.7716C63.3318 39.7735 63.335 39.7753 63.3382 39.7772C63.3414 39.779 63.3446 39.7809 63.3478 39.7827C63.351 39.7846 63.3542 39.7864 63.3574 39.7883C63.3606 39.7901 63.3639 39.792 63.3671 39.7938C63.3703 39.7957 63.3735 39.7975 63.3767 39.7994C63.3799 39.8012 63.3831 39.8031 63.3863 39.805C63.3895 39.8068 63.3927 39.8087 63.396 39.8105C63.3992 39.8124 63.4024 39.8142 63.4056 39.8161C63.4088 39.8179 63.412 39.8198 63.4153 39.8217C63.4185 39.8235 63.4217 39.8254 63.4249 39.8272C63.4281 39.8291 63.4314 39.831 63.4346 39.8328C63.4378 39.8347 63.441 39.8365 63.4443 39.8384C63.4475 39.8403 63.4507 39.8421 63.454 39.844C63.4572 39.8459 63.4604 39.8477 63.4636 39.8496C63.4669 39.8515 63.4701 39.8533 63.4733 39.8552C63.4766 39.8571 63.4798 39.8589 63.483 39.8608C63.4863 39.8627 63.4895 39.8645 63.4928 39.8664C63.496 39.8683 63.4992 39.8701 63.5025 39.872C63.5057 39.8739 63.5089 39.8758 63.5122 39.8776C63.5154 39.8795 63.5187 39.8814 63.5219 39.8832C63.5252 39.8851 63.5284 39.887 63.5317 39.8889C63.5349 39.8907 63.5381 39.8926 63.5414 39.8945C63.5446 39.8964 63.5479 39.8982 63.5511 39.9001C63.5544 39.902 63.5576 39.9039 63.5609 39.9057C63.5641 39.9076 63.5674 39.9095 63.5706 39.9114C63.5739 39.9133 63.5772 39.9151 63.5804 39.917C63.5837 39.9189 63.5869 39.9208 63.5902 39.9227C63.5934 39.9245 63.5967 39.9264 63.6 39.9283C63.6032 39.9302 63.6065 39.9321 63.6097 39.9339C63.613 39.9358 63.6163 39.9377 63.6195 39.9396C63.6228 39.9415 63.626 39.9434 63.6293 39.9452C63.6326 39.9471 63.6358 39.949 63.6391 39.9509C63.6424 39.9528 63.6456 39.9547 63.6489 39.9566C63.6522 39.9584 63.6554 39.9603 63.6587 39.9622C63.662 39.9641 63.6653 39.966 63.6685 39.9679C63.6718 39.9698 63.6751 39.9717 63.6783 39.9736C63.6816 39.9754 63.6849 39.9773 63.6882 39.9792C63.6914 39.9811 63.6947 39.983 63.698 39.9849C63.7013 39.9868 63.7045 39.9887 63.7078 39.9906C63.7111 39.9925 63.7144 39.9944 63.7177 39.9963C63.7209 39.9981 63.7242 40 63.7275 40.0019C63.7308 40.0038 63.7341 40.0057 63.7373 40.0076C63.7406 40.0095 63.7439 40.0114 63.7472 40.0133C63.7505 40.0152 63.7538 40.0171 63.757 40.019C63.7603 40.0209 63.7636 40.0228 63.7669 40.0247C63.7702 40.0266 63.7735 40.0285 63.7768 40.0304C63.7801 40.0323 63.7833 40.0342 63.7866 40.0361C63.7899 40.038 63.7932 40.0399 63.7965 40.0418C63.7998 40.0437 63.8031 40.0456 63.8064 40.0475C63.8097 40.0494 63.813 40.0513 63.8163 40.0532C63.8196 40.0551 63.8228 40.057 63.8261 40.0589C63.8294 40.0608 63.8327 40.0627 63.836 40.0646C63.8393 40.0665 63.8426 40.0684 63.8459 40.0703C63.8492 40.0722 63.8525 40.0741 63.8558 40.076C63.8591 40.0779 63.8624 40.0798 63.8657 40.0817C63.869 40.0836 63.8723 40.0855 63.8756 40.0874C63.8789 40.0893 63.8822 40.0913 63.8855 40.0932C63.8888 40.0951 63.8921 40.097 63.8954 40.0989C63.8987 40.1008 63.902 40.1027 63.9053 40.1046C63.9086 40.1065 63.9119 40.1084 63.9152 40.1103C63.9185 40.1122 63.9218 40.1141 63.9252 40.116C63.9285 40.118 63.9318 40.1199 63.9351 40.1218C63.9384 40.1237 63.9417 40.1256 63.945 40.1275C63.9483 40.1294 63.9516 40.1313 63.9549 40.1332C63.9582 40.1351 63.9615 40.1371 63.9648 40.139C63.9682 40.1409 63.9715 40.1428 63.9748 40.1447C63.9781 40.1466 63.9814 40.1485 63.9847 40.1504C63.988 40.1523 63.9913 40.1543 63.9946 40.1562C63.998 40.1581 64.0013 40.16 64.0046 40.1619C64.0079 40.1638 64.0112 40.1657 64.0145 40.1676C64.0178 40.1696 64.0211 40.1715 64.0245 40.1734C64.0278 40.1753 64.0311 40.1772 64.0344 40.1791C64.0377 40.181 64.041 40.183 64.0444 40.1849C64.0477 40.1868 64.051 40.1887 64.0543 40.1906C64.0576 40.1925 64.0609 40.1944 64.0642 40.1964C64.0676 40.1983 64.0709 40.2002 64.0742 40.2021C64.0775 40.204 64.0808 40.2059 64.0842 40.2078C64.0875 40.2098 64.0908 40.2117 64.0941 40.2136C64.0974 40.2155 64.1007 40.2174 64.1041 40.2193C64.1074 40.2213 64.1107 40.2232 64.114 40.2251C64.1173 40.227 64.1207 40.2289 64.124 40.2308C64.1273 40.2328 64.1306 40.2347 64.1339 40.2366C64.1373 40.2385 64.1406 40.2404 64.1439 40.2423C64.1472 40.2443 64.1506 40.2462 64.1539 40.2481C64.1572 40.25 64.1605 40.2519 64.1638 40.2539C64.1672 40.2558 64.1705 40.2577 64.1738 40.2596C64.1771 40.2615 64.1805 40.2634 64.1838 40.2654C64.1871 40.2673 64.1904 40.2692 64.1937 40.2711C64.1971 40.273 64.2004 40.275 64.2037 40.2769C64.207 40.2788 64.2104 40.2807 64.2137 40.2826C64.217 40.2846 64.2203 40.2865 64.2237 40.2884C64.227 40.2903 64.2303 40.2922 64.2336 40.2941C64.237 40.2961 64.2403 40.298 64.2436 40.2999C64.2469 40.3018 64.2502 40.3037 64.2536 40.3057C64.2569 40.3076 64.2602 40.3095 64.2635 40.3114C64.2669 40.3133 64.2702 40.3153 64.2735 40.3172C64.2768 40.3191 64.2802 40.321 64.2835 40.3229C64.2868 40.3249 64.2901 40.3268 64.2935 40.3287C64.2968 40.3306 64.3001 40.3325 64.3034 40.3345C64.3068 40.3364 64.3101 40.3383 64.3134 40.3402C64.3167 40.3421 64.3201 40.3441 64.3234 40.346C64.3267 40.3479 64.33 40.3498 64.3334 40.3517C64.3367 40.3536 64.34 40.3556 64.3433 40.3575C64.3467 40.3594 64.35 40.3613 64.3533 40.3632C64.3566 40.3652 64.36 40.3671 64.3633 40.369C64.3666 40.3709 64.3699 40.3728 64.3733 40.3748C64.3766 40.3767 64.3799 40.3786 64.3832 40.3805C64.3866 40.3824 64.3899 40.3844 64.3932 40.3863C64.3965 40.3882 64.3998 40.3901 64.4032 40.392C64.4065 40.394 64.4098 40.3959 64.4131 40.3978C64.4165 40.3997 64.4198 40.4016 64.4231 40.4035C64.4264 40.4055 64.4298 40.4074 64.4331 40.4093C64.4364 40.4112 64.4397 40.4131 64.443 40.4151C64.4464 40.417 64.4497 40.4189 64.453 40.4208C64.4563 40.4227 64.4597 40.4246 64.463 40.4266C64.4663 40.4285 64.4696 40.4304 64.4729 40.4323C64.4763 40.4342 64.4796 40.4361 64.4829 40.4381C64.4862 40.44 64.4895 40.4419 64.4929 40.4438C64.4962 40.4457 64.4995 40.4477 64.5028 40.4496C64.5061 40.4515 64.5095 40.4534 64.5128 40.4553C64.5161 40.4572 64.5194 40.4592 64.5227 40.4611C64.5261 40.463 64.5294 40.4649 64.5327 40.4668C64.536 40.4687 64.5393 40.4706 64.5426 40.4726C64.546 40.4745 64.5493 40.4764 64.5526 40.4783C64.5559 40.4802 64.5592 40.4821 64.5626 40.4841C64.5659 40.486 64.5692 40.4879 64.5725 40.4898C64.5758 40.4917 64.5791 40.4936 64.5824 40.4955C64.5858 40.4974 64.5891 40.4994 64.5924 40.5013C64.5957 40.5032 64.599 40.5051 64.6023 40.507C64.6056 40.5089 64.609 40.5108 64.6123 40.5128C64.6156 40.5147 64.6189 40.5166 64.6222 40.5185C64.6255 40.5204 64.6288 40.5223 64.6321 40.5242C64.6354 40.5261 64.6388 40.528 64.6421 40.53C64.6454 40.5319 64.6487 40.5338 64.652 40.5357C64.6553 40.5376 64.6586 40.5395 64.6619 40.5414C64.6652 40.5433 64.6685 40.5452 64.6718 40.5472C64.6752 40.5491 64.6785 40.551 64.6818 40.5529C64.6851 40.5548 64.6884 40.5567 64.6917 40.5586C64.695 40.5605 64.6983 40.5624 64.7016 40.5643C64.7049 40.5662 64.7082 40.5681 64.7115 40.5701C64.7148 40.572 64.7181 40.5739 64.7214 40.5758C64.7247 40.5777 64.728 40.5796 64.7313 40.5815C64.7346 40.5834 64.7379 40.5853 64.7412 40.5872C64.7445 40.5891 64.7478 40.591 64.7511 40.5929C64.7544 40.5948 64.7577 40.5967 64.761 40.5986C64.7643 40.6005 64.7676 40.6024 64.7709 40.6043C64.7742 40.6063 64.7775 40.6082 64.7808 40.6101C64.7841 40.612 64.7874 40.6139 64.7907 40.6158C64.794 40.6177 64.7973 40.6196 64.8006 40.6215C64.8039 40.6234 64.8072 40.6253 64.8104 40.6272C64.8137 40.6291 64.817 40.631 64.8203 40.6329C64.8236 40.6348 64.8269 40.6367 64.8302 40.6386C64.8335 40.6405 64.8368 40.6424 64.8401 40.6443C64.8433 40.6462 64.8466 40.6481 64.8499 40.65C64.8532 40.6519 64.8565 40.6538 64.8598 40.6556C64.8631 40.6575 64.8663 40.6594 64.8696 40.6613C64.8729 40.6632 64.8762 40.6651 64.8795 40.667C64.8828 40.6689 64.886 40.6708 64.8893 40.6727C64.8926 40.6746 64.8959 40.6765 64.8992 40.6784C64.9024 40.6803 64.9057 40.6822 64.909 40.6841C64.9123 40.686 64.9155 40.6878 64.9188 40.6897C64.9221 40.6916 64.9254 40.6935 64.9286 40.6954C64.9319 40.6973 64.9352 40.6992 64.9385 40.7011C64.9417 40.703 64.945 40.7049 64.9483 40.7067C64.9515 40.7086 64.9548 40.7105 64.9581 40.7124C64.9614 40.7143 64.9646 40.7162 64.9679 40.7181C64.9712 40.72 64.9744 40.7218 64.9777 40.7237C64.981 40.7256 64.9842 40.7275 64.9875 40.7294C64.9907 40.7313 64.994 40.7332 64.9973 40.735C65.0005 40.7369 65.0038 40.7388 65.0071 40.7407C65.0103 40.7426 65.0136 40.7445 65.0168 40.7463C65.0201 40.7482 65.0234 40.7501 65.0266 40.752C65.0299 40.7539 65.0331 40.7557 65.0364 40.7576C65.0396 40.7595 65.0429 40.7614 65.0461 40.7633C65.0494 40.7651 65.0526 40.767 65.0559 40.7689C65.0591 40.7708 65.0624 40.7726 65.0656 40.7745C65.0689 40.7764 65.0721 40.7783 65.0754 40.7801C65.0786 40.782 65.0819 40.7839 65.0851 40.7858C65.0884 40.7876 65.0916 40.7895 65.0949 40.7914C65.0981 40.7933 65.1013 40.7951 65.1046 40.797C65.1078 40.7989 65.1111 40.8007 65.1143 40.8026C65.1175 40.8045 65.1208 40.8063 65.124 40.8082C65.1273 40.8101 65.1305 40.812 65.1337 40.8138C65.137 40.8157 65.1402 40.8176 65.1434 40.8194C65.1467 40.8213 65.1499 40.8232 65.1531 40.825C65.1563 40.8269 65.1596 40.8287 65.1628 40.8306C65.166 40.8325 65.1693 40.8343 65.1725 40.8362C65.1757 40.8381 65.1789 40.8399 65.1822 40.8418C65.1854 40.8436 65.1886 40.8455 65.1918 40.8474C65.195 40.8492 65.1983 40.8511 65.2015 40.8529C65.2047 40.8548 65.2079 40.8567 65.2111 40.8585C65.2144 40.8604 65.2176 40.8622 65.2208 40.8641C65.224 40.8659 65.2272 40.8678 65.2304 40.8696C65.2336 40.8715 65.2368 40.8734 65.2401 40.8752C65.2433 40.8771 65.2465 40.8789 65.2497 40.8808C65.2529 40.8826 65.2561 40.8845 65.2593 40.8863C65.2625 40.8882 65.2657 40.89 65.2689 40.8919C65.2721 40.8937 65.2753 40.8956 65.2785 40.8974C65.2817 40.8993 65.2849 40.9011 65.2881 40.9029C65.2913 40.9048 65.2945 40.9066 65.2977 40.9085C65.3009 40.9103 65.3041 40.9122 65.3073 40.914C65.3105 40.9159 65.3137 40.9177 65.3168 40.9195C65.32 40.9214 65.3232 40.9232 65.3264 40.9251C65.3296 40.9269 65.3328 40.9287 65.336 40.9306C65.3391 40.9324 65.3423 40.9343 65.3455 40.9361C65.3487 40.9379 65.3519 40.9398 65.355 40.9416C65.3582 40.9434 65.3614 40.9453 65.3646 40.9471C65.3677 40.9489 65.3709 40.9508 65.3741 40.9526C65.3773 40.9544 65.3804 40.9563 65.3836 40.9581C65.3868 40.9599 65.3899 40.9617 65.3931 40.9636C65.3963 40.9654 65.3994 40.9672 65.4026 40.9691C65.4058 40.9709 65.4089 40.9727 65.4121 40.9745C65.4153 40.9764 65.4184 40.9782 65.4216 40.98C65.4247 40.9818 65.4279 40.9837 65.4311 40.9855C65.4342 40.9873 65.4374 40.9891 65.4405 40.9909C65.4437 40.9928 65.4468 40.9946 65.45 40.9964C65.4531 40.9982 65.4563 41 65.4594 41.0019C65.4626 41.0037 65.4657 41.0055 65.4688 41.0073C65.472 41.0091 65.4751 41.0109 65.4783 41.0127C65.4814 41.0146 65.4845 41.0164 65.4877 41.0182C65.4908 41.02 65.494 41.0218 65.4971 41.0236C65.5002 41.0254 65.5034 41.0272 65.5065 41.029C65.5096 41.0308 65.5128 41.0326 65.5159 41.0345C65.519 41.0363 65.5221 41.0381 65.5253 41.0399C65.5284 41.0417 65.5315 41.0435 65.5346 41.0453C65.5377 41.0471 65.5409 41.0489 65.544 41.0507C65.5471 41.0525 65.5502 41.0543 65.5533 41.0561C65.5564 41.0579 65.5596 41.0597 65.5627 41.0615C65.5658 41.0633 65.5689 41.0651 65.572 41.0669C65.5751 41.0687 65.5782 41.0704 65.5813 41.0722C65.5844 41.074 65.5875 41.0758 65.5906 41.0776C65.5937 41.0794 65.5968 41.0812 65.5999 41.083C65.603 41.0848 65.6061 41.0866 65.6092 41.0883C65.6123 41.0901 65.6154 41.0919 65.6185 41.0937C65.6216 41.0955 65.6247 41.0973 65.6278 41.0991C65.6309 41.1008 65.6339 41.1026 65.637 41.1044C65.6401 41.1062 65.6432 41.108 65.6463 41.1097C65.6494 41.1115 65.6524 41.1133 65.6555 41.1151C65.6586 41.1168 65.6617 41.1186 65.6647 41.1204C65.6678 41.1222 65.6709 41.1239 65.674 41.1257C65.677 41.1275 65.6801 41.1293 65.6832 41.131C65.6862 41.1328 65.6893 41.1346 65.6923 41.1363C65.6954 41.1381 65.6985 41.1399 65.7015 41.1416C65.7046 41.1434 65.7076 41.1452 65.7107 41.1469C65.7138 41.1487 65.7168 41.1505 65.7199 41.1522C65.7229 41.154 65.726 41.1557 65.729 41.1575C65.7321 41.1593 65.7351 41.161 65.7382 41.1628C65.7412 41.1645 65.7442 41.1663 65.7473 41.1681C65.7503 41.1698 65.7534 41.1716 65.7564 41.1733C65.7594 41.1751 65.7625 41.1768 65.7655 41.1786C65.7685 41.1803 65.7716 41.1821 65.7746 41.1838C65.7776 41.1856 65.7806 41.1873 65.7837 41.1891C65.7867 41.1908 65.7897 41.1926 65.7927 41.1943C65.7958 41.196 65.7988 41.1978 65.8018 41.1995C65.8048 41.2013 65.8078 41.203 65.8108 41.2047C65.8138 41.2065 65.8169 41.2082 65.8199 41.21C65.8229 41.2117 65.8259 41.2134 65.8289 41.2152C65.8319 41.2169 65.8349 41.2186 65.8379 41.2204C65.8409 41.2221 65.8439 41.2238 65.8469 41.2256C65.8499 41.2273 65.8529 41.229 65.8559 41.2307C65.8589 41.2325 65.8619 41.2342 65.8648 41.2359C65.8678 41.2377 65.8708 41.2394 65.8738 41.2411C65.8768 41.2428 65.8798 41.2445 65.8827 41.2463C65.8857 41.248 65.8887 41.2497 65.8917 41.2514C65.8947 41.2531 65.8976 41.2549 65.9006 41.2566C65.9036 41.2583 65.9065 41.26 65.9095 41.2617C65.9125 41.2634 65.9154 41.2651 65.9184 41.2669C65.9214 41.2686 65.9243 41.2703 65.9273 41.272C65.9302 41.2737 65.9332 41.2754 65.9362 41.2771C65.9391 41.2788 65.9421 41.2805 65.945 41.2822C65.948 41.2839 65.9509 41.2856 65.9539 41.2873C65.9568 41.289 65.9597 41.2907 65.9627 41.2924C65.9656 41.2941 65.9686 41.2958 65.9715 41.2975C65.9744 41.2992 65.9774 41.3009 65.9803 41.3026C65.9832 41.3043 65.9862 41.306 65.9891 41.3077C65.992 41.3094 65.9949 41.311 65.9979 41.3127C66.0008 41.3144 66.0037 41.3161 66.0066 41.3178C66.0095 41.3195 66.0125 41.3212 66.0154 41.3228C66.0183 41.3245 66.0212 41.3262 66.0241 41.3279C66.027 41.3296 66.0299 41.3312 66.0328 41.3329C66.0357 41.3346 66.0386 41.3363 66.0415 41.3379C66.0444 41.3396 66.0473 41.3413 66.0502 41.343C66.0531 41.3446 66.056 41.3463 66.0589 41.348C66.0618 41.3496 66.0647 41.3513 66.0676 41.353C66.0705 41.3546 66.0733 41.3563 66.0762 41.358C66.0791 41.3596 66.082 41.3613 66.0849 41.363C66.0877 41.3646 66.0906 41.3663 66.0935 41.3679C66.0963 41.3696 66.0992 41.3712 66.1021 41.3729C66.1049 41.3746 66.1078 41.3762 66.1107 41.3779C66.1135 41.3795 66.1164 41.3812 66.1193 41.3828C66.1221 41.3845 66.125 41.3861 66.1278 41.3878C66.1307 41.3894 66.1335 41.391 66.1364 41.3927C66.1392 41.3943 66.1421 41.396 66.1449 41.3976C66.1477 41.3993 66.1506 41.4009 66.1534 41.4025C66.1562 41.4042 66.1591 41.4058 66.1619 41.4074C66.1647 41.4091 66.1676 41.4107 66.1704 41.4123C66.1732 41.414 66.1761 41.4156 66.1789 41.4172C66.1817 41.4189 66.1845 41.4205 66.1873 41.4221C66.1901 41.4237 66.193 41.4254 66.1958 41.427C66.1986 41.4286 66.2014 41.4302 66.2042 41.4319C66.207 41.4335 66.2098 41.4351 66.2126 41.4367C66.2154 41.4383 66.2182 41.4399 66.221 41.4416C66.2238 41.4432 66.2266 41.4448 66.2294 41.4464C66.2322 41.448 66.235 41.4496 66.2378 41.4512C66.2405 41.4528 66.2433 41.4544 66.2461 41.456C66.2489 41.4577 66.2517 41.4593 66.2544 41.4609C66.2572 41.4625 66.26 41.4641 66.2627 41.4657C66.2655 41.4673 66.2683 41.4689 66.271 41.4705C66.2738 41.472 66.2766 41.4736 66.2793 41.4752C66.2821 41.4768 66.2848 41.4784 66.2876 41.48C66.2904 41.4816 66.2931 41.4832 66.2959 41.4848C66.2986 41.4864 66.3013 41.4879 66.3041 41.4895C66.3068 41.4911 66.3096 41.4927 66.3123 41.4943C66.315 41.4959 66.3178 41.4974 66.3205 41.499C66.3232 41.5006 66.326 41.5022 66.3287 41.5037C66.3314 41.5053 66.3341 41.5069 66.3369 41.5085C66.3396 41.51 66.3423 41.5116 66.345 41.5132C66.3477 41.5147 66.3504 41.5163 66.3532 41.5179C66.3559 41.5194 66.3586 41.521 66.3613 41.5225C66.364 41.5241 66.3667 41.5257 66.3694 41.5272C66.3721 41.5288 66.3748 41.5303 66.3775 41.5319C66.3801 41.5334 66.3828 41.535 66.3855 41.5365C66.3882 41.5381 66.3909 41.5396 66.3936 41.5412C66.3963 41.5427 66.3989 41.5443 66.4016 41.5458C66.4043 41.5474 66.407 41.5489 66.4096 41.5505C66.4123 41.552 66.415 41.5535 66.4176 41.5551C66.4203 41.5566 66.4229 41.5582 66.4256 41.5597C66.4283 41.5612 66.4309 41.5628 66.4336 41.5643C66.4362 41.5658 66.4389 41.5673 66.4415 41.5689C66.4442 41.5704 66.4468 41.5719 66.4494 41.5734C66.4521 41.575 66.4547 41.5765 66.4574 41.578C66.46 41.5795 66.4626 41.5811 66.4652 41.5826C66.4679 41.5841 66.4705 41.5856 66.4731 41.5871C66.4757 41.5886 66.4784 41.5901 66.481 41.5917C66.4836 41.5932 66.4862 41.5947 66.4888 41.5962C66.4914 41.5977 66.494 41.5992 66.4966 41.6007C66.4992 41.6022 66.5018 41.6037 66.5044 41.6052C66.507 41.6067 66.5096 41.6082 66.5122 41.6097C66.5148 41.6112 66.5174 41.6127 66.52 41.6142C66.5226 41.6157 66.5251 41.6172 66.5277 41.6186C66.5303 41.6201 66.5329 41.6216 66.5355 41.6231C66.538 41.6246 66.5406 41.6261 66.5432 41.6276C66.5457 41.629 66.5483 41.6305 66.5509 41.632C66.5534 41.6335 66.556 41.635 66.5585 41.6364C66.5611 41.6379 66.5636 41.6394 66.5662 41.6408C66.5687 41.6423 66.5713 41.6438 66.5738 41.6453C66.5764 41.6467 66.5789 41.6482 66.5814 41.6496C66.584 41.6511 66.5865 41.6526 66.589 41.654C66.5915 41.6555 66.5941 41.657 66.5966 41.6584C66.5991 41.6599 66.6016 41.6613 66.6042 41.6628C66.6067 41.6642 66.6092 41.6657 66.6117 41.6671C66.6142 41.6686 66.6167 41.67 66.6192 41.6715C66.6217 41.6729 66.6242 41.6744 66.6267 41.6758C66.6292 41.6772 66.6317 41.6787 66.6342 41.6801C66.6367 41.6815 66.6392 41.683 66.6416 41.6844C66.6441 41.6858 66.6466 41.6873 66.6491 41.6887C66.6516 41.6901 66.654 41.6916 66.6565 41.693C66.659 41.6944 66.6614 41.6958 66.6639 41.6973C66.6664 41.6987 66.6688 41.7001 66.6713 41.7015C66.6737 41.7029 66.6762 41.7044 66.6786 41.7058C66.6811 41.7072 66.6835 41.7086 66.686 41.71C66.6884 41.7114 66.6909 41.7128 66.6933 41.7142C66.6957 41.7156 66.6982 41.7171 66.7006 41.7185C66.703 41.7199 66.7055 41.7213 66.7079 41.7227C66.7103 41.7241 66.7127 41.7255 66.7151 41.7268C66.7176 41.7282 66.72 41.7296 66.7224 41.731C66.7248 41.7324 66.7272 41.7338 66.7296 41.7352C66.732 41.7366 66.7344 41.738 66.7368 41.7393C66.7392 41.7407 66.7416 41.7421 66.744 41.7435C66.7464 41.7449 66.7487 41.7462 66.7511 41.7476C66.7535 41.749 66.7559 41.7504 66.7583 41.7517C66.7606 41.7531 66.763 41.7545 66.7654 41.7558C66.7677 41.7572 66.7701 41.7586 66.7725 41.7599C66.7748 41.7613 66.7772 41.7627 66.7795 41.764C66.7819 41.7654 66.7842 41.7667 66.7866 41.7681C66.7889 41.7694 66.7913 41.7708 66.7936 41.7722C66.7959 41.7735 66.7983 41.7749 66.8006 41.7762C66.8029 41.7775 66.8053 41.7789 66.8076 41.7802C66.8099 41.7816 66.8122 41.7829 66.8146 41.7843C66.8169 41.7856 66.8192 41.7869 66.8215 41.7883C66.8238 41.7896 66.8261 41.7909 66.8284 41.7923C66.8307 41.7936 66.833 41.7949 66.8353 41.7962C66.8376 41.7976 66.8399 41.7989 66.8422 41.8002C66.8445 41.8015 66.8468 41.8028 66.8491 41.8042C66.8513 41.8055 66.8536 41.8068 66.8559 41.8081C66.8582 41.8094 66.8604 41.8107 66.8627 41.812C66.865 41.8134 66.8672 41.8147 66.8695 41.816C66.8717 41.8173 66.874 41.8186 66.8763 41.8199C66.8785 41.8212 66.8808 41.8225 66.883 41.8238C66.8852 41.8251 66.8875 41.8264 66.8897 41.8276C66.892 41.8289 66.8942 41.8302 66.8964 41.8315C66.8987 41.8328 66.9009 41.8341 66.9031 41.8354C66.9053 41.8367 66.9075 41.8379 66.9098 41.8392C66.912 41.8405 66.9142 41.8418 66.9164 41.843C66.9186 41.8443 66.9208 41.8456 66.923 41.8469C66.9252 41.8481 66.9274 41.8494 66.9296 41.8507C66.9318 41.8519 66.934 41.8532 66.9361 41.8544C66.9383 41.8557 66.9405 41.857 66.9427 41.8582C66.9449 41.8595 66.947 41.8607 66.9492 41.862C66.9514 41.8632 66.9535 41.8645 66.9557 41.8657C66.9579 41.867 66.96 41.8682 66.9622 41.8695C66.9643 41.8707 66.9665 41.872 66.9686 41.8732C66.9708 41.8744 66.9729 41.8757 66.975 41.8769C66.9772 41.8781 66.9793 41.8794 66.9814 41.8806C66.9836 41.8818 66.9857 41.8831 66.9878 41.8843C66.9899 41.8855 66.9921 41.8867 66.9942 41.8879C66.9963 41.8892 66.9984 41.8904 67.0005 41.8916C67.0026 41.8928 67.0047 41.894 67.0068 41.8952C67.0089 41.8965 67.011 41.8977 67.0131 41.8989C67.0152 41.9001 67.0173 41.9013 67.0193 41.9025C67.0214 41.9037 67.0235 41.9049 67.0256 41.9061C67.0277 41.9073 67.0297 41.9085 67.0318 41.9097C67.0339 41.9109 67.0359 41.9121 67.038 41.9132C67.04 41.9144 67.0421 41.9156 67.0441 41.9168C67.0462 41.918 67.0482 41.9192 67.0503 41.9203C67.0523 41.9215 67.0544 41.9227 67.0564 41.9239C67.0584 41.925 67.0605 41.9262 67.0625 41.9274C67.0645 41.9286 67.0665 41.9297 67.0685 41.9309C67.0706 41.932 67.0726 41.9332 67.0746 41.9344C67.0766 41.9355 67.0786 41.9367 67.0806 41.9378C67.0826 41.939 67.0846 41.9402 67.0866 41.9413C67.0886 41.9425 67.0906 41.9436 67.0926 41.9447C67.0945 41.9459 67.0965 41.947 67.0985 41.9482C67.1005 41.9493 67.1024 41.9505 67.1044 41.9516C67.1064 41.9527 67.1083 41.9539 67.1103 41.955C67.1123 41.9561 67.1142 41.9573 67.1162 41.9584C67.1181 41.9595 67.1201 41.9606 67.122 41.9617C67.1239 41.9629 67.1259 41.964 67.1278 41.9651C67.1297 41.9662 67.1317 41.9673 67.1336 41.9684C67.1355 41.9696 67.1375 41.9707 67.1394 41.9718C67.1413 41.9729 67.1432 41.974 67.1451 41.9751C67.147 41.9762 67.1489 41.9773 67.1508 41.9784C67.1527 41.9795 67.1546 41.9806 67.1565 41.9817C67.1584 41.9828 67.1603 41.9839 67.1622 41.9849C67.164 41.986 67.1659 41.9871 67.1678 41.9882C67.1697 41.9893 67.1715 41.9904 67.1734 41.9914C67.1753 41.9925 67.1771 41.9936 67.179 41.9947C67.1809 41.9957 67.1827 41.9968 67.1846 41.9979C67.1864 41.9989 67.1882 42 67.1901 42.0011C67.1919 42.0021 67.1938 42.0032 67.1956 42.0042C67.1974 42.0053 67.1992 42.0063 67.2011 42.0074C67.2029 42.0084 67.2047 42.0095 67.2065 42.0105C67.2083 42.0116 67.2101 42.0126 67.2119 42.0137C67.2137 42.0147 67.2155 42.0158 67.2173 42.0168C67.2191 42.0178 67.2209 42.0189 67.2227 42.0199C67.2245 42.0209 67.2263 42.022 67.2281 42.023C67.2298 42.024 67.2316 42.025 67.2334 42.0261C67.2351 42.0271 67.2369 42.0281 67.2387 42.0291C67.2404 42.0301 67.2422 42.0311 67.2439 42.0321C67.2457 42.0332 67.2474 42.0342 67.2492 42.0352C67.2509 42.0362 67.2527 42.0372 67.2544 42.0382C67.2561 42.0392 67.2578 42.0402 67.2596 42.0412C67.2613 42.0422 67.263 42.0432 67.2647 42.0442C67.2664 42.0451 67.2681 42.0461 67.2699 42.0471C67.2716 42.0481 67.2733 42.0491 67.275 42.0501C67.2767 42.051 67.2783 42.052 67.28 42.053C67.2817 42.054 67.2834 42.0549 67.2851 42.0559C67.2868 42.0569 67.2884 42.0578 67.2901 42.0588C67.2918 42.0598 67.2934 42.0607 67.2951 42.0617C67.2967 42.0626 67.2984 42.0636 67.3001 42.0645C67.3017 42.0655 67.3033 42.0664 67.305 42.0674C67.3066 42.0683 67.3083 42.0693 67.3099 42.0702L68.3099 40.3382C68.3083 40.3372 68.3066 40.3363 68.305 40.3353C68.3033 40.3344 68.3017 40.3334 68.3001 40.3325C68.2984 40.3315 68.2967 40.3306 68.2951 40.3296C68.2934 40.3287 68.2918 40.3277 68.2901 40.3267C68.2884 40.3258 68.2868 40.3248 68.2851 40.3239C68.2834 40.3229 68.2817 40.3219 68.28 40.3209C68.2783 40.32 68.2767 40.319 68.275 40.318C68.2733 40.317 68.2716 40.316 68.2699 40.3151C68.2681 40.3141 68.2664 40.3131 68.2647 40.3121C68.263 40.3111 68.2613 40.3101 68.2596 40.3091C68.2578 40.3081 68.2561 40.3071 68.2544 40.3061C68.2527 40.3051 68.2509 40.3041 68.2492 40.3031C68.2474 40.3021 68.2457 40.3011 68.2439 40.3001C68.2422 40.2991 68.2404 40.2981 68.2387 40.2971C68.2369 40.296 68.2351 40.295 68.2334 40.294C68.2316 40.293 68.2298 40.292 68.2281 40.2909C68.2263 40.2899 68.2245 40.2889 68.2227 40.2878C68.2209 40.2868 68.2191 40.2858 68.2173 40.2847C68.2155 40.2837 68.2137 40.2827 68.2119 40.2816C68.2101 40.2806 68.2083 40.2795 68.2065 40.2785C68.2047 40.2774 68.2029 40.2764 68.2011 40.2753C68.1992 40.2743 68.1974 40.2732 68.1956 40.2722C68.1938 40.2711 68.1919 40.2701 68.1901 40.269C68.1882 40.2679 68.1864 40.2669 68.1846 40.2658C68.1827 40.2647 68.1809 40.2637 68.179 40.2626C68.1771 40.2615 68.1753 40.2605 68.1734 40.2594C68.1715 40.2583 68.1697 40.2572 68.1678 40.2561C68.1659 40.2551 68.164 40.254 68.1622 40.2529C68.1603 40.2518 68.1584 40.2507 68.1565 40.2496C68.1546 40.2485 68.1527 40.2474 68.1508 40.2463C68.1489 40.2452 68.147 40.2441 68.1451 40.243C68.1432 40.2419 68.1413 40.2408 68.1394 40.2397C68.1375 40.2386 68.1355 40.2375 68.1336 40.2364C68.1317 40.2353 68.1297 40.2342 68.1278 40.2331C68.1259 40.2319 68.1239 40.2308 68.122 40.2297C68.1201 40.2286 68.1181 40.2275 68.1162 40.2263C68.1142 40.2252 68.1123 40.2241 68.1103 40.2229C68.1083 40.2218 68.1064 40.2207 68.1044 40.2195C68.1024 40.2184 68.1005 40.2173 68.0985 40.2161C68.0965 40.215 68.0945 40.2138 68.0926 40.2127C68.0906 40.2116 68.0886 40.2104 68.0866 40.2093C68.0846 40.2081 68.0826 40.2069 68.0806 40.2058C68.0786 40.2046 68.0766 40.2035 68.0746 40.2023C68.0726 40.2012 68.0706 40.2 68.0685 40.1988C68.0665 40.1977 68.0645 40.1965 68.0625 40.1953C68.0605 40.1942 68.0584 40.193 68.0564 40.1918C68.0544 40.1906 68.0523 40.1895 68.0503 40.1883C68.0482 40.1871 68.0462 40.1859 68.0441 40.1847C68.0421 40.1836 68.04 40.1824 68.038 40.1812C68.0359 40.18 68.0339 40.1788 68.0318 40.1776C68.0297 40.1764 68.0277 40.1752 68.0256 40.174C68.0235 40.1728 68.0214 40.1716 68.0193 40.1704C68.0173 40.1692 68.0152 40.168 68.0131 40.1668C68.011 40.1656 68.0089 40.1644 68.0068 40.1632C68.0047 40.162 68.0026 40.1608 68.0005 40.1595C67.9984 40.1583 67.9963 40.1571 67.9942 40.1559C67.9921 40.1547 67.9899 40.1535 67.9878 40.1522C67.9857 40.151 67.9836 40.1498 67.9814 40.1485C67.9793 40.1473 67.9772 40.1461 67.975 40.1449C67.9729 40.1436 67.9708 40.1424 67.9686 40.1411C67.9665 40.1399 67.9643 40.1387 67.9622 40.1374C67.96 40.1362 67.9579 40.1349 67.9557 40.1337C67.9535 40.1324 67.9514 40.1312 67.9492 40.1299C67.947 40.1287 67.9449 40.1274 67.9427 40.1262C67.9405 40.1249 67.9383 40.1237 67.9361 40.1224C67.934 40.1211 67.9318 40.1199 67.9296 40.1186C67.9274 40.1173 67.9252 40.1161 67.923 40.1148C67.9208 40.1135 67.9186 40.1123 67.9164 40.111C67.9142 40.1097 67.912 40.1084 67.9098 40.1072C67.9075 40.1059 67.9053 40.1046 67.9031 40.1033C67.9009 40.102 67.8987 40.1007 67.8964 40.0995C67.8942 40.0982 67.892 40.0969 67.8897 40.0956C67.8875 40.0943 67.8852 40.093 67.883 40.0917C67.8808 40.0904 67.8785 40.0891 67.8763 40.0878C67.874 40.0865 67.8717 40.0852 67.8695 40.0839C67.8672 40.0826 67.865 40.0813 67.8627 40.08C67.8604 40.0787 67.8582 40.0774 67.8559 40.0761C67.8536 40.0747 67.8513 40.0734 67.8491 40.0721C67.8468 40.0708 67.8445 40.0695 67.8422 40.0682C67.8399 40.0668 67.8376 40.0655 67.8353 40.0642C67.833 40.0629 67.8307 40.0615 67.8284 40.0602C67.8261 40.0589 67.8238 40.0575 67.8215 40.0562C67.8192 40.0549 67.8169 40.0535 67.8146 40.0522C67.8122 40.0509 67.8099 40.0495 67.8076 40.0482C67.8053 40.0468 67.8029 40.0455 67.8006 40.0441C67.7983 40.0428 67.7959 40.0415 67.7936 40.0401C67.7913 40.0388 67.7889 40.0374 67.7866 40.036C67.7842 40.0347 67.7819 40.0333 67.7795 40.032C67.7772 40.0306 67.7748 40.0293 67.7725 40.0279C67.7701 40.0265 67.7677 40.0252 67.7654 40.0238C67.763 40.0224 67.7606 40.0211 67.7583 40.0197C67.7559 40.0183 67.7535 40.0169 67.7511 40.0156C67.7487 40.0142 67.7464 40.0128 67.744 40.0114C67.7416 40.0101 67.7392 40.0087 67.7368 40.0073C67.7344 40.0059 67.732 40.0045 67.7296 40.0031C67.7272 40.0018 67.7248 40.0004 67.7224 39.999C67.72 39.9976 67.7176 39.9962 67.7151 39.9948C67.7127 39.9934 67.7103 39.992 67.7079 39.9906C67.7055 39.9892 67.703 39.9878 67.7006 39.9864C67.6982 39.985 67.6957 39.9836 67.6933 39.9822C67.6909 39.9808 67.6884 39.9794 67.686 39.978C67.6835 39.9766 67.6811 39.9751 67.6786 39.9737C67.6762 39.9723 67.6737 39.9709 67.6713 39.9695C67.6688 39.9681 67.6664 39.9666 67.6639 39.9652C67.6614 39.9638 67.659 39.9624 67.6565 39.9609C67.654 39.9595 67.6516 39.9581 67.6491 39.9567C67.6466 39.9552 67.6441 39.9538 67.6416 39.9524C67.6392 39.9509 67.6367 39.9495 67.6342 39.9481C67.6317 39.9466 67.6292 39.9452 67.6267 39.9437C67.6242 39.9423 67.6217 39.9409 67.6192 39.9394C67.6167 39.938 67.6142 39.9365 67.6117 39.9351C67.6092 39.9336 67.6067 39.9322 67.6042 39.9307C67.6016 39.9293 67.5991 39.9278 67.5966 39.9264C67.5941 39.9249 67.5915 39.9234 67.589 39.922C67.5865 39.9205 67.584 39.9191 67.5814 39.9176C67.5789 39.9161 67.5764 39.9147 67.5738 39.9132C67.5713 39.9117 67.5687 39.9103 67.5662 39.9088C67.5636 39.9073 67.5611 39.9059 67.5585 39.9044C67.556 39.9029 67.5534 39.9014 67.5509 39.8999C67.5483 39.8985 67.5457 39.897 67.5432 39.8955C67.5406 39.894 67.538 39.8925 67.5355 39.8911C67.5329 39.8896 67.5303 39.8881 67.5277 39.8866C67.5251 39.8851 67.5226 39.8836 67.52 39.8821C67.5174 39.8806 67.5148 39.8791 67.5122 39.8776C67.5096 39.8761 67.507 39.8746 67.5044 39.8731C67.5018 39.8716 67.4992 39.8701 67.4966 39.8686C67.494 39.8671 67.4914 39.8656 67.4888 39.8641C67.4862 39.8626 67.4836 39.8611 67.481 39.8596C67.4784 39.8581 67.4757 39.8566 67.4731 39.8551C67.4705 39.8536 67.4679 39.852 67.4652 39.8505C67.4626 39.849 67.46 39.8475 67.4574 39.846C67.4547 39.8444 67.4521 39.8429 67.4494 39.8414C67.4468 39.8399 67.4442 39.8383 67.4415 39.8368C67.4389 39.8353 67.4362 39.8338 67.4336 39.8322C67.4309 39.8307 67.4283 39.8292 67.4256 39.8276C67.4229 39.8261 67.4203 39.8246 67.4176 39.823C67.415 39.8215 67.4123 39.8199 67.4096 39.8184C67.407 39.8169 67.4043 39.8153 67.4016 39.8138C67.3989 39.8122 67.3963 39.8107 67.3936 39.8091C67.3909 39.8076 67.3882 39.806 67.3855 39.8045C67.3828 39.8029 67.3801 39.8014 67.3775 39.7998C67.3748 39.7983 67.3721 39.7967 67.3694 39.7952C67.3667 39.7936 67.364 39.7921 67.3613 39.7905C67.3586 39.7889 67.3559 39.7874 67.3532 39.7858C67.3504 39.7842 67.3477 39.7827 67.345 39.7811C67.3423 39.7795 67.3396 39.778 67.3369 39.7764C67.3341 39.7748 67.3314 39.7733 67.3287 39.7717C67.326 39.7701 67.3232 39.7685 67.3205 39.767C67.3178 39.7654 67.315 39.7638 67.3123 39.7622C67.3096 39.7606 67.3068 39.7591 67.3041 39.7575C67.3013 39.7559 67.2986 39.7543 67.2959 39.7527C67.2931 39.7511 67.2904 39.7495 67.2876 39.748C67.2848 39.7464 67.2821 39.7448 67.2793 39.7432C67.2766 39.7416 67.2738 39.74 67.271 39.7384C67.2683 39.7368 67.2655 39.7352 67.2627 39.7336C67.26 39.732 67.2572 39.7304 67.2544 39.7288C67.2517 39.7272 67.2489 39.7256 67.2461 39.724C67.2433 39.7224 67.2405 39.7208 67.2378 39.7192C67.235 39.7176 67.2322 39.716 67.2294 39.7143C67.2266 39.7127 67.2238 39.7111 67.221 39.7095C67.2182 39.7079 67.2154 39.7063 67.2126 39.7047C67.2098 39.703 67.207 39.7014 67.2042 39.6998C67.2014 39.6982 67.1986 39.6966 67.1958 39.6949C67.193 39.6933 67.1901 39.6917 67.1873 39.6901C67.1845 39.6884 67.1817 39.6868 67.1789 39.6852C67.1761 39.6836 67.1732 39.6819 67.1704 39.6803C67.1676 39.6787 67.1647 39.677 67.1619 39.6754C67.1591 39.6738 67.1562 39.6721 67.1534 39.6705C67.1506 39.6688 67.1477 39.6672 67.1449 39.6656C67.1421 39.6639 67.1392 39.6623 67.1364 39.6606C67.1335 39.659 67.1307 39.6574 67.1278 39.6557C67.125 39.6541 67.1221 39.6524 67.1193 39.6508C67.1164 39.6491 67.1135 39.6475 67.1107 39.6458C67.1078 39.6442 67.1049 39.6425 67.1021 39.6408C67.0992 39.6392 67.0963 39.6375 67.0935 39.6359C67.0906 39.6342 67.0877 39.6326 67.0849 39.6309C67.082 39.6292 67.0791 39.6276 67.0762 39.6259C67.0733 39.6243 67.0705 39.6226 67.0676 39.6209C67.0647 39.6193 67.0618 39.6176 67.0589 39.6159C67.056 39.6143 67.0531 39.6126 67.0502 39.6109C67.0473 39.6092 67.0444 39.6076 67.0415 39.6059C67.0386 39.6042 67.0357 39.6025 67.0328 39.6009C67.0299 39.5992 67.027 39.5975 67.0241 39.5958C67.0212 39.5942 67.0183 39.5925 67.0154 39.5908C67.0125 39.5891 67.0095 39.5874 67.0066 39.5857C67.0037 39.5841 67.0008 39.5824 66.9979 39.5807C66.9949 39.579 66.992 39.5773 66.9891 39.5756C66.9862 39.5739 66.9832 39.5722 66.9803 39.5705C66.9774 39.5688 66.9744 39.5672 66.9715 39.5655C66.9686 39.5638 66.9656 39.5621 66.9627 39.5604C66.9597 39.5587 66.9568 39.557 66.9539 39.5553C66.9509 39.5536 66.948 39.5519 66.945 39.5502C66.9421 39.5485 66.9391 39.5468 66.9362 39.545C66.9332 39.5433 66.9302 39.5416 66.9273 39.5399C66.9243 39.5382 66.9214 39.5365 66.9184 39.5348C66.9154 39.5331 66.9125 39.5314 66.9095 39.5297C66.9065 39.528 66.9036 39.5262 66.9006 39.5245C66.8976 39.5228 66.8947 39.5211 66.8917 39.5194C66.8887 39.5177 66.8857 39.5159 66.8827 39.5142C66.8798 39.5125 66.8768 39.5108 66.8738 39.5091C66.8708 39.5073 66.8678 39.5056 66.8648 39.5039C66.8619 39.5022 66.8589 39.5004 66.8559 39.4987C66.8529 39.497 66.8499 39.4952 66.8469 39.4935C66.8439 39.4918 66.8409 39.4901 66.8379 39.4883C66.8349 39.4866 66.8319 39.4849 66.8289 39.4831C66.8259 39.4814 66.8229 39.4796 66.8199 39.4779C66.8169 39.4762 66.8138 39.4744 66.8108 39.4727C66.8078 39.471 66.8048 39.4692 66.8018 39.4675C66.7988 39.4657 66.7958 39.464 66.7927 39.4622C66.7897 39.4605 66.7867 39.4588 66.7837 39.457C66.7806 39.4553 66.7776 39.4535 66.7746 39.4518C66.7716 39.45 66.7685 39.4483 66.7655 39.4465C66.7625 39.4448 66.7594 39.443 66.7564 39.4413C66.7534 39.4395 66.7503 39.4378 66.7473 39.436C66.7442 39.4342 66.7412 39.4325 66.7382 39.4307C66.7351 39.429 66.7321 39.4272 66.729 39.4255C66.726 39.4237 66.7229 39.4219 66.7199 39.4202C66.7168 39.4184 66.7138 39.4166 66.7107 39.4149C66.7076 39.4131 66.7046 39.4114 66.7015 39.4096C66.6985 39.4078 66.6954 39.4061 66.6923 39.4043C66.6893 39.4025 66.6862 39.4008 66.6832 39.399C66.6801 39.3972 66.677 39.3954 66.674 39.3937C66.6709 39.3919 66.6678 39.3901 66.6647 39.3883C66.6617 39.3866 66.6586 39.3848 66.6555 39.383C66.6524 39.3812 66.6494 39.3795 66.6463 39.3777C66.6432 39.3759 66.6401 39.3741 66.637 39.3723C66.6339 39.3706 66.6309 39.3688 66.6278 39.367C66.6247 39.3652 66.6216 39.3634 66.6185 39.3617C66.6154 39.3599 66.6123 39.3581 66.6092 39.3563C66.6061 39.3545 66.603 39.3527 66.5999 39.3509C66.5968 39.3491 66.5937 39.3474 66.5906 39.3456C66.5875 39.3438 66.5844 39.342 66.5813 39.3402C66.5782 39.3384 66.5751 39.3366 66.572 39.3348C66.5689 39.333 66.5658 39.3312 66.5627 39.3294C66.5596 39.3276 66.5564 39.3258 66.5533 39.324C66.5502 39.3222 66.5471 39.3204 66.544 39.3186C66.5409 39.3168 66.5377 39.315 66.5346 39.3132C66.5315 39.3114 66.5284 39.3096 66.5253 39.3078C66.5221 39.306 66.519 39.3042 66.5159 39.3024C66.5128 39.3006 66.5096 39.2988 66.5065 39.297C66.5034 39.2952 66.5002 39.2934 66.4971 39.2916C66.494 39.2897 66.4908 39.2879 66.4877 39.2861C66.4845 39.2843 66.4814 39.2825 66.4783 39.2807C66.4751 39.2789 66.472 39.2771 66.4688 39.2752C66.4657 39.2734 66.4626 39.2716 66.4594 39.2698C66.4563 39.268 66.4531 39.2662 66.45 39.2643C66.4468 39.2625 66.4437 39.2607 66.4405 39.2589C66.4374 39.2571 66.4342 39.2552 66.4311 39.2534C66.4279 39.2516 66.4247 39.2498 66.4216 39.248C66.4184 39.2461 66.4153 39.2443 66.4121 39.2425C66.4089 39.2407 66.4058 39.2388 66.4026 39.237C66.3994 39.2352 66.3963 39.2334 66.3931 39.2315C66.3899 39.2297 66.3868 39.2279 66.3836 39.226C66.3804 39.2242 66.3773 39.2224 66.3741 39.2205C66.3709 39.2187 66.3677 39.2169 66.3646 39.215C66.3614 39.2132 66.3582 39.2114 66.355 39.2095C66.3519 39.2077 66.3487 39.2059 66.3455 39.204C66.3423 39.2022 66.3391 39.2004 66.336 39.1985C66.3328 39.1967 66.3296 39.1948 66.3264 39.193C66.3232 39.1912 66.32 39.1893 66.3168 39.1875C66.3137 39.1856 66.3105 39.1838 66.3073 39.182C66.3041 39.1801 66.3009 39.1783 66.2977 39.1764C66.2945 39.1746 66.2913 39.1727 66.2881 39.1709C66.2849 39.1691 66.2817 39.1672 66.2785 39.1654C66.2753 39.1635 66.2721 39.1617 66.2689 39.1598C66.2657 39.158 66.2625 39.1561 66.2593 39.1543C66.2561 39.1524 66.2529 39.1506 66.2497 39.1487C66.2465 39.1469 66.2433 39.145 66.2401 39.1432C66.2368 39.1413 66.2336 39.1395 66.2304 39.1376C66.2272 39.1357 66.224 39.1339 66.2208 39.132C66.2176 39.1302 66.2144 39.1283 66.2111 39.1265C66.2079 39.1246 66.2047 39.1227 66.2015 39.1209C66.1983 39.119 66.195 39.1172 66.1918 39.1153C66.1886 39.1135 66.1854 39.1116 66.1822 39.1097C66.1789 39.1079 66.1757 39.106 66.1725 39.1041C66.1693 39.1023 66.166 39.1004 66.1628 39.0986C66.1596 39.0967 66.1563 39.0948 66.1531 39.093C66.1499 39.0911 66.1467 39.0892 66.1434 39.0874C66.1402 39.0855 66.137 39.0836 66.1337 39.0818C66.1305 39.0799 66.1273 39.078 66.124 39.0762C66.1208 39.0743 66.1175 39.0724 66.1143 39.0706C66.1111 39.0687 66.1078 39.0668 66.1046 39.0649C66.1013 39.0631 66.0981 39.0612 66.0949 39.0593C66.0916 39.0575 66.0884 39.0556 66.0851 39.0537C66.0819 39.0518 66.0786 39.05 66.0754 39.0481C66.0721 39.0462 66.0689 39.0443 66.0656 39.0425C66.0624 39.0406 66.0591 39.0387 66.0559 39.0368C66.0526 39.035 66.0494 39.0331 66.0461 39.0312C66.0429 39.0293 66.0396 39.0274 66.0364 39.0256C66.0331 39.0237 66.0299 39.0218 66.0266 39.0199C66.0234 39.018 66.0201 39.0162 66.0168 39.0143C66.0136 39.0124 66.0103 39.0105 66.0071 39.0086C66.0038 39.0068 66.0005 39.0049 65.9973 39.003C65.994 39.0011 65.9907 38.9992 65.9875 38.9973C65.9842 38.9955 65.981 38.9936 65.9777 38.9917C65.9744 38.9898 65.9712 38.9879 65.9679 38.986C65.9646 38.9841 65.9614 38.9822 65.9581 38.9804C65.9548 38.9785 65.9515 38.9766 65.9483 38.9747C65.945 38.9728 65.9417 38.9709 65.9385 38.969C65.9352 38.9671 65.9319 38.9653 65.9286 38.9634C65.9254 38.9615 65.9221 38.9596 65.9188 38.9577C65.9155 38.9558 65.9123 38.9539 65.909 38.952C65.9057 38.9501 65.9024 38.9482 65.8992 38.9463C65.8959 38.9444 65.8926 38.9425 65.8893 38.9407C65.886 38.9388 65.8828 38.9369 65.8795 38.935C65.8762 38.9331 65.8729 38.9312 65.8696 38.9293C65.8663 38.9274 65.8631 38.9255 65.8598 38.9236C65.8565 38.9217 65.8532 38.9198 65.8499 38.9179C65.8466 38.916 65.8433 38.9141 65.8401 38.9122C65.8368 38.9103 65.8335 38.9084 65.8302 38.9065C65.8269 38.9046 65.8236 38.9027 65.8203 38.9008C65.817 38.8989 65.8137 38.897 65.8104 38.8951C65.8072 38.8932 65.8039 38.8913 65.8006 38.8894C65.7973 38.8875 65.794 38.8856 65.7907 38.8837C65.7874 38.8818 65.7841 38.8799 65.7808 38.878C65.7775 38.8761 65.7742 38.8742 65.7709 38.8723C65.7676 38.8704 65.7643 38.8685 65.761 38.8666C65.7577 38.8647 65.7544 38.8628 65.7511 38.8609C65.7478 38.859 65.7445 38.8571 65.7412 38.8552C65.7379 38.8533 65.7346 38.8513 65.7313 38.8494C65.728 38.8475 65.7247 38.8456 65.7214 38.8437C65.7181 38.8418 65.7148 38.8399 65.7115 38.838C65.7082 38.8361 65.7049 38.8342 65.7016 38.8323C65.6983 38.8304 65.695 38.8285 65.6917 38.8266C65.6884 38.8246 65.6851 38.8227 65.6818 38.8208C65.6785 38.8189 65.6752 38.817 65.6718 38.8151C65.6685 38.8132 65.6652 38.8113 65.6619 38.8094C65.6586 38.8075 65.6553 38.8056 65.652 38.8036C65.6487 38.8017 65.6454 38.7998 65.6421 38.7979C65.6388 38.796 65.6354 38.7941 65.6321 38.7922C65.6288 38.7903 65.6255 38.7884 65.6222 38.7864C65.6189 38.7845 65.6156 38.7826 65.6123 38.7807C65.609 38.7788 65.6056 38.7769 65.6023 38.775C65.599 38.7731 65.5957 38.7711 65.5924 38.7692C65.5891 38.7673 65.5858 38.7654 65.5824 38.7635C65.5791 38.7616 65.5758 38.7597 65.5725 38.7577C65.5692 38.7558 65.5659 38.7539 65.5626 38.752C65.5592 38.7501 65.5559 38.7482 65.5526 38.7463C65.5493 38.7443 65.546 38.7424 65.5426 38.7405C65.5393 38.7386 65.536 38.7367 65.5327 38.7348C65.5294 38.7328 65.5261 38.7309 65.5227 38.729C65.5194 38.7271 65.5161 38.7252 65.5128 38.7233C65.5095 38.7214 65.5061 38.7194 65.5028 38.7175C65.4995 38.7156 65.4962 38.7137 65.4929 38.7118C65.4895 38.7099 65.4862 38.7079 65.4829 38.706C65.4796 38.7041 65.4763 38.7022 65.4729 38.7003C65.4696 38.6983 65.4663 38.6964 65.463 38.6945C65.4597 38.6926 65.4563 38.6907 65.453 38.6888C65.4497 38.6868 65.4464 38.6849 65.443 38.683C65.4397 38.6811 65.4364 38.6792 65.4331 38.6772C65.4298 38.6753 65.4264 38.6734 65.4231 38.6715C65.4198 38.6696 65.4165 38.6677 65.4131 38.6657C65.4098 38.6638 65.4065 38.6619 65.4032 38.66C65.3998 38.6581 65.3965 38.6561 65.3932 38.6542C65.3899 38.6523 65.3866 38.6504 65.3832 38.6485C65.3799 38.6465 65.3766 38.6446 65.3733 38.6427C65.3699 38.6408 65.3666 38.6389 65.3633 38.637C65.36 38.635 65.3566 38.6331 65.3533 38.6312C65.35 38.6293 65.3467 38.6274 65.3433 38.6254C65.34 38.6235 65.3367 38.6216 65.3334 38.6197C65.33 38.6178 65.3267 38.6158 65.3234 38.6139C65.3201 38.612 65.3167 38.6101 65.3134 38.6082C65.3101 38.6062 65.3068 38.6043 65.3034 38.6024C65.3001 38.6005 65.2968 38.5986 65.2935 38.5966C65.2901 38.5947 65.2868 38.5928 65.2835 38.5909C65.2802 38.589 65.2768 38.587 65.2735 38.5851C65.2702 38.5832 65.2669 38.5813 65.2635 38.5794C65.2602 38.5774 65.2569 38.5755 65.2536 38.5736C65.2502 38.5717 65.2469 38.5698 65.2436 38.5679C65.2403 38.5659 65.237 38.564 65.2336 38.5621C65.2303 38.5602 65.227 38.5583 65.2237 38.5563C65.2203 38.5544 65.217 38.5525 65.2137 38.5506C65.2104 38.5487 65.207 38.5467 65.2037 38.5448C65.2004 38.5429 65.1971 38.541 65.1937 38.5391C65.1904 38.5372 65.1871 38.5352 65.1838 38.5333C65.1805 38.5314 65.1771 38.5295 65.1738 38.5276C65.1705 38.5256 65.1672 38.5237 65.1638 38.5218C65.1605 38.5199 65.1572 38.518 65.1539 38.5161C65.1506 38.5141 65.1472 38.5122 65.1439 38.5103C65.1406 38.5084 65.1373 38.5065 65.1339 38.5045C65.1306 38.5026 65.1273 38.5007 65.124 38.4988C65.1207 38.4969 65.1173 38.495 65.114 38.493C65.1107 38.4911 65.1074 38.4892 65.1041 38.4873C65.1007 38.4854 65.0974 38.4835 65.0941 38.4815C65.0908 38.4796 65.0875 38.4777 65.0842 38.4758C65.0808 38.4739 65.0775 38.472 65.0742 38.4701C65.0709 38.4681 65.0676 38.4662 65.0642 38.4643C65.0609 38.4624 65.0576 38.4605 65.0543 38.4586C65.051 38.4566 65.0477 38.4547 65.0444 38.4528C65.041 38.4509 65.0377 38.449 65.0344 38.4471C65.0311 38.4452 65.0278 38.4432 65.0245 38.4413C65.0211 38.4394 65.0178 38.4375 65.0145 38.4356C65.0112 38.4337 65.0079 38.4318 65.0046 38.4299C65.0013 38.4279 64.998 38.426 64.9946 38.4241C64.9913 38.4222 64.988 38.4203 64.9847 38.4184C64.9814 38.4165 64.9781 38.4146 64.9748 38.4126C64.9715 38.4107 64.9682 38.4088 64.9648 38.4069C64.9615 38.405 64.9582 38.4031 64.9549 38.4012C64.9516 38.3993 64.9483 38.3974 64.945 38.3955C64.9417 38.3935 64.9384 38.3916 64.9351 38.3897C64.9318 38.3878 64.9285 38.3859 64.9252 38.384C64.9218 38.3821 64.9185 38.3802 64.9152 38.3783C64.9119 38.3764 64.9086 38.3745 64.9053 38.3725C64.902 38.3706 64.8987 38.3687 64.8954 38.3668C64.8921 38.3649 64.8888 38.363 64.8855 38.3611C64.8822 38.3592 64.8789 38.3573 64.8756 38.3554C64.8723 38.3535 64.869 38.3516 64.8657 38.3497C64.8624 38.3478 64.8591 38.3459 64.8558 38.344C64.8525 38.3421 64.8492 38.3402 64.8459 38.3382C64.8426 38.3363 64.8393 38.3344 64.836 38.3325C64.8327 38.3306 64.8294 38.3287 64.8261 38.3268C64.8228 38.3249 64.8196 38.323 64.8163 38.3211C64.813 38.3192 64.8097 38.3173 64.8064 38.3154C64.8031 38.3135 64.7998 38.3116 64.7965 38.3097C64.7932 38.3078 64.7899 38.3059 64.7866 38.304C64.7833 38.3021 64.7801 38.3002 64.7768 38.2983C64.7735 38.2964 64.7702 38.2945 64.7669 38.2926C64.7636 38.2907 64.7603 38.2888 64.757 38.2869C64.7538 38.285 64.7505 38.2831 64.7472 38.2813C64.7439 38.2794 64.7406 38.2775 64.7373 38.2756C64.7341 38.2737 64.7308 38.2718 64.7275 38.2699C64.7242 38.268 64.7209 38.2661 64.7177 38.2642C64.7144 38.2623 64.7111 38.2604 64.7078 38.2585C64.7045 38.2566 64.7013 38.2547 64.698 38.2528C64.6947 38.251 64.6914 38.2491 64.6882 38.2472C64.6849 38.2453 64.6816 38.2434 64.6783 38.2415C64.6751 38.2396 64.6718 38.2377 64.6685 38.2358C64.6653 38.2339 64.662 38.2321 64.6587 38.2302C64.6554 38.2283 64.6522 38.2264 64.6489 38.2245C64.6456 38.2226 64.6424 38.2207 64.6391 38.2189C64.6358 38.217 64.6326 38.2151 64.6293 38.2132C64.626 38.2113 64.6228 38.2094 64.6195 38.2075C64.6163 38.2057 64.613 38.2038 64.6097 38.2019C64.6065 38.2 64.6032 38.1981 64.6 38.1962C64.5967 38.1944 64.5934 38.1925 64.5902 38.1906C64.5869 38.1887 64.5837 38.1868 64.5804 38.185C64.5772 38.1831 64.5739 38.1812 64.5706 38.1793C64.5674 38.1774 64.5641 38.1756 64.5609 38.1737C64.5576 38.1718 64.5544 38.1699 64.5511 38.1681C64.5479 38.1662 64.5446 38.1643 64.5414 38.1624C64.5381 38.1606 64.5349 38.1587 64.5317 38.1568C64.5284 38.1549 64.5252 38.1531 64.5219 38.1512C64.5187 38.1493 64.5154 38.1474 64.5122 38.1456C64.5089 38.1437 64.5057 38.1418 64.5025 38.14C64.4992 38.1381 64.496 38.1362 64.4928 38.1344C64.4895 38.1325 64.4863 38.1306 64.483 38.1287C64.4798 38.1269 64.4766 38.125 64.4733 38.1231C64.4701 38.1213 64.4669 38.1194 64.4636 38.1175C64.4604 38.1157 64.4572 38.1138 64.454 38.112C64.4507 38.1101 64.4475 38.1082 64.4443 38.1064C64.441 38.1045 64.4378 38.1026 64.4346 38.1008C64.4314 38.0989 64.4281 38.0971 64.4249 38.0952C64.4217 38.0933 64.4185 38.0915 64.4153 38.0896C64.412 38.0878 64.4088 38.0859 64.4056 38.084C64.4024 38.0822 64.3992 38.0803 64.396 38.0785C64.3927 38.0766 64.3895 38.0748 64.3863 38.0729C64.3831 38.071 64.3799 38.0692 64.3767 38.0673C64.3735 38.0655 64.3703 38.0636 64.3671 38.0618C64.3639 38.0599 64.3606 38.0581 64.3574 38.0562C64.3542 38.0544 64.351 38.0525 64.3478 38.0507C64.3446 38.0488 64.3414 38.047 64.3382 38.0451C64.335 38.0433 64.3318 38.0414 64.3286 38.0396C64.3254 38.0377 64.3222 38.0359 64.319 38.0341C64.3158 38.0322 64.3126 38.0304 64.3095 38.0285C64.3063 38.0267 64.3031 38.0248 64.2999 38.023C64.2967 38.0212 64.2935 38.0193 64.2903 38.0175C64.2871 38.0156 64.2839 38.0138 64.2808 38.012C64.2776 38.0101 64.2744 38.0083 64.2712 38.0064C64.268 38.0046 64.2648 38.0028 64.2617 38.0009C64.2585 37.9991 64.2553 37.9973 64.2521 37.9954C64.249 37.9936 64.2458 37.9918 64.2426 37.9899C64.2394 37.9881 64.2363 37.9863 64.2331 37.9844C64.2299 37.9826 64.2268 37.9808 64.2236 37.9789C64.2204 37.9771 64.2172 37.9753 64.2141 37.9735C64.2109 37.9716 64.2078 37.9698 64.2046 37.968C64.2014 37.9662 64.1983 37.9643 64.1951 37.9625C64.192 37.9607 64.1888 37.9589 64.1856 37.957C64.1825 37.9552 64.1793 37.9534 64.1762 37.9516C64.173 37.9498 64.1699 37.9479 64.1667 37.9461C64.1636 37.9443 64.1604 37.9425 64.1573 37.9407C64.1541 37.9388 64.151 37.937 64.1478 37.9352C64.1447 37.9334 64.1415 37.9316 64.1384 37.9298C64.1353 37.928 64.1321 37.9261 64.129 37.9243C64.1258 37.9225 64.1227 37.9207 64.1196 37.9189C64.1164 37.9171 64.1133 37.9153 64.1102 37.9135C64.107 37.9117 64.1039 37.9099 64.1008 37.908C64.0977 37.9062 64.0945 37.9044 64.0914 37.9026C64.0883 37.9008 64.0852 37.899 64.082 37.8972C64.0789 37.8954 64.0758 37.8936 64.0727 37.8918C64.0695 37.89 64.0664 37.8882 64.0633 37.8864C64.0602 37.8846 64.0571 37.8828 64.054 37.881C64.0509 37.8792 64.0477 37.8774 64.0446 37.8756C64.0415 37.8738 64.0384 37.872 64.0353 37.8702C64.0322 37.8685 64.0291 37.8667 64.026 37.8649C64.0229 37.8631 64.0198 37.8613 64.0167 37.8595C64.0136 37.8577 64.0105 37.8559 64.0074 37.8541C64.0043 37.8523 64.0012 37.8506 63.9981 37.8488C63.995 37.847 63.9919 37.8452 63.9889 37.8434C63.9858 37.8416 63.9827 37.8399 63.9796 37.8381C63.9765 37.8363 63.9734 37.8345 63.9703 37.8327C63.9673 37.831 63.9642 37.8292 63.9611 37.8274C63.958 37.8256 63.9549 37.8238 63.9519 37.8221C63.9488 37.8203 63.9457 37.8185 63.9427 37.8167C63.9396 37.815 63.9365 37.8132 63.9334 37.8114C63.9304 37.8097 63.9273 37.8079 63.9242 37.8061C63.9212 37.8044 63.9181 37.8026 63.9151 37.8008C63.912 37.7991 63.9089 37.7973 63.9059 37.7955C63.9028 37.7938 63.8998 37.792 63.8967 37.7902C63.8937 37.7885 63.8906 37.7867 63.8876 37.7849C63.8845 37.7832 63.8815 37.7814 63.8784 37.7797C63.8754 37.7779 63.8723 37.7762 63.8693 37.7744C63.8663 37.7726 63.8632 37.7709 63.8602 37.7691L62.8602 39.5012Z" fill="black"/>
<path d="M50.369 42.0628L42.5257 56.0417" stroke="black" stroke-width="2" stroke-linecap="round"/>
<path d="M68.0814 37.0412L53.4314 28.2949" stroke="black" stroke-width="2" stroke-linecap="round"/>
<path d="M51.2856 24.898C57.0713 14.8767 63.0696 14.0169 69.6674 17.5642C76.2652 21.1114 78.0619 28.4366 72.9001 37.3771" stroke="black" stroke-width="2" stroke-linecap="round"/>
<path d="M58.0677 36.1852C58.0485 35.9622 58.108 35.6946 58.228 35.5119C58.2826 35.4287 58.3408 35.3761 58.3972 35.3438C58.4498 35.3136 58.53 35.2838 58.6611 35.2838C59.0134 35.2838 59.2538 35.3514 59.3884 35.4511C59.4658 35.5085 59.6483 35.6725 59.6483 36.2709C59.6483 36.2735 59.6356 36.408 59.3874 36.5925C59.1492 36.7695 58.8575 36.8607 58.6611 36.8607C58.5762 36.8607 58.4457 36.818 58.3012 36.6584C58.1497 36.4908 58.077 36.2935 58.0677 36.1852Z" fill="black" stroke="black" stroke-width="2"/>
<path d="M61.68 19.9631C65.8198 19.025 70.8902 21.7724 71.395 25.5721" stroke="black" stroke-width="2" stroke-linecap="round"/>
</svg>
