<svg width="100" height="100" viewBox="0 0 100 100" fill="none" xmlns="http://www.w3.org/2000/svg">
<path d="M54.0742 25.9941C54.0742 25.9941 46.6602 27.0944 44.1709 28.4042" stroke="black" stroke-width="2" stroke-linecap="round"/>
<path d="M40.079 31.0327C37.9907 33.2433 33.7168 37.4179 32.9483 38.1944C31.9877 39.165 29.9656 39.1384 30.9121 40.3322C31.5968 41.1959 30.7523 42.5654 31.17 42.9698C31.5878 43.3742 33.9756 42.5864 34.8692 40.6376C35.3548 39.5786 36.7066 38.3611 37.4459 37.5022C38.1852 36.6433 43.4651 33.2281 43.7116 33.3235C44.8786 33.129 47.5013 32.8106 47.2833 33.3235" stroke="black" stroke-width="2" stroke-linecap="round"/>
<path d="M53.8376 32.8824C53.9926 34.2324 54.4221 36.9198 54.9002 36.8684C55.4978 36.8041 61.1419 35.5183 61.4075 34.6182C61.6731 33.7182 59.3491 28.1892 57.7554 26.7105C56.1618 25.2319 51.9785 26.0677 49.7208 28.4464C47.4631 30.8252 45.8903 39.3538 42.8777 42.0905C41.8972 42.9812 39.5237 44.5979 40.1877 45.0479C40.8518 45.4979 45.4712 45.9333 47.264 45.9975C49.0569 46.0618 51.8458 48.0548 53.373 47.1548C54.5948 46.4347 55.4315 44.1974 55.6971 43.1688" stroke="black" stroke-width="2" stroke-linecap="round"/>
<path d="M60.7773 35.6562C61.222 36.7683 61.627 38.9799 61.9826 39.2812C62.4271 39.6578 70.5027 40.4989 71.3919 40.3913C72.281 40.2837 72.9216 38.7928 73.272 39.0809C73.6225 39.3691 73.9092 40.1604 74.4507 39.9137C74.9923 39.667 75.7568 39.5436 76.1391 40.0988C76.5213 40.6539 75.3108 42.1035 73.7499 42.9363C72.5011 43.6025 65.1594 43.584 61.6447 43.4915" stroke="black" stroke-width="2" stroke-linecap="round"/>
<path d="M55.5682 42.4147C54.9332 41.2176 57.1312 40.1392 58.192 40.3271C59.2527 40.5149 61.8394 43.0833 60.2105 44.0538C58.5817 45.0243 56.3619 43.911 55.5682 42.4147Z" fill="black" stroke="black" stroke-width="2" stroke-linecap="round"/>
<path d="M55.9482 37.3945L56.7909 40.4867" stroke="black" stroke-width="2" stroke-linecap="round"/>
<path d="M40.2038 30.6285C39.6357 30.1756 40.357 28.7953 41.248 27.8787C43.2946 26.9083 44.6728 28.4854 44.3387 29.3346C44.0046 30.1838 40.9138 31.1946 40.2038 30.6285Z" fill="black" stroke="black" stroke-width="2" stroke-linecap="round"/>
<path d="M56.8134 63.9085C56.8134 65.3061 55.2604 75.169 55.7197 75.169C56.179 75.169 60.0503 75.9313 60.9033 76.6937C61.7563 77.456 61.2314 79.1077 60.9033 79.1077C60.5752 79.1077 52.1765 79.1077 51.2579 79.1077C50.3393 79.1077 51.2579 76.3125 51.2579 75.169C51.2579 74.0255 51.7829 62.3363 51.2579 61.574L49.0625 58.9346" stroke="black" stroke-width="2" stroke-linecap="round"/>
<path d="M58.9728 60.7025C58.4325 58.6104 57.927 58.1479 57.054 57.8578C53.0364 56.5225 55.9751 63.43 56.8147 63.5462C57.6543 63.6623 59.2727 61.8638 58.9728 60.7025Z" fill="black" stroke="black" stroke-width="2" stroke-linecap="round"/>
<path d="M41.0642 45.4688C40.9133 47.2219 40.7021 51.0036 41.0642 52.1056C41.5169 53.4829 44.9441 57.3648 45.2675 58.3665C45.5908 59.3683 46.7548 59.9944 47.5308 59.744C48.3068 59.4935 52.1868 55.1108 53.4155 54.7978C54.6441 54.4847 54.4501 53.2326 53.6741 52.1056C53.0533 51.2039 52.9412 48.8081 52.9628 47.7228" stroke="black" stroke-width="2" stroke-linecap="round"/>
<path d="M53.9521 54.8477L55.7573 57.7227" stroke="black" stroke-width="2" stroke-linecap="round"/>
<path d="M47.5771 60.335C47.612 61.113 47.5457 62.7504 47.0006 63.0751C46.3192 63.481 42.965 63.9885 42.7553 63.0751C42.5457 62.1616 44.9041 59.5229 45.3757 59.5229" stroke="black" stroke-width="2" stroke-linecap="round"/>
<path d="M42.5633 55.0825C42.2283 55.8647 41.4519 57.4978 41.0262 57.7726C40.4941 58.1162 27.9548 63.1255 27.3636 63.4689C26.7724 63.8124 24.0501 63.2998 23.8727 64.2157C23.3067 67.1382 25.7801 73.3727 26.2677 73.3727C27.5257 73.3727 28.4602 72.7439 28.1761 71.447C27.8365 69.8972 28.1937 67.7604 28.785 67.3597C29.2579 67.0392 37.873 64.3937 42.5633 63.1535" stroke="black" stroke-width="2" stroke-linecap="round"/>
<path d="M55.2464 21.9715C53.1392 20.9777 52.9049 19.0703 55.6084 16.4385C58.3119 13.8067 62.4244 15.4975 64.289 17.1391C66.7177 18.69 65.4258 21.6918 65.2814 21.9715C64.9572 22.5993 58.9319 18.9125 58.5537 19.5403C58.1755 20.168 56.8666 22.7357 55.2464 21.9715Z" fill="black" stroke="black" stroke-width="2" stroke-linecap="round"/>
<path d="M64.2373 21.5918C64.1973 22.6962 63.5133 24.6935 62.5835 25.8442C61.7927 26.8228 60.1549 26.8448 58.6562 27.295" stroke="black" stroke-width="2" stroke-linecap="round"/>
<path d="M54.7579 22.479C54.7581 23.7115 54.4187 24.9936 55.8138 25.9442" stroke="black" stroke-width="2" stroke-linecap="round"/>
<path d="M28.9834 78.7529C29.2419 79.2699 30.8444 80.3038 35.186 80.3038C40.613 80.3038 68.8338 80.3038 70.6946 80.3038C72.1831 80.3038 73.5373 79.2699 74.0283 78.7529" stroke="black" stroke-width="2" stroke-linecap="round"/>
<path d="M37.0418 81.7391C35.8746 80.0643 34.1407 80.6965 33.2526 81.5212C32.2942 83.0535 33.2987 84.72 34.4406 84.9104C35.5824 85.1007 38.5009 83.8326 37.0418 81.7391Z" fill="black" stroke="black" stroke-width="2" stroke-linecap="round"/>
<path d="M67.8456 81.7391C66.6783 80.0643 64.9444 80.6965 64.0563 81.5212C63.0979 83.0535 64.1024 84.72 65.2443 84.9104C66.3861 85.1007 69.3046 83.8326 67.8456 81.7391Z" fill="black" stroke="black" stroke-width="2" stroke-linecap="round"/>
<path d="M29.0449 63.2539L30.1813 66.7931" stroke="black" stroke-width="2" stroke-linecap="round"/>
<path d="M51.6387 73.4658H55.628" stroke="black" stroke-width="2" stroke-linecap="round"/>
<path d="M42.4473 30.9326L43.2274 33.4684" stroke="black" stroke-width="2" stroke-linecap="round"/>
<path d="M59.6221 41.1912C60.1857 40.8148 61.3829 39.9831 61.6626 39.667" stroke="black" stroke-width="2" stroke-linecap="round"/>
<path d="M54.9611 61.3032C53.998 61.4143 53.2068 61.9231 51.5215 61.703" stroke="black" stroke-width="2" stroke-linecap="round"/>
<path d="M41.1797 58.2407C41.607 59.0143 42.6845 60.5829 43.5762 60.6691" stroke="black" stroke-width="2" stroke-linecap="round"/>
<path d="M42.9004 62.4369C43.7784 61.4334 45.5709 59.3979 45.7173 59.2847L46.8879 59.8512L47.7292 61.268L46.6684 63.4994H43.8516L42.9004 62.4369Z" fill="black"/>
<path d="M38.4967 64.124L36.9735 60.0107L29.0518 63.0576L30.4229 66.409L38.4967 64.124Z" fill="black"/>
<path d="M56.2653 65.748H51.875L51.2939 73.3018H55.4905L56.2653 65.748Z" fill="black" stroke="black"/>
</svg>
