<svg width="100" height="100" viewBox="0 0 100 100" fill="none" xmlns="http://www.w3.org/2000/svg">
<path d="M48.2824 60.8303C47.0674 60.0878 47.3262 58.8897 47.6075 58.3834C47.8203 57.7407 53.5139 56.8646 54.0202 56.949C54.5264 57.0334 57.0576 59.0584 58.2389 62.1802C59.4201 65.3021 57.3951 65.9771 56.1295 66.652C55.117 67.192 47.8025 68.7916 47.0785 69.1078C46.3546 69.4239 45.9538 67.597 45.7514 66.652C45.5489 65.7071 51.2615 62.5624 51.4888 62.1802C51.7161 61.798 49.4974 61.5727 48.2824 60.8303Z" stroke="black" stroke-width="2"/>
<path d="M47.2909 44.3135C42.693 45.8384 39.4077 47.0722 38.8092 49.2268C38.0611 51.9201 40.1155 54.2614 42.2852 55.7576C44.0209 56.9545 46.5678 58.679 47.2909 59.1528" stroke="black" stroke-width="2"/>
<path d="M19.1416 52.279L76.4875 49.1133" stroke="black" stroke-width="2" stroke-linecap="round"/>
<path d="M72.7891 46.6221L73.1481 51.9602" stroke="black" stroke-width="2" stroke-linecap="round"/>
<path d="M37.5556 32.667C36.3549 33.3874 35.1087 36.7684 34.1793 39.7188C32.9397 43.6538 32.9063 42.6718 31.1965 43.4989C28.1364 44.5789 23.5016 45.7258 22.646 46.7242C22.3763 47.039 22.5337 49.8682 22.9834 50.2728C23.433 50.6775 32.3358 49.0588 34.1793 48.5193C36.0228 47.9797 42.375 42.1711 43.0371 40.5157C43.3069 39.8412 44.5104 38.2342 43.8144 35.6402" stroke="black" stroke-width="2" stroke-linecap="round"/>
<path d="M35.583 35.7987C37.7199 30.9334 41.0941 30.1778 44.1823 30.1777C49.8133 30.1777 61.72 34.3041 63.1385 37.2701C64.557 40.236 60.489 45.6112 46.1322 44.2787" stroke="black" stroke-width="2" stroke-linecap="round"/>
<path d="M18.624 46.2013C19.1812 46.5418 21.2294 46.8591 22.1838 46.9752C22.4031 48.1747 22.8106 50.6976 22.6868 51.1929C22.532 51.812 20.636 52.7406 18.237 52.315C15.838 51.8893 14.5998 49.4128 15.1416 47.7877C15.6833 46.1626 17.9275 45.7756 18.624 46.2013Z" stroke="black" stroke-width="2" stroke-linecap="round"/>
<path d="M20.4277 30.5204C18.4991 33.2281 21.527 35.6361 23.706 36.857C25.5038 38.063 29.9481 28.9062 30.2263 28.3962C30.5045 27.8862 31.7696 25.9216 30.5642 25.5971C29.3587 25.2725 23.2566 26.5488 20.4277 30.5204Z" stroke="black" stroke-width="2" stroke-linecap="round"/>
<path d="M27.1921 39.3055C26.703 39.4452 25.202 37.8592 24.751 37.4663L27.9793 32.6333C29.0416 32.6479 31.3656 32.8683 31.3656 34.4953C31.3656 35.6143 30.6229 36.4052 28.9959 37.4663C28.371 37.8738 27.8034 39.1308 27.1921 39.3055Z" stroke="black" stroke-width="2" stroke-linecap="round"/>
<path d="M27.5469 39.6279C27.9921 39.9062 29.0911 40.4711 29.9258 40.5044C30.9691 40.546 32.5587 40.5044 33.31 40.5044" stroke="black" stroke-width="2" stroke-linecap="round"/>
<path d="M30.3125 28.8283C30.8542 28.8119 31.7981 28.702 33.2029 29.5213C34.385 30.2106 36.3011 31.1828 38.5664 31.4782" stroke="black" stroke-width="2" stroke-linecap="round"/>
<path d="M32.9696 76.9932C27.1323 79.1661 23.5185 77.9092 22.4412 77.0092C21.1335 76.3686 26.0244 77.7529 31.3911 75.9628C36.7578 74.1727 68.6994 62.2373 73.5246 60.8308C79.5561 59.0726 82.4265 54.5247 82.6091 55.3944C82.7918 56.264 82.1838 58.6843 80.98 59.473C79.7762 60.2618 40.2662 74.2772 32.9696 76.9932Z" fill="black" stroke="black" stroke-width="2" stroke-linecap="round"/>
<path d="M45.6533 67.044C38.3405 69.3082 37.025 69.4287 31.7188 70.908C26.4127 72.3873 21.4538 70.8005 22.7278 71.5056C23.7588 72.4584 27.3052 73.8943 33.2438 72.016C35.4031 71.3331 39.9218 70.1899 45.8575 68.3858M58.7437 64.0249C70.3396 60.4932 81.4254 57.2954 82.07 56.9177C83.3117 56.1901 84.04 53.8033 83.901 52.9256C83.762 52.0479 84.3171 54.9106 74.5561 57.901C72.6532 58.484 71.7882 58.7836 68.5276 59.754" stroke="black" stroke-width="2" stroke-linecap="round"/>
<path d="M62.8988 40.7749C63.6585 42.319 64.5603 45.8189 62.0899 47.4658C59.6195 49.1128 56.6491 49.9167 55.4727 50.1127" stroke="black" stroke-width="2" stroke-linecap="round"/>
<path d="M31.3984 35.1274C32.166 33.8676 33.7881 31.2002 34.1355 30.6094" stroke="black" stroke-width="2" stroke-linecap="round"/>
<path d="M42.0537 42.4126C42.7616 42.9207 44.5367 44.0022 45.9741 44.2637" stroke="black" stroke-width="2" stroke-linecap="round"/>
<path d="M47.7666 51.0015C49.3194 52.3122 52.6186 55.2605 53.3931 56.5674" stroke="black" stroke-width="2" stroke-linecap="round"/>
<path d="M54.2285 50.6231C56.7057 51.7353 61.5388 54.3114 61.66 54.736C61.8116 55.2668 58.7784 57.6934 58.0201 57.39C57.4135 57.1474 54.5319 56.4801 53.167 56.1768" stroke="black" stroke-width="2" stroke-linecap="round"/>
<path d="M61.7961 54.8928C63.4832 53.5808 68.5839 59.2766 68.6385 59.9319C68.7067 60.7512 67.2386 61.0527 65.8734 61.7353C64.7812 62.2814 60.8836 63.5497 58.9951 64.0275L58.2442 61.4337C58.2442 61.4337 59.4997 60.1887 60.2919 59.9319C61.0842 59.6751 57.5615 57.4063 57.5615 57.4063" stroke="black" stroke-width="2" stroke-linecap="round"/>
<path d="M29.0966 40.3789C27.317 41.3987 23.0825 43.7056 21.9306 43.7056C20.4907 43.7056 17.3169 43.3665 16.4771 44.2064C15.8052 44.8784 15.2955 45.9572 15.5754 46.6971" stroke="black" stroke-width="2" stroke-linecap="round"/>
<path d="M22.2227 43.7832L22.5889 45.6594" stroke="black" stroke-width="2" stroke-linecap="round"/>
<path d="M62.75 41.2561L69.3501 40.1797" stroke="black" stroke-width="2" stroke-linecap="round"/>
<path d="M67.0527 38.3926L67.5256 42.3601" stroke="black" stroke-width="2" stroke-linecap="round"/>
<path d="M43.8061 43.6367L40.0332 44.2787" stroke="black" stroke-width="2" stroke-linecap="round"/>
<path d="M44.0605 26.0549L50.6777 23.4521" stroke="black" stroke-width="2" stroke-linecap="round"/>
<path d="M55.4727 26.8293L62.0038 24.2685" stroke="black" stroke-width="2" stroke-linecap="round"/>
<path d="M54.8711 21.7427L55.8906 21.1865" stroke="black" stroke-width="2" stroke-linecap="round"/>
<path d="M61.4817 54.7251L54.2683 50.5854L48.9365 51.0872L53.7036 56.2935L58.7217 57.7361L61.4817 54.7251Z" fill="black"/>
<path d="M30.9497 28.9121L28.3223 32.5732L31.9835 34.1672L34.2233 30.5059L30.9497 28.9121Z" fill="black"/>
<path d="M29.1543 31.2583C29.1543 31.4989 26.3094 35.0848 24.887 36.8477H23.6848L20.1387 33.7825V31.6788L22.0018 29.0342L24.887 26.63L29.6954 25.5479L30.9576 26.2693C30.3565 27.8321 29.1544 31.0177 29.1543 31.2583Z" fill="black"/>
</svg>
