<svg width="100" height="100" viewBox="0 0 100 100" fill="none" xmlns="http://www.w3.org/2000/svg">
<path d="M27.1626 55.8624L25.9316 24.0774L68.0856 23.7214L65.3936 55.6964L27.1626 55.8624Z" stroke="black" stroke-width="2" stroke-miterlimit="10" stroke-linejoin="round"/>
<path d="M27.081 55.8705L24.207 60.2345L68.839 60.0715L65.6261 55.7285L27.081 55.8705Z" stroke="black" stroke-width="2" stroke-miterlimit="10" stroke-linejoin="round"/>
<path d="M24.2051 60.1765L27.3231 81.7055L65.2851 81.4305L68.8161 60.1925" stroke="black" stroke-width="2" stroke-miterlimit="10" stroke-linejoin="round"/>
<path d="M40.7041 65.2716L53.0051 64.9746L52.0221 67.7786L41.6011 67.9546L40.7041 65.2716Z" fill="black" stroke="black" stroke-width="2" stroke-miterlimit="10" stroke-linejoin="round"/>
<path d="M66.8846 48.1214C66.8846 48.1214 72.7957 49.0254 73.0107 47.5034C73.3207 45.3174 73.2147 38.9844 73.2147 38.9844L76.7776 39.0684C76.7776 39.0684 76.9157 48.9604 76.0367 50.7814C75.2727 52.3644 68.5206 51.7074 65.8896 51.5654" stroke="black" stroke-width="2" stroke-miterlimit="10" stroke-linejoin="round"/>
<path d="M72.2184 36.2346C71.6084 31.6886 78.2374 32.4516 78.2164 35.8756C78.1954 39.2986 72.7404 40.1296 72.2184 36.2346Z" fill="black" stroke="black" stroke-width="2" stroke-miterlimit="10" stroke-linejoin="round"/>
<path d="M27.0081 23.7575C27.0081 23.7575 22.5471 24.3245 22.4131 23.1685C22.1611 20.9985 21.5311 18.0645 22.6091 18.0565C33.7191 17.9645 71.1351 18.0125 71.1351 18.0125C71.1351 18.0125 71.8511 22.7525 71.1551 23.2195C70.3921 23.7315 67.1001 23.5655 67.1001 23.5655L27.0081 23.7575Z" stroke="black" stroke-width="2" stroke-miterlimit="10" stroke-linejoin="round"/>
<path d="M64.1797 26.592C63.9897 26.382 63.7297 26.292 63.4297 26.272L29.9897 26.812C29.7197 26.812 29.4597 26.932 29.2797 27.122C29.0997 27.332 28.9997 27.592 29.0097 27.862L30.1297 52.322C30.1497 52.852 30.5897 53.272 31.1297 53.272L61.3497 53.312C61.8697 53.312 62.2997 52.912 62.3497 52.392L64.4497 27.352C64.4697 27.072 64.3797 26.792 64.1797 26.582V26.592ZM38.7997 35.412C38.7997 35.412 37.0897 38.342 36.5997 40.092C36.1197 41.802 36.2697 44.762 36.2697 44.792C36.2997 45.342 35.8797 45.812 35.3297 45.842C35.3097 45.842 35.2897 45.842 35.2697 45.842C34.7397 45.842 34.2997 45.432 34.2697 44.902C34.2697 44.772 34.0897 41.582 34.6697 39.552C34.9797 38.442 35.6697 37.002 36.2297 35.932L32.5897 35.982C32.0197 35.942 31.5797 35.552 31.5797 34.992C31.5797 34.442 32.0097 33.982 32.5697 33.982L37.9297 33.912C38.3097 33.912 38.6297 34.102 38.8097 34.412C38.9897 34.722 38.9897 35.112 38.8097 35.422L38.7997 35.412ZM50.9397 35.012C50.9397 35.012 49.2997 37.982 48.8497 39.742C48.4097 41.472 48.6297 44.422 48.6297 44.452C48.6697 45.002 48.2597 45.482 47.7097 45.522C47.6797 45.522 47.6597 45.522 47.6297 45.522C47.1097 45.522 46.6797 45.122 46.6297 44.602C46.6197 44.472 46.3797 41.292 46.8997 39.242C47.1897 38.122 47.8397 36.672 48.3797 35.582L44.7397 35.722C44.1497 35.732 43.7197 35.312 43.6997 34.762C43.6797 34.212 44.1097 33.742 44.6597 33.722L50.0097 33.522C50.3697 33.522 50.7097 33.692 50.8997 34.002C51.0897 34.312 51.0997 34.692 50.9197 35.012H50.9397ZM61.6597 30.132C61.6597 30.132 59.9397 33.052 59.4397 34.802C58.9497 36.502 59.0897 38.172 59.0897 38.192C59.1397 38.742 58.7297 39.232 58.1797 39.272C58.1497 39.272 58.1197 39.272 58.0897 39.272C57.5797 39.272 57.1397 38.882 57.0897 38.362C57.0897 38.282 56.9197 36.302 57.5097 34.252C57.8297 33.142 58.5197 31.712 59.0897 30.642L55.4497 30.672C54.8997 30.672 54.4597 30.232 54.4497 29.682C54.4497 29.132 54.8897 28.682 55.4397 28.672L60.7997 28.622C61.1697 28.592 61.4997 28.812 61.6797 29.122C61.8597 29.432 61.8597 29.822 61.6797 30.132H61.6597Z" fill="black"/>
</svg>
