<svg width="100" height="100" viewBox="0 0 100 100" fill="none" xmlns="http://www.w3.org/2000/svg">
<path opacity="0.998062" d="M16.0353 70.521C15.7953 68.78 16.8583 67.127 16.8583 67.127L21.1513 60.354L25.1083 53.631L29.0653 46.908L33.0213 40.185L36.9783 33.462L40.9353 26.739C40.9353 26.739 42.9993 23.608 45.1353 21.798C47.2743 19.987 49.8903 20.013 49.8903 20.013L54.8883 20.011L59.8863 20.009L64.8843 20.007L69.8823 20.004L74.8793 20.002L79.8773 20C79.8773 20 82.5853 20.046 83.0033 21.753C83.4203 23.46 81.5483 26.827 81.5483 26.827L78.2203 33.657L74.8923 40.486L71.5653 47.316L68.2373 54.146L64.9093 60.975L59.3313 70.884C59.3313 70.884 58.4483 72.52 57.5293 73.298C55.9403 74.641 52.6273 74.53 52.6273 74.53L47.9463 74.347L41.8563 74.304L35.0643 74.277L29.8103 74.061L25.4003 73.919L20.5743 73.594C20.5743 73.594 16.4173 73.29 16.0353 70.521Z" stroke="black" stroke-width="2" stroke-miterlimit="10" stroke-linecap="round" stroke-linejoin="round"/>
<path opacity="0.998062" d="M47.2743 29.682L72.0623 29.69C73.6263 29.691 74.5333 29.806 73.7883 31.182C73.7883 31.182 68.1653 42.7521 63.5523 51.4131C58.9383 60.0741 55.3343 65.826 55.3343 65.826C54.5903 67.202 54.0543 68.826 52.4893 68.808L22.9913 68.161C21.4263 68.143 22.7113 66.839 23.5013 65.489L43.9423 30.9901C44.7323 29.6391 45.7103 29.682 47.2743 29.682Z" fill="black" stroke="black" stroke-width="2" stroke-miterlimit="10" stroke-linecap="round" stroke-linejoin="round"/>
<path opacity="0.998062" d="M56.5684 25.2686L64.6864 25.3046" stroke="black" stroke-width="2" stroke-miterlimit="10" stroke-linecap="round" stroke-linejoin="round"/>
<path opacity="0.998062" d="M16.0635 71.2496L16.1985 74.3427C16.2655 77.2617 17.4335 79.4507 21.6055 79.6967C21.6055 79.6967 30.6915 80.6557 39.0625 80.7657C47.4345 80.8757 55.1005 80.6537 55.1005 80.6537C58.5555 80.6607 61.0525 78.1766 62.2325 75.6766L81.4605 34.9586C82.4345 32.8966 83.6285 30.4266 83.5735 28.1476L83.1895 22.3896" stroke="black" stroke-width="2" stroke-miterlimit="10" stroke-linecap="round" stroke-linejoin="round"/>
<path opacity="0.998062" d="M34.7705 77.582L40.8195 77.682" stroke="black" stroke-width="2" stroke-miterlimit="10" stroke-linecap="round" stroke-linejoin="round"/>
</svg>
