<svg width="100" height="100" viewBox="0 0 100 100" fill="none" xmlns="http://www.w3.org/2000/svg">
<path d="M46.8807 35.2071C35.1737 35.1971 28.4676 35.9271 23.7116 40.1371C19.6746 43.7071 16.6627 48.9971 18.6047 55.1871C20.3497 60.7571 24.5897 63.4971 29.2137 63.5171C33.8377 63.5471 38.4647 60.4171 40.7417 57.0171C43.0187 53.6071 43.5927 53.3871 45.9477 53.2771C48.3017 53.1671 49.6537 57.1671 52.5227 60.6671C55.7417 64.5871 60.7636 65.2871 64.3366 63.3771C67.6596 61.6071 72.4077 58.3371 73.2467 51.7171C73.9627 46.0671 68.6367 39.7571 62.6847 37.1671C60.2407 36.0971 55.5467 35.2171 46.8807 35.2071Z" stroke="black" stroke-width="2" stroke-miterlimit="10" stroke-linejoin="round"/>
<path d="M65.3691 42.5268C61.7891 39.3768 54.4091 37.4868 46.5991 37.7068C45.6491 37.7368 44.6591 37.7468 43.6791 37.7668C38.8691 37.8468 34.3191 37.9268 31.7791 39.0268C25.4991 41.7568 21.7491 46.3768 21.4991 51.7068C21.2791 56.5168 24.7891 59.9668 26.7191 60.4568C31.0891 61.6068 34.7491 60.2968 37.0291 56.7868L37.2291 56.4868C39.2891 53.2968 41.8291 49.3068 44.9791 49.4868C48.1391 49.6368 48.7091 49.6568 52.1291 55.5168C54.0391 58.7768 56.1791 60.6068 58.6691 61.0868C59.1091 61.1768 59.5491 61.2168 59.9991 61.2168C62.1491 61.2168 64.4691 60.2468 67.0391 58.2668C69.0091 56.7568 70.0991 54.7168 70.1791 52.3768C70.2991 48.6168 67.8391 44.7268 65.3491 42.5368L65.3691 42.5268ZM36.4491 43.4468L35.5191 44.6868C34.1591 46.4868 32.7491 48.3568 31.4791 50.2668C31.2891 50.5568 30.9691 50.7168 30.6491 50.7168C30.4591 50.7168 30.2691 50.6668 30.0991 50.5468C29.6391 50.2368 29.5191 49.6168 29.8191 49.1568C31.1291 47.1968 32.5491 45.3068 33.9291 43.4768L34.8591 42.2368C35.1891 41.7968 35.8191 41.7068 36.2591 42.0368C36.6991 42.3668 36.7891 42.9968 36.4591 43.4368L36.4491 43.4468ZM47.5591 43.1168C47.3291 43.6968 46.9891 44.1768 46.6491 44.6368C46.3691 45.0268 46.1091 45.3868 45.9691 45.7468C45.8191 46.1468 45.4391 46.3868 45.0391 46.3868C44.9191 46.3868 44.7991 46.3668 44.6791 46.3168C44.1591 46.1168 43.9091 45.5368 44.0991 45.0268C44.3291 44.4268 44.6991 43.9168 45.0291 43.4668C45.2991 43.0868 45.5591 42.7368 45.6891 42.3968C45.8891 41.8768 46.4691 41.6268 46.9791 41.8268C47.4891 42.0268 47.7491 42.6068 47.5491 43.1168H47.5591ZM59.7791 45.7468C58.6691 47.4168 57.5991 49.2668 56.5291 51.4168C56.3591 51.7668 55.9991 51.9668 55.6291 51.9668C55.4791 51.9668 55.3291 51.9368 55.1791 51.8568C54.6891 51.6068 54.4791 51.0068 54.7291 50.5168C55.8391 48.2968 56.9391 46.3668 58.0991 44.6268C58.4091 44.1668 59.0291 44.0468 59.4891 44.3468C59.9491 44.6568 60.0691 45.2768 59.7691 45.7368L59.7791 45.7468Z" fill="black"/>
<path d="M72.6306 55.1367C72.6306 55.1367 74.6776 57.5667 76.9626 57.6167C79.2116 57.6667 82.1416 57.5368 82.1636 59.3068C82.1956 61.7968 79.5636 62.4267 76.9796 62.1267C75.2876 61.9367 72.2426 61.2867 70.1836 59.2267" stroke="black" stroke-width="2" stroke-miterlimit="10" stroke-linejoin="round"/>
<path d="M76.5803 62.0166C76.5803 62.0166 75.0043 69.4866 71.0513 73.2966C67.8383 76.3966 62.5373 77.9066 57.8763 77.6066C54.4863 77.3966 49.2513 76.2166 48.6783 77.6566C48.1063 79.0966 55.3962 80.4667 58.5062 80.5767C61.6162 80.6967 68.8682 80.4767 72.8292 76.1967C78.6112 69.9567 79.4633 62.0566 79.4633 62.0566" stroke="black" stroke-width="2" stroke-miterlimit="10" stroke-linejoin="round"/>
<path d="M54.7766 77.3662C54.7766 77.3662 55.2677 72.3362 52.6977 72.6062C50.1287 72.8862 50.9727 74.3162 49.2267 74.4062C47.4807 74.4862 45.1477 71.3463 43.0447 73.2863C40.9417 75.2163 42.5887 79.0663 44.8597 80.6663C50.6827 84.7963 53.7096 79.9862 53.7096 79.9862" stroke="black" stroke-width="2" stroke-miterlimit="10" stroke-linejoin="round"/>
<path d="M43.375 79.1768C44.349 80.4768 46.733 82.5367 50.498 81.5167C52.194 81.0567 52.684 79.6567 52.684 79.6567" stroke="black" stroke-width="2" stroke-miterlimit="10" stroke-linejoin="round"/>
<path d="M76.9336 57.657C76.9336 57.657 77.6506 42.387 77.6186 39.717C77.5846 36.807 77.3306 32.587 77.8896 32.067C78.4476 31.537 81.1456 32.707 81.3296 35.147C81.5136 37.577 80.2766 57.767 80.2766 57.767" stroke="black" stroke-width="2" stroke-miterlimit="10" stroke-linejoin="round"/>
<path d="M78.2832 32.1562C78.2832 32.1562 77.7682 32.5863 78.7372 33.4563C79.7062 34.3163 81.8322 35.1362 81.0812 34.2762C80.3302 33.4162 78.2832 32.1562 78.2832 32.1562Z" stroke="black" stroke-width="2" stroke-miterlimit="10" stroke-linejoin="round"/>
<path d="M72.8608 26.2763C71.7008 22.7963 78.4279 21.6763 78.8049 24.9363C79.1819 28.1863 74.1108 30.0263 72.8608 26.2763Z" stroke="black" stroke-width="2" stroke-miterlimit="10" stroke-linejoin="round"/>
<path d="M63.3326 20.4066C62.2496 17.5266 66.3276 17.3366 66.7996 19.2766C67.2706 21.2066 64.2286 22.7866 63.3326 20.4066Z" stroke="black" stroke-width="2" stroke-miterlimit="10" stroke-linejoin="round"/>
</svg>
