<svg width="100" height="100" viewBox="0 0 100 100" fill="none" xmlns="http://www.w3.org/2000/svg">
<path d="M53.1944 33.0167C51.3465 32.8584 51.6985 30.1351 52.1385 28.8591C51.7425 27.2092 62.5655 28.331 63.0935 28.463C63.6214 28.595 64.6775 32.2907 62.3017 33.0167C59.9259 33.7427 58.7381 32.0267 57.6822 31.6968C56.6263 31.3668 55.5043 33.2146 53.1944 33.0167Z" stroke="black" stroke-width="2" stroke-linecap="round"/>
<path d="M62.6318 27.9353C62.5438 26.1974 61.9192 22.4181 60.1241 21.2039C57.8802 19.6861 53.7832 19.6023 51.6019 21.4317C49.0262 23.592 48.3638 28.529 49.8156 28.793C50.977 29.0042 51.4348 28.8812 52.0727 28.7932" stroke="black" stroke-width="2" stroke-linecap="round"/>
<path d="M60.8221 33.4486C60.7231 33.805 60.2095 35.0558 59.54 36.261C58.4894 38.1521 55.3738 37.9454 54.0669 37.1731C52.9602 36.5192 51.3167 34.3677 51.1055 31.4809C49.2519 30.2135 49.4919 29.9139 49.446 29.8175C49.3159 29.5444 50.7255 29.2582 50.9173 29.8175" stroke="black" stroke-width="2" stroke-linecap="round"/>
<path d="M48.219 24.9558C47.7365 24.5938 44.0154 23.51 40.9992 24.234C37.983 24.9579 37.3576 27.2005 40.9993 29.6767" stroke="black" stroke-width="2" stroke-linecap="round"/>
<path d="M46.6599 30.4262C39.7949 29.3279 36.1378 29.2608 32.7877 30.4262C28.6 31.883 24.7157 34.0679 24.3516 35.1603" stroke="black" stroke-width="2" stroke-linecap="round"/>
<path d="M19.5118 40.5097C19.9925 39.111 23.2088 36.9039 24.7568 35.9751C25.2488 35.2648 27.7614 37.9966 28.0892 38.7615C28.417 39.5264 27.4336 42.859 26.8872 43.7332C26.4502 44.4325 25.0847 43.1996 24.5567 42.6169C24.1742 42.8172 23.1821 43.1295 22.3953 43.348C21.2592 43.6636 18.9109 42.2581 19.5118 40.5097Z" fill="black" stroke="black" stroke-width="2" stroke-linecap="round"/>
<path d="M28.3086 40.3097C28.855 40.4919 30.0462 40.8016 30.4397 40.583C30.9316 40.3097 34.0463 39.053 36.3414 38.9983C38.1774 38.9546 41.6236 39.5629 43.1172 39.8726" stroke="black" stroke-width="2" stroke-linecap="round"/>
<path d="M59.9179 36.749C61.7618 38.1433 65.8005 41.3635 67.2037 43.0904C68.9577 45.2491 69.1601 46.9357 69.0926 47.4753C69.0252 48.015 67.0688 50.9159 65.4497 50.781C64.1544 50.673 59.0633 46.9132 56.6797 45.0467" stroke="black" stroke-width="2" stroke-linecap="round"/>
<path d="M55.8379 45.1675L57.9421 42.7134" stroke="black" stroke-width="2" stroke-linecap="round"/>
<path d="M38.2218 39.5718C35.6475 42.6848 30.2118 49.5216 29.0624 51.964C27.6256 55.0171 29.0626 57.7488 31.5568 59.04" stroke="black" stroke-width="2" stroke-linecap="round"/>
<path d="M28.6309 53.4398C28.9617 52.7258 30.1878 51.235 32.445 50.9841C34.7023 50.7332 36.48 51.0488 37.2811 51.2926" stroke="black" stroke-width="2" stroke-linecap="round"/>
<path d="M31.874 51.4285C30.6848 53.1813 30.6164 56.2865 31.4523 58.3765C32.2882 60.4665 33.608 61.5476 34.2524 61.7566" stroke="black" stroke-width="2" stroke-linecap="round"/>
<path d="M35.4678 53.585C36.8419 51.8563 40.3613 47.9736 43.4463 46.2715C47.3024 44.1439 53.9511 44.4763 55.5468 46.2715C57.1425 48.0667 58.6608 53.0471 58.7937 54.2438" stroke="black" stroke-width="2" stroke-linecap="round"/>
<path d="M51.3686 62.7507C51.3686 62.7507 50.1351 58.0216 50.4304 56.2768C50.7258 54.5321 57.6675 53.7547 58.7679 54.3836C60.1434 55.1696 60.1043 57.7734 60.1043 60.3636C60.1043 62.0478 59.858 64.2934 59.7488 65.1886" stroke="black" stroke-width="2" stroke-linecap="round"/>
<path d="M50.2458 57.3422L45.0703 61.273" stroke="black" stroke-width="2" stroke-linecap="round"/>
<path d="M51.2858 55.2498L50.3975 51.9185" stroke="black" stroke-width="2" stroke-linecap="round"/>
<path d="M58.1699 50.314C61.4732 50.314 64.5918 51.9636 66.4846 53.4111C68.3774 54.8586 71.2527 59.5229 71.879 60.6131" stroke="black" stroke-width="2" stroke-linecap="round"/>
<path d="M60.3594 58.2834C60.9161 59.0909 63.2778 60.4214 64.2187 62.7505" stroke="black" stroke-width="2" stroke-linecap="round"/>
<path d="M65.1326 66.4582C64.7149 65.456 63.9279 63.8996 64.4291 63.248C65.0556 62.4336 71.8835 60.1159 72.8858 61.1182C73.6876 61.92 74.8068 67.0483 75.2662 69.5122" stroke="black" stroke-width="2" stroke-linecap="round"/>
<path d="M71.8257 52.2753C71.8651 51.0932 70.3611 49.215 69.3432 48.2627L66.043 51.3166C66.4534 52.2689 67.8509 54.3387 68.7645 54.8993C71.1726 56.377 71.7765 53.753 71.8257 52.2753Z" fill="black" stroke="black" stroke-width="2" stroke-linecap="round"/>
<path d="M34.2269 63.7863C34.227 61.3032 36.2481 60.5248 37.4708 60.1485C38.4785 59.7215 47.4009 61.968 48.6237 62.3443C49.8465 62.7205 75.1275 69.0673 78.9054 71.3793C81.7043 73.0921 82.7854 79.3638 79.9615 79.791C73.3495 80.7911 61.8848 76.5008 47.9019 72.79C33.4551 68.9561 34.2269 66.8902 34.2269 63.7863Z" fill="black" stroke="black" stroke-width="2" stroke-linecap="round"/>
<path d="M28.333 53.8242C28.7094 53.2666 29.5961 52.0676 30.1315 51.7329L31.177 52.8622L30.4661 56.6263L29.6296 57.7137L28.333 53.8242Z" fill="black"/>
<path d="M50.0825 22.5803L49.207 26.8481L49.59 27.8331L51.888 28.2161L53.2559 27.8331L55.7181 27.4501H62.0102L61.6819 24.7691L60.0405 21.8692L57.0859 20.939H52.5446L50.0825 22.5803Z" fill="black" stroke="black"/>
<path d="M30.5856 66.635L23.8375 64.3936" stroke="black" stroke-width="2" stroke-linecap="round"/>
<path d="M19.5233 63.0188L18.3842 62.7926" stroke="black" stroke-width="2" stroke-linecap="round"/>
<path d="M25.8843 61.0621L22.3843 60.062" stroke="black" stroke-width="2" stroke-linecap="round"/>
</svg>
