<svg width="100" height="100" viewBox="0 0 100 100" fill="none" xmlns="http://www.w3.org/2000/svg">
<path d="M25.9495 34.1434C25.9495 34.1434 12.1395 34.7805 18.8295 49.4025C21.0095 54.1755 29.6996 58.2444 36.4195 58.0434C44.7996 57.7934 53.3895 54.3364 53.3895 54.3364C53.3895 54.3364 74.8795 63.3885 81.7895 50.9025C89.0095 37.8285 72.8195 36.1214 72.8195 36.1214C72.8195 36.1214 73.0695 29.5205 66.1095 26.5625C59.3395 23.6875 54.6796 29.8104 54.6796 29.8104C54.6796 29.8104 52.4595 15.5114 37.3995 18.3804C25.6595 20.6164 25.9495 34.1434 25.9495 34.1434Z" stroke="black" stroke-width="2" stroke-miterlimit="10" stroke-linecap="round" stroke-linejoin="round"/>
<path d="M52.7695 54.5838C52.7695 54.5838 57.4895 52.5558 58.1195 51.8838" stroke="black" stroke-width="2" stroke-miterlimit="10" stroke-linecap="round" stroke-linejoin="round"/>
<path d="M56.0498 53.515C56.0498 53.515 65.5598 57.074 70.8998 56.257C76.2398 55.44 79.9598 54.705 82.2698 49.958" stroke="black" stroke-width="2" stroke-miterlimit="10" stroke-linecap="round" stroke-linejoin="round"/>
<path d="M73.8196 36.2914C71.1696 35.9244 68.6896 36.1574 66.8496 38.4814" stroke="black" stroke-width="2" stroke-miterlimit="10" stroke-linecap="round" stroke-linejoin="round"/>
<path d="M25.4697 34.1551C25.4697 34.1551 31.2297 33.5091 34.4697 37.3551" stroke="black" stroke-width="2" stroke-miterlimit="10" stroke-linecap="round" stroke-linejoin="round"/>
<path d="M19.5598 36.5479C18.3298 37.7569 16.8598 43.8609 20.1098 48.1949C23.3498 52.5279 30.2998 59.4009 40.4198 57.7199" stroke="black" stroke-width="2" stroke-miterlimit="10" stroke-linecap="round" stroke-linejoin="round"/>
<path d="M58.9795 68.654L62.2896 66.084" stroke="black" stroke-width="2" stroke-miterlimit="10" stroke-linecap="round" stroke-linejoin="round"/>
<path d="M51.0397 69.0274L52.8596 65.8584L55.2496 68.7834L58.9197 68.6464L57.3296 72.0004L58.8496 75.6614L55.2496 75.6404L53.0996 78.6174L51.0596 75.6234L47.5497 75.0624L49.0397 72.2234L46.8096 69.2604L51.0397 69.0274Z" fill="black" stroke="black" stroke-width="2" stroke-miterlimit="10" stroke-linecap="round" stroke-linejoin="round"/>
<path d="M52.9996 78.4094C52.9996 78.4094 52.9397 81.3694 52.9097 82.1774" stroke="black" stroke-width="2" stroke-miterlimit="10" stroke-linecap="round" stroke-linejoin="round"/>
<path d="M54.2797 81.037L52.9796 80.083L51.5796 81.338" stroke="black" stroke-width="2" stroke-miterlimit="10" stroke-linecap="round" stroke-linejoin="round"/>
<path d="M58.8096 75.6191L61.8096 77.0181" stroke="black" stroke-width="2" stroke-miterlimit="10" stroke-linecap="round" stroke-linejoin="round"/>
<path d="M61.9198 75.3564L60.0298 76.2755L60.5298 77.9214" stroke="black" stroke-width="2" stroke-miterlimit="10" stroke-linecap="round" stroke-linejoin="round"/>
<path d="M47.4696 75.1055C47.4696 75.1055 44.9696 76.7195 44.3696 77.0985" stroke="black" stroke-width="2" stroke-miterlimit="10" stroke-linecap="round" stroke-linejoin="round"/>
<path d="M44.6196 75.3887L46.5796 75.6947C46.5796 75.6947 46.2697 77.1847 46.1797 77.5667" stroke="black" stroke-width="2" stroke-miterlimit="10" stroke-linecap="round" stroke-linejoin="round"/>
<path d="M46.9097 69.3135L44.1597 67.7405" stroke="black" stroke-width="2" stroke-miterlimit="10" stroke-linecap="round" stroke-linejoin="round"/>
<path d="M44.0996 69.7003L45.8296 68.7153L45.8696 66.9453" stroke="black" stroke-width="2" stroke-miterlimit="10" stroke-linecap="round" stroke-linejoin="round"/>
<path d="M60.3096 65.0957V67.4667L62.4796 68.1017" stroke="black" stroke-width="2" stroke-miterlimit="10" stroke-linecap="round" stroke-linejoin="round"/>
<path d="M52.8695 65.8564L52.7295 61.3174" stroke="black" stroke-width="2" stroke-miterlimit="10" stroke-linecap="round" stroke-linejoin="round"/>
<path d="M50.8594 62.4404L52.7494 63.7905L54.5094 62.3254" stroke="black" stroke-width="2" stroke-miterlimit="10" stroke-linecap="round" stroke-linejoin="round"/>
</svg>
