<svg width="100" height="100" viewBox="0 0 100 100" fill="none" xmlns="http://www.w3.org/2000/svg">
<path d="M67.0098 40.1941L77.0297 32.4221" stroke="black" stroke-width="2" stroke-miterlimit="10" stroke-linecap="round" stroke-linejoin="round"/>
<path d="M43.0103 41.3233L48.5002 31.7383L55.7202 40.5853L66.8302 40.1713L62.0302 50.3173L66.6302 61.3913L55.7402 61.3283L49.2402 70.3363L43.0402 61.2773L32.4402 59.5813L36.9402 50.9933L30.2002 42.0283L43.0103 41.3233Z" stroke="black" stroke-width="2" stroke-miterlimit="10" stroke-linecap="round" stroke-linejoin="round"/>
<path d="M48.9402 69.7061C48.9402 69.7061 48.7402 78.661 48.6602 81.104" stroke="black" stroke-width="2" stroke-miterlimit="10" stroke-linecap="round" stroke-linejoin="round"/>
<path d="M52.79 77.6535L48.8501 74.7695L44.6401 78.5665" stroke="black" stroke-width="2" stroke-miterlimit="10" stroke-linecap="round" stroke-linejoin="round"/>
<path d="M66.4902 61.2646L75.5602 65.4967" stroke="black" stroke-width="2" stroke-miterlimit="10" stroke-linecap="round" stroke-linejoin="round"/>
<path d="M75.8999 60.4707L70.1899 63.2497L71.7 68.2297" stroke="black" stroke-width="2" stroke-miterlimit="10" stroke-linecap="round" stroke-linejoin="round"/>
<path d="M32.2098 59.7109C32.2098 59.7109 24.6298 64.5939 22.8198 65.7379" stroke="black" stroke-width="2" stroke-miterlimit="10" stroke-linecap="round" stroke-linejoin="round"/>
<path d="M23.5698 60.5664L29.5099 61.4924C29.5099 61.4924 28.5698 66.0004 28.3098 67.1554" stroke="black" stroke-width="2" stroke-miterlimit="10" stroke-linecap="round" stroke-linejoin="round"/>
<path d="M42.29 51.5277C42.29 47.9977 45.4001 45.1367 49.2401 45.1367C53.0801 45.1367 56.2001 47.9977 56.2001 51.5277C56.2001 55.0567 53.0801 57.9187 49.2401 57.9187C45.4001 57.9187 42.29 55.0567 42.29 51.5277Z" stroke="black" stroke-width="2" stroke-miterlimit="10" stroke-linejoin="round"/>
<path d="M46.85 45.54C40.81 49.364 42.7401 57.89 49.7401 57.896" stroke="black" stroke-width="2" stroke-miterlimit="10" stroke-linecap="round" stroke-linejoin="round"/>
<path d="M30.5 42.1897L22.1899 37.4307" stroke="black" stroke-width="2" stroke-miterlimit="10" stroke-linecap="round" stroke-linejoin="round"/>
<path d="M22 43.3594L27.24 40.3804L27.37 35.0244" stroke="black" stroke-width="2" stroke-miterlimit="10" stroke-linecap="round" stroke-linejoin="round"/>
<path d="M71.04 29.4287V36.5997L77.5901 38.5227" stroke="black" stroke-width="2" stroke-miterlimit="10" stroke-linecap="round" stroke-linejoin="round"/>
<path d="M48.53 31.731L48.1001 18" stroke="black" stroke-width="2" stroke-miterlimit="10" stroke-linecap="round" stroke-linejoin="round"/>
<path d="M42.4502 21.3981L48.1802 25.481L53.4802 21.05" stroke="black" stroke-width="2" stroke-miterlimit="10" stroke-linecap="round" stroke-linejoin="round"/>
</svg>
