<svg width="100" height="100" viewBox="0 0 100 100" fill="none" xmlns="http://www.w3.org/2000/svg">
<path d="M49.2615 21.0611C31.6825 22.1381 18.4875 38.5521 21.4055 52.4411C24.3235 66.3311 33.1365 82.6142 56.8925 78.1382C80.6475 73.6622 80.0425 49.5851 78.9075 43.5591C76.9875 33.3571 66.8405 19.9841 49.2615 21.0611Z" stroke="black" stroke-width="2" stroke-miterlimit="10" stroke-linejoin="round"/>
<path d="M58.4674 77.4731L48.6494 71.6971L52.2604 62.6851L64.4934 62.5261L68.5554 72.9291C68.5554 72.9291 66.6834 74.4361 64.3624 75.6571C62.0414 76.8791 58.4674 77.4731 58.4674 77.4731Z" fill="black" stroke="black" stroke-width="2" stroke-miterlimit="10" stroke-linejoin="round"/>
<path d="M24.8926 62.3848L31.0896 62.9928L37.2716 69.4238L37.4026 75.8628C37.4026 75.8628 33.5036 74.2138 30.1926 70.8868C26.8816 67.5598 24.8926 62.3848 24.8926 62.3848Z" fill="black" stroke="black" stroke-width="2" stroke-miterlimit="10" stroke-linejoin="round"/>
<path d="M37.1592 69.2793C37.1592 69.2793 39.3702 70.6703 43.0472 70.8433C46.3922 71.0023 48.9532 71.7193 48.9532 71.7193" stroke="black" stroke-width="2" stroke-miterlimit="10" stroke-linejoin="round"/>
<path d="M42.8375 36.2502C42.8375 36.2502 32.5274 42.1712 32.4974 43.7172C32.4654 45.3222 34.5664 54.1923 34.5664 54.1923C34.5664 54.1923 44.2015 55.5062 45.2595 55.0662C46.7155 54.4612 50.0084 45.0462 50.0084 45.0462L42.8375 36.2502Z" fill="black" stroke="black" stroke-width="2" stroke-miterlimit="10" stroke-linejoin="round"/>
<path d="M45.4346 54.8389L52.5116 62.7649" stroke="black" stroke-width="2" stroke-miterlimit="10" stroke-linejoin="round"/>
<path d="M31.1045 62.6977C31.1045 62.6977 31.1095 60.6377 32.0495 58.3417C32.9895 56.0457 34.4035 53.9717 34.4035 53.9717" stroke="black" stroke-width="2" stroke-miterlimit="10" stroke-linejoin="round"/>
<path d="M24.7244 36.2148L26.3723 41.9548L21.3604 45.6358C21.3604 45.6358 21.6344 43.2278 22.4574 40.9218C23.2794 38.6158 24.7244 36.2148 24.7244 36.2148Z" fill="black" stroke="black" stroke-width="2" stroke-miterlimit="10" stroke-linejoin="round"/>
<path d="M26.0166 41.9951L32.3176 43.5421" stroke="black" stroke-width="2" stroke-miterlimit="10" stroke-linejoin="round"/>
<path d="M74.9158 35.3494L67.1038 34.3994L63.3857 40.8734C63.3857 40.8734 67.8218 50.3124 69.5728 50.9454C70.8288 51.3994 78.3997 48.6644 78.3997 48.6644C78.3997 48.6644 78.2858 44.1054 77.5018 40.7664C76.7178 37.4264 74.9158 35.3494 74.9158 35.3494Z" fill="black" stroke="black" stroke-width="2" stroke-miterlimit="10" stroke-linejoin="round"/>
<path d="M69.5658 50.8184L64.7998 62.5584" stroke="black" stroke-width="2" stroke-miterlimit="10" stroke-linejoin="round"/>
<path d="M49.8496 44.9971C49.8496 44.9971 53.4206 44.7101 56.7836 43.7611C60.1466 42.8131 63.3016 41.2031 63.3016 41.2031" stroke="black" stroke-width="2" stroke-miterlimit="10" stroke-linejoin="round"/>
<path d="M44.1542 28.0469L43.0312 36.3449" stroke="black" stroke-width="2" stroke-miterlimit="10" stroke-linejoin="round"/>
<path d="M37.5674 24.3272C37.5674 24.3272 42.8584 27.3992 44.1974 27.5442C45.5354 27.6892 55.0094 25.7992 55.0094 25.7992L58.4404 22.0042C58.4404 22.0042 53.8054 20.5652 48.3184 21.2212C42.8324 21.8762 37.5674 24.3272 37.5674 24.3272Z" fill="black" stroke="black" stroke-width="2" stroke-miterlimit="10" stroke-linejoin="round"/>
<path d="M55.4404 25.7822C55.4404 25.7822 59.2764 27.5282 62.2394 29.7552C65.2024 31.9822 67.2934 34.6912 67.2934 34.6912" stroke="black" stroke-width="2" stroke-miterlimit="10" stroke-linejoin="round"/>
</svg>
