<svg width="100" height="100" viewBox="0 0 100 100" fill="none" xmlns="http://www.w3.org/2000/svg">
<path d="M20.9102 51.881C20.9102 47.895 34.3102 44.665 50.8502 44.665C67.3902 44.665 80.7902 47.895 80.7902 51.881C80.7902 55.866 67.3902 59.097 50.8502 59.097C34.3102 59.097 20.9102 55.866 20.9102 51.881Z" stroke="black" stroke-width="2" stroke-miterlimit="10" stroke-linejoin="round"/>
<path d="M21 52.281C21.98 59.485 26.21 63.657 28.72 65.511C32.69 68.436 41.3799 70.002 51.2899 69.947C61.1999 69.892 67.7699 67.948 70.6699 66.297C72.7699 65.099 80.0999 58.295 80.7999 51.96" stroke="black" stroke-width="2" stroke-miterlimit="10" stroke-linecap="round" stroke-linejoin="round"/>
<path d="M75.1 61.4023C78.96 62.8593 81.24 64.6664 81.24 66.6234C81.24 71.4564 67.31 75.3734 50.12 75.3734C32.93 75.3734 19 71.4564 19 66.6234C19 64.8274 20.92 63.1574 24.23 61.7684" stroke="black" stroke-width="2" stroke-miterlimit="10" stroke-linejoin="round"/>
<path d="M73.7099 56.2624C73.7099 56.2624 89.77 52.1754 73.37 47.1714C67.59 45.4084 59.1199 44.7834 50.3599 44.7764C43.9699 44.7704 37.2199 45.4244 35.3599 45.7584C9.67995 50.3684 26.1699 56.0324 26.1699 56.0324C26.1699 56.0324 26.3699 49.4014 50.3599 50.3734C74.0799 51.3354 73.7099 56.2624 73.7099 56.2624Z" fill="black" stroke="black" stroke-width="2" stroke-miterlimit="10" stroke-linecap="round" stroke-linejoin="round"/>
<path d="M50.5201 55.4265C50.7101 55.8885 49.0801 55.0285 49.0801 55.0285C49.0801 55.0285 50.3301 54.9635 50.5201 55.4265Z" stroke="black" stroke-width="2" stroke-miterlimit="10" stroke-linecap="round" stroke-linejoin="round"/>
<path d="M63.45 54.4369C63.37 54.3279 61.8501 54.5779 61.8901 54.9309C61.9601 55.4769 64.12 55.3699 63.45 54.4369Z" stroke="black" stroke-width="2" stroke-miterlimit="10" stroke-linecap="round" stroke-linejoin="round"/>
<path d="M34.46 54.315C35.76 53.694 36.76 55.054 37.76 54.58" stroke="black" stroke-width="2" stroke-miterlimit="10" stroke-linecap="round" stroke-linejoin="round"/>
<path d="M56.3598 54.0185C56.5298 53.5695 55.4398 53.6475 54.9698 53.5545C54.4298 53.4455 53.9098 53.3255 53.3898 53.2215C52.3598 53.0145 55.6398 55.9395 56.3598 54.0185Z" stroke="black" stroke-width="2" stroke-miterlimit="10" stroke-linecap="round" stroke-linejoin="round"/>
<path d="M43.5099 53.1705C44.1599 52.7915 46.3298 53.4985 45.4198 54.1845C44.4898 54.8815 41.8699 54.1475 43.5099 53.1705Z" stroke="black" stroke-width="2" stroke-miterlimit="10" stroke-linecap="round" stroke-linejoin="round"/>
<path d="M36.52 41.7399C36.52 41.7399 40.2699 40.6479 39.3199 37.2809C39.0299 36.2669 38.4 35.5319 37.83 34.8319C36.63 33.3639 35.6899 32.0529 38.6899 28.6589" stroke="black" stroke-width="2" stroke-miterlimit="10" stroke-linecap="round" stroke-linejoin="round"/>
<path d="M55.87 41.1301C55.87 41.1301 59.6199 40.0381 58.6599 36.6711C58.3799 35.6571 57.7499 34.9211 57.1699 34.2211C55.9799 32.7531 55.03 31.4421 58.03 28.0491" stroke="black" stroke-width="2" stroke-miterlimit="10" stroke-linecap="round" stroke-linejoin="round"/>
<path d="M46.4697 37.081C46.4697 37.081 50.2298 35.989 49.2698 32.622C48.9798 31.608 48.3598 30.872 47.7798 30.172C46.5898 28.705 45.6398 27.394 48.6398 24" stroke="black" stroke-width="2" stroke-miterlimit="10" stroke-linecap="round" stroke-linejoin="round"/>
</svg>
