<svg width="100" height="100" viewBox="0 0 100 100" fill="none" xmlns="http://www.w3.org/2000/svg">
<path d="M31.4292 72.8813C31.4292 72.8813 31.5372 77.6663 31.6132 78.6033C31.6892 79.5413 38.1082 79.7913 38.2082 78.4323C38.3642 76.3143 38.0952 72.8223 38.0952 72.8223" stroke="black" stroke-width="2" stroke-miterlimit="10" stroke-linejoin="round"/>
<path d="M31.7364 69.2185C31.7364 69.2185 31.6124 43.4385 31.6364 40.4925C31.6614 37.5475 32.6234 35.3365 34.5384 35.3695C36.4544 35.4025 37.6454 37.4025 37.7214 40.0865C37.7984 42.7705 37.6414 62.1555 37.6414 62.1555" stroke="black" stroke-width="2" stroke-miterlimit="10" stroke-linejoin="round"/>
<path d="M63.3521 72.9305C63.3521 72.9305 63.4151 77.5355 63.4911 78.4725C63.5671 79.4105 69.448 79.6605 69.548 78.3015C69.704 76.1835 69.6601 72.6025 69.6601 72.6025" stroke="black" stroke-width="2" stroke-miterlimit="10" stroke-linejoin="round"/>
<path d="M63.1973 62.8726C63.1973 62.8726 62.9523 43.3076 62.9763 40.3616C63.0013 37.4166 63.9632 35.2056 65.8782 35.2386C67.7942 35.2716 68.9852 37.2716 69.0612 39.9556C69.1382 42.6396 69.1132 69.8017 69.1132 69.8017" stroke="black" stroke-width="2" stroke-miterlimit="10" stroke-linejoin="round"/>
<path d="M42.4277 75.3506C42.4277 75.3506 42.8918 51.2736 42.8878 47.4756C42.8828 43.6776 47.1398 34.2976 50.1468 34.3676C53.1548 34.4376 57.8407 42.6506 57.7137 47.3056C57.5877 51.9596 58.0727 73.6506 57.8627 75.6626C57.6527 77.6756 42.9797 77.4796 42.4277 75.3506Z" stroke="black" stroke-width="2" stroke-miterlimit="10" stroke-linejoin="round"/>
<path d="M52.3401 77.1982C52.3401 77.1982 52.0111 79.3792 51.7361 81.0112C51.6171 81.7202 57.6901 81.4382 57.6901 81.4382L56.5971 76.5332" stroke="black" stroke-width="2" stroke-miterlimit="10" stroke-linejoin="round"/>
<path d="M43.4559 76.3145C43.4559 76.3145 42.5579 80.0924 42.2749 80.8004C41.9919 81.5084 48.6029 81.4144 48.6029 81.4144L47.8949 76.8804" stroke="black" stroke-width="2" stroke-miterlimit="10" stroke-linejoin="round"/>
<path d="M57.9111 55.3672C57.9111 55.3672 61.3191 62.0932 64.8041 63.7582C69.0101 65.7692 69.7031 72.9542 69.7031 72.9542L58.2981 72.8802L57.9111 55.3672Z" stroke="black" stroke-width="2" stroke-miterlimit="10" stroke-linejoin="round"/>
<path d="M42.792 55.291C42.792 55.291 39.384 62.016 35.899 63.682C31.693 65.692 31 72.878 31 72.878L42.405 72.804L42.792 55.291Z" stroke="black" stroke-width="2" stroke-miterlimit="10" stroke-linejoin="round"/>
<path d="M42.6514 70.291C42.6514 70.291 47.5914 71.55 50.8094 71.563C54.0274 71.575 57.9684 70.714 57.9684 70.714" stroke="black" stroke-width="2" stroke-miterlimit="10" stroke-linejoin="round"/>
<path d="M46.6863 47.6219L46.6504 45.6249C46.6504 45.6249 48.8914 43.5299 50.3044 43.5629C51.7164 43.5959 54.1024 45.4929 54.1024 45.4929L53.9424 47.3649C53.9424 47.3649 52.2114 46.8819 50.7414 46.6139C49.2714 46.3449 46.6863 47.6219 46.6863 47.6219Z" fill="black" stroke="black" stroke-width="2" stroke-miterlimit="10" stroke-linejoin="round"/>
<path d="M37.7518 40.7895C37.7518 40.7895 37.6758 34.4245 37.7828 32.4925C38.1888 25.2336 47.4338 18.1079 50.0228 18.0011C52.6108 17.8942 62.2908 25.7032 62.9708 31.8875C63.3888 35.6895 62.9437 36.3495 62.9787 40.1475" stroke="black" stroke-width="2" stroke-miterlimit="10" stroke-linejoin="round"/>
<path d="M31.7891 41.2036L37.662 41.0156" stroke="black" stroke-width="2" stroke-miterlimit="10" stroke-linejoin="round"/>
<path d="M63.416 40.4473L68.576 40.4503" stroke="black" stroke-width="2" stroke-miterlimit="10" stroke-linejoin="round"/>
<path d="M42.875 22.7871L57.835 22.867" stroke="black" stroke-width="2" stroke-miterlimit="10" stroke-linejoin="round"/>
</svg>
