<svg width="100" height="100" viewBox="0 0 100 100" fill="none" xmlns="http://www.w3.org/2000/svg">
<path d="M66.7759 87.7803V70.4414" stroke="black" stroke-width="2" stroke-linecap="round" stroke-linejoin="round"/>
<path d="M47.6895 82.8336L41.3052 66.7129" stroke="black" stroke-width="2" stroke-linecap="round" stroke-linejoin="round"/>
<path d="M25.1802 45.9395C23.8622 46.8454 18.1743 49.8022 14.3386 51.3212" stroke="black" stroke-width="2" stroke-linecap="round" stroke-linejoin="round"/>
<path d="M32.6026 43.4586C32.3728 42.8785 31.2651 43.4373 31.4538 43.9136L41.0453 68.1327L42.1941 67.6777L32.6026 43.4586Z" stroke="black" stroke-width="2" stroke-linecap="round" stroke-linejoin="round"/>
<path d="M30.438 51.1484L30.2589 54.1312M29.57 65.6083C29.575 62.8133 29.5116 61.4187 30.0744 57.2064" stroke="black" stroke-width="2" stroke-linecap="round" stroke-linejoin="round"/>
<path d="M27.1567 48.7314C24.7474 51.6824 23.5462 53.299 22.0866 55.9838" stroke="black" stroke-width="2" stroke-linecap="round" stroke-linejoin="round"/>
<path d="M38.7933 47.8395C41.9995 51.2966 43.4184 52.4681 45.9398 54.5423" stroke="black" stroke-width="2" stroke-linecap="round" stroke-linejoin="round"/>
<path d="M40.5776 44.5892L44.1016 45.6323M54.1625 48.6104C52.1992 48.0176 50.889 47.4526 46.831 46.4403" stroke="black" stroke-width="2" stroke-linecap="round" stroke-linejoin="round"/>
<path d="M62.0156 41.1367C60.3075 45.5314 59.4197 47.1431 57.8392 50" stroke="black" stroke-width="2" stroke-linecap="round" stroke-linejoin="round"/>
<path d="M71.0024 41.1367L72.2672 43.844M77.1336 54.2611C76.0999 51.6643 75.6453 50.3444 73.5711 46.6352" stroke="black" stroke-width="2" stroke-linecap="round" stroke-linejoin="round"/>
<path d="M73.1628 37.6816C76.4895 39.5382 78.2014 40.5988 80.5471 42.5576" stroke="black" stroke-width="2" stroke-linecap="round" stroke-linejoin="round"/>
<path d="M66.1581 34.1654C66.1581 33.5414 67.3937 33.6532 67.3937 34.1654V70.7836H66.1581V34.1654Z" stroke="black" stroke-width="2" stroke-linecap="round" stroke-linejoin="round"/>
<path d="M29.2089 36.5665C28.3885 33.5072 27.23 30.8608 24.9824 25.8945" stroke="black" stroke-width="2" stroke-linecap="round" stroke-linejoin="round"/>
<path d="M26.7345 38.4468C26.0952 38.1503 24.6137 37.332 23.7338 36.7635M15.0114 31.6791C15.9206 32.1091 19.0444 33.8073 21.0049 35.13" stroke="black" stroke-width="2" stroke-linecap="round" stroke-linejoin="round"/>
<path d="M24.786 41.8462C20.4332 41.1355 18.0594 40.7989 14.3595 40.7499" stroke="black" stroke-width="2" stroke-linecap="round" stroke-linejoin="round"/>
<path d="M60.3891 36.8883L56.8819 37.9865M48.4706 40.6771C50.4243 40.0536 52.2209 39.4068 54.1654 38.8372" stroke="black" stroke-width="2" stroke-linecap="round" stroke-linejoin="round"/>
<path d="M73.9724 34.3574C75.5313 34.7145 81.9083 35.3691 86.0339 35.3691" stroke="black" stroke-width="2" stroke-linecap="round" stroke-linejoin="round"/>
<path d="M37.7404 39.5106C40.7447 37.8444 42.7911 36.4975 47.0308 33.6719" stroke="black" stroke-width="2" stroke-linecap="round" stroke-linejoin="round"/>
<path d="M59.9274 33.0058C56.5207 32.5629 54.1222 32.064 49.14 30.998" stroke="black" stroke-width="2" stroke-linecap="round" stroke-linejoin="round"/>
<path d="M35.6582 36.4053L39.351 31.5193M43.4214 26.1338L41.6646 28.4582" stroke="black" stroke-width="2" stroke-linecap="round" stroke-linejoin="round"/>
<path d="M69.7686 27.9647C70.2539 27.4536 71.33 26.1473 71.9387 25.2948M78.1762 17.3559C77.4892 18.0905 75.2102 20.8196 73.8745 22.7712" stroke="black" stroke-width="2" stroke-linecap="round" stroke-linejoin="round"/>
<path d="M72.8317 30.4062C76.617 28.1428 78.7001 26.9558 82.122 25.5479" stroke="black" stroke-width="2" stroke-linecap="round" stroke-linejoin="round"/>
<path d="M60.7199 29.3516L55.4875 26.1686M49.7201 22.6602L52.2093 24.1744" stroke="black" stroke-width="2" stroke-linecap="round" stroke-linejoin="round"/>
<path d="M32.1267 34.9629C32.2085 29.0746 32.2975 25.9436 32.79 21.6885" stroke="black" stroke-width="2" stroke-linecap="round" stroke-linejoin="round"/>
<path d="M66.7759 27.127C66.4122 23.9805 66.5149 21.0935 66.7759 15.6484" stroke="black" stroke-width="2" stroke-linecap="round" stroke-linejoin="round"/>
<path d="M63.4723 26.7099C61.2281 21.2654 59.9924 18.3871 57.9678 14.6123" stroke="black" stroke-width="2" stroke-linecap="round" stroke-linejoin="round"/>
</svg>
