<svg width="100" height="100" viewBox="0 0 100 100" fill="none" xmlns="http://www.w3.org/2000/svg">
<path d="M33.2117 51.6094C33.2117 51.6094 31.7671 58.3593 31.0389 62.7202M55.3393 65.3281C55.3393 65.3281 47.5144 71.2582 42.7693 74.5876C38.1388 77.8367 31.4742 82.0768 31.0592 82.3405C31.0456 82.3492 31.032 82.3583 31.0187 82.3675C29.9616 83.0903 28.6334 82.2513 28.8213 81.0228C28.8244 81.0022 28.8287 80.9817 28.8334 80.9614C28.9014 80.6679 29.4473 78.2508 29.8547 74.5876M31.0389 62.7202C30.4721 66.1144 30.2545 70.9935 29.8547 74.5876M31.0389 62.7202L29.8547 74.5876" stroke="black" stroke-width="2" stroke-linecap="round" stroke-linejoin="round"/>
<path d="M31.843 61.8718C36.7958 65.3164 48.4292 67.836 53.1866 66.6341" stroke="black" stroke-width="2" stroke-linecap="round" stroke-linejoin="round"/>
<path d="M30.8988 68.6458C33.2724 70.6731 42.0031 73.5408 44.7938 73.0518" stroke="black" stroke-width="2" stroke-linecap="round" stroke-linejoin="round"/>
<path d="M30.1283 76.1491C31.5457 77.2477 35.2227 78.5928 37.5336 78.1479" stroke="black" stroke-width="2" stroke-linecap="round" stroke-linejoin="round"/>
<path d="M74.715 58.2972C75.2879 58.6499 75.5625 59.2442 75.114 59.9729C74.7614 60.5456 74.0112 60.7241 73.4383 60.3714C73.0019 60.1028 72.6867 59.2686 73.0392 58.6958C73.5168 57.92 74.142 57.9446 74.715 58.2972Z" fill="black"/>
<ellipse cx="44.3831" cy="58.349" rx="13.0514" ry="2.78697" transform="rotate(31.613 44.3831 58.349)" fill="black" stroke="black" stroke-width="2" stroke-linecap="round" stroke-linejoin="round"/>
<path d="M53.3722 52.465C55.8 50.8248 56.9698 51.471 58.765 48.9181C60.5603 46.3653 58.8155 45.4406 61.3393 43.038C63.8631 40.6355 62.4679 39.628 66.7905 39.1537" stroke="black" stroke-width="2" stroke-linecap="round" stroke-linejoin="round"/>
<path d="M58.1663 58.2203C64.523 52.9503 70.525 60.5203 66.2918 61.5054C62.3783 62.4161 65.3165 52.4468 72.117 55.14" stroke="black" stroke-width="2" stroke-linecap="round" stroke-linejoin="round"/>
<path d="M60.3393 63.1938C61.0219 63.6139 61.3491 64.3221 60.8147 65.1902C60.3947 65.8726 59.5008 66.0852 58.8182 65.665C58.2983 65.345 57.9228 64.3511 58.3428 63.6687C58.9118 62.7443 59.6567 62.7736 60.3393 63.1938Z" fill="black"/>
<path d="M44.5693 48.0788C46.0187 45.2389 45.3651 43.2691 45.5278 40.4582C45.6905 37.6474 48.8346 37.2687 50.9753 34.0332C53.1161 30.7978 52.5833 28.7531 51.2468 25.4673" stroke="black" stroke-width="2" stroke-linecap="round" stroke-linejoin="round"/>
<path d="M55.7504 42.2054C56.3233 42.5581 56.5979 43.1524 56.1494 43.8811C55.7968 44.4538 55.0466 44.6323 54.4737 44.2796C54.0373 44.011 53.7221 43.1768 54.0746 42.604C54.5522 41.8282 55.1774 41.8528 55.7504 42.2054Z" fill="black"/>
<path d="M35.985 46.606C30.493 39.5236 40.5677 36.0623 40.3774 40.8578C40.1872 45.6533 29.9458 41.5784 36.5859 34.8287" stroke="black" stroke-width="2" stroke-linecap="round" stroke-linejoin="round"/>
<path d="M31.0634 46.8773C31.6363 47.2299 31.9109 47.8243 31.4624 48.5529C31.1098 49.1257 30.3596 49.3042 29.7866 48.9515C29.3503 48.6829 29.0351 47.8487 29.3876 47.2759C29.8652 46.5 30.4904 46.5247 31.0634 46.8773Z" fill="black"/>
<path d="M79.3978 46.0414C79.9708 46.394 80.2453 46.9884 79.7969 47.717C79.4443 48.2898 78.694 48.4682 78.1211 48.1156C77.6847 47.847 77.3695 47.0127 77.7221 46.4399C78.1996 45.6641 78.8249 45.6887 79.3978 46.0414Z" fill="black"/>
<path d="M75.3445 35.3192C75.4061 35.6082 74.2859 36.8438 74.2052 36.9738C74.1245 37.1039 74.9259 38.8522 74.8389 39.0117C74.752 39.1712 73.1844 38.2636 72.9422 38.3442C72.7 38.4247 71.4292 39.9829 71.1709 39.6718C70.9127 39.3608 71.3266 37.8028 71.1915 37.5754C71.0565 37.3479 69.4478 36.7113 69.4096 36.3874C69.3714 36.0635 71.3793 35.6976 71.559 35.5466C71.7387 35.3956 71.6665 33.6052 71.989 33.6973C72.3115 33.7893 73.1269 35.09 73.3598 35.1656C73.5927 35.2413 75.283 35.0301 75.3445 35.3192Z" fill="black" stroke="black"/>
<path d="M26.0104 32.5931C26.5833 32.9458 26.8579 33.5401 26.4094 34.2688C26.0568 34.8415 25.3066 35.02 24.7337 34.6673C24.2973 34.3987 23.9821 33.5645 24.3346 32.9917C24.8122 32.2158 25.4375 32.2405 26.0104 32.5931Z" fill="black"/>
<path d="M36.8401 26.4369C37.1319 26.4832 37.8833 27.9721 37.9758 28.0941C38.0683 28.216 39.9876 28.0953 40.1053 28.2337C40.223 28.3721 38.8135 29.5097 38.8018 29.7646C38.79 30.0196 39.7885 31.7649 39.4055 31.8943C39.0225 32.0238 37.7168 31.0784 37.456 31.1229C37.1953 31.1674 36.0238 32.4406 35.7078 32.36C35.3917 32.2794 35.7706 30.274 35.6941 30.052C35.6177 29.8301 33.9206 29.2551 34.1222 28.9871C34.3239 28.7191 35.8305 28.4246 35.9846 28.2344C36.1388 28.0442 36.5482 26.3907 36.8401 26.4369Z" fill="black" stroke="black"/>
<path d="M60.8545 21.6947C60.9161 21.9837 59.7959 23.2193 59.7152 23.3493C59.6345 23.4794 60.4359 25.2277 60.3489 25.3872C60.262 25.5466 58.6944 24.6391 58.4522 24.7197C58.21 24.8002 56.9392 26.3584 56.6809 26.0473C56.4227 25.7363 56.8366 24.1783 56.7016 23.9509C56.5665 23.7234 54.9578 23.0867 54.9196 22.7629C54.8814 22.439 56.8893 22.0731 57.069 21.9221C57.2487 21.7711 57.1765 19.9807 57.499 20.0728C57.8215 20.1648 58.637 21.4655 58.8698 21.5411C59.1027 21.6167 60.793 21.4056 60.8545 21.6947Z" fill="black" stroke="black"/>
<path d="M72.0205 24.208C68.9062 28.3703 70.7335 29.4477 65.3732 31.3931C60.0129 33.3386 58.4579 31.9685 55.684 34.0778C52.4478 36.5385 50.2499 41.8094 50.2794 46.2723" stroke="black" stroke-width="2" stroke-linecap="round" stroke-linejoin="round"/>
<path d="M66.7961 46.9687C67.4787 47.3888 67.8058 48.097 67.2715 48.9651C66.8515 49.6475 65.9576 49.8601 65.275 49.44C64.7551 49.1199 64.3796 48.126 64.7996 47.4436C65.3686 46.5192 66.1135 46.5485 66.7961 46.9687Z" fill="black"/>
<path d="M70.5699 41.4798C71.1429 41.8325 71.4174 42.4269 70.969 43.1555C70.6164 43.7282 69.8662 43.9067 69.2932 43.5541C68.8569 43.2854 68.5417 42.4512 68.8942 41.8784C69.3718 41.1026 69.997 41.1272 70.5699 41.4798Z" fill="black"/>
<path d="M47.3671 29.1854C47.94 29.5381 48.2146 30.1324 47.7661 30.861C47.4135 31.4338 46.6633 31.6123 46.0904 31.2596C45.654 30.991 45.3388 30.1568 45.6913 29.584C46.1689 28.8081 46.7941 28.8328 47.3671 29.1854Z" fill="black"/>
<path d="M41.9907 18.9936C42.6733 19.4137 43.0004 20.1219 42.4661 20.99C42.0461 21.6724 41.1522 21.885 40.4696 21.4649C39.9497 21.1448 39.5742 20.1509 39.9942 19.4685C40.5632 18.5441 41.3081 18.5734 41.9907 18.9936Z" fill="black"/>
</svg>
