<svg width="100" height="100" viewBox="0 0 100 100" fill="none" xmlns="http://www.w3.org/2000/svg">
<path d="M39.6532 48.8116C54.4466 45.9309 56.3724 35.1604 58.7719 26.1582C60.1007 36.502 64.397 44.2564 77.0983 48.2806C62.4966 51.8803 60.8843 60.2463 58.7719 74.7581C56.6076 59.805 54.0528 51.1172 39.6532 48.8116Z" stroke="black" stroke-width="2" stroke-linecap="round" stroke-linejoin="round"/>
<path fill-rule="evenodd" clip-rule="evenodd" d="M58.3501 27.7657C56.101 36.4021 53.5753 46.1006 39.6533 48.8116C54.0529 51.1172 56.6077 59.805 58.772 74.7581C60.8844 60.2463 62.4967 51.8803 77.0984 48.2806C64.3972 44.2564 60.1008 36.502 58.772 26.1582C58.6306 26.6885 58.4909 27.225 58.3501 27.7657ZM60.3626 35.9399C60.1901 35.4152 59.6249 35.1297 59.1003 35.3022C58.5756 35.4747 58.2901 36.0399 58.4626 36.5645C59.3152 39.1576 60.8851 41.7797 62.8891 43.9242C64.8897 46.0652 67.3772 47.787 70.0924 48.4841C70.6273 48.6215 71.1723 48.2992 71.3097 47.7642C71.447 47.2293 71.1247 46.6843 70.5898 46.547C68.3435 45.9702 66.1713 44.5074 64.3504 42.5587C62.5327 40.6135 61.1191 38.2408 60.3626 35.9399Z" fill="black"/>
<path fill-rule="evenodd" clip-rule="evenodd" d="M41.2248 56.8002C41.1269 56.3297 40.7082 55.9954 40.2277 56.0041C39.7472 56.0127 39.3409 56.362 39.26 56.8357C39.1857 57.271 39.1229 57.6824 39.0622 58.0804L39.0622 58.0804L39.0622 58.0805L39.0622 58.0806C38.9603 58.7484 38.8643 59.3781 38.7292 60.0188C38.5213 61.0054 38.2433 61.883 37.7839 62.6632C36.9007 64.1633 35.2065 65.5342 31.3325 66.3438C30.8666 66.4412 30.5338 66.8535 30.5371 67.3296C30.5404 67.8056 30.8789 68.2133 31.3462 68.3042C34.7509 68.9666 36.4188 70.0445 37.4045 71.6084C38.453 73.2719 38.8491 75.6411 39.2519 79.2522C39.3078 79.7536 39.7285 80.1349 40.233 80.1413C40.7374 80.1478 41.1677 79.7774 41.2364 79.2776C41.7204 75.7583 42.3657 73.3797 43.504 71.7347C44.5986 70.1529 46.234 69.1353 49.0116 68.5577C49.4701 68.4624 49.801 68.0617 49.8079 67.5935C49.8149 67.1254 49.4961 66.715 49.0407 66.6061C46.3831 65.9704 44.9782 65.4635 43.948 64.2864C42.8774 63.0631 42.0948 60.9818 41.2248 56.8002ZM41.5931 63.8606C41.4826 63.3194 40.9544 62.9703 40.4133 63.0807C39.8722 63.1912 39.523 63.7194 39.6335 64.2605C39.8295 65.221 40.4752 66.1505 41.1724 66.8506C41.8719 67.5529 42.7815 68.1833 43.6788 68.41C44.2142 68.5452 44.758 68.2208 44.8932 67.6854C45.0285 67.1499 44.7041 66.6062 44.1686 66.4709C43.75 66.3651 43.1457 65.9977 42.5895 65.4393C42.0312 64.8786 41.6796 64.2844 41.5931 63.8606Z" fill="black"/>
<path fill-rule="evenodd" clip-rule="evenodd" d="M31.5925 19.8595C32.0729 19.8509 32.4917 20.1852 32.5895 20.6557C33.4595 24.8373 34.2422 26.9186 35.3128 28.1419C36.343 29.319 37.7478 29.8258 40.4054 30.4616C40.8608 30.5705 41.1796 30.9808 41.1727 31.449C41.1657 31.9172 40.8348 32.3178 40.3764 32.4132C37.5987 32.9908 35.9634 34.0084 34.8687 35.5902C33.7304 37.2352 33.0852 39.6138 32.6012 43.1331C32.5324 43.6329 32.1022 44.0032 31.5977 43.9968C31.0932 43.9903 30.6726 43.6091 30.6167 43.1077C30.2139 39.4966 29.8178 37.1273 28.7692 35.4638C27.7835 33.9 26.1156 32.822 22.7109 32.1597C22.2436 32.0688 21.9052 31.6611 21.9019 31.185C21.8986 30.709 22.2313 30.2966 22.6973 30.1992C26.5713 29.3896 28.2654 28.0187 29.1487 26.5187C29.6081 25.7384 29.886 24.8609 30.094 23.8743C30.229 23.2336 30.3251 22.6038 30.427 21.936L30.427 21.936L30.427 21.9359L30.427 21.9358C30.4877 21.5379 30.5505 21.1264 30.6248 20.6911C30.7056 20.2174 31.112 19.8682 31.5925 19.8595ZM33.3929 27.1775C33.2824 26.6363 32.7542 26.2872 32.2131 26.3976C31.672 26.5081 31.3228 27.0363 31.4333 27.5774C31.6058 28.4227 32.021 29.3484 32.6107 30.1272C33.196 30.9004 34.0259 31.622 35.0714 31.8948C35.6058 32.0342 36.152 31.714 36.2914 31.1796C36.4308 30.6452 36.1106 30.099 35.5762 29.9595C35.1112 29.8382 34.627 29.4771 34.2052 28.92C33.7878 28.3686 33.5029 27.7165 33.3929 27.1775Z" fill="black"/>
</svg>
