<svg width="100" height="100" viewBox="0 0 100 100" fill="none" xmlns="http://www.w3.org/2000/svg">
<path d="M29.977 71.769C31.3459 70.5777 32.5316 71.7584 32.9534 72.4977C33.5572 73.976 31.9551 74.9108 30.9604 74.9443C29.9656 74.9778 28.2658 73.2581 29.977 71.769Z" fill="black" stroke="black" stroke-width="2" stroke-linecap="round"/>
<path d="M59.2969 13.6835C62.8549 10.9038 68.2382 16.7421 73.99 21.4276C81.3105 27.3909 83.7214 29.827 83.8113 31.9134C83.961 35.3883 77.8451 42.1771 71.3977 47.1521C65.3155 51.8453 60.8113 50.1492 54.7557 52.3837C48.7001 54.6183 44.8719 63.7171 42.3122 67.6592C39.7525 71.6013 33.0552 85.953 25.629 78.3407C18.7949 71.3353 34.7797 61.5231 39.747 56.6102C43.2204 53.1749 48.5749 51.8508 47.0047 38.9022C45.62 27.484 55.739 16.4633 59.2969 13.6835Z" stroke="black" stroke-width="2" stroke-linecap="round"/>
<path d="M57.8721 39.7394C57.4923 38.9963 63.4911 31.2342 67.6442 25.2244C68.7083 23.9181 70.8319 25.8487 70.4781 26.8857C70.1243 27.9227 62.2956 37.5668 60.6083 39.3451C59.6781 40.3255 58.6127 41.1884 57.8721 39.7394Z" fill="black" stroke="black" stroke-width="2" stroke-linecap="round"/>
<path d="M63.4423 44.5243C63.098 43.6946 69.0902 37.7437 74.6313 30.9411C75.8552 29.4386 77.9977 31.7432 77.563 32.7489C77.1282 33.7547 68.7341 41.6636 66.9114 43.3028C65.0886 44.9419 64.0658 46.0273 63.4423 44.5243Z" fill="black" stroke="black" stroke-width="2" stroke-linecap="round"/>
<path d="M51.6555 35.1606C51.3313 34.6673 56.8952 25.5177 60.3154 20.143C61.6904 18.201 63.5838 20.3929 63.3448 21.4622C63.1058 22.5315 56.2294 32.1661 54.7453 34.1172C53.2613 36.0683 52.5491 36.5205 51.6555 35.1606Z" fill="black" stroke="black" stroke-width="2" stroke-linecap="round"/>
<path d="M83.9628 32.6864C84.3069 33.1935 84.7887 34.599 83.9628 36.164C82.9304 38.1202 76.7902 44.5864 73.693 47.1946C70.5957 49.8028 67.4441 51.759 63.4231 52.0307C59.4021 52.3024 54.6747 53.1174 52.9359 54.8562C51.1971 56.595 47.9911 60.3444 44.9482 66.2128C41.9053 72.0813 38.0182 77.537 35.6978 79.6018C34.2176 80.9189 31.809 81.3407 30.7656 80.5819" stroke="black" stroke-width="2" stroke-linecap="round"/>
</svg>
