<svg width="100" height="100" viewBox="0 0 100 100" fill="none" xmlns="http://www.w3.org/2000/svg">
<path d="M48.1045 58.5439C49.9483 59.3552 51.9406 63.2314 52.7713 65.2187C53.3838 66.5709 59.1011 64.9612 59.1011 63.5326C59.1011 61.804 57.4878 53.9094 59.977 52.0656C62.4662 50.2217 75.5869 49.0383 80.1019 47.3017C82.0188 46.5645 82.4884 44.7727 82.2899 43.0646C81.9376 40.0328 81.2994 36.1452 81.1814 35.3786C81.0339 34.4198 79.1532 34.2416 78.2313 34.2723C77.5859 32.8587 75.1151 29.4172 72.4868 27.7762C66.9129 24.2962 61.8318 20.982 43.5776 21.7196C25.3233 22.4571 19.9653 35.3788 18.1214 42.1089C16.2775 48.839 20.6108 60.4554 21.4405 65.2187C22.2651 69.9523 27.3687 69.9515 28.6087 69.9513H28.6317C29.8302 69.9513 31.7663 69.2137 32.7804 68.1996C33.7945 67.1855 32.8726 65.2187 32.7804 63.8665C32.6882 62.5143 36.4239 58.5925 37.1614 57.5783C37.899 56.5641 45.7996 57.5296 48.1045 58.5439Z" stroke="black" stroke-width="2" stroke-linecap="round"/>
<path d="M35.2649 60.0043C35.1945 61.6453 36.3027 64.6514 37.148 64.9614C38.5384 65.4713 44.2154 67.2174 45.833 65.9514C47.4506 64.6855 48.8572 61.4503 48.0132 59.1294" stroke="black" stroke-width="2" stroke-linecap="round"/>
<path d="M59.0527 54.0137C60.6961 54.0641 64.1041 54.605 64.5895 56.3646C65.1963 58.5643 67.0966 62.7789 68.1585 62.6272C69.2203 62.4755 72.7516 62.104 72.9791 60.0562C73.2067 58.0084 71.228 50.9087 72.669 49.3159" stroke="black" stroke-width="2" stroke-linecap="round"/>
<path d="M80.2353 34.719C78.4994 34.3976 73.7788 35.0637 73.2132 35.8351C72.5062 36.7993 70.733 38.3295 63.6572 39.3007C58.4113 40.0207 49.1383 41.8219 40.0967 42.5174" stroke="black" stroke-width="2" stroke-linecap="round"/>
<path d="M60.0642 32.6127C58.9712 32.7268 57.6684 33.3988 56.6488 32.2234C56.3048 31.8267 55.8763 30.9202 55.0113 29.8953C54.2895 29.04 53.2183 27.9405 52.6084 27.4152C52.3368 27.1811 54.0117 27.6998 55.8475 28.8726C58.1322 30.3321 60.6702 32.5494 60.0642 32.6127Z" fill="black" stroke="black" stroke-width="2" stroke-linecap="round"/>
<path d="M66.5693 29.4919C64.4369 28.1973 58.2116 26.1425 58.7441 26.4421C59.2766 26.7416 60.3817 27.4518 62.1731 28.5394C65.3688 30.4797 66.3034 32.105 66.8269 32.343C67.2458 32.5334 69.4505 32.6286 70.0217 32.343C70.5929 32.0574 68.7016 30.7865 66.5693 29.4919Z" fill="black" stroke="black" stroke-width="2" stroke-linecap="round"/>
<path d="M35.2222 43.3706L32.2773 43.7245" stroke="black" stroke-width="2" stroke-linecap="round"/>
<path d="M27.1826 70.5979C28.5751 73.3393 29.9487 79.1096 38.6028 78.3092C46.716 77.5589 54.017 79.6812 55.7141 75.7649C57.0718 72.6318 57.5499 67.0717 57.3947 65.3086L54.6592 65.8721C54.7879 67.4552 54.0443 72.2917 53.0141 73.8488C51.7265 75.7951 43.7432 74.836 40.3953 74.7073C37.0474 74.5785 35.5748 75.4583 33.1926 73.8488C31.2869 72.5611 31.1259 70.4193 30.7611 69.6682" stroke="black" stroke-width="2" stroke-linecap="round"/>
<path d="M37.959 57.4712L34.793 60.8008L37.5222 65.1127L43.4172 66.4227L46.3646 65.7132L48.2204 61.8924L48.4934 58.8903L45.6551 57.8532L37.959 57.4712Z" fill="black"/>
<path d="M61.1484 51.5209L59.2178 53.7123L60.8355 54.5473L64.0706 55.4344L65.4795 59.1392L68.0363 62.6353L72.576 61.0699L72.8891 59.1392L72.1585 53.0863V49.4336L61.1484 51.5209Z" fill="black"/>
<path d="M69.0272 62.3354C69.4349 65.6876 69.6413 68.3763 67.6744 69.9498C65.7075 71.5234 59.5457 70.8598 57.2509 70.9691" stroke="black" stroke-width="2"/>
<path d="M71.65 61.9253C71.8685 63.6191 72.0598 67.5313 71.0762 69.6294C69.8468 72.2521 67.0602 73.2356 65.0932 73.5634C63.5196 73.8257 58.919 73.6727 56.8154 73.5634" stroke="black" stroke-width="2"/>
<path d="M53.3382 73.0754C49.0421 72.741 42.287 71.5682 41.5775 70.8808C39.7768 69.1364 39.1805 66.8214 38.8203 65.5352" stroke="black" stroke-width="2"/>
<path d="M53.7763 70.6445C51.5629 70.532 45.6784 69.7975 44.418 69.3473C43.1576 68.8971 42.4767 67.0211 42.1016 66.2896" stroke="black" stroke-width="2"/>
<path d="M29.2617 64.5269C29.2617 65.471 28.6603 66.3439 27.674 66.3814C26.6877 66.419 25.8428 65.471 25.8428 64.5269C25.8428 63.5828 26.6746 62.8582 27.5522 62.8174C28.4299 62.7766 29.2617 63.5828 29.2617 64.5269Z" fill="black"/>
<path d="M56.4218 59.6285C56.7308 60.4589 56.4876 61.4236 55.6323 61.7794C54.7771 62.1353 53.7236 61.578 53.4146 60.7476C53.1055 59.9172 53.6 59.0076 54.3586 58.6844C55.1172 58.3612 56.1128 58.798 56.4218 59.6285Z" fill="black"/>
<path d="M54.6288 54.4024C54.9379 55.2328 54.6946 56.1975 53.8394 56.5534C52.9841 56.9092 51.9306 56.352 51.6216 55.5215C51.3125 54.6911 51.8071 53.7815 52.5656 53.4583C53.3242 53.1351 54.3198 53.572 54.6288 54.4024Z" fill="black"/>
<path d="M36.2884 22.7969C28.681 25.2803 24.7956 29.7442 21.3136 37.2751C16.9611 46.6888 19.5852 55.3808 21.3137 61.7482C21.6831 63.1089 22.3253 68.8582 25.4069 69.5393" stroke="black" stroke-width="2"/>
<path d="M28.0625 70.998C28.8216 71.0465 30.4076 71.0272 30.679 70.562" stroke="black" stroke-width="2"/>
<path d="M55.3418 66.783L57.1831 66.2983" stroke="black" stroke-width="2"/>
<path d="M40.6685 69.7576L39.2959 65.583L42.1478 66.2433L43.7564 68.7914L48.4485 70.1349L54.0542 70.5519L53.4206 73.0743L43.7564 71.8162L40.6685 69.7576Z" fill="black"/>
<path d="M64.4786 70.7833H57.4367L56.5527 73.5418L62.9631 74.0142L67.8889 72.9345L71.1953 70.2353L71.7351 64.0275L71.1953 62.1382L69.171 62.543L68.6018 69.2081L64.4786 70.7833Z" fill="black"/>
<path d="M77.9428 34.6754C79.529 34.4715 80.5747 34.6353 81.0246 35.6044C81.4746 36.5734 81.6818 39.4793 81.8177 41.3829C81.9674 43.4779 81.5204 46.6866 78.8945 47.5466C76.5996 48.2982 73.6931 48.7929 73.1162 48.9515" stroke="black" stroke-width="2"/>
</svg>
