<svg width="100" height="100" viewBox="0 0 100 100" fill="none" xmlns="http://www.w3.org/2000/svg">
<path d="M20.236 43.5632L21.0629 44.1255V44.1255L20.236 43.5632ZM58.8064 38.9766C58.2562 38.9281 57.771 39.3349 57.7225 39.885C57.6741 40.4352 58.0808 40.9204 58.631 40.9689L58.8064 38.9766ZM32.2922 36.2289C30.7077 36.5329 28.198 37.2214 25.7512 38.3112C23.3342 39.3877 20.8213 40.924 19.4091 43.0009L21.0629 44.1255C22.1548 42.5197 24.2452 41.1714 26.5649 40.1382C28.8548 39.1183 31.2154 38.472 32.6691 38.193L32.2922 36.2289ZM19.4091 43.0009C18.5151 44.3155 17.9133 46.1788 17.4981 48.1566C17.078 50.1576 16.829 52.3776 16.6948 54.478C16.5604 56.5812 16.5399 58.5851 16.5823 60.1616C16.6036 60.9495 16.6408 61.6379 16.6885 62.1832C16.7331 62.6935 16.7936 63.1694 16.8879 63.4711L18.7968 62.8745C18.797 62.8751 18.7953 62.8695 18.792 62.8561C18.7888 62.8431 18.7847 62.8253 18.78 62.802C18.7705 62.755 18.7598 62.6932 18.7484 62.6154C18.7256 62.4593 18.7025 62.2566 18.6809 62.0089C18.6376 61.5142 18.6021 60.8677 18.5816 60.1077C18.5407 58.5886 18.5604 56.6453 18.6907 54.6056C18.8212 52.5632 19.0613 50.4446 19.4554 48.5675C19.8544 46.667 20.3918 45.1125 21.0629 44.1255L19.4091 43.0009ZM16.8879 63.4711C17.0848 64.1011 17.3193 65.1475 17.9028 66.0838C18.5287 67.0882 19.5274 67.9626 21.1999 68.5375L21.85 66.6462C20.5765 66.2084 19.964 65.6098 19.6002 65.026C19.194 64.3743 19.0603 63.7175 18.7968 62.8745L16.8879 63.4711ZM21.1999 68.5375C24.229 69.5788 28.3557 70.4193 34.3244 71.5213L34.6875 69.5545C28.6879 68.4469 24.713 67.6303 21.85 66.6462L21.1999 68.5375ZM34.3244 71.5213C37.2977 72.0702 43.969 73.5374 50.2118 74.876C53.325 75.5435 56.3267 76.1779 58.69 76.6456C59.871 76.8794 60.8992 77.0729 61.7053 77.2083C62.4778 77.3381 63.1307 77.43 63.506 77.43V75.43C63.3289 75.43 62.8482 75.3723 62.0366 75.2359C61.2586 75.1052 60.2521 74.916 59.0783 74.6837C56.7319 74.2193 53.7437 73.5878 50.6311 72.9204C44.4223 71.5892 37.6983 70.1103 34.6875 69.5545L34.3244 71.5213ZM63.506 77.43C64.8117 77.43 66.8053 76.8591 68.7752 76.1103C70.7879 75.3453 72.9373 74.331 74.6078 73.3287L73.5788 71.6137C72.0271 72.5448 69.9876 73.5099 68.0646 74.2408C66.0988 74.9881 64.4099 75.43 63.506 75.43V77.43ZM74.6078 73.3287C76.1827 72.3838 77.8693 71.4323 79.2233 70.5139C79.9068 70.0503 80.5401 69.5729 81.0601 69.0802C81.5734 68.5939 82.028 68.045 82.288 67.4275L80.4447 66.6514C80.3365 66.9085 80.1006 67.2342 79.6846 67.6283C79.2754 68.016 78.7406 68.4246 78.1007 68.8587C76.8078 69.7356 75.2262 70.6253 73.5788 71.6137L74.6078 73.3287ZM82.288 67.4275C82.4352 67.078 82.5467 66.5129 82.6394 65.9037C82.7383 65.2542 82.8319 64.4341 82.9122 63.4986C83.073 61.6263 83.1836 59.2572 83.1719 56.8041C83.1603 54.3544 83.0267 51.7969 82.692 49.5564C82.3638 47.3591 81.8215 45.308 80.8935 43.9979L79.2614 45.1539C79.8986 46.0534 80.392 47.6963 80.7139 49.8519C81.0295 51.9642 81.1605 54.4185 81.1719 56.8136C81.1833 59.2054 81.0752 61.5143 80.9195 63.3275C80.8416 64.2346 80.7525 65.0091 80.6622 65.6028C80.5657 66.2368 80.4817 66.5636 80.4447 66.6514L82.288 67.4275ZM80.8935 43.9979C77.4358 39.1164 71.5298 39.1503 68.63 38.9746L68.509 40.9709C71.6854 41.1634 76.4588 41.1973 79.2614 45.1539L80.8935 43.9979ZM68.63 38.9746C67.0463 38.8786 65.519 38.9707 63.9624 39.0366C62.3915 39.1032 60.7403 39.1468 58.8064 38.9766L58.631 40.9689C60.697 41.1508 62.4521 41.1024 64.0471 41.0348C65.6564 40.9667 67.0546 40.8827 68.509 40.9709L68.63 38.9746Z" fill="black"/>
<path d="M25.6265 68.5182C24.9054 65.0624 24.1197 56.5993 26.7452 50.3937C30.027 42.6368 32.9358 39.9517 33.2341 37.2666C33.5325 34.5815 32.6375 33.6866 33.98 29.8081C35.3226 25.9296 44.1237 23.1699 47.4055 23.6174C50.6873 24.0649 54.7895 23.5427 58.1459 29.435C61.5023 35.3273 56.1321 43.8301 54.5658 47.1119C52.9995 50.3937 49.8668 60.612 50.3889 66.2805C50.8066 70.8154 51.2591 73.2419 51.4332 73.8883" stroke="black" stroke-width="2"/>
<path d="M45.9888 72.9188C45.4418 70.731 44.676 64.7143 45.9888 58.1507C47.6297 49.9462 50.3147 44.8743 52.1793 41.4434C54.044 38.0124 55.834 32.4186 52.1793 29.0622C48.5246 25.7058 40.3201 29.5095 39.4251 30.2553C38.5301 31.0012 37.5866 32.6603 38.0295 35.5391C38.6084 39.3017 35.2483 43.8302 33.9057 45.7694C32.5632 47.7087 28.7735 57.0319 29.6685 62.7005C30.3845 67.2353 30.8618 69.5127 31.011 70.0845" stroke="black" stroke-width="2"/>
<path d="M38.2861 37.4917C39.4746 37.6343 42.4504 38.0051 44.8461 38.3473C47.8407 38.7751 50.4076 39.3455 53.331 39.0603" stroke="black" stroke-width="2"/>
<path d="M19.4959 44.9897C20.7777 42.1128 23.6842 41.3708 26.7783 40.8617C29.8723 40.3526 31.4944 40.6495 31.9187 40.8617" stroke="black" stroke-width="2"/>
<path d="M37.0977 41.5215C38.8307 41.9922 42.7332 42.9207 44.479 42.8694C46.2249 42.818 49.8706 43.0619 51.4752 43.1903" stroke="black" stroke-width="2"/>
<path d="M57.124 43.4473C59.5631 43.5114 64.8519 43.7552 66.495 44.2174C68.1382 44.6796 69.3192 45.223 69.7043 45.437" stroke="black" stroke-width="2"/>
<path d="M79.6481 44.0196C76.5236 40.613 72.8954 41.2781 69.9773 45.1897C65.958 50.5775 64.7442 61.3163 64.7441 66.551C64.7441 72.3548 62.127 77.6829 68.7872 75.0188" stroke="black" stroke-width="2"/>
<path d="M45.4211 38.2596C44.8047 37.1537 44.8966 34.0706 47.1593 32.1993C49.422 30.3281 51.6945 29.7197 52.9274 29.4478" stroke="black" stroke-width="2"/>
<path d="M58.166 28.8013C59.8831 28.8012 63.8481 29.3319 65.971 31.4549C68.0939 33.5779 67.7401 38.1673 67.2978 40.1966" stroke="black" stroke-width="2"/>
<path d="M65.1391 40.025C65.6215 38.0955 65.8658 35.7064 65.1391 34.0917C64.2308 32.0733 60.9653 30.7632 59.3506 30.7632" stroke="black" stroke-width="2"/>
<path d="M48.1112 38.8677C48.0146 38.6265 46.6978 36.7161 47.3248 34.3523C47.8264 32.4614 51.4556 31.2943 53.3207 31.0049" stroke="black" stroke-width="2"/>
<path d="M45.5845 33.8518L45.1504 38.0638L47.582 38.3245L47.3215 36.9783V34.8072L49.84 32.4189L53.5743 31.1163L52.7059 29.8569L49.4058 30.2478L45.5845 33.8518Z" fill="black"/>
<path d="M62.8713 29.6787L58.0869 29.0806L59.0016 30.8748H60.7605L64.5599 32.7393L65.8615 36.8905V39.7048L67.5501 39.4234V34.3224L65.8615 31.3321L62.8713 29.6787Z" fill="black"/>
<path fill-rule="evenodd" clip-rule="evenodd" d="M64.2498 71.8711C64.0679 72.2955 64.7803 74.6751 65.1593 75.8119L69.8575 74.6752L80.1639 69.1431L81.7553 66.9454L82.4374 59.5945V51.789L81.3006 45.8779L78.8756 43.453L76.0717 42.0132L73.1919 42.4677L69.3271 45.8779L66.1442 53.9109L65.1593 63.5352C64.9319 66.137 64.4316 71.4468 64.2498 71.8711ZM72.9661 46.5692C73.4559 46.8243 73.6462 47.4282 73.3911 47.918C72.8134 49.0271 71.521 51.9728 71.0232 54.7384C70.9254 55.282 70.4055 55.6433 69.8619 55.5455C69.3184 55.4476 68.957 54.9277 69.0549 54.3841C69.6011 51.3493 70.9865 48.205 71.6172 46.9941C71.8724 46.5043 72.4763 46.314 72.9661 46.5692ZM69.5887 61.2854C69.7067 60.7459 69.3649 60.2129 68.8254 60.0949C68.2859 59.9769 67.7528 60.3186 67.6348 60.8581C67.5658 61.1738 67.4663 61.6775 67.3891 62.1771C67.3178 62.6383 67.2445 63.2202 67.2783 63.6257C67.3241 64.1761 67.8075 64.5851 68.3579 64.5393C68.9082 64.4934 69.3172 64.0101 69.2714 63.4597C69.2603 63.3262 69.2899 62.9723 69.3656 62.4825C69.4353 62.0311 69.5267 61.5688 69.5887 61.2854Z" fill="black"/>
</svg>
