<svg width="100" height="100" viewBox="0 0 100 100" fill="none" xmlns="http://www.w3.org/2000/svg">
<path d="M69.8814 72.3895C69.5719 71.3386 56.6101 34.0022 55.3956 32.4258C54.1812 30.8495 50.1605 30.8092 42.5648 32.304C36.4882 33.4999 28.9423 38.9877 29.2594 41.132C29.5765 43.2762 42.6948 80.9635 42.6948 80.9635" stroke="black" stroke-width="2" stroke-linecap="round"/>
<path d="M56.0013 71.8706C49.7272 73.2482 44.757 77.6085 42.9438 80.178C41.136 84.379 54.0065 82.7066 56.5229 81.9893C62.409 80.3115 70.0456 76.7948 70.0054 73.3154C69.9653 69.836 65.6478 69.7526 56.0013 71.8706Z" stroke="black" stroke-width="2" stroke-linecap="round"/>
<path d="M44.3936 78.6938C47.0939 79.1497 53.4841 78.8866 59.3323 76.3308C64.1549 74.2232 66.6433 71.6377 66.757 71.1318" stroke="black" stroke-width="2" stroke-linecap="round"/>
<path d="M49.7766 74.1401L44.6322 78.4245L51.4887 78.5367L59.3319 76.5884L65.9043 72.5738L66.5115 70.8056L57.5776 71.4215L49.7766 74.1401Z" fill="black"/>
<path d="M47.7321 46.2607C43.7801 47.2798 38.5551 50.5526 38.15 51.1654C37.7448 51.7781 41.7174 62.288 41.9651 62.6651C42.2747 63.1366 45.4426 59.8744 51.1139 58.141C56.7853 56.4077 59.0378 56.8857 59.6219 56.583C60.206 56.2804 56.5317 47.1375 56.1236 46.4338C55.7154 45.7301 52.6722 44.9868 47.7321 46.2607Z" stroke="black" stroke-width="2" stroke-linecap="round"/>
<path d="M32.9879 36.6287C32.4988 35.6791 31.6945 33.8441 31.9137 33.1819C32.3914 31.7387 37.8906 28.6194 42.381 27.9216C46.8714 27.2238 49.0142 27.8024 49.4405 28.0958C49.7816 28.3306 50.3874 30.0227 50.6476 30.8394" stroke="black" stroke-width="2" stroke-linecap="round"/>
<path d="M35.5128 30.3037C34.8696 28.1532 33.4319 24.347 33.1115 22.9782C32.3104 19.5553 40.5907 17.3655 41.8068 19.683C42.7468 21.4743 44.6953 25.3601 45.2952 27.6209" stroke="black" stroke-width="2" stroke-linecap="round"/>
<ellipse cx="40.4679" cy="23.4202" rx="1.707" ry="1.30055" transform="rotate(-113.518 40.4679 23.4202)" fill="black"/>
<path d="M53.4209 25.3457H54.1409" stroke="black" stroke-width="2" stroke-linecap="round"/>
<path d="M48.5347 23.0228L54.5335 21.8564" stroke="black" stroke-width="2" stroke-linecap="round"/>
<path d="M57.8755 20.936L58.9105 20.666" stroke="black" stroke-width="2" stroke-linecap="round"/>
<path d="M46.3594 20.2654L53.1575 15.7085" stroke="black" stroke-width="2" stroke-linecap="round"/>
<path d="M31.8936 32.8919L33.0187 36.5391L41.0503 32.8919L50.5564 30.9132L49.47 28.003L47.918 27.6538L42.0979 28.003L35.9674 30.0983L31.8936 32.8919Z" fill="black"/>
<path fill-rule="evenodd" clip-rule="evenodd" d="M47.7322 46.2605C43.7802 47.2796 38.5552 50.5524 38.1501 51.1652C37.7449 51.7779 41.7174 62.2878 41.9652 62.6649C42.0787 62.8378 42.5766 62.5086 43.4415 61.9368C44.9349 60.9494 47.5225 59.2385 51.114 58.1408C55.0579 56.9355 57.3485 56.7995 58.5744 56.7267C59.1114 56.6948 59.4441 56.675 59.622 56.5828C60.2061 56.2802 56.5318 47.1373 56.1237 46.4336C55.7155 45.7299 52.6723 44.9866 47.7322 46.2605ZM47.1005 49.9959C47.2751 50.5198 46.9919 51.0862 46.468 51.2608C46.0923 51.386 45.3873 51.7425 44.5917 52.1882C43.8232 52.6187 43.0506 53.0862 42.5771 53.3833C42.1093 53.6768 41.4921 53.5355 41.1986 53.0677C40.905 52.5999 41.0463 51.9827 41.5141 51.6891C42.0102 51.3779 42.8116 50.893 43.6143 50.4433C44.3898 50.0089 45.2532 49.5575 45.8356 49.3634C46.3595 49.1888 46.9258 49.4719 47.1005 49.9959ZM50.8057 49.7675C51.3439 49.6435 51.6797 49.1066 51.5557 48.5685C51.4316 48.0303 50.8948 47.6945 50.3566 47.8185L49.8375 47.9382C49.2993 48.0622 48.9635 48.599 49.0875 49.1372C49.2116 49.6754 49.7484 50.0111 50.2865 49.8871L50.8057 49.7675Z" fill="black"/>
</svg>
