<svg width="100" height="100" viewBox="0 0 100 100" fill="none" xmlns="http://www.w3.org/2000/svg">
<path d="M19.8625 52.0486C18.2677 63.8108 27.2225 65.078 31.1189 62.6559C27.3278 66.7629 32.4951 77.7629 41.4092 73.9426C49.2309 70.5904 48.5822 61.1755 48.5822 49.6123C56.1171 56.0598 66.5573 64.8863 72.8651 58.3115" stroke="black" stroke-width="2" stroke-linecap="round" stroke-linejoin="round"/>
<path d="M69.3701 77.3648C71.4322 78.5774 73.804 75.7213 71.4322 74.3212C69.4676 73.1614 54.7503 60.8947 49.0139 49.1318C48.512 49.4603 48.4894 49.7969 48.0647 49.7969C50.1304 58.5992 62.2517 73.1791 69.3701 77.3648Z" fill="black"/>
<path d="M49.5954 19.2061C56.967 21.9444 53.8077 32.0534 49.5954 42.0576C54.0183 33.5271 62.3377 27.841 68.0244 28.368C73.711 28.8951 75.7119 40.5839 68.6562 43.006C73.3951 43.3219 78.134 49.1139 73.8163 57.012C69.4987 64.9102 54.4395 55.0111 48.3316 49.1139C48.8582 53.4315 48.6476 72.3871 40.3282 74.1773C32.0088 75.9676 28.0071 65.8579 31.7982 61.7509C27.9018 64.173 20.8461 62.804 19.793 54.274C18.7399 45.744 31.7982 44.4803 42.4344 45.8493C37.1689 44.375 24.3213 39.5308 24.1106 33.4229C23.9 27.315 30.9557 23.4185 37.5902 27.841C36.4318 21.6278 42.2237 16.4677 49.5954 19.2061Z" stroke="black" stroke-width="2" stroke-linecap="round" stroke-linejoin="round"/>
<path d="M38.2877 53.8658C39.3675 51.922 42.3372 49.9964 43.687 49.2765" stroke="black" stroke-width="2" stroke-linecap="round" stroke-linejoin="round"/>
<path d="M49.9778 45.5176C53.6172 44.8448 56.0699 46.4271 61.0543 44.9634" stroke="black" stroke-width="2" stroke-linecap="round" stroke-linejoin="round"/>
<path d="M45.1726 42.6548C43.1263 39.9141 41.6463 36.4376 40.0642 34.3503" stroke="black" stroke-width="2" stroke-linecap="round" stroke-linejoin="round"/>
</svg>
