<svg width="100" height="100" viewBox="0 0 100 100" fill="none" xmlns="http://www.w3.org/2000/svg">
<path d="M16.7236 81.2471H41.0627V72.1117H61.9791V63.3916H83.2758" stroke="black" stroke-width="2" stroke-linecap="round"/>
<path d="M45.1299 44.3185C45.1299 46.7534 49.1878 51.2172 49.5936 52.8405C49.9994 54.4637 49.9994 59.1253 49.5936 62.7775C49.1878 66.4298 45.5355 66.024 43.5065 65.2124C41.4775 64.4008 41.8833 58.9276 41.8833 56.4927C41.8833 54.5449 41.0716 53.7873 40.6658 53.6521C40.6658 54.599 40.5847 56.9797 40.26 58.9276C39.8542 61.3624 37.4194 71.9134 35.3904 73.5366C33.3613 75.1598 30.9265 73.9424 29.7091 71.9134C28.4917 69.8843 33.3614 60.145 32.144 53.6521C31.6953 51.2589 33.3614 43.1011 33.3614 41.4779C33.3614 39.8547 28.6541 49.0259 27.6801 49.9998C26.4627 51.2172 25.2453 52.0289 23.6221 49.9998C21.9989 47.9708 27.2741 38.6373 28.4916 36.6082C29.7091 34.5792 34.1729 31.3327 36.6077 29.3037C41.8833 30.1153 41.4775 30.1153 42.6951 33.3618C42.9801 34.1217 43.6876 37.2097 45.5355 37.8256C49.188 39.0431 52.4345 38.6373 52.4345 41.8837C52.4345 44.4809 49.0525 44.7243 47.9704 44.7243L45.1299 44.3185ZM45.1299 44.3185C42.6951 43.9127 42.6951 43.1011 40.6658 41.4779" stroke="black" stroke-width="2" stroke-linecap="round"/>
<path d="M38.4256 18.7529C34.3604 18.7529 33.7676 23.3954 33.7676 25.0835C33.7676 26.7717 35.0377 29.3039 38.8489 29.3039C42.66 29.3039 43.5069 25.5055 43.5069 24.6615V24.6613C43.5069 23.8169 43.5069 18.7529 38.4256 18.7529Z" stroke="black" stroke-width="2"/>
</svg>
