<svg width="100" height="100" viewBox="0 0 100 100" fill="none" xmlns="http://www.w3.org/2000/svg">
<path d="M78.4915 64.034C78.4915 64.034 80.5214 63.981 81.5814 65.275C82.6414 66.569 82.7314 69.21 82.7314 69.21L51.7914 69.41L16.6514 69.637C16.6514 69.637 17.3714 64.141 19.5714 64.143C19.5714 64.143 37.6926 63.9906 44.6926 64.034C62.1926 64.143 78.4915 64.034 78.4915 64.034Z" stroke="black" stroke-width="2" stroke-miterlimit="10" stroke-linecap="round" stroke-linejoin="round"/>
<path d="M16.0918 45.2951C15.5218 45.1851 17.713 39.5316 19.693 35.7136C21.673 31.8966 22.6517 30.3191 24.0117 30.0241C25.3817 29.7291 32.903 32.1659 49.193 36.2139C63.563 39.7869 78.9518 43.9871 78.9518 43.9871C78.9518 43.9871 80.9218 44.4561 81.8218 45.2321C82.7218 46.0081 82.9018 49.2621 82.9018 49.2621C82.9018 49.2621 84.0818 59.1401 82.3218 58.7851C69.8618 56.2741 32.6118 48.4681 16.0918 45.2951Z" stroke="black" stroke-width="2" stroke-miterlimit="10" stroke-linecap="round" stroke-linejoin="round"/>
<path d="M68.8718 56.3604C68.8718 56.3604 68.7618 58.6794 67.0918 60.6114C65.6218 62.3074 64.2118 64.0143 64.2118 64.0143L78.1718 64.0093L78.3018 58.1454" stroke="black" stroke-width="2" stroke-miterlimit="10" stroke-linecap="round" stroke-linejoin="round"/>
<path d="M71.332 50.4269C71.332 48.8449 72.892 46.9498 74.442 47.2738C76.352 47.6738 77.072 48.8449 77.072 50.4269C77.072 52.0099 76.0721 52.9108 74.4821 52.9108C72.9021 52.9108 71.332 52.0099 71.332 50.4269Z" stroke="black" stroke-width="2" stroke-miterlimit="10" stroke-linejoin="round"/>
<path d="M21.9616 46.574C21.9616 46.574 21.3315 54.604 21.7615 54.866C23.3015 55.801 70.0315 56.29 70.0315 56.29L21.9616 46.574Z" fill="black" stroke="black" stroke-width="2" stroke-miterlimit="10" stroke-linecap="round" stroke-linejoin="round"/>
</svg>
