<svg width="100" height="100" viewBox="0 0 100 100" fill="none" xmlns="http://www.w3.org/2000/svg">
<g opacity="0.967308">
<path d="M70.8833 23.9741C59.0733 12.6761 36.7432 22.098 28.7332 37.48C20.7332 52.863 19.9832 62.6171 21.8532 68.9951C23.7332 75.3731 36.0233 80.8971 42.1133 71.2461C43.6133 68.8701 48.3933 62.2261 54.9933 56.6141C62.7333 50.0461 91.1833 43.4001 70.8833 23.9741Z" stroke="black" stroke-width="2" stroke-miterlimit="10" stroke-linecap="round" stroke-linejoin="round"/>
<path d="M27.4731 66.2306C27.4731 64.2476 29.2031 62.6406 31.3431 62.6406C33.4831 62.6406 35.2131 64.2476 35.2131 66.2306C35.2131 68.2136 33.4831 69.8206 31.3431 69.8206C29.2031 69.8206 27.4731 68.2136 27.4731 66.2306Z" stroke="black" stroke-width="2" stroke-miterlimit="10" stroke-linejoin="round"/>
<path d="M22.0132 69.4543C22.0132 69.4543 25.4632 78.0164 33.7832 80.6154C35.9332 81.2884 42.2132 82.1784 45.3832 77.2464C51.5332 67.6984 56.7332 63.7463 59.1232 62.1093C61.2732 60.6383 68.0731 57.8133 71.9631 54.2123C72.6331 53.5893 74.8432 51.8644 76.4932 48.6414C78.1632 45.3824 79.2731 40.5924 77.6731 33.8604" stroke="black" stroke-width="2" stroke-miterlimit="10" stroke-linecap="round" stroke-linejoin="round"/>
<path d="M27.9331 67.5428C27.9331 67.5428 28.6132 64.7438 30.3932 64.0968C32.1632 63.4498 34.3531 64.2288 34.3531 64.2288" stroke="black" stroke-width="2" stroke-miterlimit="10" stroke-linecap="round" stroke-linejoin="round"/>
<path d="M50.2231 28.2783L66.9032 38.8923" stroke="black" stroke-width="2" stroke-miterlimit="10" stroke-linecap="round" stroke-linejoin="round"/>
<path d="M39.2133 32.5881L51.6033 40.3401L61.2233 46.3521" stroke="black" stroke-width="2" stroke-miterlimit="10" stroke-linecap="round" stroke-linejoin="round"/>
<path d="M34.333 42.4951L50.603 52.7671" stroke="black" stroke-width="2" stroke-miterlimit="10" stroke-linecap="round" stroke-linejoin="round"/>
<path d="M30.0233 52.073L40.7133 58.283" stroke="black" stroke-width="2" stroke-miterlimit="10" stroke-linecap="round" stroke-linejoin="round"/>
<path d="M45.6035 76.9456C49.7935 70.5136 52.2835 69.4197 60.3835 65.1967C68.4935 60.9737 75.6235 53.7616 77.6135 45.9316" stroke="black" stroke-width="2" stroke-miterlimit="10" stroke-linecap="round" stroke-linejoin="round"/>
<path d="M68.0532 60.612C68.3232 60.048 72.7532 56.553 71.9832 55.71C71.2732 54.944 67.3732 57.448 66.5932 57.943C62.6532 60.44 58.1732 62.045 54.6932 65.249C54.2432 65.656 51.5833 68.898 53.0133 69.191C53.6633 69.325 57.1333 67.41 57.6433 67.013C59.0233 65.939 61.0232 64.823 62.6932 64.233C64.9432 63.443 65.4932 62.489 67.3432 61.055L68.0532 60.612Z" fill="black"/>
<path d="M62.2832 26.1465L66.3932 28.6875L69.1432 30.3935" stroke="black" stroke-width="2" stroke-miterlimit="10" stroke-linecap="round" stroke-linejoin="round"/>
</g>
</svg>
