<svg width="100" height="100" viewBox="0 0 100 100" fill="none" xmlns="http://www.w3.org/2000/svg">
<path d="M23.3288 30.8662C23.3288 30.8662 16.7588 43.4862 22.0788 47.9562C27.3988 52.4362 30.6589 51.0663 29.2689 54.7963C27.8689 58.5263 23.3488 72.3362 33.3188 78.6262C42.3588 84.3162 57.3589 81.6363 61.3689 72.8063C64.8789 65.0863 62.5888 56.8762 63.4588 52.7062C64.5388 47.4962 67.4789 45.3962 67.4789 45.3962L64.7389 43.1662C64.7389 43.1662 60.9088 47.0162 60.3288 52.8662C59.7388 58.7162 61.6888 70.1263 55.9588 74.4363C50.2288 78.7463 40.0488 79.1162 34.9288 75.5762C30.3388 72.4062 29.4989 67.5862 30.8589 60.7462C31.7689 56.2062 33.5288 53.5962 36.0288 54.3862C38.5288 55.1762 48.7789 55.1462 51.3889 49.5762C54.1989 43.5962 53.7888 41.7762 53.7888 41.7762L50.9789 41.3662C50.9789 41.3662 50.4488 45.9962 47.4488 48.8762C44.4388 51.7662 39.8488 52.8662 32.6988 49.7062C25.5488 46.5462 23.8089 44.9462 24.1189 41.1762C24.4289 37.4062 26.5488 32.5262 26.5488 32.5262C26.5488 32.5262 25.7089 32.3162 24.8589 32.0262C24.0089 31.7362 23.3288 30.8662 23.3288 30.8662Z" stroke="black" stroke-width="2" stroke-miterlimit="10" stroke-linejoin="round"/>
<path d="M64.8389 42.936C62.2089 39.836 61.489 35.106 64.749 31.226C67.999 27.349 72.2789 26.618 75.5889 28.406C79.1189 30.316 81.529 34.696 80.509 39.016C79.619 42.816 75.6189 45.546 72.6489 45.826C69.7489 46.096 66.5389 44.946 64.8389 42.936Z" stroke="black" stroke-width="2" stroke-miterlimit="10" stroke-linejoin="round"/>
<path d="M68.8389 40.1355C67.6189 39.1755 66.389 36.2054 68.629 33.9954C70.859 31.7854 73.7989 32.2455 75.0989 34.3455C76.3889 36.4455 76.1889 37.8754 75.2989 39.2954C73.7989 41.6754 70.8889 41.7455 68.8389 40.1355Z" fill="black" stroke="black" stroke-width="2" stroke-miterlimit="10" stroke-linejoin="round"/>
<path d="M55.1788 41.056C56.4788 39.286 56.6289 35.706 55.6289 30.326C54.3389 23.414 53.3188 23.245 51.6788 23.056C50.0388 22.868 50.2188 25.61 50.5788 29.276C51.1588 35.026 50.1789 37.046 50.3489 39.576C50.5089 42.106 54.4888 42.006 55.1788 41.056Z" stroke="black" stroke-width="2" stroke-miterlimit="10" stroke-linejoin="round"/>
<path d="M51.1488 23.0626C51.1488 23.0626 47.5088 19.2436 46.2888 22.2406C45.3488 24.5686 44.9988 27.4616 47.2788 27.9456C48.8088 28.2656 50.2288 26.4527 50.2288 26.4527" stroke="black" stroke-width="2" stroke-miterlimit="10" stroke-linejoin="round"/>
<path d="M23.3389 30.6359C22.7989 29.2759 23.2889 26.9488 28.3489 22.0748C33.4189 17.2008 35.5989 17.7279 37.0589 18.4999C38.5189 19.2729 36.919 20.3159 33.639 23.2189C29.299 27.0399 29.3489 29.4958 27.9389 31.6058C26.9489 33.0758 23.7689 31.7359 23.3389 30.6359Z" stroke="black" stroke-width="2" stroke-miterlimit="10" stroke-linejoin="round"/>
<path d="M37.4689 18.7403C37.4689 18.7403 42.2589 18.1033 42.0189 20.5113C41.7689 23.0103 39.2888 26.2083 36.7988 24.8813C35.4188 24.1473 35.8789 21.4363 35.8789 21.4363" stroke="black" stroke-width="2" stroke-miterlimit="10" stroke-linejoin="round"/>
</svg>
