<svg width="100" height="100" viewBox="0 0 100 100" fill="none" xmlns="http://www.w3.org/2000/svg">
<path d="M47.9986 55.356L44.0381 52.9043V54.476L46.9927 58.3108L49.3188 66.0432V74.9702L49.7588 79.1193L53.4679 80.2509L55.4796 79.748L53.9708 76.6047L53.4679 72.4555L52.9021 65.4146L51.8334 61.1397L47.9986 55.356Z" fill="black"/>
<path d="M33.6669 24.3759C44.2131 17.7712 56.9511 20.5529 62.429 23.3107C67.9068 26.0686 72.8406 30.1363 76.2774 38.3575C81.6763 51.2718 76.8101 66.0543 69.7527 73.1117C62.6953 80.1691 52.5753 81.767 50.0453 79.5033C47.5153 77.2396 51.6432 65.6549 45.3848 56.0675C39.1264 46.4801 26.6094 51.5401 23.0142 45.8143C19.4189 40.0886 20.4842 32.6317 33.6669 24.3759Z" stroke="black" stroke-width="2"/>
<path d="M21.2386 39.6787C21.032 43.9313 22.8404 48.8829 26.4063 52.7284C30.8636 57.5354 47.17 78.7331 50.7534 79.9567" stroke="black" stroke-width="2"/>
<path d="M21.7471 36.8955C20.5873 40.925 21.2587 45.8706 26.5478 47.6085C31.145 49.119 38.5631 49.0771 42.149 50.8897C47.7827 53.7375 50.4088 58.8039 51.4289 60.9463C55.3378 69.1548 49.7055 81.2471 58.7145 79.6408" stroke="black" stroke-width="2"/>
<path d="M26.6229 48.0476C25.5723 45.7888 24.5024 40.3718 29.6959 34.1796C35.842 26.8516 47.031 23.6998 55.8561 26.3789C64.6812 29.0579 71.6939 38.7499 72.9547 45.0535C74.2154 51.3572 72.9915 59.9084 69.4089 65.4615C66.2571 70.3468 57.432 76.5717 52.8618 75.9413" stroke="black" stroke-width="2"/>
<path d="M51.2822 61.0552C55.0173 61.0552 59.3865 59.3417 62.0945 55.7312C64.5716 52.4283 65.3973 49.8135 65.3973 49.8135" stroke="black" stroke-width="2"/>
<path d="M63.2988 49.2001C64.4636 49.1301 66.6549 49.2001 67.7375 51.5279" stroke="black" stroke-width="2" stroke-linecap="round"/>
<path d="M41.33 46.0039C39.3944 46.0039 39.3283 41.4126 39.5061 38.1812C39.5838 36.2819 42.246 36.356 42.5513 39.287C42.8566 42.218 43.4855 46.0039 41.33 46.0039Z" stroke="black" stroke-width="2" stroke-linecap="round"/>
<path d="M54.8185 44.999C52.7686 44.999 52.6985 40.4077 52.8869 37.1763C52.9691 35.277 55.7887 35.3511 56.1121 38.2821C56.4354 41.2131 57.1014 44.999 54.8185 44.999Z" stroke="black" stroke-width="2" stroke-linecap="round"/>
<path d="M42.3723 40.6992L39.4775 40.9625L40.8372 45.3487L42.3723 44.9101V40.6992Z" fill="black"/>
<path d="M56.0852 39.6787L53.1904 39.942L54.5501 44.3282L56.0852 43.8896V39.6787Z" fill="black"/>
</svg>
