<svg width="100" height="100" viewBox="0 0 100 100" fill="none" xmlns="http://www.w3.org/2000/svg">
<path d="M66.1815 16.3583C66.7115 15.5303 68.7915 16.2203 70.8915 17.5793C73.0015 18.9373 74.3415 20.4493 73.8115 21.2763C73.2815 22.1043 71.3715 21.3993 69.2615 20.0413C67.1515 18.6833 65.6415 17.1853 66.1815 16.3583Z" stroke="black" stroke-width="2" stroke-miterlimit="10" stroke-linejoin="round"/>
<path d="M66.0411 16.7893L62.9211 24.9763C62.5011 26.0883 63.2011 27.5603 64.1811 28.2233L64.4812 28.4203C65.4612 29.0833 66.9212 28.5953 67.7312 27.7263L73.621 21.4683" stroke="black" stroke-width="2" stroke-miterlimit="10" stroke-linecap="round" stroke-linejoin="round"/>
<path d="M62.7212 25.0623C62.7212 25.0623 60.8811 25.1293 59.5511 26.1263C58.2111 27.1223 57.5812 28.7582 57.5812 28.7582C57.5812 28.7582 59.2012 31.6822 61.9512 33.2232C64.6912 34.7642 67.5011 35.0002 67.5011 35.0002C67.5011 35.0002 69.3411 32.5942 69.1211 30.8532C68.9011 29.1122 67.8212 27.9612 67.8212 27.9612" stroke="black" stroke-width="2" stroke-miterlimit="10" stroke-linecap="round" stroke-linejoin="round"/>
<path d="M60.4111 32.3027L57.1611 41.5467L63.5111 34.1087" stroke="black" stroke-width="2" stroke-miterlimit="10" stroke-linecap="round" stroke-linejoin="round"/>
<path d="M65.7514 34.9922C65.7514 34.9922 63.4415 43.9002 62.2315 53.7312C61.0315 63.5612 60.9315 74.3142 60.9315 74.3142L42.9915 71.6542C39.3015 71.3252 27.9415 69.5642 18.2015 70.2682C17.7515 70.3012 18.1414 59.3842 18.5314 55.7512C18.5314 55.7512 20.8815 29.2512 22.8315 26.7402C24.5115 24.5702 57.5815 29.1852 57.5815 29.1852" stroke="black" stroke-width="2" stroke-miterlimit="10" stroke-linecap="round" stroke-linejoin="round"/>
<path d="M65.1713 38.7467C65.1713 38.7467 81.8713 36.8407 82.1413 38.7427C82.4013 40.6867 81.5614 49.3917 81.6014 60.2657C81.6514 71.1387 82.3214 82.2357 82.3214 82.2357C79.0814 82.3877 72.9314 83.5987 62.4814 82.7757C52.0014 81.9497 40.2813 82.5737 40.2813 82.5737C40.2813 82.5737 39.3113 75.5257 39.8013 71.3317" stroke="black" stroke-width="2" stroke-miterlimit="10" stroke-linecap="round" stroke-linejoin="round"/>
<path d="M38.2812 57.8109C38.7812 56.7799 40.7313 54.4369 41.9813 55.8079C42.5313 56.4159 41.9513 58.0729 43.1013 58.3159C44.3113 58.5689 45.4013 56.2009 46.7913 56.1849C48.4213 56.1659 47.9213 58.2529 48.9613 58.7569C49.7613 59.1419 51.2613 57.4939 51.9913 57.2399C53.6513 56.6649 52.4113 59.6959 54.9513 59.7159" stroke="black" stroke-width="2" stroke-miterlimit="10" stroke-linecap="round" stroke-linejoin="round"/>
<path d="M27.7617 44.6857C27.8717 43.0797 31.2018 39.7396 32.9518 41.0206C34.5518 42.1946 29.5817 48.4737 31.1417 49.8147C32.0117 50.5587 35.8118 46.2336 38.1118 46.7536C39.3418 47.0306 38.2817 50.1366 39.0317 50.0796C39.7217 50.0266 40.3418 49.4107 40.9818 48.8717C41.5818 48.3607 42.6617 47.4726 43.3717 47.6496C44.6317 47.9646 44.3017 48.8846 44.2917 50.1356C44.2917 50.2016 44.2318 50.3806 44.3618 50.4116C45.4118 50.6476 47.1318 48.4996 49.0818 48.6286C49.7818 48.6746 49.4818 50.0497 50.4318 50.8277C51.3818 51.6047 52.2418 51.4216 52.2418 51.4216" stroke="black" stroke-width="2" stroke-miterlimit="10" stroke-linecap="round" stroke-linejoin="round"/>
<path d="M64.9115 38.7763L67.9316 38.4923C67.9316 38.4923 66.2015 46.9283 65.0515 56.6643C63.8915 66.4003 63.3116 77.4373 63.3116 77.4373L39.7116 75.4313C39.7116 75.4313 39.6315 74.3853 39.6515 73.3633C39.6715 72.3413 39.8015 71.3433 39.8015 71.3433L50.2016 72.6983L60.9316 74.3023C60.9316 74.3023 61.1016 63.7293 62.1016 54.8473C63.1016 45.9663 64.9115 38.7763 64.9115 38.7763Z" fill="black" stroke="black" stroke-width="2" stroke-miterlimit="10" stroke-linecap="round" stroke-linejoin="round"/>
</svg>
