<svg width="100" height="100" viewBox="0 0 100 100" fill="none" xmlns="http://www.w3.org/2000/svg">
<path d="M42.2698 18.3896C41.8301 26.3044 44.2731 28.9387 46.5203 28.7226C50.7869 28.3124 48.5818 20.8806 62.2205 20.8806C71.0407 20.8806 82.2573 29.8015 81.1106 46.2378C79.7915 65.1452 61.3526 76.3153 51.2105 75.3317C35.4332 73.8017 36.3337 65.878 32.1565 66.2444C27.9793 66.6109 27.393 75.4783 27.6862 78.1165" stroke="black" stroke-width="2" stroke-linecap="round"/>
<path d="M51.2105 75.3319C35.4332 73.8019 36.5351 67.753 32.3579 68.1194C28.1807 68.4859 27.3931 75.4784 27.6862 78.1167" stroke="black" stroke-width="2" stroke-linecap="round"/>
<path d="M42.2698 18.3896C41.8301 26.3044 44.1049 27.6539 46.352 27.4378C50.6186 27.0276 48.5818 20.8806 62.2205 20.8806" stroke="black" stroke-width="2" stroke-linecap="round"/>
<path d="M19.4782 77.6037C18.6721 63.0934 23.3623 53.713 32.2297 54.8855C34.7982 55.2251 37.8136 59.129 42.6361 56.7177C46.3004 54.8855 49.0852 43.3799 45.5675 39.2759C42.0499 35.172 33.9886 36.6376 34.0619 18.1699" stroke="black" stroke-width="2" stroke-linecap="round"/>
<path d="M42.6363 56.7177C46.3005 54.8855 47.8385 44.6769 44.3209 40.5729C40.8032 36.469 33.9887 36.6376 34.062 18.1699" stroke="black" stroke-width="2" stroke-linecap="round"/>
<path fill-rule="evenodd" clip-rule="evenodd" d="M64.4741 46.5622C59.9473 47.5205 54.8258 46.87 51.218 46.4117C50.2086 46.2835 49.3176 46.1703 48.5914 46.1117C48.0825 46.0706 47.6548 46.4547 47.5966 46.962C46.6241 55.4407 45.3554 58.6365 37.8553 56.7567C36.884 56.5133 35.9312 56.1803 34.9806 55.8481C31.467 54.6202 27.9837 53.4028 23.709 56.7567C18.6196 60.7498 19.4803 77.3707 19.6125 78.04C19.7447 78.7092 27.5511 79.2859 28.0987 78.7088C28.2313 78.569 28.1973 77.8861 28.1489 76.9148C27.9974 73.8768 27.7053 68.0175 31.9335 67.1303C35.1268 66.4603 36.1423 67.4967 37.6262 69.0111C39.6815 71.1084 42.635 74.1226 53.5165 74.7896C59.3982 75.1502 71.8736 68.472 76.2662 62.2731C79.1236 58.2408 80.7513 54.5097 81.5827 47.2728C81.6543 46.6498 81.132 46.1216 80.5056 46.1525C78.5777 46.2478 76.6325 46.1727 74.6732 46.0972C71.3092 45.9674 67.9039 45.8361 64.4741 46.5622ZM54.8594 68.1035C54.8594 68.833 54.2681 69.4244 53.5385 69.4244C52.809 69.4244 52.2177 68.833 52.2177 68.1035C52.2177 67.374 52.809 66.7826 53.5385 66.7826C54.2681 66.7826 54.8594 67.374 54.8594 68.1035ZM45.4283 65.3986C46.3993 65.3986 47.1864 64.6115 47.1864 63.6405C47.1864 62.6696 46.3993 61.8824 45.4283 61.8824C44.4573 61.8824 43.6702 62.6696 43.6702 63.6405C43.6702 64.6115 44.4573 65.3986 45.4283 65.3986ZM66.4789 62.4685C66.4789 62.9141 66.1177 63.2753 65.6721 63.2753C65.2266 63.2753 64.8653 62.9141 64.8653 62.4685C64.8653 62.0229 65.2266 61.6617 65.6721 61.6617C66.1177 61.6617 66.4789 62.0229 66.4789 62.4685ZM57.8739 61.6617C58.6034 61.6617 59.1948 61.0703 59.1948 60.3408C59.1948 59.6113 58.6034 59.0199 57.8739 59.0199C57.1444 59.0199 56.553 59.6113 56.553 60.3408C56.553 61.0703 57.1444 61.6617 57.8739 61.6617ZM52.2176 55.9107C52.2176 56.3562 51.8564 56.7174 51.4109 56.7174C50.9653 56.7174 50.6041 56.3562 50.6041 55.9107C50.6041 55.4651 50.9653 55.1039 51.4109 55.1039C51.8564 55.1039 52.2176 55.4651 52.2176 55.9107ZM69.7909 57.9223C70.7618 57.9223 71.549 57.1352 71.549 56.1642C71.549 55.1933 70.7618 54.4061 69.7909 54.4061C68.8199 54.4061 68.0328 55.1933 68.0328 56.1642C68.0328 57.1352 68.8199 57.9223 69.7909 57.9223ZM61.8366 51.321C61.8366 52.0505 61.2452 52.6419 60.5157 52.6419C59.7862 52.6419 59.1948 52.0505 59.1948 51.321C59.1948 50.5915 59.7862 50.0001 60.5157 50.0001C61.2452 50.0001 61.8366 50.5915 61.8366 51.321ZM72.3557 49.5001C72.8013 49.5001 73.1625 49.1389 73.1625 48.6934C73.1625 48.2478 72.8013 47.8866 72.3557 47.8866C71.9102 47.8866 71.549 48.2478 71.549 48.6934C71.549 49.1389 71.9102 49.5001 72.3557 49.5001Z" fill="black"/>
</svg>
