<svg width="100" height="100" viewBox="0 0 100 100" fill="none" xmlns="http://www.w3.org/2000/svg">
<path d="M68.8424 56.4297C68.8424 56.4297 69.0195 63.7637 67.5175 65.9827C66.0145 68.2007 63.5894 69.5477 63.5894 69.5477C63.5894 69.5477 62.0824 67.1377 61.6104 65.2407C61.1384 63.3437 61.5735 60.4297 61.5735 60.4297" stroke="black" stroke-width="2" stroke-miterlimit="10" stroke-linecap="round" stroke-linejoin="round"/>
<path d="M70.4624 48.6281C70.4624 48.6281 68.5154 45.4391 65.8974 44.7501C63.2794 44.0621 61.1704 44.6221 61.1704 44.6221C61.1704 44.6221 61.2894 49.6831 62.9964 52.0831C64.7044 54.4821 69.8444 56.1021 69.8444 56.1021" stroke="black" stroke-width="2" stroke-miterlimit="10" stroke-linecap="round" stroke-linejoin="round"/>
<path d="M69.4705 55.6364C69.4705 55.6364 69.5715 50.7404 70.2815 49.1774C70.9905 47.6154 77.2054 46.3774 78.4764 46.5074C79.7484 46.6374 79.8895 51.0534 78.3795 53.5884C76.8695 56.1244 74.5745 56.7124 74.5745 56.7124" stroke="black" stroke-width="2" stroke-miterlimit="10" stroke-linecap="round" stroke-linejoin="round"/>
<path d="M69.6443 56.1117C69.6443 56.1117 73.6733 55.8587 75.4743 57.4977C77.2753 59.1367 78.9563 65.0467 78.9563 65.0467C78.9563 65.0467 76.2333 65.9917 73.9423 65.5107C71.6503 65.0297 68.9863 62.7857 68.9863 62.7857" stroke="black" stroke-width="2" stroke-miterlimit="10" stroke-linecap="round" stroke-linejoin="round"/>
<path d="M68.7603 56.1789C68.7603 56.1789 62.9454 61.3489 59.4424 60.0719C55.9384 58.7949 54.2554 56.1019 54.2554 56.1019C54.2554 56.1019 56.4394 53.1699 58.1434 52.5309C59.8474 51.8909 62.5154 51.7129 62.5154 51.7129" stroke="black" stroke-width="2" stroke-miterlimit="10" stroke-linecap="round" stroke-linejoin="round"/>
<path d="M74.0784 65.4566C74.0784 65.4566 75.9344 68.9736 73.3734 71.2526C68.2674 75.7966 57.5134 73.8105 45.9094 73.8405C39.1804 73.8575 22.9674 74.5446 24.0314 65.1796C24.6774 59.4986 29.0804 55.8305 35.4254 55.9185C42.1774 56.0115 54.4774 56.1096 54.4774 56.1096" stroke="black" stroke-width="2" stroke-miterlimit="10" stroke-linejoin="round"/>
<path d="M26.0293 70.6816C26.0293 70.6816 21.2693 71.1467 21.0123 72.2277C20.7553 73.3087 24.5933 73.8707 26.2743 74.1107C38.0073 75.7927 58.9453 76.8697 69.5303 76.0797C73.2093 75.8057 77.9163 74.6936 76.6983 73.9756C74.5413 72.7036 71.4903 72.7347 71.4903 72.7347C71.4903 72.7347 68.6543 74.2896 66.3963 74.6556C64.1373 75.0216 61.2063 74.8877 61.2063 74.8877C61.2063 74.8877 51.6133 75.2107 43.7693 74.6047C35.9253 73.9997 28.7263 72.7577 28.7263 72.7577" fill="black"/>
<path d="M26.0293 70.6816C26.0293 70.6816 21.2693 71.1467 21.0123 72.2277C20.7553 73.3087 24.5933 73.8707 26.2743 74.1107C38.0073 75.7927 58.9453 76.8697 69.5303 76.0797C73.2093 75.8057 77.9163 74.6936 76.6983 73.9756C74.5413 72.7036 71.4903 72.7347 71.4903 72.7347C71.4903 72.7347 68.6543 74.2896 66.3963 74.6556C64.1373 75.0216 61.2063 74.8877 61.2063 74.8877C61.2063 74.8877 51.6133 75.2107 43.7693 74.6047C35.9253 73.9997 28.7263 72.7577 28.7263 72.7577" stroke="black" stroke-width="2" stroke-miterlimit="10" stroke-linejoin="round"/>
<path d="M54.5234 56.1223C50.6344 56.0393 42.5344 55.8322 39.4074 55.7772C30.4394 55.6212 21.8774 54.8592 21.1474 47.7512C20.5824 42.2452 23.1754 41.8602 28.4934 40.2952C33.0534 38.9522 49.8494 40.3732 54.0414 41.1672C55.4654 41.4362 60.3434 42.8252 61.4024 44.7822" stroke="black" stroke-width="2" stroke-miterlimit="10" stroke-linejoin="round"/>
<path d="M40.4383 29.6181C37.4563 30.0721 33.1073 33.5892 33.8063 36.3742C34.5063 39.1592 36.7903 39.7382 46.7873 40.2602C52.3163 40.5492 60.9653 42.6362 62.6803 39.4812C64.3953 36.3252 61.5783 30.0492 56.9763 29.9252C52.3753 29.8002 45.6753 28.8211 40.4383 29.6181Z" stroke="black" stroke-width="2" stroke-miterlimit="10" stroke-linejoin="round"/>
<path d="M43.6893 29.3713L52.0543 29.4894C52.0543 29.4894 56.2743 27.8333 54.4183 25.3133C52.5623 22.7923 48.5363 22.5744 45.4483 23.5074C42.3603 24.4414 39.3653 29.0823 43.6893 29.3713Z" stroke="black" stroke-width="2" stroke-miterlimit="10" stroke-linejoin="round"/>
</svg>
