<svg width="100" height="100" viewBox="0 0 100 100" fill="none" xmlns="http://www.w3.org/2000/svg">
<path d="M51.3371 14.9902C30.3644 14.9902 14.4209 26.643 14.4209 52.0671C14.4209 69.5462 29.9364 83.8472 48.662 83.8472C75.9478 83.8472 85.5781 63.7198 85.5781 49.9484C85.5781 36.177 77.5529 14.9902 51.3371 14.9902Z" stroke="black" stroke-width="2"/>
<path d="M65.4834 38.8661V58.0922C65.4834 58.6445 65.9311 59.0922 66.4834 59.0922H68.9254C69.4777 59.0922 69.9254 58.6445 69.9254 58.0922V51.4403C69.9254 50.888 70.3731 50.4457 70.9248 50.4212C73.9127 50.2885 77.271 49.3021 76.7646 42.7078C76.3773 37.6653 69.8811 37.2869 66.2511 37.9213C65.7968 38.0007 65.4834 38.4049 65.4834 38.8661Z" stroke="black" stroke-width="2"/>
<path d="M69.4316 41.0133V46.2281C69.4316 46.7803 69.886 47.2201 70.4134 47.0558C71.4573 46.7307 72.816 45.8677 72.816 43.8382C72.816 41.0133 69.4316 40.4483 69.4316 41.0133Z" stroke="black" stroke-width="2"/>
<path d="M54.6489 39.0596C49.3871 39.0596 49.0461 45.9886 49.5333 49.4531C49.6704 52.7353 50.9945 58.7526 56.8409 58.7526C62.6873 58.7526 61.2257 50.5472 61.2257 48.3591V48.3587C61.2257 46.1702 61.2257 39.0596 54.6489 39.0596Z" stroke="black" stroke-width="2"/>
<path d="M35.7871 40.0596V42.4358C35.7871 42.9881 36.2348 43.4358 36.7871 43.4358H38.6101C39.1624 43.4358 39.6101 43.8835 39.6101 44.4358V57.2056C39.6101 57.7579 40.0578 58.2056 40.6101 58.2056H42.4331C42.9854 58.2056 43.4331 57.7579 43.4331 57.2056V44.4358C43.4331 43.8835 43.8808 43.4358 44.4331 43.4358H46.2561C46.8083 43.4358 47.2561 42.9881 47.2561 42.4358V40.0596C47.2561 39.5073 46.8084 39.0596 46.2561 39.0596H36.7871C36.2348 39.0596 35.7871 39.5073 35.7871 40.0596Z" stroke="black" stroke-width="2"/>
<path d="M25.9567 45.076C25.9567 42.5249 27.89 42.433 29.8548 42.6415C30.994 42.7624 31.9643 41.9096 31.9643 40.7639C31.9643 39.7854 31.2419 38.9466 30.2678 38.8539C23.9131 38.2498 21.63 40.1165 22.1338 46.17C22.6328 52.1666 28.6874 48.9052 28.6874 52.7344C28.6874 54.0319 26.8472 54.0097 25.0762 53.7411C23.8281 53.5518 22.6799 54.4595 22.6799 55.7218V56.0186C22.6799 56.9717 23.3515 57.7963 24.2968 57.9188C26.3559 58.1857 29.2003 58.3274 30.872 57.6577C33.6027 56.5636 33.6027 51.0932 31.4181 48.9051C29.6911 47.1752 25.9567 48.3582 25.9567 45.076Z" stroke="black" stroke-width="2"/>
<path d="M55.182 44.5293C53.747 44.5293 53.654 47.6089 53.7869 49.1487C53.8243 50.6074 54.1854 53.2818 55.7799 53.2818C57.3743 53.2818 56.9757 49.6349 56.9757 48.6624V48.6623C56.9757 47.6896 56.9757 44.5293 55.182 44.5293Z" stroke="black" stroke-width="2"/>
</svg>
