<svg width="100" height="100" viewBox="0 0 100 100" fill="none" xmlns="http://www.w3.org/2000/svg">
<path d="M22.501 47.0759L24.448 77.5239H74.335L76.233 46.7539" stroke="black" stroke-width="2" stroke-miterlimit="10" stroke-linecap="round" stroke-linejoin="round"/>
<path d="M63.6107 33.9146C63.6107 35.1166 63.5637 39.6836 64.9117 42.9826C66.2597 46.2826 67.8597 46.7046 69.8247 47.1766C73.5057 48.0596 77.1438 47.2666 78.6898 43.3646C80.2368 39.4616 78.6487 33.1616 78.6487 33.1616C78.6487 33.1616 68.1118 19.9586 64.9528 18.8336C60.5248 17.2556 35.0037 18.0966 32.9557 19.8666C30.2737 22.1846 20.1477 34.5616 20.1477 34.5616C20.1477 34.5616 18.6198 47.5426 25.3928 48.5736C32.1668 49.6046 34.4847 44.8876 35.1857 42.7566C35.6977 41.2006 35.3627 33.8516 35.3627 33.8516" stroke="black" stroke-width="2" stroke-miterlimit="10" stroke-linecap="round" stroke-linejoin="round"/>
<path d="M29.7297 77.0005L28.8877 55.9536L42.4867 55.7585L41.7747 77.0645L29.7297 77.0005Z" fill="black" stroke="black" stroke-width="2" stroke-miterlimit="10" stroke-linecap="round" stroke-linejoin="round"/>
<path d="M46.8319 52.4049C46.5049 55.5599 46.9389 72.1069 46.9389 72.1069C46.9389 72.1069 68.8579 73.2059 69.4829 71.8569C70.9059 68.7869 71.966 53.5899 70.203 52.6809C66.759 50.9039 46.9329 51.4299 46.8319 52.4049Z" stroke="black" stroke-width="2" stroke-miterlimit="10" stroke-linecap="round" stroke-linejoin="round"/>
<path d="M55.1929 63.0446C55.4089 62.7656 55.6589 62.4246 55.9539 62.2266" stroke="black" stroke-width="2" stroke-miterlimit="10" stroke-linecap="round" stroke-linejoin="round"/>
<path d="M51.04 61.4422C52.476 60.4792 53.445 58.7902 54.886 57.8232" stroke="black" stroke-width="2" stroke-miterlimit="10" stroke-linecap="round" stroke-linejoin="round"/>
<path d="M35.4639 41.7435C35.4639 41.7435 36.8109 48.3265 42.2719 48.2145C47.7329 48.1035 49.5748 44.2075 49.4078 41.9785C49.2398 39.7495 49.2609 18.5515 49.2609 18.5515" stroke="black" stroke-width="2" stroke-miterlimit="10" stroke-linecap="round" stroke-linejoin="round"/>
<path d="M49.4976 42.1637C49.4976 42.1637 51.7476 48.1647 57.3206 47.2727C62.8926 46.3807 63.8426 40.9797 63.6746 38.3607C63.5076 35.7417 63.6395 32.6217 63.6395 32.6217C63.6395 32.6217 60.8886 27.4547 59.7756 25.4547C58.6616 23.4547 55.2535 18.0647 55.2535 18.0647" stroke="black" stroke-width="2" stroke-miterlimit="10" stroke-linecap="round" stroke-linejoin="round"/>
<path d="M24.5618 77.5273C24.5618 77.5273 21.6679 79.1334 21.5549 80.6684C21.4419 82.2044 78.0428 80.7233 78.0428 80.7233C78.0428 80.7233 76.5919 77.6433 74.6689 77.5963C72.7449 77.5483 24.5618 77.5273 24.5618 77.5273Z" stroke="black" stroke-width="2" stroke-miterlimit="10" stroke-linecap="round" stroke-linejoin="round"/>
<path d="M35.3657 33.846L41.8828 18.748" stroke="black" stroke-width="2" stroke-miterlimit="10" stroke-linecap="round" stroke-linejoin="round"/>
</svg>
