<svg width="100" height="100" viewBox="0 0 100 100" fill="none" xmlns="http://www.w3.org/2000/svg">
<path d="M29.486 37.2392C18.4378 40.5842 17.2908 44.9671 18.4247 47.4512C23.3025 54.9293 59.2921 47.8594 62.5938 40.7309C65.8956 33.6024 45.0232 32.535 29.486 37.2392Z" stroke="black" stroke-width="2"/>
<path d="M18.5157 47.5564C20.0649 52.0432 23.4693 60.6559 36.0767 62.807C48.6841 64.9582 54.6443 58.9454 57.7385 55.8174C60.5662 52.9589 63.3422 45.292 62.9377 39.3395" stroke="black" stroke-width="2"/>
<path d="M27.3778 55.3935C29.8499 56.3284 37.6065 57.3978 43.8879 56.1878C49.1699 55.1703 54.9843 51.7354 56.1853 50.5283" stroke="black" stroke-width="2" stroke-linecap="round"/>
<path d="M31.9316 54.1176C31.8193 55.3634 33.0698 58.5242 33.6237 59.1579" stroke="black" stroke-width="2" stroke-linecap="round"/>
<path d="M38.3125 53.9596C38.8005 55.5498 38.5876 58.0073 39.8959 59.7075" stroke="black" stroke-width="2" stroke-linecap="round"/>
<path d="M45.4048 52.6396C46.1283 54.872 46.3997 58.8657 46.3997 58.8657" stroke="black" stroke-width="2" stroke-linecap="round"/>
<path d="M51.6104 51.1211C52.2086 52.2624 52.1221 54.705 51.931 55.5617" stroke="black" stroke-width="2" stroke-linecap="round"/>
<path d="M19.5771 42.5369C16.6995 42.7324 13.9043 43.4194 13.3643 44.0838C11.952 45.8213 14.5473 46.164 17.8753 46.2646" stroke="black" stroke-width="2"/>
<path d="M25.2857 46.938C27.4983 45.7389 31.5579 43.0796 38.7237 42.042C46.7699 40.877 52.3393 41.6724 54.7888 42.0303" stroke="black" stroke-width="2" stroke-linecap="round"/>
<path d="M28.4321 41.9352L29.8475 47.6066" stroke="black" stroke-width="2" stroke-linecap="round"/>
<path d="M34.7876 39.9069L36.2447 46.1933" stroke="black" stroke-width="2" stroke-linecap="round"/>
<path d="M48.6997 38.7666L49.079 44.3482" stroke="black" stroke-width="2" stroke-linecap="round"/>
<path d="M41.8711 38.4824L42.8064 45.1105" stroke="black" stroke-width="2" stroke-linecap="round"/>
<path d="M62.4216 37.9614C63.5523 37.0867 64.4875 36.8863 67.6058 35.5721C70.4462 34.3749 80.6461 30.9157 84.2806 32.84C86.2976 33.9079 87.1464 36.4668 81.8875 36.735C76.6286 37.0031 76.1784 36.6496 68.7083 38.3083C64.7851 39.1795 64.4394 39.1288 62.6162 40.952" stroke="black" stroke-width="2"/>
<path d="M69.9506 34.3402C69.7174 34.3578 65.1023 36.4417 62.8239 37.4814L62.9923 40.2344L69.4982 38.4315L78.0032 36.7689L84.2683 36.2957L85.7475 35.7501L85.6353 33.9149L82.7194 32.5082L77.9787 32.3782C75.3998 33.0249 70.1837 34.3226 69.9506 34.3402Z" fill="black"/>
<path d="M53.8105 74.3823C52.3547 73.8759 51.2178 75.0286 51.8327 76.2021C52.4475 77.3757 53.4557 77.2648 54.1375 76.6625C54.8175 76.0617 54.7193 74.6984 53.8105 74.3823Z" fill="black"/>
<path d="M40.0214 74.6746C40.1105 73.5894 39.1212 73.0154 38.4272 73.6433C37.7331 74.2712 37.9871 74.9412 38.5195 75.3012C39.0506 75.6602 39.9657 75.3521 40.0214 74.6746Z" fill="black"/>
<path d="M46.6324 72.6011C46.1299 70.7174 44.0903 70.7561 43.3236 71.821C42.557 72.886 43.3623 74.2745 44.4766 74.5611C45.5882 74.847 46.9461 73.777 46.6324 72.6011Z" fill="black"/>
<path d="M37.9429 67.0313C36.5354 66.5417 35.4362 67.6562 36.0306 68.7908C36.6251 69.9255 37.5999 69.8182 38.259 69.2359C38.9166 68.655 38.8216 67.3369 37.9429 67.0313Z" fill="black"/>
<path d="M48.4626 67.0778C47.2572 67.5816 47.1916 68.9523 48.2435 69.3453C49.2954 69.7383 49.9974 69.2849 50.087 68.5191C50.1765 67.7552 49.215 66.7633 48.4626 67.0778Z" fill="black"/>
<path d="M32.1961 66.3739C32.2912 65.2155 31.2353 64.6029 30.4945 65.2731C29.7536 65.9433 30.0247 66.6584 30.593 67.0426C31.1599 67.4258 32.1367 67.0969 32.1961 66.3739Z" fill="black"/>
<path d="M54.1222 65.5777C53.5812 64.6687 52.4749 64.7721 52.2796 65.66C52.0842 66.548 52.6628 66.9351 53.2869 66.9198C53.9094 66.9046 54.46 66.1451 54.1222 65.5777Z" fill="black"/>
</svg>
