<svg width="100" height="100" viewBox="0 0 100 100" fill="none" xmlns="http://www.w3.org/2000/svg">
<path d="M34.6229 28.6449C34.6229 28.6449 25.5169 29.0659 29.9279 38.7079C31.3679 41.8559 37.0969 44.5389 41.5259 44.4059C47.0539 44.2409 52.72 41.9609 52.72 41.9609C52.72 41.9609 66.891 47.9309 71.444 39.6969C76.211 31.0749 65.53 29.9499 65.53 29.9499C65.53 29.9499 65.6959 25.5969 61.1049 23.6459C56.6419 21.7499 53.5699 25.7879 53.5699 25.7879C53.5699 25.7879 52.1029 16.3589 42.1729 18.2509C34.4349 19.7249 34.6229 28.6449 34.6229 28.6449Z" stroke="black" stroke-width="2" stroke-miterlimit="10" stroke-linecap="round" stroke-linejoin="round"/>
<path d="M52.3086 42.125C52.3086 42.125 55.4196 40.787 55.8376 40.344" stroke="black" stroke-width="2" stroke-miterlimit="10" stroke-linecap="round" stroke-linejoin="round"/>
<path d="M54.4697 41.4202C54.4697 41.4202 60.7417 43.7672 64.2637 43.2282C67.7847 42.6892 70.2427 42.2052 71.7627 39.0742" stroke="black" stroke-width="2" stroke-miterlimit="10" stroke-linecap="round" stroke-linejoin="round"/>
<path d="M66.1887 30.062C64.4437 29.82 62.8047 29.974 61.5947 31.506" stroke="black" stroke-width="2" stroke-miterlimit="10" stroke-linecap="round" stroke-linejoin="round"/>
<path d="M34.3066 28.6529C34.3066 28.6529 38.1017 28.2269 40.2407 30.7629" stroke="black" stroke-width="2" stroke-miterlimit="10" stroke-linecap="round" stroke-linejoin="round"/>
<path d="M30.4088 30.2305C29.5998 31.0275 28.6308 35.0525 30.7708 37.9105C32.9108 40.7685 37.4939 45.3005 44.1659 44.1925" stroke="black" stroke-width="2" stroke-miterlimit="10" stroke-linecap="round" stroke-linejoin="round"/>
<path d="M22 81.8336C22 81.8336 44.539 81.0796 51.201 81.2646C57.863 81.4506 77.491 81.6626 77.491 81.6626" stroke="black" stroke-width="2" stroke-miterlimit="10" stroke-linecap="round" stroke-linejoin="round"/>
<path d="M60.5908 81.2975C61.5538 80.4225 63.3548 79.3235 64.5128 78.8125" stroke="black" stroke-width="2" stroke-miterlimit="10" stroke-linecap="round" stroke-linejoin="round"/>
<path d="M26.8418 81.5128C27.5718 79.6278 28.6859 79.4108 30.3839 78.4238" stroke="black" stroke-width="2" stroke-miterlimit="10" stroke-linecap="round" stroke-linejoin="round"/>
<path d="M34.5977 80.9515C35.3117 80.3035 36.2637 78.4655 38.4907 78.3525" stroke="black" stroke-width="2" stroke-miterlimit="10" stroke-linecap="round" stroke-linejoin="round"/>
<path d="M68.3486 81.2318C69.5596 80.1588 71.2146 78.0768 73.1456 78.0408" stroke="black" stroke-width="2" stroke-miterlimit="10" stroke-linecap="round" stroke-linejoin="round"/>
<path d="M45.7318 80.5505C45.7318 80.5505 44.8168 75.2395 46.8958 69.6735C48.9758 64.1085 53.7598 62.6055 53.7598 62.6055" stroke="black" stroke-width="2" stroke-miterlimit="10" stroke-linecap="round" stroke-linejoin="round"/>
<path d="M52.541 81.0575C53.993 79.7375 55.063 78.3865 56.931 77.5615" stroke="black" stroke-width="2" stroke-miterlimit="10" stroke-linecap="round" stroke-linejoin="round"/>
<path d="M30.4326 69.1806C30.4326 69.1806 31.8046 68.7056 32.8066 68.8646" stroke="black" stroke-width="2" stroke-miterlimit="10" stroke-linecap="round" stroke-linejoin="round"/>
<path d="M69.1162 67.6512C69.7692 67.7752 71.2012 67.1272 71.7172 66.4482" stroke="black" stroke-width="2" stroke-miterlimit="10" stroke-linecap="round" stroke-linejoin="round"/>
<path d="M74.4326 60.959C75.1966 61.103 75.8016 61.721 76.4526 61.844" stroke="black" stroke-width="2" stroke-miterlimit="10" stroke-linecap="round" stroke-linejoin="round"/>
<path d="M38.834 60.3128C39.062 59.1008 40.589 58.4988 40.589 58.4988" stroke="black" stroke-width="2" stroke-miterlimit="10" stroke-linecap="round" stroke-linejoin="round"/>
<path d="M45.7474 71.1872C45.7474 71.1872 41.0754 70.8152 41.6764 67.1232C42.2774 63.4322 46.4264 62.8102 46.4264 62.8102C46.4264 62.8102 47.2074 59.0582 49.2234 57.1392C51.2384 55.2192 52.9604 56.9522 54.4704 56.3062C59.3434 54.2232 64.1334 55.6202 65.7754 58.1702C67.2804 60.5072 60.0104 63.8792 60.0104 63.8792C60.0104 63.8792 63.4034 65.8362 61.0014 68.1102C58.5994 70.3842 53.2294 68.5672 53.2294 68.5672C53.2294 68.5672 52.7694 70.4602 51.0204 71.3922C48.1304 72.9322 45.7474 71.1872 45.7474 71.1872Z" stroke="black" stroke-width="2" stroke-miterlimit="10" stroke-linecap="round" stroke-linejoin="round"/>
</svg>
