<svg width="100" height="100" viewBox="0 0 100 100" fill="none" xmlns="http://www.w3.org/2000/svg">
<path d="M45.3035 44.374C31.7535 44.372 16.8235 45.8026 18.0735 58.9084C19.3335 72.0142 27.8534 76.754 39.6234 75.3888C51.3934 74.0231 71.0635 72.1878 73.0635 63.5795C75.0635 54.9712 74.2234 45.4469 68.2834 45.3297C61.7134 45.1999 58.8535 44.3761 45.3035 44.374Z" stroke="black" stroke-width="2" stroke-miterlimit="10" stroke-linecap="round" stroke-linejoin="round"/>
<path d="M74.3436 58.7296C74.3436 58.7296 77.8136 58.6916 78.7736 59.0624C79.7536 59.4414 79.9736 62.1388 78.4236 62.3337C76.9236 62.5213 74.5435 62.9361 73.3835 62.6574" stroke="black" stroke-width="2" stroke-miterlimit="10" stroke-linecap="round" stroke-linejoin="round"/>
<path d="M79.3935 61.9395C79.3935 61.9395 80.2936 62.3505 80.8536 64.0433C81.7436 66.7664 82.2935 71.3153 80.9335 71.6156C78.7335 72.1028 78.1835 71.4059 78.0135 68.799C77.6835 63.6024 79.3935 61.9395 79.3935 61.9395Z" stroke="black" stroke-width="2" stroke-miterlimit="10" stroke-linecap="round" stroke-linejoin="round"/>
<path d="M30.9437 57.8308C30.3137 52.2855 36.3937 53.2277 36.5437 57.0373C36.7037 60.8469 31.3137 61.0965 30.9437 57.8308Z" fill="black" stroke="black" stroke-width="2" stroke-miterlimit="10" stroke-linecap="round" stroke-linejoin="round"/>
<path d="M44.1536 57.2568C43.5936 52.3173 49.0136 53.1566 49.1436 56.55C49.2836 59.9434 44.4836 60.1657 44.1536 57.2568Z" fill="black" stroke="black" stroke-width="2" stroke-miterlimit="10" stroke-linecap="round" stroke-linejoin="round"/>
<path d="M57.3236 56.4341C56.8136 51.9625 61.7136 52.7222 61.8436 55.7942C61.9636 58.8661 57.6236 59.0674 57.3236 56.4341Z" fill="black" stroke="black" stroke-width="2" stroke-miterlimit="10" stroke-linecap="round" stroke-linejoin="round"/>
<path d="M79.7336 59.5696C79.7336 59.5696 80.6335 59.1587 81.1935 57.4659C82.0835 54.7427 82.6335 50.1939 81.2735 49.8935C79.0735 49.4064 78.5236 50.1032 78.3536 52.7102C78.0236 57.9068 79.7336 59.5696 79.7336 59.5696Z" stroke="black" stroke-width="2" stroke-miterlimit="10" stroke-linecap="round" stroke-linejoin="round"/>
<path d="M37.1734 44.377C37.1734 44.377 35.7535 35.9888 42.9635 35.8577C50.1835 35.7266 55.2735 35.576 56.8535 39.1656C57.8135 41.3368 57.5535 44.4203 57.5535 44.4203C57.5535 44.4203 52.6835 44.1457 47.5835 44.1349C42.4835 44.124 37.1734 44.377 37.1734 44.377Z" stroke="black" stroke-width="2" stroke-miterlimit="10" stroke-linecap="round" stroke-linejoin="round"/>
<path d="M48.4834 35.6525C48.4834 35.6525 49.3934 28.4268 48.0534 27.4172C46.1934 26.0132 38.6434 24.2127 38.0834 25.3703C37.5034 26.5774 36.8033 28.9045 38.2633 30.6488C38.8533 31.3534 44.9634 30.1779 45.5834 30.5362C46.2034 30.8945 45.3534 35.7021 45.3534 35.7021L48.4834 35.6525Z" stroke="black" stroke-width="2" stroke-miterlimit="10" stroke-linecap="round" stroke-linejoin="round"/>
<path d="M38.9035 25.2316C38.9035 25.2316 39.2935 25.167 39.2735 28.009C39.2635 30.5363 38.3336 30.4626 38.3336 30.4626C38.3336 30.4626 37.6136 30.3125 37.6036 27.84C37.5936 25.1813 38.9035 25.2316 38.9035 25.2316Z" stroke="black" stroke-width="2" stroke-miterlimit="10" stroke-linecap="round" stroke-linejoin="round"/>
<path d="M18.7837 62.9661C19.8237 66.2106 23.8837 75.3088 38.5337 74.3836C47.3637 73.8258 55.6838 72.7762 63.7238 70.0748C71.7638 67.3735 73.2637 62.668 73.2637 62.668" stroke="black" stroke-width="2" stroke-miterlimit="10" stroke-linecap="round" stroke-linejoin="round"/>
</svg>
