<svg width="100" height="100" viewBox="0 0 100 100" fill="none" xmlns="http://www.w3.org/2000/svg">
<path d="M44.8806 43.0346C37.8602 42.1818 32.0865 46.7743 31.4961 54.582C31.4961 62.9802 37.0077 66.1294 41.6661 66.7855C46.3244 67.4416 53.3444 66.1297 55.1163 58.1248C56.9157 49.9953 51.9011 43.8875 44.8806 43.0346Z" stroke="black" stroke-width="2"/>
<path d="M44.4146 47.0246C39.7485 46.4577 35.911 49.5101 35.5186 54.6995C35.5186 60.2814 39.1818 62.3744 42.278 62.8105C45.3742 63.2466 50.04 62.3746 51.2177 57.0543C52.4137 51.651 49.0807 47.5915 44.4146 47.0246Z" fill="black" stroke="black" stroke-width="2"/>
<path d="M44.1894 24.4566C40.1398 23.9646 36.8093 26.6138 36.4688 31.1175C36.4688 35.9619 39.648 37.7784 42.3351 38.1568C45.0222 38.5353 49.0716 37.7785 50.0936 33.1611C51.1316 28.4717 48.239 24.9486 44.1894 24.4566Z" stroke="black" stroke-width="2"/>
<path d="M43.8108 27.6942C41.6716 27.4343 39.9123 28.8337 39.7324 31.2128C39.7324 33.7718 41.4119 34.7314 42.8313 34.9313C44.2508 35.1312 46.3898 34.7315 46.9297 32.2923C47.478 29.8152 45.95 27.9541 43.8108 27.6942Z" fill="black" stroke="black" stroke-width="2"/>
<path d="M59.4079 15.2592C59.1919 14.6835 28.4385 18.7158 27.7459 19.217C27.0532 19.7182 26.5859 76.4935 27.935 78.8322C29.2842 81.1708 58.9582 83.3505 59.4079 83.0806C59.8576 82.8108 59.6778 15.9789 59.4079 15.2592Z" stroke="black" stroke-width="2"/>
<ellipse cx="54.4086" cy="78.2763" rx="1.07611" ry="1.29147" fill="black"/>
<ellipse cx="31.496" cy="75.6932" rx="1.07611" ry="1.29147" fill="black"/>
<ellipse cx="31.3847" cy="22.8502" rx="1.07611" ry="1.29147" fill="black"/>
<ellipse cx="55.4848" cy="19.7822" rx="1.07611" ry="1.29147" fill="black"/>
<path d="M59.1738 15.2365C63.2493 16.2891 71.7904 18.7767 72.2439 19.4892C72.8107 20.3799 72.7297 75.3583 72.2439 76.1679C71.7581 76.9776 60.6653 82.8884 59.6127 82.8884" stroke="black" stroke-width="2"/>
<path d="M27.9446 79.0604C26.9968 79.5568 25.8883 80.5046 27.513 80.9378C29.5438 81.4793 58.3354 85.1132 59.9601 84.7747C61.5847 84.4362 73.2438 77.3397 73.3115 76.7305C73.3657 76.2431 72.7605 76.0197 72.3769 75.9294" stroke="black" stroke-width="2"/>
</svg>
