<svg width="100" height="100" viewBox="0 0 100 100" fill="none" xmlns="http://www.w3.org/2000/svg">
<path d="M56.6541 80.866V79.4909H62.434V80.866C62.434 81.9706 61.5385 82.866 60.434 82.866H58.6541C57.5495 82.866 56.6541 81.9706 56.6541 80.866Z" fill="black" stroke="black" stroke-width="2"/>
<path d="M37.5356 80.866V79.4909H43.3156V80.866C43.3156 81.9706 42.4201 82.866 41.3156 82.866H39.5356C38.4311 82.866 37.5356 81.9706 37.5356 80.866Z" fill="black" stroke="black" stroke-width="2"/>
<path d="M61.1541 44.8276V72.3933" stroke="black" stroke-width="2" stroke-linecap="round"/>
<path d="M55.3738 44.8276C55.362 56.5184 55.3628 62.6363 55.3738 72.3933" stroke="black" stroke-width="2" stroke-linecap="round"/>
<path d="M49.5942 44.8276C49.665 56.3154 49.7208 62.9266 49.5942 72.3933" stroke="black" stroke-width="2" stroke-linecap="round"/>
<path d="M43.8143 44.8276C43.3122 53.0346 43.4683 59.8652 43.8143 72.3933" stroke="black" stroke-width="2" stroke-linecap="round"/>
<path d="M38.0344 44.8276V72.3933" stroke="black" stroke-width="2" stroke-linecap="round"/>
<path d="M31.3113 40.3027H67.3246" stroke="black" stroke-width="2" stroke-linecap="round"/>
<path d="M31.2007 38.7559C31.2541 35.0407 34.3332 32.0843 38.0482 32.1526C46.6894 32.3114 53.1202 32.3234 60.7779 32.1783C64.631 32.1053 67.7872 35.2573 67.8124 39.111C67.8371 42.8941 67.9223 46.4396 67.877 49.4775C67.759 57.3994 67.6395 65.0146 67.7206 71.8329C67.764 75.479 64.9651 78.5763 61.3226 78.7452C53.1529 79.124 46.5758 79.1483 37.5383 78.7274C34.0288 78.5639 31.2752 75.6696 31.2282 72.1566C31.083 61.3062 30.9925 53.2167 31.2007 38.7559Z" stroke="black" stroke-width="2" stroke-linecap="round" stroke-linejoin="round"/>
<path d="M31.228 72.1566C31.275 75.6696 34.0286 77.0334 37.5381 77.1969C46.5756 77.6179 53.1527 77.5936 61.3224 77.2148C64.9649 77.0459 67.7638 75.479 67.7204 71.8329" stroke="black" stroke-width="2" stroke-linecap="round" stroke-linejoin="round"/>
<path d="M53.7957 30.4838C54.3733 30.3187 56.214 30.415 57.0621 30.4838" stroke="black" stroke-width="2" stroke-linecap="round" stroke-linejoin="round"/>
<path d="M41.5083 30.4838C42.0859 30.3187 43.9266 30.415 44.7748 30.4838" stroke="black" stroke-width="2" stroke-linecap="round" stroke-linejoin="round"/>
<path d="M53.4893 14.4712V31.1479" stroke="black" stroke-width="2" stroke-linecap="round" stroke-linejoin="round"/>
<path d="M41.2024 14.4712V31.1479" stroke="black" stroke-width="2" stroke-linecap="round" stroke-linejoin="round"/>
<path d="M57.3687 14.373V31.1479" stroke="black" stroke-width="2" stroke-linecap="round" stroke-linejoin="round"/>
<path d="M45.0815 14.373V31.1479" stroke="black" stroke-width="2" stroke-linecap="round" stroke-linejoin="round"/>
<rect x="37.3787" y="12.6561" width="23.8788" height="4.81812" rx="2.40906" fill="black"/>
</svg>
