<svg width="100" height="100" viewBox="0 0 100 100" fill="none" xmlns="http://www.w3.org/2000/svg">
<path d="M42.1011 36.019C40.346 32.2163 42.1483 27.9174 43.1843 26.211C45.0123 23.4687 52.977 23.5988 55.3537 25.1528C57.7304 26.7068 59.193 32.2829 58.4617 35.208C57.7304 38.1332 53.3427 43.3436 50.2347 43.2522C47.1267 43.1608 44.295 40.7724 42.1011 36.019Z" stroke="black" stroke-width="2"/>
<path d="M45.1379 29.7375C42.8157 30.0207 41.985 32.5928 41.7963 33.9142C39.6016 30.7283 43.008 25.7516 44.6363 24.3357C46.2647 22.9197 52.9384 22.342 56.0909 24.7588C58.2148 26.3871 59.4644 32.3454 58.6149 32.9118C57.7653 33.4782 58.2807 31.4138 55.1064 30.0687C52.6805 29.0408 50.4979 31.343 50.0023 31.4138C49.5067 31.4846 48.0406 29.3834 45.1379 29.7375Z" fill="black" stroke="black" stroke-width="2"/>
<path d="M46.3109 19.5524C45.671 20.139 46.5776 22.5967 47.1109 23.7522H52.3776C52.9331 22.7967 53.8842 20.6191 53.2442 19.5524C52.4443 18.2191 47.1109 18.8191 46.3109 19.5524Z" fill="black" stroke="black" stroke-width="2"/>
<path d="M41.7457 35.7823C38.3894 34.8121 35.1995 32.5743 29.8529 32.9616C27.3422 33.1434 22.1197 38.9967 20.2317 41.3566C18.3438 43.7166 16.5963 44.8945 16.2817 46.7038C15.967 48.513 16.7738 51.222 19.2123 50.8287C21.6509 50.4354 20.9775 48.2624 21.4151 47.2245C21.7432 46.4463 24.5846 44.4365 26.7235 42.7245C27.76 41.8949 29.381 40.0436 29.8529 40.4629C30.3248 40.8821 31.6103 43.9803 34.3652 45.7513C36.6309 47.2079 38.7363 48.8972 39.0771 49.0807" stroke="black" stroke-width="2" stroke-linecap="round"/>
<path d="M58.6768 35.4532C59.3868 34.9208 66.5293 32.9754 70.5863 33.2651C73.0709 33.4425 79.2639 40.0675 80.8612 42.0197C82.4584 43.9719 85.1205 49.0299 82.9908 50.006C80.8612 50.9822 78.554 49.3849 78.6427 48.0538C78.7315 46.7228 78.8479 45.7661 78.0042 45.3443C75.7989 44.2416 71.4856 42.1797 70.5863 41.485C69.687 40.7902 68.546 46.2581 61.2584 48.4077" stroke="black" stroke-width="2" stroke-linecap="round"/>
<path d="M36.0908 44.1309C36.9265 46.4408 38.2084 49.8547 42.5795 50.7173C48.0432 51.7956 48.9069 48.5879 49.7696 48.4441C50.6323 48.3004 52.9343 51.248 56.0975 51.0323C59.2607 50.8166 62.0947 47.8665 63.0778 44.7204" stroke="black" stroke-width="2" stroke-linecap="round"/>
<path d="M35.2363 46.9724C35.5033 50.4425 38.1139 58.7375 46.6025 60.6595C57.2131 63.062 61.9985 54.9413 62.5991 54.1405C63.0796 53.4998 64.7037 48.2345 65.1708 46.6663" stroke="black" stroke-width="2" stroke-linecap="round"/>
<path d="M37.7654 54.9223C33.4283 55.3166 28.0571 58.3525 26.4351 59.8446C24.4077 61.7099 25.0566 65.8458 26.4352 68.3598C27.8139 70.8738 30.476 75.2978 30.8004 75.9466C31.1248 76.5954 25.7574 78.08 25.2708 78.891C24.7842 79.7019 27.3272 81.87 29.8412 81.059C32.3551 80.2481 34.3015 79.6323 35.518 79.5512C36.7344 79.4701 37.9509 77.0079 36.7344 75.3048C35.7612 73.9424 35.0854 69.8466 34.8692 68.3598" stroke="black" stroke-width="2" stroke-linecap="round"/>
<path d="M32.6543 66.8789C34.5503 67.8787 35.9554 68.0407 38.6281 67.9293C40.7662 67.8402 41.7447 67.6519 42.3015 67.5034" stroke="black" stroke-width="2" stroke-linecap="round"/>
<path d="M62.6055 54.5942C67.7311 55.2515 72.9622 58.4822 73.9253 60.2185C76.0257 64.0054 72.8251 68.1137 71.5308 71.5436C70.8682 73.2994 69.007 75.4911 69.3946 75.9563C69.7822 76.4215 74.854 78.3022 75.0091 79.2325C75.1641 80.1628 71.908 80.7055 70.435 80.473C68.9619 80.2404 64.0778 78.6898 63.5351 78.6898C62.9924 78.6898 62.1396 76.6741 63.5351 74.9685C64.6514 73.604 65.3992 69.3963 65.5801 67.8199" stroke="black" stroke-width="2" stroke-linecap="round"/>
<path d="M67.0032 66.9177C65.1425 67.3311 63.1732 67.6097 61.6796 67.6097C59.3903 67.6097 58.1126 66.9692 57.6475 66.9175" stroke="black" stroke-width="2" stroke-linecap="round"/>
<path d="M43.0303 60.1635C42.5135 63.9623 41.9139 71.6994 43.6505 72.2577C45.8212 72.9555 49.6199 72.3353 51.7907 72.7229C53.9614 73.1106 57.2951 72.5679 57.4501 71.7926C57.5742 71.1724 57.5018 63.4197 57.4501 59.6208" stroke="black" stroke-width="2" stroke-linecap="round"/>
<path d="M42.5791 66.7205L43.2421 59.8857L47.2599 61.1774L52.926 61.4853L57.3604 59.8857V71.8938L56.0055 72.4481H43.2421L42.5791 66.7205Z" fill="black"/>
<ellipse cx="50.2034" cy="58.1274" rx="1.1751" ry="0.865711" fill="black"/>
<path d="M50.251 38.8011C51.1154 38.3071 50.5139 37.4059 50.7461 36.5546C50.8897 36.0278 51.9548 35.3246 53.0741 35.669" stroke="black" stroke-width="2" stroke-linecap="round"/>
<path d="M47.9262 35.8772C47.5755 35.7692 46.9059 35.7989 46.582 36.0581" stroke="black" stroke-width="2" stroke-linecap="round"/>
</svg>
