<svg width="100" height="100" viewBox="0 0 100 100" fill="none" xmlns="http://www.w3.org/2000/svg">
<path d="M72.7742 70.3126C72.7742 70.3126 72.5737 75.5404 72.7741 76.1337C72.9744 76.727 78.4529 76.635 78.4529 76.1337C78.4529 75.6324 78.3689 74.3682 78.3558 73.006C78.3409 71.4547 78.453 70.3126 78.453 70.3126" stroke="black" stroke-width="2" stroke-linecap="round" stroke-linejoin="round"/>
<path d="M73.1133 71.5657C74.445 70.874 77.8031 71.1812 78.2085 71.5657" stroke="black" stroke-width="2" stroke-linecap="round" stroke-linejoin="round"/>
<path d="M26.7307 70.3126C26.7307 70.3126 26.5303 75.5404 26.7306 76.1337C26.9309 76.727 32.4094 76.635 32.4094 76.1337C32.4094 75.6324 32.3255 74.3682 32.3123 73.006C32.2974 71.4547 32.4095 70.3126 32.4095 70.3126" stroke="black" stroke-width="2" stroke-linecap="round" stroke-linejoin="round"/>
<path d="M27.0698 71.5657C28.4016 70.874 31.7597 71.1812 32.165 71.5657" stroke="black" stroke-width="2" stroke-linecap="round" stroke-linejoin="round"/>
<path d="M20.7621 65.9369C20.8896 65.7548 35.3305 66.0358 50.4311 66.056C66.9923 66.0781 84.3534 65.8525 84.6521 65.9369C85.2233 66.0983 85.0516 69.4861 84.6521 69.976C84.4147 70.2671 62.1489 70.0451 43.937 69.976C31.5068 69.9288 20.8837 70.0996 20.7621 69.976C20.4624 69.6713 20.4948 66.3188 20.7621 65.9369Z" stroke="black" stroke-width="2" stroke-linecap="round" stroke-linejoin="round"/>
<path fill-rule="evenodd" clip-rule="evenodd" d="M24.0384 48.2957C25.2542 46.9732 27.3119 46.8868 28.6344 48.1026C33.0386 52.9133 39.0345 59.6925 41.3789 60.3088C43.7232 60.9252 76.7865 60.3088 76.7865 60.3088C78.583 60.3088 80.0214 61.8637 80.0214 63.2227C80.0214 64.5817 78.583 65.8678 76.7865 65.8678H39.6138C38.7983 65.8678 38.0126 65.5615 37.4123 65.0096L24.4339 52.9977C22.5791 51.2571 22.8226 49.6182 24.0384 48.2957Z" stroke="black" stroke-width="2" stroke-linecap="round" stroke-linejoin="round"/>
<path d="M79.4643 64.7027C69.73 65.3813 48.4349 66.0552 37.9718 64.3881C36.2905 64.1202 34.2773 61.4253 31.0255 58.5344C27.7377 55.7344 23.4645 52.5602 23.4644 49.3968" stroke="black" stroke-width="2" stroke-linecap="round" stroke-linejoin="round"/>
<path d="M43.7085 35.0915L50.2341 60.0079M53.3648 60.0078L46.4356 34.3608" stroke="black" stroke-width="2" stroke-linecap="round" stroke-linejoin="round"/>
<path d="M35.25 48.191C33.2871 46.2281 29.9144 48.4016 31.4311 50.3984C32.6734 52.0341 37.1549 56.9121 40.0866 58.9494C43.7513 61.4961 44.9324 59.0698 43.1906 57.0781L35.25 48.191Z" stroke="black" stroke-width="2" stroke-linecap="round" stroke-linejoin="round"/>
<path d="M36.9107 39.1816C34.2549 37.307 29.87 36.4797 24.6388 41.4687C23.2279 32.5864 31.4383 23.0447 41.5468 20.5864C51.6553 18.1281 62.9206 23.2019 65.5256 30.5131C62.1799 28.0726 55.7458 30.2135 54.2147 34.545C50.5846 31.8471 38.9727 35.6256 36.9107 39.1816Z" stroke="black" stroke-width="2" stroke-linecap="round" stroke-linejoin="round"/>
<path d="M54.301 34.249C52.9217 27.5492 49.2486 21.6122 41.2061 20.7733" stroke="black" stroke-width="2" stroke-linecap="round" stroke-linejoin="round"/>
<path d="M37.0101 38.8823C34.8547 32.3905 34.2884 25.5779 40.834 20.8301" stroke="black" stroke-width="2" stroke-linecap="round" stroke-linejoin="round"/>
<path d="M44.5921 38.4357L43.8481 35.3062L46.3176 34.5192C46.8343 36.2836 47.0985 37.09 47.2229 37.4313C47.258 37.4826 47.286 37.5371 47.3058 37.5944C47.3335 37.6747 47.3294 37.7233 47.2229 37.4313C46.7424 36.7288 44.9291 36.6362 44.5921 38.4357Z" fill="black"/>
<path fill-rule="evenodd" clip-rule="evenodd" d="M40.6104 21.0285C37.3903 23.7046 34.9413 29.1925 36.6193 38.2636C42.1526 33.4106 51.1783 31.9139 53.9903 33.9095C52.8564 28.4215 49.0011 20.711 40.6104 21.0285ZM40.2781 25.8026C40.5168 25.3045 40.3065 24.7073 39.8085 24.4686C39.3105 24.2299 38.7132 24.4401 38.4745 24.9381C37.2968 27.3953 37.3885 30.8913 37.9184 33.4048C38.0324 33.9453 38.5628 34.291 39.1032 34.177C39.6436 34.0631 39.9893 33.5327 39.8754 32.9923C39.3839 30.661 39.3772 27.6821 40.2781 25.8026Z" fill="black"/>
<path d="M24.8496 41.1512C24.4758 30.5821 33.3798 23.8184 37.9392 22.1816C34.1976 26.8582 35.1334 34.8863 36.069 38.3158C29.8959 35.5098 26.0578 39.3195 24.8496 41.1512Z" fill="black"/>
<path d="M64.3613 28.8457C61.1814 20.3343 50.4094 19.7654 45.4209 20.5448L53.9558 33.1716C54.8131 32.7429 56.9254 31.5348 58.5154 30.1318C60.1054 28.7288 63.0752 28.6898 64.3613 28.8457Z" fill="black"/>
<path d="M39.9843 20.8216C39.8002 20.2319 40.1519 19.1893 40.7947 19.0257C41.3308 18.8892 42.1365 19.5054 42.3721 20.1818" stroke="black" stroke-width="2" stroke-linecap="round" stroke-linejoin="round"/>
</svg>
