<svg width="100" height="100" viewBox="0 0 100 100" fill="none" xmlns="http://www.w3.org/2000/svg">
<path d="M35.8045 52.9449C34.6845 42.1089 39.3045 36.5049 50.2645 35.1149C60.3145 33.8389 65.2045 40.8009 65.6845 48.3189C66.1645 55.8359 60.6745 65.7639 50.0745 64.9929C39.4645 64.2219 36.4045 58.7209 35.8045 52.9449Z" stroke="black" stroke-width="2" stroke-miterlimit="10" stroke-linecap="round" stroke-linejoin="round"/>
<path d="M46.1146 27.7853C46.1146 27.7853 42.1246 20.2944 39.2346 21.2574C36.3446 22.2204 35.7446 26.1943 37.1646 29.3473C38.5846 32.4993 41.8947 37.0074 41.8947 37.0074" stroke="black" stroke-width="2" stroke-miterlimit="10" stroke-linecap="round" stroke-linejoin="round"/>
<path d="M37.3046 30.0439C37.3046 30.0439 27.4546 24.2009 27.9046 29.1549C28.3546 34.1089 30.6646 37.6469 32.7946 39.4489C34.9146 41.2499 36.8347 42.2909 36.8347 42.2909" stroke="black" stroke-width="2" stroke-miterlimit="10" stroke-linecap="round" stroke-linejoin="round"/>
<path d="M30.2243 37.0207C30.2243 37.0207 21.9843 35.0737 21.5943 38.8697C21.2043 42.6657 23.1343 44.0167 27.8343 45.3027C31.8743 46.4097 35.3944 47.1037 35.3944 47.1037" stroke="black" stroke-width="2" stroke-miterlimit="10" stroke-linecap="round" stroke-linejoin="round"/>
<path d="M27.4044 45.1602C27.4044 45.1602 17.4644 46.8932 19.2044 50.5082C21.1144 54.4602 23.8144 54.6802 27.9544 54.5012C32.0844 54.3222 35.3444 54.0662 35.3444 54.0662" stroke="black" stroke-width="2" stroke-miterlimit="10" stroke-linecap="round" stroke-linejoin="round"/>
<path d="M27.1143 54.5273C27.1143 54.5273 20.1342 58.2543 21.9042 61.1523C22.7142 62.4853 27.8143 63.8824 30.2543 62.4244C32.6943 60.9674 36.7443 58.0273 36.7443 58.0273" stroke="black" stroke-width="2" stroke-miterlimit="10" stroke-linecap="round" stroke-linejoin="round"/>
<path d="M32.1247 61.2861C29.4047 63.8081 28.5646 65.5091 27.7046 68.5361C26.8546 71.5631 29.4847 74.2341 33.7547 71.2421C38.0247 68.2501 41.8346 63.2791 41.8346 63.2791" stroke="black" stroke-width="2" stroke-miterlimit="10" stroke-linecap="round" stroke-linejoin="round"/>
<path d="M36.9042 68.6498C36.9042 68.6498 33.5643 75.5798 36.7343 77.4178C39.5443 79.0458 43.0243 77.5588 44.3243 74.3188C45.6243 71.0798 45.6243 64.7158 45.6243 64.7158" stroke="black" stroke-width="2" stroke-miterlimit="10" stroke-linecap="round" stroke-linejoin="round"/>
<path d="M45.0547 71.9503C45.0547 71.9503 46.2347 82.9563 50.5447 80.9703C54.2447 79.2683 54.4548 75.9163 54.2648 71.5953C54.0848 67.2733 53.5847 64.8613 53.5847 64.8613" stroke="black" stroke-width="2" stroke-miterlimit="10" stroke-linecap="round" stroke-linejoin="round"/>
<path d="M54.5444 73.405C54.5444 73.405 59.1344 80.671 62.5544 78.432C66.5644 75.813 64.1945 71.938 61.8945 68.635C59.6045 65.332 58.0145 63.583 58.0145 63.583" stroke="black" stroke-width="2" stroke-miterlimit="10" stroke-linecap="round" stroke-linejoin="round"/>
<path d="M62.9443 69.8844C62.9443 69.8844 70.0544 75.4744 72.5944 72.1504C75.1344 68.8264 71.0344 64.9764 69.0144 62.8244C67.0044 60.6724 63.1643 58.8984 63.1643 58.8984" stroke="black" stroke-width="2" stroke-miterlimit="10" stroke-linecap="round" stroke-linejoin="round"/>
<path d="M70.0443 63.8146C70.0443 63.8146 79.2343 65.5686 79.0443 61.9966C78.8543 58.4246 76.4644 57.3517 73.7444 55.9407C71.0144 54.5297 65.2544 53.0547 65.2544 53.0547" stroke="black" stroke-width="2" stroke-miterlimit="10" stroke-linecap="round" stroke-linejoin="round"/>
<path d="M71.8947 55.1397C71.8947 55.1397 81.5945 54.3347 81.2845 50.7637C80.9645 47.1917 76.2746 46.0367 73.1646 45.8967C70.0446 45.7567 66.0146 46.6517 66.0146 46.6517" stroke="black" stroke-width="2" stroke-miterlimit="10" stroke-linecap="round" stroke-linejoin="round"/>
<path d="M73.2743 45.7616C73.2743 45.7616 82.6444 40.0497 79.0044 37.8437C75.3644 35.6377 73.5144 36.4427 70.2544 37.8437C66.9944 39.2437 64.2344 41.6157 64.2344 41.6157" stroke="black" stroke-width="2" stroke-miterlimit="10" stroke-linecap="round" stroke-linejoin="round"/>
<path d="M69.4846 38.0401C69.4846 38.0401 75.8745 29.9511 71.7845 28.5611C67.6945 27.1721 66.3346 28.4971 63.6746 31.2401C61.0046 33.9821 59.6646 36.2691 59.6646 36.2691" stroke="black" stroke-width="2" stroke-miterlimit="10" stroke-linecap="round" stroke-linejoin="round"/>
<path d="M63.8546 30.8153C63.8546 30.8153 66.5646 22.7943 62.9546 21.7353C59.3446 20.6753 54.9546 28.4332 54.9546 28.4332" stroke="black" stroke-width="2" stroke-miterlimit="10" stroke-linecap="round" stroke-linejoin="round"/>
<path d="M54.0347 34.6864C54.0347 34.6864 55.6947 24.1404 53.9147 21.1184C52.1247 18.0964 46.2648 17.6644 46.1348 24.1404C46.0148 30.6164 47.3147 35.5504 47.3147 35.5504" stroke="black" stroke-width="2" stroke-miterlimit="10" stroke-linecap="round" stroke-linejoin="round"/>
<path fill-rule="evenodd" clip-rule="evenodd" d="M35.8043 52.6257C34.6843 41.7897 39.3043 36.1857 50.2643 34.7957C60.3143 33.5197 65.2043 40.4817 65.6843 47.9997C66.1643 55.5167 60.6743 65.4447 50.0743 64.6737C39.4643 63.9027 36.4043 58.4017 35.8043 52.6257ZM55.85 59.116C55.902 59.6658 55.4984 60.1537 54.9485 60.2056C54.7849 60.2211 54.608 60.2476 54.3964 60.2793L54.3962 60.2793C54.2904 60.2952 54.1759 60.3123 54.0501 60.3301C53.7174 60.3769 53.3007 60.4279 52.9263 60.4099C52.3747 60.3834 51.949 59.9146 51.9756 59.363C52.0021 58.8113 52.4709 58.3857 53.0225 58.4122C53.1882 58.4202 53.4364 58.3968 53.7712 58.3496C53.8521 58.3382 53.9412 58.3249 54.0341 58.311L54.0342 58.311L54.0344 58.311C54.2745 58.2751 54.5408 58.2353 54.7603 58.2145C55.3101 58.1625 55.798 58.5661 55.85 59.116ZM41.2852 45.0588C41.4385 44.5282 41.1325 43.9739 40.6019 43.8206C40.0713 43.6674 39.517 43.9733 39.3637 44.5039C38.8573 46.2575 38.3485 48.5597 38.4492 50.875C38.5505 53.2047 39.2754 55.6248 41.312 57.4725C42.5864 58.6323 44.7433 59.9387 46.9834 60.3277C47.5275 60.4222 48.0452 60.0576 48.1397 59.5135C48.2342 58.9693 47.8696 58.4516 47.3255 58.3572C45.5459 58.0482 43.7233 56.9629 42.6577 55.9929L42.6563 55.9917C41.1335 54.6104 40.5335 52.7693 40.4473 50.788C40.3605 48.792 40.8017 46.7332 41.2852 45.0588Z" fill="black"/>
</svg>
