<svg width="100" height="100" viewBox="0 0 100 100" fill="none" xmlns="http://www.w3.org/2000/svg">
<path d="M48.5632 48.0476C48.5071 47.403 48.9754 46.1158 49.0843 45.6056" stroke="black" stroke-width="2" stroke-linecap="round" stroke-linejoin="round"/>
<path d="M53.3688 44.6202C53.9197 45.1746 54.4434 46.2777 54.7272 46.7154" stroke="black" stroke-width="2" stroke-linecap="round" stroke-linejoin="round"/>
<path d="M42.8969 44.3874C43.313 43.8918 44.5543 43.3128 44.9921 43.029" stroke="black" stroke-width="2" stroke-linecap="round" stroke-linejoin="round"/>
<path d="M56.1319 40.8074C56.9135 40.8098 58.0638 41.2196 58.574 41.3284" stroke="black" stroke-width="2" stroke-linecap="round" stroke-linejoin="round"/>
<path d="M41.6595 37.7194C42.6771 37.5936 43.5914 38.1316 44.1016 38.2405" stroke="black" stroke-width="2" stroke-linecap="round" stroke-linejoin="round"/>
<path d="M55.2285 36.3485C55.916 36.0636 57.2224 35.0558 57.6602 34.772" stroke="black" stroke-width="2" stroke-linecap="round" stroke-linejoin="round"/>
<path d="M45.3184 32.2031C46.1269 32.8337 46.393 33.8606 46.6768 34.2983" stroke="black" stroke-width="2" stroke-linecap="round" stroke-linejoin="round"/>
<path d="M51.5979 33.6435C51.8826 32.9559 52.0938 31.3195 52.2026 30.8093" stroke="black" stroke-width="2" stroke-linecap="round" stroke-linejoin="round"/>
<path d="M64.4533 16.2443C54.0859 15.9292 48.0836 15.8276 35.8418 16.2443V19.981C35.8418 21.6891 38.1906 34.3935 38.5109 38.4503C38.8311 42.5072 39.3649 69.3037 40.646 72.0794C41.9272 74.8552 57.8343 74.4281 59.4357 72.0794C60.1474 62.4711 61.6989 42.1015 62.2114 37.4895C62.7238 32.8775 63.9195 23.8955 64.4533 19.981V16.2443Z" stroke="black" stroke-width="2" stroke-linecap="round" stroke-linejoin="round"/>
<path d="M62.212 37.4894C60.9242 42.8496 60.6622 69.9933 57.5111 71.9324C53.9948 74.0963 44.6642 74.4372 40.9473 72.4172" stroke="black" stroke-width="2" stroke-linecap="round" stroke-linejoin="round"/>
<path d="M58.7951 73.0401V83.3958C56.8734 85.958 42.3542 85.9581 40.9663 83.3958C40.9663 82.6271 40.9663 76.1717 40.9663 73.0401" stroke="black" stroke-width="2" stroke-linecap="round" stroke-linejoin="round"/>
<path d="M58.7951 80.6271C56.8734 83.1893 42.3542 83.1894 40.9663 80.6271" stroke="black" stroke-width="2" stroke-linecap="round" stroke-linejoin="round"/>
<path d="M46.3369 81.9242C46.803 78.1701 53.0427 78.1959 53.4828 81.9242H46.3369Z" fill="black"/>
<path d="M58.1494 72.6231V83.2912" stroke="black" stroke-width="2" stroke-linecap="round" stroke-linejoin="round"/>
<path d="M41.9004 85.1176C42.8959 85.3729 43.8833 85.5913 44.8574 85.7767C50.0536 86.4197 57.393 85.2697 59.7025 82.8502C62.3701 83.117 66.7634 83.6696 65.1957 85.1176C64.3021 85.9431 55.3535 87.7748 44.8574 85.7767C43.7516 85.6399 42.7429 85.4219 41.9004 85.1176Z" fill="black"/>
<path d="M60.7749 52.6098C48.7061 54.219 51.8466 63.8641 39.8188 65.1207" stroke="black" stroke-width="2" stroke-linecap="round" stroke-linejoin="round"/>
<path d="M41.1209 72C41.1209 72 40.6096 65.2692 40.6248 65.294C46.9449 65.294 48.6177 62.2026 51.5995 58.3688C53.985 55.3018 58.5572 53.6259 60.5451 53.1714L58.4152 70.2957C58.4152 70.2957 57.5632 73.1923 51.5995 73.5331C46.8286 73.8057 42.6259 72.6246 41.1209 72Z" fill="black"/>
<circle cx="50.2386" cy="39.398" r="3.15226" transform="rotate(12.0441 50.2386 39.398)" stroke="black" stroke-width="2" stroke-linecap="round" stroke-linejoin="round"/>
<path d="M36.269 19.9808C46.13 19.3471 52.2507 19.4121 63.8128 19.9808" stroke="black" stroke-width="2" stroke-linecap="round" stroke-linejoin="round"/>
<path d="M61.2686 16.7258V19.4001" stroke="black" stroke-width="2" stroke-linecap="round" stroke-linejoin="round"/>
<path d="M57.6951 16.7258C57.5032 18.0941 57.4126 18.8305 57.6951 19.4001" stroke="black" stroke-width="2" stroke-linecap="round" stroke-linejoin="round"/>
<path d="M53.7217 16.7258C53.9329 17.466 53.8882 18.114 53.7217 19.4001" stroke="black" stroke-width="2" stroke-linecap="round" stroke-linejoin="round"/>
<path d="M50.0142 16.7258V19.4001" stroke="black" stroke-width="2" stroke-linecap="round" stroke-linejoin="round"/>
<path d="M46.441 16.7258C46.2159 17.489 46.2387 18.103 46.441 19.4001" stroke="black" stroke-width="2" stroke-linecap="round" stroke-linejoin="round"/>
<path d="M42.645 16.7258C42.645 16.7258 43.0417 18.0286 42.645 19.3165" stroke="black" stroke-width="2" stroke-linecap="round" stroke-linejoin="round"/>
<path d="M39.0273 16.7258V19.4001" stroke="black" stroke-width="2" stroke-linecap="round" stroke-linejoin="round"/>
</svg>
