<svg width="100" height="100" viewBox="0 0 100 100" fill="none" xmlns="http://www.w3.org/2000/svg">
<path d="M53.7297 54.3629C52.5509 55.3555 53.9622 59.2745 54.8152 61.1098C54.8152 61.1098 62.0905 70.5061 61.7462 70.8699C61.4019 71.2337 59.3707 71.4945 58.1475 72.0007C57.1662 72.4067 56.8776 74.8938 57.3551 75.0204C57.8327 75.1469 66.6184 75.0204 66.9911 73.9835C67.1223 73.6186 66.5258 71.5794 65.5952 70.1835C64.6645 68.7875 61.5625 61.1098 60.5543 58.318C59.5461 55.5262 55.2031 53.122 53.7297 54.3629Z" stroke="black" stroke-width="2"/>
<path d="M43.4538 62.7424C45.9453 65.1894 51.0084 70.1903 51.3288 70.6174C51.7292 71.1513 52.1836 73.6277 51.3288 74.0279C50.1921 74.56 42.2887 75.3475 41.3544 75.0805C40.42 74.8136 39.8191 73.0266 40.3838 72.5528C41.2168 71.8539 45.3224 71.1513 45.1889 70.6174C45.0555 70.0835 37.3139 64.7445 36.4463 64.1439C35.5787 63.5432 35.1783 61.0072 35.5787 60.0728C35.899 59.3253 45.9488 52.4103 46.3233 52.0644C46.6979 51.7185 51.1535 52.1966 53.3643 51.7716C54.8942 51.4776 56.9612 50.7184 57.3736 51.0266C57.786 51.3348 60.6416 54.572 60.6416 58.2834" stroke="black" stroke-width="2"/>
<path d="M39.0488 57.8037C40.4726 59.5389 43.4269 62.996 43.8539 62.9425C44.281 62.8891 46.6568 61.4075 47.7913 60.6733C48.7257 60.095 50.6744 59.0183 50.9947 59.3386C51.3151 59.6589 53.3528 60.3619 54.3316 60.6733" stroke="black" stroke-width="2"/>
<path d="M46.7602 51.8331C45.6075 49.8569 43.1636 45.786 42.6103 45.3118C41.9186 44.7191 40.0413 43.4347 39.6461 44.3733C39.2509 45.3118 35.8421 49.0669 35.2493 50.45C34.6564 51.8331 29.2716 54.8469 28.8763 55.5879C28.4811 56.329 25.3192 58.9473 24.8746 58.4039C24.4299 57.8605 25.5168 55.1433 26.6037 54.1058C27.6905 53.0684 31.9886 49.4125 32.5815 48.6715C33.1743 47.9304 35.5457 42.9407 35.8421 42.249C36.1385 41.5574 38.1146 37.4074 39.9426 36.7652C41.4049 36.2514 43.2526 35.7277 43.9936 35.53" stroke="black" stroke-width="2" stroke-linecap="round"/>
<path d="M52.3721 34.8374C53.8581 35.1718 57.1201 36.0859 58.2794 37.0667C59.7285 38.2926 63.6853 42.5838 64.1868 42.9739C64.5881 43.286 67.7237 47.4873 69.377 49.7908C70.4544 50.5524 72.402 52.4094 72.8084 53.9526C72.9862 54.6279 71.4666 55.6179 70.6863 55.8408C69.9061 56.0637 68.6452 53.3396 68.3665 53.5068C68.0879 53.674 67.1405 54.3985 66.6947 53.9526C66.2488 53.5068 66.9176 52.6709 66.416 51.7235C65.9144 50.7761 59.334 44.0971 58.8881 43.9299C58.4423 43.7627 54.476 41.6316 53.8072 41.6316" stroke="black" stroke-width="2" stroke-linecap="round"/>
<path d="M56.355 42.9172C56.2229 43.6341 55.9134 45.2717 55.7324 46.0865C55.5513 46.9013 56.5624 49.6327 57.0906 50.8966" stroke="black" stroke-width="2" stroke-linecap="round"/>
<path d="M44.5406 33.0519C43.3043 33.378 42.3677 31.5167 42.8006 30.6511C43.3417 29.5691 44.5406 29.5898 44.5406 29.1029C44.5406 28.616 47.9489 25.9652 50.3833 27.9127C52.8178 29.8603 50.9243 35.8653 50.3833 36.5145C49.8423 37.1637 47.2456 37.1637 46.8128 36.8391C46.4665 36.5794 44.8658 34.7166 44.2526 33.9411" stroke="black" stroke-width="2" stroke-linecap="round"/>
<path d="M42.7693 30.1122C42.3538 29.1477 42.3274 26.9884 43.3246 25.6351C44.5711 23.9435 47.7773 22.9195 50.8043 23.5872C53.2259 24.1213 55.0341 24.6112 55.3457 25.1453C55.6573 25.6795 51.4053 26.0169 51.4053 26.0169C51.6503 26.7927 53.6538 27.8167 53.4045 27.888C53.1552 27.9592 50.942 28.3138 51.1382 28.5097" stroke="black" stroke-width="2" stroke-linecap="round"/>
<path d="M23.3711 71.7005C27.542 71.7005 37.3338 71.5163 43.2808 71.3871M30.0743 77.3065C41.5404 77.4951 62.822 77.7591 71.693 77.3065C82.7819 76.7407 85.8797 73.084 83.9134 72.2147C80.9934 70.9237 72.0735 70.6648 70.3762 70.6648C70.0863 70.6648 69.0861 70.5906 66.5532 70.6648M51.7719 71.1883C53.9364 71.1303 58.9503 71.0305 60.8956 70.9753" stroke="black" stroke-width="2" stroke-linecap="round"/>
<path d="M33.9109 22.0952C33.5131 24.7164 37.1755 24.8906 39.1848 23.3637C40.5349 22.3377 40.8211 19.8929 39.1848 18.1823C36.9957 15.8937 31.605 16.4116 26.3273 22.0952C21.0497 27.7788 13.1246 40.9885 16.2368 57.498C19.0159 72.2403 28.0232 80.8257 52.2465 82.8555" stroke="black" stroke-width="2" stroke-linecap="round"/>
<path d="M22.798 44.7904C24.6706 33.3837 29.4947 30.4563 31.835 30.1627C35.3338 29.7239 37.8898 33.6286 34.4265 36.0151C32.9598 37.0258 31.1264 36.8113 31.1264 35.2199" stroke="black" stroke-width="2" stroke-linecap="round"/>
<path d="M43.9678 24.8835L42.4434 28.4814L43.1141 29.8231L45.3704 28.4814L48.1756 26.957L50.4319 27.5668H52.2614L51.8345 25.9812L53.7859 24.8835L51.8345 23.7859L47.5658 23.4199L43.9678 24.8835Z" fill="black"/>
<path d="M21.8429 49.138C21.4889 50.5495 21.8429 51.4143 21.8429 51.4143" stroke="black" stroke-width="2" stroke-linecap="round"/>
<path d="M39.1152 57.4276L46.4092 52.0202H52.32L57.036 50.7625L59.5512 54.2837V55.7929L54.8352 54.2837L53.4518 55.1641V60.0687L50.4336 59.2513L44.5228 63.0241L39.1152 57.4276Z" fill="black"/>
<path d="M58.4785 83.0617C59.2003 82.8812 60.8976 83.0137 61.7157 83.0618C62.5337 83.1099 63.6371 83.0817 64.4791 83.0616" stroke="black" stroke-width="2" stroke-linecap="round"/>
<path d="M23.4121 71.4213H42.9642L39.7939 73.4288L41.0889 74.7238H47.823L51.449 73.4288L51.8375 71.4213L58.9601 70.7739L57.7298 72.4574L57.3413 74.0114L59.3486 74.7238L66.6006 74.0114L66.8596 73.0403L66.2769 70.7739H70.4856L79.2917 71.4213L83.9537 72.4574V74.0114L81.4932 75.436L73.5289 77.249L63.1041 77.6375H30.8584L23.9948 73.1049L23.4121 71.4213Z" fill="black"/>
</svg>
