<svg width="100" height="100" viewBox="0 0 100 100" fill="none" xmlns="http://www.w3.org/2000/svg">
<path d="M23.0985 55.226C16.0475 52.652 15.0695 41.431 23.9225 36.387C32.7755 31.343 60.8785 22.284 68.5995 25.784C76.3205 29.284 82.6986 36.078 78.6886 40.402C74.8776 44.506 71.3795 45.034 55.4225 47.093C39.4665 49.152 30.1505 57.799 23.0985 55.226Z" stroke="black" stroke-width="2" stroke-miterlimit="10" stroke-linecap="round" stroke-linejoin="round"/>
<path d="M17.8445 50.78C17.8445 50.78 14.2575 61.715 21.8685 70.989C27.9305 78.374 37.7885 74.68 51.9625 72.563C71.2955 69.676 78.2005 67.987 82.0585 58.304C85.9885 48.418 78.5575 40.457 78.5575 40.457" stroke="black" stroke-width="2" stroke-miterlimit="10" stroke-linecap="round" stroke-linejoin="round"/>
<path d="M27.4655 60.6169C23.3455 62.0609 25.7135 66.58 29.1695 64.852" stroke="black" stroke-width="2" stroke-miterlimit="10" stroke-linecap="round" stroke-linejoin="round"/>
<path d="M19.2435 42.1191C19.2435 42.1191 33.1535 42.2071 34.7285 53.3171" stroke="black" stroke-width="2" stroke-miterlimit="10" stroke-linecap="round" stroke-linejoin="round"/>
<path d="M27.5996 34.7715C27.5996 34.7715 42.279 36.5405 42 50.0005" stroke="black" stroke-width="2" stroke-miterlimit="10" stroke-linecap="round" stroke-linejoin="round"/>
<path d="M56.7515 25.7744C56.7515 25.7744 71.6154 29.9024 70.5134 44.2784" stroke="black" stroke-width="2" stroke-miterlimit="10" stroke-linecap="round" stroke-linejoin="round"/>
<path d="M33.1094 32.3303C33.1094 32.3303 30.7384 29.2613 35.8984 27.5183C41.0594 25.7743 49.0154 23.5873 52.2234 26.3763C52.2234 26.3763 62.5315 31.8443 65.8275 43.0583C68.7525 53.0073 63.4174 69.9093 63.2474 70.3523C63.0744 70.8023 59.5424 70.8303 55.8184 71.4193C51.7364 72.0653 47.4374 73.2533 47.4374 73.2533C47.4374 73.2533 51.0115 56.0173 46.8135 45.9683C42.6145 35.9183 33.1094 32.3303 33.1094 32.3303Z" fill="black" stroke="black" stroke-width="2" stroke-miterlimit="10" stroke-linecap="round" stroke-linejoin="round"/>
<path d="M34.8643 68.259C34.8643 71.344 40.0032 71.595 39.4402 67.626" stroke="black" stroke-width="2" stroke-miterlimit="10" stroke-linecap="round" stroke-linejoin="round"/>
<path d="M69.2803 62.4175C70.5033 64.0465 74.7472 61.8385 73.5342 59.4355" stroke="black" stroke-width="2" stroke-miterlimit="10" stroke-linecap="round" stroke-linejoin="round"/>
<path d="M37.1406 57.0264C37.1026 57.4134 36.8076 58.7014 37.0066 59.6924C37.3236 61.2794 39.3816 62.2453 40.9196 60.2553" stroke="black" stroke-width="2" stroke-miterlimit="10" stroke-linecap="round" stroke-linejoin="round"/>
<path d="M29.9316 75.2297C29.9316 75.2297 43.9396 76.0577 57.1896 74.9397C70.4386 73.8207 79.4086 69.2707 79.4086 69.2707C85.3686 65.9687 80.8586 61.3467 80.8586 61.3467C80.8586 61.3467 80.0486 63.2077 77.4586 65.3447C75.0596 67.3237 71.1326 69.5387 64.9036 70.7357C59.6786 71.7397 50.0016 73.7357 43.9146 74.4787C34.7826 75.5917 29.9316 75.2297 29.9316 75.2297Z" fill="black" stroke="black" stroke-width="2" stroke-miterlimit="10" stroke-linecap="round" stroke-linejoin="round"/>
<path d="M74.9258 52.6826C77.5788 52.6826 78.0638 49.7736 75.8018 48.6426" stroke="black" stroke-width="2" stroke-miterlimit="10" stroke-linecap="round" stroke-linejoin="round"/>
</svg>
