<svg width="100" height="100" viewBox="0 0 100 100" fill="none" xmlns="http://www.w3.org/2000/svg">
<path d="M34.1975 61.7756C39.7345 65.1743 63.0039 65.1743 67.5326 62.1493L70.1751 65.548C60.6135 68.6947 55.4589 76.9958 54.4506 82.5328L47.7836 82.4111C47.1578 74.6141 37.3442 66.8084 31.6768 65.4263L34.1888 61.7756H34.1975Z" stroke="black" stroke-width="2" stroke-linecap="round" stroke-linejoin="round"/>
<path d="M70.1746 65.548C66.6021 67.5125 63.4381 70.0072 60.9521 73.0756C58.4661 76.144 56.5103 79.7774 55.5107 84.0888C50.9037 84.0018 48.2265 84.6451 47.7832 82.4024" stroke="black" stroke-width="2" stroke-linecap="round" stroke-linejoin="round"/>
<path d="M48.5938 50.249C48.7046 49.0209 50.2743 47.1649 50.2743 47.1649C50.2743 47.1649 52.4534 48.6792 52.7397 50.3044" stroke="black" stroke-width="2" stroke-linecap="round" stroke-linejoin="round"/>
<path d="M54.0794 46.6478C52.6851 42.585 56.868 33.7115 62.1958 31.9294C67.7822 33.4529 71.0786 41.32 70.82 44.2379C67.5236 49.5657 57.1173 48.0421 54.0702 46.6478H54.0794Z" stroke="black" stroke-width="2" stroke-linecap="round" stroke-linejoin="round"/>
<path d="M70.8291 44.2379C73.1468 42.6312 75.9169 44.1917 77.9113 43.7485C79.9058 43.3053 81.5679 43.0837 81.5679 43.0837" stroke="black" stroke-width="2" stroke-linecap="round" stroke-linejoin="round"/>
<path d="M28.6955 43.8593C26.701 41.9756 25.2605 43.8592 23.5985 43.7484C21.9364 43.6376 18.6123 42.5296 18.6123 42.5296" stroke="black" stroke-width="2" stroke-linecap="round" stroke-linejoin="round"/>
<path d="M37.3285 31.9294C33.0164 33.3237 28.9536 42.0772 29.3322 44.6164C31.2343 47.5343 42.6563 49.5657 46.2021 46.7771C47.7256 41.9571 41.5114 33.5822 37.3193 31.9294H37.3285Z" stroke="black" stroke-width="2" stroke-linecap="round" stroke-linejoin="round"/>
<path d="M46.2119 46.7771C48.9635 47.2388 52.2323 47.2295 54.079 46.6478" stroke="black" stroke-width="2" stroke-linecap="round" stroke-linejoin="round"/>
<path d="M29.3418 44.6164C31.1147 47.2018 36.7749 49.9812 42.2043 49.2332C44.3465 48.9378 47.3197 48.4207 47.8461 46.7032" stroke="black" stroke-width="2" stroke-linecap="round" stroke-linejoin="round"/>
<path d="M54.0791 46.6478C56.5445 48.7162 61.2444 50.0735 66.4614 48.4207C68.1789 47.8759 71.4384 46.0292 71.9647 44.3025" stroke="black" stroke-width="2" stroke-linecap="round" stroke-linejoin="round"/>
<path d="M47.9748 46.5186C47.3654 44.441 46.322 41.9202 45.1309 40.3228" stroke="black" stroke-width="2" stroke-linecap="round" stroke-linejoin="round"/>
<path d="M72.4448 43.453C71.6876 41.44 70.5149 39.584 69.0283 38.0236" stroke="black" stroke-width="2" stroke-linecap="round" stroke-linejoin="round"/>
<path d="M33.0078 43.0005C33.2756 40.9414 34.4667 39.0116 36.2027 37.8574" stroke="black" stroke-width="2" stroke-linecap="round" stroke-linejoin="round"/>
<path d="M64.2416 36.6705C66.0399 38.2954 67.2148 40.5907 67.4743 43.0005" stroke="black" stroke-width="2" stroke-linecap="round" stroke-linejoin="round"/>
<path d="M37.874 31.8463C39.2591 29.5378 48.1142 22.2986 49.8132 22.1417C51.5121 21.9847 61.1798 30.018 62.1955 31.9294" stroke="black" stroke-width="2" stroke-linecap="round" stroke-linejoin="round"/>
<path d="M49.8127 21.4492C49.8127 21.4492 43.6538 14.9025 41.0315 17.5249C38.4091 20.1472 45.0389 22.1417 49.8127 22.1417C54.5865 22.1417 59.9051 18.4482 57.6705 16.2875C55.436 14.1269 49.8127 21.4492 49.8127 21.4492Z" stroke="black" stroke-width="2" stroke-linecap="round" stroke-linejoin="round"/>
</svg>
