<svg width="100" height="100" viewBox="0 0 100 100" fill="none" xmlns="http://www.w3.org/2000/svg">
<path d="M79.6498 49.0398C82.1398 56.2498 84.1298 63.9598 84.0498 66.3998C78.4498 71.1398 60.4898 71.8598 53.5898 69.9898C50.7198 65.3898 49.8498 54.6198 49.8498 54.6198C49.8498 54.6198 48.8398 67.2598 46.9798 70.1398C41.0898 72.5798 23.2798 70.7098 15.9498 66.2598C15.8798 64.3198 18.1898 56.7898 20.6998 49.7298" stroke="black" stroke-width="2" stroke-linecap="round" stroke-linejoin="round"/>
<path d="M21.7998 49.0199C24.1298 42.4499 25.5398 36.9999 26.4398 36.0999C32.7598 37.7399 68.8198 38.0099 73.6998 35.9599C75.5098 38.2699 76.3398 42.9799 78.2598 48.5199" stroke="black" stroke-width="2" stroke-linecap="round" stroke-linejoin="round"/>
<path d="M62.7896 37.7898C63.9396 44.6898 70.4395 48.3198 79.6495 49.0398" stroke="black" stroke-width="2" stroke-linecap="round" stroke-linejoin="round"/>
<path d="M37.3195 37.3098C36.1695 44.2098 29.7595 49.6698 20.7095 49.7298" stroke="black" stroke-width="2" stroke-linecap="round" stroke-linejoin="round"/>
<path d="M27.7696 48.6699C26.0496 52.8399 26.1496 65.6899 26.4396 69.5699" stroke="black" stroke-width="2" stroke-linecap="round" stroke-linejoin="round"/>
<path d="M71.8398 47.6899C74.1398 52.5699 73.9898 65.8299 73.6998 69.7099" stroke="black" stroke-width="2" stroke-linecap="round" stroke-linejoin="round"/>
<path d="M18.8198 68.2199C25.8398 71.6399 31.7498 73.1199 39.5598 73.0999C41.6698 73.0999 45.2998 72.3399 47.2698 71.5999C50.0498 70.5599 50.4198 65.5099 50.0498 63.4399C49.3098 65.5699 50.9598 71.1399 53.5798 71.6999C57.3298 72.5099 59.9398 72.9399 62.1998 72.8999C70.6698 72.7599 77.3298 72.1999 83.8698 67.0199" stroke="black" stroke-width="2" stroke-linecap="round" stroke-linejoin="round"/>
<path d="M26.4394 36.0899C25.2894 33.0699 27.1594 28.3299 28.3094 26.8999C33.3394 27.4699 69.2494 27.7599 71.6894 27.0399C74.9894 29.9099 73.6994 35.9499 73.6994 35.9499" stroke="black" stroke-width="2" stroke-linecap="round" stroke-linejoin="round"/>
<path d="M55.2896 34.1398C56.6151 34.1398 57.6897 33.0653 57.6897 31.7398C57.6897 30.4143 56.6151 29.3398 55.2896 29.3398C53.9642 29.3398 52.8896 30.4143 52.8896 31.7398C52.8896 33.0653 53.9642 34.1398 55.2896 34.1398Z" fill="black"/>
<path d="M55.5496 31.8799C54.5596 33.0099 54.1196 34.6099 54.3796 36.0899C54.6496 37.5799 55.5596 38.8499 56.3996 40.1099C57.2896 41.4299 58.1496 42.8099 58.4996 44.3499C58.8496 45.8899 58.6196 47.6599 57.5396 48.8199" stroke="black" stroke-width="2" stroke-linecap="round" stroke-linejoin="round"/>
<path d="M44.2994 34.1398C45.6249 34.1398 46.6994 33.0653 46.6994 31.7398C46.6994 30.4143 45.6249 29.3398 44.2994 29.3398C42.9739 29.3398 41.8994 30.4143 41.8994 31.7398C41.8994 33.0653 42.9739 34.1398 44.2994 34.1398Z" fill="black"/>
<path d="M44.0895 32.01C44.3595 35.24 45.2595 38.4 45.4595 41.64C45.6595 44.88 45.0295 48.39 42.7295 50.67" stroke="black" stroke-width="2" stroke-linecap="round" stroke-linejoin="round"/>
<path d="M63.0498 30.1399C63.6398 31.6099 63.8698 32.6399 63.6098 34.2999" stroke="black" stroke-width="2" stroke-linecap="round" stroke-linejoin="round"/>
<path d="M37.4097 29.8098C36.8597 31.2098 36.7397 32.8198 37.0897 34.3098" stroke="black" stroke-width="2" stroke-linecap="round" stroke-linejoin="round"/>
<path d="M69.9897 29.7798C70.7997 31.0998 70.9797 32.3398 70.9597 33.8798" stroke="black" stroke-width="2" stroke-linecap="round" stroke-linejoin="round"/>
<path d="M30.5694 29.4199C30.1494 30.6699 29.8594 32.2199 29.9294 33.7899" stroke="black" stroke-width="2" stroke-linecap="round" stroke-linejoin="round"/>
</svg>
