<svg width="100" height="100" viewBox="0 0 100 100" fill="none" xmlns="http://www.w3.org/2000/svg">
<path d="M35.6198 59.3595C29.9405 57.4261 24.2045 60.7375 23.1993 62.7247C22.1942 64.7119 21.559 65.5392 22.4652 70.3726C23.598 76.4143 32.2308 81.9973 38.8011 79.5051C45.3715 77.0129 45.6215 71.2062 45.4705 69.3936C45.3194 67.5811 42.7188 61.7762 35.6198 59.3595Z" stroke="black" stroke-width="2"/>
<path d="M34.8328 63.7771C31.6393 62.6899 28.382 63.824 27.2179 65.2523C26.0538 66.6806 26.1793 67.031 26.6888 69.7488C27.3258 73.1462 32.9271 76.5067 36.6218 75.1053C40.3164 73.7038 40.5272 70.768 40.4423 69.7488C40.3573 68.7296 38.8247 65.136 34.8328 63.7771Z" fill="black" stroke="black" stroke-width="2"/>
<path d="M64.5492 59.3595C70.2284 57.4261 75.9645 60.7375 76.9696 62.7247C77.9748 64.7119 78.6099 65.5392 77.7037 70.3726C76.571 76.4143 67.9382 81.9973 61.3678 79.5051C54.7974 77.0129 54.5474 71.2062 54.6985 69.3936C54.8495 67.5811 57.4501 61.7762 64.5492 59.3595Z" stroke="black" stroke-width="2"/>
<path d="M65.3267 63.7424C68.5399 62.6486 71.8172 63.7896 72.9885 65.2267C74.1597 66.6637 74.0335 67.0163 73.5208 69.7509C72.8799 73.1691 67.2441 76.5502 63.5268 75.1402C59.8095 73.7302 59.5974 70.7763 59.6828 69.7509C59.7683 68.7254 61.3103 65.1097 65.3267 63.7424Z" fill="black" stroke="black" stroke-width="2"/>
<path d="M44.1963 66.165C45.9472 68.4119 48.0285 68.3127 48.0285 68.3127H52.0591C52.0591 68.3127 54.719 68.4298 55.8078 66.3884" stroke="black" stroke-width="2"/>
<path d="M45.3311 72.0271C45.9879 69.1017 48.846 69.4567 48.846 69.4567C48.846 69.4567 49.8177 69.4567 50.6531 69.4567C51.4886 69.4567 54.2654 69.2715 54.8668 72.1768" stroke="black" stroke-width="2"/>
<path d="M22.5498 63.2193C23.8761 59.5879 28.8969 51.8135 38.37 49.7674C50.2114 47.2097 63.9322 50.6286 69.2372 53.66C74.5422 56.6914 75.5995 60.1878 76.2626 61.7036" stroke="black" stroke-width="2"/>
<path d="M21.8253 66.3733C21.3623 61.2083 21.0561 48.9119 23.5352 41.0469C26.6342 31.2156 34.5422 27.5823 37.5343 25.8725C40.5265 24.1627 45.6559 19.995 50.999 19.8882C56.3421 19.7813 61.6852 25.5519 66.2803 27.9029C70.8753 30.2538 73.8675 36.2382 76.4322 42.65C78.4839 47.7794 78.2052 59.7741 77.9203 64.6898" stroke="black" stroke-width="2"/>
<path d="M49.5068 20.3127C49.9155 23.5818 50.6714 31.2846 50.4262 35.943" stroke="black" stroke-width="2" stroke-linecap="round"/>
<path d="M50.2783 48.7283C50.4764 47.8566 50.73 45.3997 50.6349 43.022" stroke="black" stroke-width="2" stroke-linecap="round"/>
<path d="M46.166 26.9536V27.7247" stroke="black" stroke-width="2" stroke-linecap="round"/>
<path d="M46.166 31.4424V32.2134" stroke="black" stroke-width="2" stroke-linecap="round"/>
<path d="M21.2687 60.3938C20.634 61.1948 19.5424 63.6684 20.3041 65.4098C21.0658 67.1511 21.7841 68.5339 22.0865 69.0478" stroke="black" stroke-width="2" stroke-linecap="round"/>
<path d="M78.4481 60.1301C79.0828 60.9311 80.4983 63.6685 79.7366 65.4099C78.9749 67.1512 78.2565 68.534 77.9542 69.0479" stroke="black" stroke-width="2" stroke-linecap="round"/>
<path d="M49.1014 20.2256C43.8115 21.5667 40.7324 24.1557 39.267 25.2547C35.9888 27.7134 34.0592 27.4659 28.9848 33.0406C26.3398 35.9464 23.8975 42.08 23.4715 45.7439C23.0159 49.6632 22.6148 56.7336 23.0365 61.0633" stroke="black" stroke-width="2"/>
<path d="M52.203 19.9717C56.8694 20.7028 61.7648 25.439 63.2301 26.538C66.5084 28.9967 68.0607 29.144 70.4935 32.2449C72.9188 35.3363 75.3355 39.5082 76.3733 45.2728C77.0724 49.156 77.5668 56.7329 77.1451 61.0626" stroke="black" stroke-width="2"/>
</svg>
