<svg width="100" height="100" viewBox="0 0 100 100" fill="none" xmlns="http://www.w3.org/2000/svg">
<path d="M78.6155 56.8919C79.7775 56.6532 82.1723 56.3719 82.4546 57.1564C82.8076 58.137 79.8522 59.5684 80.3461 61.0902C80.84 62.6121 85.4085 60.4361 85.1775 62.1666C84.9465 63.8971 82.466 65.0532 82.9026 66.3289C83.3392 67.6045 87.5645 65.9476 87.544 67.2748C87.5235 68.602 84.3993 70.1873 85.0426 71.7293" stroke="black" stroke-width="2" stroke-linecap="round" stroke-linejoin="round"/>
<path d="M34.1817 59.883L18.909 53.6549C13.7808 51.5222 8.37042 53.2823 7.15631 54.9161L31.0648 64.6949" stroke="black" stroke-width="2" stroke-linecap="round" stroke-linejoin="round"/>
<path d="M36.9656 58.8314L34.1992 41.699C33.674 38.4469 35.869 35.3797 39.1166 34.8274L39.3564 34.7867L40.2168 39.8462L38.4852 41.6451L39.2416 46.0932L41.4613 47.1646L42.9823 56.1093" stroke="black" stroke-width="2" stroke-linecap="round" stroke-linejoin="round"/>
<path d="M40.2169 39.8461L37.858 41.7517L38.6144 46.1998L41.4614 47.1645" stroke="black" stroke-width="2" stroke-linecap="round" stroke-linejoin="round"/>
<path d="M31.9216 69.4666C30.1891 65.6372 31.889 61.1283 35.7185 59.3958L73.8975 42.123C77.5825 40.4854 80.9881 41.5894 83.0022 44.277C83.7644 45.2941 84.4177 46.4226 84.7889 47.6381C85.8474 51.1044 83.457 54.5041 80.1714 55.9906L42.5505 73.379C38.7211 75.1115 34.3371 74.8057 31.9216 69.4666Z" stroke="black" stroke-width="2" stroke-linecap="round" stroke-linejoin="round"/>
<path d="M31.8604 69.322C34.2759 74.6611 38.2918 74.0776 42.1212 72.3451L79.7421 54.9568C83.5716 53.2243 86.055 50.0632 83.9664 45.7613" stroke="black" stroke-width="2" stroke-linecap="round" stroke-linejoin="round"/>
<path d="M37.1803 65.4257C37.1262 65.5595 38.0521 67.5083 38.1545 67.5791C38.2569 67.6499 40.1792 66.7248 40.3284 66.7498C40.4775 66.7748 41.2156 68.6387 41.3657 68.7204C41.5159 68.8022 43.6636 67.8429 43.6027 67.7084C43.5419 67.5739 42.777 65.7838 42.799 65.632C42.821 65.4802 44.7994 64.727 44.8655 64.5429C44.9317 64.3588 44.0768 62.4149 43.8913 62.3896C43.7058 62.3643 41.7945 63.1761 41.706 63.2162C41.6175 63.2562 40.8876 61.2804 40.6801 61.2482C40.4726 61.2161 38.5334 62.2194 38.4431 62.2603C38.3527 62.3012 39.3121 64.1988 39.133 64.3802C38.954 64.5616 37.2344 65.292 37.1803 65.4257Z" fill="black" stroke="black"/>
<path d="M46.5928 58.8307L51.9719 56.481" stroke="black" stroke-width="2" stroke-linecap="round" stroke-linejoin="round"/>
<path d="M37.2316 57.3643C38.5661 56.697 41.3323 55.4181 42.5487 54.8621M30.4546 64.454C30.6631 62.5773 32.4355 59.8666 33.3739 59.8666" stroke="black" stroke-width="2" stroke-linecap="round" stroke-linejoin="round"/>
<path d="M55.8262 54.6236L70.0432 48.1707" stroke="black" stroke-width="2" stroke-linecap="round" stroke-linejoin="round"/>
<path d="M78.0859 48.5967C78.6936 49.9398 77.872 51.225 76.8451 51.6896C75.6595 52.226 74.2515 51.919 73.6553 50.6012C73.1189 49.4156 73.7752 47.6189 74.9608 47.0825C76.4181 46.4232 77.5495 47.4111 78.0859 48.5967Z" fill="black"/>
<path d="M71.9962 42.6796L75.8502 27.4057C77.28 19.4784 81.9774 14.8821 84.7164 13.3867C87.4555 11.8912 86.7876 15.2056 86.7876 15.2056C86.5632 16.4501 85.3437 16.3286 85.0544 17.4467C84.7151 18.7579 86.122 19.1998 85.8285 20.5233C85.5601 21.7341 84.2202 21.9941 84.0135 23.2174C83.8116 24.4128 85.008 24.8894 84.8249 26.0877C84.6311 27.3564 83.1801 27.4264 83.0248 28.6997C82.8865 29.8329 84.0552 30.236 83.8733 31.3638C83.6848 32.5328 82.1252 33.6873 82.1252 33.6873L80.6578 41.7152" stroke="black" stroke-width="2" stroke-linecap="round" stroke-linejoin="round"/>
<path d="M73.0972 41.4123C75.4951 40.2655 78.7272 40.3697 79.7698 41.4123" stroke="black" stroke-width="2" stroke-linecap="round" stroke-linejoin="round"/>
</svg>
