<svg width="100" height="100" viewBox="0 0 100 100" fill="none" xmlns="http://www.w3.org/2000/svg">
<path d="M74.56 71.8196C78.75 67.1196 84.25 68.5497 81.36 73.3697C77.98 78.9897 73.05 81.4597 71.36 79.2897C69.66 77.0897 71.65 75.0996 74.56 71.8196Z" stroke="black" stroke-width="2" stroke-miterlimit="10" stroke-linecap="round" stroke-linejoin="round"/>
<path d="M71.47 74.9799C71.47 74.9799 65.63 69.5499 64.54 68.1999C63.68 67.1199 64.38 65.7099 65.5 64.4599C66.2 63.6799 67.93 62.16 68.96 62.76C70.64 63.75 76.96 69.52 76.96 69.52" stroke="black" stroke-width="2" stroke-miterlimit="10" stroke-linecap="round" stroke-linejoin="round"/>
<path d="M70.7701 63.9602C72.8801 61.9002 74.9 54.0002 69.47 56.9302C64.22 59.7802 61.7701 63.4202 59.6301 66.3102C57.5001 69.2002 55.9201 74.3402 59.8901 73.3802C62.0801 72.8402 65.6301 69.4103 65.6301 69.4103" stroke="black" stroke-width="2" stroke-miterlimit="10" stroke-linecap="round" stroke-linejoin="round"/>
<path d="M58.12 68.2795C58.12 68.2795 39.13 49.8695 31.64 43.0795C30.29 41.8595 31.89 38.1495 34.49 35.4795C37.09 32.8095 40.63 31.2495 41.91 32.4795C49.21 39.4895 68.62 57.2195 68.62 57.2195" stroke="black" stroke-width="2" stroke-miterlimit="10" stroke-linecap="round" stroke-linejoin="round"/>
<path d="M55.5999 49.5996C54.5199 49.6996 52.5499 50.6596 51.2499 53.1796C50.5899 54.4696 50.3398 55.1296 50.3398 55.1296" stroke="black" stroke-width="2" stroke-miterlimit="10" stroke-linecap="round" stroke-linejoin="round"/>
<path d="M56.0699 53.9004C55.4699 54.2804 55.32 54.8303 55.05 55.2303L56.0699 53.9004Z" fill="black"/>
<path d="M56.0699 53.9004C55.4699 54.2804 55.32 54.8303 55.05 55.2303" stroke="black" stroke-width="2" stroke-miterlimit="10" stroke-linecap="round" stroke-linejoin="round"/>
<path d="M64.0099 52.9805C64.0099 52.9805 60.0398 55.3305 57.8098 57.8905C55.1198 61.0005 53.9199 64.1605 53.9199 64.1605L58.2699 68.3304C58.2699 68.3304 60.8398 64.4804 62.9698 62.0504C64.9698 59.7704 68.6299 57.2205 68.6299 57.2205L64.0099 52.9805Z" fill="black" stroke="black" stroke-width="2" stroke-miterlimit="10" stroke-linecap="round" stroke-linejoin="round"/>
<path d="M50.51 48C50.51 48 49.23 49.12 49.05 49.93L50.51 48Z" fill="black"/>
<path d="M50.51 48C50.51 48 49.23 49.12 49.05 49.93" stroke="black" stroke-width="2" stroke-miterlimit="10" stroke-linecap="round" stroke-linejoin="round"/>
<path d="M48.5301 43.6797C48.5301 43.6797 46.95 44.3497 45.74 45.7597C44.52 47.1697 43.77 49.3697 43.88 49.1597" fill="black"/>
<path d="M48.5301 43.6797C48.5301 43.6797 46.95 44.3497 45.74 45.7597C44.52 47.1697 43.77 49.3697 43.88 49.1597" stroke="black" stroke-width="2" stroke-miterlimit="10" stroke-linecap="round" stroke-linejoin="round"/>
<path d="M43.1301 42.25C42.6501 42.69 42.2402 43.25 41.9302 43.82L43.1301 42.25Z" fill="black"/>
<path d="M43.1301 42.25C42.6501 42.69 42.2402 43.25 41.9302 43.82" stroke="black" stroke-width="2" stroke-miterlimit="10" stroke-linecap="round" stroke-linejoin="round"/>
<path d="M41.7999 37.7598C40.4299 38.4798 39.4899 39.1997 38.5499 40.3997C38.2199 40.8097 37.6299 41.9597 37.3799 42.4097C37.2999 42.5597 37.0599 43.0897 37.1199 42.9897" fill="black"/>
<path d="M41.7999 37.7598C40.4299 38.4798 39.4899 39.1997 38.5499 40.3997C38.2199 40.8097 37.6299 41.9597 37.3799 42.4097C37.2999 42.5597 37.0599 43.0897 37.1199 42.9897" stroke="black" stroke-width="2" stroke-miterlimit="10" stroke-linecap="round" stroke-linejoin="round"/>
<path d="M32.4399 37.6004L29.28 34.0304C29.28 34.0304 29.85 32.6404 30.78 31.6704C31.71 30.7004 33 30.1504 33 30.1504L36.84 33.1704" stroke="black" stroke-width="2" stroke-miterlimit="10" stroke-linecap="round" stroke-linejoin="round"/>
<path d="M30.41 31.77L18 20" stroke="black" stroke-width="2" stroke-miterlimit="10" stroke-linecap="round" stroke-linejoin="round"/>
</svg>
