<svg width="100" height="100" viewBox="0 0 100 100" fill="none" xmlns="http://www.w3.org/2000/svg">
<path d="M73.7658 35.3963C73.7658 35.3963 77.549 44.1309 78.0897 45.6207C78.6305 47.1104 78.8721 48.8414 77.3949 49.2016C76.7331 49.3629 75.9661 49.4076 75.3211 49.4078C74.633 49.408 74.0755 50.0407 74.2209 50.7133C74.5147 52.0721 74.914 54.0212 74.9037 54.5318C74.889 55.3172 74.2704 56.9474 73.5872 57.202C72.9039 57.4565 73.4668 60.6417 73.0782 61.5823C72.6896 62.523 72.0169 64.3511 68.9658 64.4395C67.1643 64.4799 65.8347 64.4127 65.0482 64.3509C64.5667 64.3131 64.1079 64.598 63.9395 65.0507C63.2635 66.8674 61.4513 71.2913 59.5026 72.2852M37.8659 71.9809C37.8659 71.9809 44.6801 67.1318 42.661 57.1094" stroke="black" stroke-width="2" stroke-miterlimit="10" stroke-linecap="round"/>
<path d="M68.7493 72.6887L31.1268 72.1643C30.5746 72.1566 30.1207 72.598 30.113 73.1503L29.9783 82.8159C29.9706 83.3681 30.412 83.822 30.9642 83.8297L68.5867 84.3541C69.1389 84.3618 69.5928 83.9204 69.6005 83.3682L69.7352 73.7025C69.7429 73.1503 69.3015 72.6964 68.7493 72.6887Z" stroke="black" stroke-width="2" stroke-miterlimit="10" stroke-linecap="round"/>
<path d="M68.5618 86.1057L30.9393 85.5813C30.3871 85.5736 29.9457 85.1197 29.9534 84.5675L29.9639 83.8162L69.5861 84.3684L69.5756 85.1198C69.5679 85.672 69.114 86.1134 68.5618 86.1057Z" stroke="black" stroke-width="2" stroke-miterlimit="10" stroke-linecap="round"/>
<path d="M53.0511 55.3174C53.0511 55.3174 52.6928 58.7001 57.1446 60.2021" stroke="black" stroke-width="2" stroke-miterlimit="10" stroke-linecap="round"/>
<path d="M66.8191 42.8281C68.2964 42.8487 69.5051 42.0729 69.5187 41.0954C69.5323 40.1179 68.3458 39.3089 66.8684 39.2883C65.3911 39.2677 64.1823 40.0434 64.1687 41.0209C64.1551 41.9984 65.3417 42.8075 66.8191 42.8281Z" stroke="black" stroke-width="2" stroke-miterlimit="10" stroke-linecap="round"/>
<path d="M48.9634 47.4689C48.9634 47.4689 49.4075 51.7749 47.5681 53.5615C45.7288 55.3481 40.1962 58.3275 38.064 57.3915C35.9317 56.4555 34.8935 53.7209 34.427 50.8853C33.9605 48.0497 32.6142 43.0955 32.5128 42.2415C32.4114 41.3874 31.9371 39.2369 34.2126 37.8439V37.8439C34.337 37.7559 34.3587 37.5786 34.2638 37.4595C33.6674 36.7115 31.8617 34.1841 32.7291 31.9726C33.4199 30.2112 34.6022 29.0542 35.3075 28.4822C35.6409 28.2118 35.8263 27.7794 35.7709 27.3537C35.5758 25.8542 35.394 22.3194 37.5668 20.2132C39.8318 18.0175 42.6169 17.7283 44.0632 17.7724C44.5273 17.7866 44.9799 17.5381 45.2055 17.1323C45.9144 15.8573 47.702 13.2759 50.701 12.9276C53.6192 12.5887 55.6663 13.5268 56.5625 14.0609C56.8861 14.2538 57.2875 14.3075 57.6396 14.1735C58.8953 13.6953 61.9206 12.7005 63.5457 13.506C65.2824 14.3669 66.3659 15.1679 66.995 16.7271C67.2139 17.2696 67.8 17.6144 68.376 17.5122C69.8072 17.2584 72.3325 17.1345 73.6249 19.0123C75.3222 21.4784 75.6677 23.2494 74.347 25.3494C74.1032 25.7371 74.0988 26.2388 74.3503 26.6215C75.42 28.2486 77.7635 32.6334 74.0181 35.2523C70.682 37.5987 67.7838 36.9356 65.6983 35.6911C64.9076 35.2193 63.6447 35.8036 63.4788 36.7093C63.2836 37.775 62.8627 38.8556 61.979 39.2876C61.0118 39.7551 59.794 39.3734 58.793 38.8534C58.0187 38.4512 56.8365 39.0064 56.5614 39.8345C56.0707 41.3121 54.8674 42.7519 51.9253 41.4659" stroke="black" stroke-width="2" stroke-miterlimit="10" stroke-linecap="round"/>
<path d="M51.4915 41.6163C51.4915 41.6163 49.8033 37.223 47.343 38.6636C44.8827 40.1041 45.1583 41.6358 45.8163 42.8919C46.4743 44.1479 48.5169 47.7999 49.9919 48.0445C51.4669 48.2892 53.7868 47.9881 53.9751 46.1663" stroke="black" stroke-width="2" stroke-miterlimit="10" stroke-linecap="round"/>
</svg>
