<svg width="100" height="100" viewBox="0 0 100 100" fill="none" xmlns="http://www.w3.org/2000/svg">
<path d="M29.6204 49.2318C26.4552 47.4353 18.8626 42.7123 18.2466 40.7618C17.4767 38.3236 26.7159 25.4914 28.5123 23.8232C29.9494 22.4886 40.2792 18.4337 40.9599 18.4337C41.6406 18.4337 44.1748 25.2875 49.0381 25.358C55.1173 25.4461 56.3507 18.9101 57.0555 18.4337C57.7604 17.9573 68.2189 21.5529 69.6543 23.3316C70.9785 24.9725 79.5591 34.6829 81.4203 40.377C81.7984 41.5335 78.8362 43.1375 77.3678 44.1067" stroke="black" stroke-width="2" stroke-linecap="round"/>
<path d="M69.3896 23.5957V41.0402" stroke="black" stroke-width="2" stroke-linecap="round"/>
<path d="M29.7564 23.9453C29.7564 33.4394 29.7563 52.5804 29.7563 55.306C29.7563 58.713 28.1207 78.9533 29.756 80.5886C31.3914 82.2239 39.2956 81.4548 43.1114 81.4548C46.9272 81.4548 66.9601 82.6813 68.7317 81.4548C70.149 80.4736 70.1351 72.1157 69.7717 68.9358" stroke="black" stroke-width="2" stroke-linecap="round"/>
<path d="M49.012 42.8504C49.2366 42.1174 65.3777 42.1305 68.2573 42.1841C71.137 42.2378 74.7987 42.5038 76.8947 42.8505C78.0023 43.0337 77.0818 66.7541 76.8947 67.8369C76.7075 68.9196 50.322 68.4199 49.012 67.8369C47.7021 67.2539 48.7314 43.7666 49.012 42.8504Z" stroke="black" stroke-width="2" stroke-linecap="round"/>
<path d="M63.8779 41.475V39.8164" stroke="black" stroke-width="2" stroke-linecap="round"/>
<path d="M40.9004 18.446C42.8682 18.8336 45.984 19.7891 49.1438 19.9264C53.787 20.1283 55.5907 18.5691 57.3796 18.3604" stroke="black" stroke-width="2" stroke-linecap="round"/>
<path d="M64.159 35.6253C64.275 35.2774 64.0909 34.0918 63.4775 33.4443" stroke="black" stroke-width="2" stroke-linecap="round"/>
<path d="M59.6944 32.5254H58.1133" stroke="black" stroke-width="2" stroke-linecap="round"/>
<path d="M53.2151 32.5254H51.1855" stroke="black" stroke-width="2" stroke-linecap="round"/>
<path d="M45.4329 32.5254H43.4033" stroke="black" stroke-width="2" stroke-linecap="round"/>
<path d="M38.6692 33.1035C38.6692 33.1035 36.8535 33.308 36.8535 34.7002" stroke="black" stroke-width="2" stroke-linecap="round"/>
<path d="M36.498 39.2852V40.646" stroke="black" stroke-width="2" stroke-linecap="round"/>
<path d="M36.498 45.8818V47.3285" stroke="black" stroke-width="2" stroke-linecap="round"/>
<path d="M36.498 52.6455V54.5141" stroke="black" stroke-width="2" stroke-linecap="round"/>
<path d="M36.8624 58.876C36.8624 58.876 36.5414 60.7131 38.2244 60.7586" stroke="black" stroke-width="2" stroke-linecap="round"/>
<path d="M42.8232 61.1953C43.078 61.1953 44.3545 61.1953 44.9609 61.1953" stroke="black" stroke-width="2" stroke-linecap="round"/>
<path d="M49.5605 66.6291C51.9899 63.4619 56.7273 56.5372 58.7937 56.3897C60.86 56.2421 64.0211 60.4793 66.3581 63.7696L69.6791 68.3817" stroke="black" stroke-width="2" stroke-linecap="round"/>
<path d="M65.1592 62.0169C66.5737 60.5408 69.6794 57.7548 70.7863 58.419C71.8933 59.0833 75.368 63.2468 76.9669 65.2456" stroke="black" stroke-width="2" stroke-linecap="round"/>
<path d="M68.0474 47.1754C65.0258 48.2544 65.3831 51.3029 68.0474 52.7061C70.7118 54.1093 72.4986 52.5583 73.2887 50.583C74.0788 48.6077 71.7969 45.8365 68.0474 47.1754Z" stroke="black" stroke-width="2" stroke-linecap="round"/>
<path d="M57.7431 56.8334C55.0483 60.0583 49.6189 66.5742 49.46 66.8393L51.9117 68.1645L75.4358 68.5621L76.6949 67.6344L77.1587 65.1826L71.3274 58.6886L68.478 59.0862L65.8274 61.6042L62.2491 58.6886L59.2009 56.502L57.7431 56.8334Z" fill="black"/>
<path d="M48.5787 19.9036L41.623 18.6494L42.1931 21.044L45.4999 24.1797L48.5787 25.491L51.7714 24.9209L55.4202 21.6141L56.6175 18.6494L48.5787 19.9036Z" fill="black"/>
</svg>
