<svg width="100" height="100" viewBox="0 0 100 100" fill="none" xmlns="http://www.w3.org/2000/svg">
<path d="M28.4838 81.8278L29.1288 18.7811C29.1898 14.6585 33.1833 15.6203 38.0767 15.662C41.7677 15.9045 45.6027 16.0865 49.5815 16.208C56.6337 16.3916 66.0812 16.3128 72.3252 16.0236C74.08 15.9291 75.5471 15.9555 77.3176 17.7505C78.5631 19.0214 77.9093 24.7138 77.9957 27.6571C78.1334 40.4658 77.7194 63.7997 77.8571 76.6084C77.7961 80.7311 78.8997 84.1609 73.9367 84.1146C68.3607 83.8182 57.3297 83.5131 51.104 83.5238C46.35 83.4912 41.7958 83.6116 37.4505 83.7458C36.8237 83.7046 28.4869 84.9755 28.4838 81.8278Z" stroke="black" stroke-width="2" stroke-miterlimit="10"/>
<path d="M32.131 77.1496L32.6734 24.6732C32.6845 21.1876 36.1854 22.0713 40.3989 22.0576C43.5809 22.2667 46.9123 22.4129 50.3207 22.4916C56.4098 22.6737 64.5522 22.555 69.9418 22.3281C71.47 22.2832 72.7765 22.2964 74.2772 23.775C75.3678 24.8635 74.8372 29.6223 74.8974 32.023C74.9945 42.7061 74.6613 62.1493 74.7631 72.76C74.752 76.2456 75.6562 79.0649 71.3751 79.0016C66.525 78.7556 57.0276 78.4947 51.6522 78.5047C47.5881 78.4556 43.5869 78.5559 39.8749 78.6752C39.2916 78.7095 32.1046 79.7625 32.131 77.1496Z" stroke="black" stroke-width="2" stroke-miterlimit="10"/>
<path d="M44.458 56.6504L63.0001 56.8512" stroke="black" stroke-width="2" stroke-miterlimit="10" stroke-linecap="round"/>
<path d="M46.3584 61.3018L60.8687 61.4512" stroke="black" stroke-width="2" stroke-miterlimit="10" stroke-linecap="round"/>
<path d="M74.5983 22.6255L74.5983 40.1835L64.5083 40.1834C64.5083 40.1834 64.5083 27.7267 53.4162 27.407C42.3242 27.0874 42.9442 40.1833 42.9442 40.1833L32.3928 40.1833L32.3928 22.6255L74.5983 22.6255Z" fill="black"/>
<circle cx="53.5" cy="38.5" r="11.5" stroke="black" stroke-width="2" stroke-miterlimit="10"/>
<path d="M47.6992 70.0322H59.76" stroke="black" stroke-width="6" stroke-miterlimit="10" stroke-linecap="round"/>
</svg>
