<svg width="100" height="100" viewBox="0 0 100 100" fill="none" xmlns="http://www.w3.org/2000/svg">
<path d="M23.2719 47.4977C23.2719 47.4977 17.3719 33.5278 30.1159 24.1978C42.8599 14.8578 51.7249 17.9977 56.6129 21.2377C61.3669 24.3777 69.5199 32.6477 70.7049 40.7877C71.6569 47.3177 69.6399 49.9477 68.7239 53.6077C67.3939 58.9177 66.8969 60.0678 68.5859 63.4178" stroke="black" stroke-width="2" stroke-miterlimit="10" stroke-linejoin="round"/>
<path d="M61.8411 69.5681C58.9071 67.1481 55.5701 66.7581 49.4491 67.2981C43.3281 67.8381 38.6281 65.688 37.1791 64.718C35.7311 63.748 34.2451 62.748 34.2451 62.748" stroke="black" stroke-width="2" stroke-miterlimit="10" stroke-linejoin="round"/>
<path d="M53.7373 57.7872C53.7373 57.7872 68.7633 79.8172 69.8233 81.4072C70.8833 82.9872 74.3653 82.4073 76.6363 80.3173C79.0293 78.1173 81.5523 75.7172 78.5883 73.1472C75.6253 70.5872 58.9333 53.8672 58.9333 53.8672" stroke="black" stroke-width="2" stroke-miterlimit="10" stroke-linejoin="round"/>
<path d="M23.6762 61.8276C17.5382 56.9276 20.3062 50.3376 23.2152 47.7876C26.1232 45.2376 33.6492 44.2075 37.1892 48.9575C39.7792 52.4375 39.0612 57.3276 36.5152 60.8076C34.9552 62.9276 28.6062 65.7676 23.6762 61.8276Z" stroke="black" stroke-width="2" stroke-miterlimit="10" stroke-linejoin="round"/>
<path d="M26.0377 46.2676C19.8377 49.5376 19.4067 55.7976 22.6977 59.9476C25.9887 64.0976 31.1737 62.8276 33.1227 62.1576C35.0717 61.4776 37.6457 59.5676 38.4887 56.6376" stroke="black" stroke-width="2" stroke-miterlimit="10" stroke-linejoin="round"/>
<path d="M42.9844 67.108C42.9844 67.108 50.4654 60.088 57.3574 54.368C59.2184 52.828 59.8094 51.978 63.2594 49.498C65.2594 48.058 70.8044 44.498 70.8044 44.498" stroke="black" stroke-width="2" stroke-miterlimit="10" stroke-linejoin="round"/>
<path d="M33.2773 63.1475C33.2773 63.1475 37.2033 66.6774 42.4283 67.6274C47.6523 68.5874 50.6963 67.9474 53.3843 68.1174C56.0733 68.2874 59.3623 68.1075 61.4233 70.5575C63.4843 72.9975 67.7763 80.1475 68.3243 80.9275C68.8733 81.6975 70.2233 82.3175 71.7043 82.2875" stroke="black" stroke-width="2" stroke-miterlimit="10" stroke-linejoin="round"/>
<path d="M27.6611 58.6279C28.2761 59.0979 28.7081 59.0279 29.0261 59.1079" stroke="black" stroke-width="2" stroke-miterlimit="10" stroke-linecap="round" stroke-linejoin="round"/>
<path d="M27.8946 49.0176C26.3326 49.7776 25.1336 50.8675 24.5936 52.4775C24.0526 54.0975 25.1656 56.0875 25.1656 56.0875" stroke="black" stroke-width="2" stroke-miterlimit="10" stroke-linecap="round" stroke-linejoin="round"/>
<path d="M22.5091 48.6372C21.6631 45.6472 21.0021 41.9772 21.5311 37.7772C22.0611 33.5872 24.8861 29.6172 24.8861 29.6172" stroke="black" stroke-width="2" stroke-miterlimit="10" stroke-linejoin="round"/>
</svg>
