<svg width="100" height="100" viewBox="0 0 100 100" fill="none" xmlns="http://www.w3.org/2000/svg">
<path opacity="0.967308" d="M49.3439 31.8826C49.3439 31.8826 38.368 31.3716 29.366 38.7416C20.365 46.1116 7.20497 69.2106 24.327 70.1056C37.589 70.7996 36.032 48.2416 50.285 41.5886C64.983 34.7276 78.041 38.6286 80.923 48.4676C83.805 58.3066 77.8529 60.4036 74.5659 61.1356C60.2829 64.3196 26.674 69.9686 26.674 69.9686" stroke="black" stroke-width="2" stroke-miterlimit="10" stroke-linecap="round" stroke-linejoin="round"/>
<path opacity="0.967308" d="M45.4928 58.5889C45.8388 62.2969 44.7618 66.6349 42.2148 67.2589" stroke="black" stroke-width="2" stroke-miterlimit="10" stroke-linecap="round" stroke-linejoin="round"/>
<path opacity="0.967308" d="M55.111 56.7947C55.457 60.5027 54.381 64.8407 51.833 65.4637" stroke="black" stroke-width="2" stroke-miterlimit="10" stroke-linecap="round" stroke-linejoin="round"/>
<path opacity="0.967308" d="M62.2849 55.53C62.6309 59.238 61.5538 63.576 59.0068 64.199" stroke="black" stroke-width="2" stroke-miterlimit="10" stroke-linecap="round" stroke-linejoin="round"/>
<path opacity="0.967308" d="M70.8463 53.8945C71.1933 57.6025 70.1163 61.9406 67.5693 62.5646" stroke="black" stroke-width="2" stroke-miterlimit="10" stroke-linecap="round" stroke-linejoin="round"/>
<path opacity="0.967308" d="M39.6879 52.516C39.1669 47.641 34.3909 48.43 32.5669 49.74C28.2179 52.863 31.4159 57.2241 31.4159 57.2241C31.4159 57.2241 22.1859 58.122 22.6769 64.303C23.1679 70.483 28.7859 69.408 28.7859 69.408" stroke="black" stroke-width="2" stroke-miterlimit="10" stroke-linecap="round" stroke-linejoin="round"/>
<g opacity="0.967308">
<path d="M31.6445 69.1284C31.6445 69.1284 66.1675 65.6394 77.8045 63.3424C89.4435 61.0454 79.8725 59.4824 78.5575 59.7094C77.2425 59.9364 78.5235 60.4174 70.0995 62.1004C68.1645 62.4874 36.3785 68.3433 36.3785 68.3433" fill="black"/>
<path d="M31.6445 69.1284C31.6445 69.1284 66.1675 65.6394 77.8045 63.3424C89.4435 61.0454 79.8725 59.4824 78.5575 59.7094C77.2425 59.9364 78.5235 60.4174 70.0995 62.1004C68.1645 62.4874 36.3785 68.3433 36.3785 68.3433" stroke="black" stroke-width="2" stroke-miterlimit="10" stroke-linecap="round" stroke-linejoin="round"/>
</g>
<path opacity="0.967308" d="M66.3174 37.7911C66.3174 37.7911 69.2784 34.2731 65.7554 31.1241C62.2334 27.9751 57.3534 30.8371 57.3534 30.8371C57.3534 30.8371 55.7214 27.8351 51.8334 29.5061C47.9454 31.1761 51.0804 35.5791 51.0804 35.5791C51.0804 35.5791 44.9874 33.0721 44.0254 38.2061C43.0624 43.3401 47.9354 42.7241 47.9354 42.7241" stroke="black" stroke-width="2" stroke-miterlimit="10" stroke-linecap="round" stroke-linejoin="round"/>
<path opacity="0.967308" d="M40.8115 49.2729C41.7825 48.8429 45.3554 43.5709 45.3554 43.5709C45.3554 43.5709 44.1854 41.5569 43.2294 40.5759C39.4044 36.6489 33.7564 42.0759 34.3024 44.7459C34.8474 47.4149 39.5165 49.8459 40.8115 49.2729Z" stroke="black" stroke-width="2" stroke-miterlimit="10" stroke-linecap="round" stroke-linejoin="round"/>
<path opacity="0.967308" d="M67.2998 33.0104C67.2998 33.0104 72.3608 30.9293 74.9318 34.2653C77.5618 37.6773 75.5768 40.7313 75.5768 40.7313" stroke="black" stroke-width="2" stroke-miterlimit="10" stroke-linecap="round" stroke-linejoin="round"/>
</svg>
