<svg width="100" height="100" viewBox="0 0 100 100" fill="none" xmlns="http://www.w3.org/2000/svg">
<path d="M21.8566 43.3635C26.3303 29.5164 39.9103 21.9696 48.3247 19.7601C64.9676 16.5647 69.9898 25.7935 70.9871 32.4457C72.2484 40.859 67.8511 65.184 45.4138 69.3995C23.445 73.527 16.2646 60.6724 21.8566 43.3635Z" stroke="black" stroke-width="2" stroke-linecap="round"/>
<path d="M20.0864 55.5645C20.4778 60.9878 21.92 73.2773 36.7757 74.5343C60.9903 76.5832 69.9424 55.8963 71.7615 52.7478C73.5806 49.5994 82.7026 26.3898 60.2212 19.8125" stroke="black" stroke-width="2" stroke-linecap="round"/>
<path d="M35.9371 75.3914C35.827 77.9232 38.7645 83.2187 44.049 82.609C47.5193 82.2086 50.3134 78.2392 49.211 73.692" stroke="black" stroke-width="2" stroke-linecap="round"/>
<path d="M20.3555 61.4982C18.793 63.6671 15.9186 69.473 19.165 72.7195C22.4114 75.9659 26.6815 74.2587 28.5472 72.7195" stroke="black" stroke-width="2" stroke-linecap="round"/>
<path d="M59.4316 68.7441C61.8705 70.9662 66.8255 72.6782 70.0547 68.4088C72.5477 65.1128 71.9515 62.2945 69.2958 58.5005" stroke="black" stroke-width="2" stroke-linecap="round"/>
<path d="M77.5413 51.0214C76.9778 53.5947 75.2628 58.2118 71.6642 63.0762M26.9058 74.0918C28.2202 75.2034 28.4574 75.5684 31.5267 76.8338C31.9334 77.0015 33.7493 77.5823 36.4766 77.9962M49.6221 77.7136C53.4576 76.9337 57.5453 75.4282 61.5087 72.7583C62.2508 72.2584 62.9618 71.7458 63.6429 71.2232" stroke="black" stroke-width="2" stroke-linecap="round"/>
<path d="M29.3756 72.7092L27.2344 74.1367L28.4939 75.3962L35.7152 78.3351V74.7665L29.3756 72.7092Z" fill="black"/>
<path d="M59.1718 68.8734L49.2339 73.7254V78.0514L59.5225 74.1931L63.2054 71.0363L59.1718 68.8734Z" fill="black"/>
<path d="M73.252 50.7505C78.997 51.5093 82.5672 49.0325 82.3031 44.4092C82.0389 39.7859 79.4305 37.797 75.6909 37.0925" stroke="black" stroke-width="2" stroke-linecap="round"/>
<path d="M69.043 58.1777L72.9763 50.7524L77.3913 51.1136L74.1804 58.9001L71.7722 62.1511L69.043 58.1777Z" fill="black"/>
<path d="M62.792 20.1284C64.3881 18.4773 68.6509 15.7048 72.5477 18.6108C76.4444 21.5168 74.6816 26.7379 73.3606 28.6918" stroke="black" stroke-width="2" stroke-linecap="round"/>
<path d="M72.7236 28.2501C73.5621 29.3402 75.487 31.9346 77.2716 37.3461" stroke="black" stroke-width="2" stroke-linecap="round"/>
<path d="M26.3193 45.278C25.8247 46.5694 24.918 49.8119 25.2477 52.4498" stroke="black" stroke-width="2" stroke-linecap="round"/>
<path d="M27.6958 41.2322C27.8422 40.8297 28.0169 40.3864 28.2882 40.0698" stroke="black" stroke-width="2" stroke-linecap="round"/>
</svg>
