<svg width="100" height="100" viewBox="0 0 100 100" fill="none" xmlns="http://www.w3.org/2000/svg">
<g clip-path="url(#clip0_65_20591)">
<path d="M17.882 33.6514C17.2718 33.9999 9.87048 49.3862 14.9181 61.4446C18.4922 69.983 21.5433 78.2599 35.4912 81.3965C49.4391 84.533 64.4331 80.351 71.5814 66.8464C78.7297 53.3419 76.4632 38.4433 69.4892 29.9049C62.5153 21.3666 47.3593 13.5558 33.0503 19.9726C21.9456 24.9524 17.882 33.6514 17.882 33.6514Z" stroke="black" stroke-width="2" stroke-miterlimit="10" stroke-linecap="round"/>
<path d="M28.2142 39.5106C27.7783 39.6849 23.2401 49.4448 26.2091 57.1972C28.2142 62.4319 30.5679 67.9137 39.8083 69.8305C49.0488 71.7473 58.8995 69.2206 63.6069 60.5951C68.3144 51.9696 66.8324 42.56 62.2121 37.0711C57.5919 31.5821 48.3481 27.385 38.2392 30.798C31.1201 33.2015 28.2142 39.5106 28.2142 39.5106Z" stroke="black" stroke-width="2" stroke-miterlimit="10" stroke-linecap="round"/>
<path d="M39.5082 46.3127C39.3339 46.3999 37.5026 50.2478 38.6304 52.8597C39.6647 55.2548 40.4671 56.855 43.8669 57.552C47.2667 58.249 50.9281 57.2906 52.7587 54.067C54.5022 50.8433 53.9792 47.3582 52.2357 45.3543C50.4922 43.3504 46.528 41.1195 43.3025 42.862C40.0771 44.6045 39.5082 46.3127 39.5082 46.3127Z" stroke="black" stroke-width="2" stroke-miterlimit="10" stroke-linecap="round"/>
<path d="M46.6211 49.9999L74.547 39.9841" stroke="black" stroke-width="2" stroke-miterlimit="10" stroke-linecap="round"/>
<path fill-rule="evenodd" clip-rule="evenodd" d="M93.4871 25.499L92.9262 27.3489C92.1452 29.9248 91.3632 32.4343 90.518 35.0006L100.106 38.6206L78.9137 45.6467L70.5933 41.6916L73.0743 34.55L73.0829 34.5285C73.5141 33.4513 74.3005 32.5226 75.4708 32.0548L75.4812 32.0506L75.4832 32.0499L75.4832 32.0499L75.4833 32.0499C77.988 31.0808 80.4976 30.1099 83.0777 29.1386C82.9355 29.5654 82.7837 30.02 82.6306 30.4764C82.3149 31.4176 81.9947 32.364 81.743 33.0903C81.6169 33.4541 81.5096 33.7581 81.4292 33.9772C81.3888 34.0875 81.3575 34.1699 81.3354 34.2252L81.3225 34.2567C81.0836 34.705 81.2193 35.2701 81.6508 35.5579C82.1102 35.8643 82.7311 35.7403 83.0376 35.2809C83.0924 35.1987 83.1292 35.1165 83.1397 35.0931L83.1397 35.0931L83.1408 35.0905C83.1585 35.0511 83.176 35.0088 83.1922 34.9684C83.225 34.8864 83.264 34.7829 83.307 34.6658C83.3935 34.4298 83.5055 34.1124 83.6327 33.7452C83.8877 33.0093 84.2105 32.0553 84.5267 31.1124C84.8433 30.1689 85.1542 29.2338 85.386 28.5348C85.4163 28.4434 85.4453 28.356 85.4727 28.2731C85.5855 28.2328 85.6982 28.1925 85.8108 28.1522L85.8108 28.1522C87.7748 27.4497 89.716 26.7554 91.6532 26.11L93.4871 25.499ZM81.3162 34.2714C81.3122 34.2804 81.3128 34.2782 81.3176 34.2683L81.3162 34.2714Z" fill="black"/>
<path fill-rule="evenodd" clip-rule="evenodd" d="M15.4492 62.7171C18.8228 70.7942 22.2375 78.416 35.4911 81.3964C49.439 84.5329 64.4329 80.3509 71.5812 66.8463C75.612 59.2314 76.6493 51.1732 75.5369 44.062L76.6557 43.9233C79.4909 60.6782 75.3617 67.5863 68.4085 75.2124C59.8392 84.6104 48.135 84.4327 42.3313 84.3379C32.7914 84.1973 26.0552 79.6896 19.9103 71.9911C17.7271 69.256 16.3357 65.9033 15.4492 62.7171Z" fill="black"/>
<path d="M15.4492 62.7171L16.372 62.3317L14.4858 62.9852L15.4492 62.7171ZM35.4911 81.3964L35.2717 82.372L35.4911 81.3964ZM71.5812 66.8463L72.4651 67.3142V67.3142L71.5812 66.8463ZM75.5369 44.062L75.4139 43.0696L74.3894 43.1966L74.549 44.2165L75.5369 44.062ZM76.6557 43.9233L77.6417 43.7565L77.4821 42.8133L76.5327 42.9309L76.6557 43.9233ZM68.4085 75.2124L69.1474 75.8862L69.1474 75.8862L68.4085 75.2124ZM42.3313 84.3379L42.3476 83.3381L42.3461 83.3381L42.3313 84.3379ZM19.9103 71.9911L19.1287 72.615L19.9103 71.9911ZM14.5265 63.1025C16.2075 67.1272 17.9599 71.2037 21.0189 74.6336C24.1069 78.0962 28.4677 80.842 35.2717 82.372L35.7105 80.4208C29.2609 78.9704 25.2875 76.4151 22.5115 73.3024C19.7063 70.1571 18.0646 66.3842 16.372 62.3317L14.5265 63.1025ZM35.2717 82.372C49.5222 85.5766 65.0463 81.3297 72.4651 67.3142L70.6974 66.3785C63.8196 79.3721 49.3557 83.4892 35.7105 80.4208L35.2717 82.372ZM72.4651 67.3142C76.6003 59.5018 77.6694 51.2244 76.5249 43.9075L74.549 44.2165C75.6291 51.1219 74.6237 58.9609 70.6974 66.3785L72.4651 67.3142ZM76.5327 42.9309L75.4139 43.0696L75.6599 45.0544L76.7787 44.9157L76.5327 42.9309ZM69.1474 75.8862C72.6555 72.0385 75.5409 68.278 77.154 63.2994C78.7669 58.3216 79.0758 52.2314 77.6417 43.7565L75.6698 44.0902C77.0708 52.3701 76.7327 58.1114 75.2514 62.6829C73.7704 67.2536 71.1146 70.7602 67.6695 74.5387L69.1474 75.8862ZM42.315 85.3378C48.1014 85.4323 60.2466 85.6478 69.1474 75.8862L67.6695 74.5386C59.4319 83.573 48.1687 83.4331 42.3476 83.3381L42.315 85.3378ZM19.1287 72.615C25.393 80.463 32.3845 85.1914 42.3166 85.3378L42.3461 83.3381C33.1983 83.2031 26.7174 78.9163 20.6918 71.3673L19.1287 72.615ZM14.4858 62.9852C15.393 66.2457 16.832 69.7376 19.1287 72.615L20.6918 71.3673C18.6221 68.7743 17.2784 65.5608 16.4126 62.4491L14.4858 62.9852Z" fill="black"/>
</g>
<defs>
<clipPath id="clip0_65_20591">
<rect width="100" height="100" fill="white" transform="translate(100 100) rotate(-180)"/>
</clipPath>
</defs>
</svg>
