<svg width="100" height="100" viewBox="0 0 100 100" fill="none" xmlns="http://www.w3.org/2000/svg">
<path d="M64.5572 34.4805C66.537 36.7263 70.7804 43.5228 71.9151 52.7423C73.3335 64.2667 73.5108 71.3586 72.447 73.043C71.3832 74.7273 59.1496 78.8052 44.5224 78.1846C29.8953 77.5641 22.6261 72.8657 22.2715 71.004C21.9169 69.1424 23.3353 51.7671 24.6651 47.4233" stroke="black" stroke-width="2" stroke-linecap="round"/>
<path d="M22.5063 66.5676C24.8658 68.6649 32.6046 72.9222 44.6847 73.1739C59.7849 73.4885 70.4809 70.6573 72.8403 68.1406" stroke="black" stroke-width="2" stroke-linecap="round"/>
<path d="M67.7476 38.6942C68.6939 38.2211 71.6689 37.3103 75.9983 37.4522C81.4101 37.6296 86.3783 42.9528 84.8701 49.4292C83.3619 55.9056 74.1596 60.7634 73.095 64.2234" stroke="black" stroke-width="2" stroke-linecap="round"/>
<path d="M66.3564 48.8485C66.9405 50.2721 67.8017 52.8932 67.8017 56.5679" stroke="black" stroke-width="2" stroke-linecap="round"/>
<path d="M64.2725 43.7838C64.4884 44.1978 64.8231 44.7559 64.8663 45.1878" stroke="black" stroke-width="2" stroke-linecap="round"/>
<path d="M70.0815 43.8758C70.7045 42.9654 72.8272 41.3601 76.3347 42.2226C80.7191 43.3008 81.6534 48.9789 78.994 52.1414C76.8666 54.6714 73.843 57.3164 72.5971 58.3227" stroke="black" stroke-width="2" stroke-linecap="round"/>
<path d="M23.9523 51.003C23.2102 48.0583 21.137 42.4851 18.2067 40.8764C14.2876 38.7247 14.5441 37.6445 15.3341 36.5672C16.1241 35.4899 20.2176 34.628 22.5159 36.0644C24.3544 37.2136 26.3792 39.3708 27.0256 40.3763" stroke="black" stroke-width="2" stroke-linecap="round"/>
<path d="M15.2671 36.9821C15.5638 38.103 23.542 37.4105 22.0255 35.9929" stroke="black" stroke-width="2" stroke-linecap="round"/>
<path d="M27.1821 40.0442C29.3668 36.2691 31.1103 34.6498 31.6801 33.7732" stroke="black" stroke-width="2" stroke-linecap="round"/>
<path d="M43.7649 24.0255C37.9608 24.7725 33.6364 30.0116 31.9124 32.5019C30.9126 33.7999 34.2828 36.3808 46.5664 36.8118C58.85 37.2428 64.453 35.1596 65.0277 34.0821C65.6024 33.0046 61.7234 27.9765 59.1374 26.2525C56.5513 24.5285 51.0201 23.0917 43.7649 24.0255Z" stroke="black" stroke-width="2" stroke-linecap="round"/>
<path d="M63.3863 31.2208C63.1913 31.5399 61.9396 32.3057 58.4932 32.8164" stroke="black" stroke-width="2" stroke-linecap="round"/>
<path d="M33.8164 30.3929C34.4099 31.042 37.2213 32.4404 43.7194 32.8409" stroke="black" stroke-width="2" stroke-linecap="round"/>
<path d="M45.2837 19.8178C44.4157 20.4885 45.3824 23.7798 45.9743 25.3415C46.9114 27.2157 50.4622 26.3772 51.0541 26.1306C51.6459 25.884 53.2241 21.1492 52.4843 20.1136C51.7445 19.0779 46.3688 18.9793 45.2837 19.8178Z" fill="black" stroke="black" stroke-width="2" stroke-linecap="round"/>
<path d="M32.7513 78.4486C26.5888 76.576 22.2393 72.6195 22.2393 71.7279L24.2174 73.4706C25.7187 74.3792 29.4086 76.3862 32.1583 77.1447C35.5954 78.0929 42.0548 79.041 51.4179 79.041C60.7811 79.041 68.0108 75.6632 70.9739 74.5965C73.9369 73.5298 72.546 71.6045 73.1326 71.7722C74.2547 72.0928 75.4784 72.4632 76.5447 73.2336C78.1446 74.3894 78.204 76.9669 69.2557 79.041C60.3074 81.1152 43.4774 81.7079 32.7513 78.4486Z" fill="black" stroke="black" stroke-width="2"/>
<path d="M17.6364 35.1183L14.8564 35.9373V37.1252L16.5665 37.905L19.978 37.7765L22.4886 36.7037L23.3924 35.9373L20.681 34.8645L17.6364 35.1183Z" fill="black"/>
</svg>
