<svg width="100" height="100" viewBox="0 0 100 100" fill="none" xmlns="http://www.w3.org/2000/svg">
<path d="M44.4759 52.9482L44.578 58.4453C44.578 58.4453 53.6549 73.7133 57.7519 80.3703C58.5909 81.7343 56.5869 83.7352 54.4199 80.2052C51.1029 74.8022 44.13 64.2482 44.13 64.2482C44.13 64.2482 44.8859 79.2963 44.3269 79.7863C43.7669 80.2753 40.7269 80.7352 40.6569 79.0932C40.5869 77.4502 40.7519 64.5063 40.7519 64.5063C40.7519 64.5063 32.6219 79.8543 31.9589 81.0943C31.1549 82.5973 27.5699 81.6853 29.0379 79.6933C30.5059 77.7013 37.61 64.4772 38.724 62.4122C39.205 61.5202 40.8059 58.1203 40.8059 58.1203L41.0499 53.2272C41.0499 53.2272 43.0779 53.7862 44.4759 52.9482Z" stroke="black" stroke-width="2" stroke-miterlimit="10" stroke-linejoin="round"/>
<path d="M42.661 48.9463C42.67 48.9643 42.68 48.9833 42.689 49.0023" stroke="black" stroke-width="2" stroke-miterlimit="10" stroke-linecap="round" stroke-linejoin="round"/>
<path d="M46.706 49.2526C47.405 42.9576 38.7539 44.0796 37.7959 48.3906C36.8379 52.7016 45.94 56.1506 46.706 49.2526Z" stroke="black" stroke-width="2" stroke-miterlimit="10" stroke-linejoin="round"/>
<path d="M29.061 43.3438L25.0521 45.9408L23.5701 44.0278L27.09 40.8828L29.061 43.3438Z" stroke="black" stroke-width="2" stroke-miterlimit="10" stroke-linejoin="round"/>
<path d="M25.8242 48.0817L22.0002 42.8037" stroke="black" stroke-width="2" stroke-miterlimit="10" stroke-linecap="round" stroke-linejoin="round"/>
<path d="M38.8546 38.8027L41.9746 44.8737C41.9746 44.8737 40.2406 45.3647 39.6336 45.9137C39.0276 46.4627 36.4846 40.3367 36.4846 40.3367L38.8546 38.8027Z" stroke="black" stroke-width="2" stroke-miterlimit="10" stroke-linejoin="round"/>
<path d="M50.8279 30.756L29.9958 44.456L26.1908 39.553C26.1908 39.553 43.1088 22.436 44.4588 22.314C45.8088 22.192 52.3169 29.568 50.8279 30.756Z" stroke="black" stroke-width="2" stroke-miterlimit="10" stroke-linejoin="round"/>
<path d="M48.0957 32.6076C48.0957 32.6076 46.7517 29.9576 45.0907 28.0286C43.4297 26.0996 41.4517 24.8906 41.4517 24.8906" stroke="black" stroke-width="2" stroke-miterlimit="10" stroke-linejoin="round"/>
<path d="M71.599 34.1475C71.599 34.1475 72.377 37.3095 73.938 39.1095C75.499 40.9095 77.844 41.3475 77.844 41.3475C77.844 41.3475 75.393 41.8085 73.924 43.8845C72.455 45.9595 71.967 49.6485 71.967 49.6485C71.967 49.6485 71.533 46.0585 70.045 43.9095C68.557 41.7605 66.016 41.0535 66.016 41.0535C66.016 41.0535 68.628 41.0355 70.024 39.3095C71.42 37.5825 71.599 34.1475 71.599 34.1475Z" stroke="black" stroke-width="2" stroke-miterlimit="10" stroke-linejoin="round"/>
<path d="M60.4839 27.567C60.4839 27.567 60.5029 25.859 58.9209 24.077C57.3399 22.295 55.9389 21.921 55.9389 21.921C55.9389 21.921 57.5829 22.209 59.0279 20.116C60.4739 18.024 60.4039 17 60.4039 17C60.4039 17 60.5149 18.01 62.0269 20.141C63.5389 22.273 65.1599 22.171 65.1599 22.171C65.1599 22.171 63.4029 22.336 62.0269 24.079C60.6509 25.821 60.4839 27.567 60.4839 27.567Z" fill="black" stroke="black" stroke-width="2" stroke-miterlimit="10" stroke-linejoin="round"/>
</svg>
