<svg width="100" height="100" viewBox="0 0 100 100" fill="none" xmlns="http://www.w3.org/2000/svg">
<path d="M28.1863 25.3167C28.2763 15.5177 42.1963 15.3347 42.3763 26.1407C42.5263 34.8587 42.4663 61.2127 42.4663 61.2127C42.4663 61.2127 48.2864 67.5227 47.6464 72.5227C47.1864 76.0947 43.4564 82.8167 36.3964 82.9097C27.4364 83.0277 23.3764 75.9617 23.0264 72.2327C22.5664 67.3637 28.2764 61.4867 28.2764 61.4867C28.2764 61.4867 28.0963 33.9677 28.1863 25.3167Z" stroke="black" stroke-width="2" stroke-miterlimit="10" stroke-linejoin="round"/>
<path d="M32.3761 25.5409C32.4161 21.6019 38.0161 21.5279 38.0861 25.8729C38.1461 29.3779 38.1961 67.2629 38.1961 67.2629C38.1961 67.2629 40.5461 69.7999 40.2861 71.8109C40.0961 73.2469 38.5962 75.9499 35.7662 75.9879C32.1562 76.0349 30.5262 73.1939 30.3862 71.6939C30.1962 69.7369 32.4961 67.3739 32.4961 67.3739C32.4961 67.3739 32.3461 29.0199 32.3761 25.5409Z" stroke="black" stroke-width="2" stroke-miterlimit="10" stroke-linejoin="round"/>
<path d="M32.6161 36.7648L37.7661 36.7178L38.0961 67.2258C38.0961 67.2258 40.2461 69.5558 40.0161 71.4028C39.8461 72.7218 38.4661 75.2038 35.8561 75.2388C32.5461 75.2818 31.046 72.6728 30.916 71.2958C30.746 69.4978 32.8561 67.3268 32.8561 67.3268L32.6161 36.7648Z" fill="black" stroke="black" stroke-width="2" stroke-miterlimit="10" stroke-linejoin="round"/>
<path d="M54.9369 50.955C54.8969 46.872 58.2769 43.525 62.4969 43.48C66.7069 43.435 70.1669 46.709 70.2069 50.791C70.2469 54.874 66.867 58.221 62.657 58.266C58.437 58.311 54.9769 55.037 54.9369 50.955Z" stroke="black" stroke-width="2" stroke-miterlimit="10" stroke-linejoin="round"/>
<path d="M57.5569 45.301C56.5969 46.087 53.247 51.416 57.107 55.308C60.957 59.2 66.9169 57.837 68.9569 54.927" stroke="black" stroke-width="2" stroke-miterlimit="10" stroke-linecap="round" stroke-linejoin="round"/>
<path d="M63.7473 64.1409C63.7473 63.3769 63.6973 62.6419 63.6973 61.8809" stroke="black" stroke-width="2" stroke-miterlimit="10" stroke-linecap="round" stroke-linejoin="round"/>
<path d="M53.2168 60.4667C53.3868 60.1337 53.8169 59.5497 54.1469 59.3857" stroke="black" stroke-width="2" stroke-miterlimit="10" stroke-linecap="round" stroke-linejoin="round"/>
<path d="M72.8262 56.9678C72.8262 56.9678 73.9362 57.8458 74.4462 58.0978" stroke="black" stroke-width="2" stroke-miterlimit="10" stroke-linecap="round" stroke-linejoin="round"/>
<path d="M48.5967 50.8838H50.6567" stroke="black" stroke-width="2" stroke-miterlimit="10" stroke-linecap="round" stroke-linejoin="round"/>
<path d="M73.9062 49.2615C74.6263 49.2615 76.4662 49.2615 76.4662 49.2615" stroke="black" stroke-width="2" stroke-miterlimit="10" stroke-linecap="round" stroke-linejoin="round"/>
<path d="M52.877 40.0225C53.557 40.3645 54.0569 41.5005 54.5969 42.0375" stroke="black" stroke-width="2" stroke-miterlimit="10" stroke-linecap="round" stroke-linejoin="round"/>
<path d="M70.4668 41.3985C70.9868 40.8735 71.3368 40.2385 71.8468 39.7275" stroke="black" stroke-width="2" stroke-miterlimit="10" stroke-linecap="round" stroke-linejoin="round"/>
<path d="M62.3066 36.7295C62.3066 37.4665 62.3066 38.2045 62.3066 38.9415" stroke="black" stroke-width="2" stroke-miterlimit="10" stroke-linecap="round" stroke-linejoin="round"/>
</svg>
