<svg width="100" height="100" viewBox="0 0 100 100" fill="none" xmlns="http://www.w3.org/2000/svg">
<path d="M70.707 45.6096L75.067 42.2266" stroke="black" stroke-width="2" stroke-miterlimit="10" stroke-linecap="round" stroke-linejoin="round"/>
<path d="M60.2559 46.1017L62.6458 41.9287L65.7858 45.7807L70.6259 45.5997L68.5358 50.0177L70.5358 54.8387L65.7958 54.8107L62.9658 58.7327L60.2659 54.7887L55.6558 54.0497L57.6158 50.3117L54.6758 46.4087L60.2559 46.1017Z" stroke="black" stroke-width="2" stroke-miterlimit="10" stroke-linecap="round" stroke-linejoin="round"/>
<path d="M62.8368 58.4573C62.8368 58.4573 62.7468 62.3563 62.7168 63.4203" stroke="black" stroke-width="2" stroke-miterlimit="10" stroke-linecap="round" stroke-linejoin="round"/>
<path d="M64.5168 61.9184L62.7968 60.6624L60.9668 62.3154" stroke="black" stroke-width="2" stroke-miterlimit="10" stroke-linecap="round" stroke-linejoin="round"/>
<path d="M70.4766 54.7832L74.4265 56.6252" stroke="black" stroke-width="2" stroke-miterlimit="10" stroke-linecap="round" stroke-linejoin="round"/>
<path d="M74.5759 54.4373L72.0859 55.6472L72.746 57.8152" stroke="black" stroke-width="2" stroke-miterlimit="10" stroke-linecap="round" stroke-linejoin="round"/>
<path d="M55.5568 54.1062C55.5568 54.1062 52.2568 56.2322 51.4668 56.7302" stroke="black" stroke-width="2" stroke-miterlimit="10" stroke-linecap="round" stroke-linejoin="round"/>
<path d="M51.7969 54.4792L54.377 54.8813C54.377 54.8813 53.9669 56.8442 53.8569 57.3472" stroke="black" stroke-width="2" stroke-miterlimit="10" stroke-linecap="round" stroke-linejoin="round"/>
<path d="M54.8063 46.4783L51.1963 44.4062" stroke="black" stroke-width="2" stroke-miterlimit="10" stroke-linecap="round" stroke-linejoin="round"/>
<path d="M51.1064 46.9874L53.3964 45.6914L53.4464 43.3594" stroke="black" stroke-width="2" stroke-miterlimit="10" stroke-linecap="round" stroke-linejoin="round"/>
<path d="M72.457 40.9229V44.0448L75.317 44.8819" stroke="black" stroke-width="2" stroke-miterlimit="10" stroke-linecap="round" stroke-linejoin="round"/>
<path d="M62.6565 41.9253L62.4766 35.9473" stroke="black" stroke-width="2" stroke-miterlimit="10" stroke-linecap="round" stroke-linejoin="round"/>
<path d="M60.0166 37.4274L62.5066 39.2044L64.8165 37.2754" stroke="black" stroke-width="2" stroke-miterlimit="10" stroke-linecap="round" stroke-linejoin="round"/>
<path d="M30.1764 25.316C30.2664 15.518 44.1865 15.335 44.3665 26.14C44.5165 34.858 44.4665 61.212 44.4665 61.212C44.4665 61.212 50.2864 67.522 49.6464 72.523C49.1864 76.094 45.4464 82.817 38.3964 82.91C29.4364 83.027 25.3764 75.961 25.0264 72.233C24.5664 67.364 30.2665 61.487 30.2665 61.487C30.2665 61.487 30.0964 33.968 30.1764 25.316Z" stroke="black" stroke-width="2" stroke-miterlimit="10" stroke-linejoin="round"/>
<path d="M34.3763 25.5412C34.4063 21.6012 40.0062 21.5282 40.0762 25.8732C40.1362 29.3782 40.1962 67.2632 40.1962 67.2632C40.1962 67.2632 42.5362 69.8002 42.2762 71.8112C42.0962 73.2472 40.5963 75.9502 37.7563 75.9872C34.1563 76.0352 32.5163 73.1932 32.3763 71.6942C32.1963 69.7372 34.4863 67.3732 34.4863 67.3732C34.4863 67.3732 34.3363 29.0202 34.3763 25.5412Z" stroke="black" stroke-width="2" stroke-miterlimit="10" stroke-linejoin="round"/>
<path d="M34.776 59.7843L39.926 59.7373L40.0961 67.2263C40.0961 67.2263 42.2461 69.5563 42.0061 71.4033C41.8361 72.7223 40.4561 75.2043 37.8561 75.2383C34.5461 75.2823 33.046 72.6723 32.916 71.2953C32.746 69.4973 34.8561 67.3273 34.8561 67.3273L34.776 59.7843Z" fill="black" stroke="black" stroke-width="2" stroke-miterlimit="10" stroke-linejoin="round"/>
</svg>
