<svg width="100" height="100" viewBox="0 0 100 100" fill="none" xmlns="http://www.w3.org/2000/svg">
<path d="M21.793 74.0718C18.1096 67.933 24.0586 59.8942 27.4935 56.6421C28.6266 55.4667 44.5946 71.441 43.0599 72.7564C41.5252 74.0718 38.9396 77.1448 36.1537 78.2591C35.0575 78.6976 26.3973 81.7454 21.793 74.0718Z" stroke="black" stroke-width="2"/>
<path d="M27.8225 56.2036C33.3515 43.7789 44.7044 20.0067 45.5813 20.7959C46.6774 21.7824 48.366 30.1253 49.6815 30.4542C50.9969 30.7831 57.2011 31.4291 57.7492 31.8676C58.2973 32.3061 58.5165 40.4181 59.832 40.4181C61.1475 40.4181 67.944 42.3913 68.3825 43.1587C68.821 43.926 69.4787 50.5033 70.1365 50.613C70.7942 50.7226 79.8928 53.3535 79.3447 54.0112C78.9062 54.5374 64.4085 63.1143 43.155 72.51" stroke="black" stroke-width="2"/>
<path d="M49.1816 29.9783C42.7837 39.4755 39.0436 45.8112 32.0647 58.8556" stroke="black" stroke-width="2"/>
<path d="M59.399 40.1716C50.8424 48.3168 45.8894 53.6842 36.8381 64.3279" stroke="black" stroke-width="2"/>
<path d="M70.1404 50.7043C59.8975 57.9645 53.5263 61.9111 41.7288 68.8693" stroke="black" stroke-width="2"/>
<path fill-rule="evenodd" clip-rule="evenodd" d="M27.4935 56.6421C24.0586 59.8942 18.1096 67.933 21.793 74.0718C26.3973 81.7454 35.0575 78.6976 36.1537 78.2591C38.2344 77.4269 40.2033 75.5021 41.7062 74.033C42.2156 73.535 42.6714 73.0894 43.0599 72.7564C44.5946 71.441 28.6266 55.4667 27.4935 56.6421ZM25.835 64.6151C26.1756 64.1804 26.0994 63.5519 25.6647 63.2112C25.23 62.8705 24.6014 62.9468 24.2608 63.3815C22.9611 65.0399 22.1581 67.0122 22.5117 70.0866C22.5748 70.6353 23.0708 71.0289 23.6194 70.9658C24.1681 70.9026 24.5617 70.4067 24.4986 69.858C24.2086 67.3371 24.8402 65.8844 25.835 64.6151Z" fill="black"/>
</svg>
