<svg width="100" height="100" viewBox="0 0 100 100" fill="none" xmlns="http://www.w3.org/2000/svg">
<path d="M19.8933 70.8342C23.6053 67.4142 30.5313 62.2641 31.4193 61.4341C32.3063 60.6041 32.3323 62.0641 33.4513 63.8641C35.0873 66.5141 37.7433 65.9541 36.6743 67.3941C35.6063 68.8341 26.8193 75.8142 25.4383 76.9442C24.0583 78.0742 20.8453 79.2841 18.9743 77.1141C17.1023 74.9441 18.2163 72.3742 19.8933 70.8342Z" stroke="black" stroke-width="2" stroke-miterlimit="10" stroke-linejoin="round"/>
<path d="M33.0234 62.9343C33.0234 62.9343 36.6124 59.7542 39.1874 56.8842C41.7614 54.0142 41.7784 45.2343 43.4904 39.2043C45.2014 33.1743 50.6214 24.1742 58.4374 22.5042C66.2524 20.8342 74.1144 23.4842 77.7074 27.9242C83.2834 34.8242 84.0514 43.1142 79.7144 51.9642C75.9604 59.6342 68.0285 62.0442 62.7065 62.0942C57.3845 62.1342 46.9435 61.0442 44.0345 61.5142C41.1265 61.9842 35.9234 66.0643 35.9234 66.0643" stroke="black" stroke-width="2" stroke-miterlimit="10" stroke-linejoin="round"/>
<path d="M47.3268 55.8444C45.5178 54.0344 44.0168 50.3545 46.4048 42.5745C48.7938 34.7845 53.5718 26.6344 60.8408 25.9144C68.1098 25.1944 75.7548 28.4044 78.1778 36.7344C80.2908 43.9944 76.2658 51.7144 72.5468 54.3744C68.8268 57.0344 64.5948 59.2944 58.2128 59.1244C51.8318 58.9544 49.1438 57.6644 47.3268 55.8444Z" stroke="black" stroke-width="2" stroke-miterlimit="10" stroke-linejoin="round"/>
<path d="M45.6807 44.3145L58.3107 59.1444" stroke="black" stroke-width="2" stroke-miterlimit="10" stroke-linejoin="round"/>
<path d="M48.0918 38.1445C48.0918 38.1445 52.4768 42.1345 56.6428 47.1145C60.8078 52.0945 64.7528 58.0546 64.7528 58.0546" stroke="black" stroke-width="2" stroke-miterlimit="10" stroke-linejoin="round"/>
<path d="M51.6035 31.8242C51.6035 31.8242 56.4195 36.3842 61.2245 42.2942C66.0305 48.1942 70.8265 55.4342 70.8265 55.4342" stroke="black" stroke-width="2" stroke-miterlimit="10" stroke-linejoin="round"/>
<path d="M56.9854 27.2441C56.9854 27.2441 62.0433 31.7442 66.7893 37.6442C71.5363 43.5442 75.9713 50.8342 75.9713 50.8342" stroke="black" stroke-width="2" stroke-miterlimit="10" stroke-linejoin="round"/>
<path d="M63.6699 26.084C63.6699 26.084 67.2569 28.9939 70.9859 33.2539C74.7159 37.5139 78.5879 43.1139 78.5879 43.1139" stroke="black" stroke-width="2" stroke-miterlimit="10" stroke-linejoin="round"/>
<path d="M45.6279 52.2745C45.6279 52.2745 54.3629 43.9846 60.4729 37.8146C66.5839 31.6446 70.0689 27.6045 70.0689 27.6045" stroke="black" stroke-width="2" stroke-miterlimit="10" stroke-linejoin="round"/>
<path d="M50.2656 57.6741C50.2656 57.6741 57.9206 49.394 64.4966 43.134C71.0726 36.874 76.5696 32.624 76.5696 32.624" stroke="black" stroke-width="2" stroke-miterlimit="10" stroke-linejoin="round"/>
<path d="M58.8115 59.024C58.8115 59.024 64.7805 53.284 69.7495 48.874C74.7175 44.454 78.6835 41.374 78.6835 41.374" stroke="black" stroke-width="2" stroke-miterlimit="10" stroke-linejoin="round"/>
<path d="M47.0537 40.7939C47.0537 40.7939 52.6707 37.2839 56.9567 33.2939C61.2427 29.3039 63.8737 26.084 63.8737 26.084" stroke="black" stroke-width="2" stroke-miterlimit="10" stroke-linejoin="round"/>
<path d="M19.8363 70.8844C17.0783 73.5444 19.1713 77.3944 22.8623 76.5044C26.5533 75.6144 35.6404 66.4844 35.6404 66.4844" stroke="black" stroke-width="2" stroke-miterlimit="10" stroke-linejoin="round"/>
</svg>
