<svg width="100" height="100" viewBox="0 0 100 100" fill="none" xmlns="http://www.w3.org/2000/svg">
<path d="M36.7371 29.4249C36.8284 33.6273 26.8707 57.0145 16.2734 66.2414C32.7216 67.4677 41.5134 68.5763 57.2925 70.6266L85.5215 61.5823C78.3043 56.9231 67.5515 37.1399 66.2724 30.8363C62.5268 33.9425 48.3394 36.4593 36.7371 29.4249Z" stroke="black" stroke-width="2" stroke-linecap="round" stroke-linejoin="round"/>
<path d="M17.5436 65.6736C27.6803 55.5289 36.8211 37.4645 36.7298 33.2621" stroke="black" stroke-width="2" stroke-linecap="round" stroke-linejoin="round"/>
<path d="M66.2724 30.8363C67.5515 37.1399 78.3043 56.9231 85.5215 61.5823" stroke="black" stroke-width="2" stroke-linecap="round" stroke-linejoin="round"/>
<path d="M36.9205 29.6989C39.2958 46.143 52.3599 65.6934 57.1104 70.5352" stroke="black" stroke-width="2" stroke-linecap="round" stroke-linejoin="round"/>
<path d="M36.8774 45.8586C37.6692 50.9853 39.9983 61.8661 43.7256 68.5923L29.6105 67.0212C32.2598 65.449 36.0553 52.2157 36.8774 45.8586Z" fill="black" stroke="black" stroke-width="2" stroke-linecap="round" stroke-linejoin="round"/>
<path d="M36.7754 45.9602C33.5483 48.7345 28.7224 57.7911 26.0095 60.7399C28.3873 61.9855 29.0982 65.1648 29.5228 66.9341" stroke="black" stroke-width="2" stroke-linecap="round" stroke-linejoin="round"/>
<path d="M49.833 43.6876C52.7653 49.9706 58.3203 55.411 60.3648 56.5604" stroke="black" stroke-width="2" stroke-linecap="round" stroke-linejoin="round"/>
<path d="M60.3646 48.1775C63.0018 52.7751 67.9965 54.6832 72.0453 55.3655" stroke="black" stroke-width="2" stroke-linecap="round" stroke-linejoin="round"/>
<path d="M81.9944 58.3099C112.309 63.1602 61.9914 72.6758 55.2754 70.898L85.0257 61.9476L81.9944 58.3099Z" fill="black"/>
<path d="M37.8924 34.5243C47.3836 39.702 62.5808 39.3588 67.5801 35.4844" stroke="black" stroke-width="2" stroke-linecap="round" stroke-linejoin="round"/>
</svg>
