<svg width="100" height="100" viewBox="0 0 100 100" fill="none" xmlns="http://www.w3.org/2000/svg">
<path d="M77.6232 45.0282C77.5237 42.7406 77.6384 23.3981 76.9422 23.3981C76.6255 23.3981 65.4819 23.1923 53.4278 23.0615M23.235 51.9309C23.235 58.209 23.235 62.9911 23.235 63.6783C23.235 65.7671 22.6381 77.1053 23.235 77.4036C23.7208 77.6465 39.6101 77.5377 46.6289 77.4726M23.235 45.2572C23.235 37.5835 23.235 29.1491 23.235 23.398C23.235 22.9385 34.5542 22.9037 46.8004 22.9992M53.5388 77.4726C60.787 77.6294 76.3086 77.9581 76.9422 77.4036C77.4719 76.9402 77.5344 62.1458 77.6232 51.8416" stroke="black" stroke-width="2" stroke-linecap="round"/>
<path d="M41.418 67.5096H43.3007C44.9575 67.5096 46.3007 66.1665 46.3007 64.5096V34.2852H53.7649V64.5096C53.7649 66.1665 55.1081 67.5096 56.7649 67.5096H58.9282" stroke="black" stroke-width="2" stroke-linecap="round"/>
<path d="M41.4766 67.5254H58.9754" stroke="black" stroke-width="2" stroke-linecap="round"/>
<path d="M50.0141 33.583H40.7818M40.7818 33.583C40.7818 33.583 35.8513 33.5831 35.4249 33.583C34.9985 33.5829 35.4249 40.1937 35.4249 41.0485C35.4249 41.9033 36.861 33.583 40.7818 33.583Z" stroke="black" stroke-width="2" stroke-linecap="round"/>
<path d="M48.9148 33.583L54.2628 33.583L59.6107 33.583M59.6107 33.583C59.6107 33.583 64.5413 33.5831 64.9677 33.583C65.3941 33.5829 64.9677 40.1937 64.9677 41.0485C64.9677 41.9033 63.5316 33.583 59.6107 33.583Z" stroke="black" stroke-width="2" stroke-linecap="round"/>
<path d="M20.7291 25.6467C20.385 25.3886 20.7291 21.2601 20.7291 20.8732C20.7291 20.4863 25.4166 20.5722 25.7606 20.8732C26.1047 21.1741 26.0187 25.3026 25.7606 25.6467C25.5026 25.9907 21.0731 25.9047 20.7291 25.6467Z" fill="black" stroke="black" stroke-width="2" stroke-linecap="round"/>
<path d="M20.7291 80.1154C20.385 79.8574 20.7291 75.7288 20.7291 75.3419C20.7291 74.9551 25.4166 75.041 25.7606 75.3419C26.1047 75.6429 26.0187 79.7714 25.7606 80.1154C25.5026 80.4594 21.0731 80.3734 20.7291 80.1154Z" fill="black" stroke="black" stroke-width="2" stroke-linecap="round"/>
<path d="M20.2463 51.5379C19.8372 51.2311 20.2463 46.3225 20.2463 45.8625C20.2463 45.4026 25.8194 45.5047 26.2284 45.8625C26.6375 46.2203 26.5352 51.1288 26.2284 51.5379C25.9216 51.9469 20.6553 51.8446 20.2463 51.5379Z" stroke="black" stroke-width="2" stroke-linecap="round"/>
<path d="M46.9797 26.1004C46.5706 25.7936 46.9797 20.885 46.9797 20.425C46.9797 19.9651 52.5528 20.0672 52.9618 20.425C53.3709 20.7828 53.2686 25.6913 52.9618 26.1004C52.655 26.5094 47.3887 26.4071 46.9797 26.1004Z" stroke="black" stroke-width="2" stroke-linecap="round"/>
<path d="M46.9797 80.5691C46.5706 80.2623 46.9797 75.3537 46.9797 74.8938C46.9797 74.4338 52.5528 74.536 52.9618 74.8938C53.3709 75.2516 53.2686 80.1601 52.9618 80.5691C52.655 80.9781 47.3887 80.8759 46.9797 80.5691Z" stroke="black" stroke-width="2" stroke-linecap="round"/>
<path d="M74.6154 51.5379C74.2063 51.2311 74.6154 46.3225 74.6154 45.8625C74.6154 45.4026 80.1885 45.5047 80.5976 45.8625C81.0066 46.2203 80.9044 51.1288 80.5976 51.5379C80.2907 51.9469 75.0245 51.8446 74.6154 51.5379Z" stroke="black" stroke-width="2" stroke-linecap="round"/>
<path d="M74.3902 25.6467C74.0462 25.3886 74.3902 21.2601 74.3902 20.8732C74.3902 20.4863 79.0777 20.5722 79.4218 20.8732C79.7658 21.1741 79.6798 25.3026 79.4218 25.6467C79.1637 25.9907 74.7343 25.9047 74.3902 25.6467Z" fill="black" stroke="black" stroke-width="2" stroke-linecap="round"/>
<path d="M74.3902 80.1154C74.0462 79.8574 74.3902 75.7288 74.3902 75.3419C74.3902 74.9551 79.0777 75.041 79.4218 75.3419C79.7658 75.6429 79.6798 79.7714 79.4218 80.1154C79.1637 80.4594 74.7343 80.3734 74.3902 80.1154Z" fill="black" stroke="black" stroke-width="2" stroke-linecap="round"/>
<path d="M53.5691 49.9371H46.9287L46.9287 34.5879H53.5691V49.9371Z" fill="black" stroke="black" stroke-width="2" stroke-linecap="round"/>
<path d="M35.4258 33.7207V38.1802L37.1411 36.3364L39.1564 33.7207H35.4258Z" fill="black"/>
<path d="M65.1582 33.7207V38.1802L63.4429 36.3364L61.4276 33.7207H65.1582Z" fill="black"/>
</svg>
