<svg width="100" height="100" viewBox="0 0 100 100" fill="none" xmlns="http://www.w3.org/2000/svg">
<path d="M38.5029 36.1579C40.9559 33.9199 43.17 33.7959 46.2 34.9609" stroke="black" stroke-width="2" stroke-miterlimit="10" stroke-linecap="round" stroke-linejoin="round"/>
<path d="M41.8706 35.655C42.7336 34.172 43.9316 35.366 43.7536 36.42C43.5746 37.474 40.9756 37.19 41.8706 35.655Z" stroke="black" stroke-width="2" stroke-miterlimit="10" stroke-linecap="round" stroke-linejoin="round"/>
<path d="M47.0222 57.7892C47.0222 57.7892 44.4422 63.1542 40.6532 63.6792C35.5592 64.3852 30.4022 61.2942 27.3532 58.3802C19.5342 50.9042 16.8932 36.1042 18.4082 32.8392C22.3032 24.4462 47.8982 22.1212 51.2012 29.1762C52.4522 31.8492 52.5812 39.2382 52.5812 39.2382" stroke="black" stroke-width="2" stroke-miterlimit="10" stroke-linecap="round" stroke-linejoin="round"/>
<path d="M49.4486 42.0059C50.1906 38.2729 59.7866 37.7649 66.8876 39.4739C73.9896 41.1829 81.8127 45.6679 81.6887 49.6009C81.5647 53.5339 75.7376 67.5799 69.0076 72.4929C65.8146 74.8219 62.1416 76.8669 56.1276 75.4849C51.3136 74.3779 49.3217 69.4609 48.1417 66.3919C45.8197 60.3499 48.4096 47.2369 49.4486 42.0059Z" stroke="black" stroke-width="2" stroke-miterlimit="10" stroke-linecap="round" stroke-linejoin="round"/>
<path d="M55.2069 58.8786C56.1089 58.2756 64.6009 60.6356 66.8079 61.5496C67.7449 61.9376 62.846 65.3616 59.637 64.4766C56.429 63.5916 54.2779 59.4996 55.2069 58.8786Z" fill="black" stroke="black" stroke-width="2" stroke-miterlimit="10" stroke-linecap="round" stroke-linejoin="round"/>
<path d="M66.8789 51.6892C69.7079 50.6402 71.9649 51.1362 74.2649 53.6972" stroke="black" stroke-width="2" stroke-miterlimit="10" stroke-linecap="round" stroke-linejoin="round"/>
<path d="M69.6829 53.1211C70.0999 51.4571 71.5829 52.2701 71.7039 53.3321C71.8259 54.3941 69.2499 54.8441 69.6829 53.1211Z" stroke="black" stroke-width="2" stroke-miterlimit="10" stroke-linecap="round" stroke-linejoin="round"/>
<path d="M53.2617 47.9882C56.4377 46.7672 58.0097 47.3252 60.2987 49.4672" stroke="black" stroke-width="2" stroke-miterlimit="10" stroke-linecap="round" stroke-linejoin="round"/>
<path d="M55.6407 49.3453C56.0577 47.6813 57.5407 48.4953 57.6627 49.5573C57.7837 50.6193 55.2087 51.0693 55.6407 49.3453Z" stroke="black" stroke-width="2" stroke-miterlimit="10" stroke-linecap="round" stroke-linejoin="round"/>
<path d="M43.6589 48.8393C43.3549 49.2863 41.1919 48.8583 38.2539 49.3273C35.3149 49.7973 33.1019 50.7283 31.9029 50.7193C30.8899 50.7113 34.1449 45.6983 37.4509 45.3143C38.6639 45.1733 39.9069 45.4853 40.9639 45.9833C42.7869 46.8433 44.0559 48.2543 43.6589 48.8393Z" fill="black" stroke="black" stroke-width="2" stroke-miterlimit="10" stroke-linecap="round" stroke-linejoin="round"/>
<path d="M51.8856 38.0938C51.8856 38.0938 47.6156 39.1138 47.4946 42.7348C47.3746 46.3568 45.7676 59.4678 45.7676 59.4678" stroke="black" stroke-width="2" stroke-miterlimit="10" stroke-linecap="round" stroke-linejoin="round"/>
<path d="M23.873 38.5496C25.795 35.5856 28.3571 35.5896 30.6801 36.4836" stroke="black" stroke-width="2" stroke-miterlimit="10" stroke-linecap="round" stroke-linejoin="round"/>
<path d="M26.7729 38.2893C27.6359 36.8073 28.8339 38.0003 28.6559 39.0543C28.4769 40.1083 25.8779 39.8243 26.7729 38.2893Z" stroke="black" stroke-width="2" stroke-miterlimit="10" stroke-linecap="round" stroke-linejoin="round"/>
</svg>
