<svg width="100" height="100" viewBox="0 0 100 100" fill="none" xmlns="http://www.w3.org/2000/svg">
<path d="M38.4951 49.0759C39.0051 45.5989 40.9851 42.5869 43.3951 40.0759C44.0051 39.4369 44.9151 39.1179 45.5051 38.4599" stroke="black" stroke-width="2" stroke-miterlimit="10" stroke-linecap="round" stroke-linejoin="round"/>
<path d="M33.1952 53.9259C33.1952 53.9259 28.1951 48.7899 27.0051 43.9739C25.4351 37.6139 25.7952 27.8269 27.4552 22.6439C29.1252 17.4619 32.4551 17.8319 33.7551 20.7009C35.0451 23.5699 36.6751 33.1459 34.3551 34.1639C32.0451 35.1819 29.9051 26.4939 29.9051 26.4939" stroke="black" stroke-width="2" stroke-miterlimit="10" stroke-linecap="round" stroke-linejoin="round"/>
<path d="M33.2852 19.4979C33.2852 19.4979 37.0852 15.7959 39.3052 17.3689C41.5252 18.9419 41.9551 28.8809 41.4851 32.0269C41.0251 35.1739 36.4551 36.1169 35.5251 31.9519" stroke="black" stroke-width="2" stroke-miterlimit="10" stroke-linecap="round" stroke-linejoin="round"/>
<path d="M40.5151 18.9799C41.0951 16.3889 47.0752 13.7599 47.5452 19.1269C48.0052 24.4949 49.1051 30.3679 46.7351 33.4749C44.4251 36.5059 41.3951 33.0809 41.3951 33.0809" stroke="black" stroke-width="2" stroke-miterlimit="10" stroke-linecap="round" stroke-linejoin="round"/>
<path d="M47.6351 19.2159C47.6351 19.2159 51.3451 15.3379 54.2251 19.0349C55.7851 21.0439 54.0152 28.4749 53.5552 31.3439C53.0952 34.2129 48.5951 36.1349 47.3951 33.2659" stroke="black" stroke-width="2" stroke-miterlimit="10" stroke-linecap="round" stroke-linejoin="round"/>
<path d="M54.3052 27.3359C54.3052 27.3359 53.3852 35.8089 55.0652 36.4749C57.7852 37.5529 65.3552 32.6409 69.3352 32.7339C73.3152 32.8259 77.9052 37.6049 70.6752 39.4859C64.7152 41.0369 60.9251 45.0589 58.6451 47.3549C55.5351 50.4899 53.2252 54.7059 47.5752 54.7979" stroke="black" stroke-width="2" stroke-miterlimit="10" stroke-linecap="round" stroke-linejoin="round"/>
<path d="M29.9552 49.7246C29.9552 49.7246 31.5251 60.9856 30.9951 68.7996C30.3851 77.7916 30.0151 81.6456 30.0151 81.6456C30.0151 81.6456 36.6051 82.4226 41.7351 82.7056C46.6251 82.9766 50.7152 83.1056 50.7152 83.1056C50.7152 83.1056 48.6411 78 48.6411 71.5C48.1411 58.5 50.2551 54.6496 50.2551 54.6496" stroke="black" stroke-width="2" stroke-miterlimit="10" stroke-linejoin="round"/>
<path d="M30.0852 81.6533C30.0852 81.6533 53.9151 85.1383 60.5051 82.2473C67.0951 79.3563 49.6411 77.5 49.6411 77.5L50.7351 83.0303" fill="black"/>
<path d="M30.0852 81.6533C30.0852 81.6533 53.9151 85.1383 60.5051 82.2473C67.0951 79.3563 49.6411 77.5 49.6411 77.5L50.7351 83.0303" stroke="black" stroke-width="2" stroke-miterlimit="10" stroke-linejoin="round"/>
</svg>
