<svg width="100" height="100" viewBox="0 0 100 100" fill="none" xmlns="http://www.w3.org/2000/svg">
<path d="M73.371 60.9762C79.271 60.7902 77.341 67.9272 72.611 67.9392C68.021 67.9512 65.6309 67.3842 65.6309 67.3842" stroke="black" stroke-width="2" stroke-miterlimit="10" stroke-linecap="round" stroke-linejoin="round"/>
<path d="M67.6813 67.7275C71.7813 67.9605 74.4313 70.9005 71.4213 72.7025C68.3613 74.5395 62.441 73.0135 55.411 72.7025C48.031 72.3765 42.1613 68.6075 38.6713 66.9415C31.3513 63.4435 22.2812 63.9695 22.2812 63.9695" stroke="black" stroke-width="2" stroke-miterlimit="10" stroke-linecap="round" stroke-linejoin="round"/>
<path d="M27.5 46C30.7504 46.431 43.2573 48.2256 45.0673 44.4403C48.6494 36.9379 54.8 40.3257 56.3826 30.1199C57.1028 25.4658 62.9877 23.923 63.7363 29.9241C64.8451 38.8339 60.2869 44.4403 60.2869 44.4403" stroke="black" stroke-width="2" stroke-miterlimit="10" stroke-linecap="round" stroke-linejoin="round"/>
<path d="M57.4307 45.0109C57.4307 45.0109 69.8607 42.8409 73.8207 43.9899C78.5307 45.3559 79.7806 52.6749 71.7906 52.4749C63.8006 52.2749 68.9006 52.3719 68.9006 52.3719" stroke="black" stroke-width="2" stroke-miterlimit="10" stroke-linecap="round" stroke-linejoin="round"/>
<path d="M72.8904 52.4518C80.4304 51.6988 80.7305 59.1428 75.6005 60.4758C71.1405 61.6358 67.2305 60.1508 67.2305 60.1508" stroke="black" stroke-width="2" stroke-miterlimit="10" stroke-linecap="round" stroke-linejoin="round"/>
<path d="M22.2508 63.9071C22.2508 63.9071 17.1009 39.5691 22.3809 35.8351C25.4909 33.6391 29.621 46.3481 29.621 46.3481L20.1909 44.9531C20.1909 44.9531 20.1609 49.6071 20.7609 54.7601C21.4409 60.6241 22.2508 63.9071 22.2508 63.9071Z" fill="black" stroke="black" stroke-width="2" stroke-miterlimit="10" stroke-linecap="round" stroke-linejoin="round"/>
</svg>
