<svg width="100" height="100" viewBox="0 0 100 100" fill="none" xmlns="http://www.w3.org/2000/svg">
<path d="M25.9488 35.1425C25.9488 35.1425 12.1408 35.7804 18.8288 50.4024C21.0128 55.1754 29.7007 59.2435 36.4177 59.0435C44.7997 58.7935 53.3917 55.3354 53.3917 55.3354C53.3917 55.3354 74.8817 64.3884 81.7857 51.9014C89.0137 38.8284 72.8178 37.1214 72.8178 37.1214C72.8178 37.1214 73.0687 30.5195 66.1077 27.5625C59.3397 24.6875 54.6807 30.8105 54.6807 30.8105C54.6807 30.8105 52.4567 16.5114 37.3977 19.3804C25.6637 21.6164 25.9488 35.1425 25.9488 35.1425Z" stroke="black" stroke-width="2" stroke-miterlimit="10" stroke-linecap="round" stroke-linejoin="round"/>
<path d="M52.7686 55.5838C52.7686 55.5838 57.4855 53.5558 58.1205 52.8838" stroke="black" stroke-width="2" stroke-miterlimit="10" stroke-linecap="round" stroke-linejoin="round"/>
<path d="M56.0459 54.515C56.0459 54.515 65.5569 58.073 70.8969 57.256C76.2369 56.439 79.9639 55.705 82.2699 50.958" stroke="black" stroke-width="2" stroke-miterlimit="10" stroke-linecap="round" stroke-linejoin="round"/>
<path d="M73.8156 37.2914C71.1706 36.9244 68.6846 37.1574 66.8496 39.4814" stroke="black" stroke-width="2" stroke-miterlimit="10" stroke-linecap="round" stroke-linejoin="round"/>
<path d="M25.4697 35.1551C25.4697 35.1551 31.2257 34.5091 34.4688 38.3541" stroke="black" stroke-width="2" stroke-miterlimit="10" stroke-linecap="round" stroke-linejoin="round"/>
<path d="M19.5599 37.5479C18.3329 38.7559 16.8628 44.8608 20.1078 49.1938C23.3538 53.5278 30.3028 60.4008 40.4208 58.7198" stroke="black" stroke-width="2" stroke-miterlimit="10" stroke-linecap="round" stroke-linejoin="round"/>
<path d="M53.8868 60.7214C50.7478 61.3374 42.0078 67.7574 42.1398 68.7054C42.3248 70.0404 50.4308 72.3764 50.4308 72.3764L42.1318 80.9854C47.7968 79.8044 61.2698 70.3744 61.2698 70.3744C61.2698 70.3744 50.2769 68.6434 49.1279 67.3014C48.7739 66.8864 53.8868 60.7214 53.8868 60.7214Z" fill="black" stroke="black" stroke-width="2" stroke-miterlimit="10" stroke-linecap="round" stroke-linejoin="round"/>
</svg>
