<svg width="100" height="100" viewBox="0 0 100 100" fill="none" xmlns="http://www.w3.org/2000/svg">
<path d="M24 53.3866C24 49.3156 25.1799 45.0946 26.8199 42.0796C31.8899 32.7916 39.8499 28.5166 49.9299 28.5166C64.2499 28.5166 75.87 39.6516 75.87 53.3866C75.87 60.5916 72.74 66.8416 68.76 71.1456C64.55 75.7046 56.7399 78.2576 49.9299 78.2576C35.6099 78.2576 24 67.1226 24 53.3866Z" stroke="black" stroke-width="2" stroke-miterlimit="10" stroke-linecap="round" stroke-linejoin="round"/>
<path d="M35.1999 74.1872C35.1999 74.1872 19.2899 77.3382 28.0899 78.8322C36.8899 80.3262 59.2931 82.6652 74.9499 77.5852C80.9599 75.6352 66.3299 73.1592 66.3299 73.1592C66.3299 73.1592 61.9699 78.4162 49.2699 77.9012C41.6499 77.5912 35.1999 74.1872 35.1999 74.1872Z" fill="black"/>
<path d="M29.6001 53.5906C29.6001 50.3996 30.5301 47.0926 31.8201 44.7296C35.7901 37.4516 42.0301 34.1016 49.9301 34.1016C61.1501 34.1016 70.2501 42.8266 70.2501 53.5906C70.2501 59.2356 67.8001 64.1336 64.6801 67.5066C61.3801 71.0776 55.2601 73.0786 49.9301 73.0786C38.7001 73.0786 29.6001 64.3536 29.6001 53.5906Z" stroke="black" stroke-width="2" stroke-miterlimit="10" stroke-linecap="round" stroke-linejoin="round"/>
<path d="M49.6599 72.858C49.6599 72.114 49.72 71.349 49.72 70.626" stroke="black" stroke-width="2" stroke-miterlimit="10" stroke-linecap="round" stroke-linejoin="round"/>
<path d="M36.99 68.6733C37.37 67.9243 38.0199 67.4023 38.3899 66.6643" stroke="black" stroke-width="2" stroke-miterlimit="10" stroke-linecap="round" stroke-linejoin="round"/>
<path d="M63.5499 68.1148C63.1399 67.7018 62.4099 66.6218 61.9399 66.3848" stroke="black" stroke-width="2" stroke-miterlimit="10" stroke-linecap="round" stroke-linejoin="round"/>
<path d="M29.9099 54.5C30.5099 54.799 31.2799 54.667 31.9199 54.667" stroke="black" stroke-width="2" stroke-miterlimit="10" stroke-linecap="round" stroke-linejoin="round"/>
<path d="M66.79 53.9985C67.37 53.9985 69.18 53.8796 69.64 54.1096" stroke="black" stroke-width="2" stroke-miterlimit="10" stroke-linecap="round" stroke-linejoin="round"/>
<path d="M46.6499 53.5734C46.7499 50.8214 52.6899 43.4954 52.6899 43.4954C52.6899 43.4954 54.07 53.0644 52.63 55.4144C51.18 57.7634 46.5599 56.3264 46.6499 53.5734Z" fill="black" stroke="black" stroke-width="2" stroke-miterlimit="10" stroke-linejoin="round"/>
<path d="M61.5499 42.2242C61.8499 41.6172 62.8399 40.4622 63.4399 40.1602" stroke="black" stroke-width="2" stroke-miterlimit="10" stroke-linecap="round" stroke-linejoin="round"/>
<path d="M36.4399 39.4346C37.0599 39.7466 37.7399 40.7656 38.0499 41.3876" stroke="black" stroke-width="2" stroke-miterlimit="10" stroke-linecap="round" stroke-linejoin="round"/>
<path d="M48.8199 34.4124C48.8199 34.9734 48.99 37.9644 48.99 37.4034" stroke="black" stroke-width="2" stroke-miterlimit="10" stroke-linecap="round" stroke-linejoin="round"/>
<path d="M32.7098 33.9126C32.7098 33.1286 31.6197 32.2506 31.4197 30.5216C30.9597 26.5976 36.4798 27.2376 37.4498 31.0696" stroke="black" stroke-width="2" stroke-miterlimit="10" stroke-linecap="round" stroke-linejoin="round"/>
<path d="M47.27 28.4539L47.28 24.4189L50.65 24.4249L50.5701 28.424" stroke="black" stroke-width="2" stroke-miterlimit="10" stroke-linecap="round" stroke-linejoin="round"/>
<path d="M48.62 24.2252C44.45 23.9602 35.77 22.2613 41.83 20.9313C47.89 19.6023 53.5699 19.4893 57.6599 21.9633C59.2999 22.9533 52.8 24.4892 48.62 24.2252Z" stroke="black" stroke-width="2" stroke-miterlimit="10" stroke-linecap="round" stroke-linejoin="round"/>
</svg>
