<svg width="100" height="100" viewBox="0 0 100 100" fill="none" xmlns="http://www.w3.org/2000/svg">
<path d="M56.9993 43.0087C57.2928 47.8351 57.8407 58.388 57.6842 61.9883C57.5276 65.5886 57.1623 70.4672 56.9993 72.4565" stroke="black" stroke-width="2" stroke-linecap="round"/>
<path d="M77.8235 35.7449C78.6526 38.8954 80.1429 46.0557 80.5722 52.3411C80.8214 55.9902 80.4616 63.0582 80.5722 64.7441" stroke="black" stroke-width="2" stroke-linecap="round"/>
<path d="M21.9508 28.1732C21.1424 31.9457 19.8629 44.5049 19.6381 48.7769C19.4132 53.0488 19.5444 56.1779 19.6381 57.2084" stroke="black" stroke-width="2" stroke-linecap="round"/>
<path d="M16.8994 59.3921C17.9012 58.117 18.9305 57.3058 19.4808 57.097C19.4808 57.097 56.4821 73.1233 57.0506 73.0926C57.6192 73.062 79.63 64.6248 81.0417 64.898C82.8063 65.2395 84.001 67.9138 83.6594 68.8245C83.3179 69.7353 60.4392 79.2464 56.5953 78.8989C52.7513 78.5514 20.0492 63.3008 18.2276 62.6178C16.406 61.9347 15.6471 60.9859 16.8994 59.3921Z" fill="black" stroke="black" stroke-width="2" stroke-linecap="round"/>
<path d="M44.5813 21.1036C43.1936 20.8261 28.9703 25.6134 22.0321 28.0418C20.7878 28.4754 56.1159 42.7854 56.8097 42.9589C57.5035 43.1323 77.5377 36.0207 77.7979 35.587C78.058 35.1534 46.3158 21.4505 44.5813 21.1036Z" stroke="black" stroke-width="2" stroke-linecap="round"/>
<path d="M28.2174 51.1029C25.6534 50.7038 25.4918 54.5176 28.2174 55.4206C30.9429 56.3236 30.7814 51.502 28.2174 51.1029Z" stroke="black" stroke-width="2" stroke-linecap="round"/>
<path d="M68.2402 46.1084C68.9321 50.8257 69.2898 59.6629 69.2899 61.9609" stroke="black" stroke-width="2" stroke-linecap="round"/>
<path d="M44.4919 25.0729C43.9874 24.8206 42.1867 25.1374 41.556 25.5316C40.911 25.898 62.6811 34.9279 63.3906 35.1644C63.9582 35.3536 66.6933 34.3388 66.2093 34.1814C65.7254 34.024 44.9965 25.3251 44.4919 25.0729Z" fill="black" stroke="black" stroke-width="2" stroke-linecap="round"/>
<path d="M36.8984 28.1596C36.3939 27.9073 34.2808 28.3067 33.6501 28.7009C33.0051 29.0673 55.3922 38.1183 56.1017 38.3548C56.6693 38.544 59.4044 37.5292 58.9204 37.3718C58.4365 37.2145 37.403 28.4119 36.8984 28.1596Z" fill="black" stroke="black" stroke-width="2" stroke-linecap="round"/>
<path d="M64.3353 53.4048C64.2299 53.2583 64.0193 51.9429 63.9272 51.3035C64.075 50.7476 71.6991 49.0637 72.0012 48.9609C72.3032 48.8581 73.6623 49.3271 74.0703 49.5648C74.4784 49.8025 74.7227 51.801 74.5878 52.0452C74.4528 52.2894 67.243 54.2883 66.851 54.2433C66.459 54.1983 64.4669 53.588 64.3353 53.4048Z" fill="black" stroke="black" stroke-width="2" stroke-linecap="round"/>
</svg>
