<svg width="100" height="100" viewBox="0 0 100 100" fill="none" xmlns="http://www.w3.org/2000/svg">
<path d="M59.1402 28.0358C59.1402 28.0358 51.9942 32.2558 46.0892 29.2858C43.6292 28.0458 40.1882 24.8828 32.8312 24.3678C21.9242 23.6048 18.9552 36.8458 21.7582 51.0658C24.5622 65.2958 33.9612 83.3358 41.5402 79.0758C49.1202 74.8258 50.6882 58.1058 55.8802 63.3058C61.0712 68.4958 60.4392 83.8758 66.0462 79.4158C71.6522 74.9458 79.5172 57.6658 80.6962 47.9558C81.5672 40.7758 82.5222 18.4548 63.3192 20.0848C58.3922 20.5028 53.9202 22.2698 49.6592 24.3758C46.7282 25.8248 43.4682 27.4848 43.4682 27.4848" stroke="black" stroke-width="2" stroke-miterlimit="10" stroke-linecap="round" stroke-linejoin="round"/>
<path d="M50.1521 66.5553C51.6951 63.6553 54.0571 61.3854 55.6931 64.9554C57.3301 68.5354 59.8371 75.5053 61.1181 78.1953C62.6141 81.3353 64.8321 80.1154 64.8321 80.1154" stroke="black" stroke-width="2" stroke-miterlimit="10" stroke-linejoin="round"/>
<path d="M34 24.5004C34 24.5004 28.5 23.7751 24.8172 28.3956C20.0902 34.3256 20.2802 43.1956 22.5462 53.1556C24.8112 63.1056 28.7751 72.8156 34.0781 77.1656C39.3811 81.5056 42.363 79.4303 46 74.5003" stroke="black" stroke-width="2" stroke-miterlimit="10" stroke-linejoin="round"/>
<path d="M35.0482 63.4258C35.1272 64.0658 36.1012 65.4758 36.4702 66.0358" stroke="black" stroke-width="2" stroke-miterlimit="10" stroke-linecap="round" stroke-linejoin="round"/>
<path d="M28.3401 38.3262C27.4981 42.5062 30.7791 55.9762 30.7791 55.9762" stroke="black" stroke-width="2" stroke-miterlimit="10" stroke-linecap="round" stroke-linejoin="round"/>
<path d="M81 79.4998C81 82.5372 67.7924 84.9995 51.5 84.9995C35.2076 84.9995 22 82.5372 22 79.4998C22 77.9178 25.5826 76.4919 31.3176 75.4885C32.8706 75.2168 35.5773 79.283 40.5 79.0514C41.7408 78.993 44.9471 76.0212 46.5 74.0005C47.5353 74.0009 50.3396 74 51.5 74C54.3775 74 57.1588 74.0768 59.7881 74.22C61.4027 74.308 62.513 79.8644 64 80C67.1059 80.2833 68.1945 74.8268 69.5 75C77.0121 75.9969 81 77.6497 81 79.4998Z" fill="black"/>
</svg>
