<svg width="100" height="100" viewBox="0 0 100 100" fill="none" xmlns="http://www.w3.org/2000/svg">
<path d="M36.0881 59.0155C33.5981 58.5815 27.1201 59.6005 30.6771 61.7065C34.2341 63.8125 46.4241 64.9845 49.7711 64.0355C53.1181 63.0855 51.6491 60.8805 47.9831 60.3595" stroke="black" stroke-width="2" stroke-miterlimit="10" stroke-linecap="round" stroke-linejoin="round"/>
<path d="M37.3706 63.7791C27.5246 66.2181 41.4636 68.485 45.2386 68.394C50.6566 68.263 57.0946 65.6561 48.7856 64.2271" stroke="black" stroke-width="2" stroke-miterlimit="10" stroke-linecap="round" stroke-linejoin="round"/>
<path d="M41.31 68.1369C37.614 68.8759 34.44 72.3329 46.761 72.1799C56.986 72.0539 59.273 67.5579 50.526 67.6039" stroke="black" stroke-width="2" stroke-miterlimit="10" stroke-linecap="round" stroke-linejoin="round"/>
<path d="M45.5667 72.2117C41.9257 72.4177 41.1297 75.3527 44.5177 75.6877C47.9067 76.0227 52.7447 75.4437 53.8687 74.3137C54.9937 73.1847 52.9617 71.7687 51.3567 71.8437" stroke="black" stroke-width="2" stroke-miterlimit="10" stroke-linecap="round" stroke-linejoin="round"/>
<path d="M48.0776 76.2856C48.0776 76.2856 46.5106 78.3696 49.0686 78.6236C51.6866 78.8836 53.3776 79.1566 54.2456 78.0596C55.1126 76.9626 52.6546 75.1016 52.6546 75.1016" stroke="black" stroke-width="2" stroke-miterlimit="10" stroke-linecap="round" stroke-linejoin="round"/>
<path d="M27.3759 23.5722C39.5709 17.8712 63.0409 22.7422 72.1799 27.5992C81.1669 32.3752 74.5349 34.8752 60.5559 37.3222C46.5769 39.7692 10.5789 31.4242 27.3759 23.5722Z" stroke="black" stroke-width="2" stroke-miterlimit="10" stroke-linecap="round" stroke-linejoin="round"/>
<path d="M25.4322 31.5869C19.9142 32.9809 31.3892 39.8689 39.1852 41.4999C46.9822 43.1309 53.9002 43.1739 58.1212 42.3719C59.9492 42.0239 73.3542 39.8829 72.4542 34.8099" stroke="black" stroke-width="2" stroke-miterlimit="10" stroke-linecap="round" stroke-linejoin="round"/>
<path d="M26.5853 36.4912C21.9873 38.6672 26.2613 41.3442 32.6353 44.0922C36.2973 45.6712 41.5452 46.9482 48.5662 47.2452C53.5702 47.4562 68.0783 46.3002 63.5523 41.8162" stroke="black" stroke-width="2" stroke-miterlimit="10" stroke-linecap="round" stroke-linejoin="round"/>
<path d="M31.904 44.1387C26.144 46.0547 34.169 50.5447 39.753 51.2127C46.249 51.9897 52.383 51.9447 55.349 51.5157C63.356 50.3597 63.648 46.8347 61.219 46.1547" stroke="black" stroke-width="2" stroke-miterlimit="10" stroke-linecap="round" stroke-linejoin="round"/>
<path d="M35.7388 50.4583C28.5618 52.2293 34.4817 55.0213 41.8417 55.7883C49.2017 56.5563 56.6817 56.3393 58.5487 54.9023C61.0077 53.0093 57.1327 51.4362 57.1327 51.4362" stroke="black" stroke-width="2" stroke-miterlimit="10" stroke-linecap="round" stroke-linejoin="round"/>
<path d="M33.5678 53.873C22.5828 55.268 35.1347 59.458 40.7357 59.777C45.7927 60.066 51.8878 61.1111 54.2568 59.1811C56.3168 57.5041 50.5518 56.211 50.5518 56.211" stroke="black" stroke-width="2" stroke-miterlimit="10" stroke-linecap="round" stroke-linejoin="round"/>
</svg>
