<svg width="100" height="100" viewBox="0 0 100 100" fill="none" xmlns="http://www.w3.org/2000/svg">
<path d="M31.385 40.9174C31.6352 29.8712 41.9585 26.5165 50.8826 26.8223C63.3929 27.2579 67.8503 31.8265 68.8048 41.3344C69.0272 43.5862 68.3786 74.5193 68.3786 76.7804C68.3786 79.0415 67.387 80.7374 64.5698 81.0154C61.7527 81.2934 35.3419 80.7374 33.5071 80.4501C31.6722 80.1628 30.6807 78.6153 30.6807 76.0761C30.6807 73.537 31.385 40.9174 31.385 40.9174Z" stroke="black" stroke-width="2" stroke-linecap="round" stroke-linejoin="round"/>
<path d="M68.9435 56.449C71.2046 56.171 72.9004 56.171 75.3006 56.449C77.7007 56.727 77.5617 58.5711 77.2744 60.406C76.9872 62.2408 78.9703 78.4765 68.3782 76.7899" stroke="black" stroke-width="2" stroke-linecap="round" stroke-linejoin="round"/>
<path d="M69.0271 61.7034L76.9967 61.8146" stroke="black" stroke-width="2" stroke-linecap="round" stroke-linejoin="round"/>
<path d="M30.6805 76.0761C26.1582 75.5109 22.0437 76.3634 22.6275 60.4058C22.7665 56.597 22.3495 56.736 24.8886 56.4488C27.4278 56.1615 30.838 56.1337 30.838 56.1337" stroke="black" stroke-width="2" stroke-linecap="round" stroke-linejoin="round"/>
<path d="M30.5319 61.8144L23.0535 61.5364" stroke="black" stroke-width="2" stroke-linecap="round" stroke-linejoin="round"/>
<path d="M36.481 80.1723C36.203 76.7806 35.6377 62.6671 35.9157 60.545C36.1937 58.4228 37.1853 55.7447 40.855 55.6057C44.5247 55.4667 55.4412 55.5408 57.8413 55.6891C60.2414 55.8374 63.0678 58.5155 62.9288 60.6284C62.7898 62.7412 63.2068 78.2819 63.3551 80.821" stroke="black" stroke-width="2" stroke-linecap="round" stroke-linejoin="round"/>
<path d="M59.6489 81.0805C62.7255 80.7098 65.274 80.2094 66.6269 78.217C67.7297 76.5953 68.193 72.8607 68.434 70.9146" stroke="black" stroke-width="2" stroke-linecap="round" stroke-linejoin="round"/>
<path d="M68.8416 76.6042C73.4843 75.3439 76.8667 71.0163 77.1447 66.216" stroke="black" stroke-width="2" stroke-linecap="round" stroke-linejoin="round"/>
<path d="M55.0706 65.5581H58.7032V68.125C58.7032 68.6533 58.2769 69.0795 57.7487 69.0795H56.0343C55.5061 69.0795 55.0798 68.6533 55.0798 68.125V65.5581H55.0706Z" fill="black"/>
<path d="M40.5864 64.9558H44.2191V67.5228C44.2191 68.051 43.7928 68.4773 43.2646 68.4773H41.5502C41.022 68.4773 40.5957 68.051 40.5957 67.5228V64.9558H40.5864Z" fill="black"/>
<path d="M58.7595 62.1111H54.7839C54.308 62.1111 53.9221 62.4969 53.9221 62.9729V65.0487C53.9221 65.5246 54.308 65.9105 54.7839 65.9105H58.7595C59.2354 65.9105 59.6213 65.5246 59.6213 65.0487V62.9729C59.6213 62.4969 59.2354 62.1111 58.7595 62.1111Z" stroke="black" stroke-width="2" stroke-linecap="round" stroke-linejoin="round"/>
<path d="M44.2746 61.5178H40.2991C39.8231 61.5178 39.4373 61.9037 39.4373 62.3796V64.4554C39.4373 64.9314 39.8231 65.3173 40.2991 65.3173H44.2746C44.7506 65.3173 45.1364 64.9314 45.1364 64.4554V62.3796C45.1364 61.9037 44.7506 61.5178 44.2746 61.5178Z" stroke="black" stroke-width="2" stroke-linecap="round" stroke-linejoin="round"/>
<path d="M54.886 46.2736H58.5186C58.7503 52.8438 59.019 59.6735 58.5186 61.5547H54.886C55.0899 55.7814 55.1084 50.629 54.886 46.2736Z" fill="black"/>
<path d="M40.4106 45.6437H44.0433C44.3769 51.4262 44.5066 56.8011 44.0433 60.9527H40.4106C40.2902 53.9747 40.2531 48.2384 40.4106 45.6437Z" fill="black"/>
<path d="M35.4717 31.4279C36.037 36.432 34.8693 42.0107 39.3916 44.6333C43.9139 47.2558 56.1647 47.3021 61.0577 45.18C65.9506 43.0579 65.0888 37.4329 65.6912 32.7067" stroke="black" stroke-width="2" stroke-linecap="round" stroke-linejoin="round"/>
<path d="M40.3638 27.4432C40.4472 23.6253 41.7075 20.0482 46.5263 19.2698C49.6678 18.7601 53.1151 18.7601 55.9044 19.4644C59.7317 20.4282 61.307 24.7466 61.131 28.2865" stroke="black" stroke-width="2" stroke-linecap="round" stroke-linejoin="round"/>
<path d="M40.7168 26.8503L43.8212 26.4148" stroke="black" stroke-width="2" stroke-linecap="round" stroke-linejoin="round"/>
<path d="M57.6008 26.3591L60.6404 27.3692" stroke="black" stroke-width="2" stroke-linecap="round" stroke-linejoin="round"/>
<path d="M57.2949 27.1563C57.2115 24.4503 55.1821 23.1437 53.0507 23.0232C51.5216 22.9398 49.4088 22.8564 47.3978 23.4587C44.9328 24.1908 44.4139 25.8496 44.2471 27.1563" stroke="black" stroke-width="2" stroke-linecap="round" stroke-linejoin="round"/>
</svg>
