<svg width="100" height="100" viewBox="0 0 100 100" fill="none" xmlns="http://www.w3.org/2000/svg">
<path d="M19.4239 41.4045C19.4004 38.0233 22.1513 35.2684 25.5324 35.3073C31.797 35.3793 41.577 35.4771 48.8082 35.4818C57.0331 35.4873 68.3003 35.3765 75.0145 35.3005C78.2155 35.2642 80.8825 37.7408 81.0454 40.9378C81.2037 44.0435 81.3733 47.8503 81.43 50.8391C81.5555 57.4487 81.2489 66.3762 81.002 72.1304C80.8642 75.3427 78.1978 77.8438 74.9828 77.8079C67.0885 77.7199 52.8926 77.5772 44.3162 77.5826C37.648 77.5868 30.4009 77.6828 25.4432 77.7636C22.0956 77.8182 19.3425 75.1373 19.3312 71.7893C19.3173 67.6866 19.3128 62.5304 19.3606 59.7361C19.4721 53.2148 19.4576 46.2389 19.4239 41.4045Z" stroke="black" stroke-width="2" stroke-linecap="round" stroke-linejoin="round"/>
<path d="M27.7578 75.8594C43.3934 77.4229 66.4682 77.3833 73.023 76.3483" stroke="black" stroke-width="2"/>
<path d="M80.7274 68.7433C78.3225 68.7433 76.4019 70.1035 74.7014 71.8041C73.0008 73.5046 71.5957 75.47 71.5957 77.875L73.7274 77.875C77.5934 77.875 80.7274 74.741 80.7274 70.875L80.7274 68.7433Z" fill="black"/>
<path d="M19.3605 68.7433C21.7654 68.7433 24.1921 69.1481 25.8927 70.8486C27.5932 72.5492 28.4922 75.47 28.4922 77.875L26.3605 77.875C22.4945 77.875 19.3605 74.741 19.3605 70.875L19.3605 68.7433Z" fill="black"/>
<rect x="44.5088" y="64.2524" width="12.4862" height="5.17965" transform="rotate(24.287 44.5088 64.2524)" stroke="black" stroke-width="2" stroke-linecap="round" stroke-linejoin="round"/>
<rect x="51.7656" y="62.7614" width="5.27015" height="5.17965" transform="rotate(-11.7864 51.7656 62.7614)" stroke="black" stroke-width="2" stroke-linecap="round" stroke-linejoin="round"/>
<path d="M64.6685 58.649H69.9693C70.2107 66.0782 70.1919 71.2249 70.0028 76.9107C69.9849 77.4486 69.543 77.875 69.0048 77.875H65.6685C65.1162 77.875 64.6685 77.4273 64.6685 76.875V58.649Z" fill="black"/>
<path d="M31.2852 58.649H36.586C36.8274 66.0782 36.8086 71.2249 36.6195 76.9107C36.6016 77.4486 36.1597 77.875 35.6215 77.875H32.2852C31.7329 77.875 31.2852 77.4273 31.2852 76.875V58.649Z" fill="black"/>
<rect x="63.541" y="53.9181" width="7.81945" height="4.73087" rx="1" stroke="black" stroke-width="2" stroke-linecap="round" stroke-linejoin="round"/>
<rect x="30.1577" y="53.9181" width="7.81945" height="4.73087" rx="1" stroke="black" stroke-width="2" stroke-linecap="round" stroke-linejoin="round"/>
<circle cx="57.6819" cy="48.4581" r="3.06667" stroke="black" stroke-width="2" stroke-linecap="round" stroke-linejoin="round"/>
<path d="M64.9254 36.179C64.953 35.6486 65.3918 35.2314 65.9229 35.2314H69.0131C69.5654 35.2314 70.0131 35.6791 70.0131 36.2314V53.9181H64.9759C64.5572 46.6051 64.5917 42.5907 64.9254 36.179Z" fill="black"/>
<path d="M31.5421 36.179C31.5697 35.6486 32.0085 35.2314 32.5396 35.2314H35.6298C36.1821 35.2314 36.6298 35.6791 36.6298 36.2314V53.9181H31.5926C31.1739 46.6051 31.2084 42.5907 31.5421 36.179Z" fill="black"/>
<path d="M80.7274 44.363C78.3225 44.363 76.7456 43.7788 74.1487 41.1819C72.4481 39.4813 71.5957 37.6363 71.5957 35.2313L73.7274 35.2313C77.5934 35.2313 80.7274 38.3653 80.7274 42.2313L80.7274 44.363Z" fill="black"/>
<path d="M19.3605 44.363C20.5597 44.363 21.7471 44.1268 22.855 43.6679C23.9629 43.209 24.9696 42.5364 25.8176 41.6884C26.6655 40.8405 27.3382 39.8338 27.7971 38.7259C28.256 37.618 28.4922 36.4305 28.4922 35.2313L26.3605 35.2313C22.4945 35.2313 19.3605 38.3653 19.3605 42.2313L19.3605 44.363Z" fill="black"/>
<path d="M46.9522 29.5508C44.5116 29.5508 42.8283 31.9073 43.4176 34.84L38.1777 35.2314C38.1776 28.7174 42.4317 25.2507 46.1441 25.2507C48.0139 25.2562 50.7495 25.1517 55.3557 25.2507C59.3113 25.2507 63.1842 29.1594 63.1842 34.84H57.9271C57.9271 32.0756 56.8599 29.5508 54.4657 29.5508C52.1587 29.3844 50.5388 29.3751 46.9522 29.5508Z" fill="black"/>
<path d="M41.9617 41.0939C41.8079 40.0564 43.1417 39.5009 43.7699 40.3409V40.3409C44.1469 40.845 44.8883 40.8852 45.3176 40.4248V40.4248C46.0329 39.6577 47.2988 40.3541 47.0338 41.3689V41.3689C46.8747 41.978 47.3055 42.5827 47.9332 42.6313V42.6313C48.9789 42.7123 49.2237 44.1362 48.265 44.5617V44.5617C47.6896 44.8171 47.4854 45.531 47.8388 46.052V46.052C48.4275 46.9201 47.4668 47.9992 46.5364 47.515V47.515C45.978 47.2244 45.2926 47.5098 45.1056 48.111V48.111C44.7939 49.1125 43.3512 49.0343 43.1497 48.0049V48.0049C43.0287 47.3871 42.3782 47.0292 41.7916 47.2578V47.2578C40.8143 47.6386 39.976 46.4619 40.6551 45.6625V45.6625C41.0627 45.1827 40.9369 44.451 40.3925 44.1349V44.1349C39.4854 43.6082 39.8827 42.2191 40.9311 42.2517V42.2517C41.5603 42.2712 42.054 41.7167 41.9617 41.0939V41.0939Z" stroke="black" stroke-width="2" stroke-linecap="round" stroke-linejoin="round"/>
</svg>
