<svg width="100" height="100" viewBox="0 0 100 100" fill="none" xmlns="http://www.w3.org/2000/svg">
<path d="M64.107 45.6162C64.107 45.6162 37.758 45.9861 35.804 46.0504C33.849 46.1147 27.9749 45.7041 26.5099 46.9818C25.0449 48.2596 24.783 50.6942 24.926 52.838C25.069 54.9817 24.804 59.3799 24.804 59.3799" stroke="black" stroke-width="2" stroke-miterlimit="10" stroke-linejoin="round"/>
<path d="M19.0001 66.1988C19.0421 74.0018 23.0141 75.6495 27.8001 75.4545C32.5851 75.2595 35.8201 71.861 35.9171 67.9607C36.0361 63.1903 31.876 58.6675 27.01 59.3198C23.158 59.8361 18.9781 62.2353 19.0001 66.1988Z" stroke="black" stroke-width="2" stroke-miterlimit="10" stroke-linejoin="round"/>
<path d="M24.2901 67.5368C23.9481 70.5247 29.6791 71.4688 29.5881 67.8273C29.4961 64.1857 24.6641 64.2777 24.2901 67.5368Z" fill="black" stroke="black" stroke-width="2" stroke-miterlimit="10" stroke-linejoin="round"/>
<path d="M35.1171 64.5456L50.761 64.5117" stroke="black" stroke-width="2" stroke-miterlimit="10" stroke-linejoin="round"/>
<path d="M24.7711 51.2725C24.7711 51.2725 21.8191 51.6277 21.9721 54.0007C22.1241 56.3642 24.837 56.2945 24.837 56.2945L24.7711 51.2725Z" stroke="black" stroke-width="2" stroke-miterlimit="10" stroke-linejoin="round"/>
<path d="M30.6471 59.7277C30.6471 59.7277 30.4521 53.1705 33.6151 50.7124C34.7591 49.8237 53.3152 50.2844 53.3152 50.2844" stroke="black" stroke-width="2" stroke-miterlimit="10" stroke-linejoin="round"/>
<path d="M37.087 54.8457L37.1561 59.3067" stroke="black" stroke-width="2" stroke-miterlimit="10" stroke-linecap="round" stroke-linejoin="round"/>
<path d="M40.3301 54.3398C40.3301 56.0029 40.5601 57.5857 40.5601 59.2377" stroke="black" stroke-width="2" stroke-miterlimit="10" stroke-linecap="round" stroke-linejoin="round"/>
<path d="M43.3191 54.0869C43.3191 55.1954 43.4251 56.6615 43.6411 57.7432C43.7131 58.1022 43.6161 58.4893 43.6871 58.8469C43.7131 58.9766 43.6871 59.4438 43.6871 59.3528" stroke="black" stroke-width="2" stroke-miterlimit="10" stroke-linecap="round" stroke-linejoin="round"/>
<path d="M75.6631 48.8965C75.6631 48.8965 75.6541 41.3769 75.0431 40.2628C74.4321 39.1487 71.1621 38.6455 71.1621 38.6455L71.5401 47.0428" stroke="black" stroke-width="2" stroke-miterlimit="10" stroke-linejoin="round"/>
<path d="M71.242 38.5046L68.251 27.5889L45.975 27.877C45.975 27.877 42.114 38.5192 41.981 40.7097C41.697 45.3635 41.82 45.524 41.82 45.524" stroke="black" stroke-width="2" stroke-miterlimit="10" stroke-linejoin="round"/>
<path d="M45.719 45.7304L45.688 42.3659L49.177 39.7803" stroke="black" stroke-width="2" stroke-miterlimit="10" stroke-linejoin="round"/>
<path d="M47.806 37.5371L51.046 42.2411" stroke="black" stroke-width="2" stroke-miterlimit="10" stroke-linecap="round" stroke-linejoin="round"/>
<path d="M59.5001 45.4836C59.5001 45.4836 59.498 40.5996 59.498 36.6896C59.498 32.7795 59.498 28.1426 59.498 28.1426" stroke="black" stroke-width="2" stroke-miterlimit="10" stroke-linejoin="round"/>
<path d="M66.3761 45.1986C64.2141 45.0661 63.328 46.2554 60.369 47.2938C57.41 48.3322 56.5851 47.666 54.5391 49.3522C52.6781 50.8856 53.3311 51.7434 51.9641 54.2703C50.5971 56.7971 49.106 57.2514 49.072 59.4597C49.03 62.1259 50.1691 62.5927 51.4251 65.6271C52.6811 68.6616 52.099 69.5229 54.096 71.5976C55.765 73.3312 56.6171 72.6023 59.4171 73.782C62.2171 74.9621 63.0011 76.1911 65.2971 76.3171C67.0991 76.4151 67.6891 75.7041 70.3651 74.7341C73.0411 73.765 73.9821 74.3911 76.0011 72.4384C77.8301 70.6705 77.0001 69.8158 78.2941 66.9458C79.5891 64.0759 81.3921 63.4336 81.1801 60.9586C81.0361 59.2859 80.5691 58.543 79.5061 55.8187C78.4431 53.0945 79.211 52.4911 76.929 50.0617C75.509 48.5501 74.635 49.0136 71.997 47.7978C69.359 46.5821 69.1661 45.3697 66.3761 45.1986Z" stroke="black" stroke-width="2" stroke-miterlimit="10" stroke-linejoin="round"/>
<path d="M59.761 60.8648C60.129 68.0866 71.056 67.8942 70.688 60.3965C70.32 52.8988 59.393 53.6431 59.761 60.8648Z" fill="black" stroke="black" stroke-width="2" stroke-miterlimit="10" stroke-linejoin="round"/>
<path d="M46.1981 27.6122C46.1981 27.6122 43.8591 27.7733 43.6621 26.0342C43.4641 24.2952 49.6001 24.2534 55.9571 24.1624C62.3141 24.0715 71.1811 23.4273 71.1711 25.5462C71.1601 27.6651 70.2171 27.6782 67.4491 27.6559C64.6811 27.6337 46.1981 27.6122 46.1981 27.6122Z" stroke="black" stroke-width="2" stroke-miterlimit="10" stroke-linejoin="round"/>
</svg>
