<svg width="100" height="100" viewBox="0 0 100 100" fill="none" xmlns="http://www.w3.org/2000/svg">
<path d="M65.646 56.6363C65.646 56.6363 72.971 55.5509 73.134 56.4369C73.352 57.6221 68.869 62.8749 68.869 62.8749L65.752 63.5359L65.646 56.6363Z" stroke="black" stroke-width="2" stroke-miterlimit="10" stroke-linejoin="round"/>
<path d="M65.6849 42.8423C65.6849 42.8423 73.0089 41.7569 73.1719 42.643C73.3899 43.8282 68.908 49.0809 68.908 49.0809L65.791 49.7419L65.6849 42.8423Z" stroke="black" stroke-width="2" stroke-miterlimit="10" stroke-linejoin="round"/>
<path d="M65.424 29.3433C65.424 29.3433 72.7479 28.2579 72.9109 29.1439C73.1299 30.3291 68.647 35.5819 68.647 35.5819L65.53 36.2429L65.424 29.3433Z" stroke="black" stroke-width="2" stroke-miterlimit="10" stroke-linejoin="round"/>
<path d="M34.831 56.5765C34.831 56.5765 27.4859 55.6408 27.3409 56.5299C27.1469 57.7193 31.736 62.8796 31.736 62.8796L34.865 63.4768L34.831 56.5765Z" stroke="black" stroke-width="2" stroke-miterlimit="10" stroke-linejoin="round"/>
<path d="M34.5109 42.7855C34.5109 42.7855 27.1659 41.8497 27.0209 42.7389C26.8269 43.9283 31.4159 49.0885 31.4159 49.0885L34.5459 49.6858L34.5109 42.7855Z" stroke="black" stroke-width="2" stroke-miterlimit="10" stroke-linejoin="round"/>
<path d="M34.496 29.2845C34.496 29.2845 27.151 28.3488 27.006 29.238C26.812 30.4274 31.4009 35.5876 31.4009 35.5876L34.5309 36.1849L34.496 29.2845Z" stroke="black" stroke-width="2" stroke-miterlimit="10" stroke-linejoin="round"/>
<path d="M35.346 66.6769C35.188 58.2957 34.601 30.939 34.616 26.7004C34.637 20.4862 46.814 21.3248 51.69 21.3272C59.615 21.3312 64.912 20.8791 65.291 30.6323C65.671 40.3855 65.567 62.8178 65.439 68.233C65.29 74.545 57.592 74.414 50.226 74.115C42.86 73.817 35.504 75.058 35.346 66.6769Z" stroke="black" stroke-width="2" stroke-miterlimit="10" stroke-linejoin="round"/>
<path d="M47.7179 74.2863L47.6219 79.8023C47.6219 79.8023 47.3629 82.3903 51.1699 82.4143C54.6369 82.4363 54.6709 79.9523 54.6709 79.9523L54.9049 74.0713" stroke="black" stroke-width="2" stroke-miterlimit="10" stroke-linejoin="round"/>
<path d="M65.1249 28.2418C65.1249 28.2418 65.6359 19.3128 60.9999 18.5239C56.3629 17.735 40.206 17.6553 37.41 19.5747C34.615 21.4941 34.6629 23.7418 34.5179 27.0304" stroke="black" stroke-width="2" stroke-miterlimit="10" stroke-linejoin="round"/>
<path d="M35.0569 23.6109C35.0569 23.6109 37.5749 19.5168 40.6149 19.2337C43.6549 18.9506 60.8119 18.9417 62.1859 20.2433C63.5599 21.5449 64.1049 24.1043 64.1049 24.1043C64.1049 24.1043 61.6579 21.5048 58.0179 21.3536C54.3779 21.2024 39.9459 21.7007 39.9459 21.7007L35.0569 23.6109Z" fill="black" stroke="black" stroke-width="2" stroke-miterlimit="10" stroke-linejoin="round"/>
<path d="M44.11 31.8028C43.858 24.2646 56.3459 23.6478 56.7939 30.9856C57.3439 40.002 44.381 39.9426 44.11 31.8028Z" stroke="black" stroke-width="2" stroke-miterlimit="10" stroke-linejoin="round"/>
<path d="M44.3649 32.5896C44.3649 32.5896 47.9819 28.7277 50.8899 29.0857C53.7989 29.4437 56.7489 31.9531 56.7489 31.9531C56.7489 31.9531 56.8529 28.4295 54.3249 26.8443C51.7959 25.2592 47.9649 25.1092 45.7719 27.6534C43.9669 29.748 44.3649 32.5896 44.3649 32.5896Z" stroke="black" stroke-width="2" stroke-miterlimit="10" stroke-linejoin="round"/>
<path d="M44.6069 33.1727C44.6069 33.1727 48.7129 29.2778 50.6769 29.6044C52.6409 29.931 55.9239 31.4031 56.0199 32.5153C56.1149 33.6275 53.8079 37.198 51.0149 37.1596C46.3729 37.0959 44.6069 33.1727 44.6069 33.1727Z" fill="black" stroke="black" stroke-width="2" stroke-miterlimit="10" stroke-linejoin="round"/>
<path d="M44.2058 47.6397C43.9538 40.1015 56.4417 39.4847 56.8897 46.8225C57.4397 55.8389 44.4768 55.7795 44.2058 47.6397Z" stroke="black" stroke-width="2" stroke-miterlimit="10" stroke-linejoin="round"/>
<path d="M44.4609 48.4265C44.4609 48.4265 48.0779 44.5646 50.9859 44.9226C53.8949 45.2806 56.8449 47.79 56.8449 47.79C56.8449 47.79 56.9489 44.2664 54.4209 42.6812C51.8919 41.0961 48.0609 40.9461 45.8679 43.4903C44.0629 45.5849 44.4609 48.4265 44.4609 48.4265Z" stroke="black" stroke-width="2" stroke-miterlimit="10" stroke-linejoin="round"/>
<path d="M44.7029 49.0096C44.7029 49.0096 48.8089 45.1147 50.7729 45.4413C52.7369 45.7679 56.0199 47.24 56.1159 48.3522C56.2109 49.4644 53.9039 53.0349 51.1109 52.9966C46.4689 52.9328 44.7029 49.0096 44.7029 49.0096Z" fill="black" stroke="black" stroke-width="2" stroke-miterlimit="10" stroke-linejoin="round"/>
<path d="M44.5539 63.4532C44.3019 55.915 56.79 55.2982 57.238 62.636C57.788 71.6519 44.8259 71.5929 44.5539 63.4532Z" stroke="black" stroke-width="2" stroke-miterlimit="10" stroke-linejoin="round"/>
<path d="M44.809 64.24C44.809 64.24 48.426 60.3781 51.335 60.7361C54.243 61.0941 57.194 63.6035 57.194 63.6035C57.194 63.6035 57.298 60.0799 54.769 58.4947C52.24 56.9096 48.41 56.7596 46.217 59.3038C44.411 61.3984 44.809 64.24 44.809 64.24Z" stroke="black" stroke-width="2" stroke-miterlimit="10" stroke-linejoin="round"/>
<path d="M45.052 64.8231C45.052 64.8231 49.157 60.9282 51.121 61.2548C53.085 61.5814 56.3691 63.0535 56.4641 64.1657C56.5591 65.2779 54.252 68.8483 51.46 68.8103C46.817 68.7463 45.052 64.8231 45.052 64.8231Z" fill="black" stroke="black" stroke-width="2" stroke-miterlimit="10" stroke-linejoin="round"/>
</svg>
