<svg width="100" height="100" viewBox="0 0 100 100" fill="none" xmlns="http://www.w3.org/2000/svg">
<path d="M11.3769 50.5043C11.4324 42.8423 17.6738 36.6841 25.3359 36.6841H74.5767C82.2965 36.6841 88.56 42.933 88.5695 50.6528C88.5797 58.8429 88.582 67.6471 88.5455 67.9287C88.5105 68.199 68.49 67.8224 48.9124 67.7879C30.1024 67.7548 11.708 68.0718 11.5139 67.9287C11.3015 67.772 11.3169 58.7949 11.3769 50.5043Z" stroke="black" stroke-width="2" stroke-linecap="round"/>
<path d="M88.3294 66.4893C87.8522 66.669 68.49 67.8222 48.9123 67.7877C30.1023 67.7546 11.6218 67.3466 11.4277 67.2034" stroke="black" stroke-width="2" stroke-linecap="round"/>
<path d="M76.8641 74.231C74.6225 74.231 72.9598 71.966 72.8054 70.1722C72.7341 69.3438 72.87 68.3966 73.2398 67.5467L81.449 67.5467C81.7562 68.2272 81.9375 69.0877 81.9375 70.1722C81.9375 72.4138 79.1057 74.231 76.8641 74.231Z" fill="black"/>
<path d="M31.8524 74.231C29.6108 74.231 27.948 71.966 27.7937 70.1722C27.7224 69.3438 27.8582 68.3966 28.2281 67.5467L36.4373 67.5467C36.7445 68.2272 36.9258 69.0877 36.9258 70.1722C36.9258 72.4138 34.094 74.231 31.8524 74.231Z" fill="black"/>
<path d="M67.3739 74.231C65.1323 74.231 63.4695 71.966 63.3151 70.1722C63.2482 69.394 63.364 68.511 63.6849 67.7023L71.8699 67.3617C72.2307 68.0692 72.4473 68.9869 72.4473 70.1722C72.4473 72.4138 69.6154 74.231 67.3739 74.231Z" fill="black"/>
<path d="M22.4266 74.231C20.185 74.231 18.5223 71.966 18.3679 70.1722C18.3009 69.394 18.4168 68.511 18.7377 67.7023L26.9226 67.3617C27.2834 68.0692 27.5 68.9869 27.5 70.1722C27.5 72.4138 24.6682 74.231 22.4266 74.231Z" fill="black"/>
<path d="M88.7535 62.4912L87.9971 62.4912L87.9971 57.9396L88.7535 57.9396C90.0104 57.9396 91.0293 58.9585 91.0293 60.2154C91.0293 61.4723 90.0104 62.4912 88.7535 62.4912Z" fill="black"/>
<path d="M11.2465 62.4912L12.0029 62.4912L12.0029 57.9396L11.2465 57.9396C9.98962 57.9396 8.9707 58.9585 8.9707 60.2154C8.9707 61.4723 9.98962 62.4912 11.2465 62.4912Z" fill="black"/>
<path d="M14.6886 48.2721C14.6886 47.7482 15.1132 47.3235 15.6371 47.3235C19.2768 47.2926 21.2531 47.2812 23.9902 47.3235C24.514 47.3235 24.9387 47.7482 24.9387 48.2721C25.1144 54.1946 25.0826 55.5154 24.9387 56.4651C24.9387 56.989 24.514 57.4136 23.9902 57.4136C18.7492 57.2367 17.7907 57.3146 15.6371 57.4136C15.1132 57.4136 14.6886 56.989 14.6886 56.4651C14.4062 54.9926 14.4212 53.093 14.6886 48.2721Z" fill="black"/>
<path d="M26.6602 48.2772C26.6602 47.7533 27.0848 47.3287 27.6087 47.3287C31.9099 47.3233 33.2958 47.2511 35.9618 47.3287C36.4856 47.3287 36.9103 47.7533 36.9103 48.2772C36.9604 48.0843 36.8575 50.2108 36.9103 52.9434C36.9374 54.3449 36.9103 56.4702 36.9103 56.4702C36.9103 56.9941 36.5496 57.4166 36.0258 57.4166C32.7637 57.4166 30.9348 57.4166 27.6727 57.4166C27.1489 57.4166 26.6602 56.9941 26.6602 56.4702V48.2772Z" fill="black"/>
<path d="M76.0159 57.4966C75.4505 57.4966 74.9922 57.0719 74.9922 56.5481C75.2007 52.6297 75.0827 51.172 74.9922 48.195C74.9922 47.6711 75.4505 47.2465 76.0159 47.2465C76.0159 47.2465 78.4323 47.3784 81.0521 47.2465C82.5629 47.1703 84.8587 47.2465 84.8587 47.2465C85.4241 47.2465 85.8802 47.6071 85.8802 48.1309C85.8802 51.393 85.8802 53.2219 85.8802 56.484C85.8802 57.0079 85.4241 57.4966 84.8587 57.4966L76.0159 57.4966Z" fill="black"/>
<path d="M64.273 57.4369C63.7492 57.4369 63.3245 57.0122 63.3245 56.4884C63.2936 52.8487 63.2822 50.8724 63.3245 48.1353C63.3245 47.6115 63.7492 47.1868 64.273 47.1868C70.1956 47.0111 71.5164 47.0429 72.4661 47.1868C72.99 47.1868 73.4146 47.6115 73.4146 48.1353C73.2376 53.3763 73.3156 54.3348 73.4146 56.4884C73.4146 57.0122 72.99 57.4369 72.4661 57.4369C70.9936 57.7193 69.094 57.7043 64.273 57.4369Z" fill="black"/>
<path d="M39.8513 67.3618C39.8513 67.3618 39.4124 45.2641 39.8513 45.0644C40.2902 44.8648 59.9755 44.5988 60.274 45.0644C60.5726 45.5301 60.274 67.3618 60.274 67.3618" stroke="black" stroke-width="2" stroke-linecap="round"/>
<path d="M50.0312 45.1641V67.362" stroke="black" stroke-width="2" stroke-linecap="round"/>
<path d="M50.3817 36.357L46.7812 31.6212L50.891 26.4824" stroke="black" stroke-width="2" stroke-linecap="round" stroke-linejoin="round"/>
<path d="M41.5801 25.769C49.0989 26.6024 52.5117 26.4977 58.4818 26.2276" stroke="black" stroke-width="2" stroke-linecap="round"/>
</svg>
