<svg width="100" height="100" viewBox="0 0 100 100" fill="none" xmlns="http://www.w3.org/2000/svg">
<path d="M61.0855 62.3189C61.095 62.0909 61.1036 61.8863 61.1107 61.7104C61.323 61.6693 61.5955 61.6276 61.9236 61.5878C62.8883 61.4708 64.2031 61.3858 65.5518 61.3572C66.9023 61.3285 68.2527 61.3572 69.2934 61.4594C69.818 61.5109 70.2292 61.5779 70.511 61.6534C70.5592 61.6664 70.5999 61.6786 70.6339 61.6897C70.6525 61.7699 70.6721 61.8726 70.6916 61.9996C70.7429 62.3345 70.7843 62.7784 70.8148 63.3067C70.8755 64.36 70.8886 65.6783 70.8679 66.9857C70.8472 68.2916 70.7929 69.5682 70.7216 70.5344C70.6923 70.9306 70.6609 71.2648 70.6291 71.5229C70.352 71.5509 69.9891 71.5769 69.558 71.5997C68.5427 71.6534 67.2075 71.6862 65.8603 71.6926C64.5125 71.699 63.1684 71.679 62.1339 71.6286C61.6509 71.6051 61.2502 71.5757 60.9538 71.5415C60.9278 71.2712 60.9091 70.9107 60.898 70.4737C60.8726 69.4693 60.8894 68.1532 60.9241 66.8141C60.9666 65.1713 61.0382 63.455 61.0855 62.3189ZM70.7738 61.7464C70.7736 61.7465 70.7704 61.7448 70.7649 61.7412C70.7712 61.7446 70.774 61.7464 70.7738 61.7464Z" fill="black" stroke="black" stroke-width="2"/>
<path d="M61.1328 50.7595L61.133 41.0147C61.3419 40.975 61.6067 40.9348 61.9234 40.8964C62.8881 40.7794 64.2029 40.6944 65.5516 40.6658C66.9021 40.6371 68.2525 40.6658 69.2932 40.768C69.8177 40.8195 70.229 40.8864 70.5108 40.962C70.5589 40.9749 70.5997 40.9872 70.6337 40.9983C70.6523 41.0785 70.6719 41.1812 70.6913 41.3082C70.7427 41.6431 70.7841 42.087 70.8145 42.6153C70.8752 43.6686 70.8884 44.9869 70.8676 46.2943C70.8469 47.6002 70.7927 48.8768 70.7213 49.843C70.692 50.24 70.6605 50.5747 70.6287 50.833C70.334 50.8641 69.9431 50.8932 69.4784 50.9183C68.421 50.9753 67.0362 51.0086 65.6597 51.0035C64.279 50.9983 62.9325 50.9545 61.9436 50.8615C61.6143 50.8306 61.3432 50.7958 61.1328 50.7595ZM70.7736 41.055C70.7734 41.0551 70.7702 41.0534 70.7647 41.0498C70.771 41.0532 70.7738 41.055 70.7736 41.055Z" fill="black" stroke="black" stroke-width="2"/>
<path d="M40.4869 62.3181C40.4954 62.1133 40.5032 61.9274 40.5098 61.7642C40.7006 61.7417 40.9363 61.7213 41.2152 61.7042C42.1563 61.6466 43.4427 61.6343 44.7818 61.6547C46.1169 61.6751 47.4834 61.7278 48.5777 61.7969C49.1256 61.8315 49.5976 61.8698 49.9598 61.9092C50.0624 61.9204 50.1538 61.9315 50.2338 61.9422C50.2876 62.1833 50.3347 62.5341 50.3691 62.9884C50.4446 63.9857 50.4475 65.3146 50.4045 66.6708C50.3617 68.0219 50.2744 69.3714 50.1754 70.3997C50.1318 70.8533 50.0868 71.2343 50.0441 71.5207C49.7653 71.5493 49.3976 71.5758 48.9594 71.599C47.944 71.6526 46.6088 71.6854 45.2617 71.6918C43.9139 71.6983 42.5698 71.6782 41.5352 71.6278C41.0522 71.6043 40.6516 71.5749 40.3552 71.5407C40.3291 71.2704 40.3104 70.9099 40.2994 70.4729C40.2739 69.4685 40.2907 68.1524 40.3254 66.8133C40.368 65.1705 40.4395 63.4542 40.4869 62.3181ZM40.4119 71.9274C40.4119 71.9274 40.4117 71.9268 40.4113 71.9254L40.4119 71.9274Z" fill="black" stroke="black" stroke-width="2"/>
<path d="M40.4869 41.6282C40.4955 41.4213 40.5034 41.2336 40.5101 41.0691C40.7066 41.0444 40.9509 41.0217 41.2406 41.0022C42.1923 40.9383 43.4916 40.9183 44.8379 40.9336C46.181 40.9488 47.5489 40.9988 48.6325 41.0715C49.1756 41.1079 49.6362 41.1494 49.982 41.1933C50.056 41.2027 50.1226 41.2119 50.182 41.2209C50.227 41.45 50.2655 41.7757 50.2935 42.1938C50.3559 43.1263 50.3569 44.3638 50.328 45.6474C50.2993 46.9249 50.2417 48.2223 50.1909 49.2665C50.1787 49.5178 50.1667 49.7579 50.1555 49.9812C50.1399 50.2928 50.1259 50.5717 50.1154 50.8025C49.9024 50.8463 49.6173 50.8889 49.2615 50.9267C48.2708 51.032 46.9169 51.0819 45.5205 51.0863C44.1288 51.0907 42.7242 51.05 41.6407 50.9796C41.1114 50.9452 40.6732 50.9046 40.3562 50.8612C40.3296 50.5898 40.3106 50.2256 40.2994 49.783C40.2739 48.7786 40.2907 47.4625 40.3254 46.1234C40.368 44.4806 40.4395 42.7643 40.4869 41.6282Z" fill="black" stroke="black" stroke-width="2"/>
<path d="M51.2964 60.5941C51.0685 60.5846 50.8639 60.5761 50.6879 60.569C50.6469 60.3567 50.6051 60.0842 50.5653 59.7561C50.4483 58.7914 50.3633 57.4766 50.3347 56.1279C50.3061 54.7774 50.3347 53.427 50.4369 52.3863C50.4884 51.8617 50.5554 51.4505 50.631 51.1687C50.6439 51.1205 50.6561 51.0798 50.6673 51.0458C50.7474 51.0272 50.8501 51.0076 50.9771 50.9881C51.312 50.9368 51.7559 50.8953 52.2843 50.8649C53.3375 50.8042 54.6559 50.7911 55.9632 50.8118C57.2692 50.8325 58.5458 50.8868 59.512 50.9581C59.9081 50.9874 60.2423 51.0188 60.5004 51.0506C60.5285 51.3277 60.5545 51.6906 60.5773 52.1217C60.6309 53.137 60.6637 54.4722 60.6702 55.8194C60.6766 57.1671 60.6565 58.5113 60.6062 59.5458C60.5826 60.0288 60.5532 60.4295 60.519 60.7259C60.2488 60.7519 59.8882 60.7706 59.4512 60.7817C58.4468 60.8071 57.1308 60.7903 55.7917 60.7556C54.1488 60.7131 52.4325 60.6415 51.2964 60.5941ZM50.724 50.9059C50.7241 50.9061 50.7224 50.9093 50.7188 50.9148C50.7221 50.9085 50.7239 50.9057 50.724 50.9059Z" fill="black" stroke="black" stroke-width="2"/>
<path d="M30.2261 60.6078C30.0537 60.5973 29.8949 60.5876 29.7533 60.5793C29.7116 60.3656 29.6692 60.0897 29.6288 59.7565C29.5118 58.7918 29.4268 57.477 29.3982 56.1283C29.3696 54.7778 29.3982 53.4274 29.5004 52.3867C29.5519 51.8621 29.6189 51.4509 29.6945 51.1691C29.7074 51.1209 29.7196 51.0802 29.7307 51.0462C29.8109 51.0276 29.9136 51.008 30.0406 50.9885C30.3755 50.9372 30.8194 50.8958 31.3477 50.8653C32.401 50.8047 33.7194 50.7915 35.0267 50.8122C36.3327 50.833 37.6092 50.8872 38.5754 50.9585C38.9823 50.9886 39.3238 51.0209 39.5846 51.0536C39.6176 51.3053 39.6509 51.6323 39.6831 52.0212C39.7608 52.9613 39.8271 54.2029 39.8701 55.4763C39.913 56.7493 39.9322 58.0404 39.9173 59.0793C39.9098 59.5998 39.8939 60.0468 39.8694 60.392C39.8624 60.4895 39.855 60.576 39.8472 60.6516C39.6069 60.7082 39.2532 60.7576 38.7897 60.7935C37.7843 60.8712 36.4437 60.8726 35.0603 60.8367C33.6842 60.801 32.2952 60.7294 31.2033 60.6663C30.8498 60.6458 30.5183 60.6256 30.2261 60.6078ZM29.7875 50.9063C29.7875 50.9065 29.7859 50.9097 29.7822 50.9152C29.7856 50.9089 29.7874 50.9061 29.7875 50.9063Z" fill="black" stroke="black" stroke-width="2"/>
<path d="M52.0238 40.0806C51.6827 40.0428 51.4096 40.0002 51.2052 39.9565C51.2014 39.6702 51.1958 39.3029 51.1894 38.8784C51.1731 37.7987 51.1513 36.349 51.1375 34.9221C51.1253 33.6593 51.1193 32.4055 51.1284 31.4119C51.133 30.9144 51.1412 30.4887 51.154 30.1626C51.1552 30.1325 51.1564 30.1036 51.1576 30.0757C51.3872 30.0364 51.6963 30.0017 52.0805 29.9748C53.0763 29.9052 54.4149 29.8983 55.7827 29.9326C57.1461 29.9668 58.5121 30.0413 59.5539 30.1296C60.0118 30.1684 60.3969 30.209 60.6871 30.2486C60.7153 30.5264 60.7415 30.8911 60.7644 31.3248C60.8181 32.3402 60.8509 33.6754 60.8573 35.0226C60.8637 36.3703 60.8437 37.7144 60.7933 38.749C60.7689 39.2512 60.738 39.6645 60.7021 39.964C60.4049 40.0123 59.9919 40.0583 59.4883 40.0982C58.4349 40.1817 57.0604 40.2326 55.6946 40.2343C54.3243 40.236 52.9952 40.1881 52.0238 40.0806Z" fill="black" stroke="black" stroke-width="2"/>
<path d="M30.0422 40.2708C29.9421 40.2666 29.848 40.2627 29.7605 40.2591C29.7164 40.0245 29.6718 39.7194 29.6296 39.3506C29.5121 38.3225 29.4269 36.9243 29.3982 35.4929C29.3695 34.0596 29.3982 32.6256 29.5009 31.521C29.5526 30.9645 29.6202 30.5255 29.6975 30.2233C29.7117 30.1676 29.7252 30.1209 29.7374 30.0823C29.8166 30.0642 29.9171 30.0451 30.0406 30.0262C30.3755 29.9749 30.8194 29.9334 31.3477 29.903C32.401 29.8423 33.7194 29.8292 35.0267 29.8499C36.3327 29.8706 37.6093 29.9248 38.5755 29.9962C38.965 30.025 39.2947 30.0558 39.551 30.0871C39.5725 30.3551 39.5908 30.7016 39.6058 31.1128C39.6423 32.1159 39.6569 33.4386 39.6598 34.7931C39.664 36.7368 39.6449 38.6411 39.6332 39.8032C39.6316 39.9598 39.6302 40.1029 39.629 40.2309C39.4273 40.2667 39.1622 40.3001 38.8336 40.3281C37.8545 40.4114 36.5153 40.4312 35.1225 40.4182C33.7369 40.4052 32.327 40.3601 31.2171 40.318C30.7788 40.3013 30.3775 40.2847 30.0422 40.2708ZM29.7962 29.9337C29.7963 29.9339 29.7944 29.9377 29.7901 29.9443C29.794 29.9367 29.7961 29.9334 29.7962 29.9337Z" fill="black" stroke="black" stroke-width="2"/>
<path d="M28.388 28.937C28.5751 28.3756 71.5467 28.6799 71.8774 28.937C72.2082 29.1942 72.2125 72.0965 71.8774 72.4264C71.5424 72.7564 28.7252 72.7932 28.388 72.4264C28.0508 72.0597 28.2009 29.4984 28.388 28.937Z" stroke="black" stroke-width="2"/>
<path d="M28.5059 79.063V82.8537" stroke="black" stroke-width="2" stroke-linecap="round"/>
<path d="M21.374 72.3774L17.5833 72.3774" stroke="black" stroke-width="2" stroke-linecap="round"/>
<path d="M78.8125 72.1553L82.6032 72.1553" stroke="black" stroke-width="2" stroke-linecap="round"/>
<path d="M72.127 79.2871V83.0778" stroke="black" stroke-width="2" stroke-linecap="round"/>
<path d="M71.6807 21.7119L71.6807 17.9212" stroke="black" stroke-width="2" stroke-linecap="round"/>
<path d="M78.8125 28.3975L82.6032 28.3975" stroke="black" stroke-width="2" stroke-linecap="round"/>
<path d="M21.374 28.6201L17.5833 28.6201" stroke="black" stroke-width="2" stroke-linecap="round"/>
<path d="M28.0596 21.4883L28.0596 17.6976" stroke="black" stroke-width="2" stroke-linecap="round"/>
</svg>
