<svg width="100" height="100" viewBox="0 0 100 100" fill="none" xmlns="http://www.w3.org/2000/svg">
<path d="M26.0608 38.5533C25.2818 37.3413 32.0758 31.5853 41.2368 25.6953C50.3968 19.8063 58.4538 16.0143 59.2328 17.2253C60.0118 18.4373 53.2178 24.1943 44.0578 30.0833C41.0478 32.0183 35.8088 34.6453 35.8088 34.6453C35.8088 34.6453 26.5848 39.3673 26.0608 38.5533Z" stroke="black" stroke-width="2" stroke-miterlimit="10" stroke-linejoin="round"/>
<path d="M26.0908 38.5703L28.0448 41.7573C28.0448 41.7573 38.3508 38.6593 46.5378 33.1913C49.3718 31.2993 55.498 27.5867 57.677 25.6517C61.796 21.9947 61.177 21.1517 61.177 21.1517L59.3808 17.4012" stroke="black" stroke-width="2" stroke-miterlimit="10" stroke-linecap="round" stroke-linejoin="round"/>
<path d="M63.6098 43.5682C66.5738 44.1322 67.9068 44.7092 67.9068 45.2242C67.9068 45.8822 65.4868 46.7562 61.8858 47.0592L63.6098 43.5682Z" fill="black" stroke="black" stroke-width="2" stroke-miterlimit="10" stroke-linejoin="round"/>
<path d="M40.5888 47.6362C33.7518 47.3272 28.4708 46.2532 28.4708 45.2242C28.4708 44.2362 33.3508 43.1922 39.7638 42.8662L40.5888 47.6362Z" fill="black" stroke="black" stroke-width="2" stroke-miterlimit="10" stroke-linejoin="round"/>
<path d="M28.4644 45.0273C28.4644 45.0273 26.9104 68.8914 28.9044 79.3734C29.2334 81.1024 36.8994 83.7813 47.1684 83.8303C61.3494 83.8963 64.0774 80.7913 64.0774 80.7913C64.0774 80.7913 65.3974 71.7273 66.3474 62.8533C67.2984 53.9783 67.8784 45.2923 67.8784 45.2923" stroke="black" stroke-width="2" stroke-miterlimit="10" stroke-linecap="round" stroke-linejoin="round"/>
<path d="M40.7812 83.371C40.7812 83.371 43.4182 79.898 43.7932 79.301C44.1232 78.775 51.1172 79.325 51.1172 79.325L53.9342 83.449" stroke="black" stroke-width="2" stroke-miterlimit="10" stroke-linecap="round" stroke-linejoin="round"/>
<path d="M28.6807 50.3848C28.6807 50.3848 38.9636 53.6828 48.5406 53.5388C58.1176 53.3948 67.4657 50.6508 67.4657 50.6508" stroke="black" stroke-width="2" stroke-miterlimit="10" stroke-linecap="round" stroke-linejoin="round"/>
<path d="M28.1797 41.7939L28.4607 44.9359" stroke="black" stroke-width="2" stroke-miterlimit="10" stroke-linecap="round" stroke-linejoin="round"/>
<path d="M48.0127 47.8251L48.0577 47.531L49.6807 38.306C49.6807 38.306 52.6747 37.3001 56.0457 38.7831C60.7347 40.8461 65.6197 39.428 65.6197 39.428C65.6197 39.428 64.5547 41.63 63.6167 43.538C62.6797 45.446 61.8707 47.06 61.8707 47.06C61.8707 47.06 58.4117 47.559 54.9617 47.684C51.5117 47.809 48.0127 47.8251 48.0127 47.8251Z" stroke="black" stroke-width="2" stroke-miterlimit="10" stroke-linecap="round" stroke-linejoin="round"/>
<path d="M40.5848 47.6193L39.4568 41.0633C39.4568 41.0633 41.0478 40.7843 43.9038 40.6573C46.7608 40.5313 49.2158 40.8783 49.2158 40.8783L48.0048 47.8313C48.0048 47.8313 46.5108 47.8053 44.6538 47.7883C42.7978 47.7703 40.5848 47.6193 40.5848 47.6193Z" stroke="black" stroke-width="2" stroke-miterlimit="10" stroke-linecap="round" stroke-linejoin="round"/>
<path d="M47.9668 83.8736C47.9668 83.8736 69.2858 83.4456 73.7188 79.8686C76.4448 77.6686 64.7598 76.4355 64.7598 76.4355L64.1398 80.8355C64.1398 80.8355 63.7288 81.5146 60.7468 82.4646C57.7658 83.4146 53.9138 83.5985 53.9138 83.5985" fill="black"/>
<path d="M47.9668 83.8736C47.9668 83.8736 69.2858 83.4456 73.7188 79.8686C76.4448 77.6686 64.7598 76.4355 64.7598 76.4355L64.1398 80.8355C64.1398 80.8355 63.7288 81.5146 60.7468 82.4646C57.7658 83.4146 53.9138 83.5985 53.9138 83.5985" stroke="black" stroke-width="2" stroke-miterlimit="10" stroke-linecap="round" stroke-linejoin="round"/>
<path d="M63.7268 43.6183C66.3458 44.0613 67.9068 44.6183 67.9068 45.2243C67.9068 46.6653 59.0788 47.8323 48.1888 47.8323C37.2988 47.8323 28.4708 46.6653 28.4708 45.2243C28.4708 44.1873 33.0428 43.2923 39.6638 42.8713" stroke="black" stroke-width="2" stroke-miterlimit="10" stroke-linejoin="round"/>
</svg>
