<svg width="100" height="100" viewBox="0 0 100 100" fill="none" xmlns="http://www.w3.org/2000/svg">
<path d="M66.3975 24.5264L66.3975 39.5989" stroke="black" stroke-width="2"/>
<path d="M17.9121 24.3796C17.912 18.7328 34.7056 16.4774 40.8791 16.3564C47.0526 16.2355 60.5663 17.1517 64.5169 20.8692C72.4686 28.3517 52.8953 32.2478 48.6586 32.4899C44.4219 32.732 17.9122 32.7879 17.9121 24.3796Z" stroke="black" stroke-width="2"/>
<path d="M17.8928 24.8057C17.8928 36.2755 17.3333 56.0914 17.3333 59.4151C17.3333 63.5697 16.9437 70.6228 17.3333 73.5448C17.7229 76.4668 21.1516 78.4982 21.9484 78.6576C22.9444 78.8568 25.1324 64.6761 25.8297 63.8793C26.3874 63.2418 27.9445 80.2141 29.3157 80.9113C30.687 81.6085 39.8108 82.9228 46.3251 82.5319C58.8103 81.7828 65.5849 78.1706 66.1443 73.9749C66.7038 69.7792 66.7038 65.5227 66.7038 58.4431" stroke="black" stroke-width="2"/>
<path d="M36.3689 81.1664C36.3689 81.1664 36.1322 77.3844 36.3689 75.2065C36.6056 73.0286 36.3689 69.2466 36.3689 69.2466" stroke="black" stroke-width="2" stroke-linecap="round"/>
<path d="M28.357 78.6161C28.357 78.6161 22.0201 79.0321 22.1168 78.6161C22.2135 78.2 24.4411 71.32 26.0296 67.5889L28.357 78.6161Z" fill="black" stroke="black" stroke-width="2" stroke-linecap="round"/>
<path d="M55.0707 81.1663C55.0707 81.1663 55.3738 77.0824 55.0707 74.3532C54.7677 71.6239 55.0707 67.54 55.0707 67.54" stroke="black" stroke-width="2" stroke-linecap="round"/>
<path d="M55.0967 62.3176V59.833" stroke="black" stroke-width="2" stroke-linecap="round"/>
<path d="M23.9868 44.7456V47.1781" stroke="black" stroke-width="2" stroke-linecap="round"/>
<path d="M61.5586 43.5858C65.2668 40.8818 72.3403 33.645 75.0388 33.4255C77.7373 33.2061 85.4307 40.1206 81.9542 42.5542C79.7194 44.1185 70.0197 34.6779 75.6767 33.4919" stroke="black" stroke-width="2" stroke-linecap="round"/>
<path d="M62.2534 62.9932C64.0531 61.3221 68.2694 57.3013 70.7375 54.5864C73.8225 51.1928 80.3679 43.8034 81.9105 42.6465" stroke="black" stroke-width="2" stroke-linecap="round"/>
<path d="M48.71 42.6187V58.5785" stroke="black" stroke-width="2" stroke-linecap="round"/>
<path d="M74.4156 37.9253L70.2969 41.8194" stroke="black" stroke-width="2" stroke-linecap="round"/>
<path d="M36.7223 32.6802C36.7223 32.6802 37.1083 38.5982 36.7223 40.0779C36.3364 41.5575 36.7223 47.4756 36.7223 47.4756" stroke="black" stroke-width="2" stroke-linecap="round"/>
<path d="M55.4516 32.3545C55.0078 34.9975 55.4516 36.0589 55.4516 38.6401C55.4516 41.2213 55.4516 44.9257 55.4516 44.9257" stroke="black" stroke-width="2" stroke-linecap="round"/>
<path d="M23.8286 30.751V39.4058" stroke="black" stroke-width="2" stroke-linecap="round"/>
<path d="M35.1885 19.8247C32.6542 20.0781 25.5553 21.4682 23.7307 23.2929C21.45 25.5738 26.5721 28.0731 35.1885 28.7489" stroke="black" stroke-width="2" stroke-linecap="round"/>
<path d="M46.0815 19.568C49.6609 19.3532 58.549 21.025 60.7253 22.9721C63.4458 25.4061 57.9148 26.6595 56.9842 26.7311" stroke="black" stroke-width="2" stroke-linecap="round"/>
<path d="M36.4619 64.4375V58.7021" stroke="black" stroke-width="2" stroke-linecap="round"/>
<path d="M41.8687 32.7549V35.7989" stroke="black" stroke-width="2" stroke-linecap="round"/>
<path d="M46.397 29.1283C47.6799 29.057 51.0756 28.5981 52.5126 28.1875" stroke="black" stroke-width="2" stroke-linecap="round"/>
<path d="M62.0981 28.9666C63.8548 28.0895 64.9341 27.7558 65.7135 28.784C66.2846 29.5372 66.3935 33.013 66.3935 38.6683" stroke="black" stroke-width="2"/>
<path d="M38.5184 22.4927C35.6369 22.7365 30.7501 23.568 31.4549 24.4099C33.271 26.5794 50.0218 25.974 52.0904 24.9145" stroke="black" stroke-width="2" stroke-linecap="round"/>
<path d="M73.7231 73.1422C76.2539 74.8763 82.5107 80.4051 71.0427 82.6577C66.0706 83.6343 57.8319 83.8416 49.9994 83.5013C52.3654 83.0783 55.1799 81.681 56.1628 81.681C57.3915 81.681 65.2687 78.3553 65.8148 76.2392C66.2517 74.5463 66.6184 71.0849 66.755 69.4922C68.689 69.9928 73.0194 72.66 73.7231 73.1422Z" fill="black"/>
<path d="M29.5522 81.0226C37.7671 83.0795 43.3796 83.2137 49.9994 83.5013M49.9994 83.5013C57.8319 83.8416 66.0706 83.6343 71.0427 82.6577C82.5107 80.4051 76.2539 74.8763 73.7231 73.1422C73.0194 72.66 68.689 69.9928 66.755 69.4922C66.6184 71.0849 66.2517 74.5463 65.8148 76.2392C65.2687 78.3553 57.3915 81.681 56.1628 81.681C55.1799 81.681 52.3654 83.0783 49.9994 83.5013Z" stroke="black" stroke-width="2" stroke-linecap="round"/>
<path d="M77.7646 40.9404C79.0485 42.1591 80.0284 43.9649 78.5467 45.6644C77.065 47.3638 69.4422 55.9007 65.7744 59.6593" stroke="black" stroke-width="2" stroke-linecap="round"/>
</svg>
