<svg width="100" height="100" viewBox="0 0 100 100" fill="none" xmlns="http://www.w3.org/2000/svg">
<path d="M48.202 56.1442C48.202 52.07 43.7451 50.0009 42.1027 48.5443C41.7781 48.2506 42.4033 46.6355 42.8391 47.0713C43.2749 47.5071 47.4713 51.7556 49.0737 51.7189C50.6761 51.6822 51.2341 40.4095 51.3011 39.806C51.3682 39.2025 53.2972 37.6331 53.2972 37.9683C53.2972 38.3036 53.4673 50.9801 53.4673 54.7465C53.4673 57.1752 55.2722 58.7553 56.9835 57.0993C57.9091 56.2036 62.7342 49.5617 63.5626 49.5617C64.0462 49.5617 60.2654 54.3124 58.9859 56.6652C58.1233 58.2513 56.0251 59.7816 56.0251 62.1955C56.0251 64.6094 57.2957 80.5834 57.2957 81.9137C57.2957 84.7135 46.767 84.494 46.767 81.9137C46.767 79.3333 47.2185 76.466 47.4867 74.6422C47.8219 72.3624 48.202 58.3731 48.202 56.1442Z" fill="black" stroke="black" stroke-width="2"/>
<path d="M58.1831 59.2263C59.158 59.8071 61.5807 60.8319 63.4723 60.2842C65.3639 59.7366 66.6952 57.1248 67.2057 56.7373C67.7163 56.3499 70.2201 57.3217 71.0637 56.7373C73.4314 55.0971 72.5571 52.1327 73.8016 51.8838C75.0461 51.6349 78.5307 50.0791 78.7174 48.2746C78.9041 46.4701 80.0241 41.6166 77.0996 41.0565C74.175 40.4965 73.4283 38.3186 70.1303 40.6832C66.8324 43.0478 66.4155 39.7854 63.4723 41.0565" stroke="black" stroke-width="2" stroke-linecap="round"/>
<path d="M71.4368 39.4648C72.3343 37.9963 73.9008 34.7004 72.9871 33.2644C71.8448 31.4695 69.5605 30.6537 69.3973 29.8379C69.2342 29.022 70.8658 25.7587 67.684 24.6166C64.5023 23.4744 64.5022 18.1715 62.0547 17.6004C59.6072 17.0293 56.0174 16.1319 54.0594 17.6004C52.1014 19.0689 50.1433 15.5608 48.0222 16.1319C45.901 16.7029 39.7007 17.4371 38.2322 20.211C36.7636 22.9848 35.4583 24.9428 37.1716 26.2482C38.8848 27.5535 40.1903 29.6747 41.8219 29.3484C43.4536 29.022 47.0433 28.9404 47.2065 27.3088" stroke="black" stroke-width="2" stroke-linecap="round"/>
<path d="M37.3412 26.9116C35.3516 26.9116 30.9873 27.3543 29.447 29.1257C27.5217 31.3399 24.5225 29.4147 24.1374 31.7251C23.7523 34.0356 21.3531 33.8854 20.9443 36.1204C20.5685 38.175 24.1374 40.3654 27.3314 40.1024C30.6102 39.8324 30.2568 38.0714 31.9896 38.9378C33.7224 39.8043 33.1054 41.8332 36.5711 40.5817C40.0367 39.3302 41.824 39.1067 44.3264 40.5817" stroke="black" stroke-width="2" stroke-linecap="round"/>
<path d="M27.4113 40.1348C25.0104 43.1678 29.2441 44.7625 29.2441 45.948C29.2441 47.4298 27.5283 50.6208 29.2441 51.6348C30.9599 52.6487 32.9088 52.9587 32.9088 53.9726C32.9088 54.9866 32.6766 57.9226 35.3283 58.5465C37.9801 59.1704 39.4333 59.3644 42.553 57.4926C45.6727 55.6208 46.2967 59.0525 48.3245 58.2725" stroke="black" stroke-width="2" stroke-linecap="round"/>
<path d="M55.9845 22.4358C56.4525 22.729 57.0696 22.5873 57.3628 22.1193C57.656 21.6512 57.5143 21.0341 57.0463 20.7409L55.9845 22.4358ZM51.3463 18.516C52.0265 18.8718 52.7035 19.5026 53.4894 20.2752C54.2243 20.9974 55.0738 21.8653 55.9845 22.4358L57.0463 20.7409C56.3651 20.3142 55.6949 19.6386 54.8914 18.8488C54.1391 18.1093 53.2592 17.2595 52.2734 16.7438L51.3463 18.516Z" fill="black"/>
<path d="M33.2593 54.0308C33.052 57.4898 34.9008 58.6017 37.3555 58.7332C40.4238 58.8976 43.2331 56.2725 44.2467 56.2178C45.2604 56.163 46.959 57.7793 48.274 57.341" stroke="black" stroke-width="2" stroke-linecap="round"/>
<path d="M31.8516 52.8521C33.212 53.486 35.3898 53.9073 36.4584 53.6868" stroke="black" stroke-width="2" stroke-linecap="round"/>
<path d="M58.4854 58.592C59.5577 59.2048 61.5601 59.6999 63.2671 58.9645C65.4008 58.0454 65.4881 56.3565 67.0309 56.1923C68.5738 56.0282 71.516 58.592 73.0712 52.3384" stroke="black" stroke-width="2" stroke-linecap="round"/>
<path d="M69.4893 51.3979C70.3642 51.6965 73.2736 52.2005 75.0524 51.4841" stroke="black" stroke-width="2" stroke-linecap="round"/>
<path d="M65.3462 29.287C66.0889 29.2634 68.3547 29.5204 69.9591 30.5619" stroke="black" stroke-width="2" stroke-linecap="round"/>
</svg>
