<svg width="100" height="100" viewBox="0 0 100 100" fill="none" xmlns="http://www.w3.org/2000/svg">
<path d="M50.5117 18.0026C48.6787 17.8456 45.6618 24.7316 38.4068 30.6656C37.1518 31.6926 40.9798 34.6256 43.2838 33.9836C45.5878 33.3426 35.7638 40.1966 34.2128 41.5836C32.6618 42.9696 40.3147 45.0616 40.3147 45.0616C40.3147 45.0616 30.3942 53.0906 28.7961 54.4676C26.226 56.6836 34.7218 58.6026 36.4868 58.0836C37.4038 57.8146 34.4778 60.7906 31.6882 63.1426C28.8985 65.4946 26.7061 67.1316 26.1702 68.0456C25.0726 69.9176 29.4993 71.1776 33.2187 71.9206C36.9377 72.6636 41.2238 69.8496 41.2238 69.8496C41.2238 69.8496 46.4138 74.2866 51.3528 73.2116C56.2918 72.1366 58.2218 69.4626 58.2218 69.4626C58.2218 69.4626 61.8998 71.8876 65.9408 71.4726C69.9828 71.0586 73.1417 69.8686 73.8637 68.2046C74.5727 66.5696 63.4377 57.7356 63.4377 57.7356C63.4377 57.7356 72.1987 55.0626 71.1597 53.3126C69.9807 51.3266 60.9598 44.5596 60.9598 44.5596C60.9598 44.5596 68.7847 43.4466 67.9807 41.9156C66.8507 39.7656 58.9547 33.6316 58.9547 33.6316C58.9547 33.6316 63.2068 32.8306 63.1368 30.9126C63.1068 30.1066 60.1468 28.1666 57.7778 25.6606C54.5158 22.2096 51.4677 18.0846 50.5117 18.0026Z" stroke="black" stroke-width="2" stroke-miterlimit="10" stroke-linecap="round" stroke-linejoin="round"/>
<path d="M45.3847 72.4457C45.3847 72.4457 45.2527 78.2337 45.2527 80.9987C45.2527 82.1507 47.3177 82.9467 49.5307 82.9217C51.7427 82.8967 54.5937 82.2696 54.6267 81.0856C54.6877 78.8816 54.7447 72.3057 54.7447 72.3057C54.7447 72.3057 52.0797 73.4897 49.8257 73.5637C47.5727 73.6377 45.3847 72.4457 45.3847 72.4457Z" fill="black" stroke="black" stroke-width="2" stroke-miterlimit="10" stroke-linecap="round" stroke-linejoin="round"/>
<path d="M73.7057 68.499C73.7057 68.499 72.6007 70.8811 67.4787 72.0341C64.6867 72.6621 61.1097 71.864 60.2957 71.697C59.1607 71.464 57.1777 70.6201 57.1777 70.6201" stroke="black" stroke-width="2" stroke-miterlimit="10" stroke-linecap="round" stroke-linejoin="round"/>
<path d="M63.5498 57.6592C59.6408 59.1982 55.2538 58.4742 52.9878 58.0742" stroke="black" stroke-width="2" stroke-miterlimit="10" stroke-linecap="round" stroke-linejoin="round"/>
<path d="M53.5818 58.2227C53.5818 58.2227 58.9558 60.2647 64.5708 59.4427" stroke="black" stroke-width="2" stroke-miterlimit="10" stroke-linecap="round" stroke-linejoin="round"/>
<path d="M60.6979 44.6166C58.5079 45.2676 51.9869 45.6947 49.9639 44.5977" stroke="black" stroke-width="2" stroke-miterlimit="10" stroke-linecap="round" stroke-linejoin="round"/>
<path d="M50.3748 44.751C50.3748 44.751 53.9798 46.702 57.1558 46.537C59.0738 46.437 62.1838 45.908 62.1838 45.908" stroke="black" stroke-width="2" stroke-miterlimit="10" stroke-linecap="round" stroke-linejoin="round"/>
<path d="M53.5637 34.5283C53.5637 34.5283 56.2227 35.1623 57.8727 35.0253C59.1027 34.9223 59.9907 34.7183 59.9907 34.7183" stroke="black" stroke-width="2" stroke-miterlimit="10" stroke-linecap="round" stroke-linejoin="round"/>
<path d="M59.2167 33.5791C57.6597 33.8101 54.8777 34.2671 53.3997 34.4851" stroke="black" stroke-width="2" stroke-miterlimit="10" stroke-linecap="round" stroke-linejoin="round"/>
</svg>
