<svg width="100" height="100" viewBox="0 0 100 100" fill="none" xmlns="http://www.w3.org/2000/svg">
<path d="M50.8303 36.0299C45.353 31.4199 34.3472 22.4126 31.9137 22.0975C28.8718 21.7036 26.9608 32.9272 26.3918 36.0299C25.8229 39.1327 21.5 63.2854 21.08 65.2372C20.4005 68.3949 14.4445 68.688 15.4334 63.6335C16.2862 58.3384 18.2579 46.0232 19.4823 40.6982C21.0129 34.042 23.6056 15.0204 30.4423 15.6965C37.1374 16.3587 47.6791 26.175 50.6511 28.3988C53.0288 30.1778 55.4372 32.4353 56.1539 33.1411" stroke="black" stroke-width="2"/>
<path d="M55.2339 40.128C59.3466 43.6202 69.7737 50.3941 70.4297 52.7665C71.4909 56.6045 65.1056 57.6554 58.642 60.2156C55.1272 61.6079 22.7258 72.5454 22.179 72.7003C20.7529 73.1045 19.9778 75.9384 21.6816 77.8897C23.3854 79.841 25.2313 78.3562 31.6351 76.5518C38.0389 74.7474 74.3913 62.6419 77.0262 59.1456C79.661 55.6492 78.421 51.5232 73.543 47.355C69.6406 44.0205 62.8169 38.5202 60.5481 36.6714" stroke="black" stroke-width="2"/>
<path d="M21.5002 73.1055C22.4483 72.1464 23.6689 73.0738 24.0865 74.2622C24.92 76.6339 24.9008 79.4163 22.7541 78.6784" stroke="black" stroke-width="2"/>
<path d="M77.7517 17.42C76.1811 17.8263 52.0747 35.4982 40.8064 44.0465C38.4207 45.8536 40.9553 50.7113 43.9976 48.6288C45.614 47.5223 78.646 23.2026 80.7458 20.9382C82.8457 18.6739 79.7148 16.9122 77.7517 17.42Z" stroke="black" stroke-width="2"/>
<path d="M61.4092 36.006C66.0982 39.5625 76.4487 48.0887 77.8792 51.4267C79.3098 54.7646 78.1166 57.9102 77.1232 59.0229" stroke="black" stroke-width="2"/>
<path d="M26.6099 17.6686C27.9934 16.0392 29.5745 14.3596 32.8667 15.0579C38.006 16.1481 50.3129 26.4711 57.1507 32.0827" stroke="black" stroke-width="2"/>
<path d="M18.4907 67.4954C20.3737 67.1428 21.6134 66.2754 22.3028 61.9271C24.1318 50.3899 28.4747 27.998 29.4596 25.3248C30.4445 22.6515 32.2819 21.8526 34.6594 23.4604" stroke="black" stroke-width="2"/>
<path d="M62.335 19.3518L62.0854 20.3856" stroke="black" stroke-width="2" stroke-linecap="round"/>
<path d="M51.729 19.3518L53.079 21.3448" stroke="black" stroke-width="2" stroke-linecap="round"/>
<path d="M57.3447 17.0917L57.8843 20.6721" stroke="black" stroke-width="2" stroke-linecap="round"/>
<path d="M20.7231 74.1713L22.4594 72.6923L24.2599 74.1713L24.6457 77.1293L24.2599 78.8012L22.4594 78.544L20.7231 76.5505V74.1713Z" fill="black"/>
</svg>
