<svg width="100" height="100" viewBox="0 0 100 100" fill="none" xmlns="http://www.w3.org/2000/svg">
<path d="M45.3255 73.087L38.2815 62.6539" stroke="black" stroke-width="2" stroke-linecap="round"/>
<path d="M47.4832 71.8256L40.4392 61.3926" stroke="black" stroke-width="2" stroke-linecap="round"/>
<path d="M35.0048 57.3668L32.6472 53.9011" stroke="black" stroke-width="2" stroke-linecap="round"/>
<path d="M37.0761 55.9053L34.6614 52.533" stroke="black" stroke-width="2" stroke-linecap="round"/>
<path d="M42.1048 52.2956L39.9565 49.1509" stroke="black" stroke-width="2" stroke-linecap="round"/>
<path d="M43.9149 50.4338L42.1211 47.9402" stroke="black" stroke-width="2" stroke-linecap="round"/>
<path d="M49.3529 46.5553L47.2244 43.4434" stroke="black" stroke-width="2" stroke-linecap="round"/>
<path d="M51.3342 44.8309L49.6833 42.2998" stroke="black" stroke-width="2" stroke-linecap="round"/>
<path d="M52.7596 68.4721L45.7156 58.0391" stroke="black" stroke-width="2" stroke-linecap="round"/>
<path d="M55.1673 67.2687L48.1233 56.8357" stroke="black" stroke-width="2" stroke-linecap="round"/>
<path d="M60.6295 63.6851L53.8833 53.4927" stroke="black" stroke-width="2" stroke-linecap="round"/>
<path d="M62.6162 62.071L56.0503 52.1523" stroke="black" stroke-width="2" stroke-linecap="round"/>
<path d="M65.4501 34.3409C60.9029 27.3779 64.0109 22.7691 66.7002 22.3982C72.1125 21.6518 76.7784 27.4371 80.511 32.2896C84.2437 37.142 87.6029 46.7539 82.1906 47.967C76.7782 49.1801 71.4223 43.4859 65.4501 34.3409Z" stroke="black" stroke-width="2" stroke-linecap="round"/>
<path d="M63.1955 28.7966C63.4986 31.0697 62.6133 34.8271 59.2539 38.3357C55.0546 42.7216 27.5526 63.682 25.2254 65.6485C23.3072 67.2694 21.683 68.1518 20.0718 68.9218C19.0153 69.4267 16.9853 69.101 16.2085 69.3651C14.9443 69.7949 14.1664 70.7807 16.367 73.83C18.5837 76.9016 19.8448 76.6022 20.5496 76.0897C21.2543 75.5771 21.4765 72.7728 22.5016 72.004C23.5267 71.2352 40.6223 60.6925 42.2881 59.6674C43.9539 58.6423 63.3837 47.4328 66.8435 46.0233C69.6112 44.8957 73.2195 44.9432 75.7451 46.4081" stroke="black" stroke-width="2" stroke-linecap="round"/>
<path d="M22.2012 67.9995C22.2012 68.4384 22.2929 69.9839 24.2963 70.643" stroke="black" stroke-width="2" stroke-linecap="round"/>
<path d="M30.3926 67.4353C32.5161 71.58 37.7314 78.4536 43.6874 77.5939C51.1325 76.5194 63.5724 67.0566 67.1798 62.2979C70.0657 58.4909 65.9759 51.2443 62.8545 48.0718" stroke="black" stroke-width="2" stroke-linecap="round"/>
<path d="M33.5972 65.7306C34.8471 68.2532 38.0834 73.4619 41.0287 74.1165C44.7103 74.9347 60.7322 65.3214 63.6639 61.2989C66.0092 58.0808 61.3913 52.6403 59.3005 50.1177" stroke="black" stroke-width="2" stroke-linecap="round"/>
<path d="M39.0093 63.0581L40.4667 62.0312" stroke="black" stroke-width="2" stroke-linecap="round"/>
<path d="M46.8313 58.5524L48.2887 57.5255" stroke="black" stroke-width="2" stroke-linecap="round"/>
<path d="M54.8545 54.2191L56.3119 53.1923" stroke="black" stroke-width="2" stroke-linecap="round"/>
<path d="M30.732 53.9309C28.4471 54.2074 29.4436 52.3238 32.802 50.4045C35.5629 48.8269 36.0186 50.8091 35.5213 51.2948C35.024 51.7805 33.5881 53.5851 30.732 53.9309Z" stroke="black" stroke-width="2" stroke-linecap="round"/>
<path d="M38.2969 48.9897C36.0121 49.2663 37.0085 47.3826 40.3669 45.4634C43.1279 43.8857 43.5835 45.8679 43.0862 46.3536C42.589 46.8393 41.153 48.644 38.2969 48.9897Z" stroke="black" stroke-width="2" stroke-linecap="round"/>
<path d="M73.0962 44.542C71.1382 44.3139 67.4694 44.9047 61.8237 48.5719" stroke="black" stroke-width="2" stroke-linecap="round"/>
<path d="M45.8287 43.5911C43.5438 43.8677 44.5403 41.9841 47.8987 40.0648C50.6596 38.4872 51.1153 40.4694 50.618 40.9551C50.1207 41.4408 48.6848 43.2454 45.8287 43.5911Z" stroke="black" stroke-width="2" stroke-linecap="round"/>
<path d="M63.9078 32.2802C63.0252 34.104 62.4718 36.0878 56.967 40.4176" stroke="black" stroke-width="2" stroke-linecap="round"/>
<path d="M67.4261 30.1081C66.6702 27.2266 70.0969 28.7597 73.238 32.0503C75.6288 34.5548 80.0445 40.0839 78.3735 42.5261C76.7025 44.9683 68.5317 34.3227 67.4261 30.1081Z" fill="black" stroke="black" stroke-width="2" stroke-linecap="round"/>
<path d="M30.8767 66.8518C32.2244 69.8394 35.6715 76.0149 40.5417 77.3583" stroke="black" stroke-width="2"/>
<path d="M62.3936 48.6585C65.1596 51.7737 69.8535 59.0519 66.836 62.74" stroke="black" stroke-width="2"/>
</svg>
