<svg width="100" height="100" viewBox="0 0 100 100" fill="none" xmlns="http://www.w3.org/2000/svg">
<path d="M41.074 52.1868C37.7418 47.6001 37.8915 43.0003 39.2655 40.0861C42.4347 33.3644 49.8681 23.2468 54.0513 16.9317C55.4799 14.7749 59.6733 18.4848 59.0971 19.3548C58.5208 20.2247 52.4609 29.3754 49.643 33.6296C46.2815 38.7042 41.3605 45.7521 47.7716 51.2988C54.4233 57.0537 59.3741 53.6556 61.366 51.3129C64.6656 47.4321 73.7185 31.9585 75.3883 30.1441C77.0581 28.3297 80.791 32.054 80.0226 33.214C79.2543 34.3739 68.5222 51.0465 66.0004 54.3827C63.4785 57.7188 59.8591 63.0579 49.8609 59.0773C48.712 58.6199 48.7628 58.6119 47.7205 58.1382" stroke="black" stroke-width="2"/>
<path d="M40.9731 52.0607C41.6722 52.8518 41.2951 54.0772 40.9731 54.4798C34.5127 62.5575 22.0254 78.3471 20.581 79.9892C18.7756 82.0418 22.7259 86.6125 25.5636 84.2082C27.8337 82.2847 38.5711 66.7237 45.2287 58.3251C45.7895 57.6175 46.9236 57.6561 47.8553 58.2088" stroke="black" stroke-width="2"/>
<path d="M26.0464 84.1197C26.6319 84.3498 27.9784 83.9111 28.5876 83.5167C30.6501 82.1812 39.8058 68.6904 41.7142 66.3367C43.6225 63.9831 45.8381 60.1824 46.6015 60.0552C47.3648 59.928 52.1464 63.2834 58.5076 62.1384C64.8687 60.9934 67.9856 55.0775 70.5301 51.1336C73.0745 47.1897 80.3478 37.0871 80.2206 36.0057C80.1188 35.1406 78.9681 35.0035 78.9681 35.0035" stroke="black" stroke-width="2"/>
<path d="M58.4862 20.6783C58.9355 20.894 59.8556 21.39 59.9419 21.6489C60.0498 21.9724 53.3639 31.6777 52.7169 32.6483C52.0699 33.6188 46.3545 40.8192 46.8397 46.9906C47.0272 49.3748 47.8064 51.7845 51.3149 53.6226" stroke="black" stroke-width="2"/>
<path d="M45.4497 58.0745L25.7884 83.4943L25.5005 84.1524H26.9401L30.4364 81.8079L44.9972 61.9821L46.7659 60.1722C48.3975 60.7755 51.7101 61.9821 51.9075 61.9821C52.1049 61.9821 54.8142 62.2014 56.1441 62.3111L62.8899 60.707L67.0442 56.4292L80.33 36.2743L78.9315 35.1638L68.2371 51.5756L62.8899 58.0745L58.1185 60.1722H53.8819L47.4652 58.0745H45.4497Z" fill="black"/>
<path d="M60.0154 21.8401L58.4366 20.7124L57.7223 21.5018L50.3168 32.704L45.3548 41.1243L44.603 45.936L47.2344 50.1462L46.9336 46.6878L47.911 41.1243L51.4446 34.7715L60.0154 21.8401Z" fill="black"/>
<path d="M37.5906 22.4435C34.6124 24.0679 33.6955 26.3047 33.1218 29.4945" stroke="black" stroke-width="2" stroke-linecap="round"/>
<path d="M39.7948 26.3454C38.4955 27.2116 38.1485 28.5107 38.1485 29.7232" stroke="black" stroke-width="2" stroke-linecap="round"/>
<path d="M36.2765 17.043C28.2436 21.5181 27.633 26.5711 27.0136 31.546" stroke="black" stroke-width="2" stroke-linecap="round"/>
</svg>
