<svg width="100" height="100" viewBox="0 0 100 100" fill="none" xmlns="http://www.w3.org/2000/svg">
<path d="M40.019 65.0638C40.019 65.0638 37.5709 63.868 34.6503 64.0019C32.6037 64.0957 38.8964 65.6867 38.6895 66.3573C38.2568 67.7599 37.1287 68.7165 37.5237 68.8231C38.1402 68.9893 38.7651 69.1478 39.3833 69.2974C43.8537 70.3979 60.7905 73.1059 75.9692 69.7165C76.2567 69.6128 76.5288 69.5069 76.786 69.3991C77.5166 68.8231 74.2051 65.7795 74.6699 64.7232C75.3972 63.0701 79.8756 62.3649 79.6054 62.0189C79.0522 61.3108 78.1281 61.5517 78.1281 61.5517L68.8535 65.7087C68.8535 65.7087 61.0917 67.5276 51.892 66.7675C42.6924 66.0074 40.019 65.0638 40.019 65.0638Z" fill="black"/>
<path d="M24.9777 49.8858C23.0687 48.8328 21.894 47.9904 19.7648 47.4288C17.6357 46.8672 15.2128 46.8672 13.3773 48.1308C10.6608 49.8858 10.1468 53.7468 11.4684 56.625C12.7899 59.5033 15.3596 61.6795 17.9293 63.5749C19.9117 65.0491 22.408 66.4531 24.6106 67.5061" stroke="black" stroke-width="2" stroke-miterlimit="10"/>
<path d="M28.7225 42.6542C26.0059 45.8835 24.9046 49.2531 24.978 53.3247C25.0515 57.0454 27.6212 60.415 30.8516 62.521C34.0821 64.5568 37.9734 65.4694 41.8647 66.1714C54.3461 68.4179 68.2225 68.2775 78.795 61.468C80.0431 60.6958 81.2178 59.713 81.8786 58.4494C82.466 57.1156 82.3925 55.6414 82.1723 54.1671C80.7039 43.1456 74.0961 31.7732 62.9362 28.6843C59.7792 27.9121 56.5487 27.7717 53.3916 27.7015C48.9864 27.6313 44.3609 27.8419 40.4697 29.8777C34.9632 32.756 28.7225 42.6542 28.7225 42.6542Z" stroke="black" stroke-width="2" stroke-miterlimit="10"/>
<path d="M28.2818 60.4854C27.1071 62.3808 25.4919 64.6272 24.9045 66.8034C24.3172 68.9094 24.464 71.3664 25.7856 73.1215C27.1071 74.9467 29.7502 75.9295 31.806 74.9467C32.8339 74.4553 33.5681 73.6129 34.3023 72.7704C35.7707 70.9452 38.0467 67.716 39.2948 65.7504" stroke="black" stroke-width="2" stroke-miterlimit="10"/>
<path d="M73.4351 64.4873C73.4351 64.4171 76.5921 73.122 80.8505 73.6836C81.5113 73.7538 82.0986 73.7538 82.7594 73.6134C84.2278 73.2624 85.3291 72.069 85.8431 70.6649C86.357 69.2609 86.357 67.8569 86.2836 66.3827C85.9899 62.4515 84.3012 58.6606 82.2455 55.291" stroke="black" stroke-width="2" stroke-miterlimit="10"/>
<path d="M60.146 35.5645C61.6144 36.6877 63.0094 37.8811 64.4778 39.0043C65.7259 39.9871 67.1209 40.8997 68.8096 41.1103C71.3793 41.4613 73.949 38.3023 75.2705 37.2493" stroke="black" stroke-width="2" stroke-miterlimit="10"/>
<path d="M45.9024 27.9824C44.8011 30.1586 44.5074 34.0197 45.5353 36.1959C46.5631 38.3721 48.6923 40.1973 51.1886 40.8291C51.6291 40.9695 52.1431 41.0397 52.657 41.0397C53.2444 40.9695 53.8317 40.7589 54.3457 40.4781C55.0799 40.1271 55.7406 39.8463 56.4748 39.4953C57.3559 39.1443 58.2369 38.7231 58.8243 38.0211C60.8066 35.8449 59.4851 30.8606 60.0724 28.1228" stroke="black" stroke-width="2" stroke-miterlimit="10"/>
<path d="M45.3152 35.5645C43.0392 36.9685 41.3505 37.8109 39.0745 39.2149C38.2669 39.7063 37.3124 40.2679 36.358 40.3381C34.5959 40.4083 33.2009 39.0043 32.0996 37.7407" stroke="black" stroke-width="2" stroke-miterlimit="10"/>
<path d="M37.1654 40.1279C36.7248 43.1466 36.1375 46.8672 35.6235 49.8858" stroke="black" stroke-width="2" stroke-miterlimit="10"/>
<path d="M25.0508 54.5187C27.0331 54.3081 30.0433 52.9743 31.732 51.9213C33.2004 51.0087 34.6688 49.6749 36.4309 49.8855C37.5322 50.0259 38.4132 50.6577 39.2209 51.3597C41.2766 52.9041 43.4058 54.6591 43.9197 57.1161C44.5071 59.7838 43.4792 63.9256 44.0666 66.5932" stroke="black" stroke-width="2" stroke-miterlimit="10"/>
<path d="M43.5527 55.8523C45.0211 54.5185 47.5174 52.4827 49.2795 51.5701C51.0416 50.6574 53.2442 50.3064 55.1531 51.0085C56.0341 51.3595 56.7683 51.9211 57.5025 52.4827C59.5583 54.0271 61.6141 55.9225 61.9078 58.4497C62.2749 60.9769 60.733 64.7678 61.0267 67.295" stroke="black" stroke-width="2" stroke-miterlimit="10"/>
<path d="M61.9082 58.3795C62.8627 56.0629 65.6526 53.0442 68.0755 52.2018C70.4984 51.3594 73.4352 51.7806 75.2707 53.5357C77.1796 55.3609 77.6201 59.2921 77.8404 61.8895" stroke="black" stroke-width="2" stroke-miterlimit="10"/>
<path d="M17.1952 54.9402C18.2901 54.9402 19.1776 54.0916 19.1776 53.0448C19.1776 51.998 18.2901 51.1494 17.1952 51.1494C16.1004 51.1494 15.2129 51.998 15.2129 53.0448C15.2129 54.0916 16.1004 54.9402 17.1952 54.9402Z" stroke="black" stroke-width="2" stroke-miterlimit="10"/>
<path d="M53.0977 41.251C53.0977 44.1217 53.0977 46.9925 53.0977 49.8633" stroke="black" stroke-width="2" stroke-miterlimit="10"/>
<path d="M70.1311 40.8291C69.9843 44.4093 69.764 47.9896 69.6172 51.5698" stroke="black" stroke-width="2" stroke-miterlimit="10"/>
</svg>
