<svg width="100" height="100" viewBox="0 0 100 100" fill="none" xmlns="http://www.w3.org/2000/svg">
<path d="M20 41.5729C20 41.5729 28.343 18.7909 52.934 21.3669C61.202 22.2329 66.648 25.6979 71.351 31.1569C76.372 36.9859 79.577 47.9989 79.577 47.9989C79.577 47.9989 74.465 46.3049 69.591 46.8769C64.717 47.4489 60.081 50.2859 60.081 50.2859C60.081 50.2859 54.308 47.2349 49.025 46.6359C43.743 46.0369 38.952 47.8899 38.952 47.8899C38.952 47.8899 35.739 45.0039 31.001 43.4239C26.263 41.8449 20 41.5729 20 41.5729Z" stroke="black" stroke-width="2" stroke-miterlimit="10" stroke-linejoin="round"/>
<path d="M47.143 46.6775C46.849 60.6905 45.275 69.7765 46.309 73.7105C48.758 83.0275 58.756 81.9825 58.756 81.9825C61.944 81.8645 61.556 77.0445 58.042 76.6905C55.665 76.4515 52.771 77.6905 51.421 72.0395C50.697 69.0115 51.01 62.5795 52.416 47.2435" stroke="black" stroke-width="2" stroke-miterlimit="10" stroke-linejoin="round"/>
<path d="M55.3432 76.5793C56.9322 76.6573 58.9232 76.4283 60.1172 77.6373C61.3112 78.8473 61.1512 80.6113 60.1702 81.4343C58.5632 82.7823 52.8362 82.0243 49.3612 78.9773C45.5652 75.6493 45.9642 69.5703 45.9642 69.5703L51.1042 69.6153C51.1042 69.6153 51.2312 76.3753 55.3432 76.5793Z" stroke="black" stroke-width="2" stroke-miterlimit="10" stroke-linejoin="round"/>
<path d="M60.1129 49.7561C60.1129 49.7561 61.9169 42.8891 59.6319 35.8661C57.3469 28.8431 51.7769 21.6311 51.7769 21.6311" stroke="black" stroke-width="2" stroke-miterlimit="10" stroke-linejoin="round"/>
<path d="M38.7763 47.0566C38.7763 47.0566 38.5063 38.2946 41.6453 33.5326C45.5453 27.6146 50.6383 21.3086 50.6383 21.3086" stroke="black" stroke-width="2" stroke-miterlimit="10" stroke-linejoin="round"/>
<path d="M51.1792 21.395L51.4802 18" stroke="black" stroke-width="2" stroke-miterlimit="10" stroke-linecap="round" stroke-linejoin="round"/>
<path d="M21.915 41.225C21.915 41.225 28.894 23.047 45.742 21.324" stroke="black" stroke-width="2" stroke-miterlimit="10" stroke-linecap="round" stroke-linejoin="round"/>
</svg>
