<svg width="100" height="100" viewBox="0 0 100 100" fill="none" xmlns="http://www.w3.org/2000/svg">
<path d="M43.6785 58.881L29.5485 59.087C29.5485 59.087 17.0055 58.103 19.2745 46.209C21.0445 36.933 31.4895 39.848 31.1805 38.467C30.8415 36.949 30.0835 26.099 40.7295 23.559C53.5565 20.499 55.7015 30.933 56.0525 32.381C56.1145 32.636 61.1185 29.804 64.5145 32.011C69.4235 35.2 68.2655 39.807 67.4795 41.09C66.9205 42.002 81.6775 37.819 81.3645 52.134C81.2015 59.642 68.6495 58.861 68.6495 58.861L54.4125 58.588" stroke="black" stroke-width="2" stroke-miterlimit="10"/>
<path d="M56.7325 77.0423C57.4895 76.2143 53.5825 52.6823 54.6625 52.0943C55.6595 51.5503 60.3305 51.5573 61.5185 51.3083C63.1575 50.9633 48.7915 39.1003 48.2915 39.1113C46.9075 39.1403 34.7575 51.5333 35.8415 52.0073C36.8225 52.4373 42.9465 52.0483 43.6525 52.3603C44.9005 52.9123 42.2755 77.4103 43.0745 77.6583C43.8605 77.9033 56.1995 77.6253 56.7325 77.0423Z" stroke="black" stroke-width="2" stroke-miterlimit="10"/>
<path d="M54.2556 60.1224C54.2556 60.1224 69.2846 60.3384 73.3776 59.9604C75.2866 59.7844 80.5846 58.8204 81.2506 53.2314" stroke="black" stroke-width="2" stroke-miterlimit="10"/>
<path d="M19.6045 52.4619C19.6045 52.4619 23.0775 61.8189 31.0905 61.0199C39.1045 60.2209 42.8405 59.9939 42.8405 59.9939" stroke="black" stroke-width="2" stroke-miterlimit="10"/>
</svg>
