<svg width="100" height="100" viewBox="0 0 100 100" fill="none" xmlns="http://www.w3.org/2000/svg">
<ellipse cx="40.1281" cy="60.3494" rx="2.04305" ry="2.76054" transform="rotate(-1.74371 40.1281 60.3494)" fill="black"/>
<path d="M13.8381 54.5335L13.5822 46.1297C13.5156 43.9406 15.7412 42.4202 17.7563 43.2783L45.4045 55.0526C47.9151 56.1218 49.5756 58.5524 49.6586 61.2799L49.8582 67.836C49.9256 70.0507 47.6516 71.5718 45.6304 70.6639L15.6075 57.1788C14.56 56.7084 13.873 55.6813 13.8381 54.5335Z" stroke="black" stroke-width="2"/>
<path d="M14.6883 43.7126C17.8427 41.5978 30.8254 37.2094 33.0848 36.225C35.4391 35.1992 49.7562 29.8527 55.6568 27.6233C57.8609 26.7903 59.9485 26.9462 60.3171 26.9914C64.4226 27.4939 79.6148 33.2671 80.9013 33.8621C84.1233 35.3525 84.7653 36.3671 85.0152 37.8211C85.5508 40.9366 85.3987 45.0182 84.2984 46.6622C83.8422 47.3438 50.7553 69.5172 48.2753 70.576" stroke="black" stroke-width="2"/>
<path d="M19.0381 53.2701C18.762 52.9976 18.9214 49.4374 18.9107 49.0864C18.9 48.7353 25.6231 51.8492 25.946 52.0253C26.269 52.2013 26.4479 56.2035 26.0741 56.2332C25.7003 56.2629 19.3141 53.5425 19.0381 53.2701Z" stroke="black" stroke-width="2"/>
<path fill-rule="evenodd" clip-rule="evenodd" d="M16.8667 42.4212L56.016 27.4764L59.6163 26.8496L77.8842 32.498L83.7671 35.5245L85.4142 38.6799L84.8268 46.5566L49.6481 69.653L50.0509 62.5058L48.676 58.1012L45.6984 55.3999L19.7095 44.0926L16.8667 42.4212ZM57.199 34.7205L45.2015 40.5632C45.2413 40.338 45.2834 40.1096 45.3272 39.884C45.5161 38.9124 45.7124 38.1338 45.86 37.8181C45.9301 37.6682 46.1128 37.4689 46.6116 37.1985C46.9614 37.0089 47.3559 36.8387 47.8311 36.6338L47.8311 36.6338C48.0111 36.5562 48.2027 36.4735 48.4077 36.383C48.782 36.4827 49.2116 36.4474 49.6101 36.2534C50.4157 35.8611 50.7889 34.9684 50.4437 34.2595C50.0984 33.5506 49.1656 33.294 48.36 33.6863C47.9448 33.8885 47.6445 34.2236 47.4982 34.5979C47.3773 34.6507 47.2546 34.7037 47.1316 34.7568C46.6152 34.9796 46.0912 35.2057 45.6585 35.4402C45.051 35.7695 44.3961 36.227 44.0483 36.9709C43.778 37.549 43.5436 38.5779 43.3639 39.5025C43.2182 40.2521 43.0919 41.0263 43.002 41.6344L39.1394 43.5154C38.7593 43.4071 38.3191 43.4395 37.9115 43.638C37.1059 44.0303 36.7328 44.9229 37.078 45.6318C37.4232 46.3407 38.3561 46.5973 39.1616 46.205C39.5694 46.0064 39.8664 45.6796 40.0155 45.3133L47.401 41.7166C47.6651 41.8733 47.9544 42.0573 48.2749 42.261L48.2749 42.2611L48.2749 42.2611L48.4253 42.3566C48.8538 42.6288 49.3257 42.9253 49.8037 43.1913C50.2796 43.456 50.7897 43.7065 51.3002 43.8779C51.8035 44.0469 52.374 44.162 52.9471 44.0874C54.3774 43.9012 55.7947 43.1537 56.8342 42.5978C57.2262 42.7251 57.6889 42.6994 58.1158 42.4915C58.9214 42.0992 59.2946 41.2066 58.9493 40.4977C58.6041 39.7888 57.6712 39.5322 56.8657 39.9245C56.4812 40.1117 56.1953 40.4129 56.0389 40.7537L55.9032 40.8255L55.9028 40.8258L55.9027 40.8258C54.8267 41.396 53.7513 41.9658 52.689 42.1041C52.5339 42.1243 52.2903 42.1006 51.9366 41.9819C51.59 41.8655 51.2001 41.6795 50.776 41.4435C50.3621 41.2132 49.9422 40.9506 49.5219 40.6838L58.1761 36.4693L58.1508 36.5172C57.8933 37.0058 58.0806 37.6106 58.5692 37.8681C59.0577 38.1256 59.6626 37.9383 59.9201 37.4498C60.2339 36.8544 60.6459 36.0661 60.936 35.4041C61.0774 35.0813 61.2131 34.737 61.2854 34.4393C61.319 34.3007 61.3605 34.089 61.3414 33.8625C61.3236 33.6516 61.2127 33.1176 60.6432 32.8916C60.3458 32.7736 59.9956 32.75 59.7557 32.7402C59.4799 32.7289 59.1587 32.7329 58.8447 32.7374L58.8021 32.738C58.1579 32.7471 57.4943 32.7565 56.9041 32.6893C56.3554 32.6268 55.8598 33.021 55.7973 33.5697C55.7348 34.1185 56.129 34.614 56.6777 34.6765C56.8493 34.696 57.0241 34.7103 57.199 34.7205Z" fill="black"/>
</svg>
