<svg width="100" height="100" viewBox="0 0 100 100" fill="none" xmlns="http://www.w3.org/2000/svg">
<path d="M27.9621 79.8152C19.9244 79.8152 19.0957 66.7325 26.2737 65.9147C33.4516 65.097 65.0332 65.9147 73.0735 65.9147C81.1138 65.9147 78.0946 79.8152 71.4899 79.8152H27.9621Z" stroke="black" stroke-width="2"/>
<path d="M21.4099 71.3068C22.0084 59.7992 28.8989 24.4316 30.3497 22.2673C32.3743 19.2468 31.9994 19.2468 51.5612 19.2468C67.3179 19.2468 67.9065 19.7521 69.4053 22.2673C70.904 24.7825 77.3048 60.094 77.8978 70.6914" stroke="black" stroke-width="2"/>
<path fill-rule="evenodd" clip-rule="evenodd" d="M32.0516 20.6473L30.0278 23.2333L23.5067 55.2769L21.9326 68.4317L24.4062 66.5203L28.4538 65.6208H68.7051H74.889L77.5874 67.7571L74.102 42.4595L69.9419 23.7954L68.7051 20.6473L64.8824 19.5229H40.8216H34.0755L32.0516 20.6473ZM44.469 39.7858C44.469 40.6172 43.7742 41.3276 42.7941 41.6116C42.8125 42.0856 42.8445 42.571 42.8946 43.0393C42.9665 43.713 43.0725 44.3197 43.2157 44.7947C43.3705 45.3079 43.5236 45.5114 43.5819 45.5587C44.0559 45.9432 45.2747 46.6091 46.7186 47.3222C47.6085 47.7618 48.5388 48.1978 49.3438 48.5646V29.4226C49.2308 29.4948 49.1129 29.5734 48.991 29.6578C48.1955 30.2089 47.3243 30.945 46.6936 31.5956C46.3358 31.9647 45.7466 31.9738 45.3776 31.6161C45.0085 31.2583 44.9993 30.6691 45.3571 30.3001C46.0764 29.5581 47.0411 28.7443 47.9311 28.1277C48.3752 27.82 48.824 27.5452 49.2312 27.3527C49.4345 27.2566 49.6476 27.1713 49.8585 27.1156C50.0562 27.0635 50.3266 27.0168 50.6124 27.0689C50.987 27.1372 51.3604 27.3424 51.6614 27.5331C51.9884 27.7403 52.3447 28.0064 52.7057 28.2954C53.4183 28.8658 54.216 29.5801 54.9406 30.2289L54.9692 30.2545C55.3521 30.5974 55.3846 31.1857 55.0417 31.5687C54.6989 31.9516 54.1105 31.9841 53.7276 31.6412L53.7228 31.637C52.981 30.9728 52.2147 30.2866 51.5424 29.7484C51.4249 29.6544 51.3123 29.5665 51.2052 29.4854V43.8481C51.5885 43.6884 51.9941 43.5248 52.4051 43.359L52.4058 43.3587L52.4062 43.3586L52.6843 43.2463C53.4795 42.9251 54.2909 42.5932 55.0456 42.2471C55.8037 41.8994 56.4761 41.5501 56.9994 41.2009C57.5445 40.8372 57.8235 40.5408 57.9276 40.3372C58.2529 39.701 58.3714 38.7928 58.3723 37.7475C58.3725 37.4729 58.3655 37.2078 58.3544 36.9505C57.3733 36.6668 56.6777 35.9561 56.6777 35.1242C56.6777 34.0427 57.8533 33.166 59.3033 33.166C60.7534 33.166 61.9289 34.0427 61.9289 35.1242C61.9289 35.9661 61.2165 36.6839 60.2166 36.9606C60.2272 37.2243 60.2339 37.49 60.2336 37.7491C60.2327 38.8616 60.1189 40.1402 59.5849 41.1846C59.2594 41.8212 58.6533 42.3349 58.0326 42.7492C57.3901 43.178 56.6159 43.5747 55.8215 43.939C55.0236 44.3049 54.1763 44.6511 53.3815 44.9722L53.1026 45.0847C52.4064 45.3656 51.7644 45.6246 51.2167 45.8685L51.2052 45.8735V55.3926C52.1956 55.6728 52.8996 56.3871 52.8996 57.224C52.8996 58.3055 51.7241 59.1822 50.274 59.1822C48.824 59.1822 47.6484 58.3055 47.6484 57.224C47.6484 56.3868 48.3529 55.6724 49.3438 55.3923V50.6062C48.388 50.1804 47.1068 49.59 45.8943 48.9911C44.4996 48.3023 43.0766 47.5456 42.4093 47.0043C41.8969 46.5886 41.6119 45.9232 41.4336 45.3319C41.2438 44.7023 41.1219 43.9689 41.0437 43.237C40.9868 42.7038 40.9513 42.1547 40.9318 41.6227C39.9311 41.3464 39.2178 40.6282 39.2178 39.7858C39.2178 38.7043 40.3933 37.8276 41.8434 37.8276C43.2934 37.8276 44.469 38.7043 44.469 39.7858Z" fill="black"/>
<path d="M29.8425 74.7978V71.3714C29.8425 70.99 38.1243 70.8959 38.1243 71.3714V74.7978C38.1243 75.0074 29.8425 74.9837 29.8425 74.7978Z" stroke="black" stroke-width="2"/>
<circle cx="69.2231" cy="72.6833" r="2.43309" fill="black"/>
</svg>
