<svg width="100" height="100" viewBox="0 0 100 100" fill="none" xmlns="http://www.w3.org/2000/svg">
<path d="M15.2058 41.1826C16.394 40.5037 39.432 33.114 53.8957 28.446C58.5757 27.381 66.2544 35.8411 68.1641 37.3264C70.0737 38.8116 69.7554 41.2517 68.1641 42.1005C66.5727 42.9492 31.8619 55.8231 28.2548 56.4597C24.6477 57.0962 20.4043 50.7308 17.0094 47.5481C13.6145 44.3654 13.7206 42.0314 15.2058 41.1826Z" stroke="black" stroke-width="2"/>
<path d="M14.2835 42.2637C14.2835 42.2637 13.3886 51.3519 14.2834 52.7313C15.1781 54.1107 23.4205 63.3851 25.794 63.9605C28.761 64.6797 30.4669 63.8798 32.355 63.3404C34.243 62.8009 67.4025 50.6772 68.5713 49.2387C69.5064 48.0879 69.7337 42.8775 69.5239 40.1204" stroke="black" stroke-width="2"/>
<path d="M33.7177 57.7652V55.1222L40.2808 52.9019C40.2808 52.9019 40.3128 55.3895 40.0601 55.6475C39.8073 55.9056 33.7177 58.1134 33.7177 57.7652Z" fill="black" stroke="black" stroke-width="2"/>
<path d="M45.1357 53.9376V51.2946L51.6987 49.0742C51.6987 49.0742 51.7308 51.5619 51.478 51.8199C51.2253 52.0779 45.1357 54.2857 45.1357 53.9376Z" fill="black" stroke="black" stroke-width="2"/>
<path d="M56.5536 49.5857V46.9428L63.1167 44.7224C63.1167 44.7224 63.1487 47.2101 62.896 47.4681C62.6432 47.7261 56.5536 49.9339 56.5536 49.5857Z" fill="black" stroke="black" stroke-width="2"/>
<path d="M66.2755 32.4515C65.9716 32.1045 64.7773 32.8058 63.9276 33.095L67.2601 36.276C67.6036 35.7516 68.3684 34.6813 68.4986 34.4644C68.6613 34.1932 66.6553 32.8853 66.2755 32.4515Z" fill="black" stroke="black" stroke-width="2"/>
<path d="M67.5268 33.0752C73.1361 30.5043 72.7723 36.5648 78.7058 39.2975C86.2435 42.7689 87.92 50.0507 80.4585 54.6154C72.4008 59.5449 72.9695 57.8387 66.4443 61.565" stroke="black" stroke-width="2"/>
<path d="M52.1947 70.716C52.8617 71.3047 53.4008 71.699 53.5544 71.6376C54.0427 71.4423 60.7535 68.9386 62.7066 67.9132C64.6598 66.8878 64.7812 65.2324 64.7812 64.7441C64.7812 64.2558 67.2595 62.9155 67.6989 62.5249C68.1384 62.1342 67.1969 60.6376 66.5879 60.4961C65.599 60.2664 64.0666 61.4642 63.5783 61.4153C63.09 61.3665 61.2168 60.3007 59.8984 60.4961C58.8437 60.6524 52.2326 63.1328 49.0589 64.3534C48.6432 64.513 48.6807 65.9631 48.6808 66.8038C48.6808 66.9393 48.8917 67.2572 49.2263 67.6691" stroke="black" stroke-width="2"/>
<path d="M50.2178 63.9442C51.7823 65.2134 54.2376 67.5891 54.4682 67.9733C55.1326 69.0802 54.3797 70.6004 54.2026 71.5154" stroke="black" stroke-width="2"/>
<path d="M49.1265 67.0958C49.1265 67.0958 47.0363 67.738 46.5367 68.0376C46.0371 68.3373 49.4819 71.3002 49.8814 71.3801C50.281 71.4601 51.7476 70.8185 52.4968 70.4855" stroke="black" stroke-width="2" stroke-linecap="round"/>
<path d="M59.5969 60.6428L50.7431 63.8665L51.5596 64.855L55.041 68.6802L54.6542 71.0871L64.1529 67.09L65.1844 64.2962L67.5914 62.0183L66.3879 60.6428L63.6371 61.4165L59.5969 60.6428Z" fill="black"/>
</svg>
