<svg width="100" height="100" viewBox="0 0 100 100" fill="none" xmlns="http://www.w3.org/2000/svg">
<path d="M55.5895 42.687C62.1691 47.8295 62.3645 58.0522 61.6839 61.3795" stroke="black" stroke-width="2" stroke-linecap="round" stroke-linejoin="round"/>
<path d="M44.699 42.5356C38.0438 45.9388 37.2644 58.0537 37.945 60.3228" stroke="black" stroke-width="2" stroke-linecap="round" stroke-linejoin="round"/>
<path d="M60.1271 41.25C63.7074 43.1267 67.0756 46.559 69.4681 49.3372C74.0147 55.4625 76.0183 61.2956 72.6056 68.3247" stroke="black" stroke-width="2" stroke-linecap="round" stroke-linejoin="round"/>
<path d="M73.4249 73.1944C73.4249 78.3475 67.2157 81.7354 63.8356 81.7354C58.6825 81.7354 55.0165 78.3475 55.0165 73.1944C55.0165 68.0412 56.9888 63.0742 63.8356 63.0742C70.5688 62.4787 73.4249 68.0412 73.4249 73.1944Z" stroke="black" stroke-width="2" stroke-linecap="round" stroke-linejoin="round"/>
<path d="M65.4383 78.7566C66.9637 77.9451 65.8103 74.5408 64.6743 73.6C63.506 72.4968 61.1566 72.3837 59.6964 73.9545C58.4402 75.306 60.3103 77.2637 61.4787 78.205C62.6471 79.1462 63.9129 79.5681 65.4383 78.7566Z" fill="black"/>
<path d="M60.2554 66.5245C58.9423 66.649 58.8326 68.3468 58.8326 69.6361C58.8326 70.9255 59.2169 72.0984 60.8556 71.9259C62.1228 71.7925 62.573 70.5276 62.7189 69.0686C62.8648 67.6096 61.5685 66.3999 60.2554 66.5245Z" fill="black"/>
<path d="M39.859 40.7959C35.7098 42.9708 33.4121 44.5576 30.7819 47.8358C26.4608 53.2215 23.4991 61.0124 26.6489 67.5001" stroke="black" stroke-width="2" stroke-linecap="round" stroke-linejoin="round"/>
<path d="M44.9346 71.6629C44.9346 78.6476 40.7572 81.735 35.604 81.735C30.4509 81.735 26.2734 77.2256 26.2734 71.6629C26.2734 66.1002 28.5238 61.5908 35.604 61.5908C40.7572 61.5908 44.9346 66.1002 44.9346 71.6629Z" stroke="black" stroke-width="2" stroke-linecap="round" stroke-linejoin="round"/>
<path d="M34.6164 78.7566C33.091 77.9451 34.2444 74.5408 35.3803 73.6C36.5487 72.4968 38.8981 72.3837 40.3583 73.9545C41.6145 75.306 39.7444 77.2637 38.576 78.205C37.4076 79.1462 36.1418 79.5681 34.6164 78.7566Z" fill="black"/>
<path d="M39.7994 66.5245C41.1125 66.649 41.2222 68.3468 41.2222 69.6361C41.2222 70.9255 40.8379 72.0984 39.1992 71.9259C37.9321 71.7925 37.4818 70.5276 37.3359 69.0686C37.19 67.6096 38.4863 66.3999 39.7994 66.5245Z" fill="black"/>
<path d="M67.2143 66.3882C68.2634 67.2877 67.9208 69.1921 66.8701 70.0523C66.3161 70.3515 65.1693 71.4493 64.0355 70.6192C63.0433 69.8927 63.3287 67.786 64.0355 66.7926C64.7424 65.7992 65.9387 65.2944 67.2143 66.3882Z" fill="black"/>
<path d="M70.1906 73.2098C71.0208 72.2188 71.5269 70.1531 70.4336 69.4038C69.2062 68.5629 67.7239 69.6881 66.9308 70.68C66.283 71.4903 66.3164 73.1182 67.2548 73.8791C68.1052 74.5686 69.4844 74.0529 70.1906 73.2098Z" fill="black"/>
<path d="M32.8002 65.8647C31.7511 66.7643 32.0937 68.6686 33.1445 69.5288C33.6985 69.828 34.8452 70.9259 35.979 70.0957C36.9713 69.3693 36.6859 67.2625 35.979 66.2691C35.2722 65.2757 34.0758 64.771 32.8002 65.8647Z" fill="black"/>
<path d="M29.8642 73.2098C29.0341 72.2188 28.5279 70.1531 29.6212 69.4038C30.8486 68.5629 32.3309 69.6881 33.124 70.68C33.7719 71.4903 33.7385 73.1182 32.8 73.8791C31.9496 74.5686 30.5704 74.0529 29.8642 73.2098Z" fill="black"/>
<path d="M55.7057 77.2038C50.9265 75.3707 48.6648 70.6725 50.2398 65.6994C51.6743 61.1699 59.3966 59.2484 63.1944 63.0462" stroke="black" stroke-width="2" stroke-linecap="round" stroke-linejoin="round"/>
<path d="M43.9713 76.9316C48.3249 74.6075 50.286 70.4483 48.6919 65.4733C47.3329 61.2318 40.7891 58.4404 37.5608 61.3991" stroke="black" stroke-width="2" stroke-linecap="round" stroke-linejoin="round"/>
<path d="M43.0949 50.3834C44.7881 47.2628 48.0338 47.6728 50.1646 49.8892C51.2927 48.1591 55.438 47.1782 56.941 50.8267C58.0189 53.4432 55.3237 58.1699 49.3122 60.1601C43.3007 56.9261 42.1796 52.0701 43.0949 50.3834Z" fill="black"/>
<path d="M49.5153 34.0283V36.8044" stroke="black" stroke-width="2" stroke-linecap="round" stroke-linejoin="round"/>
<path d="M45.1841 35.9712C46.7388 37.4708 52.3471 37.8587 53.7353 35.9712" stroke="black" stroke-width="2" stroke-linecap="round" stroke-linejoin="round"/>
<path d="M53.4549 31.14C53.5329 32.0766 52.4402 34.0282 49.5523 34.0282C46.6644 34.0282 45.5716 33.3262 45.5717 31.6091C45.5717 29.8071 47.4449 29.8135 49.5523 29.7354C51.6597 29.6574 53.3768 30.2034 53.4549 31.14Z" fill="black"/>
<path d="M65.5317 31.7438C66.5026 23.2827 59.1514 15.4467 49.9972 15.5853C41.467 15.5853 34.3932 20.3706 33.2143 29.4556C32.0353 38.5405 42.2299 42.7709 49.9972 43.1177C57.7645 43.4644 64.5608 40.2049 65.5317 31.7438Z" stroke="black" stroke-width="2" stroke-linecap="round" stroke-linejoin="round"/>
<path d="M59.4288 18.0819C66.4332 13.5047 76.2117 21.4099 66.1558 29.5243" stroke="black" stroke-width="2" stroke-linecap="round" stroke-linejoin="round"/>
<path d="M40.7043 17.3184C31.7581 13.5045 29.8163 18.4973 28.9147 20.7861C28.0132 23.0749 29.5389 27.3749 32.8677 28.97" stroke="black" stroke-width="2" stroke-linecap="round" stroke-linejoin="round"/>
<path d="M59.7757 33.6867C59.7757 29.4561 55.8227 27.448 49.7891 27.5174C43.825 27.5174 41.1511 30.5173 40.7214 33.6867C40.3655 36.3114 42.9248 39.7889 49.7891 39.7889C56.2386 39.7889 59.7757 37.4595 59.7757 33.6867Z" stroke="black" stroke-width="2" stroke-linecap="round" stroke-linejoin="round"/>
<circle cx="55.5894" cy="24.8308" r="1.31766" fill="black"/>
<circle cx="45.5716" cy="24.513" r="1.31766" fill="black"/>
<path d="M65.5364 27.5514C69.2801 23.7349 68.0575 16.8483 61.2428 19.389C64.0014 22.4361 64.9023 24.2696 65.5364 27.5514Z" fill="black"/>
<path d="M33.4906 26.9588C30.4236 25.1658 30.518 16.1542 37.7842 18.7964C35.0257 21.8436 34.1247 23.6771 33.4906 26.9588Z" fill="black"/>
</svg>
