<svg width="100" height="100" viewBox="0 0 100 100" fill="none" xmlns="http://www.w3.org/2000/svg">
<path d="M43.0303 40.6192C43.0303 40.6192 44.0872 44.9242 43.0362 47.7142C41.9852 50.5042 40.8752 50.7292 39.9842 52.0662C37.7592 55.4102 38.2162 62.8082 38.1102 67.6482C38.0052 72.4882 36.8722 80.4482 41.9532 82.4062C45.0512 83.5992 49.7352 83.6742 52.5802 82.4272C56.3022 80.7972 55.4362 70.2582 55.3462 68.0822C54.9132 57.6212 55.3622 57.4952 55.0182 54.6252C54.5752 50.9392 50.9103 50.7412 50.3113 47.6292C49.7113 44.5182 50.2742 40.2822 50.2742 40.2822" stroke="black" stroke-width="2" stroke-miterlimit="10" stroke-linecap="round" stroke-linejoin="round"/>
<path d="M52.3972 82.4884C55.5552 80.9274 51.2981 79.2344 50.2861 79.1514" stroke="black" stroke-width="2" stroke-miterlimit="10" stroke-linecap="round" stroke-linejoin="round"/>
<path d="M40.6829 81.7038C37.9699 79.6288 42.3839 78.5438 44.0299 78.5508" stroke="black" stroke-width="2" stroke-miterlimit="10" stroke-linecap="round" stroke-linejoin="round"/>
<path d="M46.5191 41.3896L46.9811 50.6866C46.9811 50.6866 46.9471 54.9076 46.8491 57.6396C46.7351 60.8036 46.8101 61.6506 45.8831 65.9926C44.9561 70.3346 43.1411 75.0076 43.1411 75.0076" stroke="black" stroke-width="2" stroke-miterlimit="10" stroke-linecap="round" stroke-linejoin="round"/>
<path d="M41.982 39.0782C41.989 37.6112 44.6909 37.4992 46.4069 37.4262C48.1229 37.3542 51.263 37.9072 51.334 38.8082C51.406 39.7092 50.076 40.8592 46.391 40.8332C44.191 40.8182 41.973 40.8132 41.982 39.0782Z" stroke="black" stroke-width="2" stroke-miterlimit="10" stroke-linecap="round" stroke-linejoin="round"/>
<path d="M46.626 43.1058C46.467 41.1188 47.5621 39.2797 47.9731 38.7247C49.4271 36.7597 50.9631 36.3398 52.4131 35.6338" stroke="black" stroke-width="2" stroke-miterlimit="10" stroke-linecap="round" stroke-linejoin="round"/>
<path d="M44.1259 31.1095C44.1259 31.1095 48.3969 34.3415 50.4549 31.2995C52.5129 28.2575 49.7299 25.6725 49.7299 25.6725C49.7299 25.6725 53.3509 24.1735 51.7179 21.1085C50.5189 18.8575 46.3149 20.3995 46.3149 20.3995C46.3149 20.3995 45.7219 16.6125 42.8479 17.0325C37.6539 17.7905 39.8029 21.6955 39.8029 21.6955C39.8029 21.6955 35.337 21.8255 35.035 24.8845C34.628 29.0135 37.8879 29.6495 38.9759 28.4915C40.0629 27.3335 36.0999 32.5695 39.8409 34.0665C43.1459 35.3895 44.1259 31.1095 44.1259 31.1095Z" stroke="black" stroke-width="2" stroke-miterlimit="10" stroke-linecap="round" stroke-linejoin="round"/>
<path d="M44.2568 31.8389C44.2568 31.8389 45.3958 34.9249 45.9218 37.1559C46.4488 39.3869 46.3618 40.7619 46.3618 40.7619" stroke="black" stroke-width="2" stroke-miterlimit="10" stroke-linecap="round" stroke-linejoin="round"/>
<path d="M52.4629 35.5591C52.4629 35.5591 52.4289 31.9992 55.8859 31.1282C59.3419 30.2562 63.5169 33.3371 64.2009 35.4831C64.3659 36.0041 61.1719 35.9652 58.6499 37.3212C55.9759 38.7582 52.4629 35.5591 52.4629 35.5591Z" fill="black" stroke="black" stroke-width="2" stroke-miterlimit="10" stroke-linecap="round" stroke-linejoin="round"/>
<path d="M41.9786 26.358C41.1326 23.703 45.1616 22.719 45.6636 25.069C46.1646 27.418 42.7436 28.76 41.9786 26.358Z" stroke="black" stroke-width="2" stroke-miterlimit="10" stroke-linecap="round" stroke-linejoin="round"/>
</svg>
