<svg width="18" height="19" viewBox="0 0 18 19" fill="none" xmlns="http://www.w3.org/2000/svg">
<mask id="mask0_3284_16120" style="mask-type:alpha" maskUnits="userSpaceOnUse" x="0" y="0" width="19" height="19">
<rect x="0.428711" y="0.712402" width="17.5746" height="17.5746" fill="#D9D9D9"/>
</mask>
<g mask="url(#mask0_3284_16120)">
<path d="M6.72349 17.1888L5.33217 14.8455L2.69598 14.2597L2.95228 11.5503L1.1582 9.49992L2.95228 7.44955L2.69598 4.74014L5.33217 4.15432L6.72349 1.81104L9.21323 2.87283L11.703 1.81104L13.0943 4.15432L15.7305 4.74014L15.4742 7.44955L17.2683 9.49992L15.4742 11.5503L15.7305 14.2597L13.0943 14.8455L11.703 17.1888L9.21323 16.127L6.72349 17.1888ZM8.44434 12.0995L12.5817 7.96215L11.5565 6.90035L8.44434 10.0125L6.86995 8.47474L5.84476 9.49992L8.44434 12.0995Z" fill="#0037EB"/>
</g>
</svg>
