<svg width="100" height="100" viewBox="0 0 100 100" fill="none" xmlns="http://www.w3.org/2000/svg">
<path d="M25.3493 55.6873C21.9142 58.749 13.9106 66.0204 13.7314 66.7373C13.5075 67.6334 13.7315 77.5387 14.4036 77.7627C15.0757 77.9868 64.5858 82.8033 65.0338 82.4673C65.4819 82.1313 82.732 62.9769 82.508 61.2967C82.284 59.6165 82.7501 51.9875 82.078 51.3154C81.5403 50.7778 57.5466 49.6942 47.7641 49.0221" stroke="black" stroke-width="2"/>
<path d="M64.8203 71.4897V80.8713" stroke="black" stroke-width="2"/>
<path d="M13.5972 67.4153C30.4059 68.9025 64.1918 71.7928 64.8652 71.4561C65.5387 71.1194 76.5948 58.127 82.0387 51.6729" stroke="black" stroke-width="2"/>
<ellipse cx="42.6219" cy="57.494" rx="1.18728" ry="0.831621" fill="black"/>
<ellipse cx="61.7815" cy="67.0547" rx="1.66037" ry="1.18499" transform="rotate(-1.25071 61.7815 67.0547)" fill="black"/>
<path d="M63.839 57.9444C63.462 57.6212 66.4652 54.3534 68.1485 52.5579C69.3603 52.558 74.8819 52.6925 75.4206 53.0292C75.9593 53.3659 72.2556 58.0791 71.3803 58.5504C70.505 59.0218 64.3103 58.3485 63.839 57.9444Z" stroke="black" stroke-width="2"/>
<path d="M72.0621 49.3845C72.433 49.3845 72.2167 51.934 72.0621 53.2087C71.8918 55.0524 67.5425 54.1358 66.9631 53.9619C66.3837 53.7881 66.9631 49.9639 66.9631 49.3845C66.9631 48.8051 71.5986 49.3844 72.0621 49.3845Z" fill="black" stroke="black" stroke-width="2"/>
<path d="M67.0744 52.176L61.498 53.8313" stroke="black" stroke-width="2"/>
<path d="M81.6218 52.1455L63.874 72.1208V81.8874L64.6232 82.4333L82.4835 61.7646V53.5556L81.6218 52.1455Z" fill="black"/>
<ellipse cx="64.4251" cy="63.8448" rx="1.66037" ry="1.18499" transform="rotate(-1.25071 64.4251 63.8448)" fill="black"/>
<path d="M39.5176 49.6027C39.6369 39.8913 40.0368 20.3769 40.6816 20.0099C41.4875 19.5511 48.4716 17.7924 49.6356 17.6394C50.7997 17.4865 84.5989 19.1404 85.8525 19.905C86.8554 20.5167 86.0689 49.529 85.5668 49.9547C85.0646 50.3805 81.0903 52.1454 81.0903 52.1454" stroke="black" stroke-width="2"/>
<path d="M40.6387 20.5502C53.5752 21.3008 79.6601 22.8549 80.5079 23.0668C81.3556 23.2787 80.8611 42.317 80.5079 51.8097" stroke="black" stroke-width="2"/>
<path d="M47.0667 48.6236L47.837 21.1764" stroke="black" stroke-width="2"/>
<path d="M50.2135 17.5162L41.3711 20.1598L41.8269 20.7979L68.0804 22.2109L80.25 22.849L80.8425 29.1389L80.4323 50.7433L80.9792 51.9739L85.5371 50.1052L85.9474 48.2365L86.4031 24.6265L85.9474 20.1598L82.4834 19.4305L50.2135 17.5162Z" fill="black"/>
<path fill-rule="evenodd" clip-rule="evenodd" d="M22.1583 59.1765C21.3196 49.6666 36.2828 47.4538 43.915 47.7945L44.2281 47.8085C50.5104 48.088 56.1847 48.3404 60.2821 51.9422C60.3687 52.0574 60.3014 52.2043 60.218 52.2229C58.8424 52.5302 51.5775 54.416 51.2109 54.7197C50.8094 55.0525 50.9988 59.2483 51.211 59.4808C51.3217 59.602 51.5208 59.6124 51.7685 59.6253C51.9957 59.6372 52.2638 59.6511 52.542 59.7548C52.6 59.7764 52.6597 60.1473 52.7331 60.6043C52.8403 61.271 52.977 62.1209 53.1809 62.3368C53.5246 62.7007 54.528 62.542 54.6306 62.3368C54.6687 62.2605 54.7522 61.8625 54.8514 61.3893C55.0192 60.589 55.2319 59.574 55.3466 59.5382C55.3899 59.5246 55.4901 59.5137 55.6197 59.4996C56.0359 59.4542 56.7555 59.3757 56.8685 59.0715C56.9354 58.8915 56.9787 58.4348 57.0219 57.9804C57.0744 57.4272 57.1265 56.8774 57.2204 56.8336C57.3354 56.7799 60.2054 55.9912 62.2325 55.4342L62.5793 55.3389C62.813 55.2747 62.9791 55.3097 63.1585 55.5806C67.1309 63.5175 53.4386 67.7063 49.732 68.0524C45.8528 68.4147 22.9971 68.6864 22.1583 59.1765ZM62.5689 54.5704C62.5418 54.5297 62.5143 54.4889 62.4863 54.4481C62.0908 53.8708 61.6721 53.3463 61.2317 52.8694C60.6079 53.063 59.112 53.5205 57.4863 53.9692C56.5787 54.2197 55.6334 54.4712 54.7929 54.6947C53.3051 55.0905 52.146 55.3989 52.1065 55.4596C51.7801 55.9617 51.9148 57.9497 51.9521 58.4998C51.9572 58.5754 51.9605 58.6238 51.9605 58.6376C51.9605 58.7177 52.4003 58.7246 52.7168 58.7296C52.8504 58.7317 52.962 58.7334 53.0094 58.7402C53.1444 58.7595 53.3692 60.5985 53.4628 61.3645C53.4798 61.5039 53.4925 61.6078 53.4995 61.6587C53.5451 61.9893 54.0353 61.8525 54.1493 61.8069C54.2405 61.7704 54.4609 59.8308 54.5598 58.8656C54.6893 58.8573 54.8382 58.8523 54.9898 58.8473C55.3938 58.8338 55.8166 58.8198 55.9426 58.7402C56.1092 58.635 56.1452 57.2322 56.1646 56.4756C56.1654 56.4451 56.1661 56.4157 56.1669 56.3875L62.5689 54.5704ZM41.8266 54.5473C36.1499 54.9485 36.2853 59.9677 40.2389 60.2801C44.0176 60.5787 44.3 60.4684 46.2406 59.7109C46.3305 59.6759 46.4239 59.6394 46.5213 59.6015C48.724 58.7457 48.9226 54.0458 41.8266 54.5473Z" fill="black"/>
</svg>
