<svg width="100" height="100" viewBox="0 0 100 100" fill="none" xmlns="http://www.w3.org/2000/svg">
<path d="M57.3779 32.01C62.265 31.0029 73.6031 31.2102 79.8585 40.0959C87.6779 51.2029 82.9685 64.9757 76.5708 69.6851C70.1732 74.3945 63.0647 75.7273 56.9336 74.6611" stroke="black" stroke-width="2"/>
<circle cx="62.0086" cy="53.3021" r="1.65977" fill="black"/>
<path d="M16.4379 72.7901C15.4427 72.1681 16.0233 40.9105 16.4379 25.3595C16.4869 23.4787 55.1597 28.7808 56.4038 29.2474C57.6479 29.7139 56.981 77.4373 56.359 78.2148C55.7369 78.9924 17.6819 73.5676 16.4379 72.7901Z" stroke="black" stroke-width="2"/>
<path d="M28.934 52.1852C20.8821 45.643 28.5959 42.4663 30.7581 43.5042C33.4609 44.8016 19.5534 51.1115 26.7971 54.463C34.0407 57.8145 36.9504 49.598 36.7341 47.4357C36.5179 45.2734 34.2569 44.1923 33.7163 47.4357C33.1758 50.679 32.9595 56.8416 38.5815 55.6523C44.2034 54.463 44.5277 50.4628 43.8791 49.706C43.2304 48.9492 41.5006 49.0574 41.1762 51.7602C40.8519 54.463 39.6626 55.8685 42.7979 56.4091C45.9332 56.9497 47.0144 55.6523 48.3117 57.274" stroke="black" stroke-width="2" stroke-linecap="round"/>
<path d="M16.8416 25.1176C18.3284 24.7739 66.0816 21.3186 66.4232 21.7457C66.7649 22.1728 66.5656 28.5347 66.4232 32.2361" stroke="black" stroke-width="2"/>
<path fill-rule="evenodd" clip-rule="evenodd" d="M56.8846 32.2657L62.7737 31.5774L70.1157 33.0305L76.0812 36.0132L79.9817 40.2961L83.4233 47.1793L84.1116 52.227L83.4233 59.0337L80.8994 65.0757L77.4578 69.2056L71.6453 72.7237L63.7679 74.9416H56.4258L56.7873 55.9613C57.4007 58.3297 58.9422 59.9836 61.6948 59.9836C66.0238 59.9836 68.6989 56.9731 68.6989 53.2595C68.6989 49.5459 65.7151 46.5354 61.6948 46.5354C59.0776 46.5354 57.5554 48.0306 56.8846 50.2134V32.2657ZM78.4937 45.0353C78.9414 44.712 79.5665 44.8128 79.8899 45.2606C80.0672 45.5062 80.2443 45.8574 80.3834 46.1976C80.5248 46.5434 80.6629 46.9652 80.7202 47.3666C80.7984 47.9134 80.4185 48.4199 79.8718 48.498C79.325 48.5762 78.8185 48.1963 78.7404 47.6496C78.7148 47.4709 78.6395 47.217 78.5322 46.9545C78.4226 46.6864 78.3155 46.4966 78.2685 46.4315C77.9451 45.9837 78.046 45.3587 78.4937 45.0353ZM69.4546 34.8012C68.9207 34.6602 68.3734 34.9787 68.2324 35.5127C68.0913 36.0466 68.4098 36.5938 68.9438 36.7349C70.7441 37.2105 74.3061 38.3888 76.3855 42.4502C76.6372 42.9418 77.2398 43.1362 77.7314 42.8845C78.223 42.6328 78.4175 42.0303 78.1658 41.5387C75.6911 36.7053 71.4257 35.3219 69.4546 34.8012Z" fill="black"/>
</svg>
