<svg width="100" height="100" viewBox="0 0 100 100" fill="none" xmlns="http://www.w3.org/2000/svg">
<path d="M64.7999 76.9991C68.2025 79.47 73.3537 79.6392 73.2421 76.9129C73.2421 76.9129 73.5951 75.7561 70.1954 73.9238" stroke="black" stroke-width="2" stroke-linecap="round"/>
<path d="M77.1239 75.5733L73.1756 75.5894L73.5733 78.5495L76.4872 77.4848L77.1239 75.5733Z" fill="black"/>
<path d="M42.4788 40.2371C40.669 43.0058 37.6778 49.7098 41.7771 53.4706C46.9013 58.1717 48.294 57.8712 49.3465 59.2499C50.399 60.6286 50.9457 59.574 52.7848 59.9466C54.6238 60.3193 57.1762 63.3338 56.9148 65.4452C56.4611 67.684 55.6843 67.5053 56.0474 67.7198C56.4104 67.9342 58.4266 69.3292 59.6672 71.4124C60.9078 73.4956 65.8665 79.73 71.1895 79.2548C76.5126 78.7796 78.5257 74.5965 79.2669 74.0757C79.8599 73.6591 81.0835 72.4309 81.6212 71.8688" stroke="black" stroke-width="2"/>
<path d="M83.0014 69.9613C84.0669 68.4199 85.9185 64.4862 84.8006 61.0827C83.4032 56.8283 79.5433 53.2389 76.2424 52.2962C72.9416 51.3534 71.5497 50.1127 71.2484 49.5724C70.9471 49.0321 70.9195 49.5057 69.4726 49.2125C68.0258 48.9193 63.4006 46.0649 63.4565 44.7753C63.5125 43.4857 63.9604 43.3026 62.8165 42.8654C61.6727 42.4282 59.386 38.6471 57.1227 36.8252C54.8594 35.0033 51.0487 33.4549 47.2474 35.9752" stroke="black" stroke-width="2"/>
<path d="M42.226 40.7539C41.6959 42.2856 41.2327 45.906 43.6201 48.1336C46.6044 50.9182 51.772 53.4356 52.5491 54.3535C53.3263 55.2714 52.8657 56.2933 53.4211 56.3045C53.9765 56.3156 56.9218 55.2903 59.2342 57.888C61.5467 60.4858 60.1879 62.1875 60.0208 62.762C59.8537 63.3365 61.7824 63.5752 63.8297 66.9811C65.877 70.3869 71.8151 78.4524 79.1628 74.1421" stroke="black" stroke-width="2"/>
<path d="M75.7077 57.5698C74.9298 56.9615 71.6931 59.2106 70.4371 60.6835C69.2751 61.9628 78.8343 69.9194 80.5704 71.9337C81.8106 73.3726 83.5001 71.3719 83.707 70.9069C83.9139 70.4419 76.6801 58.3302 75.7077 57.5698Z" stroke="black" stroke-width="2"/>
<path d="M71.1533 60.0135C70.4455 60.3532 69.0778 61.3866 70.2669 63.0863C71.7532 65.2109 79.8204 72.6169 80.9971 72.8086" stroke="black" stroke-width="2"/>
<path d="M69.7521 49.9625L64.614 55.9666" stroke="black" stroke-width="2" stroke-linecap="round"/>
<path d="M64.4664 47.3061C64.6253 47.7867 62.9275 50.2115 61.8304 51.8048C61.4433 52.3735 30.8649 31.7759 30.2348 31.3279C29.6048 30.8798 32.342 27.6179 32.7427 27.9214C33.648 28.607 64.2678 46.7052 64.4664 47.3061Z" stroke="black" stroke-width="2" stroke-linecap="round"/>
<path d="M31.9697 29.5856L62.6851 49.8726L66.8331 53.3068L72.5738 60.2711" stroke="black" stroke-width="2" stroke-linecap="round"/>
<path d="M74.5962 58.4313L68.8089 51.7088L64.4165 48.2188" stroke="black" stroke-width="2" stroke-linecap="round"/>
<path d="M21.2318 22.3892C21.0314 23.2611 21.1693 24.9079 23.3242 24.5198C26.0179 24.0346 25.8885 21.1642 24.7362 20.1841C23.5838 19.204 18.9343 17.5863 17.7144 21.6764C16.4944 25.7666 21.6825 27.8845 24.4413 28.6568C26.6483 29.2747 28.5236 30.2663 30.7886 31.7207" stroke="black" stroke-width="2" stroke-linecap="round"/>
<path d="M23.9211 27.0239L22.5025 30.6217" stroke="black" stroke-width="2" stroke-linecap="round"/>
<ellipse cx="22.3974" cy="31.1398" rx="1.6165" ry="1.35877" transform="rotate(11.4557 22.3974 31.1398)" fill="black"/>
<path d="M20.1536 26.2182L18.3468 29.0272" stroke="black" stroke-width="2" stroke-linecap="round"/>
<ellipse cx="18.1684" cy="29.1631" rx="1.6165" ry="1.35877" transform="rotate(28.9785 18.1684 29.1631)" fill="black"/>
<path d="M24.0454 24.4744C28.4875 25.864 30.5815 27.9532 31.1822 28.6279" stroke="black" stroke-width="2" stroke-linecap="round"/>
<path d="M25.3027 23.4028C26.3011 23.4582 28.0814 23.9866 29.7078 25.4176C31.3342 26.8486 32.7238 27.9235 33.1412 28.2192" stroke="black" stroke-width="2" stroke-linecap="round"/>
<path d="M39.9415 48.9349L41.0464 43.4829L43.3041 48.0271L46.6294 50.2902L52.4814 54.2762L53.6544 56.3302L56.6948 56.2652L59.0338 57.4203L60.7845 61.105L60.4162 62.9223L61.3161 63.7101L64.6209 68.3152L68.8855 73.039L72.1961 75.3748L73.4153 76.4544L72.9439 78.7806L69.8593 79.0636L63.917 76.2702L57.3025 68.9511L56.2611 66.6211L56.762 64.1495L54.8915 61.8028L52.9179 59.9649L50.0377 59.9867L46.9019 57.5349L41.1383 53.1127L39.9415 48.9349Z" fill="black"/>
</svg>
