<svg width="100" height="100" viewBox="0 0 100 100" fill="none" xmlns="http://www.w3.org/2000/svg">
<path d="M51.5356 15.2334C49.2608 16.7743 45.1873 30.0984 43.1387 37.7117C41.9684 42.0604 46.7596 43.4724 49.9701 44.7566C53.1805 46.0408 58.5555 47.5293 61.3073 46.1534C64.4322 44.591 67.6794 31.5607 69.3305 27.5247C70.9815 23.4887 70.0643 20.1866 64.8359 16.6093C59.6075 13.0319 54.3791 13.3071 51.5356 15.2334Z" stroke="black" stroke-width="2" stroke-linecap="round"/>
<path d="M62.3208 38.9226L64.8057 40.5039" stroke="black" stroke-width="2" stroke-linecap="round"/>
<path d="M49.3179 37.7308C48.9037 39.6243 48.2803 40.9685 48.8015 42.3269C49.169 43.2847 50.8768 45.045 53.0799 45.8575" stroke="black" stroke-width="2" stroke-linecap="round"/>
<path d="M52.5737 38.0096C52.1595 39.9031 51.5896 41.2026 51.8693 42.6304C52.0315 43.4587 52.2607 45.8448 58.6277 46.3187" stroke="black" stroke-width="2" stroke-linecap="round"/>
<path d="M47.0879 44.4296C45.2781 50.0085 44.9724 53.0215 47.7921 54.188C51.6863 55.799 52.868 52.99 53.9216 49.9796C54.4339 48.5159 54.867 46.9301 55.0194 46.3202" stroke="black" stroke-width="2" stroke-linecap="round"/>
<path d="M46.3252 76.2251V53.8152C46.7868 54.4876 47.7418 54.947 48.6125 55.2136C49.4832 55.4802 50.7874 55.2136 50.7874 55.2136C50.7874 55.2136 50.8347 74.8266 50.8347 76.2251C50.8347 77.6236 46.3252 77.824 46.3252 76.2251Z" fill="black" stroke="black" stroke-width="2" stroke-linecap="round"/>
<path d="M32.2894 80.3333C27.6604 78.6669 29.2644 72.2283 47.338 72.4884C65.4116 72.7484 69.5124 77.5598 65.2334 80.3333C62.5654 82.0625 40.2135 83.1859 32.2894 80.3333Z" stroke="black" stroke-width="2" stroke-linecap="round"/>
<path d="M30.0602 77.7213C29.8553 79.1216 29.8323 82.4358 30.3241 83.0506C30.9389 83.819 36.9287 85.7862 49.2392 85.7862C59.8497 85.7862 65.4952 84.4173 66.1612 83.5977C66.694 82.9419 66.952 79.6802 66.8325 78.4165" stroke="black" stroke-width="2" stroke-linecap="round"/>
<path d="M30.2925 83.1382V79.3452L35.395 81.1514L44.0195 81.603C47.2707 81.7385 53.8904 82.0004 54.36 81.9642C54.8296 81.9281 60.6365 81.1665 63.4813 80.7902L66.3712 80.158L66.1003 83.9962L63.12 85.0799L54.0891 85.9379L45.1484 86.1636L36.2077 85.0799L30.2925 83.1382Z" fill="black"/>
<circle cx="49.529" cy="50.5182" r="1.71645" fill="black"/>
<path d="M53.5118 51.9053C54.6324 52.4413 56.9907 54.5512 57.4585 58.7026C57.8699 62.3529 55.9079 64.0059 54.3888 65.3538C51.4133 67.994 44.6203 64.9113 41.4773 67.5424C39.4325 69.2542 38.8771 71.2041 40.446 72.9301" stroke="black" stroke-width="2"/>
<path d="M46.0888 37.4298C45.579 38.6618 44.422 42.0961 46.8956 43.5384" stroke="black" stroke-width="2" stroke-linecap="round"/>
<path d="M64.1855 34.0422L66.4366 35.4005" stroke="black" stroke-width="2" stroke-linecap="round"/>
<path d="M50.5371 33.9908C51.5811 34.0449 54.1564 34.2463 55.582 34.8943C57.0077 35.5422 58.7889 36.7711 59.2209 37.0411" stroke="black" stroke-width="2" stroke-linecap="round"/>
<path d="M44.501 33.3705C44.9281 33.3705 46.9302 33.6325 47.3695 33.6325" stroke="black" stroke-width="2" stroke-linecap="round"/>
<path d="M65.6187 29.5454L68.1035 31.1267" stroke="black" stroke-width="2" stroke-linecap="round"/>
<path d="M52.4014 29.1105C53.4454 29.1645 56.0206 29.3659 57.4463 30.0139C58.872 30.6619 60.6766 32.0515 61.1086 32.3215" stroke="black" stroke-width="2" stroke-linecap="round"/>
<path d="M46.3652 28.4901C46.7924 28.4901 48.7916 28.7556 49.2309 28.7556" stroke="black" stroke-width="2" stroke-linecap="round"/>
<path d="M66.8613 25.049L69.3462 26.6302" stroke="black" stroke-width="2" stroke-linecap="round"/>
<path d="M53.835 24.6138C54.879 24.6678 57.4542 24.8692 58.8799 25.5172C60.3056 26.1652 62.0401 27.4892 62.4721 27.7592" stroke="black" stroke-width="2" stroke-linecap="round"/>
<path d="M47.7988 23.9934C48.226 23.9934 50.26 24.2458 50.6993 24.2458" stroke="black" stroke-width="2" stroke-linecap="round"/>
<path d="M55.0771 20.1173C56.1212 20.1713 58.6964 20.3727 60.1221 21.0207C61.5477 21.6687 63.3508 23.0057 63.7828 23.2757" stroke="black" stroke-width="2" stroke-linecap="round"/>
<path d="M49.0415 19.4968C49.4687 19.4968 51.6498 19.7359 52.0891 19.7359" stroke="black" stroke-width="2" stroke-linecap="round"/>
<path d="M62.0454 15.0731C59.2844 13.9192 58.813 17.6984 58.813 17.6984" stroke="black" stroke-width="2" stroke-linecap="round"/>
<path d="M56.0748 13.8607C53.4146 13.8607 52.8994 16.8536 52.8994 16.8536" stroke="black" stroke-width="2" stroke-linecap="round"/>
<path d="M58.7981 14.0681C56.3542 13.8493 55.8462 17.3069 55.8462 17.3069" stroke="black" stroke-width="2" stroke-linecap="round"/>
<path d="M47.355 43.7164C55.7306 46.5955 60.1419 47.0019 62.238 44.4153C64.3341 41.8286 68.6554 27.9843 69.2007 25.5202C69.746 23.0562 69.3301 18.0398 61.4317 14.7936" stroke="black" stroke-width="2"/>
</svg>
