<svg width="100" height="100" viewBox="0 0 100 100" fill="none" xmlns="http://www.w3.org/2000/svg">
<g clip-path="url(#clip0_65_20599)">
<path d="M73.182 63.6325C75.6181 66.3496 82.4025 75.2797 81.9397 78.2045C81.7563 79.3727 78.8225 81.2504 75.0854 81.9686C72.0731 82.557 68.8075 83.6127 65.1664 84.5126C62.9137 85.0664 58.1288 83.1368 55.8324 83.5262C54.0249 83.8377 50.4799 84.9453 48.6463 85.0837C46.4198 85.2482 43.94 83.855 41.2158 83.2839C37.339 82.4618 33.0605 85.7673 28.7471 84.9193C22.6176 83.7165 18.9329 81.0168 18.2343 80.3158C17.3786 79.4592 19.4306 74.5701 20.1815 73.6702C24.6869 68.2793 27.7692 64.0998 31.5849 59.2973L31.6722 59.3665C30.1704 61.3741 31.0173 64.9045 32.9295 65.1728C35.4267 65.5276 36.1427 61.0885 37.8367 62.5249C40.9538 65.1728 40.9364 58.83 44.5163 58.3714C47.2842 58.0166 43.3725 65.7006 45.3196 66.5833C47.4588 67.5611 50.0696 64.9219 49.956 63.2258C50.7244 58.0253 52.6192 64.4373 54.5052 65.7872C58.4955 66.5227 55.1775 58.1378 60.0322 63.2258C61.6651 64.4892 64.9219 67.9851 67.2532 66.2285C68.3709 64.6969 63.813 60.2491 64.9394 58.7175C65.9872 57.5494 68.3185 59.6694 69.8203 60.5607L69.9426 60.4309C71.0951 61.5298 72.2826 62.6374 73.182 63.6325Z" fill="black"/>
<path d="M69.9426 60.4314C69.0781 59.618 68.2312 58.8132 67.5501 58.0691C65.7427 56.0961 64.529 53.3012 62.6954 51.3542C60.7919 49.3467 59.3599 47.2353 57.4128 44.5009C56.6008 43.3587 55.1077 44.2499 53.5709 45.2105C51.973 46.2142 51.5277 43.151 50.7681 43.7654C49.3361 44.9162 48.3145 44.5961 46.6206 43.6269C45.4156 42.9347 44.5338 44.7951 43.6519 45.8594C41.5476 48.3689 37.7057 51.8474 35.6101 54.3569C34.1432 56.1134 32.8247 57.7402 31.5849 59.2978C27.7692 64.1003 24.6869 68.2798 20.1815 73.6707C19.4306 74.5707 17.3786 79.4597 18.2343 80.3164C18.9329 81.0173 22.6176 83.7171 28.7471 84.9199C33.0605 85.7679 37.339 82.4624 41.2158 83.2844C43.94 83.8555 46.4198 85.2487 48.6463 85.0843C50.4799 84.9458 54.0249 83.8382 55.8324 83.5267C58.1288 83.1373 62.9137 85.067 65.1664 84.5132C68.8075 83.6132 72.0731 82.5575 75.0854 81.9691C78.8225 81.2509 81.7563 79.3732 81.9397 78.205C82.4025 75.2802 75.6181 66.3501 73.182 63.6331C72.2826 62.6379 71.0951 61.5303 69.9426 60.4314Z" stroke="black" stroke-width="2.08504" stroke-linecap="round" stroke-linejoin="round"/>
<path d="M31.6722 59.3665C30.1704 61.3741 31.0173 64.9045 32.9295 65.1728C35.4267 65.5276 36.1427 61.0885 37.8367 62.5249C40.9538 65.1728 40.9364 58.83 44.5163 58.3714C47.2842 58.0166 43.3725 65.7006 45.3196 66.5833C47.4588 67.5611 50.0696 64.9219 49.956 63.2258C50.7244 58.0253 52.6192 64.4373 54.5052 65.7872C58.4955 66.5227 55.1775 58.1378 60.0322 63.2258C61.665 64.4892 64.9219 67.9851 67.2532 66.2285C68.3709 64.6969 63.813 60.2491 64.9394 58.7175C65.9872 57.5494 68.3185 59.6694 69.8203 60.5607" stroke="black" stroke-width="2.08504" stroke-linecap="round" stroke-linejoin="round"/>
<path d="M54.9513 44.4055C54.7679 43.1335 54.8989 41.2211 54.7155 39.9491C54.5234 38.6079 54.7854 37.7166 55.3355 36.4705C55.6934 35.6658 56.4793 34.9649 57.3612 34.7918C58.3478 34.6015 58.9416 35.3889 59.937 35.3889C60.6442 35.3889 61.2991 35.1985 61.8492 34.8784C62.67 36.0638 64.0408 36.8513 65.6038 36.8513C68.101 36.8513 70.1267 34.8524 70.1267 32.3689C70.1267 30.8114 69.3059 29.4269 68.0835 28.6221C68.5637 27.9991 68.8519 27.2116 68.8519 26.3636C68.8519 24.2782 67.1405 22.5909 65.0362 22.5909C64.8703 22.5909 64.7131 22.5995 64.5472 22.6255C64.6869 22.2015 64.7655 21.7515 64.7655 21.2929C64.7655 18.9565 62.8533 17.0615 60.4871 17.0615C58.9678 17.0615 57.6318 17.8576 56.8897 19.0431C55.9729 16.6115 53.6066 14.8722 50.8212 14.8722C47.5993 14.8722 44.9187 17.2086 44.421 20.2631C43.5391 19.3286 42.2643 18.7402 40.8673 18.7402C38.3613 18.7402 36.3094 20.6093 36.0038 22.9976C35.6371 22.911 35.2616 22.8591 34.8687 22.8591C32.2143 22.8591 30.0576 24.9964 30.0576 27.627C30.0576 29.9893 31.7952 31.9449 34.0829 32.3084C34.2226 34.264 35.8728 35.8129 37.8898 35.8129C39.4528 35.8129 40.7974 34.8784 41.3737 33.5458C41.2427 33.84 43.7487 33.8486 43.9233 33.8746C44.8401 33.9784 45.6696 34.6361 46.1062 35.4235C46.7261 36.5571 47.1627 37.1628 47.1103 38.4435C47.0579 39.6203 47.4945 42.6143 47.3897 43.7825" stroke="black" stroke-width="2.08504" stroke-linecap="round" stroke-linejoin="round"/>
<path d="M49.5193 42.0348C50.637 42.1819 51.1434 41.5762 52.261 41.5762C53.4485 41.5243 53.7628 40.7801 54.9765 40.858C55.1774 40.8666 54.9154 44.051 54.8718 44.2414C54.767 44.6827 54.409 45.0547 53.9811 45.2019C53.5533 45.349 53.0556 45.2884 52.6452 45.0807C52.2261 44.8557 51.9118 44.4923 51.5625 44.1808C51.2132 43.8693 50.7679 43.601 50.2964 43.6443C49.8773 43.6875 49.5193 43.9644 49.1701 44.1894C48.8208 44.4144 48.3667 44.6048 47.9738 44.4404C47.1967 44.1202 46.6554 40.3734 47.2928 40.7282C48.0524 41.1522 48.7422 41.931 49.528 42.0261L49.5193 42.0348Z" fill="black"/>
<path d="M55.1166 33.1913C55.1952 32.6461 55.623 32.101 56.1819 32.1183C56.8105 32.1356 57.1773 32.8192 57.7099 33.148C58.5132 33.6586 59.5784 33.3297 60.4603 32.949C61.3422 32.5683 62.2416 32.3952 63.1147 32.7846C63.9268 33.148 64.3983 34.0393 65.0007 34.6883C65.8128 35.5536 67.9171 34.8787 69.611 33.3557C69.3578 35.8045 66.1446 36.8948 64.8698 36.6352C63.595 36.3757 62.4511 35.6921 61.1938 35.3632C60.3381 35.1382 59.4475 35.0777 58.5656 35.0171C57.9369 34.9738 57.3082 34.9392 56.6796 34.896C56.2779 34.87 55.038 34.7748 55.3087 35.4325C55.9025 34.8267 55.0031 33.9441 55.1253 33.1826L55.1166 33.1913Z" fill="black"/>
<path d="M43.3726 33.8576C45.0927 33.7365 46.6993 33.148 47.293 31.5645" stroke="black" stroke-width="2.08504" stroke-linecap="round" stroke-linejoin="round"/>
<path d="M33.4014 30.3699C34.1086 30.5603 34.9207 30.6122 35.4533 31.1141C35.9946 31.6333 36.1081 32.4986 36.7019 32.9572C37.2432 33.3725 38.0291 33.312 38.6665 33.061C39.3039 32.8101 39.8714 32.4034 40.5176 32.1698C42.5084 31.4429 44.8222 32.464 46.8305 31.7804C46.2891 32.6024 45.2763 32.9658 44.3071 33.1649C43.3379 33.3639 42.3163 33.4504 41.4606 33.935C40.5874 34.4282 39.9413 35.2935 38.9808 35.6137C38.1339 35.8906 37.1821 35.6743 36.4137 35.2243C35.6454 34.7744 35.0167 34.134 34.4055 33.4937C33.6546 32.7062 32.8949 31.9188 32.144 31.1314C31.3582 30.3093 30.258 29.1844 30.3104 27.9557C30.6684 27.973 31.2185 29.0546 31.5415 29.3488C32.0742 29.8247 32.7116 30.1795 33.4014 30.3699Z" fill="black"/>
<path d="M56.7492 18.9309C56.9675 20.2376 56.2951 21.648 55.1426 22.3143" stroke="black" stroke-width="2.08504" stroke-linecap="round" stroke-linejoin="round"/>
</g>
<defs>
<clipPath id="clip0_65_20599">
<rect width="65.6787" height="71.9338" fill="white" transform="translate(17.1606 14.0332)"/>
</clipPath>
</defs>
</svg>
