<svg width="100" height="100" viewBox="0 0 100 100" fill="none" xmlns="http://www.w3.org/2000/svg">
<path d="M21.004 50.1177C21.283 32.8577 33.754 23.4177 44.843 21.4077C58.333 18.9577 77.993 27.5678 79.749 46.7278C81.597 66.8978 67.183 78.7678 53.633 79.5778C37.961 80.5078 20.699 68.9977 21.004 50.1177Z" stroke="black" stroke-width="2" stroke-miterlimit="10" stroke-linejoin="round"/>
<path d="M21.2715 50.028C21.2715 50.028 30.6694 40.9379 38.7844 43.6479C46.8994 46.3579 50.4274 50.3979 50.4274 50.3979C50.4274 50.3979 61.9134 50.668 66.2344 45.358C70.5554 40.048 71.9894 30.3779 71.9894 30.3779" stroke="black" stroke-width="2" stroke-miterlimit="10" stroke-linejoin="round"/>
<path d="M50.6398 50.2275C50.6398 50.2275 48.6489 58.0174 51.0269 63.5074C55.8329 74.5974 66.8079 75.0175 66.8079 75.0175" stroke="black" stroke-width="2" stroke-miterlimit="10" stroke-linejoin="round"/>
<path d="M41.7198 44.4277C41.7198 44.4277 35.4278 52.1377 41.4598 65.7677C44.7308 73.1577 54.6588 79.2278 54.6588 79.2278" stroke="black" stroke-width="2" stroke-miterlimit="10" stroke-linejoin="round"/>
<path d="M30.1996 44.248C30.1996 44.248 27.1836 53.9881 31.7926 64.3081C34.6376 70.6681 39.0866 76.9281 39.0866 76.9281" stroke="black" stroke-width="2" stroke-miterlimit="10" stroke-linejoin="round"/>
<path d="M63.236 47.9874C63.236 47.9874 56.6639 38.7574 48.1609 35.4374C37.2229 31.1674 24.4189 36.6074 24.4189 36.6074" stroke="black" stroke-width="2" stroke-miterlimit="10" stroke-linejoin="round"/>
<path d="M50.3623 60.5679C50.3623 60.5679 61.4153 61.4678 68.9963 54.9178C76.5773 48.3678 78.7953 42.0479 78.7953 42.0479" stroke="black" stroke-width="2" stroke-miterlimit="10" stroke-linejoin="round"/>
<path d="M55.5518 69.6177C55.5518 69.6177 63.7178 69.8278 69.3678 66.0778C72.9668 63.6878 78.1548 60.2178 78.1548 60.2178" stroke="black" stroke-width="2" stroke-miterlimit="10" stroke-linejoin="round"/>
<path d="M34.9473 25.2174C34.9473 25.2174 46.9463 22.8274 56.7923 28.2274C63.8743 32.1174 69.3873 39.5173 69.3873 39.5173" stroke="black" stroke-width="2" stroke-miterlimit="10" stroke-linejoin="round"/>
<path d="M72.8942 31.2275C79.4692 39.5175 82.7382 55.0875 74.3062 66.1075C66.7352 76.0075 58.2832 77.8475 53.4232 78.5175C47.7772 79.2975 34.3851 77.8375 25.0931 64.4175C22.1071 60.0975 21.1191 52.9775 21.1191 52.9775" stroke="black" stroke-width="2" stroke-miterlimit="10" stroke-linejoin="round"/>
</svg>
