<svg width="100" height="100" viewBox="0 0 100 100" fill="none" xmlns="http://www.w3.org/2000/svg">
<path d="M32.222 49.7388H65.5498" stroke="black" stroke-width="2"/>
<path d="M33.0051 45.0737H63.8829" stroke="black" stroke-width="2"/>
<path d="M28.0645 71.3565C28.2111 63.1667 27.7852 53.4717 28.0026 22.2485C28.0026 20.7972 29.1791 19.6206 30.6305 19.6206C33.2777 19.6273 35.6718 19.6321 37.9538 19.6352M72.445 61.8044C69.1708 47.0109 67.5396 39.0763 62.7582 21.6325C62.4736 20.4523 61.4175 19.6206 60.2035 19.6206C57.8434 19.625 55.6925 19.6288 53.6781 19.6317" stroke="black" stroke-width="2"/>
<path d="M32.7062 71.2017C32.8956 54.2058 33.2046 45.5758 32.7062 25.5314C32.7062 25.0786 33.0733 24.7114 33.5262 24.7114C35.3442 24.7195 37.0268 24.7269 38.6039 24.7333M68.0456 62.747C64.8127 49.1841 62.7957 40.5249 59.0753 25.3392C58.9865 24.9709 58.6569 24.7114 58.2781 24.7114C56.6162 24.7269 55.0324 24.738 53.4606 24.7453" stroke="black" stroke-width="2"/>
<path d="M27.9478 70.606C27.9478 70.606 26.7359 70.5077 26.4713 72.9103C26.2154 75.3011 26.902 78.2303 27.7377 78.7421C28.2321 79.029 32.3999 79.8059 32.988 78.169C33.6052 76.4434 34.3411 74.2362 33.9662 72.2854C33.6116 70.3316 32.7842 70.473 32.7842 70.473C32.7842 70.473 31.4379 72.6002 30.0901 72.4161C28.7539 72.2409 27.9478 70.606 27.9478 70.606Z" stroke="black" stroke-width="2" stroke-miterlimit="10" stroke-linejoin="round"/>
<path d="M36.5898 79.147H29.842" stroke="black" stroke-width="2" stroke-linecap="round"/>
<path d="M32.3313 78.533C32.5962 77.2476 33.8348 74.9348 33.4599 72.984C33.1052 71.0302 32.7843 70.4727 32.7843 70.4727" stroke="black" stroke-width="2" stroke-miterlimit="10" stroke-linejoin="round"/>
<path d="M36.5898 79.147L33.0676 78.5026" stroke="black" stroke-width="2" stroke-linecap="round"/>
<path fill-rule="evenodd" clip-rule="evenodd" d="M72.5577 60.6394C78.1236 60.3776 82.4642 64.8298 82.3383 70.4438C82.3223 75.8102 77.998 80.1889 72.6248 80.1889C67.2698 80.1889 62.9566 75.8398 62.9115 70.4984C62.5639 64.9691 67.0717 60.6917 72.5577 60.6394ZM74.9769 65.6846C75.1174 65.1117 74.7669 64.5333 74.1939 64.3928C73.621 64.2522 73.0426 64.6028 72.9021 65.1757L72.0711 68.5635L69.5919 66.2385C69.1616 65.835 68.4856 65.8567 68.0821 66.287C67.6785 66.7173 67.7002 67.3933 68.1306 67.7968L70.5664 70.0811L67.4138 70.9774C66.8464 71.1387 66.5172 71.7295 66.6785 72.2969C66.8398 72.8644 67.4306 73.1936 67.998 73.0322L71.0757 72.1572L70.1425 75.1978C69.9694 75.7617 70.2862 76.3592 70.8502 76.5323C71.4141 76.7054 72.0116 76.3886 72.1847 75.8246L73.2384 72.3918L76.0568 74.599C76.5212 74.9627 77.1926 74.881 77.5563 74.4166C77.92 73.9521 77.8384 73.2808 77.3739 72.917L74.9026 70.9817L77.878 69.9998C78.4382 69.8149 78.7425 69.2109 78.5576 68.6507C78.3727 68.0905 77.7687 67.7862 77.2085 67.9711L74.1701 68.9738L74.9769 65.6846Z" fill="black"/>
<path d="M82.3418 78.9897L72.4453 79.2204" stroke="black" stroke-width="2" stroke-linecap="round"/>
<path d="M82.3418 78.9897L74.0626 77.7414" stroke="black" stroke-width="2" stroke-linecap="round"/>
<path d="M71.1565 60.5576L68.9103 61.2842" stroke="black" stroke-width="2" stroke-linecap="round"/>
<path d="M34.7905 46.2046L34.7257 48.5015" stroke="black" stroke-width="2" stroke-linecap="round"/>
<path d="M34.1149 48.5015C41.1362 49.891 56.9169 49.7007 63.9296 49.4319" stroke="black" stroke-width="2" stroke-linecap="round"/>
<path d="M55.0684 19.6738L55.0684 24.0739" stroke="black" stroke-width="2" stroke-linecap="round"/>
<path d="M38.1711 25.3955C37.7617 25.0957 37.6967 18.6982 38.1711 18.3848C38.6455 18.0714 53.0863 17.992 53.5666 18.3848C54.0469 18.7777 53.8227 25.056 53.5666 25.3955C53.3104 25.735 38.5805 25.6953 38.1711 25.3955Z" stroke="black" stroke-width="2" stroke-linecap="round"/>
<path d="M38.4316 24.5146C41.806 25.9041 49.39 25.7139 52.7603 25.4451" stroke="black" stroke-width="2" stroke-linecap="round"/>
</svg>
