<svg width="100" height="100" viewBox="0 0 100 100" fill="none" xmlns="http://www.w3.org/2000/svg">
<path d="M31.9848 25.4703L23.5607 25.2588C22.407 25.2299 21.468 26.1809 21.5185 27.3339C21.8311 34.4717 22.304 41.2335 22.1349 45.9805C21.961 52.0965 21.7392 54.6154 21.6858 59.7331C21.6683 67.5485 21.7336 78.4383 22.638 79.167C23.5423 79.8958 41.8035 79.9894 52.3099 79.8958C61.3807 79.7608 77.2285 79.3562 77.8117 78.7932C78.3949 78.2303 77.8882 74.6028 77.8117 72.5133C77.0602 56.2732 78.0899 26.87 77.1055 25.8364C76.7893 25.5044 73.5984 25.3191 68.9056 25.2297M38.874 25.3539C46.2088 25.2408 54.8303 25.1439 62.0302 25.1633" stroke="black" stroke-width="2" stroke-miterlimit="10"/>
<path d="M36.5398 32.5409L34.4447 32.5385C33.1205 32.5872 32.0744 31.5391 32.1182 30.1991L31.9838 20.9613C31.9566 19.0941 33.4516 17.56 35.3189 17.539V17.539C37.1775 17.5181 38.7028 19.0046 38.7299 20.8631L38.8646 30.1231C38.8208 31.4631 37.7718 32.5088 36.5398 32.5409Z" stroke="black" stroke-width="2" stroke-miterlimit="10"/>
<path d="M66.393 32.2503L64.5789 32.2903C63.2457 32.3394 62.0829 31.2081 62.0174 29.7829L61.8948 20.5835C61.8697 18.6982 63.3797 17.1506 65.265 17.1294V17.1294C67.135 17.1084 68.6728 18.5978 68.7115 20.4675L68.9025 29.6897C68.8585 31.0388 67.7262 32.2012 66.393 32.2503Z" stroke="black" stroke-width="2" stroke-miterlimit="10"/>
<path fill-rule="evenodd" clip-rule="evenodd" d="M36.54 32.5409L34.4448 32.5385C33.1207 32.5872 32.0745 31.5391 32.1183 30.1991L32.0536 25.7535C32.042 25.7539 32.0303 25.7543 32.0186 25.7547L22.2259 26.0546C22.3164 26.9722 22.3107 27.7738 22.2818 28.4461C22.2295 28.9893 22.2033 29.2608 22.1015 29.9463C22.1015 29.9463 21.9591 31.2395 21.8895 32.5196C21.8344 33.4635 21.8493 34.7951 22.1641 36.5395C25.2215 35.9876 29.8425 35.3536 35.4421 35.1434C41.0709 34.9564 44.8321 35.327 48.2681 35.6655C49.2563 35.7629 50.2176 35.8576 51.1887 35.9356C57.1349 36.3967 66.003 36.5995 77.0416 34.8739C77.0067 34.6801 76.987 34.4641 76.9674 34.2482C76.9478 34.0322 76.9281 33.8163 76.8931 33.6225C76.7341 32.6088 76.4927 31.7309 76.266 30.9069C75.7819 29.1467 75.3656 27.6331 75.9661 25.5708C73.5392 25.6496 71.1627 25.6955 68.8207 25.719L68.9029 29.6907C68.8589 31.0398 67.7266 32.2022 66.3934 32.2512L64.5793 32.2913C63.2461 32.3403 62.0833 31.209 62.0177 29.7839L61.9638 25.7331C59.2896 25.7207 56.641 25.6917 53.9924 25.6628C48.9853 25.608 43.9782 25.5532 38.7991 25.6103L38.8647 30.1231C38.821 31.4631 37.7719 32.5088 36.54 32.5409Z" fill="black"/>
<path d="M34.4448 32.5385L34.446 31.5385C34.4334 31.5385 34.4207 31.5387 34.4081 31.5392L34.4448 32.5385ZM36.54 32.5409L36.5388 33.5409C36.5479 33.5409 36.5569 33.5408 36.566 33.5406L36.54 32.5409ZM32.1183 30.1991L33.1178 30.2317C33.1183 30.216 33.1184 30.2002 33.1182 30.1845L32.1183 30.1991ZM32.0536 25.7535L33.0535 25.739C33.0496 25.4707 32.9381 25.2153 32.744 25.0301C32.5499 24.8448 32.2895 24.7454 32.0213 24.7541L32.0536 25.7535ZM32.0186 25.7547L32.0492 26.7542L32.051 26.7541L32.0186 25.7547ZM22.2259 26.0546L22.1953 25.0551C21.9185 25.0636 21.6576 25.1865 21.4747 25.3945C21.2919 25.6026 21.2036 25.8771 21.2307 26.1527L22.2259 26.0546ZM22.2818 28.4461L23.2772 28.542C23.2788 28.5244 23.2801 28.5068 23.2808 28.4892L22.2818 28.4461ZM22.1015 29.9463L21.1124 29.7995C21.1105 29.8119 21.1089 29.8244 21.1076 29.8369L22.1015 29.9463ZM21.8895 32.5196L22.8878 32.5779L22.8881 32.5739L21.8895 32.5196ZM22.1641 36.5395L21.18 36.7171C21.2271 36.9781 21.376 37.2097 21.5939 37.3609C21.8117 37.5122 22.0808 37.5707 22.3418 37.5236L22.1641 36.5395ZM35.4421 35.1434L35.4089 34.144L35.4046 34.1441L35.4421 35.1434ZM48.2681 35.6655L48.3661 34.6703L48.2681 35.6655ZM51.1887 35.9356L51.1086 36.9324L51.1114 36.9326L51.1887 35.9356ZM77.0416 34.8739L77.1961 35.8619C77.4622 35.8203 77.7002 35.6731 77.8564 35.4538C78.0125 35.2344 78.0736 34.9613 78.0257 34.6962L77.0416 34.8739ZM76.8931 33.6225L75.9052 33.7774C75.9064 33.785 75.9077 33.7925 75.909 33.8001L76.8931 33.6225ZM76.266 30.9069L75.3018 31.1721L75.3018 31.1721L76.266 30.9069ZM75.9661 25.5708L76.9263 25.8504C77.0158 25.5428 76.9526 25.2109 76.7562 24.9578C76.5598 24.7046 76.2539 24.561 75.9337 24.5714L75.9661 25.5708ZM68.8207 25.719L68.8106 24.7191C68.5436 24.7217 68.2887 24.8311 68.1028 25.0229C67.9168 25.2146 67.8153 25.4727 67.8209 25.7397L68.8207 25.719ZM68.9029 29.6907L69.9024 29.7233C69.903 29.7055 69.9031 29.6878 69.9027 29.67L68.9029 29.6907ZM66.3934 32.2512L66.4155 33.251C66.4204 33.2509 66.4253 33.2507 66.4302 33.2505L66.3934 32.2512ZM64.5793 32.2913L64.5572 31.2915C64.5523 31.2916 64.5474 31.2918 64.5425 31.292L64.5793 32.2913ZM62.0177 29.7839L61.0178 29.7972C61.018 29.8081 61.0183 29.819 61.0188 29.8298L62.0177 29.7839ZM61.9638 25.7331L62.9637 25.7198C62.9564 25.1746 62.5137 24.7356 61.9684 24.7331L61.9638 25.7331ZM53.9924 25.6628L54.0033 24.6628L53.9924 25.6628ZM38.7991 25.6103L38.788 24.6104C38.5222 24.6133 38.2685 24.722 38.083 24.9123C37.8974 25.1027 37.7953 25.3591 37.7992 25.6249L38.7991 25.6103ZM38.8647 30.1231L39.8642 30.1558C39.8647 30.14 39.8648 30.1243 39.8646 30.1086L38.8647 30.1231ZM34.4437 33.5385L36.5388 33.5409L36.5411 31.5409L34.446 31.5385L34.4437 33.5385ZM31.1188 30.1664C31.0564 32.0773 32.5699 33.6081 34.4816 33.5378L34.4081 31.5392C33.6714 31.5663 33.0927 31.0008 33.1178 30.2317L31.1188 30.1664ZM31.0538 25.7681L31.1184 30.2136L33.1182 30.1845L33.0535 25.739L31.0538 25.7681ZM32.0213 24.7541C32.0096 24.7544 31.9979 24.7548 31.9862 24.7552L32.051 26.7541C32.0626 26.7538 32.0743 26.7534 32.0859 26.753L32.0213 24.7541ZM31.988 24.7551L22.1953 25.0551L22.2565 27.0541L32.0492 26.7542L31.988 24.7551ZM21.2307 26.1527C21.3152 27.009 21.3104 27.7606 21.2827 28.4031L23.2808 28.4892C23.3111 27.787 23.3176 26.9355 23.2211 25.9565L21.2307 26.1527ZM21.2864 28.3503C21.2349 28.8848 21.2106 29.1377 21.1124 29.7995L23.0907 30.0932C23.196 29.384 23.224 29.0937 23.2772 28.542L21.2864 28.3503ZM22.1015 29.9463C21.1076 29.8369 21.1075 29.8369 21.1075 29.8369C21.1075 29.837 21.1075 29.837 21.1075 29.837C21.1075 29.8371 21.1075 29.8372 21.1075 29.8373C21.1075 29.8375 21.1074 29.8379 21.1074 29.8382C21.1073 29.839 21.1072 29.8401 21.107 29.8415C21.1067 29.8443 21.1063 29.8483 21.1057 29.8535C21.1046 29.8638 21.103 29.879 21.1009 29.8986C21.0967 29.9377 21.0908 29.9946 21.0834 30.0667C21.0687 30.2108 21.0483 30.416 21.0258 30.6617C20.9809 31.1517 20.9267 31.8084 20.891 32.4653L22.8881 32.5739C22.9219 31.9508 22.9738 31.3208 23.0175 30.8442C23.0393 30.6066 23.0589 30.4084 23.073 30.2701C23.0801 30.2009 23.0858 30.1468 23.0897 30.1102C23.0916 30.0919 23.0931 30.078 23.0941 30.0689C23.0946 30.0643 23.095 30.0609 23.0952 30.0587C23.0953 30.0576 23.0954 30.0568 23.0955 30.0563C23.0955 30.0561 23.0955 30.0559 23.0955 30.0558C23.0955 30.0558 23.0955 30.0557 23.0955 30.0557C23.0955 30.0557 23.0955 30.0557 23.0955 30.0557C23.0955 30.0558 23.0955 30.0558 22.1015 29.9463ZM20.8912 32.4613C20.832 33.4758 20.8497 34.8871 21.18 36.7171L23.1482 36.3618C22.8488 34.7031 22.8368 33.4513 22.8878 32.5779L20.8912 32.4613ZM22.3418 37.5236C25.3595 36.9789 29.9334 36.3509 35.4796 36.1427L35.4046 34.1441C29.7517 34.3563 25.0835 34.9963 21.9865 35.5554L22.3418 37.5236ZM35.4753 36.1429C41.0365 35.9581 44.7448 36.3232 48.17 36.6607L48.3661 34.6703C44.9194 34.3307 41.1053 33.9547 35.4089 34.144L35.4753 36.1429ZM48.17 36.6607C49.1567 36.7579 50.127 36.8535 51.1086 36.9324L51.2688 34.9388C50.3082 34.8616 49.3558 34.7678 48.3661 34.6703L48.17 36.6607ZM51.1114 36.9326C57.1149 37.3981 66.0632 37.6023 77.1961 35.8619L76.8872 33.8859C65.9428 35.5968 57.1549 35.3952 51.266 34.9386L51.1114 36.9326ZM78.0257 34.6962C78.0001 34.5539 77.9839 34.384 77.9633 34.1576L75.9715 34.3387C75.9902 34.5442 76.0133 34.8062 76.0576 35.0515L78.0257 34.6962ZM77.9633 34.1576C77.9446 33.9521 77.9215 33.6901 77.8772 33.4448L75.909 33.8001C75.9347 33.9424 75.9509 34.1123 75.9715 34.3387L77.9633 34.1576ZM77.8811 33.4675C77.7122 32.3909 77.4559 31.4623 77.2302 30.6417L75.3018 31.1721C75.5294 31.9994 75.7561 32.8268 75.9052 33.7774L77.8811 33.4675ZM77.2302 30.6417C76.7462 28.8818 76.4121 27.616 76.9263 25.8504L75.006 25.2913C74.3191 27.6503 74.8177 29.4117 75.3018 31.1721L77.2302 30.6417ZM75.9337 24.5714C73.5153 24.6498 71.1464 24.6956 68.8106 24.7191L68.8307 26.719C71.179 26.6954 73.5631 26.6493 75.9986 26.5703L75.9337 24.5714ZM69.9027 29.67L69.8204 25.6983L67.8209 25.7397L67.9031 29.7114L69.9027 29.67ZM66.4302 33.2505C68.3046 33.1816 69.8417 31.5811 69.9024 29.7233L67.9034 29.658C67.876 30.4985 67.1486 31.2228 66.3566 31.2519L66.4302 33.2505ZM64.6013 33.291L66.4155 33.251L66.3713 31.2515L64.5572 31.2915L64.6013 33.291ZM61.0188 29.8298C61.1069 31.7465 62.6796 33.3618 64.616 33.2906L64.5425 31.292C63.8126 31.3188 63.0596 30.6715 63.0167 29.738L61.0188 29.8298ZM60.9639 25.7464L61.0178 29.7972L63.0177 29.7706L62.9637 25.7198L60.9639 25.7464ZM61.9684 24.7331C59.298 24.7207 56.6524 24.6918 54.0033 24.6628L53.9814 26.6627C56.6296 26.6917 59.2813 26.7207 61.9591 26.7331L61.9684 24.7331ZM54.0033 24.6628C48.9978 24.6081 43.9799 24.5531 38.788 24.6104L38.8101 26.6103C43.9766 26.5533 48.9728 26.6079 53.9814 26.6627L54.0033 24.6628ZM39.8646 30.1086L39.799 25.5958L37.7992 25.6249L37.8648 30.1377L39.8646 30.1086ZM36.566 33.5406C38.3571 33.494 39.8041 31.9946 39.8642 30.1558L37.8652 30.0905C37.8378 30.9316 37.1867 31.5237 36.5139 31.5413L36.566 33.5406Z" fill="black"/>
<path d="M22.4277 37.5867C28.4975 37.0667 35.1171 36.6777 42.0882 36.5706C48.9765 36.4209 51.7907 36.6037 57.7652 36.3887C63.8125 36.1606 70.0044 35.7419 77.2454 35.7419" stroke="black" stroke-width="2" stroke-miterlimit="10"/>
<path d="M38.6768 44.1707C38.6768 44.1707 38.5492 50.7967 38.9388 56.4063C39.3285 62.016 38.8255 62.2488 38.6377 67.6787C38.4498 73.1086 38.3946 75.3905 38.3946 75.3905" stroke="black" stroke-width="2" stroke-miterlimit="10"/>
<path d="M49.6062 43.9017C49.6062 43.9017 49.2524 50.5686 49.5666 56.1918C49.8809 61.8151 49.3655 61.9792 49.1776 67.4091C48.9898 72.839 49.2486 75.1353 49.2486 75.1353" stroke="black" stroke-width="2" stroke-miterlimit="10"/>
<path d="M60.9129 43.565C60.9129 43.565 60.559 50.2319 60.8733 55.8551C61.1875 61.4784 60.6721 61.6424 60.4843 67.0723C60.2965 72.5022 60.5552 74.7985 60.5552 74.7985" stroke="black" stroke-width="2" stroke-miterlimit="10"/>
<path d="M71.3451 63.8342C71.3451 63.8342 55.5664 63.9843 49.3469 64.4679C43.1274 64.9515 43.0406 64.4702 37.0482 64.4869C31.0559 64.5035 28.6182 64.8015 28.6182 64.8015" stroke="black" stroke-width="2" stroke-miterlimit="10"/>
<path d="M71.4066 53.3861C71.4066 53.3861 55.6279 53.5361 49.4084 54.0197C43.2768 54.5585 43.1021 54.022 37.1098 54.0386C31.1175 54.0553 28.6797 54.3533 28.6797 54.3533" stroke="black" stroke-width="2" stroke-miterlimit="10"/>
</svg>
