<svg width="100" height="100" viewBox="0 0 100 100" fill="none" xmlns="http://www.w3.org/2000/svg">
<path d="M88.9122 73.6653C85.1919 76.2103 70.5604 80.5366 44.3595 79.0388C31.9036 77.7704 32.8673 76.8856 30.1594 76.4184C25.6071 75.6329 52.7233 76.0071 57.5855 74.9847C71.2613 73.6653 73.1712 72.767 74.787 69.2891C84.1874 69.2891 93.3064 69.2891 88.9122 73.6653Z" fill="black"/>
<path d="M32.7808 77.3543C26.1182 75.861 24.7857 72.9395 25.028 72.0437C23.1474 70.3237 37.744 79.5504 72.5662 72.7235C74.4379 72.5624 76.727 56.1704 76.668 58.857C76.668 66.2437 77.9626 75.3755 72.5662 76.3923C67.1697 77.4091 62.0258 78.5096 53.5463 78.5541C45.1463 78.5982 38.1337 78.5541 32.7808 77.3543Z" fill="black"/>
<path d="M24.2782 35.0195C23.8407 42.5325 23.6689 48.7725 23.8564 57.1418C23.9423 60.6608 24.0829 64.1487 24.2782 67.4653C24.3331 68.921 24.8656 70.3185 25.794 71.4436C26.7225 72.5686 27.9955 73.3591 29.418 73.6937C39.5883 76.7222 55.7186 75.1418 55.7186 75.1418C61.1084 74.6123 68.5604 73.6859 68.5604 73.6859C68.5604 73.6859 74.5829 73.7637 75.2703 68.602C75.5105 66.798 75.5828 62.7297 75.5753 58.2002M29.1993 35.838C29.1993 35.838 64.0611 35.3564 70.2476 35.3564C75.5749 35.3564 75.2703 39.7414 75.2703 39.7414C75.2703 39.7414 75.4031 44.3191 75.4936 49.889" stroke="black" stroke-width="2" stroke-miterlimit="10"/>
<path d="M72.0845 49.7874C72.0845 49.7874 68.3953 49.4405 67.2331 51.6491C66.2554 53.5069 66.294 54.4119 66.8988 55.8452C67.4431 57.1201 71.1698 57.9123 73.1655 57.9424C75.3048 57.9424 77.4744 58.3045 77.4744 57.5803C77.4744 56.8561 77.9959 50.1269 76.9679 50.0363C75.9398 49.9458 72.0845 49.7874 72.0845 49.7874Z" stroke="black" stroke-width="2" stroke-miterlimit="10"/>
<path d="M51.3134 26.0801H30.3644C28.6184 26.0801 26.944 26.7311 25.7094 27.8899C24.4748 29.0488 23.7812 30.6205 23.7812 32.2594L24.289 35.8718L70.4979 35.3564L70.49 32.2594C70.49 30.6218 69.7975 29.0512 68.5646 27.8926C67.3318 26.7339 65.6593 26.0821 63.9147 26.0801H57.0668" stroke="black" stroke-width="2" stroke-miterlimit="10"/>
<path d="M32.9214 35.1304L55.6473 24.0413C55.672 24.0292 55.7017 24.0393 55.714 24.0638L61.3576 35.3573L32.9214 35.1304Z" stroke="black" stroke-width="2" stroke-miterlimit="10"/>
<path d="M40.0312 35.1723L51.9065 30.2031L55.2649 35.3567L40.0312 35.1723Z" fill="black" stroke="black" stroke-width="2" stroke-miterlimit="10"/>
</svg>
