<svg width="100" height="100" viewBox="0 0 100 100" fill="none" xmlns="http://www.w3.org/2000/svg">
<path d="M49.1835 52.3086L55.5255 58.1416L57.6655 62.4606L53.3365 59.5416L49.1835 52.3086Z" fill="black" stroke="black" stroke-width="2" stroke-miterlimit="10" stroke-linecap="round" stroke-linejoin="round"/>
<path d="M47.1874 50.3022C47.1874 49.7392 47.5864 49.2832 48.0794 49.2832C48.5724 49.2832 48.9714 49.7392 48.9714 50.3022C48.9714 50.8652 48.5724 51.3212 48.0794 51.3212C47.5864 51.3212 47.1874 50.8652 47.1874 50.3022Z" stroke="black" stroke-width="2" stroke-miterlimit="10" stroke-linejoin="round"/>
<path d="M47.899 47.878L46.119 42.449L47.881 38.048L49.712 42.597L47.899 47.878Z" fill="black" stroke="black" stroke-width="2" stroke-miterlimit="10" stroke-linecap="round" stroke-linejoin="round"/>
<path d="M18 50.32C18 33.023 32.123 19 49.544 19C66.965 19 81.088 33.023 81.088 50.32C81.088 59.726 76.912 68.163 70.301 73.905C64.754 78.721 57.492 81.64 49.544 81.64C32.123 81.64 18 67.618 18 50.32Z" stroke="black" stroke-width="2" stroke-miterlimit="10" stroke-linejoin="round"/>
<path d="M18.1708 50.5713C18.0348 30.3333 33.7558 19.0703 51.1878 19.0703C68.6188 19.0703 82.7508 33.0923 82.7508 50.3903C82.7508 59.7963 78.5718 68.2333 71.9568 73.9743C66.4068 78.7913 59.1408 81.7103 51.1878 81.7103C33.7558 81.7103 18.3008 69.9623 18.1708 50.5713Z" stroke="black" stroke-width="2" stroke-miterlimit="10" stroke-linejoin="round"/>
<path d="M25.7822 50.3207C25.7822 37.0327 36.4662 26.2617 49.6442 26.2617C62.8232 26.2617 73.5073 37.0327 73.5073 50.3207C73.5073 55.5007 71.8843 60.2977 69.1223 64.2237C64.7993 70.3697 57.6862 74.3807 49.6442 74.3807C36.4662 74.3807 25.7822 63.6087 25.7822 50.3207Z" stroke="black" stroke-width="2" stroke-miterlimit="10" stroke-linejoin="round"/>
<path d="M48.059 70.1855L47.874 73.7896" stroke="black" stroke-width="2" stroke-miterlimit="10" stroke-linecap="round" stroke-linejoin="round"/>
<path d="M61.9277 65.8408L64.4288 68.4428" stroke="black" stroke-width="2" stroke-miterlimit="10" stroke-linecap="round" stroke-linejoin="round"/>
<path d="M35.1253 63.9651L32.5273 66.4711" stroke="black" stroke-width="2" stroke-miterlimit="10" stroke-linecap="round" stroke-linejoin="round"/>
<path d="M26.6096 66.44C26.6096 66.44 24.6576 64.004 23.6566 61.536C22.6546 59.068 22.3486 56.459 22.3486 56.459" stroke="black" stroke-width="2" stroke-miterlimit="10" stroke-linecap="round" stroke-linejoin="round"/>
<path d="M76.8654 50.8936L76.6895 52.8565" stroke="black" stroke-width="2" stroke-miterlimit="10" stroke-linecap="round" stroke-linejoin="round"/>
<path d="M29.8668 50.1447L26.2578 50.1387" stroke="black" stroke-width="2" stroke-miterlimit="10" stroke-linecap="round" stroke-linejoin="round"/>
<path d="M73.031 49.7101L69.422 49.7031" stroke="black" stroke-width="2" stroke-miterlimit="10" stroke-linecap="round" stroke-linejoin="round"/>
<path d="M73.7188 37.1709C73.7188 37.1709 75.0708 39.5439 75.8008 41.8049C76.5308 44.0659 76.6388 46.2149 76.6388 46.2149" stroke="black" stroke-width="2" stroke-miterlimit="10" stroke-linecap="round" stroke-linejoin="round"/>
<path d="M32.326 34.577L34.952 37.053" stroke="black" stroke-width="2" stroke-miterlimit="10" stroke-linecap="round" stroke-linejoin="round"/>
<path d="M65.175 32.699L64.126 33.816L62.541 35.504" stroke="black" stroke-width="2" stroke-miterlimit="10" stroke-linecap="round" stroke-linejoin="round"/>
<path d="M48.6186 26.6963L48.4336 30.3003" stroke="black" stroke-width="2" stroke-miterlimit="10" stroke-linecap="round" stroke-linejoin="round"/>
</svg>
