<svg width="100" height="100" viewBox="0 0 100 100" fill="none" xmlns="http://www.w3.org/2000/svg">
<path d="M31.9187 51.7403C31.9187 51.7403 30.2757 42.8883 26.8147 41.9043C25.1477 41.4303 17.5527 55.5073 18.0207 56.7203C19.3017 60.0433 29.4227 56.0923 29.4227 56.0923L31.9187 51.7403Z" stroke="black" stroke-width="2" stroke-miterlimit="10" stroke-linecap="round" stroke-linejoin="round"/>
<path d="M78.5346 54.3234C79.6646 57.3734 82.2626 66.2523 79.8726 69.6763C76.7806 74.1043 63.7066 78.0133 55.2696 76.1243C53.6516 75.7613 52.1766 69.3024 52.1766 69.3024L29.4946 56.0214L31.7906 51.8533L49.3346 58.9393L46.9366 45.5693" stroke="black" stroke-width="2" stroke-miterlimit="10" stroke-linecap="round" stroke-linejoin="round"/>
<path d="M49.2466 58.6797C49.5006 59.3847 49.5246 60.6657 49.8226 61.9277" stroke="black" stroke-width="2" stroke-miterlimit="10" stroke-linecap="round" stroke-linejoin="round"/>
<path d="M18.6549 56.6985C18.6549 56.6985 21.9969 55.5105 24.8199 50.0135C27.4769 44.8405 26.565 42.4375 26.565 42.4375C26.565 42.4375 24.597 43.1055 21.477 49.1965C18.161 55.6715 18.6549 56.6985 18.6549 56.6985Z" fill="black" stroke="black" stroke-width="2" stroke-miterlimit="10" stroke-linecap="round" stroke-linejoin="round"/>
<path d="M72.0449 38.8887L74.7969 45.8557" stroke="black" stroke-width="2" stroke-miterlimit="10" stroke-linecap="round" stroke-linejoin="round"/>
<path d="M47.7747 44.2961C47.7747 44.2961 56.5567 41.1192 59.8737 40.1872C63.1907 39.2562 74.5038 37.3302 71.5388 39.5602C68.5748 41.7902 62.1077 43.3072 59.0897 44.1152C56.0717 44.9222 43.6807 47.2101 47.7747 44.2961Z" fill="black" stroke="black" stroke-width="2" stroke-miterlimit="10" stroke-linecap="round" stroke-linejoin="round"/>
<path d="M49.2245 45.6841C49.2245 45.6841 47.4575 37.9962 50.4045 32.8682C53.3525 27.7402 62.6724 25.6442 68.7644 28.2882C75.8654 31.3702 77.3535 36.6051 77.3875 38.9421C77.4615 44.0581 75.2955 46.6152 75.2955 46.6152C75.2955 46.6152 65.4495 47.7051 69.3355 56.3091C70.3445 58.5431 75.1574 58.2372 78.2644 54.1362C81.6244 49.7012 81.0455 44.3992 81.4435 39.6652C81.7105 36.4872 79.4004 28.5332 72.4494 25.7162C65.9534 23.0842 49.8385 22.4502 46.5305 31.4462C44.5065 36.9492 46.9565 45.5112 46.9565 45.5112L49.2245 45.6841Z" stroke="black" stroke-width="2" stroke-miterlimit="10" stroke-linecap="round" stroke-linejoin="round"/>
<path d="M72.7007 52.5821C72.7007 52.5671 72.7007 52.5511 72.7007 52.5361" stroke="black" stroke-width="2" stroke-miterlimit="10" stroke-linecap="round" stroke-linejoin="round"/>
</svg>
