<svg width="100" height="100" viewBox="0 0 100 100" fill="none" xmlns="http://www.w3.org/2000/svg">
<path d="M52.5834 36.446C57.1711 34.141 56.8495 33.4924 62.0263 37.3451C62.2629 37.5212 62.2977 37.8646 62.0994 38.0829L60.7448 39.5743C60.5372 39.8029 60.1728 39.7888 59.9821 39.5459C57.0312 35.7858 56.5101 34.914 53.1807 38.3473C52.0654 39.4975 50.3161 37.5851 52.5834 36.446Z" fill="black" stroke="black" stroke-width="2" stroke-linecap="round"/>
<path d="M23.5837 51.5454C22.079 51.9103 18.1314 54.0686 16.0011 56.5286C15.8401 56.7145 15.8529 56.9893 16.0134 57.1757C17.4929 58.8934 18.6014 61.1126 18.7531 62.9543C18.773 63.1969 18.946 63.4052 19.1861 63.4453C23.3016 64.1322 27.0449 64.4158 33.8957 64.7971C36.3773 64.9352 42.1647 64.0387 44.7792 64.0867C48.2745 64.1509 51.1832 65.5397 54.6878 65.3911C56.6761 65.3068 58.5889 64.2545 60.5144 64.0867C63.0997 63.8615 65.6628 64.4852 68.034 64.0867C77.7769 62.4495 85.2261 59.2393 86.378 53.5481C86.3998 53.4404 86.3837 53.3293 86.332 53.2323C82.4876 46.0174 70.0969 39.7036 64.0144 37.2939C63.8079 37.2121 63.5787 37.2793 63.4428 37.455C61.6985 39.7121 58.5925 43.4962 55.9362 45.2649C55.7929 45.3603 55.7056 45.5194 55.6992 45.6914C55.5939 48.5154 53.8883 51.9225 50.6351 53.3809C47.3462 54.8553 42.2235 48.9846 40.0653 47.8316C39.9759 47.7839 39.878 47.772 39.7782 47.7891L39.7473 47.7944C37.6615 48.1507 31.0417 49.2815 27.2535 47.4808C27.1222 47.4184 26.9705 47.4084 26.8402 47.4728C25.5836 48.0944 24.8677 49.5724 23.9641 51.2666C23.8868 51.4115 23.7433 51.5067 23.5837 51.5454Z" stroke="black" stroke-width="2" stroke-linecap="round"/>
<path d="M86.2651 53.6704C71.3468 57.5809 29.4888 59.4637 15.874 56.567" stroke="black" stroke-width="2" stroke-linecap="round"/>
<path d="M16.5549 57.1089L19.3687 63.5402" stroke="black" stroke-width="2" stroke-linecap="round"/>
<path d="M19.2314 63.4169L16.2615 57.1234C32.3131 58.6083 61.5171 58.9621 86.4077 54.0122C83.6118 59.4521 77.1326 62.6586 67.9357 64.2434C65.7426 64.6213 63.5274 64.0416 61.0383 64.2434C59.3264 64.3822 57.4151 65.3467 55.5736 65.4088C52.2059 65.5224 48.5452 63.9607 44.7844 63.8434C42.0123 63.7568 39.2239 65.1636 36.2627 64.9672C30.8615 64.6089 25.1633 64.0788 19.2314 63.4169Z" fill="black"/>
<path d="M13.5908 65.4123C16.5272 65.1938 22.2617 63.9291 25.509 64.2613C28.0135 64.519 31.0753 65.4645 33.4244 65.4123C37.7425 65.3159 40.1216 64.0814 44.5088 64.2688C47.946 64.4152 50.4034 65.3591 53.9875 65.4123C58.4467 65.4782 62.1343 64.2471 66.6522 64.2613C69.0146 64.2688 71.6569 65.3006 76.4533 65.2491C81.2496 65.1976 81.7571 64.2688 86.4102 64.2613" stroke="black" stroke-width="2" stroke-miterlimit="10" stroke-linecap="round" stroke-linejoin="round"/>
<path d="M23.8394 51.353C28.2424 53.207 33.3986 53.1877 35.4264 52.9462" stroke="black" stroke-width="2" stroke-linecap="round"/>
<path d="M40.2626 46.8548C39.8938 44.8305 25.6939 41.7608 24.2556 43.2309C24.0537 44.6825 24.3114 45.6081 25.3778 46.1893C29.0186 48.1739 35.2416 48.0496 40.2626 46.8548Z" fill="black" stroke="black" stroke-width="2" stroke-linecap="round" stroke-linejoin="round"/>
<path d="M67.4414 39.6367C65.1448 48.987 60.6008 52.9587 81.5977 48.3657C75.9905 43.4341 71.2593 41.6148 67.4414 39.6367Z" fill="black" stroke="black" stroke-width="2" stroke-linecap="round"/>
</svg>
