<svg width="100" height="100" viewBox="0 0 100 100" fill="none" xmlns="http://www.w3.org/2000/svg">
<path d="M61.1145 48.6729C70.3539 47.4202 79.954 52.163 79.6982 56.1281C79.3785 61.0844 73.4089 63.7186 68.4526 65.1575C63.4963 66.5964 35.8908 68.1191 25.6584 61.564C15.426 55.0089 25.1788 48.134 32.3735 46.0556C39.5681 43.9771 53.5997 44.8163 59.5344 42.0617C62.9485 40.4771 58.5434 36.7045 55.8989 33.9046L60.721 30.3893C62.7995 33.2672 72.056 40.9394 66.4281 46.0556C60.8003 51.1717 43.5816 50.0825 37.8041 51.7026C32.0265 53.3227 26.7398 56.5788 40.0001 58.5108C56.5755 60.9258 70.1384 58.0995 70.6095 57.0583C72.0321 53.9134 61.6656 54.2413 57.0797 54.6507C49.2432 55.3504 38.716 57.4747 37.8041 58.1483" stroke="black" stroke-width="2"/>
<path d="M20.9737 56.4199C18.3152 57.2945 13.7957 60.2818 16.9859 65.2348C20.9737 71.4262 39.2329 74.8891 47.8379 74.8891C56.4429 74.8891 73.443 74.2595 79.8442 69.7471C86.2455 65.2348 84.7763 58.0989 79.8442 56.4199" stroke="black" stroke-width="2"/>
<path d="M19.4863 67.9766C18.5769 70.67 18.5031 77.2906 30.7667 80.447C44.3834 83.9517 63.9986 83.3893 74.3875 79.4016C84.7765 75.414 82.2578 70.3769 81.6281 69.1176" stroke="black" stroke-width="2"/>
<path d="M81.6624 69.7295C79.1917 71.034 76.2455 73.9644 59.0986 74.5164" stroke="black" stroke-width="2"/>
<path d="M19.9443 69.2324C22.1443 70.3032 26.458 72.0036 31.6443 73.0782C38.1271 74.4215 44.5145 75.1602 52.0852 74.829" stroke="black" stroke-width="2"/>
<path d="M52.9814 54.3999L39.9834 57.5411L46.4824 59.1658L56.4476 59.4908L69.229 57.5411L70.8537 56.6204L69.6622 55.0498L64.6255 54.3999H52.9814Z" fill="black"/>
<path d="M20.4789 56.9653C20.3754 58.2597 22.1282 61.2259 26.0073 62.9326C32.5893 65.8285 45.3988 66.8612 52.8279 66.708C60.9152 66.5412 70.8491 65.5488 75.507 63.1533C80.4937 60.5886 80.8132 59.7572 80.6299 57.5579" stroke="black" stroke-width="2"/>
<path d="M64.6406 48.0298C64.4277 47.9872 63.205 49.8931 54.688 50.6502C51.2146 50.959 39.4744 51.5799 34.6181 53.1826C31.9446 54.065 32.3357 55.9895 34.3891 57.2728" stroke="black" stroke-width="2"/>
<path d="M53.6585 35.0672C52.8818 35.0904 52.0851 32.482 51.6937 31.0653C51.1291 29.2707 57.2894 25.6082 58.0471 25.4072C58.8048 25.2062 62.1144 27.2688 62.2625 28.0921C62.4105 28.9154 54.4352 35.044 53.6585 35.0672Z" stroke="black" stroke-width="2"/>
<path d="M57.0596 34.5419L60.9901 31.4536" stroke="black" stroke-width="2"/>
<path d="M52.3769 29.1457C50.4198 25.8771 46.8537 19.6698 47.0803 19.3952C47.3635 19.052 48.6971 17.8089 49.0623 17.9257C49.4276 18.0424 54.5058 23.1416 56.9458 25.7317" stroke="black" stroke-width="2"/>
<path d="M42.2087 34.0004C40.8896 33.7366 42.1302 30.5301 42.9154 28.9598C42.9154 28.3946 44.1402 30.4201 44.3287 31.5979C44.5171 32.7756 43.8575 34.3301 42.2087 34.0004Z" fill="black" stroke="black" stroke-width="2"/>
<path d="M36.8045 22.7844C38.5104 20.5817 42.2573 19.7342 42.3652 20.1661C42.4221 20.3942 41.9029 20.0615 40.2326 23.0814C39.547 24.4102 39.5567 26.0239 38.856 26.4825C37.3714 27.4542 34.6721 25.5377 36.8045 22.7844Z" fill="black" stroke="black" stroke-width="2"/>
<path d="M48.9118 18.0708L47.1504 19.6487L52.6547 29.1896L56.838 25.9971L48.9118 18.0708Z" fill="black"/>
</svg>
