<svg width="100" height="100" viewBox="0 0 100 100" fill="none" xmlns="http://www.w3.org/2000/svg">
<path d="M47.3547 73.3756C23.6981 73.7354 14.0354 57.8273 11.1961 37.8494C11.1113 37.2525 11.5773 36.7207 12.1802 36.7207H85.3633C85.9352 36.7207 86.392 37.1956 86.3488 37.7658C85.3019 51.5733 76.7282 72.9289 47.3547 73.3756Z" stroke="black" stroke-width="2" stroke-miterlimit="10" stroke-linecap="round"/>
<path fill-rule="evenodd" clip-rule="evenodd" d="M56.5 75C68.3741 75 78 72.9853 78 70.5C78 69.1089 74.984 67.8652 70.246 67.0397C64.5902 70.7661 57.1225 73.2268 47.3547 73.3754C43.4441 73.4348 39.916 73.0498 36.7379 72.2753C40.0284 73.8778 47.638 75 56.5 75Z" fill="black"/>
<path d="M16.6033 36.7207C17.8717 47.0448 26.1027 67.6506 48.8788 67.4806C71.655 67.3106 79.6861 47.2964 80.8546 37.3105" stroke="black" stroke-width="2" stroke-miterlimit="10" stroke-linecap="round"/>
<path d="M40.517 55.8877C39.1956 57.3415 38.3049 61.0574 41.3301 61.0574C44.3554 61.0573 42.9619 57.2094 40.517 55.8877Z" stroke="black" stroke-width="2" stroke-miterlimit="10" stroke-linecap="round"/>
<path d="M60.8756 53.4022C59.5445 54.5658 58.2278 57.885 60.7652 58.3048C63.3026 58.7245 62.7236 54.966 60.8756 53.4022Z" stroke="black" stroke-width="2" stroke-miterlimit="10" stroke-linecap="round"/>
<path d="M48.7829 48.8407C47.4517 50.0043 46.135 53.3235 48.6724 53.7432C51.2099 54.163 50.6309 50.4045 48.7829 48.8407Z" fill="black" stroke="black" stroke-width="2" stroke-miterlimit="10" stroke-linecap="round"/>
<path d="M30.1997 48.584C28.8782 50.0378 27.9875 53.7537 31.0127 53.7537C34.038 53.7536 32.6445 49.9057 30.1997 48.584Z" fill="black" stroke="black" stroke-width="2" stroke-miterlimit="10" stroke-linecap="round"/>
<path d="M70.5976 42.9364C69.2664 44.1 67.9497 47.4192 70.4871 47.8389C73.0246 48.2587 72.4456 44.5002 70.5976 42.9364Z" stroke="black" stroke-width="2" stroke-miterlimit="10" stroke-linecap="round"/>
<path d="M58.9018 41.2196C57.5706 42.3832 56.2539 45.7024 58.7913 46.1221C61.3288 46.5419 60.7498 42.7834 58.9018 41.2196Z" stroke="black" stroke-width="2" stroke-miterlimit="10" stroke-linecap="round"/>
<path d="M35.9954 41.0498C35.0454 42.2795 34.405 45.4224 36.58 45.4224C38.755 45.4223 37.7531 42.1677 35.9954 41.0498Z" stroke="black" stroke-width="2" stroke-miterlimit="10" stroke-linecap="round"/>
</svg>
