<svg width="100" height="100" viewBox="0 0 100 100" fill="none" xmlns="http://www.w3.org/2000/svg">
<path d="M45.3376 28.138C35.7783 27.5614 22.2614 27.95 20.0819 29.6709C16.8177 32.2483 16.5906 52.871 20.0819 55.6274C23.5732 58.3837 54.7839 60.534 54.7839 55.6274C54.7839 52.7747 55.7114 45.1977 55.9487 38.9282" stroke="black" stroke-width="2"/>
<path d="M62.6816 47.7227C62.6816 47.7227 63.9839 69.4275 64.6814 69.4275C65.3789 69.4275 68.5913 64.3893 68.7903 64.5883C68.9892 64.7872 78.3202 79.5345 78.3202 79.5345L83.101 76.4137C83.101 76.4137 73.8915 62.2758 74.1023 62.0651C74.313 61.8543 79.7772 60.7725 80.2775 60.2723C80.7777 59.772 62.6816 47.7227 62.6816 47.7227Z" fill="black" stroke="black" stroke-width="2"/>
<path d="M22.5977 35.5303C23.6128 34.8439 32.5367 34.9534 33.3901 35.5303C34.2434 36.1072 33.3901 41.1359 33.3901 42.4425C33.3901 43.7492 23.6835 43.1765 22.5977 42.4425C21.5119 41.7085 21.5825 36.2167 22.5977 35.5303Z" stroke="black" stroke-width="2"/>
<path d="M47.1346 21.6504C49.6326 20.0898 71.5916 20.3387 73.6914 21.6504C75.7912 22.9621 73.6914 34.3954 73.6914 37.3662C73.6914 40.3371 49.8064 39.0351 47.1346 37.3662C44.4627 35.6973 44.6365 23.2109 47.1346 21.6504Z" stroke="black" stroke-width="2"/>
</svg>
