<svg width="100" height="100" viewBox="0 0 100 100" fill="none" xmlns="http://www.w3.org/2000/svg">
<path d="M79.7601 38.8408C79.7601 32.413 73.6055 19.2031 59.8545 17.8203C42.6657 16.0919 35.4076 26.3036 32.6228 34.3699C29.838 42.4362 33.0793 56.7023 44.5861 61.3207C54.3138 65.225 66.2708 63.3749 71.2048 58.1241" stroke="black" stroke-width="2" stroke-linecap="round"/>
<path d="M66.7777 37.7856C72.0285 34.3455 78.4473 35.1742 80.077 40.0176C82.0217 46.9415 79.8961 52.6467 74.6966 56.2704C68.5421 60.5596 64.3883 56.6771 62.3656 54.1098C60.3428 51.5425 59.8436 42.3287 66.7777 37.7856Z" stroke="black" stroke-width="2" stroke-linecap="round"/>
<path d="M68.7752 40.9595C72.114 38.772 76.263 39.4216 77.2718 42.4199C78.3618 45.6596 77.06 50.2052 73.7537 52.5094C69.8403 55.2368 66.6762 53.4118 65.39 51.7794C64.1038 50.1469 64.366 43.8483 68.7752 40.9595Z" stroke="black" stroke-width="2" stroke-linecap="round"/>
<path d="M70.0688 41.4005C72.2444 40.672 73.8437 42.3105 73.4345 44.5185C72.7362 47.6245 71.4571 49.1351 69.263 49.9459C66.6659 50.9057 65.9003 48.8667 65.7763 47.5444C65.6524 46.2222 67.1959 42.3627 70.0688 41.4005Z" fill="black" stroke="black" stroke-width="2" stroke-linecap="round"/>
<path d="M37.3828 25.7762C39.7863 22.828 48.6787 21.6005 52.5231 25.7762C56.911 30.5423 61.5157 33.6832 65.3357 32.879C69.1557 32.0748 71.6968 29.7704 70.1935 25.3904C69.0038 21.9243 65.4349 18.504 58.5944 17.7109" stroke="black" stroke-width="2" stroke-linecap="round"/>
<path fill-rule="evenodd" clip-rule="evenodd" d="M39.1133 24.0299L44.7891 19.7606L53.0768 17.7012L61.9171 18.2033L67.4924 20.8152L69.8532 24.3815L70.5564 28.0481L69.8532 31.2628L65.7344 32.6692H61.6157L56.6933 29.7057L52.3736 25.8381L49.0083 23.7787L43.9352 23.4271L39.1133 24.0299ZM65.271 25.3236C64.9048 24.8061 64.384 24.6054 63.9667 24.5627C63.5486 24.5199 63.1291 24.6174 62.7873 24.8191C62.4487 25.019 62.0837 25.4463 61.9725 25.9933C61.8536 26.5788 62.0636 27.1045 62.4402 27.6105L62.4912 27.679L62.5514 27.7384C62.9663 28.147 63.4556 28.36 63.946 28.3487C64.4145 28.3379 64.8012 28.1252 65.0737 27.8503C65.5558 27.364 65.962 26.3001 65.271 25.3236Z" fill="black"/>
<path d="M33.5225 48.1137C34.5136 48.0048 35.8319 49.9614 36.1907 50.9863C36.5495 52.0111 37.0106 53.893 36.6609 55.0953" stroke="black" stroke-width="2" stroke-linecap="round"/>
<path d="M34.485 52.2803C33.0283 53.1125 30.1715 56.3906 30.1716 60.1721C30.1717 64.8989 33.3122 71.6638 28.7638 74.2501C25.1251 76.3192 21.6842 74.4671 18.9922 75.161" stroke="black" stroke-width="2" stroke-linecap="round"/>
<path d="M49.2534 63.0322C49.2534 64.5489 48.8942 65.0537 49.2534 69.7916C49.4343 72.1786 52.2948 72.7754 55.031 72.6993C57.7259 72.6244 60.2974 71.911 60.4431 69.7916C60.5677 67.979 60.4431 64.8136 60.4431 63.4054" stroke="black" stroke-width="2" stroke-linecap="round"/>
<path d="M35.7805 73.255C35.7805 73.255 35.7163 76.1676 35.7804 76.8088C35.8446 77.4501 41.1937 81.295 53.819 81.7176C66.4443 82.1402 74.0072 77.7645 74.0561 76.7374C74.1051 75.7103 74.0561 72.7056 74.0561 72.7056" stroke="black" stroke-width="2" stroke-linecap="round"/>
<path d="M32.2873 53.1621C31.9956 52.4219 33.007 51.6106 33.465 51.3677L35.3995 53.8347C35.0163 54.1431 34.2219 54.648 33.9079 54.648C33.5154 54.648 32.6519 54.0873 32.2873 53.1621Z" stroke="black" stroke-width="2"/>
<path d="M49.015 66.5947C41.3191 67.4188 35.752 69.8152 35.752 72.6432C35.752 76.1526 44.3253 78.9975 54.901 78.9975C65.4767 78.9975 74.05 76.1526 74.05 72.6432C74.05 69.8152 68.4829 67.4188 60.787 66.5947" stroke="black" stroke-width="2"/>
<path d="M35.8945 77.4968L36.1851 73.9512L40.5445 76.6831L48.5658 78.6593L56.0639 79.0662L65.1315 78.2525L71.9903 75.7531L74.0828 74.8231V77.4968L68.6771 80.0544L61.644 81.4494L54.727 82.0306L46.9382 81.1006L39.9632 79.5893L35.8945 77.4968Z" fill="black"/>
<path d="M49.2734 63.7617C50.2117 64.0744 52.8664 64.635 55.0057 64.6351C57.1449 64.6352 59.4959 64.402 60.2465 64.0892" stroke="black" stroke-width="2"/>
</svg>
