<svg width="100" height="100" viewBox="0 0 100 100" fill="none" xmlns="http://www.w3.org/2000/svg">
<path d="M22.0986 27.0342C22.0986 23.1682 25.2326 20.0342 29.0986 20.0342H29.2743H34.4549H69.76C73.626 20.0342 76.76 23.167 76.76 27.033C76.76 30.6757 76.76 35.2337 76.76 39.4278C76.76 48.3088 76.76 70.8286 76.76 70.8286C76.76 70.8286 76.76 70.8286 76.76 70.8286V70.8286C76.76 74.3832 73.8784 77.2649 70.3237 77.2649H29.0986C25.2326 77.2649 22.0986 74.1308 22.0986 70.2649V27.0342Z" stroke="black" stroke-width="2"/>
<path d="M29.4767 44.7313C28.9511 44.2057 29.2577 33.3943 29.4767 28.0543C29.52 26.9137 39.8705 27.0759 49.9943 27.0438C59.55 27.0134 68.9036 27.2371 69.1981 27.5316C69.8046 28.138 69.8551 44.0743 69.1981 44.7313C68.5412 45.3882 30.1337 45.3883 29.4767 44.7313Z" stroke="black" stroke-width="2" stroke-linecap="round"/>
<path d="M30.7051 55.5117H68.1544" stroke="black" stroke-width="2" stroke-linecap="round"/>
<path d="M30.7051 64.9814H40.9622C40.9622 64.9814 50.2532 64.9814 54.3113 64.9814C58.3695 64.9814 68.1544 64.9814 68.1544 64.9814" stroke="black" stroke-width="2" stroke-linecap="round"/>
<path d="M30.0938 44.7179C33.7578 41.3002 41.6956 34.6864 44.1341 35.5732C46.5726 36.4599 52.355 42.0391 54.9414 44.7179" stroke="black" stroke-width="2" stroke-linecap="round"/>
<path d="M61.0396 34.7738C59.4894 33.2235 60.4125 31.2085 62.4083 30.8389C64.6996 30.8389 65.9917 32.5132 65.6687 33.8051C65.3458 35.0969 62.9774 36.7117 61.0396 34.7738Z" stroke="black" stroke-width="2" stroke-linecap="round"/>
<path d="M40.2207 58.7886C39.6648 57.5985 40.2207 53.6732 40.2207 52.2539C40.2207 50.8347 44.3566 51.2591 44.7174 52.2539C45.0782 53.2487 45.266 57.5985 44.7174 58.7886C44.1688 59.9787 40.7766 59.9787 40.2207 58.7886Z" fill="black" stroke="black" stroke-width="2" stroke-linecap="round"/>
<path d="M54.6494 68.2593C54.0935 67.0692 54.6494 63.1439 54.6494 61.7246C54.6494 60.3054 58.7853 60.7298 59.1461 61.7246C59.5069 62.7194 59.6947 67.0692 59.1461 68.2593C58.5975 69.4494 55.2053 69.4494 54.6494 68.2593Z" fill="black" stroke="black" stroke-width="2" stroke-linecap="round"/>
<path d="M45.4751 36.125L54.9029 44.6428L32.4708 45.0979L30.9102 44.1877L39.753 36.9053L43.1342 35.6699L45.4751 36.125Z" fill="black"/>
<path fill-rule="evenodd" clip-rule="evenodd" d="M51.1209 40.6978L51.1482 40.6771L55.1091 45.0107L56.1042 44.9657C54.2822 42.9392 51.9606 40.4189 50.2234 38.7358C50.0879 38.8342 49.9613 38.9282 49.8453 39.0161C49.381 39.3684 49.2901 40.0304 49.6423 40.4948C49.9946 40.9591 50.6566 41.05 51.1209 40.6978ZM58.8249 44.8429L62.5014 44.6768C62.8291 45.0318 63.1309 45.3619 63.3959 45.6544C63.7873 46.0863 64.4547 46.1191 64.8866 45.7277C65.3185 45.3363 65.3513 44.6689 64.9599 44.237C63.868 43.0321 62.1583 41.1943 60.5747 39.5936C59.7839 38.7943 59.0151 38.0447 58.3659 37.46C58.0418 37.1682 57.7374 36.9084 57.4685 36.7009C57.2203 36.5095 56.9321 36.3069 56.6551 36.1903C56.0082 35.9179 55.2824 36.0614 54.7652 36.2168C54.1899 36.3896 53.5715 36.6741 52.9837 36.9876C52.6606 37.16 52.3357 37.3471 52.0188 37.5397C54.1757 39.6672 57.0129 42.802 58.8249 44.8429Z" fill="black"/>
<path d="M27.8672 77.4393C28.0444 77.9488 28.7709 78.9544 30.2595 78.9012C32.1203 78.8347 65.9106 79.3684 71.5207 78.9012C73.7051 78.7193 76.3785 76.8411 77.176 74.2494C77.9734 71.6577 77.9734 71.5913 77.9734 69.199C77.9734 66.8066 78.1063 27.1335 77.9734 25.6051C77.8671 24.3824 76.4418 23.685 75.8438 23.5078" stroke="black" stroke-width="2"/>
</svg>
