<svg width="100" height="100" viewBox="0 0 100 100" fill="none" xmlns="http://www.w3.org/2000/svg">
<path d="M17.2161 55.2596C17.1705 56.6941 17.1705 73.7537 17.1248 75.1882C17.0335 75.6663 17.1705 76.1445 17.4444 76.5749C17.7639 76.8618 18.1748 77.0052 18.5856 77.0052C39.8728 77.0052 59.5663 77.0052 79.6181 76.7292C80.3028 76.6814 80.9875 76.4423 81.581 76.0598C82.6765 75.1991 82.8135 57.22 82.8135 55.8334C82.9961 45.0268 82.9504 34.2203 82.6309 23.4137C82.6765 23.079 82.5852 22.7443 82.357 22.4574C82.0831 22.2183 81.7179 22.1227 81.3984 22.2183L22.1919 22.8399C21.1876 22.8399 20.1377 22.8877 19.3616 23.5093C18.4943 24.2744 17.9922 25.422 18.0378 26.6174C18.0835 37.9021 17.9009 37.2805 17.2161 55.2596Z" stroke="black" stroke-width="2" stroke-miterlimit="10"/>
<path d="M37.7002 60.0244H63.6998" stroke="black" stroke-width="2" stroke-miterlimit="10" stroke-linecap="round"/>
<path d="M37.7002 54.6533H63.6998" stroke="black" stroke-width="2" stroke-miterlimit="10" stroke-linecap="round"/>
<path d="M37.7002 49.2822H63.6998" stroke="black" stroke-width="2" stroke-miterlimit="10" stroke-linecap="round"/>
<path fill-rule="evenodd" clip-rule="evenodd" d="M82.2502 36.4482C82.2502 36.4482 38.4474 34.2688 17.0791 36.5985C17.0791 36.5985 17.3109 26.3779 18.4697 24.7246C19.7002 22.8468 23.0221 22.8019 25.7431 22.765C26.5068 22.7547 27.2233 22.745 27.8328 22.6955C43.6389 21.1925 59.5377 21.5683 75.3901 21.944C75.9888 21.9638 76.6552 21.8583 77.3306 21.7513C79.2174 21.4526 81.1748 21.1426 81.9257 23.5222C82.9455 26.7537 83.1309 31.9391 82.2502 36.4482ZM23.3535 26.1768C23.9058 26.1768 24.3535 26.6245 24.3535 27.1768V31.6815C24.3535 32.2337 23.9058 32.6815 23.3535 32.6815C22.8012 32.6815 22.3535 32.2337 22.3535 31.6815V27.1768C22.3535 26.6245 22.8012 26.1768 23.3535 26.1768ZM27.8076 27.1768C27.8076 26.6245 27.3599 26.1768 26.8076 26.1768C26.2553 26.1768 25.8076 26.6245 25.8076 27.1768V31.6815C25.8076 32.2337 26.2553 32.6815 26.8076 32.6815C27.3599 32.6815 27.8076 32.2337 27.8076 31.6815V27.1768ZM31.1626 27.1858C31.1626 26.6335 30.7149 26.1858 30.1626 26.1858C29.6103 26.1858 29.1626 26.6335 29.1626 27.1858V31.6739C29.1626 32.2262 29.6103 32.6739 30.1626 32.6739C30.7149 32.6739 31.1626 32.2262 31.1626 31.6739V27.1858Z" fill="black"/>
</svg>
