<svg width="100" height="100" viewBox="0 0 100 100" fill="none" xmlns="http://www.w3.org/2000/svg">
<path d="M66.1995 67.6503C49.965 68.3158 20.0627 64.3903 15.8763 64.3903C10.0873 64.3903 13.1588 35.3311 13.159 24.6836C13.1591 19.4405 28.8702 20.9845 44.4929 21.3332C60.5962 21.6926 76.6256 20.9936 76.6256 24.6836C76.6256 30.8508 76.6256 49.7276 76.6256 59.8945" stroke="black" stroke-width="2"/>
<path d="M65.0304 52.9929C65.1713 55.1246 66.5405 75.5364 67.2921 75.5364C68.085 75.5364 71.7372 70.2619 71.9634 70.4701C72.1896 70.6784 82.7979 86.1174 82.7979 86.1174L88.2331 82.8502C88.2331 82.8502 77.763 68.0492 78.0026 67.8286C78.2422 67.608 84.4544 66.4754 85.0231 65.9517C85.5631 65.4544 67.0401 54.0552 65.1702 52.9066C65.1011 52.8641 65.025 52.912 65.0304 52.9929Z" stroke="black" stroke-width="2"/>
<path d="M19.713 30.4933C22.8216 29.489 50.1477 29.6491 52.7607 30.4933C55.3737 31.3374 52.7607 38.6955 52.7607 40.6074C52.7607 42.5194 23.0379 41.6815 19.713 40.6074C16.3882 39.5334 16.6044 31.4976 19.713 30.4933Z" fill="black"/>
<path d="M58.8734 30.4923C60.0363 29.488 70.2583 29.6482 71.2358 30.4923C72.2133 31.3365 71.2358 38.6946 71.2358 40.6065C71.2358 42.5184 60.1172 41.6805 58.8734 40.6065C57.6297 39.5324 57.7106 31.4966 58.8734 30.4923Z" stroke="black" stroke-width="2"/>
</svg>
