<svg width="100" height="100" viewBox="0 0 100 100" fill="none" xmlns="http://www.w3.org/2000/svg">
<g clip-path="url(#clip0_65_20745)">
<path d="M45.9442 51.7209C46.2904 52.8291 46.8444 53.868 47.5368 54.8376C48.9217 56.9154 50.7221 58.7855 53.2841 59.3395C53.9766 59.4781 54.7383 59.4781 55.4999 59.3395C58.5467 58.7162 59.3084 56.1536 59.3776 53.7295C59.4469 52.4828 59.2392 51.1669 58.6852 49.9894C57.4388 47.4961 54.5305 46.5264 51.9685 45.4875C49.6834 44.5872 47.2598 43.1327 46.4289 40.9164C46.3597 40.7779 46.0827 40.7779 46.0827 40.9164C45.7365 43.1327 45.044 49.0198 45.9442 51.7209Z" stroke="black" stroke-width="2" stroke-miterlimit="10"/>
<path d="M59.2393 55.2529C60.7626 56.084 62.1475 57.1229 63.3247 58.3004" stroke="black" stroke-width="2" stroke-miterlimit="10"/>
<path d="M56.9541 59.1316C57.0926 59.8242 57.7158 61.2787 58.1313 61.7635C58.5467 62.3176 60.2086 63.058 60.8318 62.781C61.178 62.6425 60.5548 61.902 60.8318 61.5557C61.3858 60.7938 62.6322 58.8546 63.0476 58.0234" stroke="black" stroke-width="2" stroke-miterlimit="10"/>
<path d="M18.0386 29.8922C38.529 29.8922 78.5584 30.5783 78.5584 30.5783C78.6018 27.7515 78.5908 24.5271 78.5766 22.5118C78.5689 21.417 77.6781 20.5371 76.5833 20.5371H20.9069C19.3024 20.5371 17.9825 21.7984 17.9391 23.4023C17.8725 25.8603 17.8307 29.2335 18.0386 30.7197C18.0386 41.8649 18.0386 44.5646 18.0386 55.7489C17.8025 57.5335 17.8885 65.5377 17.967 70.4461C18.0018 72.618 19.7585 74.3532 21.9306 74.3639C31.1243 74.4092 54.1242 74.582 63.6016 75.1974C68.518 75.4802 74.2653 75.5509 77.312 71.5911C79.3201 68.9747 78.6277 47.0816 78.6277 47.0816C78.6277 47.0816 78.5584 35.8621 78.6277 30.5783" stroke="black" stroke-width="2" stroke-miterlimit="10"/>
<path d="M23.7861 62.7338C30.6413 63.0109 37.5658 62.8724 44.3518 62.249" stroke="black" stroke-width="2" stroke-miterlimit="10" stroke-linecap="round"/>
<path d="M63.5193 57.6084C73.1283 64.884 80.9961 74.0911 88.7349 83.2338C90.1537 84.9078 91.637 87.2901 90.5406 89.1573C88.7349 87.8696 86.8647 86.6463 85.059 85.3585C79.1259 81.2379 73.1283 77.1816 67.9046 72.0951C65.0671 69.3266 62.7454 65.399 60.4883 62.1798L63.5193 57.6084Z" fill="black"/>
<path d="M62.824 58.0586C72.433 65.3342 80.3008 74.5413 88.0396 83.684C89.4584 85.358 90.9417 87.7403 89.8453 89.6075C88.0396 88.3198 86.1694 87.0964 84.3637 85.8087C78.4306 81.6881 72.433 77.6318 67.2093 72.5453C64.3718 69.7768 62.0501 65.8492 59.793 62.63L62.824 58.0586Z" stroke="black" stroke-width="2" stroke-miterlimit="10"/>
<path d="M23.7861 57.6084C29.8104 57.6084 35.9039 57.6084 41.9282 57.6084" stroke="black" stroke-width="2" stroke-miterlimit="10" stroke-linecap="round"/>
<path d="M24.0625 52.8293C28.3557 52.483 32.6488 52.4137 36.942 52.5522" stroke="black" stroke-width="2" stroke-miterlimit="10" stroke-linecap="round"/>
<path d="M25.5598 41.6851C24.896 41.6851 24.3797 42.1499 24.2322 42.8471C23.9372 44.2415 23.9372 45.7133 24.9698 46.4105C25.486 46.7204 26.1498 46.7979 26.8136 46.7979C29.0999 46.8753 31.3863 46.9528 33.5989 47.0303C34.3364 47.0303 35.1477 47.0303 35.6639 46.488C36.1802 45.9457 36.1802 45.0936 36.1802 44.3189C36.1802 43.3893 36.0327 42.3048 35.2952 41.9175C35.0002 41.7625 34.5576 41.6851 34.1889 41.6851C31.755 41.6076 27.4774 41.6076 25.5598 41.6851Z" stroke="black" stroke-width="2" stroke-miterlimit="10"/>
<path fill-rule="evenodd" clip-rule="evenodd" d="M78.8142 32.6217C78.8142 32.6217 37.9943 29.782 18.0365 30.1005L17.8097 29.782C17.6019 27.912 17.0672 23.0638 18.0366 21.5401C19.069 20.0381 21.4942 20.3493 23.7692 20.6412C24.8511 20.78 25.899 20.9145 26.747 20.8475C38.2311 19.779 49.1354 20.1529 60.3862 20.5386C63.7206 20.6529 67.0854 20.7683 70.5048 20.8475C71.0794 20.866 71.7273 20.83 72.4013 20.7925C74.2452 20.6899 76.2843 20.5764 77.552 21.5401C79.9756 23.3408 79.6451 28.5353 78.8142 32.6217ZM39.7907 25.2752C39.7907 26.2723 38.9826 27.0806 37.9857 27.0806C36.9888 27.0806 36.1807 26.2723 36.1807 25.2752C36.1807 24.278 36.9888 23.4697 37.9857 23.4697C38.9826 23.4697 39.7907 24.278 39.7907 25.2752ZM26.5651 25.655C26.5651 26.6521 25.757 27.4605 24.7601 27.4605C23.7632 27.4605 22.9551 26.6521 22.9551 25.655C22.9551 24.6579 23.7632 23.8496 24.7601 23.8496C25.757 23.8496 26.5651 24.6579 26.5651 25.655ZM31.0521 27.0806C32.049 27.0806 32.8571 26.2723 32.8571 25.2752C32.8571 24.278 32.049 23.4697 31.0521 23.4697C30.0552 23.4697 29.2471 24.278 29.2471 25.2752C29.2471 26.2723 30.0552 27.0806 31.0521 27.0806Z" fill="black"/>
</g>
<defs>
<clipPath id="clip0_65_20745">
<rect width="77" height="73" fill="white" transform="translate(17 20)"/>
</clipPath>
</defs>
</svg>
