<svg width="100" height="100" viewBox="0 0 100 100" fill="none" xmlns="http://www.w3.org/2000/svg">
<path d="M56.1811 81.0638H43.9758C43.1373 81.0638 43.4168 79.7241 43.4168 78.0496V67.1089C43.4168 67.1089 44.069 67.1089 44.9075 67.1089H55.6221C56.4606 67.1089 57.1128 67.1089 57.1128 67.1089V78.1054C57.1128 79.7242 57.0196 81.0638 56.1811 81.0638Z" fill="black"/>
<path d="M57.1123 52.6118L63.7499 52.6118" stroke="black" stroke-width="6" stroke-miterlimit="10" stroke-linecap="round"/>
<path d="M56.0176 67.9119H43.9824C43.18 67.9119 43.3988 69.0527 43.3988 70.4109C43.4718 71.4431 43.4718 72.5296 43.4718 73.6161C43.4718 75.5719 43.4718 78.2339 43.3988 79.9723C43.3988 80.4612 43.3094 81.6021 43.3096 82.2513C43.5284 82.6316 45.0035 81.6021 45.5871 81.6021C47.9941 81.6564 53.2596 81.6021 55.7396 81.7107C56.542 81.7107 56.3823 82.0367 56.3823 80.6242C56.3094 79.0488 56.3094 76.0065 56.3094 74.268C56.3094 72.9642 56.3094 71.6604 56.3823 70.4652C56.3094 70.2479 56.6012 67.9119 56.0176 67.9119Z" stroke="black" stroke-width="2" stroke-miterlimit="10"/>
<path d="M54.8906 44.5281H70.017" stroke="black" stroke-width="2" stroke-miterlimit="10" stroke-linecap="round"/>
<path d="M54.8906 39.5616C64.6908 39.4691 68.8832 39.9997 75.3988 39.5616" stroke="black" stroke-width="2" stroke-miterlimit="10" stroke-linecap="round"/>
<path d="M54.8906 34.5004C64.9838 34.5485 67.2885 33.6576 75.7443 34.7644" stroke="black" stroke-width="2" stroke-miterlimit="10" stroke-linecap="round"/>
<path d="M21.4084 32.6492C21.4082 30.7126 48.5609 31.0849 48.561 32.2767C48.5611 33.4684 48.5609 44.7815 48.5609 46.783C48.5609 48.7844 20.9662 48.5154 20.9663 46.783C20.9664 45.0505 21.4086 34.5859 21.4084 32.6492Z" stroke="black" stroke-width="2"/>
<path d="M36.5469 82.6802H62.4405" stroke="black" stroke-width="2" stroke-miterlimit="10" stroke-linecap="round"/>
<path d="M86.0798 67.3054C84.0069 68.7572 15.2621 67.3054 15.2621 67.3054C10.5739 67.3054 11.6596 63.5026 11.6596 58.8603C11.9063 55.3538 12.0544 51.7486 12.1037 47.9952C12.2518 41.2785 12.0544 32.3395 11.6596 26.4625C11.5609 24.7833 11.5609 23.4005 13.5349 21.7213C14.966 20.4866 21.3816 21.0299 24.6387 20.9311C38.9996 20.6842 65.254 20.8817 79.6149 20.6348C82.2289 20.6348 88.0538 19.5977 88.0538 24.24C87.7577 29.5244 87.6096 39.9945 87.6096 45.8715C87.659 50.3657 87.8071 54.6624 88.0538 58.8109C88.0538 59.4035 88.1527 65.8537 86.0798 67.3054Z" stroke="black" stroke-width="2" stroke-miterlimit="10" stroke-linecap="round"/>
</svg>
