<svg width="100" height="100" viewBox="0 0 100 100" fill="none" xmlns="http://www.w3.org/2000/svg">
<path d="M30.9873 60.4817L18.8237 72.6453C17.6958 73.7732 17.7978 75.6742 19.4993 77.3756C22.8781 80.7543 25.8642 81.8229 26.9326 80.7544C28.9597 78.7271 41.7993 65.212 45.1781 61.8332C48.5568 58.4545 48.5568 58.4544 47.2053 55.7515L47.2052 55.7514C45.8537 53.0484 41.1235 50.3455 39.7719 51.697L30.9873 60.4817Z" stroke="black" stroke-width="2"/>
<path d="M18.8235 72.6451C19.4992 71.9695 20.9859 71.9695 24.2295 74.6725C28.284 78.0513 27.6083 80.0784 26.9325 80.7542" stroke="black" stroke-width="2"/>
<path d="M17.8977 75.8881C17.3023 76.1921 16.559 76.4392 18.223 78.5863C19.404 80.1101 23.3348 83.0821 26.2668 83.0821C28.7917 83.0821 31.9602 79.3798 34.9241 76.2639C37.8881 73.1479 49.1807 62.1046 49.3707 60.6607C49.5227 59.5055 48.8906 59.0829 48.5416 58.572" stroke="black" stroke-width="2"/>
<path d="M16.8972 77.1663L17.9255 76.1104L20.0992 78.1L24.44 80.7168H26.6258L30.8743 76.6531L47.1907 59.5978L49.0071 59.4131L49.2226 61.445L40.9104 70.6499C37.3906 74.2724 30.2278 81.6158 29.7352 82.0099C29.1195 82.5024 26.5335 83.4876 25.7638 83.6723C24.9942 83.857 22.7494 82.697 20.2661 80.9505C17.7375 79.1721 16.9177 77.8949 16.8972 77.1663Z" fill="black"/>
<path d="M42.2886 51.6168C48.6947 37.9187 48.831 34.9652 53.2869 26.694C58.0944 17.7703 64.7747 14.5305 72.8838 17.2335C80.9928 19.9365 82.2607 24.7567 83.0201 30.0728C83.6959 34.8031 80.3171 42.9122 69.505 48.3182C60.8554 52.643 51.4849 56.4273 47.8809 57.7788" stroke="black" stroke-width="2"/>
<path d="M45.178 53.0482C48.5568 46.966 55.0607 35.6757 58.0173 30.7479C62.0718 23.9902 68.1961 14.9457 75.989 18.5298" stroke="black" stroke-width="2"/>
<path d="M46.5295 55.0757C52.8366 51.4717 66.3967 43.4527 70.1809 40.2091C74.9112 36.1546 83.696 27.3698 79.6415 21.288" stroke="black" stroke-width="2"/>
</svg>
