<svg width="100" height="100" viewBox="0 0 100 100" fill="none" xmlns="http://www.w3.org/2000/svg">
<path d="M25.36 60.9404L74.7101 60.8594C78.8501 60.8594 83.2101 63.5634 83.2101 67.7044V67.7344C83.2101 71.8754 80.9501 74.7984 76.8101 74.7984L24.5 75.2324C20.36 75.2324 17 71.8754 17 67.7344V67.7044C17 63.5634 21.22 60.9404 25.36 60.9404Z" stroke="black" stroke-width="2" stroke-miterlimit="10" stroke-linejoin="round"/>
<path d="M22.2998 67.6901C22.2998 66.3651 23.5898 65.4551 24.9598 65.4551C26.3398 65.4551 27.2698 66.3651 27.2698 67.6901C27.2698 69.0161 26.1598 70.0901 24.7898 70.0901C23.4198 70.0901 22.2998 69.0161 22.2998 67.6901Z" fill="black" stroke="black" stroke-width="2" stroke-miterlimit="10" stroke-linejoin="round"/>
<path d="M64.1299 67.6967C64.1299 66.3717 65.3899 65.4307 66.7599 65.4307C68.1299 65.4307 69.0898 66.3717 69.0898 67.6967C69.0898 69.0217 67.9799 70.0967 66.6099 70.0967C65.2399 70.0967 64.1299 69.0217 64.1299 67.6967Z" stroke="black" stroke-width="2" stroke-miterlimit="10" stroke-linejoin="round"/>
<path d="M54.4805 67.7789C54.4805 66.4529 55.5906 65.3789 56.9606 65.3789C58.3306 65.3789 59.4506 66.4529 59.4506 67.7789C59.4506 69.1039 59.0805 70.1619 57.3805 70.2529C56.0105 70.3259 54.4805 69.1039 54.4805 67.7789Z" stroke="black" stroke-width="2" stroke-miterlimit="10" stroke-linejoin="round"/>
<path d="M73.54 67.528C73.54 66.203 74.52 65.282 75.89 65.282C77.26 65.282 78.37 66.357 78.37 67.682C78.37 69.007 77.26 70.082 75.89 70.082C74.52 70.082 73.54 68.854 73.54 67.528Z" stroke="black" stroke-width="2" stroke-miterlimit="10" stroke-linejoin="round"/>
<path d="M17.5195 64.9579L24.5496 51.5779C25.3296 50.0879 26.9495 48.882 28.6295 48.877" stroke="black" stroke-width="2" stroke-miterlimit="10" stroke-linecap="round" stroke-linejoin="round"/>
<path d="M33.1299 48.8067L70.3398 48.7447C72.0298 48.7397 73.3599 48.6007 74.9299 51.3687L82.4399 64.8647" stroke="black" stroke-width="2" stroke-miterlimit="10" stroke-linecap="round" stroke-linejoin="round"/>
<path d="M47.8604 42.3649C47.8604 42.3649 49.9204 40.6769 52.0004 40.6139C54.0904 40.5509 56.2004 42.1129 56.2004 42.1129" stroke="black" stroke-width="2" stroke-miterlimit="10" stroke-linecap="round" stroke-linejoin="round"/>
<path d="M43.4805 38.0671C43.4805 38.0671 47.5205 35.0271 51.7805 35.0881C56.0405 35.1491 60.5305 38.31 60.5305 38.31" stroke="black" stroke-width="2" stroke-miterlimit="10" stroke-linecap="round" stroke-linejoin="round"/>
<path d="M39.1797 34.0852C39.1797 34.0852 45.6796 28.9633 52.1296 28.9493C58.5796 28.9343 64.9896 34.0262 64.9896 34.0262" stroke="black" stroke-width="2" stroke-miterlimit="10" stroke-linecap="round" stroke-linejoin="round"/>
<path d="M28.6898 53.729C28.6898 53.729 28.6097 55.051 30.8597 55.08C32.8697 55.107 32.9598 53.729 32.9598 53.729C32.9598 53.729 31.5698 24 30.5098 24C29.4398 24 28.6898 53.729 28.6898 53.729Z" stroke="black" stroke-width="2" stroke-miterlimit="10" stroke-linecap="round" stroke-linejoin="round"/>
</svg>
