<svg width="100" height="100" viewBox="0 0 100 100" fill="none" xmlns="http://www.w3.org/2000/svg">
<path d="M75.9996 59.2614C77.8896 58.2314 80.5895 56.0695 81.7895 53.9025C89.0095 40.8285 72.8195 39.1214 72.8195 39.1214C72.8195 39.1214 73.0695 32.5204 66.1095 29.5624C59.3395 26.6874 54.6795 32.8104 54.6795 32.8104C54.6795 32.8104 52.4596 18.5114 37.3996 21.3804C25.6596 23.6164 25.9495 37.1434 25.9495 37.1434C25.9495 37.1434 12.1395 37.7805 18.8295 52.4025C21.0095 57.1755 29.6995 61.2444 36.4195 61.0434C41.9195 60.8794 47.5195 59.3315 50.7095 58.2885" stroke="black" stroke-width="2" stroke-miterlimit="10" stroke-linecap="round" stroke-linejoin="round"/>
<path d="M73.8196 39.2914C71.1696 38.9244 68.6796 39.1574 66.8496 41.4814" stroke="black" stroke-width="2" stroke-miterlimit="10" stroke-linecap="round" stroke-linejoin="round"/>
<path d="M25.4697 37.1551C25.4697 37.1551 31.2297 36.5091 34.4697 40.3551" stroke="black" stroke-width="2" stroke-miterlimit="10" stroke-linecap="round" stroke-linejoin="round"/>
<path d="M19.5598 39.5479C18.3298 40.7569 16.8598 46.8609 20.1098 51.1949C23.3498 55.5279 30.2997 62.4009 40.4197 60.7199" stroke="black" stroke-width="2" stroke-miterlimit="10" stroke-linecap="round" stroke-linejoin="round"/>
<path d="M48.8096 79.4897C48.8096 79.4897 51.3396 79.3587 53.9796 79.3537C56.6096 79.3477 59.3396 79.4667 59.3396 79.4667" stroke="black" stroke-width="2" stroke-miterlimit="10" stroke-linecap="round" stroke-linejoin="round"/>
<path d="M63.9196 60.8201C61.1396 66.3761 48.9096 64.7871 52.2196 54.9051C54.4496 48.2481 66.8396 47.2871 72.7296 53.0801C79.3696 59.6161 74.7296 73.5491 62.7096 73.4741C40.0496 73.3311 45.1796 74.0311 33.3496 73.8731" stroke="black" stroke-width="2" stroke-miterlimit="10" stroke-linecap="round" stroke-linejoin="round"/>
<path d="M47.3792 67.7945C47.3792 67.7945 35.1891 66.9345 31.1691 67.2145C27.1591 67.4955 19.2891 67.3805 19.2891 67.3805" stroke="black" stroke-width="2" stroke-miterlimit="10" stroke-linecap="round" stroke-linejoin="round"/>
</svg>
