<svg width="100" height="100" viewBox="0 0 100 100" fill="none" xmlns="http://www.w3.org/2000/svg">
<path d="M38.1603 38.7578C38.1603 38.7578 39.7754 44.9423 44.739 46.5788C49.1845 48.0453 57.6914 48.3629 57.8457 45.8039C57.9021 44.8849 57.8311 43.1684 56.5967 42.9432C52.5735 42.2066 50.08 42.2133 47.1798 41.7245C44.4237 41.2582 44.0959 35.9646 44.0959 35.9646C43.8774 31.4031 38.2088 26.176 34.6564 30.9132C30.2087 36.8431 27.8345 47.677 29.2277 54.6454C31.0906 63.9565 45.4114 55.2659 47.3757 61.1599C48.7881 65.3959 45.8856 70.8336 45.0262 75.1293C44.7525 76.4978 45.3732 79.6728 47.3825 79.2707C49.1237 78.9227 50.5203 75.4188 50.9596 73.8814C52.2469 69.374 56.546 60.8682 52.185 56.506C47.6978 52.02 40.9986 51.7665 35.5879 49.0612" stroke="black" stroke-width="2" stroke-miterlimit="10" stroke-linecap="round"/>
<path d="M34.304 76.8167L46.3204 84.0373" stroke="black" stroke-width="2" stroke-miterlimit="10" stroke-linecap="round" stroke-linejoin="round"/>
<path d="M33.8195 64.8433L33.976 77.0928L22.3447 83.3787" stroke="black" stroke-width="2" stroke-miterlimit="10" stroke-linecap="round" stroke-linejoin="round"/>
<path d="M46.3001 60.1609C44.8303 61.259 30.4474 66.3859 26.1889 63.6986C21.9304 61.0101 29.1274 58.78 32.067 59.3049C35.0067 59.8297 47.7699 59.0616 46.3001 60.1609Z" fill="black" stroke="black" stroke-width="2" stroke-miterlimit="10" stroke-linecap="round"/>
<path d="M60.1557 52.0817L59.5598 84.7015M78.039 84.6587L78.4197 51.6379" stroke="black" stroke-width="2" stroke-miterlimit="10" stroke-linecap="round" stroke-linejoin="round"/>
<path d="M52.6387 51.3622L81.5259 51.2451" stroke="black" stroke-width="2" stroke-miterlimit="10" stroke-linecap="round"/>
<path d="M24.9083 61.8948C24.9083 61.8948 23.666 50.1711 23.4058 44.0632C23.1456 37.9565 22.123 32.4286 20.3716 29.6106" stroke="black" stroke-width="2" stroke-miterlimit="10" stroke-linecap="round"/>
<path d="M61.9668 46.6373L68.1963 18.7288" stroke="black" stroke-width="2" stroke-miterlimit="10" stroke-linecap="round"/>
<path d="M66.0034 33.7798C66.0034 33.7798 69.2551 34.3294 69.094 41.7033C69.0681 42.8769 69.1683 47.8337 69.1931 49.8768" stroke="black" stroke-width="2" stroke-miterlimit="10" stroke-linecap="round"/>
<path d="M49.8849 24.6544C54.8654 16.8706 41.6359 12.7663 39.3067 19.1232C36.9775 25.48 44.8875 32.4675 49.8849 24.6544Z" stroke="black" stroke-width="2" stroke-miterlimit="10" stroke-linecap="round"/>
<path d="M39.7878 50.2587L41.189 44.7151" stroke="black" stroke-width="2" stroke-miterlimit="10" stroke-linecap="round"/>
<path d="M20.1461 29.1428C19.6775 28.2283 18.8711 26.6864 19.0175 26.0095C19.3802 24.3426 22.0427 24.5903 24.3877 28.0695C27.6832 32.9621 25.7731 40.1321 20.1461 29.1428Z" fill="black" stroke="black" stroke-width="2" stroke-miterlimit="10" stroke-linecap="round"/>
<path d="M77.5673 62.1787H60.6729V52.042H77.5673V62.1787Z" fill="black" stroke="black" stroke-width="2"/>
</svg>
