<svg width="100" height="100" viewBox="0 0 100 100" fill="none" xmlns="http://www.w3.org/2000/svg">
<path d="M59.3426 71.6318C59.2157 73.3431 59.5788 73.8079 59.957 73.9112C60.4298 74.0402 88.8031 73.7204 89.4461 73.4236C90.0892 73.1268 90.5344 72.9289 90.6828 72.0385" stroke="black" stroke-width="2" stroke-miterlimit="10"/>
<path d="M59.6162 52.1348C59.4933 54.0343 59.8448 54.5503 60.2109 54.6649C60.6686 54.8081 88.1327 54.4531 88.7551 54.1236C89.3776 53.7942 89.8085 53.5745 89.9521 52.5862" stroke="black" stroke-width="2" stroke-miterlimit="10"/>
<path d="M60.7388 63.3126L88.6292 63.2128C89.6704 63.209 90.5279 63.5416 90.5413 63.9655C90.3864 65.2086 90.6127 66.6547 90.6709 68.05C90.7127 69.3689 90.7529 70.6366 90.7862 71.6844C90.7878 71.7374 90.7824 72.0024 90.2478 72.2222C89.9051 72.3589 89.4497 72.4488 88.9222 72.4507C85.4691 72.5809 81.8347 72.6822 78.018 72.7312C72.661 72.8034 66.5747 72.8112 61.8925 72.7102C60.7391 72.679 59.903 72.5819 59.5886 72.3004C59.317 72.054 59.3071 71.742 59.3326 71.6712C59.4054 69.1507 58.802 66.5995 58.8748 64.0789C58.8752 63.655 59.6976 63.3164 60.7388 63.3126Z" stroke="black" stroke-width="2" stroke-miterlimit="10"/>
<path d="M60.9629 44.9451L87.8537 44.8529C88.8575 44.8494 89.6843 45.1565 89.6973 45.548C89.5479 46.6959 89.7661 48.0314 89.8222 49.32C89.8625 50.538 89.9013 51.7087 89.9333 52.6764C89.9349 52.7253 89.9297 52.97 89.4143 53.173C89.0838 53.2992 88.6448 53.3823 88.1362 53.384C84.8069 53.5042 81.3027 53.5978 77.6229 53.643C72.4578 53.7097 66.5897 53.7169 62.0753 53.6237C60.9633 53.5948 60.1571 53.5052 59.854 53.2452C59.5921 53.0177 59.5826 52.7295 59.6072 52.6642C59.6773 50.3365 59.0956 47.9804 59.1658 45.6527C59.1662 45.2612 59.959 44.9485 60.9629 44.9451Z" stroke="black" stroke-width="2" stroke-miterlimit="10"/>
<path d="M88.0719 34.4338L60.5221 34.716C59.4936 34.7265 58.6233 34.4402 58.5806 34.0677C58.6475 32.9741 58.5806 32.2071 58.5806 30.4692C58.5806 29.196 58.6967 28.5493 58.803 27.2853C58.7977 27.2387 58.7847 27.0058 59.2976 26.8089C59.6268 26.6864 60.0704 26.6041 60.5915 26.5988C63.9942 26.4604 66.5782 26.346 70.3457 26.2763C75.6337 26.1755 81.6466 26.1262 86.2798 26.1824C88.4215 26.2017 89.2544 26.2813 89.5846 26.5265C89.87 26.7411 89.9015 27.0153 89.8811 27.0777C89.9842 29.2935 89.7573 31.5316 89.8604 33.7474C89.8894 34.12 89.1004 34.4233 88.0719 34.4338Z" stroke="black" stroke-width="2" stroke-miterlimit="10"/>
<path d="M58.6901 30.2882C49.8851 30.2884 44.7803 29.2197 44.7803 35.0265C44.7803 42.285 44.7803 57.229 44.7803 63.6336C44.7803 71.3461 48.5404 69.3977 58.5826 69.3977" stroke="black" stroke-width="2" stroke-miterlimit="10"/>
<path d="M59.223 49.3291L32.4775 49.3291" stroke="black" stroke-width="2" stroke-miterlimit="10"/>
<path d="M18.066 37.2568C18.3866 37.4325 18.7072 37.5379 18.9958 37.7487C19.5729 38.2055 20.1499 38.6974 20.695 39.1542C20.7591 39.1893 20.8553 39.2245 20.9194 39.2596C21.4965 39.2947 22.1056 39.2596 22.6827 39.2947C23.1956 39.3299 23.5803 39.1542 23.9651 38.8028C24.3498 38.4163 24.8307 38.1001 25.2154 37.7487C25.536 37.4677 25.9207 37.3271 26.3054 37.3974C27.8764 37.6433 29.1588 38.3812 30.2167 39.5758C30.6335 40.0677 30.5694 40.6299 30.4732 41.2272C30.377 41.7894 30.2809 42.3516 30.2167 42.8787C30.1847 43.0192 30.2167 43.1597 30.2809 43.2652C30.6335 43.9327 31.0182 44.5652 31.435 45.1977C31.4991 45.3031 31.6594 45.4085 31.7877 45.4436C32.4609 45.6896 33.1342 45.9355 33.8395 46.1815C34.2563 46.322 34.5128 46.6031 34.6731 46.9896C35.2501 48.4653 35.2822 49.9411 34.7372 51.4168C34.5769 51.8384 34.2883 52.1547 33.8395 52.2952C33.1662 52.506 32.525 52.7871 31.8839 53.0682C31.7877 53.1033 31.6594 53.2087 31.5953 53.279C31.2106 53.9466 30.8579 54.5791 30.5373 55.2467C30.4732 55.3872 30.4732 55.598 30.5053 55.7386C30.6335 56.4413 30.7938 57.144 30.9221 57.8467C31.0182 58.3035 30.8579 58.69 30.5694 59.0414C29.5755 60.236 28.3252 61.0442 26.7543 61.2901C26.3696 61.3604 26.0169 61.255 25.6963 61.009C25.1192 60.5522 24.5421 60.1306 23.9651 59.6738C23.8689 59.6036 23.7086 59.5333 23.5483 59.5333C22.6185 59.5333 21.6888 59.5333 20.727 59.5333C20.5667 59.5333 20.3744 59.6036 20.2461 59.709C19.7332 60.0955 19.1881 60.482 18.7072 60.9036C18.2584 61.3252 17.7134 61.3955 17.1684 61.255C15.7898 60.9036 14.6356 60.2009 13.738 59.1117C13.3853 58.69 13.2571 58.1981 13.4174 57.6359C13.5777 57.0035 13.6738 56.371 13.77 55.7737C13.8021 55.5629 13.77 55.3521 13.6738 55.1764C13.5777 54.8953 13.4494 54.6493 13.3212 54.4034C12.9365 53.6304 12.4876 52.9628 11.5899 52.752C11.1411 52.6466 10.7564 52.4357 10.3396 52.2601C9.92284 52.0844 9.66636 51.7682 9.50606 51.3465C9.1534 50.3978 9.12134 49.3789 9.24958 48.3951C9.3137 47.868 9.474 47.3761 9.66636 46.8842C9.7946 46.5328 10.1152 46.2869 10.4999 46.1463C11.1732 45.9355 11.8464 45.6896 12.5197 45.4085C12.6479 45.3733 12.7762 45.2679 12.8403 45.1625C13.225 44.5301 13.5777 43.9327 13.9624 43.3003C14.0265 43.1949 14.0586 43.0192 14.0265 42.8787C13.9303 42.2111 13.8662 41.5435 13.7059 40.8759C13.5777 40.3137 13.738 39.8218 14.1227 39.4353C15.1486 38.3461 16.3669 37.6433 17.8737 37.3974C17.9378 37.3974 18.0019 37.3974 18.066 37.3974C18.034 37.3271 18.066 37.292 18.066 37.2568ZM22.0094 44.2138C19.124 44.2138 16.7516 46.5328 16.7516 49.3789C16.7516 52.2952 19.0599 54.6845 21.9132 54.7196C24.7986 54.7547 27.171 52.4709 27.2352 49.5546C27.2672 46.4274 24.6704 44.1787 22.0094 44.2138Z" fill="black"/>
<path d="M18.2168 37.2871C18.5438 37.4324 18.8708 37.5776 19.1614 37.7592C19.7428 38.195 20.2878 38.7034 20.8691 39.1391C20.9417 39.1755 21.0144 39.2118 21.0871 39.2118C21.6684 39.2118 22.2497 39.2118 22.831 39.2481C23.3397 39.2844 23.7393 39.1028 24.1027 38.776C24.5023 38.4129 24.9383 38.086 25.3743 37.7229C25.7013 37.4324 26.0646 37.3234 26.4643 37.3597C28.0266 37.5776 29.3345 38.3402 30.3519 39.5386C30.7878 40.0107 30.7152 40.5917 30.6062 41.1728C30.4972 41.7175 30.4245 42.2622 30.3519 42.8432C30.3519 42.9522 30.3519 43.1337 30.3882 43.2427C30.7515 43.8963 31.1148 44.55 31.5145 45.1674C31.5872 45.2763 31.7325 45.3852 31.8778 45.4216C32.5681 45.6758 33.2221 45.8936 33.9124 46.1478C34.3121 46.2931 34.5664 46.5836 34.7481 46.9468C35.3294 48.3993 35.3294 49.8882 34.8208 51.3771C34.6754 51.8129 34.3848 52.1034 33.9124 52.2487C33.2585 52.4666 32.6045 52.7571 31.9868 53.0113C31.8778 53.0476 31.7688 53.1565 31.6962 53.2292C31.3328 53.8828 30.9695 54.5365 30.6425 55.1902C30.5698 55.3354 30.5698 55.517 30.6062 55.6986C30.7152 56.3885 30.8968 57.0785 31.0058 57.7685C31.0785 58.2043 30.9332 58.6037 30.6425 58.9306C29.6252 60.1289 28.3899 60.9278 26.8276 61.182C26.4279 61.2547 26.101 61.1457 25.774 60.8915C25.229 60.4558 24.6477 60.02 24.0663 59.5842C23.9573 59.5116 23.812 59.439 23.6667 59.439C22.722 59.439 21.8137 59.439 20.8691 59.439C20.7237 59.439 20.5421 59.5116 20.3967 59.5842C19.8881 59.9474 19.3431 60.3468 18.8708 60.7826C18.3985 61.182 17.8898 61.2547 17.3448 61.1457C15.9642 60.7826 14.8379 60.0926 13.9296 59.0032C13.5662 58.5674 13.4572 58.0953 13.6026 57.5506C13.7479 56.9333 13.8569 56.3159 13.9659 55.6986C14.0022 55.517 13.9659 55.2991 13.8932 55.0812C13.7842 54.827 13.6389 54.5728 13.5299 54.3186C13.1666 53.556 12.6943 52.9023 11.7859 52.6845C11.35 52.5755 10.9503 52.3576 10.5143 52.2124C10.0783 52.0308 9.86032 51.704 9.67866 51.3045C9.31533 50.3603 9.279 49.3435 9.42433 48.363C9.46066 47.8183 9.64233 47.3099 9.82399 46.8378C9.96932 46.4747 10.26 46.2205 10.6596 46.1115C11.35 45.8936 12.0039 45.6394 12.6579 45.3852C12.7669 45.3489 12.9123 45.24 12.9486 45.131C13.3119 44.5137 13.7116 43.8963 14.0386 43.279C14.1112 43.1701 14.1112 42.9885 14.1112 42.8432C14.0386 42.1896 13.9296 41.4996 13.7842 40.8459C13.6752 40.2649 13.8206 39.7928 14.1839 39.3934C15.2012 38.3039 16.4365 37.6139 17.9261 37.3597C17.9988 37.3597 18.0351 37.3597 18.1078 37.3597C18.1805 37.3597 18.1805 37.3234 18.2168 37.2871ZM22.1407 44.2232C19.2704 44.2232 16.9088 46.5473 16.8725 49.3798C16.8725 52.285 19.1614 54.6454 22.0317 54.6818C24.9383 54.7181 27.2999 52.4666 27.3363 49.5251C27.4089 46.402 24.793 44.1505 22.1407 44.2232Z" stroke="black" stroke-width="2" stroke-miterlimit="10"/>
</svg>
