<svg width="100" height="100" viewBox="0 0 100 100" fill="none" xmlns="http://www.w3.org/2000/svg">
<path d="M49.0284 44.8306V39.2471H52.5821V44.8306H49.0284Z" stroke="black" stroke-width="2"/>
<path d="M63.2628 23.8627C63.7482 25.2727 63.4891 36.6035 63.2628 37.3606C63.0365 38.1176 62.3729 39.0824 60.7376 39.2145C56.2226 39.3039 46.1536 39.1882 41.2436 39.1223C39.6646 39.1011 38.3806 37.8582 38.3063 36.2808C38.1941 33.8987 38.0538 30.6795 38.0538 29.4794C38.0538 28.4299 38.1611 26.401 38.2631 24.7102C38.3578 23.1404 39.6546 21.9238 41.2272 21.9245C46.0034 21.9266 55.6648 21.9552 60.0268 22.1414C61.167 22.19 62.7774 22.4527 63.2628 23.8627Z" stroke="black" stroke-width="2"/>
<path d="M38.9044 24.3562V34.3596H62.7077V24.9913L60.7378 22.9272H40.5461L38.9044 24.3562Z" fill="black" stroke="black" stroke-width="2"/>
<path d="M24.4474 43.7319C21.1203 45.2944 16.5637 47.4953 17.1678 47.4953C18.0906 47.4953 82.9789 48.358 82.8865 47.6044C82.8504 47.3097 81.6176 46.355 79.9106 45.4325M30.0368 42.1695C33.6465 42.1514 41.0413 42.1709 48.7261 42.2032M52.6359 42.2205C57.2537 42.242 61.3611 42.2666 65.0023 42.2888" stroke="black" stroke-width="2"/>
<path d="M17.1681 47.3955C17.1681 57.3504 17.2211 76.9501 17.2211 77.5567C17.2211 78.3151 24.7335 78.0185 27.9627 78.0185C30.5461 78.0185 35.0043 78.0185 35.6205 78.0185C36.2367 78.0185 35.6205 48.1541 35.6205 48.1541" stroke="black" stroke-width="2"/>
<path d="M35.6193 78.0083C36.5267 78.1414 41.5716 67.2382 41.5716 66.6744C41.5716 66.1106 41.5716 47.9199 41.5716 47.9199" stroke="black" stroke-width="2"/>
<path d="M17.8409 56.8276H35.2655" stroke="black" stroke-width="2"/>
<path d="M17.8409 66.9873H35.2655" stroke="black" stroke-width="2"/>
<path d="M46.6642 44.9966H55.0779" stroke="black" stroke-width="2" stroke-linecap="round"/>
<path d="M24.9359 24.6187C24.6542 25.225 22.0181 33.3131 21.7469 33.7434C21.4756 34.1737 33.4279 34.2935 33.1748 33.7434C32.9217 33.1933 30.2258 25.1653 30.0741 24.6187C29.9225 24.072 25.2177 24.0124 24.9359 24.6187Z" stroke="black" stroke-width="2" stroke-linecap="round"/>
<path d="M24.6602 49.4465C24.314 49.4465 23.5529 48.272 23.5529 48.272H29.5437C29.5437 48.272 28.6748 49.4465 28.2944 49.4465H24.6602Z" stroke="black" stroke-width="2" stroke-linecap="round"/>
<path d="M24.6602 58.4446C24.314 58.4446 23.5529 57.27 23.5529 57.27H29.5437C29.5437 57.27 28.6748 58.4446 28.2944 58.4446H24.6602Z" stroke="black" stroke-width="2" stroke-linecap="round"/>
<path d="M24.6602 68.6038C24.314 68.6038 23.5529 67.4292 23.5529 67.4292H29.5437C29.5437 67.4292 28.6748 68.6038 28.2944 68.6038H24.6602Z" stroke="black" stroke-width="2" stroke-linecap="round"/>
<path d="M27.3556 34.5542V40.8801" stroke="black" stroke-width="2" stroke-linecap="round"/>
<path d="M25.662 41.2605C25.5277 41.5291 24.3869 44.3145 25.0244 44.6165C25.662 44.9184 29.0515 44.8849 29.6891 44.6165C30.3267 44.348 29.1522 41.5626 29.0515 41.2605C28.9508 40.9585 25.7962 40.992 25.662 41.2605Z" fill="black" stroke="black" stroke-width="2" stroke-linecap="round"/>
<path d="M73.8291 43.1932C73.0975 42.7215 67.3756 40.0323 67.3056 39.532C67.2357 39.0316 74.4609 38.5316 75.0325 38.4517C75.6041 38.3718 82.2107 41.037 82.051 41.4872C81.8913 41.9373 74.5608 43.665 73.8291 43.1932Z" stroke="black" stroke-width="2" stroke-linecap="round"/>
<path d="M67.2817 39.6424C67.2817 39.6424 67.1046 40.4136 67.2817 40.5668C67.4588 40.7199 73.4542 44.0569 73.6934 44.0109C73.9325 43.9649 81.6613 42.4979 81.8453 42.4253C82.0294 42.3527 82.0484 41.5042 82.0484 41.5042" stroke="black" stroke-width="2" stroke-linecap="round"/>
<path d="M64.653 41.7213C65.0571 41.5013 68.399 41.0691 68.399 41.0691L73.8348 43.5423L78.2677 42.8424C78.2677 42.8424 81.6332 44.5813 81.3283 45.0687C81.0233 45.5561 73.3775 47.1133 72.9139 47.1043C72.4503 47.0953 64.2489 41.9413 64.653 41.7213Z" stroke="black" stroke-width="2" stroke-linecap="round"/>
<path d="M64.6232 41.8132C64.6232 41.8132 64.7518 42.5777 64.97 42.9279C65.1882 43.2782 72.5131 48.1627 72.9237 48.0569C73.3342 47.9511 81.0589 46.4753 81.249 46.2481C81.4391 46.0209 81.4033 45.142 81.4033 45.142" stroke="black" stroke-width="2" stroke-linecap="round"/>
<path d="M71.295 48.3071C71.295 54.9028 71.295 69.9551 71.295 72.6773C71.295 74.2663 75.2019 74.0309 75.2019 72.6773C75.2019 70.6607 75.2019 55.1968 75.2019 48.3071" stroke="black" stroke-width="2"/>
<path d="M75.4562 71.2778C77.2043 71.387 79.8988 71.5953 81.3927 73.077C83.104 74.7743 79.0868 76.6091 72.8542 76.6091C65.8778 76.6091 60.2448 72.2095 70.7696 71.2778" stroke="black" stroke-width="2"/>
<path d="M67.2086 71.9138L71.1085 71.3501V73.3236L72.7534 73.8875L75.0089 73.3236L75.2909 71.3501L79.614 71.9138L81.6816 73.5586V74.9683L78.8622 76.1431L75.0089 76.707L70.075 76.425L65.7048 74.9683L65.047 73.5586L67.2086 71.9138Z" fill="black"/>
<path d="M36.7536 75.1142L35.9309 48.0618H41.4073V66.5341L36.7536 75.1142Z" fill="black"/>
</svg>
