<svg width="100" height="100" viewBox="0 0 100 100" fill="none" xmlns="http://www.w3.org/2000/svg">
<path fill-rule="evenodd" clip-rule="evenodd" d="M24.2291 84.2996C25.1775 85.3627 26.4118 85.984 27.2077 86.2228H53.1962C56.2599 86.2228 57.7344 85.2863 58.3572 84.2203C58.5574 84.2208 58.754 84.221 58.9468 84.221C59.7722 84.1087 67.8392 84.3848 64.225 87.3903C60.6107 90.3957 45.7527 92.2382 27.9613 88.3122C25.9831 87.8756 24.2888 86.1682 23.3722 84.7425C23.2538 84.5583 23.5677 84.413 24.2291 84.2996Z" fill="black"/>
<path d="M66.9007 26.4589C67.3521 26.1407 67.4601 25.5168 67.1418 25.0654C66.8236 24.614 66.1997 24.5061 65.7483 24.8243L66.9007 26.4589ZM44.0184 64.0652C46.0121 57.9977 48.765 50.6769 52.5174 43.82C56.2745 36.9544 60.9977 30.6208 66.9007 26.4589L65.7483 24.8243C59.4958 29.2325 54.5936 35.8597 50.7629 42.8599C46.9274 49.8687 44.1301 57.3185 42.1183 63.4409L44.0184 64.0652Z" fill="black"/>
<path d="M34.2817 63.3945C31.2335 63.3945 30.8347 67.9196 31.0164 69.8245H51.2911C51.2911 65.3615 50.4234 63.3945 48.4336 63.3945H34.2817Z" stroke="black" stroke-width="2"/>
<path d="M31.0976 69.7925C25.4338 69.7925 22.8711 74.123 22.8711 75.9455V80.7828C22.8711 84.0942 25.4835 86.2229 27.2072 86.2229H51.5397C56.8735 86.2229 58.6384 84.5567 58.6384 81.9654V74.6331C58.6384 70.1864 52.5739 69.5532 50.7597 69.7925H31.0976Z" stroke="black" stroke-width="2"/>
<path d="M41.8927 59.9649C38.7833 55.8544 38.0413 50.4001 39.0812 50.2109C40.1212 50.0217 43.7412 52.3761 43.5472 52.1559C42.0888 50.5004 40.0997 48.5938 41.8917 42.5778C43.5472 37.0201 46.2669 34.1822 47.0947 35.1282C47.7568 35.8849 48.102 37.0103 48.2729 37.2666C48.4437 37.5229 46.5 34.4261 48.0136 32.6287C49.9056 30.382 55.6085 22.2391 66.0144 16.4449C76.4202 10.6508 77.1297 10.1778 77.1297 12.8975C77.1297 15.6172 76.1837 20.5836 72.7545 22.3574C69.3253 24.1311 76.3019 21.7661 76.0654 23.0668C75.8289 24.3676 67.7368 38.7635 62.3487 44.4698C56.6228 50.5336 51.6717 50.9734 52.2976 50.9734C53.9698 50.9734 58.251 48.9828 57.246 51.5746C55.7111 55.5332 50.6421 61.9705 47.0947 62.7982C44.2567 63.4604 43.5472 61.6092 41.8927 59.9649Z" stroke="black" stroke-width="2"/>
</svg>
