<svg width="100" height="100" viewBox="0 0 100 100" fill="none" xmlns="http://www.w3.org/2000/svg">
<path d="M24.1619 18.8329C25.3417 20.8008 34.7311 35.8925 41.1748 45.7611L39.8011 46.8203C33.6389 37.3777 24.746 23.0567 23.2996 20.7638C21.4915 17.8977 22.6872 16.373 24.1619 18.8329Z" stroke="black" stroke-width="2" stroke-linecap="round"/>
<path d="M39.4324 48.5211C42.3517 43.2621 48.0627 46.419 48.278 50.0327C48.4553 54.9404 45.1887 56.1099 43.4626 56.0894C41.1629 56.0621 36.5131 53.7801 39.4324 48.5211Z" fill="black" stroke="black" stroke-width="2" stroke-linecap="round"/>
<path d="M63.6389 50.264C69.6537 50.3136 69.6114 56.8388 66.5406 58.7557C62.3149 61.258 59.7259 58.9481 58.9186 57.4223C57.8431 55.3894 57.6242 50.2144 63.6389 50.264Z" fill="black" stroke="black" stroke-width="2" stroke-linecap="round"/>
<path d="M82.8626 22.8217C81.6982 24.7988 72.4822 40.0967 66.8956 50.4747L65.3085 49.7745C70.6556 39.8476 79.4321 25.3543 80.7544 22.9875C82.4072 20.0292 84.318 20.3503 82.8626 22.8217Z" stroke="black" stroke-width="2" stroke-linecap="round"/>
<path d="M22.2935 79.2824C26.0819 79.1991 33.434 79.1805 33.534 79.7801" stroke="black" stroke-width="2" stroke-linecap="round"/>
<path d="M22.1079 78.9385L22.3649 81.8066C23.2282 82.5312 29.7128 82.5111 32.8472 82.4105L33.8235 81.8066L33.618 79.2404L22.1079 78.9385Z" fill="black"/>
<path d="M40.0107 77.3695C43.7992 77.2863 51.1513 77.2677 51.2513 77.8672" stroke="black" stroke-width="2" stroke-linecap="round"/>
<path d="M39.8254 77.0256L40.0824 79.8938C40.9457 80.6184 47.4303 80.5983 50.5647 80.4977L51.541 79.8938L51.3355 77.3275L39.8254 77.0256Z" fill="black"/>
<path d="M58.6804 75.2438C62.4689 75.1605 69.821 75.142 69.9209 75.7415" stroke="black" stroke-width="2" stroke-linecap="round"/>
<path d="M58.4949 74.8999L58.7519 77.7681C59.6151 78.4927 66.0998 78.4726 69.2342 78.372L70.2105 77.7681L70.0049 75.2018L58.4949 74.8999Z" fill="black"/>
<path d="M76.7129 71.2824C80.5014 71.1991 87.8535 71.1805 87.9534 71.7801" stroke="black" stroke-width="2" stroke-linecap="round"/>
<path d="M76.5273 70.9385L76.7843 73.8066C77.6476 74.5312 84.1322 74.5111 87.2666 74.4105L88.2429 73.8066L88.0374 71.2404L76.5273 70.9385Z" fill="black"/>
<path d="M76.7527 73.9384C75.9139 73.4965 76.5264 51.9792 76.8758 41.0445C76.9212 39.5893 86.8177 39.9604 87.8661 40.582C88.9145 41.2035 88.2855 73.1097 87.8661 73.9384C87.4467 74.7672 77.8011 74.4909 76.7527 73.9384Z" stroke="black" stroke-width="2" stroke-linecap="round"/>
<ellipse cx="82.4978" cy="66.3828" rx="1.86911" ry="1.26614" fill="black"/>
<ellipse cx="82.4978" cy="44.0678" rx="1.86911" ry="1.26614" fill="black"/>
<path d="M58.9201 77.7553C58.0746 77.1913 58.692 49.7293 59.0443 35.7736C59.09 33.9164 69.0669 34.39 70.1238 35.1833C71.1807 35.9766 70.5466 76.6976 70.1238 77.7553C69.701 78.8131 59.9771 78.4604 58.9201 77.7553Z" stroke="black" stroke-width="2" stroke-linecap="round"/>
<ellipse cx="64.6809" cy="66.3828" rx="1.86911" ry="1.26614" fill="black"/>
<path d="M40.2468 79.8086C39.4012 79.1832 40.0187 48.7346 40.371 33.2613C40.4167 31.202 50.3935 31.7272 51.4505 32.6067C52.5074 33.4863 51.8732 78.6358 51.4505 79.8086C51.0277 80.9813 41.3038 80.5903 40.2468 79.8086Z" stroke="black" stroke-width="2" stroke-linecap="round"/>
<ellipse cx="45.9253" cy="66.3828" rx="1.86911" ry="1.26614" fill="black"/>
<path d="M22.4114 81.7344C21.5658 81.058 22.1832 48.1268 22.5355 31.3918C22.5812 29.1646 32.5581 29.7326 33.615 30.6839C34.672 31.6351 34.0378 80.466 33.615 81.7344C33.1922 83.0028 23.4684 82.5799 22.4114 81.7344Z" stroke="black" stroke-width="2" stroke-linecap="round"/>
<ellipse cx="27.9658" cy="66.3828" rx="1.86911" ry="1.26614" fill="black"/>
<ellipse cx="64.6809" cy="43.2842" rx="1.86911" ry="1.26614" fill="black"/>
<ellipse cx="45.9253" cy="43.2842" rx="1.86911" ry="1.26614" fill="black"/>
<ellipse cx="28.9194" cy="43.2842" rx="1.86911" ry="1.26614" fill="black"/>
</svg>
