<svg width="100" height="100" viewBox="0 0 100 100" fill="none" xmlns="http://www.w3.org/2000/svg">
<path d="M67.102 32.2371C67.102 32.2371 66.311 39.6961 74.37 40.3481C78.073 40.6481 78.307 37.6541 78.46 35.1121C78.612 32.5701 78.967 29.802 75.83 27.644C73.781 26.234 69.263 27.6031 69.263 27.6031C69.263 27.6031 67.079 24.2061 64.438 27.3021C62.721 29.3151 63.086 32.0271 65.186 32.1351C65.766 32.1651 67.102 32.2371 67.102 32.2371Z" stroke="black" stroke-width="2" stroke-miterlimit="10" stroke-linecap="round" stroke-linejoin="round"/>
<path d="M69.2089 38.5762C69.2089 38.5762 69.5499 40.1762 68.0239 42.5352C68.0239 42.5352 65.5419 45.6992 62.7759 47.9292C60.5239 49.7442 57.0669 51.5852 57.0669 51.5852L59.6409 59.1432L66.8079 56.6122" stroke="black" stroke-width="2" stroke-miterlimit="10" stroke-linecap="round" stroke-linejoin="round"/>
<path d="M57.047 51.6584C57.047 51.6584 54.366 50.2244 51.511 50.7574C48.656 51.2914 47.64 52.9344 45.218 54.6494C42.796 56.3644 41.15 58.0664 37.721 59.0944C34.292 60.1234 29.152 61.8354 27.362 62.1564C25.571 62.4784 20.684 61.9044 20.64 65.0604C20.596 68.2164 20.497 71.0324 21.408 71.8184C22.32 72.6034 24.005 73.2304 24.357 72.5214C24.709 71.8114 24.57 69.3384 24.741 67.9284C24.911 66.5174 26.156 66.9574 28.456 66.6524C30.757 66.3464 40.834 65.2554 44 64.4984C47.167 63.7414 59.635 59.1864 59.635 59.1864L57.047 51.6584Z" stroke="black" stroke-width="2" stroke-miterlimit="10" stroke-linecap="round" stroke-linejoin="round"/>
<path d="M30.1631 61.8994L30.5811 66.3204" stroke="black" stroke-width="2" stroke-miterlimit="10" stroke-linecap="round" stroke-linejoin="round"/>
<path d="M66.5791 50.3794C66.5791 50.3794 67.5351 60.2214 67.8371 63.2394C68.1381 66.2574 68.3531 69.7744 69.6161 71.4144C70.8781 73.0554 73.3731 73.0143 75.5341 72.9233C77.6941 72.8323 77.2031 72.0654 76.8581 71.1034C76.3281 69.6234 73.5281 70.0054 72.6921 68.8664C71.8561 67.7274 72.0791 64.0184 72.0911 61.2804C72.1031 58.5424 72.0241 51.8754 72.0681 50.0424C72.1111 48.2094 72.5121 45.0404 69.9231 44.7354" stroke="black" stroke-width="2" stroke-miterlimit="10" stroke-linecap="round" stroke-linejoin="round"/>
<path d="M17 73.3115C17 73.3115 33.012 72.9395 37.566 72.6115C42.12 72.2825 61.279 73.1725 65.712 73.0595C70.144 72.9465 80.86 73.3645 82.579 73.2835" stroke="black" stroke-width="2" stroke-miterlimit="10" stroke-linecap="round" stroke-linejoin="round"/>
<path d="M58.6979 59.2351L56.0849 52.1481C56.0849 52.1481 52.5439 50.3131 49.4069 52.8371C46.2699 55.3621 43.4949 57.8171 40.5149 59.1001C37.5349 60.3831 31.4759 62.1591 31.4759 62.1591L31.4299 65.6201C31.4299 65.6201 39.9969 64.6771 43.2689 63.9271C46.5399 63.1771 50.3599 61.8681 52.7869 60.9121C55.2129 59.9551 58.6979 59.2351 58.6979 59.2351Z" fill="black" stroke="black" stroke-width="2" stroke-miterlimit="10" stroke-linejoin="round"/>
<path d="M72.3821 53.9845C72.3821 53.9845 75.5161 52.3915 76.3951 49.8925C77.2751 47.3935 74.7241 44.6805 74.2691 43.7395C73.3891 41.9185 73.6601 40.3125 73.6601 40.3125" stroke="black" stroke-width="2" stroke-miterlimit="10" stroke-linecap="round" stroke-linejoin="round"/>
<path d="M77.743 30.3518C77.743 30.3518 74.169 30.1418 72.688 32.1248C71.206 34.1078 71.397 35.5288 69.972 36.3598C68.547 37.1908 67.849 35.6568 67.849 35.6568L67.26 32.1538L64.45 31.0148C64.45 31.0148 64.123 29.7328 64.976 28.2338C65.829 26.7358 67.711 26.4998 68.44 27.7318C69.168 28.9638 70.837 28.4328 72.138 27.9248C73.439 27.4168 75.297 27.7268 75.936 28.3398C76.575 28.9538 77.743 30.3518 77.743 30.3518Z" fill="black" stroke="black" stroke-width="2" stroke-miterlimit="10" stroke-linejoin="round"/>
</svg>
