<svg width="100" height="100" viewBox="0 0 100 100" fill="none" xmlns="http://www.w3.org/2000/svg">
<path d="M44.0537 35.5356C42.3407 35.6456 38.3677 36.9006 36.1497 40.2256C33.9317 43.5496 31.9697 48.3945 31.9697 48.3945C31.9697 48.3945 36.9447 52.3976 39.0107 51.7836C40.3607 51.3826 39.8917 48.5966 40.3227 47.6786C40.7537 46.7606 42.0507 54.7316 41.7257 57.9886C41.4007 61.2456 42.6777 62.9406 42.6777 62.9406L43.9917 63.8676C44.5747 64.2296 45.2187 65.2355 45.2187 65.2355C45.2187 65.2355 45.8887 65.5075 46.6727 65.7535C47.4557 65.9995 48.4567 66.0735 48.4567 66.0735L55.1907 64.2156C55.1907 64.2156 55.5387 63.0746 56.5257 62.2906C57.3387 61.6446 59.3827 61.4305 59.3827 61.4305C59.3827 61.4305 59.1967 57.6616 59.2387 54.4016C59.2807 51.1406 59.3497 47.1826 59.3497 47.1826C59.3497 47.1826 60.2697 49.2325 60.8317 50.5325C61.3927 51.8315 67.9088 47.7635 67.9088 47.7635C67.9088 47.7635 65.5197 42.3006 62.5387 39.5906C59.5577 36.8796 54.5097 35.3516 54.5097 35.3516C54.5097 35.3516 52.4547 37.4946 49.5757 37.4816C46.5307 37.4676 45.0567 35.4716 44.0537 35.5356Z" stroke="black" stroke-width="2" stroke-miterlimit="10" stroke-linecap="round" stroke-linejoin="round"/>
<path d="M64.2218 65.0259C64.2218 65.0259 69.2318 68.3689 70.7788 70.6409C72.3258 72.9139 71.4008 80.0909 63.6658 77.2379C55.9308 74.3859 49.1778 71.5109 45.5998 70.2539C42.0228 68.9969 31.4508 66.2659 32.4658 64.4779C33.4808 62.6889 36.9598 63.9839 39.5698 64.0329C42.1808 64.0809 44.3558 63.5489 45.0808 65.0479C45.8068 66.5459 61.5718 68.0639 61.5718 68.0639" stroke="black" stroke-width="2" stroke-miterlimit="10" stroke-linecap="round" stroke-linejoin="round"/>
<path d="M36.5119 67.4492C36.5119 67.4492 29.6059 70.2292 29.9279 74.4032C30.2189 78.1712 37.2959 77.9392 41.1159 76.7302C44.9349 75.5222 51.5489 72.6992 51.5489 72.6992" stroke="black" stroke-width="2" stroke-miterlimit="10" stroke-linecap="round" stroke-linejoin="round"/>
<path d="M31.6299 76.8468C31.6299 76.8468 24.7699 77.8988 28.4809 78.8938C30.4259 79.4158 40.1548 79.5318 51.1538 79.4048C62.1528 79.2778 71.5059 79.4228 72.8109 78.7938C75.5539 77.4708 70.1368 76.9998 70.1368 76.9998C70.1368 76.9998 67.2819 79.4608 62.7869 77.3378C58.2929 75.2148 51.1649 73.8838 51.1649 73.8838C51.1649 73.8838 46.8379 75.3238 43.7289 76.7668C40.6209 78.2098 39.5179 78.1238 37.1639 78.2328C34.8089 78.3408 31.6299 76.8468 31.6299 76.8468Z" fill="black" stroke="black" stroke-width="2" stroke-miterlimit="10" stroke-linejoin="round"/>
<path d="M42.0538 61.8418C41.2798 62.4208 40.2158 63.8228 40.2158 63.8228" stroke="black" stroke-width="2" stroke-miterlimit="10" stroke-linecap="round" stroke-linejoin="round"/>
<path d="M48.5508 66.2081L55.1838 64.3372C55.1838 64.3372 55.8328 62.0822 57.9038 61.7772C61.6118 61.2302 66.1208 59.8721 67.3608 62.2301C67.8288 63.1201 62.0488 65.6682 62.0488 65.6682L58.0748 67.5662" stroke="black" stroke-width="2" stroke-miterlimit="10" stroke-linecap="round" stroke-linejoin="round"/>
<path d="M37.9867 51.7637C37.9867 51.7637 35.4857 55.6028 33.6397 57.3068C31.7937 59.0098 25.2827 61.1057 23.0107 59.4727C20.7387 57.8397 22.8657 55.5038 23.8727 55.3618C25.9527 55.0688 27.2157 54.4127 29.5277 53.3607C31.3347 52.5377 33.0537 49.1777 33.0537 49.1777" stroke="black" stroke-width="2" stroke-miterlimit="10" stroke-linejoin="round"/>
<path d="M62.3296 50.8731C62.3296 50.8731 65.2496 55.0781 67.0946 56.7821C68.9406 58.4861 75.0336 60.2152 77.3056 58.5822C79.5766 56.9502 78.0786 54.4571 77.0716 54.3151C74.9916 54.0221 73.4876 53.8152 71.1026 52.9412C69.4146 52.3222 67.2626 48.2871 67.2626 48.2871" stroke="black" stroke-width="2" stroke-miterlimit="10" stroke-linejoin="round"/>
<path d="M43.1288 26.2815C42.9138 21.2835 47.5338 19.8605 49.8478 20.0105C52.1628 20.1595 56.1948 22.3995 55.7468 26.5805C55.2988 30.7615 52.9839 33.3745 49.3259 32.7775C45.6669 32.1805 43.3528 31.5085 43.1288 26.2815Z" stroke="black" stroke-width="2" stroke-miterlimit="10" stroke-linejoin="round"/>
<path d="M52.6488 32.5352C52.6488 32.5352 52.5408 34.4501 53.2638 35.6431" stroke="black" stroke-width="2" stroke-miterlimit="10" stroke-linejoin="round"/>
<path d="M46.1078 32.1016C46.1078 32.1016 46.6858 35.1736 45.6738 36.0046" stroke="black" stroke-width="2" stroke-miterlimit="10" stroke-linejoin="round"/>
</svg>
