<svg width="100" height="100" viewBox="0 0 100 100" fill="none" xmlns="http://www.w3.org/2000/svg">
<path d="M56.3552 40.9434C53.2061 48.7444 48.7974 65.2911 56.3552 69.0701C63.9129 72.8491 69.0922 69.15 70.0942 67.5755" stroke="black" stroke-width="2" stroke-linecap="round"/>
<path d="M35.5838 40.8291C38.7329 48.6301 43.1416 65.1769 35.5838 68.9558C28.026 72.7348 18.6488 61.5867 17.6468 60.0121" stroke="black" stroke-width="2" stroke-linecap="round"/>
<path d="M64.5652 29.7709L64.855 30.728L68.0785 29.7518L64.8446 28.8107L64.5652 29.7709ZM64.5485 29.766L64.1247 28.8603L61.714 29.988L64.2709 30.7267L64.5485 29.766ZM85.2267 66.5151L84.5791 65.7531L85.2267 66.5151ZM73.4768 68.7401L73.6039 67.7482L73.4768 68.7401ZM70.8464 45.1248L71.7463 44.6886L71.6951 44.583L71.6208 44.4922L70.8464 45.1248ZM64.786 37.7061L65.5604 37.0734L65.1216 36.5362L64.4647 36.7591L64.786 37.7061ZM56.908 40.3786L56.5868 39.4316L56.2855 39.5338L56.0986 39.7913L56.908 40.3786ZM52.1696 57.6496L51.1806 57.5012L51.1624 57.6224L51.1741 57.7444L52.1696 57.6496ZM48.5139 52.2455L47.6035 52.6593L48.5139 52.2455ZM59.3524 32.7832L59.953 33.5828L60.0064 33.5427L60.0541 33.4958L59.3524 32.7832ZM60.6193 31.7386L60.0532 30.9142L60.6193 31.7386ZM68.7778 68.8772L68.2577 68.0232L69.1495 69.8056L68.7778 68.8772ZM64.8446 28.8107C64.8382 28.8089 64.832 28.8071 64.826 28.8053L64.2709 30.7267C64.2761 30.7282 64.281 30.7297 64.2858 30.7311L64.8446 28.8107ZM64.9722 30.6718C65.9027 30.2365 67.0492 30.2004 68.4096 30.6028C69.7752 31.0067 71.292 31.8362 72.8737 33.0308C76.0357 35.4191 79.3039 39.1503 81.9429 43.3491C84.5836 47.5503 86.5431 52.1383 87.1632 56.2132C87.7848 60.2984 87.0416 63.66 84.5791 65.7531L85.8744 67.277C89.088 64.5454 89.813 60.3327 89.1404 55.9123C88.4662 51.4816 86.3692 46.6329 83.6362 42.2848C80.9016 37.934 77.4792 34.0031 74.0791 31.4349C72.3797 30.1514 70.6475 29.1791 68.9769 28.6849C67.3011 28.1893 65.6242 28.1588 64.1247 28.8603L64.9722 30.6718ZM84.5791 65.7531C81.1418 68.6748 77.1141 68.1981 73.6039 67.7482L73.3496 69.7319C76.7662 70.1699 81.683 70.8398 85.8744 67.277L84.5791 65.7531ZM73.6039 67.7482C72.6499 67.6259 71.7028 67.5033 70.8647 67.4844C70.0381 67.4658 69.1743 67.5408 68.4415 67.9199L69.3604 69.6963C69.6418 69.5508 70.0964 69.4676 70.8195 69.4839C71.531 69.5 72.3647 69.6057 73.3496 69.7319L73.6039 67.7482ZM69.4651 69.6338C69.764 69.4296 70.1013 69.0852 70.4347 68.6798C70.7829 68.2566 71.1728 67.7103 71.5691 67.0528C72.362 65.7377 73.1959 63.9528 73.7725 61.7769C74.9298 57.4093 75.0425 51.4889 71.7463 44.6886L69.9465 45.561C73.0179 51.8975 72.8837 57.3228 71.8392 61.2647C71.3148 63.2436 70.5592 64.8544 69.8563 66.0202C69.5048 66.6033 69.1702 67.0688 68.8902 67.4092C68.5954 67.7675 68.4008 67.9387 68.3368 67.9824L69.4651 69.6338ZM71.6208 44.4922L65.5604 37.0734L64.0115 38.3387L70.072 45.7575L71.6208 44.4922ZM64.4647 36.7591L56.5868 39.4316L57.2293 41.3256L65.1072 38.6531L64.4647 36.7591ZM53.1585 57.7979C53.5155 55.4178 54.1583 51.8706 54.9756 48.56C55.3843 46.9044 55.8331 45.3225 56.3069 43.9818C56.7877 42.6212 57.2686 41.5844 57.7174 40.9659L56.0986 39.7913C55.4748 40.6511 54.9173 41.9116 54.4212 43.3154C53.918 44.7392 53.4515 46.389 53.0339 48.0807C52.1985 51.4647 51.5446 55.0747 51.1806 57.5012L53.1585 57.7979ZM47.6035 52.6593C49.1825 56.1331 50.1769 57.8971 50.8154 58.6394C50.9729 58.8225 51.1895 59.0421 51.4654 59.1743C51.6143 59.2457 51.8358 59.3183 52.1021 59.2934C52.3902 59.2665 52.6329 59.1341 52.8068 58.9554C53.096 58.6582 53.15 58.2855 53.1669 58.1363C53.1896 57.936 53.1819 57.7315 53.1651 57.5548L51.1741 57.7444C51.1837 57.8458 51.181 57.8995 51.1797 57.911C51.1726 57.9735 51.1736 57.7659 51.3734 57.5606C51.5026 57.4278 51.6915 57.3231 51.9158 57.3021C52.1181 57.2832 52.2658 57.3401 52.3298 57.3708C52.4361 57.4217 52.4391 57.4601 52.3316 57.3352C51.9106 56.8457 51.0241 55.3513 49.4243 51.8317L47.6035 52.6593ZM58.7519 31.9836C55.9273 34.1052 52.4035 37.448 49.9427 41.11C47.5225 44.7116 45.918 48.9511 47.6035 52.6593L49.4243 51.8317C48.1998 49.1377 49.2557 45.7182 51.6027 42.2254C53.9093 38.793 57.2597 35.6057 59.953 33.5828L58.7519 31.9836ZM60.0541 33.4958C60.3904 33.1646 60.7655 32.8512 61.1853 32.563L60.0532 30.9142C59.5334 31.2711 59.0679 31.6599 58.6508 32.0707L60.0541 33.4958ZM61.1853 32.563C62.5861 31.6012 63.8248 31.0399 64.855 30.728L64.2753 28.8138C63.0326 29.1902 61.6091 29.8459 60.0532 30.9142L61.1853 32.563ZM68.4416 67.9199C68.3794 67.952 68.3181 67.9864 68.2577 68.0232L69.298 69.7313C69.3176 69.7194 69.3383 69.7077 69.3603 69.6963L68.4416 67.9199ZM69.1495 69.8056C69.2762 69.7549 69.384 69.6892 69.4651 69.6338L68.3368 67.9824C68.3331 67.985 68.3361 67.9827 68.3455 67.9774C68.3542 67.9725 68.3749 67.9614 68.4062 67.9489L69.1495 69.8056Z" fill="black"/>
<ellipse cx="60" cy="63" rx="3" ry="2" fill="black"/>
<ellipse cx="3" cy="2" rx="3" ry="2" transform="matrix(-1 0 0 1 35 60)" fill="black"/>
<path d="M33.2145 44.159C38.9412 41.3979 40.4095 34.8478 38.6785 34.1465C36.9474 33.4451 35.7542 37.8455 27.0565 34.1465C18.3588 30.4474 15.0597 40.7699 14.4349 45.6436C5.33724 51.3421 19.0747 66.9753 20.6672 63.1266C17.1751 54.7266 18.3088 52.7667 18.3088 49.6425C18.5283 45.4287 29.8935 45.7602 33.2145 44.159Z" fill="black"/>
<path d="M64.0483 51.5488C64.5613 52.1811 66.0389 53.1971 67.8449 52.2028" stroke="black" stroke-width="2" stroke-linecap="round"/>
<circle cx="26" cy="51" r="1" fill="black"/>
<path d="M56.8008 50.2334C57.2985 50.8598 58.7317 51.8596 60.4832 50.8474" stroke="black" stroke-width="2" stroke-linecap="round"/>
<circle cx="32" cy="49" r="1" fill="black"/>
</svg>
