<svg width="100" height="100" viewBox="0 0 100 100" fill="none" xmlns="http://www.w3.org/2000/svg">
<path d="M72.4921 29.0469C71.4367 30.2185 69.5074 33.002 69.5074 36.3112C69.5074 40.0649 68.5359 43.0499 65.3913 44.7695C62.9072 46.1279 60.3154 48.4058 62.1296 49.6757C63.9438 50.9457 65.5766 50.8852 65.879 52.2156C66.1813 53.546 62.3715 56.0254 64.1252 57.7791C65.879 59.5329 69.3259 59.17 68.1769 59.8957C67.0279 60.6214 63.46 62.0727 64.6695 63.4636C65.879 64.8545 66.9675 65.3383 67.0279 67.3944C67.0884 69.4504 64.3788 71.9117 66.6046 74.1673C68.7543 76.3459 73.6156 76.366 75.208 76.3459" stroke="black" stroke-width="2" stroke-linecap="round"/>
<path d="M74.4373 71.0654C71.7542 71.8199 67.1622 72.2235 68.0106 67.869C58.8624 75.7321 70.1342 78.6348 71.596 78.9005C74.649 79.4556 81.6826 77.3149 84.2333 74.983C88.5184 71.0654 87.5287 62.0303 86.3759 63.288C85.223 64.5457 77.791 70.1222 74.4373 71.0654Z" fill="black"/>
<path d="M37.1152 29.0469C38.6677 29.6893 41.8368 32.1304 42.0938 36.7556C42.415 42.5372 42.0135 43.0993 44.9043 45.9097C47.7951 48.7202 48.9996 49.5232 48.7587 51.2095C48.5178 52.8958 45.2286 53.8466 45.2286 55.3273C45.2286 56.8099 47.0624 59.5409 45.8529 60.9455C44.3899 62.6444 40.1295 61.1716 41.0931 62.2155C42.0567 63.2594 45.7876 64.6998 44.9043 66.7876C44.021 68.8754 42.5756 70.1601 43.2983 72.4888C44.021 74.8175 45.3058 76.9053 43.6998 78.3507C42.415 79.507 38.1324 78.8325 37.1152 78.3507" stroke="black" stroke-width="2" stroke-linecap="round"/>
<path d="M38.7553 28.8411C33.0176 29.5423 41.5986 39.1082 34.387 39.1082C24.6202 39.1082 26.8715 63.5962 28.1591 65.0313C28.1779 65.0477 28.1964 65.0637 28.2146 65.0792C28.1963 65.0682 28.1778 65.0522 28.1591 65.0313C25.4779 62.7016 16.7411 52.3036 13.2465 46.2261C8.84764 38.576 29.1925 22.3384 38.7553 28.8411Z" fill="black"/>
<path d="M41.0692 31.404C37.8139 28.0235 35.2262 27.7001 34.3394 27.9609C38.4712 32.7189 36.061 38.0818 34.3394 40.1686H45.7645C45.5558 38.6556 44.3246 34.7846 41.0692 31.404Z" fill="black"/>
<path d="M40.0518 47.2649C39.811 46.4945 37.1628 45.0982 34.1294 48.8538" stroke="black" stroke-width="2" stroke-linecap="round"/>
<path d="M78.7244 43.2226C78.1831 42.0328 75.4745 39.8624 72.7091 42.0329" stroke="black" stroke-width="2" stroke-linecap="round"/>
</svg>
