<svg width="100" height="100" viewBox="0 0 100 100" fill="none" xmlns="http://www.w3.org/2000/svg">
<path d="M61.2576 42.6741C61.2576 45.846 60.4367 48.3684 57.7794 49.8215C55.6803 50.9694 53.4902 52.8942 55.0232 53.9674C56.5563 55.0405 57.936 54.9894 58.1915 56.1136C58.447 57.2378 55.2276 59.3329 56.7096 60.8149C58.1915 62.2968 61.1042 61.9902 60.1333 62.6034C59.1624 63.2166 56.1475 64.443 57.1695 65.6183C58.1915 66.7937 59.1113 67.2025 59.1624 68.9399C59.2135 70.6773 56.9239 72.7571 58.8047 74.6632C60.6212 76.5041 64.7291 76.5211 66.0747 76.5041C72.7479 77.4911 84.0635 69.7256 83.3626 54.9432" stroke="black" stroke-width="2" stroke-linecap="round"/>
<path d="M32.8936 31.1135C34.376 31.6945 37.402 33.9021 37.6474 38.0851C37.9541 43.3138 37.5707 43.8221 40.331 46.3638C43.0912 48.9056 44.2413 49.6318 44.0113 51.1568C43.7813 52.6818 40.6407 53.5417 40.6407 54.8808C40.6407 56.2216 42.3916 58.6915 41.2367 59.9617C39.8398 61.4982 35.7717 60.1662 36.6918 61.1103C37.6119 62.0544 41.1744 63.357 40.331 65.2452C39.4876 67.1333 38.1074 68.2952 38.7975 70.4012C39.4876 72.5072 40.7144 74.3953 39.1809 75.7025C37.9541 76.7482 29.266 74.9535 25.9526 72.0222" stroke="black" stroke-width="2" stroke-linecap="round"/>
<path d="M34.4289 30.9223C28.9502 31.5919 37.0737 41.7388 30.1877 41.7388C20.8256 41.7388 26.3051 72.9635 27.6007 74.3269C27.6144 74.3381 27.6277 74.3491 27.6405 74.3601C27.6278 74.3525 27.6145 74.3414 27.6007 74.3269C24.9626 72.1699 7.42904 66.4292 6.94911 63.7067C3.53905 44.362 25.2978 24.7133 34.4289 30.9223Z" fill="black"/>
<path d="M76.0176 40.9119C71.0403 42.2022 61.0401 41.438 57.2905 43.399C55.7106 44.2253 59.4328 33.0025 64.856 30.2909C71.3615 27.0381 77.5464 27.3023 83.0173 31.1041C88.3483 34.8085 98.0711 48.2102 83.3711 55.6294C83.1054 52.9199 77.7734 49.8912 77.7734 44.929" stroke="black" stroke-width="2" stroke-linecap="round"/>
<path d="M35.6973 48.5095C35.4674 47.7739 32.9387 46.4407 30.0423 50.0266" stroke="black" stroke-width="2" stroke-linecap="round"/>
<path d="M64.1423 47.3349C64.7462 48.2596 67.2857 49.727 69.3188 47.5611" stroke="black" stroke-width="2" stroke-linecap="round"/>
<path d="M40.8146 33.4024C37.3095 29.7221 30.8101 29.9195 30.0425 30.1685C33.6186 34.7117 36.0113 40.5047 34.5213 42.4972C39.3107 44.3994 44.8004 43.7732 45.3639 41.5572C45.9274 39.3412 43.7695 36.5051 40.8146 33.4024Z" fill="black"/>
<path d="M80.0374 38.5569C79.6743 39.2831 77.8578 41.4317 70.3604 41.6571" stroke="black" stroke-width="2" stroke-linecap="round"/>
</svg>
