<svg width="100" height="100" viewBox="0 0 100 100" fill="none" xmlns="http://www.w3.org/2000/svg">
<path d="M48.858 44.4969C47.4645 45.8541 44.5745 49.1506 43.2713 51.6699C41.6424 54.8192 39.9449 58.9174 39.4562 59.5689C38.9676 60.2204 36.9587 61.5235 37.3931 62.6094C37.8274 63.6953 42.8227 67.0073 43.7457 67.2244C44.6687 67.4416 45.1574 65.7585 44.2343 64.6726C43.3112 63.5867 41.8997 61.8493 42.4426 60.5462C42.9855 59.2431 50.0981 50.1759 51.2926 49.1443C52.4871 48.1128 54.2245 47.5157 54.3874 45.1266C54.5503 42.7376 53.953 35.1364 53.0843 33.3989" stroke="black" stroke-width="2" stroke-linecap="round"/>
<path d="M63.7892 60.4115C67.9554 54.1622 75.1308 53.3315 79.3489 55.601C83.5669 57.8706 85.8801 60.4527 86.8316 65.8156C87.783 71.1785 81.9044 81.6964 72.0438 79.534C62.1832 77.3716 59.6374 66.6392 63.7892 60.4115Z" stroke="black" stroke-width="2"/>
<path d="M64.5868 60.9173C68.4396 55.1379 75.0755 54.3697 78.9763 56.4686C82.8771 58.5674 85.0164 60.9554 85.8963 65.915C86.7762 70.8745 81.3397 80.6015 72.2206 78.6017C63.1015 76.6019 60.7473 66.6767 64.5868 60.9173Z" stroke="black" stroke-width="2"/>
<path d="M34.7103 79.0805C27.5189 81.2473 21.4567 77.3196 19.6488 72.884C17.841 68.4485 17.7011 64.9845 20.3816 60.2432C23.0622 55.5018 34.2917 51.1335 40.5191 59.0788C46.7464 67.0242 41.8768 76.9212 34.7103 79.0805Z" stroke="black" stroke-width="2"/>
<path d="M34.4211 78.1955C27.7627 80.2017 22.1497 76.5651 20.4759 72.4583C18.802 68.3515 18.6725 65.1442 21.1544 60.7543C23.6363 56.3643 34.0336 52.3197 39.7994 59.6762C45.5652 67.0327 41.0565 76.1962 34.4211 78.1955Z" stroke="black" stroke-width="2"/>
<path d="M73.8604 64.6961L70.2219 48.6545L51.5342 64.6961" stroke="black" stroke-width="2"/>
<path d="M73.5731 45.6904L70.0181 48.4151H52.4902" stroke="black" stroke-width="2"/>
<path d="M60.7634 27.2898C60.6686 28.7132 60.664 31.5742 61.4041 31.6312C62.3293 31.7025 66.8132 32.8411 66.8844 31.6312C66.9556 30.4214 67.9769 25.8863 67.194 24.2493C65.8228 21.3824 62.9574 21.2369 60.0594 21.2368C57.1904 21.2368 49.8743 23.1618 46.3157 25.2258C42.7571 27.2898 44.9634 27.7168 45.3193 28.1439C45.6751 28.5709 52.3852 32.5566 52.6699 32.7701C53.7416 33.353 56.8013 34.879 57.5032 34.9141C58.2051 34.9491 58.7737 33.1702 61.4041 32.7701" stroke="black" stroke-width="2" stroke-linecap="round"/>
<path d="M44.3473 27.8594C43.6772 28.9764 42.5916 31.9744 43.6102 35.0303C44.6288 38.0862 48.2903 43.057 49.72 44.9111" stroke="black" stroke-width="2" stroke-linecap="round"/>
<path d="M57.4488 35.6113C59.1637 38.3675 62.6792 44.1984 63.0222 45.4722C63.451 47.0645 57.4488 61.8676 57.4488 62.9701C57.4488 64.0725 59.5924 65.4387 60.3887 65.4387C61.1849 65.4387 62.6349 66.8341 62.3287 67.2016C62.0225 67.5691 54.6927 67.0924 54.0802 66.7861C53.4677 66.4799 54.6928 59.9877 54.8765 57.7215C55.0235 55.9086 57.4488 46.7097 57.4488 46.2135C57.4488 45.7173 54.8765 42.4097 54.8765 42.4097" stroke="black" stroke-width="2" stroke-linecap="round"/>
<path d="M45.0062 64.8071C46.5152 63.088 49.7066 63.3514 50.9909 64.807C52.5963 66.6264 51.7762 69.6132 49.4752 70.5764C47.1743 71.5396 43.7671 70.1584 44.3023 67.4827" stroke="black" stroke-width="2" stroke-linecap="round"/>
<path d="M48.0957 63.3624V53.3303" stroke="black" stroke-width="2" stroke-linecap="round"/>
<path d="M40.8782 43.3281C41.6418 42.3949 45.4386 42.2675 47.2416 42.3205L48.4083 44.6536L46.2023 46.8075C45.5483 46.3303 44.5054 45.6718 43.9539 45.29C43.2645 44.8127 39.9237 44.4947 40.8782 43.3281Z" fill="black" stroke="black" stroke-width="2" stroke-linecap="round"/>
<path d="M62.084 32.3774C62.272 34.9004 62.8832 40.2282 63.8233 41.3564C64.9984 42.7665 74.0241 45.8221 74.9643 46.1982C75.9045 46.5742 78.1609 46.9033 78.349 47.5144C78.537 48.1255 79.6182 49.2067 80.4174 49.2067C81.2165 49.2067 81.6866 46.9503 81.0755 45.9161C80.4644 44.8819 77.9259 43.6597 76.4686 43.3776C75.0113 43.0956 67.5839 39.7109 67.1608 38.5827C66.8224 37.6801 66.2677 34.0385 66.2677 32.6126" stroke="black" stroke-width="2"/>
<path d="M67.2471 25.0418C69.1657 27.4728 68.5564 30.3209 69.1657 32.2844C69.7751 34.2479 70.0583 37.1376 70.6145 37.544C72.0876 38.6206 76.2048 41.1421 78.7479 43.0244C80.2297 43.4085 80.0942 44.4293 80.2297 44.9709" stroke="black" stroke-width="2"/>
<path d="M30.4526 63.38C28.9101 63.7839 28.0658 66.1344 29.2592 67.282C30.4526 68.4295 32.3813 68.0164 33.2535 66.731C34.1257 65.4457 32.3807 62.8751 30.4526 63.38Z" stroke="black" stroke-width="2"/>
<path d="M30.3896 63.3702C31.8209 63.0388 38.2338 63.3701 38.2338 63.3701" stroke="black" stroke-width="2"/>
<path d="M30.3145 67.8735C32.2542 68.5772 45.4445 71.0811 47.7354 70.8729" stroke="black" stroke-width="2"/>
<path d="M72.73 68.8886C71.0039 67.5299 71.4843 65.5479 73.5104 64.9866C75.5365 64.4254 76.4126 66.2216 76.4126 67.0167C76.4126 67.7174 74.8876 70.587 72.73 68.8886Z" stroke="black" stroke-width="2"/>
<path d="M45.9341 55.4124L42.6889 53.4321L41.5336 55.4124L39.2235 59.8126L37.3535 62.7277L42.6889 66.633L44.3389 66.1379L43.1839 63.3878L42.3588 60.7476L45.9341 55.4124Z" fill="black"/>
<path d="M59.3413 56.617L55.3053 55.701L54.6594 59.2505L54.123 66.8585L60.7556 67.1999L61.0482 65.6392L58.6098 64.5663L57.927 62.6643L59.3413 56.617Z" fill="black"/>
<path d="M47.7411 67.4161C45.723 67.6239 41.5623 67.9148 41.0637 67.4161C40.5651 66.9175 39.016 65.9619 38.3037 65.5464" stroke="black" stroke-width="2" stroke-linecap="round"/>
<path d="M52.1621 67.5845L58.7942 68.4136" stroke="black" stroke-width="2" stroke-linecap="round"/>
<path d="M51.167 49.7253H68.4087" stroke="black" stroke-width="2" stroke-linecap="round"/>
<path d="M69.1714 25.7937C68.0217 24.7383 68.298 19.6404 69.1706 18.3317C72.4081 13.8544 78.9183 20.3165 74.441 24.8627C73.1007 26.2237 72.3928 28.7513 69.1714 25.7937Z" stroke="black" stroke-width="2" stroke-linecap="round"/>
<path d="M76.5014 17.3154C78.1013 19.6009 77.3548 20.491 76.9033 21.4633C76.4519 22.4357 75.6457 21.5453 72.9391 20.2208C70.1582 18.86 68.7012 19.8844 68.1816 19.3269C65.5842 16.5399 66.1295 16.7774 67.2877 15.5151C67.5619 15.2162 74.2946 14.1631 76.5014 17.3154Z" fill="black" stroke="black" stroke-width="2" stroke-linecap="round"/>
<path d="M77.7716 47.3135L76.9443 49.4997" stroke="black" stroke-width="2" stroke-linecap="round"/>
<path d="M71.9337 45.4229L60.3711 56.6709" stroke="black" stroke-width="2" stroke-linecap="round"/>
<path d="M69.2158 49.6077L73.6558 64.5792" stroke="black" stroke-width="2" stroke-linecap="round"/>
<path d="M67.6318 31.8198C68.2155 31.8781 69.418 31.8547 69.5581 31.2944C69.7332 30.594 69.2662 27.3834 68.6825 26.6245" stroke="black" stroke-width="2" stroke-linecap="round"/>
<path d="M67.9497 22.4604L66.5967 22.8291" stroke="black" stroke-width="2" stroke-linecap="round"/>
</svg>
