<svg width="100" height="100" viewBox="0 0 100 100" fill="none" xmlns="http://www.w3.org/2000/svg">
<path d="M22.0887 78.0729L76.1086 77.0059C76.1086 77.0059 81.7087 80.1959 78.2087 80.6849C74.6987 81.1739 34.8887 82.3969 20.9487 81.6159C16.5387 81.3689 22.0887 78.0729 22.0887 78.0729Z" stroke="black" stroke-width="2" stroke-miterlimit="10" stroke-linecap="round" stroke-linejoin="round"/>
<path d="M55.5088 76.9572C55.5088 76.9572 56.0388 74.3272 57.5388 74.2942C61.6588 74.2042 70.3488 73.5242 72.2388 74.1522C73.1888 74.4652 73.4689 77.1462 73.4689 77.1462" fill="black"/>
<path d="M55.5088 76.9572C55.5088 76.9572 56.0388 74.3272 57.5388 74.2942C61.6588 74.2042 70.3488 73.5242 72.2388 74.1522C73.1888 74.4652 73.4689 77.1462 73.4689 77.1462" stroke="black" stroke-width="2" stroke-miterlimit="10" stroke-linecap="round" stroke-linejoin="round"/>
<path d="M25.709 77.5752C25.709 77.5752 26.0589 73.9012 28.2889 73.9432C30.5189 73.9862 42.9289 73.4372 43.8989 74.4092C44.8589 75.3812 44.7789 77.3672 44.7789 77.3672" fill="black"/>
<path d="M25.709 77.5752C25.709 77.5752 26.0589 73.9012 28.2889 73.9432C30.5189 73.9862 42.9289 73.4372 43.8989 74.4092C44.8589 75.3812 44.7789 77.3672 44.7789 77.3672" stroke="black" stroke-width="2" stroke-miterlimit="10" stroke-linecap="round" stroke-linejoin="round"/>
<path d="M37.5291 33.4502C37.5291 33.4502 34.7691 34.3292 33.1791 36.7992C31.5891 39.2692 30.6191 41.2962 28.1191 43.5852C25.6291 45.8742 20.8191 51.9292 20.0491 53.9632C19.2791 55.9972 17.8992 58.7562 20.5692 59.1672C23.2492 59.5792 28.8292 59.6252 28.8292 59.6252" stroke="black" stroke-width="2" stroke-miterlimit="10" stroke-linecap="round" stroke-linejoin="round"/>
<path d="M25.8789 55.2975C25.8789 55.2975 28.379 53.1675 29.689 51.0265C30.999 48.8865 32.5089 44.9675 33.4889 44.0165C34.4789 43.0655 36.5089 42.8825 37.4989 43.3625C38.4989 43.8415 39.8189 43.1315 39.6389 42.4125C39.4489 41.6935 35.7689 39.7275 35.7689 39.7275" stroke="black" stroke-width="2" stroke-miterlimit="10" stroke-linecap="round" stroke-linejoin="round"/>
<path d="M38.0293 41.0298L39.8893 38.7148" stroke="black" stroke-width="2" stroke-miterlimit="10" stroke-linecap="round" stroke-linejoin="round"/>
<path d="M41.8994 37.751C41.8994 37.751 45.9895 46.055 50.2195 45.742C54.6395 45.414 59.8994 40.787 60.1094 36.375" stroke="black" stroke-width="2" stroke-miterlimit="10" stroke-linecap="round" stroke-linejoin="round"/>
<path d="M46.4695 44.6873C46.4695 44.6873 46.0494 49.0523 47.6794 50.1013C49.3194 51.1493 53.9294 50.5873 54.2394 48.5533C54.5494 46.5193 54.6494 44.2793 54.6494 44.2793" stroke="black" stroke-width="2" stroke-miterlimit="10" stroke-linecap="round" stroke-linejoin="round"/>
<path d="M29.2089 51.8389C29.2089 51.8389 28.5688 60.8619 29.3788 61.5699C30.1788 62.2779 35.7388 60.9239 36.9788 61.2659C38.2188 61.6079 39.5588 73.8139 39.5588 73.8139C39.5588 73.8139 42.5088 73.7379 43.8688 74.4009C44.5688 74.7399 44.8288 77.4449 44.8288 77.4449L55.4689 77.2629L56.0188 75.1279C56.0188 75.1279 56.8488 74.0459 57.8288 74.1019C59.1088 74.1739 59.3688 71.4569 59.3688 71.4569C59.3688 71.4569 61.0088 68.2189 62.2588 66.3229C63.4988 64.4359 68.3788 60.4379 68.3788 60.4379L76.5889 51.6259C76.5889 51.6259 71.5288 47.3919 67.5388 46.4649C63.5588 45.5369 54.8188 44.2909 54.8188 44.2909C54.8188 44.2909 54.3889 48.8459 53.9589 49.2869C53.0089 50.2649 49.9688 51.4919 47.9388 50.2549C45.8988 49.0179 46.3788 44.5829 46.3788 44.5829L45.3788 43.6279L31.4888 49.7709L29.2089 51.8389Z" stroke="black" stroke-width="2" stroke-miterlimit="10" stroke-linecap="round" stroke-linejoin="round"/>
<path d="M76.3189 51.541C76.3189 51.541 82.6088 55.729 80.9788 59.529C79.3488 63.33 71.2488 64.591 69.3588 66.065C66.2488 68.479 76.3989 71.071 72.7789 73.447C71.4289 74.332 64.5289 71.087 64.5289 71.087C64.5289 71.087 57.9589 74.365 59.6589 71.155C60.2389 70.051 61.4788 67.443 62.4788 66.089C64.6488 63.129 68.2389 60.969 69.2589 59.543" stroke="black" stroke-width="2" stroke-miterlimit="10" stroke-linecap="round" stroke-linejoin="round"/>
<path d="M49.1094 41.4527C49.1094 41.4527 49.3694 41.5997 50.2494 41.5897C51.1394 41.5797 51.8994 41.4287 51.8994 41.4287" stroke="black" stroke-width="2" stroke-miterlimit="10" stroke-linecap="round" stroke-linejoin="round"/>
<path d="M52.5897 33.9629L57.0995 34.3889C57.0995 34.3889 57.5196 36.2699 56.5096 37.2229C55.4996 38.1749 54.1396 38.0679 52.7696 37.5949C51.4396 37.1329 52.5897 33.9629 52.5897 33.9629Z" fill="black" stroke="black" stroke-width="2" stroke-miterlimit="10" stroke-linejoin="round"/>
<path d="M59.4894 33.9141L57.6094 35.0541" stroke="black" stroke-width="2" stroke-miterlimit="10" stroke-linejoin="round"/>
<path d="M44.609 33.6201L49.0191 33.8961C49.0191 33.8961 49.749 36.1231 48.739 37.0751C47.729 38.0281 46.6491 37.7321 45.3991 37.0821C44.1491 36.4321 44.609 33.6201 44.609 33.6201Z" fill="black" stroke="black" stroke-width="2" stroke-miterlimit="10" stroke-linejoin="round"/>
<path d="M48.9785 33.9082L52.7186 33.9732" stroke="black" stroke-width="2" stroke-miterlimit="10" stroke-linecap="round" stroke-linejoin="round"/>
<path d="M42.0586 32.7012L44.4086 34.1842" stroke="black" stroke-width="2" stroke-miterlimit="10" stroke-linejoin="round"/>
<path d="M38.9194 31.3123C38.9194 31.3123 37.8994 31.6953 37.8994 34.0883C37.9094 35.2433 37.8894 37.0453 38.7294 38.0613C39.5694 39.0763 40.6494 38.1593 41.3094 38.1553C42.1094 38.1503 41.9094 33.2773 41.6694 32.1473C41.4294 31.0163 38.9194 31.3123 38.9194 31.3123Z" fill="black" stroke="black" stroke-width="2" stroke-miterlimit="10" stroke-linecap="round" stroke-linejoin="round"/>
<path d="M39.5088 31.1391C39.5088 31.1391 40.8189 21.1194 49.4489 19.1991C54.3989 18.0965 59.1688 21.76 60.7788 25.5701C62.7688 30.2781 60.1288 32.1101 58.1388 30.8491C58.1388 30.8491 55.7888 29.9411 53.9988 28.0491C52.2188 26.1581 51.1588 23.5476 51.1588 23.5476C51.1588 23.5476 49.1188 25.9941 47.8788 28.0711C46.6388 30.1481 41.6989 31.9981 41.6989 31.9981L39.5088 31.1391Z" fill="black" stroke="black" stroke-width="2" stroke-miterlimit="10" stroke-linecap="round" stroke-linejoin="round"/>
<path d="M59.8887 31.7693L60.1987 37.1603C60.1987 37.1603 62.5087 38.8693 63.4688 37.3473C64.4388 35.8243 64.5187 32.0573 64.0487 31.0693C63.5687 30.0823 59.9987 30.8003 59.8887 31.7693Z" fill="black" stroke="black" stroke-width="2" stroke-miterlimit="10" stroke-linejoin="round"/>
</svg>
