<svg width="100" height="100" viewBox="0 0 100 100" fill="none" xmlns="http://www.w3.org/2000/svg">
<path d="M58.5721 64.6776C58.5721 64.6776 60.2681 63.6259 60.6932 63.4133C61.7122 62.9033 62.7618 62.2057 63.8604 61.931C64.3945 61.7981 64.7051 62.415 65.1869 62.294C65.3754 62.2471 66.2103 61.6248 66.4228 61.6782C66.6419 61.7327 67.225 62.2733 67.456 62.3888C67.6838 62.5022 68.3651 63.106 68.3651 63.106C68.3651 63.106 67.116 64.6874 66.7683 64.9654C65.8637 65.6891 63.9683 66.0357 62.7759 65.7381C62.134 65.5768 61.4463 65.3795 60.8098 65.252C60.2681 65.143 58.5721 64.6776 58.5721 64.6776Z" fill="black" stroke="black" stroke-width="2" stroke-miterlimit="10" stroke-linecap="round" stroke-linejoin="round"/>
<path d="M64.9415 45.465C64.3922 47.114 64.5972 47.9914 65.5498 49.5783C66.68 51.4606 69.298 53.2034 68.7922 55.7276C68.2113 58.6322 66.4696 56.8034 64.7672 57.1445C63.8288 57.332 62.8457 57.9369 62.0838 56.9211C61.6697 56.3685 62.3072 55.8224 62.3072 55.3178" stroke="black" stroke-width="2" stroke-miterlimit="10" stroke-linecap="round" stroke-linejoin="round"/>
<path d="M47.5042 47.0854C49.3853 47.1562 50.0306 46.0499 50.0306 46.0499C52.9831 43.0647 56.3684 45.6369 59.3133 46.6014" stroke="black" stroke-width="2" stroke-miterlimit="10" stroke-linecap="round" stroke-linejoin="round"/>
<path d="M65.1281 45.177C66.3553 44.001 68.4992 43.7689 70.0556 44.3563C70.6637 44.5852 72.0011 45.0822 72.4676 45.3285" stroke="black" stroke-width="2" stroke-miterlimit="10" stroke-linecap="round" stroke-linejoin="round"/>
<path d="M57.4148 41.7526C53.9946 41.0518 51.2077 40.4676 47.8922 42.0654" stroke="black" stroke-width="2" stroke-miterlimit="10" stroke-linecap="round" stroke-linejoin="round"/>
<path d="M65.0212 41.1961C67.3275 39.8315 70.0523 40.2948 71.7831 41.0533" stroke="black" stroke-width="2" stroke-miterlimit="10" stroke-linecap="round" stroke-linejoin="round"/>
<path d="M48.9701 23.2404C56.0905 23.8769 52.9919 28.8131 52.0033 29.8017C49.7963 32.0087 46.6224 35.3842 45.5968 38.46C43.7004 44.1515 43.0944 48.9548 39.4029 53.8768C32.8154 62.6593 47.478 71.8473 40.5287 78.7966C39.2993 80.025 37.6383 79.7165 35.4813 80.1329C33.9391 80.4304 29.4028 82.5612 27.89 82.9394C26.1636 83.371 24.8884 83.2282 23.319 81.6326C22.3794 80.6778 21.3167 75.6838 21.3167 74.5623C21.3167 69.6664 20.6443 67.2119 21.259 62.291C21.8781 57.3406 22.1734 56.5504 22.7892 51.624C24.3936 38.7924 26.422 23.539 38.6279 16.2159C39.9576 15.4181 42.1723 15.1347 43.6622 15.0431C46.521 14.8666 48.7608 15.2644 51.0878 15.6524C56.1101 16.4894 59.7657 18.3717 64.3226 20.6507C70.3259 23.6524 76.3074 26.1613 77.8376 33.8136C78.8839 39.042 76.9863 40.5199 77.8703 45.8212C79.3307 54.5874 79.1782 57.6512 77.1466 64.3847C76.8272 65.4452 74.8654 71.1618 74.1384 73.1934C74.0371 73.4757 73.1782 75.8778 71.6414 77.2969C70.1057 78.7149 67.6306 79.0953 67.6306 79.0953C67.6306 79.0953 60.7542 79.795 60.5733 78.8915C60.4589 78.3203 59.0747 74.4479 61.3439 74.656C65.2567 75.0125 67.6044 74.583 68.5504 73.1313C70.9657 69.4234 71.5303 67.4157 72.7619 61.3656C73.3101 58.6757 74.2321 53.0147 73.2665 48.1864C71.8888 41.3014 71.794 33.8954 66.3641 28.4643C63.5913 25.6916 54.6726 28.0229 53.0922 24.8622" fill="black"/>
<path d="M48.9701 23.2404C56.0905 23.8769 52.9919 28.8131 52.0033 29.8017C49.7963 32.0087 46.6224 35.3842 45.5968 38.46C43.7004 44.1515 43.0944 48.9548 39.4029 53.8768C32.8154 62.6593 47.478 71.8473 40.5287 78.7966C39.2993 80.025 37.6383 79.7165 35.4813 80.1329C33.9391 80.4304 29.4028 82.5612 27.89 82.9394C26.1636 83.371 24.8884 83.2282 23.319 81.6326C22.3794 80.6778 21.3167 75.6838 21.3167 74.5623C21.3167 69.6664 20.6443 67.2119 21.259 62.291C21.8781 57.3406 22.1734 56.5504 22.7892 51.624C24.3936 38.7924 26.422 23.539 38.6279 16.2159C39.9576 15.4181 42.1723 15.1347 43.6622 15.0431C46.521 14.8666 48.7608 15.2644 51.0878 15.6524C56.1101 16.4894 59.7657 18.3717 64.3226 20.6507C70.3259 23.6524 76.3074 26.1613 77.8376 33.8136C78.8839 39.042 76.9863 40.5199 77.8703 45.8212C79.3307 54.5874 79.1782 57.6512 77.1466 64.3847C76.8272 65.4452 74.8654 71.1618 74.1384 73.1934C74.0371 73.4757 73.1782 75.8778 71.6414 77.2969C70.1057 78.7149 67.6306 79.0953 67.6306 79.0953C67.6306 79.0953 60.7542 79.795 60.5733 78.8915C60.4589 78.3203 59.0747 74.4479 61.3439 74.656C65.2567 75.0124 67.6044 74.583 68.5504 73.1313C70.9657 69.4234 71.5303 67.4157 72.7619 61.3656C73.3101 58.6757 74.2321 53.0147 73.2665 48.1864C71.8888 41.3014 71.794 33.8954 66.3641 28.4643C63.5913 25.6916 54.6726 28.0229 53.0922 24.8622" stroke="black" stroke-width="2" stroke-miterlimit="10" stroke-linecap="round" stroke-linejoin="round"/>
<path d="M72.7891 61.3265C70.1427 70.497 67.6708 72.9112 66.1079 73.9673C64.1591 75.285 58.6823 74.2365 56.7946 73.6065C54.4545 72.8273 52.8088 72.6736 49.5074 71.5281C45.7941 70.2409 38.7336 65.8126 37.6459 59.0594" stroke="black" stroke-width="2" stroke-miterlimit="10" stroke-linecap="round" stroke-linejoin="round"/>
<path d="M55.9585 73.5566C53.1324 76.3839 53.0158 79.2166 51.6589 82.6084C50.9232 84.4492 44.4927 83.2384 43.1335 82.8493C41.1259 82.276 37.9553 81.3942 37.3613 80.204" stroke="black" stroke-width="2" stroke-miterlimit="10" stroke-linecap="round" stroke-linejoin="round"/>
<path d="M42.3107 72.834C43.2382 75.5184 42.9069 77.6972 47.1347 78.3206C48.8894 78.5789 53.5281 79.7549 55.2676 82.3359" stroke="black" stroke-width="2" stroke-miterlimit="10" stroke-linecap="round" stroke-linejoin="round"/>
<path d="M57.1727 81.941C56.013 81.687 54.0991 82.899 54.9732 84.4598C56.1678 86.5916 59.4255 84.4042 58.061 82.6178L57.1727 81.941Z" stroke="black" stroke-width="2" stroke-miterlimit="10" stroke-linecap="round" stroke-linejoin="round"/>
<path d="M57.1706 81.7619C57.1543 80.3864 58.3761 78.1684 56.2802 73.9385" stroke="black" stroke-width="2" stroke-miterlimit="10" stroke-linecap="round" stroke-linejoin="round"/>
<circle cx="67.4673" cy="46.6406" r="1" stroke="black" stroke-width="2"/>
<circle cx="52.4673" cy="46.6406" r="1" stroke="black" stroke-width="2"/>
</svg>
