<svg width="100" height="100" viewBox="0 0 100 100" fill="none" xmlns="http://www.w3.org/2000/svg">
<path d="M46.597 64.1306C46.597 64.1306 49.7567 64.8532 52.9251 64.5666C56.0935 64.2799 59.8722 61.0701 59.2815 61.4581C57.5649 62.5873 54.657 62.5208 54.657 62.5208L53.3774 63.9257C52.7954 64.0434 51.5377 62.8129 51.0254 62.9404C46.5785 64.0467 46.597 64.1306 46.597 64.1306Z" fill="black" stroke="black" stroke-width="2" stroke-miterlimit="10" stroke-linecap="round" stroke-linejoin="round"/>
<path d="M36.9448 47.6029C38.2625 48.343 39.2772 48.6983 40.1622 48.7724C41.0745 48.8487 41.8473 48.6263 42.6701 48.2198C43.3372 47.8907 44.0358 47.4416 44.8685 46.9326" stroke="black" stroke-width="2" stroke-miterlimit="10" stroke-linecap="round" stroke-linejoin="round"/>
<path d="M48.7299 45.4852C52.804 46.8553 48.3375 58.7517 48.3375 58.7517C48.3375 58.7517 50.4945 58.9686 51.6367 58.7234C54.2329 58.1664 56.0389 55.9626 54.1304 54.3027" stroke="black" stroke-width="2" stroke-miterlimit="10" stroke-linecap="round" stroke-linejoin="round"/>
<path d="M54.3987 45.5557C55.6673 46.4341 56.6537 46.8723 57.5256 46.9954C58.4248 47.1219 59.2008 46.9137 60.0346 46.505C60.7104 46.1736 61.4243 45.7104 62.2722 45.1895" stroke="black" stroke-width="2" stroke-miterlimit="10" stroke-linecap="round" stroke-linejoin="round"/>
<path d="M41.9878 31.1739C44.2417 29.7853 47.1681 27.0442 48.4019 25.6219C49.6357 24.1995 50.7049 21.8082 50.7049 21.8082C53.361 27.1205 59.9583 25.527 63.6422 29.211C65.8362 31.405 65.6978 38.7935 66.5403 41.4082C69.0002 49.0539 67.5136 47.939 67.809 53.5477C68.0542 58.219 66.8967 62.8294 64.5043 66.6561C63.3261 68.5416 60.5806 73.5934 60.5806 73.5934C60.5806 73.5934 58.4215 77.0877 60.5512 79.5215C61.1997 80.2615 63.4874 80.7411 64.3354 81.0713C66.9196 82.0751 67.9332 83.0408 71.0526 82.2604C72.1654 81.9825 75.7457 81.3242 78.646 81.2315C81.2007 81.1498 65.0765 80.6375 66.9109 76.0512C67.2498 75.2043 70.4455 72.3574 71.0384 71.7198C71.3523 71.3809 71.5648 70.97 71.7098 70.5111C72.2558 68.7749 72.3659 66.7967 72.5882 65.0452C72.9403 62.2713 73.0057 58.303 73.1833 55.6425C73.6247 49.0289 73.9179 47.9553 72.4989 38.5537C71.6062 32.6518 69.9136 24.0971 65.6597 19.3625C63.5877 17.0562 61.1016 15.3243 58.1 14.6094C54.0924 13.6557 50.7648 13.7287 46.6809 15.4944C45.4297 16.0361 43.3316 15.3385 39.8101 16.0622C38.1829 16.3968 34.1971 18.1767 33.1551 18.8197C27.6914 22.1886 26.1949 27.8616 24.7366 32.9668C24.0303 35.4366 23.8745 39.9063 22.7213 42.2115C21.142 45.37 21.7862 46.4905 21.093 50.1253C20.7017 52.182 21.6816 54.2016 21.5246 56.2343C21.3687 58.2681 21.6074 59.8921 22.1208 61.9455C22.6418 64.0305 22.838 65.2021 23.7535 67.2991C25.1355 70.4643 24.2701 70.2408 24.8521 72.1918C25.3415 73.8299 26.5579 74.2735 26.7094 76.0839C26.8881 78.231 27.9616 79.2609 29.4581 80.1351C30.4139 80.6931 33.4723 82.0653 33.4723 82.0653C33.4723 82.0653 37.4308 83.734 38.2167 83.9541C41.4864 84.874 44.0085 84.6669 46.1774 84.7476C48.7169 84.8413 52.0194 84.8577 54.524 85.5258C55.8798 85.8876 60.3016 85.5291 63.0133 84.7792C63.3392 84.6898 57.1234 83.5857 56.961 83.5345C53.9496 82.5852 53.4984 82.2735 50.3899 80.5133C47.2815 78.7541 45.6608 79.625 43.494 74.7029C42.5197 72.4893 39.2706 69.6217 38.8804 67.2806C38.2058 63.2327 35.3098 58.8534 34.8466 54.6899C34.3965 50.6387 32.7867 47.8496 32.7867 43.7602C32.7867 39.9019 34.1131 38.0981 34.8848 37.1826C36.7278 35.0006 39.2161 32.8829 41.9878 31.1739Z" stroke="black" stroke-width="2" stroke-miterlimit="10" stroke-linecap="round" stroke-linejoin="round"/>
<path d="M45.1071 41.7583C45.4035 41.8128 43.2346 41.2209 42.1545 41.1425C40.4205 41.016 39.4766 40.7534 37.7796 41.2427C37.6771 41.2722 35.8624 41.7822 36.0368 42.1299C36.3115 42.6792 38.4651 41.9457 38.9055 41.8814C40.8259 41.597 43.1768 41.4051 45.1071 41.7583Z" stroke="black" stroke-width="2" stroke-miterlimit="10" stroke-linecap="round" stroke-linejoin="round"/>
<path d="M53.7414 40.9093C53.4853 41.0139 55.3294 40.0602 56.2798 39.7976C57.8046 39.3768 58.6057 38.9561 60.1883 39.1469C60.2831 39.1589 61.9735 39.3496 61.8689 39.7224C61.7054 40.3109 59.2804 39.9687 59.2804 39.9687C59.2804 39.9687 55.4079 40.2303 53.7414 40.9093Z" stroke="black" stroke-width="2" stroke-miterlimit="10" stroke-linecap="round" stroke-linejoin="round"/>
<path d="M38.0543 64.2288C41.0004 70.9099 48.7268 74.9579 53.9071 74.2974C60.5196 73.4538 64.4978 66.6582 64.4978 66.6582" stroke="black" stroke-width="2" stroke-miterlimit="10" stroke-linecap="round" stroke-linejoin="round"/>
<path d="M41.5017 71.4086C38.5916 66.9312 34.9077 65.9633 32.4587 63.6767C26.2385 57.8696 28.1557 53.7977 27.4309 45.9874C26.8183 39.3792 23.9987 35.6321 24.5851 33.6484" stroke="black" stroke-width="2" stroke-miterlimit="10" stroke-linecap="round" stroke-linejoin="round"/>
<path d="M43.1879 78.1261C38.8893 76.9937 38.3814 73.5779 37.1411 72.4902C33.0103 68.8695 25.9433 68.0509 22.6855 63.6738" stroke="black" stroke-width="2" stroke-miterlimit="10" stroke-linecap="round" stroke-linejoin="round"/>
<path d="M49.8547 80.2184C42.5032 76.7426 37.4721 79.0282 31.8831 77.1917C29.4983 76.408 26.088 75.6353 24.7561 71.7148" stroke="black" stroke-width="2" stroke-miterlimit="10" stroke-linecap="round" stroke-linejoin="round"/>
<path d="M66.9664 77.5395C64.5021 72.612 65.9157 65.6529 67.6944 60.8289C68.8901 57.5864 73.6279 55.8894 73.52 50.7363" stroke="black" stroke-width="2" stroke-miterlimit="10" stroke-linecap="round" stroke-linejoin="round"/>
<path d="M67.8929 46.5274C67.3381 43.456 69.3774 42.4609 69.8155 40.7094C70.5861 37.625 71.9681 35.2762 70.9904 30.7977" stroke="black" stroke-width="2" stroke-miterlimit="10" stroke-linecap="round" stroke-linejoin="round"/>
<path d="M32.8205 45.8492C31.6423 40.6536 29.8025 38.5152 31.5475 31.2465C33.2924 23.979 37.4123 16.1458 42.5208 15.749" stroke="black" stroke-width="2" stroke-miterlimit="10" stroke-linecap="round" stroke-linejoin="round"/>
<path d="M50.4422 22.2909C51.3512 19.7906 49.5735 15.4516 45.4417 15.7274" stroke="black" stroke-width="2" stroke-miterlimit="10" stroke-linecap="round" stroke-linejoin="round"/>
<path d="M64.051 29.6648C62.0314 26.746 62.3497 23.7967 62.1459 22.6501C61.6238 19.7117 61.0788 15.4566 56.2527 14.249" stroke="black" stroke-width="2" stroke-miterlimit="10" stroke-linecap="round" stroke-linejoin="round"/>
</svg>
