<svg width="100" height="100" viewBox="0 0 100 100" fill="none" xmlns="http://www.w3.org/2000/svg">
<path d="M37.2476 70.8142C37.4951 71.1072 37.753 71.3993 38.0222 71.6908C41.6504 75.1201 49.8168 81.944 53.457 81.805C58.0071 81.6312 69.9884 70.6822 72.566 66.0268C72.8899 65.4416 73.2296 64.8274 73.5714 64.1746" stroke="black" stroke-width="2" stroke-miterlimit="10" stroke-linecap="round"/>
<path d="M34.544 49.9929C35.9826 48.8076 39.9674 46.5855 44.3984 47.1793C49.9373 47.9215 50.852 52.4436 50.9288 54.4542C50.9902 56.0626 50.4709 61.8899 51.24 62.6024C52.009 63.3148 55.6069 63.1774 55.6069 63.1774C56.2717 63.0108 57.5697 62.4031 57.443 61.3058" stroke="black" stroke-width="2" stroke-miterlimit="10" stroke-linecap="round"/>
<path d="M54.431 70.8559C53.6304 71.0059 51.9641 70.1537 51.231 69.7088C50.0716 68.7376 52.8458 69.1411 54.3779 69.4642C54.8948 69.2288 56.0708 68.8022 56.6386 68.9796C57.3484 69.2014 55.4317 70.6683 54.431 70.8559Z" fill="black" stroke="black" stroke-width="2" stroke-miterlimit="10" stroke-linecap="round"/>
<path d="M46.9329 35.8487C49.9061 33.7851 56.6254 28.8021 59.6134 26.5685C59.3183 32.7262 66.9365 37.9462 74.1059 45.3026C79.8413 51.1878 75.7322 61.1305 72.9214 65.2295C74.2268 64.2612 77.9084 61.63 80.4271 58.2022C84.5078 52.6485 83.5803 44.8114 83.0853 41.7805C82.2304 36.547 78.5023 27.2249 75.2072 21.4161C72.5711 16.7691 66.8352 13.8794 63.2679 14.0299C59.7005 14.1803 62.3208 12.5399 56.219 12.6034C48.5918 12.6827 32.7545 19.774 28.0956 25.4407C23.4367 31.1073 12.2827 44.2723 17.8632 57.2001C22.3276 67.5424 36.9856 71.3771 43.7566 72.0017C41.3911 70.1844 36.1513 64.3227 34.1155 55.4138C31.5707 44.2776 43.2163 38.4281 46.9329 35.8487Z" stroke="black" stroke-width="2" stroke-miterlimit="10" stroke-linecap="round"/>
<path d="M41.9931 81.0583C40.2863 79.6988 40.7907 76.5846 41.0568 75.4085L46.8409 79.7655L53.1385 82.8483L64.868 75.5022C65.2484 76.3039 65.8386 78.9352 65.0466 80.178C64.0565 81.7315 55.0059 87.0871 52.3235 87.073C49.6411 87.0588 44.6476 83.1725 41.9931 81.0583Z" fill="black" stroke="black" stroke-width="2"/>
<path d="M23.3826 57.5967C24.1205 60.2173 27.0676 66.2263 32.9532 69.2979" stroke="black" stroke-width="2" stroke-miterlimit="10" stroke-linecap="round"/>
<circle cx="62.0374" cy="64.9611" r="1" transform="rotate(-2.18691 62.0374 64.9611)" fill="black"/>
<path d="M45.672 56.2407C45.6527 55.7269 45.1145 54.5952 43.1155 54.1785C40.6168 53.6577 37.012 52.9283 35.7708 53.2867" stroke="black" stroke-width="2" stroke-miterlimit="10" stroke-linecap="round"/>
<path d="M42.3658 55.6838C42.4889 55.017 41.6692 54.4613 41.5896 54.4623L39.4832 54.065C38.4378 53.8678 38.6181 56.0195 39.9863 56.2776C40.8166 56.4342 42.2428 56.3505 42.3658 55.6838Z" fill="black" stroke="black" stroke-width="2" stroke-miterlimit="10" stroke-linecap="round"/>
<path d="M61.4705 54.3403C61.4505 53.8265 61.9009 52.657 63.8623 52.0891C66.314 51.3793 69.8527 50.3771 71.1176 50.6398" stroke="black" stroke-width="2" stroke-miterlimit="10" stroke-linecap="round"/>
<path d="M64.7246 53.5333C64.551 52.8779 65.326 52.2612 65.4054 52.2562L67.4754 51.6994C68.5027 51.423 68.487 53.5822 67.1425 53.9439C66.3266 54.1634 64.8981 54.1887 64.7246 53.5333Z" fill="black" stroke="black" stroke-width="2" stroke-miterlimit="10" stroke-linecap="round"/>
<path d="M60.5928 48.1413C62.6502 47.6889 67.1345 46.7701 68.6125 46.7136C70.0906 46.6571 70.8335 46.6288 71.0202 46.6217" stroke="black" stroke-width="2" stroke-miterlimit="10" stroke-linecap="round"/>
<path d="M38.3339 42.2218C39.7344 41.5482 53.4206 35.3667 59.4775 29.554L59.3711 26.7676C52.313 32.0757 36.9334 42.8954 38.3339 42.2218Z" fill="black"/>
<path d="M59.4997 25.6183C61.0642 22.081 61.6455 19.6578 62.0849 14.4468" stroke="black" stroke-width="2" stroke-miterlimit="10" stroke-linecap="round"/>
</svg>
