<svg width="100" height="100" viewBox="0 0 100 100" fill="none" xmlns="http://www.w3.org/2000/svg">
<path d="M43.8393 50.2588C43.678 51.0054 43.6246 51.3432 43.5309 52.237C43.2366 55.0795 46.0312 51.461 44.6862 50.3819C44.2928 50.0659 43.2584 52.9868 43.6519 52.7329" stroke="black" stroke-width="2" stroke-miterlimit="10" stroke-linecap="round" stroke-linejoin="round"/>
<path d="M63.3062 50.5623C63.1754 50.9133 63.0381 51.2773 62.9923 51.6457C62.6239 54.6495 65.1885 51.5105 64.2283 50.2452C63.9962 49.94 63.2474 52.7149 63.3978 52.5274" stroke="black" stroke-width="2" stroke-miterlimit="10" stroke-linecap="round" stroke-linejoin="round"/>
<path d="M35.8022 46.3193C36.7864 45.3405 39.872 44.74 42.078 45.2054C43.9156 45.5923 45.8796 46.3814 45.8796 46.3814" stroke="black" stroke-width="2" stroke-miterlimit="10" stroke-linecap="round" stroke-linejoin="round"/>
<path d="M57.6931 46.9323C57.6931 46.9323 59.9198 45.8336 60.4386 45.5884C62.9149 44.4178 64.7732 44.1748 67.3487 44.8364" stroke="black" stroke-width="2" stroke-miterlimit="10" stroke-linecap="round" stroke-linejoin="round"/>
<path d="M60.3732 29.1914C59.8075 28.4328 58.8114 27.6372 58.8114 27.6372C58.8114 27.6372 58.4027 27.1794 57.3465 26.6476C56.0964 26.0187 55.1809 25.9729 53.7476 26.1658C53.0294 26.2628 52.0343 26.5451 51.3509 26.6051C50.2992 26.6966 49.4501 26.1081 48.4463 25.901C46.2861 25.4552 43.3989 25.9337 41.5678 27.2045C34.0638 32.4099 37.3619 39.6917 35.145 46.6192C33.4251 51.9968 31.5886 53.7516 31.2768 59.5369C31.1112 62.618 30.6785 65.4943 31.3651 68.8752C31.7673 70.8567 32.1172 71.8714 32.4354 73.139C32.6599 74.0338 32.7483 76.2202 32.6349 76.3826C32.5096 76.5635 27.7041 74.1799 27.7041 74.1799C27.7041 74.1799 25.0545 72.7586 24.248 71.6774C23.1777 70.2431 23.2867 67.4889 23.1537 65.5052C23.1265 65.09 22.9587 59.2916 22.9587 59.2916C22.9587 59.2916 18.5968 59.6022 18.114 58.5875C17.7608 57.842 18.3352 55.8671 18.3984 55.0878C18.6873 51.575 19.7576 48.1298 20.6916 44.7402C24.1837 32.0655 29.3913 20.4558 42.2359 15.2721C44.1923 14.483 46.5182 13.8999 48.6578 14.0144C50.1553 14.095 51.4687 15.5021 52.903 15.7103C53.958 15.864 56.5247 14.2847 60.4669 15.5893C64.4081 16.8939 65.3465 17.3321 69.0675 20.1244C72.4277 22.6465 73.8816 27.0432 75.5666 30.7457C76.8091 33.4781 78.1203 37.6077 79.0663 40.471C80.2227 43.9685 81.6614 51.3178 82.0211 52.4916C82.3121 53.4377 78.528 54.8731 77.4893 56.9396C76.6359 58.6344 77.8304 61.7952 77.7465 63.6665C77.6386 66.0796 75.4816 68.1003 74.237 70.0131C73.2887 71.4714 71.1209 74.6137 69.5666 75.4605C69.5296 75.4801 69.4839 75.5205 69.4479 75.4997C68.9051 75.1848 68.9803 73.4496 68.8092 72.933C67.7607 69.7603 67.6724 66.084 67.0817 62.7892C66.0179 56.8535 68.1781 51.6033 68.4942 45.7374C68.6533 42.7827 68.1335 41.6579 68.1335 41.6579C68.1335 41.6579 67.3858 39.0977 66.1988 37.5064" stroke="black" stroke-width="2" stroke-miterlimit="10" stroke-linecap="round" stroke-linejoin="round"/>
<path d="M31.9547 55.3203C31.692 59.341 33.1144 68.9072 34.0059 72.117C34.8986 75.3268 41.6245 82.1279 44.6947 84.227C48.262 86.6652 52.589 86.4603 56.4756 84.202C60.3622 81.9426 68.6914 73.9742 68.6576 72.3938" stroke="black" stroke-width="2" stroke-miterlimit="10" stroke-linecap="round" stroke-linejoin="round"/>
<path d="M45.2017 71.1415C46.7897 70.3394 48.0921 70.4473 48.6109 70.5334C49.5221 70.6838 50.1085 71.7279 50.9183 71.9263C51.1057 71.972 52.2099 70.5279 52.4943 70.4745C53.8229 70.2271 54.4583 70.4091 56.2044 70.9595C56.2044 70.9595 53.1722 74.0167 50.649 73.8097C48.127 73.6026 45.2017 71.1415 45.2017 71.1415Z" fill="black" stroke="black" stroke-width="2" stroke-miterlimit="10" stroke-linecap="round" stroke-linejoin="round"/>
<path d="M53.0142 52.4199C50.6437 54.7109 50.6535 56.1245 50.8202 57.5959C51.1908 60.8657 55.1003 61.1207 54.0475 63.8684C53.4687 65.3812 51.6638 65.5425 49.1919 65.318" stroke="black" stroke-width="2" stroke-miterlimit="10" stroke-linecap="round" stroke-linejoin="round"/>
<path d="M64.9792 50.092C62.9868 49.0599 61.3454 49.1438 59.7651 49.6604C59.2016 49.8446 58.7275 50.0549 58.2065 50.3372C58.0931 50.3994 57.4937 50.7874 57.6986 50.6457" stroke="black" stroke-width="2" stroke-miterlimit="10" stroke-linecap="round" stroke-linejoin="round"/>
<path d="M45.1917 50.5407C44.1072 47.6796 39.9829 50.1799 37.438 51.0802" stroke="black" stroke-width="2" stroke-miterlimit="10" stroke-linecap="round" stroke-linejoin="round"/>
<path d="M77.2626 59.7113C76.1738 54.2661 74.7013 47.4214 72.6533 42.2999" stroke="black" stroke-width="2" stroke-miterlimit="10" stroke-linecap="round" stroke-linejoin="round"/>
<path d="M22.9629 58.8955C22.9629 52.2884 24.771 45.9571 27.7345 40.0312" stroke="black" stroke-width="2" stroke-miterlimit="10" stroke-linecap="round" stroke-linejoin="round"/>
<path d="M60.0866 29.913C60.0866 29.913 60.7111 29.2983 61.9776 27.8651C62.0452 27.7888 63.2583 26.3697 63.3803 26.41C64.1945 26.676 64.8855 30.3185 64.8855 30.3185C64.8855 30.3185 68.0691 31.6209 68.1204 32.2411C68.1978 33.1828 65.7149 34.3588 65.7149 34.3588C65.7149 34.3588 66.9116 37.3789 66.407 37.7931C66.1945 37.9686 62.6556 35.549 62.176 35.7637C61.6398 36.0045 59.2082 37.6994 58.5858 37.5479C58.515 37.5304 58.9029 35.9882 58.9084 35.9348C58.9847 35.1566 59.2103 33.4345 59.2103 33.4345C59.2103 33.4345 58.2196 32.4046 57.9624 32.3424C57.8316 32.3108 55.8435 30.955 55.8119 30.8144C55.7901 30.7185 57.0283 30.5245 57.0283 30.5245L58.7994 30.228L60.0866 29.913Z" stroke="black" stroke-width="2" stroke-miterlimit="10" stroke-linecap="round" stroke-linejoin="round"/>
<path d="M50.9106 26.3651C50.5487 26.0468 51.279 24.073 51.4555 23.6545C52.3329 21.5716 53.6756 18.0261 52.7634 15.7853" stroke="black" stroke-width="2" stroke-miterlimit="10" stroke-linecap="round" stroke-linejoin="round"/>
</svg>
