<svg width="100" height="100" viewBox="0 0 100 100" fill="none" xmlns="http://www.w3.org/2000/svg">
<path d="M75.5695 64.9365C75.7269 65.4311 76.0419 66.7442 76.0418 68.0394C76.0416 69.6585 77.8362 76.2752 78.0575 77.0752C78.359 78.1655 76.8324 77.9494 75.6086 77.9492" stroke="black" stroke-width="2" stroke-linecap="round"/>
<path d="M74.7584 64.9355C74.9158 65.4302 74.896 67.3989 74.6 68.6599C74.0599 70.9609 73.5002 72.4217 72.9924 73.7441C71.1578 78.5217 72.4057 77.9596 75.5685 77.9596" stroke="black" stroke-width="2" stroke-linecap="round"/>
<path d="M75.5198 66.3778C76.883 66.3384 77.9554 65.175 77.9151 63.7792C77.8748 62.3835 76.737 61.2839 75.3738 61.3232C74.0105 61.3626 72.9381 62.526 72.9784 63.9218C73.0187 65.3176 74.1565 66.4172 75.5198 66.3778Z" fill="black"/>
<path d="M24.4706 64.0692C24.628 64.5638 24.3124 66.4983 24.3122 67.7935C24.3121 69.4126 22.5059 75.2353 22.5059 76.6519C22.5059 77.7852 23.8718 77.3348 24.8583 77.3348" stroke="black" stroke-width="2" stroke-linecap="round"/>
<path d="M25.2788 64.0692C25.4363 64.5638 25.7512 65.8769 25.7511 67.1721C25.751 68.7912 27.3132 74.8574 27.5531 76.2535C27.7618 77.4676 25.9406 77.221 24.7642 77.3348" stroke="black" stroke-width="2" stroke-linecap="round"/>
<path d="M24.4472 65.5341C25.6094 65.5005 26.5146 64.1966 26.4691 62.6216C26.4236 61.0467 25.4447 59.7971 24.2825 59.8307C23.1204 59.8643 22.2152 61.1682 22.2606 62.7432C22.3061 64.3181 23.2851 65.5676 24.4472 65.5341Z" fill="black"/>
<path d="M31.2932 54.1854C31.6384 54.1164 45.528 46.0316 45.0441 65.7252C44.9059 66.5083 45.1685 68.0746 47.3244 68.0746C49.4804 68.0746 50.8025 67.614 51.194 67.3836" stroke="black" stroke-width="2" stroke-linecap="round"/>
<path d="M45.3908 75.2382C46.7539 75.7624 49.9046 76.6535 51.6033 76.0245" stroke="black" stroke-width="2" stroke-linecap="round"/>
<path d="M36.5254 62.8941C37.5186 62.8654 38.2999 62.0178 38.2706 61.0009C38.2412 59.984 37.4123 59.1829 36.4191 59.2116C35.4259 59.2403 34.6446 60.0879 34.674 61.1048C34.7033 62.1217 35.5323 62.9227 36.5254 62.8941Z" fill="black"/>
<path d="M55.8234 61.0948C56.883 60.0122 59.7345 57.9851 62.6644 58.538C65.5943 59.0908 66.6494 60.4729 66.8108 61.0948" stroke="black" stroke-width="2" stroke-linecap="round"/>
<path d="M61.9752 62.7905C62.9683 62.7619 63.7496 61.9143 63.7203 60.8974C63.6909 59.8805 62.862 59.0794 61.8688 59.1081C60.8756 59.1368 60.0943 59.9844 60.1237 61.0013C60.153 62.0181 60.982 62.8192 61.9752 62.7905Z" fill="black"/>
<path d="M41.7966 61.5789C41.3359 60.4733 39.4056 58.3728 35.3702 58.815C31.3348 59.2572 30.925 60.4734 31.2245 61.0262" stroke="black" stroke-width="2" stroke-linecap="round"/>
<path d="M55.8234 55.1527C57.574 54.4616 61.7661 53.2869 64.5302 54.1161" stroke="black" stroke-width="2" stroke-linecap="round"/>
<path d="M66.7897 31.828C64.193 33.8999 56.8442 38.2043 48.2228 38.8464C37.4461 39.6491 37.6756 45.2666 38.5927 46.5277C39.3265 47.5366 41.0363 48.9351 40.6561 49.2792C40.2758 49.6232 37.584 49.4244 36.1473 48.137C34.7106 46.8496 33.919 44.94 33.7028 44.1461" stroke="black" stroke-width="2" stroke-linecap="round"/>
<path d="M30.9588 49.0849C30.3106 49.1847 27.4669 50.4321 23.6757 47.788C19.8844 45.1439 18.8869 39.2076 19.5354 36.3142C20.1839 33.4208 21.4309 32.4728 24.8232 29.3299C28.2154 26.1871 29.263 23.1939 32.5056 20.6497C35.7482 18.1056 39.7391 17.1577 48.0202 16.7586C56.3013 16.3595 55.4034 14.1148 59.0949 13.9652C62.7865 13.8155 69.9202 15.9606 71.5665 21.3483C73.2127 26.736 74.6594 27.9331 76.2558 29.3299C77.8521 30.7268 81.0947 36.4138 80.5959 39.856C80.097 43.2981 75.5075 53.2254 75.3079 54.1733C75.1483 54.9315 73.1535 59.2636 73.3125 57.9147C73.4715 56.5658 72.8535 51.9982 71.0177 51.0803C68.723 49.933 63.3852 48.1371 63.4849 44.8446C63.5647 42.2106 65.7464 35.1001 66.8273 31.8742" stroke="black" stroke-width="2" stroke-linecap="round"/>
<path d="M27.2163 50.0389C27.5157 51.444 27.9349 54.3508 27.2163 54.7377C26.318 55.2214 21.7576 55.1523 24.6598 61.7168C27.562 68.2814 39.1707 85.5564 45.1824 86.8002C51.1941 88.044 60.4536 82.7924 66.6726 73.3948C68.521 70.6016 70.3511 68.2418 71.9434 66.1377C72.3171 65.6439 72.8475 65.3006 73.3806 64.9856C76.5939 63.0875 77.9164 57.0517 76.3466 53.1484" stroke="black" stroke-width="2" stroke-linecap="round"/>
<path d="M72.6696 77.4264L75.0204 69.1993L77.5017 76.9694L72.6696 77.4264Z" fill="black"/>
<path d="M22.5065 76.7379L24.8573 68.5109L27.3386 76.2809L22.5065 76.7379Z" fill="black"/>
<path d="M36.5466 48.7855C35.5822 49.1181 33.2641 49.5837 31.7077 48.7855C29.7621 47.7877 27.2681 46.1914 27.7669 43.1483" stroke="black" stroke-width="2" stroke-linecap="round"/>
<path d="M74.9597 37.8055C74.9597 38.2249 74.9597 39.4254 74.9597 40.8725" stroke="black" stroke-width="2" stroke-linecap="round"/>
<path d="M31.0783 37.7265C31.5238 36.573 32.6823 34.1561 33.7518 33.7157" stroke="black" stroke-width="2" stroke-linecap="round"/>
<path d="M43.2673 35.3677C45.2073 34.8958 49.1816 33.952 49.5589 33.952" stroke="black" stroke-width="2" stroke-linecap="round"/>
<path d="M50.7385 28.3688L55.1424 26.4813" stroke="black" stroke-width="2" stroke-linecap="round"/>
<path d="M41.8908 25.9301L44.6434 24.829" stroke="black" stroke-width="2" stroke-linecap="round"/>
</svg>
