<svg width="100" height="100" viewBox="0 0 100 100" fill="none" xmlns="http://www.w3.org/2000/svg">
<path d="M49.0714 73.6886C48.2798 73.8554 46.7104 73.4259 45.9822 72.9128C44.8289 71.7955 47.1253 72.1108 48.7722 72.1108C49.7452 72.1109 50.7674 71.9047 51.3304 72.1109C52.0343 72.3686 50.0608 73.48 49.0714 73.6886Z" fill="black" stroke="black" stroke-width="2" stroke-miterlimit="10" stroke-linecap="round"/>
<path d="M42.9828 35.3433C40.2353 39.3436 35.7781 45.8808 33.5846 49.8408C32.2037 52.3338 31.457 64.5442 31.5132 66.5177C31.5694 68.4913 31.7884 80.2206 29.2529 79.4157C26.7333 78.6158 24.0308 76.9294 23.9969 76.9083C23.9958 76.9076 23.996 76.9077 23.995 76.9071L18.0534 73.2206C18.0073 73.192 17.9601 73.168 17.9114 73.1438C17.4234 72.9016 14.687 71.2923 16.1916 66.2625C17.4787 61.9602 19.4902 56.8811 21.8683 53.1057C25.7086 47.0091 29.4576 38.4277 29.4576 38.4277" stroke="black" stroke-width="2" stroke-linecap="round"/>
<path d="M35.2213 49.9821C37.387 49.8701 41.6456 50.4263 43.7964 53.1148C46.4849 56.4754 44.3561 64.3168 45.1403 64.9889C45.9245 65.6611 49.5092 64.9889 49.7332 64.9889" stroke="black" stroke-width="2" stroke-miterlimit="10" stroke-linecap="round"/>
<path d="M53.1812 35.1084C55.8956 38.5116 60.7953 44.7932 62.3706 47.3144C66.2029 53.4475 66.3069 63.2424 67.2072 65.4002C68.1076 67.558 69.832 79.2395 71.5929 79.0781C73.3538 78.9166 76.5527 77.9494 79.2026 76.8044C81.8526 75.6594 85.8743 71.5495 84.5025 67.3261C82.8043 62.0984 81.6022 60.2237 79.9835 56.8398C78.3648 53.456 76.6308 50.3142 76.6308 50.3142C76.6308 50.3142 73.6662 44.9097 70.9322 40.2928" stroke="black" stroke-width="2" stroke-linecap="round"/>
<path d="M66.4596 61.8118C62.9709 75.7667 57.4097 82.9111 48.7437 83.785C40.0777 84.6589 33.8894 73.9109 32.4626 66.7756L31.8191 60.0674" stroke="black" stroke-width="2" stroke-miterlimit="10" stroke-linecap="round"/>
<path d="M54.6846 51.4183C55.7821 51.089 58.427 50.4745 60.2264 50.6501C62.0259 50.8257 63.3859 51.2354 64.4466 51.4183" stroke="black" stroke-width="2" stroke-miterlimit="10" stroke-linecap="round"/>
<path d="M67.5798 62.8253C66.991 58.0559 61.9391 47.8067 59.4868 43.2783L66.1083 51.5858C68.101 59.372 72.0864 75.1789 72.0864 76.1172C72.0864 77.29 72.8221 78.756 72.0864 78.8538C71.3506 78.9515 68.3158 68.787 67.5798 62.8253Z" fill="black"/>
<path d="M55.8265 57.1925C55.9091 56.7523 56.5183 55.8464 58.2942 55.7442C60.514 55.6166 63.7136 55.4513 64.737 55.9196" stroke="black" stroke-width="2" stroke-miterlimit="10" stroke-linecap="round"/>
<path d="M59.091 57.1252C59.0706 56.5349 59.6789 56.1679 59.7328 56.1796L61.1984 56.1233C61.9257 56.0953 61.6 57.922 60.6481 57.9586C60.0704 57.9808 59.1114 57.7155 59.091 57.1252Z" fill="black" stroke="black" stroke-width="2" stroke-miterlimit="10" stroke-linecap="round"/>
<path d="M41.2354 56.2764C41.1528 55.7946 40.5436 54.8033 38.7678 54.6915C36.548 54.5518 34.7826 54.1789 33.7592 54.6913" stroke="black" stroke-width="2" stroke-miterlimit="10" stroke-linecap="round"/>
<path d="M37.9591 56.2012C37.9794 55.5553 37.3774 55.1539 37.3241 55.1667L35.8734 55.1057C35.1535 55.0755 35.4752 57.0742 36.4175 57.1139C36.9893 57.1379 37.9387 56.8471 37.9591 56.2012Z" fill="black" stroke="black" stroke-width="2" stroke-miterlimit="10" stroke-linecap="round"/>
<path d="M31.0457 33.4006C30.2433 35.0403 29.1044 37.7804 29.6124 39.473C31.4633 43.0808 33.8583 38.5379 36.3623 37.068C38.8664 35.5981 45.4588 33.6985 50.1403 33.6985C54.8218 33.6985 69.4247 38.7738 70.0779 38.9074C70.7312 39.041 69.4595 34.2615 68.8063 32.1235C68.1531 29.9854 67.1732 29.3173 64.3425 27.7138C61.5118 26.1102 60.2112 21.8256 51.169 21.4334C42.1268 21.0413 37.9125 24.8302 35.6397 27.4159C32.9582 30.4666 32.4814 30.4666 31.0457 33.4006Z" stroke="black" stroke-width="2" stroke-miterlimit="10" stroke-linecap="round"/>
<path d="M29.1564 39.4929C28.995 40.009 28.0643 41.4606 27.7871 42.1307C28.8793 41.2602 36.1785 39.1471 38.3297 38.1495C42.2597 36.3269 45.6979 36.3685 50.0371 36.3685C54.3763 36.3685 69.7617 40.0926 70.3672 40.1305C70.9727 40.1685 70.9727 39.7368 70.3672 39.1296C69.7617 38.5224 68.7901 38.3056 65.7399 37.307C63.2027 36.4764 53.8717 34.2926 50.0371 34.2167C46.2024 34.1408 39.656 34.9551 35.5204 37.307C32.9001 38.7972 29.3581 38.8478 29.1564 39.4929Z" fill="black" stroke="black" stroke-width="2" stroke-miterlimit="10" stroke-linecap="round"/>
<path d="M60.5207 24.2215C57.744 21.8151 61.6777 20.4424 63.9916 20.0568C63.3101 19.4932 63.7077 19.0507 63.9916 18.9C71.8584 17.7431 68.8505 26.0726 66.3054 27.2295C63.7602 28.3863 63.9916 27.2294 60.5207 24.2215Z" fill="black" stroke="black" stroke-width="2" stroke-miterlimit="10" stroke-linecap="round"/>
<path d="M66.1569 27.2937C64.0797 25.4935 65.3643 24.1665 67.0954 23.878C66.5855 23.4564 68.5411 23.4255 68.7535 23.3127C74.6386 22.4473 72.3884 28.6785 70.4844 29.544C68.5804 30.4094 68.7535 29.5439 66.1569 27.2937Z" stroke="black" stroke-width="2" stroke-miterlimit="10" stroke-linecap="round"/>
<path d="M62.1649 20.3222C64.2421 18.7091 66.1857 19.6319 66.1857 19.6319C66.6955 19.254 62.1649 16.3308 59.5683 16.7548C51.9968 17.9915 55.3421 21.563 57.2461 22.3385C59.1501 23.1141 59.5683 22.3386 62.1649 20.3222Z" stroke="black" stroke-width="2" stroke-miterlimit="10" stroke-linecap="round"/>
</svg>
