<svg width="100" height="100" viewBox="0 0 100 100" fill="none" xmlns="http://www.w3.org/2000/svg">
<path d="M38.6443 18.1748C30.374 20.977 24.8841 32.3197 24.5604 40.2816C24.4492 43.0096 25.5914 46.4592 26.6475 48.9213C27.7113 51.3976 28.5266 57.3235 31.1446 58.6968C31.9435 59.1164 31.4944 54.7425 31.4683 54.433C31.2503 51.8325 31.6438 49.0859 32.5691 46.6467C34.4394 41.7126 37.9565 37.6145 41.3363 33.6156C42.4317 32.3197 43.5031 31.1121 44.4916 29.7236C44.9549 29.0718 45.3505 27.4838 45.3505 27.4838C45.3505 27.4838 45.3298 27.7443 45.3352 27.8751C45.3854 29.1306 47.4203 29.8652 48.387 30.5889C50.7598 32.3677 52.9363 34.0156 54.6987 36.4636C56.9821 39.6341 57.8192 43.4598 59.7941 46.7012C62.2181 50.6783 66.06 53.6461 68.448 57.5643C69.9499 60.0297 67.829 65.5095 66.7664 68C65.8774 70.0834 65.4072 70.9744 62.7664 76C60.1255 81.0267 57.2664 80.4567 57.2664 85C59.9159 83.1319 59.8102 83.9796 63.2664 81.5C66.7225 79.0204 65.9913 77.8629 68.2878 74.7992C70.5831 71.7354 71.8867 66.5997 72.7575 65.209C75.0365 61.5731 75.3199 54.2412 75.7275 50.0145C76.255 44.5453 77.8343 32.1922 73.9619 27.9906C70.4839 24.2184 68.5635 20.9933 64.3946 18.0255C62.0262 16.3394 55.0072 15.3694 51.9325 15.0729C46.8143 14.5792 42.9963 16.7012 38.6443 18.1748Z" fill="black" stroke="black" stroke-width="2" stroke-miterlimit="10" stroke-linecap="round" stroke-linejoin="round"/>
<path d="M30.0654 58.2549C30.0654 58.2549 30.4687 62.0881 30.6649 63.8091C31.0921 67.541 32.0218 71.9039 33.9891 75.1954C35.2327 77.2772 36.8992 79.1137 38.8032 80.6014C42.7248 83.6673 47.9443 86.1785 52.9699 84.6232C55.371 83.881 57.8106 81.7084 59.5 80.0005" stroke="black" stroke-width="2" stroke-miterlimit="10" stroke-linecap="round" stroke-linejoin="round"/>
<path d="M44.7751 72.8402C46.3817 71.9988 48.0928 71.2217 49.1294 71.4419C49.355 71.4898 49.9152 72.1405 50.1016 72.1307C50.9299 72.086 51.4585 71.6217 52.2901 72.0021C52.9386 72.2986 53.4759 72.704 54.0678 73.0648C54.3555 73.2402 54.9125 73.6195 54.9125 73.6195C54.9125 73.6195 54.265 73.8571 53.9086 74.0348C53.113 74.4315 52.0405 74.5503 51.1348 74.5034C50.2433 74.4566 49.732 74.6342 48.8438 74.5067C47.6394 74.3334 47.4346 74.2637 46.2389 73.7427L44.7751 72.8402Z" fill="black" stroke="black" stroke-width="2" stroke-miterlimit="10" stroke-linecap="round" stroke-linejoin="round"/>
<path d="M50.6933 51.752C51.7657 53.7029 50.8556 58.007 49.9249 59.9448C49.4475 60.9367 47.3832 63.5688 48.035 64.7536C49.0323 66.5672 51.5216 66.0451 52.9505 65.7835" stroke="black" stroke-width="2" stroke-miterlimit="10" stroke-linecap="round" stroke-linejoin="round"/>
<path d="M56.4568 52.9697C56.4568 52.9697 59.1881 51.5801 61.1358 51.5713C63.0834 51.5626 63.6071 52.4938 64.4998 52.9995" stroke="black" stroke-width="2" stroke-miterlimit="10" stroke-linecap="round" stroke-linejoin="round"/>
<path d="M37.8574 51.3918C40.4264 50.0981 41.0945 50.0033 43.4639 50.0469C45.8345 50.0905 47.3495 51.6839 47.3495 51.6839" stroke="black" stroke-width="2" stroke-miterlimit="10" stroke-linecap="round" stroke-linejoin="round"/>
<path d="M26.9561 50.1983C24.8667 48.752 24.0286 51.4735 24.0035 52.9166C23.9643 55.2228 24.2465 56.9035 25.1097 58.9503C25.8465 60.6986 26.0482 64.9776 30.3534 62.0457" stroke="black" stroke-width="2" stroke-miterlimit="10" stroke-linecap="round" stroke-linejoin="round"/>
<path d="M60.3772 48.7663C60.0296 48.3859 59.0171 48.9101 58.6334 49.0158C58.2705 49.1161 57.9413 49.2436 57.586 49.3635C56.0863 49.8692 59.3963 48.8556 60.1691 48.8535C60.3042 48.8524 60.4732 48.8709 60.3772 48.7663Z" stroke="black" stroke-width="2" stroke-miterlimit="10" stroke-linecap="round" stroke-linejoin="round"/>
<path d="M36.0797 47.8652C36.0786 47.4151 38.0067 46.7208 38.4459 46.5649C41.6568 45.4205 44.9484 46.893 47.9576 47.8859" stroke="black" stroke-width="2" stroke-miterlimit="10" stroke-linecap="round" stroke-linejoin="round"/>
<path d="M67.6229 81.5628C64.4131 83.5181 66.1199 87.117 68.97 85.0811C69.5335 84.68 70.1079 83.82 69.9728 83.0734C69.77 81.9584 68.5232 81.0146 67.6229 81.5628Z" stroke="black" stroke-width="2" stroke-miterlimit="10" stroke-linecap="round" stroke-linejoin="round"/>
<path d="M26.7653 80.6781C23.8542 80.8961 23.3877 85.162 26.8754 84.9877C29.3234 84.8645 29.064 80.5048 26.7653 80.6781Z" stroke="black" stroke-width="2" stroke-miterlimit="10" stroke-linecap="round" stroke-linejoin="round"/>
<path d="M26.7818 77.1906C26.7164 77.8957 26.7512 78.6412 26.7861 79.341C26.7948 79.5066 26.7338 80.3491 26.7785 79.8674" stroke="black" stroke-width="2" stroke-miterlimit="10" stroke-linecap="round" stroke-linejoin="round"/>
<path d="M67.7103 76.0002C67.7103 76.0002 67.7101 78.1356 67.7101 79.4707C67.7101 79.9329 67.8191 81.4849 67.7101 81.2669" stroke="black" stroke-width="2" stroke-miterlimit="10" stroke-linecap="round" stroke-linejoin="round"/>
<path d="M27.2199 63.0693C27.7158 64.3413 27.3954 68.157 27.0063 69.4639C26.2128 72.1331 23.2526 72.1156 25.318 75.0279C25.5937 75.417 26.4199 76.5995 26.8591 76.7924C27.0357 76.8698 28.1114 75.3876 28.2651 75.1772C28.5757 74.7532 29.6591 73.6971 29.7049 73.2012C29.7528 72.6715 27.9893 69.8388 27.4226 69.7865" stroke="black" stroke-width="2" stroke-miterlimit="10" stroke-linecap="round" stroke-linejoin="round"/>
<path d="M34.9473 52.949C34.992 52.8182 34.9637 52.8324 35.0356 52.9795" stroke="black" stroke-width="2" stroke-miterlimit="10" stroke-linecap="round" stroke-linejoin="round"/>
<circle cx="61.7666" cy="54" r="1" stroke="black" stroke-width="2"/>
<circle cx="43.7666" cy="52" r="1" stroke="black" stroke-width="2"/>
</svg>
