<svg width="100" height="100" viewBox="0 0 100 100" fill="none" xmlns="http://www.w3.org/2000/svg">
<path d="M21.9875 65.7201C18.6616 72.0659 20.263 79.1373 21.4794 81.8798C26.8161 81.0313 37.9733 79.216 39.9091 78.7434C41.845 78.2709 42.0184 74.5005 41.9833 73.2863L42.2383 68.2742C42.2383 67.1082 41.9833 66.0227 39.4631 63.2996C35.1109 58.5969 35.1162 47.6006 35.1684 43.7798C37.5709 40.3423 40.1645 37.5595 43.0763 35.0367C47.152 31.5054 50.5055 29.3124 54.4895 26.3302L64.2437 39.8128L64.4751 47.8271C64.7399 56.9939 61.2398 63.5448 58.5404 65.706C58.4181 67.0983 58.2951 70.7128 58.7808 74.0319C59.388 78.1809 62.8419 79.6435 68.1986 79.4888C72.484 79.3651 78.1505 80.9374 80.4481 81.7391C80.905 80.6843 81.8008 77.9502 81.7287 75.4524C81.6385 72.3302 80.5143 67.1545 77.9592 63.0619C75.4041 58.9692 72.7287 50.7136 71.1776 47.6335C69.6265 44.5535 71.2738 34.0897 70.6666 29.9408C70.0594 25.7919 66.6055 24.3292 64.5524 20.7428C62.4994 17.1566 57.5847 15.7361 52.67 14.3157L52.6697 14.3156C47.7549 12.8951 43.9192 15.0891 40.5405 16.2283C37.1617 17.3675 31.4834 23.2604 29.1387 26.453C26.794 29.6455 26.0605 37.9997 27.2749 46.2975C28.4894 54.5954 26.1448 57.7879 21.9875 65.7201Z" fill="black"/>
<path d="M43.8381 43.5925C44.5193 43.5728 45.0552 42.9915 45.035 42.294C45.0149 41.5966 44.4463 41.0471 43.7651 41.0668C43.084 41.0865 42.5481 41.6678 42.5682 42.3653C42.5884 43.0627 43.1569 43.6122 43.8381 43.5925Z" fill="black"/>
<path d="M56.1569 43.237C56.8381 43.2173 57.374 42.636 57.3539 41.9386C57.3337 41.2411 56.7652 40.6917 56.084 40.7113C55.4028 40.731 54.8669 41.3123 54.8871 42.0098C54.9072 42.7072 55.4757 43.2567 56.1569 43.237Z" fill="black"/>
<path d="M48.2016 57.64C47.8223 57.7168 46.4973 58.0714 46.2959 58.1254C46.2869 58.1278 46.2868 58.1398 46.2954 58.1436C46.4117 58.1954 46.9199 58.4146 47.5919 58.6042C48.1717 58.7678 48.8735 58.9094 49.5507 58.9021C50.947 58.8872 52.3299 58.2232 52.5296 58.1236C52.5381 58.1193 52.5364 58.1076 52.5271 58.1058C52.3219 58.0654 51.0133 57.8063 50.6117 57.6815C50.0664 57.5119 49.6053 57.4437 49.1593 57.506C48.7133 57.5683 48.8135 57.516 48.2016 57.64Z" fill="black" stroke="black" stroke-width="2" stroke-linecap="round"/>
<path d="M41.4649 41.6638C43.0416 40.8764 44.0092 40.7488 45.7731 40.9239" stroke="black" stroke-width="2" stroke-miterlimit="10" stroke-linecap="round"/>
<path d="M58.4828 41.1723C56.8266 40.6104 55.927 40.533 54.1391 40.6823" stroke="black" stroke-width="2" stroke-miterlimit="10" stroke-linecap="round"/>
<path d="M49.4354 39.3881C49.1976 41.6461 48.6299 46.5673 48.2611 48.1884C47.8001 50.2148 47.3945 51.9148 49.0109 51.6733C50.304 51.4801 51.0054 51.0313 51.1944 50.831" stroke="black" stroke-width="2" stroke-linecap="round"/>
<path d="M21.731 81.7053C21.731 81.7053 21.3603 81.8211 23.393 81.3887C28.9413 80.2086 38.7286 79.9259 40.0497 78.256C41.4789 76.6848 42.1331 68.6514 41.7586 66.6225" stroke="black" stroke-width="1.7" stroke-miterlimit="10" stroke-linecap="round"/>
<path d="M80.5007 80.8402C80.5007 80.8402 80.3823 80.478 77.5933 79.9264C71.9861 79.0684 62.1987 79.3511 60.7835 77.7602C59.266 76.2741 58.3847 68.4843 58.6416 66.4371" stroke="black" stroke-width="1.7" stroke-miterlimit="10" stroke-linecap="round"/>
<path d="M80.5906 80.7415C80.5906 80.7415 83.2122 76.8054 79.4234 67.1238C76.3753 59.4607 70.446 54.2959 71.037 41.0202" stroke="black" stroke-width="2" stroke-miterlimit="10" stroke-linecap="round"/>
<path d="M21.6493 81.6443C21.6493 81.6443 16.4379 73.3296 23.0703 63.3471C29.7028 53.3646 26.6193 44.4786 26.5902 40.0939C26.5581 35.6073 26.5498 28.5702 31.1897 23.8467C35.8296 19.1232 40.493 15.2149 45.4366 14.2562C50.3802 13.2975 57.3158 13.8111 61.6303 18.072C65.9448 22.333 70.525 25.6683 70.917 32.4903C71.309 39.3123 71.1672 41.1522 71.1672 41.1522" stroke="black" stroke-width="1.7" stroke-miterlimit="10" stroke-linecap="round"/>
<path d="M36.7731 77.904C36.7731 77.904 46.2726 86.2999 50.3716 86.1585C54.4706 86.0172 63.8139 76.9153 63.8139 76.9153" stroke="black" stroke-width="2" stroke-miterlimit="10" stroke-linecap="round"/>
<path d="M59.6985 34.1294C60.9668 35.7223 61.8658 37.4132 62.8336 38.8387C63.6943 40.1066 64.2868 41.5991 64.2297 43.1305C63.8893 52.2541 64.5827 67.5732 49.9733 67.9951C35.6939 68.4075 35.135 48.5972 35.1799 44.3316C35.1855 43.797 35.3525 43.2909 35.6552 42.8502C38.1538 39.2134 39.9745 37.9954 42.6381 35.3465C48.1984 30.2223 49.054 30.5492 54.4912 26.2C55.805 28.5958 57.5445 31.3686 59.6985 34.1294Z" stroke="black" stroke-width="2" stroke-miterlimit="10" stroke-linecap="round"/>
</svg>
