<svg width="100" height="100" viewBox="0 0 100 100" fill="none" xmlns="http://www.w3.org/2000/svg">
<circle cx="57" cy="45" r="1" fill="black" stroke="black" stroke-width="2" stroke-linecap="round"/>
<path d="M53.4644 46.1905C53.8416 45.9179 56.1345 44.0723 57.9257 44.0723C59.3587 44.0722 61.0575 45.0404 61.7278 45.5245" stroke="black" stroke-width="2" stroke-linecap="round"/>
<path d="M53.2437 41.0775C53.828 40.63 55.3186 39.6391 56.6066 39.2555C59.0089 38.5401 60.5849 38.4886 62.9058 39.7831" stroke="black" stroke-width="2" stroke-linecap="round"/>
<path d="M43.3908 39.7842C42.2222 39.1927 39.4778 37.9426 37.8487 37.6743C36.2196 37.406 33.9178 37.9783 32.9705 38.298" stroke="black" stroke-width="2" stroke-linecap="round"/>
<path d="M35.5363 27.0802C38.4651 20.2491 44.67 19.2617 47.4063 19.6219C50.616 19.6219 47.9385 15.0382 45.7123 14.048C43.4861 13.0578 34.2972 15.8636 30.3659 19.3292C26.4346 22.7948 22.4559 30.5924 21.6507 35.2545C20.8455 39.9165 20.5731 53.2651 20.5731 56.7218C20.5731 60.1784 20.3086 70.9323 20.5731 74.9266C20.8377 78.9209 20.9259 79.1513 24.0124 82.147C27.0989 85.1428 39.0141 87.1252 40.3341 86.0941C41.6542 85.063 38.4301 74.4551 37.249 70.3401C36.068 66.225 31.6391 53.0569 30.7533 46.0613C29.8675 39.0658 31.8753 35.6191 35.5363 27.0802Z" fill="black"/>
<ellipse cx="39" cy="44.5" rx="1" ry="1.5" fill="black" stroke="black" stroke-width="2" stroke-linecap="round"/>
<path d="M34.3677 44.1577C34.5324 44.0644 37.4297 42.8838 39.4041 43.4118C41.3786 43.94 42.1686 44.9652 42.6952 45.3689" stroke="black" stroke-width="2" stroke-linecap="round"/>
<path d="M48.6759 19.6078C47.7843 19.1686 47.7724 18.87 47.1762 17.9863C45.462 16.0285 43.3255 13.865 46.8034 14.048C48.0186 14.1119 52.2871 14.7794 54.1596 15.8768C56.032 16.9743 59.1974 19.2788 61.3374 21.5469C63.4774 23.8149 66.8591 30.091 68.0903 33.711C69.3215 37.3309 72.8099 46.7176 73.4768 49.3274C74.1437 51.9371 78.0425 64.5229 78.812 67.764C79.5815 71.0052 80.0945 72.5205 78.5042 74.4989C76.9139 76.4772 70.8092 80.2235 66.6026 81.36C62.3959 82.4965 62.4985 82.1597 62.6524 80.897C62.8063 79.6342 64.1461 65.1146 64.369 62.3345C64.5919 59.5544 64.8148 47.8851 64.369 45.3244C63.9232 42.7637 63.5219 38.374 62.229 34.4233C60.9361 30.4726 58.3503 25.6439 55.9875 23.193C53.6246 20.7421 49.7905 20.1568 48.6759 19.6078Z" fill="black"/>
<path d="M66.4159 47.0997C66.4159 51.811 66.3583 54.7322 64.4567 61.2912C62.5551 67.8503 60.6268 71.6685 56.1644 75.9682C51.867 80.109 48.4599 79.7293 46.0916 79.3457C44.197 79.0388 37.6145 76.1458 34.2642 71.7105" stroke="black" stroke-width="2" stroke-linecap="round"/>
<path d="M62.7358 82.1311C60.9099 81.9422 62.6857 68.5336 63.4465 61.5948C63.9639 60.4948 64.5176 57.5399 64.5906 57.1629C64.6637 56.7858 65.6274 54.1654 66.2056 52.8301L76.3407 72.155C75.9146 73.8832 74.3867 77.7953 71.6841 79.6178C68.3057 81.896 65.0183 82.3671 62.7358 82.1311Z" fill="black"/>
<path d="M46.0652 58.261C49.3146 59.084 52.7759 58.3058 52.2833 56.0305C51.6223 52.9776 47.4118 47.2356 53.0164 41.256" stroke="black" stroke-width="2" stroke-linecap="round"/>
<path d="M42.3989 64.3698C42.1047 64.4531 41.5268 64.6556 41.202 64.9131C41.1514 64.9532 41.1606 65.0294 41.2161 65.0626C43.3522 66.3439 45.5491 67.3685 49.0461 67.5029C51.813 67.6094 55.1263 66.0687 56.5531 65.2209C56.6112 65.1864 56.6161 65.1071 56.5593 65.0705C56.2526 64.8731 55.6156 64.609 55.3025 64.5515C54.9443 64.4857 53.4167 64.2883 51.9402 63.9667C50.4637 63.6451 49.8936 63.8719 49.4478 63.9667C49.0019 64.0615 48.9215 64.1788 47.7081 63.9157C46.4948 63.6525 45.1572 63.8135 44.799 63.8719C44.5125 63.9187 43.0796 64.2233 42.3989 64.3698Z" fill="black"/>
</svg>
