<svg width="100" height="100" viewBox="0 0 100 100" fill="#0037EB" xmlns="http://www.w3.org/2000/svg">
<path d="M34.1396 66.5225C18.1911 58.9594 23.0058 36.8738 27.9383 23.0627C28.2595 22.1634 29.7662 21.8556 29.7662 21.6911C28.7797 19.8826 27.1162 19.2812 28.1027 17.9658C16.0817 28.3841 22.9667 51.4584 17.9896 71.8048C17.8128 72.5278 18.4455 73.2041 19.1771 73.0672C30.6304 70.9236 36.6883 71.1083 41.0917 71.8946C40.9273 70.7437 40.7629 69.5927 40.2696 68.6062C37.9678 68.6062 36.7702 67.8379 34.1396 66.5225Z" fill="#0037EB"/>
<path d="M67.4189 18.5538C65.2815 16.8491 56.8757 9.83942 47.5039 10.3508C41.9138 10.6918 36.4879 11.3737 32.5419 13.0784C30.5689 13.9307 29.0892 14.7831 28.1027 15.9764C27.1162 17.3401 26.7874 19.0448 27.7739 20.92C27.7739 21.0905 27.9383 21.0905 27.9383 21.261C29.7469 24.159 36.6524 22.2838 36.6524 22.2838C66.9051 14.1012 54.7382 42.9107 52.272 63.5377C52.1075 64.39 52.1075 65.2424 51.9431 66.0947C51.8291 68.4591 51.7942 70.5775 52.0028 72.5068C52.1669 74.0237 53.3825 75.1593 54.8816 75.4433C55.8295 75.6229 56.8231 75.8024 57.8622 75.982C64.11 77.0048 72.3309 77.5162 84.6621 72.2316C84.3333 72.4021 83.84 72.5726 83.5112 72.7431C79.7296 64.5605 77.2634 55.8665 76.2769 46.8316C79.4008 55.1846 83.1824 63.1967 87.6216 71.0384C90.0039 69.876 89.4901 69.6628 91.2205 68.4642C91.7696 68.0838 91.845 67.2791 91.3646 66.8149C72.4166 48.5087 80.8388 29.2826 67.4189 18.5538ZM78.5787 74.2773C73.3173 75.6411 68.7137 76.1525 64.7677 75.982C63.9456 72.0612 63.4524 67.9699 63.1235 63.8786C62.7947 59.4464 62.9591 55.1846 63.2879 50.7524C63.4523 47.002 63.7812 42.9107 65.2609 39.3308C66.5763 51.9456 71.6732 63.8786 78.5787 74.2773Z" fill="#0037EB"/>
<path d="M34.7917 57.2687C34.42 57.363 33.1067 57.8204 32.9387 57.8791C32.931 57.8817 32.9296 57.8915 32.9362 57.8962C33.0275 57.961 33.5193 58.3019 34.1786 58.6057C34.7317 58.8604 35.4026 59.0889 36.054 59.1063C37.417 59.1428 38.7853 58.2344 38.948 58.1228C38.9547 58.1182 38.9535 58.1082 38.9457 58.1056C38.7772 58.0495 37.4962 57.6211 37.1081 57.4256C36.5884 57.1639 36.1469 57.0488 35.7164 57.1186C35.2858 57.1884 35.3836 57.1186 34.7917 57.2687Z" fill="#0037EB" stroke="#0037EB" stroke-width="2" stroke-linecap="round"/>
<path d="M62.2485 50.2513C61.9197 54.6836 61.4653 59.4237 61.7942 63.856C62.123 67.9472 62.8267 71.7259 63.6488 75.6468C67.5948 75.8172 73.317 75.6408 78.5783 74.1066C71.5084 63.7079 66.576 51.775 65.2607 39.1602C63.7809 42.74 62.5773 46.501 62.2485 50.2513Z" fill="#0037EB"/>
<path d="M82.0004 73.1669C82.3292 72.9965 84.3334 72.4014 84.6622 72.231C85.6487 71.89 86.6353 71.5491 87.4574 71.0377C87.4574 71.0377 88.1013 70.3837 88.1013 70.2132C83.8265 62.542 79.0662 53.3159 75.7778 44.9629C76.9288 54.1683 78.2188 64.9843 82.0004 73.1669Z" fill="#0037EB"/>
<path d="M56.7824 71.6387C57.7825 74.6587 57.374 79.9232 58.8689 83.2662" stroke="#0037EB" stroke-width="2" stroke-linecap="round"/>
<path d="M39.9165 69.6259C40.691 72.5797 41.9959 79.3148 41.0665 83.2662" stroke="#0037EB" stroke-width="2" stroke-linecap="round"/>
<path d="M63.3706 75.5727C69.4257 75.4625 80.2748 75.4563 90.737 68.0656" stroke="#0037EB" stroke-width="2" stroke-linecap="round"/>
<path d="M39.8726 69.6147C41.3818 69.6147 45.0717 69.4745 47.9027 67.0791" stroke="#0037EB" stroke-width="2" stroke-linecap="round"/>
<path d="M37.3626 31.7607C36.8925 35.2535 35.7911 42.8636 35.1462 45.3624C34.3401 48.4858 33.6346 51.1053 36.1534 50.8031C38.1685 50.5613 39.2768 49.8963 39.5791 49.594" stroke="#0037EB" stroke-width="2" stroke-linecap="round"/>
<path d="M44.9941 37.9692C44.1073 36.0346 42.8785 39.3798 42.375 41.2942C42.0649 42.4718 43.2749 43.3606 44.7626 41.6449C45.3211 41.0008 45.8809 39.9037 44.9941 37.9692Z" fill="#0037EB" stroke="#0037EB" stroke-width="2" stroke-linecap="round"/>
<path d="M31.124 38.0953C30.2578 36.2058 28.8076 39.7316 28.8076 41.3429C28.8076 42.2496 30.2703 42.9412 31.124 41.3429C31.3942 40.8368 31.8088 39.5891 31.124 38.0953Z" fill="#0037EB" stroke="#0037EB" stroke-width="2" stroke-linecap="round"/>
<path d="M44.3364 31.5511C46.8932 30.8743 50.578 32.3031 51.6311 35.5369" stroke="#0037EB" stroke-width="2" stroke-linecap="round"/>
<path d="M27.156 35.527C28.2222 33.2168 31.4684 31.9248 32.9194 31.9248" stroke="#0037EB" stroke-width="2" stroke-linecap="round"/>
</svg>
