<svg width="100" height="100" viewBox="0 0 100 100" fill="none" xmlns="http://www.w3.org/2000/svg">
<path d="M35.785 41.4132C30.8841 48.7751 30.9879 54.5939 32.9253 61.3792C34.3966 66.5286 35.1012 71.0087 37.9444 75.7406C39.8033 78.8323 41.8755 83.2615 45.5294 84.5837C51.9723 86.9165 66.1051 78.9792 68.1121 72.4866C69.8495 66.8644 71.7118 61.5371 71.1385 55.5261C70.7575 51.5221 67.615 48.5707 65.2944 45.7198C57.6243 36.2924 46.2562 30.8094 35.9672 41.1989" stroke="black" stroke-width="2" stroke-miterlimit="10" stroke-linecap="round" stroke-linejoin="round"/>
<path d="M51.0995 70.315C49.2416 68.2141 47.4003 67.6132 44.6168 68.3544C43.8171 68.5676 43.1224 68.0827 42.4243 69.0436C41.6213 70.1493 41.323 71.097 40.826 72.3308L40.8348 72.3684C42.062 73.3824 44.0833 73.8164 44.6809 73.7744C48.2685 73.527 48.5811 72.5882 50.6665 70.7436L51.0995 70.315Z" fill="black" stroke="black" stroke-width="2" stroke-miterlimit="10" stroke-linecap="round" stroke-linejoin="round"/>
<path d="M48.9093 58.9421C51.4763 62.3331 48.7437 63.7227 47.0604 63.8121C45.5626 63.8917 42.2809 65.9506 40.1325 63.5515C38.2459 61.4451 43.2065 56.5596 41.5916 53.5674C40.4484 51.4499 34.9179 52.8262 33.4875 54.9116" stroke="black" stroke-width="2" stroke-miterlimit="10" stroke-linecap="round" stroke-linejoin="round"/>
<path d="M37.3921 54.3135C37.3998 54.3345 37.4065 54.3555 37.4142 54.3764" stroke="black" stroke-width="2" stroke-miterlimit="10" stroke-linecap="round" stroke-linejoin="round"/>
<path d="M47.291 51.669C47.6555 49.0324 52.3786 47.5402 54.5623 48.4183C54.8672 48.5409 55.3024 48.827 56.2015 49.1318" stroke="black" stroke-width="2" stroke-miterlimit="10" stroke-linecap="round" stroke-linejoin="round"/>
<path d="M51.9568 50.2982C51.8761 50.2861 51.8817 50.2783 51.9535 50.3269" stroke="black" stroke-width="2" stroke-miterlimit="10" stroke-linecap="round" stroke-linejoin="round"/>
<path d="M38.0901 48.5146C36.6487 48.6848 33.2101 49.2017 32.8589 49.7142" stroke="black" stroke-width="2" stroke-miterlimit="10" stroke-linecap="round" stroke-linejoin="round"/>
<path d="M45.5249 47.1003C45.5934 46.6099 47.7925 44.8989 48.199 44.6857C51.0322 43.2001 51.769 43.1416 54.959 43.5834" stroke="black" stroke-width="2" stroke-miterlimit="10" stroke-linecap="round" stroke-linejoin="round"/>
<path d="M68.608 71.3144C69.4795 68.384 70.6558 64.264 71.3241 58.1227C71.9415 52.4386 66.7644 47.3687 65.4169 45.7085C63.4872 43.3315 58.7332 36.6346 50.1133 35.8725C39.5415 34.938 35.4635 41.2682 33.4101 45.3153C32.8589 46.4 31.4374 51.2314 31.6804 54.4003C32.1079 59.9795 33.4068 63.514 34.6538 68.2935C36.1792 74.1421 40.9233 80.828 40.9233 80.828C40.9233 80.828 39.4962 82.3898 35.7595 81.8972C32.0228 81.4045 33.5228 79.7013 30.9149 78.7404C28.306 77.7783 26.754 79.3589 24.6034 77.4017C22.4529 75.4455 21.8807 73.6373 20.7949 72.0324C19.8362 70.6152 17.7574 69.2158 16.4706 64.9345C15.1838 60.6521 17.3786 55.4099 17.3786 55.4099C17.077 50.9243 13.4287 50.0992 14.077 44.8768C14.7254 39.6545 18.2633 39.2215 20.2504 36.3938C22.0199 33.8754 19.3093 30.5374 22.0199 27.5595C24.7305 24.5817 27.8078 22.2864 27.8078 22.2864C27.8078 22.2864 28.8914 20.9234 34.3501 21.564C39.4841 22.166 39.7879 16.7062 41.754 16.7128C41.754 16.7128 45.4233 15.3244 48.1339 15.3409C50.8445 15.3575 50.7705 15.7408 53.8588 15.9275C56.946 16.1141 56.576 14.2287 61.8547 15.3686C64.2262 15.88 62.6246 18.8589 65.2225 20.6229C67.8193 22.3869 68.872 20.6329 72.2442 22.4245C75.6164 24.2161 73.6348 25.5206 75.9444 27.8998C79.2912 31.3471 79.9849 28.3913 82.2493 34.1847C83.5659 37.5547 85.8236 37.9976 86.4952 41.9751C87.1679 45.9538 84.4816 48.4534 84.2408 50.7354C83.8586 54.3672 85.9573 58.2895 85.9573 58.2895C85.9573 58.2895 86.8608 63.1208 85.0714 67.2033C83.282 71.2857 79.2228 72.4112 77.3561 74.1852C71.0016 80.2271 65.6566 76.4396 65.6566 76.4396C65.6566 76.4396 67.5189 74.9771 68.608 71.3144Z" fill="black" stroke="black" stroke-width="2" stroke-miterlimit="10" stroke-linejoin="round"/>
<path d="M55.4469 66.0879C55.4127 66.1045 55.3785 66.1221 55.3442 66.1398" stroke="black" stroke-width="2" stroke-miterlimit="10" stroke-linecap="round" stroke-linejoin="round"/>
<path d="M59.9041 61.7754C59.8014 61.8262 59.8146 61.7886 59.8654 61.8903" stroke="black" stroke-width="2" stroke-miterlimit="10" stroke-linecap="round" stroke-linejoin="round"/>
<path d="M55.3291 60.4688C55.3169 60.4434 55.3037 60.4169 55.2915 60.3915" stroke="black" stroke-width="2" stroke-miterlimit="10" stroke-linecap="round" stroke-linejoin="round"/>
<path d="M58.8656 55.9326C58.7894 55.9326 58.7121 55.9326 58.6348 55.9326" stroke="black" stroke-width="2" stroke-miterlimit="10" stroke-linecap="round" stroke-linejoin="round"/>
</svg>
