<svg width="100" height="100" viewBox="0 0 100 100" fill="none" xmlns="http://www.w3.org/2000/svg">
<path d="M53.7813 16.4378C44.772 8.42912 35.0194 22.1413 30.9268 28.9631C25.7464 37.5974 23.4108 48.5947 21.486 58.2197C20.7546 61.8796 18.3873 66.3734 19.1492 70.1848C20.359 76.2338 25.9797 81.8273 30.6467 85.327C32.3949 86.6393 33.1688 86.4278 35.9818 85.9014C37.232 85.6671 39.7878 84.9368 39.8412 84.7243C40.529 81.9701 40.0963 81.1646 39.5263 78.3167C38.9857 75.6159 37.341 73.0916 36.8156 70.4649C35.0086 61.4306 32.8996 51.8121 34.759 42.5162C35.8892 36.8672 37.3017 34.4617 40.9846 30.2187C44.3426 26.3506 48.8407 27.4078 51.3039 24.9435C52.8854 23.362 56.1322 18.5272 53.7813 16.4378Z" fill="black" stroke="black" stroke-width="2" stroke-miterlimit="10" stroke-linecap="round" stroke-linejoin="round"/>
<path d="M44.2544 44.8037C49.6462 48.4626 47.5536 52.7982 46.0386 57.7334C45.6473 59.0097 45.5253 62.5595 50.1999 61.5797" stroke="black" stroke-width="2" stroke-miterlimit="10" stroke-linecap="round" stroke-linejoin="round"/>
<path d="M53.8618 16.7148C53.8618 14.7933 58.1452 15.02 59.2427 15.3862C63.5184 16.8119 66.6051 20.1939 69.2372 23.7034C72.3293 27.8254 74.9527 33.9519 75.8072 39.0788C76.5375 43.4657 78.4361 47.6826 79.3015 52.0085C80.3467 57.2379 80.4895 62.4848 80.4895 67.9431C80.4895 69.9136 81.3909 72.3027 80.9091 74.2329C79.7026 79.0558 76.9778 81.082 73.2209 84.0869C72.1571 84.9381 70.6934 86.3964 69.307 86.6732C64.1419 87.7065 63.3669 80.0771 63.3669 76.609C63.3669 73.4602 62.7991 71.9093 63.9185 69.1114C65.9424 64.051 66.6149 62.5556 66.1114 56.8096C65.683 51.9093 69.8781 47.2586 68.5059 43.3655C66.5746 37.8843 66.7468 33.4832 62.6411 29.3775C61.1795 27.9159 58.9877 26.7944 57.8542 26.45C57.1555 26.2374 55.0618 25.5464 54.6182 25.1268C52.6127 22.8249 54.6302 20.7159 54.6302 19.0211L53.8618 16.7148Z" fill="black" stroke="black" stroke-width="2" stroke-miterlimit="10" stroke-linecap="round" stroke-linejoin="round"/>
<path d="M44.5049 67.5305C46.7022 67.0531 47.1239 65.6689 48.7 65.8182C49.9065 65.9327 50.5757 66.9779 50.9572 66.9278C51.2035 66.8962 51.3735 65.997 52.4133 65.6842C53.7234 65.2918 54.0406 66.3076 56.3882 66.2368C56.3882 66.2368 55.5239 67.5708 54.0395 68.3109C52.5539 69.052 52.2411 68.6052 50.8765 68.6531C49.4422 68.7044 49.4422 69.1665 47.7343 68.8896C46.4231 68.6771 44.5049 67.5305 44.5049 67.5305Z" fill="black" stroke="black" stroke-width="2" stroke-miterlimit="10" stroke-linecap="round" stroke-linejoin="round"/>
<path d="M36.0004 66.5001C36.0004 66.5001 43.3125 79.1672 50.4154 79.1552C54.4754 79.1487 60.0438 75.4713 63.368 70.935" stroke="black" stroke-width="2" stroke-miterlimit="10" stroke-linejoin="round"/>
<path d="M36.7817 49.3904C37.9872 49.0176 39.1316 47.7021 40.8711 47.7904C42.276 47.8612 42.8929 49.0754 44.3305 49.2618" stroke="black" stroke-width="2" stroke-miterlimit="10" stroke-linecap="round" stroke-linejoin="round"/>
<path d="M54.6357 48.7243C56.1877 48.4812 56.0526 46.6033 58.9016 46.2752C60.9594 46.0387 63.1087 47.3706 63.1087 47.3706" stroke="black" stroke-width="2" stroke-miterlimit="10" stroke-linecap="round" stroke-linejoin="round"/>
<path d="M43.9959 44.621C42.2379 43.5235 40.0057 42.4117 36.8755 44.5414" stroke="black" stroke-width="2" stroke-miterlimit="10" stroke-linecap="round" stroke-linejoin="round"/>
<path d="M54.022 45.1823C55.7746 43.3305 59.9337 40.876 64.3479 43.1419" stroke="black" stroke-width="2" stroke-miterlimit="10" stroke-linecap="round" stroke-linejoin="round"/>
<path d="M39.9034 49.0904C39.0162 49.4337 40.5628 50.8168 41.2352 49.8359C41.3562 49.6615 41.4532 49.4806 41.3475 49.2648C40.9268 48.3961 40.4189 49.631 40.8287 49.5667" stroke="black" stroke-width="2" stroke-miterlimit="10" stroke-linecap="round" stroke-linejoin="round"/>
<path d="M58.1878 47.8224C57.6908 48.2115 60.1463 49.0868 60.1224 47.9391C60.0842 46.1102 58.0461 49.1816 59.7082 47.8802" stroke="black" stroke-width="2" stroke-miterlimit="10" stroke-linecap="round" stroke-linejoin="round"/>
</svg>
