<svg width="100" height="100" viewBox="0 0 100 100" fill="none" xmlns="http://www.w3.org/2000/svg">
<path d="M47.8203 72.8715L56.886 72.5636L54.3309 67.5371" stroke="black" stroke-width="2" stroke-miterlimit="10" stroke-linejoin="round"/>
<path d="M51.3744 67.5371L47.3594 72.9305L52.0084 72.556L56.6574 72.1814L54.0511 67.5371H51.3744Z" stroke="black" stroke-width="2" stroke-miterlimit="10" stroke-linejoin="round"/>
<path d="M53.7011 67.4964C61.6854 67.4964 70.7143 57.4974 71.1134 44.8546C71.1134 25.2009 60.4764 19.5654 51.6006 19.5654" stroke="black" stroke-width="2" stroke-miterlimit="10" stroke-linejoin="round"/>
<path d="M70.1136 44.8546C69.7145 57.4974 60.6856 67.4964 52.7013 67.4964C43.755 67.4964 33.6732 57.6466 32.356 43.5866C31.6138 23.5594 41.7249 19.5654 50.6008 19.5654C59.4766 19.5654 70.1136 25.2009 70.1136 44.8546Z" stroke="black" stroke-width="2" stroke-miterlimit="10" stroke-linejoin="round"/>
<path d="M55.5866 85.7213C56.1366 85.7714 56.6231 85.3661 56.6733 84.8161C56.7234 84.2661 56.3181 83.7796 55.7681 83.7295L55.5866 85.7213ZM52.0092 72.2568C51.0116 72.1873 51.0116 72.1876 51.0115 72.1878C51.0115 72.188 51.0115 72.1883 51.0115 72.1886C51.0115 72.1892 51.0114 72.19 51.0113 72.191C51.0112 72.193 51.011 72.1957 51.0108 72.1991C51.0103 72.2059 51.0097 72.2155 51.0089 72.228C51.0073 72.2529 51.0051 72.2889 51.0025 72.3353C50.9972 72.4281 50.9901 72.5626 50.9828 72.7329C50.9682 73.0734 50.9526 73.558 50.9484 74.14C50.9399 75.3004 50.9763 76.8643 51.1593 78.4516C51.3405 80.0229 51.6734 81.6941 52.2964 83.0272C52.9142 84.3494 53.9383 85.5711 55.5866 85.7213L55.7681 83.7295C55.1624 83.6743 54.6009 83.2348 54.1083 82.1806C53.6208 81.1373 53.3185 79.7171 53.1461 78.2225C52.9757 76.7441 52.9402 75.2678 52.9483 74.1546C52.9524 73.5997 52.9672 73.1391 52.981 72.8186C52.9878 72.6584 52.9944 72.5334 52.9992 72.4494C53.0016 72.4074 53.0036 72.3757 53.0049 72.3549C53.0055 72.3445 53.006 72.3369 53.0064 72.3321C53.0065 72.3297 53.0066 72.328 53.0067 72.3271C53.0067 72.3266 53.0068 72.3263 53.0068 72.3261C53.0068 72.3261 53.0068 72.3261 53.0068 72.3261C53.0068 72.3262 53.0067 72.3263 52.0092 72.2568Z" fill="black"/>
<path d="M77.5654 66.498L73.2742 63.9293" stroke="black" stroke-width="2" stroke-miterlimit="10" stroke-linecap="round" stroke-linejoin="round"/>
<path d="M22.6494 50.3125L25.8897 54.1222" stroke="black" stroke-width="2" stroke-miterlimit="10" stroke-linecap="round" stroke-linejoin="round"/>
<path d="M83.707 39.918L80.27 43.5512" stroke="black" stroke-width="2" stroke-miterlimit="10" stroke-linecap="round" stroke-linejoin="round"/>
<path d="M56.6572 26.0557C58.7479 26.9228 63.1758 29.8361 64.1627 34.5524" stroke="black" stroke-width="2" stroke-miterlimit="10" stroke-linecap="round" stroke-linejoin="round"/>
<path d="M25.8896 25.876L21.6262 23.2614" stroke="black" stroke-width="2" stroke-miterlimit="10" stroke-linecap="round" stroke-linejoin="round"/>
</svg>
