<svg width="100" height="100" viewBox="0 0 100 100" fill="none" xmlns="http://www.w3.org/2000/svg">
<path d="M28.0339 76.0784C27.5671 86.1647 73.8183 86.4442 73.8184 76.0784C72.1711 70.4771 68.7109 62.3473 64.2322 50.8342C59.6606 39.0823 55.4567 25.4638 53.7515 23.3799C51.7243 25.2948 44.2313 40.0404 37.5645 53.7253C34.6637 59.6798 31.0176 68.7268 28.0339 76.0784Z" stroke="black" stroke-width="2" stroke-linecap="round" stroke-linejoin="round"/>
<path d="M63.3407 49.3833C57.9131 54.6028 41.6091 60.7545 33.8905 61.4994L38.9485 50.3417C42.4134 51.038 55.7003 46.0034 60.582 41.1055L63.3407 49.3833Z" fill="black"/>
<path d="M66.552 56.7173L70.501 67.2068C67.7878 71.6066 52.0059 78.0198 39.1559 82.6326C34.9925 83.2494 30.0351 79.4859 27.509 76.9599L29.5477 72.1522C33.7931 73.6917 62.3944 63.935 66.552 56.7173Z" fill="black"/>
<path d="M80.1303 78.4072C86.346 84.6229 54.7746 87.9159 38.7035 83.288C61.3047 84.9909 72.8577 81.4665 73.9894 76.1943C75.6119 76.1943 78.9935 77.2704 80.1303 78.4072Z" fill="black"/>
<path d="M58.0411 33.2174C55.3633 35.8208 48.3612 38.7723 44.7164 38.326L52.9282 24.2826L54.8253 24.5051L58.0411 33.2174Z" fill="black"/>
<path d="M63.3797 16.2415C63.3306 17.1274 59.1121 19.8261 58.776 20.1396C58.4399 20.453 59.386 26.1495 59.0086 26.5433C58.6311 26.937 54.803 23.0736 54.0378 23.1164C53.2725 23.1592 48.3638 26.674 47.8602 25.5695C47.3567 24.465 49.7823 20.2761 49.5699 19.5108C49.3576 18.7455 45.1971 15.6346 45.3413 14.6659C45.4855 13.6973 51.5917 14.2174 52.2314 13.9213C52.871 13.6251 54.0707 8.38031 54.9328 8.9009C55.7949 9.42149 57.1341 13.8322 57.7494 14.2346C58.3646 14.637 63.4287 15.3555 63.3797 16.2415Z" stroke="black" stroke-width="2"/>
</svg>
