<svg width="100" height="100" viewBox="0 0 100 100" fill="none" xmlns="http://www.w3.org/2000/svg">
<path d="M23.0012 72.7907C23.0012 72.7907 33.3936 69.6521 40.0984 70.416C42.7395 70.7169 44.0531 71.8896 46.7166 71.8408C49.1718 71.7958 50.3676 70.7962 52.7834 70.416C57.8684 69.6158 60.9341 71.2123 66.0199 70.416C70.0406 69.7865 75.9473 67.5664 75.9473 67.5664" stroke="black" stroke-width="2" stroke-linecap="round" stroke-linejoin="round"/>
<path d="M23.0012 66.7842C23.0012 66.7842 29.4623 64.4095 36.2255 64.4095C40.0861 64.4095 41.8641 66.0778 44.2497 65.7043C46.6353 65.3308 48.2232 64.4984 52.6354 64.0235C57.0476 63.5486 58.5464 64.7363 64.3653 64.4095C69.1712 64.1396 76.4988 62.5098 76.4988 62.5098" stroke="black" stroke-width="2" stroke-linecap="round" stroke-linejoin="round"/>
<path d="M56.9413 39.1876C58.6751 38.3388 60.6849 37.0623 63.3906 36.7621C67.6923 36.2847 76.3674 44.4179 78.249 48.7422C78.7351 49.8595 78.1972 51.9135 77.8116 52.3244C76.8756 53.3219 69.0774 53.6477 69.0774 53.6477C69.0774 53.6477 70.4367 60.0364 66.8346 60.0364C62.115 60.0364 63.0362 54.0943 63.0362 54.0943C53.8421 54.036 51.2665 54.3598 43.4805 55.5469C43.4805 55.5469 44.6085 60.7227 41.1683 60.7227C37.7282 60.7227 37.6721 55.9661 37.6721 55.9661C31.007 56.8963 21.9665 57.5225 21.5995 56.8615C21.1233 56.0037 21.002 53.416 22.0793 52.9634C32.603 48.5423 41.5909 45.637 49.0876 42.4186" stroke="black" stroke-width="2" stroke-linecap="round" stroke-linejoin="round"/>
<path d="M76.4988 53.1641V75.225C65.1258 77.7059 35.6055 78.0135 23.0012 79.0856V57.4247" stroke="black" stroke-width="2" stroke-linecap="round" stroke-linejoin="round"/>
<path d="M77.3742 75.7359V68.4888C78.4107 69.6405 86.2337 71.7029 84.1256 76.3754C83.3276 78.1442 79.488 78.943 75.8868 79.8347C68.5286 81.6568 41.1573 81.1898 23.5982 79.8347L77.3742 75.7359Z" fill="black"/>
<path d="M76.5047 72.3066C76.1998 76.3461 58.5177 77.299 56.7266 77.4895" stroke="black" stroke-width="2" stroke-linecap="round" stroke-linejoin="round"/>
<path d="M23.3882 58.3778C26.2717 57.4797 34.9698 56.3449 37.1443 56.9593" stroke="black" stroke-width="2" stroke-linecap="round" stroke-linejoin="round"/>
<path d="M37.6949 56.0269C37.9984 59.7298 43.1035 61.8319 43.6183 57.4561" stroke="black" stroke-width="2" stroke-linecap="round" stroke-linejoin="round"/>
<path d="M44.0714 57.0321C45.9024 55.8554 61.0692 53.743 62.7694 55.3778" stroke="black" stroke-width="2" stroke-linecap="round" stroke-linejoin="round"/>
<path d="M69.8204 55.127C70.9484 54.4222 74.4616 54.3924 76.0771 54.4659" stroke="black" stroke-width="2" stroke-linecap="round" stroke-linejoin="round"/>
<path d="M63.0139 54.2116C62.8923 57.2498 63.9861 59.2571 66.7414 58.9735C69.4967 58.6899 69.4079 56.6863 69.1644 53.688" stroke="black" stroke-width="2" stroke-linecap="round" stroke-linejoin="round"/>
<path d="M56.6396 31.6191C56.5321 32.9856 55.1829 33.4073 54.5218 33.4473" stroke="black" stroke-width="2" stroke-linecap="round" stroke-linejoin="round"/>
<path d="M49.5003 31.6191C49.3805 32.6021 50.3986 33.1173 51.1179 33.2731" stroke="black" stroke-width="2" stroke-linecap="round" stroke-linejoin="round"/>
<path d="M52.9907 30.8418L52.9907 27.2402" stroke="black" stroke-width="2" stroke-linecap="round" stroke-linejoin="round"/>
<path d="M49.5 45.8788V31.4979C49.5 28.6218 56.6395 28.6218 56.6395 31.4979C56.5529 35.6378 56.6395 44.296 56.6395 45.8788C56.6395 48.4427 49.5 49.0901 49.5 45.8788Z" stroke="black" stroke-width="2" stroke-linecap="round" stroke-linejoin="round"/>
<path d="M51.0344 47.7753C52.9002 48.4143 56.3717 48.2889 58.0377 47.5197C59.5159 46.8373 58.8613 46.2592 56.9387 46.1387" stroke="black" stroke-width="2" stroke-linecap="round" stroke-linejoin="round"/>
<path d="M56.5867 40.9395C55.2748 43.7949 50.9027 44.1944 49.6772 44.1944" stroke="black" stroke-width="2" stroke-linecap="round" stroke-linejoin="round"/>
<path d="M64.1719 40.1177C66.4017 41.288 69.2448 43.63 70.5269 46.1387" stroke="black" stroke-width="2" stroke-linecap="round" stroke-linejoin="round"/>
<path d="M56.5867 35.248C55.2748 38.1035 50.9027 38.503 49.6772 38.503" stroke="black" stroke-width="2" stroke-linecap="round" stroke-linejoin="round"/>
<path d="M53.1173 16.2119C53.5125 17.7676 48.8456 24.0386 53.1173 24.0386C56.2926 24.0386 55.3585 19.5735 53.1173 16.2119Z" stroke="black" stroke-width="2" stroke-linecap="round" stroke-linejoin="round"/>
</svg>
