<svg width="100" height="100" viewBox="0 0 100 100" fill="none" xmlns="http://www.w3.org/2000/svg">
<g clip-path="url(#clip0_65_20835)">
<path d="M38.8917 35.1181C38.8838 35.0272 38.7692 34.9846 38.7087 35.0529C38.0755 35.7674 35.7715 38.2964 33.9272 39.4069C33.862 39.4462 33.8583 39.5406 33.9214 39.5832C34.5958 40.0392 37.4863 42.1792 37.5586 45.4062C37.5611 45.5163 37.7307 45.5633 37.7821 45.4658C38.3406 44.4081 39.8241 41.7886 41.5366 40.3148C41.6018 40.2587 41.6057 40.0853 41.5438 40.0255C40.9748 39.4751 39.0944 37.4569 38.8917 35.1181Z" fill="black" stroke="black" stroke-width="2"/>
<path d="M68.6063 37.2688C68.4722 37.8046 68.7977 38.3476 69.3335 38.4818C69.8692 38.6159 70.4123 38.2904 70.5464 37.7546L68.6063 37.2688ZM71.2682 21.4072L71.6844 22.3165L71.6844 22.3165L71.2682 21.4072ZM75.4915 35.0677L74.5013 35.2076L75.4915 35.0677ZM72.6026 58.9358L71.6453 58.6469L72.6026 58.9358ZM74.8614 76.7899L73.8652 76.8775L73.8682 76.9119L73.8736 76.946L74.8614 76.7899ZM74.7621 81.0764L75.142 82.0014L74.7621 81.0764ZM70.5464 37.7546C71.3867 34.3993 71.2106 30.4829 71.1413 27.4443C71.1057 25.8828 71.0978 24.5823 71.2291 23.6129C71.2945 23.1304 71.387 22.7933 71.4911 22.573C71.5907 22.3621 71.6683 22.3238 71.6844 22.3165L70.8519 20.4979C70.281 20.7593 69.9154 21.2262 69.6828 21.7186C69.4546 22.2015 69.3256 22.7659 69.2472 23.3445C69.0911 24.4973 69.1069 25.958 69.1419 27.4898C69.2136 30.6378 69.3658 34.2362 68.6063 37.2688L70.5464 37.7546ZM71.6844 22.3165C71.7914 22.2675 71.7915 22.2935 71.7918 22.2937C71.8524 22.3263 72.0035 22.4487 72.2024 22.7981C72.5988 23.4944 72.9476 24.6608 73.2474 26.1415C73.8456 29.0958 74.1509 32.727 74.5013 35.2076L76.4816 34.9279C76.1576 32.6335 75.8188 28.7627 75.2077 25.7446C74.9028 24.2391 74.5058 22.8017 73.9405 21.8087C73.6585 21.3133 73.2749 20.8198 72.7375 20.5314C72.1399 20.2107 71.4787 20.2111 70.8519 20.4979L71.6844 22.3165ZM74.5013 35.2076C75.6101 43.0576 73.3015 53.158 71.6453 58.6469L73.56 59.2247C75.2294 53.6921 77.6551 43.2355 76.4816 34.9279L74.5013 35.2076ZM71.6453 58.6469C70.5847 62.1617 71.0914 65.589 71.8605 68.6696C72.2408 70.1932 72.709 71.7149 73.0827 73.0708C73.4656 74.4604 73.7636 75.7221 73.8652 76.8775L75.8575 76.7023C75.7392 75.3568 75.3994 73.9497 75.0108 72.5395C74.6129 71.0956 74.1757 69.6865 73.8009 68.1852C73.0597 65.2161 72.657 62.2172 73.56 59.2247L71.6453 58.6469ZM73.8736 76.946L74.3805 80.1525L76.3559 79.8403L75.8491 76.6337L73.8736 76.946ZM74.3822 80.1513C68.2341 82.6763 60.6715 85.6596 55.9001 86.6355L56.3009 88.595C61.2949 87.5735 69.0456 84.5051 75.142 82.0014L74.3822 80.1513ZM74.3805 80.1525C74.3806 80.1537 74.3805 80.1536 74.3806 80.153C74.3807 80.1526 74.3807 80.1526 74.3806 80.1528C74.3806 80.1529 74.3807 80.1526 74.3813 80.1521C74.3821 80.1514 74.3828 80.1511 74.3822 80.1513L75.142 82.0014C76.0005 81.6488 76.5003 80.7534 76.3559 79.8403L74.3805 80.1525Z" fill="black"/>
<path d="M44.3924 87.5295C44.4273 82.1985 52.9474 77.8607 56.9211 75.4201L57.6021 90.3837C52.8356 91.9987 44.3576 92.8605 44.3924 87.5295Z" fill="black"/>
<path d="M56.4012 90.7567C58.72 90.5169 78.9336 80.8573 75.2844 81.6092C71.6351 82.3612 56.0364 88.0143 56.0364 88.0143L56.4012 90.7567Z" fill="black"/>
<path d="M56.2558 85.711C55.6061 78.1645 57.4876 63.5462 49.3541 59.3259C42.3688 55.7014 34.9577 47.9827 38.0471 45.0022C41.1365 42.0217 45.579 50.9271 48.7769 49.9825C51.9748 49.0379 55.8413 48.2678 52.3172 41.1499C47.9309 32.2904 39.585 37.9091 38.2152 33.7409C37.4224 31.3284 38.3113 30.3453 44.3454 29.3751C54.6547 27.7175 59.7445 43.2057 59.264 41.7435C57.7575 37.1594 57.5345 30.1236 54.3234 26.7095C47.968 19.9524 52.2969 15.6188 56.7604 20.4904C60.1678 24.2093 62.6723 28.7864 63.5015 32.6272" stroke="black" stroke-width="2"/>
<path d="M62.4523 38.1882C62.4006 38.7381 62.8045 39.2257 63.3544 39.2774C63.9042 39.329 64.3919 38.9251 64.4435 38.3753L62.4523 38.1882ZM63.0664 17.9388L63.0065 16.9406L63.0065 16.9406L63.0664 17.9388ZM69.7242 28.8381L70.7219 28.7698L69.7242 28.8381ZM63.4479 38.2818C64.4435 38.3753 64.4435 38.3751 64.4435 38.3749C64.4435 38.3748 64.4436 38.3746 64.4436 38.3744C64.4436 38.374 64.4437 38.3735 64.4437 38.3728C64.4439 38.3716 64.444 38.3698 64.4442 38.3675C64.4446 38.363 64.4452 38.3566 64.446 38.3483C64.4475 38.3317 64.4496 38.3076 64.4523 38.2763C64.4576 38.2139 64.4652 38.1227 64.4742 38.0058C64.4922 37.7719 64.5161 37.4344 64.5397 37.0156C64.587 36.1786 64.6338 35.0133 64.6318 33.6983C64.6279 31.1001 64.4349 27.7991 63.6156 25.3064L61.7156 25.9309C62.4297 28.1037 62.6279 31.1343 62.6318 33.7013C62.6337 34.9689 62.5885 36.0945 62.5429 36.9029C62.5201 37.3067 62.4972 37.6305 62.4801 37.8522C62.4716 37.963 62.4645 38.0483 62.4596 38.1053C62.4572 38.1337 62.4553 38.1551 62.454 38.169C62.4534 38.176 62.4529 38.1811 62.4526 38.1844C62.4525 38.186 62.4524 38.1871 62.4523 38.1877C62.4523 38.1881 62.4523 38.1883 62.4523 38.1884C62.4523 38.1884 62.4523 38.1884 62.4523 38.1884C62.4523 38.1883 62.4523 38.1882 63.4479 38.2818ZM63.6156 25.3064C62.857 22.9986 62.5133 21.2467 62.553 20.1082C62.5729 19.5388 62.6859 19.239 62.7813 19.101C62.8416 19.0137 62.9151 18.9496 63.1262 18.937L63.0065 16.9406C62.2346 16.9868 61.5748 17.329 61.136 17.9638C60.7324 18.5478 60.5805 19.2858 60.5542 20.0385C60.5017 21.544 60.9406 23.5732 61.7156 25.9309L63.6156 25.3064ZM63.1262 18.937C63.2977 18.9267 63.7327 19.0612 64.4112 19.7113C65.0421 20.3158 65.7175 21.2088 66.35 22.2707C67.6254 24.4121 68.5974 27.0197 68.7265 28.9064L70.7219 28.7698C70.5637 26.4588 69.4356 23.543 68.0683 21.2473C67.3794 20.0907 66.5979 19.0367 65.7949 18.2673C65.0396 17.5435 64.0639 16.8771 63.0065 16.9406L63.1262 18.937ZM68.7265 28.9064C68.8282 30.3922 68.8737 31.8681 68.8975 33.0253C68.9203 34.1327 68.9234 35.0459 68.9418 35.276L70.9354 35.1164C70.9355 35.1173 70.9352 35.1131 70.9346 35.1019C70.934 35.0913 70.9334 35.077 70.9328 35.0587C70.9314 35.0219 70.9301 34.9742 70.9288 34.9147C70.9262 34.7957 70.9238 34.6406 70.9211 34.451C70.9157 34.074 70.9092 33.5703 70.8971 32.9842C70.873 31.8124 70.8266 30.3009 70.7219 28.7698L68.7265 28.9064Z" fill="black"/>
<path d="M28.3834 17.3994C28.3958 17.3078 28.2916 17.2422 28.2195 17.3001C27.161 18.1489 22.2084 22.0335 18.7457 23.2448C18.6716 23.2707 18.6528 23.367 18.7111 23.4196C19.5486 24.1748 23.9928 28.4846 22.8387 33.9289C22.8156 34.0379 22.9703 34.1168 23.0384 34.0286C24.0687 32.6941 27.3522 28.6623 30.7792 26.7889C30.8547 26.7476 30.8969 26.5775 30.8504 26.5051C30.2681 25.599 27.8411 21.4237 28.3834 17.3994Z" stroke="black" stroke-width="2"/>
</g>
<defs>
<clipPath id="clip0_65_20835">
<rect width="100" height="100" fill="white" transform="translate(100 100) rotate(-180)"/>
</clipPath>
</defs>
</svg>
