<svg width="100" height="100" viewBox="0 0 100 100" fill="none" xmlns="http://www.w3.org/2000/svg">
<path d="M44.3858 57.846C45.0228 53.9267 44.141 45.471 35.5176 43.0029" stroke="black" stroke-width="2"/>
<path d="M46.4339 50.396C44.6615 48.6304 49.0692 40.8882 50.3616 38.4972C52.7476 34.0829 55.6693 33.3586 57.7119 34.376C59.9275 35.4795 60.7298 38.1755 58.6699 41.256C52.1448 51.0144 48.6495 52.6031 46.4339 50.396Z" stroke="black" stroke-width="2"/>
<path d="M44.7794 32.8182C47.5894 26.9997 49.5658 15.1971 52.5147 13.1052C56.2007 10.4904 57.8857 12.4227 57.275 16.1408C56.7723 19.2008 54.514 28.6712 51.5598 36.5809" stroke="black" stroke-width="2"/>
<path d="M37.7657 35.2521C36.4253 31.8584 31.988 21.8396 31.1838 19.0802C30.1787 15.6309 31.2398 13.016 32.9152 12.571C34.5907 12.1259 37.8856 15.3527 39.952 21.1943C41.6051 25.8676 44.3826 31.2066 44.9783 32.6717M62.8917 45.5728C61.1366 47.3212 54.9963 54.27 52.6459 53.4185C49.7079 52.3543 54.8557 46.404 55.6215 45.5728C57.1685 43.8933 61.4981 39.942 64.2835 40.5122C67.0689 41.0823 68.0908 43.8536 64.2835 50.0356C61.5157 54.5298 58.915 57.9989 58.3092 66.8921C57.7034 75.7852 59.6591 86.6503 59.6591 86.6503C59.6591 86.6503 44.9783 87.7458 36.2337 84.2222L37.9446 68.5371" stroke="black" stroke-width="2"/>
<path d="M36.172 42.8596C39.6979 42.9725 46.527 40.9279 47.657 38.1904C49.0696 34.7684 45.9558 32.3197 39.6988 34.6811C36.0372 36.063 27.785 34.6167 28.0485 45.6623C28.2727 55.0554 33.5194 64.429 38.2191 69.1881" stroke="black" stroke-width="2"/>
<path d="M70.1079 82.4869C70.1079 86.0087 64.3428 86.679 60.7992 87.5569L59.5425 79.3096C62.497 79.4327 70.1079 79.9058 70.1079 82.4869Z" fill="black"/>
</svg>
