<svg width="100" height="100" viewBox="0 0 100 100" fill="none" xmlns="http://www.w3.org/2000/svg">
<path d="M83.5613 61.9404C83.7773 61.0693 83.6909 59.1963 81.6167 58.6736C79.5426 58.1509 74.2707 63.2472 71.894 65.8606L74.3337 66.9536M65.8398 65.1448C67.3523 63.4025 71.3253 59.1965 72.8809 58.6738C74.8255 58.0204 77.4599 58.2347 76.4313 60.6337C75.871 61.9405 75.871 61.9404 73.1904 64.4913L71.2669 66.4672" stroke="black" stroke-width="2"/>
<path d="M58.1311 75.4216C52.9373 74.0034 48.2858 70.4544 45.3186 69.1279C37.2948 65.5408 20.94 68.9101 19.8597 69.1279L10.3936 52.1369C10.3936 52.1369 21.3263 54.0429 24.7519 54.4235C28.1776 54.8042 37.2948 52.1371 37.2948 52.1371C40.2709 52.1372 45.3186 48.9736 50.5652 51.4787C54.6704 53.4387 63.8567 56.4528 65.4124 58.0208C66.968 59.5889 65.0312 61.9409 61.9449 63.4756C64.5377 64.5645 72.8017 67.1677 73.8388 67.1677C75.1352 67.1677 78.362 64.2456 81.6029 62.9389C84.8438 61.6322 86.8026 60.6341 88.099 61.9409C89.3953 63.2476 89.3953 65.2076 87.4508 67.1677C85.5062 69.1278 77.4211 75.4216 73.8388 76.3147C70.2566 77.2077 63.3248 76.8399 58.1311 75.4216Z" stroke="black" stroke-width="2"/>
<path d="M49.7488 59.0576C51.9295 59.911 54.6776 62.1022 58.5667 62.7555C62.4558 63.4089 64.0971 62.7245 65.3934 60.7644" stroke="black" stroke-width="2" stroke-linecap="round"/>
<path d="M63.812 38.5026C63.1978 39.6282 62.8484 40.9213 62.8484 42.2966C62.8484 46.6507 66.3501 50.1804 70.6697 50.1804C74.9894 50.1804 78.4911 46.6507 78.4911 42.2966C78.4911 38.5199 75.8564 35.3635 72.3387 34.5928" stroke="black" stroke-width="2"/>
<circle cx="66" cy="31" r="8" stroke="black" stroke-width="2"/>
<path d="M28.7711 77.9454C24.4464 77.3159 20.2185 72.7661 18.8105 69.1004L33.1244 67.5587C33.7473 71.808 33.0958 78.5748 28.7711 77.9454Z" fill="black"/>
<path d="M11.7828 43.7218C16.1075 44.3512 24.3348 51.2817 25.7428 54.9474C25.7428 54.9474 14.9228 52.8125 12.2057 52.764C9.48853 52.7155 10.4266 54.2392 10.4266 54.2392C6.38903 49.061 7.45809 43.0924 11.7828 43.7218Z" fill="black"/>
</svg>
