<svg width="100" height="100" viewBox="0 0 100 100" fill="none" xmlns="http://www.w3.org/2000/svg">
<path d="M58.531 61.6574C58.531 61.6574 51.755 67.3383 47.353 64.2193C41.537 60.0983 34.701 53.5453 34.063 45.7023C33.35 36.9473 38.24 35.7284 42.246 37.4334C46.253 39.1384 51.334 47.2254 47.586 49.9424C45.641 51.3524 39.778 44.8154 39.778 44.8154" stroke="black" stroke-width="2" stroke-miterlimit="10" stroke-linecap="round" stroke-linejoin="round"/>
<path d="M55.0977 36.708C55.0977 36.708 56.6667 37.597 57.6947 38.446C58.7217 39.295 59.3457 40.344 59.3457 40.344" stroke="black" stroke-width="2" stroke-miterlimit="10" stroke-linecap="round" stroke-linejoin="round"/>
<path d="M35.852 37.8463C35.852 37.8463 36.056 33.0593 38.268 32.2683C42.06 30.9113 51.552 37.6163 52.789 39.9213C54.994 44.0303 50.803 44.8013 48.688 43.9803" stroke="black" stroke-width="2" stroke-miterlimit="10" stroke-linecap="round" stroke-linejoin="round"/>
<path d="M39.7959 31.9119C39.7959 31.9119 41.4719 27.7979 44.3059 28.4499C47.4089 29.1649 53.4419 31.7009 54.5779 35.7949C55.1299 37.7849 52.1299 38.6749 52.1299 38.6749" stroke="black" stroke-width="2" stroke-miterlimit="10" stroke-linecap="round" stroke-linejoin="round"/>
<path d="M57.13 36.8994C57.13 36.8994 58.962 33.3253 59.408 29.1703C59.855 25.0153 62.202 21.8444 65.374 22.6044C68.546 23.3634 66.841 27.2393 65.93 32.0323C64.877 37.5773 65.064 40.8303 65.842 44.1373C67.203 49.9233 66.756 53.1883 65.512 59.9143C64.462 65.5893 67.069 82.7153 67.069 82.7153L49.879 82.7343C49.879 82.7343 53.48 71.3484 48.295 64.8674" stroke="black" stroke-width="2" stroke-miterlimit="10" stroke-linecap="round" stroke-linejoin="round"/>
<path d="M66.7167 82.72C66.7167 82.72 47.3157 83.269 40.1017 82.418C36.6277 82.008 36.9507 78.593 43.3627 77.328C48.5547 76.304 50.9957 76.641 50.9957 76.641L49.7967 82.119" fill="black"/>
<path d="M66.7167 82.72C66.7167 82.72 47.3157 83.269 40.1017 82.418C36.6277 82.008 36.9507 78.593 43.3627 77.328C48.5547 76.304 50.9957 76.641 50.9957 76.641L49.7967 82.119" stroke="black" stroke-width="2" stroke-miterlimit="10" stroke-linejoin="round"/>
<path d="M37.16 32.8333C37.16 32.8333 33.628 28.4593 33.181 24.8853C32.735 21.3113 32.956 17.7453 35.663 18.0143C38.657 18.3123 38.373 20.9173 39.597 23.3443C40.493 25.1213 42.298 28.1423 42.298 28.1423" stroke="black" stroke-width="2" stroke-miterlimit="10" stroke-linecap="round" stroke-linejoin="round"/>
</svg>
