<svg width="100" height="100" viewBox="0 0 100 100" fill="none" xmlns="http://www.w3.org/2000/svg">
<g clip-path="url(#clip0_65_20489)">
<path d="M61.9333 84.3169C62.8032 81.6338 56.6264 79.1867 52.6158 77.5703C51.1628 80.0869 53.684 86.2503 54.6843 88.3964C57.7085 87.8431 61.1528 86.724 61.9333 84.3169Z" fill="black"/>
<path d="M60.3568 35.7192C51.6993 35.7746 17.0724 34.4547 14.5906 35.7192C12.1089 36.9838 11.3868 39.3666 14.5905 40.8251C17.7943 42.2837 47.1128 42.4042 54.6632 42.4883M69.6372 42.7819C74.9026 42.7487 80.396 42.8246 84.1613 42.8504C85.4846 42.8595 86.7933 42.596 88.0143 42.086L93.2877 39.8832C94.1426 39.5262 94.0942 38.2991 93.214 38.0103L87.6793 36.1947C86.6758 35.8655 85.6294 35.6973 84.5733 35.6962C81.42 35.6929 75.5278 35.687 71.836 35.6957" stroke="black" stroke-width="2"/>
<path d="M34.5312 42.4493C34.6541 43.6738 35.1525 50.8076 35.4704 58.1627C35.8066 65.943 33.3085 80.1671 32.7391 85.8251C38.405 87.6842 50.8993 89.8423 57.3396 86.2386" stroke="black" stroke-width="2"/>
<path d="M35.376 34.792C38.1685 32.5189 41.3607 27.254 44.572 23.5551C49.3713 18.7411 50.4984 17.3471 56.4692 20.7944C59.2522 22.979 68.4568 30.2192 68.1203 31.4693C67.7837 32.7194 62.6374 36.6813 59.3651 34.792C55.5813 32.6075 52.0237 30.2235 50.6322 29.1312" stroke="black" stroke-width="2" stroke-linecap="round"/>
<path d="M57.8819 21.9024C58.7991 21.1706 61.5607 20.183 65.2696 22.0868C68.9785 23.9907 75.2156 29.5821 77.6415 34.813" stroke="black" stroke-width="2" stroke-linecap="round"/>
<path d="M50.5459 47.9567C53.1518 44.926 58.3714 38.9615 59.5575 37.9098C61.0401 36.5951 65.6595 32.9109 68.8788 33.3224C72.0981 33.734 75.1099 37.8194 71.5945 41.8195C68.0792 45.8195 61.9456 48.2185 58.7558 53.2232C52.3769 63.2316 52.9895 65.2054 52.0668 71.2995C50.8537 79.3119 54.2596 85.0013 54.626 87.3835" stroke="black" stroke-width="2"/>
<path d="M88.7726 37.3372C88.4798 38.1797 88.1453 40.0227 89.1489 40.6546" stroke="black" stroke-width="2" stroke-linecap="round"/>
</g>
<defs>
<clipPath id="clip0_65_20489">
<rect width="100" height="100" fill="white"/>
</clipPath>
</defs>
</svg>
