<svg width="100" height="100" viewBox="0 0 100 100" fill="none" xmlns="http://www.w3.org/2000/svg">
<path d="M77.6228 69.5583C71.7877 67.1265 70.4093 63.3695 69.5998 60.7836C68.7149 57.9626 69.4313 53.9495 69.0787 49.5738C68.7438 45.4276 65.7619 40.3522 66.4871 36.2492C67.2135 32.1463 69.0088 24.5814 63.6739 26.5409C58.3401 28.5014 58.8347 35.0893 58.8834 38.6522C58.9322 42.2151 54.8926 44.9463 53.2569 49.7856C51.6213 54.6259 53.8945 57.8362 57.1768 60.0196" stroke="black" stroke-width="2" stroke-miterlimit="10" stroke-linecap="round" stroke-linejoin="round"/>
<path d="M53.3446 68.5078C53.3446 68.5078 58.3059 80.159 71.5993 87.6839" stroke="black" stroke-width="2" stroke-miterlimit="10" stroke-linecap="round" stroke-linejoin="round"/>
<path d="M12.0093 48.1417C12.6203 45.579 58.8347 36.5604 58.8347 36.5604C58.8347 36.5604 58.7105 37.4508 58.8214 38.4488C58.878 38.9633 58.6384 40.1332 58.6384 40.1332C58.6384 40.1332 11.2386 51.3775 12.0093 48.1417Z" stroke="black" stroke-width="2" stroke-miterlimit="10" stroke-linecap="round" stroke-linejoin="round"/>
<path d="M34.1516 45.7359C34.1516 45.7359 38.2479 54.535 42.7678 53.6678C47.2876 52.8007 46.7465 49.0138 43.2423 44.2012" stroke="black" stroke-width="2" stroke-miterlimit="10" stroke-linecap="round" stroke-linejoin="round"/>
<path d="M36.9274 51.0039C36.9274 51.0039 31.6834 53.0232 34.7417 57.104C37.8 61.1836 43.2492 62.9578 45.8362 62.0652C48.4222 61.1714 48.3933 56.6548 45.7874 55.5393C43.1815 54.4237 40.9959 53.5233 40.9959 53.5233" stroke="black" stroke-width="2" stroke-miterlimit="10" stroke-linecap="round" stroke-linejoin="round"/>
<path d="M40.6954 61.5517C40.6954 61.5517 47.0128 69.1588 56.933 67.9534" stroke="black" stroke-width="2" stroke-miterlimit="10" stroke-linecap="round" stroke-linejoin="round"/>
<path d="M66.6202 35.7688C66.6202 35.7688 71.7677 38.1263 73.5608 39.2452C76.1002 40.8298 75.1077 43.2671 72.3776 41.9642C70.8551 41.2379 66.6956 39.1797 66.6956 39.1797" stroke="black" stroke-width="2" stroke-miterlimit="10" stroke-linecap="round" stroke-linejoin="round"/>
<path d="M71.0636 37.5981C71.0636 37.5981 73.3568 37.1102 74.3781 36.7808C77.6194 35.7351 76.3642 32.7189 73.5598 33.4663C71.6724 33.9698 69.3548 34.5397 66.7234 35.1374" stroke="black" stroke-width="2" stroke-miterlimit="10" stroke-linecap="round" stroke-linejoin="round"/>
<path d="M15.265 13.1007C16.4615 11.3797 59.0121 32.3068 59.0121 32.3068L58.777 35.6934C58.777 35.6934 13.4997 15.6412 15.265 13.1007Z" stroke="black" stroke-width="2" stroke-miterlimit="10" stroke-linecap="round" stroke-linejoin="round"/>
<path d="M59.7773 28.9725C59.7773 28.9725 56.7678 24.0379 54.3659 22.3446C51.9629 20.6513 44.2771 18.388 41.8974 20.1467C39.4368 21.9653 41.9562 23.9869 41.9562 23.9869" stroke="black" stroke-width="2" stroke-miterlimit="10" stroke-linecap="round" stroke-linejoin="round"/>
<path d="M39.4057 27.0635C39.4057 27.0635 32.036 29.6328 31.8453 32.5569C31.7277 34.3445 33.2414 35.4778 35.091 35.8215C36.2665 36.0389 37.5772 35.938 38.6927 35.4833C39.388 35.1994 40.162 34.879 40.9349 34.5563C43.349 33.5483 48.6063 36.1098 48.6063 36.1098" stroke="black" stroke-width="2" stroke-miterlimit="10" stroke-linecap="round" stroke-linejoin="round"/>
<path d="M45.3747 32.7354C45.3747 32.7354 31.9149 37.8485 32.9007 41.9048" stroke="black" stroke-width="2" stroke-miterlimit="10" stroke-linecap="round" stroke-linejoin="round"/>
<path d="M71.6381 87.7394C71.6381 87.7394 88.602 69.8928 88.6752 62.2481C88.7572 53.7439 76.2799 68.8748 76.2799 68.8748C76.2799 68.8748 81.0271 71.3743 84.2728 72.104C84.2728 72.104 81.413 76.3987 78.8936 79.5413C76.8821 82.0485 71.6381 87.7394 71.6381 87.7394Z" fill="black" stroke="black" stroke-width="2" stroke-miterlimit="10" stroke-linecap="round" stroke-linejoin="round"/>
</svg>
