<svg width="100" height="100" viewBox="0 0 100 100" fill="none" xmlns="http://www.w3.org/2000/svg">
<path d="M54.8178 51.499C54.8178 51.499 49.5478 35.98 46.3178 35.831C43.0778 35.681 42.0378 41.451 44.5778 46.923C47.1078 52.394 46.6078 53.737 44.7178 58.662C42.8278 63.586 44.5278 66.521 46.7578 69.605" stroke="black" stroke-width="2" stroke-miterlimit="10" stroke-linecap="round" stroke-linejoin="round"/>
<path d="M43.0176 43.4696C43.0176 43.4696 36.5 43.9448 37 46.4998C37 48.9998 45.2276 52.9326 45.7476 53.2926" stroke="black" stroke-width="2" stroke-miterlimit="10" stroke-linecap="round" stroke-linejoin="round"/>
<path d="M37.5 47.9995C33.22 46.6795 26.4675 48.8593 25.7975 50.2413C24.6075 52.7303 28.9675 52.5743 32.6675 52.2403C36.3675 51.9073 38.0875 53.9333 39.4475 55.7973" stroke="black" stroke-width="2" stroke-miterlimit="10" stroke-linecap="round" stroke-linejoin="round"/>
<path d="M27.908 52.4448C27.908 52.4448 22.5679 52.2178 21.9179 54.4918C21.2779 56.7648 24.548 56.5598 27.638 57.0218C30.728 57.4838 33.208 57.0228 34.388 59.0288C35.568 61.0338 35.368 69.7938 37.878 73.1268C40.388 76.4598 46.5979 76.5918 46.5979 76.5918" stroke="black" stroke-width="2" stroke-miterlimit="10" stroke-linecap="round" stroke-linejoin="round"/>
<path d="M41.3379 75.9961C41.3379 75.9961 43.9779 80.6151 43.6479 85.1791" stroke="black" stroke-width="2" stroke-miterlimit="10" stroke-linecap="round" stroke-linejoin="round"/>
<path d="M52.3779 43.3418C52.3779 43.3418 60.8379 44.5848 60.9879 48.9128C61.1379 53.2398 57.3079 64.5308 57.3579 68.6098C57.4079 72.6888 58.8079 84.0808 58.8079 84.0808" stroke="black" stroke-width="2" stroke-miterlimit="10" stroke-linecap="round" stroke-linejoin="round"/>
<path d="M43.6475 85.3443C43.6475 85.3443 63.3874 85.9423 68.1874 83.3903C73.5174 80.5613 58.3074 78.9443 58.3074 78.9443L59.0674 85.0373C59.0674 85.0373 55.7974 85.2793 52.4474 85.3683C48.6074 85.4693 43.6475 85.3443 43.6475 85.3443Z" fill="black" stroke="black" stroke-width="2" stroke-miterlimit="10" stroke-linecap="round" stroke-linejoin="round"/>
<path d="M60.9073 47.5265L63.3573 49.1505C63.3573 49.1505 77.6273 28.0185 78.9373 25.8075C79.2273 25.3105 62.0773 14.7375 61.5873 15.3615C59.3473 18.2125 49.5 39 49.5 39" stroke="black" stroke-width="2" stroke-miterlimit="10" stroke-linecap="round" stroke-linejoin="round"/>
<path d="M59.6671 17.3326C59.6671 17.3326 48.7672 13.3816 47.5172 14.0836C46.2672 14.7856 39.0371 38.6616 39.0371 38.6616L42.9672 39.8456" stroke="black" stroke-width="2" stroke-miterlimit="10" stroke-linecap="round" stroke-linejoin="round"/>
<path d="M46.2172 15.1719C46.2172 15.1719 43.0771 15.7359 40.1671 15.7019C39.3571 15.6919 31.4972 15.6869 31.3272 17.1049C31.1572 18.5229 33.2372 42.4259 34.5772 42.4479C35.9272 42.4699 43.0371 41.1439 43.0371 41.1439" stroke="black" stroke-width="2" stroke-miterlimit="10" stroke-linecap="round" stroke-linejoin="round"/>
<path d="M31.2476 20.0342C31.2476 20.0342 20.5076 24.7722 21.0176 26.2722C21.5376 27.7732 31.2375 47.7002 32.9575 47.2122C34.6875 46.7242 42.5276 42.2722 42.5276 42.2722" stroke="black" stroke-width="2" stroke-miterlimit="10" stroke-linecap="round" stroke-linejoin="round"/>
<path d="M45.5 35.5002C46.7 34.3002 48.6667 36.6669 49.5 38.0002L60 18L47.5 14L39 38.5L43 39.5C43.3333 38.6667 44.3 36.7002 45.5 35.5002Z" fill="black"/>
<path d="M34.5 42.5L41 41.5V42.5L32.5 47L22.5 30.5L21 25.5L31 20.5L32 29L34.5 42.5Z" fill="black"/>
</svg>
