<svg width="100" height="100" viewBox="0 0 100 100" fill="none" xmlns="http://www.w3.org/2000/svg">
<path d="M63.9426 57.2637C69.7419 49.7437 66.3079 39.4852 66.7525 34.1548C67.2153 28.6064 67.1396 24.1131 63.323 23.9846C59.5064 23.8561 59.1213 27.8046 58.8655 31.7941C58.6645 34.9284 57.8342 39.5945 57.7349 39.5845C57.6356 39.5745 48.5663 18.8431 47.0002 15.5221C45.2571 11.8259 41.3547 10.9192 40.5567 14.3138C39.7045 17.939 47.8894 35.0142 47.4471 34.3918C47.0049 33.7695 39.3133 22.8461 36.2635 18.4021C32.6937 13.2006 28.6933 17.1754 30.1046 20.2291C32.8096 26.0821 39.7892 36.3084 40.7821 37.5502C41.7751 38.7921 33.311 29.2432 31.5424 27.4064C27.9132 23.6375 25.2794 26.2257 25.1985 28.4107C25.092 31.2884 35.6291 42.0848 36.9873 43.5294C38.3454 44.974 30.0204 37.3347 30.0204 37.3347C28.2562 35.8943 25.3288 34.4829 24.1352 36.6729C22.4745 39.7199 29.7817 44.6876 32.2227 47.6402C35.7113 51.8599 36.4466 53.9542 43.2693 61.4172C44.8973 62.9943 49.4623 65.8841 55.2111 64.5739" stroke="black" stroke-width="2"/>
<path d="M52.0267 65.1201L59.0221 80.0426" stroke="black" stroke-width="2"/>
<path d="M65.6901 53.7997L77.7352 71.8873C77.7352 71.8873 74.0851 78.3276 67.1021 81.5381C47.2544 90.6632 49.3602 78.952 56.5234 75.2659" stroke="black" stroke-width="2"/>
<path d="M51.7485 82.3711C50.3126 79.1383 54.8547 76.8845 57.847 75.4026L61.834 83.3897C60.8516 84.1379 53.984 87.4041 51.7485 82.3711Z" fill="black"/>
<path d="M57.7413 39.6095C56.0576 40.5401 54.4421 42.3469 53.4384 45.6391" stroke="black" stroke-width="2" stroke-linecap="round"/>
</svg>
