<svg width="100" height="100" viewBox="0 0 100 100" fill="none" xmlns="http://www.w3.org/2000/svg">
<path d="M51.3561 43.8749C51.3561 43.8749 46.026 44.6849 44.396 48.5649C42.776 52.4449 45.0661 57.7499 45.0661 57.7499" stroke="black" stroke-width="2" stroke-miterlimit="10" stroke-linecap="round" stroke-linejoin="round"/>
<path d="M43.0662 62.9323C43.0662 62.9323 38.2561 62.4073 36.5161 60.0723C34.7761 57.7383 34.2861 57.1473 33.4161 52.4403C32.9061 49.6833 33.1778 46.317 32.8878 44C32.4292 40.3373 27.3877 33 29.5261 29.8263C31.0861 28.2623 33.7962 28.5883 34.3162 31.5413C34.8362 34.4953 37.4961 40.3373 37.4961 40.3373" stroke="black" stroke-width="2" stroke-miterlimit="10" stroke-linecap="round" stroke-linejoin="round"/>
<path d="M34.2061 31.1049C34.2061 31.1049 31.7861 23.5009 33.4661 21.8209C35.1461 20.1419 37.5661 21.6009 38.4761 26.3789C39.3361 30.9309 40.396 35.8769 41.376 37.4409C42.366 39.0049 44.8579 37.367 45.3879 34.5C46.1079 30.622 46.7161 18.7559 49.3261 17.5399C51.9261 16.3229 54.676 16.9499 53.746 21.6399C52.826 26.3309 50.0661 37.9039 50.0661 37.9039" stroke="black" stroke-width="2" stroke-miterlimit="10" stroke-linecap="round" stroke-linejoin="round"/>
<path d="M53.756 21.7899C54.746 19.3529 60.516 18.6089 59.806 22.4269C59.126 26.1029 58.4279 30.3039 57.8879 32.4999C57.0779 35.8429 56.1561 38.2889 56.2161 40.8959C56.2761 43.5019 59.186 46.3889 59.186 46.3889C59.186 46.3889 62.886 42.4979 65.426 39.8339C67.976 37.1699 71.536 38.5789 70.996 41.2949C70.566 43.4509 66.086 47.8059 64.636 50.8749C63.186 53.9449 63.1861 56.4939 60.3561 58.9849C57.5161 61.4749 51.686 62.9879 51.686 62.9879" stroke="black" stroke-width="2" stroke-miterlimit="10" stroke-linecap="round" stroke-linejoin="round"/>
<path d="M37.2461 61.0186C37.2461 61.0186 38.2062 71.9876 37.9662 74.6896C37.7362 77.3916 37.6761 81.0176 37.6761 81.0176C37.6761 81.0176 43.2662 82.0056 47.7262 82.4886C52.1862 82.9716 55.5061 82.9506 55.5061 82.9506C55.5061 82.9506 54.4862 79.4146 54.3062 74.2846C54.1262 69.1536 55.5862 61.9836 55.5862 61.9836" stroke="black" stroke-width="2" stroke-miterlimit="10" stroke-linecap="round" stroke-linejoin="round"/>
<path d="M37.626 80.9995C37.626 80.9995 60.326 85.0535 63.886 82.0795C67.456 79.1055 55.006 78.1045 55.006 78.1045L55.646 82.6485" fill="black"/>
<path d="M37.626 80.9995C37.626 80.9995 60.326 85.0535 63.886 82.0795C67.456 79.1055 55.006 78.1045 55.006 78.1045L55.646 82.6485" stroke="black" stroke-width="2" stroke-miterlimit="10" stroke-linejoin="round"/>
<path d="M59.286 46.2919C58.106 47.9219 57.706 48.5219 57.366 49.5479" stroke="black" stroke-width="2" stroke-miterlimit="10" stroke-linecap="round" stroke-linejoin="round"/>
</svg>
