<svg width="100" height="100" viewBox="0 0 100 100" fill="none" xmlns="http://www.w3.org/2000/svg">
<path d="M51.9941 47.6576C57.4551 43.9266 61.8261 41.4926 66.0571 36.1846" stroke="black" stroke-width="2" stroke-miterlimit="10" stroke-linecap="round" stroke-linejoin="round"/>
<path d="M60.8692 41.2993C63.8741 40.0342 66.5072 42.0783 68.0602 42.6673C68.3952 42.7943 69.7901 43.6872 69.8741 44.0342C70.0051 44.5672 67.0772 45.4993 66.7892 45.5643C63.7732 46.2463 60.0522 46.8083 57.5762 44.5343" fill="black"/>
<path d="M60.8692 41.2993C63.8741 40.0342 66.5072 42.0783 68.0602 42.6673C68.3952 42.7943 69.7901 43.6872 69.8741 44.0342C70.0051 44.5672 67.0772 45.4993 66.7892 45.5643C63.7732 46.2463 60.0522 46.8083 57.5762 44.5343" stroke="black" stroke-width="2" stroke-miterlimit="10" stroke-linecap="round" stroke-linejoin="round"/>
<path d="M57.1971 44.1333C55.6561 40.0923 54.239 36.3933 56.405 32.0713C56.673 31.5373 57.1751 29.3193 57.7871 29.1703C58.5441 28.9843 59.18 30.9963 59.362 31.4723C60.369 34.1143 60.599 36.9263 60.324 39.6803C60.25 40.4213 59.7441 42.0433 59.3531 42.6433" fill="black"/>
<path d="M57.1971 44.1333C55.6561 40.0923 54.239 36.3933 56.405 32.0713C56.673 31.5373 57.1751 29.3193 57.7871 29.1703C58.5441 28.9843 59.18 30.9963 59.362 31.4723C60.369 34.1143 60.599 36.9263 60.324 39.6803C60.25 40.4213 59.7441 42.0433 59.3531 42.6433" stroke="black" stroke-width="2" stroke-miterlimit="10" stroke-linecap="round" stroke-linejoin="round"/>
<path d="M65.9032 36.1502C65.7772 36.2142 65.7411 35.3362 65.7421 35.1112C65.7441 34.3512 65.6871 33.5882 65.6901 32.8232C65.6981 30.6062 65.9322 27.9332 67.9412 26.5092C70.8732 24.4322 72.2042 27.8652 74.0722 29.1212C75.5912 30.1422 77.9412 30.0632 78.7882 32.0592C80.2312 35.4622 74.0721 37.0352 70.8741 37.0352C67.9412 37.0352 66.874 36.5352 65.9032 36.1502Z" stroke="black" stroke-width="2" stroke-miterlimit="10" stroke-linecap="round" stroke-linejoin="round"/>
<path d="M80.4691 33.39C80.8561 33.005 81.0891 34.8251 80.9431 35.2581C80.4321 36.7731 79.9791 37.8961 78.6411 38.9821C76.6611 40.5911 72.6581 41.685 70.3491 40.023C68.9271 38.999 66.6971 38.139 66.2131 36.426" stroke="black" stroke-width="2" stroke-miterlimit="10" stroke-linecap="round" stroke-linejoin="round"/>
<path d="M72.176 27.1501C73.419 23.4671 70.328 19.1491 66.097 20.5421C65.374 20.7801 64.9339 21.0722 64.3739 21.5352C63.7489 22.0522 62.999 23.0861 62.653 23.8401C61.446 26.4701 62.197 29.0191 63.799 31.2801C64.263 31.9351 65.805 35.2621 65.802 36.0911" stroke="black" stroke-width="2" stroke-miterlimit="10" stroke-linecap="round" stroke-linejoin="round"/>
<path d="M71.4731 22.1523C72.6031 22.5333 73.2711 22.1654 74.3681 22.4684C77.6841 23.3864 80.6031 26.4154 82.0481 29.5414C82.5931 30.7194 82.9921 31.6614 81.7361 32.5514C81.3111 32.8514 80.4881 33.1634 79.9571 33.2364C79.7671 33.2634 79.0341 33.2203 79.1751 33.1733" stroke="black" stroke-width="2" stroke-miterlimit="10" stroke-linecap="round" stroke-linejoin="round"/>
<path d="M66.445 20.3596C65.856 18.5696 70.0999 17.9322 71.3739 18.0352C73.9679 18.2442 74.499 18.9386 75.88 20.7286C76.143 21.0686 77.188 23.1495 76.833 23.5015" stroke="black" stroke-width="2" stroke-miterlimit="10" stroke-linecap="round" stroke-linejoin="round"/>
<path d="M72.874 25.5342C72.874 25.5342 75.0709 25.5642 76.3739 27.5342C76.8429 28.2432 77.4939 29.2142 77.3739 30.0342" fill="black"/>
<path d="M72.874 25.5342C72.874 25.5342 75.0709 25.5642 76.3739 27.5342C76.8429 28.2432 77.4939 29.2142 77.3739 30.0342L75.374 28.5342L73.874 27.0342L72.874 25.5342Z" stroke="black" stroke-width="2" stroke-miterlimit="10" stroke-linecap="round" stroke-linejoin="round"/>
<path d="M17 58.0063C17 58.0063 24.958 56.5213 27.719 53.6263C31.269 49.9043 32.767 48.1213 37.713 46.8803C44.786 45.1063 46.656 44.4733 49.288 45.3743C51.921 46.2753 52.138 49.3532 49.603 50.2522C47.068 51.1512 44.5674 50.2522 39.0674 52.5" stroke="black" stroke-width="2" stroke-miterlimit="10" stroke-linecap="round" stroke-linejoin="round"/>
<path d="M56.0461 52.04C56.0461 52.04 57.1501 53.0551 57.2591 54.9301C57.3851 57.0771 56.4391 57.066 53.4581 58.507C50.9311 59.728 49.5679 59.9998 49.5679 59.9998" stroke="black" stroke-width="2" stroke-miterlimit="10" stroke-linecap="round" stroke-linejoin="round"/>
<path d="M56.2721 57.585C56.2721 57.585 58.1281 59.694 54.8931 61.704C51.6591 63.713 50.0676 63.4998 50.0676 63.4998" stroke="black" stroke-width="2" stroke-miterlimit="10" stroke-linecap="round" stroke-linejoin="round"/>
<path d="M54.1041 62.6438C54.1041 62.6438 54.8831 66.4948 48.8001 67.6288C45.7801 68.1918 42.8841 70.0678 37.0981 70.1108C31.3131 70.1538 29.2021 68.4718 25.0881 70.0858C20.9741 71.6988 18.5151 72.8918 18.5151 72.8918C18.5151 72.8918 18.0871 70.7858 17.6801 67.0778C17.2721 63.3698 17.0131 58.0508 17.0131 58.0508" stroke="black" stroke-width="2" stroke-miterlimit="10" stroke-linecap="round" stroke-linejoin="round"/>
<path d="M17.0471 58.0322C17.5351 67.6262 19.3441 84.9142 21.6951 80.4952C23.6871 76.7502 22.8191 71.2422 22.8191 71.2422L18.0881 73.0252" fill="black"/>
<path d="M17.0471 58.0322C17.5351 67.6262 19.3441 84.9142 21.6951 80.4952C23.6871 76.7502 22.8191 71.2422 22.8191 71.2422L18.0881 73.0252" stroke="black" stroke-width="2" stroke-miterlimit="10" stroke-linejoin="round"/>
<path d="M49.5182 45.4107C49.0892 43.1217 50.9872 42.6197 52.3292 43.6117C57.4792 47.4177 57.1413 51.5047 54.7873 53.3807C53.1303 54.7017 48.6933 56.1007 48.6933 56.1007" stroke="black" stroke-width="2" stroke-miterlimit="10" stroke-linecap="round" stroke-linejoin="round"/>
</svg>
