<svg width="100" height="100" viewBox="0 0 100 100" fill="none" xmlns="http://www.w3.org/2000/svg">
<path d="M60.0679 61.8902C55.7202 58.8501 45.2933 51.8555 43.077 51.8555C40.3067 51.8555 38.4598 55.289 40.7684 58.8298C43.077 62.3707 58.6358 74.6217 60.4146 75.7079C63.6002 77.6531 70.4204 78.3598 79.4238 78.1452C86.6264 77.9735 90.4241 78.9284 91.7708 79" stroke="black" stroke-width="2" stroke-linecap="round"/>
<path d="M45.3027 64.1654C45.0391 65.3903 44.5564 68.926 46.5562 69.7528C48.0886 70.3863 50.081 69.6609 51.1021 68.926" stroke="black" stroke-width="2" stroke-linecap="round"/>
<path d="M50.8087 69.769C50.6582 71.0843 50.7917 73.5053 51.7119 74.1347C53.2718 75.2015 56.3724 75.0045 56.3724 72.9057" stroke="black" stroke-width="2" stroke-linecap="round"/>
<path d="M57.7113 59.6316C58.023 56.6374 58.127 50.4172 56.0489 49.49C53.9708 48.5628 49.6313 46.5079 48.9834 46.3993C48.3355 46.2906 41.0888 52.4163 38.73 52.79C36.3712 53.1638 34.0211 50.1151 36.307 47.2175C38.5929 44.3199 48.36 38.0928 50.1264 38.0928C51.8927 38.0928 64.5691 42.9222 67.1667 45.2403C69.7644 47.5584 76.2064 60.0181 80.4665 61.4669C83.8746 62.6259 89.5755 62.8513 92 62.8191" stroke="black" stroke-width="2" stroke-linecap="round"/>
<path d="M42.7028 49.3944L30.6108 39.2486" stroke="black" stroke-width="2" stroke-linecap="round"/>
<path d="M43.5861 46.628C42.9435 46.299 39.9541 48.7575 39.8291 49.999C39.7041 51.2405 41.2665 52.307 41.2665 52.307L42.99 50.9682L45.1238 50.9682L57.2519 58.9016L57.5327 55.8744C55.0434 53.1608 45.9435 47.8349 43.5861 46.628Z" fill="black" stroke="black" stroke-width="2" stroke-linecap="round"/>
<path d="M48.8888 46.2434C49.1605 45.7602 49.6967 44.6885 49.6684 44.2668" stroke="black" stroke-width="2" stroke-linecap="round"/>
<path d="M47.1859 28.9314L48.8887 28.9314" stroke="black" stroke-width="2" stroke-linecap="round"/>
<path d="M33.3125 28.9314H42.4551" stroke="black" stroke-width="2" stroke-linecap="round"/>
<path d="M29.2377 32.7519C30.505 34.2643 30.6034 37.7027 30.5955 39.2484C29.3861 39.1432 24.1119 39.2631 22.0369 37.9243C19.9619 36.5854 10.5354 25.2301 9.83783 24.4478C9.14028 23.6654 9.22546 22.2777 10.8264 21.7984C12.4274 21.3192 27.6536 30.8614 29.2377 32.7519Z" stroke="black" stroke-width="2" stroke-linecap="round"/>
<path d="M13.4456 37.0818C12.2477 35.8862 12.0858 30.4637 12.3679 28.0603C13.9662 29.7427 18.452 34.8139 19.2981 35.9675C20.1442 37.1211 22.6356 38.3479 23.5288 38.8941C23.6228 39.4403 23.3595 40.8179 23.5288 41.3422C23.7403 41.9977 21.9775 44.0951 20.7788 44.3573C19.5801 44.6195 17.6058 41.9321 17.5353 40.6868C17.4648 39.4414 14.6435 38.2775 13.4456 37.0818Z" fill="black" stroke="black" stroke-width="2" stroke-linecap="round"/>
<path d="M27.8597 23.8271H34.6719" stroke="black" stroke-width="2" stroke-linecap="round"/>
<path d="M39.5316 23.5612H40.622" stroke="black" stroke-width="2" stroke-linecap="round"/>
<path d="M17.5495 21.0114C16.2329 20.8584 15.2522 22.2864 14.9264 23.0195C15.9379 23.5295 18.146 24.645 18.8866 25.0275C19.8124 25.5056 23.927 29.0913 23.8755 28.3742C23.8241 27.657 22.384 25.0275 21.8182 24.5494C21.2525 24.0713 19.1953 21.2026 17.5495 21.0114Z" fill="black" stroke="black" stroke-width="2" stroke-linecap="round"/>
</svg>
