<svg width="100" height="100" viewBox="0 0 100 100" fill="none" xmlns="http://www.w3.org/2000/svg">
<path d="M57.2852 84.3535C57.2852 84.3535 56.4622 70.3225 57.1282 68.1025C57.7942 65.8825 62.6782 57.8175 61.3462 53.0075C60.0142 48.1975 46.9662 43.2715 44.0062 41.4215C41.0462 39.5715 37.9382 39.7195 36.5322 42.3095C35.1262 44.8995 36.0502 46.6645 39.0472 48.3415C42.3802 50.2075 47.1362 52.5955 51.3522 57.9515" stroke="black" stroke-width="2" stroke-miterlimit="10" stroke-linecap="round" stroke-linejoin="round"/>
<path d="M54.0504 67.5098C54.0504 67.5098 56.6824 67.9368 58.1764 65.5898" stroke="black" stroke-width="2" stroke-miterlimit="10" stroke-linecap="round" stroke-linejoin="round"/>
<path d="M60.3564 51.0848C60.3564 51.0848 60.3904 47.6748 61.2264 42.6578C62.0624 37.6408 66.1548 26.9646 66.9108 25.0106C68.5638 20.7356 65.0744 19.4438 63.3194 20.1268C60.3564 22.2128 59.3934 26.6118 58.0434 31.8218C56.6924 37.0318 55.7404 39.2998 53.1604 38.3148C50.7504 37.3938 52.4294 26.8134 53.1604 19.7134C53.6384 15.0694 50.9068 13.8527 49.4108 14.0137C47.9158 14.1747 46.0314 16.5137 46.0314 22.2128C46.3484 36.7958 44.8774 40.3988 42.4164 35.3268C41.5284 33.4968 41.1004 31.0428 40.1404 28.1468C39.4554 26.0788 37.7086 19.7054 35.4106 19.7134C33.6836 19.7194 31.7494 20.5408 32.7834 27.2998C33.8174 34.0588 35.9064 36.5788 35.9064 36.5788" stroke="black" stroke-width="2" stroke-miterlimit="10" stroke-linecap="round" stroke-linejoin="round"/>
<path d="M38.5914 40.8378C38.5914 40.8378 37.8814 38.9128 36.2794 37.0288C35.3024 35.8798 33.2004 35.4008 31.7054 36.2788C30.2114 37.1578 29.2674 38.8018 30.7334 43.2508C31.1884 44.6308 31.5814 45.5908 32.2204 47.0878C33.6404 50.4168 35.2154 52.6228 36.4664 52.9708C40.2944 54.0358 40.7264 49.5618 40.7264 49.5618" stroke="black" stroke-width="2" stroke-miterlimit="10" stroke-linejoin="round"/>
<path d="M33.2074 49.5848C33.2074 49.5848 31.3164 58.9578 35.6664 64.2198C38.0614 67.1168 39.7174 67.1898 42.3054 67.4208" stroke="black" stroke-width="2" stroke-miterlimit="10" stroke-linecap="round" stroke-linejoin="round"/>
<path d="M38.3294 66.7275L37.8804 83.9425C37.8804 83.9425 42.6174 85.0295 50.3934 85.2765C56.9954 85.4865 56.8974 85.5725 56.8974 85.5725" stroke="black" stroke-width="2" stroke-miterlimit="10" stroke-linecap="round" stroke-linejoin="round"/>
<path d="M38.0032 79.1082L37.8962 84.1062C37.8962 84.1062 37.9822 84.1172 38.1462 84.1382C39.3252 84.2912 44.5062 84.9382 50.4092 85.3132C50.8502 85.3412 51.2942 85.3672 51.7412 85.3922C53.0512 85.4642 54.3982 85.5192 55.7412 85.5512C63.5782 85.7342 71.2932 85.0962 70.8802 82.0992C70.4692 79.1202 57.0832 78.6162 57.0832 78.6162C57.0832 78.6162 57.0542 79.9972 57.1552 82.0562C57.2012 82.9852 57.2582 83.7382 57.3102 84.3042C57.3862 85.1362 57.4512 85.5672 57.4512 85.5672C57.4512 85.5672 56.6102 85.6352 50.6972 85.3552C44.9072 85.0802 37.8682 84.0912 37.8682 84.0912L38.0032 79.1082Z" fill="black" stroke="black" stroke-width="2" stroke-miterlimit="10" stroke-linecap="round" stroke-linejoin="round"/>
<path d="M46.5984 53.5508C45.9464 55.5048 45.2974 58.0548 45.9364 59.9348C46.2224 60.7788 46.7684 61.4868 47.6884 61.9478" stroke="black" stroke-width="2" stroke-miterlimit="10" stroke-linecap="round" stroke-linejoin="round"/>
</svg>
