<svg width="100" height="100" viewBox="0 0 100 100" fill="none" xmlns="http://www.w3.org/2000/svg">
<path d="M29.7524 31.6057C29.7524 31.6057 29.7144 30.4316 28.3304 34.5386C26.9464 38.6466 25.6105 43.5056 23.0835 45.9736C20.5565 48.4406 15.4954 50.8006 17.4314 53.0096C19.3674 55.2196 24.6974 54.9707 26.5924 49.9157" stroke="black" stroke-width="2" stroke-miterlimit="10" stroke-linecap="round" stroke-linejoin="round"/>
<path d="M59.1474 80.3837C59.1474 80.3837 55.4364 68.5107 50.4634 65.0327C45.4894 61.5537 40.6994 54.8837 39.5394 51.0697C38.3794 47.2567 30.5884 38.3317 36.1154 36.7947C38.8884 36.0247 43.0354 41.4637 44.1554 45.9867C44.5584 47.6137 43.0534 40.1477 42.6594 38.2667C42.2654 36.3847 40.5054 34.6947 38.5644 34.2087C34.7534 33.2557 29.0294 34.3037 30.0584 29.3117C30.6764 26.3107 42.0024 28.5497 42.0024 28.5497C44.1864 29.1097 46.5774 31.9067 48.6124 35.3467" stroke="black" stroke-width="2" stroke-miterlimit="10" stroke-linecap="round" stroke-linejoin="round"/>
<path d="M20.7314 54.3312C23.2824 54.0762 25.1065 55.2332 25.9725 56.8182C28.0525 60.6242 27.6905 64.9962 31.4795 63.2052C35.2675 61.4142 35.4775 62.0232 38.0575 62.7332C40.6375 63.4432 42.0755 63.2602 42.8845 62.2112C43.6945 61.1622 43.9925 58.8152 43.9925 58.8152" stroke="black" stroke-width="2" stroke-miterlimit="10" stroke-linejoin="round"/>
<path d="M34.1065 27.6327C34.1065 27.6327 31.8885 23.2587 37.2165 23.1897C37.2165 23.1897 44.8855 23.7117 46.8285 25.7877C49.2895 28.4157 52.4435 33.3117 52.4435 33.3117" stroke="black" stroke-width="2" stroke-miterlimit="10" stroke-linecap="round" stroke-linejoin="round"/>
<path d="M41.3684 23.5867C41.3684 23.5867 41.9734 20.7757 44.2134 20.8727C46.4534 20.9707 49.0964 22.2147 49.9384 22.8377C51.7094 24.1497 55.1324 30.6217 55.1324 30.6217" stroke="black" stroke-width="2" stroke-miterlimit="10" stroke-linecap="round" stroke-linejoin="round"/>
<path d="M52.9594 21.3594C52.3244 21.3424 51.6474 21.5324 50.9904 22.0164C50.7514 22.1924 50.5394 22.3994 50.3664 22.6404C50.0444 23.0934 50.1634 23.7254 50.6164 24.0474C51.0684 24.3684 51.7004 24.2504 52.0224 23.7974C51.9684 23.8704 52.1374 23.6654 52.2094 23.6094C52.2974 23.5414 52.3874 23.4944 52.4904 23.4534C52.7854 23.3364 53.1044 23.3774 53.3974 23.4844C54.3804 23.8434 55.1094 24.7594 55.7404 25.5474C57.8704 28.2064 59.6484 31.3684 60.6784 34.6094C61.2404 36.3774 61.3114 38.2064 61.4284 40.0474C61.6084 42.8604 61.6584 45.6984 61.5534 48.5164C61.4564 51.1124 61.3384 53.7044 62.0534 56.2344C62.7104 58.5594 64.0964 60.4714 65.4594 62.4224C66.6994 64.1964 67.9344 65.9544 69.2094 67.7034C70.1814 69.0364 71.1724 70.3584 72.2094 71.6404C72.2704 71.7164 72.3394 71.7814 72.3974 71.8594C71.7664 72.2664 71.1554 72.6814 70.4904 73.0474C68.4774 74.1564 66.4444 75.2554 64.4284 76.3594C62.5374 77.3954 60.6634 78.4174 58.7724 79.4534C58.2574 79.7354 58.0524 80.4074 58.3344 80.9224C58.6164 81.4364 59.2584 81.6104 59.7724 81.3284C63.5524 79.2544 67.3354 77.1834 71.1164 75.1094C71.9684 74.6424 74.4414 73.5364 74.7404 72.5164C75.1094 71.2604 73.8684 70.3654 73.1784 69.4844C71.5894 67.4554 70.0754 65.3674 68.5844 63.2664C66.9044 60.8984 64.8614 58.5064 64.0534 55.6724C63.3934 53.3574 63.5334 50.9544 63.6164 48.5784C63.6654 47.1514 63.6704 45.7254 63.6474 44.2974C63.6104 42.0954 63.5064 39.8954 63.3034 37.7034C63.2284 36.8964 63.1394 36.1184 62.9594 35.3284C62.1104 31.5914 60.0184 27.8454 57.7094 24.7974C56.6004 23.3324 54.8664 21.4124 52.9594 21.3594Z" fill="black"/>
<path d="M59.2334 80.259C59.2334 80.259 83.2624 68.9231 83.6424 63.8211C83.9514 59.6771 70.0364 66.7091 70.0364 66.7091L73.9254 71.7261" fill="black"/>
<path d="M59.2334 80.259C59.2334 80.259 83.2624 68.9231 83.6424 63.8211C83.9514 59.6771 70.0364 66.7091 70.0364 66.7091L73.9254 71.7261" stroke="black" stroke-width="2" stroke-miterlimit="10" stroke-linejoin="round"/>
<path d="M26.5394 57.2297C26.5394 57.2297 24.8854 53.3887 23.1264 53.8837C21.3664 54.3777 17.8064 53.6187 17.8414 52.2577C17.8764 50.8957 21.0154 48.4767 23.2144 46.8927C25.4134 45.3087 25.3294 44.6227 26.4404 42.3487C27.5514 40.0747 28.7934 34.1117 30.0424 33.3157C31.2924 32.5197 31.5554 33.8997 33.2524 34.3707C34.9504 34.8417 38.5854 34.6747 39.7014 35.5097C40.8184 36.3447 42.9414 40.5277 42.9414 40.5277C42.9414 40.5277 40.0594 37.0777 38.1124 36.3547C36.1644 35.6317 33.5814 36.7887 33.4464 38.9217C33.3114 41.0557 34.2484 43.2807 36.1274 46.4757C38.0064 49.6707 39.3694 53.5677 40.5394 55.4467C41.7094 57.3247 43.4164 57.8447 43.1014 59.3107C42.7864 60.7767 40.2724 63.5767 37.1694 62.0757C34.0664 60.5747 33.4964 60.7367 31.8794 61.7047C30.2624 62.6737 29.4014 63.1427 28.4454 60.8207C27.4904 58.4987 26.5394 57.2297 26.5394 57.2297Z" fill="black" stroke="black" stroke-width="2" stroke-miterlimit="10" stroke-linejoin="round"/>
<path d="M44.7554 20.6577C44.7554 20.6577 48.6664 16.6207 52.5444 18.4977C56.4224 20.3737 58.7883 20.3897 62.6473 24.2267C66.5063 28.0637 66.9174 30.1427 67.3474 34.2517C67.7784 38.3597 71.6093 40.1947 70.5023 42.1157C69.3953 44.0377 63.0693 41.9407 63.0693 41.9407C63.0693 41.9407 63.6134 37.3247 63.1334 35.5577C62.6534 33.7917 60.8064 29.6377 59.8024 28.0557C58.7994 26.4737 55.8783 22.8047 54.7043 22.1197C53.5293 21.4347 50.0383 22.6147 50.0383 22.6147C50.0383 22.6147 48.6023 21.4737 47.6163 21.1627C46.6293 20.8517 44.7554 20.6577 44.7554 20.6577Z" fill="black" stroke="black" stroke-width="2" stroke-miterlimit="10" stroke-linejoin="round"/>
</svg>
