<svg width="100" height="100" viewBox="0 0 100 100" fill="none" xmlns="http://www.w3.org/2000/svg">
<path d="M37.1499 68.8263C37.1499 68.8263 41.4559 73.0083 52.7109 73.5553C57.4809 73.7873 66.3979 77.1063 71.9989 78.3923C76.9119 79.5203 80.2649 76.7903 78.7099 73.1423C77.5669 70.4603 72.5269 68.3193 66.6249 66.7823C60.7149 65.2433 58.2429 61.2873 56.9779 57.7673C54.2239 50.1093 60.8969 43.1173 66.2929 40.8873C71.6889 38.6573 74.2609 44.8593 78.8729 46.3323C81.2929 47.1043 87.1309 44.2983 82.0599 39.0403C76.9889 33.7833 68.2719 31.5203 64.4069 32.8803C60.5409 34.2403 51.9299 40.9853 48.8919 45.3003" stroke="black" stroke-width="2" stroke-miterlimit="10" stroke-linecap="round" stroke-linejoin="round"/>
<path d="M42.8102 71.8613C42.8102 71.8613 26.0522 73.4583 17.7852 78.3483" stroke="black" stroke-width="2" stroke-miterlimit="10" stroke-linecap="round" stroke-linejoin="round"/>
<path d="M80.1539 36.9767C80.1539 36.9767 81.9669 34.2297 79.2959 31.5087C76.6259 28.7877 67.3279 26.1337 62.9099 28.2567C58.4919 30.3807 53.9209 35.0007 53.9209 35.0007" stroke="black" stroke-width="2" stroke-miterlimit="10" stroke-linecap="round" stroke-linejoin="round"/>
<path d="M73.2299 28.3089C73.2299 28.3089 75.7199 23.3329 69.8879 22.3859C65.6429 21.6969 62.6569 21.5569 57.1879 25.2279C53.6109 27.6279 45.6989 37.5869 42.3439 43.8719C38.9899 50.1579 35.6499 54.3059 31.0769 55.6579C26.5049 57.0099 23.6129 57.2519 23.6129 57.2519" stroke="black" stroke-width="2" stroke-miterlimit="10" stroke-linecap="round" stroke-linejoin="round"/>
<path d="M17.6119 78.3732C17.6119 78.3732 10.7739 55.3942 19.2259 43.2362C22.9739 37.8442 24.0719 57.2092 24.0719 57.2092L15.47 57.9442C15.47 57.9442 15.3049 61.0112 15.8089 66.1402C16.2519 70.6422 17.6119 78.3732 17.6119 78.3732Z" fill="black" stroke="black" stroke-width="2" stroke-miterlimit="10" stroke-linecap="round" stroke-linejoin="round"/>
</svg>
