<svg width="100" height="100" viewBox="0 0 100 100" fill="none" xmlns="http://www.w3.org/2000/svg">
<path d="M29.9023 52.2395C24.0883 51.8965 20.8983 58.6265 26.3123 59.9605C31.0163 61.1195 34.7282 59.8365 34.7282 59.8365" stroke="black" stroke-width="2" stroke-miterlimit="10" stroke-linecap="round" stroke-linejoin="round"/>
<path d="M27.5442 60.2594C23.1072 59.8324 24.0602 67.4304 28.7842 67.4424C33.3822 67.4544 33.7653 67.0544 33.7653 67.0544" stroke="black" stroke-width="2" stroke-miterlimit="10" stroke-linecap="round" stroke-linejoin="round"/>
<path d="M28.7192 67.4804C24.6122 67.7124 21.3933 67.1754 19.0483 68.9354C17.5643 70.0494 16.6236 74.6338 23.6646 74.4998C30.7066 74.3668 41.5973 74.4194 57.3413 68.4464C69.6923 63.7604 80.0223 68.8964 80.0223 68.8964" stroke="black" stroke-width="2" stroke-miterlimit="10" stroke-linecap="round" stroke-linejoin="round"/>
<path d="M73.5 46.5C70.1491 46.9188 57.6505 49.882 56.2688 46.0167C53.5492 38.4094 47.2339 39.2358 45.6053 29.32C44.8627 24.7981 38.0643 24.6228 37.6935 30.4887C37.3237 36.3546 40.6199 43.393 40.6199 43.393" stroke="black" stroke-width="2" stroke-miterlimit="10" stroke-linecap="round" stroke-linejoin="round"/>
<path d="M43.6646 44.1872C43.6646 44.1872 33.3088 43.5706 29.3833 44.5755C24.7141 45.7711 23.4766 52.1714 31.3971 51.9965C39.3186 51.8216 35.0936 51.9309 35.0936 51.9309" stroke="black" stroke-width="2" stroke-miterlimit="10" stroke-linecap="round" stroke-linejoin="round"/>
<path d="M80.1303 68.8851C80.1303 68.8851 84.1113 40.0371 79.4993 35.5011C73.9613 30.0551 73.5 46.4995 73.5 46.4995L81.5103 44.9951C81.5103 44.9951 81.5943 49.2471 81.2733 54.4251C80.8893 60.5951 80.1303 68.8851 80.1303 68.8851Z" fill="black" stroke="black" stroke-width="2" stroke-miterlimit="10" stroke-linecap="round" stroke-linejoin="round"/>
</svg>
