<svg width="100" height="100" viewBox="0 0 100 100" fill="none" xmlns="http://www.w3.org/2000/svg">
<path d="M58.3804 85.5618C57.7292 83.9338 57.3054 81.5498 57.0882 78.4568C56.7018 72.9528 57.4851 70.7828 57.4851 70.7828C57.4851 70.7828 64.3854 60.6188 61.5665 53.9908C58.7477 47.3628 49.4358 43.9678 43.7981 42.1388C38.1604 40.3108 37.4706 46.9428 39.4655 48.5888C43.0741 51.5668 47.9361 52.9939 52.5302 59.2299" stroke="black" stroke-width="2" stroke-miterlimit="10" stroke-linecap="round" stroke-linejoin="round"/>
<path d="M54.3828 71.6494C55.3991 71.6084 56.3368 71.5854 57.919 70.0684" stroke="black" stroke-width="2" stroke-miterlimit="10" stroke-linecap="round" stroke-linejoin="round"/>
<path d="M61.1336 52.8119C61.1336 52.8119 59.8946 48.1109 60.7775 39.6519C61.6603 31.1929 63.3139 23.0809 63.3292 18.0039C63.3437 13.1789 58.2783 12.6859 56.764 16.6819C54.946 21.4799 55.8943 37.3569 52.4279 36.9569C48.9614 36.5569 46.7086 20.3859 42.719 17.0989C40.5715 15.3309 37.2532 16.1059 37.4763 21.2379C37.6993 26.3699 42.7611 34.9459 42.7611 34.9459" stroke="black" stroke-width="2" stroke-miterlimit="10" stroke-linecap="round" stroke-linejoin="round"/>
<path d="M46.2141 42.3543C46.2141 42.3543 42.8742 33.8163 41.2426 33.1353C38.8943 32.1553 36.1983 33.8083 35.6861 36.7693C35.1739 39.7303 38.3316 42.9363 38.3316 42.9363" stroke="black" stroke-width="2" stroke-miterlimit="10" stroke-linecap="round" stroke-linejoin="round"/>
<path d="M34.9804 37.4719C34.9804 37.4719 29.3398 38.1089 30.0643 43.0439C30.7889 47.9789 32.7359 51.5639 36.1089 54.9869C39.4819 58.4099 41.9277 56.3869 42.3766 54.3309C42.799 52.3959 41.2675 50.0999 41.2675 50.0999" stroke="black" stroke-width="2" stroke-miterlimit="10" stroke-linecap="round" stroke-linejoin="round"/>
<path d="M31.7083 49.6455C31.7083 49.6455 30.6284 58.3555 34.3083 64.4405C36.1222 67.4405 38.4057 69.0385 41.2824 69.9055" stroke="black" stroke-width="2" stroke-miterlimit="10" stroke-linecap="round" stroke-linejoin="round"/>
<path d="M36.9298 68.2666L36.4912 80.5496" stroke="black" stroke-width="2" stroke-miterlimit="10" stroke-linecap="round" stroke-linejoin="round"/>
<path d="M36.5421 79.3401L36.381 84.4672C36.381 84.4672 42.1683 85.2482 48.8947 85.6742C49.3351 85.7022 49.7794 85.7281 50.2264 85.7531C59.1808 86.2451 69.8496 85.9711 69.3656 82.4611C68.9546 79.4811 57.3129 78.9701 57.3129 78.9701C57.3129 78.9701 57.2635 78.8851 57.6874 81.1411C58.1112 83.3971 58.9759 85.8531 58.9759 85.8531C58.9759 85.8531 55.095 85.9971 49.1822 85.7161C43.3925 85.4421 36.3535 84.4522 36.3535 84.4522L36.5421 79.3401Z" fill="black" stroke="black" stroke-width="2" stroke-miterlimit="10" stroke-linecap="round" stroke-linejoin="round"/>
<path d="M47.3603 54.9336C46.7386 56.9096 45.9348 59.3486 46.5441 61.2496C46.8174 62.1026 48.0295 63.3726 48.9078 63.8376" stroke="black" stroke-width="2" stroke-miterlimit="10" stroke-linecap="round" stroke-linejoin="round"/>
</svg>
