<svg width="100" height="100" viewBox="0 0 100 100" fill="none" xmlns="http://www.w3.org/2000/svg">
<path d="M32.9106 70.3861C39.4106 75.5005 45.4106 74.5005 51.4106 73.5005C58.8846 71.7335 59.4735 72.3571 62.0555 70.3861C64.6365 68.4141 73.2535 60.1621 71.7355 57.5671C70.2175 54.9711 68.1426 56.5411 65.5286 59.5171C62.9146 62.4931 59.8436 63.8335 57.9106 65.0005" stroke="black" stroke-width="2" stroke-miterlimit="10" stroke-linecap="round" stroke-linejoin="round"/>
<path d="M37.9106 73.4998C37.9106 73.4998 34.2846 73.3758 28.4236 75.6548C22.5626 77.9348 17.1416 80.4788 17.1416 80.4788" stroke="black" stroke-width="2" stroke-miterlimit="10" stroke-linecap="round" stroke-linejoin="round"/>
<path d="M62.4937 70.1798C62.4937 70.1798 71.2357 66.9308 74.3767 62.3058C76.3857 59.3458 83.2117 50.8478 78.8787 51.0858C75.6287 51.2638 71.2457 56.3968 71.2457 56.3968" stroke="black" stroke-width="2" stroke-miterlimit="10" stroke-linecap="round" stroke-linejoin="round"/>
<path d="M80.3486 51.9348C80.3486 51.9348 86.8006 46.9198 83.7666 45.3898C81.5906 44.2928 78.9886 44.9138 73.9966 49.3038C71.8796 51.1658 58.8436 53.2232 55.4106 54.5002" stroke="black" stroke-width="2" stroke-miterlimit="10" stroke-linecap="round" stroke-linejoin="round"/>
<path d="M78.8826 45.6808C78.8826 45.6808 79.0636 41.1378 75.3126 42.7398C71.5616 44.3418 66.7076 47.5278 59.5996 47.8808C54.7976 48.1198 47.4106 49.0002 47.4106 49.0002" stroke="black" stroke-width="2" stroke-miterlimit="10" stroke-linecap="round" stroke-linejoin="round"/>
<path d="M47.4356 48.8418C47.4356 48.8418 59.7766 44.1608 62.2246 40.9868C64.6716 37.8138 62.9876 35.6388 58.6736 36.0498C56.4976 36.2568 55.7116 36.6658 51.6206 38.5648C49.2776 39.6538 43.3286 42.2388 39.3756 45.5608C35.4226 48.8828 33.3896 50.6228 28.9116 56.5838C24.9246 61.8918 19.2656 61.7798 19.2656 61.7798" stroke="black" stroke-width="2" stroke-miterlimit="10" stroke-linecap="round" stroke-linejoin="round"/>
<path d="M63.9277 27.3923C63.9277 27.3923 67.9577 37.0279 70.2239 36.9999C72.4889 36.972 79.8862 32.4537 80.7987 31.631C81.7111 30.8095 76.7687 21.9954 76.0687 21.1022C75.37 20.2078 63.3977 25.4248 63.9277 27.3923Z" stroke="black" stroke-width="2" stroke-miterlimit="10" stroke-linecap="round" stroke-linejoin="round"/>
<path d="M47.9106 21.6949C47.9106 21.6949 48.9392 30.4483 50.7911 30.928C52.6441 31.4067 59.7251 29.3581 60.6605 28.8887C61.596 28.4203 59.6321 20.1352 59.2716 19.2509C58.9101 18.3666 47.9392 19.9716 47.9106 21.6949Z" stroke="black" stroke-width="2" stroke-miterlimit="10" stroke-linecap="round" stroke-linejoin="round"/>
<path fill-rule="evenodd" clip-rule="evenodd" d="M47.9106 21.6949C47.9106 21.6949 48.9392 30.4483 50.7911 30.928C52.6441 31.4067 59.7251 29.3581 60.6605 28.8887C61.596 28.4203 59.6321 20.1352 59.2716 19.2509C58.9101 18.3666 47.9392 19.9716 47.9106 21.6949ZM53.0001 23C53.0001 23.8284 53.0001 25 51.5001 25C51.0001 25 49.5001 25 49.5001 23.5C49.5001 21.8348 50.5001 21.5 51.5001 21.5C52.3285 21.5 53.0001 22.1716 53.0001 23ZM58.0001 28.5C59.5001 28.5 59.5001 27.3284 59.5001 26.5C59.5001 25.6716 58.8285 25 58.0001 25C57.0001 25 56.0001 25.3348 56.0001 27C56.0001 28.5 57.5001 28.5 58.0001 28.5Z" fill="black"/>
<path fill-rule="evenodd" clip-rule="evenodd" d="M69.961 36.9999C67.6948 37.0279 63.6648 27.3923 63.6648 27.3923C63.1348 25.4248 75.1071 20.2078 75.8058 21.1022C76.5058 21.9954 81.4482 30.8095 80.5357 31.631C79.6232 32.4537 72.2259 36.972 69.961 36.9999ZM72.2835 30.8507C73.3416 30.8507 74.0983 29.9596 74.0983 28.9276C74.0983 27.8956 73.1218 26.8129 71.8542 26.8129C70.7961 26.8129 70.0989 27.9169 70.2084 28.9276C70.3324 30.0718 71.2255 30.8507 72.2835 30.8507Z" fill="black"/>
<path d="M16.8376 80.4698C16.8376 80.4698 12.8546 51.4728 16.6166 47.0058C21.4436 41.2758 23.4736 60.7658 23.4736 60.7658C23.4736 60.7658 21.6416 61.5808 20.0936 61.7348C18.5466 61.8898 15.1266 61.6008 15.1266 61.6008C15.1266 61.6008 15.2736 65.1158 15.6606 69.8158C15.9876 73.7798 16.8376 80.4698 16.8376 80.4698Z" fill="black" stroke="black" stroke-width="2" stroke-miterlimit="10" stroke-linecap="round" stroke-linejoin="round"/>
<path d="M66.9106 58L63.9106 59L60.4106 60" stroke="black" stroke-width="2" stroke-linecap="round" stroke-linejoin="round"/>
</svg>
