<svg width="100" height="100" viewBox="0 0 100 100" fill="none" xmlns="http://www.w3.org/2000/svg">
<path d="M40.2912 27.9146C40.4923 27.3019 42.2317 20.8946 44.9355 20.623C47.6392 20.3525 57.8393 20.169 59.033 20.8205C60.2279 21.4721 64.0231 26.6315 63.7114 27.824C63.3997 29.0166 52.3988 43.735 51.1827 42.9106C49.9667 42.0874 40.0913 28.5273 40.2912 27.9146Z" stroke="black" stroke-width="2" stroke-miterlimit="10" stroke-linecap="round" stroke-linejoin="round"/>
<path d="M40.4606 27.9717L63.5374 27.3084" stroke="black" stroke-width="2" stroke-miterlimit="10" stroke-linecap="round" stroke-linejoin="round"/>
<path d="M63.5667 19.196L66.0341 17.4354" stroke="black" stroke-width="2" stroke-miterlimit="10" stroke-linecap="round" stroke-linejoin="round"/>
<path d="M39.2644 16.9131L40.8674 18.8525" stroke="black" stroke-width="2" stroke-miterlimit="10" stroke-linecap="round" stroke-linejoin="round"/>
<path d="M52.1083 14.0002C52.0953 14.9563 52.0377 16.9215 52.0377 16.9215" stroke="black" stroke-width="2" stroke-miterlimit="10" stroke-linecap="round" stroke-linejoin="round"/>
<path d="M22.349 85.7687C22.349 85.7687 32.0139 75.2135 39.5607 75.618C42.7902 75.7921 43.8887 77.1375 50.2794 76.6165C56.6714 76.0943 59.2211 72.7014 63.6866 72.8402C68.1533 72.9778 71.4427 73.0154 72.059 70.6174C72.6753 68.2194 66.2081 63.6927 61.4615 64.2455C56.7149 64.7994 53.1043 66.961 53.1043 66.961" stroke="black" stroke-width="2" stroke-miterlimit="10" stroke-linecap="round" stroke-linejoin="round"/>
<path d="M40.6286 75.7226C37.9437 75.1616 36.5382 74.4289 34.7189 72.4919" stroke="black" stroke-width="2" stroke-miterlimit="10" stroke-linecap="round" stroke-linejoin="round"/>
<path d="M56.0257 65.5335C56.0257 65.5335 55.5176 62.0335 49.4961 61.9312C48.1742 61.9089 44.9072 62.5745 43.2842 63.5436" stroke="black" stroke-width="2" stroke-miterlimit="10" stroke-linecap="round" stroke-linejoin="round"/>
<path d="M18.014 66.5024C18.014 66.5024 23.3569 63.0353 25.2692 60.3151C31.0049 52.1532 37.6955 50.4808 44.211 49.0695C50.7228 47.6594 54.0628 46.7009 56.8948 45.7013C62.4752 43.7325 67.5923 46.1517 63.0174 48.0934C59.7762 49.4694 57.1888 50.2115 57.1888 50.2115" stroke="black" stroke-width="2" stroke-miterlimit="10" stroke-linecap="round" stroke-linejoin="round"/>
<path d="M28.6021 56.3319C25.8195 59.505 25.8443 61.282 28.2634 65.8169" stroke="black" stroke-width="2" stroke-miterlimit="10" stroke-linecap="round" stroke-linejoin="round"/>
<path d="M52.201 51.8918C57.6404 50.0607 61.7742 48.7917 65.0425 47.678C68.7707 46.4078 76.2411 44.0851 76.2999 48.0026C76.3269 49.7867 75.3484 49.4221 68.5508 51.9436" stroke="black" stroke-width="2" stroke-miterlimit="10" stroke-linecap="round" stroke-linejoin="round"/>
<path d="M58.5166 55.0391L71.1146 51.1569L76.1529 49.4034C76.1529 49.4034 81.9944 47.4512 83.1505 49.621C84.5735 52.2942 79.5964 55.3626 75.927 56.0588C73.9595 56.4328 70.9017 57.0726 70.9017 57.0726" stroke="black" stroke-width="2" stroke-miterlimit="10" stroke-linecap="round" stroke-linejoin="round"/>
<path d="M64.6721 58.5666C66.2916 58.2067 69.7916 57.2318 71.531 56.9777C72.5001 56.8366 82.2461 53.4578 83.9009 57.6998C84.9405 60.3671 77.6265 61.9442 70.3126 63.9389C67.1842 64.7915 66.5127 65.0796 66.5127 65.0796" stroke="black" stroke-width="2" stroke-miterlimit="10" stroke-linecap="round" stroke-linejoin="round"/>
<path d="M22.0209 85.9486C22.0209 85.9486 20.0251 81.1032 18.5914 74.9571C15.9818 63.7691 13.9131 47.8217 19.7899 45.7424C27.5202 43.008 28.4763 56.2341 28.4763 56.2341C28.4763 56.2341 27.5002 57.8664 23.7533 62.1085C21.1624 65.0428 17.0756 66.9692 17.0756 66.9692C17.0756 66.9692 17.5095 69.9858 18.5785 74.9265C19.2853 78.1971 22.0209 85.9486 22.0209 85.9486Z" fill="black" stroke="black" stroke-width="2" stroke-miterlimit="10" stroke-linejoin="round"/>
</svg>
