<svg width="100" height="100" viewBox="0 0 100 100" fill="none" xmlns="http://www.w3.org/2000/svg">
<path d="M39.3585 67.2657C39.3585 67.2657 32.3285 66.2507 30.8985 59.1067C29.4685 51.9627 27.7486 39.6277 30.0386 36.8187C33.5386 32.5287 35.9285 37.2367 36.6185 43.8567C36.9885 47.3767 35.7085 48.3307 32.0685 44.8437" stroke="black" stroke-width="2" stroke-miterlimit="10" stroke-linecap="round" stroke-linejoin="round"/>
<path d="M34.0088 35.3479C34.0088 35.3479 34.8187 29.2419 38.1787 30.3339C41.5487 31.4269 42.5388 35.1739 42.7888 38.4519C43.0488 41.7299 43.8488 46.9429 40.6388 47.2019C36.6088 47.5269 37.0687 44.3109 36.5687 43.1789" stroke="black" stroke-width="2" stroke-miterlimit="10" stroke-linecap="round" stroke-linejoin="round"/>
<path d="M40.3984 30.6973C40.3984 30.6973 42.5884 26.2423 44.8584 27.6713C47.1284 29.1003 48.9184 32.4003 48.7584 36.0143C48.5884 39.6283 48.6984 44.9333 45.2584 43.0333C43.1484 41.8713 42.9884 39.8753 42.9884 39.8753" stroke="black" stroke-width="2" stroke-miterlimit="10" stroke-linecap="round" stroke-linejoin="round"/>
<path d="M68.7685 29.3073C68.7685 29.3073 45.2385 26.6593 40.4685 26.3553C35.6885 26.0513 29.7185 25.1643 28.1985 24.9673C23.2585 24.3243 24.8785 19.0613 27.4685 18.7913C30.3385 18.4903 33.6085 19.3663 38.7685 20.1473C43.9385 20.9293 67.0784 24.1413 68.5484 24.4893C70.0284 24.8363 71.7185 27.9613 68.7685 29.3073Z" stroke="black" stroke-width="2" stroke-miterlimit="10" stroke-linecap="round" stroke-linejoin="round"/>
<path d="M59.9786 28.5783C59.9786 28.5783 58.7786 33.6543 58.4486 37.3103C58.1286 40.9653 60.1686 40.4003 60.1686 40.4003" stroke="black" stroke-width="2" stroke-miterlimit="10" stroke-linecap="round" stroke-linejoin="round"/>
<path d="M55.8384 46.3983C55.8384 46.3983 60.0184 41.2143 61.6484 38.2633C63.2684 35.3123 68.4984 29.3163 71.4784 29.4013C74.4684 29.4873 75.1584 33.0653 72.0984 37.5143C69.0384 41.9633 66.4484 47.8133 65.1384 51.1193C63.8284 54.4253 63.9884 59.4753 59.8584 63.4673C55.7384 67.4593 51.6484 68.1353 51.6484 68.1353" stroke="black" stroke-width="2" stroke-miterlimit="10" stroke-linecap="round" stroke-linejoin="round"/>
<path d="M33.6587 64.2617C33.6587 64.2617 34.6186 69.6937 34.9486 74.2397C35.2786 78.7857 34.5387 82.8847 34.5387 82.8847C34.5387 82.8847 40.7887 83.3167 46.0287 83.3417C51.2587 83.3677 55.5586 83.2617 55.5586 83.2617C55.5586 83.2617 54.9486 78.9597 55.0586 74.8177C55.1586 70.6767 55.8887 66.4197 55.8887 66.4197" stroke="black" stroke-width="2" stroke-miterlimit="10" stroke-linejoin="round"/>
<path d="M34.7986 82.8739C34.7986 82.8739 60.7787 84.5139 66.3787 81.9549C71.7787 79.4919 55.2787 77.6709 55.2787 77.6709L55.8586 82.6859" fill="black"/>
<path d="M34.7986 82.8739C34.7986 82.8739 60.7787 84.5139 66.3787 81.9549C71.7787 79.4919 55.2787 77.6709 55.2787 77.6709L55.8586 82.6859" stroke="black" stroke-width="2" stroke-miterlimit="10" stroke-linejoin="round"/>
<path d="M48.5986 40.9628C49.8186 40.0608 50.9787 36.7218 51.1587 34.5748C51.3387 32.4288 52.2986 27.8818 52.2986 27.8818" stroke="black" stroke-width="2" stroke-miterlimit="10" stroke-linecap="round" stroke-linejoin="round"/>
<path d="M58.5686 23.9423C58.5686 23.9423 68.0186 24.7993 68.6886 25.2993C69.3586 25.7993 69.5686 27.8793 68.4686 28.1833C67.3586 28.4873 58.3887 27.5213 58.3887 27.5213L58.5686 23.9423Z" fill="black" stroke="black" stroke-width="2" stroke-miterlimit="10" stroke-linejoin="round"/>
<path d="M51.0585 17.9253C49.9685 19.0273 51.5586 21.3553 52.6386 21.8683C53.7186 22.3813 60.4885 23.0343 60.4885 23.0343C60.4885 23.0343 61.0785 20.3783 60.2085 19.4333C59.3385 18.4893 53.4385 15.5053 51.0585 17.9253Z" stroke="black" stroke-width="2" stroke-miterlimit="10" stroke-linecap="round" stroke-linejoin="round"/>
<path d="M56.4585 22.5801C57.6385 22.8261 58.0685 23.6981 58.2485 24.9301C58.4185 26.1611 57.8085 27.7871 56.9185 28.0611" stroke="black" stroke-width="2" stroke-miterlimit="10" stroke-linejoin="round"/>
<path d="M26.7685 19.071C26.7685 19.071 25.3585 20.538 25.5185 21.797C25.6785 23.056 26.0685 24.4 27.0185 24.375C27.9685 24.35 28.4085 23.209 28.5985 22.328C28.7985 21.448 28.6384 18.935 28.1684 18.708" fill="black"/>
<path d="M26.7685 19.071C26.7685 19.071 25.3585 20.538 25.5185 21.797C25.6785 23.056 26.0685 24.4 27.0185 24.375C27.9685 24.35 28.4085 23.209 28.5985 22.328C28.7985 21.448 28.6384 18.935 28.1684 18.708" stroke="black" stroke-width="2" stroke-miterlimit="10" stroke-linejoin="round"/>
</svg>
