<svg width="100" height="100" viewBox="0 0 100 100" fill="none" xmlns="http://www.w3.org/2000/svg">
<path d="M16.04 80.69C17.11 64.54 22.1601 55.556 27.2401 49.884C31.0501 45.633 32.9801 46.952 42.9601 46.691C52.9401 46.429 61.18 43.369 63.13 45.95C65.08 48.53 63.73 50.369 57.54 52.257C51.35 54.145 52.1201 53.026 45.5601 55.758" stroke="black" stroke-width="2" stroke-miterlimit="10" stroke-linecap="round" stroke-linejoin="round"/>
<path d="M38.9901 65.0447C38.9901 65.0447 33.74 69.1167 32.13 74.1967C31.49 76.2387 31.77 82.7137 31.77 82.7137" stroke="black" stroke-width="2" stroke-miterlimit="10" stroke-linecap="round" stroke-linejoin="round"/>
<path d="M64.0602 48.3191C64.0602 48.3191 69.3902 46.6021 80.9802 44.7231C83.9102 44.2471 87.0001 47.4451 79.5101 50.4831C70.8501 53.9911 65.7301 56.7531 60.7701 59.0431C55.0901 61.6651 51.0502 63.8391 48.5602 64.0931C39.1602 65.0511 37.7602 64.4881 32.6602 64.3051" stroke="black" stroke-width="2" stroke-miterlimit="10" stroke-linecap="round" stroke-linejoin="round"/>
<path d="M42.44 46.5474C42.44 46.5474 38.95 25.0264 40.7 24.1904C46.97 21.1984 73.63 21.2494 75.78 21.5094C77.93 21.7684 77.0901 39.0844 74.4801 45.4844" stroke="black" stroke-width="2" stroke-miterlimit="10" stroke-linecap="round" stroke-linejoin="round"/>
<path d="M58.27 21.958C58.27 21.958 56.27 41.77 58.45 44.139" stroke="black" stroke-width="2" stroke-miterlimit="10" stroke-linecap="round" stroke-linejoin="round"/>
<path d="M58.4399 21.0881C58.4399 21.0881 62.3499 13.642 64.7699 16.139C67.1899 18.636 65.6799 21.3901 63.1799 21.5121" stroke="black" stroke-width="2" stroke-miterlimit="10" stroke-linecap="round" stroke-linejoin="round"/>
<path d="M54.0701 21.9547C53.3701 21.5377 49.3001 21.4187 49.4201 17.6997C49.5401 13.9817 53.5101 14.3737 55.3301 17.2347C57.1601 20.0947 57.6901 21.2177 57.6901 21.2177" stroke="black" stroke-width="2" stroke-miterlimit="10" stroke-linecap="round" stroke-linejoin="round"/>
<path d="M16 80.7237C16 80.7237 43.12 87.7167 47.33 83.4677C51.54 79.2187 31.98 75.2267 31.98 75.2267L31.7599 79.3787L31.86 83.8147L16 80.7237Z" fill="black" stroke="black" stroke-width="2" stroke-miterlimit="10" stroke-linecap="round" stroke-linejoin="round"/>
<path d="M58.5898 22.6367C60.7098 22.6367 59.8798 25.4577 60.7998 26.3737C61.6698 27.2467 63.0998 26.2557 64.0698 27.2237C64.4998 27.6547 64.4198 28.3507 64.6698 28.8377" stroke="black" stroke-width="2" stroke-miterlimit="10" stroke-linecap="round" stroke-linejoin="round"/>
<path d="M57.4001 21.5312C57.7001 21.6782 57.3801 22.3802 57.2701 22.6362C56.6701 24.1492 54.2502 23.9843 52.9802 24.8873C50.6202 26.5773 52.7302 28.3102 52.7302 30.3242" stroke="black" stroke-width="2" stroke-miterlimit="10" stroke-linecap="round" stroke-linejoin="round"/>
</svg>
