<svg width="100" height="100" viewBox="0 0 100 100" fill="none" xmlns="http://www.w3.org/2000/svg">
<path d="M70.9592 40.6874C70.627 41.3272 68.3301 45.8025 67.8807 49.3032C67.0083 56.0989 70.6168 58.9783 72.8595 56.3188C75.1023 53.6594 79.9769 40.5919 79.1521 38.6924C77.4008 34.6594 65.5366 26.619 62.3683 24.4781C59.9621 22.8523 52.1128 22.7316 38.966 26.1037C28.4486 28.8013 15.4008 33.0087 14.6617 34.7653C13.9226 36.5219 12.7164 58.6269 18.3519 53.2706" stroke="black" stroke-width="2" stroke-linecap="round"/>
<path d="M18.3903 53.2183C21.1567 50.6272 30.8474 45.875 34.915 48.9576C41.7458 54.1343 41.276 54.9768 46.1106 56.0701C50.9453 57.1634 59.9335 60.1672 61.4014 59.0595C65.6816 55.8296 60.3173 49.4648 53.4182 47.8901C49.5298 47.0025 51.6797 43.3234 52.8418 41.9213C55.6987 38.4741 58.7164 38.0613 60.3387 37.8835C62.8366 37.6099 68.1445 41.4163 69.9598 41.9213" stroke="black" stroke-width="2" stroke-linecap="round"/>
<path d="M48.0081 24.1458C53.7089 23.1068 59.7982 22.3138 63.4073 22.1917C67.9187 22.0391 86.113 32.6485 87.4989 35.028C88.3408 36.4736 86.1609 39.704 81.6206 39.0229C80.2622 38.8192 79.3453 37.9702 77.5454 36.442" stroke="black" stroke-width="2"/>
<path d="M61.0614 22.3353C65.0718 22.1673 73.6792 21.8471 75.7412 22.3359C78.9562 23.0981 81.5213 24.6405 81.2331 25.7211C81.0026 26.5856 78.8573 28.1433 76.582 27.7476" stroke="black" stroke-width="2"/>
<path d="M14.7615 34.5912C12.8698 37.7097 11.057 50.1573 14.0651 61.3756C16.2404 69.4882 21.5711 66.2161 22.6802 63.4586C25.1916 57.214 25.1715 52.3675 25.1916 48.7974" stroke="black" stroke-width="2"/>
<path d="M12.9751 56.1104V49.3826L15.4579 53.0668L17.7006 54.108L20.5839 51.7853L25.4696 48.7418L24.5886 56.7511L22.7464 63.8794L20.5839 66.5225H17.0598L14.9774 63.8794L12.9751 56.1104Z" fill="black"/>
<path d="M67.4417 60.1266C66.8241 59.7149 65.6063 60.6412 65.0745 61.1558C64.0695 61.9337 64.9018 62.6786 65.8464 63.2142C66.9227 63.8244 67.7358 63.502 68.4048 62.6786C69.0737 61.8553 68.2136 60.6413 67.4417 60.1266Z" fill="black" stroke="black" stroke-width="2"/>
<path d="M59.6934 68.105C58.604 68.8659 58.9811 70.1787 59.3058 70.74C60.6912 72.257 62.6725 70.8023 62.8488 69.6101C63.1783 67.3817 61.0551 67.1539 59.6934 68.105Z" fill="black"/>
<path d="M69.7563 71.1107C68.9507 71.6428 69.3711 72.7634 69.6821 73.2573C70.9296 74.6376 72.3883 73.6113 72.4226 72.6402C72.4868 70.8249 70.7632 70.4456 69.7563 71.1107Z" fill="black"/>
<path d="M67.4795 78.7117C66.8647 79.1178 67.1856 79.9731 67.4229 80.35C68.3751 81.4035 69.4884 80.6202 69.5146 79.879C69.5636 78.4935 68.248 78.204 67.4795 78.7117Z" fill="black"/>
</svg>
