<svg width="100" height="100" viewBox="0 0 100 100" fill="none" xmlns="http://www.w3.org/2000/svg">
<path d="M59.71 52.3665C59.276 48.0268 68.1041 47.7573 72.2887 48.119C75.8991 48.431 79.5459 51.5406 76.3791 54.5786M59.71 52.3665C60.2525 57.7911 73.4663 56.3495 75.0936 55.3421C76.721 54.3347 79.8757 52.4199 81.8905 53.6598C83.9054 54.8997 83.649 64.0988 82.4555 64.0988C81.3034 64.0988 79.1038 64.4955 77.562 65.3379C74.755 66.8715 69.9419 68.3138 62.953 66.3298C58.4268 65.045 59.71 59.5544 59.71 52.3665Z" stroke="black" stroke-width="2" stroke-linecap="round"/>
<path d="M66.5849 48.1387C61.0448 48.7503 61.8511 53.3728 66.8839 53.3728C69.3889 53.3728 74.1153 53.7823 73.2397 51.7277C72.711 50.4872 68.2479 50.3854 67.3656 50.8707" stroke="black" stroke-width="2" stroke-linecap="round"/>
<path d="M79.7637 58.2529V60.2771" stroke="black" stroke-width="2" stroke-linecap="round"/>
<path d="M20.6143 55.8335C21.9121 55.3428 24.6314 54.0765 25.1254 52.9368" stroke="black" stroke-width="2" stroke-linecap="round"/>
<path d="M47.199 73.4472C47.8307 69.213 49.3325 60.0007 50.287 57.025C51.48 53.3055 52.3942 37.1993 53.2267 33.2641C54.0359 29.4386 50.72 27.0707 49.8217 28.7857C48.9226 30.5022 47.7173 40.0413 45.9833 39.1984C45.4152 38.9223 46.2997 28.2639 45.7383 24.8248C45.1768 21.3857 41.7503 21.8824 41.7503 23.9946C41.7503 25.6465 40.4614 38.2926 38.915 38.2926C38.3536 38.2926 38.1023 32.4504 38.1023 27.0707C38.1023 21.1906 38.052 17.2702 35.2439 17.2705C31.9658 17.2709 33.3033 26.0053 32.9524 30.6372C32.6015 35.2691 32.0401 37.9359 31.6892 37.6552C31.3383 37.3745 29.7943 26.9174 29.7241 24.6014C29.654 22.2855 27.0573 21.3637 25.5133 23.2586C23.9694 25.1534 26.4958 37.4446 26.6362 40.0413C26.7766 42.638 26.7766 53.7966 25.5133 52.2526C24.2501 50.7086 22.0868 44.365 19.2388 45.108C17.6248 45.529 15.9688 47.6207 16.8813 50.0068C17.6112 51.9157 22.9401 60.3468 25.5133 64.3237C26.7338 66.63 29.2186 71.9179 29.3948 74.6194C29.615 77.9964 29.2852 79.3179 31.6892 79.7584C34.0932 80.1989 47.5066 85.5064 57.6104 80.7873C59.5667 79.8736 56.6444 71.2418 54.9196 71.8691C44.7713 75.5593 39.8741 73.2248 35.7816 72.6375C32.5077 72.1676 28.9821 71.0653 28.4864 70.9919" stroke="black" stroke-width="2"/>
<path d="M53.3945 76.2412L53.9083 78.52" stroke="black" stroke-width="2" stroke-linecap="round"/>
<path d="M26.1855 64.7612C29.6805 65.1823 37.5672 65.7719 41.1549 64.7612C45.6394 63.4979 49.0502 61.4767 49.366 60.0239" stroke="black" stroke-width="2" stroke-linecap="round"/>
<path d="M29.1631 71.1129C37.995 71.3727 46.8049 69.5023 47.7607 68.2554" stroke="black" stroke-width="2" stroke-linecap="round"/>
<path d="M26.1572 52.3362C26.9066 52.3362 37.8732 56.0825 41.2788 57.5129C44.0033 58.6572 47.4544 60.1694 48.8394 60.7824" stroke="black" stroke-width="2" stroke-linecap="round"/>
<path d="M24.7949 62.2807C28.2233 60.9184 35.3662 57.7852 36.5106 56.1504" stroke="black" stroke-width="2" stroke-linecap="round"/>
<path d="M21.1855 56.8997C22.7749 56.2413 26.0627 54.4478 26.4986 52.5405" stroke="black" stroke-width="2" stroke-linecap="round"/>
<path d="M26.7705 43.7537C31.9018 45.0024 42.9001 47.8814 45.8426 49.4072C49.5207 51.3143 50.883 52.1998 50.9511 53.494" stroke="black" stroke-width="2" stroke-linecap="round"/>
<path d="M26.749 42.0478C32.4542 41.4364 38.8793 42.4404 41.5744 42.7774C46.5816 43.4035 49.5813 44.4744 51.6783 45.1917" stroke="black" stroke-width="2" stroke-linecap="round"/>
<path d="M30.1289 41.4364C30.3821 40.0653 31.0048 37.3232 31.4699 37.3232C31.9349 37.3233 33.5712 40.0654 34.3313 41.4364" stroke="black" stroke-width="2" stroke-linecap="round"/>
<path d="M36.9268 41.9484C37.2917 40.5031 38.1478 37.6377 38.6529 37.7387C39.2843 37.8649 41.0945 41.5273 41.1366 42.3692" stroke="black" stroke-width="2" stroke-linecap="round"/>
<path d="M44.0264 42.9131C44.0265 42.5613 45.1403 39.2203 45.5506 39.0444C45.9608 38.8685 47.1917 38.4582 48.5985 44.2025" stroke="black" stroke-width="2" stroke-linecap="round"/>
<path d="M25.4609 63.2804C28.0604 62.0438 34.1432 58.5621 35.9602 56.6844" stroke="black" stroke-width="2" stroke-linecap="round"/>
<path d="M27.5254 44.0605C33.1928 45.2854 36.6641 46.3768 44.5814 49.4932C46.8477 50.3853 48.9969 51.7833 50.6454 53.7468" stroke="black" stroke-width="2" stroke-linecap="round"/>
<path d="M26.3428 52.3369C30.9036 53.5966 40.6506 56.3115 43.1525 57.0933C45.6543 57.875 48.495 59.1564 49.6026 59.6993" stroke="black" stroke-width="2" stroke-linecap="round"/>
<path d="M31.2596 37.6387L29.8887 41.7519H34.4237L31.2596 37.6387Z" fill="black"/>
<path d="M38.7385 38.2319C38.183 39.4439 37.0568 41.9208 36.9961 42.133L41.1622 42.5495L38.7385 38.2319Z" fill="black"/>
<path d="M46.1759 39.1541C45.3914 40.3609 43.8152 42.8181 43.7861 42.9919L48.2757 43.8608L46.1759 39.1541Z" fill="black"/>
<path d="M55.9081 66.4476C54.505 65.0098 57.2883 63.6974 59.396 63.092L61.0129 65.1354L64.0135 66.7269L70.406 67.3967L80.9811 64.409C81.2726 65.1938 78.0081 67.3626 73.9946 68.5899C67.3382 70.6253 58.8103 69.4217 55.9081 66.4476Z" fill="black"/>
</svg>
