<svg width="100" height="100" viewBox="0 0 100 100" fill="none" xmlns="http://www.w3.org/2000/svg">
<path d="M31.9837 36.8614C31.9078 36.31 28.27 26.4223 27.6504 24.4512C27.0308 22.4802 24.1301 20.1827 22.1492 22.7701C20.1684 25.3575 23.1219 34.8372 24.04 37.7357C25.5007 42.347 26.2681 45.3216 27.196 48.9448C29.2287 56.8827 29.4569 57.2723 31.5752 62.8504C33.2046 67.1411 34.8201 69.8744 35.721 74.3964C36.4416 78.0141 36.6376 84.7013 37.2279 87.458C37.2048 87.8787 38.9487 88.3725 41.3704 88.3849C44.9365 88.4032 54.8291 87.6328 58.4005 86.6418" stroke="black" stroke-width="2"/>
<path d="M31.6723 38.8242C31.7225 36.1493 32.9299 34.7842 33.5273 34.436C36.9262 32.7126 39.2021 35.473 39.5169 36.6198C39.8317 37.7666 40.1314 41.8452 40.0701 44.8683C40.0088 47.8913 39.0795 50.4519 37.2918 50.6717C35.5041 50.8916 34.2734 49.7859 33.458 47.9493C32.6426 46.1128 31.6095 42.1679 31.6723 38.8242Z" stroke="black" stroke-width="2"/>
<path d="M47.337 33.8979C47.3663 28.2305 46.5589 18.3881 46.5593 16.7079C46.5602 12.5758 51.6498 10.1813 53.5971 14.6037C55.1933 18.23 55.3242 24.9876 55.4921 29.0816C55.702 34.1992 56.1117 46.4021 56.6635 46.2475" stroke="black" stroke-width="2"/>
<path d="M43.6213 31.2813C40.69 31.2296 39.6983 33.9945 39.5689 35.3834C39.6299 38.3918 40.0325 43.2648 40.3405 45.74C40.8167 49.5677 43.5191 51.2076 44.571 51.5337C45.6229 51.8597 47.5985 50.7246 47.8356 49.1683C48.0726 47.612 48.1156 39.2292 47.8964 37.3041C47.6772 35.379 47.2854 31.3459 43.6213 31.2813Z" stroke="black" stroke-width="2"/>
<path d="M56.8534 46.1068C57.3484 45.3358 59.1245 43.35 61.7787 41.5309C64.4329 39.7117 65.6224 38.9569 68.3357 38.4875C71.3828 38.4265 71.8625 40.9944 71.8625 40.9944C72.1628 42.7909 70.3229 44.2257 70.3229 44.2257L66.4058 46.9535C62.3303 50.5498 61.5823 54.7657 59.2126 60.0774C57.1425 64.7174 56.0701 67.4535 55.9358 72.8832C55.8015 78.3128 57.6683 84.695 57.9091 85.6376" stroke="black" stroke-width="2" stroke-miterlimit="10" stroke-linecap="round"/>
<path d="M69.8506 82.4565C69.8323 85.9782 61.2549 86.9781 57.7068 87.8378L56.4924 79.5841C59.4462 79.7224 69.8689 78.9346 69.8506 82.4565Z" fill="black"/>
<path d="M55.5477 48.2271C56.1845 47.2227 57.426 45.5234 58.9046 44.0152" stroke="black" stroke-width="2" stroke-linecap="round"/>
</svg>
