<svg width="100" height="100" viewBox="0 0 100 100" fill="none" xmlns="http://www.w3.org/2000/svg">
<path d="M29.5222 43.2201C34.0464 35.4984 41.2736 20.754 44.1447 19.6337C47.0158 18.5134 54.4643 21.8381 54.5867 25.541C54.6773 28.2835 49.1595 38.2055 45.3323 45.0082M38.942 56.6835C36.3994 61.0241 33.9878 64.9126 32.4007 67.8562C31.5858 69.3678 30.5077 70.737 29.1307 71.7631L19.7919 78.7223C19.1327 79.2136 18.1952 78.7435 18.1944 77.9213L18.1833 65.4995C18.1818 63.7439 18.6416 62.0191 19.5171 60.4972C20.4469 58.8808 21.6052 56.8702 23.1084 54.2805" stroke="black" stroke-width="2"/>
<path d="M24.0309 75.3166C22.4152 72.601 19.5967 72.3276 18.28 73.1294L19.0199 78.9196L24.0309 75.3166Z" fill="black"/>
<path d="M18.3766 65.6455C18.3766 65.6455 24.3101 64.6782 26.115 66.0741C27.9199 67.4701 29.3025 70.7557 29.3025 70.7557" stroke="black" stroke-width="2"/>
<path d="M52.8088 30.7817C50.7775 27.4334 43.9493 25.4553 40.7891 24.8848C41.0869 24.3417 41.8349 22.9927 42.445 21.9412C43.2076 20.6269 46.9852 17.1377 52.0943 20.7083C56.1816 23.5648 54.2737 28.6141 52.8088 30.7817Z" fill="black"/>
<path d="M26.437 65.6651L30.1352 60.1462M49.2312 26.3496L37.8359 46.2959" stroke="black" stroke-width="2"/>
<path d="M68.5877 74.4578C63.7241 73.8498 65.6531 64.1797 66.7206 59.7539C71.8441 59.7539 77.5388 67.3494 79.9339 69.354C77.4875 72.1602 72.9512 75.0032 68.5877 74.4578Z" fill="black"/>
<path d="M53.4163 30.5498C54.449 31.2926 56.3804 32.4392 62.8005 36.5253C69.5917 40.8476 83.6163 45.9629 88.9757 48.3775C87.7116 54.4106 83.1859 66.7109 76.6311 70.6138" stroke="black" stroke-width="2"/>
<path d="M43.694 23.8047C40.2158 25.1297 32.0868 25.8236 27.1157 26.7866C20.3257 28.5949 18.4952 28.8833 18.4954 36.0102C19.0126 39.6307 20.7367 51.6128 22.0297 51.9576C23.3228 52.3024 29.5294 49.7431 29.5294 45.8372C29.5294 41.3209 29.2339 36.9039 28.9753 35.0936" stroke="black" stroke-width="2" stroke-linecap="round"/>
<path d="M45.8722 44.7461C41.8122 45.5125 33.775 47.1025 32.2204 47.6207C30.2772 48.2684 24.5916 50.4995 23.2961 53.5942C22.0007 56.6889 24.1013 61.4966 29.4991 60.417C34.8968 59.3375 40.2147 55.0865 46.3435 54.8177C58.6 54.2801 60.0504 55.8486 65.9828 58.1724C73.7825 61.2276 77.1154 67.2171 79.0585 68.7764" stroke="black" stroke-width="2"/>
<path d="M18.7566 37.8467C17.6274 38.2896 15.3159 40.2513 15.1033 44.5555C14.8907 48.8597 16.8104 56.5691 18.7567 60.2137" stroke="black" stroke-width="2" stroke-linecap="round"/>
</svg>
