<svg width="100" height="100" viewBox="0 0 100 100" fill="none" xmlns="http://www.w3.org/2000/svg">
<path d="M25.5175 52.7392L28.3135 52.4432C28.3135 52.4432 33.6995 52.0852 35.8545 52.4012C39.9805 53.0062 41.6905 51.4322 41.5025 49.9292C41.3145 48.4262 39.5255 46.5782 35.4855 46.3322C31.4465 46.0872 27.2545 46.0652 27.2545 46.0652" stroke="black" stroke-width="2" stroke-miterlimit="10" stroke-linecap="round" stroke-linejoin="round"/>
<path d="M37.3845 46.6222C37.3845 46.6222 45.9225 49.4002 46.8015 47.1592C46.8015 47.1592 49.0375 43.0582 44.8585 41.7182C40.6805 40.3782 37.9825 38.2852 35.0955 38.2902C32.2095 38.2962 28.4335 38.3712 28.4335 38.3712" stroke="black" stroke-width="2" stroke-miterlimit="10" stroke-linecap="round" stroke-linejoin="round"/>
<path d="M20.3764 46.4258C18.3594 50.7308 19.5584 52.6458 20.2504 54.0228C20.8464 55.2068 22.6005 58.9748 27.1095 59.8178C29.6885 60.3008 31.4065 60.1618 31.4065 60.1618" stroke="black" stroke-width="2" stroke-miterlimit="10" stroke-linecap="round" stroke-linejoin="round"/>
<path d="M26.0715 59.7332C27.3215 63.7212 27.5895 66.4142 27.6515 69.1762C27.7215 72.3602 27.6355 76.6062 25.8715 81.1362" stroke="black" stroke-width="2" stroke-miterlimit="10" stroke-linecap="round" stroke-linejoin="round"/>
<path d="M45.6505 54.1522C45.6505 54.1522 47.9045 55.2232 44.2465 61.8512C40.4865 68.6632 45.6915 82.3842 45.6915 82.3842" stroke="black" stroke-width="2" stroke-miterlimit="10" stroke-linecap="round" stroke-linejoin="round"/>
<path d="M25.8805 81.1762C25.8805 81.1762 39.2635 85.1722 49.3905 84.5112C51.9515 84.3442 55.6785 84.2012 57.6695 83.2932C64.5005 80.1772 44.4335 78.2352 44.4335 78.2352L46.1325 84.5702C46.1325 84.5702 42.1405 84.5332 36.4135 83.5932C31.9255 82.8562 25.8805 81.1762 25.8805 81.1762Z" fill="black" stroke="black" stroke-width="2" stroke-miterlimit="10" stroke-linecap="round" stroke-linejoin="round"/>
<path d="M46.1345 48.1542C49.4845 51.1032 51.1545 48.0042 53.3395 48.8882C54.7775 49.4702 55.3725 52.5192 53.8695 53.5442C50.1285 56.0962 43.8655 54.2432 41.7655 51.5012" stroke="black" stroke-width="2" stroke-miterlimit="10" stroke-linecap="round" stroke-linejoin="round"/>
<path d="M46.2795 42.1876C46.2795 42.1876 49.1755 39.7546 45.4165 36.2366C41.9805 33.0196 38.6815 29.2656 35.0035 30.2096C31.3255 31.1546 26.0015 33.6516 26.0015 33.6516" stroke="black" stroke-width="2" stroke-miterlimit="10" stroke-linecap="round" stroke-linejoin="round"/>
<path d="M45.9305 36.4772C48.5685 36.2882 48.8205 32.1742 46.4455 30.5362C44.0715 28.8992 39.0825 22.4042 34.4495 24.8972C29.8155 27.3902 23.7095 30.1452 21.4785 32.7772C19.7345 34.8352 19.0665 38.4892 22.7625 38.8582" stroke="black" stroke-width="2" stroke-miterlimit="10" stroke-linecap="round" stroke-linejoin="round"/>
<path d="M20.2875 37.8242C20.2875 37.8242 16.6855 42.0182 18.5215 44.3222C20.3575 46.6262 22.6244 46.2352 22.6244 46.2352" stroke="black" stroke-width="2" stroke-miterlimit="10" stroke-linecap="round" stroke-linejoin="round"/>
<path d="M44.7363 28.1297C44.7363 28.1297 46.7874 26.2057 50.8704 26.4847C54.9694 26.7637 54.7533 31.2327 52.7643 32.0867C51.4953 32.6317 50.4594 31.2007 48.1644 32.5587" stroke="black" stroke-width="2" stroke-miterlimit="10" stroke-linecap="round" stroke-linejoin="round"/>
<path d="M50.6722 26.1526L50.9142 20.1016C51.8722 22.2856 57.3042 24.5616 64.6242 25.2136C71.9442 25.8666 80.1452 26.6416 81.4272 21.8496C81.4272 21.8496 78.8982 41.9676 77.7142 51.3786C76.5312 60.7896 73.2112 63.0166 69.6932 64.5336C67.9952 65.2656 65.6713 65.2596 61.4083 65.1006C56.2143 64.9076 53.5452 63.2496 52.4732 62.2606C49.5702 59.5846 49.4902 54.7906 49.4902 54.7906" stroke="black" stroke-width="2" stroke-miterlimit="10" stroke-linecap="round" stroke-linejoin="round"/>
<path d="M51.0145 19.9572C51.0145 19.9572 49.7405 15.1872 65.1325 16.1212C78.2665 16.9182 81.5795 20.1842 81.4265 21.5332" stroke="black" stroke-width="2" stroke-miterlimit="10" stroke-linecap="round" stroke-linejoin="round"/>
<path d="M54.6725 22.8692C54.6725 22.8692 54.2195 19.5382 66.2615 21.6712C77.8195 23.7202 76.8385 25.3412 76.8385 25.3412C76.8385 25.3412 73.0445 26.0832 65.1255 25.3082C58.4675 24.6562 54.6725 22.8692 54.6725 22.8692Z" fill="black" stroke="black" stroke-width="2" stroke-miterlimit="10" stroke-linecap="round" stroke-linejoin="round"/>
</svg>
