<svg width="100" height="100" viewBox="0 0 100 100" fill="none" xmlns="http://www.w3.org/2000/svg">
<g clip-path="url(#clip0_65_20655)">
<path d="M10.198 69.1885L11.9961 66.4121" stroke="black" stroke-width="2" stroke-linecap="round"/>
<path d="M21.3491 68.8589L19.3384 66.2324" stroke="black" stroke-width="2" stroke-linecap="round"/>
<path d="M6.2986 58.958L9.49902 59.7939" stroke="black" stroke-width="2" stroke-linecap="round"/>
<path d="M15.15 55.1284L14.9004 51.8301" stroke="black" stroke-width="2" stroke-linecap="round"/>
<path d="M46.6326 28.7926C46.9647 29.234 47.5916 29.3226 48.0329 28.9906C48.4743 28.6586 48.5629 28.0317 48.2309 27.5903L46.6326 28.7926ZM44.4433 18.8332L45.2802 19.3805L44.4433 18.8332ZM58.4586 35.0689L57.7433 35.7677L58.4586 35.0689ZM74.1908 49.2135L74.884 48.4927L74.1908 49.2135ZM85.9361 63.0687L85.097 63.6125L85.9361 63.0687ZM91.1913 71.6055L91.9862 72.2122L92.3894 71.684L92.0586 71.1077L91.1913 71.6055ZM48.2309 27.5903C46.9432 25.8786 45.9353 24.1238 45.4034 22.5999C44.8511 21.0175 44.9025 19.958 45.2802 19.3805L43.6064 18.2858C42.6946 19.68 42.914 21.5366 43.5151 23.259C44.1367 25.0398 45.2677 26.9783 46.6326 28.7926L48.2309 27.5903ZM45.2802 19.3805C45.9414 18.3696 46.738 18.0296 47.3219 18.0405C47.8776 18.0508 48.4509 18.3774 48.7653 19.1929L50.6315 18.4735C50.0531 16.9734 48.8049 16.0677 47.3592 16.0408C45.9418 16.0144 44.5571 16.8322 43.6064 18.2858L45.2802 19.3805ZM48.7653 19.1929C49.2254 20.3862 50.6402 23.6671 52.3356 27.0555C53.1843 28.7518 54.1099 30.4882 55.0275 32.011C55.9362 33.5189 56.8706 34.8743 57.7433 35.7677L59.1739 34.3701C58.4688 33.6483 57.6308 32.4561 56.7405 30.9787C55.8593 29.5163 54.9594 27.8299 54.1242 26.1605C52.4515 22.8176 51.0642 19.5959 50.6315 18.4735L48.7653 19.1929ZM57.7433 35.7677C59.5036 37.5696 62.8073 40.4967 65.9667 43.263C69.1553 46.0549 72.1939 48.6805 73.4976 49.9342L74.884 48.4927C73.5355 47.196 70.435 44.5171 67.2842 41.7583C64.104 38.9738 60.8677 36.1039 59.1739 34.3701L57.7433 35.7677ZM73.4976 49.9342C78.8347 55.0667 81.7305 58.4185 85.097 63.6125L86.7753 62.5248C83.3047 57.1701 80.3004 53.7014 74.884 48.4927L73.4976 49.9342ZM85.097 63.6125C86.6426 65.9972 87.9505 68.1219 88.8719 69.6501C89.3325 70.4141 89.6962 71.0286 89.9445 71.4516C90.0687 71.6631 90.1639 71.8266 90.2279 71.937C90.2599 71.9922 90.2842 72.0341 90.3003 72.062C90.3083 72.076 90.3144 72.0864 90.3183 72.0933C90.3203 72.0968 90.3218 72.0993 90.3228 72.101C90.3232 72.1018 90.3236 72.1024 90.3238 72.1028C90.3239 72.103 90.324 72.1031 90.324 72.1032C90.324 72.1032 90.324 72.1032 90.3241 72.1033C90.3241 72.1033 90.324 72.1032 91.1913 71.6055C92.0586 71.1077 92.0586 71.1076 92.0586 71.1076C92.0586 71.1075 92.0585 71.1074 92.0585 71.1074C92.0584 71.1072 92.0583 71.107 92.0581 71.1067C92.0578 71.1062 92.0574 71.1054 92.0568 71.1044C92.0556 71.1025 92.054 71.0996 92.0518 71.0958C92.0475 71.0882 92.041 71.0771 92.0326 71.0624C92.0157 71.0332 91.9907 70.9899 91.9579 70.9333C91.8922 70.8202 91.7952 70.6537 91.6693 70.4391C91.4175 70.0101 91.0497 69.3888 90.5847 68.6175C89.6548 67.0752 88.3352 64.9315 86.7753 62.5248L85.097 63.6125ZM91.1913 71.6055C90.3965 70.9987 90.3967 70.9984 90.3968 70.9982C90.3968 70.9982 90.3969 70.9981 90.3969 70.9981C90.397 70.998 90.3969 70.9981 90.3967 70.9984C90.3962 70.999 90.3953 71.0002 90.3939 71.002C90.3911 71.0056 90.3864 71.0117 90.3797 71.0202C90.3664 71.0373 90.3454 71.064 90.3167 71.1C90.2592 71.1718 90.1711 71.2803 90.0528 71.4212C89.8161 71.7032 89.4586 72.1147 88.9838 72.6223C88.0338 73.638 86.6162 75.0359 84.7585 76.5494C81.0397 79.5788 75.58 83.0525 68.5946 84.8679L69.0977 86.8036C76.4357 84.8965 82.1487 81.255 86.0216 78.1C87.9597 76.5211 89.4428 75.0595 90.4445 73.9886C90.9455 73.4529 91.3266 73.0145 91.5846 72.7072C91.7135 72.5536 91.8118 72.4327 91.8788 72.3488C91.9124 72.3068 91.9381 72.2741 91.956 72.2512C91.965 72.2397 91.972 72.2307 91.977 72.2242C91.9795 72.2209 91.9815 72.2183 91.9831 72.2163C91.9838 72.2153 91.9845 72.2145 91.985 72.2138C91.9853 72.2135 91.9856 72.2131 91.9857 72.2129C91.986 72.2126 91.9862 72.2122 91.1913 71.6055Z" fill="black"/>
<path d="M70.1951 84.3364L70.3234 71.318C70.2412 68.2365 68.4157 61.7981 61.772 60.6968C54.6393 59.5144 53.7618 62.489 47.9212 62.7048C40.7466 62.9699 31.2163 61.1197 32.1511 57.3166C33.086 53.5135 39.161 57.6223 45.3786 55.4155C51.5963 53.2088 51.6316 49.3226 51.3225 48.2237C51.0134 47.1249 48.8582 43.8477 42.4663 45.7137C32.6815 48.5702 37.6793 53.6001 33.2496 54.4957C31.5026 54.8488 27.4411 51.5993 29.5457 46.4361C31.4195 41.8389 39.9891 38.6336 44.086 37.348C40.3015 35.2484 31.5513 30.7965 27.648 29.0509C20.5762 25.8884 21.206 20.6734 25.9774 21.9113C30.4314 23.067 32.688 23.7668 34.2778 24.1793" stroke="black" stroke-width="2"/>
<path d="M58.2061 83.5034C58.1643 78.6302 66.1145 70.3879 69.9149 68.2128L70.3932 86.5346C65.8161 87.9437 58.2479 88.3765 58.2061 83.5034Z" fill="black"/>
<path d="M34.691 54.3225L15.7116 61.4013" stroke="black" stroke-width="2" stroke-linecap="round"/>
<path d="M40.5451 30.4973C40.9763 30.8424 41.6056 30.7726 41.9507 30.3414C42.2958 29.9102 42.226 29.2808 41.7948 28.9358L40.5451 30.4973ZM30.9478 17.6412L30.365 16.8286L30.9478 17.6412ZM40.7305 20.1793L40.2344 21.0476L40.7305 20.1793ZM41.1699 29.7165C41.7948 28.9358 41.7947 28.9357 41.7947 28.9357C41.7946 28.9356 41.7945 28.9356 41.7944 28.9355C41.7942 28.9353 41.7938 28.935 41.7933 28.9346C41.7923 28.9338 41.7909 28.9326 41.7889 28.9311C41.785 28.928 41.7792 28.9233 41.7715 28.9171C41.7561 28.9048 41.7331 28.8864 41.7032 28.8624C41.6432 28.8144 41.5551 28.7438 41.4424 28.6535C41.2169 28.4727 40.8932 28.2131 40.5002 27.8974C39.7142 27.266 38.6513 26.4106 37.5436 25.5146C35.3125 23.7101 32.9438 21.7762 32.2492 21.1473L30.9068 22.6298C31.6541 23.3065 34.0813 25.2866 36.2858 27.0696C37.3958 27.9675 38.4605 28.8243 39.2477 29.4566C39.6413 29.7728 39.9656 30.0329 40.1914 30.214C40.3044 30.3045 40.3928 30.3753 40.4529 30.4235C40.483 30.4476 40.506 30.466 40.5215 30.4784C40.5293 30.4846 40.5352 30.4893 40.5391 30.4925C40.5411 30.4941 40.5426 30.4953 40.5436 30.4961C40.5441 30.4965 40.5444 30.4968 40.5447 30.497C40.5448 30.4971 40.5449 30.4971 40.545 30.4972C40.5451 30.4973 40.5451 30.4973 41.1699 29.7165ZM32.2492 21.1473C31.6321 20.5886 31.2577 19.9643 31.1536 19.4642C31.0638 19.0327 31.1624 18.7179 31.5306 18.4538L30.365 16.8286C29.273 17.6117 28.9657 18.7678 29.1956 19.8718C29.4111 20.9072 30.0819 21.8829 30.9068 22.6298L32.2492 21.1473ZM31.5306 18.4538C31.7157 18.321 32.0943 18.2056 32.7695 18.2434C33.4225 18.2798 34.2191 18.4523 35.0986 18.7311C36.8536 19.2875 38.7765 20.2146 40.2344 21.0476L41.2266 19.311C39.6904 18.4334 37.6344 17.4369 35.703 16.8246C34.7392 16.5191 33.7656 16.2959 32.8811 16.2465C32.0187 16.1983 31.0924 16.3068 30.365 16.8286L31.5306 18.4538ZM40.2344 21.0476C41.4041 21.7158 42.2228 22.2622 42.765 22.6659C43.0363 22.8679 43.2339 23.0309 43.3694 23.1523C43.516 23.2837 43.5611 23.3408 43.5541 23.3315L45.1557 22.1336C44.9576 21.8689 44.5485 21.5003 43.9593 21.0617C43.3407 20.6011 42.4523 20.0113 41.2266 19.311L40.2344 21.0476Z" fill="black"/>
</g>
<defs>
<clipPath id="clip0_65_20655">
<rect width="100" height="100" fill="white"/>
</clipPath>
</defs>
</svg>
