<svg width="100" height="100" viewBox="0 0 100 100" fill="none" xmlns="http://www.w3.org/2000/svg">
<path d="M73.6933 81.8086C70.2143 78.1838 63.8153 71.009 60.4654 69.259C56.2781 67.0716 48.5408 65.559 44.916 61.0592C41.2911 56.5594 41.3171 52.2218 42.8796 51.4718C45.2098 50.3534 46.7958 52.7949 47.5224 54.0228C49.6239 57.5746 51.8476 59.9365 53.5936 57.8229C55.3395 55.7094 53.4787 53.1518 52.3301 52.1371" stroke="black" stroke-width="2" stroke-linecap="round"/>
<path d="M57.043 45.4164C55.9815 44.7209 51.7976 42.5667 49.0517 42.0594C46.987 41.6779 42.0139 44.9612 41.475 46.7811C40.9361 48.6011 46.6616 48.7866 49.3859 45.6109" stroke="black" stroke-width="2" stroke-linecap="round"/>
<path d="M42.197 47.8584C40.9178 48.0005 37.9354 48.4078 37.04 48.7489C35.9208 49.1752 31.8701 51.4137 32.03 51.6269C32.1899 51.8401 37.8884 53.4403 38.8477 53.4403C39.6152 53.4403 40.7531 53.1903 41.4638 53.066" stroke="black" stroke-width="2" stroke-linecap="round"/>
<path d="M47.356 42.2695C48.4112 41.3718 51.3224 39.4133 53.4769 39.8291C55.6313 40.245 60.0863 43.583 61.6612 44.717" stroke="black" stroke-width="2" stroke-linecap="round"/>
<path d="M54.5864 40.1872C55.8511 39.9764 58.85 39.4044 59.6812 39.9103C60.7201 40.5426 65.1533 43.1647 65.6502 43.8423" stroke="black" stroke-width="2" stroke-linecap="round"/>
<path d="M47.5969 47.1281C55.5292 45.6727 71.9577 43.4918 72.7637 43.4535C73.7712 43.4055 74.5757 48.2984 74.048 48.6822C73.6258 48.9892 55.9733 51.0473 46.8735 52.1668" stroke="black" stroke-width="2" stroke-linecap="round"/>
<path d="M69.4409 49.5889C69.6709 51.4668 70.3377 55.855 71.1656 58.3845C72.2004 61.5463 78.9265 69.0197 83.2956 71.7792" stroke="black" stroke-width="2" stroke-linecap="round"/>
<path d="M38.2939 48.4404C39.4702 49.6715 39.5732 52.139 39.1589 53.4459" stroke="black" stroke-width="2" stroke-linecap="round"/>
<path d="M77.647 43.1723C77.1891 42.7373 75.0728 43.1565 73.6992 43.519L74.6029 48.4699C76.0909 48.3173 78.2017 47.9676 78.4993 47.7387C78.8713 47.4526 78.2193 43.716 77.647 43.1723Z" fill="black" stroke="black" stroke-width="2" stroke-linecap="round"/>
<path d="M60.7526 40.4692C60.6296 33.9953 60.2505 20.9296 59.7188 20.4569C59.0542 19.8661 49.7496 21.9339 43.1773 20.4569C36.605 18.9799 35.1281 17.9461 27.965 18.2414C20.8019 18.5368 17.0357 19.4231 16.7404 20.4569C16.445 21.4907 18.0696 47.1891 18.2911 52.3584C18.5127 57.5276 16.8881 73.1092 21.762 76.6538C26.6358 80.1984 32.8628 77.3184 42.0697 77.3184C45.9947 77.3184 49.9665 78.1538 54.7665 77.7108C58.6065 77.3563 63.3224 77.5297 63.9423 76.7971C64.5622 76.0644 63.2238 71.4079 63.2238 71.4079" stroke="black" stroke-width="2" stroke-linecap="round"/>
<path d="M64.6181 73.5371C65.2427 75.7918 65.4695 76.5391 63.0626 77.1483" stroke="black" stroke-width="2"/>
<path d="M17.6465 40.4575C18.1564 48.417 23.2582 59.7544 24.8709 62.1733C26.8867 65.1969 28.2128 67.0005 27.8415 67.1596C27.4702 67.3188 17.6474 72.3074 21.8306 76.6525" stroke="black" stroke-width="2" stroke-linecap="round"/>
<path d="M24.7251 69.4468C25.7895 70.4278 27.881 72.4398 27.7307 72.6402C27.5429 72.8907 22.3456 75.3955 22.9718 76.7731" stroke="black" stroke-width="2" stroke-linecap="round"/>
<path d="M27.381 72.621L24.4292 69.5054L21.4446 71.67L20.5264 74.8185L22.4614 76.6551L27.381 72.621Z" fill="black"/>
<path d="M43.686 51.1606C42.4448 51.29 40.586 53.3551 41.2667 56.4487C42.0645 60.0743 45.2547 64.03 50.2381 66.6267C53.169 68.154 58.1966 68.2921 63.874 73.7442" stroke="black" stroke-width="2" stroke-linecap="round"/>
<path d="M51.9976 51.8389L46.9365 52.2578L48.6817 55.6435L51.16 58.366H52.9401L54.3712 57.1095L53.7429 54.2124L51.9976 51.8389Z" fill="black"/>
<path d="M32.0115 51.6113C30.7788 51.0634 27.8018 49.7272 27.7361 46.8345C27.6539 43.2187 27.7601 40.6257 29.7548 39.2146C31.9943 37.6303 35.8108 38.4563 36.3187 34.4502" stroke="black" stroke-width="2"/>
<path d="M28.739 49.9995C28.5819 51.6227 28.7286 54.3977 29.1056 56.2827C29.5769 58.639 29.6291 59.2149 29.8386 59.8956" stroke="black" stroke-width="2" stroke-linecap="round"/>
<path d="M36.7637 34.4777C34.0555 32.4917 34.4316 28.7603 34.9582 27.1429C36.0866 22.0085 43.5908 24.3217 43.8729 27.4813C43.9739 28.6123 43.784 31.3804 42.6316 33.8006C42.0674 34.9854 40.149 36.9602 36.7637 34.4777Z" stroke="black" stroke-width="2"/>
<path d="M41.7964 34.981C41.7964 35.5735 42.518 36.7544 43.1401 37.1988C43.9178 37.7543 46.0287 37.6803 46.5841 38.2357" stroke="black" stroke-width="2" stroke-linecap="round"/>
<path d="M60.0571 21.88C60.5519 21.7054 61.3844 22.0362 61.6173 22.2108C61.9572 22.4657 62.3257 35.1096 62.4712 41.4543" stroke="black" stroke-width="2"/>
<path d="M35.1646 37.6372C35.5667 38.1698 36.4037 39.6591 38.2951 40.2787" stroke="black" stroke-width="2" stroke-linecap="round"/>
<path d="M33.9478 30.2656C33.5851 30.1044 32.8494 29.0697 33.2402 28.1577" stroke="black" stroke-width="2" stroke-linecap="round"/>
<path d="M39.9501 26.5018C38.0366 25.0667 35.5014 25.9277 35.3341 25.3537C35.1667 24.7796 37.5345 23.249 40.2612 23.8229C40.6577 23.9063 43.6095 24.0143 44.1118 26.3344C44.6141 28.6544 41.8635 27.9369 39.9501 26.5018Z" fill="black" stroke="black" stroke-width="2" stroke-linecap="round"/>
<path d="M32.8086 51.521L35.9785 52.92C35.9785 52.92 36.4744 52.2648 36.3327 51.2377C36.191 50.2105 35.766 49.5376 35.766 49.5376L32.8086 51.521Z" fill="black"/>
</svg>
