<svg width="100" height="100" viewBox="0 0 100 100" fill="none" xmlns="http://www.w3.org/2000/svg">
<path d="M46.9889 43.0138C46.9889 43.0138 47.4269 34.9108 49.8159 32.2008C52.2039 29.4898 55.6409 29.6598 55.4669 32.8088C55.2919 35.9578 53.9088 39.1558 53.3788 43.6328C52.8498 48.1108 53.4389 51.2248 49.9489 55.9378C45.7749 61.5758 44.4299 61.0998 43.4509 67.6148C42.4709 74.1298 43.4749 82.7608 43.4749 82.7608C43.4749 82.7608 40.0848 82.9238 35.5978 82.8558C31.1118 82.7878 25.4409 82.1058 25.4409 82.1058C25.4409 82.1058 26.0458 70.9078 26.5848 66.0788C27.1238 61.2498 28.4659 56.4578 27.1409 53.8068C25.8159 51.1568 24.3898 46.6798 24.4518 43.9588C24.5128 41.2378 25.2759 41.0758 25.2759 41.0758" stroke="black" stroke-width="2" stroke-miterlimit="10" stroke-linecap="round" stroke-linejoin="round"/>
<path d="M25.4248 82.0953C25.4248 82.0953 49.8088 84.9242 54.9948 80.5372C60.1808 76.1502 43.1928 75.1143 43.1928 75.1143L43.7838 82.1243" fill="black"/>
<path d="M25.4248 82.0953C25.4248 82.0953 49.8088 84.9242 54.9948 80.5372C60.1808 76.1502 43.1928 75.1143 43.1928 75.1143L43.7838 82.1243" stroke="black" stroke-width="2" stroke-miterlimit="10" stroke-linejoin="round"/>
<path d="M46.4549 60.2568C44.8489 61.8428 43.1419 62.2678 42.2739 62.5968" stroke="black" stroke-width="2" stroke-miterlimit="10" stroke-linecap="round" stroke-linejoin="round"/>
<path d="M27.2599 54.0215C27.2599 54.0215 27.8738 55.3465 29.5428 57.3155C30.1788 58.0645 32.5919 59.1335 32.5919 59.1335" stroke="black" stroke-width="2" stroke-miterlimit="10" stroke-linecap="round" stroke-linejoin="round"/>
<path d="M25.2328 35.8378C25.2328 35.8378 25.8629 26.0838 29.5419 24.4688C33.2199 22.8528 35.8789 25.8368 37.5309 27.6208C39.1839 29.4048 40.0529 32.0538 37.5789 32.6388C35.1049 33.2248 30.9518 29.5658 30.9518 29.5658" stroke="black" stroke-width="2" stroke-miterlimit="10" stroke-linecap="round" stroke-linejoin="round"/>
<path d="M32.7159 23.7788C32.7159 23.7788 35.5349 20.8188 37.9759 21.5068C40.4169 22.1948 43.7998 25.5308 44.7458 27.1738C45.6918 28.8168 44.1379 31.4108 42.1639 30.8118C40.1899 30.2128 38.7039 28.9048 38.7039 28.9048" stroke="black" stroke-width="2" stroke-miterlimit="10" stroke-linecap="round" stroke-linejoin="round"/>
<path d="M39.5449 21.7478C39.5449 21.7478 41.1959 18.7828 43.5999 20.0598C46.0039 21.3368 51.3349 24.3848 50.5269 27.4518C50.0469 29.2728 46.3859 28.9848 44.9449 27.4688" stroke="black" stroke-width="2" stroke-miterlimit="10" stroke-linecap="round" stroke-linejoin="round"/>
<path d="M49.1079 28.6104C49.1079 28.6104 40.7699 31.9734 37.3829 32.9444C33.9969 33.9154 24.7829 36.0794 22.0259 37.1714C19.2679 38.2634 16.5459 39.8074 17.0639 41.7124C17.5829 43.6164 20.1719 42.7024 23.3989 41.5714C26.6249 40.4414 41.3329 35.5624 45.0379 34.4704C46.5609 34.0214 48.8239 33.2543 48.8239 33.2543" stroke="black" stroke-width="2" stroke-miterlimit="10" stroke-linecap="round" stroke-linejoin="round"/>
<path d="M46.8408 41.1153C46.8408 41.1153 43.0968 41.0343 39.7748 45.5873C38.7638 46.9743 37.9458 48.6593 37.9458 48.6593" stroke="black" stroke-width="2" stroke-miterlimit="10" stroke-linecap="round" stroke-linejoin="round"/>
<path d="M45.0948 20.7383C45.0948 20.7383 50.8769 21.4863 53.1329 22.3163C55.4909 23.1833 56.8619 25.6483 54.5519 26.6433C52.2409 27.6373 51.0339 26.8423 51.0339 26.8423" stroke="black" stroke-width="2" stroke-miterlimit="10" stroke-linecap="round" stroke-linejoin="round"/>
<path d="M55.2609 30.5418C55.2609 30.5418 57.8338 29.4888 60.4258 28.4748C63.0188 27.4618 61.1238 28.2668 64.5588 26.8238C67.9948 25.3808 78.4739 20.0088 79.9249 19.3318C81.3769 18.6538 81.2669 16.8368 79.1739 17.0118C77.0809 17.1858 71.3458 19.9878 67.3788 21.5188C63.4108 23.0508 56.1879 25.5728 56.1879 25.5728" stroke="black" stroke-width="2" stroke-miterlimit="10" stroke-linecap="round" stroke-linejoin="round"/>
<path d="M80.4479 19.4561C80.4479 19.4561 82.6929 23.2141 82.0149 25.6351C81.7279 26.6571 79.6528 27.3121 76.4598 29.0331C73.2658 30.7541 69.2039 31.905 67.9839 31.427C65.3279 30.385 66.3899 26.0341 66.3899 26.0341L80.4479 19.4561Z" stroke="black" stroke-width="2" stroke-miterlimit="10" stroke-linecap="round" stroke-linejoin="round"/>
<path d="M69.5698 24.8975L70.9568 31.0315" stroke="black" stroke-width="2" stroke-miterlimit="10" stroke-linejoin="round"/>
<path d="M73.0889 23.0381C73.2179 23.6651 74.5099 28.6911 75.0309 29.3541" stroke="black" stroke-width="2" stroke-miterlimit="10" stroke-linecap="round" stroke-linejoin="round"/>
<path d="M76.6638 21.2148C76.9688 22.6938 77.7948 24.0228 78.2298 25.4608C78.3828 25.9658 78.9388 27.7038 78.8808 27.4248" stroke="black" stroke-width="2" stroke-miterlimit="10" stroke-linecap="round" stroke-linejoin="round"/>
</svg>
