<svg width="100" height="100" viewBox="0 0 100 100" fill="none" xmlns="http://www.w3.org/2000/svg">
<path d="M65.4622 63.8469C63.5093 73.5386 58.8641 75.8044 54.3665 76.8374C48.6941 77.3338 45.2789 75.9436 40.6391 70.9431C34.9269 64.7869 31.607 56.3105 28.1946 51.5805C24.6427 46.6571 22.187 42.4167 25.6804 40.1507C29.1738 37.8848 31.7536 41.3572 34.2358 44.9406C36.1858 47.7557 38.7092 52.1803 39.6722 51.583C40.6352 50.9857 36.576 27.0503 36.1719 23.0671C35.7222 18.6338 38.8582 15.5926 41.5124 18.3154C44.3468 21.2231 46.3007 41.7775 46.3639 40.9474C46.4271 40.1173 47.4713 25.5875 47.822 19.721C48.2324 12.8544 54.2047 14.3186 54.6032 17.965C55.3669 24.9541 54.596 38.4322 54.3665 40.1507C54.1371 41.8692 56.6758 28.1892 57.2954 25.4788C58.5669 19.9171 62.4827 20.8544 63.7868 22.8502C65.5043 25.4788 61.7303 41.4899 61.2737 43.6031C60.8171 45.7164 64.2994 33.8986 64.2994 33.8986C65.1378 31.5609 67.0792 28.5964 69.4257 29.9713C72.6904 31.8842 68.6567 40.6338 68.0363 44.7648C67.1497 50.6685 67.6402 53.0385 65.4622 63.8469Z" stroke="black" stroke-width="2"/>
<path d="M35.2761 72.2654C34.5788 68.9689 37.8438 67.9881 36.7911 65.3035C45.0752 75.9321 47.3939 76.6265 52.6594 77.3008C56.8717 77.8402 59.938 74.8895 60.9446 73.3468C62.4178 72.9862 62.4567 66.8139 64.8764 67.8057C68.649 69.352 65.5052 79.8904 60.1646 83.0222C56.8286 84.9784 51.9168 87.0816 45.4844 84.5851C38.7248 81.9617 36.0453 75.9015 35.2761 72.2654Z" fill="black"/>
</svg>
