<svg width="100" height="100" viewBox="0 0 100 100" fill="none" xmlns="http://www.w3.org/2000/svg">
<path d="M24.8525 74.2605C24.8525 74.2605 25.2105 74.2055 30.1995 67.7195C35.1875 61.2325 35.2565 54.9495 41.1025 44.5975C46.9495 34.2445 46.2005 34.2665 50.2795 30.8885C54.3595 27.5095 63.6815 23.1145 66.9135 24.2545C70.9555 25.6805 68.6245 29.2395 61.8315 31.8075C57.1785 33.5655 53.0806 41.2385 53.0806 41.2385" stroke="black" stroke-width="2" stroke-miterlimit="10" stroke-linecap="round" stroke-linejoin="round"/>
<path d="M49.7055 43.633C62.3915 35.394 71.9155 34.456 75.0695 35.297C78.6855 36.261 77.6075 39.542 73.7455 40.667C69.8845 41.793 54.8895 48.092 54.8895 48.092C54.8895 48.092 74.4575 44.403 76.7175 44.463C79.9275 44.549 80.6705 49.651 76.7165 50.729C70.5765 52.402 57.0425 55.352 57.0425 55.352C57.0425 55.352 71.6345 53.771 73.9285 55.471C76.2225 57.17 76.2265 60.793 69.9825 60.887C62.7195 60.995 58.5345 62.748 56.1615 63.31C54.9725 63.591 55.4045 69.002 49.8905 73.16C45.9104 75.0005 41.4104 75.5005 41.4104 75.5005" stroke="black" stroke-width="2" stroke-miterlimit="10" stroke-linecap="round" stroke-linejoin="round"/>
<path d="M46.7186 74.4668C40.3736 78.6148 37.7356 85.2618 37.7356 85.2618" stroke="black" stroke-width="2" stroke-miterlimit="10" stroke-linecap="round" stroke-linejoin="round"/>
<path d="M52.2168 28.5915L52.3488 17.7785C52.3708 15.9475 53.8738 14.4365 55.7058 14.4045L79.0408 14.0005C80.8728 13.9685 82.3298 15.4275 82.2958 17.2595L81.4548 62.3945C81.4198 64.2535 79.8848 65.7765 78.0258 65.7965C78.0258 65.7965 65.8068 66.1215 60.2398 66.3665C56.1898 66.5445 56.3028 63.9415 56.2848 63.2925" stroke="black" stroke-width="2" stroke-miterlimit="10" stroke-linecap="round" stroke-linejoin="round"/>
<path d="M37.5478 85.2322C37.5478 85.2322 9.66184 64.3152 18.8618 62.9842C23.4378 62.3222 30.0408 67.9082 30.0408 67.9082L24.6958 74.4892C24.6958 74.4892 26.9558 76.6622 30.1018 79.3722C32.4908 81.4312 37.5478 85.2322 37.5478 85.2322Z" fill="black" stroke="black" stroke-width="2" stroke-miterlimit="10" stroke-linecap="round" stroke-linejoin="round"/>
<path d="M76.2287 18.7768C78.7297 18.5148 78.7167 22.9278 76.2257 22.9438C73.7347 22.9588 73.3327 19.0798 76.2287 18.7768Z" stroke="black" stroke-width="2" stroke-miterlimit="10" stroke-linecap="round" stroke-linejoin="round"/>
</svg>
