<svg width="100" height="100" viewBox="0 0 100 100" fill="none" xmlns="http://www.w3.org/2000/svg">
<path d="M31.5399 61.3053C27.6899 57.7893 28.4099 51.6743 31.4299 48.9913C34.5899 46.1783 41.0099 44.7973 44.0499 49.1193C47.0999 53.4413 46.6099 58.6773 43.4199 61.2153C40.2199 63.7543 35.2599 64.7023 31.5399 61.3053Z" stroke="black" stroke-width="2" stroke-miterlimit="10" stroke-linejoin="round"/>
<path d="M36.0898 45.0728C36.0898 45.0728 41.2898 34.5278 44.6998 30.1728C48.1198 25.8168 55.5399 16.5078 59.3599 18.5518C62.4699 20.2148 57.9899 24.9258 57.9899 24.9258" stroke="black" stroke-width="2" stroke-miterlimit="10" stroke-linecap="round" stroke-linejoin="round"/>
<path d="M60.6799 20.9488C60.6799 20.9488 62.9699 17.3828 66.6799 18.0938C69.4599 18.6258 70.34 20.6338 68.63 24.1568C67.27 26.9758 63.83 30.7208 63.83 30.7208" stroke="black" stroke-width="2" stroke-miterlimit="10" stroke-linecap="round" stroke-linejoin="round"/>
<path d="M69.1499 22.9738C71.3599 21.1188 75.5198 22.6328 75.8198 25.9988C76.0198 28.2498 70.6798 34.6668 70.6798 34.6668" stroke="black" stroke-width="2" stroke-miterlimit="10" stroke-linecap="round" stroke-linejoin="round"/>
<path d="M74.9598 29.0842C78.3398 26.7002 80.4498 29.6782 79.9198 32.2682C79.2898 35.3782 77.4599 38.5782 75.8799 41.1092C74.2999 43.6402 72.5698 46.9902 69.5698 50.6982" stroke="black" stroke-width="2" stroke-miterlimit="10" stroke-linecap="round" stroke-linejoin="round"/>
<path d="M78.8999 36.4082C78.8999 36.4082 83.7898 36.5422 79.7898 43.7492C78.3198 46.3892 77.8998 49.1672 77.0798 50.9302C75.9498 53.3172 70.8498 55.2362 67.4698 55.9452C64.0898 56.6532 59.4098 57.4452 55.3198 58.0262C53.3998 58.2992 51.3799 60.1762 51.3799 60.1762" stroke="black" stroke-width="2" stroke-miterlimit="10" stroke-linecap="round" stroke-linejoin="round"/>
<path d="M37.5601 63.6535C37.5601 63.6535 45.6601 67.9715 46.9001 67.8365C48.1301 67.7025 51.1201 63.7495 51.9901 62.7095C52.8601 61.6685 50.3701 59.2965 49.4001 57.9125C48.4401 56.5295 46.2001 54.1465 46.2001 54.1465" stroke="black" stroke-width="2" stroke-miterlimit="10" stroke-linejoin="round"/>
<path d="M28.99 57.791C28.99 57.791 26.3499 62.616 23.4199 67.841C20.4899 73.066 18 78.601 18 78.601C18 78.601 23.8 79.689 28.85 80.315C33.9 80.941 38.2 81.104 38.2 81.104C38.2 81.104 39.1999 75.626 40.5599 72.726C41.9199 69.827 44.02 66.925 44.02 66.925" stroke="black" stroke-width="2" stroke-miterlimit="10" stroke-linejoin="round"/>
<path d="M18.03 78.5148C18.03 78.5148 47.09 84.0328 53.15 80.3138C59.21 76.5948 39.8099 74.8498 39.8099 74.8498L38.14 81.1988" fill="black"/>
<path d="M18.03 78.5148C18.03 78.5148 47.09 84.0328 53.15 80.3138C59.21 76.5948 39.8099 74.8498 39.8099 74.8498L38.14 81.1988" stroke="black" stroke-width="2" stroke-miterlimit="10" stroke-linejoin="round"/>
<path d="M39.8799 64.0812C39.8799 64.0812 43.9798 62.3902 44.9498 60.8392C45.9198 59.2892 47.2098 56.3262 47.2098 56.3262L51.5299 61.7942L46.9298 67.1802L39.8799 64.0812Z" fill="black" stroke="black" stroke-width="2" stroke-miterlimit="10" stroke-linejoin="round"/>
<path d="M28.72 54.9861C28.72 54.9861 26.17 52.3291 26.98 50.9641C27.79 49.5991 32.1099 44.8021 33.2899 44.5071C34.4699 44.2121 37.02 46.4631 37.02 46.4631" stroke="black" stroke-width="2" stroke-miterlimit="10" stroke-linejoin="round"/>
<path d="M32.5801 53.2113C33.0001 53.4583 37.9201 56.0163 38.1401 55.9603C38.7501 55.8033 39.1001 52.7783 39.1001 52.7783" stroke="black" stroke-width="2" stroke-miterlimit="10" stroke-linecap="round" stroke-linejoin="round"/>
<path d="M28.3199 53.0358L27.2 50.9148L33.1799 45.0918L35.34 46.0398C35.34 46.0398 33.5299 46.8238 31.4399 49.0188C29.3399 51.2128 28.3199 53.0358 28.3199 53.0358Z" fill="black" stroke="black" stroke-width="2" stroke-miterlimit="10" stroke-linejoin="round"/>
</svg>
