<svg width="100" height="100" viewBox="0 0 100 100" fill="none" xmlns="http://www.w3.org/2000/svg">
<path d="M42.0782 26.5857L78.0343 25.6232L78.7682 53.0391L40.5034 54.0633" stroke="black" stroke-width="2" stroke-linecap="round"/>
<path d="M48.4597 38.0476C48.0755 37.7696 42.7512 32.0289 40.3207 31.3011C37.8901 30.5733 27.8651 30.4092 26.7474 30.8716C25.6296 31.3339 22.9469 32.7062 22.8464 34.5828" stroke="black" stroke-width="2" stroke-linecap="round"/>
<path d="M23.5887 28.2797C23.6116 25.794 23.8967 20.548 24.8542 19.4497C26.0511 18.0768 35.1702 10.1094 36.345 9.91702C37.5198 9.72467 38.9244 11.8502 38.1807 14.1228C37.4371 16.3953 30.2693 23.3811 30.2693 23.3811C30.2693 23.3811 30.3005 24.5457 30.5123 25.1121" stroke="black" stroke-width="2" stroke-linecap="round"/>
<path d="M22.0977 41.0576C22.1925 39.9934 22.7409 35.3639 22.7119 34.2795C22.6755 32.9239 23.666 27.8043 25.0515 26.5875C26.437 25.3708 27.7038 24.8922 33.996 25.0187C40.2882 25.1451 40.6136 25.7852 42.8773 27.4351C44.4809 28.6038 48.3238 32.1918 50.3329 34.6909M45.9266 42.0608C46.3232 42.2862 46.9952 42.3925 47.9355 42.4127" stroke="black" stroke-width="2" stroke-linecap="round"/>
<path d="M32.166 42.1926C33.2079 42.0778 35.5643 41.6524 36.6545 40.8692" stroke="black" stroke-width="2" stroke-linecap="round"/>
<path d="M34.393 43.7288C37.006 45.6314 42.8333 49.012 45.3243 48.5644C48.4381 48.0049 48.1615 44.1028 46.9089 43.0481C45.6564 41.9934 38.549 35.6529 36.973 35.2189C35.397 34.785 26.8518 33.2048 23.6014 37.0367C22.8302 37.9459 22.3149 39.0131 21.9872 42.0147C21.6594 45.0163 19.925 49.9707 23.5425 64.5548C25.5127 74.6278 24.0938 85.1491 24.0938 85.1491C33.647 87.9885 43.1389 86.3982 43.1389 86.3982L37.6917 62.0675" stroke="black" stroke-width="2" stroke-linecap="round"/>
<path d="M36.596 62.1237C38.7068 60.5604 40.0224 57.6285 40.1434 54.5066C40.2946 50.6042 39.9512 47.3284 34.2183 42.271" stroke="black" stroke-width="2" stroke-linecap="round"/>
<circle cx="59.8036" cy="42.1882" r="11.5" transform="rotate(-1.53331 59.8036 42.1882)" stroke="black" stroke-width="2" stroke-linecap="round"/>
<path fill-rule="evenodd" clip-rule="evenodd" d="M51.6922 42.1686C51.5739 37.7505 55.0596 34.0731 59.4777 33.9548C63.8958 33.8365 67.5733 37.3223 67.6916 41.7404C67.8098 46.1585 64.3241 49.8359 59.906 49.9542C55.4879 50.0725 51.8104 46.5868 51.6922 42.1686ZM62.2159 36.2919C61.6978 36.1006 61.1227 36.3655 60.9314 36.8836C60.74 37.4017 61.005 37.9767 61.523 38.1681C62.1635 38.4046 63.6189 39.4272 63.674 41.487C63.6888 42.0391 64.1483 42.4747 64.7004 42.4599C65.2525 42.4451 65.6881 41.9856 65.6733 41.4335C65.5902 38.3306 63.3873 36.7245 62.2159 36.2919Z" fill="black"/>
<path d="M73.2267 25.7997C72.9229 25.8346 71.6134 25.854 70.9966 25.8594L71.0944 29.5131L77.8175 29.3332" stroke="black" stroke-width="2" stroke-linecap="round"/>
<path d="M46.6664 23.1083L37.5322 23.3528" stroke="black" stroke-width="2" stroke-linecap="round"/>
<path d="M45.5435 23.3281L45.6148 25.9921" stroke="black" stroke-width="2" stroke-linecap="round"/>
<path d="M52.2404 83.9917C54.6867 80.609 46.8158 79.257 42.227 79.0821L43.3731 87.3515C45.54 86.9822 50.1945 86.8207 52.2404 83.9917Z" fill="black"/>
</svg>
