<svg width="100" height="100" viewBox="0 0 100 100" fill="none" xmlns="http://www.w3.org/2000/svg">
<path d="M49.9174 54.4543C50.5309 52.3179 52.3215 47.5512 55.6815 46.3683C59.8815 44.8898 59.8785 44.0082 60.482 42.0331C61.0855 40.0579 63.9177 33.2252 66.8881 32.893C69.8584 32.5609 70.3362 34.1236 70.0756 35.1879C69.8151 36.2521 65.5271 55.2142 64.3334 57.6403C63.1397 60.0663 59.5089 63.9147 58.2864 65.4483C57.7044 66.1784 58.0206 71.7703 58.3543 75.2736C58.688 78.777 60.8189 85.7665 59.2419 85.8272C58.4669 85.857 53.5201 86.7245 48.9993 86.47C44.3208 86.2068 39.1115 84.8653 39.0098 84.6657C38.8099 84.2733 38.6343 79.9301 38.6343 79.9301" stroke="black" stroke-width="2" stroke-linecap="round"/>
<path d="M38.7784 82.2004C38.5394 77.8044 37.7037 70.4933 36.9233 69.0111C35.9478 67.1583 29.8513 62.3257 29.1074 53.4723C28.3635 44.6189 26.7508 19.7773 27.1707 17.8486C27.5907 15.9199 28.0436 12.1277 30.5013 12.2663C32.9591 12.405 34.0619 14.9768 34.5513 20.7584C35.0407 26.54 35.6435 40.8463 35.6435 40.8463" stroke="black" stroke-width="2" stroke-linecap="round"/>
<path d="M33.6213 44.6891C34.1548 44.072 35.2509 42.6795 35.3676 42.046" stroke="black" stroke-width="2" stroke-linecap="round"/>
<path d="M58.6467 31.6172C58.6124 33.9453 59.333 44.2376 59.333 44.2376" stroke="black" stroke-width="2" stroke-linecap="round"/>
<rect x="43" y="27.0009" width="8" height="17" rx="4" transform="rotate(-3.11202 43 27.0009)" stroke="black" stroke-width="2" stroke-linecap="round"/>
<rect x="35" y="27.0009" width="7" height="17" rx="3.48047" transform="rotate(-3.11202 35 27.0009)" stroke="black" stroke-width="2" stroke-linecap="round"/>
<path d="M50.7892 30.2524C50.6728 28.1104 52.3148 26.2796 54.4568 26.1631V26.1631C56.7285 26.0396 58.6235 27.8823 58.5963 30.1572C58.559 33.2807 58.5588 37.5795 58.7483 41.0687C58.8629 43.1786 57.2801 45.0993 55.1702 45.214V45.214C53.2057 45.3208 51.5266 43.8149 51.4198 41.8504L50.7892 30.2524Z" stroke="black" stroke-width="2" stroke-linecap="round"/>
<path d="M68.1505 83.4938C70.8387 80.2999 63.4647 78.9443 58.9011 78.4327L59.4367 86.764L59.4867 86.7592C61.6894 86.5488 65.9194 86.1446 68.1505 83.4938Z" fill="black"/>
</svg>
