<svg width="100" height="100" viewBox="0 0 100 100" fill="none" xmlns="http://www.w3.org/2000/svg">
<path d="M58.954 53.1747C58.954 53.1747 55.7041 49.7437 52.7571 45.1207C49.8101 40.4977 43.916 33.3267 39.506 35.6707C35.096 38.0137 43.2531 46.6417 43.2531 46.6417C43.2531 46.6417 47.9131 50.9867 48.7591 56.1827C49.7121 62.0397 49.88 69.2017 60.704 69.0347" stroke="black" stroke-width="2" stroke-miterlimit="10" stroke-linecap="round" stroke-linejoin="round"/>
<path d="M34.751 45.3143C34.751 45.3143 32.97 48.4093 35.013 51.5293C37.056 54.6483 39.778 53.3923 40.329 51.7433C40.881 50.0943 41.904 45.5943 41.904 45.5943" stroke="black" stroke-width="2" stroke-miterlimit="10" stroke-linecap="round" stroke-linejoin="round"/>
<path d="M37.685 54.0029C37.685 54.0029 36.4271 59.1609 39.2461 59.1389C44.4021 59.0999 43.9001 52.0799 45.5511 49.5029" stroke="black" stroke-width="2" stroke-miterlimit="10" stroke-linecap="round" stroke-linejoin="round"/>
<path d="M48.1221 33.6641C48.1221 33.6641 58.842 36.1721 61.561 38.4441C64.28 40.7161 67.695 47.2391 69.433 53.6551C71.179 60.1001 70.336 60.1491 72.998 68.1651C74.112 71.5201 76.2731 76.1321 78.1111 80.7971" stroke="black" stroke-width="2" stroke-miterlimit="10" stroke-linecap="round" stroke-linejoin="round"/>
<path d="M56.2588 68.8154C56.2588 68.8154 58.3468 69.9914 60.4698 74.1014C61.6488 76.3834 61.7267 77.9124 61.9067 82.1824" stroke="black" stroke-width="2" stroke-miterlimit="10" stroke-linecap="round" stroke-linejoin="round"/>
<path d="M42.285 58.0354C42.285 58.0354 43 62.3324 45.53 61.8524C48.06 61.3724 48.549 55.6204 48.549 55.6204" stroke="black" stroke-width="2" stroke-miterlimit="10" stroke-linecap="round" stroke-linejoin="round"/>
<path d="M44.836 36.3364C44.836 36.3364 41.252 33.9984 38.69 36.1394C35.015 39.2094 40.004 43.2564 40.004 43.2564C40.004 43.2564 36.884 47.4744 34.322 44.8904C32.133 42.4754 34.561 39.3824 34.561 39.3824L26.428 41.5674L25.036 36.7354C25.036 36.7354 31.048 36.7204 29.233 31.7284C27.732 27.6034 23.15 30.5164 23.15 30.5164L22 25.4364L30.279 23.1904C30.279 23.1904 23.937 18.1474 30.858 16.2804C33.567 15.5494 34.757 16.3464 35.221 17.5364C35.881 19.2314 35.065 21.7224 35.065 21.7224L43.4 19.5374L44.788 23.8784C44.788 23.8784 39.417 23.7944 40.835 28.4474C42.458 33.7784 47.036 30.4854 47.036 30.4854L48.501 35.3414L44.836 36.3364Z" fill="black" stroke="black" stroke-width="2" stroke-miterlimit="10" stroke-linecap="round" stroke-linejoin="round"/>
<path d="M78.133 80.8044C78.133 80.8044 37.654 88.2254 47.269 81.6694C52.883 77.8414 61.428 77.1984 61.428 77.1984C61.428 77.1984 61.815 79.2924 61.9 80.9744C61.985 82.6564 61.85 83.3184 61.85 83.3184C61.85 83.3184 66.417 82.7524 69.53 82.2684C73.438 81.6604 78.133 80.8044 78.133 80.8044Z" fill="black" stroke="black" stroke-width="2" stroke-miterlimit="10" stroke-linecap="round" stroke-linejoin="round"/>
</svg>
