<svg width="100" height="100" viewBox="0 0 100 100" fill="none" xmlns="http://www.w3.org/2000/svg">
<path d="M23.3188 23.3564C19.1958 24.0554 17.4458 25.8254 18.1528 28.3894C18.8608 30.9524 23.0298 30.5054 26.2368 30.2674C29.4428 30.0294 35.4688 30.7334 35.4688 30.7334C35.4688 30.7334 39.8398 33.4374 41.8738 38.5534C43.3498 42.2674 46.6448 55.3464 39.7828 58.0584C32.9208 60.7704 24.7368 56.6714 24.3038 63.6424C24.0708 67.3894 30.0888 68.1424 35.7288 67.2704C42.4148 66.2364 50.0422 67.2704 54.5 67.2704C57.3108 67.2704 62.5498 67.9724 69.5628 70.5664C74.2068 72.2844 82.1218 76.4174 82.1218 76.4174L82.4048 55.4274C82.4048 55.4274 71.1528 53.5714 66.3808 49.5994C61.6088 45.6284 61.2658 44.9294 57.3108 40.2624C51.2528 33.1134 44.9888 26.2084 39.4678 24.4674C35.9828 23.3684 28.5048 22.4774 23.3188 23.3564Z" stroke="black" stroke-width="2" stroke-miterlimit="10" stroke-linejoin="round"/>
<path d="M37.5448 32.6514C37.5448 32.6514 29.8428 33.3704 28.0388 34.8414C24.8848 37.4144 24.0618 41.3544 23.4308 43.6514C22.7588 46.0964 21.1558 53.3024 23.1618 54.0464C27.5788 55.6834 28.5458 52.1574 29.1688 48.6844C29.7938 45.1974 30.6838 42.4374 31.8838 41.7834C33.0848 41.1304 42.4138 40.1724 42.4138 40.1724" stroke="black" stroke-width="2" stroke-miterlimit="10" stroke-linejoin="round"/>
<path d="M28.9348 49.0064C28.9348 49.0064 31.2958 55.4634 32.9348 56.0604C34.5748 56.6574 37.2518 55.2934 37.6948 53.6444C38.5768 50.3634 35.1228 48.1444 34.8388 46.3084C34.5548 44.4724 34.7008 41.2394 34.7008 41.2394" stroke="black" stroke-width="2" stroke-miterlimit="10" stroke-linejoin="round"/>
<path d="M82.1915 76.4159C82.1915 76.4159 83.7155 47.1889 81.5725 42.4189C79.4295 37.6489 77.2425 43.4449 76.6205 47.3169C75.9985 51.1879 75.8135 53.5489 75.8135 53.5489L81.8025 55.0889" fill="black"/>
<path d="M82.1915 76.4159C82.1915 76.4159 83.7155 47.1889 81.5725 42.4189C79.4295 37.6489 77.2425 43.4449 76.6205 47.3169C75.9985 51.1879 75.8135 53.5489 75.8135 53.5489L81.8025 55.0889" stroke="black" stroke-width="2" stroke-miterlimit="10" stroke-linejoin="round"/>
<path d="M42.3809 40.3447C42.3809 40.3447 37.5969 43.5317 40.9329 46.2307C43.5229 48.3257 42.1999 51.6427 40.9529 52.5367C39.7049 53.4297 37.7769 51.2637 37.7769 51.2637" stroke="black" stroke-width="2" stroke-miterlimit="10" stroke-linejoin="round"/>
</svg>
