<svg width="100" height="100" viewBox="0 0 100 100" fill="none" xmlns="http://www.w3.org/2000/svg">
<path d="M23.1849 55.3194L22.3319 54.7975L22.2999 54.8498L22.2746 54.9056L23.1849 55.3194ZM30.3411 43.1935L29.4885 42.6709L29.4641 42.7108L29.4435 42.7527L30.3411 43.1935ZM35.5509 32.4625L34.6 32.1532L35.5509 32.4625ZM46.1684 20.524L46.848 21.2575L46.1684 20.524ZM44.9843 31.9439L44.5757 31.0312L44.1411 31.2257L44.0182 31.6857L44.9843 31.9439ZM42.1441 38.3681C41.9909 38.8987 42.2969 39.453 42.8275 39.6062C43.3581 39.7594 43.9125 39.4534 44.0656 38.9228L42.1441 38.3681ZM24.0379 55.8414C26.0498 52.5535 30.3556 45.4328 31.2387 43.6342L29.4435 42.7527C28.613 44.4441 24.3769 51.4555 22.3319 54.7975L24.0379 55.8414ZM31.1937 43.7161C32.1005 42.2365 33.3092 39.8598 34.3381 37.7035C35.3587 35.5646 36.2529 33.5373 36.5019 32.7718L34.6 32.1532C34.3989 32.7715 33.5659 34.6776 32.533 36.8422C31.5085 38.9894 30.3372 41.2862 29.4885 42.6709L31.1937 43.7161ZM36.5019 32.7718C36.7642 31.9653 37.3988 30.388 38.232 28.8671C38.6475 28.1086 39.1012 27.3846 39.5694 26.7854C40.0464 26.1749 40.494 25.7516 40.8823 25.5284L39.8855 23.7945C39.1757 24.2025 38.5406 24.8537 37.9934 25.554C37.4376 26.2654 36.9258 27.0885 36.4779 27.9062C35.5842 29.5377 34.9003 31.2297 34.6 32.1532L36.5019 32.7718ZM40.8823 25.5284C43.1193 24.2425 45.0119 22.9585 46.848 21.2575L45.4888 19.7904C43.7976 21.3571 42.0404 22.5558 39.8855 23.7945L40.8823 25.5284ZM46.848 21.2575C47.5312 20.6246 48.9702 19.6372 50.1496 19.2833C50.7637 19.099 51.0544 19.1625 51.1463 19.2156C51.1531 19.2196 51.3912 19.3352 51.3773 20.1768L53.377 20.2098C53.3964 19.0378 53.0632 18.0136 52.1473 17.4841C51.3164 17.0038 50.333 17.1402 49.5748 17.3677C48.0094 17.8374 46.3107 19.0289 45.4888 19.7904L46.848 21.2575ZM51.3773 20.1768C51.3479 21.9564 50.563 24.2812 49.2712 26.4005C47.977 28.5237 46.2791 30.2685 44.5757 31.0312L45.3929 32.8566C47.6077 31.865 49.5729 29.7481 50.979 27.4414C52.3874 25.1308 53.3399 22.4575 53.377 20.2098L51.3773 20.1768ZM44.0182 31.6857C43.6781 32.9588 43.2099 34.628 42.8258 35.9825C42.634 36.6589 42.4635 37.2555 42.341 37.683C42.2797 37.8967 42.2305 38.0681 42.1965 38.186C42.1796 38.245 42.1664 38.2906 42.1576 38.3214C42.1531 38.3368 42.1497 38.3485 42.1475 38.3563C42.1463 38.3603 42.1455 38.3632 42.1449 38.3652C42.1446 38.3662 42.1444 38.3669 42.1443 38.3674C42.1442 38.3676 42.1442 38.3678 42.1441 38.3679C42.1441 38.368 42.1441 38.368 42.1441 38.3681C42.1441 38.3681 42.1441 38.3681 43.1049 38.6454C44.0656 38.9228 44.0656 38.9227 44.0656 38.9227C44.0657 38.9227 44.0657 38.9226 44.0657 38.9226C44.0657 38.9224 44.0658 38.9222 44.0659 38.922C44.066 38.9214 44.0662 38.9207 44.0665 38.9197C44.0671 38.9176 44.068 38.9146 44.0691 38.9106C44.0714 38.9027 44.0748 38.8908 44.0793 38.8753C44.0883 38.8442 44.1015 38.7983 44.1185 38.7391C44.1526 38.6206 44.2021 38.4485 44.2635 38.2341C44.3865 37.8053 44.5575 37.2068 44.75 36.5281C45.1345 35.1722 45.6061 33.4907 45.9504 32.202L44.0182 31.6857ZM22.2746 54.9056C21.1435 57.3937 18.604 61.0584 16.3162 64.4361C15.1905 66.0982 14.1304 67.6856 13.3801 68.9735C13.0061 69.6155 12.691 70.2133 12.4825 70.7272C12.3783 70.9841 12.2902 71.2452 12.2387 71.4971C12.19 71.7354 12.1561 72.0485 12.238 72.3687L14.1756 71.8728C14.201 71.9719 14.1771 72.0007 14.1982 71.8977C14.2164 71.8084 14.2578 71.6712 14.3357 71.4792C14.4916 71.0951 14.7518 70.5922 15.1082 69.9803C15.8189 68.7605 16.8407 67.2282 17.9721 65.5577C20.1986 62.2704 22.8745 58.4187 24.0953 55.7332L22.2746 54.9056ZM12.238 72.3687C12.3122 72.6582 12.4696 72.9137 12.6062 73.1051C12.7543 73.3127 12.9391 73.5279 13.1432 73.7438C13.5523 74.1765 14.0937 74.6688 14.7135 75.1878C15.9566 76.2287 17.5802 77.431 19.2519 78.5602C20.9227 79.6888 22.6648 80.7601 24.1465 81.5321C24.8855 81.9171 25.5808 82.2388 26.1822 82.4549C26.7314 82.6522 27.3761 82.829 27.9309 82.7442L27.629 80.7671C27.6482 80.7642 27.5968 80.7736 27.4396 80.7428C27.293 80.714 27.0999 80.6594 26.8585 80.5727C26.3755 80.3991 25.7689 80.1222 25.0706 79.7584C23.6777 79.0327 22.0033 78.0052 20.3713 76.9028C18.7401 75.801 17.1746 74.6401 15.9975 73.6544C15.4072 73.1601 14.9309 72.7234 14.5964 72.3697C14.4288 72.1924 14.3104 72.0502 14.2341 71.9433C14.1463 71.8202 14.1581 71.8043 14.1756 71.8728L12.238 72.3687Z" fill="black"/>
<path d="M46.9225 87.3694C41.4052 90.6007 31.7541 85.3712 26.8025 82.7704C31.1741 80.4489 33.08 76.7869 37.056 72.509C41.6422 76.4332 52.4397 84.1381 46.9225 87.3694Z" fill="black"/>
<path d="M60.7655 41.2735C60.4237 41.7073 60.4983 42.3361 60.9321 42.6779C61.3659 43.0197 61.9947 42.9451 62.3365 42.5113L60.7655 41.2735ZM83.5912 27.2056L82.8069 26.5852L83.5912 27.2056ZM74.6778 39.5662L73.9426 38.8884L74.6778 39.5662ZM73.8199 45.702L74.0331 46.679L73.8199 45.702ZM86.5633 48.1282L85.9123 47.3692L86.5633 48.1282ZM37.1576 73.0564L37.8423 73.7852L37.1576 73.0564ZM33.7108 77.3089L34.5509 77.8513L34.5536 77.847L33.7108 77.3089ZM62.3365 42.5113C62.3279 42.5222 62.3518 42.4936 62.4448 42.3902C62.5244 42.3018 62.635 42.1801 62.7733 42.0286C63.0494 41.7261 63.4306 41.3107 63.884 40.8172C64.7899 39.8311 65.9812 38.5357 67.1851 37.219C68.3886 35.9028 69.6074 34.5622 70.5685 33.4852C71.0487 32.9471 71.4676 32.4713 71.7894 32.0957C72.092 31.7423 72.3557 31.424 72.4823 31.2311L70.8101 30.1339C70.7681 30.1978 70.5983 30.4118 70.2704 30.7946C69.9616 31.1551 69.553 31.6193 69.0762 32.1535C68.1235 33.2212 66.9113 34.5545 65.709 35.8695C64.5072 37.1839 63.318 38.4769 62.4111 39.4642C61.5333 40.4198 60.8642 41.1483 60.7655 41.2735L62.3365 42.5113ZM72.4823 31.2311C72.7873 30.7661 74.3543 28.6481 76.1782 26.5664C77.0877 25.5284 78.0413 24.5223 78.917 23.7445C79.3548 23.3556 79.759 23.0365 80.1168 22.8016C80.4849 22.56 80.7528 22.4418 80.9232 22.4011L80.4593 20.4557C79.966 20.5733 79.4746 20.8308 79.0193 21.1296C78.5539 21.4352 78.0707 21.8212 77.5888 22.2492C76.625 23.1053 75.6096 24.1805 74.674 25.2484C72.8076 27.3786 71.1793 29.5712 70.8101 30.1339L72.4823 31.2311ZM80.9232 22.4011C81.7995 22.1922 82.7526 22.6071 83.2593 23.3988C83.7221 24.1218 83.855 25.26 82.8069 26.5852L84.3755 27.8259C85.9004 25.898 85.9106 23.8311 84.9438 22.3206C84.0209 20.8787 82.2375 20.0317 80.4593 20.4557L80.9232 22.4011ZM82.8069 26.5852C82.1856 27.3707 80.4117 29.9818 78.6025 32.5818C76.749 35.2454 74.8654 37.8876 73.9426 38.8884L75.413 40.2441C76.4523 39.1169 78.4294 36.3322 80.2442 33.7242C82.1032 31.0526 83.8049 28.5473 84.3755 27.8259L82.8069 26.5852ZM73.9426 38.8884C73.157 39.7404 71.2893 41.5762 69.5526 43.3868C68.7046 44.2709 67.8981 45.1393 67.32 45.8332C67.0345 46.1759 66.7807 46.5045 66.6046 46.786C66.519 46.9227 66.4254 47.0895 66.3625 47.2671C66.3234 47.3773 66.1755 47.8042 66.4106 48.2458L68.1759 47.3058C68.2818 47.5047 68.285 47.6849 68.2787 47.7739C68.2723 47.8643 68.252 47.9227 68.2476 47.935C68.2395 47.9579 68.2458 47.9335 68.3 47.8469C68.4032 47.6819 68.5878 47.436 68.8567 47.1133C69.3874 46.4763 70.1531 45.6499 70.9959 44.7712C72.6409 43.0562 74.629 41.0944 75.413 40.2441L73.9426 38.8884ZM66.4106 48.2458C66.6056 48.6121 66.933 48.7615 67.14 48.8194C67.3437 48.8763 67.5381 48.8781 67.6765 48.871C67.9593 48.8565 68.2742 48.7872 68.567 48.7079C69.1685 48.545 69.9197 48.2707 70.653 47.9862C71.3877 47.7012 72.1611 47.3832 72.7798 47.1366C73.4492 46.8698 73.8746 46.7136 74.0331 46.679L73.6068 44.725C73.2479 44.8033 72.6396 45.0395 72.0394 45.2787C71.3885 45.5381 70.6563 45.8397 69.9295 46.1216C69.2014 46.4042 68.5353 46.6444 68.0441 46.7775C67.7906 46.8462 67.6402 46.8703 67.5738 46.8737C67.5377 46.8755 67.5866 46.8675 67.6782 46.8931C67.7731 46.9196 68.0218 47.0163 68.1759 47.3058L66.4106 48.2458ZM74.0331 46.679C74.42 46.5946 75.232 46.3338 76.1749 46.0237C77.1533 45.7019 78.3311 45.3069 79.5326 44.9169C80.7319 44.5275 81.9315 44.1509 82.9331 43.8715C83.4342 43.7318 83.8754 43.6193 84.2363 43.5422C84.6149 43.4612 84.8457 43.4325 84.9524 43.4317L84.9378 41.4318C84.6153 41.4341 84.217 41.5011 83.8182 41.5864C83.4016 41.6754 82.9171 41.7997 82.3958 41.9451C81.3526 42.236 80.1207 42.6232 78.915 43.0146C77.7115 43.4053 76.5106 43.8079 75.5501 44.1238C74.5541 44.4513 73.8666 44.6683 73.6068 44.725L74.0331 46.679ZM84.9524 43.4317C85.493 43.4278 86.1721 43.9196 86.4938 44.8755C86.7973 45.7773 86.6443 46.7413 85.9123 47.3692L87.2144 48.8873C88.7121 47.6025 88.8849 45.71 88.3894 44.2376C87.912 42.8193 86.6671 41.4192 84.9378 41.4318L84.9524 43.4317ZM85.9123 47.3692C85.9132 47.3684 85.8969 47.3821 85.8532 47.4119C85.8118 47.44 85.7563 47.4755 85.6849 47.5186C85.5417 47.605 85.353 47.711 85.1195 47.8355C84.6532 48.0841 84.0383 48.3911 83.3123 48.7406C81.8621 49.4388 80.0009 50.2915 78.0682 51.1605C74.1893 52.9048 70.099 54.6812 68.4429 55.4202L69.2578 57.2466C70.8639 56.53 75.0277 54.7206 78.8885 52.9846C80.8257 52.1135 82.7058 51.2523 84.1799 50.5426C84.9162 50.1882 85.5592 49.8676 86.0607 49.6002C86.5252 49.3524 86.9657 49.1006 87.2144 48.8873L85.9123 47.3692ZM68.4429 55.4202C65.2424 56.8482 56.242 59.9344 51.1675 61.3273L51.6969 63.2559C56.8295 61.8471 65.9338 58.7298 69.2578 57.2466L68.4429 55.4202ZM51.1675 61.3273C48.3773 62.0931 45.1142 64.4978 42.4183 66.7938C39.693 69.1149 37.3448 71.5084 36.4728 72.3276L37.8423 73.7852C38.7988 72.8866 41.0361 70.598 43.7151 68.3164C46.4235 66.0097 49.3836 63.8909 51.6969 63.2559L51.1675 61.3273ZM36.4728 72.3276C34.923 73.7837 33.4267 75.8956 32.868 76.7707L34.5536 77.847C35.0738 77.0324 36.4666 75.0777 37.8423 73.7852L36.4728 72.3276ZM32.8707 76.7664C32.3875 77.5147 31.4829 78.6069 30.3917 79.463C29.2763 80.3381 28.1386 80.8335 27.1437 80.7238L26.9245 82.7117C28.698 82.9073 30.3632 82.0274 31.6263 81.0365C32.9136 80.0264 33.9631 78.7615 34.5509 77.8513L32.8707 76.7664Z" fill="black"/>
<path d="M45.4477 48.7715C45.9902 47.9978 46.4219 47.1521 46.7304 46.2589C47.196 44.8669 47.168 43.2266 46.3025 42.0265C46.0705 41.7782 45.9038 41.4762 45.8175 41.1476C45.8047 41.0324 45.8265 40.9161 45.8799 40.8132C45.9333 40.7104 46.016 40.6257 46.1175 40.5699C46.9897 40.2612 47.6955 42.5826 47.777 43.1361C48.0028 44.6865 47.8181 46.269 47.2415 47.7257C46.3925 49.8577 44.7506 51.1752 43.0493 52.6007C42.7694 52.6496 42.4657 52.7164 42.3103 52.395C42.0367 51.8175 43.6552 50.8555 44.0109 50.494C44.5386 49.9623 45.0193 49.386 45.4477 48.7715Z" fill="black"/>
<path d="M47.4326 42.0411C47.3719 41.4921 46.8777 41.0963 46.3288 41.157C45.7798 41.2177 45.384 41.7119 45.4447 42.2608L47.4326 42.0411ZM45.4447 42.2608C45.5718 43.4111 45.5746 45.285 45.1672 47.0918C44.7544 48.9225 43.9669 50.4893 42.6773 51.3053L43.7467 52.9953C45.696 51.7619 46.6589 49.5686 47.1182 47.5317C47.5829 45.471 47.5795 43.3699 47.4326 42.0411L45.4447 42.2608Z" fill="black"/>
<path d="M62.6512 30.7259C63.1422 29.3521 62.3424 25.8297 61.7459 24.6557C60.4973 22.1983 60.4204 20.5375 58.0979 18.0281C56.2855 16.0698 52.6665 17.4431 52.6954 19.5692C52.7243 21.6952 54.2387 25.2389 54.9611 26.5348C56.0093 28.4154 55.6682 30.2011 55.6211 30.777C55.574 31.353 54.8892 32.4808 53.9254 33.3231C52.8979 34.221 49.5963 36.5368 48.1063 37.1376C47.2896 37.4668 43.3044 38.6962 41.1704 39.1788" stroke="black" stroke-width="2" stroke-linecap="round"/>
<path d="M57.3494 37.1962C59.0161 35.1387 62.6896 30.7663 63.3917 29.7794C64.2693 28.5457 68.4422 18.5621 69.3256 17.1171C70.7621 14.7673 73.6563 14.6764 74.8872 15.7547C76.0523 16.7753 75.8681 18.9512 75.4727 21.0051C74.8157 24.4183 71.1615 31.1444 71.1615 31.1444" stroke="black" stroke-width="2" stroke-linecap="round"/>
</svg>
