<svg width="100" height="100" viewBox="0 0 100 100" fill="none" xmlns="http://www.w3.org/2000/svg">
<path d="M19.6792 70.3258C19.6792 70.3258 33.0492 58.0678 37.1792 58.2748C41.3192 58.4828 53.2893 64.8458 57.3593 62.9568C61.4293 61.0668 71.2193 50.6838 70.8793 48.5568C70.5393 46.4308 67.2593 45.8098 64.7693 48.5618C62.2793 51.3138 55.8693 55.3208 55.8693 55.3208" stroke="black" stroke-width="2" stroke-miterlimit="10" stroke-linecap="round" stroke-linejoin="round"/>
<path d="M58.8691 62.3407C58.8691 62.3407 69.4291 62.9627 73.7291 59.4047C77.8491 55.9947 82.8091 50.9177 79.3091 49.7357C75.2091 48.3507 73.5192 52.0787 71.6292 53.7587C69.7392 55.4377 64.9691 56.8187 64.9691 56.8187" stroke="black" stroke-width="2" stroke-miterlimit="10" stroke-linecap="round" stroke-linejoin="round"/>
<path d="M63.1191 62.5095C63.1191 62.5095 62.899 68.7125 62.809 70.6855C62.709 72.6595 62.3391 73.5005 63.0191 74.1685C63.6991 74.8365 66.209 75.4225 66.439 74.2105C66.679 72.9975 66.289 67.4515 66.329 66.2355C66.369 65.0205 66.1091 62.0215 66.1091 62.0215" stroke="black" stroke-width="2" stroke-miterlimit="10" stroke-linejoin="round"/>
<path d="M62.4792 73.1777C62.4792 73.1777 56.2392 73.5167 54.9892 75.3597C53.7492 77.2027 59.8192 78.2357 64.5092 78.3307C71.7392 78.4777 77.6791 75.2967 72.8191 74.4667C67.9491 73.6357 66.6791 73.4357 66.6791 73.4357" stroke="black" stroke-width="2" stroke-miterlimit="10" stroke-linejoin="round"/>
<path d="M79.8191 44.7847C79.8191 44.7847 82.4392 44.1977 82.5092 46.7187C82.5392 48.0697 80.0891 50.2287 80.0891 50.2287" stroke="black" stroke-width="2" stroke-miterlimit="10" stroke-linejoin="round"/>
<path d="M19.6392 70.3297C19.6292 68.1997 18.9691 64.5887 18.7091 60.2317C18.4391 55.8757 18.5691 52.9047 18.5691 52.9047C18.5691 52.9047 24.7392 48.6857 28.7492 43.9467C32.7592 39.2067 50.3792 34.0527 50.3792 34.0527" stroke="black" stroke-width="2" stroke-miterlimit="10" stroke-linecap="round" stroke-linejoin="round"/>
<path d="M43.7393 44.3154C43.7393 44.3154 47.6693 48.5354 50.4893 51.0184C53.2993 53.5004 55.2193 55.3914 57.1393 56.4444" stroke="black" stroke-width="2" stroke-miterlimit="10" stroke-linecap="round" stroke-linejoin="round"/>
<path d="M19.6691 70.4558C19.6691 70.4558 15.8091 38.4608 19.8291 36.1338C23.8591 33.8068 24.8592 47.7138 24.8592 47.7138L18.6791 52.9748" fill="black"/>
<path d="M19.6691 70.4558C19.6691 70.4558 15.8091 38.4608 19.8291 36.1338C23.8591 33.8068 24.8592 47.7138 24.8592 47.7138L18.6791 52.9748" stroke="black" stroke-width="2" stroke-miterlimit="10" stroke-linejoin="round"/>
<path d="M50.9592 51.4018C50.9592 51.4018 47.7992 47.3298 48.5092 42.8268C49.2292 38.3238 54.0791 24.4347 54.9291 23.5687C56.9291 21.5577 62.1592 22.0168 64.9792 22.1128C67.8092 22.2088 73.0891 22.4587 74.1891 23.8557C75.7091 25.7837 77.0492 30.5857 77.9892 33.7847C78.6292 35.9427 79.2992 39.0347 79.5992 42.3467C79.8992 45.6587 78.5992 49.3817 78.5992 49.3817" stroke="black" stroke-width="2" stroke-miterlimit="10" stroke-linejoin="round"/>
<path d="M49.4092 40.0597C49.4092 40.0597 54.0092 37.8207 60.0892 39.9307C66.1792 42.0407 68.6992 42.1087 72.1792 41.6487C75.6592 41.1887 79.0093 39.5187 79.0093 39.5187L78.6592 48.7007C78.6592 48.7007 76.0892 48.8657 74.6692 49.9447C73.2392 51.0237 68.3192 54.5357 68.3192 54.5357C68.3192 54.5357 71.4792 50.2577 71.5892 48.3487C71.6992 46.4407 69.3292 45.2917 67.0992 46.1357C64.8692 46.9797 61.5192 50.2397 59.9192 51.5097C58.3292 52.7787 55.3192 54.4917 55.3192 54.4917C55.3192 54.4917 51.5292 51.4517 50.5292 49.0327C49.5392 46.6137 49.4092 40.0597 49.4092 40.0597Z" fill="black" stroke="black" stroke-width="2" stroke-miterlimit="10" stroke-linejoin="round"/>
<path d="M54.9092 24.3584C54.9092 24.3584 62.1092 26.2954 66.2992 26.1424C70.4892 25.9894 74.0892 24.5194 74.0892 24.5194" stroke="black" stroke-width="2" stroke-miterlimit="10" stroke-linecap="round" stroke-linejoin="round"/>
</svg>
