<svg width="100" height="100" viewBox="0 0 100 100" fill="none" xmlns="http://www.w3.org/2000/svg">
<path d="M41.3469 83C41.3469 83 80.213 78.7879 73.5914 71.9253C70.1613 68.3691 53.3229 71.7078 53.3229 71.7078C53.3229 71.7078 56.5132 73.6667 59.7705 75.36C63.0277 77.0544 66.1299 78.4399 66.1299 78.4399C66.1299 78.4399 62.0427 79.4951 56.2466 80.7378C50.4505 81.9816 41.3469 83 41.3469 83Z" fill="black" stroke="black" stroke-width="2" stroke-miterlimit="10" stroke-linejoin="round"/>
<path d="M27.3967 68.249C29.4582 71.6803 31.0712 72.1722 35.8678 71.2988" stroke="black" stroke-width="2" stroke-miterlimit="10" stroke-linecap="round" stroke-linejoin="round"/>
<path d="M48.3925 62.9951C47.1096 65.2585 46.041 66.3159 43.7643 67.3991" stroke="black" stroke-width="2" stroke-miterlimit="10" stroke-linecap="round" stroke-linejoin="round"/>
<path d="M43.6425 46.138C43.6425 46.138 40.3339 45.5847 38.4989 50.9949C38.0973 52.1818 37.7538 55.3252 38.1587 57.0721" stroke="black" stroke-width="2" stroke-miterlimit="10" stroke-linecap="round" stroke-linejoin="round"/>
<path d="M66.4164 78.308C66.4164 78.308 45.4395 70.6289 47.9895 63.9292C49.0805 61.0624 50.6143 60.4589 51.9919 54.5345C53.3696 48.6112 51.0415 45.3261 52.4593 41.3315C53.876 37.3369 54.8621 34.3764 52.8731 33.1259C50.8853 31.8754 44.9253 36.4088 44.0518 40.8563C43.1784 45.3038 44.0875 49.1902 44.0875 49.1902" stroke="black" stroke-width="2" stroke-miterlimit="10" stroke-linecap="round" stroke-linejoin="round"/>
<path d="M41.1761 82.8471C41.1761 82.8471 34.9361 78.7533 30.0312 72.4105C24.2418 64.9278 24.7427 58.342 25.3528 52.0483C25.963 45.7581 26.0634 42.464 25.9798 39.6173C25.8158 34.0063 29.4824 30.0842 29.9119 34.7782C30.2175 38.1035 30.1395 40.6558 30.1395 40.6558" stroke="black" stroke-width="2" stroke-miterlimit="10" stroke-linecap="round" stroke-linejoin="round"/>
<path d="M30.2143 45.647C30.134 40.2045 30.183 36.104 30.1228 32.8289C30.0536 29.0942 30.1172 21.6739 33.6734 22.7537C35.292 23.2456 34.6796 24.0243 34.9908 30.8946" stroke="black" stroke-width="2" stroke-miterlimit="10" stroke-linecap="round" stroke-linejoin="round"/>
<path d="M34.8838 40.8532L35.021 28.3496L34.8949 23.292C34.8949 23.292 34.8213 17.4501 37.1159 17.034C39.9425 16.522 41.2744 21.9054 40.8416 25.4215C40.6107 27.3067 40.304 30.2538 40.304 30.2538" stroke="black" stroke-width="2" stroke-miterlimit="10" stroke-linecap="round" stroke-linejoin="round"/>
<path d="M39.851 36.3136C39.9938 34.7463 40.1254 31.3028 40.3998 29.6585C40.5527 28.7416 40.3195 18.961 44.6309 18.6944C47.3405 18.5259 46.6499 25.5892 46.3354 32.7719C46.2004 35.8451 46.2662 36.5356 46.2662 36.5356" stroke="black" stroke-width="2" stroke-miterlimit="10" stroke-linecap="round" stroke-linejoin="round"/>
</svg>
