<svg width="100" height="100" viewBox="0 0 100 100" fill="none" xmlns="http://www.w3.org/2000/svg">
<path d="M17.2318 58.1047C17.2318 58.1047 32.6068 54.5067 35.9568 50.1387C40.7518 43.8877 46.6338 34.6647 49.8948 33.2667C53.1558 31.8687 65.8899 36.1247 69.2599 38.1467C71.1569 39.2837 76.8399 42.7017 80.6179 45.7057C84.1909 48.5457 82.1488 50.1877 80.8038 50.8967C77.7248 52.5177 66.2329 45.1307 62.6819 43.8387C59.1319 42.5467 56.4719 45.0897 57.0699 48.2127C57.3849 49.8527 62.7818 50.5617 65.4638 50.7587C69.8038 51.0777 72.9538 50.1417 75.2148 50.9607C79.0108 52.3367 78.8519 56.7867 74.1099 57.7047C70.9259 58.3217 63.7719 59.7207 58.1169 61.9007C53.3189 63.7497 49.4898 63.5287 41.4268 65.7187C29.7148 68.9007 18.0758 78.0177 18.0758 78.0177C18.0758 78.0177 17.3409 70.7447 17.1959 65.7537C17.0399 60.3967 17.2318 58.1047 17.2318 58.1047Z" stroke="black" stroke-width="2" stroke-miterlimit="10" stroke-linejoin="round"/>
<path d="M18.0758 77.9794C18.0758 77.9794 15.3389 49.3464 18.5959 44.0544C24.1629 35.0084 26.0668 55.1244 26.0668 55.1244L17.6419 57.7474" fill="black"/>
<path d="M18.0758 77.9794C18.0758 77.9794 15.3389 49.3464 18.5959 44.0544C24.1629 35.0084 26.0668 55.1244 26.0668 55.1244L17.6419 57.7474" stroke="black" stroke-width="2" stroke-miterlimit="10" stroke-linejoin="round"/>
<path d="M51.9561 32.9477C51.9561 32.9477 56.9601 31.2087 60.9431 28.4627C64.9261 25.7167 68.6711 22.1507 70.8681 22.0407C73.5771 21.9047 73.4201 24.8257 72.1041 26.2557C70.7881 27.6867 66.5611 31.8247 61.4131 35.0547" stroke="black" stroke-width="2" stroke-miterlimit="10" stroke-linejoin="round"/>
<path d="M72.5688 25.6314C72.5688 25.6314 74.9188 22.7364 76.6198 22.1314C78.4278 21.4874 79.4609 23.3134 79.0349 25.3564C78.6099 27.3994 75.8299 30.6274 73.3289 32.6824C70.8269 34.7374 67.5349 37.2664 67.5349 37.2664" stroke="black" stroke-width="2" stroke-miterlimit="10" stroke-linejoin="round"/>
</svg>
