<svg width="100" height="100" viewBox="0 0 100 100" fill="none" xmlns="http://www.w3.org/2000/svg">
<path d="M47.3349 40.2538C47.3349 40.2538 45.1229 35.3388 44.8479 32.3148C44.5729 29.2908 44.6559 26.0518 44.6559 26.0518C44.6559 26.0518 35.5319 23.2458 33.4919 21.0268C31.4519 18.8078 32.7529 17.2088 36.1089 17.0088C39.4639 16.8088 46.2719 20.0688 49.0689 21.8868C51.8649 23.7048 56.2209 37.4478 57.7279 43.5098C58.6489 47.2148 61.1379 55.8408 65.3399 59.9338C69.5429 64.0278 80.2179 65.6448 80.2179 65.6448C80.2179 65.6448 80.1629 68.8848 80.0039 72.7218C79.8219 77.0978 79.2029 83.2958 79.2029 83.2958C79.2029 83.2958 75.586 83.0918 73.912 82.7398C61.556 80.1408 49.9899 67.7048 46.6039 66.6398C42.6729 65.4038 42.4439 61.4608 42.4439 61.4608L42.5909 46.1008C42.5909 46.1008 41.1509 44.5008 37.0079 42.6038C33.9989 41.2258 30.2169 37.8658 32.0549 35.8598C33.8939 33.8538 38.6439 33.9778 42.1349 36.7038C45.6269 39.4308 49.8359 41.9518 49.8359 41.9518" stroke="black" stroke-width="2" stroke-miterlimit="10" stroke-linecap="round" stroke-linejoin="round"/>
<path d="M79.1131 83.6241C79.1131 83.6241 82.6981 57.36 78.9231 52.595C75.1591 47.845 73.3921 63.825 73.3921 63.825L79.7381 65.377" fill="black"/>
<path d="M79.1131 83.6241C79.1131 83.6241 82.6981 57.36 78.9231 52.595C75.1591 47.845 73.3921 63.825 73.3921 63.825L79.7381 65.377" stroke="black" stroke-width="2" stroke-miterlimit="10" stroke-linejoin="round"/>
<path d="M44.158 37.6108C44.158 37.6108 44.42 30.1308 44.238 28.9148C44.055 27.6978 41.263 27.3748 38.615 27.5538C35.968 27.7338 25.905 27.4268 25.704 28.6498C25.101 32.3288 25.098 43.0368 25.129 46.7378C25.276 64.5278 23.389 69.6048 26.479 70.2818C28.748 70.7788 41.053 71.7668 42.086 70.1008C42.828 68.9038 42.284 62.8818 42.46 61.5568" stroke="black" stroke-width="2" stroke-miterlimit="10" stroke-linecap="round" stroke-linejoin="round"/>
<path d="M25.557 47.1263C25.557 47.1263 28.909 45.6893 30.746 46.3563C33.482 47.3493 35.543 48.6163 37.307 49.1083C39.829 49.8113 42.307 49.3893 42.307 49.3893L42.235 52.2743L41.738 69.8503C41.738 69.8503 37.306 70.7233 33.295 70.3363C29.284 69.9503 25.62 70.1773 25.514 67.4203C25.409 64.6623 25.997 55.1443 25.967 53.1763C25.936 51.2093 25.557 47.1263 25.557 47.1263Z" fill="black" stroke="black" stroke-width="2" stroke-miterlimit="10" stroke-linejoin="round"/>
<path d="M42.6621 46.1288C42.6621 46.1288 45.2931 48.1768 46.0661 48.8278" stroke="black" stroke-width="2" stroke-miterlimit="10" stroke-linecap="round" stroke-linejoin="round"/>
<path d="M27.057 28.0693C27.057 28.0693 23.914 28.5773 21.835 31.2513C19.756 33.9253 17.795 36.5653 19.91 37.7223C22.184 38.9673 25.102 36.0293 25.102 36.0293" stroke="black" stroke-width="2" stroke-miterlimit="10" stroke-linejoin="round"/>
<path d="M24.673 36.7268C24.673 36.7268 20.465 41.1578 22.153 42.5598C23.841 43.9618 24.937 43.4908 24.937 43.4908" stroke="black" stroke-width="2" stroke-miterlimit="10" stroke-linejoin="round"/>
<path d="M31.1667 24.7093L29.4237 24.6854" stroke="black" stroke-width="2" stroke-miterlimit="10" stroke-linecap="round" stroke-linejoin="round"/>
<path d="M31.8051 27.471C31.8051 27.471 30.8832 23.927 31.7076 23.0561C32.5332 22.1863 35.4024 22.8554 36.3698 23.0561C37.3371 23.2557 36.3698 27.6354 36.3698 27.6354" stroke="black" stroke-width="2" stroke-miterlimit="10" stroke-linejoin="round"/>
</svg>
