<svg width="100" height="100" viewBox="0 0 100 100" fill="none" xmlns="http://www.w3.org/2000/svg">
<path d="M64.6107 49.8833C64.6107 49.8833 57.7536 43.8203 54.5456 41.3533C50.4796 38.2283 45.7797 36.6213 44.6467 39.0203C43.5127 41.4183 46.7457 44.4743 48.8877 46.6733C51.0307 48.8723 53.8856 52.2623 54.9276 55.1373C56.0016 58.1003 56.5606 61.8073 58.2566 64.3603C60.6226 67.9223 61.4336 66.8263 66.4356 72.0123C68.6296 74.2873 67.6696 82.2723 67.6696 82.2723C67.6696 82.2723 70.5807 82.1013 74.2487 82.0393C77.9177 81.9773 82.7207 81.5133 82.7207 81.5133C82.7387 81.6953 84.4116 78.2703 81.0156 67.0993C81.0156 67.0993 76.5986 54.4513 75.4566 51.5203C73.1106 45.4963 68.1536 36.1853 65.0946 34.5363C60.4136 32.0113 50.4347 33.0693 50.4347 33.0693" stroke="black" stroke-width="2" stroke-miterlimit="10" stroke-linecap="round" stroke-linejoin="round"/>
<path d="M82.8827 81.474C82.8827 81.474 47.3457 84.342 56.1947 79.675C60.5477 77.379 67.6947 77.248 67.6947 77.248L67.3587 82.033" fill="black"/>
<path d="M82.8827 81.474C82.8827 81.474 47.3457 84.342 56.1947 79.675C60.5477 77.379 67.6947 77.248 67.6947 77.248L67.3587 82.033" stroke="black" stroke-width="2" stroke-miterlimit="10" stroke-linejoin="round"/>
<path d="M50.0899 48.4904C50.0899 48.4904 47.1579 50.3814 47.4309 52.4404C47.7039 54.4984 49.8319 55.2804 51.6279 54.5234C52.4979 54.1574 53.4709 52.9084 53.4709 52.9084" stroke="black" stroke-width="2" stroke-miterlimit="10" stroke-linecap="round" stroke-linejoin="round"/>
<path d="M56.2949 42.3829C56.2949 42.3829 58.6339 40.4899 60.2019 41.4279" stroke="black" stroke-width="2" stroke-miterlimit="10" stroke-linecap="round" stroke-linejoin="round"/>
<path d="M49.8429 48.2384C49.8429 48.2384 48.7289 49.4194 47.7779 50.5824C47.7779 50.5824 45.8439 53.1214 44.9409 54.1864C43.8999 55.4114 42.8819 54.3104 42.3929 54.0994C40.6899 53.3634 18.6849 34.1504 17.7149 33.2404C17.2349 32.7894 16.5389 31.9774 17.4289 30.5734C18.3389 29.1394 20.9229 26.0624 21.9339 25.0344C23.1949 23.7504 26.4739 19.6434 28.7159 17.6164C30.0299 16.4284 31.5329 17.2344 32.2469 17.7404C34.1789 19.1104 43.8749 27.4594 45.8919 29.2584C47.2859 30.5004 54.7849 36.9024 54.7849 36.9024C54.7849 36.9024 56.0199 38.1654 56.1259 38.5354C56.6529 40.3664 56.2039 39.8174 55.2969 41.0124" stroke="black" stroke-width="2" stroke-miterlimit="10" stroke-linecap="round" stroke-linejoin="round"/>
<path d="M19.5339 27.6954C19.5339 27.6954 35.3889 40.9874 37.6889 42.8674C39.9889 44.7474 47.4389 50.8634 47.4389 50.8634L49.7689 48.2694L41.6709 41.3964L22.3069 24.8254L19.5339 27.6954Z" fill="black" stroke="black" stroke-width="2" stroke-miterlimit="10" stroke-linejoin="round"/>
<path d="M30.9297 23.0361C31.6447 23.1831 32.8957 24.6851 33.4357 25.2071C35.5567 27.2591 38.0637 28.8621 40.0387 31.0891" stroke="black" stroke-width="2" stroke-miterlimit="10" stroke-linecap="round" stroke-linejoin="round"/>
</svg>
