<svg width="100" height="100" viewBox="0 0 100 100" fill="none" xmlns="http://www.w3.org/2000/svg">
<path d="M76.3199 58.4688C75.4239 61.6418 79.7859 62.6648 81.1879 60.7988C83.3349 57.9398 79.1569 55.6638 79.1569 55.6638C79.1569 55.6638 76.6799 57.1958 76.3199 58.4688Z" fill="black" stroke="black" stroke-width="2" stroke-miterlimit="10" stroke-linejoin="round"/>
<path d="M77.9847 61.4536L76.0938 73.2826C76.0938 73.2826 77.0018 75.1426 78.7408 75.1526C80.4798 75.1616 80.7287 74.1206 80.9167 72.9926C81.0447 72.2276 80.0428 61.4866 80.0428 61.4866C80.0428 61.4866 79.7778 61.5466 78.8938 61.4906C78.0108 61.4336 77.9847 61.4536 77.9847 61.4536Z" fill="black" stroke="black" stroke-width="2" stroke-miterlimit="10" stroke-linejoin="round"/>
<path d="M79.2968 39.2139L79.1968 54.7879" stroke="black" stroke-width="2" stroke-miterlimit="10" stroke-linecap="round" stroke-linejoin="round"/>
<path d="M18 36.9559C18 36.9559 46.284 24.5109 50.948 25.0149C55.797 25.5379 78.808 33.9939 81.872 35.6559C82.999 36.2679 74.781 40.5719 66.799 44.4159C58.817 48.2599 51.926 50.8489 50.875 51.4409C50.875 51.4409 43.236 48.7689 34.607 44.9929C25.978 41.2179 18 36.9559 18 36.9559Z" stroke="black" stroke-width="2" stroke-miterlimit="10" stroke-linecap="round" stroke-linejoin="round"/>
<path d="M27.5742 42.6419L30.2982 62.3169C30.2982 62.3169 30.3992 63.0229 30.4202 63.1559C30.5462 63.9619 37.1382 70.4679 51.9112 70.6779C65.9462 70.8769 68.9952 63.6979 68.9952 63.6979L72.6822 42.2029" stroke="black" stroke-width="2" stroke-miterlimit="10" stroke-linecap="round" stroke-linejoin="round"/>
<path d="M29.792 58.4395C30.253 60.7245 33.046 64.3025 34.209 65.0405C36.361 66.4055 40.91 69.2445 48.485 69.6785C66.631 70.7195 69.192 62.5195 69.192 62.5195" stroke="black" stroke-width="2" stroke-miterlimit="10" stroke-linecap="round" stroke-linejoin="round"/>
<path d="M71.0598 44.2649L50.9998 53.3769L28.3828 44.0499" stroke="black" stroke-width="2" stroke-miterlimit="10" stroke-linecap="round" stroke-linejoin="round"/>
<path d="M79.2919 38.5134C79.2919 38.5134 77.99 37.5675 76.298 37.6005C74.189 37.6405 51.4199 38.1585 51.4199 38.1585" stroke="black" stroke-width="2" stroke-miterlimit="10" stroke-linecap="round" stroke-linejoin="round"/>
<path d="M52.0129 38.188C52.0129 38.188 51.5749 36.028 50.1759 36.135C48.5929 36.256 47.4419 37.5229 48.4179 37.7359C49.3929 37.9489 52.0129 38.188 52.0129 38.188Z" stroke="black" stroke-width="2" stroke-miterlimit="10" stroke-linecap="round" stroke-linejoin="round"/>
</svg>
