<svg width="100" height="100" viewBox="0 0 100 100" fill="none" xmlns="http://www.w3.org/2000/svg">
<path d="M63.1106 48.0189C63.1106 48.0189 79.1626 45.3476 81.2826 43.203C83.4026 41.0584 81.8886 39.1064 78.7096 38.0248C75.5316 36.9433 69.5646 36.4337 66.5746 36.9825C61.3796 37.9359 43.3656 40.1963 41.1251 40.8311C38.8846 41.466 32.1244 42.0339 30.7637 42.3802C29.4031 42.7265 23.9815 36.7586 22.3595 36.7683C20.5214 36.7792 16.9159 36.727 18.3152 39.2416C19.7146 41.7561 25.4599 49.3938 25.4599 49.3938" stroke="black" stroke-width="2" stroke-miterlimit="10" stroke-linejoin="round"/>
<path d="M25.033 48.9822L31.9251 47.9609C31.9251 47.9609 31.6823 55.5082 30.6833 57.4492C29.7717 59.2192 27.6609 57.3942 27.6609 57.3942L25.033 48.9822Z" stroke="black" stroke-width="2" stroke-miterlimit="10" stroke-linejoin="round"/>
<path d="M31.6292 52.9086C31.6292 52.9086 35.2472 53.9048 40.8776 52.4125C43.632 51.6824 49.0739 50.4717 49.0739 50.4717" stroke="black" stroke-width="2" stroke-miterlimit="10" stroke-linejoin="round"/>
<path d="M49.8199 48.527C49.8199 48.527 64.0546 44.0722 63.8726 46.1061C63.6896 48.1399 57.8586 55.2828 55.849 57.8408C53.8394 60.3988 50.1568 65.7788 46.5268 66.5198C42.8967 67.2608 43.6803 65.1548 43.6803 65.1548L49.8199 48.527Z" stroke="black" stroke-width="2" stroke-miterlimit="10" stroke-linejoin="round"/>
<path d="M78.9966 38.625C78.9966 38.625 77.6016 40.3428 74.5206 40.5681" stroke="black" stroke-width="2" stroke-miterlimit="10" stroke-linecap="round" stroke-linejoin="round"/>
<path d="M58.0366 38.1472C58.0366 38.1472 43.7449 33.2001 42.2592 33.0127C40.7734 32.8253 37.2877 34.7681 37.2877 34.7681L45.5618 39.8753" stroke="black" stroke-width="2" stroke-miterlimit="10" stroke-linejoin="round"/>
<path d="M37.9418 46.1557L38.7472 45.9668" stroke="black" stroke-width="2" stroke-miterlimit="10" stroke-linecap="round" stroke-linejoin="round"/>
<path d="M44.3936 44.9613C44.5971 44.8253 45.0214 44.7433 45.258 44.7562" stroke="black" stroke-width="2" stroke-miterlimit="10" stroke-linecap="round" stroke-linejoin="round"/>
<path d="M50.5398 43.8718C50.8513 43.8887 51.2697 43.7988 51.5761 43.7148" stroke="black" stroke-width="2" stroke-miterlimit="10" stroke-linecap="round" stroke-linejoin="round"/>
<path d="M58.2646 42.4103C58.5976 42.3189 58.8986 42.2835 59.2416 42.2695" stroke="black" stroke-width="2" stroke-miterlimit="10" stroke-linecap="round" stroke-linejoin="round"/>
<path d="M65.3286 41.3205C65.6576 41.3384 65.9776 41.2027 66.3056 41.1797" stroke="black" stroke-width="2" stroke-miterlimit="10" stroke-linecap="round" stroke-linejoin="round"/>
</svg>
