<svg width="100" height="100" viewBox="0 0 100 100" fill="none" xmlns="http://www.w3.org/2000/svg">
<path d="M40.2316 23.0834C37.1992 24.8476 38.3029 29.2016 39.1529 31.2691C39.3879 31.903 42.3682 29.6996 42.8506 29.0793C43.333 28.4591 46.0897 28.1834 46.5032 28.1145C46.9167 28.0456 49.8113 25.978 49.2599 24.8064C48.7086 23.6348 44.0221 20.8781 40.2316 23.0834Z" stroke="black" stroke-width="2" stroke-linecap="round"/>
<path d="M40.4307 31.8481C40.7992 32.9704 41.6166 35.3052 41.9382 35.6671" stroke="black" stroke-width="2" stroke-linecap="round"/>
<path d="M46.0583 34.3607C47.1135 34.0257 49.5054 33.406 50.631 33.6069C51.7567 33.8078 56.1587 35.8681 56.5607 35.5163C56.9627 35.1644 61.7868 30.3806 61.9878 30.1394C62.239 29.8379 59.7265 26.823 60.2792 26.5215C60.832 26.22 61.636 25.9688 61.9878 25.617C62.3395 25.2653 64.0983 24.7126 66.0078 25.617C67.9173 26.5215 64.048 32.0994 63.2943 33.6069C62.5405 35.1143 58.0943 40.2901 57.0632 40.2901C55.5557 40.2901 52.2006 39.8197 50.2408 39.5517" stroke="black" stroke-width="2" stroke-linecap="round"/>
<path d="M41.3179 34.9803C39.8251 34.697 37.933 34.0502 36.0613 33.4263C35.1754 33.1311 34.3267 32.8548 33.6791 32.2353C33.0316 31.6157 32.2725 23.7044 32.3179 22.9335C32.3746 21.9698 34.1755 21.0357 34.1755 20.2988C34.1755 19.5619 33.0984 18.995 33.0984 18.3148C33.0984 17.6345 28.7337 16.9543 28.3936 18.3148C28.0535 19.6753 29.0743 23.3305 29.0738 28.745C29.0737 30.8173 28.8021 34.7881 30.2759 35.7518C31.7497 36.7154 38.5969 41.0457 38.8803 41.7826C39.1071 42.3722 39.2393 47.0166 39.2771 49.2651" stroke="black" stroke-width="2" stroke-linecap="round"/>
<path d="M51.2539 39.7671C51.3638 41.2623 51.2539 44.6562 51.2539 44.9729" stroke="black" stroke-width="2" stroke-linecap="round"/>
<path d="M45.5858 47.6107C43.7102 48.0366 43.4438 48.0877 39.5285 47.6106C39.0182 48.0697 38.9332 50.9472 39.5284 50.9472C40.4059 50.9472 43.6572 51.3675 46.6108 50.5879C49.4202 49.8464 51.2149 47.508 51.4388 47.2841C51.898 46.8249 51.4869 45.5031 51.1297 45.0439C50.7725 44.5847 47.4615 47.1848 45.5858 47.6107Z" stroke="black" stroke-width="2" stroke-linecap="round"/>
<path d="M58.4215 47.7222C60.695 47.894 63.4295 59.3977 64.211 59.9661C65.4906 60.8967 69.5223 59.5508 70.7089 61.8646C71.4482 63.3063 66.6986 63.4289 64.211 64.5345C63.5716 64.8187 61.4417 65.8219 61.0975 62.5173C60.8008 59.6694 57.5264 55.0263 56.958 54.6" stroke="black" stroke-width="2" stroke-linecap="round"/>
<path d="M52.1331 47.5019C53.9093 47.3361 57.6181 47.104 58.2433 47.5019C59.0248 47.9994 57.0663 55.5985 55.7874 55.5275C54.5085 55.4564 47.8349 55.6671 47.3375 55.8803C46.8402 56.0934 45.9613 62.3345 45.2508 62.4055C44.5403 62.4766 38.7545 62.0078 38.4703 60.9421C38.2429 60.0895 38.8465 53.8161 39.3472 49.9481" stroke="black" stroke-width="2" stroke-linecap="round"/>
<path d="M39.5587 61.7412C39.0851 65.6095 38.1379 73.4882 38.1379 74.0565C38.1378 74.7669 33.717 78.2404 34.0327 79.2667C34.3485 80.2929 39.0062 78.1615 40.2693 77.9246C41.5324 77.6878 43.6546 77.6438 43.6546 76.2228C43.6546 74.8019 42.6376 73.5828 42.4797 72.4775C42.3534 71.5934 44.1112 65.4253 45.0059 62.4517" stroke="black" stroke-width="2" stroke-linecap="round"/>
<path d="M27.6772 54.8239C26.1868 55.4945 25.0068 58.3327 24.6032 59.6679C24.347 60.422 26.3732 61.624 27.6772 62.276C28.9813 62.9281 31.4034 61.0651 32.7076 60.5061C33.7509 60.059 33.1423 57.1527 32.7076 55.7554C31.6518 55.1655 29.1677 54.1532 27.6772 54.8239Z" stroke="black" stroke-width="2" stroke-linecap="round"/>
<path d="M69.9258 39.1661C69.4852 40.6345 67.8456 41.7355 67.0809 42.1025C65.8442 42.8971 67.0809 44.4886 67.0809 45.5898C67.0809 46.6911 72.9543 44.6723 74.7257 43.7191C76.0288 43.018 75.2763 38.213 74.2668 37.2953C73.2573 36.3776 70.4765 37.3305 69.9258 39.1661Z" stroke="black" stroke-width="2" stroke-linecap="round"/>
<path d="M50.0372 55.6615C45.5824 55.6615 43.1779 54.7992 43.178 51.2573" stroke="black" stroke-width="2" stroke-linecap="round"/>
<path d="M48.0379 27.2666C49.265 27.7079 49.204 29.1845 49.204 30.0666C49.2039 30.644 48.5581 33.7527 46.7754 34.1307" stroke="black" stroke-width="2" stroke-linecap="round"/>
<path d="M64.9971 25.0101C65.3868 24.2888 66.4355 22.975 67.5117 23.4896C68.8569 24.1328 70.202 25.5364 70.202 27.6418C70.202 29.7472 66.4005 31.3848 65.6988 30.2736" stroke="black" stroke-width="2" stroke-linecap="round"/>
<path d="M28.9322 17.7256C27.8088 17.7586 25.5423 18.0725 25.4629 19.0637C25.3637 20.3028 25.4628 22.9296 26.4541 23.1278C27.2471 23.2864 28.1392 23.1939 28.4861 23.1278" stroke="black" stroke-width="2" stroke-linecap="round"/>
<path d="M31.2316 17.4212C33.1349 16.7002 33.7395 14.8603 34.7307 15.0982C35.9697 15.3957 36.2671 16.9714 36.2671 18.1712C36.2671 19.6085 35.0399 20.168 34.3461 20.5645" stroke="black" stroke-width="2" stroke-linecap="round"/>
<path d="M66.1945 64.7525C65.3113 64.8078 64.4463 66.5238 64.1242 67.3749C63.7166 68.2783 67.6437 69.4451 69.0929 69.4451C70.5421 69.4451 72.1294 66.6846 71.4393 65.7185C70.7492 64.7523 67.2986 64.6833 66.1945 64.7525Z" stroke="black" stroke-width="2" stroke-linecap="round"/>
<path d="M39.2113 79.5206C37.4446 79.8518 35.9908 82.3271 35.4847 83.5233C35.1396 85.1796 39.2113 84.5585 42.3167 84.2825C45.4222 84.0064 47.0785 82.005 46.8024 81.1079C46.5264 80.2107 41.4196 79.1066 39.2113 79.5206Z" stroke="black" stroke-width="2" stroke-linecap="round"/>
<path d="M43.3562 29.2271C44.0863 30.3692 45.9734 32.777 47.681 33.2713" stroke="black" stroke-width="2" stroke-linecap="round"/>
<path d="M67.0912 23.656C66.4913 24.0559 65.2659 24.9072 65.1631 25.1128L66.6199 27.0839L65.8915 30.0833L67.0912 30.5975L69.4479 29.312L70.3906 27.0839L69.0194 24.8558L67.0912 23.656Z" fill="black"/>
<path d="M25.9174 18.6971L28.5333 18.0818L28.2871 19.8973V23.2516L26.6561 23.5594L25.2405 21.3745L25.9174 18.6971Z" fill="black" stroke="black"/>
<path d="M34.5646 15.2505C33.7851 15.7839 32.1767 16.9123 31.9797 17.1585L32.7799 17.7124L33.8877 19.7742L35.5803 19.9589L36.4112 18.8202L35.9188 16.266L34.5646 15.2505Z" fill="black"/>
<path d="M38.227 79.564C37.3001 80.8448 35.436 83.4571 35.3955 83.6593L37.1652 84.9234L43.3336 84.5695L46.9235 82.3953V80.7774C45.828 80.3729 43.5763 79.6246 43.3336 79.8673C43.0909 80.1099 39.8281 79.7662 38.227 79.564Z" fill="black"/>
<path d="M65.5296 64.9009L64.3162 67.7324L66.2376 68.7437L69.2712 69.3504L71.0914 68.3897L71.7993 66.6706L71.0914 65.71L69.2712 64.9009H65.5296Z" fill="black"/>
<path d="M38.2266 73.758L42.3958 72.426" stroke="black" stroke-width="2"/>
<path d="M60.8508 61.2644L63.9423 59.7429" stroke="black" stroke-width="2"/>
<path d="M44.4052 47.8561H39.5759L39.3291 49.4425L40.1751 50.8172H45.6037C45.9562 50.8172 48.7409 49.5482 48.9877 49.4425C49.1851 49.3579 50.856 48.2087 51.6667 47.6447L51.42 46.0584L50.2567 45.0713L44.4052 47.8561Z" fill="black"/>
<path d="M38.0928 25.8994L39.0495 31.265L41.6283 30.3501L43.9993 28.5615L47.2437 27.6048L48.9491 26.0658V24.402L44.54 22.1558L40.0477 22.9876L38.0928 25.8994Z" fill="black"/>
</svg>
