<svg width="100" height="100" viewBox="0 0 100 100" fill="none" xmlns="http://www.w3.org/2000/svg">
<path d="M66.8948 68.4761L63.5532 68.5176" stroke="black" stroke-width="2" stroke-linecap="round"/>
<path d="M63.5532 35.8623H75.6331C75.9142 35.8623 76.1823 35.9806 76.3718 36.1882L88.7469 49.748C88.9151 49.9322 89.0083 50.1727 89.0083 50.4221V67.8849C89.0083 68.4372 88.5606 68.8849 88.0083 68.8849H81.8533" stroke="black" stroke-width="2" stroke-linecap="round"/>
<path d="M31.6813 68.8844C31.6813 68.8844 62.2864 69.6858 63.0209 68.8844C63.7555 68.083 64.0417 29.7721 63.0209 29.1975C62.0002 28.6229 12.0831 28.1649 11.4278 29.1975C10.7725 30.2301 10.9251 68.1595 11.4278 68.8844C11.9305 69.6093 16.9821 68.8844 16.9821 68.8844" stroke="black" stroke-width="2" stroke-linecap="round"/>
<path d="M11.3823 67.4219C11.885 68.1468 16.9823 68.8842 16.9823 68.8842" stroke="black" stroke-width="2" stroke-linecap="round"/>
<path d="M62.92 67.0527C62.1854 67.8541 31.6812 68.884 31.6812 68.884" stroke="black" stroke-width="2" stroke-linecap="round"/>
<path d="M88.1471 60.8965L84.025 60.8965C83.0779 60.8965 82.3101 60.1287 82.3101 59.1815V59.1815C82.3101 58.2343 83.0779 57.4665 84.025 57.4665L88.1471 57.4665" stroke="black" stroke-width="2" stroke-linecap="round"/>
<path d="M77.0653 74.815C67.9134 78.0708 63.4126 65.2515 71.6799 62.1521C73.1024 61.6187 74.416 61.4989 75.5824 61.6897C81.4507 62.6475 83.5851 71.4459 77.0653 74.815Z" stroke="black" stroke-width="2" stroke-miterlimit="10" stroke-linecap="round" stroke-linejoin="round"/>
<path d="M26.9373 74.815C17.7855 78.0708 13.2847 65.2515 21.552 62.1521C22.9745 61.6187 24.2881 61.4989 25.4544 61.6897C31.3227 62.6475 33.4572 71.4459 26.9373 74.815Z" stroke="black" stroke-width="2" stroke-miterlimit="10" stroke-linecap="round" stroke-linejoin="round"/>
<path d="M23.9438 66.6718C26.7995 66.5549 26.7563 70.3781 24.0703 70.3695C21.3842 70.36 21.703 66.7639 23.9438 66.6718Z" fill="black" stroke="black" stroke-width="2" stroke-miterlimit="10" stroke-linecap="round" stroke-linejoin="round"/>
<path d="M74.8971 70.2551C72.1689 71.1071 71.2212 67.403 73.8178 66.716C76.4149 66.03 77.0377 69.5861 74.8971 70.2551Z" fill="black" stroke="black" stroke-width="2" stroke-miterlimit="10" stroke-linecap="round" stroke-linejoin="round"/>
<path d="M79.6816 40.3531C79.6816 40.3531 69.3721 40.0728 68.9544 40.3531C68.5368 40.6334 68.3739 53.1817 68.9544 53.5071C69.535 53.8326 88.7252 53.5071 88.7252 53.5071" stroke="black" stroke-width="2" stroke-linecap="round"/>
<path d="M73.3616 48.3936C73.686 48.6208 74.0818 48.8828 74.3197 49.2029" stroke="black" stroke-width="2" stroke-miterlimit="10" stroke-linecap="round" stroke-linejoin="round"/>
<path d="M74.9355 43.6506C76.0926 45.2091 78.0386 46.2049 79.2004 47.7687" stroke="black" stroke-width="2" stroke-miterlimit="10" stroke-linecap="round" stroke-linejoin="round"/>
<path d="M29.6421 44.7703C29.3923 45.0085 29.4887 50.1694 29.6421 50.4247C29.7955 50.6801 34.8978 50.5591 35.1983 50.7607C35.4987 50.9623 35.2694 55.7529 35.5161 56.0791C35.7627 56.4054 41.39 56.4322 41.39 56.0791C41.39 55.726 41.4881 51.0698 41.6857 50.7607C41.8833 50.4516 46.9383 50.7608 47.264 50.4247C47.5897 50.0887 47.6435 45.0084 47.264 44.7703C46.8846 44.5322 41.9181 44.4171 41.6857 44.4171C41.4533 44.4171 41.8106 39.3907 41.39 39.116C40.9695 38.8413 35.7532 39.116 35.5161 39.116C35.2789 39.116 35.4987 44.1983 34.9295 44.4171C34.3602 44.6359 29.8918 44.5322 29.6421 44.7703Z" fill="black" stroke="black" stroke-width="2"/>
<path d="M52.5298 28.583V25.3484C52.5298 24.0465 53.5851 22.9912 54.8869 22.9912V22.9912C56.1888 22.9912 57.2441 24.0465 57.2441 25.3484V28.583" stroke="black" stroke-width="2" stroke-linecap="round"/>
<path d="M59.5778 21.5379L62.2144 20.0156" stroke="black" stroke-width="2" stroke-linecap="round"/>
<path d="M50.2597 20.769L48.1069 18.6162" stroke="black" stroke-width="2" stroke-linecap="round"/>
<path d="M55.2993 18.6163V15.5718" stroke="black" stroke-width="2" stroke-linecap="round"/>
</svg>
