<svg width="100" height="100" viewBox="0 0 100 100" fill="none" xmlns="http://www.w3.org/2000/svg">
<path d="M18.7818 64.8556C16.9598 65.3036 17.8678 69.2916 19.1938 69.2796C20.5208 69.2666 36.9018 68.9576 43.0178 61.5896C49.1348 54.2216 54.4818 41.0666 61.1098 37.7296C67.7378 34.3926 79.9428 33.8106 81.3198 33.6026C82.6958 33.3936 82.3798 29.6906 79.2348 30.0086C76.0888 30.3266 61.3578 32.0986 56.6778 35.7196C51.9988 39.3416 48.8478 45.4656 41.0288 57.9066C37.4478 63.6026 22.2618 63.9996 18.7818 64.8556Z" stroke="black" stroke-width="2" stroke-miterlimit="10" stroke-linejoin="round"/>
<path d="M21.297 69.343C21.297 69.343 21.281 75.49 21.17 78.03C21.063 80.479 25.216 80.606 25.101 78.003C24.941 74.375 25.334 68.958 25.334 68.958" stroke="black" stroke-width="2" stroke-miterlimit="10" stroke-linejoin="round"/>
<path d="M31.0732 68.1676C31.2002 70.5856 31.1242 74.6656 31.1212 77.8306C31.1182 80.6446 34.8102 80.9696 35.7032 78.1996L35.3502 67.0146" stroke="black" stroke-width="2" stroke-miterlimit="10" stroke-linejoin="round"/>
<path d="M41.4629 62.8248C41.4629 62.8248 41.6639 71.4178 41.9529 77.1198C42.1449 80.9018 46.9309 79.4748 46.7089 77.0338C46.1569 70.9568 46.2639 57.1758 46.2639 57.1758" stroke="black" stroke-width="2" stroke-miterlimit="10" stroke-linejoin="round"/>
<path d="M48.6826 81.956C48.6826 81.956 51.0076 75.631 51.0356 72.698C51.0646 69.764 51.6076 66.721 51.6076 66.721C51.6076 66.721 55.5316 64.394 58.3646 61.026C61.1976 57.659 62.9406 53.251 62.9406 53.251C62.9406 53.251 65.0486 57.911 67.7476 61.244C70.4466 64.577 73.7376 66.581 73.7376 66.581C73.7376 66.581 74.2416 70.368 74.2466 73.254C74.2526 76.139 78.4756 81.83 78.4756 81.83L48.6826 81.956Z" stroke="black" stroke-width="2" stroke-miterlimit="10" stroke-linejoin="round"/>
<path d="M51.5439 48.4262L51.6899 67.0382L56.5349 62.8622L56.0629 42.1182" stroke="black" stroke-width="2" stroke-miterlimit="10" stroke-linejoin="round"/>
<path d="M62.5977 36.8117L62.8367 53.1787L65.1136 57.4267L67.6967 61.2107L67.3627 35.7767L74.6487 34.5317C74.6487 34.5317 74.4137 63.2477 74.6177 73.6017C74.6977 77.6387 79.0267 77.3357 79.0627 74.2527C79.1867 63.7667 79.4026 33.1807 79.4026 33.1807" stroke="black" stroke-width="2" stroke-miterlimit="10" stroke-linejoin="round"/>
<path d="M58.9258 81.9096C58.9258 81.9096 60.7458 80.7486 61.7788 76.6816C62.8118 72.6146 63.0568 65.6416 63.0568 65.6416C63.0568 65.6416 63.4628 72.9946 64.5778 77.0596C65.6938 81.1246 67.5188 81.9016 67.5188 81.9016L58.9258 81.9096Z" fill="black" stroke="black" stroke-width="2" stroke-miterlimit="10" stroke-linejoin="round"/>
<path d="M44.2667 53.1711C44.2667 53.1711 37.4398 53.0041 33.1118 51.3971C28.7828 49.7901 22.2398 46.0391 25.8627 35.8801C29.4857 25.7221 40.7397 25.7951 45.5377 28.0161C51.8127 30.9201 53.3687 39.0231 53.3687 39.0231" stroke="black" stroke-width="2" stroke-miterlimit="10" stroke-linejoin="round"/>
<path d="M56.6717 35.3794C56.6717 35.3794 52.4367 22.8282 40.9437 22.5331C29.4517 22.238 21.6697 28.7454 20.2167 37.2724C18.7627 45.8004 24.8927 53.6454 30.6187 55.5874C36.3437 57.5294 41.0317 57.5574 41.0317 57.5574" stroke="black" stroke-width="2" stroke-miterlimit="10" stroke-linejoin="round"/>
<path d="M35.3957 54.5585C37.0737 52.2795 42.4487 54.2305 40.5147 58.4735C39.2387 61.2725 31.8617 59.3585 35.3957 54.5585Z" fill="black" stroke="black" stroke-width="2" stroke-miterlimit="10" stroke-linejoin="round"/>
<path d="M23.3614 51.1314C25.0394 48.8514 30.4144 50.8024 28.4804 55.0454C27.2054 57.8444 19.8274 55.9304 23.3614 51.1314Z" fill="black" stroke="black" stroke-width="2" stroke-miterlimit="10" stroke-linejoin="round"/>
<path d="M17.9493 39.7411C19.6273 37.4621 25.0023 39.4121 23.0693 43.6551C21.7933 46.4551 14.4153 44.5411 17.9493 39.7411Z" fill="black" stroke="black" stroke-width="2" stroke-miterlimit="10" stroke-linejoin="round"/>
<path d="M35.8652 39.374C36.1192 35.714 43.0122 36.897 41.8792 40.306C40.7452 43.714 35.5762 43.519 35.8652 39.374Z" stroke="black" stroke-width="2" stroke-miterlimit="10" stroke-linejoin="round"/>
<path d="M40.6162 42.2627C41.6712 44.3727 42.2382 46.6257 42.9752 48.8387C43.2102 49.5437 43.8792 51.8657 43.8792 51.4487" stroke="black" stroke-width="2" stroke-miterlimit="10" stroke-linecap="round" stroke-linejoin="round"/>
<path d="M36.2498 42.1631C34.5248 44.7501 30.8777 45.8291 28.7207 47.9851" stroke="black" stroke-width="2" stroke-miterlimit="10" stroke-linecap="round" stroke-linejoin="round"/>
<path d="M42.1221 39.5032C45.0001 39.5032 50.3731 38.5872 52.7631 36.9932" stroke="black" stroke-width="2" stroke-miterlimit="10" stroke-linecap="round" stroke-linejoin="round"/>
<path d="M35.7986 38.4488C33.5506 37.3248 31.9716 35.0798 29.7746 33.9818C29.4146 33.8008 28.0106 32.9928 28.1686 32.6758" stroke="black" stroke-width="2" stroke-miterlimit="10" stroke-linecap="round" stroke-linejoin="round"/>
<path d="M39.9639 36.9429C40.6149 33.6869 41.3279 30.4319 42.1219 27.2559" stroke="black" stroke-width="2" stroke-miterlimit="10" stroke-linecap="round" stroke-linejoin="round"/>
<path d="M22.2253 26.2711C23.9043 23.9911 29.2793 25.942 27.3453 30.185C26.0693 32.985 18.6923 31.0711 22.2253 26.2711Z" fill="black" stroke="black" stroke-width="2" stroke-miterlimit="10" stroke-linejoin="round"/>
<path d="M50.4291 25.3612C52.0991 22.213 57.2251 26.6962 55.5491 29.2752C53.8731 31.8552 47.4021 31.0702 50.4291 25.3612Z" fill="black" stroke="black" stroke-width="2" stroke-miterlimit="10" stroke-linejoin="round"/>
<path d="M35.0056 19.9632C36.6846 17.6837 42.0596 19.6344 40.1256 23.8771C38.8496 26.6771 31.4726 24.7631 35.0056 19.9632Z" fill="black" stroke="black" stroke-width="2" stroke-miterlimit="10" stroke-linejoin="round"/>
</svg>
