<svg width="100" height="100" viewBox="0 0 100 100" fill="none" xmlns="http://www.w3.org/2000/svg">
<path d="M19.5767 19.3839C20.9877 18.4486 77.5947 19.4809 80.0167 19.764C81.9907 19.9948 80.3297 79.2916 80.3297 79.2916C80.3297 79.2916 22.5787 81.3736 20.3307 79.8836C19.2207 79.1486 18.3957 20.1668 19.5767 19.3839Z" stroke="black" stroke-width="2" stroke-miterlimit="10" stroke-linejoin="round"/>
<path d="M47.2839 29.9256C46.5079 25.5696 50.1689 24.4836 52.2979 25.0756C54.4279 25.6666 55.2559 28.6016 54.6909 30.7036C53.9809 33.3476 48.1619 34.8596 47.2839 29.9256Z" stroke="black" stroke-width="2" stroke-miterlimit="10" stroke-linejoin="round"/>
<path d="M49.0519 33.141C49.0519 33.141 49.0169 34.883 46.1879 35.127C43.3599 35.371 32.8129 34.803 28.4419 35.414C23.2849 36.137 24.3549 39.035 26.6999 39.331C29.0459 39.627 44.3139 39.806 45.0329 41.086C45.7529 42.366 45.3199 48.804 45.3079 52.984C45.2959 57.164 42.8659 77.469 45.2979 77.751C46.8109 77.926 48.758 75.881 48.789 72.501C48.82 69.121 49.5939 53.213 51.4169 55.634C52.2989 56.806 52.1329 65.185 52.8369 72.2C53.3979 77.795 55.2159 77.257 55.8439 77.67C57.6499 78.86 57.1749 69.136 56.8059 63.091C56.4369 57.046 54.9349 42 55.7079 40.86C56.4819 39.72 75.0939 41.134 74.9759 38.331C74.8519 35.375 70.6079 36.436 64.8559 36.087C63.4759 36.004 56.2219 35.618 54.8409 35.131C52.3269 34.243 52.2199 33.001 52.2199 33.001" stroke="black" stroke-width="2" stroke-miterlimit="10" stroke-linejoin="round"/>
<path d="M19.6758 49.6856C19.6658 42.6016 23.0158 34.4946 27.1108 29.3876C32.9498 22.1056 41.1138 19.7051 49.9318 19.6934C66.6638 19.671 80.2458 33.0626 80.2678 49.6046C80.2768 56.3296 77.7778 62.6436 74.2658 67.5436C68.5878 75.4626 59.9418 79.5836 50.0118 79.5966C33.2798 79.6196 19.6958 64.6616 19.6758 49.6856Z" stroke="black" stroke-width="2" stroke-miterlimit="10" stroke-linejoin="round"/>
<path d="M45.2527 52.6494C42.5897 60.3384 39.8427 61.0804 35.9887 68.3364C35.3957 69.4524 32.5297 74.2614 35.4297 74.2324C39.0797 74.1944 41.7707 68.1854 44.5667 63.4684" stroke="black" stroke-width="2" stroke-miterlimit="10" stroke-linecap="round" stroke-linejoin="round"/>
<path d="M56.3198 52.5811C57.3968 55.2161 62.4379 62.778 64.4019 65.679C67.0059 69.523 68.7959 73.9551 66.5369 74.4001C65.1939 74.6641 62.5319 69.949 61.8969 69.011C59.8589 66.002 57.9239 62.661 56.8569 60.664" stroke="black" stroke-width="2" stroke-miterlimit="10" stroke-linecap="round" stroke-linejoin="round"/>
<path d="M66.3057 55.6162C67.1877 55.8082 70.2807 56.1062 71.0607 55.7502" stroke="black" stroke-width="2" stroke-miterlimit="10" stroke-linecap="round" stroke-linejoin="round"/>
<path d="M64.7329 52.1684C66.1749 52.4844 67.6159 52.0614 69.0039 51.9134C70.2619 51.7794 71.4529 52.3744 72.8129 52.2294" stroke="black" stroke-width="2" stroke-miterlimit="10" stroke-linecap="round" stroke-linejoin="round"/>
<path d="M30.085 50.1143C31.162 49.8063 32.488 50.5063 33.521 50.2103" stroke="black" stroke-width="2" stroke-miterlimit="10" stroke-linecap="round" stroke-linejoin="round"/>
<path d="M65.3477 48.1807C67.4157 48.1917 69.4527 48.2027 71.5977 48.2147" stroke="black" stroke-width="2" stroke-miterlimit="10" stroke-linecap="round" stroke-linejoin="round"/>
<path d="M28.1436 46.2822C30.7496 46.3942 34.4275 46.0762 36.8925 47.0172" stroke="black" stroke-width="2" stroke-miterlimit="10" stroke-linecap="round" stroke-linejoin="round"/>
<path d="M53.7051 33.9089C53.7051 33.9089 68.5581 26.0439 70.1121 27.4799C71.6651 28.9169 68.4871 30.9119 68.4871 30.9119L59.4021 35.7189" stroke="black" stroke-width="2" stroke-miterlimit="10" stroke-linejoin="round"/>
<path d="M48.306 34.5677C48.306 34.5677 33.999 24.8337 30.76 27.0837C28.9 28.3747 41.402 35.2307 41.402 35.2307" stroke="black" stroke-width="2" stroke-miterlimit="10" stroke-linejoin="round"/>
</svg>
