<svg width="100" height="100" viewBox="0 0 100 100" fill="none" xmlns="http://www.w3.org/2000/svg">
<path d="M64.129 30.9215C67.6473 28.4525 71.968 30.1808 74.3135 33.2053C76.659 36.2297 78.7576 50.8584 78.2638 53.204C77.77 55.5495 75.1159 58.8209 69.6224 60.1171C64.129 61.4133 61.4734 60.9812 59.8686 62.8329C58.2638 64.6847 56.3189 76.8726 54.8686 80.3626C53.2014 84.3747 48.451 83.6957 48.8831 79.4985C49.3152 75.3012 49.8707 60.9195 51.9076 58.6357C53.5371 56.8087 58.5291 54.2483 60.2163 53.6722" stroke="black" stroke-width="2" stroke-linecap="round"/>
<path d="M74.6279 66.2544V82.3503" stroke="black" stroke-width="2" stroke-linecap="round"/>
<path d="M61.2021 66.2544V82.3503" stroke="black" stroke-width="2" stroke-linecap="round"/>
<path d="M32.8848 61.5664L36.7375 83.2514" stroke="black" stroke-width="2" stroke-linecap="round"/>
<path d="M35.9795 75.5356L48.9291 75.5356" stroke="black" stroke-width="2" stroke-linecap="round"/>
<path d="M75.6379 57.8096C76.5281 58.3148 78.3951 59.6141 78.7416 60.7689C79.1746 62.2125 78.9581 65.4605 76.3597 65.8214C74.2809 66.1101 63.7043 65.9417 58.6758 65.8214" stroke="black" stroke-width="2" stroke-linecap="round"/>
<path d="M52.28 57.6295L51.1885 52.4839" stroke="black" stroke-width="2" stroke-linecap="round"/>
<path d="M63.6763 31.2676C60.2012 36.2433 62.9266 38.9061 61.5441 43.7463C61.2858 44.6504 53.5524 46.1305 52.7774 46.9054C52.0025 47.6804 51.306 50.4744 52.1455 51.2493C52.9851 52.0242 64.6597 50.4135 67.7832 48.2481C69.1504 47.3002 69.7743 41.061 68.652 36.7961" stroke="black" stroke-width="2" stroke-linecap="round"/>
<path d="M57.2218 45.4046C57.0144 44.6096 56.0669 43.076 53.2464 43.2419C49.7207 43.4493 44.847 45.5751 44.8988 48.7379C44.9403 51.2681 49.3326 53.3571 53.0563 51.4952" stroke="black" stroke-width="2" stroke-linecap="round"/>
<path d="M61.9734 34.452C59.547 34.4928 54.3151 34.4764 52.7981 34.085C50.9018 33.5956 43.8674 28.4574 42.9498 28.5798C42.0323 28.7021 39.769 29.6808 40.3195 31.8829C40.8701 34.085 50.4737 39.7125 52.7981 40.1407C54.6576 40.4833 59.4043 40.8544 61.5452 40.9971" stroke="black" stroke-width="2" stroke-linecap="round"/>
<path d="M50.3202 61.3764C44.641 61.3764 33.0805 61.3764 32.2719 61.3764C31.2612 61.3764 23.9697 23.9082 23.9697 23.3307C23.9697 22.8686 44.064 22.885 44.7613 23.3307C45.4587 23.7763 46.6782 30.2367 46.6782 30.2367" stroke="black" stroke-width="2" stroke-linecap="round"/>
<path d="M51.3701 58.0962H31.5879L32.3186 61.3323H50.3783L51.3701 59.2445V58.0962Z" fill="black"/>
<path d="M31.4541 57.9761H52.1172" stroke="black" stroke-width="2" stroke-linecap="round"/>
<path d="M78.6352 60.2859L75.338 57.813L70.4509 60.2859L64.4452 61.1103L60.2647 62.5234L59.0283 65.5851L72.4528 65.9384L77.5165 65.5851L78.6352 63.1711V60.2859Z" fill="black"/>
<path d="M28.4491 46.7681L21.083 82.5464" stroke="black" stroke-width="2" stroke-linecap="round"/>
<path d="M49.2789 43.8301L48.1738 38.2065" stroke="black" stroke-width="2" stroke-linecap="round"/>
<path d="M55.0221 43.3091L56.8807 45.212L53.4734 46.2297L51.9689 48.398V51.407L49.7563 52.1593L45.7737 50.7875L44.8887 48.575L46.0392 46.2297L49.7563 43.8844L55.0221 43.3091Z" fill="black"/>
<path d="M37.7656 33.7326L40.1342 31.1948" stroke="black" stroke-width="2" stroke-linecap="round"/>
<path d="M43.0527 28.3554L44.3684 26.9824" stroke="black" stroke-width="2" stroke-linecap="round"/>
<path d="M57.9921 26.6922C55.0205 24.0701 55.08 20.1385 58.5747 17.5878C62.0695 15.0371 67.6281 18.64 67.0235 23.7788C66.5865 27.4933 61.7066 29.9697 57.9921 26.6922Z" stroke="black" stroke-width="2"/>
</svg>
