<svg width="100" height="100" viewBox="0 0 100 100" fill="none" xmlns="http://www.w3.org/2000/svg">
<path d="M19.2995 50.5247C22.8714 46.1342 33.1015 39.5755 45.8104 36.1065C60.1354 32.9474 72.9247 34.5526 78.3492 36.8647C83.7737 39.1767 83.0621 48.921 76.8533 52.0524C68.9329 56.047 63.1033 53.1666 52.6101 54.9451C42.1168 56.7235 37.0474 60.9758 29.8849 60.6967C22.7223 60.4176 14.8346 56.0128 19.2995 50.5247Z" stroke="black" stroke-width="2" stroke-linecap="round"/>
<path d="M31.8303 60.972C31.8303 61.8475 31.8081 64.2408 32.2626 64.7106C34.0472 66.5556 46.4452 66.5406 56.4134 65.4526C60.3048 65.0279 66.9246 64.5198 67.625 63.761C68.1853 63.154 68.0756 58.4568 68.1728 54.877" stroke="black" stroke-width="2" stroke-linecap="round"/>
<path d="M40.242 58.4703C37.727 59.0292 34.6841 58.4239 33.6084 57.0791" stroke="black" stroke-width="2" stroke-linecap="round"/>
<path d="M32.0088 61.2988C39.8855 60.0571 43.0672 58.505 47.7622 56.953C50.8295 55.939 57.9671 55.3232 60.7609 55.3232C61.6696 55.3233 65.9216 55.375 67.9393 55.3232" stroke="black" stroke-width="2" stroke-linecap="round"/>
<path d="M34.2842 65.5573C43.1536 67.7977 57.46 68.9082 66.9406 67.8275C78.7914 66.4766 76.4431 63.4888 75.5127 62.4407C74.6619 61.4822 71.3444 59.9435 68.2602 59.645" stroke="black" stroke-width="2" stroke-linecap="round"/>
<path d="M64.7168 64.7L45.6348 66.3796L46.8855 67.5231L53.1389 68.2378L67.1824 67.9876L75.5441 65.915L76.1873 64.0926L75.5441 62.4131L71.399 60.3763L68.4331 60.0903L67.4683 63.8067L64.7168 64.7Z" fill="black"/>
<path d="M53.1699 54.8364C54.7974 54.4797 57.4568 53.2398 58.4766 51.8936" stroke="black" stroke-width="2" stroke-linecap="round"/>
<path d="M31.1549 41.8423C24.9941 44.8717 17.8616 52.2627 20.1628 55.8484C22.0246 58.7494 25.2181 60.1851 28.4568 60.5761" stroke="black" stroke-width="2" stroke-linecap="round"/>
<path d="M66.4453 54.3067C75.4261 54.0973 80.5421 48.8835 81.2971 45.4863C82.0521 42.089 81.4753 39.5327 80.2189 38.2065" stroke="black" stroke-width="2" stroke-linecap="round"/>
<path d="M48.5343 35.289C48.1982 33.9444 46.7192 31.3652 43.4922 31.8053" stroke="black" stroke-width="2" stroke-linecap="round"/>
</svg>
