<svg width="100" height="100" viewBox="0 0 100 100" fill="none" xmlns="http://www.w3.org/2000/svg">
<path d="M77.1192 53.5464C77.1192 53.5464 73.4022 52.6654 72.9352 55.8274C72.4692 58.9904 75.5092 59.3254 75.5092 59.3254C75.5092 59.3254 76.2952 57.8554 76.6632 56.3614C77.0322 54.8664 77.1192 53.5464 77.1192 53.5464Z" fill="black"/>
<path d="M69.3452 62.2676C69.3452 62.2676 67.7672 63.6186 64.4052 65.0976C61.0432 66.5766 55.8972 68.1827 55.8972 68.1827L52.7612 64.2116L42.5062 67.2147L42.1122 69.9237C42.1122 69.9237 35.6782 70.6837 32.0712 68.8267C28.5932 67.0357 24.9282 61.1007 24.9282 61.1007C24.9282 61.1007 25.1772 63.3637 25.6892 65.6377C26.2002 67.9117 26.6652 69.4746 27.1582 70.2956C30.3722 75.6506 42.4952 81.9976 55.6432 79.3946C68.7912 76.7916 75.1382 71.0626 75.7042 69.0626C76.2712 67.0626 74.1292 66.1416 73.0992 65.2096C71.4762 63.7416 69.3452 62.2676 69.3452 62.2676Z" stroke="black" stroke-width="2" stroke-miterlimit="10" stroke-linejoin="round"/>
<path d="M64.4592 71.3977C62.1352 68.9937 66.6932 67.5737 67.7442 69.3507C68.7962 71.1287 66.6062 73.6177 64.4592 71.3977Z" stroke="black" stroke-width="2" stroke-miterlimit="10" stroke-linejoin="round"/>
<path d="M31.5642 29.4717C31.5642 29.4717 41.8862 12.653 65.9402 23.8391C79.3882 30.0927 77.5992 46.2317 77.5992 46.2317L71.9292 46.8457L63.9112 40.2317L58.7962 41.9336L51.5552 38.0757L50.0252 32.4727C50.0252 32.4727 44.3912 30.2686 39.7762 29.5176C35.1602 28.7676 31.5642 29.4717 31.5642 29.4717Z" stroke="black" stroke-width="2" stroke-miterlimit="10" stroke-linejoin="round"/>
<path d="M72.3502 47.0866C72.3502 47.0866 63.9322 48.0856 63.5422 52.8746C63.1512 57.6637 65.8402 59.5836 68.5192 61.5456C71.1972 63.5066 73.4492 65.3997 73.4492 65.3997C73.4492 65.3997 76.6352 57.9767 77.0352 55.1477C77.4362 52.3197 77.5602 46.3056 77.5602 46.3056L72.3502 47.0866Z" stroke="black" stroke-width="2" stroke-miterlimit="10" stroke-linejoin="round"/>
<path d="M77.1192 53.5464C77.1192 53.5464 73.4022 52.6654 72.9352 55.8274C72.4692 58.9904 75.5092 59.3254 75.5092 59.3254C75.5092 59.3254 76.2952 57.8554 76.6632 56.3614C77.0322 54.8664 77.1192 53.5464 77.1192 53.5464Z" stroke="black" stroke-width="2" stroke-miterlimit="10" stroke-linejoin="round"/>
<path d="M31.9213 29.0039C31.9213 29.0039 24.4393 36.9589 23.2213 47.4089C22.1653 56.4709 25.2322 61.4749 25.2322 61.4749C25.2322 61.4749 27.9832 66.2469 31.9912 68.6419C36.0172 71.0469 42.0692 69.7439 42.0692 69.7439L42.4662 67.3249L52.9092 63.9759L56.3872 67.8919C56.3872 67.8919 61.9863 66.1989 65.0233 64.7359C68.0613 63.2729 68.5363 62.0399 68.5363 62.0399C68.5363 62.0399 62.4443 59.1879 63.0023 53.4469C63.5593 47.7059 71.6653 46.4899 71.6653 46.4899L64.0893 40.4999L58.7983 42.5449L51.1003 38.4859L50.0063 32.7479C50.0063 32.7479 46.3002 30.8489 42.1032 29.9229C37.9072 28.9979 31.9213 29.0039 31.9213 29.0039Z" stroke="black" stroke-width="2" stroke-miterlimit="10" stroke-linejoin="round"/>
<path d="M56.2261 73.3992C56.2261 73.3992 48.3941 75.0042 45.9381 75.0212C41.8671 75.0492 32.3681 75.9172 26.4351 68.6172" stroke="black" stroke-width="2" stroke-miterlimit="10" stroke-linecap="round" stroke-linejoin="round"/>
<path d="M48.0493 79.9654C55.3313 80.3734 68.2143 80.7594 74.4273 77.7074C80.6403 74.6554 74.9593 70.6074 74.9593 70.6074C74.9593 70.6074 73.7653 72.8274 68.9673 75.2864C64.1693 77.7444 55.2463 80.1014 55.2463 80.1014" fill="black"/>
<path d="M48.0493 79.9654C55.3313 80.3734 68.2143 80.7594 74.4273 77.7074C80.6403 74.6554 74.9593 70.6074 74.9593 70.6074C74.9593 70.6074 73.7653 72.8274 68.9673 75.2864C64.1693 77.7444 55.2463 80.1014 55.2463 80.1014" stroke="black" stroke-width="2" stroke-miterlimit="10" stroke-linejoin="round"/>
<path d="M37.7153 23.8438C37.7153 23.8438 47.9523 24.0514 53.9053 26.9697C59.8583 29.8877 60.7893 30.7717 60.7893 30.7717" stroke="black" stroke-width="2" stroke-miterlimit="10" stroke-linecap="round" stroke-linejoin="round"/>
<path fill-rule="evenodd" clip-rule="evenodd" d="M32.6381 29.0039C32.6381 29.0039 25.1561 36.9589 23.9381 47.4089C22.8821 56.4709 25.949 61.4749 25.949 61.4749C25.949 61.4749 28.7 66.2469 32.708 68.6419C36.734 71.0469 42.786 69.7439 42.786 69.7439L43.183 67.3249L53.626 63.9759L57.104 67.8919C57.104 67.8919 62.7031 66.1989 65.7401 64.7359C68.7781 63.2729 69.2531 62.0399 69.2531 62.0399C69.2531 62.0399 63.1611 59.1879 63.7191 53.4469C64.2761 47.7059 72.3821 46.4899 72.3821 46.4899L64.8061 40.4999L59.515 42.5449L51.817 38.4859L50.7231 32.7479C50.7231 32.7479 47.017 30.8489 42.82 29.9229C38.624 28.9979 32.6381 29.0039 32.6381 29.0039ZM29.0992 54.99C29.6462 54.9138 30.1515 55.2954 30.2277 55.8424C30.286 56.2604 30.6328 56.9414 30.9878 57.4586C31.3003 57.9139 31.1845 58.5364 30.7292 58.849C30.2738 59.1615 29.6513 59.0457 29.3388 58.5904C28.9498 58.0235 28.3726 57.0205 28.2469 56.1185C28.1706 55.5715 28.5522 55.0663 29.0992 54.99ZM35.7503 34.4647C36.1386 34.072 36.1349 33.4388 35.7422 33.0506C35.3494 32.6623 34.7163 32.6659 34.328 33.0587C33.1075 34.2933 32.2596 35.221 31.5045 36.3383C30.7525 37.4509 30.1154 38.7175 29.2711 40.6079C28.7152 41.8523 28.3456 43.443 28.0959 44.8569C27.8434 46.2866 27.7014 47.6092 27.6246 48.3425C27.567 48.8918 27.9656 49.3837 28.5149 49.4413C29.0642 49.4988 29.5561 49.1002 29.6137 48.5509C29.6898 47.8243 29.8259 46.5608 30.0654 45.2048C30.3077 43.8329 30.644 42.4381 31.0972 41.4235C31.9309 39.5569 32.5108 38.421 33.1615 37.4582C33.8092 36.5 34.5498 35.6792 35.7503 34.4647Z" fill="black"/>
</svg>
