<svg width="100" height="100" viewBox="0 0 100 100" fill="none" xmlns="http://www.w3.org/2000/svg">
<path d="M54.9293 41.1192C55.2393 38.9562 61.1892 37.9022 62.3992 41.4062C63.5992 44.9112 61.5892 48.0702 62.5692 50.4262C63.5392 52.7812 68.8592 58.5062 69.9792 60.1922C71.2792 62.1642 72.6192 65.8802 70.2692 67.7182C67.9092 69.5562 67.0292 68.5872 64.9592 66.6332C62.8892 64.6802 60.0393 62.3752 58.4293 59.8472C56.8193 57.3202 56.1993 53.8102 55.5593 50.8282C55.1193 48.7522 54.5493 43.7172 54.9293 41.1192Z" stroke="black" stroke-width="2" stroke-miterlimit="10" stroke-linecap="round" stroke-linejoin="round"/>
<path d="M36.2996 18C36.2996 18 34.4995 32.5249 34.4195 36.7969C34.3295 41.0689 33.2195 45.6819 31.5995 48.9289C29.9695 52.1759 27.8396 59.1819 28.0096 63.1119C28.1796 67.0419 28.7896 79.1659 30.8396 80.3619C32.8896 81.5589 36.6396 81.4179 37.9196 80.1359C39.1996 78.8549 41.8895 73.2709 41.2095 68.7429C40.5195 64.2139 39.2896 56.1909 40.0596 52.0049C40.8196 47.8179 42.5296 41.0689 45.5196 35.2589C48.5096 29.4489 51.6796 18.2563 51.6796 18.2563" stroke="black" stroke-width="2" stroke-miterlimit="10" stroke-linecap="round" stroke-linejoin="round"/>
<path d="M28.0498 63.9658C28.0498 63.9658 29.0298 69.2988 30.9498 71.0368C32.5698 72.4968 36.8798 73.1948 38.3298 69.7278C39.2198 67.5848 39.8598 61.3428 39.8598 61.3428" stroke="black" stroke-width="2" stroke-miterlimit="10" stroke-linecap="round" stroke-linejoin="round"/>
<path d="M30.7295 52.3929C30.7295 52.3929 34.1995 55.8689 35.5795 57.6789C36.9595 59.4899 39.8096 62.2189 39.8096 62.2189L39.5795 56.5349C39.5795 56.5349 37.8995 53.6619 36.0895 51.4539C34.2795 49.2469 32.3595 47.7039 32.3595 47.7039L30.7295 52.3929Z" stroke="black" stroke-width="2" stroke-miterlimit="10" stroke-linecap="round" stroke-linejoin="round"/>
<path d="M28.5898 60.5499L34.6698 56.8799" stroke="black" stroke-width="2" stroke-miterlimit="10" stroke-linecap="round" stroke-linejoin="round"/>
<path d="M36.0996 51.3377L40.1697 49.2646" stroke="black" stroke-width="2" stroke-miterlimit="10" stroke-linecap="round" stroke-linejoin="round"/>
<path d="M33.7393 42.7549L41.7593 44.4919" stroke="black" stroke-width="2" stroke-miterlimit="10" stroke-linecap="round" stroke-linejoin="round"/>
<path d="M54.8295 41.307C54.8295 41.307 53.3996 38.419 51.6796 40.774C49.9496 43.13 46.8096 46.458 46.8096 46.458L48.0895 49.277C48.0895 49.277 49.7795 48.458 51.7095 47.415C52.6495 46.907 54.8495 46.311 54.8495 46.311" stroke="black" stroke-width="2" stroke-miterlimit="10" stroke-linecap="round" stroke-linejoin="round"/>
<path d="M53.6201 39.8466C53.6201 39.8466 51.6501 32.9606 51.1901 31.0646C50.7301 29.1696 49.6201 24.8496 49.6201 24.8496" stroke="black" stroke-width="2" stroke-miterlimit="10" stroke-linecap="round" stroke-linejoin="round"/>
<path d="M43.7793 39.1074C43.7793 39.1074 46.7693 46.8634 48.1493 49.5634C49.5293 52.2634 52.1092 56.6294 53.7192 58.0664C55.3292 59.5024 59.7493 61.8004 59.7493 61.8004" stroke="black" stroke-width="2" stroke-miterlimit="10" stroke-linecap="round" stroke-linejoin="round"/>
<path d="M49.6494 51.8174L55.3994 52.5914" stroke="black" stroke-width="2" stroke-miterlimit="10" stroke-linecap="round" stroke-linejoin="round"/>
<path d="M71.1393 62.8992C71.1393 62.8992 67.6494 65.2672 65.5294 60.9292C63.4194 56.5922 62.0293 53.8852 61.3793 52.1342C60.7393 50.3822 62.7193 44.3682 62.7193 44.3682" stroke="black" stroke-width="2" stroke-miterlimit="10" stroke-linecap="round" stroke-linejoin="round"/>
<path d="M62.3392 51.1973L70.5792 61.5793L69.7092 63.3353L65.0792 59.9483L62.1992 53.0793L62.3392 51.1973Z" fill="black" stroke="black" stroke-width="2" stroke-miterlimit="10" stroke-linejoin="round"/>
<path d="M36.1396 81.0598C36.1396 81.0598 55.1597 79.6828 51.8097 78.7148C48.4597 77.7458 40.1396 77.0898 40.1396 77.0898C40.1396 77.0898 39.8297 78.0838 39.1497 79.2178C38.1297 80.9398 36.1396 81.0598 36.1396 81.0598Z" fill="black" stroke="black" stroke-width="2" stroke-miterlimit="10" stroke-linejoin="round"/>
</svg>
