<svg width="100" height="100" viewBox="0 0 100 100" fill="none" xmlns="http://www.w3.org/2000/svg">
<path d="M37.2878 48.0225C39.5428 48.6533 42.1868 47.5718 42.6988 46.9991C45.4598 43.9127 45.3648 40.5195 42.0878 38.8817C41.2448 38.46 36.8968 39.2072 35.9468 39.4249C33.2678 40.0391 33.1758 42.5197 33.2598 44.1189C33.3428 45.7019 35.0318 47.3917 37.2878 48.0225Z" stroke="black" stroke-width="2" stroke-miterlimit="10" stroke-linecap="round" stroke-linejoin="round"/>
<path d="M39.363 43.4218C39.363 42.9488 39.079 42.8359 38.613 42.8359C38.146 42.8359 38.002 42.9464 38.002 43.4193C38.002 43.8922 38.392 44.0115 38.853 43.943C39.06 43.9123 39.363 43.8947 39.363 43.4218Z" fill="black" stroke="black" stroke-width="2" stroke-miterlimit="10" stroke-linejoin="round"/>
<path d="M42.2517 54.2267C39.1357 54.032 30.8637 55.9353 31.0127 58.6838C31.1617 61.4322 33.3868 65.5782 39.5978 66.2246" stroke="black" stroke-width="2" stroke-miterlimit="10" stroke-linecap="round" stroke-linejoin="round"/>
<path d="M61.0489 47.8291C58.7929 48.4599 56.1499 47.3784 55.6379 46.8057C52.8759 43.7193 52.9719 40.3261 56.2479 38.6883C57.0919 38.2666 61.4399 39.0138 62.3889 39.2315C65.0689 39.8457 65.1609 42.3263 65.0769 43.9255C64.9929 45.5085 63.3049 47.1983 61.0489 47.8291Z" stroke="black" stroke-width="2" stroke-miterlimit="10" stroke-linecap="round" stroke-linejoin="round"/>
<path d="M58.9736 43.2284C58.9736 42.7555 59.2566 42.6426 59.7236 42.6426C60.1906 42.6426 60.3347 42.7531 60.3347 43.226C60.3347 43.6989 59.9447 43.8182 59.4827 43.7497C59.2757 43.719 58.9736 43.7014 58.9736 43.2284Z" fill="black" stroke="black" stroke-width="2" stroke-miterlimit="10" stroke-linejoin="round"/>
<path d="M73.3 65.1369C71.756 67.8462 69.764 70.0923 67.474 71.8993C62.461 75.8547 56.016 77.7061 49.699 77.7061C42.05 77.7061 35.597 75.2171 30.112 69.547C28.783 68.1736 27.628 66.9844 26.6 65.5191C25.387 63.7895 23.283 60.694 22.358 54.8812C22.071 53.0746 22 50.8455 22 49.8531C22 42.6576 24.313 35.7894 28.626 30.7052C32.561 26.0668 41.557 22 49.699 22C57.396 22 63.85 24.6397 69.379 30.252C73.215 34.1454 77.399 42.2094 77.399 49.8531C77.399 51.0928 77.208 53.2614 76.866 55.2885C76.412 57.9797 74.258 63.4565 73.3 65.1369Z" stroke="black" stroke-width="2" stroke-miterlimit="10" stroke-linejoin="round"/>
<path d="M72.4379 66.5391C71.8729 67.3739 65.865 78.1876 51.713 78.4409C41.17 78.6296 34.818 74.8822 28.856 68.2066" stroke="black" stroke-width="2" stroke-miterlimit="10" stroke-linejoin="round"/>
<path d="M36.665 54.3836C40.02 53.8892 46.316 54.5376 49.64 54.3041C52.963 54.0706 63.481 54.2241 66.51 55.6134C69.538 57.0027 72.799 66.2963 59.757 66.2965C56.078 66.2966 49.917 67.0133 46.894 66.7561C43.871 66.4989 31.969 66.9545 30.071 60.2097C28.701 55.3366 33.772 54.8097 36.665 54.3836Z" stroke="black" stroke-width="2" stroke-miterlimit="10" stroke-linecap="round" stroke-linejoin="round"/>
<path d="M30.04 59.7939C30.04 59.7939 40.103 59.7926 49.087 60.4554C60.989 61.3336 69.118 60.0932 69.118 60.0932" stroke="black" stroke-width="2" stroke-miterlimit="10" stroke-linecap="round" stroke-linejoin="round"/>
<path d="M61.7841 55.3721C61.7841 55.3721 61.6221 58.0164 61.6221 60.7276C61.6221 63.4388 61.7841 66.2167 61.7841 66.2167" stroke="black" stroke-width="2" stroke-miterlimit="10" stroke-linecap="round" stroke-linejoin="round"/>
<path d="M45.9441 54.9434C45.9441 54.9434 45.6601 58.8815 45.5691 61.8472C45.4781 64.8129 45.5961 66.208 45.5961 66.208" stroke="black" stroke-width="2" stroke-miterlimit="10" stroke-linecap="round" stroke-linejoin="round"/>
<path d="M53.5591 54.6943C53.5591 54.6943 53.8271 56.0585 53.7281 59.0368C53.6291 62.0152 53.1631 66.6077 53.1631 66.6077" stroke="black" stroke-width="2" stroke-miterlimit="10" stroke-linecap="round" stroke-linejoin="round"/>
<path d="M37.1129 54.4901C37.1129 54.4901 37.3348 57.3261 37.2208 60.0615C37.1058 62.7968 36.6538 65.4314 36.6538 65.4314" stroke="black" stroke-width="2" stroke-miterlimit="10" stroke-linecap="round" stroke-linejoin="round"/>
<path d="M60.3481 54.5038C63.7711 54.8859 68.5452 55.9997 68.2672 59.8631C67.9902 63.7265 64.9611 65.8987 62.1251 66.1843" stroke="black" stroke-width="2" stroke-miterlimit="10" stroke-linecap="round" stroke-linejoin="round"/>
</svg>
