<svg width="100" height="100" viewBox="0 0 100 100" fill="none" xmlns="http://www.w3.org/2000/svg">
<path d="M73.3 65.1369C71.755 67.8462 69.764 70.0923 67.473 71.8993C62.46 75.8547 56.015 77.7061 49.699 77.7061C42.049 77.7061 35.597 75.2171 30.111 69.547C28.783 68.1736 27.627 66.9844 26.599 65.5191C25.386 63.7895 23.282 60.694 22.357 54.8812C22.07 53.0746 22 50.8455 22 49.8531C22 42.6576 24.312 35.7894 28.625 30.7052C32.561 26.0668 41.557 22 49.699 22C57.395 22 63.849 24.6397 69.378 30.252C73.214 34.1454 77.398 42.2094 77.398 49.8531C77.398 51.0928 77.208 53.2614 76.865 55.2885C76.411 57.9797 74.258 63.4565 73.3 65.1369Z" stroke="black" stroke-width="2" stroke-miterlimit="10" stroke-linejoin="round"/>
<path d="M72.437 66.5391C71.872 67.3739 65.864 78.1876 51.712 78.4409C41.17 78.6296 34.817 74.8822 28.855 68.2066" stroke="black" stroke-width="2" stroke-miterlimit="10" stroke-linejoin="round"/>
<path d="M54.459 77.3066C54.201 77.3617 54.254 77.2804 54.209 77.454" stroke="black" stroke-width="2" stroke-miterlimit="10" stroke-linecap="round" stroke-linejoin="round"/>
<path d="M40.895 57.5446C40.895 57.5446 42.932 55.3535 46.976 56.2088C51.019 57.0641 56.693 59.5621 56.693 59.5621" stroke="black" stroke-width="2" stroke-miterlimit="10" stroke-linecap="round" stroke-linejoin="round"/>
<path d="M57.6421 44.409C57.6421 43.7311 58.0491 43.5693 58.7171 43.5693C59.3861 43.5693 59.5931 43.7276 59.5931 44.4055C59.5931 45.0834 59.0341 45.2544 58.3721 45.1562C58.0761 45.1121 57.6421 45.0869 57.6421 44.409Z" stroke="black" stroke-width="2" stroke-miterlimit="10" stroke-linejoin="round"/>
<path d="M36.4277 41.5878C36.4277 40.9099 36.8337 40.748 37.5027 40.748C38.1717 40.748 38.3777 40.9063 38.3777 41.5842C38.3777 42.2621 37.8198 42.4332 37.1578 42.3349C36.8618 42.2909 36.4277 42.2656 36.4277 41.5878Z" stroke="black" stroke-width="2" stroke-miterlimit="10" stroke-linejoin="round"/>
<path d="M63.2399 51.5513C60.3229 52.2712 56.9049 51.0369 56.2429 50.3833C52.6729 46.8608 53.9109 42.5801 58.1469 40.7109C59.2379 40.2296 62.495 40.6756 63.723 40.9241C67.188 41.6251 68.1829 45.2638 68.0739 47.0889C67.9659 48.8956 66.1559 50.8314 63.2399 51.5513Z" stroke="black" stroke-width="2" stroke-miterlimit="10" stroke-linecap="round" stroke-linejoin="round"/>
<path d="M41.4679 50.2961C38.5519 51.1117 35.1339 49.7133 34.4709 48.9727C30.9009 44.9821 32.1389 40.1323 36.3759 38.0146C37.4659 37.4694 40.5728 37.3263 41.8008 37.6077C45.2658 38.402 46.7848 43.1809 46.6758 45.2487C46.5678 47.2955 44.3849 49.4805 41.4679 50.2961Z" stroke="black" stroke-width="2" stroke-miterlimit="10" stroke-linecap="round" stroke-linejoin="round"/>
<path d="M55.52 37.2774C59.354 36.9885 64.32 37.2184 68.025 38.1912" stroke="black" stroke-width="2" stroke-miterlimit="10" stroke-linecap="round" stroke-linejoin="round"/>
<path d="M32.5908 31.6453C35.3648 29.0761 38.9028 28.6654 42.3318 30.4919C44.0508 31.408 46.1188 33.3757 46.1188 33.3757" stroke="black" stroke-width="2" stroke-miterlimit="10" stroke-linecap="round" stroke-linejoin="round"/>
<path d="M32.3838 44.1104C32.6708 47.4826 35.5898 50.4127 39.2118 50.1147C42.8328 49.8167 46.1338 48.3693 46.6408 45.5708" stroke="black" stroke-width="2" stroke-miterlimit="10" stroke-linecap="round" stroke-linejoin="round"/>
</svg>
