<svg width="100" height="100" viewBox="0 0 100 100" fill="none" xmlns="http://www.w3.org/2000/svg">
<path d="M73.3 65.137C71.756 67.847 69.764 70.093 67.474 71.9C62.461 75.855 56.016 77.706 49.699 77.706C42.05 77.706 35.597 75.217 30.112 69.547C28.783 68.174 27.628 66.985 26.6 65.52C25.387 63.79 23.283 60.694 22.358 54.882C22.071 53.075 22 50.846 22 49.853C22 42.658 24.313 35.79 28.626 30.706C32.561 26.067 41.557 22 49.699 22C57.396 22 63.85 24.64 69.379 30.252C73.215 34.146 77.399 42.21 77.399 49.853C77.399 51.093 77.208 53.262 76.866 55.289C76.412 57.98 74.258 63.457 73.3 65.137Z" stroke="black" stroke-width="2" stroke-miterlimit="10" stroke-linejoin="round"/>
<path d="M72.4379 66.54C71.8729 67.375 65.865 78.188 51.713 78.442C41.17 78.63 34.818 74.883 28.856 68.207" stroke="black" stroke-width="2" stroke-miterlimit="10" stroke-linejoin="round"/>
<path d="M45.2971 64.7032C45.2971 64.7032 44.3002 70.1493 46.5322 70.1713C48.7652 70.1943 50.1332 70.0152 50.1782 68.8542C50.2222 67.6932 50.0952 65.1632 50.0952 65.1632L45.2971 64.7032Z" stroke="black" stroke-width="2" stroke-miterlimit="10" stroke-linejoin="round"/>
<path d="M55.7957 64.423C55.7957 64.423 56.6776 70.081 54.4446 70.103C52.2116 70.126 50.7036 70.24 50.6586 69.08C50.6146 67.919 50.4316 65.219 50.4316 65.219C50.4316 65.219 51.9296 65.33 53.2706 65.132C54.6116 64.933 55.7957 64.423 55.7957 64.423Z" stroke="black" stroke-width="2" stroke-miterlimit="10" stroke-linejoin="round"/>
<path d="M42.6714 64.8633C42.6714 64.8633 43.6984 65.2313 44.2804 66.0103C44.8634 66.7883 45.0014 67.9763 45.0014 67.9763C45.0014 67.9763 44.1754 67.4723 42.9504 66.4243C40.9364 64.7003 39.6534 62.3293 41.0484 63.0413C42.9244 63.9993 44.7594 64.6023 48.2734 64.9793C50.6734 65.2353 51.1774 65.1903 52.4584 65.0473C54.2394 64.8503 56.0254 64.6293 59.4394 62.5643C60.3414 62.0193 58.9883 64.7903 58.0033 65.9793C57.0193 67.1693 56.1454 67.5943 56.1454 67.5943C56.1454 67.5943 56.2873 65.8783 56.9353 65.3183C57.5833 64.7593 58.0464 64.3243 58.0464 64.3243" stroke="black" stroke-width="2" stroke-miterlimit="10" stroke-linejoin="round"/>
<path d="M70.4347 46.2967C70.4347 46.2967 68.8307 41.3697 65.1047 40.8097C52.1827 38.8667 52.5257 45.4757 52.5257 45.4757C52.5257 45.4757 51.6127 56.0897 57.5817 56.6517C60.9407 56.9677 65.0967 57.4677 68.1797 54.6257C71.4327 51.6267 70.4347 46.2967 70.4347 46.2967Z" stroke="black" stroke-width="2" stroke-miterlimit="10" stroke-linejoin="round"/>
<path d="M28.8242 46.25C28.8242 46.25 30.4292 41.322 34.1552 40.762C47.0762 38.819 46.7332 45.428 46.7332 45.428C46.7332 45.428 47.6462 56.042 41.6782 56.604C38.3192 56.921 34.1622 57.42 31.0792 54.578C27.8272 51.58 28.8242 46.25 28.8242 46.25Z" stroke="black" stroke-width="2" stroke-miterlimit="10" stroke-linejoin="round"/>
<path d="M38.4815 48.284C37.2395 49.665 38.1716 52.125 39.6416 52.254C41.1106 52.383 42.8636 50.939 42.5796 49.495C42.2966 48.052 40.3115 46.247 38.4815 48.284Z" fill="black" stroke="black" stroke-width="2" stroke-miterlimit="10" stroke-linejoin="round"/>
<path d="M56.9975 47.7646C55.7565 49.1456 56.6885 51.6056 58.1575 51.7346C59.6275 51.8636 61.3805 50.4196 61.0965 48.9766C60.8135 47.5326 58.8285 45.7276 56.9975 47.7646Z" stroke="black" stroke-width="2" stroke-miterlimit="10" stroke-linejoin="round"/>
<path d="M60.2244 47.4554C58.7884 46.2774 56.3734 47.3194 56.3104 48.7924C56.2484 50.2664 57.7694 51.9524 59.1984 51.6044C60.6284 51.2564 62.3414 49.1914 60.2244 47.4554Z" fill="black" stroke="black" stroke-width="2" stroke-miterlimit="10" stroke-linejoin="round"/>
<path d="M46.8239 45.4584C46.8239 45.4584 48.8489 45.7894 49.7949 45.7634C50.7409 45.7374 52.3688 45.4434 52.3688 45.4434C52.3688 45.4434 52.2618 45.5904 52.3458 46.7794C52.4288 47.9674 52.4548 49.1564 52.4548 49.1564C52.4548 49.1564 51.1268 48.7924 49.5838 48.9064C48.0398 49.0214 46.6748 49.2564 46.6748 49.2564C46.6748 49.2564 46.7538 48.1744 46.8598 47.3594C46.9658 46.5454 46.8239 45.4584 46.8239 45.4584Z" fill="black" stroke="black" stroke-width="2" stroke-miterlimit="10" stroke-linejoin="round"/>
<path d="M28.9551 45.2363C27.5931 44.3833 26.2401 47.0293 28.2361 47.2213" stroke="black" stroke-width="2" stroke-miterlimit="10" stroke-linecap="round" stroke-linejoin="round"/>
<path d="M70.417 44.869C71.344 44.958 71.731 45.03 71.887 46.066C72.014 46.909 71.025 47.098 71.025 47.098" stroke="black" stroke-width="2" stroke-miterlimit="10" stroke-linecap="round" stroke-linejoin="round"/>
</svg>
