<svg width="100" height="100" viewBox="0 0 100 100" fill="none" xmlns="http://www.w3.org/2000/svg">
<path d="M73.3 65.1369C71.756 67.8462 69.764 70.0923 67.474 71.8993C62.461 75.8547 56.016 77.7061 49.699 77.7061C42.05 77.7061 35.597 75.2171 30.112 69.547C28.783 68.1736 27.628 66.9844 26.6 65.5191C25.387 63.7895 23.283 60.694 22.358 54.8812C22.071 53.0746 22 50.8455 22 49.8531C22 42.6576 24.313 35.7894 28.626 30.7052C32.561 26.0668 41.557 22 49.699 22C57.396 22 63.85 24.6397 69.379 30.252C73.215 34.1454 77.399 42.2094 77.399 49.8531C77.399 51.0928 77.208 53.2614 76.866 55.2885C76.412 57.9797 74.258 63.4565 73.3 65.1369Z" stroke="black" stroke-width="2" stroke-miterlimit="10" stroke-linejoin="round"/>
<path d="M72.438 66.5391C71.873 67.3739 65.865 78.1876 51.713 78.4409C41.17 78.6296 34.818 74.8822 28.856 68.2066" stroke="black" stroke-width="2" stroke-miterlimit="10" stroke-linejoin="round"/>
<path d="M30.3772 51.9084C32.5942 49.0384 37.3142 54.6385 49.4252 54.3765C61.5362 54.1146 67.6452 49.4578 69.9442 52.2629C72.7672 55.7092 66.9272 69.5033 49.8952 68.8935C32.8632 68.2837 27.2102 56.0099 30.3772 51.9084Z" stroke="black" stroke-width="2" stroke-miterlimit="10" stroke-linejoin="round"/>
<path d="M29.6021 55.5105C29.6021 55.5105 37.1751 61.4583 48.6581 61.2266C60.1411 60.995 70.435 56.2902 70.435 56.2902" stroke="black" stroke-width="2" stroke-miterlimit="10" stroke-linejoin="round"/>
<path d="M34.9219 43.8047C34.9219 43.8047 35.3479 39.0129 39.1139 38.8223C43.0629 38.6225 44.1189 42.2227 44.1189 42.2227" stroke="black" stroke-width="2" stroke-miterlimit="10" stroke-linecap="round" stroke-linejoin="round"/>
<path d="M44.179 42.3783C44.573 44.7947 38.6531 35.9476 35.8311 40.9476" stroke="black" stroke-width="2" stroke-miterlimit="10" stroke-linecap="round" stroke-linejoin="round"/>
<path d="M64.029 43.8047C64.029 43.8047 63.603 39.0129 59.836 38.8223C55.888 38.6225 54.832 42.2227 54.832 42.2227" stroke="black" stroke-width="2" stroke-miterlimit="10" stroke-linecap="round" stroke-linejoin="round"/>
<path d="M54.7722 42.3783C54.3782 44.7947 60.2982 35.9476 63.1202 40.9476" stroke="black" stroke-width="2" stroke-miterlimit="10" stroke-linecap="round" stroke-linejoin="round"/>
<path d="M64.7632 51.8183C67.2492 51.2226 69.2742 51.5305 69.1782 55.5883C69.1662 56.073 69.2282 56.6682 69.2162 57.357C69.1942 58.6488 68.9122 60.2697 67.4002 62.1072" stroke="black" stroke-width="2" stroke-miterlimit="10" stroke-linejoin="round"/>
<path d="M35.15 51.8152C33.118 51.1286 30.6989 51.1448 30.7949 55.2026C30.8059 55.6873 30.7439 56.2825 30.7559 56.9713C30.7789 58.2631 31.0609 59.8839 32.5729 61.7215" stroke="black" stroke-width="2" stroke-miterlimit="10" stroke-linejoin="round"/>
</svg>
