<svg width="100" height="100" viewBox="0 0 100 100" fill="none" xmlns="http://www.w3.org/2000/svg">
<path d="M73.3 65.1369C71.756 67.8462 69.764 70.0923 67.474 71.8993C62.46 75.8547 56.016 77.7061 49.699 77.7061C42.05 77.7061 35.597 75.2171 30.112 69.547C28.783 68.1736 27.628 66.9844 26.6 65.5191C25.386 63.7895 23.282 60.694 22.358 54.8812C22.07 53.0746 22 50.8455 22 49.8531C22 42.6576 24.312 35.7894 28.626 30.7052C32.561 26.0668 41.557 22 49.699 22C57.396 22 63.849 24.6397 69.379 30.252C73.214 34.1454 77.398 42.2094 77.398 49.8531C77.398 51.0928 77.208 53.2614 76.866 55.2885C76.411 57.9797 74.258 63.4565 73.3 65.1369Z" stroke="black" stroke-width="2" stroke-miterlimit="10" stroke-linejoin="round"/>
<path d="M72.438 66.5391C71.872 67.3739 65.865 78.1876 51.713 78.4409C41.17 78.6296 34.818 74.8822 28.855 68.2066" stroke="black" stroke-width="2" stroke-miterlimit="10" stroke-linejoin="round"/>
<path d="M43.021 59.7706C45.562 62.2612 48.937 63.0969 52.62 62.1985C56.375 61.2826 58.178 59.2371 58.178 59.2371" stroke="black" stroke-width="2" stroke-miterlimit="10" stroke-linecap="round" stroke-linejoin="round"/>
<path d="M71.4312 41.9462C71.4312 41.9462 53.2242 39.8147 52.4812 43.0056C52.0622 44.8015 51.9812 47.3164 52.9992 49.3286C53.7892 50.8915 55.2422 52.1512 57.7152 52.5351C60.5222 52.9707 64.3942 53.7773 67.2262 50.499C70.2282 47.0233 71.4312 41.9462 71.4312 41.9462Z" fill="black" stroke="black" stroke-width="2" stroke-miterlimit="10" stroke-linecap="round" stroke-linejoin="round"/>
<path d="M27.7861 41.3548C27.7861 41.3548 46.0921 40.3742 46.6321 43.6055C46.9371 45.4242 46.8591 47.9393 45.7171 49.8834C44.8301 51.3934 43.3001 52.559 40.8081 52.7864C37.9801 53.0444 34.0641 53.6057 31.4451 50.1554C28.6671 46.4975 27.7861 41.3548 27.7861 41.3548Z" fill="black" stroke="black" stroke-width="2" stroke-miterlimit="10" stroke-linecap="round" stroke-linejoin="round"/>
<path d="M45.0791 42.3261C45.7381 42.6002 47.7781 42.8123 49.8351 42.7851C51.9141 42.7576 53.3381 42.1104 53.3381 42.1104" stroke="black" stroke-width="2" stroke-miterlimit="10" stroke-linecap="round" stroke-linejoin="round"/>
<path d="M32.3052 37.324C32.3392 37.298 34.6042 36.6869 37.1162 36.653C39.6282 36.6191 42.2562 37.181 42.4342 37.2684" stroke="black" stroke-width="2" stroke-miterlimit="10" stroke-linecap="round" stroke-linejoin="round"/>
<path d="M57.4038 37.8346C59.5308 37.0931 63.5148 35.6927 66.1268 36.8216" stroke="black" stroke-width="2" stroke-miterlimit="10" stroke-linecap="round" stroke-linejoin="round"/>
</svg>
