<svg width="100" height="100" viewBox="0 0 100 100" fill="none" xmlns="http://www.w3.org/2000/svg">
<path d="M73.301 65.1369C71.756 67.8462 69.764 70.0923 67.474 71.8993C62.461 75.8547 56.016 77.7061 49.7 77.7061C42.05 77.7061 35.597 75.2171 30.112 69.547C28.784 68.1736 27.628 66.9844 26.6 65.5191C25.387 63.7895 23.283 60.694 22.358 54.8812C22.071 53.0746 22 50.8455 22 49.8531C22 42.6576 24.313 35.7894 28.626 30.7052C32.562 26.0668 41.558 22 49.7 22C57.396 22 63.85 24.6397 69.379 30.252C73.215 34.1454 77.399 42.2094 77.399 49.8531C77.399 51.0928 77.208 53.2614 76.866 55.2885C76.412 57.9797 74.259 63.4565 73.301 65.1369Z" stroke="black" stroke-width="2" stroke-miterlimit="10" stroke-linejoin="round"/>
<path d="M72.438 66.5391C71.873 67.3739 65.865 78.1876 51.713 78.4409C41.171 78.6296 34.818 74.8822 28.856 68.2066" stroke="black" stroke-width="2" stroke-miterlimit="10" stroke-linejoin="round"/>
<path d="M51.1948 63.4504C54.1078 63.1683 56.8558 62.6351 56.8558 62.6351C56.8558 62.6351 58.0398 62.2909 58.1478 63.1673C58.2558 64.0437 57.1098 65.3671 55.9068 65.8262C55.1178 66.1275 54.2408 66.3479 53.3178 66.4912C50.3368 66.9541 46.8728 66.6124 44.3118 65.589C42.8228 64.9943 41.7798 62.8653 43.7328 62.991C45.2158 63.0864 46.9258 63.7611 51.1948 63.4504Z" fill="black" stroke="black" stroke-width="2" stroke-miterlimit="10" stroke-linecap="round" stroke-linejoin="round"/>
<path d="M41.0518 55.4379C41.0518 55.4379 26.1048 53.1322 27.8798 44.1042C29.2298 37.2323 36.9128 43.346 36.9128 43.346C36.9128 43.346 39.5188 34.7799 44.3978 37.9451C50.7558 42.0695 41.0518 55.4379 41.0518 55.4379Z" stroke="black" stroke-width="2" stroke-miterlimit="10" stroke-linejoin="round"/>
<path fill-rule="evenodd" clip-rule="evenodd" d="M41.0518 55.4379C41.0518 55.4379 26.1048 53.1322 27.8798 44.1042C29.2298 37.2323 36.9128 43.346 36.9128 43.346C36.9128 43.346 39.5188 34.7799 44.3978 37.9451C50.7558 42.0695 41.0518 55.4379 41.0518 55.4379ZM32.4596 50.2043C32.7755 49.7513 33.3989 49.6402 33.8519 49.9562L34.4879 50.3998C34.9408 50.7157 35.0519 51.3391 34.736 51.7921C34.42 52.245 33.7967 52.3561 33.3437 52.0402L32.7077 51.5966C32.2547 51.2806 32.1436 50.6573 32.4596 50.2043ZM31.7958 43.7934C32.2216 43.4416 32.2816 42.8113 31.9298 42.3855C31.578 41.9597 30.9477 41.8998 30.5219 42.2516C29.7381 42.8992 29.0086 43.7731 28.7982 44.9432C28.5848 46.1299 28.943 47.4035 29.8809 48.7623C30.1946 49.2168 30.8174 49.3309 31.272 49.0171C31.7265 48.7034 31.8406 48.0806 31.5268 47.6261C30.7797 46.5438 30.6759 45.8013 30.7666 45.2972C30.8602 44.7766 31.2006 44.2851 31.7958 43.7934Z" fill="black"/>
<path fill-rule="evenodd" clip-rule="evenodd" d="M63.61 41.7584C63.5389 41.8012 63.4701 41.8432 63.4036 41.8845C63.3885 41.8461 63.373 41.8072 63.3571 41.7677C63.0362 40.9706 62.5445 39.9149 61.8725 38.9457C61.2106 37.991 60.3056 37.0208 59.1229 36.5392C57.872 36.0298 56.4581 36.1266 54.9808 37.0446C52.9975 38.2773 52.2856 40.2507 52.2633 42.3135C52.2413 44.3391 52.8729 46.5512 53.6698 48.5428C54.4731 50.5503 55.4787 52.4171 56.2781 53.7753C56.6789 54.4564 57.0304 55.014 57.2827 55.4027C57.4089 55.5971 57.5104 55.7496 57.581 55.8543C57.6163 55.9067 57.6439 55.9472 57.663 55.975L57.6852 56.0073L57.6914 56.0162L57.6938 56.0196C57.908 56.3271 58.2773 56.4894 58.6487 56.4395L58.653 56.4389L58.6635 56.4375L58.7006 56.4322C58.7322 56.4276 58.7777 56.4209 58.8359 56.4119C58.9524 56.3938 59.1203 56.3665 59.3318 56.3286C59.7545 56.2529 60.3529 56.135 61.0646 55.9646C62.4828 55.6251 64.3746 55.0715 66.2282 54.2165C68.0713 53.3663 69.9493 52.1851 71.2654 50.5538C72.6088 48.8886 73.3443 46.7763 72.8895 44.199C72.5485 42.2667 71.6924 40.9971 70.3967 40.4072C69.1689 39.8483 67.794 40.0205 66.6533 40.3617C65.489 40.7099 64.3949 41.2863 63.61 41.7584ZM58.6487 56.4395L58.5147 55.4485C58.6479 56.4396 58.6487 56.4395 58.6487 56.4395ZM58.5147 55.4485L57.6938 56.0196C57.6938 56.0196 57.6941 56.0201 58.5147 55.4485ZM55.8583 46.944C56.3786 46.7586 56.9506 47.0302 57.1359 47.5504L57.3958 48.2804C57.5812 48.8006 57.3096 49.3726 56.7894 49.5579C56.2691 49.7432 55.6971 49.4717 55.5118 48.9514L55.2518 48.2215C55.0665 47.7012 55.338 47.1293 55.8583 46.944ZM57.8264 40.2841C58.3737 40.2097 58.757 39.7058 58.6826 39.1586C58.6083 38.6113 58.1043 38.2279 57.5571 38.3023C56.5376 38.4409 55.5632 38.7976 54.9605 39.7851C54.4162 40.6771 54.3012 41.9013 54.3739 43.4084C54.4005 43.9601 54.8693 44.3857 55.421 44.359C55.9726 44.3324 56.3982 43.8636 56.3716 43.312C56.3013 41.8565 56.4598 41.1676 56.6677 40.827C56.8173 40.5818 57.0739 40.3864 57.8264 40.2841Z" fill="black"/>
</svg>
