<svg width="100" height="100" viewBox="0 0 100 100" fill="none" xmlns="http://www.w3.org/2000/svg">
<path d="M73.297 65.1369C71.757 67.8462 69.7669 70.0923 67.4769 71.8993C62.4569 75.8547 56.017 77.7061 49.697 77.7061C42.047 77.7061 35.597 75.2171 30.112 69.5471C28.783 68.1737 27.628 66.9844 26.6 65.5192C25.387 63.7896 23.283 60.694 22.358 54.8812C22.071 53.0746 22 50.8456 22 49.8531C22 42.6576 24.312 35.7894 28.626 30.7053C32.561 26.0668 41.557 22 49.697 22C57.397 22 63.847 24.6397 69.377 30.252C73.217 34.1454 77.397 42.2094 77.397 49.8531C77.397 51.0928 77.2069 53.2614 76.8669 55.2885C76.4069 57.9797 74.257 63.4566 73.297 65.1369Z" stroke="black" stroke-width="2" stroke-miterlimit="10" stroke-linejoin="round"/>
<path d="M72.4365 66.5391C71.8765 67.374 65.8665 78.1877 51.7165 78.4409C41.1665 78.6296 34.8175 74.8822 28.8555 68.2066" stroke="black" stroke-width="2" stroke-miterlimit="10" stroke-linejoin="round"/>
<path d="M43.2062 51.4923C43.3062 50.8225 42.9262 50.5999 42.2662 50.4968C41.6062 50.3937 41.3762 50.5183 41.2762 51.1881C41.1662 51.8579 41.6963 52.113 42.3663 52.1179C42.6663 52.1201 43.0962 52.1621 43.2062 51.4923Z" stroke="black" stroke-width="2" stroke-miterlimit="10" stroke-linejoin="round"/>
<path d="M32.8887 50.7855C35.6007 48.9214 40.3167 49.2176 43.0167 50.7137" stroke="black" stroke-width="2" stroke-miterlimit="10" stroke-linecap="round" stroke-linejoin="round"/>
<path d="M67.4463 51.4923C67.5463 50.8225 67.1763 50.5999 66.5163 50.4968C65.8563 50.3937 65.6263 50.5183 65.5163 51.1881C65.4163 51.8579 65.9362 52.113 66.6062 52.1179C66.9062 52.1201 67.3463 52.1621 67.4463 51.4923Z" stroke="black" stroke-width="2" stroke-miterlimit="10" stroke-linejoin="round"/>
<path d="M57.1367 50.7855C59.8467 48.9214 64.5567 49.2176 67.2667 50.7137" stroke="black" stroke-width="2" stroke-miterlimit="10" stroke-linecap="round" stroke-linejoin="round"/>
<path d="M40.1572 65.5434C40.1572 65.5434 51.6972 66.1744 55.6572 64.6213C59.6272 63.0681 60.5772 60.0793 61.7772 61.9433C62.9772 63.8073 60.0072 65.9388 57.6472 66.1347C55.2872 66.3305 40.1572 65.5434 40.1572 65.5434Z" fill="black" stroke="black" stroke-width="2" stroke-miterlimit="10" stroke-linecap="round" stroke-linejoin="round"/>
<path d="M71.7465 46.0145C70.0665 43.9361 68.2166 41.2066 64.8066 40.1145C62.7966 39.4738 61.3765 39.6082 59.6865 40.984" stroke="black" stroke-width="2" stroke-miterlimit="10" stroke-linecap="round" stroke-linejoin="round"/>
<path d="M27.1748 45.8923C29.8908 42.547 34.7648 37.2288 39.2388 40.8617" stroke="black" stroke-width="2" stroke-miterlimit="10" stroke-linecap="round" stroke-linejoin="round"/>
</svg>
