<svg width="100" height="100" viewBox="0 0 100 100" fill="none" xmlns="http://www.w3.org/2000/svg">
<path d="M73.301 65.1369C71.756 67.8462 69.764 70.0923 67.474 71.8993C62.461 75.8547 56.016 77.7061 49.7 77.7061C42.05 77.7061 35.597 75.2171 30.112 69.5471C28.784 68.1736 27.628 66.9844 26.6 65.5192C25.387 63.7895 23.283 60.694 22.358 54.8812C22.071 53.0746 22 50.8456 22 49.8531C22 42.6576 24.313 35.7894 28.626 30.7052C32.561 26.0668 41.557 22 49.7 22C57.396 22 63.85 24.6397 69.379 30.252C73.215 34.1454 77.399 42.2094 77.399 49.8531C77.399 51.0928 77.208 53.2614 76.866 55.2885C76.412 57.9797 74.258 63.4566 73.301 65.1369Z" stroke="black" stroke-width="2" stroke-miterlimit="10" stroke-linejoin="round"/>
<path d="M72.4374 66.5391C71.8724 67.3739 65.8645 78.1877 51.7125 78.4409C41.1695 78.6296 34.8175 74.8822 28.8555 68.2066" stroke="black" stroke-width="2" stroke-miterlimit="10" stroke-linejoin="round"/>
<path d="M39.7429 46.5314C39.7429 46.0585 39.4599 45.9455 38.9929 45.9455C38.5259 45.9455 38.3818 46.056 38.3818 46.5289C38.3818 47.0019 38.7718 47.1212 39.2338 47.0526C39.4408 47.0219 39.7429 47.0043 39.7429 46.5314Z" fill="black" stroke="black" stroke-width="2" stroke-miterlimit="10" stroke-linejoin="round"/>
<path d="M41.092 42.0296C38.634 41.7715 33.502 43.0369 33.566 46.6164C33.631 50.1958 36.857 51.8564 40.197 51.3577C42.911 50.9523 44.428 49.297 44.542 46.483C44.657 43.669 42.725 42.2012 41.092 42.0296Z" stroke="black" stroke-width="2" stroke-miterlimit="10" stroke-linecap="round" stroke-linejoin="round"/>
<path d="M58.4688 46.0956C58.4688 45.6227 58.7528 45.5098 59.2198 45.5098C59.6858 45.5098 59.8298 45.6202 59.8298 46.0931C59.8298 46.5661 59.4398 46.6854 58.9788 46.6168C58.7718 46.5861 58.4688 46.5685 58.4688 46.0956Z" fill="black" stroke="black" stroke-width="2" stroke-miterlimit="10" stroke-linejoin="round"/>
<path d="M57.1198 41.5939C59.5778 41.3357 64.7108 42.6011 64.6458 46.1806C64.5818 49.76 61.5778 51.6104 58.0158 50.9219C56.2358 50.5778 53.7849 48.8612 53.6699 46.0472C53.5559 43.2332 55.4868 41.7654 57.1198 41.5939Z" stroke="black" stroke-width="2" stroke-miterlimit="10" stroke-linecap="round" stroke-linejoin="round"/>
<path d="M46.3555 60.6971C48.5475 61.4677 49.8745 61.7796 52.2075 61.3007C52.9965 61.1389 54.1064 60.601 55.4944 60.0253" stroke="black" stroke-width="2" stroke-miterlimit="10" stroke-linecap="round" stroke-linejoin="round"/>
<path d="M31.3814 53.2451C31.3814 53.2451 44.2984 72.0719 33.5694 74.5154C26.6704 76.0868 24.1923 69.9586 25.7963 65.7875C27.2263 62.0658 31.3814 53.2451 31.3814 53.2451Z" fill="black" stroke="black" stroke-width="2" stroke-miterlimit="10" stroke-linejoin="round"/>
<path d="M33.9395 39.0839C34.3915 38.9133 35.8915 38.1515 37.6425 37.7473C39.3945 37.3431 40.9455 37.4671 40.9455 37.4671" stroke="black" stroke-width="2" stroke-miterlimit="10" stroke-linecap="round" stroke-linejoin="round"/>
<path d="M63.6431 38.3395C63.0131 37.7566 58.4421 36.6663 57.5781 36.9925" stroke="black" stroke-width="2" stroke-miterlimit="10" stroke-linecap="round" stroke-linejoin="round"/>
</svg>
