<svg width="100" height="100" viewBox="0 0 100 100" fill="none" xmlns="http://www.w3.org/2000/svg">
<path d="M73.3 65.1369C71.75 67.8462 69.76 70.0923 67.47 71.8993C62.46 75.8548 56.01 77.7062 49.7 77.7062C42.05 77.7062 35.6 75.2171 30.11 69.5471C28.78 68.1737 27.63 66.9844 26.6 65.5192C25.39 63.7896 23.28 60.694 22.36 54.8813C22.07 53.0747 22 50.8456 22 49.8531C22 42.6576 24.31 35.7894 28.62 30.7053C32.56 26.0668 41.56 22 49.7 22C57.39 22 63.85 24.6397 69.38 30.2521C73.21 34.1455 77.4 42.2094 77.4 49.8531C77.4 51.0928 77.21 53.2615 76.86 55.2885C76.41 57.9798 74.26 63.4566 73.3 65.1369Z" stroke="black" stroke-width="2" stroke-miterlimit="10" stroke-linejoin="round"/>
<path d="M72.4397 66.54C71.8697 67.3748 65.8596 78.1885 51.7096 78.4417C41.1696 78.6304 34.8196 74.883 28.8496 68.2074" stroke="black" stroke-width="2" stroke-miterlimit="10" stroke-linejoin="round"/>
<path d="M39.7295 52.7881C39.7295 52.0274 40.1796 51.8458 40.9296 51.8458C41.6796 51.8458 41.9196 52.0234 41.9196 52.7841C41.9196 53.5448 41.2896 53.7367 40.5496 53.6264C40.2096 53.577 39.7295 53.5487 39.7295 52.7881Z" stroke="black" stroke-width="2" stroke-miterlimit="10" stroke-linejoin="round"/>
<path d="M42.4596 58.2721C39.7096 59.0799 36.4696 57.6949 35.8496 56.9614C32.4696 53.0088 33.6397 48.2053 37.6497 46.1078C38.6797 45.5678 42.6197 47.408 43.6497 48.0127C47.3397 50.1796 47.1397 51.2167 47.0297 53.2648C46.9297 55.292 45.2196 57.4643 42.4596 58.2721Z" stroke="black" stroke-width="2" stroke-miterlimit="10" stroke-linecap="round" stroke-linejoin="round"/>
<path d="M60.8092 52.7881C60.8092 52.0274 60.3591 51.8458 59.5991 51.8458C58.8491 51.8458 58.6191 52.0234 58.6191 52.7841C58.6191 53.5448 59.2491 53.7367 59.9891 53.6264C60.3191 53.577 60.8092 53.5487 60.8092 52.7881Z" stroke="black" stroke-width="2" stroke-miterlimit="10" stroke-linejoin="round"/>
<path d="M58.0794 58.2721C60.8294 59.0799 64.0596 57.6949 64.6896 56.9614C68.0696 53.0088 66.8995 48.2053 62.8895 46.1078C61.8595 45.5678 57.9095 47.408 56.8895 48.0127C53.1995 50.1796 53.3995 51.2167 53.4995 53.2648C53.6095 55.292 55.3194 57.4643 58.0794 58.2721Z" stroke="black" stroke-width="2" stroke-miterlimit="10" stroke-linecap="round" stroke-linejoin="round"/>
<path d="M47.1801 64.5844C47.1801 64.5844 48.8 62.9521 51.24 63.2042C53.59 63.4466 54.95 64.7944 55.25 65.4945C55.55 66.1946 53.2901 65.5729 50.9201 65.4759C48.8901 65.3931 44.9301 67.2439 47.1801 64.5844Z" fill="black" stroke="black" stroke-width="2" stroke-miterlimit="10" stroke-linecap="round" stroke-linejoin="round"/>
<path d="M53.0996 46.5245C56.7496 42.9947 61.6196 40.9653 66.7096 41.0546" stroke="black" stroke-width="2" stroke-miterlimit="10" stroke-linecap="round" stroke-linejoin="round"/>
<path d="M47.5397 46.4504C43.8797 42.9207 39.0197 40.8913 33.9297 40.9806" stroke="black" stroke-width="2" stroke-miterlimit="10" stroke-linecap="round" stroke-linejoin="round"/>
</svg>
