<svg width="100" height="100" viewBox="0 0 100 100" fill="none" xmlns="http://www.w3.org/2000/svg">
<path d="M72.5871 65.1369C71.0431 67.8462 69.0511 70.0923 66.7611 71.8993C61.7471 75.8547 55.3031 77.7061 48.9861 77.7061C41.3371 77.7061 34.8841 75.2171 29.3991 69.547C28.0701 68.1736 26.9151 66.9844 25.8871 65.5191C24.6731 63.7895 22.5691 60.694 21.6451 54.8812C21.3571 53.0746 21.2871 50.8455 21.2871 49.8531C21.2871 42.6576 23.5991 35.7894 27.9131 30.7052C31.8481 26.0668 40.8441 22 48.9861 22C56.6831 22 63.1361 24.6397 68.6661 30.252C72.5011 34.1454 76.6851 42.2094 76.6851 49.8531C76.6851 51.0928 76.4951 53.2614 76.1531 55.2885C75.6981 57.9797 73.5451 63.4565 72.5871 65.1369Z" stroke="black" stroke-width="2" stroke-miterlimit="10" stroke-linejoin="round"/>
<path d="M71.7251 66.5391C71.1591 67.3739 65.1521 78.1876 51.0001 78.4409C40.4571 78.6296 34.1051 74.8822 28.1421 68.2066" stroke="black" stroke-width="2" stroke-miterlimit="10" stroke-linejoin="round"/>
<path d="M44.0754 62.0529C44.0754 62.0529 45.1064 62.5241 49.1154 62.7146C53.1484 62.9062 55.2274 61.3759 54.9914 62.6778C54.9184 63.0815 54.0744 64.1062 52.7984 64.7524C51.5694 65.3745 50.3694 65.6261 49.1824 65.5354C44.4514 65.1734 41.0134 61.1408 44.0754 62.0529Z" fill="black" stroke="black" stroke-width="2" stroke-miterlimit="10" stroke-linecap="round" stroke-linejoin="round"/>
<path d="M65.9801 78.1861C65.9801 78.1861 83.5521 77.1314 82.4721 66.476C81.6511 58.3655 72.3961 63.3019 72.3961 63.3019C72.3961 63.3019 69.7381 54.6657 63.8601 58.0232C61.2761 59.4988 60.8161 63.416 61.3121 68.575C61.8091 73.734 65.9801 78.1861 65.9801 78.1861Z" fill="black" stroke="black" stroke-width="2" stroke-miterlimit="10" stroke-linejoin="round"/>
<path d="M29.4273 72.2494C29.4273 72.2494 39.0813 62.2572 32.7663 56.6382C27.9593 52.3613 25.7363 61.1033 25.7363 61.1033C25.7363 61.1033 19.0693 56.2844 17.2593 61.3112C14.8993 67.8616 29.4273 72.2494 29.4273 72.2494Z" fill="black" stroke="black" stroke-width="2" stroke-miterlimit="10" stroke-linejoin="round"/>
<path d="M54.5693 50.3421C54.5693 50.3421 56.6123 48.3822 58.7083 48.2428C60.8043 48.1033 62.9533 49.7843 62.9533 49.7843" stroke="black" stroke-width="2" stroke-miterlimit="10" stroke-linecap="round" stroke-linejoin="round"/>
<path d="M33.9302 50.3421C33.9302 50.3421 35.9732 48.3822 38.0692 48.2428C40.1652 48.1033 42.3142 49.7843 42.3142 49.7843" stroke="black" stroke-width="2" stroke-miterlimit="10" stroke-linecap="round" stroke-linejoin="round"/>
<path d="M68.5192 42.9296C65.9872 41.6461 63.2552 39.9157 60.3232 39.8995C59.1212 39.8928 58.2552 40.4852 57.1382 40.6817" stroke="black" stroke-width="2" stroke-miterlimit="10" stroke-linecap="round" stroke-linejoin="round"/>
<path d="M28.4165 42.4766C30.9485 41.1931 33.6815 39.4627 36.6135 39.4465C37.8155 39.4398 38.6815 40.0322 39.7975 40.2287" stroke="black" stroke-width="2" stroke-miterlimit="10" stroke-linecap="round" stroke-linejoin="round"/>
<path d="M69.9523 36.899C69.9523 36.899 81.5633 32.573 78.6443 25.6226C76.4223 20.3323 71.2703 26.5107 71.2703 26.5107C71.2703 26.5107 67.7603 20.0687 64.3693 23.4167C59.9513 27.7794 69.9523 36.899 69.9523 36.899Z" fill="black" stroke="black" stroke-width="2" stroke-miterlimit="10" stroke-linejoin="round"/>
</svg>
