<svg width="100" height="100" viewBox="0 0 100 100" fill="none" xmlns="http://www.w3.org/2000/svg">
<path d="M57.525 52.4888C60.58 53.8805 64.563 52.9329 65.415 52.235C70.008 48.4738 69.48 42.9501 65.202 39.9066C64.1 39.123 60.721 38.4353 59.328 38.5338C55.398 38.8118 52.917 43.7868 52.683 46.0704C52.452 48.3308 54.47 51.0971 57.525 52.4888Z" stroke="black" stroke-width="2" stroke-miterlimit="10" stroke-linecap="round" stroke-linejoin="round"/>
<path d="M61.4814 46.4316C61.5854 45.7618 61.2084 45.5391 60.5484 45.4361C59.8874 45.333 59.6584 45.4576 59.5544 46.1274C59.4494 46.7972 59.9754 47.0523 60.6444 47.0572C60.9444 47.0594 61.3764 47.1014 61.4814 46.4316Z" stroke="black" stroke-width="2" stroke-miterlimit="10" stroke-linejoin="round"/>
<path d="M42.786 75.7749C39.316 75.1896 34.209 72.7818 30.112 68.547C28.783 67.1736 27.628 65.9844 26.6 64.5191C25.386 62.7895 23.282 59.6939 22.358 53.8812C22.07 52.0746 22 49.8455 22 48.853C22 41.6575 24.312 34.7893 28.626 29.7052C32.561 25.0668 41.557 21 49.699 21C57.396 21 63.849 23.6396 69.379 29.252C73.214 33.1454 77.398 41.2093 77.398 48.853C77.398 50.0927 77.208 52.2614 76.866 54.2884C76.412 56.9797 74.258 62.4565 73.3 64.1368C71.756 66.8461 69.764 69.0922 67.474 70.8992C64.355 73.3597 60.683 75.0061 56.832 75.8991" stroke="black" stroke-width="2" stroke-miterlimit="10" stroke-linecap="round" stroke-linejoin="round"/>
<path d="M43.2084 76.584C37.5184 75.0871 32.9485 71.7894 28.8555 67.2069" stroke="black" stroke-width="2" stroke-miterlimit="10" stroke-linecap="round" stroke-linejoin="round"/>
<path d="M72.4386 65.5391C71.9336 66.2846 67.0876 74.9891 55.9766 77.0225" stroke="black" stroke-width="2" stroke-miterlimit="10" stroke-linejoin="round"/>
<path d="M40.1481 60.0185C40.1481 60.0185 41.4771 61.0436 42.3511 62.4956C42.6431 62.9806 42.9152 63.5068 43.1192 64.0479C43.9342 66.2093 43.6792 68.6079 43.6792 68.6079C43.6792 68.6079 37.4932 66.5043 34.3782 62.5969C31.2642 58.6895 35.3732 58.2763 37.3142 58.8679C39.3832 59.4988 39.6392 60.6205 48.8612 61.1816C58.0832 61.7428 61.7631 58.4668 63.7731 58.9468C65.7831 59.4268 65.6521 61.8762 63.3621 63.6967C61.0731 65.5173 58.4422 67.4803 58.4422 67.4803C58.4422 67.4803 58.5882 65.4601 58.2932 63.7121C57.9992 61.964 57.4741 61.0469 57.4741 61.0469" fill="black"/>
<path d="M40.1481 60.0185C40.1481 60.0185 41.4771 61.0436 42.3511 62.4956C42.6431 62.9806 42.9152 63.5068 43.1192 64.0479C43.9342 66.2093 43.6792 68.6079 43.6792 68.6079C43.6792 68.6079 37.4932 66.5043 34.3782 62.5969C31.2642 58.6895 35.3732 58.2763 37.3142 58.8679C39.3832 59.4988 39.6392 60.6205 48.8612 61.1816C58.0832 61.7428 61.7631 58.4668 63.7731 58.9468C65.7831 59.4268 65.6521 61.8762 63.3621 63.6967C61.0731 65.5173 58.4422 67.4803 58.4422 67.4803C58.4422 67.4803 58.5882 65.4601 58.2932 63.7121C57.9992 61.964 57.4741 61.0469 57.4741 61.0469" stroke="black" stroke-width="2" stroke-miterlimit="10" stroke-linecap="round" stroke-linejoin="round"/>
<path d="M39.2139 59.6563C39.2139 59.6563 43.2138 61.5019 43.6578 66.5091C43.9998 70.3644 42.3469 73.9854 43.3159 76.1059C45.2099 80.2514 53.0049 80.6957 55.3159 77.5595C56.4849 75.9735 57.9158 72.0061 58.3878 67.7521C58.8588 63.4981 57.2039 60.5436 57.2039 60.5436C57.2039 60.5436 53.7278 61.2037 50.0508 61.2892C44.6758 61.4142 39.2139 59.6563 39.2139 59.6563Z" stroke="black" stroke-width="2" stroke-miterlimit="10" stroke-linecap="round" stroke-linejoin="round"/>
<path d="M33.0811 47.8029C35.8251 45.1437 41.4621 43.6815 44.2641 47.0573C44.5081 47.3508 45.0281 47.5325 45.1941 47.877" stroke="black" stroke-width="2" stroke-miterlimit="10" stroke-linecap="round" stroke-linejoin="round"/>
</svg>
