<svg width="100" height="100" viewBox="0 0 100 100" fill="none" xmlns="http://www.w3.org/2000/svg">
<path d="M21.6499 61.807C21.2699 60.6214 20.9398 59.2695 20.6998 57.726C20.4098 55.9194 20.3398 53.6903 20.3398 52.6978C20.3398 45.5023 22.6498 38.6341 26.9698 33.55C30.8998 28.9115 39.8999 24.8447 48.0399 24.8447C52.7299 24.8447 56.9599 25.8253 60.7999 27.8618" stroke="black" stroke-width="2" stroke-miterlimit="10" stroke-linejoin="round"/>
<path d="M73.9495 43.4314C75.0395 46.3816 75.7395 49.5748 75.7395 52.6978C75.7395 53.9375 75.5495 56.1062 75.2095 58.1332C74.7495 60.8245 72.5995 66.3013 71.6395 67.9816C70.0995 70.6909 68.0996 72.937 65.8096 74.744C60.7996 78.6995 54.3596 80.5509 48.0396 80.5509C40.3896 80.5509 33.9395 78.0618 28.4495 72.3918C27.6195 71.5321 27.7696 71.7254 27.0596 70.8972" stroke="black" stroke-width="2" stroke-miterlimit="10" stroke-linejoin="round"/>
<path d="M70.7803 69.3848C70.2103 70.2196 64.2003 81.0333 50.0503 81.2865C40.2903 81.4613 34.1203 78.2608 28.5303 72.4854" stroke="black" stroke-width="2" stroke-miterlimit="10" stroke-linejoin="round"/>
<path d="M41.2 63.8246C41.69 59.1664 44.14 57.8672 48.25 57.8672C52.36 57.8672 54.8201 60.506 54.8201 64.1027C54.8201 67.6993 52.2 70.0588 48.09 70.0588C43.98 70.0588 40.82 67.4069 41.2 63.8246Z" stroke="black" stroke-width="2" stroke-miterlimit="10" stroke-linejoin="round"/>
<path d="M41.79 61.8853C41.79 61.8853 43.7 62.729 48.11 62.607C52.38 62.4884 53.92 61.279 53.92 61.279C53.92 61.279 52.82 57.7977 47.48 57.8834C42.72 57.96 41.79 61.8853 41.79 61.8853Z" stroke="black" stroke-width="2" stroke-miterlimit="10" stroke-linejoin="round"/>
<path d="M41.81 61.7363C41.81 61.7363 45.08 62.3726 48.14 62.2585C51.19 62.1444 53.9 61.2861 53.9 61.2861C53.9 61.2861 55.0499 62.798 54.7499 65.0782C54.5899 66.3102 52.94 69.4969 47.82 69.3024C43.92 69.1541 41.97 67.1492 41.51 66.0024C40.67 63.9029 41.81 61.7363 41.81 61.7363Z" fill="black" stroke="black" stroke-width="2" stroke-miterlimit="10" stroke-linejoin="round"/>
<path d="M25.8101 55.2393C25.8101 55.2393 24.31 59.2889 22.16 61.6333C20 63.9777 16 65.7135 16 65.7135C16 65.7135 19.39 67.1533 21.52 69.4292C23.65 71.705 24.5 76.3271 24.5 76.3271C24.5 76.3271 26.43 72.0495 27.97 69.7928C29.51 67.536 33.46 66.0046 33.46 66.0046C33.46 66.0046 29.79 64.6096 28.27 62.2461C26.76 59.8826 25.8101 55.2393 25.8101 55.2393Z" stroke="black" stroke-width="2" stroke-miterlimit="10" stroke-linecap="round" stroke-linejoin="round"/>
<path d="M30.9404 49.2419C33.2404 51.0948 40.6404 52.1197 41.5504 47.9473" stroke="black" stroke-width="2" stroke-miterlimit="10" stroke-linecap="round" stroke-linejoin="round"/>
<path d="M64.9303 48.7673C62.6303 50.6202 55.2303 51.6451 54.3203 47.4727" stroke="black" stroke-width="2" stroke-miterlimit="10" stroke-linecap="round" stroke-linejoin="round"/>
<path d="M69.3504 18C69.3504 18 55.9104 24.3263 63.0604 36.9457C69.3104 47.9498 83.8804 41.1898 83.8804 41.1898C83.8804 41.1898 75.6304 38.7826 72.1004 32.7697C68.6204 26.8474 69.3504 18 69.3504 18Z" fill="black" stroke="black" stroke-width="2.35077" stroke-miterlimit="10" stroke-linecap="round" stroke-linejoin="round"/>
</svg>
