<svg width="100" height="100" viewBox="0 0 100 100" fill="none" xmlns="http://www.w3.org/2000/svg">
<path d="M73.3 65.1369C71.756 67.8462 69.764 70.0923 67.474 71.8993C62.46 75.8547 56.016 77.7061 49.699 77.7061C42.05 77.7061 35.597 75.2171 30.112 69.547C28.783 68.1736 27.628 66.9844 26.6 65.5191C25.386 63.7895 23.282 60.694 22.358 54.8812C22.07 53.0746 22 50.8455 22 49.8531C22 42.6576 24.312 35.7894 28.626 30.7052C32.561 26.0668 41.557 22 49.699 22C57.395 22 63.849 24.6397 69.378 30.252C73.214 34.1454 77.398 42.2094 77.398 49.8531C77.398 51.0928 77.208 53.2614 76.866 55.2885C76.411 57.9797 74.258 63.4565 73.3 65.1369Z" stroke="black" stroke-width="2" stroke-miterlimit="10" stroke-linejoin="round"/>
<path d="M72.438 66.5391C71.872 67.3739 65.864 78.1876 51.712 78.4409C41.17 78.6296 34.818 74.8822 28.855 68.2066" stroke="black" stroke-width="2" stroke-miterlimit="10" stroke-linejoin="round"/>
<path d="M37.1599 52.2828C40.3939 53.1869 44.1829 51.6367 44.9169 50.8157C48.8749 46.3917 47.5019 41.0153 42.8059 38.6676C41.5969 38.0632 38.1529 37.9045 36.7909 38.2166C32.9509 39.097 31.2669 44.395 31.3879 46.6873C31.5069 48.9564 33.9269 51.3786 37.1599 52.2828Z" stroke="black" stroke-width="2" stroke-miterlimit="10" stroke-linecap="round" stroke-linejoin="round"/>
<path d="M40.1351 45.6881C40.1351 45.0102 39.7291 44.8484 39.0601 44.8484C38.3911 44.8484 38.1851 45.0068 38.1851 45.6847C38.1851 46.3626 38.7431 46.5335 39.4051 46.4353C39.7011 46.3913 40.1351 46.366 40.1351 45.6881Z" stroke="black" stroke-width="2" stroke-miterlimit="10" stroke-linejoin="round"/>
<path d="M57.8611 51.9332C60.9161 53.325 64.8991 52.3774 65.7511 51.6794C70.3441 47.9182 69.8161 42.3945 65.5381 39.351C64.4361 38.5674 61.058 37.8797 59.664 37.9782C55.734 38.2562 53.2531 43.2312 53.0201 45.5148C52.7881 47.7752 54.8061 50.5415 57.8611 51.9332Z" stroke="black" stroke-width="2" stroke-miterlimit="10" stroke-linecap="round" stroke-linejoin="round"/>
<path d="M61.8171 45.876C61.9211 45.2062 61.5441 44.9836 60.8841 44.8805C60.2231 44.7774 59.9941 44.902 59.8901 45.5718C59.7861 46.2416 60.3111 46.4967 60.9801 46.5016C61.2801 46.5038 61.7121 46.5458 61.8171 45.876Z" stroke="black" stroke-width="2" stroke-miterlimit="10" stroke-linejoin="round"/>
<path d="M42.8551 62.0529C43.3471 56.5556 45.8021 55.0225 49.9111 55.0225C54.0191 55.0225 56.475 58.1365 56.475 62.381C56.475 66.6254 53.8551 69.4098 49.7471 69.4098C45.6381 69.4098 42.4761 66.2804 42.8551 62.0529Z" stroke="black" stroke-width="2" stroke-miterlimit="10" stroke-linejoin="round"/>
<path d="M43.4739 59.0579C43.4739 59.0579 46.7369 59.9294 49.7949 59.7732C52.8539 59.6169 55.5589 58.4414 55.5589 58.4414C55.5589 58.4414 56.7069 60.5121 56.4109 63.6352C56.2509 65.3225 54.5989 69.6871 49.4829 69.4208C45.5809 69.2176 43.6259 66.4717 43.1689 64.9009C42.3319 62.0254 43.4739 59.0579 43.4739 59.0579Z" fill="black" stroke="black" stroke-width="2" stroke-miterlimit="10" stroke-linejoin="round"/>
<path d="M68.2491 34.9202C68.2491 34.9202 67.0011 33.5163 66.4761 33.1373C63.4111 30.9226 60.1621 30.2002 56.6201 32.4484" stroke="black" stroke-width="2" stroke-miterlimit="10" stroke-linecap="round" stroke-linejoin="round"/>
<path d="M31.1299 34.6077C31.1299 34.6077 32.3779 33.2038 32.9029 32.8248C35.9679 30.6102 39.2169 29.8877 42.7589 32.1359" stroke="black" stroke-width="2" stroke-miterlimit="10" stroke-linecap="round" stroke-linejoin="round"/>
</svg>
