<svg width="100" height="100" viewBox="0 0 100 100" fill="none" xmlns="http://www.w3.org/2000/svg">
<path d="M70.3 65.1369C68.76 67.8462 66.7701 70.0923 64.4801 71.8993C59.4601 75.8547 53.0201 77.7061 46.7001 77.7061C39.0501 77.7061 32.6 75.2171 27.11 69.5471C25.79 68.1736 24.6301 66.9844 23.6001 65.5192C22.3901 63.7895 20.28 60.694 19.36 54.8812C19.07 53.0746 19 50.8455 19 49.8531C19 42.6576 21.31 35.7894 25.63 30.7052C29.56 26.0668 38.5601 22 46.7001 22C54.4001 22 60.85 24.6397 66.38 30.252C70.22 34.1454 74.4 42.2094 74.4 49.8531C74.4 51.0928 74.21 53.2614 73.87 55.2885C73.41 57.9797 71.26 63.4565 70.3 65.1369Z" stroke="black" stroke-width="2" stroke-miterlimit="10" stroke-linejoin="round"/>
<path d="M69.4404 66.5391C68.8704 67.3739 62.8705 78.1876 48.7205 78.4409C38.1705 78.6296 31.8204 74.8822 25.8604 68.2066" stroke="black" stroke-width="2" stroke-miterlimit="10" stroke-linejoin="round"/>
<path d="M47.7499 58.1506C50.2099 56.7367 57.5899 53.8876 56.9299 59.2672C56.7299 60.8496 54.2399 61.8606 54.0199 62.6451C53.9699 62.846 55.6699 63.9139 55.8699 64.13C57.4099 65.7284 57.1899 68.2433 54.8599 69.0247C52.8999 69.6846 50.65 68.5275 49.22 67.2464C48.43 66.5434 46.5799 65.4462 45.4199 65.5124" stroke="black" stroke-width="2" stroke-miterlimit="10" stroke-linecap="round" stroke-linejoin="round"/>
<path d="M70.8402 72.4558C70.8402 72.4558 58.1401 64.5942 63.2401 57.0695C67.1201 51.342 71.7401 59.8645 71.7401 59.8645C71.7401 59.8645 77.4201 53.0807 80.6301 57.8407C84.8201 64.0433 70.8402 72.4558 70.8402 72.4558Z" fill="black" stroke="black" stroke-width="2" stroke-miterlimit="10" stroke-linejoin="round"/>
<path d="M36.0195 47.7617C36.0195 47.0838 36.4296 46.9219 37.0996 46.9219C37.7596 46.9219 37.9696 47.0803 37.9696 47.7582C37.9696 48.436 37.4095 48.6071 36.7495 48.5088C36.4495 48.4648 36.0195 48.4396 36.0195 47.7617Z" stroke="black" stroke-width="2" stroke-miterlimit="10" stroke-linejoin="round"/>
<path d="M50.6104 49.1887C52.7104 46.5066 54.3604 44.9128 57.9204 46.138C59.2604 46.5994 60.3804 47.6997 60.3804 47.6997C60.3804 47.6997 61.4604 48.8123 61.4604 48.805" stroke="black" stroke-width="2" stroke-miterlimit="10" stroke-linecap="round" stroke-linejoin="round"/>
<path d="M38.2001 51.3207C35.8901 51.7159 33.12 52.0991 32.61 51.5267C29.85 48.4419 31.4201 44.7839 34.7001 43.147C35.5401 42.7255 37.94 42.6149 38.89 42.8325C41.57 43.4464 42.7401 47.1405 42.6601 48.7388C42.5801 50.321 41.6201 50.7353 38.2001 51.3207Z" stroke="black" stroke-width="2" stroke-miterlimit="10" stroke-linecap="round" stroke-linejoin="round"/>
<path d="M52.8604 40.0747C56.4804 37.6256 61.2104 40.6567 64.4104 42.4558" stroke="black" stroke-width="2" stroke-miterlimit="10" stroke-linecap="round" stroke-linejoin="round"/>
<path d="M36.4096 34.5832C34.0496 35.7155 31.7196 37.2312 29.9496 39.1569C29.2896 39.8687 28.7396 40.5605 28.1996 41.3666C28.0296 41.6219 27.5995 42.3668 27.6095 42.3632" stroke="black" stroke-width="2" stroke-miterlimit="10" stroke-linecap="round" stroke-linejoin="round"/>
<path d="M45.4297 65.4946C45.6897 65.3931 49.2596 65.5484 51.6296 67.4294C54.0096 69.3105 58.3097 65.5048 54.3497 63.001" stroke="black" stroke-width="2" stroke-miterlimit="10" stroke-linecap="round" stroke-linejoin="round"/>
</svg>
