<svg width="100" height="100" viewBox="0 0 100 100" fill="none" xmlns="http://www.w3.org/2000/svg">
<path d="M73.3218 65.1369C68.3968 73.7768 58.9238 77.7061 49.7208 77.7061C42.0716 77.7061 35.6189 75.2171 30.1337 69.547C28.8051 68.1736 26.6822 65.7748 25.6997 64.3602" stroke="black" stroke-width="2" stroke-miterlimit="10" stroke-linejoin="round"/>
<path d="M32.4463 59.9229C32.4463 59.9229 42.3286 64.7804 50.704 65.0278C59.08 65.2751 67.54 60.8522 67.54 60.8522C67.54 60.8522 63.963 72.5318 50.668 71.6866C35.8616 70.7454 32.4463 59.9229 32.4463 59.9229Z" fill="black" stroke="black" stroke-width="2" stroke-miterlimit="10" stroke-linejoin="round"/>
<path d="M22.266 54.9437C22.1838 54.0009 22.022 50.8455 22.022 49.8531C22.022 42.6576 24.3343 35.7894 28.6478 30.7052C32.5831 26.0668 41.5791 22 49.7209 22C57.4179 22 63.8709 24.6397 69.4009 30.252C73.2359 34.1454 77.4199 42.2094 77.4199 49.8531C77.4199 51.0928 77.2299 53.2614 76.8879 55.2885" stroke="black" stroke-width="2" stroke-miterlimit="10" stroke-linejoin="round"/>
<path d="M32.4974 55.73C36.2388 52.8715 37.4445 57.1445 49.774 57.5212C63.636 57.9448 63.9769 53.5871 67.6619 56.8718C70.2659 59.193 63.608 72.4685 50.225 71.7579C35.9539 71.0001 29.7254 57.8478 32.4974 55.73Z" stroke="black" stroke-width="2" stroke-miterlimit="10" stroke-linejoin="round"/>
<path d="M71.5469 51.8399C71.5469 51.8399 85.8169 59.9095 79.6679 64.8697C75.7129 68.0598 72.1819 64.8884 71.8999 61.6921C71.6489 58.8403 71.5469 51.8399 71.5469 51.8399Z" fill="black" stroke="black" stroke-width="2" stroke-miterlimit="10" stroke-linejoin="round"/>
<path d="M27.6592 51.2158C27.6592 51.2158 13.3892 59.2854 19.5385 64.2457C23.4934 67.4357 26.3287 64.7962 26.6103 61.6C26.8615 58.7481 27.6592 51.2158 27.6592 51.2158Z" fill="black" stroke="black" stroke-width="2" stroke-miterlimit="10" stroke-linejoin="round"/>
<path d="M55.0327 49.4101C55.0327 49.4101 58.0897 46.916 61.2557 46.9319C64.4227 46.9477 67.6997 49.4734 67.6997 49.4734" stroke="black" stroke-width="2" stroke-miterlimit="10" stroke-linecap="round" stroke-linejoin="round"/>
<path d="M32.1284 49.1247C32.1284 49.1247 35.1846 46.6306 38.3512 46.6464C41.5178 46.6623 44.7948 49.188 44.7948 49.188" stroke="black" stroke-width="2" stroke-miterlimit="10" stroke-linecap="round" stroke-linejoin="round"/>
<path d="M72.0406 47.0512C72.0406 47.0512 70.8106 45.5445 68.9006 43.8043C66.9906 42.064 66.1786 42.0265 63.6826 41.7803" stroke="black" stroke-width="2" stroke-miterlimit="10" stroke-linecap="round" stroke-linejoin="round"/>
<path d="M27.6064 46.8887C27.6064 46.8887 28.8365 45.382 30.7467 43.6418C32.6569 41.9015 33.6209 41.2563 36.1495 41.4148" stroke="black" stroke-width="2" stroke-miterlimit="10" stroke-linecap="round" stroke-linejoin="round"/>
<path d="M72.4594 66.5391C71.8934 67.3739 65.8865 78.1876 51.7345 78.4409C41.1917 78.6296 34.8393 74.8822 28.877 68.2066" stroke="black" stroke-width="2" stroke-miterlimit="10" stroke-linejoin="round"/>
</svg>
