<svg width="100" height="100" viewBox="0 0 100 100" fill="none" xmlns="http://www.w3.org/2000/svg">
<path d="M73.301 65.1369C71.756 67.8462 69.764 70.0923 67.474 71.8993C62.461 75.8547 56.016 77.7061 49.7 77.7061C42.05 77.7061 35.597 75.2171 30.112 69.547C28.784 68.1736 27.628 66.9844 26.6 65.5191C25.387 63.7895 23.283 60.694 22.358 54.8812C22.071 53.0746 22 50.8455 22 49.8531C22 42.6576 24.313 35.7894 28.626 30.7052C32.561 26.0668 41.557 22 49.7 22C57.396 22 63.85 24.6397 69.379 30.252C73.215 34.1454 77.399 42.2094 77.399 49.8531C77.399 51.0928 77.208 53.2614 76.866 55.2885C76.412 57.9797 74.258 63.4565 73.301 65.1369Z" stroke="black" stroke-width="2" stroke-miterlimit="10" stroke-linejoin="round"/>
<path d="M72.438 66.5391C71.873 67.3739 65.865 78.1876 51.713 78.4409C41.17 78.6296 34.818 74.8822 28.856 68.2066" stroke="black" stroke-width="2" stroke-miterlimit="10" stroke-linejoin="round"/>
<path d="M28.9199 40.586C28.9199 40.586 34.9449 41.8801 38.7519 35.009" stroke="black" stroke-width="2" stroke-miterlimit="10" stroke-linecap="round" stroke-linejoin="round"/>
<path d="M39.4448 58.3972H39.4748C41.7548 58.3972 43.7548 57.6072 45.2648 56.1072C46.8248 54.5572 47.6748 52.3872 47.6748 50.0072C47.6748 45.2072 44.4648 41.9172 39.5048 41.6172C37.4448 41.4972 35.4648 42.2372 33.9148 43.7072C32.1948 45.3172 31.2148 47.6172 31.2148 50.0072C31.2148 54.4572 35.0548 58.3872 39.4448 58.3972ZM42.1948 52.7172C42.4048 52.8372 42.5548 53.0172 42.6348 53.2372C42.9548 54.0972 42.7848 54.9972 42.1948 55.6472C41.7648 56.1172 41.1848 56.3872 40.6148 56.3872C40.4648 56.3872 40.3248 56.3672 40.1848 56.3372C39.6148 56.1872 39.1948 55.7672 39.0448 55.1972C38.8648 54.4772 39.1648 53.6072 39.7948 53.0172C40.6748 52.2072 41.7048 52.4472 42.1748 52.7072L42.1948 52.7172ZM33.4648 46.3872C33.8648 45.5172 34.3848 44.3772 36.4548 43.5972C37.8448 43.0672 39.3348 43.7672 40.0948 44.7272C40.7148 45.5172 40.8148 46.4472 40.3348 47.1472C39.9448 47.7172 38.5048 49.6172 36.1148 50.1972C35.7548 50.2872 35.4448 50.3172 35.1648 50.3172C34.2248 50.3172 33.7048 49.8972 33.4548 49.5972C33.0248 49.0772 32.6748 48.0972 33.4548 46.3872H33.4648Z" fill="black"/>
<path d="M60.0146 41.6173C57.9646 41.4873 55.9746 42.2373 54.4246 43.6973C52.7146 45.3173 51.7246 47.6073 51.7246 49.9973C51.7246 54.4473 55.5646 58.3773 59.9546 58.3873H59.9846C62.2646 58.3873 64.2646 57.5973 65.7746 56.0973C67.3346 54.5473 68.1846 52.3773 68.1846 49.9973C68.1846 45.2073 64.9746 41.9173 60.0146 41.6173ZM56.1646 50.3173C55.2246 50.3173 54.7046 49.8973 54.4646 49.5973C54.0346 49.0773 53.6846 48.0973 54.4646 46.3873C54.8546 45.5173 55.3746 44.3773 57.4546 43.5973C58.8446 43.0673 60.3346 43.7673 61.0946 44.7273C61.7146 45.5173 61.8146 46.4473 61.3346 47.1473C60.9446 47.7173 59.5046 49.6173 57.1146 50.1973C56.7646 50.2873 56.4446 50.3173 56.1646 50.3173ZM62.7246 55.6573C62.2946 56.1273 61.7146 56.3973 61.1446 56.3973C61.0046 56.3973 60.8546 56.3773 60.7146 56.3473C60.1446 56.1973 59.7246 55.7773 59.5846 55.2073C59.4046 54.4873 59.7046 53.6173 60.3346 53.0273C61.2146 52.2173 62.2446 52.4573 62.7146 52.7173C62.9146 52.8373 63.0746 53.0173 63.1546 53.2373C63.4746 54.0973 63.3046 54.9973 62.7146 55.6473L62.7246 55.6573Z" fill="black"/>
<path d="M69.7988 40.4776C69.7988 40.4776 63.7748 41.7717 59.9668 34.9006" stroke="black" stroke-width="2" stroke-miterlimit="10" stroke-linecap="round" stroke-linejoin="round"/>
<path d="M50.0691 62.5287C47.8251 62.3868 44.5191 64.1383 47.0361 64.5321C47.9841 64.6804 47.9161 64.3651 49.6431 64.1813C51.3711 63.9975 52.7291 64.8044 53.2951 64.2965C54.4081 63.2991 52.2031 62.6635 50.0691 62.5287Z" fill="black" stroke="black" stroke-width="2" stroke-miterlimit="10" stroke-linejoin="round"/>
</svg>
