<svg width="100" height="100" viewBox="0 0 100 100" fill="none" xmlns="http://www.w3.org/2000/svg">
<g clip-path="url(#clip0_133_4794)">
<path d="M17.4062 24.802V62.142C17.4062 67.952 21.8463 67.462 23.9763 67.462H77.3862C82.5762 67.462 82.9762 64.362 82.9762 61.122V24.802C82.9762 20.312 81.3763 18.582 75.7863 18.582H25.8363C18.1163 18.582 17.4062 21.312 17.4062 24.802Z" stroke="black" stroke-width="2"/>
<path d="M44.596 67.9219V74.3619C44.596 76.4119 39.926 79.7119 40.736 80.0919C41.556 80.4719 59.906 80.5919 60.216 80.0919C60.526 79.5919 55.656 76.6019 55.656 74.3619C55.656 72.1219 55.626 70.5819 55.656 67.9219" stroke="black" stroke-width="2"/>
<path d="M40.6862 79.7217C40.6862 79.7217 40.3662 81.6117 40.6862 81.8217C41.0062 82.0317 60.2662 82.3517 60.2662 81.8217C60.2662 81.2917 60.3662 80.0617 60.0362 80.0617" stroke="black" stroke-width="2"/>
<path d="M17.7266 57.1318H82.6666" stroke="black" stroke-width="2"/>
<path d="M44.7861 40.722C44.7861 41.892 44.8161 43.612 44.8961 45.812C45.5561 46.322 47.3861 47.482 48.7461 48.302V43.082C48.0261 42.762 46.8361 42.092 44.7861 40.722ZM49.9861 36.402C49.1261 36.792 46.8561 38.042 45.5561 38.832C47.3561 40.032 48.9861 41.022 49.6061 41.292C50.2261 40.992 52.0261 40.022 54.1661 38.832C52.8661 37.982 50.7961 36.792 49.9861 36.402ZM55.1261 41.382C55.1061 41.082 55.0961 40.832 55.0861 40.602C53.5561 41.462 51.7761 42.432 50.7461 42.942V48.682C52.1861 47.942 54.5761 46.602 55.1761 46.072C55.2961 45.332 55.1761 42.692 55.1261 41.382ZM55.1261 41.382C55.1061 41.082 55.0961 40.832 55.0861 40.602C53.5561 41.462 51.7761 42.432 50.7461 42.942V48.682C52.1861 47.942 54.5761 46.602 55.1761 46.072C55.2961 45.332 55.1761 42.692 55.1261 41.382ZM49.9861 36.402C49.1261 36.792 46.8561 38.042 45.5561 38.832C47.3561 40.032 48.9861 41.022 49.6061 41.292C50.2261 40.992 52.0261 40.022 54.1661 38.832C52.8661 37.982 50.7961 36.792 49.9861 36.402ZM44.7861 40.722C44.7861 41.892 44.8161 43.612 44.8961 45.812C45.5561 46.322 47.3861 47.482 48.7461 48.302V43.082C48.0261 42.762 46.8361 42.092 44.7861 40.722ZM44.7861 40.722C44.7861 41.892 44.8161 43.612 44.8961 45.812C45.5561 46.322 47.3861 47.482 48.7461 48.302V43.082C48.0261 42.762 46.8361 42.092 44.7861 40.722ZM49.9861 36.402C49.1261 36.792 46.8561 38.042 45.5561 38.832C47.3561 40.032 48.9861 41.022 49.6061 41.292C50.2261 40.992 52.0261 40.022 54.1661 38.832C52.8661 37.982 50.7961 36.792 49.9861 36.402ZM55.1261 41.382C55.1061 41.082 55.0961 40.832 55.0861 40.602C53.5561 41.462 51.7761 42.432 50.7461 42.942V48.682C52.1861 47.942 54.5761 46.602 55.1761 46.072C55.2961 45.332 55.1761 42.692 55.1261 41.382ZM55.1261 41.382C55.1061 41.082 55.0961 40.832 55.0861 40.602C53.5561 41.462 51.7761 42.432 50.7461 42.942V48.682C52.1861 47.942 54.5761 46.602 55.1761 46.072C55.2961 45.332 55.1761 42.692 55.1261 41.382ZM49.9861 36.402C49.1261 36.792 46.8561 38.042 45.5561 38.832C47.3561 40.032 48.9861 41.022 49.6061 41.292C50.2261 40.992 52.0261 40.022 54.1661 38.832C52.8661 37.982 50.7961 36.792 49.9861 36.402ZM44.8961 45.812C45.5561 46.322 47.3861 47.482 48.7461 48.302V43.082C48.0261 42.762 46.8361 42.092 44.7861 40.722C44.7861 41.892 44.8161 43.612 44.8961 45.812ZM82.5261 21.132L79.1761 18.832H23.4561L19.6961 19.802L17.7861 22.732V57.142H83.1561V29.852L82.5261 21.132ZM46.8161 27.822C48.5761 25.442 49.2761 25.342 49.5461 25.302C49.8461 25.262 50.1561 25.342 50.3961 25.532C50.8161 25.862 52.2261 27.312 52.6061 27.732C52.9861 28.132 52.9661 28.772 52.5561 29.142C52.1561 29.522 51.5161 29.492 51.1461 29.092C51.0061 28.942 50.8461 28.772 50.6761 28.592V31.532C50.6761 32.082 50.2261 32.532 49.6761 32.532C49.1261 32.532 48.6761 32.082 48.6761 31.532V28.682C48.5961 28.792 48.5061 28.892 48.4261 29.002C48.2361 29.272 47.9261 29.412 47.6261 29.412C47.4161 29.412 47.2061 29.352 47.0261 29.212C46.5861 28.892 46.4861 28.262 46.8161 27.822ZM31.5561 47.762C31.4761 47.762 31.2061 47.782 30.8361 47.802C28.9661 47.892 27.6661 47.932 26.7361 47.932C24.8061 47.932 24.5261 47.742 24.2461 47.362C23.9861 47.012 23.7661 46.712 24.0461 26.322C24.0461 26.012 24.1861 25.702 24.4261 25.472C24.9961 24.932 26.1661 24.692 31.0161 24.922C31.2861 24.932 31.4761 24.942 31.5561 24.942C32.6861 24.942 32.7161 25.752 32.8161 29.162C32.8661 31.052 32.8961 33.602 32.8961 36.332C32.8961 47.762 32.7461 47.762 31.5561 47.762ZM40.9061 48.712L38.7961 50.622C38.9261 50.612 39.0661 50.602 39.1961 50.592C39.7461 50.532 40.2361 50.942 40.2961 51.482C40.3461 52.032 39.9461 52.522 39.3961 52.582C38.7161 52.652 38.1661 52.672 37.7161 52.672C36.2261 52.672 35.8661 52.372 35.7061 52.242C35.4661 52.042 35.3161 51.762 35.2961 51.452C35.2661 50.962 35.3961 49.022 35.4561 48.342C35.4961 47.792 35.9861 47.382 36.5361 47.432C37.0861 47.482 37.4961 47.962 37.4461 48.512C37.4261 48.712 37.4061 48.952 37.3961 49.192L39.5661 47.232C39.9761 46.862 40.6161 46.892 40.9861 47.302C41.3561 47.712 41.3161 48.342 40.9061 48.712ZM56.9361 47.072C56.6761 47.522 55.1261 48.542 53.5561 49.442C51.9761 50.342 50.3761 51.122 49.9861 51.122C49.7261 51.122 49.4661 51.122 46.3261 49.152C42.9361 47.032 42.9361 46.822 42.9061 46.272C42.8161 43.882 42.7761 42.222 42.7761 41.072C42.7761 38.692 42.9361 38.452 43.0661 38.232C43.4961 37.542 49.1961 34.322 49.9961 34.322C50.8661 34.322 56.2061 37.602 56.8061 38.362C57.1261 38.772 57.0961 39.162 57.0461 39.352C57.0461 39.472 57.0861 40.432 57.1261 41.282C57.2961 45.382 57.2661 46.512 56.9361 47.072ZM65.2061 51.442C65.1861 51.752 65.0461 52.032 64.8061 52.232C64.6461 52.362 64.2861 52.662 62.7961 52.662C62.3461 52.662 61.7961 52.642 61.1161 52.572C60.5661 52.512 60.1661 52.022 60.2161 51.472C60.2661 50.922 60.7661 50.522 61.3061 50.582C61.4461 50.592 61.5761 50.602 61.7161 50.612L59.5961 48.702C59.1861 48.332 59.1561 47.702 59.5261 47.292C59.8961 46.882 60.5261 46.852 60.9361 47.222L63.1161 49.182C63.0961 48.942 63.0861 48.712 63.0661 48.502C63.0161 47.952 63.4161 47.472 63.9761 47.422C64.5261 47.372 65.0061 47.782 65.0561 48.322C65.1161 49.012 65.2461 50.952 65.2061 51.442ZM76.7061 42.042C76.7061 42.452 76.4961 42.982 75.5261 43.162C74.4761 43.362 71.9561 43.442 69.9561 43.442H69.7261C64.9961 43.432 64.6261 43.052 64.3661 42.402C64.2461 42.072 64.0861 41.672 64.2861 26.962C64.2961 26.482 64.2961 26.192 64.2961 26.142C64.2961 25.042 64.7961 24.832 70.4961 24.832C76.1961 24.832 76.7061 25.042 76.7061 26.142V42.042ZM55.0861 40.602C53.5561 41.462 51.7761 42.432 50.7461 42.942V48.682C52.1861 47.942 54.5761 46.602 55.1761 46.072C55.2961 45.332 55.1761 42.692 55.1261 41.382C55.1061 41.082 55.0961 40.832 55.0861 40.602ZM49.9861 36.402C49.1261 36.792 46.8561 38.042 45.5561 38.832C47.3561 40.032 48.9861 41.022 49.6061 41.292C50.2261 40.992 52.0261 40.022 54.1661 38.832C52.8661 37.982 50.7961 36.792 49.9861 36.402ZM44.8961 45.812C45.5561 46.322 47.3861 47.482 48.7461 48.302V43.082C48.0261 42.762 46.8361 42.092 44.7861 40.722C44.7861 41.892 44.8161 43.612 44.8961 45.812ZM44.7861 40.722C44.7861 41.892 44.8161 43.612 44.8961 45.812C45.5561 46.322 47.3861 47.482 48.7461 48.302V43.082C48.0261 42.762 46.8361 42.092 44.7861 40.722ZM49.9861 36.402C49.1261 36.792 46.8561 38.042 45.5561 38.832C47.3561 40.032 48.9861 41.022 49.6061 41.292C50.2261 40.992 52.0261 40.022 54.1661 38.832C52.8661 37.982 50.7961 36.792 49.9861 36.402ZM55.1261 41.382C55.1061 41.082 55.0961 40.832 55.0861 40.602C53.5561 41.462 51.7761 42.432 50.7461 42.942V48.682C52.1861 47.942 54.5761 46.602 55.1761 46.072C55.2961 45.332 55.1761 42.692 55.1261 41.382ZM55.1261 41.382C55.1061 41.082 55.0961 40.832 55.0861 40.602C53.5561 41.462 51.7761 42.432 50.7461 42.942V48.682C52.1861 47.942 54.5761 46.602 55.1761 46.072C55.2961 45.332 55.1761 42.692 55.1261 41.382ZM49.9861 36.402C49.1261 36.792 46.8561 38.042 45.5561 38.832C47.3561 40.032 48.9861 41.022 49.6061 41.292C50.2261 40.992 52.0261 40.022 54.1661 38.832C52.8661 37.982 50.7961 36.792 49.9861 36.402ZM44.7861 40.722C44.7861 41.892 44.8161 43.612 44.8961 45.812C45.5561 46.322 47.3861 47.482 48.7461 48.302V43.082C48.0261 42.762 46.8361 42.092 44.7861 40.722Z" fill="black"/>
<path d="M72.2258 30.4717H68.2158C67.6658 30.4717 67.2158 30.0217 67.2158 29.4717C67.2158 28.9217 67.6658 28.4717 68.2158 28.4717H72.2258C72.7758 28.4717 73.2258 28.9217 73.2258 29.4717C73.2258 30.0217 72.7758 30.4717 72.2258 30.4717Z" fill="black"/>
<path d="M72.2258 34.082H68.2158C67.6658 34.082 67.2158 33.632 67.2158 33.082C67.2158 32.532 67.6658 32.082 68.2158 32.082H72.2258C72.7758 32.082 73.2258 32.532 73.2258 33.082C73.2258 33.632 72.7758 34.082 72.2258 34.082Z" fill="black"/>
<path d="M70.9158 38.0918H68.2158C67.6658 38.0918 67.2158 37.6418 67.2158 37.0918C67.2158 36.5418 67.6658 36.0918 68.2158 36.0918H70.9158C71.4658 36.0918 71.9158 36.5418 71.9158 37.0918C71.9158 37.6418 71.4658 38.0918 70.9158 38.0918Z" fill="black"/>
<path d="M28.8167 31.0225H28.0967C27.5467 31.0225 27.0967 30.5725 27.0967 30.0225C27.0967 29.4725 27.5467 29.0225 28.0967 29.0225H28.8167C29.3667 29.0225 29.8167 29.4725 29.8167 30.0225C29.8167 30.5725 29.3667 31.0225 28.8167 31.0225Z" fill="black"/>
<path d="M28.8167 34.832H28.0967C27.5467 34.832 27.0967 34.382 27.0967 33.832C27.0967 33.282 27.5467 32.832 28.0967 32.832H28.8167C29.3667 32.832 29.8167 33.282 29.8167 33.832C29.8167 34.382 29.3667 34.832 28.8167 34.832Z" fill="black"/>
<path d="M28.8167 38.752H28.0967C27.5467 38.752 27.0967 38.302 27.0967 37.752C27.0967 37.202 27.5467 36.752 28.0967 36.752H28.8167C29.3667 36.752 29.8167 37.202 29.8167 37.752C29.8167 38.302 29.3667 38.752 28.8167 38.752Z" fill="black"/>
<path d="M28.8167 42.8818H28.0967C27.5467 42.8818 27.0967 42.4318 27.0967 41.8818C27.0967 41.3318 27.5467 40.8818 28.0967 40.8818H28.8167C29.3667 40.8818 29.8167 41.3318 29.8167 41.8818C29.8167 42.4318 29.3667 42.8818 28.8167 42.8818Z" fill="black"/>
<path d="M50.1966 63.822C51.1024 63.822 51.8366 63.0877 51.8366 62.182C51.8366 61.2762 51.1024 60.542 50.1966 60.542C49.2909 60.542 48.5566 61.2762 48.5566 62.182C48.5566 63.0877 49.2909 63.822 50.1966 63.822Z" fill="black"/>
</g>
<defs>
<clipPath id="clip0_133_4794">
<rect width="67.57" height="65.54" fill="white" transform="translate(16.4062 17.582)"/>
</clipPath>
</defs>
</svg>
