<svg width="100" height="100" viewBox="0 0 100 100" fill="none" xmlns="http://www.w3.org/2000/svg">
<path d="M77.3973 47.5934C77.3973 39.9659 77.3973 32.5203 77.3973 29.9889C77.3973 23.4337 71.2783 20.5726 67.6667 19.9277C65.1571 19.4796 59.4762 19.4589 56.832 19.459C54.1878 19.4591 40.6219 19.459 30.2029 19.459C19.7838 19.459 17.543 29.213 17.543 31.7625C17.543 33.8021 17.543 58.3273 17.543 70.3349C18.2079 76.3203 22.9743 79.6457 27.5188 79.6457C32.0632 79.6457 62.2265 80.0113 68.3321 79.5387C76.8415 78.88 77.3973 70.6119 77.3973 67.6192C77.3973 66.2528 77.3973 59.445 77.3973 51.922" stroke="black" stroke-width="2"/>
<path d="M22.2246 37.3037C28.7163 37.3037 32.6061 37.0598 39.8907 37.3037M72.2738 37.3037C72.0852 37.3037 71.6311 37.3074 70.9658 37.3134" stroke="black" stroke-width="2" stroke-linecap="round"/>
<path d="M22.2246 62.4082C28.7163 62.4082 36.9778 62.1643 44.2624 62.4082C51.547 62.6522 71.5537 62.4082 73.0912 62.4082" stroke="black" stroke-width="2" stroke-linecap="round"/>
<path d="M44.5371 49.8564C37.2525 49.6125 23.5727 49.8564 22.0352 49.8564" stroke="black" stroke-width="2" stroke-linecap="round"/>
<path d="M46.8867 50.875C46.6427 58.1596 46.8867 72.5104 46.8867 74.0479" stroke="black" stroke-width="2" stroke-linecap="round"/>
<path d="M59.3203 75.165C59.3203 68.6733 59.0764 60.6079 59.3204 53.3233" stroke="black" stroke-width="2" stroke-linecap="round"/>
<path d="M34.4551 75.0186C34.4551 68.5268 34.2111 61.3107 34.4551 54.0261C34.6991 46.7415 34.4551 26.7348 34.4551 25.1972" stroke="black" stroke-width="2" stroke-linecap="round"/>
<path d="M69.5341 54.8256C67.9716 63.0653 61.9063 71.361 49.2753 72.5269C28.9395 74.4041 17.8327 53.8811 28.4699 38.1132C32.1758 32.6198 36.5458 29.0318 41.7359 28.3205" stroke="black" stroke-width="2"/>
<path d="M40.2443 46.583C37.708 51.6884 40.78 57.9028 47.5358 57.2792C51.3976 56.9227 53.2515 54.5175 53.6092 53.0542" stroke="black" stroke-width="2"/>
<path d="M71.2777 46.002C71.2974 40.6952 71.3356 29.3629 71.2682 28.9586C71.1822 28.4423 56.0415 23.2743 55.3531 23.3604C54.8024 23.4293 45.1663 26.9508 40.118 28.9586C39.613 29.1593 40.118 47.2204 40.118 47.6506C40.118 48.0809 55.2629 54.2574 55.9513 54.4295C56.3822 54.5372 62.2744 52.5885 66.6224 50.9045" stroke="black" stroke-width="2" stroke-linecap="round"/>
<path d="M39.9619 29.8506C44.9055 31.6218 55.776 35.6717 56.22 35.4813C56.664 35.2909 66.4507 31.9919 70.9713 29.8506" stroke="black" stroke-width="2" stroke-linecap="round"/>
<path d="M56.1533 35.8926V54.2349" stroke="black" stroke-width="2" stroke-linecap="round"/>
<path d="M56.2705 35.398V54.3916L66.7279 51.1665L64.7166 44.8608L71.5115 45.8936L71.0677 30.4287L56.2705 35.398Z" fill="black"/>
<path d="M72.7775 59.2693C72.1219 59.835 64.6616 46.8418 64.7416 45.4282C64.8215 44.0146 80.0484 48.7545 80.712 49.4684C81.3757 50.1823 74.9584 52.5747 74.4309 52.7917C73.9034 53.0086 73.5969 58.5622 72.7775 59.2693Z" stroke="black" stroke-width="2" stroke-linecap="round"/>
</svg>
