<svg width="100" height="100" viewBox="0 0 100 100" fill="none" xmlns="http://www.w3.org/2000/svg">
<path d="M37.7759 57.5273C34.6443 57.5273 28.7262 57.5273 27.4254 57.5273C25.7994 57.5273 17.1273 76.8589 18.0306 77.2203C18.934 77.5816 79.639 77.2203 82.1684 77.2203C84.6978 77.2203 74.9416 57.5273 73.8576 57.5273C72.9904 57.5273 66.2954 57.5273 62.7422 57.5273" stroke="black" stroke-width="2"/>
<path d="M27.0361 57.9608V16.4062" stroke="black" stroke-width="2"/>
<path d="M74.4209 57.9608V16.4062" stroke="black" stroke-width="2"/>
<path d="M27.2844 16.1576C26.4905 16.4553 20.6686 26.1224 17.8569 30.9187C16.3683 32.0349 82.1116 30.9187 82.9799 30.9187C83.8482 30.9187 75.9094 16.1576 74.7931 16.1576C73.6767 16.1576 28.2767 15.7854 27.2844 16.1576Z" stroke="black" stroke-width="2"/>
<path d="M17.8486 31.043C17.9682 33.2694 17.9588 77.1237 17.9588 77.1237" stroke="black" stroke-width="2"/>
<path d="M83.0226 30.8962L82.5859 76.8148" stroke="black" stroke-width="2"/>
<path d="M21.5781 77.8076C21.5781 77.8076 21.663 84.0097 22.7672 84.0097C23.8713 84.0097 77.0393 84.4591 78.0317 83.7147C79.024 82.9704 78.8863 77.8076 78.8863 77.8076" stroke="black" stroke-width="2"/>
<path d="M42.2225 31.294C42.2225 31.294 41.6208 26.7061 42.2225 26.1387C42.8242 25.5712 57.6317 25.6862 57.6317 26.1385C57.6317 26.5909 57.6317 29.6684 57.6317 31.294" stroke="black" stroke-width="2"/>
<path d="M47.0605 31.4258C47.0605 31.4258 47.0605 34.7559 47.0605 35.3676C47.0605 35.9793 49.5072 38.494 50.0509 38.6299C50.5946 38.7658 52.5656 35.9793 52.5656 35.3676C52.5656 34.7559 52.5656 31.4258 52.5656 31.4258" stroke="black" stroke-width="2"/>
<path d="M42.0693 26.1898C42.8901 23.9277 45.4326 22.3651 46.1566 22.2685C47.0616 22.1478 53.3356 22.2685 54.0596 22.2685C54.6387 22.2685 56.8339 24.8827 57.4774 26.1898" stroke="black" stroke-width="2" stroke-linecap="round"/>
<path d="M52.7512 31.6791L47.0703 31.2939V35.5306L49.5737 39.1894L52.5104 35.5306L52.7512 31.6791Z" fill="black"/>
<path d="M43.1394 24.3271H21.1846" stroke="black" stroke-width="2"/>
<path d="M80.0851 24.3271H56.209" stroke="black" stroke-width="2"/>
<path d="M49.7671 38.1133C49.7671 39.7882 51.0781 40.7208 50.1601 42.5842C49.3849 44.158 50.1534 46.5152 53.0671 45.8475C56.5008 45.0606 58.0959 46.7797 56.7155 48.9235C55.8201 50.314 46.0086 46.2164 45.6998 47.779C44.9834 51.4042 48.4516 51.028 51.2072 51.4042C53.9971 51.785 61.8695 49.6819 62.2629 50.6259C62.6562 51.5698 62.2629 64.4706 62.2629 65.5719C62.2629 66.4529 50.8054 71.9231 50.4319 71.6289C50.0585 71.3347 50.1848 56.2955 50.4319 55.826C50.6791 55.3565 61.7436 51.4042 61.7436 51.4042" stroke="black" stroke-width="2"/>
<path d="M50.4918 71.7068C46.0049 69.8518 37.4822 65.7282 37.4823 64.9745C37.4825 63.5743 36.5047 50.7258 37.4823 49.7482C38.2643 48.9661 39.4218 48.822 42.154 47.8945" stroke="black" stroke-width="2" stroke-linecap="round"/>
<path d="M50.4916 55.6482L37.4717 50.3545" stroke="black" stroke-width="2"/>
<path d="M62.1892 51.291L50.96 55.6812L50.3691 63.533L50.96 71.8071L62.1892 66.0659V51.291Z" fill="black"/>
<path d="M79.2203 77.4014H21.7148L22.5529 83.6861L77.6491 84.4194L79.2203 81.1722V77.4014Z" fill="black"/>
</svg>
