<svg width="100" height="100" viewBox="0 0 100 100" fill="none" xmlns="http://www.w3.org/2000/svg">
<g clip-path="url(#clip0_133_4780)">
<path d="M83.705 72.8808H74.625C71.975 72.8808 70.625 71.6008 70.625 69.0808V49.9208C70.625 48.2908 71.435 46.3408 75.325 46.3408H81.875C83.985 46.3408 86.455 47.1608 86.455 49.4708V66.6708C86.455 68.3708 86.455 72.8908 83.715 72.8908L83.705 72.8808ZM75.315 48.3308C72.615 48.3308 72.615 49.3208 72.615 49.9108V69.0708C72.615 70.4708 73.065 70.8708 74.615 70.8708H83.695C83.695 70.8708 84.435 70.5608 84.435 66.6508V49.4508C84.435 48.3508 81.885 48.3208 81.855 48.3208H75.305L75.315 48.3308Z" fill="black"/>
<path d="M46.1247 74.9114H35.3447V65.1914H37.3447V72.9114H44.1247V65.1914H46.1247V74.9114Z" fill="black"/>
<path d="M49.0953 76.3711H32.4453C31.8953 76.3711 31.4453 75.9211 31.4453 75.3711C31.4453 74.8211 31.8953 74.3711 32.4453 74.3711H49.0953C49.6453 74.3711 50.0953 74.8211 50.0953 75.3711C50.0953 75.9211 49.6453 76.3711 49.0953 76.3711Z" fill="black"/>
<path d="M75.4647 39.3506H49.5547C49.0047 39.3506 48.5547 38.9006 48.5547 38.3506C48.5547 37.8006 49.0047 37.3506 49.5547 37.3506H75.4647C76.0147 37.3506 76.4647 37.8006 76.4647 38.3506C76.4647 38.9006 76.0147 39.3506 75.4647 39.3506Z" fill="black"/>
<path d="M84.7854 68.0215H72.0654C71.5154 68.0215 71.0654 67.5715 71.0654 67.0215C71.0654 66.4715 71.5154 66.0215 72.0654 66.0215H84.7854C85.3354 66.0215 85.7854 66.4715 85.7854 67.0215C85.7854 67.5715 85.3354 68.0215 84.7854 68.0215Z" fill="black"/>
<path d="M85.0855 52.5908H72.1055C71.5555 52.5908 71.1055 52.1408 71.1055 51.5908C71.1055 51.0408 71.5555 50.5908 72.1055 50.5908H85.0855C85.6355 50.5908 86.0855 51.0408 86.0855 51.5908C86.0855 52.1408 85.6355 52.5908 85.0855 52.5908Z" fill="black"/>
<path d="M29.4453 36.4307C30.1453 37.4207 31.3253 39.6007 31.9353 41.2007C31.8953 41.2407 31.8653 41.2907 31.8253 41.3407C29.0253 41.5207 27.6353 41.4907 26.9453 41.4107C27.9453 39.0807 28.8853 37.2707 29.4453 36.4307Z" fill="black"/>
<path d="M39.3245 42.161C40.1345 43.361 40.4245 44.961 40.0245 45.971C39.4745 47.351 37.2945 48.381 35.5445 48.091C33.9345 47.831 33.0245 46.551 32.8945 44.441C32.8945 41.431 36.0345 40.751 37.1345 40.751C38.2345 40.751 38.9645 41.631 39.3245 42.161Z" fill="black"/>
<path d="M64.775 25.6608C64.085 24.9508 63.125 24.5908 61.905 24.5908C61.155 24.5908 58.925 24.5908 55.835 24.5808C43.785 24.5408 18.725 24.5008 16.875 24.6008C14.945 24.7008 12.645 25.6208 12.645 29.4008V62.2508C12.545 62.9508 12.775 63.6908 13.275 64.2808C14.115 65.2908 15.605 65.8008 17.705 65.8008H48.425V63.8008H17.705C15.695 63.8008 15.005 63.2408 14.805 63.0008C14.595 62.7408 14.625 62.5308 14.625 62.5008V57.2308H45.625C45.625 53.5708 45.605 49.7508 45.585 46.4508C45.565 43.4208 45.555 40.8408 45.555 39.2408V38.8708C45.535 36.9508 45.515 33.3608 47.605 31.2608C48.645 30.2208 50.035 29.6908 51.755 29.6908C53.945 29.6908 56.215 29.6808 58.735 29.6808C60.915 29.6708 63.295 29.6708 65.985 29.6708C65.965 28.1708 65.765 26.6808 64.775 25.6608ZM41.875 46.7108C41.095 48.6808 38.555 50.1408 36.125 50.1408C35.825 50.1408 35.515 50.1208 35.215 50.0708C34.005 49.8708 31.155 48.9308 30.895 44.4908C30.895 44.1008 30.925 43.7308 30.995 43.3908C29.965 43.4508 29.125 43.4708 28.415 43.4708C26.025 43.4708 25.295 43.1608 24.905 42.6108C24.645 42.2508 24.605 41.8008 24.785 41.3808C27.955 33.7708 28.975 33.9608 29.645 34.0808C30.975 34.3208 32.775 38.1308 33.505 39.7908C34.685 39.0708 36.055 38.7508 37.135 38.7508C38.595 38.7508 39.995 39.5808 40.975 41.0408C42.175 42.8008 42.535 45.0808 41.875 46.7108Z" fill="black"/>
<path d="M71.8651 70.6912C71.7351 70.7712 71.3451 70.8712 70.8851 70.9012C71.2451 71.6412 71.9251 72.2012 72.5451 72.5612H72.5551C72.7751 72.4812 72.9851 72.3612 73.1551 72.2212L71.8651 70.6912ZM73.0251 31.7412H51.8151C50.6351 31.7412 49.6951 32.0912 49.0251 32.7812C47.6151 34.2112 47.6551 36.7912 47.7051 39.7812C47.7151 40.3412 47.7251 40.9312 47.7251 41.5412V69.6612L47.7451 69.8812C47.9951 70.9312 49.3251 72.9212 52.6051 72.9212H69.8551C69.3551 72.3512 68.9651 71.6812 68.7751 70.9212H52.6051C50.6351 70.9212 49.8851 69.9812 49.7251 69.5212V66.4412H68.6151C68.6151 64.9312 68.6151 63.0512 68.6051 61.0812C68.5951 55.9912 68.5951 50.3912 68.5951 49.4212C68.5951 46.4812 71.3151 44.2612 74.9351 44.2612H76.9651V38.5412C76.9651 34.2212 75.5351 31.7412 73.0251 31.7412ZM66.6451 54.8312C66.0351 56.3412 64.1751 57.4212 62.3451 57.4212C62.1151 57.4212 61.8751 57.4012 61.6451 57.3612C59.7251 57.0512 58.4951 55.4912 58.3651 53.1812C58.3651 53.0212 58.3651 52.8612 58.3951 52.7012C57.8451 52.7312 57.3651 52.7412 56.9351 52.7412C55.2751 52.7412 54.5751 52.5212 54.2151 52.0112C53.9751 51.6712 53.9351 51.2412 54.1051 50.8612C56.4151 45.3012 57.1851 45.4412 57.8451 45.5612C58.8451 45.7412 60.0351 48.1012 60.6251 49.4212C61.3651 49.0312 62.2051 48.8312 63.0351 48.8312C64.1651 48.8312 65.2351 49.4712 65.9751 50.5712C66.8651 51.8812 67.1351 53.5912 66.6451 54.8312ZM74.9651 38.5612H49.6851C49.6851 36.6012 49.7651 34.8812 50.4451 34.1812C50.5551 34.0712 50.8751 33.7412 51.8151 33.7412H73.0251C74.8251 33.7412 74.9651 37.4212 74.9651 38.5412V38.5612ZM63.0351 50.8312C62.2951 50.8312 60.3651 51.2412 60.3651 53.1212C60.4451 54.4512 60.9851 55.2312 61.9651 55.3912C63.1551 55.5912 64.4851 54.8312 64.7851 54.0812C65.0251 53.4712 64.8351 52.4412 64.3251 51.6912C64.1451 51.4312 63.6751 50.8312 63.0351 50.8312ZM56.3351 50.7312C56.8351 50.7512 57.6551 50.7412 58.9951 50.6612C58.6251 49.7712 58.0651 48.7312 57.6551 48.0612C57.3051 48.6712 56.8251 49.6112 56.3351 50.7312Z" fill="black"/>
<path d="M71.9747 51.4814L71.5947 67.0714H85.3247V51.4814H71.9747ZM82.0747 61.0714C81.7147 61.9714 80.6547 62.6114 79.5947 62.6114C79.4547 62.6114 79.3147 62.6114 79.1847 62.5714C78.3447 62.4414 77.4147 61.7914 77.2447 60.4014C77.1247 60.4114 77.0147 60.4114 76.9147 60.4114C75.9447 60.4114 75.5693 60.1882 75.1647 59.8314C74.7601 59.4747 75.0647 58.7714 75.0647 58.7714C76.1647 56.1114 76.6947 55.7314 77.4547 55.8614C78.1147 55.9914 78.6847 56.9514 79.0447 57.7114C79.3247 57.6214 79.6247 57.5714 79.9147 57.5714C80.6047 57.5714 81.2647 57.9414 81.7147 58.6014C82.2247 59.3614 82.3647 60.3314 82.0747 61.0714Z" fill="black"/>
</g>
<defs>
<clipPath id="clip0_133_4780">
<rect width="73.82" height="51.83" fill="white" transform="translate(12.625 24.541)"/>
</clipPath>
</defs>
</svg>
