<svg width="100" height="100" viewBox="0 0 100 100" fill="none" xmlns="http://www.w3.org/2000/svg">
<path fill-rule="evenodd" clip-rule="evenodd" d="M23.487 69.7204C24.7477 70.5518 26.1496 70.8652 27.1321 70.8892L70.365 71.9453C75.5366 72.0717 77.6569 68.8994 78.341 66.0837C79.9671 67.5939 80.2872 71.285 78.9852 73.9707C77.6466 76.7317 64.2537 75.831 53.3475 75.0974C50.2425 74.8886 47.3391 74.6933 44.9728 74.5999C21.2084 73.6623 21.9206 71.7587 22.3334 70.6554C22.3615 70.5804 22.3881 70.5091 22.4057 70.442C22.1229 70.1742 22.5277 69.9369 23.487 69.7204Z" fill="black"/>
<path d="M79.7883 40.6587C81.1979 40.4888 84.5972 40.5634 85.2474 41.5603C86.0602 42.8064 85.701 57.5126 85.2497 58.7279C84.7984 59.9431 82.2551 60.4941 79.3055 60.422" stroke="black" stroke-width="2"/>
<path d="M20.4944 39.2095C19.0948 38.971 15.6959 38.8795 14.9978 39.8434C14.1251 41.0484 13.7658 55.7546 14.1573 56.9904C14.5487 58.2262 17.062 58.9007 20.0116 58.9728" stroke="black" stroke-width="2"/>
<path d="M28.1577 28.8916C22.2455 29.3611 20.9973 35.3083 21.1227 38.6072L20.5192 63.3113C20.3743 69.2402 24.8672 70.8331 27.1317 70.8884L70.3646 71.9446C77.2818 72.1136 78.7401 66.3815 78.6047 63.4943L79.178 40.0255C79.3953 31.132 74.0769 29.6014 71.3906 29.9477C63.6491 28.6181 37.7625 28.1289 28.1577 28.8916Z" stroke="black" stroke-width="2"/>
<path d="M41.6489 58.7363C41.6489 58.7363 44.1121 59.0928 49.6705 59.2286C55.2289 59.3644 57.7066 59.1286 57.7066 59.1286" stroke="black" stroke-width="2" stroke-linecap="round"/>
<circle cx="63.4135" cy="47.5844" r="3.5" transform="rotate(1.39941 63.4135 47.5844)" fill="black" stroke="black" stroke-width="2"/>
<circle cx="36.4135" cy="46.5844" r="3.5" transform="rotate(1.39941 36.4135 46.5844)" fill="black" stroke="black" stroke-width="2"/>
<path d="M82.2572 40.7185L82.6042 26.5137" stroke="black" stroke-width="2"/>
<path d="M18.0292 39.1501L18.3762 24.9453" stroke="black" stroke-width="2"/>
<ellipse cx="82.4263" cy="24.0357" rx="1.5" ry="3" transform="rotate(1.39941 82.4263 24.0357)" fill="black" stroke="black" stroke-width="2"/>
<ellipse cx="18.4263" cy="23.0357" rx="1.5" ry="3" transform="rotate(1.39941 18.4263 23.0357)" fill="black" stroke="black" stroke-width="2"/>
</svg>
