<svg width="100" height="100" viewBox="0 0 100 100" fill="none" xmlns="http://www.w3.org/2000/svg">
<path d="M44.207 73.6209H22.068C21.3108 73.6209 20.7085 72.9819 20.7443 72.2255C21.6814 52.4041 20.7711 39.159 20.6826 28.032C20.6753 27.1186 21.4163 26.3799 22.3297 26.3799H29.9691H35.905C36.4882 26.3799 37.0283 26.687 37.3265 27.1882L39.9102 31.5314H71.49C72.3316 31.5314 73.039 32.1635 73.1335 32.9998L73.7101 38.1066" stroke="black" stroke-width="2" stroke-linecap="round" stroke-linejoin="round"/>
<path d="M77.4962 38.2344H27.9944C27.1862 38.2344 26.4964 38.8184 26.3631 39.6155L20.8047 72.8499C20.7372 73.2533 21.0482 73.6207 21.4572 73.6207H60.2234H72.3225C72.9526 73.6207 73.4948 73.1796 73.6199 72.562C74.2249 69.5754 75.959 61.0664 76.8059 57.4495C77.6183 53.9803 78.7049 44.1391 79.1363 40.0504C79.239 39.0771 78.4749 38.2344 77.4962 38.2344Z" stroke="black" stroke-width="2" stroke-linecap="round" stroke-linejoin="round"/>
<path d="M28.239 76.3422C21.0141 76.1649 19.8018 73.8108 20.0584 73.1997C18.067 72.0264 54.2906 74.7821 72.0424 73.1997C74.0244 73.0899 73.6028 71.1497 75.0471 71.3608C83.3481 72.5737 82.4154 76.3422 71.3162 76.3422C60.217 76.3422 60.6152 76.3118 51.6362 76.3422C42.7414 76.3722 33.1945 76.4638 28.239 76.3422Z" fill="black"/>
<path d="M64.9102 43.084H74.0181" stroke="black" stroke-width="2" stroke-linecap="round" stroke-linejoin="round"/>
</svg>
