<svg width="100" height="100" viewBox="0 0 100 100" fill="none" xmlns="http://www.w3.org/2000/svg">
<path d="M45.0283 77.9133L21.8371 77.7858C20.9713 77.7811 20.2717 76.9467 20.2775 75.8976C20.456 72.824 20.3256 69.2428 20.3331 65.7894C20.351 62.5255 20.3682 59.3882 20.3825 56.7951C20.3832 56.664 20.3983 56.0084 20.8515 55.4717C21.1419 55.1382 21.5241 54.9217 21.9627 54.9241C24.8387 54.6485 27.8643 54.4465 31.0393 54.3766C35.4959 54.2699 40.5561 54.3322 44.4448 54.645C45.4024 54.7377 46.0937 54.9892 46.3438 55.69C46.5597 56.3032 46.5555 57.0755 46.5314 57.2502C46.3702 63.4858 46.7698 69.8066 46.6086 76.0422C46.5913 77.0913 45.8941 77.918 45.0283 77.9133Z" stroke="black" stroke-width="2" stroke-miterlimit="10"/>
<path d="M78.5635 76.4119L54.9123 76.7169C54.0293 76.7283 53.3005 75.9074 53.2869 74.8588C53.4121 71.7835 53.2129 68.2067 53.1566 64.7551C53.1146 61.4926 53.0741 58.3566 53.0407 55.7647C53.039 55.6336 53.0423 54.9781 53.4945 54.4333C53.7845 54.0945 54.1702 53.871 54.6175 53.8652C57.5452 53.5361 60.6268 53.2779 63.8632 53.1488C68.4057 52.9591 73.567 52.927 77.5381 53.1672C78.5164 53.2419 79.2259 53.4804 79.494 54.1762C79.7255 54.785 79.7355 55.5569 79.7142 55.732C79.6651 61.9673 80.1895 68.2772 80.1404 74.5124C80.1422 75.5612 79.4465 76.4005 78.5635 76.4119Z" stroke="black" stroke-width="2" stroke-miterlimit="10"/>
<path d="M45.1094 48.1463L21.4152 48.1333C20.5307 48.1328 19.8117 47.2354 19.8123 46.1023C19.9793 42.7819 19.8281 38.9148 19.8183 35.1851C19.8203 31.66 19.8221 28.2715 19.8237 25.4709C19.8238 25.3293 19.8359 24.6211 20.2962 24.0391C20.5913 23.6773 20.9806 23.4415 21.4288 23.4417C24.3657 23.1286 27.4558 22.8942 30.6992 22.8016C35.2518 22.6624 40.4219 22.7026 44.3963 23.0195C45.3752 23.1145 46.0827 23.3824 46.3417 24.1379C46.5655 24.799 46.565 25.6331 46.5413 25.8219C46.4079 32.5573 46.8479 39.3817 46.7145 46.1171C46.702 47.2502 45.9939 48.1468 45.1094 48.1463Z" stroke="black" stroke-width="2" stroke-miterlimit="10"/>
<path d="M57.4273 22.3275L78.5351 22.0938C79.3231 22.0851 79.972 22.8502 79.982 23.8256C79.8642 26.6857 80.0349 30.0131 80.0784 33.2237C80.1095 36.2583 80.1394 39.1753 80.1642 41.5861C80.1654 41.7081 80.1612 42.3178 79.7565 42.8236C79.4971 43.1381 79.1524 43.3452 78.7532 43.3496C76.1398 43.6495 73.3891 43.8832 70.5006 43.9965C66.4463 44.1633 61.8401 44.1822 58.2966 43.9505C57.4237 43.8788 56.791 43.6555 56.5532 43.0078C56.3477 42.441 56.3403 41.723 56.3597 41.5602C56.4158 35.7607 55.9602 29.8905 56.0163 24.091C56.0168 23.1154 56.6393 22.3363 57.4273 22.3275Z" fill="black"/>
<path d="M53.8876 22.6989L77.9941 22.432C78.8941 22.422 79.6352 23.3109 79.6468 24.4439C79.5129 27.7661 79.7086 31.6311 79.7588 35.3605C79.795 38.8854 79.8297 42.2737 79.8585 45.0742C79.8599 45.2158 79.8552 45.9241 79.3932 46.5115C79.0969 46.8767 78.7034 47.1172 78.2474 47.1222C75.2628 47.47 72.1214 47.7409 68.8226 47.8718C64.1924 48.0648 58.9318 48.0857 54.8849 47.8158C53.888 47.7324 53.1653 47.4728 52.8935 46.7204C52.6588 46.062 52.6502 45.228 52.6723 45.0389C52.7352 38.3023 52.2137 31.4836 52.2766 24.747C52.277 23.6138 52.9877 22.7089 53.8876 22.6989Z" stroke="black" stroke-width="2" stroke-miterlimit="10"/>
</svg>
